<?xml version="1.0" encoding="utf-8" standalone="no"?>
<!DOCTYPE svg PUBLIC "-//W3C//DTD SVG 1.1//EN"
  "http://www.w3.org/Graphics/SVG/1.1/DTD/svg11.dtd">
<svg xmlns:xlink="http://www.w3.org/1999/xlink" width="720pt" height="360pt" viewBox="0 0 720 360" xmlns="http://www.w3.org/2000/svg" version="1.1">
 <metadata>
  <rdf:RDF xmlns:dc="http://purl.org/dc/elements/1.1/" xmlns:cc="http://creativecommons.org/ns#" xmlns:rdf="http://www.w3.org/1999/02/22-rdf-syntax-ns#">
   <cc:Work>
    <dc:type rdf:resource="http://purl.org/dc/dcmitype/StillImage"/>
    <dc:date>2025-04-11T19:36:17.721892</dc:date>
    <dc:format>image/svg+xml</dc:format>
    <dc:creator>
     <cc:Agent>
      <dc:title>Matplotlib v3.9.2, https://matplotlib.org/</dc:title>
     </cc:Agent>
    </dc:creator>
   </cc:Work>
  </rdf:RDF>
 </metadata>
 <defs>
  <style type="text/css">*{stroke-linejoin: round; stroke-linecap: butt}</style>
 </defs>
 <g id="figure_1">
  <g id="patch_1">
   <path d="M 0 360 
L 720 360 
L 720 0 
L 0 0 
z
" style="fill: #ffffff"/>
  </g>
  <g id="axes_1">
   <g id="patch_2">
    <path d="M 83.052 304.308 
L 704.448 304.308 
L 704.448 32.352 
L 83.052 32.352 
z
" style="fill: #ffffff"/>
   </g>
   <g id="matplotlib.axis_1">
    <g id="xtick_1">
     <g id="line2d_1">
      <path d="M 108.458552 304.308 
L 108.458552 32.352 
" clip-path="url(#p0c95e3ea8d)" style="fill: none; stroke: #cccccc; stroke-linecap: round"/>
     </g>
     <g id="text_1">
      <!-- 0 -->
      <g style="fill: #262626" transform="translate(104.788333 323.256313) scale(0.132 -0.132)">
       <defs>
        <path id="ArialMT-30" d="M 266 2259 
Q 266 3072 433 3567 
Q 600 4063 929 4331 
Q 1259 4600 1759 4600 
Q 2128 4600 2406 4451 
Q 2684 4303 2865 4023 
Q 3047 3744 3150 3342 
Q 3253 2941 3253 2259 
Q 3253 1453 3087 958 
Q 2922 463 2592 192 
Q 2263 -78 1759 -78 
Q 1097 -78 719 397 
Q 266 969 266 2259 
z
M 844 2259 
Q 844 1131 1108 757 
Q 1372 384 1759 384 
Q 2147 384 2411 759 
Q 2675 1134 2675 2259 
Q 2675 3391 2411 3762 
Q 2147 4134 1753 4134 
Q 1366 4134 1134 3806 
Q 844 3388 844 2259 
z
" transform="scale(0.015625)"/>
       </defs>
       <use xlink:href="#ArialMT-30"/>
      </g>
     </g>
    </g>
    <g id="xtick_2">
     <g id="line2d_2">
      <path d="M 179.426574 304.308 
L 179.426574 32.352 
" clip-path="url(#p0c95e3ea8d)" style="fill: none; stroke: #cccccc; stroke-linecap: round"/>
     </g>
     <g id="text_2">
      <!-- 25 -->
      <g style="fill: #262626" transform="translate(172.086136 323.256313) scale(0.132 -0.132)">
       <defs>
        <path id="ArialMT-32" d="M 3222 541 
L 3222 0 
L 194 0 
Q 188 203 259 391 
Q 375 700 629 1000 
Q 884 1300 1366 1694 
Q 2113 2306 2375 2664 
Q 2638 3022 2638 3341 
Q 2638 3675 2398 3904 
Q 2159 4134 1775 4134 
Q 1369 4134 1125 3890 
Q 881 3647 878 3216 
L 300 3275 
Q 359 3922 746 4261 
Q 1134 4600 1788 4600 
Q 2447 4600 2831 4234 
Q 3216 3869 3216 3328 
Q 3216 3053 3103 2787 
Q 2991 2522 2730 2228 
Q 2469 1934 1863 1422 
Q 1356 997 1212 845 
Q 1069 694 975 541 
L 3222 541 
z
" transform="scale(0.015625)"/>
        <path id="ArialMT-35" d="M 266 1200 
L 856 1250 
Q 922 819 1161 601 
Q 1400 384 1738 384 
Q 2144 384 2425 690 
Q 2706 997 2706 1503 
Q 2706 1984 2436 2262 
Q 2166 2541 1728 2541 
Q 1456 2541 1237 2417 
Q 1019 2294 894 2097 
L 366 2166 
L 809 4519 
L 3088 4519 
L 3088 3981 
L 1259 3981 
L 1013 2750 
Q 1425 3038 1878 3038 
Q 2478 3038 2890 2622 
Q 3303 2206 3303 1553 
Q 3303 931 2941 478 
Q 2500 -78 1738 -78 
Q 1113 -78 717 272 
Q 322 622 266 1200 
z
" transform="scale(0.015625)"/>
       </defs>
       <use xlink:href="#ArialMT-32"/>
       <use xlink:href="#ArialMT-35" x="55.615234"/>
      </g>
     </g>
    </g>
    <g id="xtick_3">
     <g id="line2d_3">
      <path d="M 250.394596 304.308 
L 250.394596 32.352 
" clip-path="url(#p0c95e3ea8d)" style="fill: none; stroke: #cccccc; stroke-linecap: round"/>
     </g>
     <g id="text_3">
      <!-- 50 -->
      <g style="fill: #262626" transform="translate(243.054158 323.256313) scale(0.132 -0.132)">
       <use xlink:href="#ArialMT-35"/>
       <use xlink:href="#ArialMT-30" x="55.615234"/>
      </g>
     </g>
    </g>
    <g id="xtick_4">
     <g id="line2d_4">
      <path d="M 321.362618 304.308 
L 321.362618 32.352 
" clip-path="url(#p0c95e3ea8d)" style="fill: none; stroke: #cccccc; stroke-linecap: round"/>
     </g>
     <g id="text_4">
      <!-- 75 -->
      <g style="fill: #262626" transform="translate(314.02218 323.256313) scale(0.132 -0.132)">
       <defs>
        <path id="ArialMT-37" d="M 303 3981 
L 303 4522 
L 3269 4522 
L 3269 4084 
Q 2831 3619 2401 2847 
Q 1972 2075 1738 1259 
Q 1569 684 1522 0 
L 944 0 
Q 953 541 1156 1306 
Q 1359 2072 1739 2783 
Q 2119 3494 2547 3981 
L 303 3981 
z
" transform="scale(0.015625)"/>
       </defs>
       <use xlink:href="#ArialMT-37"/>
       <use xlink:href="#ArialMT-35" x="55.615234"/>
      </g>
     </g>
    </g>
    <g id="xtick_5">
     <g id="line2d_5">
      <path d="M 392.33064 304.308 
L 392.33064 32.352 
" clip-path="url(#p0c95e3ea8d)" style="fill: none; stroke: #cccccc; stroke-linecap: round"/>
     </g>
     <g id="text_5">
      <!-- 100 -->
      <g style="fill: #262626" transform="translate(381.319983 323.256313) scale(0.132 -0.132)">
       <defs>
        <path id="ArialMT-31" d="M 2384 0 
L 1822 0 
L 1822 3584 
Q 1619 3391 1289 3197 
Q 959 3003 697 2906 
L 697 3450 
Q 1169 3672 1522 3987 
Q 1875 4303 2022 4600 
L 2384 4600 
L 2384 0 
z
" transform="scale(0.015625)"/>
       </defs>
       <use xlink:href="#ArialMT-31"/>
       <use xlink:href="#ArialMT-30" x="55.615234"/>
       <use xlink:href="#ArialMT-30" x="111.230469"/>
      </g>
     </g>
    </g>
    <g id="xtick_6">
     <g id="line2d_6">
      <path d="M 463.298661 304.308 
L 463.298661 32.352 
" clip-path="url(#p0c95e3ea8d)" style="fill: none; stroke: #cccccc; stroke-linecap: round"/>
     </g>
     <g id="text_6">
      <!-- 125 -->
      <g style="fill: #262626" transform="translate(452.288005 323.256313) scale(0.132 -0.132)">
       <use xlink:href="#ArialMT-31"/>
       <use xlink:href="#ArialMT-32" x="55.615234"/>
       <use xlink:href="#ArialMT-35" x="111.230469"/>
      </g>
     </g>
    </g>
    <g id="xtick_7">
     <g id="line2d_7">
      <path d="M 534.266683 304.308 
L 534.266683 32.352 
" clip-path="url(#p0c95e3ea8d)" style="fill: none; stroke: #cccccc; stroke-linecap: round"/>
     </g>
     <g id="text_7">
      <!-- 150 -->
      <g style="fill: #262626" transform="translate(523.256027 323.256313) scale(0.132 -0.132)">
       <use xlink:href="#ArialMT-31"/>
       <use xlink:href="#ArialMT-35" x="55.615234"/>
       <use xlink:href="#ArialMT-30" x="111.230469"/>
      </g>
     </g>
    </g>
    <g id="xtick_8">
     <g id="line2d_8">
      <path d="M 605.234705 304.308 
L 605.234705 32.352 
" clip-path="url(#p0c95e3ea8d)" style="fill: none; stroke: #cccccc; stroke-linecap: round"/>
     </g>
     <g id="text_8">
      <!-- 175 -->
      <g style="fill: #262626" transform="translate(594.224049 323.256313) scale(0.132 -0.132)">
       <use xlink:href="#ArialMT-31"/>
       <use xlink:href="#ArialMT-37" x="55.615234"/>
       <use xlink:href="#ArialMT-35" x="111.230469"/>
      </g>
     </g>
    </g>
    <g id="xtick_9">
     <g id="line2d_9">
      <path d="M 676.202727 304.308 
L 676.202727 32.352 
" clip-path="url(#p0c95e3ea8d)" style="fill: none; stroke: #cccccc; stroke-linecap: round"/>
     </g>
     <g id="text_9">
      <!-- 200 -->
      <g style="fill: #262626" transform="translate(665.192071 323.256313) scale(0.132 -0.132)">
       <use xlink:href="#ArialMT-32"/>
       <use xlink:href="#ArialMT-30" x="55.615234"/>
       <use xlink:href="#ArialMT-30" x="111.230469"/>
      </g>
     </g>
    </g>
    <g id="text_10">
     <!-- Epoch -->
     <g style="fill: #262626" transform="translate(373.33575 340.187063) scale(0.144 -0.144)">
      <defs>
       <path id="ArialMT-45" d="M 506 0 
L 506 4581 
L 3819 4581 
L 3819 4041 
L 1113 4041 
L 1113 2638 
L 3647 2638 
L 3647 2100 
L 1113 2100 
L 1113 541 
L 3925 541 
L 3925 0 
L 506 0 
z
" transform="scale(0.015625)"/>
       <path id="ArialMT-70" d="M 422 -1272 
L 422 3319 
L 934 3319 
L 934 2888 
Q 1116 3141 1344 3267 
Q 1572 3394 1897 3394 
Q 2322 3394 2647 3175 
Q 2972 2956 3137 2557 
Q 3303 2159 3303 1684 
Q 3303 1175 3120 767 
Q 2938 359 2589 142 
Q 2241 -75 1856 -75 
Q 1575 -75 1351 44 
Q 1128 163 984 344 
L 984 -1272 
L 422 -1272 
z
M 931 1641 
Q 931 1000 1190 694 
Q 1450 388 1819 388 
Q 2194 388 2461 705 
Q 2728 1022 2728 1688 
Q 2728 2322 2467 2637 
Q 2206 2953 1844 2953 
Q 1484 2953 1207 2617 
Q 931 2281 931 1641 
z
" transform="scale(0.015625)"/>
       <path id="ArialMT-6f" d="M 213 1659 
Q 213 2581 725 3025 
Q 1153 3394 1769 3394 
Q 2453 3394 2887 2945 
Q 3322 2497 3322 1706 
Q 3322 1066 3130 698 
Q 2938 331 2570 128 
Q 2203 -75 1769 -75 
Q 1072 -75 642 372 
Q 213 819 213 1659 
z
M 791 1659 
Q 791 1022 1069 705 
Q 1347 388 1769 388 
Q 2188 388 2466 706 
Q 2744 1025 2744 1678 
Q 2744 2294 2464 2611 
Q 2184 2928 1769 2928 
Q 1347 2928 1069 2612 
Q 791 2297 791 1659 
z
" transform="scale(0.015625)"/>
       <path id="ArialMT-63" d="M 2588 1216 
L 3141 1144 
Q 3050 572 2676 248 
Q 2303 -75 1759 -75 
Q 1078 -75 664 370 
Q 250 816 250 1647 
Q 250 2184 428 2587 
Q 606 2991 970 3192 
Q 1334 3394 1763 3394 
Q 2303 3394 2647 3120 
Q 2991 2847 3088 2344 
L 2541 2259 
Q 2463 2594 2264 2762 
Q 2066 2931 1784 2931 
Q 1359 2931 1093 2626 
Q 828 2322 828 1663 
Q 828 994 1084 691 
Q 1341 388 1753 388 
Q 2084 388 2306 591 
Q 2528 794 2588 1216 
z
" transform="scale(0.015625)"/>
       <path id="ArialMT-68" d="M 422 0 
L 422 4581 
L 984 4581 
L 984 2938 
Q 1378 3394 1978 3394 
Q 2347 3394 2619 3248 
Q 2891 3103 3008 2847 
Q 3125 2591 3125 2103 
L 3125 0 
L 2563 0 
L 2563 2103 
Q 2563 2525 2380 2717 
Q 2197 2909 1863 2909 
Q 1613 2909 1392 2779 
Q 1172 2650 1078 2428 
Q 984 2206 984 1816 
L 984 0 
L 422 0 
z
" transform="scale(0.015625)"/>
      </defs>
      <use xlink:href="#ArialMT-45"/>
      <use xlink:href="#ArialMT-70" x="66.699219"/>
      <use xlink:href="#ArialMT-6f" x="122.314453"/>
      <use xlink:href="#ArialMT-63" x="177.929688"/>
      <use xlink:href="#ArialMT-68" x="227.929688"/>
     </g>
    </g>
   </g>
   <g id="matplotlib.axis_2">
    <g id="ytick_1">
     <g id="line2d_10">
      <path d="M 83.052 280.519876 
L 704.448 280.519876 
" clip-path="url(#p0c95e3ea8d)" style="fill: none; stroke: #cccccc; stroke-linecap: round"/>
     </g>
     <g id="text_11">
      <!-- 0.0100 -->
      <g style="fill: #262626" transform="translate(33.182688 285.244032) scale(0.132 -0.132)">
       <defs>
        <path id="ArialMT-2e" d="M 581 0 
L 581 641 
L 1222 641 
L 1222 0 
L 581 0 
z
" transform="scale(0.015625)"/>
       </defs>
       <use xlink:href="#ArialMT-30"/>
       <use xlink:href="#ArialMT-2e" x="55.615234"/>
       <use xlink:href="#ArialMT-30" x="83.398438"/>
       <use xlink:href="#ArialMT-31" x="139.013672"/>
       <use xlink:href="#ArialMT-30" x="194.628906"/>
       <use xlink:href="#ArialMT-30" x="250.244141"/>
      </g>
     </g>
    </g>
    <g id="ytick_2">
     <g id="line2d_11">
      <path d="M 83.052 245.161036 
L 704.448 245.161036 
" clip-path="url(#p0c95e3ea8d)" style="fill: none; stroke: #cccccc; stroke-linecap: round"/>
     </g>
     <g id="text_12">
      <!-- 0.0125 -->
      <g style="fill: #262626" transform="translate(33.182688 249.885192) scale(0.132 -0.132)">
       <use xlink:href="#ArialMT-30"/>
       <use xlink:href="#ArialMT-2e" x="55.615234"/>
       <use xlink:href="#ArialMT-30" x="83.398438"/>
       <use xlink:href="#ArialMT-31" x="139.013672"/>
       <use xlink:href="#ArialMT-32" x="194.628906"/>
       <use xlink:href="#ArialMT-35" x="250.244141"/>
      </g>
     </g>
    </g>
    <g id="ytick_3">
     <g id="line2d_12">
      <path d="M 83.052 209.802197 
L 704.448 209.802197 
" clip-path="url(#p0c95e3ea8d)" style="fill: none; stroke: #cccccc; stroke-linecap: round"/>
     </g>
     <g id="text_13">
      <!-- 0.0150 -->
      <g style="fill: #262626" transform="translate(33.182688 214.526353) scale(0.132 -0.132)">
       <use xlink:href="#ArialMT-30"/>
       <use xlink:href="#ArialMT-2e" x="55.615234"/>
       <use xlink:href="#ArialMT-30" x="83.398438"/>
       <use xlink:href="#ArialMT-31" x="139.013672"/>
       <use xlink:href="#ArialMT-35" x="194.628906"/>
       <use xlink:href="#ArialMT-30" x="250.244141"/>
      </g>
     </g>
    </g>
    <g id="ytick_4">
     <g id="line2d_13">
      <path d="M 83.052 174.443357 
L 704.448 174.443357 
" clip-path="url(#p0c95e3ea8d)" style="fill: none; stroke: #cccccc; stroke-linecap: round"/>
     </g>
     <g id="text_14">
      <!-- 0.0175 -->
      <g style="fill: #262626" transform="translate(33.182688 179.167513) scale(0.132 -0.132)">
       <use xlink:href="#ArialMT-30"/>
       <use xlink:href="#ArialMT-2e" x="55.615234"/>
       <use xlink:href="#ArialMT-30" x="83.398438"/>
       <use xlink:href="#ArialMT-31" x="139.013672"/>
       <use xlink:href="#ArialMT-37" x="194.628906"/>
       <use xlink:href="#ArialMT-35" x="250.244141"/>
      </g>
     </g>
    </g>
    <g id="ytick_5">
     <g id="line2d_14">
      <path d="M 83.052 139.084518 
L 704.448 139.084518 
" clip-path="url(#p0c95e3ea8d)" style="fill: none; stroke: #cccccc; stroke-linecap: round"/>
     </g>
     <g id="text_15">
      <!-- 0.0200 -->
      <g style="fill: #262626" transform="translate(33.182688 143.808674) scale(0.132 -0.132)">
       <use xlink:href="#ArialMT-30"/>
       <use xlink:href="#ArialMT-2e" x="55.615234"/>
       <use xlink:href="#ArialMT-30" x="83.398438"/>
       <use xlink:href="#ArialMT-32" x="139.013672"/>
       <use xlink:href="#ArialMT-30" x="194.628906"/>
       <use xlink:href="#ArialMT-30" x="250.244141"/>
      </g>
     </g>
    </g>
    <g id="ytick_6">
     <g id="line2d_15">
      <path d="M 83.052 103.725678 
L 704.448 103.725678 
" clip-path="url(#p0c95e3ea8d)" style="fill: none; stroke: #cccccc; stroke-linecap: round"/>
     </g>
     <g id="text_16">
      <!-- 0.0225 -->
      <g style="fill: #262626" transform="translate(33.182688 108.449835) scale(0.132 -0.132)">
       <use xlink:href="#ArialMT-30"/>
       <use xlink:href="#ArialMT-2e" x="55.615234"/>
       <use xlink:href="#ArialMT-30" x="83.398438"/>
       <use xlink:href="#ArialMT-32" x="139.013672"/>
       <use xlink:href="#ArialMT-32" x="194.628906"/>
       <use xlink:href="#ArialMT-35" x="250.244141"/>
      </g>
     </g>
    </g>
    <g id="ytick_7">
     <g id="line2d_16">
      <path d="M 83.052 68.366839 
L 704.448 68.366839 
" clip-path="url(#p0c95e3ea8d)" style="fill: none; stroke: #cccccc; stroke-linecap: round"/>
     </g>
     <g id="text_17">
      <!-- 0.0250 -->
      <g style="fill: #262626" transform="translate(33.182688 73.090995) scale(0.132 -0.132)">
       <use xlink:href="#ArialMT-30"/>
       <use xlink:href="#ArialMT-2e" x="55.615234"/>
       <use xlink:href="#ArialMT-30" x="83.398438"/>
       <use xlink:href="#ArialMT-32" x="139.013672"/>
       <use xlink:href="#ArialMT-35" x="194.628906"/>
       <use xlink:href="#ArialMT-30" x="250.244141"/>
      </g>
     </g>
    </g>
    <g id="ytick_8">
     <g id="line2d_17">
      <path d="M 83.052 33.008 
L 704.448 33.008 
" clip-path="url(#p0c95e3ea8d)" style="fill: none; stroke: #cccccc; stroke-linecap: round"/>
     </g>
     <g id="text_18">
      <!-- 0.0275 -->
      <g style="fill: #262626" transform="translate(33.182688 37.732156) scale(0.132 -0.132)">
       <use xlink:href="#ArialMT-30"/>
       <use xlink:href="#ArialMT-2e" x="55.615234"/>
       <use xlink:href="#ArialMT-30" x="83.398438"/>
       <use xlink:href="#ArialMT-32" x="139.013672"/>
       <use xlink:href="#ArialMT-37" x="194.628906"/>
       <use xlink:href="#ArialMT-35" x="250.244141"/>
      </g>
     </g>
    </g>
    <g id="text_19">
     <!-- Mean Squared Error (MSE) -->
     <g style="fill: #262626" transform="translate(26.151938 255.955125) rotate(-90) scale(0.144 -0.144)">
      <defs>
       <path id="ArialMT-4d" d="M 475 0 
L 475 4581 
L 1388 4581 
L 2472 1338 
Q 2622 884 2691 659 
Q 2769 909 2934 1394 
L 4031 4581 
L 4847 4581 
L 4847 0 
L 4263 0 
L 4263 3834 
L 2931 0 
L 2384 0 
L 1059 3900 
L 1059 0 
L 475 0 
z
" transform="scale(0.015625)"/>
       <path id="ArialMT-65" d="M 2694 1069 
L 3275 997 
Q 3138 488 2766 206 
Q 2394 -75 1816 -75 
Q 1088 -75 661 373 
Q 234 822 234 1631 
Q 234 2469 665 2931 
Q 1097 3394 1784 3394 
Q 2450 3394 2872 2941 
Q 3294 2488 3294 1666 
Q 3294 1616 3291 1516 
L 816 1516 
Q 847 969 1125 678 
Q 1403 388 1819 388 
Q 2128 388 2347 550 
Q 2566 713 2694 1069 
z
M 847 1978 
L 2700 1978 
Q 2663 2397 2488 2606 
Q 2219 2931 1791 2931 
Q 1403 2931 1139 2672 
Q 875 2413 847 1978 
z
" transform="scale(0.015625)"/>
       <path id="ArialMT-61" d="M 2588 409 
Q 2275 144 1986 34 
Q 1697 -75 1366 -75 
Q 819 -75 525 192 
Q 231 459 231 875 
Q 231 1119 342 1320 
Q 453 1522 633 1644 
Q 813 1766 1038 1828 
Q 1203 1872 1538 1913 
Q 2219 1994 2541 2106 
Q 2544 2222 2544 2253 
Q 2544 2597 2384 2738 
Q 2169 2928 1744 2928 
Q 1347 2928 1158 2789 
Q 969 2650 878 2297 
L 328 2372 
Q 403 2725 575 2942 
Q 747 3159 1072 3276 
Q 1397 3394 1825 3394 
Q 2250 3394 2515 3294 
Q 2781 3194 2906 3042 
Q 3031 2891 3081 2659 
Q 3109 2516 3109 2141 
L 3109 1391 
Q 3109 606 3145 398 
Q 3181 191 3288 0 
L 2700 0 
Q 2613 175 2588 409 
z
M 2541 1666 
Q 2234 1541 1622 1453 
Q 1275 1403 1131 1340 
Q 988 1278 909 1158 
Q 831 1038 831 891 
Q 831 666 1001 516 
Q 1172 366 1500 366 
Q 1825 366 2078 508 
Q 2331 650 2450 897 
Q 2541 1088 2541 1459 
L 2541 1666 
z
" transform="scale(0.015625)"/>
       <path id="ArialMT-6e" d="M 422 0 
L 422 3319 
L 928 3319 
L 928 2847 
Q 1294 3394 1984 3394 
Q 2284 3394 2536 3286 
Q 2788 3178 2913 3003 
Q 3038 2828 3088 2588 
Q 3119 2431 3119 2041 
L 3119 0 
L 2556 0 
L 2556 2019 
Q 2556 2363 2490 2533 
Q 2425 2703 2258 2804 
Q 2091 2906 1866 2906 
Q 1506 2906 1245 2678 
Q 984 2450 984 1813 
L 984 0 
L 422 0 
z
" transform="scale(0.015625)"/>
       <path id="ArialMT-20" transform="scale(0.015625)"/>
       <path id="ArialMT-53" d="M 288 1472 
L 859 1522 
Q 900 1178 1048 958 
Q 1197 738 1509 602 
Q 1822 466 2213 466 
Q 2559 466 2825 569 
Q 3091 672 3220 851 
Q 3350 1031 3350 1244 
Q 3350 1459 3225 1620 
Q 3100 1781 2813 1891 
Q 2628 1963 1997 2114 
Q 1366 2266 1113 2400 
Q 784 2572 623 2826 
Q 463 3081 463 3397 
Q 463 3744 659 4045 
Q 856 4347 1234 4503 
Q 1613 4659 2075 4659 
Q 2584 4659 2973 4495 
Q 3363 4331 3572 4012 
Q 3781 3694 3797 3291 
L 3216 3247 
Q 3169 3681 2898 3903 
Q 2628 4125 2100 4125 
Q 1550 4125 1298 3923 
Q 1047 3722 1047 3438 
Q 1047 3191 1225 3031 
Q 1400 2872 2139 2705 
Q 2878 2538 3153 2413 
Q 3553 2228 3743 1945 
Q 3934 1663 3934 1294 
Q 3934 928 3725 604 
Q 3516 281 3123 101 
Q 2731 -78 2241 -78 
Q 1619 -78 1198 103 
Q 778 284 539 648 
Q 300 1013 288 1472 
z
" transform="scale(0.015625)"/>
       <path id="ArialMT-71" d="M 2538 -1272 
L 2538 353 
Q 2406 169 2170 47 
Q 1934 -75 1669 -75 
Q 1078 -75 651 397 
Q 225 869 225 1691 
Q 225 2191 398 2587 
Q 572 2984 901 3189 
Q 1231 3394 1625 3394 
Q 2241 3394 2594 2875 
L 2594 3319 
L 3100 3319 
L 3100 -1272 
L 2538 -1272 
z
M 803 1669 
Q 803 1028 1072 708 
Q 1341 388 1716 388 
Q 2075 388 2334 692 
Q 2594 997 2594 1619 
Q 2594 2281 2320 2615 
Q 2047 2950 1678 2950 
Q 1313 2950 1058 2639 
Q 803 2328 803 1669 
z
" transform="scale(0.015625)"/>
       <path id="ArialMT-75" d="M 2597 0 
L 2597 488 
Q 2209 -75 1544 -75 
Q 1250 -75 995 37 
Q 741 150 617 320 
Q 494 491 444 738 
Q 409 903 409 1263 
L 409 3319 
L 972 3319 
L 972 1478 
Q 972 1038 1006 884 
Q 1059 663 1231 536 
Q 1403 409 1656 409 
Q 1909 409 2131 539 
Q 2353 669 2445 892 
Q 2538 1116 2538 1541 
L 2538 3319 
L 3100 3319 
L 3100 0 
L 2597 0 
z
" transform="scale(0.015625)"/>
       <path id="ArialMT-72" d="M 416 0 
L 416 3319 
L 922 3319 
L 922 2816 
Q 1116 3169 1280 3281 
Q 1444 3394 1641 3394 
Q 1925 3394 2219 3213 
L 2025 2691 
Q 1819 2813 1613 2813 
Q 1428 2813 1281 2702 
Q 1134 2591 1072 2394 
Q 978 2094 978 1738 
L 978 0 
L 416 0 
z
" transform="scale(0.015625)"/>
       <path id="ArialMT-64" d="M 2575 0 
L 2575 419 
Q 2259 -75 1647 -75 
Q 1250 -75 917 144 
Q 584 363 401 755 
Q 219 1147 219 1656 
Q 219 2153 384 2558 
Q 550 2963 881 3178 
Q 1213 3394 1622 3394 
Q 1922 3394 2156 3267 
Q 2391 3141 2538 2938 
L 2538 4581 
L 3097 4581 
L 3097 0 
L 2575 0 
z
M 797 1656 
Q 797 1019 1065 703 
Q 1334 388 1700 388 
Q 2069 388 2326 689 
Q 2584 991 2584 1609 
Q 2584 2291 2321 2609 
Q 2059 2928 1675 2928 
Q 1300 2928 1048 2622 
Q 797 2316 797 1656 
z
" transform="scale(0.015625)"/>
       <path id="ArialMT-28" d="M 1497 -1347 
Q 1031 -759 709 28 
Q 388 816 388 1659 
Q 388 2403 628 3084 
Q 909 3875 1497 4659 
L 1900 4659 
Q 1522 4009 1400 3731 
Q 1209 3300 1100 2831 
Q 966 2247 966 1656 
Q 966 153 1900 -1347 
L 1497 -1347 
z
" transform="scale(0.015625)"/>
       <path id="ArialMT-29" d="M 791 -1347 
L 388 -1347 
Q 1322 153 1322 1656 
Q 1322 2244 1188 2822 
Q 1081 3291 891 3722 
Q 769 4003 388 4659 
L 791 4659 
Q 1378 3875 1659 3084 
Q 1900 2403 1900 1659 
Q 1900 816 1576 28 
Q 1253 -759 791 -1347 
z
" transform="scale(0.015625)"/>
      </defs>
      <use xlink:href="#ArialMT-4d"/>
      <use xlink:href="#ArialMT-65" x="83.300781"/>
      <use xlink:href="#ArialMT-61" x="138.916016"/>
      <use xlink:href="#ArialMT-6e" x="194.53125"/>
      <use xlink:href="#ArialMT-20" x="250.146484"/>
      <use xlink:href="#ArialMT-53" x="277.929688"/>
      <use xlink:href="#ArialMT-71" x="344.628906"/>
      <use xlink:href="#ArialMT-75" x="400.244141"/>
      <use xlink:href="#ArialMT-61" x="455.859375"/>
      <use xlink:href="#ArialMT-72" x="511.474609"/>
      <use xlink:href="#ArialMT-65" x="544.775391"/>
      <use xlink:href="#ArialMT-64" x="600.390625"/>
      <use xlink:href="#ArialMT-20" x="656.005859"/>
      <use xlink:href="#ArialMT-45" x="683.789062"/>
      <use xlink:href="#ArialMT-72" x="750.488281"/>
      <use xlink:href="#ArialMT-72" x="783.789062"/>
      <use xlink:href="#ArialMT-6f" x="817.089844"/>
      <use xlink:href="#ArialMT-72" x="872.705078"/>
      <use xlink:href="#ArialMT-20" x="906.005859"/>
      <use xlink:href="#ArialMT-28" x="933.789062"/>
      <use xlink:href="#ArialMT-4d" x="967.089844"/>
      <use xlink:href="#ArialMT-53" x="1050.390625"/>
      <use xlink:href="#ArialMT-45" x="1117.089844"/>
      <use xlink:href="#ArialMT-29" x="1183.789062"/>
     </g>
    </g>
   </g>
   <g id="PolyCollection_1"/>
   <g id="line2d_18">
    <path d="M 111.297273 44.713636 
L 114.135994 156.373129 
L 116.974714 160.002063 
L 119.813435 144.620968 
L 122.652156 137.018817 
L 125.490877 158.206206 
L 128.329598 176.288573 
L 131.168319 183.366812 
L 134.00704 176.825426 
L 136.845761 158.289951 
L 139.684481 178.825992 
L 142.523202 181.198757 
L 145.361923 202.516415 
L 148.200644 197.435908 
L 151.039365 195.063144 
L 153.878086 202.907223 
L 156.716807 202.981663 
L 159.555528 202.637379 
L 162.394249 204.163392 
L 165.232969 203.028187 
L 170.910411 207.91329 
L 173.749132 197.305638 
L 176.587853 214.640775 
L 179.426574 217.683496 
L 182.265295 215.896944 
L 185.104016 216.092348 
L 187.942736 215.310732 
L 190.781457 213.291556 
L 193.620178 220.409848 
L 196.458899 216.80883 
L 199.29762 214.398846 
L 202.136341 218.213878 
L 204.975062 224.764569 
L 207.813783 222.066131 
L 210.652503 225.471746 
L 213.491224 225.508965 
L 216.329945 217.143808 
L 219.168666 228.188793 
L 222.007387 228.188793 
L 224.846108 224.383065 
L 227.684829 230.624104 
L 230.52355 227.034978 
L 233.36227 225.992823 
L 236.200991 233.32513 
L 239.039712 229.100679 
L 241.878433 232.813357 
L 244.717154 225.927688 
L 247.555875 229.296083 
L 250.394596 235.846773 
L 253.233317 236.926148 
L 256.072037 239.671111 
L 258.910758 237.810119 
L 261.749479 234.516164 
L 264.5882 244.851939 
L 267.426921 237.065723 
L 270.265642 241.03894 
L 273.104363 243.514059 
L 275.943084 240.955195 
L 278.781804 241.271564 
L 281.620525 239.578061 
L 284.459246 236.656305 
L 287.297967 242.220669 
L 290.136688 243.681548 
L 292.975409 242.10901 
L 295.81413 251.711726 
L 298.652851 245.226171 
L 301.491571 244.574824 
L 304.330292 238.424247 
L 307.169013 242.332329 
L 310.007734 244.928412 
L 312.846455 252.232804 
L 315.685176 242.257889 
L 318.523897 247.60824 
L 321.362618 249.934479 
L 324.201339 243.718583 
L 327.040059 247.221684 
L 329.87878 246.975503 
L 332.717501 247.859474 
L 335.556222 260.072631 
L 338.394943 267.80006 
L 341.233664 256.3549 
L 344.072385 253.274959 
L 346.911106 258.141452 
L 349.749826 251.53031 
L 352.588547 253.256349 
L 355.427268 254.836713 
L 358.265989 259.453451 
L 363.943431 253.247044 
L 366.782152 258.290331 
L 369.620873 260.8585 
L 372.459593 261.091124 
L 375.298314 255.805908 
L 378.137035 259.098507 
L 380.975756 254.540434 
L 383.814477 258.969593 
L 386.653198 265.548199 
L 389.491919 258.113537 
L 392.33064 262.319378 
L 395.16936 261.983414 
L 398.008081 262.9242 
L 400.846802 266.28329 
L 403.685523 264.319944 
L 406.524244 265.566808 
L 409.362965 263.938441 
L 412.201686 267.558069 
L 415.040407 261.608751 
L 417.879127 269.809869 
L 420.717848 269.875004 
L 423.556569 268.792917 
L 426.39529 265.720679 
L 429.234011 266.562439 
L 432.072732 267.874438 
L 434.911453 265.417929 
L 437.750174 267.856259 
L 440.588894 271.075343 
L 443.427615 272.210548 
L 446.266336 273.9971 
L 449.105057 269.54933 
L 451.943778 268.525785 
L 454.782499 273.326342 
L 457.62122 270.76828 
L 460.459941 271.652251 
L 463.298661 273.96327 
L 466.137382 272.680048 
L 468.976103 275.011341 
L 471.814824 276.797892 
L 474.653545 270.758975 
L 477.492266 275.988361 
L 486.008429 272.605115 
L 488.847149 274.313469 
L 491.68587 277.011906 
L 494.524591 273.178264 
L 497.363312 276.165155 
L 500.202033 279.4405 
L 503.040754 281.562031 
L 505.879475 275.911518 
L 508.718196 276.490829 
L 511.556916 277.709778 
L 514.395637 280.585442 
L 517.234358 281.059563 
L 520.073079 278.212246 
L 522.9118 278.826373 
L 525.750521 279.291621 
L 528.589242 284.083674 
L 531.427963 279.161352 
L 534.266683 278.584444 
L 537.105404 281.999364 
L 539.944125 224.460894 
L 542.782846 246.165972 
L 545.621567 270.947231 
L 548.460288 280.192045 
L 551.299009 278.528615 
L 554.13773 282.529746 
L 556.97645 279.300926 
L 559.815171 277.253835 
L 562.653892 274.927596 
L 565.492613 285.311929 
L 568.331334 282.613491 
L 571.170055 279.311587 
L 574.008776 287.145005 
L 576.847497 284.360173 
L 579.686217 283.302058 
L 582.524938 283.730086 
L 585.363659 282.231988 
L 588.20238 281.459676 
L 591.041101 282.660016 
L 593.879822 284.446568 
L 596.718543 285.284014 
L 599.557264 284.893206 
L 602.395984 286.327155 
L 605.234705 283.86966 
L 608.073426 288.857118 
L 610.912147 285.116525 
L 613.750868 282.399477 
L 616.589589 283.886037 
L 619.42831 284.493092 
L 622.267031 285.656212 
L 625.105751 284.409348 
L 627.944472 280.285711 
L 630.783193 279.049692 
L 633.621914 280.212812 
L 636.460635 283.357888 
L 639.299356 283.897575 
L 642.138077 285.980592 
L 644.976798 287.721913 
L 647.815519 288.708238 
L 650.654239 285.981886 
L 653.49296 285.330539 
L 656.331681 290.113287 
L 659.170402 289.49916 
L 662.009123 291.155442 
L 664.847844 288.438395 
L 667.686565 289.722479 
L 670.525286 287.833572 
L 673.364006 291.946364 
L 676.202727 289.108352 
L 676.202727 289.108352 
" clip-path="url(#p0c95e3ea8d)" style="fill: none; stroke: #4c72b0; stroke-width: 2; stroke-linecap: round"/>
   </g>
   <g id="patch_3">
    <path d="M 83.052 304.308 
L 83.052 32.352 
" style="fill: none; stroke: #cccccc; stroke-width: 1.25; stroke-linejoin: miter; stroke-linecap: square"/>
   </g>
   <g id="patch_4">
    <path d="M 704.448 304.308 
L 704.448 32.352 
" style="fill: none; stroke: #cccccc; stroke-width: 1.25; stroke-linejoin: miter; stroke-linecap: square"/>
   </g>
   <g id="patch_5">
    <path d="M 83.052 304.308 
L 704.448 304.308 
" style="fill: none; stroke: #cccccc; stroke-width: 1.25; stroke-linejoin: miter; stroke-linecap: square"/>
   </g>
   <g id="patch_6">
    <path d="M 83.052 32.352 
L 704.448 32.352 
" style="fill: none; stroke: #cccccc; stroke-width: 1.25; stroke-linejoin: miter; stroke-linecap: square"/>
   </g>
   <g id="text_20">
    <!-- Mean Squared Error (MSE) vs Epoch -->
    <g style="fill: #262626" transform="translate(274.510125 26.352) scale(0.144 -0.144)">
     <defs>
      <path id="ArialMT-76" d="M 1344 0 
L 81 3319 
L 675 3319 
L 1388 1331 
Q 1503 1009 1600 663 
Q 1675 925 1809 1294 
L 2547 3319 
L 3125 3319 
L 1869 0 
L 1344 0 
z
" transform="scale(0.015625)"/>
      <path id="ArialMT-73" d="M 197 991 
L 753 1078 
Q 800 744 1014 566 
Q 1228 388 1613 388 
Q 2000 388 2187 545 
Q 2375 703 2375 916 
Q 2375 1106 2209 1216 
Q 2094 1291 1634 1406 
Q 1016 1563 777 1677 
Q 538 1791 414 1992 
Q 291 2194 291 2438 
Q 291 2659 392 2848 
Q 494 3038 669 3163 
Q 800 3259 1026 3326 
Q 1253 3394 1513 3394 
Q 1903 3394 2198 3281 
Q 2494 3169 2634 2976 
Q 2775 2784 2828 2463 
L 2278 2388 
Q 2241 2644 2061 2787 
Q 1881 2931 1553 2931 
Q 1166 2931 1000 2803 
Q 834 2675 834 2503 
Q 834 2394 903 2306 
Q 972 2216 1119 2156 
Q 1203 2125 1616 2013 
Q 2213 1853 2448 1751 
Q 2684 1650 2818 1456 
Q 2953 1263 2953 975 
Q 2953 694 2789 445 
Q 2625 197 2315 61 
Q 2006 -75 1616 -75 
Q 969 -75 630 194 
Q 291 463 197 991 
z
" transform="scale(0.015625)"/>
     </defs>
     <use xlink:href="#ArialMT-4d"/>
     <use xlink:href="#ArialMT-65" x="83.300781"/>
     <use xlink:href="#ArialMT-61" x="138.916016"/>
     <use xlink:href="#ArialMT-6e" x="194.53125"/>
     <use xlink:href="#ArialMT-20" x="250.146484"/>
     <use xlink:href="#ArialMT-53" x="277.929688"/>
     <use xlink:href="#ArialMT-71" x="344.628906"/>
     <use xlink:href="#ArialMT-75" x="400.244141"/>
     <use xlink:href="#ArialMT-61" x="455.859375"/>
     <use xlink:href="#ArialMT-72" x="511.474609"/>
     <use xlink:href="#ArialMT-65" x="544.775391"/>
     <use xlink:href="#ArialMT-64" x="600.390625"/>
     <use xlink:href="#ArialMT-20" x="656.005859"/>
     <use xlink:href="#ArialMT-45" x="683.789062"/>
     <use xlink:href="#ArialMT-72" x="750.488281"/>
     <use xlink:href="#ArialMT-72" x="783.789062"/>
     <use xlink:href="#ArialMT-6f" x="817.089844"/>
     <use xlink:href="#ArialMT-72" x="872.705078"/>
     <use xlink:href="#ArialMT-20" x="906.005859"/>
     <use xlink:href="#ArialMT-28" x="933.789062"/>
     <use xlink:href="#ArialMT-4d" x="967.089844"/>
     <use xlink:href="#ArialMT-53" x="1050.390625"/>
     <use xlink:href="#ArialMT-45" x="1117.089844"/>
     <use xlink:href="#ArialMT-29" x="1183.789062"/>
     <use xlink:href="#ArialMT-20" x="1217.089844"/>
     <use xlink:href="#ArialMT-76" x="1244.873047"/>
     <use xlink:href="#ArialMT-73" x="1294.873047"/>
     <use xlink:href="#ArialMT-20" x="1344.873047"/>
     <use xlink:href="#ArialMT-45" x="1372.65625"/>
     <use xlink:href="#ArialMT-70" x="1439.355469"/>
     <use xlink:href="#ArialMT-6f" x="1494.970703"/>
     <use xlink:href="#ArialMT-63" x="1550.585938"/>
     <use xlink:href="#ArialMT-68" x="1600.585938"/>
    </g>
   </g>
  </g>
 </g>
 <defs>
  <clipPath id="p0c95e3ea8d">
   <rect x="83.052" y="32.352" width="621.396" height="271.956"/>
  </clipPath>
 </defs>
</svg>
