<?xml version="1.0" encoding="utf-8" standalone="no"?>
<!DOCTYPE svg PUBLIC "-//W3C//DTD SVG 1.1//EN"
  "http://www.w3.org/Graphics/SVG/1.1/DTD/svg11.dtd">
<svg xmlns:xlink="http://www.w3.org/1999/xlink" width="720pt" height="360pt" viewBox="0 0 720 360" xmlns="http://www.w3.org/2000/svg" version="1.1">
 <metadata>
  <rdf:RDF xmlns:dc="http://purl.org/dc/elements/1.1/" xmlns:cc="http://creativecommons.org/ns#" xmlns:rdf="http://www.w3.org/1999/02/22-rdf-syntax-ns#">
   <cc:Work>
    <dc:type rdf:resource="http://purl.org/dc/dcmitype/StillImage"/>
    <dc:date>2025-04-12T05:26:01.599543</dc:date>
    <dc:format>image/svg+xml</dc:format>
    <dc:creator>
     <cc:Agent>
      <dc:title>Matplotlib v3.9.2, https://matplotlib.org/</dc:title>
     </cc:Agent>
    </dc:creator>
   </cc:Work>
  </rdf:RDF>
 </metadata>
 <defs>
  <style type="text/css">*{stroke-linejoin: round; stroke-linecap: butt}</style>
 </defs>
 <g id="figure_1">
  <g id="patch_1">
   <path d="M 0 360 
L 720 360 
L 720 0 
L 0 0 
z
" style="fill: #ffffff"/>
  </g>
  <g id="axes_1">
   <g id="patch_2">
    <path d="M 61.182 304.308 
L 704.448 304.308 
L 704.448 32.352 
L 61.182 32.352 
z
" style="fill: #ffffff"/>
   </g>
   <g id="matplotlib.axis_1">
    <g id="xtick_1">
     <g id="line2d_1">
      <path d="M 86.496617 304.308 
L 86.496617 32.352 
" clip-path="url(#p75cc0e24de)" style="fill: none; stroke: #cccccc; stroke-linecap: round"/>
     </g>
     <g id="text_1">
      <!-- 0 -->
      <g style="fill: #262626" transform="translate(82.826398 323.256313) scale(0.132 -0.132)">
       <defs>
        <path id="ArialMT-30" d="M 266 2259 
Q 266 3072 433 3567 
Q 600 4063 929 4331 
Q 1259 4600 1759 4600 
Q 2128 4600 2406 4451 
Q 2684 4303 2865 4023 
Q 3047 3744 3150 3342 
Q 3253 2941 3253 2259 
Q 3253 1453 3087 958 
Q 2922 463 2592 192 
Q 2263 -78 1759 -78 
Q 1097 -78 719 397 
Q 266 969 266 2259 
z
M 844 2259 
Q 844 1131 1108 757 
Q 1372 384 1759 384 
Q 2147 384 2411 759 
Q 2675 1134 2675 2259 
Q 2675 3391 2411 3762 
Q 2147 4134 1753 4134 
Q 1366 4134 1134 3806 
Q 844 3388 844 2259 
z
" transform="scale(0.015625)"/>
       </defs>
       <use xlink:href="#ArialMT-30"/>
      </g>
     </g>
    </g>
    <g id="xtick_2">
     <g id="line2d_2">
      <path d="M 164.991553 304.308 
L 164.991553 32.352 
" clip-path="url(#p75cc0e24de)" style="fill: none; stroke: #cccccc; stroke-linecap: round"/>
     </g>
     <g id="text_2">
      <!-- 20 -->
      <g style="fill: #262626" transform="translate(157.651115 323.256313) scale(0.132 -0.132)">
       <defs>
        <path id="ArialMT-32" d="M 3222 541 
L 3222 0 
L 194 0 
Q 188 203 259 391 
Q 375 700 629 1000 
Q 884 1300 1366 1694 
Q 2113 2306 2375 2664 
Q 2638 3022 2638 3341 
Q 2638 3675 2398 3904 
Q 2159 4134 1775 4134 
Q 1369 4134 1125 3890 
Q 881 3647 878 3216 
L 300 3275 
Q 359 3922 746 4261 
Q 1134 4600 1788 4600 
Q 2447 4600 2831 4234 
Q 3216 3869 3216 3328 
Q 3216 3053 3103 2787 
Q 2991 2522 2730 2228 
Q 2469 1934 1863 1422 
Q 1356 997 1212 845 
Q 1069 694 975 541 
L 3222 541 
z
" transform="scale(0.015625)"/>
       </defs>
       <use xlink:href="#ArialMT-32"/>
       <use xlink:href="#ArialMT-30" x="55.615234"/>
      </g>
     </g>
    </g>
    <g id="xtick_3">
     <g id="line2d_3">
      <path d="M 243.486489 304.308 
L 243.486489 32.352 
" clip-path="url(#p75cc0e24de)" style="fill: none; stroke: #cccccc; stroke-linecap: round"/>
     </g>
     <g id="text_3">
      <!-- 40 -->
      <g style="fill: #262626" transform="translate(236.146051 323.256313) scale(0.132 -0.132)">
       <defs>
        <path id="ArialMT-34" d="M 2069 0 
L 2069 1097 
L 81 1097 
L 81 1613 
L 2172 4581 
L 2631 4581 
L 2631 1613 
L 3250 1613 
L 3250 1097 
L 2631 1097 
L 2631 0 
L 2069 0 
z
M 2069 1613 
L 2069 3678 
L 634 1613 
L 2069 1613 
z
" transform="scale(0.015625)"/>
       </defs>
       <use xlink:href="#ArialMT-34"/>
       <use xlink:href="#ArialMT-30" x="55.615234"/>
      </g>
     </g>
    </g>
    <g id="xtick_4">
     <g id="line2d_4">
      <path d="M 321.981425 304.308 
L 321.981425 32.352 
" clip-path="url(#p75cc0e24de)" style="fill: none; stroke: #cccccc; stroke-linecap: round"/>
     </g>
     <g id="text_4">
      <!-- 60 -->
      <g style="fill: #262626" transform="translate(314.640987 323.256313) scale(0.132 -0.132)">
       <defs>
        <path id="ArialMT-36" d="M 3184 3459 
L 2625 3416 
Q 2550 3747 2413 3897 
Q 2184 4138 1850 4138 
Q 1581 4138 1378 3988 
Q 1113 3794 959 3422 
Q 806 3050 800 2363 
Q 1003 2672 1297 2822 
Q 1591 2972 1913 2972 
Q 2475 2972 2870 2558 
Q 3266 2144 3266 1488 
Q 3266 1056 3080 686 
Q 2894 316 2569 119 
Q 2244 -78 1831 -78 
Q 1128 -78 684 439 
Q 241 956 241 2144 
Q 241 3472 731 4075 
Q 1159 4600 1884 4600 
Q 2425 4600 2770 4297 
Q 3116 3994 3184 3459 
z
M 888 1484 
Q 888 1194 1011 928 
Q 1134 663 1356 523 
Q 1578 384 1822 384 
Q 2178 384 2434 671 
Q 2691 959 2691 1453 
Q 2691 1928 2437 2201 
Q 2184 2475 1800 2475 
Q 1419 2475 1153 2201 
Q 888 1928 888 1484 
z
" transform="scale(0.015625)"/>
       </defs>
       <use xlink:href="#ArialMT-36"/>
       <use xlink:href="#ArialMT-30" x="55.615234"/>
      </g>
     </g>
    </g>
    <g id="xtick_5">
     <g id="line2d_5">
      <path d="M 400.476361 304.308 
L 400.476361 32.352 
" clip-path="url(#p75cc0e24de)" style="fill: none; stroke: #cccccc; stroke-linecap: round"/>
     </g>
     <g id="text_5">
      <!-- 80 -->
      <g style="fill: #262626" transform="translate(393.135923 323.256313) scale(0.132 -0.132)">
       <defs>
        <path id="ArialMT-38" d="M 1131 2484 
Q 781 2613 612 2850 
Q 444 3088 444 3419 
Q 444 3919 803 4259 
Q 1163 4600 1759 4600 
Q 2359 4600 2725 4251 
Q 3091 3903 3091 3403 
Q 3091 3084 2923 2848 
Q 2756 2613 2416 2484 
Q 2838 2347 3058 2040 
Q 3278 1734 3278 1309 
Q 3278 722 2862 322 
Q 2447 -78 1769 -78 
Q 1091 -78 675 323 
Q 259 725 259 1325 
Q 259 1772 486 2073 
Q 713 2375 1131 2484 
z
M 1019 3438 
Q 1019 3113 1228 2906 
Q 1438 2700 1772 2700 
Q 2097 2700 2305 2904 
Q 2513 3109 2513 3406 
Q 2513 3716 2298 3927 
Q 2084 4138 1766 4138 
Q 1444 4138 1231 3931 
Q 1019 3725 1019 3438 
z
M 838 1322 
Q 838 1081 952 856 
Q 1066 631 1291 507 
Q 1516 384 1775 384 
Q 2178 384 2440 643 
Q 2703 903 2703 1303 
Q 2703 1709 2433 1975 
Q 2163 2241 1756 2241 
Q 1359 2241 1098 1978 
Q 838 1716 838 1322 
z
" transform="scale(0.015625)"/>
       </defs>
       <use xlink:href="#ArialMT-38"/>
       <use xlink:href="#ArialMT-30" x="55.615234"/>
      </g>
     </g>
    </g>
    <g id="xtick_6">
     <g id="line2d_6">
      <path d="M 478.971297 304.308 
L 478.971297 32.352 
" clip-path="url(#p75cc0e24de)" style="fill: none; stroke: #cccccc; stroke-linecap: round"/>
     </g>
     <g id="text_6">
      <!-- 100 -->
      <g style="fill: #262626" transform="translate(467.96064 323.256313) scale(0.132 -0.132)">
       <defs>
        <path id="ArialMT-31" d="M 2384 0 
L 1822 0 
L 1822 3584 
Q 1619 3391 1289 3197 
Q 959 3003 697 2906 
L 697 3450 
Q 1169 3672 1522 3987 
Q 1875 4303 2022 4600 
L 2384 4600 
L 2384 0 
z
" transform="scale(0.015625)"/>
       </defs>
       <use xlink:href="#ArialMT-31"/>
       <use xlink:href="#ArialMT-30" x="55.615234"/>
       <use xlink:href="#ArialMT-30" x="111.230469"/>
      </g>
     </g>
    </g>
    <g id="xtick_7">
     <g id="line2d_7">
      <path d="M 557.466232 304.308 
L 557.466232 32.352 
" clip-path="url(#p75cc0e24de)" style="fill: none; stroke: #cccccc; stroke-linecap: round"/>
     </g>
     <g id="text_7">
      <!-- 120 -->
      <g style="fill: #262626" transform="translate(546.455576 323.256313) scale(0.132 -0.132)">
       <use xlink:href="#ArialMT-31"/>
       <use xlink:href="#ArialMT-32" x="55.615234"/>
       <use xlink:href="#ArialMT-30" x="111.230469"/>
      </g>
     </g>
    </g>
    <g id="xtick_8">
     <g id="line2d_8">
      <path d="M 635.961168 304.308 
L 635.961168 32.352 
" clip-path="url(#p75cc0e24de)" style="fill: none; stroke: #cccccc; stroke-linecap: round"/>
     </g>
     <g id="text_8">
      <!-- 140 -->
      <g style="fill: #262626" transform="translate(624.950512 323.256313) scale(0.132 -0.132)">
       <use xlink:href="#ArialMT-31"/>
       <use xlink:href="#ArialMT-34" x="55.615234"/>
       <use xlink:href="#ArialMT-30" x="111.230469"/>
      </g>
     </g>
    </g>
    <g id="text_9">
     <!-- Epoch -->
     <g style="fill: #262626" transform="translate(362.40075 340.187063) scale(0.144 -0.144)">
      <defs>
       <path id="ArialMT-45" d="M 506 0 
L 506 4581 
L 3819 4581 
L 3819 4041 
L 1113 4041 
L 1113 2638 
L 3647 2638 
L 3647 2100 
L 1113 2100 
L 1113 541 
L 3925 541 
L 3925 0 
L 506 0 
z
" transform="scale(0.015625)"/>
       <path id="ArialMT-70" d="M 422 -1272 
L 422 3319 
L 934 3319 
L 934 2888 
Q 1116 3141 1344 3267 
Q 1572 3394 1897 3394 
Q 2322 3394 2647 3175 
Q 2972 2956 3137 2557 
Q 3303 2159 3303 1684 
Q 3303 1175 3120 767 
Q 2938 359 2589 142 
Q 2241 -75 1856 -75 
Q 1575 -75 1351 44 
Q 1128 163 984 344 
L 984 -1272 
L 422 -1272 
z
M 931 1641 
Q 931 1000 1190 694 
Q 1450 388 1819 388 
Q 2194 388 2461 705 
Q 2728 1022 2728 1688 
Q 2728 2322 2467 2637 
Q 2206 2953 1844 2953 
Q 1484 2953 1207 2617 
Q 931 2281 931 1641 
z
" transform="scale(0.015625)"/>
       <path id="ArialMT-6f" d="M 213 1659 
Q 213 2581 725 3025 
Q 1153 3394 1769 3394 
Q 2453 3394 2887 2945 
Q 3322 2497 3322 1706 
Q 3322 1066 3130 698 
Q 2938 331 2570 128 
Q 2203 -75 1769 -75 
Q 1072 -75 642 372 
Q 213 819 213 1659 
z
M 791 1659 
Q 791 1022 1069 705 
Q 1347 388 1769 388 
Q 2188 388 2466 706 
Q 2744 1025 2744 1678 
Q 2744 2294 2464 2611 
Q 2184 2928 1769 2928 
Q 1347 2928 1069 2612 
Q 791 2297 791 1659 
z
" transform="scale(0.015625)"/>
       <path id="ArialMT-63" d="M 2588 1216 
L 3141 1144 
Q 3050 572 2676 248 
Q 2303 -75 1759 -75 
Q 1078 -75 664 370 
Q 250 816 250 1647 
Q 250 2184 428 2587 
Q 606 2991 970 3192 
Q 1334 3394 1763 3394 
Q 2303 3394 2647 3120 
Q 2991 2847 3088 2344 
L 2541 2259 
Q 2463 2594 2264 2762 
Q 2066 2931 1784 2931 
Q 1359 2931 1093 2626 
Q 828 2322 828 1663 
Q 828 994 1084 691 
Q 1341 388 1753 388 
Q 2084 388 2306 591 
Q 2528 794 2588 1216 
z
" transform="scale(0.015625)"/>
       <path id="ArialMT-68" d="M 422 0 
L 422 4581 
L 984 4581 
L 984 2938 
Q 1378 3394 1978 3394 
Q 2347 3394 2619 3248 
Q 2891 3103 3008 2847 
Q 3125 2591 3125 2103 
L 3125 0 
L 2563 0 
L 2563 2103 
Q 2563 2525 2380 2717 
Q 2197 2909 1863 2909 
Q 1613 2909 1392 2779 
Q 1172 2650 1078 2428 
Q 984 2206 984 1816 
L 984 0 
L 422 0 
z
" transform="scale(0.015625)"/>
      </defs>
      <use xlink:href="#ArialMT-45"/>
      <use xlink:href="#ArialMT-70" x="66.699219"/>
      <use xlink:href="#ArialMT-6f" x="122.314453"/>
      <use xlink:href="#ArialMT-63" x="177.929688"/>
      <use xlink:href="#ArialMT-68" x="227.929688"/>
     </g>
    </g>
   </g>
   <g id="matplotlib.axis_2">
    <g id="ytick_1">
     <g id="line2d_9">
      <path d="M 61.182 285.16216 
L 704.448 285.16216 
" clip-path="url(#p75cc0e24de)" style="fill: none; stroke: #cccccc; stroke-linecap: round"/>
     </g>
     <g id="text_10">
      <!-- 0.9 -->
      <g style="fill: #262626" transform="translate(33.334 289.886317) scale(0.132 -0.132)">
       <defs>
        <path id="ArialMT-2e" d="M 581 0 
L 581 641 
L 1222 641 
L 1222 0 
L 581 0 
z
" transform="scale(0.015625)"/>
        <path id="ArialMT-39" d="M 350 1059 
L 891 1109 
Q 959 728 1153 556 
Q 1347 384 1650 384 
Q 1909 384 2104 503 
Q 2300 622 2425 820 
Q 2550 1019 2634 1356 
Q 2719 1694 2719 2044 
Q 2719 2081 2716 2156 
Q 2547 1888 2255 1720 
Q 1963 1553 1622 1553 
Q 1053 1553 659 1965 
Q 266 2378 266 3053 
Q 266 3750 677 4175 
Q 1088 4600 1706 4600 
Q 2153 4600 2523 4359 
Q 2894 4119 3086 3673 
Q 3278 3228 3278 2384 
Q 3278 1506 3087 986 
Q 2897 466 2520 194 
Q 2144 -78 1638 -78 
Q 1100 -78 759 220 
Q 419 519 350 1059 
z
M 2653 3081 
Q 2653 3566 2395 3850 
Q 2138 4134 1775 4134 
Q 1400 4134 1122 3828 
Q 844 3522 844 3034 
Q 844 2597 1108 2323 
Q 1372 2050 1759 2050 
Q 2150 2050 2401 2323 
Q 2653 2597 2653 3081 
z
" transform="scale(0.015625)"/>
       </defs>
       <use xlink:href="#ArialMT-30"/>
       <use xlink:href="#ArialMT-2e" x="55.615234"/>
       <use xlink:href="#ArialMT-39" x="83.398438"/>
      </g>
     </g>
    </g>
    <g id="ytick_2">
     <g id="line2d_10">
      <path d="M 61.182 237.80418 
L 704.448 237.80418 
" clip-path="url(#p75cc0e24de)" style="fill: none; stroke: #cccccc; stroke-linecap: round"/>
     </g>
     <g id="text_11">
      <!-- 1.0 -->
      <g style="fill: #262626" transform="translate(33.334 242.528336) scale(0.132 -0.132)">
       <use xlink:href="#ArialMT-31"/>
       <use xlink:href="#ArialMT-2e" x="55.615234"/>
       <use xlink:href="#ArialMT-30" x="83.398438"/>
      </g>
     </g>
    </g>
    <g id="ytick_3">
     <g id="line2d_11">
      <path d="M 61.182 190.4462 
L 704.448 190.4462 
" clip-path="url(#p75cc0e24de)" style="fill: none; stroke: #cccccc; stroke-linecap: round"/>
     </g>
     <g id="text_12">
      <!-- 1.1 -->
      <g style="fill: #262626" transform="translate(33.334 195.170356) scale(0.132 -0.132)">
       <use xlink:href="#ArialMT-31"/>
       <use xlink:href="#ArialMT-2e" x="55.615234"/>
       <use xlink:href="#ArialMT-31" x="83.398438"/>
      </g>
     </g>
    </g>
    <g id="ytick_4">
     <g id="line2d_12">
      <path d="M 61.182 143.088219 
L 704.448 143.088219 
" clip-path="url(#p75cc0e24de)" style="fill: none; stroke: #cccccc; stroke-linecap: round"/>
     </g>
     <g id="text_13">
      <!-- 1.2 -->
      <g style="fill: #262626" transform="translate(33.334 147.812375) scale(0.132 -0.132)">
       <use xlink:href="#ArialMT-31"/>
       <use xlink:href="#ArialMT-2e" x="55.615234"/>
       <use xlink:href="#ArialMT-32" x="83.398438"/>
      </g>
     </g>
    </g>
    <g id="ytick_5">
     <g id="line2d_13">
      <path d="M 61.182 95.730239 
L 704.448 95.730239 
" clip-path="url(#p75cc0e24de)" style="fill: none; stroke: #cccccc; stroke-linecap: round"/>
     </g>
     <g id="text_14">
      <!-- 1.3 -->
      <g style="fill: #262626" transform="translate(33.334 100.454395) scale(0.132 -0.132)">
       <defs>
        <path id="ArialMT-33" d="M 269 1209 
L 831 1284 
Q 928 806 1161 595 
Q 1394 384 1728 384 
Q 2125 384 2398 659 
Q 2672 934 2672 1341 
Q 2672 1728 2419 1979 
Q 2166 2231 1775 2231 
Q 1616 2231 1378 2169 
L 1441 2663 
Q 1497 2656 1531 2656 
Q 1891 2656 2178 2843 
Q 2466 3031 2466 3422 
Q 2466 3731 2256 3934 
Q 2047 4138 1716 4138 
Q 1388 4138 1169 3931 
Q 950 3725 888 3313 
L 325 3413 
Q 428 3978 793 4289 
Q 1159 4600 1703 4600 
Q 2078 4600 2393 4439 
Q 2709 4278 2876 4000 
Q 3044 3722 3044 3409 
Q 3044 3113 2884 2869 
Q 2725 2625 2413 2481 
Q 2819 2388 3044 2092 
Q 3269 1797 3269 1353 
Q 3269 753 2831 336 
Q 2394 -81 1725 -81 
Q 1122 -81 723 278 
Q 325 638 269 1209 
z
" transform="scale(0.015625)"/>
       </defs>
       <use xlink:href="#ArialMT-31"/>
       <use xlink:href="#ArialMT-2e" x="55.615234"/>
       <use xlink:href="#ArialMT-33" x="83.398438"/>
      </g>
     </g>
    </g>
    <g id="ytick_6">
     <g id="line2d_14">
      <path d="M 61.182 48.372258 
L 704.448 48.372258 
" clip-path="url(#p75cc0e24de)" style="fill: none; stroke: #cccccc; stroke-linecap: round"/>
     </g>
     <g id="text_15">
      <!-- 1.4 -->
      <g style="fill: #262626" transform="translate(33.334 53.096415) scale(0.132 -0.132)">
       <use xlink:href="#ArialMT-31"/>
       <use xlink:href="#ArialMT-2e" x="55.615234"/>
       <use xlink:href="#ArialMT-34" x="83.398438"/>
      </g>
     </g>
    </g>
    <g id="text_16">
     <!-- Loss -->
     <g style="fill: #262626" transform="translate(26.472 183.53775) rotate(-90) scale(0.144 -0.144)">
      <defs>
       <path id="ArialMT-4c" d="M 469 0 
L 469 4581 
L 1075 4581 
L 1075 541 
L 3331 541 
L 3331 0 
L 469 0 
z
" transform="scale(0.015625)"/>
       <path id="ArialMT-73" d="M 197 991 
L 753 1078 
Q 800 744 1014 566 
Q 1228 388 1613 388 
Q 2000 388 2187 545 
Q 2375 703 2375 916 
Q 2375 1106 2209 1216 
Q 2094 1291 1634 1406 
Q 1016 1563 777 1677 
Q 538 1791 414 1992 
Q 291 2194 291 2438 
Q 291 2659 392 2848 
Q 494 3038 669 3163 
Q 800 3259 1026 3326 
Q 1253 3394 1513 3394 
Q 1903 3394 2198 3281 
Q 2494 3169 2634 2976 
Q 2775 2784 2828 2463 
L 2278 2388 
Q 2241 2644 2061 2787 
Q 1881 2931 1553 2931 
Q 1166 2931 1000 2803 
Q 834 2675 834 2503 
Q 834 2394 903 2306 
Q 972 2216 1119 2156 
Q 1203 2125 1616 2013 
Q 2213 1853 2448 1751 
Q 2684 1650 2818 1456 
Q 2953 1263 2953 975 
Q 2953 694 2789 445 
Q 2625 197 2315 61 
Q 2006 -75 1616 -75 
Q 969 -75 630 194 
Q 291 463 197 991 
z
" transform="scale(0.015625)"/>
      </defs>
      <use xlink:href="#ArialMT-4c"/>
      <use xlink:href="#ArialMT-6f" x="55.615234"/>
      <use xlink:href="#ArialMT-73" x="111.230469"/>
      <use xlink:href="#ArialMT-73" x="161.230469"/>
     </g>
    </g>
   </g>
   <g id="PolyCollection_1"/>
   <g id="PolyCollection_2"/>
   <g id="line2d_15">
    <path d="M 90.421364 57.570705 
L 94.34611 97.124526 
L 98.270857 118.93163 
L 102.195604 128.157993 
L 106.120351 104.555523 
L 110.045098 115.265967 
L 113.969844 101.842347 
L 117.894591 92.682722 
L 121.819338 114.726958 
L 125.744085 98.681482 
L 129.668832 99.448682 
L 133.593578 109.243683 
L 137.518325 83.883734 
L 141.443072 92.106232 
L 145.367819 97.471019 
L 149.292566 99.447404 
L 153.217312 62.38723 
L 157.142059 60.14162 
L 161.066806 60.571145 
L 164.991553 59.473343 
L 168.9163 60.37813 
L 172.841046 59.040267 
L 176.765793 59.8523 
L 180.69054 59.683151 
L 184.615287 60.254407 
L 188.540034 59.411933 
L 192.46478 59.269735 
L 196.389527 59.615728 
L 200.314274 60.276061 
L 204.239021 57.318493 
L 208.163768 56.526275 
L 212.088514 59.621648 
L 216.013261 59.144205 
L 219.938008 56.980163 
L 223.862755 57.674495 
L 227.787502 58.614014 
L 231.712248 46.105244 
L 235.636995 57.184606 
L 239.561742 57.201437 
L 243.486489 57.35479 
L 247.411236 57.394141 
L 251.335982 57.878594 
L 259.185476 57.341143 
L 263.110223 57.630931 
L 270.959716 57.626818 
L 274.884463 56.700595 
L 278.80921 58.292198 
L 282.733957 57.147441 
L 286.658703 58.02584 
L 290.58345 57.566468 
L 294.508197 57.381522 
L 298.432944 57.728731 
L 302.357691 57.485492 
L 306.282437 57.532351 
L 310.207184 58.036714 
L 314.131931 57.593325 
L 318.056678 50.283994 
L 321.981425 57.274499 
L 325.906171 57.831766 
L 329.830918 57.277927 
L 333.755665 55.694083 
L 337.680412 57.601145 
L 341.605159 58.30332 
L 345.529905 54.274527 
L 349.454652 57.351612 
L 353.379399 57.400477 
L 357.304146 54.992561 
L 361.228893 57.469507 
L 365.153639 58.136944 
L 369.078386 54.430528 
L 373.003133 57.951594 
L 376.92788 60.38127 
L 380.852627 57.78257 
L 384.777373 57.244527 
L 388.70212 57.252222 
L 392.626867 57.090988 
L 396.551614 57.209974 
L 400.476361 58.044378 
L 404.401107 55.735396 
L 408.325854 54.976815 
L 412.250601 58.743469 
L 416.175348 57.140059 
L 420.100095 53.542535 
L 424.024841 57.193586 
L 427.949588 57.165099 
L 431.874335 57.355787 
L 435.799082 57.282725 
L 439.723829 56.499891 
L 443.648575 57.821235 
L 447.573322 57.033784 
L 451.498069 57.14682 
L 455.422816 57.605444 
L 459.347563 51.431427 
L 463.272309 56.534375 
L 467.197056 57.286619 
L 471.121803 57.071041 
L 478.971297 57.23222 
L 482.896043 52.513558 
L 486.82079 57.145698 
L 490.745537 61.277931 
L 494.670284 55.509517 
L 498.595031 56.675951 
L 502.519777 56.529826 
L 510.369271 57.039898 
L 514.294018 59.042198 
L 518.218764 57.430158 
L 522.143511 57.976675 
L 526.068258 57.06709 
L 529.993005 59.825069 
L 533.917752 56.581827 
L 537.842498 57.280357 
L 541.767245 57.745306 
L 545.691992 57.483685 
L 549.616739 61.92094 
L 553.541486 69.503076 
L 557.466232 56.62744 
L 561.390979 66.819968 
L 565.315726 67.48974 
L 569.240473 57.226331 
L 573.16522 57.851915 
L 577.089966 58.21926 
L 581.014713 58.234869 
L 588.864207 58.624327 
L 592.788954 58.408038 
L 596.7137 58.922806 
L 600.638447 44.713636 
L 604.563194 57.311981 
L 608.487941 57.736374 
L 612.412688 58.444958 
L 616.337434 58.325629 
L 620.262181 58.612082 
L 624.186928 59.175931 
L 628.111675 53.962245 
L 632.036422 56.366597 
L 635.961168 57.016093 
L 639.885915 56.558802 
L 643.810662 57.263283 
L 647.735409 57.468792 
L 651.660156 58.002488 
L 655.584902 57.037086 
L 659.509649 58.268892 
L 663.434396 57.846098 
L 667.359143 57.900809 
L 671.28389 56.274966 
L 675.208636 58.516589 
L 675.208636 58.516589 
" clip-path="url(#p75cc0e24de)" style="fill: none; stroke: #4c72b0; stroke-width: 2; stroke-linecap: round"/>
   </g>
   <g id="line2d_16">
    <path d="M 90.421364 187.349455 
L 94.34611 168.243127 
L 98.270857 134.538702 
L 102.195604 121.498682 
L 106.120351 160.533528 
L 110.045098 160.325496 
L 113.969844 178.009028 
L 117.894591 182.28212 
L 121.819338 162.323411 
L 125.744085 181.323183 
L 129.668832 186.821351 
L 133.593578 169.939322 
L 137.518325 207.573774 
L 141.443072 189.147781 
L 145.367819 182.86777 
L 149.292566 184.288665 
L 153.217312 239.821225 
L 157.142059 251.235869 
L 161.066806 254.71478 
L 164.991553 258.692259 
L 168.9163 255.190572 
L 172.841046 256.265318 
L 176.765793 256.66596 
L 180.69054 258.194127 
L 184.615287 258.230705 
L 188.540034 259.533548 
L 192.46478 260.094429 
L 196.389527 261.665717 
L 200.314274 261.40316 
L 204.239021 261.755946 
L 208.163768 256.429856 
L 212.088514 264.663944 
L 216.013261 266.622633 
L 219.938008 251.686206 
L 223.862755 268.485628 
L 227.787502 269.222866 
L 231.712248 255.339376 
L 235.636995 274.723866 
L 239.561742 271.767859 
L 243.486489 272.438785 
L 247.411236 270.624382 
L 251.335982 271.099831 
L 255.260729 270.720656 
L 259.185476 270.766363 
L 263.110223 270.672675 
L 267.034969 272.436822 
L 270.959716 273.667413 
L 274.884463 272.881052 
L 278.80921 271.42414 
L 282.733957 273.448274 
L 286.658703 271.609989 
L 290.58345 272.741377 
L 294.508197 271.627218 
L 298.432944 272.008699 
L 302.357691 274.032692 
L 306.282437 271.323567 
L 310.207184 273.229912 
L 314.131931 273.311854 
L 318.056678 268.564154 
L 321.981425 278.903523 
L 325.906171 279.52681 
L 333.755665 274.961189 
L 337.680412 277.966894 
L 341.605159 272.627126 
L 345.529905 274.607282 
L 349.454652 278.38003 
L 353.379399 278.336809 
L 357.304146 274.815875 
L 361.228893 278.182817 
L 365.153639 277.027399 
L 369.078386 276.230321 
L 373.003133 273.708446 
L 376.92788 269.875287 
L 380.852627 274.642676 
L 384.777373 278.23294 
L 388.70212 282.618383 
L 392.626867 280.656096 
L 396.551614 282.75921 
L 400.476361 279.562796 
L 404.401107 279.287247 
L 408.325854 276.553295 
L 412.250601 276.615603 
L 416.175348 281.369129 
L 420.100095 278.15994 
L 424.024841 285.044451 
L 427.949588 284.128094 
L 431.874335 281.872339 
L 435.799082 281.393369 
L 439.723829 277.815589 
L 443.648575 277.256088 
L 447.573322 284.267842 
L 451.498069 284.444157 
L 455.422816 282.823175 
L 459.347563 278.988812 
L 463.272309 286.321434 
L 471.121803 284.411521 
L 475.04655 281.841681 
L 478.971297 284.767251 
L 482.896043 280.092987 
L 486.82079 288.854743 
L 490.745537 271.171616 
L 494.670284 286.668144 
L 498.595031 286.179547 
L 502.519777 286.47946 
L 506.444524 285.54414 
L 510.369271 285.974365 
L 514.294018 278.749828 
L 518.218764 288.068632 
L 522.143511 282.437519 
L 526.068258 286.211109 
L 529.993005 272.109709 
L 533.917752 285.568504 
L 537.842498 286.772614 
L 541.767245 286.984882 
L 545.691992 285.478368 
L 549.616739 274.096158 
L 553.541486 261.440924 
L 557.466232 285.951387 
L 561.390979 271.293314 
L 565.315726 260.730396 
L 569.240473 284.775726 
L 573.16522 286.173269 
L 577.089966 286.265103 
L 581.014713 285.951387 
L 584.93946 284.892718 
L 588.864207 284.253635 
L 592.788954 285.011923 
L 596.7137 286.288221 
L 600.638447 278.994189 
L 604.563194 290.879671 
L 608.487941 289.486289 
L 612.412688 286.94955 
L 616.337434 288.175032 
L 620.262181 282.034477 
L 624.186928 288.255672 
L 628.111675 283.779307 
L 632.036422 288.842312 
L 635.961168 291.946364 
L 639.885915 286.294702 
L 643.810662 289.254607 
L 647.735409 287.965348 
L 651.660156 289.168583 
L 655.584902 286.967091 
L 659.509649 288.557011 
L 663.434396 287.599632 
L 667.359143 288.332279 
L 671.28389 284.120316 
L 675.208636 289.700309 
L 675.208636 289.700309 
" clip-path="url(#p75cc0e24de)" style="fill: none; stroke: #dd8452; stroke-width: 2; stroke-linecap: round"/>
   </g>
   <g id="line2d_17"/>
   <g id="line2d_18"/>
   <g id="patch_3">
    <path d="M 61.182 304.308 
L 61.182 32.352 
" style="fill: none; stroke: #cccccc; stroke-width: 1.25; stroke-linejoin: miter; stroke-linecap: square"/>
   </g>
   <g id="patch_4">
    <path d="M 704.448 304.308 
L 704.448 32.352 
" style="fill: none; stroke: #cccccc; stroke-width: 1.25; stroke-linejoin: miter; stroke-linecap: square"/>
   </g>
   <g id="patch_5">
    <path d="M 61.182 304.308 
L 704.448 304.308 
" style="fill: none; stroke: #cccccc; stroke-width: 1.25; stroke-linejoin: miter; stroke-linecap: square"/>
   </g>
   <g id="patch_6">
    <path d="M 61.182 32.352 
L 704.448 32.352 
" style="fill: none; stroke: #cccccc; stroke-width: 1.25; stroke-linejoin: miter; stroke-linecap: square"/>
   </g>
   <g id="text_17">
    <!-- Adversarial Losses: Discriminator Loss (LossD) and Generator Loss (LossG) vs Epoch -->
    <g style="fill: #262626" transform="translate(106.72425 26.352) scale(0.144 -0.144)">
     <defs>
      <path id="ArialMT-41" d="M -9 0 
L 1750 4581 
L 2403 4581 
L 4278 0 
L 3588 0 
L 3053 1388 
L 1138 1388 
L 634 0 
L -9 0 
z
M 1313 1881 
L 2866 1881 
L 2388 3150 
Q 2169 3728 2063 4100 
Q 1975 3659 1816 3225 
L 1313 1881 
z
" transform="scale(0.015625)"/>
      <path id="ArialMT-64" d="M 2575 0 
L 2575 419 
Q 2259 -75 1647 -75 
Q 1250 -75 917 144 
Q 584 363 401 755 
Q 219 1147 219 1656 
Q 219 2153 384 2558 
Q 550 2963 881 3178 
Q 1213 3394 1622 3394 
Q 1922 3394 2156 3267 
Q 2391 3141 2538 2938 
L 2538 4581 
L 3097 4581 
L 3097 0 
L 2575 0 
z
M 797 1656 
Q 797 1019 1065 703 
Q 1334 388 1700 388 
Q 2069 388 2326 689 
Q 2584 991 2584 1609 
Q 2584 2291 2321 2609 
Q 2059 2928 1675 2928 
Q 1300 2928 1048 2622 
Q 797 2316 797 1656 
z
" transform="scale(0.015625)"/>
      <path id="ArialMT-76" d="M 1344 0 
L 81 3319 
L 675 3319 
L 1388 1331 
Q 1503 1009 1600 663 
Q 1675 925 1809 1294 
L 2547 3319 
L 3125 3319 
L 1869 0 
L 1344 0 
z
" transform="scale(0.015625)"/>
      <path id="ArialMT-65" d="M 2694 1069 
L 3275 997 
Q 3138 488 2766 206 
Q 2394 -75 1816 -75 
Q 1088 -75 661 373 
Q 234 822 234 1631 
Q 234 2469 665 2931 
Q 1097 3394 1784 3394 
Q 2450 3394 2872 2941 
Q 3294 2488 3294 1666 
Q 3294 1616 3291 1516 
L 816 1516 
Q 847 969 1125 678 
Q 1403 388 1819 388 
Q 2128 388 2347 550 
Q 2566 713 2694 1069 
z
M 847 1978 
L 2700 1978 
Q 2663 2397 2488 2606 
Q 2219 2931 1791 2931 
Q 1403 2931 1139 2672 
Q 875 2413 847 1978 
z
" transform="scale(0.015625)"/>
      <path id="ArialMT-72" d="M 416 0 
L 416 3319 
L 922 3319 
L 922 2816 
Q 1116 3169 1280 3281 
Q 1444 3394 1641 3394 
Q 1925 3394 2219 3213 
L 2025 2691 
Q 1819 2813 1613 2813 
Q 1428 2813 1281 2702 
Q 1134 2591 1072 2394 
Q 978 2094 978 1738 
L 978 0 
L 416 0 
z
" transform="scale(0.015625)"/>
      <path id="ArialMT-61" d="M 2588 409 
Q 2275 144 1986 34 
Q 1697 -75 1366 -75 
Q 819 -75 525 192 
Q 231 459 231 875 
Q 231 1119 342 1320 
Q 453 1522 633 1644 
Q 813 1766 1038 1828 
Q 1203 1872 1538 1913 
Q 2219 1994 2541 2106 
Q 2544 2222 2544 2253 
Q 2544 2597 2384 2738 
Q 2169 2928 1744 2928 
Q 1347 2928 1158 2789 
Q 969 2650 878 2297 
L 328 2372 
Q 403 2725 575 2942 
Q 747 3159 1072 3276 
Q 1397 3394 1825 3394 
Q 2250 3394 2515 3294 
Q 2781 3194 2906 3042 
Q 3031 2891 3081 2659 
Q 3109 2516 3109 2141 
L 3109 1391 
Q 3109 606 3145 398 
Q 3181 191 3288 0 
L 2700 0 
Q 2613 175 2588 409 
z
M 2541 1666 
Q 2234 1541 1622 1453 
Q 1275 1403 1131 1340 
Q 988 1278 909 1158 
Q 831 1038 831 891 
Q 831 666 1001 516 
Q 1172 366 1500 366 
Q 1825 366 2078 508 
Q 2331 650 2450 897 
Q 2541 1088 2541 1459 
L 2541 1666 
z
" transform="scale(0.015625)"/>
      <path id="ArialMT-69" d="M 425 3934 
L 425 4581 
L 988 4581 
L 988 3934 
L 425 3934 
z
M 425 0 
L 425 3319 
L 988 3319 
L 988 0 
L 425 0 
z
" transform="scale(0.015625)"/>
      <path id="ArialMT-6c" d="M 409 0 
L 409 4581 
L 972 4581 
L 972 0 
L 409 0 
z
" transform="scale(0.015625)"/>
      <path id="ArialMT-20" transform="scale(0.015625)"/>
      <path id="ArialMT-3a" d="M 578 2678 
L 578 3319 
L 1219 3319 
L 1219 2678 
L 578 2678 
z
M 578 0 
L 578 641 
L 1219 641 
L 1219 0 
L 578 0 
z
" transform="scale(0.015625)"/>
      <path id="ArialMT-44" d="M 494 0 
L 494 4581 
L 2072 4581 
Q 2606 4581 2888 4516 
Q 3281 4425 3559 4188 
Q 3922 3881 4101 3404 
Q 4281 2928 4281 2316 
Q 4281 1794 4159 1391 
Q 4038 988 3847 723 
Q 3656 459 3429 307 
Q 3203 156 2883 78 
Q 2563 0 2147 0 
L 494 0 
z
M 1100 541 
L 2078 541 
Q 2531 541 2789 625 
Q 3047 709 3200 863 
Q 3416 1078 3536 1442 
Q 3656 1806 3656 2325 
Q 3656 3044 3420 3430 
Q 3184 3816 2847 3947 
Q 2603 4041 2063 4041 
L 1100 4041 
L 1100 541 
z
" transform="scale(0.015625)"/>
      <path id="ArialMT-6d" d="M 422 0 
L 422 3319 
L 925 3319 
L 925 2853 
Q 1081 3097 1340 3245 
Q 1600 3394 1931 3394 
Q 2300 3394 2536 3241 
Q 2772 3088 2869 2813 
Q 3263 3394 3894 3394 
Q 4388 3394 4653 3120 
Q 4919 2847 4919 2278 
L 4919 0 
L 4359 0 
L 4359 2091 
Q 4359 2428 4304 2576 
Q 4250 2725 4106 2815 
Q 3963 2906 3769 2906 
Q 3419 2906 3187 2673 
Q 2956 2441 2956 1928 
L 2956 0 
L 2394 0 
L 2394 2156 
Q 2394 2531 2256 2718 
Q 2119 2906 1806 2906 
Q 1569 2906 1367 2781 
Q 1166 2656 1075 2415 
Q 984 2175 984 1722 
L 984 0 
L 422 0 
z
" transform="scale(0.015625)"/>
      <path id="ArialMT-6e" d="M 422 0 
L 422 3319 
L 928 3319 
L 928 2847 
Q 1294 3394 1984 3394 
Q 2284 3394 2536 3286 
Q 2788 3178 2913 3003 
Q 3038 2828 3088 2588 
Q 3119 2431 3119 2041 
L 3119 0 
L 2556 0 
L 2556 2019 
Q 2556 2363 2490 2533 
Q 2425 2703 2258 2804 
Q 2091 2906 1866 2906 
Q 1506 2906 1245 2678 
Q 984 2450 984 1813 
L 984 0 
L 422 0 
z
" transform="scale(0.015625)"/>
      <path id="ArialMT-74" d="M 1650 503 
L 1731 6 
Q 1494 -44 1306 -44 
Q 1000 -44 831 53 
Q 663 150 594 308 
Q 525 466 525 972 
L 525 2881 
L 113 2881 
L 113 3319 
L 525 3319 
L 525 4141 
L 1084 4478 
L 1084 3319 
L 1650 3319 
L 1650 2881 
L 1084 2881 
L 1084 941 
Q 1084 700 1114 631 
Q 1144 563 1211 522 
Q 1278 481 1403 481 
Q 1497 481 1650 503 
z
" transform="scale(0.015625)"/>
      <path id="ArialMT-28" d="M 1497 -1347 
Q 1031 -759 709 28 
Q 388 816 388 1659 
Q 388 2403 628 3084 
Q 909 3875 1497 4659 
L 1900 4659 
Q 1522 4009 1400 3731 
Q 1209 3300 1100 2831 
Q 966 2247 966 1656 
Q 966 153 1900 -1347 
L 1497 -1347 
z
" transform="scale(0.015625)"/>
      <path id="ArialMT-29" d="M 791 -1347 
L 388 -1347 
Q 1322 153 1322 1656 
Q 1322 2244 1188 2822 
Q 1081 3291 891 3722 
Q 769 4003 388 4659 
L 791 4659 
Q 1378 3875 1659 3084 
Q 1900 2403 1900 1659 
Q 1900 816 1576 28 
Q 1253 -759 791 -1347 
z
" transform="scale(0.015625)"/>
      <path id="ArialMT-47" d="M 2638 1797 
L 2638 2334 
L 4578 2338 
L 4578 638 
Q 4131 281 3656 101 
Q 3181 -78 2681 -78 
Q 2006 -78 1454 211 
Q 903 500 622 1047 
Q 341 1594 341 2269 
Q 341 2938 620 3517 
Q 900 4097 1425 4378 
Q 1950 4659 2634 4659 
Q 3131 4659 3532 4498 
Q 3934 4338 4162 4050 
Q 4391 3763 4509 3300 
L 3963 3150 
Q 3859 3500 3706 3700 
Q 3553 3900 3268 4020 
Q 2984 4141 2638 4141 
Q 2222 4141 1919 4014 
Q 1616 3888 1430 3681 
Q 1244 3475 1141 3228 
Q 966 2803 966 2306 
Q 966 1694 1177 1281 
Q 1388 869 1791 669 
Q 2194 469 2647 469 
Q 3041 469 3416 620 
Q 3791 772 3984 944 
L 3984 1797 
L 2638 1797 
z
" transform="scale(0.015625)"/>
     </defs>
     <use xlink:href="#ArialMT-41"/>
     <use xlink:href="#ArialMT-64" x="66.699219"/>
     <use xlink:href="#ArialMT-76" x="122.314453"/>
     <use xlink:href="#ArialMT-65" x="172.314453"/>
     <use xlink:href="#ArialMT-72" x="227.929688"/>
     <use xlink:href="#ArialMT-73" x="261.230469"/>
     <use xlink:href="#ArialMT-61" x="311.230469"/>
     <use xlink:href="#ArialMT-72" x="366.845703"/>
     <use xlink:href="#ArialMT-69" x="400.146484"/>
     <use xlink:href="#ArialMT-61" x="422.363281"/>
     <use xlink:href="#ArialMT-6c" x="477.978516"/>
     <use xlink:href="#ArialMT-20" x="500.195312"/>
     <use xlink:href="#ArialMT-4c" x="527.978516"/>
     <use xlink:href="#ArialMT-6f" x="583.59375"/>
     <use xlink:href="#ArialMT-73" x="639.208984"/>
     <use xlink:href="#ArialMT-73" x="689.208984"/>
     <use xlink:href="#ArialMT-65" x="739.208984"/>
     <use xlink:href="#ArialMT-73" x="794.824219"/>
     <use xlink:href="#ArialMT-3a" x="844.824219"/>
     <use xlink:href="#ArialMT-20" x="872.607422"/>
     <use xlink:href="#ArialMT-44" x="900.390625"/>
     <use xlink:href="#ArialMT-69" x="972.607422"/>
     <use xlink:href="#ArialMT-73" x="994.824219"/>
     <use xlink:href="#ArialMT-63" x="1044.824219"/>
     <use xlink:href="#ArialMT-72" x="1094.824219"/>
     <use xlink:href="#ArialMT-69" x="1128.125"/>
     <use xlink:href="#ArialMT-6d" x="1150.341797"/>
     <use xlink:href="#ArialMT-69" x="1233.642578"/>
     <use xlink:href="#ArialMT-6e" x="1255.859375"/>
     <use xlink:href="#ArialMT-61" x="1311.474609"/>
     <use xlink:href="#ArialMT-74" x="1367.089844"/>
     <use xlink:href="#ArialMT-6f" x="1394.873047"/>
     <use xlink:href="#ArialMT-72" x="1450.488281"/>
     <use xlink:href="#ArialMT-20" x="1483.789062"/>
     <use xlink:href="#ArialMT-4c" x="1511.572266"/>
     <use xlink:href="#ArialMT-6f" x="1567.1875"/>
     <use xlink:href="#ArialMT-73" x="1622.802734"/>
     <use xlink:href="#ArialMT-73" x="1672.802734"/>
     <use xlink:href="#ArialMT-20" x="1722.802734"/>
     <use xlink:href="#ArialMT-28" x="1750.585938"/>
     <use xlink:href="#ArialMT-4c" x="1783.886719"/>
     <use xlink:href="#ArialMT-6f" x="1839.501953"/>
     <use xlink:href="#ArialMT-73" x="1895.117188"/>
     <use xlink:href="#ArialMT-73" x="1945.117188"/>
     <use xlink:href="#ArialMT-44" x="1995.117188"/>
     <use xlink:href="#ArialMT-29" x="2067.333984"/>
     <use xlink:href="#ArialMT-20" x="2100.634766"/>
     <use xlink:href="#ArialMT-61" x="2128.417969"/>
     <use xlink:href="#ArialMT-6e" x="2184.033203"/>
     <use xlink:href="#ArialMT-64" x="2239.648438"/>
     <use xlink:href="#ArialMT-20" x="2295.263672"/>
     <use xlink:href="#ArialMT-47" x="2323.046875"/>
     <use xlink:href="#ArialMT-65" x="2400.830078"/>
     <use xlink:href="#ArialMT-6e" x="2456.445312"/>
     <use xlink:href="#ArialMT-65" x="2512.060547"/>
     <use xlink:href="#ArialMT-72" x="2567.675781"/>
     <use xlink:href="#ArialMT-61" x="2600.976562"/>
     <use xlink:href="#ArialMT-74" x="2656.591797"/>
     <use xlink:href="#ArialMT-6f" x="2684.375"/>
     <use xlink:href="#ArialMT-72" x="2739.990234"/>
     <use xlink:href="#ArialMT-20" x="2773.291016"/>
     <use xlink:href="#ArialMT-4c" x="2801.074219"/>
     <use xlink:href="#ArialMT-6f" x="2856.689453"/>
     <use xlink:href="#ArialMT-73" x="2912.304688"/>
     <use xlink:href="#ArialMT-73" x="2962.304688"/>
     <use xlink:href="#ArialMT-20" x="3012.304688"/>
     <use xlink:href="#ArialMT-28" x="3040.087891"/>
     <use xlink:href="#ArialMT-4c" x="3073.388672"/>
     <use xlink:href="#ArialMT-6f" x="3129.003906"/>
     <use xlink:href="#ArialMT-73" x="3184.619141"/>
     <use xlink:href="#ArialMT-73" x="3234.619141"/>
     <use xlink:href="#ArialMT-47" x="3284.619141"/>
     <use xlink:href="#ArialMT-29" x="3362.402344"/>
     <use xlink:href="#ArialMT-20" x="3395.703125"/>
     <use xlink:href="#ArialMT-76" x="3423.486328"/>
     <use xlink:href="#ArialMT-73" x="3473.486328"/>
     <use xlink:href="#ArialMT-20" x="3523.486328"/>
     <use xlink:href="#ArialMT-45" x="3551.269531"/>
     <use xlink:href="#ArialMT-70" x="3617.96875"/>
     <use xlink:href="#ArialMT-6f" x="3673.583984"/>
     <use xlink:href="#ArialMT-63" x="3729.199219"/>
     <use xlink:href="#ArialMT-68" x="3779.199219"/>
    </g>
   </g>
   <g id="legend_1">
    <g id="patch_7">
     <path d="M 614.82 198.950813 
L 695.208 198.950813 
Q 697.848 198.950813 697.848 196.310813 
L 697.848 140.349187 
Q 697.848 137.709188 695.208 137.709188 
L 614.82 137.709188 
Q 612.18 137.709188 612.18 140.349187 
L 612.18 196.310813 
Q 612.18 198.950813 614.82 198.950813 
z
" style="fill: #ffffff; opacity: 0.8; stroke: #cccccc; stroke-linejoin: miter"/>
    </g>
    <g id="text_18">
     <!-- Loss Type -->
     <g style="fill: #262626" transform="translate(622.322625 153.296438) scale(0.144 -0.144)">
      <defs>
       <path id="ArialMT-54" d="M 1659 0 
L 1659 4041 
L 150 4041 
L 150 4581 
L 3781 4581 
L 3781 4041 
L 2266 4041 
L 2266 0 
L 1659 0 
z
" transform="scale(0.015625)"/>
       <path id="ArialMT-79" d="M 397 -1278 
L 334 -750 
Q 519 -800 656 -800 
Q 844 -800 956 -737 
Q 1069 -675 1141 -563 
Q 1194 -478 1313 -144 
Q 1328 -97 1363 -6 
L 103 3319 
L 709 3319 
L 1400 1397 
Q 1534 1031 1641 628 
Q 1738 1016 1872 1384 
L 2581 3319 
L 3144 3319 
L 1881 -56 
Q 1678 -603 1566 -809 
Q 1416 -1088 1222 -1217 
Q 1028 -1347 759 -1347 
Q 597 -1347 397 -1278 
z
" transform="scale(0.015625)"/>
      </defs>
      <use xlink:href="#ArialMT-4c"/>
      <use xlink:href="#ArialMT-6f" x="55.615234"/>
      <use xlink:href="#ArialMT-73" x="111.230469"/>
      <use xlink:href="#ArialMT-73" x="161.230469"/>
      <use xlink:href="#ArialMT-20" x="211.230469"/>
      <use xlink:href="#ArialMT-54" x="237.263672"/>
      <use xlink:href="#ArialMT-79" x="292.847656"/>
      <use xlink:href="#ArialMT-70" x="342.847656"/>
      <use xlink:href="#ArialMT-65" x="398.462891"/>
     </g>
    </g>
    <g id="line2d_19">
     <path d="M 617.46 167.7555 
L 630.66 167.7555 
L 643.86 167.7555 
" style="fill: none; stroke: #4c72b0; stroke-width: 2; stroke-linecap: round"/>
    </g>
    <g id="text_19">
     <!-- LossD -->
     <g style="fill: #262626" transform="translate(654.42 172.3755) scale(0.132 -0.132)">
      <use xlink:href="#ArialMT-4c"/>
      <use xlink:href="#ArialMT-6f" x="55.615234"/>
      <use xlink:href="#ArialMT-73" x="111.230469"/>
      <use xlink:href="#ArialMT-73" x="161.230469"/>
      <use xlink:href="#ArialMT-44" x="211.230469"/>
     </g>
    </g>
    <g id="line2d_20">
     <path d="M 617.46 186.427313 
L 630.66 186.427313 
L 643.86 186.427313 
" style="fill: none; stroke: #dd8452; stroke-width: 2; stroke-linecap: round"/>
    </g>
    <g id="text_20">
     <!-- LossG -->
     <g style="fill: #262626" transform="translate(654.42 191.047313) scale(0.132 -0.132)">
      <use xlink:href="#ArialMT-4c"/>
      <use xlink:href="#ArialMT-6f" x="55.615234"/>
      <use xlink:href="#ArialMT-73" x="111.230469"/>
      <use xlink:href="#ArialMT-73" x="161.230469"/>
      <use xlink:href="#ArialMT-47" x="211.230469"/>
     </g>
    </g>
   </g>
  </g>
 </g>
 <defs>
  <clipPath id="p75cc0e24de">
   <rect x="61.182" y="32.352" width="643.266" height="271.956"/>
  </clipPath>
 </defs>
</svg>
