<?xml version="1.0" encoding="utf-8" standalone="no"?>
<!DOCTYPE svg PUBLIC "-//W3C//DTD SVG 1.1//EN"
  "http://www.w3.org/Graphics/SVG/1.1/DTD/svg11.dtd">
<svg xmlns:xlink="http://www.w3.org/1999/xlink" width="720pt" height="360pt" viewBox="0 0 720 360" xmlns="http://www.w3.org/2000/svg" version="1.1">
 <metadata>
  <rdf:RDF xmlns:dc="http://purl.org/dc/elements/1.1/" xmlns:cc="http://creativecommons.org/ns#" xmlns:rdf="http://www.w3.org/1999/02/22-rdf-syntax-ns#">
   <cc:Work>
    <dc:type rdf:resource="http://purl.org/dc/dcmitype/StillImage"/>
    <dc:date>2025-04-18T09:00:00.259948</dc:date>
    <dc:format>image/svg+xml</dc:format>
    <dc:creator>
     <cc:Agent>
      <dc:title>Matplotlib v3.9.2, https://matplotlib.org/</dc:title>
     </cc:Agent>
    </dc:creator>
   </cc:Work>
  </rdf:RDF>
 </metadata>
 <defs>
  <style type="text/css">*{stroke-linejoin: round; stroke-linecap: butt}</style>
 </defs>
 <g id="figure_1">
  <g id="patch_1">
   <path d="M 0 360 
L 720 360 
L 720 0 
L 0 0 
z
" style="fill: #ffffff"/>
  </g>
  <g id="axes_1">
   <g id="patch_2">
    <path d="M 83.052 304.308 
L 704.448 304.308 
L 704.448 32.352 
L 83.052 32.352 
z
" style="fill: #ffffff"/>
   </g>
   <g id="matplotlib.axis_1">
    <g id="xtick_1">
     <g id="line2d_1">
      <path d="M 108.458552 304.308 
L 108.458552 32.352 
" clip-path="url(#p727c2d2f9f)" style="fill: none; stroke: #cccccc; stroke-linecap: round"/>
     </g>
     <g id="text_1">
      <!-- 0 -->
      <g style="fill: #262626" transform="translate(104.788333 323.256313) scale(0.132 -0.132)">
       <defs>
        <path id="ArialMT-30" d="M 266 2259 
Q 266 3072 433 3567 
Q 600 4063 929 4331 
Q 1259 4600 1759 4600 
Q 2128 4600 2406 4451 
Q 2684 4303 2865 4023 
Q 3047 3744 3150 3342 
Q 3253 2941 3253 2259 
Q 3253 1453 3087 958 
Q 2922 463 2592 192 
Q 2263 -78 1759 -78 
Q 1097 -78 719 397 
Q 266 969 266 2259 
z
M 844 2259 
Q 844 1131 1108 757 
Q 1372 384 1759 384 
Q 2147 384 2411 759 
Q 2675 1134 2675 2259 
Q 2675 3391 2411 3762 
Q 2147 4134 1753 4134 
Q 1366 4134 1134 3806 
Q 844 3388 844 2259 
z
" transform="scale(0.015625)"/>
       </defs>
       <use xlink:href="#ArialMT-30"/>
      </g>
     </g>
    </g>
    <g id="xtick_2">
     <g id="line2d_2">
      <path d="M 179.426574 304.308 
L 179.426574 32.352 
" clip-path="url(#p727c2d2f9f)" style="fill: none; stroke: #cccccc; stroke-linecap: round"/>
     </g>
     <g id="text_2">
      <!-- 25 -->
      <g style="fill: #262626" transform="translate(172.086136 323.256313) scale(0.132 -0.132)">
       <defs>
        <path id="ArialMT-32" d="M 3222 541 
L 3222 0 
L 194 0 
Q 188 203 259 391 
Q 375 700 629 1000 
Q 884 1300 1366 1694 
Q 2113 2306 2375 2664 
Q 2638 3022 2638 3341 
Q 2638 3675 2398 3904 
Q 2159 4134 1775 4134 
Q 1369 4134 1125 3890 
Q 881 3647 878 3216 
L 300 3275 
Q 359 3922 746 4261 
Q 1134 4600 1788 4600 
Q 2447 4600 2831 4234 
Q 3216 3869 3216 3328 
Q 3216 3053 3103 2787 
Q 2991 2522 2730 2228 
Q 2469 1934 1863 1422 
Q 1356 997 1212 845 
Q 1069 694 975 541 
L 3222 541 
z
" transform="scale(0.015625)"/>
        <path id="ArialMT-35" d="M 266 1200 
L 856 1250 
Q 922 819 1161 601 
Q 1400 384 1738 384 
Q 2144 384 2425 690 
Q 2706 997 2706 1503 
Q 2706 1984 2436 2262 
Q 2166 2541 1728 2541 
Q 1456 2541 1237 2417 
Q 1019 2294 894 2097 
L 366 2166 
L 809 4519 
L 3088 4519 
L 3088 3981 
L 1259 3981 
L 1013 2750 
Q 1425 3038 1878 3038 
Q 2478 3038 2890 2622 
Q 3303 2206 3303 1553 
Q 3303 931 2941 478 
Q 2500 -78 1738 -78 
Q 1113 -78 717 272 
Q 322 622 266 1200 
z
" transform="scale(0.015625)"/>
       </defs>
       <use xlink:href="#ArialMT-32"/>
       <use xlink:href="#ArialMT-35" x="55.615234"/>
      </g>
     </g>
    </g>
    <g id="xtick_3">
     <g id="line2d_3">
      <path d="M 250.394596 304.308 
L 250.394596 32.352 
" clip-path="url(#p727c2d2f9f)" style="fill: none; stroke: #cccccc; stroke-linecap: round"/>
     </g>
     <g id="text_3">
      <!-- 50 -->
      <g style="fill: #262626" transform="translate(243.054158 323.256313) scale(0.132 -0.132)">
       <use xlink:href="#ArialMT-35"/>
       <use xlink:href="#ArialMT-30" x="55.615234"/>
      </g>
     </g>
    </g>
    <g id="xtick_4">
     <g id="line2d_4">
      <path d="M 321.362618 304.308 
L 321.362618 32.352 
" clip-path="url(#p727c2d2f9f)" style="fill: none; stroke: #cccccc; stroke-linecap: round"/>
     </g>
     <g id="text_4">
      <!-- 75 -->
      <g style="fill: #262626" transform="translate(314.02218 323.256313) scale(0.132 -0.132)">
       <defs>
        <path id="ArialMT-37" d="M 303 3981 
L 303 4522 
L 3269 4522 
L 3269 4084 
Q 2831 3619 2401 2847 
Q 1972 2075 1738 1259 
Q 1569 684 1522 0 
L 944 0 
Q 953 541 1156 1306 
Q 1359 2072 1739 2783 
Q 2119 3494 2547 3981 
L 303 3981 
z
" transform="scale(0.015625)"/>
       </defs>
       <use xlink:href="#ArialMT-37"/>
       <use xlink:href="#ArialMT-35" x="55.615234"/>
      </g>
     </g>
    </g>
    <g id="xtick_5">
     <g id="line2d_5">
      <path d="M 392.33064 304.308 
L 392.33064 32.352 
" clip-path="url(#p727c2d2f9f)" style="fill: none; stroke: #cccccc; stroke-linecap: round"/>
     </g>
     <g id="text_5">
      <!-- 100 -->
      <g style="fill: #262626" transform="translate(381.319983 323.256313) scale(0.132 -0.132)">
       <defs>
        <path id="ArialMT-31" d="M 2384 0 
L 1822 0 
L 1822 3584 
Q 1619 3391 1289 3197 
Q 959 3003 697 2906 
L 697 3450 
Q 1169 3672 1522 3987 
Q 1875 4303 2022 4600 
L 2384 4600 
L 2384 0 
z
" transform="scale(0.015625)"/>
       </defs>
       <use xlink:href="#ArialMT-31"/>
       <use xlink:href="#ArialMT-30" x="55.615234"/>
       <use xlink:href="#ArialMT-30" x="111.230469"/>
      </g>
     </g>
    </g>
    <g id="xtick_6">
     <g id="line2d_6">
      <path d="M 463.298661 304.308 
L 463.298661 32.352 
" clip-path="url(#p727c2d2f9f)" style="fill: none; stroke: #cccccc; stroke-linecap: round"/>
     </g>
     <g id="text_6">
      <!-- 125 -->
      <g style="fill: #262626" transform="translate(452.288005 323.256313) scale(0.132 -0.132)">
       <use xlink:href="#ArialMT-31"/>
       <use xlink:href="#ArialMT-32" x="55.615234"/>
       <use xlink:href="#ArialMT-35" x="111.230469"/>
      </g>
     </g>
    </g>
    <g id="xtick_7">
     <g id="line2d_7">
      <path d="M 534.266683 304.308 
L 534.266683 32.352 
" clip-path="url(#p727c2d2f9f)" style="fill: none; stroke: #cccccc; stroke-linecap: round"/>
     </g>
     <g id="text_7">
      <!-- 150 -->
      <g style="fill: #262626" transform="translate(523.256027 323.256313) scale(0.132 -0.132)">
       <use xlink:href="#ArialMT-31"/>
       <use xlink:href="#ArialMT-35" x="55.615234"/>
       <use xlink:href="#ArialMT-30" x="111.230469"/>
      </g>
     </g>
    </g>
    <g id="xtick_8">
     <g id="line2d_8">
      <path d="M 605.234705 304.308 
L 605.234705 32.352 
" clip-path="url(#p727c2d2f9f)" style="fill: none; stroke: #cccccc; stroke-linecap: round"/>
     </g>
     <g id="text_8">
      <!-- 175 -->
      <g style="fill: #262626" transform="translate(594.224049 323.256313) scale(0.132 -0.132)">
       <use xlink:href="#ArialMT-31"/>
       <use xlink:href="#ArialMT-37" x="55.615234"/>
       <use xlink:href="#ArialMT-35" x="111.230469"/>
      </g>
     </g>
    </g>
    <g id="xtick_9">
     <g id="line2d_9">
      <path d="M 676.202727 304.308 
L 676.202727 32.352 
" clip-path="url(#p727c2d2f9f)" style="fill: none; stroke: #cccccc; stroke-linecap: round"/>
     </g>
     <g id="text_9">
      <!-- 200 -->
      <g style="fill: #262626" transform="translate(665.192071 323.256313) scale(0.132 -0.132)">
       <use xlink:href="#ArialMT-32"/>
       <use xlink:href="#ArialMT-30" x="55.615234"/>
       <use xlink:href="#ArialMT-30" x="111.230469"/>
      </g>
     </g>
    </g>
    <g id="text_10">
     <!-- Epoch -->
     <g style="fill: #262626" transform="translate(373.33575 340.187063) scale(0.144 -0.144)">
      <defs>
       <path id="ArialMT-45" d="M 506 0 
L 506 4581 
L 3819 4581 
L 3819 4041 
L 1113 4041 
L 1113 2638 
L 3647 2638 
L 3647 2100 
L 1113 2100 
L 1113 541 
L 3925 541 
L 3925 0 
L 506 0 
z
" transform="scale(0.015625)"/>
       <path id="ArialMT-70" d="M 422 -1272 
L 422 3319 
L 934 3319 
L 934 2888 
Q 1116 3141 1344 3267 
Q 1572 3394 1897 3394 
Q 2322 3394 2647 3175 
Q 2972 2956 3137 2557 
Q 3303 2159 3303 1684 
Q 3303 1175 3120 767 
Q 2938 359 2589 142 
Q 2241 -75 1856 -75 
Q 1575 -75 1351 44 
Q 1128 163 984 344 
L 984 -1272 
L 422 -1272 
z
M 931 1641 
Q 931 1000 1190 694 
Q 1450 388 1819 388 
Q 2194 388 2461 705 
Q 2728 1022 2728 1688 
Q 2728 2322 2467 2637 
Q 2206 2953 1844 2953 
Q 1484 2953 1207 2617 
Q 931 2281 931 1641 
z
" transform="scale(0.015625)"/>
       <path id="ArialMT-6f" d="M 213 1659 
Q 213 2581 725 3025 
Q 1153 3394 1769 3394 
Q 2453 3394 2887 2945 
Q 3322 2497 3322 1706 
Q 3322 1066 3130 698 
Q 2938 331 2570 128 
Q 2203 -75 1769 -75 
Q 1072 -75 642 372 
Q 213 819 213 1659 
z
M 791 1659 
Q 791 1022 1069 705 
Q 1347 388 1769 388 
Q 2188 388 2466 706 
Q 2744 1025 2744 1678 
Q 2744 2294 2464 2611 
Q 2184 2928 1769 2928 
Q 1347 2928 1069 2612 
Q 791 2297 791 1659 
z
" transform="scale(0.015625)"/>
       <path id="ArialMT-63" d="M 2588 1216 
L 3141 1144 
Q 3050 572 2676 248 
Q 2303 -75 1759 -75 
Q 1078 -75 664 370 
Q 250 816 250 1647 
Q 250 2184 428 2587 
Q 606 2991 970 3192 
Q 1334 3394 1763 3394 
Q 2303 3394 2647 3120 
Q 2991 2847 3088 2344 
L 2541 2259 
Q 2463 2594 2264 2762 
Q 2066 2931 1784 2931 
Q 1359 2931 1093 2626 
Q 828 2322 828 1663 
Q 828 994 1084 691 
Q 1341 388 1753 388 
Q 2084 388 2306 591 
Q 2528 794 2588 1216 
z
" transform="scale(0.015625)"/>
       <path id="ArialMT-68" d="M 422 0 
L 422 4581 
L 984 4581 
L 984 2938 
Q 1378 3394 1978 3394 
Q 2347 3394 2619 3248 
Q 2891 3103 3008 2847 
Q 3125 2591 3125 2103 
L 3125 0 
L 2563 0 
L 2563 2103 
Q 2563 2525 2380 2717 
Q 2197 2909 1863 2909 
Q 1613 2909 1392 2779 
Q 1172 2650 1078 2428 
Q 984 2206 984 1816 
L 984 0 
L 422 0 
z
" transform="scale(0.015625)"/>
      </defs>
      <use xlink:href="#ArialMT-45"/>
      <use xlink:href="#ArialMT-70" x="66.699219"/>
      <use xlink:href="#ArialMT-6f" x="122.314453"/>
      <use xlink:href="#ArialMT-63" x="177.929688"/>
      <use xlink:href="#ArialMT-68" x="227.929688"/>
     </g>
    </g>
   </g>
   <g id="matplotlib.axis_2">
    <g id="ytick_1">
     <g id="line2d_10">
      <path d="M 83.052 291.595374 
L 704.448 291.595374 
" clip-path="url(#p727c2d2f9f)" style="fill: none; stroke: #cccccc; stroke-linecap: round"/>
     </g>
     <g id="text_11">
      <!-- 0.0175 -->
      <g style="fill: #262626" transform="translate(33.182688 296.319531) scale(0.132 -0.132)">
       <defs>
        <path id="ArialMT-2e" d="M 581 0 
L 581 641 
L 1222 641 
L 1222 0 
L 581 0 
z
" transform="scale(0.015625)"/>
       </defs>
       <use xlink:href="#ArialMT-30"/>
       <use xlink:href="#ArialMT-2e" x="55.615234"/>
       <use xlink:href="#ArialMT-30" x="83.398438"/>
       <use xlink:href="#ArialMT-31" x="139.013672"/>
       <use xlink:href="#ArialMT-37" x="194.628906"/>
       <use xlink:href="#ArialMT-35" x="250.244141"/>
      </g>
     </g>
    </g>
    <g id="ytick_2">
     <g id="line2d_11">
      <path d="M 83.052 260.212802 
L 704.448 260.212802 
" clip-path="url(#p727c2d2f9f)" style="fill: none; stroke: #cccccc; stroke-linecap: round"/>
     </g>
     <g id="text_12">
      <!-- 0.0200 -->
      <g style="fill: #262626" transform="translate(33.182688 264.936959) scale(0.132 -0.132)">
       <use xlink:href="#ArialMT-30"/>
       <use xlink:href="#ArialMT-2e" x="55.615234"/>
       <use xlink:href="#ArialMT-30" x="83.398438"/>
       <use xlink:href="#ArialMT-32" x="139.013672"/>
       <use xlink:href="#ArialMT-30" x="194.628906"/>
       <use xlink:href="#ArialMT-30" x="250.244141"/>
      </g>
     </g>
    </g>
    <g id="ytick_3">
     <g id="line2d_12">
      <path d="M 83.052 228.830231 
L 704.448 228.830231 
" clip-path="url(#p727c2d2f9f)" style="fill: none; stroke: #cccccc; stroke-linecap: round"/>
     </g>
     <g id="text_13">
      <!-- 0.0225 -->
      <g style="fill: #262626" transform="translate(33.182688 233.554387) scale(0.132 -0.132)">
       <use xlink:href="#ArialMT-30"/>
       <use xlink:href="#ArialMT-2e" x="55.615234"/>
       <use xlink:href="#ArialMT-30" x="83.398438"/>
       <use xlink:href="#ArialMT-32" x="139.013672"/>
       <use xlink:href="#ArialMT-32" x="194.628906"/>
       <use xlink:href="#ArialMT-35" x="250.244141"/>
      </g>
     </g>
    </g>
    <g id="ytick_4">
     <g id="line2d_13">
      <path d="M 83.052 197.447659 
L 704.448 197.447659 
" clip-path="url(#p727c2d2f9f)" style="fill: none; stroke: #cccccc; stroke-linecap: round"/>
     </g>
     <g id="text_14">
      <!-- 0.0250 -->
      <g style="fill: #262626" transform="translate(33.182688 202.171815) scale(0.132 -0.132)">
       <use xlink:href="#ArialMT-30"/>
       <use xlink:href="#ArialMT-2e" x="55.615234"/>
       <use xlink:href="#ArialMT-30" x="83.398438"/>
       <use xlink:href="#ArialMT-32" x="139.013672"/>
       <use xlink:href="#ArialMT-35" x="194.628906"/>
       <use xlink:href="#ArialMT-30" x="250.244141"/>
      </g>
     </g>
    </g>
    <g id="ytick_5">
     <g id="line2d_14">
      <path d="M 83.052 166.065087 
L 704.448 166.065087 
" clip-path="url(#p727c2d2f9f)" style="fill: none; stroke: #cccccc; stroke-linecap: round"/>
     </g>
     <g id="text_15">
      <!-- 0.0275 -->
      <g style="fill: #262626" transform="translate(33.182688 170.789243) scale(0.132 -0.132)">
       <use xlink:href="#ArialMT-30"/>
       <use xlink:href="#ArialMT-2e" x="55.615234"/>
       <use xlink:href="#ArialMT-30" x="83.398438"/>
       <use xlink:href="#ArialMT-32" x="139.013672"/>
       <use xlink:href="#ArialMT-37" x="194.628906"/>
       <use xlink:href="#ArialMT-35" x="250.244141"/>
      </g>
     </g>
    </g>
    <g id="ytick_6">
     <g id="line2d_15">
      <path d="M 83.052 134.682515 
L 704.448 134.682515 
" clip-path="url(#p727c2d2f9f)" style="fill: none; stroke: #cccccc; stroke-linecap: round"/>
     </g>
     <g id="text_16">
      <!-- 0.0300 -->
      <g style="fill: #262626" transform="translate(33.182688 139.406671) scale(0.132 -0.132)">
       <defs>
        <path id="ArialMT-33" d="M 269 1209 
L 831 1284 
Q 928 806 1161 595 
Q 1394 384 1728 384 
Q 2125 384 2398 659 
Q 2672 934 2672 1341 
Q 2672 1728 2419 1979 
Q 2166 2231 1775 2231 
Q 1616 2231 1378 2169 
L 1441 2663 
Q 1497 2656 1531 2656 
Q 1891 2656 2178 2843 
Q 2466 3031 2466 3422 
Q 2466 3731 2256 3934 
Q 2047 4138 1716 4138 
Q 1388 4138 1169 3931 
Q 950 3725 888 3313 
L 325 3413 
Q 428 3978 793 4289 
Q 1159 4600 1703 4600 
Q 2078 4600 2393 4439 
Q 2709 4278 2876 4000 
Q 3044 3722 3044 3409 
Q 3044 3113 2884 2869 
Q 2725 2625 2413 2481 
Q 2819 2388 3044 2092 
Q 3269 1797 3269 1353 
Q 3269 753 2831 336 
Q 2394 -81 1725 -81 
Q 1122 -81 723 278 
Q 325 638 269 1209 
z
" transform="scale(0.015625)"/>
       </defs>
       <use xlink:href="#ArialMT-30"/>
       <use xlink:href="#ArialMT-2e" x="55.615234"/>
       <use xlink:href="#ArialMT-30" x="83.398438"/>
       <use xlink:href="#ArialMT-33" x="139.013672"/>
       <use xlink:href="#ArialMT-30" x="194.628906"/>
       <use xlink:href="#ArialMT-30" x="250.244141"/>
      </g>
     </g>
    </g>
    <g id="ytick_7">
     <g id="line2d_16">
      <path d="M 83.052 103.299943 
L 704.448 103.299943 
" clip-path="url(#p727c2d2f9f)" style="fill: none; stroke: #cccccc; stroke-linecap: round"/>
     </g>
     <g id="text_17">
      <!-- 0.0325 -->
      <g style="fill: #262626" transform="translate(33.182688 108.024099) scale(0.132 -0.132)">
       <use xlink:href="#ArialMT-30"/>
       <use xlink:href="#ArialMT-2e" x="55.615234"/>
       <use xlink:href="#ArialMT-30" x="83.398438"/>
       <use xlink:href="#ArialMT-33" x="139.013672"/>
       <use xlink:href="#ArialMT-32" x="194.628906"/>
       <use xlink:href="#ArialMT-35" x="250.244141"/>
      </g>
     </g>
    </g>
    <g id="ytick_8">
     <g id="line2d_17">
      <path d="M 83.052 71.917371 
L 704.448 71.917371 
" clip-path="url(#p727c2d2f9f)" style="fill: none; stroke: #cccccc; stroke-linecap: round"/>
     </g>
     <g id="text_18">
      <!-- 0.0350 -->
      <g style="fill: #262626" transform="translate(33.182688 76.641527) scale(0.132 -0.132)">
       <use xlink:href="#ArialMT-30"/>
       <use xlink:href="#ArialMT-2e" x="55.615234"/>
       <use xlink:href="#ArialMT-30" x="83.398438"/>
       <use xlink:href="#ArialMT-33" x="139.013672"/>
       <use xlink:href="#ArialMT-35" x="194.628906"/>
       <use xlink:href="#ArialMT-30" x="250.244141"/>
      </g>
     </g>
    </g>
    <g id="ytick_9">
     <g id="line2d_18">
      <path d="M 83.052 40.534799 
L 704.448 40.534799 
" clip-path="url(#p727c2d2f9f)" style="fill: none; stroke: #cccccc; stroke-linecap: round"/>
     </g>
     <g id="text_19">
      <!-- 0.0375 -->
      <g style="fill: #262626" transform="translate(33.182688 45.258955) scale(0.132 -0.132)">
       <use xlink:href="#ArialMT-30"/>
       <use xlink:href="#ArialMT-2e" x="55.615234"/>
       <use xlink:href="#ArialMT-30" x="83.398438"/>
       <use xlink:href="#ArialMT-33" x="139.013672"/>
       <use xlink:href="#ArialMT-37" x="194.628906"/>
       <use xlink:href="#ArialMT-35" x="250.244141"/>
      </g>
     </g>
    </g>
    <g id="text_20">
     <!-- Reconstruction Loss (LossG_recon) -->
     <g style="fill: #262626" transform="translate(26.151938 283.1745) rotate(-90) scale(0.144 -0.144)">
      <defs>
       <path id="ArialMT-52" d="M 503 0 
L 503 4581 
L 2534 4581 
Q 3147 4581 3465 4457 
Q 3784 4334 3975 4021 
Q 4166 3709 4166 3331 
Q 4166 2844 3850 2509 
Q 3534 2175 2875 2084 
Q 3116 1969 3241 1856 
Q 3506 1613 3744 1247 
L 4541 0 
L 3778 0 
L 3172 953 
Q 2906 1366 2734 1584 
Q 2563 1803 2427 1890 
Q 2291 1978 2150 2013 
Q 2047 2034 1813 2034 
L 1109 2034 
L 1109 0 
L 503 0 
z
M 1109 2559 
L 2413 2559 
Q 2828 2559 3062 2645 
Q 3297 2731 3419 2920 
Q 3541 3109 3541 3331 
Q 3541 3656 3305 3865 
Q 3069 4075 2559 4075 
L 1109 4075 
L 1109 2559 
z
" transform="scale(0.015625)"/>
       <path id="ArialMT-65" d="M 2694 1069 
L 3275 997 
Q 3138 488 2766 206 
Q 2394 -75 1816 -75 
Q 1088 -75 661 373 
Q 234 822 234 1631 
Q 234 2469 665 2931 
Q 1097 3394 1784 3394 
Q 2450 3394 2872 2941 
Q 3294 2488 3294 1666 
Q 3294 1616 3291 1516 
L 816 1516 
Q 847 969 1125 678 
Q 1403 388 1819 388 
Q 2128 388 2347 550 
Q 2566 713 2694 1069 
z
M 847 1978 
L 2700 1978 
Q 2663 2397 2488 2606 
Q 2219 2931 1791 2931 
Q 1403 2931 1139 2672 
Q 875 2413 847 1978 
z
" transform="scale(0.015625)"/>
       <path id="ArialMT-6e" d="M 422 0 
L 422 3319 
L 928 3319 
L 928 2847 
Q 1294 3394 1984 3394 
Q 2284 3394 2536 3286 
Q 2788 3178 2913 3003 
Q 3038 2828 3088 2588 
Q 3119 2431 3119 2041 
L 3119 0 
L 2556 0 
L 2556 2019 
Q 2556 2363 2490 2533 
Q 2425 2703 2258 2804 
Q 2091 2906 1866 2906 
Q 1506 2906 1245 2678 
Q 984 2450 984 1813 
L 984 0 
L 422 0 
z
" transform="scale(0.015625)"/>
       <path id="ArialMT-73" d="M 197 991 
L 753 1078 
Q 800 744 1014 566 
Q 1228 388 1613 388 
Q 2000 388 2187 545 
Q 2375 703 2375 916 
Q 2375 1106 2209 1216 
Q 2094 1291 1634 1406 
Q 1016 1563 777 1677 
Q 538 1791 414 1992 
Q 291 2194 291 2438 
Q 291 2659 392 2848 
Q 494 3038 669 3163 
Q 800 3259 1026 3326 
Q 1253 3394 1513 3394 
Q 1903 3394 2198 3281 
Q 2494 3169 2634 2976 
Q 2775 2784 2828 2463 
L 2278 2388 
Q 2241 2644 2061 2787 
Q 1881 2931 1553 2931 
Q 1166 2931 1000 2803 
Q 834 2675 834 2503 
Q 834 2394 903 2306 
Q 972 2216 1119 2156 
Q 1203 2125 1616 2013 
Q 2213 1853 2448 1751 
Q 2684 1650 2818 1456 
Q 2953 1263 2953 975 
Q 2953 694 2789 445 
Q 2625 197 2315 61 
Q 2006 -75 1616 -75 
Q 969 -75 630 194 
Q 291 463 197 991 
z
" transform="scale(0.015625)"/>
       <path id="ArialMT-74" d="M 1650 503 
L 1731 6 
Q 1494 -44 1306 -44 
Q 1000 -44 831 53 
Q 663 150 594 308 
Q 525 466 525 972 
L 525 2881 
L 113 2881 
L 113 3319 
L 525 3319 
L 525 4141 
L 1084 4478 
L 1084 3319 
L 1650 3319 
L 1650 2881 
L 1084 2881 
L 1084 941 
Q 1084 700 1114 631 
Q 1144 563 1211 522 
Q 1278 481 1403 481 
Q 1497 481 1650 503 
z
" transform="scale(0.015625)"/>
       <path id="ArialMT-72" d="M 416 0 
L 416 3319 
L 922 3319 
L 922 2816 
Q 1116 3169 1280 3281 
Q 1444 3394 1641 3394 
Q 1925 3394 2219 3213 
L 2025 2691 
Q 1819 2813 1613 2813 
Q 1428 2813 1281 2702 
Q 1134 2591 1072 2394 
Q 978 2094 978 1738 
L 978 0 
L 416 0 
z
" transform="scale(0.015625)"/>
       <path id="ArialMT-75" d="M 2597 0 
L 2597 488 
Q 2209 -75 1544 -75 
Q 1250 -75 995 37 
Q 741 150 617 320 
Q 494 491 444 738 
Q 409 903 409 1263 
L 409 3319 
L 972 3319 
L 972 1478 
Q 972 1038 1006 884 
Q 1059 663 1231 536 
Q 1403 409 1656 409 
Q 1909 409 2131 539 
Q 2353 669 2445 892 
Q 2538 1116 2538 1541 
L 2538 3319 
L 3100 3319 
L 3100 0 
L 2597 0 
z
" transform="scale(0.015625)"/>
       <path id="ArialMT-69" d="M 425 3934 
L 425 4581 
L 988 4581 
L 988 3934 
L 425 3934 
z
M 425 0 
L 425 3319 
L 988 3319 
L 988 0 
L 425 0 
z
" transform="scale(0.015625)"/>
       <path id="ArialMT-20" transform="scale(0.015625)"/>
       <path id="ArialMT-4c" d="M 469 0 
L 469 4581 
L 1075 4581 
L 1075 541 
L 3331 541 
L 3331 0 
L 469 0 
z
" transform="scale(0.015625)"/>
       <path id="ArialMT-28" d="M 1497 -1347 
Q 1031 -759 709 28 
Q 388 816 388 1659 
Q 388 2403 628 3084 
Q 909 3875 1497 4659 
L 1900 4659 
Q 1522 4009 1400 3731 
Q 1209 3300 1100 2831 
Q 966 2247 966 1656 
Q 966 153 1900 -1347 
L 1497 -1347 
z
" transform="scale(0.015625)"/>
       <path id="ArialMT-47" d="M 2638 1797 
L 2638 2334 
L 4578 2338 
L 4578 638 
Q 4131 281 3656 101 
Q 3181 -78 2681 -78 
Q 2006 -78 1454 211 
Q 903 500 622 1047 
Q 341 1594 341 2269 
Q 341 2938 620 3517 
Q 900 4097 1425 4378 
Q 1950 4659 2634 4659 
Q 3131 4659 3532 4498 
Q 3934 4338 4162 4050 
Q 4391 3763 4509 3300 
L 3963 3150 
Q 3859 3500 3706 3700 
Q 3553 3900 3268 4020 
Q 2984 4141 2638 4141 
Q 2222 4141 1919 4014 
Q 1616 3888 1430 3681 
Q 1244 3475 1141 3228 
Q 966 2803 966 2306 
Q 966 1694 1177 1281 
Q 1388 869 1791 669 
Q 2194 469 2647 469 
Q 3041 469 3416 620 
Q 3791 772 3984 944 
L 3984 1797 
L 2638 1797 
z
" transform="scale(0.015625)"/>
       <path id="ArialMT-5f" d="M -97 -1272 
L -97 -866 
L 3631 -866 
L 3631 -1272 
L -97 -1272 
z
" transform="scale(0.015625)"/>
       <path id="ArialMT-29" d="M 791 -1347 
L 388 -1347 
Q 1322 153 1322 1656 
Q 1322 2244 1188 2822 
Q 1081 3291 891 3722 
Q 769 4003 388 4659 
L 791 4659 
Q 1378 3875 1659 3084 
Q 1900 2403 1900 1659 
Q 1900 816 1576 28 
Q 1253 -759 791 -1347 
z
" transform="scale(0.015625)"/>
      </defs>
      <use xlink:href="#ArialMT-52"/>
      <use xlink:href="#ArialMT-65" x="72.216797"/>
      <use xlink:href="#ArialMT-63" x="127.832031"/>
      <use xlink:href="#ArialMT-6f" x="177.832031"/>
      <use xlink:href="#ArialMT-6e" x="233.447266"/>
      <use xlink:href="#ArialMT-73" x="289.0625"/>
      <use xlink:href="#ArialMT-74" x="339.0625"/>
      <use xlink:href="#ArialMT-72" x="366.845703"/>
      <use xlink:href="#ArialMT-75" x="400.146484"/>
      <use xlink:href="#ArialMT-63" x="455.761719"/>
      <use xlink:href="#ArialMT-74" x="505.761719"/>
      <use xlink:href="#ArialMT-69" x="533.544922"/>
      <use xlink:href="#ArialMT-6f" x="555.761719"/>
      <use xlink:href="#ArialMT-6e" x="611.376953"/>
      <use xlink:href="#ArialMT-20" x="666.992188"/>
      <use xlink:href="#ArialMT-4c" x="694.775391"/>
      <use xlink:href="#ArialMT-6f" x="750.390625"/>
      <use xlink:href="#ArialMT-73" x="806.005859"/>
      <use xlink:href="#ArialMT-73" x="856.005859"/>
      <use xlink:href="#ArialMT-20" x="906.005859"/>
      <use xlink:href="#ArialMT-28" x="933.789062"/>
      <use xlink:href="#ArialMT-4c" x="967.089844"/>
      <use xlink:href="#ArialMT-6f" x="1022.705078"/>
      <use xlink:href="#ArialMT-73" x="1078.320312"/>
      <use xlink:href="#ArialMT-73" x="1128.320312"/>
      <use xlink:href="#ArialMT-47" x="1178.320312"/>
      <use xlink:href="#ArialMT-5f" x="1256.103516"/>
      <use xlink:href="#ArialMT-72" x="1311.71875"/>
      <use xlink:href="#ArialMT-65" x="1345.019531"/>
      <use xlink:href="#ArialMT-63" x="1400.634766"/>
      <use xlink:href="#ArialMT-6f" x="1450.634766"/>
      <use xlink:href="#ArialMT-6e" x="1506.25"/>
      <use xlink:href="#ArialMT-29" x="1561.865234"/>
     </g>
    </g>
   </g>
   <g id="PolyCollection_1"/>
   <g id="line2d_19">
    <path d="M 111.297273 44.713636 
L 114.135994 150.097965 
L 116.974714 162.482518 
L 119.813435 177.444572 
L 122.652156 187.178951 
L 125.490877 194.904019 
L 128.329598 199.719592 
L 131.168319 203.294727 
L 134.00704 211.331143 
L 136.845761 212.095061 
L 139.684481 218.195668 
L 142.523202 217.757964 
L 145.361923 222.655297 
L 148.200644 225.645725 
L 151.039365 223.600903 
L 153.878086 230.858536 
L 156.716807 227.09015 
L 159.555528 228.947502 
L 162.394249 224.008051 
L 165.232969 225.345113 
L 168.07169 225.846409 
L 170.910411 231.842957 
L 173.749132 231.385433 
L 176.587853 234.428716 
L 179.426574 238.848704 
L 182.265295 236.528871 
L 185.104016 238.5324 
L 187.942736 237.775915 
L 190.781457 243.061401 
L 193.620178 239.657218 
L 196.458899 218.599512 
L 199.29762 240.8448 
L 202.136341 240.523542 
L 204.975062 241.421249 
L 207.813783 242.821902 
L 210.652503 243.662625 
L 213.491224 243.603989 
L 216.329945 245.519978 
L 219.168666 244.586759 
L 222.007387 254.23806 
L 224.846108 247.052074 
L 227.684829 250.891353 
L 230.52355 248.313853 
L 233.36227 246.026228 
L 236.200991 253.444077 
L 239.039712 253.24009 
L 241.878433 252.360553 
L 244.717154 254.606884 
L 247.555875 249.810415 
L 250.394596 255.878704 
L 253.233317 252.837072 
L 256.072037 247.852198 
L 258.910758 249.828475 
L 261.749479 251.147188 
L 264.5882 257.725321 
L 267.426921 258.279471 
L 270.265642 256.088472 
L 273.104363 261.42929 
L 275.943084 273.196929 
L 278.781804 266.120159 
L 281.620525 263.588906 
L 284.459246 264.002661 
L 287.297967 258.242307 
L 290.136688 263.203231 
L 292.975409 263.820972 
L 295.81413 263.138814 
L 298.652851 254.341784 
L 301.491571 262.682673 
L 304.330292 261.632451 
L 307.169013 261.717492 
L 310.007734 265.289713 
L 312.846455 263.980374 
L 315.685176 267.303185 
L 318.523897 263.555872 
L 321.362618 265.352937 
L 324.201339 266.956752 
L 327.040059 270.039677 
L 329.87878 266.491811 
L 332.717501 269.264197 
L 335.556222 268.915685 
L 338.394943 270.892787 
L 341.233664 270.439392 
L 344.072385 269.828257 
L 346.911106 274.153271 
L 349.749826 283.694399 
L 352.588547 279.21495 
L 358.265989 273.960021 
L 361.10471 273.905514 
L 363.943431 277.90514 
L 366.782152 266.395169 
L 369.620873 275.714141 
L 372.459593 270.173466 
L 375.298314 267.949432 
L 378.137035 274.253074 
L 380.975756 276.729946 
L 386.653198 270.87627 
L 389.491919 275.508503 
L 392.33064 276.135328 
L 395.16936 277.20151 
L 400.846802 276.087429 
L 403.685523 284.18574 
L 406.524244 289.955222 
L 409.362965 284.285713 
L 412.201686 286.337235 
L 415.040407 278.005895 
L 417.879127 279.153836 
L 420.717848 281.439891 
L 423.556569 279.255417 
L 426.39529 278.193364 
L 429.234011 271.099853 
L 432.072732 287.428925 
L 434.911453 279.804612 
L 437.750174 282.089758 
L 440.588894 281.018622 
L 443.427615 288.112735 
L 446.266336 286.206656 
L 449.105057 274.204026 
L 451.943778 278.546831 
L 454.782499 277.941478 
L 457.62122 275.930516 
L 460.459941 283.380207 
L 463.298661 277.860544 
L 466.137382 280.267092 
L 468.976103 277.624103 
L 471.814824 286.415598 
L 474.653545 273.87248 
L 477.492266 283.612639 
L 480.330987 277.981119 
L 483.169708 279.362866 
L 486.008429 274.842036 
L 488.847149 281.465662 
L 491.68587 282.116591 
L 494.524591 276.307933 
L 497.363312 277.99681 
L 500.202033 284.835734 
L 503.040754 281.801534 
L 505.879475 278.412217 
L 508.718196 283.089872 
L 511.556916 272.722887 
L 514.395637 279.243855 
L 517.234358 280.152998 
L 520.073079 282.016257 
L 522.9118 276.091558 
L 525.750521 278.465405 
L 528.589242 284.327006 
L 531.427963 277.4088 
L 534.266683 279.332221 
L 537.105404 282.246671 
L 539.944125 278.605068 
L 542.782846 283.50158 
L 545.621567 280.439696 
L 548.460288 278.947574 
L 551.299009 281.968357 
L 554.13773 279.787269 
L 556.97645 283.071703 
L 559.815171 284.303882 
L 562.653892 284.076771 
L 565.492613 282.235109 
L 568.331334 283.264127 
L 571.170055 283.529228 
L 574.008776 286.337968 
L 576.847497 284.535122 
L 579.686217 289.676082 
L 582.524938 282.747141 
L 585.363659 277.796953 
L 588.20238 275.982545 
L 591.041101 284.319573 
L 593.879822 285.036417 
L 596.718543 283.672101 
L 599.557264 281.348139 
L 602.395984 281.159017 
L 605.234705 286.605545 
L 608.073426 282.846244 
L 610.912147 282.939566 
L 613.750868 280.743611 
L 616.589589 282.933785 
L 619.42831 289.075684 
L 622.267031 281.751983 
L 627.944472 291.946364 
L 630.783193 286.872297 
L 633.621914 286.567556 
L 636.460635 284.940617 
L 639.299356 286.434593 
L 642.138077 288.742262 
L 644.976798 285.306472 
L 647.815519 287.618872 
L 650.654239 289.629008 
L 653.49296 280.085403 
L 656.331681 284.444277 
L 659.170402 289.050908 
L 662.009123 284.579718 
L 664.847844 289.492742 
L 667.686565 285.608993 
L 670.525286 288.213489 
L 673.364006 283.310375 
L 676.202727 282.873497 
L 676.202727 282.873497 
" clip-path="url(#p727c2d2f9f)" style="fill: none; stroke: #4c72b0; stroke-width: 2; stroke-linecap: round"/>
   </g>
   <g id="patch_3">
    <path d="M 83.052 304.308 
L 83.052 32.352 
" style="fill: none; stroke: #cccccc; stroke-width: 1.25; stroke-linejoin: miter; stroke-linecap: square"/>
   </g>
   <g id="patch_4">
    <path d="M 704.448 304.308 
L 704.448 32.352 
" style="fill: none; stroke: #cccccc; stroke-width: 1.25; stroke-linejoin: miter; stroke-linecap: square"/>
   </g>
   <g id="patch_5">
    <path d="M 83.052 304.308 
L 704.448 304.308 
" style="fill: none; stroke: #cccccc; stroke-width: 1.25; stroke-linejoin: miter; stroke-linecap: square"/>
   </g>
   <g id="patch_6">
    <path d="M 83.052 32.352 
L 704.448 32.352 
" style="fill: none; stroke: #cccccc; stroke-width: 1.25; stroke-linejoin: miter; stroke-linecap: square"/>
   </g>
   <g id="text_21">
    <!-- Reconstruction Loss (LossG_recon) vs Epoch -->
    <g style="fill: #262626" transform="translate(247.29075 26.352) scale(0.144 -0.144)">
     <defs>
      <path id="ArialMT-76" d="M 1344 0 
L 81 3319 
L 675 3319 
L 1388 1331 
Q 1503 1009 1600 663 
Q 1675 925 1809 1294 
L 2547 3319 
L 3125 3319 
L 1869 0 
L 1344 0 
z
" transform="scale(0.015625)"/>
     </defs>
     <use xlink:href="#ArialMT-52"/>
     <use xlink:href="#ArialMT-65" x="72.216797"/>
     <use xlink:href="#ArialMT-63" x="127.832031"/>
     <use xlink:href="#ArialMT-6f" x="177.832031"/>
     <use xlink:href="#ArialMT-6e" x="233.447266"/>
     <use xlink:href="#ArialMT-73" x="289.0625"/>
     <use xlink:href="#ArialMT-74" x="339.0625"/>
     <use xlink:href="#ArialMT-72" x="366.845703"/>
     <use xlink:href="#ArialMT-75" x="400.146484"/>
     <use xlink:href="#ArialMT-63" x="455.761719"/>
     <use xlink:href="#ArialMT-74" x="505.761719"/>
     <use xlink:href="#ArialMT-69" x="533.544922"/>
     <use xlink:href="#ArialMT-6f" x="555.761719"/>
     <use xlink:href="#ArialMT-6e" x="611.376953"/>
     <use xlink:href="#ArialMT-20" x="666.992188"/>
     <use xlink:href="#ArialMT-4c" x="694.775391"/>
     <use xlink:href="#ArialMT-6f" x="750.390625"/>
     <use xlink:href="#ArialMT-73" x="806.005859"/>
     <use xlink:href="#ArialMT-73" x="856.005859"/>
     <use xlink:href="#ArialMT-20" x="906.005859"/>
     <use xlink:href="#ArialMT-28" x="933.789062"/>
     <use xlink:href="#ArialMT-4c" x="967.089844"/>
     <use xlink:href="#ArialMT-6f" x="1022.705078"/>
     <use xlink:href="#ArialMT-73" x="1078.320312"/>
     <use xlink:href="#ArialMT-73" x="1128.320312"/>
     <use xlink:href="#ArialMT-47" x="1178.320312"/>
     <use xlink:href="#ArialMT-5f" x="1256.103516"/>
     <use xlink:href="#ArialMT-72" x="1311.71875"/>
     <use xlink:href="#ArialMT-65" x="1345.019531"/>
     <use xlink:href="#ArialMT-63" x="1400.634766"/>
     <use xlink:href="#ArialMT-6f" x="1450.634766"/>
     <use xlink:href="#ArialMT-6e" x="1506.25"/>
     <use xlink:href="#ArialMT-29" x="1561.865234"/>
     <use xlink:href="#ArialMT-20" x="1595.166016"/>
     <use xlink:href="#ArialMT-76" x="1622.949219"/>
     <use xlink:href="#ArialMT-73" x="1672.949219"/>
     <use xlink:href="#ArialMT-20" x="1722.949219"/>
     <use xlink:href="#ArialMT-45" x="1750.732422"/>
     <use xlink:href="#ArialMT-70" x="1817.431641"/>
     <use xlink:href="#ArialMT-6f" x="1873.046875"/>
     <use xlink:href="#ArialMT-63" x="1928.662109"/>
     <use xlink:href="#ArialMT-68" x="1978.662109"/>
    </g>
   </g>
  </g>
 </g>
 <defs>
  <clipPath id="p727c2d2f9f">
   <rect x="83.052" y="32.352" width="621.396" height="271.956"/>
  </clipPath>
 </defs>
</svg>
