<?xml version="1.0" encoding="utf-8" standalone="no"?>
<!DOCTYPE svg PUBLIC "-//W3C//DTD SVG 1.1//EN"
  "http://www.w3.org/Graphics/SVG/1.1/DTD/svg11.dtd">
<svg xmlns:xlink="http://www.w3.org/1999/xlink" width="1008pt" height="504pt" viewBox="0 0 1008 504" xmlns="http://www.w3.org/2000/svg" version="1.1">
 <metadata>
  <rdf:RDF xmlns:dc="http://purl.org/dc/elements/1.1/" xmlns:cc="http://creativecommons.org/ns#" xmlns:rdf="http://www.w3.org/1999/02/22-rdf-syntax-ns#">
   <cc:Work>
    <dc:type rdf:resource="http://purl.org/dc/dcmitype/StillImage"/>
    <dc:date>2025-04-24T12:24:16.482888</dc:date>
    <dc:format>image/svg+xml</dc:format>
    <dc:creator>
     <cc:Agent>
      <dc:title>Matplotlib v3.9.2, https://matplotlib.org/</dc:title>
     </cc:Agent>
    </dc:creator>
   </cc:Work>
  </rdf:RDF>
 </metadata>
 <defs>
  <style type="text/css">*{stroke-linejoin: round; stroke-linecap: butt}</style>
 </defs>
 <g id="figure_1">
  <g id="patch_1">
   <path d="M 0 504 
L 1008 504 
L 1008 0 
L 0 0 
z
" style="fill: #ffffff"/>
  </g>
  <g id="axes_1">
   <g id="patch_2">
    <path d="M 86.740351 423.840956 
L 982.08 423.840956 
L 982.08 49.831226 
L 86.740351 49.831226 
z
" style="fill: #ffffff"/>
   </g>
   <g id="matplotlib.axis_1">
    <g id="xtick_1">
     <g id="line2d_1">
      <path d="M 123.347432 423.840956 
L 123.347432 49.831226 
" clip-path="url(#pb1d4d899ab)" style="fill: none; stroke: #cccccc; stroke-linecap: round"/>
     </g>
     <g id="text_1">
      <!-- $\mathdefault{0}$ -->
      <g style="fill: #262626" transform="translate(118.321479 448.56165) scale(0.22 -0.22)">
       <defs>
        <path id="CMR17-30" d="M 2688 2025 
C 2688 2416 2682 3080 2413 3591 
C 2176 4039 1798 4198 1466 4198 
C 1158 4198 768 4058 525 3597 
C 269 3118 243 2524 243 2025 
C 243 1661 250 1106 448 619 
C 723 -39 1216 -128 1466 -128 
C 1760 -128 2208 -7 2470 600 
C 2662 1042 2688 1559 2688 2025 
z
M 1466 -26 
C 1056 -26 813 325 723 812 
C 653 1188 653 1738 653 2096 
C 653 2588 653 2997 736 3387 
C 858 3929 1216 4096 1466 4096 
C 1728 4096 2067 3923 2189 3400 
C 2272 3036 2278 2607 2278 2096 
C 2278 1680 2278 1169 2202 792 
C 2067 95 1690 -26 1466 -26 
z
" transform="scale(0.015625)"/>
       </defs>
       <use xlink:href="#CMR17-30" transform="scale(0.996264)"/>
      </g>
     </g>
    </g>
    <g id="xtick_2">
     <g id="line2d_2">
      <path d="M 225.601846 423.840956 
L 225.601846 49.831226 
" clip-path="url(#pb1d4d899ab)" style="fill: none; stroke: #cccccc; stroke-linecap: round"/>
     </g>
     <g id="text_2">
      <!-- $\mathdefault{25}$ -->
      <g style="fill: #262626" transform="translate(215.549941 448.56165) scale(0.22 -0.22)">
       <defs>
        <path id="CMR17-32" d="M 2669 989 
L 2554 989 
C 2490 536 2438 459 2413 420 
C 2381 369 1920 369 1830 369 
L 602 369 
C 832 619 1280 1072 1824 1597 
C 2214 1967 2669 2402 2669 3035 
C 2669 3790 2067 4224 1395 4224 
C 691 4224 262 3604 262 3030 
C 262 2780 448 2748 525 2748 
C 589 2748 781 2787 781 3010 
C 781 3207 614 3264 525 3264 
C 486 3264 448 3258 422 3245 
C 544 3790 915 4058 1306 4058 
C 1862 4058 2227 3617 2227 3035 
C 2227 2479 1901 2000 1536 1584 
L 262 146 
L 262 0 
L 2515 0 
L 2669 989 
z
" transform="scale(0.015625)"/>
        <path id="CMR17-35" d="M 730 3692 
C 794 3666 1056 3584 1325 3584 
C 1920 3584 2246 3911 2432 4100 
C 2432 4157 2432 4192 2394 4192 
C 2387 4192 2374 4192 2323 4163 
C 2099 4058 1837 3973 1517 3973 
C 1325 3973 1037 3999 723 4139 
C 653 4171 640 4171 634 4171 
C 602 4171 595 4164 595 4037 
L 595 2203 
C 595 2089 595 2057 659 2057 
C 691 2057 704 2070 736 2114 
C 941 2401 1222 2522 1542 2522 
C 1766 2522 2246 2382 2246 1289 
C 2246 1085 2246 715 2054 421 
C 1894 159 1645 25 1370 25 
C 947 25 518 320 403 814 
C 429 807 480 795 506 795 
C 589 795 749 840 749 1038 
C 749 1210 627 1280 506 1280 
C 358 1280 262 1190 262 1011 
C 262 454 704 -128 1382 -128 
C 2042 -128 2669 440 2669 1264 
C 2669 2030 2170 2624 1549 2624 
C 1222 2624 947 2503 730 2274 
L 730 3692 
z
" transform="scale(0.015625)"/>
       </defs>
       <use xlink:href="#CMR17-32" transform="scale(0.996264)"/>
       <use xlink:href="#CMR17-35" transform="translate(45.690477 0) scale(0.996264)"/>
      </g>
     </g>
    </g>
    <g id="xtick_3">
     <g id="line2d_3">
      <path d="M 327.85626 423.840956 
L 327.85626 49.831226 
" clip-path="url(#pb1d4d899ab)" style="fill: none; stroke: #cccccc; stroke-linecap: round"/>
     </g>
     <g id="text_3">
      <!-- $\mathdefault{50}$ -->
      <g style="fill: #262626" transform="translate(317.804355 448.56165) scale(0.22 -0.22)">
       <use xlink:href="#CMR17-35" transform="scale(0.996264)"/>
       <use xlink:href="#CMR17-30" transform="translate(45.690477 0) scale(0.996264)"/>
      </g>
     </g>
    </g>
    <g id="xtick_4">
     <g id="line2d_4">
      <path d="M 430.110673 423.840956 
L 430.110673 49.831226 
" clip-path="url(#pb1d4d899ab)" style="fill: none; stroke: #cccccc; stroke-linecap: round"/>
     </g>
     <g id="text_4">
      <!-- $\mathdefault{75}$ -->
      <g style="fill: #262626" transform="translate(420.058769 448.56165) scale(0.22 -0.22)">
       <defs>
        <path id="CMR17-37" d="M 2886 3941 
L 2886 4081 
L 1382 4081 
C 634 4081 621 4165 595 4288 
L 480 4288 
L 294 3094 
L 410 3094 
C 429 3215 474 3540 550 3661 
C 589 3712 1062 3712 1171 3712 
L 2579 3712 
L 1869 2661 
C 1395 1954 1069 999 1069 165 
C 1069 89 1069 -128 1299 -128 
C 1530 -128 1530 89 1530 171 
L 1530 465 
C 1530 1508 1709 2196 2003 2636 
L 2886 3941 
z
" transform="scale(0.015625)"/>
       </defs>
       <use xlink:href="#CMR17-37" transform="scale(0.996264)"/>
       <use xlink:href="#CMR17-35" transform="translate(45.690477 0) scale(0.996264)"/>
      </g>
     </g>
    </g>
    <g id="xtick_5">
     <g id="line2d_5">
      <path d="M 532.365087 423.840956 
L 532.365087 49.831226 
" clip-path="url(#pb1d4d899ab)" style="fill: none; stroke: #cccccc; stroke-linecap: round"/>
     </g>
     <g id="text_5">
      <!-- $\mathdefault{100}$ -->
      <g style="fill: #262626" transform="translate(517.28723 448.56165) scale(0.22 -0.22)">
       <defs>
        <path id="CMR17-31" d="M 1702 4058 
C 1702 4192 1696 4192 1606 4192 
C 1357 3916 979 3827 621 3827 
C 602 3827 570 3827 563 3808 
C 557 3795 557 3782 557 3648 
C 755 3648 1088 3686 1344 3839 
L 1344 461 
C 1344 236 1331 160 781 160 
L 589 160 
L 589 0 
C 896 0 1216 0 1523 0 
C 1830 0 2150 0 2458 0 
L 2458 160 
L 2266 160 
C 1715 160 1702 230 1702 458 
L 1702 4058 
z
" transform="scale(0.015625)"/>
       </defs>
       <use xlink:href="#CMR17-31" transform="scale(0.996264)"/>
       <use xlink:href="#CMR17-30" transform="translate(45.690477 0) scale(0.996264)"/>
       <use xlink:href="#CMR17-30" transform="translate(91.380954 0) scale(0.996264)"/>
      </g>
     </g>
    </g>
    <g id="xtick_6">
     <g id="line2d_6">
      <path d="M 634.619501 423.840956 
L 634.619501 49.831226 
" clip-path="url(#pb1d4d899ab)" style="fill: none; stroke: #cccccc; stroke-linecap: round"/>
     </g>
     <g id="text_6">
      <!-- $\mathdefault{125}$ -->
      <g style="fill: #262626" transform="translate(619.541644 448.56165) scale(0.22 -0.22)">
       <use xlink:href="#CMR17-31" transform="scale(0.996264)"/>
       <use xlink:href="#CMR17-32" transform="translate(45.690477 0) scale(0.996264)"/>
       <use xlink:href="#CMR17-35" transform="translate(91.380954 0) scale(0.996264)"/>
      </g>
     </g>
    </g>
    <g id="xtick_7">
     <g id="line2d_7">
      <path d="M 736.873915 423.840956 
L 736.873915 49.831226 
" clip-path="url(#pb1d4d899ab)" style="fill: none; stroke: #cccccc; stroke-linecap: round"/>
     </g>
     <g id="text_7">
      <!-- $\mathdefault{150}$ -->
      <g style="fill: #262626" transform="translate(721.796058 448.56165) scale(0.22 -0.22)">
       <use xlink:href="#CMR17-31" transform="scale(0.996264)"/>
       <use xlink:href="#CMR17-35" transform="translate(45.690477 0) scale(0.996264)"/>
       <use xlink:href="#CMR17-30" transform="translate(91.380954 0) scale(0.996264)"/>
      </g>
     </g>
    </g>
    <g id="xtick_8">
     <g id="line2d_8">
      <path d="M 839.128329 423.840956 
L 839.128329 49.831226 
" clip-path="url(#pb1d4d899ab)" style="fill: none; stroke: #cccccc; stroke-linecap: round"/>
     </g>
     <g id="text_8">
      <!-- $\mathdefault{175}$ -->
      <g style="fill: #262626" transform="translate(824.050472 448.56165) scale(0.22 -0.22)">
       <use xlink:href="#CMR17-31" transform="scale(0.996264)"/>
       <use xlink:href="#CMR17-37" transform="translate(45.690477 0) scale(0.996264)"/>
       <use xlink:href="#CMR17-35" transform="translate(91.380954 0) scale(0.996264)"/>
      </g>
     </g>
    </g>
    <g id="xtick_9">
     <g id="line2d_9">
      <path d="M 941.382743 423.840956 
L 941.382743 49.831226 
" clip-path="url(#pb1d4d899ab)" style="fill: none; stroke: #cccccc; stroke-linecap: round"/>
     </g>
     <g id="text_9">
      <!-- $\mathdefault{200}$ -->
      <g style="fill: #262626" transform="translate(926.304886 448.56165) scale(0.22 -0.22)">
       <use xlink:href="#CMR17-32" transform="scale(0.996264)"/>
       <use xlink:href="#CMR17-30" transform="translate(45.690477 0) scale(0.996264)"/>
       <use xlink:href="#CMR17-30" transform="translate(91.380954 0) scale(0.996264)"/>
      </g>
     </g>
    </g>
    <g id="text_10">
     <!-- Epoch -->
     <g style="fill: #262626" transform="translate(504.891484 473.429243) scale(0.24 -0.24)">
      <defs>
       <path id="CMSS17-45" d="M 1958 433 
C 1446 433 1216 433 1101 433 
L 1101 2107 
L 3085 2107 
L 3085 2496 
L 1101 2496 
L 1101 4009 
L 1926 4009 
C 2003 4009 2080 4009 2157 4009 
L 3251 4009 
L 3251 4416 
L 563 4416 
L 563 0 
L 3334 0 
L 3334 433 
L 1958 433 
z
" transform="scale(0.015625)"/>
       <path id="CMSS17-70" d="M 966 333 
C 1178 129 1466 -5 1773 -5 
C 2368 -5 2880 603 2880 1412 
C 2880 2159 2496 2816 1946 2816 
C 1626 2816 1242 2702 954 2472 
L 954 2765 
L 480 2765 
L 480 -1216 
L 966 -1216 
L 966 333 
z
M 966 2100 
C 1018 2176 1235 2415 1587 2415 
C 2035 2415 2394 1960 2394 1412 
C 2394 787 1958 384 1530 384 
C 1402 384 1267 415 1139 523 
C 966 674 966 768 966 857 
L 966 2100 
z
" transform="scale(0.015625)"/>
       <path id="CMSS17-6f" d="M 2829 1356 
C 2829 2176 2221 2816 1504 2816 
C 768 2816 173 2157 173 1356 
C 173 544 787 -64 1498 -64 
C 2227 -64 2829 563 2829 1356 
z
M 1504 337 
C 1050 337 659 709 659 1408 
C 659 2151 1114 2427 1498 2427 
C 1914 2427 2342 2126 2342 1408 
C 2342 683 1926 337 1504 337 
z
" transform="scale(0.015625)"/>
       <path id="CMSS17-63" d="M 2464 2541 
C 2464 2585 2170 2714 2093 2739 
C 1882 2816 1613 2816 1542 2816 
C 710 2816 211 2093 211 1363 
C 211 595 768 -64 1517 -64 
C 1946 -64 2253 76 2502 242 
L 2464 664 
C 2189 453 1869 337 1523 337 
C 1024 337 698 774 698 1369 
C 698 1831 909 2414 1549 2414 
C 1901 2414 2099 2343 2394 2145 
L 2464 2541 
z
" transform="scale(0.015625)"/>
       <path id="CMSS17-68" d="M 2618 1891 
C 2618 2292 2522 2820 1798 2820 
C 1395 2820 1133 2623 947 2407 
L 947 4448 
L 474 4448 
L 474 32 
L 960 32 
L 960 1573 
C 960 1973 1114 2432 1549 2432 
C 2112 2432 2131 2056 2131 1839 
L 2131 32 
L 2618 32 
L 2618 1891 
z
" transform="scale(0.015625)"/>
      </defs>
      <use xlink:href="#CMSS17-45" transform="scale(0.996264)"/>
      <use xlink:href="#CMSS17-70" transform="translate(55.892013 0) scale(0.996264)"/>
      <use xlink:href="#CMSS17-6f" transform="translate(106.699395 0) scale(0.996264)"/>
      <use xlink:href="#CMSS17-63" transform="translate(156.145457 0) scale(0.996264)"/>
      <use xlink:href="#CMSS17-68" transform="translate(197.784279 0) scale(0.996264)"/>
     </g>
    </g>
   </g>
   <g id="matplotlib.axis_2">
    <g id="ytick_1">
     <g id="line2d_10">
      <path d="M 86.740351 382.69987 
L 982.08 382.69987 
" clip-path="url(#pb1d4d899ab)" style="fill: none; stroke: #cccccc; stroke-linecap: round"/>
     </g>
     <g id="text_11">
      <!-- $\mathdefault{0.9}$ -->
      <g style="fill: #262626" transform="translate(51.175163 390.310217) scale(0.22 -0.22)">
       <defs>
        <path id="CMMI12-3a" d="M 1178 307 
C 1178 492 1024 619 870 619 
C 685 619 557 466 557 313 
C 557 128 710 0 864 0 
C 1050 0 1178 153 1178 307 
z
" transform="scale(0.015625)"/>
        <path id="CMR17-39" d="M 2253 1864 
C 2253 464 1670 31 1190 31 
C 1043 31 685 31 538 294 
C 704 268 826 357 826 518 
C 826 692 685 749 595 749 
C 538 749 365 723 365 506 
C 365 71 742 -128 1203 -128 
C 1939 -128 2688 674 2688 2073 
C 2688 3817 1971 4179 1485 4179 
C 851 4179 243 3628 243 2778 
C 243 1991 762 1408 1414 1408 
C 1952 1408 2189 1903 2253 2112 
L 2253 1864 
z
M 1427 1510 
C 1254 1510 1011 1542 813 1922 
C 678 2169 678 2461 678 2771 
C 678 3146 678 3405 858 3684 
C 947 3817 1114 4032 1485 4032 
C 2240 4032 2240 2885 2240 2632 
C 2240 2182 2035 1510 1427 1510 
z
" transform="scale(0.015625)"/>
       </defs>
       <use xlink:href="#CMR17-30" transform="scale(0.996264)"/>
       <use xlink:href="#CMMI12-3a" transform="translate(45.690477 0) scale(0.996264)"/>
       <use xlink:href="#CMR17-39" transform="translate(72.787654 0) scale(0.996264)"/>
      </g>
     </g>
    </g>
    <g id="ytick_2">
     <g id="line2d_11">
      <path d="M 86.740351 321.900062 
L 982.08 321.900062 
" clip-path="url(#pb1d4d899ab)" style="fill: none; stroke: #cccccc; stroke-linecap: round"/>
     </g>
     <g id="text_12">
      <!-- $\mathdefault{1.0}$ -->
      <g style="fill: #262626" transform="translate(51.175163 329.510409) scale(0.22 -0.22)">
       <use xlink:href="#CMR17-31" transform="scale(0.996264)"/>
       <use xlink:href="#CMMI12-3a" transform="translate(45.690477 0) scale(0.996264)"/>
       <use xlink:href="#CMR17-30" transform="translate(72.787654 0) scale(0.996264)"/>
      </g>
     </g>
    </g>
    <g id="ytick_3">
     <g id="line2d_12">
      <path d="M 86.740351 261.100255 
L 982.08 261.100255 
" clip-path="url(#pb1d4d899ab)" style="fill: none; stroke: #cccccc; stroke-linecap: round"/>
     </g>
     <g id="text_13">
      <!-- $\mathdefault{1.1}$ -->
      <g style="fill: #262626" transform="translate(51.175163 268.710601) scale(0.22 -0.22)">
       <use xlink:href="#CMR17-31" transform="scale(0.996264)"/>
       <use xlink:href="#CMMI12-3a" transform="translate(45.690477 0) scale(0.996264)"/>
       <use xlink:href="#CMR17-31" transform="translate(72.787654 0) scale(0.996264)"/>
      </g>
     </g>
    </g>
    <g id="ytick_4">
     <g id="line2d_13">
      <path d="M 86.740351 200.300447 
L 982.08 200.300447 
" clip-path="url(#pb1d4d899ab)" style="fill: none; stroke: #cccccc; stroke-linecap: round"/>
     </g>
     <g id="text_14">
      <!-- $\mathdefault{1.2}$ -->
      <g style="fill: #262626" transform="translate(51.175163 207.910794) scale(0.22 -0.22)">
       <use xlink:href="#CMR17-31" transform="scale(0.996264)"/>
       <use xlink:href="#CMMI12-3a" transform="translate(45.690477 0) scale(0.996264)"/>
       <use xlink:href="#CMR17-32" transform="translate(72.787654 0) scale(0.996264)"/>
      </g>
     </g>
    </g>
    <g id="ytick_5">
     <g id="line2d_14">
      <path d="M 86.740351 139.500639 
L 982.08 139.500639 
" clip-path="url(#pb1d4d899ab)" style="fill: none; stroke: #cccccc; stroke-linecap: round"/>
     </g>
     <g id="text_15">
      <!-- $\mathdefault{1.3}$ -->
      <g style="fill: #262626" transform="translate(51.175163 147.110986) scale(0.22 -0.22)">
       <defs>
        <path id="CMR17-33" d="M 1414 2157 
C 1984 2157 2234 1662 2234 1090 
C 2234 320 1824 25 1453 25 
C 1114 25 563 194 390 693 
C 422 680 454 680 486 680 
C 640 680 755 782 755 948 
C 755 1133 614 1216 486 1216 
C 378 1216 211 1165 211 926 
C 211 335 787 -128 1466 -128 
C 2176 -128 2720 430 2720 1085 
C 2720 1707 2208 2157 1600 2227 
C 2086 2328 2554 2756 2554 3329 
C 2554 3820 2048 4179 1472 4179 
C 890 4179 378 3829 378 3329 
C 378 3110 544 3072 627 3072 
C 762 3072 877 3155 877 3321 
C 877 3486 762 3569 627 3569 
C 602 3569 570 3569 544 3557 
C 730 3959 1235 4032 1459 4032 
C 1683 4032 2106 3925 2106 3320 
C 2106 3143 2080 2828 1862 2550 
C 1670 2304 1453 2304 1242 2284 
C 1210 2284 1062 2269 1037 2269 
C 992 2263 966 2257 966 2208 
C 966 2163 973 2157 1101 2157 
L 1414 2157 
z
" transform="scale(0.015625)"/>
       </defs>
       <use xlink:href="#CMR17-31" transform="scale(0.996264)"/>
       <use xlink:href="#CMMI12-3a" transform="translate(45.690477 0) scale(0.996264)"/>
       <use xlink:href="#CMR17-33" transform="translate(72.787654 0) scale(0.996264)"/>
      </g>
     </g>
    </g>
    <g id="ytick_6">
     <g id="line2d_15">
      <path d="M 86.740351 78.700831 
L 982.08 78.700831 
" clip-path="url(#pb1d4d899ab)" style="fill: none; stroke: #cccccc; stroke-linecap: round"/>
     </g>
     <g id="text_16">
      <!-- $\mathdefault{1.4}$ -->
      <g style="fill: #262626" transform="translate(51.175163 86.311178) scale(0.22 -0.22)">
       <defs>
        <path id="CMR17-34" d="M 2150 4122 
C 2150 4256 2144 4256 2029 4256 
L 128 1254 
L 128 1088 
L 1779 1088 
L 1779 457 
C 1779 224 1766 160 1318 160 
L 1197 160 
L 1197 0 
C 1402 0 1747 0 1965 0 
C 2182 0 2528 0 2733 0 
L 2733 160 
L 2611 160 
C 2163 160 2150 224 2150 457 
L 2150 1088 
L 2803 1088 
L 2803 1254 
L 2150 1254 
L 2150 4122 
z
M 1798 3703 
L 1798 1254 
L 256 1254 
L 1798 3703 
z
" transform="scale(0.015625)"/>
       </defs>
       <use xlink:href="#CMR17-31" transform="scale(0.996264)"/>
       <use xlink:href="#CMMI12-3a" transform="translate(45.690477 0) scale(0.996264)"/>
       <use xlink:href="#CMR17-34" transform="translate(72.787654 0) scale(0.996264)"/>
      </g>
     </g>
    </g>
    <g id="text_17">
     <!-- Loss -->
     <g style="fill: #262626" transform="translate(42.524405 257.15902) rotate(-90) scale(0.24 -0.24)">
      <defs>
       <path id="CMSS17-4c" d="M 1670 414 
C 1594 414 1517 414 1440 414 
L 1101 414 
L 1101 4416 
L 563 4416 
L 563 0 
L 3002 0 
L 3002 414 
L 1670 414 
z
" transform="scale(0.015625)"/>
       <path id="CMSS17-73" d="M 2061 2627 
C 1683 2807 1389 2807 1197 2807 
C 742 2807 198 2648 198 2003 
C 198 1359 902 1218 1094 1179 
C 1389 1122 1715 1058 1715 740 
C 1715 337 1254 337 1171 337 
C 915 337 563 407 243 638 
L 166 210 
C 531 0 883 -64 1178 -64 
C 1965 -64 2163 416 2163 781 
C 2163 1094 1984 1305 1862 1401 
C 1651 1568 1574 1587 1050 1696 
C 960 1709 646 1779 646 2066 
C 646 2432 1050 2432 1139 2432 
C 1555 2432 1811 2303 1984 2208 
L 2061 2627 
z
" transform="scale(0.015625)"/>
      </defs>
      <use xlink:href="#CMSS17-4c" transform="scale(0.996264)"/>
      <use xlink:href="#CMSS17-6f" transform="translate(50.687105 0) scale(0.996264)"/>
      <use xlink:href="#CMSS17-73" transform="translate(97.530729 0) scale(0.996264)"/>
      <use xlink:href="#CMSS17-73" transform="translate(133.444271 0) scale(0.996264)"/>
     </g>
    </g>
   </g>
   <g id="PolyCollection_1">
    <defs>
     <path id="m57c762ceb9" d="M 127.437608 -417.775913 
L 127.437608 -386.528011 
L 131.527785 -339.209761 
L 135.617961 -326.288362 
L 139.708138 -338.307924 
L 143.798314 -333.03554 
L 147.888491 -336.954608 
L 151.978668 -337.288508 
L 156.068844 -308.359138 
L 160.159021 -315.374356 
L 164.249197 -337.043488 
L 168.339374 -302.316038 
L 172.42955 -372.568895 
L 176.519727 -403.106759 
L 180.609903 -363.834803 
L 184.70008 -379.223234 
L 188.790257 -362.939566 
L 192.880433 -410.769175 
L 196.97061 -409.580178 
L 201.060786 -410.129617 
L 205.150963 -409.00726 
L 209.241139 -404.804714 
L 213.331316 -376.420523 
L 217.421492 -376.719802 
L 221.511669 -370.590262 
L 225.601846 -378.429797 
L 229.692022 -371.452699 
L 233.782199 -357.145024 
L 237.872375 -371.910858 
L 241.962552 -412.546449 
L 246.052728 -410.233376 
L 250.142905 -410.657255 
L 254.233081 -411.615972 
L 258.323258 -410.905534 
L 262.413435 -410.692415 
L 266.503611 -412.12029 
L 270.593788 -411.570252 
L 274.683964 -411.324013 
L 278.774141 -410.614535 
L 282.864317 -413.222367 
L 286.954494 -413.022128 
L 291.04467 -413.324023 
L 295.134847 -412.737486 
L 299.225024 -413.796685 
L 303.3152 -413.236007 
L 307.405377 -413.714445 
L 311.495553 -413.388006 
L 315.58573 -413.629686 
L 319.675906 -413.433886 
L 323.766083 -413.584214 
L 327.85626 -413.593126 
L 331.946436 -413.433406 
L 336.036613 -412.831328 
L 340.126789 -413.130287 
L 344.216966 -412.884935 
L 348.307142 -412.987168 
L 352.397319 -413.073367 
L 356.487495 -412.846528 
L 360.577672 -413.813605 
L 364.667849 -413.233207 
L 368.758025 -413.524846 
L 372.848202 -413.226647 
L 376.938378 -413.324047 
L 381.028555 -412.26237 
L 385.118731 -412.994828 
L 389.208908 -412.939808 
L 393.299084 -412.863608 
L 397.389261 -412.547529 
L 401.479438 -412.804128 
L 405.569614 -412.939368 
L 409.659791 -413.04213 
L 413.749967 -413.084044 
L 417.840144 -413.252392 
L 421.93032 -413.074287 
L 426.020497 -412.833288 
L 430.110673 -412.932408 
L 434.20085 -412.834808 
L 438.291027 -412.617609 
L 442.381203 -412.40357 
L 446.47138 -412.687748 
L 450.561556 -412.42297 
L 454.651733 -411.926251 
L 458.741909 -412.33429 
L 462.832086 -411.964251 
L 466.922262 -415.173706 
L 471.012439 -412.907322 
L 475.102616 -412.29817 
L 479.192792 -412.581379 
L 483.282969 -412.467809 
L 487.373145 -412.073117 
L 491.463322 -412.19825 
L 495.553498 -411.842531 
L 499.643675 -412.31165 
L 503.733852 -412.092331 
L 507.824028 -412.23017 
L 511.914205 -411.001752 
L 516.004381 -411.256813 
L 520.094558 -412.322034 
L 524.184734 -411.426773 
L 528.274911 -411.505052 
L 532.365087 -411.201133 
L 536.455264 -410.718855 
L 540.545441 -411.333933 
L 544.635617 -410.972654 
L 548.725794 -412.102631 
L 552.81597 -411.695972 
L 556.906147 -411.591792 
L 560.996323 -414.134875 
L 565.0865 -412.511929 
L 569.176676 -411.411453 
L 573.266853 -410.868113 
L 577.35703 -411.063294 
L 581.447206 -410.142577 
L 585.537383 -413.726085 
L 589.627559 -412.37533 
L 593.717736 -412.039133 
L 597.807912 -411.086494 
L 601.898089 -407.533265 
L 605.988265 -411.453039 
L 610.078442 -409.345419 
L 614.168619 -400.377609 
L 618.258795 -405.83635 
L 622.348972 -406.155429 
L 626.439148 -402.603601 
L 630.529325 -407.424225 
L 634.619501 -400.126968 
L 638.709678 -403.359678 
L 642.799854 -395.111621 
L 646.890031 -411.199413 
L 650.980208 -399.066212 
L 655.070384 -402.82788 
L 659.160561 -395.346703 
L 663.250737 -402.563243 
L 667.340914 -400.435327 
L 671.43109 -409.732566 
L 675.521267 -406.976925 
L 679.611444 -402.167202 
L 683.70162 -399.990609 
L 687.791797 -406.529388 
L 691.881973 -402.973559 
L 695.97215 -409.627698 
L 700.062326 -407.803104 
L 704.152503 -402.572121 
L 708.242679 -404.195636 
L 712.332856 -403.717331 
L 716.423033 -407.448385 
L 720.513209 -395.152704 
L 724.603386 -399.005869 
L 728.693562 -408.286295 
L 732.783739 -398.495814 
L 736.873915 -394.355787 
L 740.964092 -401.270085 
L 745.054268 -397.308226 
L 749.144445 -404.822354 
L 753.234622 -406.06463 
L 757.324798 -395.720908 
L 761.414975 -400.365768 
L 765.505151 -406.368789 
L 769.595328 -402.439961 
L 773.685504 -411.377533 
L 777.775681 -403.260878 
L 781.865857 -405.596911 
L 785.956034 -404.921433 
L 790.046211 -408.068263 
L 794.136387 -407.738864 
L 798.226564 -407.054546 
L 802.31674 -406.03563 
L 806.406917 -404.485795 
L 810.497093 -397.264777 
L 814.58727 -393.074271 
L 818.677447 -397.812856 
L 822.767623 -395.324904 
L 826.8578 -402.337761 
L 830.947976 -404.303707 
L 835.038153 -401.698443 
L 839.128329 -403.831077 
L 843.218506 -401.655924 
L 847.308682 -405.220952 
L 851.398859 -404.295775 
L 855.489036 -397.126418 
L 859.579212 -405.390352 
L 863.669389 -398.852172 
L 867.759565 -388.987604 
L 871.849742 -382.299652 
L 875.939918 -387.821807 
L 880.030095 -405.363234 
L 884.120271 -404.372115 
L 888.210448 -401.943723 
L 892.300625 -403.629352 
L 896.390801 -400.765926 
L 900.480978 -410.917934 
L 904.571154 -404.980273 
L 908.661331 -398.903612 
L 912.751507 -400.429887 
L 916.841684 -406.371229 
L 920.93186 -405.311072 
L 925.022037 -405.339832 
L 929.112214 -405.79199 
L 933.20239 -404.569834 
L 937.292567 -396.859219 
L 941.382743 -409.770294 
L 941.382743 -414.586043 
L 941.382743 -414.586043 
L 937.292567 -430.038954 
L 933.20239 -424.677531 
L 929.112214 -411.953211 
L 925.022037 -421.030622 
L 920.93186 -414.361646 
L 916.841684 -414.641242 
L 912.751507 -423.653334 
L 908.661331 -422.661177 
L 904.571154 -415.630239 
L 900.480978 -416.564156 
L 896.390801 -421.525021 
L 892.300625 -415.831559 
L 888.210448 -436.162174 
L 884.120271 -414.466563 
L 880.030095 -413.242887 
L 875.939918 -415.050321 
L 871.849742 -437.168331 
L 867.759565 -413.719205 
L 863.669389 -414.220524 
L 859.579212 -414.337563 
L 855.489036 -414.600123 
L 851.398859 -414.508523 
L 847.308682 -414.406923 
L 843.218506 -414.486563 
L 839.128329 -414.835522 
L 835.038153 -415.53616 
L 830.947976 -415.640519 
L 826.8578 -415.157481 
L 822.767623 -414.775802 
L 818.677447 -431.474749 
L 814.58727 -414.333763 
L 810.497093 -415.028761 
L 806.406917 -414.812442 
L 802.31674 -414.740202 
L 798.226564 -417.361714 
L 794.136387 -414.355723 
L 790.046211 -430.512632 
L 785.956034 -414.944042 
L 781.865857 -413.362927 
L 777.775681 -414.515443 
L 773.685504 -414.681482 
L 769.595328 -414.776655 
L 765.505151 -432.242947 
L 761.414975 -413.892205 
L 757.324798 -414.033689 
L 753.234622 -414.405856 
L 749.144445 -407.936757 
L 745.054268 -414.607283 
L 740.964092 -415.696519 
L 736.873915 -415.637599 
L 732.783739 -414.142844 
L 728.693562 -414.941602 
L 724.603386 -414.773722 
L 720.513209 -415.43132 
L 716.423033 -414.787682 
L 712.332856 -414.611563 
L 708.242679 -414.60859 
L 704.152503 -415.050121 
L 700.062326 -415.231521 
L 695.97215 -414.278459 
L 691.881973 -413.804325 
L 687.791797 -415.076161 
L 683.70162 -418.932785 
L 679.611444 -415.191342 
L 675.521267 -415.255921 
L 671.43109 -415.29436 
L 667.340914 -414.742067 
L 663.250737 -416.812196 
L 659.160561 -416.889475 
L 655.070384 -414.982801 
L 650.980208 -415.026961 
L 646.890031 -416.036598 
L 642.799854 -416.200398 
L 638.709678 -415.110081 
L 634.619501 -414.971761 
L 630.529325 -417.612503 
L 626.439148 -427.520962 
L 622.348972 -415.40264 
L 618.258795 -415.412 
L 614.168619 -415.094921 
L 610.078442 -415.161441 
L 605.988265 -417.963712 
L 601.898089 -415.31464 
L 597.807912 -422.039448 
L 593.717736 -416.293197 
L 589.627559 -415.312176 
L 585.537383 -418.67356 
L 581.447206 -415.4784 
L 577.35703 -417.926592 
L 573.266853 -415.791759 
L 569.176676 -416.517877 
L 565.0865 -415.853079 
L 560.996323 -436.906412 
L 556.906147 -414.867682 
L 552.81597 -415.48596 
L 548.725794 -432.251789 
L 544.635617 -416.797156 
L 540.545441 -416.225197 
L 536.455264 -415.721266 
L 532.365087 -415.49268 
L 528.274911 -415.32268 
L 524.184734 -415.140201 
L 520.094558 -415.485999 
L 516.004381 -415.3318 
L 511.914205 -415.27428 
L 507.824028 -420.361943 
L 503.733852 -415.56924 
L 499.643675 -415.041476 
L 495.553498 -415.39548 
L 491.463322 -424.84593 
L 487.373145 -415.191664 
L 483.282969 -417.633153 
L 479.192792 -415.201287 
L 475.102616 -417.313738 
L 471.012439 -416.829636 
L 466.922262 -428.905717 
L 462.832086 -427.708009 
L 458.741909 -415.110369 
L 454.651733 -415.37672 
L 450.561556 -432.911023 
L 446.47138 -416.171628 
L 442.381203 -415.626039 
L 438.291027 -415.31696 
L 434.20085 -415.039281 
L 430.110673 -416.033278 
L 426.020497 -415.339147 
L 421.93032 -414.485003 
L 417.840144 -415.583239 
L 413.749967 -419.411987 
L 409.659791 -414.985601 
L 405.569614 -414.748242 
L 401.479438 -415.036881 
L 397.389261 -414.899522 
L 393.299084 -417.033475 
L 389.208908 -416.613396 
L 385.118731 -415.074361 
L 381.028555 -415.34588 
L 376.938378 -414.888042 
L 372.848202 -414.937311 
L 368.758025 -433.353492 
L 364.667849 -420.217553 
L 360.577672 -427.721321 
L 356.487495 -414.390443 
L 352.397319 -414.851802 
L 348.307142 -414.722821 
L 344.216966 -423.137136 
L 340.126789 -414.889562 
L 336.036613 -414.524243 
L 331.946436 -413.996245 
L 327.85626 -423.493575 
L 323.766083 -413.995365 
L 319.675906 -414.166284 
L 315.58573 -421.962939 
L 311.495553 -414.480923 
L 307.405377 -415.46688 
L 303.3152 -414.377107 
L 299.225024 -414.977921 
L 295.134847 -417.650392 
L 291.04467 -416.645476 
L 286.954494 -416.56578 
L 282.864317 -433.859258 
L 278.774141 -415.619839 
L 274.683964 -414.114564 
L 270.593788 -414.629203 
L 266.503611 -417.307314 
L 262.413435 -415.33008 
L 258.323258 -414.985025 
L 254.233081 -414.431163 
L 250.142905 -415.675519 
L 246.052728 -414.621963 
L 241.962552 -419.468027 
L 237.872375 -414.710322 
L 233.782199 -414.636803 
L 229.692022 -414.292084 
L 225.601846 -414.431683 
L 221.511669 -414.416763 
L 217.421492 -417.980832 
L 213.331316 -414.349523 
L 209.241139 -415.250561 
L 205.150963 -414.901962 
L 201.060786 -414.597323 
L 196.97061 -414.464323 
L 192.880433 -414.194364 
L 188.790257 -414.308284 
L 184.70008 -414.212644 
L 180.609903 -414.260564 
L 176.519727 -414.553603 
L 172.42955 -414.937322 
L 168.339374 -414.136364 
L 164.249197 -414.421603 
L 160.159021 -414.309684 
L 156.068844 -414.167924 
L 151.978668 -413.884805 
L 147.888491 -413.893765 
L 143.798314 -413.709285 
L 139.708138 -411.479172 
L 135.617961 -411.845491 
L 131.527785 -409.15518 
L 127.437608 -417.775913 
z
" style="stroke: #0000ff; stroke-opacity: 0.2"/>
    </defs>
    <g clip-path="url(#pb1d4d899ab)">
     <use xlink:href="#m57c762ceb9" x="0" y="504" style="fill: #0000ff; fill-opacity: 0.2; stroke: #0000ff; stroke-opacity: 0.2"/>
    </g>
   </g>
   <g id="PolyCollection_2">
    <defs>
     <path id="mb593202a76" d="M 127.437608 -299.150608 
L 127.437608 -239.803435 
L 131.527785 -185.225928 
L 135.617961 -175.659438 
L 139.708138 -170.226055 
L 143.798314 -162.20188 
L 147.888491 -155.769101 
L 151.978668 -155.388542 
L 156.068844 -152.091872 
L 160.159021 -148.860283 
L 164.249197 -148.031485 
L 168.339374 -145.035215 
L 172.42955 -145.572573 
L 176.519727 -143.28382 
L 180.609903 -140.844428 
L 184.70008 -142.119984 
L 188.790257 -138.965354 
L 192.880433 -140.34591 
L 196.97061 -139.625472 
L 201.060786 -142.150904 
L 205.150963 -140.28595 
L 209.241139 -140.006631 
L 213.331316 -138.754955 
L 217.421492 -138.152436 
L 221.511669 -136.607281 
L 225.601846 -135.447725 
L 229.692022 -135.783124 
L 233.782199 -134.221169 
L 237.872375 -133.293532 
L 241.962552 -132.721374 
L 246.052728 -133.92177 
L 250.142905 -136.496602 
L 254.233081 -132.741734 
L 258.323258 -133.445291 
L 262.413435 -133.333652 
L 266.503611 -132.285895 
L 270.593788 -132.129735 
L 274.683964 -132.531214 
L 278.774141 -131.290858 
L 282.864317 -131.424298 
L 286.954494 -128.346223 
L 291.04467 -129.75239 
L 295.134847 -128.359867 
L 299.225024 -130.227582 
L 303.3152 -129.874183 
L 307.405377 -128.227468 
L 311.495553 -127.48739 
L 315.58573 -128.514667 
L 319.675906 -122.601846 
L 323.766083 -126.812192 
L 327.85626 -125.721596 
L 331.946436 -126.127474 
L 336.036613 -124.555679 
L 340.126789 -126.308994 
L 344.216966 -123.196124 
L 348.307142 -126.202874 
L 352.397319 -122.161247 
L 356.487495 -124.966518 
L 360.577672 -125.152398 
L 364.667849 -116.666424 
L 368.758025 -120.632532 
L 372.848202 -121.30237 
L 376.938378 -120.211133 
L 381.028555 -123.139484 
L 385.118731 -121.733128 
L 389.208908 -121.006891 
L 393.299084 -122.405846 
L 397.389261 -123.161764 
L 401.479438 -121.858208 
L 405.569614 -123.070604 
L 409.659791 -122.649845 
L 413.749967 -122.156119 
L 417.840144 -123.576942 
L 421.93032 -121.383438 
L 426.020497 -122.317087 
L 430.110673 -121.514249 
L 434.20085 -121.679529 
L 438.291027 -120.287093 
L 442.381203 -120.326528 
L 446.47138 -121.089154 
L 450.561556 -121.34329 
L 454.651733 -113.953339 
L 458.741909 -119.144497 
L 462.832086 -119.527231 
L 466.922262 -118.595218 
L 471.012439 -111.026762 
L 475.102616 -113.449515 
L 479.192792 -113.278995 
L 483.282969 -115.125269 
L 487.373145 -116.501105 
L 491.463322 -115.304309 
L 495.553498 -108.47282 
L 499.643675 -110.870443 
L 503.733852 -115.155789 
L 507.824028 -114.121699 
L 511.914205 -114.923811 
L 516.004381 -115.681227 
L 520.094558 -118.434848 
L 524.184734 -117.187703 
L 528.274911 -117.867421 
L 532.365087 -118.230464 
L 536.455264 -115.866978 
L 540.545441 -116.991223 
L 544.635617 -117.550553 
L 548.725794 -116.769344 
L 552.81597 -107.354374 
L 556.906147 -109.434247 
L 560.996323 -109.220215 
L 565.0865 -107.734042 
L 569.176676 -106.463245 
L 573.266853 -107.192254 
L 577.35703 -106.833015 
L 581.447206 -108.660937 
L 585.537383 -108.987329 
L 589.627559 -108.781889 
L 593.717736 -111.447662 
L 597.807912 -112.570317 
L 601.898089 -113.255315 
L 605.988265 -113.680154 
L 610.078442 -111.988319 
L 614.168619 -114.083033 
L 618.258795 -116.367185 
L 622.348972 -115.449417 
L 626.439148 -112.864956 
L 630.529325 -102.541429 
L 634.619501 -109.833528 
L 638.709678 -109.758606 
L 642.799854 -112.305503 
L 646.890031 -112.546237 
L 650.980208 -110.369884 
L 655.070384 -110.962402 
L 659.160561 -111.8274 
L 663.250737 -113.492388 
L 667.340914 -111.526581 
L 671.43109 -112.512998 
L 675.521267 -110.342484 
L 679.611444 -112.392716 
L 683.70162 -110.254285 
L 687.791797 -109.443967 
L 691.881973 -112.788717 
L 695.97215 -115.875187 
L 700.062326 -108.238571 
L 704.152503 -109.606887 
L 708.242679 -110.139741 
L 712.332856 -110.216885 
L 716.423033 -111.980439 
L 720.513209 -110.303964 
L 724.603386 -111.255721 
L 728.693562 -111.302241 
L 732.783739 -113.692354 
L 736.873915 -107.319734 
L 740.964092 -107.452013 
L 745.054268 -111.210522 
L 749.144445 -115.72064 
L 753.234622 -111.86251 
L 757.324798 -111.872455 
L 761.414975 -112.451798 
L 765.505151 -108.800369 
L 769.595328 -100.102015 
L 773.685504 -102.28187 
L 777.775681 -109.108768 
L 781.865857 -111.71104 
L 785.956034 -108.67305 
L 790.046211 -108.002892 
L 794.136387 -108.141451 
L 798.226564 -110.363484 
L 802.31674 -109.737326 
L 806.406917 -106.788216 
L 810.497093 -106.996015 
L 814.58727 -107.934932 
L 818.677447 -107.858292 
L 822.767623 -100.972994 
L 826.8578 -104.790822 
L 830.947976 -104.788222 
L 835.038153 -104.764582 
L 839.128329 -104.238504 
L 843.218506 -107.125095 
L 847.308682 -106.625336 
L 851.398859 -107.114015 
L 855.489036 -107.037695 
L 859.579212 -106.315017 
L 863.669389 -105.104461 
L 867.759565 -106.992535 
L 871.849742 -115.758067 
L 875.939918 -104.628262 
L 880.030095 -109.427047 
L 884.120271 -106.585456 
L 888.210448 -105.058021 
L 892.300625 -97.661684 
L 896.390801 -99.281359 
L 900.480978 -98.403482 
L 904.571154 -98.789881 
L 908.661331 -100.099237 
L 912.751507 -101.624112 
L 916.841684 -105.42442 
L 920.93186 -107.238181 
L 925.022037 -110.873123 
L 929.112214 -109.588607 
L 933.20239 -107.664013 
L 937.292567 -103.668545 
L 941.382743 -97.159486 
L 941.382743 -132.251415 
L 941.382743 -132.251415 
L 937.292567 -138.776954 
L 933.20239 -119.220176 
L 929.112214 -122.793565 
L 925.022037 -127.737269 
L 920.93186 -119.465256 
L 916.841684 -129.082105 
L 912.751507 -132.752014 
L 908.661331 -138.950674 
L 904.571154 -120.676532 
L 900.480978 -123.390003 
L 896.390801 -131.433578 
L 892.300625 -127.566295 
L 888.210448 -137.744478 
L 884.120271 -123.936481 
L 880.030095 -126.656513 
L 875.939918 -159.462329 
L 871.849742 -155.349995 
L 867.759565 -153.985026 
L 863.669389 -133.173452 
L 859.579212 -126.268274 
L 855.489036 -137.479079 
L 851.398859 -130.672279 
L 847.308682 -122.961324 
L 843.218506 -137.553278 
L 839.128329 -125.316837 
L 835.038153 -136.078523 
L 830.947976 -134.953794 
L 826.8578 -136.461762 
L 822.767623 -141.711185 
L 818.677447 -143.993418 
L 814.58727 -149.275321 
L 810.497093 -140.810268 
L 806.406917 -129.042145 
L 802.31674 -123.379803 
L 798.226564 -117.344462 
L 794.136387 -116.443105 
L 790.046211 -137.918597 
L 785.956034 -124.807519 
L 781.865857 -123.873842 
L 777.775681 -137.406999 
L 773.685504 -129.495464 
L 769.595328 -131.624817 
L 765.505151 -129.085185 
L 761.414975 -136.259602 
L 757.324798 -140.104302 
L 753.234622 -133.444428 
L 749.144445 -140.566269 
L 745.054268 -176.54972 
L 740.964092 -133.345012 
L 736.873915 -146.776489 
L 732.783739 -139.820551 
L 728.693562 -124.39812 
L 724.603386 -147.165052 
L 720.513209 -145.592453 
L 716.423033 -121.864328 
L 712.332856 -132.967089 
L 708.242679 -130.922659 
L 704.152503 -137.458879 
L 700.062326 -118.363019 
L 695.97215 -133.80469 
L 691.881973 -128.314948 
L 687.791797 -135.750204 
L 683.70162 -141.354546 
L 679.611444 -136.92684 
L 675.521267 -120.143645 
L 671.43109 -126.307739 
L 667.340914 -140.643189 
L 663.250737 -136.921262 
L 659.160561 -144.065178 
L 655.070384 -132.761373 
L 650.980208 -141.795465 
L 646.890031 -116.198386 
L 642.799854 -148.22305 
L 638.709678 -133.077652 
L 634.619501 -139.028474 
L 630.529325 -143.23634 
L 626.439148 -134.689887 
L 622.348972 -135.993243 
L 618.258795 -130.345821 
L 614.168619 -145.351406 
L 610.078442 -127.840789 
L 605.988265 -126.807552 
L 601.898089 -132.162375 
L 597.807912 -122.702498 
L 593.717736 -125.151398 
L 589.627559 -118.17046 
L 585.537383 -133.930545 
L 581.447206 -119.090577 
L 577.35703 -123.000044 
L 573.266853 -117.756541 
L 569.176676 -118.814618 
L 565.0865 -119.668455 
L 560.996323 -121.640209 
L 556.906147 -126.775072 
L 552.81597 -117.665101 
L 548.725794 -130.197155 
L 544.635617 -122.268527 
L 540.545441 -124.298 
L 536.455264 -121.34941 
L 532.365087 -126.726073 
L 528.274911 -125.679076 
L 524.184734 -122.25372 
L 520.094558 -124.154419 
L 516.004381 -121.931924 
L 511.914205 -122.518606 
L 507.824028 -124.548208 
L 503.733852 -123.102884 
L 499.643675 -125.393447 
L 495.553498 -124.613399 
L 491.463322 -124.927438 
L 487.373145 -123.675832 
L 483.282969 -122.459966 
L 479.192792 -123.992121 
L 475.102616 -128.51594 
L 471.012439 -139.277873 
L 466.922262 -128.489627 
L 462.832086 -131.541112 
L 458.741909 -129.289864 
L 454.651733 -132.357375 
L 450.561556 -130.190511 
L 446.47138 -130.65834 
L 442.381203 -134.322769 
L 438.291027 -130.70194 
L 434.20085 -129.768263 
L 430.110673 -128.425667 
L 426.020497 -134.738022 
L 421.93032 -132.006656 
L 417.840144 -131.391247 
L 413.749967 -138.066997 
L 409.659791 -130.285581 
L 405.569614 -130.110982 
L 401.479438 -130.349301 
L 397.389261 -132.770813 
L 393.299084 -135.430085 
L 389.208908 -139.416952 
L 385.118731 -130.729126 
L 381.028555 -129.827543 
L 376.938378 -133.335692 
L 372.848202 -132.841453 
L 368.758025 -138.012668 
L 364.667849 -137.419199 
L 360.577672 -136.633921 
L 356.487495 -138.171116 
L 352.397319 -139.774671 
L 348.307142 -138.154516 
L 344.216966 -143.34302 
L 340.126789 -140.32351 
L 336.036613 -136.505562 
L 331.946436 -138.795554 
L 327.85626 -143.105061 
L 323.766083 -140.813388 
L 319.675906 -142.302503 
L 315.58573 -140.370829 
L 311.495553 -139.104633 
L 307.405377 -161.592682 
L 303.3152 -138.412836 
L 299.225024 -143.141341 
L 295.134847 -142.944579 
L 291.04467 -145.958092 
L 286.954494 -141.459386 
L 282.864317 -163.593885 
L 278.774141 -148.910682 
L 274.683964 -150.850636 
L 270.593788 -149.72364 
L 266.503611 -150.298318 
L 262.413435 -151.147275 
L 258.323258 -151.547229 
L 254.233081 -149.7278 
L 250.142905 -153.070869 
L 246.052728 -152.025153 
L 241.962552 -157.036457 
L 237.872375 -236.502086 
L 233.782199 -242.174988 
L 229.692022 -213.907637 
L 225.601846 -222.53625 
L 221.511669 -219.18206 
L 217.421492 -214.190116 
L 213.331316 -221.819452 
L 209.241139 -181.551219 
L 205.150963 -164.396594 
L 201.060786 -158.402452 
L 196.97061 -159.550809 
L 192.880433 -163.115758 
L 188.790257 -248.839367 
L 184.70008 -211.977163 
L 180.609903 -246.024535 
L 176.519727 -184.113211 
L 172.42955 -245.816576 
L 168.339374 -367.200432 
L 164.249197 -313.280003 
L 160.159021 -329.239872 
L 156.068844 -347.729654 
L 151.978668 -293.349654 
L 147.888491 -316.436633 
L 143.798314 -323.63441 
L 139.708138 -313.163123 
L 135.617961 -332.854421 
L 131.527785 -316.486873 
L 127.437608 -299.150608 
z
" style="stroke: #ff0000; stroke-opacity: 0.2"/>
    </defs>
    <g clip-path="url(#pb1d4d899ab)">
     <use xlink:href="#mb593202a76" x="0" y="504" style="fill: #ff0000; fill-opacity: 0.2; stroke: #ff0000; stroke-opacity: 0.2"/>
    </g>
   </g>
   <g id="line2d_16">
    <path d="M 127.437608 113.224282 
L 131.527785 145.40502 
L 135.617961 158.02994 
L 139.708138 145.66406 
L 143.798314 114.913317 
L 147.888491 140.772675 
L 151.978668 111.449688 
L 156.068844 147.681653 
L 160.159021 141.895431 
L 164.249197 152.879717 
L 168.339374 115.250356 
L 172.42955 96.156776 
L 176.519727 94.77478 
L 180.609903 94.8541 
L 184.70008 93.237865 
L 192.880433 92.757867 
L 196.97061 93.638424 
L 201.060786 92.471028 
L 205.150963 90.804593 
L 209.241139 89.957516 
L 213.331316 92.183149 
L 217.421492 89.805756 
L 225.601846 89.954156 
L 229.692022 91.61527 
L 233.782199 90.291995 
L 237.872375 92.516468 
L 241.962552 90.121595 
L 246.052728 90.370554 
L 250.142905 90.030995 
L 254.233081 90.315234 
L 258.323258 90.068915 
L 262.413435 90.182035 
L 266.503611 90.806313 
L 270.593788 90.774913 
L 274.683964 90.069075 
L 278.774141 90.214155 
L 282.864317 89.833076 
L 286.954494 89.799476 
L 291.04467 89.478757 
L 295.134847 90.140435 
L 299.225024 89.603517 
L 303.3152 89.988436 
L 315.58573 89.707636 
L 319.675906 90.368074 
L 323.766083 90.293635 
L 327.85626 90.090675 
L 331.946436 90.278475 
L 336.036613 90.103155 
L 340.126789 90.328274 
L 344.216966 89.792676 
L 348.307142 89.646197 
L 352.397319 90.643433 
L 356.487495 90.096715 
L 364.667849 89.663277 
L 372.848202 89.568357 
L 376.938378 89.727116 
L 381.028555 89.729396 
L 385.118731 90.308835 
L 389.208908 89.067398 
L 393.299084 90.351403 
L 397.389261 90.364674 
L 401.479438 89.938836 
L 405.569614 90.075875 
L 409.659791 89.337318 
L 413.749967 89.374517 
L 417.840144 90.255475 
L 421.93032 90.079035 
L 426.020497 89.402037 
L 430.110673 89.701356 
L 434.20085 89.645837 
L 438.291027 89.770396 
L 442.381203 89.468037 
L 454.651733 90.335418 
L 458.741909 90.743193 
L 462.832086 88.772919 
L 466.922262 88.52088 
L 475.102616 89.354398 
L 479.192792 89.442957 
L 483.282969 89.320918 
L 487.373145 89.834726 
L 491.463322 88.67168 
L 495.553498 89.502677 
L 503.733852 89.652197 
L 507.824028 88.822919 
L 511.914205 89.466437 
L 516.004381 89.346958 
L 520.094558 89.483517 
L 524.184734 89.835974 
L 528.274911 89.922676 
L 532.365087 89.091116 
L 536.455264 89.546917 
L 540.545441 89.561785 
L 544.635617 89.932076 
L 548.725794 89.040719 
L 552.81597 89.159078 
L 556.906147 89.476277 
L 560.996323 88.68772 
L 565.0865 89.42028 
L 569.176676 88.874129 
L 573.266853 89.019079 
L 581.447206 89.038006 
L 585.537383 89.503557 
L 589.627559 89.772996 
L 593.717736 89.558077 
L 597.807912 90.087235 
L 601.898089 89.965756 
L 605.988265 91.112352 
L 610.078442 91.058192 
L 614.168619 93.231185 
L 618.258795 91.365591 
L 622.348972 90.826568 
L 626.439148 89.217558 
L 630.529325 90.710033 
L 634.619501 90.646947 
L 638.709678 89.628932 
L 642.799854 92.52256 
L 646.890031 89.441157 
L 650.980208 90.436474 
L 663.250737 90.271515 
L 667.340914 92.312016 
L 671.43109 92.137468 
L 679.611444 89.631517 
L 683.70162 91.234232 
L 687.791797 93.809663 
L 691.881973 91.74167 
L 695.97215 90.876993 
L 700.062326 90.397954 
L 704.152503 89.361718 
L 708.242679 90.805833 
L 712.332856 94.013783 
L 716.423033 90.879633 
L 720.513209 91.047552 
L 724.603386 90.517274 
L 728.693562 92.354188 
L 732.783739 92.352228 
L 736.873915 91.379271 
L 740.964092 91.159276 
L 745.054268 96.273256 
L 749.144445 97.737616 
L 753.234622 95.377816 
L 757.324798 94.362022 
L 761.414975 92.017309 
L 765.505151 90.273715 
L 769.595328 90.137155 
L 773.685504 90.748193 
L 777.775681 93.818823 
L 781.865857 93.385865 
L 785.956034 91.570671 
L 790.046211 89.373917 
L 794.136387 91.66367 
L 798.226564 90.448394 
L 802.31674 93.901703 
L 806.406917 90.263115 
L 810.497093 92.603867 
L 814.58727 91.576056 
L 818.677447 89.648677 
L 822.767623 96.136847 
L 826.8578 95.165619 
L 830.947976 95.392432 
L 835.038153 91.70995 
L 839.128329 92.132349 
L 843.218506 92.291108 
L 847.308682 91.57755 
L 851.398859 94.297622 
L 855.489036 97.668731 
L 859.579212 92.027549 
L 863.669389 97.594011 
L 867.759565 98.14785 
L 871.849742 95.910217 
L 875.939918 93.109426 
L 880.030095 97.288892 
L 884.120271 92.472108 
L 888.210448 91.88935 
L 892.300625 91.771944 
L 896.390801 92.081709 
L 900.480978 90.616914 
L 904.571154 92.208949 
L 908.661331 93.654464 
L 912.751507 89.326398 
L 916.841684 89.727116 
L 920.93186 91.88883 
L 925.022037 91.60499 
L 929.112214 92.518268 
L 933.20239 91.156872 
L 937.292567 90.281675 
L 941.382743 91.62299 
L 941.382743 91.62299 
" clip-path="url(#pb1d4d899ab)" style="fill: none; stroke: #0000ff; stroke-width: 1.5; stroke-linecap: round"/>
   </g>
   <g id="line2d_17">
    <path d="M 127.437608 214.092563 
L 131.527785 220.625663 
L 135.617961 195.350942 
L 139.708138 226.805363 
L 143.798314 279.689756 
L 147.888491 244.098428 
L 151.978668 282.568187 
L 156.068844 245.517144 
L 160.159021 244.509587 
L 164.249197 237.875568 
L 168.339374 303.863199 
L 172.42955 334.950221 
L 176.519727 342.900436 
L 180.609903 342.457997 
L 184.70008 345.651867 
L 188.790257 348.501738 
L 192.880433 349.687015 
L 196.97061 348.892417 
L 201.060786 350.163293 
L 205.150963 346.055146 
L 209.241139 348.393579 
L 213.331316 354.683399 
L 217.421492 335.41582 
L 221.511669 357.126511 
L 225.601846 358.336147 
L 229.692022 357.228271 
L 233.782199 357.309111 
L 237.872375 360.154462 
L 241.962552 356.631153 
L 246.052728 364.820047 
L 250.142905 355.436836 
L 254.233081 358.462547 
L 258.323258 360.987739 
L 262.413435 365.152926 
L 266.503611 364.872727 
L 270.593788 363.234612 
L 274.683964 363.443411 
L 278.774141 363.86097 
L 282.864317 366.8248 
L 286.954494 369.177073 
L 291.04467 366.742761 
L 295.134847 367.374919 
L 299.225024 367.787997 
L 303.3152 367.350778 
L 307.405377 369.865351 
L 311.495553 368.569235 
L 315.58573 370.16499 
L 319.675906 368.687955 
L 323.766083 367.663878 
L 327.85626 368.616715 
L 331.946436 374.934935 
L 336.036613 372.347943 
L 340.126789 373.39286 
L 344.216966 371.648745 
L 348.307142 376.427343 
L 352.397319 372.967581 
L 356.487495 374.828695 
L 360.577672 372.460343 
L 364.667849 374.792615 
L 368.758025 375.075134 
L 372.848202 379.286041 
L 376.938378 376.61049 
L 381.028555 375.093014 
L 385.118731 374.837655 
L 389.208908 373.105901 
L 393.299084 374.734055 
L 397.389261 377.388327 
L 401.479438 376.028011 
L 405.569614 375.551773 
L 409.659791 376.006491 
L 413.749967 377.017128 
L 417.840144 379.561352 
L 421.93032 376.149931 
L 426.020497 377.508807 
L 430.110673 377.824766 
L 438.291027 376.310213 
L 442.381203 376.50897 
L 446.47138 378.756499 
L 450.561556 379.991863 
L 454.651733 382.54379 
L 458.741909 380.768876 
L 462.832086 382.602953 
L 466.922262 383.153332 
L 471.012439 381.359053 
L 475.102616 382.228152 
L 479.192792 383.564315 
L 483.282969 382.888511 
L 487.373145 383.739747 
L 491.463322 381.590554 
L 495.553498 383.902826 
L 499.643675 383.181229 
L 503.733852 382.88223 
L 507.824028 383.646507 
L 511.914205 384.908111 
L 516.004381 382.946629 
L 520.094558 384.064626 
L 524.184734 384.065546 
L 528.274911 383.270228 
L 532.365087 384.507665 
L 536.455264 384.223288 
L 540.545441 382.552751 
L 544.635617 383.732747 
L 548.725794 381.023782 
L 552.81597 386.635818 
L 556.906147 384.830144 
L 560.996323 385.550981 
L 565.0865 386.987257 
L 569.176676 387.574163 
L 573.266853 388.665338 
L 577.35703 387.026617 
L 581.447206 386.756707 
L 585.537383 386.03878 
L 589.627559 388.104409 
L 593.717736 388.015062 
L 597.807912 385.369462 
L 601.898089 389.365329 
L 605.988265 388.278333 
L 610.078442 387.954414 
L 614.168619 388.272853 
L 618.258795 387.452895 
L 626.439148 387.997494 
L 630.529325 387.550286 
L 634.619501 391.379747 
L 638.709678 390.142733 
L 642.799854 382.372031 
L 646.890031 389.929167 
L 650.980208 385.98614 
L 655.070384 391.943041 
L 659.160561 384.794024 
L 663.250737 387.742814 
L 667.340914 386.0221 
L 671.43109 389.320607 
L 675.521267 390.398206 
L 679.611444 388.449237 
L 683.70162 386.164379 
L 687.791797 388.885771 
L 691.881973 382.115226 
L 695.97215 387.884604 
L 700.062326 389.791803 
L 704.152503 386.845217 
L 708.242679 389.17473 
L 712.332856 389.750848 
L 716.423033 388.107773 
L 720.513209 389.726688 
L 724.603386 387.297176 
L 728.693562 389.613815 
L 732.783739 387.823774 
L 736.873915 390.948044 
L 745.054268 386.798417 
L 749.144445 370.289373 
L 753.234622 384.687744 
L 757.324798 387.382055 
L 761.414975 387.247456 
L 765.505151 393.210477 
L 769.595328 391.717202 
L 773.685504 390.538445 
L 777.775681 393.099477 
L 781.865857 387.172336 
L 785.956034 392.108881 
L 790.046211 386.743702 
L 794.136387 389.640248 
L 798.226564 389.353289 
L 802.31674 389.384369 
L 806.406917 388.505572 
L 810.497093 387.060336 
L 814.58727 390.394006 
L 818.677447 389.649608 
L 822.767623 382.79711 
L 826.8578 384.537704 
L 830.947976 386.763057 
L 835.038153 391.700962 
L 839.128329 392.537639 
L 843.218506 390.166127 
L 847.308682 388.265791 
L 851.398859 380.254958 
L 855.489036 389.19681 
L 859.579212 386.979097 
L 863.669389 374.151737 
L 867.759565 387.850134 
L 871.849742 382.77111 
L 875.939918 387.395015 
L 880.030095 387.038817 
L 884.120271 386.201939 
L 888.210448 385.103703 
L 892.300625 391.387076 
L 896.390801 391.311923 
L 900.480978 393.937995 
L 904.571154 391.534362 
L 908.661331 384.726304 
L 912.751507 391.307843 
L 916.841684 393.763555 
L 925.022037 389.691968 
L 929.112214 387.723614 
L 933.20239 388.930131 
L 937.292567 390.673805 
L 941.382743 391.954521 
L 941.382743 391.954521 
" clip-path="url(#pb1d4d899ab)" style="fill: none; stroke: #ff0000; stroke-width: 1.5; stroke-linecap: round"/>
   </g>
   <g id="patch_3">
    <path d="M 86.740351 423.840956 
L 86.740351 49.831226 
" style="fill: none; stroke: #cccccc; stroke-width: 1.25; stroke-linejoin: miter; stroke-linecap: square"/>
   </g>
   <g id="patch_4">
    <path d="M 982.08 423.840956 
L 982.08 49.831226 
" style="fill: none; stroke: #cccccc; stroke-width: 1.25; stroke-linejoin: miter; stroke-linecap: square"/>
   </g>
   <g id="patch_5">
    <path d="M 86.740351 423.840956 
L 982.08 423.840956 
" style="fill: none; stroke: #cccccc; stroke-width: 1.25; stroke-linejoin: miter; stroke-linecap: square"/>
   </g>
   <g id="patch_6">
    <path d="M 86.740351 49.831226 
L 982.08 49.831226 
" style="fill: none; stroke: #cccccc; stroke-width: 1.25; stroke-linejoin: miter; stroke-linecap: square"/>
   </g>
   <g id="text_18">
    <!-- Discriminator($\mathcal{L}_{D}$) and Generator Loss ($\mathcal{L}_{G}$) vs Epoch -->
    <g style="fill: #262626" transform="translate(279.48476 43.831226) scale(0.24 -0.24)">
     <defs>
      <path id="CMSS17-44" d="M 570 4416 
L 570 0 
L 2144 0 
C 3194 0 4000 980 4000 2170 
C 4000 3398 3194 4416 2144 4416 
L 570 4416 
z
M 1094 357 
L 1094 4059 
L 2003 4059 
C 2861 4059 3475 3277 3475 2170 
C 3475 1107 2867 357 2003 357 
L 1094 357 
z
" transform="scale(0.015625)"/>
      <path id="CMSS17-69" d="M 979 4183 
L 442 4183 
L 442 3648 
L 979 3648 
L 979 4183 
z
M 947 2739 
L 474 2739 
L 474 0 
L 947 0 
L 947 2739 
z
" transform="scale(0.015625)"/>
      <path id="CMSS17-72" d="M 954 1363 
C 954 1965 1395 2368 1958 2368 
L 1958 2789 
C 1549 2789 1165 2585 934 2253 
L 934 2758 
L 480 2758 
L 480 0 
L 954 0 
L 954 1363 
z
" transform="scale(0.015625)"/>
      <path id="CMSS17-6d" d="M 4288 1877 
C 4288 2308 4179 2816 3462 2816 
C 2982 2816 2694 2516 2566 2331 
C 2451 2670 2182 2816 1798 2816 
C 1363 2816 1088 2568 941 2389 
L 941 2758 
L 474 2758 
L 474 0 
L 960 0 
L 960 1559 
C 960 1939 1101 2428 1555 2428 
C 2138 2428 2138 2016 2138 1829 
L 2138 0 
L 2624 0 
L 2624 1559 
C 2624 1939 2765 2428 3219 2428 
C 3802 2428 3802 2016 3802 1829 
L 3802 0 
L 4288 0 
L 4288 1877 
z
" transform="scale(0.015625)"/>
      <path id="CMSS17-6e" d="M 2618 1877 
C 2618 2283 2522 2816 1798 2816 
C 1389 2816 1120 2606 941 2389 
L 941 2758 
L 474 2758 
L 474 0 
L 960 0 
L 960 1559 
C 960 1964 1114 2428 1549 2428 
C 2112 2428 2131 2048 2131 1829 
L 2131 0 
L 2618 0 
L 2618 1877 
z
" transform="scale(0.015625)"/>
      <path id="CMSS17-61" d="M 2406 1791 
C 2406 2392 1978 2808 1402 2808 
C 1120 2808 813 2757 461 2553 
L 499 2135 
C 659 2248 934 2432 1395 2432 
C 1722 2432 1920 2180 1920 1782 
L 1920 1536 
C 896 1536 256 1238 256 726 
C 256 461 416 -64 947 -64 
C 1043 -64 1562 -64 1933 217 
L 1933 -19 
L 2406 -19 
L 2406 1791 
z
M 1920 816 
C 1920 701 1920 548 1728 434 
C 1562 325 1350 325 1261 325 
C 941 325 723 511 723 744 
C 723 1211 1722 1211 1920 1211 
L 1920 816 
z
" transform="scale(0.015625)"/>
      <path id="CMSS17-74" d="M 1069 2368 
L 1901 2368 
L 1901 2737 
L 1069 2737 
L 1069 3520 
L 614 3520 
L 614 2737 
L 109 2737 
L 109 2368 
L 602 2368 
L 602 749 
C 602 384 685 -64 1107 -64 
C 1427 -64 1722 25 2003 172 
L 1901 548 
C 1747 414 1562 337 1363 337 
C 1082 337 1069 696 1069 856 
L 1069 2368 
z
" transform="scale(0.015625)"/>
      <path id="CMSS17-28" d="M 1613 4768 
C 1267 4417 474 3601 474 1588 
C 474 -433 1267 -1243 1613 -1600 
L 2003 -1600 
C 1216 -784 960 357 960 1581 
C 960 2798 1203 3946 2003 4768 
L 1613 4768 
z
" transform="scale(0.015625)"/>
      <path id="CMSY10-4c" d="M 1152 610 
C 1498 1151 1606 1562 1690 1903 
C 1914 2790 2157 3562 2554 4005 
C 2630 4090 2682 4147 2886 4147 
C 3328 4147 3341 3704 3341 3613 
C 3341 3498 3309 3407 3309 3375 
C 3309 3330 3347 3330 3354 3330 
C 3456 3330 3629 3401 3789 3517 
C 3904 3607 3962 3671 3962 3934 
C 3962 4281 3782 4544 3424 4544 
C 3219 4544 2656 4493 2029 3856 
C 1517 3329 1216 2172 1094 1690 
C 979 1248 928 1048 736 662 
C 691 586 525 303 435 219 
C 262 59 198 -57 198 -89 
C 198 -102 211 -128 256 -128 
C 282 -128 416 -102 582 5 
C 691 68 704 80 851 231 
C 1171 231 1395 173 1798 58 
C 2125 -32 2451 -128 2778 -128 
C 3296 -128 3821 264 4026 546 
C 4154 719 4192 880 4192 899 
C 4192 944 4154 944 4147 944 
C 4045 944 3891 874 3782 796 
C 3610 687 3597 649 3558 539 
C 3526 436 3488 385 3462 346 
C 3411 269 3405 269 3309 269 
C 3002 269 2682 366 2259 481 
C 2080 532 1728 636 1408 636 
C 1325 636 1235 629 1152 610 
z
" transform="scale(0.015625)"/>
      <path id="CMMI12-44" d="M 1005 472 
C 947 249 934 185 486 185 
C 365 185 301 185 301 70 
C 301 0 339 0 467 0 
L 2496 0 
C 3789 0 5050 1332 5050 2753 
C 5050 3671 4499 4352 3584 4352 
L 1530 4352 
C 1408 4352 1350 4352 1350 4231 
C 1350 4167 1408 4167 1504 4167 
C 1894 4167 1894 4116 1894 4046 
C 1894 4034 1894 3995 1869 3899 
L 1005 472 
z
M 2355 3931 
C 2413 4167 2438 4167 2688 4167 
L 3392 4167 
C 3994 4167 4544 3842 4544 2963 
C 4544 2644 4416 1536 3795 835 
C 3616 625 3130 185 2394 185 
L 1664 185 
C 1574 185 1562 185 1523 192 
C 1453 198 1446 211 1446 262 
C 1446 307 1459 345 1472 402 
L 2355 3931 
z
" transform="scale(0.015625)"/>
      <path id="CMSS17-29" d="M 723 -1600 
C 1069 -1249 1862 -433 1862 1581 
C 1862 3601 1069 4411 723 4768 
L 333 4768 
C 1120 3952 1376 2811 1376 1588 
C 1376 370 1133 -778 333 -1600 
L 723 -1600 
z
" transform="scale(0.015625)"/>
      <path id="CMSS17-64" d="M 2611 4416 
L 2138 4416 
L 2138 2438 
C 1939 2603 1613 2756 1254 2756 
C 672 2756 211 2131 211 1347 
C 211 562 666 -64 1235 -64 
C 1677 -64 1971 172 2125 306 
L 2125 -13 
L 2611 -13 
L 2611 4416 
z
M 2125 836 
C 2125 747 2125 653 1926 482 
C 1798 375 1645 325 1498 325 
C 1152 325 698 576 698 1340 
C 698 2134 1210 2368 1562 2368 
C 1798 2368 1990 2254 2125 2065 
L 2125 836 
z
" transform="scale(0.015625)"/>
      <path id="CMSS17-47" d="M 3610 1856 
L 2336 1856 
L 2336 1461 
L 3123 1461 
L 3123 471 
C 2874 401 2618 350 2362 350 
C 1466 350 934 1301 934 2200 
C 934 3095 1491 4032 2362 4032 
C 2854 4032 3130 3881 3469 3627 
L 3552 4134 
C 3130 4351 2867 4440 2387 4440 
C 1146 4440 397 3324 397 2182 
C 397 1090 1152 -64 2349 -64 
C 2797 -64 3213 51 3610 248 
L 3610 1856 
z
" transform="scale(0.015625)"/>
      <path id="CMSS17-65" d="M 2502 1377 
C 2502 1590 2490 2003 2285 2345 
C 2061 2713 1696 2816 1421 2816 
C 755 2816 192 2188 192 1375 
C 192 582 774 -64 1510 -64 
C 1798 -64 2150 19 2470 248 
C 2470 274 2458 414 2451 420 
C 2451 433 2432 630 2432 656 
C 2125 407 1773 325 1517 325 
C 1107 325 666 667 646 1377 
L 2502 1377 
z
M 698 1728 
C 781 2084 1062 2421 1421 2421 
C 1517 2421 1965 2421 2080 1728 
L 698 1728 
z
" transform="scale(0.015625)"/>
      <path id="CMMI12-47" d="M 4774 4423 
C 4774 4480 4730 4480 4717 4480 
C 4704 4480 4678 4480 4627 4416 
L 4186 3889 
C 4154 3940 4026 4163 3776 4309 
C 3501 4480 3226 4480 3130 4480 
C 1760 4480 320 3095 320 1595 
C 320 546 1050 -128 2010 -128 
C 2470 -128 3053 25 3373 427 
C 3443 185 3584 12 3629 12 
C 3661 12 3667 32 3674 32 
C 3680 44 3731 270 3763 385 
L 3866 797 
C 3917 1009 3942 1099 3987 1291 
C 4051 1536 4064 1536 4416 1536 
C 4442 1536 4518 1536 4518 1666 
C 4518 1734 4454 1734 4435 1734 
C 4326 1734 4205 1734 4090 1734 
L 3744 1734 
C 3475 1734 3194 1734 2931 1734 
C 2874 1734 2797 1734 2797 1611 
C 2797 1542 2848 1542 2848 1536 
L 3008 1536 
C 3514 1536 3514 1489 3514 1402 
C 3514 1395 3392 751 3270 561 
C 3027 204 2522 57 2144 57 
C 1651 57 851 312 851 1410 
C 851 1836 1005 2808 1626 3526 
C 2029 3984 2624 4295 3187 4295 
C 3942 4295 4211 3655 4211 3071 
C 4211 2970 4186 2831 4186 2742 
C 4186 2685 4250 2685 4269 2685 
C 4339 2685 4346 2691 4371 2805 
L 4774 4423 
z
" transform="scale(0.015625)"/>
      <path id="CMSS17-76" d="M 2675 2752 
L 2176 2752 
L 1747 1556 
C 1613 1165 1421 627 1389 352 
L 1382 352 
C 1370 468 1318 634 1286 749 
C 1248 890 1197 1056 1158 1172 
L 595 2752 
L 83 2752 
L 1094 0 
L 1664 0 
L 2675 2752 
z
" transform="scale(0.015625)"/>
     </defs>
     <use xlink:href="#CMSS17-44" transform="scale(0.996264)"/>
     <use xlink:href="#CMSS17-69" transform="translate(67.542842 0) scale(0.996264)"/>
     <use xlink:href="#CMSS17-73" transform="translate(89.723565 0) scale(0.996264)"/>
     <use xlink:href="#CMSS17-63" transform="translate(125.637107 0) scale(0.996264)"/>
     <use xlink:href="#CMSS17-72" transform="translate(167.275929 0) scale(0.996264)"/>
     <use xlink:href="#CMSS17-69" transform="translate(199.185701 0) scale(0.996264)"/>
     <use xlink:href="#CMSS17-6d" transform="translate(221.366424 0) scale(0.996264)"/>
     <use xlink:href="#CMSS17-69" transform="translate(295.595679 0) scale(0.996264)"/>
     <use xlink:href="#CMSS17-6e" transform="translate(317.776402 0) scale(0.996264)"/>
     <use xlink:href="#CMSS17-61" transform="translate(365.981345 0) scale(0.996264)"/>
     <use xlink:href="#CMSS17-74" transform="translate(410.903266 0) scale(0.996264)"/>
     <use xlink:href="#CMSS17-6f" transform="translate(444.734832 0) scale(0.996264)"/>
     <use xlink:href="#CMSS17-72" transform="translate(488.976002 0) scale(0.996264)"/>
     <use xlink:href="#CMSS17-28" transform="translate(520.885774 0) scale(0.996264)"/>
     <use xlink:href="#CMSY10-4c" transform="translate(557.319689 0) scale(0.996264)"/>
     <use xlink:href="#CMMI12-44" transform="translate(626.034496 -14.943915) scale(0.697382)"/>
     <use xlink:href="#CMSS17-29" transform="translate(685.125132 0) scale(0.996264)"/>
     <use xlink:href="#CMSS17-61" transform="translate(752.788159 0) scale(0.996264)"/>
     <use xlink:href="#CMSS17-6e" transform="translate(797.71008 0) scale(0.996264)"/>
     <use xlink:href="#CMSS17-64" transform="translate(845.915023 0) scale(0.996264)"/>
     <use xlink:href="#CMSS17-47" transform="translate(925.349079 0) scale(0.996264)"/>
     <use xlink:href="#CMSS17-65" transform="translate(987.807304 0) scale(0.996264)"/>
     <use xlink:href="#CMSS17-6e" transform="translate(1029.446126 0) scale(0.996264)"/>
     <use xlink:href="#CMSS17-65" transform="translate(1077.651069 0) scale(0.996264)"/>
     <use xlink:href="#CMSS17-72" transform="translate(1119.289891 0) scale(0.996264)"/>
     <use xlink:href="#CMSS17-61" transform="translate(1151.199664 0) scale(0.996264)"/>
     <use xlink:href="#CMSS17-74" transform="translate(1196.121584 0) scale(0.996264)"/>
     <use xlink:href="#CMSS17-6f" transform="translate(1229.953151 0) scale(0.996264)"/>
     <use xlink:href="#CMSS17-72" transform="translate(1274.194321 0) scale(0.996264)"/>
     <use xlink:href="#CMSS17-4c" transform="translate(1337.333206 0) scale(0.996264)"/>
     <use xlink:href="#CMSS17-6f" transform="translate(1388.020311 0) scale(0.996264)"/>
     <use xlink:href="#CMSS17-73" transform="translate(1434.863935 0) scale(0.996264)"/>
     <use xlink:href="#CMSS17-73" transform="translate(1470.777477 0) scale(0.996264)"/>
     <use xlink:href="#CMSS17-28" transform="translate(1537.920132 0) scale(0.996264)"/>
     <use xlink:href="#CMSY10-4c" transform="translate(1574.354046 0) scale(0.996264)"/>
     <use xlink:href="#CMMI12-47" transform="translate(1643.068854 -14.943915) scale(0.697382)"/>
     <use xlink:href="#CMSS17-29" transform="translate(1697.429546 0) scale(0.996264)"/>
     <use xlink:href="#CMSS17-76" transform="translate(1765.092573 0) scale(0.996264)"/>
     <use xlink:href="#CMSS17-73" transform="translate(1808.092714 0) scale(0.996264)"/>
     <use xlink:href="#CMSS17-45" transform="translate(1875.235369 0) scale(0.996264)"/>
     <use xlink:href="#CMSS17-70" transform="translate(1931.127382 0) scale(0.996264)"/>
     <use xlink:href="#CMSS17-6f" transform="translate(1981.934764 0) scale(0.996264)"/>
     <use xlink:href="#CMSS17-63" transform="translate(2031.380827 0) scale(0.996264)"/>
     <use xlink:href="#CMSS17-68" transform="translate(2073.019649 0) scale(0.996264)"/>
    </g>
   </g>
   <g id="legend_1">
    <g id="patch_7">
     <path d="M 781.770978 273.015834 
L 966.68 273.015834 
Q 971.08 273.015834 971.08 268.615834 
L 971.08 205.056348 
Q 971.08 200.656348 966.68 200.656348 
L 781.770978 200.656348 
Q 777.370978 200.656348 777.370978 205.056348 
L 777.370978 268.615834 
Q 777.370978 273.015834 781.770978 273.015834 
z
" style="fill: #ffffff; opacity: 0.8; stroke: #cccccc; stroke-linejoin: miter"/>
    </g>
    <g id="line2d_18">
     <path d="M 786.170978 218.174973 
L 808.170978 218.174973 
L 830.170978 218.174973 
" style="fill: none; stroke: #0000ff; stroke-width: 1.5; stroke-linecap: round"/>
    </g>
    <g id="text_19">
     <!-- $\mathcal{L}_{D}$ (Median) -->
     <g style="fill: #262626" transform="translate(847.770978 225.874973) scale(0.22 -0.22)">
      <defs>
       <path id="CMSS17-4d" d="M 3194 2371 
L 2886 1473 
C 2835 1307 2662 791 2624 587 
L 2618 587 
C 2598 715 2560 849 2458 1174 
C 2400 1365 2336 1562 2272 1741 
L 1325 4416 
L 576 4416 
L 576 0 
L 1075 0 
L 1075 3900 
L 1082 3900 
C 1082 3894 1139 3613 1530 2499 
L 2374 96 
L 2848 96 
L 3610 2231 
C 3661 2378 3821 2843 3891 3066 
C 3955 3257 4115 3728 4154 3913 
L 4160 3913 
L 4160 0 
L 4666 0 
L 4666 4416 
L 3923 4416 
L 3194 2371 
z
" transform="scale(0.015625)"/>
      </defs>
      <use xlink:href="#CMSY10-4c" transform="scale(0.996264)"/>
      <use xlink:href="#CMMI12-44" transform="translate(68.714808 -14.943915) scale(0.697382)"/>
      <use xlink:href="#CMSS17-28" transform="translate(159.034556 0) scale(0.996264)"/>
      <use xlink:href="#CMSS17-4d" transform="translate(195.46847 0) scale(0.996264)"/>
      <use xlink:href="#CMSS17-65" transform="translate(277.1445 0) scale(0.996264)"/>
      <use xlink:href="#CMSS17-64" transform="translate(318.783322 0) scale(0.996264)"/>
      <use xlink:href="#CMSS17-69" transform="translate(366.988265 0) scale(0.996264)"/>
      <use xlink:href="#CMSS17-61" transform="translate(389.168988 0) scale(0.996264)"/>
      <use xlink:href="#CMSS17-6e" transform="translate(434.090909 0) scale(0.996264)"/>
      <use xlink:href="#CMSS17-29" transform="translate(482.295852 0) scale(0.996264)"/>
     </g>
    </g>
    <g id="line2d_19">
     <path d="M 786.170978 251.054716 
L 808.170978 251.054716 
L 830.170978 251.054716 
" style="fill: none; stroke: #ff0000; stroke-width: 1.5; stroke-linecap: round"/>
    </g>
    <g id="text_20">
     <!-- $\mathcal{L}_{G}$ (Median) -->
     <g style="fill: #262626" transform="translate(847.770978 258.754716) scale(0.22 -0.22)">
      <use xlink:href="#CMSY10-4c" transform="scale(0.996264)"/>
      <use xlink:href="#CMMI12-47" transform="translate(68.714808 -14.943915) scale(0.697382)"/>
      <use xlink:href="#CMSS17-28" transform="translate(154.304613 0) scale(0.996264)"/>
      <use xlink:href="#CMSS17-4d" transform="translate(190.738527 0) scale(0.996264)"/>
      <use xlink:href="#CMSS17-65" transform="translate(272.414557 0) scale(0.996264)"/>
      <use xlink:href="#CMSS17-64" transform="translate(314.053379 0) scale(0.996264)"/>
      <use xlink:href="#CMSS17-69" transform="translate(362.258322 0) scale(0.996264)"/>
      <use xlink:href="#CMSS17-61" transform="translate(384.439045 0) scale(0.996264)"/>
      <use xlink:href="#CMSS17-6e" transform="translate(429.360966 0) scale(0.996264)"/>
      <use xlink:href="#CMSS17-29" transform="translate(477.565909 0) scale(0.996264)"/>
     </g>
    </g>
   </g>
  </g>
 </g>
 <defs>
  <clipPath id="pb1d4d899ab">
   <rect x="86.740351" y="49.831226" width="895.339649" height="374.00973"/>
  </clipPath>
 </defs>
</svg>
