<?xml version="1.0" encoding="utf-8" standalone="no"?>
<!DOCTYPE svg PUBLIC "-//W3C//DTD SVG 1.1//EN"
  "http://www.w3.org/Graphics/SVG/1.1/DTD/svg11.dtd">
<svg xmlns:xlink="http://www.w3.org/1999/xlink" width="720pt" height="576pt" viewBox="0 0 720 576" xmlns="http://www.w3.org/2000/svg" version="1.1">
 <metadata>
  <rdf:RDF xmlns:dc="http://purl.org/dc/elements/1.1/" xmlns:cc="http://creativecommons.org/ns#" xmlns:rdf="http://www.w3.org/1999/02/22-rdf-syntax-ns#">
   <cc:Work>
    <dc:type rdf:resource="http://purl.org/dc/dcmitype/StillImage"/>
    <dc:date>2025-04-24T10:46:41.651286</dc:date>
    <dc:format>image/svg+xml</dc:format>
    <dc:creator>
     <cc:Agent>
      <dc:title>Matplotlib v3.9.2, https://matplotlib.org/</dc:title>
     </cc:Agent>
    </dc:creator>
   </cc:Work>
  </rdf:RDF>
 </metadata>
 <defs>
  <style type="text/css">*{stroke-linejoin: round; stroke-linecap: butt}</style>
 </defs>
 <g id="figure_1">
  <g id="patch_1">
   <path d="M 0 576 
L 720 576 
L 720 0 
L 0 0 
z
" style="fill: #ffffff"/>
  </g>
  <g id="axes_1">
   <g id="patch_2">
    <path d="M 109.457804 495.840956 
L 694.08 495.840956 
L 694.08 49.831226 
L 109.457804 49.831226 
z
" style="fill: #ffffff"/>
   </g>
   <g id="matplotlib.axis_1">
    <g id="xtick_1">
     <g id="line2d_1">
      <path d="M 133.360813 495.840956 
L 133.360813 49.831226 
" clip-path="url(#pa0576426de)" style="fill: none; stroke: #cccccc; stroke-linecap: round"/>
     </g>
     <g id="text_1">
      <!-- $\mathdefault{0}$ -->
      <g style="fill: #262626" transform="translate(128.33486 520.56165) scale(0.22 -0.22)">
       <defs>
        <path id="CMR17-30" d="M 2688 2025 
C 2688 2416 2682 3080 2413 3591 
C 2176 4039 1798 4198 1466 4198 
C 1158 4198 768 4058 525 3597 
C 269 3118 243 2524 243 2025 
C 243 1661 250 1106 448 619 
C 723 -39 1216 -128 1466 -128 
C 1760 -128 2208 -7 2470 600 
C 2662 1042 2688 1559 2688 2025 
z
M 1466 -26 
C 1056 -26 813 325 723 812 
C 653 1188 653 1738 653 2096 
C 653 2588 653 2997 736 3387 
C 858 3929 1216 4096 1466 4096 
C 1728 4096 2067 3923 2189 3400 
C 2272 3036 2278 2607 2278 2096 
C 2278 1680 2278 1169 2202 792 
C 2067 95 1690 -26 1466 -26 
z
" transform="scale(0.015625)"/>
       </defs>
       <use xlink:href="#CMR17-30" transform="scale(0.996264)"/>
      </g>
     </g>
    </g>
    <g id="xtick_2">
     <g id="line2d_2">
      <path d="M 266.897175 495.840956 
L 266.897175 49.831226 
" clip-path="url(#pa0576426de)" style="fill: none; stroke: #cccccc; stroke-linecap: round"/>
     </g>
     <g id="text_2">
      <!-- $\mathdefault{50}$ -->
      <g style="fill: #262626" transform="translate(256.845271 520.56165) scale(0.22 -0.22)">
       <defs>
        <path id="CMR17-35" d="M 730 3692 
C 794 3666 1056 3584 1325 3584 
C 1920 3584 2246 3911 2432 4100 
C 2432 4157 2432 4192 2394 4192 
C 2387 4192 2374 4192 2323 4163 
C 2099 4058 1837 3973 1517 3973 
C 1325 3973 1037 3999 723 4139 
C 653 4171 640 4171 634 4171 
C 602 4171 595 4164 595 4037 
L 595 2203 
C 595 2089 595 2057 659 2057 
C 691 2057 704 2070 736 2114 
C 941 2401 1222 2522 1542 2522 
C 1766 2522 2246 2382 2246 1289 
C 2246 1085 2246 715 2054 421 
C 1894 159 1645 25 1370 25 
C 947 25 518 320 403 814 
C 429 807 480 795 506 795 
C 589 795 749 840 749 1038 
C 749 1210 627 1280 506 1280 
C 358 1280 262 1190 262 1011 
C 262 454 704 -128 1382 -128 
C 2042 -128 2669 440 2669 1264 
C 2669 2030 2170 2624 1549 2624 
C 1222 2624 947 2503 730 2274 
L 730 3692 
z
" transform="scale(0.015625)"/>
       </defs>
       <use xlink:href="#CMR17-35" transform="scale(0.996264)"/>
       <use xlink:href="#CMR17-30" transform="translate(45.690477 0) scale(0.996264)"/>
      </g>
     </g>
    </g>
    <g id="xtick_3">
     <g id="line2d_3">
      <path d="M 400.433538 495.840956 
L 400.433538 49.831226 
" clip-path="url(#pa0576426de)" style="fill: none; stroke: #cccccc; stroke-linecap: round"/>
     </g>
     <g id="text_3">
      <!-- $\mathdefault{100}$ -->
      <g style="fill: #262626" transform="translate(385.355681 520.56165) scale(0.22 -0.22)">
       <defs>
        <path id="CMR17-31" d="M 1702 4058 
C 1702 4192 1696 4192 1606 4192 
C 1357 3916 979 3827 621 3827 
C 602 3827 570 3827 563 3808 
C 557 3795 557 3782 557 3648 
C 755 3648 1088 3686 1344 3839 
L 1344 461 
C 1344 236 1331 160 781 160 
L 589 160 
L 589 0 
C 896 0 1216 0 1523 0 
C 1830 0 2150 0 2458 0 
L 2458 160 
L 2266 160 
C 1715 160 1702 230 1702 458 
L 1702 4058 
z
" transform="scale(0.015625)"/>
       </defs>
       <use xlink:href="#CMR17-31" transform="scale(0.996264)"/>
       <use xlink:href="#CMR17-30" transform="translate(45.690477 0) scale(0.996264)"/>
       <use xlink:href="#CMR17-30" transform="translate(91.380954 0) scale(0.996264)"/>
      </g>
     </g>
    </g>
    <g id="xtick_4">
     <g id="line2d_4">
      <path d="M 533.969901 495.840956 
L 533.969901 49.831226 
" clip-path="url(#pa0576426de)" style="fill: none; stroke: #cccccc; stroke-linecap: round"/>
     </g>
     <g id="text_4">
      <!-- $\mathdefault{150}$ -->
      <g style="fill: #262626" transform="translate(518.892044 520.56165) scale(0.22 -0.22)">
       <use xlink:href="#CMR17-31" transform="scale(0.996264)"/>
       <use xlink:href="#CMR17-35" transform="translate(45.690477 0) scale(0.996264)"/>
       <use xlink:href="#CMR17-30" transform="translate(91.380954 0) scale(0.996264)"/>
      </g>
     </g>
    </g>
    <g id="xtick_5">
     <g id="line2d_5">
      <path d="M 667.506264 495.840956 
L 667.506264 49.831226 
" clip-path="url(#pa0576426de)" style="fill: none; stroke: #cccccc; stroke-linecap: round"/>
     </g>
     <g id="text_5">
      <!-- $\mathdefault{200}$ -->
      <g style="fill: #262626" transform="translate(652.428406 520.56165) scale(0.22 -0.22)">
       <defs>
        <path id="CMR17-32" d="M 2669 989 
L 2554 989 
C 2490 536 2438 459 2413 420 
C 2381 369 1920 369 1830 369 
L 602 369 
C 832 619 1280 1072 1824 1597 
C 2214 1967 2669 2402 2669 3035 
C 2669 3790 2067 4224 1395 4224 
C 691 4224 262 3604 262 3030 
C 262 2780 448 2748 525 2748 
C 589 2748 781 2787 781 3010 
C 781 3207 614 3264 525 3264 
C 486 3264 448 3258 422 3245 
C 544 3790 915 4058 1306 4058 
C 1862 4058 2227 3617 2227 3035 
C 2227 2479 1901 2000 1536 1584 
L 262 146 
L 262 0 
L 2515 0 
L 2669 989 
z
" transform="scale(0.015625)"/>
       </defs>
       <use xlink:href="#CMR17-32" transform="scale(0.996264)"/>
       <use xlink:href="#CMR17-30" transform="translate(45.690477 0) scale(0.996264)"/>
       <use xlink:href="#CMR17-30" transform="translate(91.380954 0) scale(0.996264)"/>
      </g>
     </g>
    </g>
    <g id="text_6">
     <!-- Epoch -->
     <g style="fill: #262626" transform="translate(372.25021 545.429243) scale(0.24 -0.24)">
      <defs>
       <path id="CMSS17-45" d="M 1958 433 
C 1446 433 1216 433 1101 433 
L 1101 2107 
L 3085 2107 
L 3085 2496 
L 1101 2496 
L 1101 4009 
L 1926 4009 
C 2003 4009 2080 4009 2157 4009 
L 3251 4009 
L 3251 4416 
L 563 4416 
L 563 0 
L 3334 0 
L 3334 433 
L 1958 433 
z
" transform="scale(0.015625)"/>
       <path id="CMSS17-70" d="M 966 333 
C 1178 129 1466 -5 1773 -5 
C 2368 -5 2880 603 2880 1412 
C 2880 2159 2496 2816 1946 2816 
C 1626 2816 1242 2702 954 2472 
L 954 2765 
L 480 2765 
L 480 -1216 
L 966 -1216 
L 966 333 
z
M 966 2100 
C 1018 2176 1235 2415 1587 2415 
C 2035 2415 2394 1960 2394 1412 
C 2394 787 1958 384 1530 384 
C 1402 384 1267 415 1139 523 
C 966 674 966 768 966 857 
L 966 2100 
z
" transform="scale(0.015625)"/>
       <path id="CMSS17-6f" d="M 2829 1356 
C 2829 2176 2221 2816 1504 2816 
C 768 2816 173 2157 173 1356 
C 173 544 787 -64 1498 -64 
C 2227 -64 2829 563 2829 1356 
z
M 1504 337 
C 1050 337 659 709 659 1408 
C 659 2151 1114 2427 1498 2427 
C 1914 2427 2342 2126 2342 1408 
C 2342 683 1926 337 1504 337 
z
" transform="scale(0.015625)"/>
       <path id="CMSS17-63" d="M 2464 2541 
C 2464 2585 2170 2714 2093 2739 
C 1882 2816 1613 2816 1542 2816 
C 710 2816 211 2093 211 1363 
C 211 595 768 -64 1517 -64 
C 1946 -64 2253 76 2502 242 
L 2464 664 
C 2189 453 1869 337 1523 337 
C 1024 337 698 774 698 1369 
C 698 1831 909 2414 1549 2414 
C 1901 2414 2099 2343 2394 2145 
L 2464 2541 
z
" transform="scale(0.015625)"/>
       <path id="CMSS17-68" d="M 2618 1891 
C 2618 2292 2522 2820 1798 2820 
C 1395 2820 1133 2623 947 2407 
L 947 4448 
L 474 4448 
L 474 32 
L 960 32 
L 960 1573 
C 960 1973 1114 2432 1549 2432 
C 2112 2432 2131 2056 2131 1839 
L 2131 32 
L 2618 32 
L 2618 1891 
z
" transform="scale(0.015625)"/>
      </defs>
      <use xlink:href="#CMSS17-45" transform="scale(0.996264)"/>
      <use xlink:href="#CMSS17-70" transform="translate(55.892013 0) scale(0.996264)"/>
      <use xlink:href="#CMSS17-6f" transform="translate(106.699395 0) scale(0.996264)"/>
      <use xlink:href="#CMSS17-63" transform="translate(156.145457 0) scale(0.996264)"/>
      <use xlink:href="#CMSS17-68" transform="translate(197.784279 0) scale(0.996264)"/>
     </g>
    </g>
   </g>
   <g id="matplotlib.axis_2">
    <g id="ytick_1">
     <g id="line2d_6">
      <path d="M 109.457804 492.906682 
L 694.08 492.906682 
" clip-path="url(#pa0576426de)" style="fill: none; stroke: #cccccc; stroke-linecap: round"/>
     </g>
     <g id="text_7">
      <!-- $\mathdefault{0.015}$ -->
      <g style="fill: #262626" transform="translate(53.788805 500.517028) scale(0.22 -0.22)">
       <defs>
        <path id="CMMI12-3a" d="M 1178 307 
C 1178 492 1024 619 870 619 
C 685 619 557 466 557 313 
C 557 128 710 0 864 0 
C 1050 0 1178 153 1178 307 
z
" transform="scale(0.015625)"/>
       </defs>
       <use xlink:href="#CMR17-30" transform="scale(0.996264)"/>
       <use xlink:href="#CMMI12-3a" transform="translate(45.690477 0) scale(0.996264)"/>
       <use xlink:href="#CMR17-30" transform="translate(72.787654 0) scale(0.996264)"/>
       <use xlink:href="#CMR17-31" transform="translate(118.478131 0) scale(0.996264)"/>
       <use xlink:href="#CMR17-35" transform="translate(164.168608 0) scale(0.996264)"/>
      </g>
     </g>
    </g>
    <g id="ytick_2">
     <g id="line2d_7">
      <path d="M 109.457804 410.56237 
L 694.08 410.56237 
" clip-path="url(#pa0576426de)" style="fill: none; stroke: #cccccc; stroke-linecap: round"/>
     </g>
     <g id="text_8">
      <!-- $\mathdefault{0.020}$ -->
      <g style="fill: #262626" transform="translate(53.788805 418.172717) scale(0.22 -0.22)">
       <use xlink:href="#CMR17-30" transform="scale(0.996264)"/>
       <use xlink:href="#CMMI12-3a" transform="translate(45.690477 0) scale(0.996264)"/>
       <use xlink:href="#CMR17-30" transform="translate(72.787654 0) scale(0.996264)"/>
       <use xlink:href="#CMR17-32" transform="translate(118.478131 0) scale(0.996264)"/>
       <use xlink:href="#CMR17-30" transform="translate(164.168608 0) scale(0.996264)"/>
      </g>
     </g>
    </g>
    <g id="ytick_3">
     <g id="line2d_8">
      <path d="M 109.457804 328.218058 
L 694.08 328.218058 
" clip-path="url(#pa0576426de)" style="fill: none; stroke: #cccccc; stroke-linecap: round"/>
     </g>
     <g id="text_9">
      <!-- $\mathdefault{0.025}$ -->
      <g style="fill: #262626" transform="translate(53.788805 335.828405) scale(0.22 -0.22)">
       <use xlink:href="#CMR17-30" transform="scale(0.996264)"/>
       <use xlink:href="#CMMI12-3a" transform="translate(45.690477 0) scale(0.996264)"/>
       <use xlink:href="#CMR17-30" transform="translate(72.787654 0) scale(0.996264)"/>
       <use xlink:href="#CMR17-32" transform="translate(118.478131 0) scale(0.996264)"/>
       <use xlink:href="#CMR17-35" transform="translate(164.168608 0) scale(0.996264)"/>
      </g>
     </g>
    </g>
    <g id="ytick_4">
     <g id="line2d_9">
      <path d="M 109.457804 245.873747 
L 694.08 245.873747 
" clip-path="url(#pa0576426de)" style="fill: none; stroke: #cccccc; stroke-linecap: round"/>
     </g>
     <g id="text_10">
      <!-- $\mathdefault{0.030}$ -->
      <g style="fill: #262626" transform="translate(53.788805 253.484093) scale(0.22 -0.22)">
       <defs>
        <path id="CMR17-33" d="M 1414 2157 
C 1984 2157 2234 1662 2234 1090 
C 2234 320 1824 25 1453 25 
C 1114 25 563 194 390 693 
C 422 680 454 680 486 680 
C 640 680 755 782 755 948 
C 755 1133 614 1216 486 1216 
C 378 1216 211 1165 211 926 
C 211 335 787 -128 1466 -128 
C 2176 -128 2720 430 2720 1085 
C 2720 1707 2208 2157 1600 2227 
C 2086 2328 2554 2756 2554 3329 
C 2554 3820 2048 4179 1472 4179 
C 890 4179 378 3829 378 3329 
C 378 3110 544 3072 627 3072 
C 762 3072 877 3155 877 3321 
C 877 3486 762 3569 627 3569 
C 602 3569 570 3569 544 3557 
C 730 3959 1235 4032 1459 4032 
C 1683 4032 2106 3925 2106 3320 
C 2106 3143 2080 2828 1862 2550 
C 1670 2304 1453 2304 1242 2284 
C 1210 2284 1062 2269 1037 2269 
C 992 2263 966 2257 966 2208 
C 966 2163 973 2157 1101 2157 
L 1414 2157 
z
" transform="scale(0.015625)"/>
       </defs>
       <use xlink:href="#CMR17-30" transform="scale(0.996264)"/>
       <use xlink:href="#CMMI12-3a" transform="translate(45.690477 0) scale(0.996264)"/>
       <use xlink:href="#CMR17-30" transform="translate(72.787654 0) scale(0.996264)"/>
       <use xlink:href="#CMR17-33" transform="translate(118.478131 0) scale(0.996264)"/>
       <use xlink:href="#CMR17-30" transform="translate(164.168608 0) scale(0.996264)"/>
      </g>
     </g>
    </g>
    <g id="ytick_5">
     <g id="line2d_10">
      <path d="M 109.457804 163.529435 
L 694.08 163.529435 
" clip-path="url(#pa0576426de)" style="fill: none; stroke: #cccccc; stroke-linecap: round"/>
     </g>
     <g id="text_11">
      <!-- $\mathdefault{0.035}$ -->
      <g style="fill: #262626" transform="translate(53.788805 171.139782) scale(0.22 -0.22)">
       <use xlink:href="#CMR17-30" transform="scale(0.996264)"/>
       <use xlink:href="#CMMI12-3a" transform="translate(45.690477 0) scale(0.996264)"/>
       <use xlink:href="#CMR17-30" transform="translate(72.787654 0) scale(0.996264)"/>
       <use xlink:href="#CMR17-33" transform="translate(118.478131 0) scale(0.996264)"/>
       <use xlink:href="#CMR17-35" transform="translate(164.168608 0) scale(0.996264)"/>
      </g>
     </g>
    </g>
    <g id="ytick_6">
     <g id="line2d_11">
      <path d="M 109.457804 81.185123 
L 694.08 81.185123 
" clip-path="url(#pa0576426de)" style="fill: none; stroke: #cccccc; stroke-linecap: round"/>
     </g>
     <g id="text_12">
      <!-- $\mathdefault{0.040}$ -->
      <g style="fill: #262626" transform="translate(53.788805 88.79547) scale(0.22 -0.22)">
       <defs>
        <path id="CMR17-34" d="M 2150 4122 
C 2150 4256 2144 4256 2029 4256 
L 128 1254 
L 128 1088 
L 1779 1088 
L 1779 457 
C 1779 224 1766 160 1318 160 
L 1197 160 
L 1197 0 
C 1402 0 1747 0 1965 0 
C 2182 0 2528 0 2733 0 
L 2733 160 
L 2611 160 
C 2163 160 2150 224 2150 457 
L 2150 1088 
L 2803 1088 
L 2803 1254 
L 2150 1254 
L 2150 4122 
z
M 1798 3703 
L 1798 1254 
L 256 1254 
L 1798 3703 
z
" transform="scale(0.015625)"/>
       </defs>
       <use xlink:href="#CMR17-30" transform="scale(0.996264)"/>
       <use xlink:href="#CMMI12-3a" transform="translate(45.690477 0) scale(0.996264)"/>
       <use xlink:href="#CMR17-30" transform="translate(72.787654 0) scale(0.996264)"/>
       <use xlink:href="#CMR17-34" transform="translate(118.478131 0) scale(0.996264)"/>
       <use xlink:href="#CMR17-30" transform="translate(164.168608 0) scale(0.996264)"/>
      </g>
     </g>
    </g>
    <g id="text_13">
     <!-- Reconstruction Loss (LossG_recon) -->
     <g style="fill: #262626" transform="translate(43.831226 436.247856) rotate(-90) scale(0.24 -0.24)">
      <defs>
       <path id="CMSS17-52" d="M 2522 2109 
L 2534 2115 
C 3533 2459 3539 3147 3539 3268 
C 3539 3873 2925 4453 2003 4453 
L 570 4453 
L 570 32 
L 1094 32 
L 1094 2048 
L 2035 2048 
L 3168 32 
L 3706 32 
L 2522 2109 
z
M 1094 2437 
L 1094 4096 
L 1933 4096 
C 2746 4096 3034 3637 3034 3267 
C 3034 2922 2778 2437 1933 2437 
L 1094 2437 
z
" transform="scale(0.015625)"/>
       <path id="CMSS17-65" d="M 2502 1377 
C 2502 1590 2490 2003 2285 2345 
C 2061 2713 1696 2816 1421 2816 
C 755 2816 192 2188 192 1375 
C 192 582 774 -64 1510 -64 
C 1798 -64 2150 19 2470 248 
C 2470 274 2458 414 2451 420 
C 2451 433 2432 630 2432 656 
C 2125 407 1773 325 1517 325 
C 1107 325 666 667 646 1377 
L 2502 1377 
z
M 698 1728 
C 781 2084 1062 2421 1421 2421 
C 1517 2421 1965 2421 2080 1728 
L 698 1728 
z
" transform="scale(0.015625)"/>
       <path id="CMSS17-6e" d="M 2618 1877 
C 2618 2283 2522 2816 1798 2816 
C 1389 2816 1120 2606 941 2389 
L 941 2758 
L 474 2758 
L 474 0 
L 960 0 
L 960 1559 
C 960 1964 1114 2428 1549 2428 
C 2112 2428 2131 2048 2131 1829 
L 2131 0 
L 2618 0 
L 2618 1877 
z
" transform="scale(0.015625)"/>
       <path id="CMSS17-73" d="M 2061 2627 
C 1683 2807 1389 2807 1197 2807 
C 742 2807 198 2648 198 2003 
C 198 1359 902 1218 1094 1179 
C 1389 1122 1715 1058 1715 740 
C 1715 337 1254 337 1171 337 
C 915 337 563 407 243 638 
L 166 210 
C 531 0 883 -64 1178 -64 
C 1965 -64 2163 416 2163 781 
C 2163 1094 1984 1305 1862 1401 
C 1651 1568 1574 1587 1050 1696 
C 960 1709 646 1779 646 2066 
C 646 2432 1050 2432 1139 2432 
C 1555 2432 1811 2303 1984 2208 
L 2061 2627 
z
" transform="scale(0.015625)"/>
       <path id="CMSS17-74" d="M 1069 2368 
L 1901 2368 
L 1901 2737 
L 1069 2737 
L 1069 3520 
L 614 3520 
L 614 2737 
L 109 2737 
L 109 2368 
L 602 2368 
L 602 749 
C 602 384 685 -64 1107 -64 
C 1427 -64 1722 25 2003 172 
L 1901 548 
C 1747 414 1562 337 1363 337 
C 1082 337 1069 696 1069 856 
L 1069 2368 
z
" transform="scale(0.015625)"/>
       <path id="CMSS17-72" d="M 954 1363 
C 954 1965 1395 2368 1958 2368 
L 1958 2789 
C 1549 2789 1165 2585 934 2253 
L 934 2758 
L 480 2758 
L 480 0 
L 954 0 
L 954 1363 
z
" transform="scale(0.015625)"/>
       <path id="CMSS17-75" d="M 2618 2739 
L 2131 2739 
L 2131 972 
C 2131 498 1786 306 1421 306 
C 998 306 960 447 960 709 
L 960 2739 
L 474 2739 
L 474 678 
C 474 179 646 -64 1088 -64 
C 1306 -64 1798 -13 2144 306 
L 2144 0 
L 2618 0 
L 2618 2739 
z
" transform="scale(0.015625)"/>
       <path id="CMSS17-69" d="M 979 4183 
L 442 4183 
L 442 3648 
L 979 3648 
L 979 4183 
z
M 947 2739 
L 474 2739 
L 474 0 
L 947 0 
L 947 2739 
z
" transform="scale(0.015625)"/>
       <path id="CMSS17-4c" d="M 1670 414 
C 1594 414 1517 414 1440 414 
L 1101 414 
L 1101 4416 
L 563 4416 
L 563 0 
L 3002 0 
L 3002 414 
L 1670 414 
z
" transform="scale(0.015625)"/>
       <path id="CMSS17-28" d="M 1613 4768 
C 1267 4417 474 3601 474 1588 
C 474 -433 1267 -1243 1613 -1600 
L 2003 -1600 
C 1216 -784 960 357 960 1581 
C 960 2798 1203 3946 2003 4768 
L 1613 4768 
z
" transform="scale(0.015625)"/>
       <path id="CMSS17-47" d="M 3610 1856 
L 2336 1856 
L 2336 1461 
L 3123 1461 
L 3123 471 
C 2874 401 2618 350 2362 350 
C 1466 350 934 1301 934 2200 
C 934 3095 1491 4032 2362 4032 
C 2854 4032 3130 3881 3469 3627 
L 3552 4134 
C 3130 4351 2867 4440 2387 4440 
C 1146 4440 397 3324 397 2182 
C 397 1090 1152 -64 2349 -64 
C 2797 -64 3213 51 3610 248 
L 3610 1856 
z
" transform="scale(0.015625)"/>
       <path id="CMSS17-29" d="M 723 -1600 
C 1069 -1249 1862 -433 1862 1581 
C 1862 3601 1069 4411 723 4768 
L 333 4768 
C 1120 3952 1376 2811 1376 1588 
C 1376 370 1133 -778 333 -1600 
L 723 -1600 
z
" transform="scale(0.015625)"/>
      </defs>
      <use xlink:href="#CMSS17-52" transform="scale(0.996264)"/>
      <use xlink:href="#CMSS17-65" transform="translate(60.416155 0) scale(0.996264)"/>
      <use xlink:href="#CMSS17-63" transform="translate(102.054977 0) scale(0.996264)"/>
      <use xlink:href="#CMSS17-6f" transform="translate(143.693799 0) scale(0.996264)"/>
      <use xlink:href="#CMSS17-6e" transform="translate(190.537423 0) scale(0.996264)"/>
      <use xlink:href="#CMSS17-73" transform="translate(238.742366 0) scale(0.996264)"/>
      <use xlink:href="#CMSS17-74" transform="translate(274.655908 0) scale(0.996264)"/>
      <use xlink:href="#CMSS17-72" transform="translate(308.487474 0) scale(0.996264)"/>
      <use xlink:href="#CMSS17-75" transform="translate(340.397247 0) scale(0.996264)"/>
      <use xlink:href="#CMSS17-63" transform="translate(388.60219 0) scale(0.996264)"/>
      <use xlink:href="#CMSS17-74" transform="translate(430.241012 0) scale(0.996264)"/>
      <use xlink:href="#CMSS17-69" transform="translate(464.072579 0) scale(0.996264)"/>
      <use xlink:href="#CMSS17-6f" transform="translate(486.253302 0) scale(0.996264)"/>
      <use xlink:href="#CMSS17-6e" transform="translate(533.096925 0) scale(0.996264)"/>
      <use xlink:href="#CMSS17-4c" transform="translate(612.530981 0) scale(0.996264)"/>
      <use xlink:href="#CMSS17-6f" transform="translate(663.218087 0) scale(0.996264)"/>
      <use xlink:href="#CMSS17-73" transform="translate(710.06171 0) scale(0.996264)"/>
      <use xlink:href="#CMSS17-73" transform="translate(745.975252 0) scale(0.996264)"/>
      <use xlink:href="#CMSS17-28" transform="translate(813.117907 0) scale(0.996264)"/>
      <use xlink:href="#CMSS17-4c" transform="translate(849.551821 0) scale(0.996264)"/>
      <use xlink:href="#CMSS17-6f" transform="translate(900.238926 0) scale(0.996264)"/>
      <use xlink:href="#CMSS17-73" transform="translate(947.08255 0) scale(0.996264)"/>
      <use xlink:href="#CMSS17-73" transform="translate(982.996092 0) scale(0.996264)"/>
      <use xlink:href="#CMSS17-47" transform="translate(1018.909634 0) scale(0.996264)"/>
      <use xlink:href="#CMSS17-72" transform="translate(1115.095355 0) scale(0.996264)"/>
      <use xlink:href="#CMSS17-65" transform="translate(1147.005127 0) scale(0.996264)"/>
      <use xlink:href="#CMSS17-63" transform="translate(1188.643949 0) scale(0.996264)"/>
      <use xlink:href="#CMSS17-6f" transform="translate(1230.282771 0) scale(0.996264)"/>
      <use xlink:href="#CMSS17-6e" transform="translate(1277.126395 0) scale(0.996264)"/>
      <use xlink:href="#CMSS17-29" transform="translate(1325.331338 0) scale(0.996264)"/>
      <path d="M 1086.98887 0 
L 1115.095355 0 
L 1115.095355 0.3985 
L 1086.98887 0.3985 
L 1086.98887 0 
z
"/>
     </g>
    </g>
   </g>
   <g id="PolyCollection_1">
    <defs>
     <path id="m60474bd323" d="M 136.03154 -505.895604 
L 136.03154 -448.160323 
L 138.702267 -309.902057 
L 141.372994 -293.654224 
L 144.043722 -274.024857 
L 146.714449 -261.253904 
L 149.385176 -246.858819 
L 152.055904 -244.801294 
L 154.726631 -238.082649 
L 157.397358 -229.567597 
L 160.068085 -228.56538 
L 162.738813 -220.561729 
L 165.40954 -221.135972 
L 168.080267 -214.710949 
L 170.750994 -210.787676 
L 173.421722 -213.470367 
L 176.092449 -203.948764 
L 178.763176 -208.752905 
L 181.433903 -206.455932 
L 184.104631 -212.936213 
L 186.775358 -209.202548 
L 189.446085 -210.153842 
L 192.116812 -202.657259 
L 194.78754 -203.257506 
L 197.458267 -197.997221 
L 200.128994 -193.466117 
L 202.799721 -196.509606 
L 205.470449 -193.881089 
L 208.141176 -190.720584 
L 210.811903 -187.939297 
L 213.48263 -192.405392 
L 216.153358 -199.2183 
L 218.824085 -189.876555 
L 221.494812 -191.268824 
L 224.165539 -190.091084 
L 226.836267 -186.859069 
L 229.506994 -187.150525 
L 232.177721 -187.227452 
L 234.848448 -184.713783 
L 237.519176 -185.938113 
L 240.189903 -173.276154 
L 242.86063 -181.044044 
L 245.531357 -177.666844 
L 248.202085 -181.048378 
L 250.872812 -182.971551 
L 253.543539 -174.317814 
L 256.214266 -174.585433 
L 258.884994 -168.963267 
L 261.555721 -164.335733 
L 264.226448 -176.258323 
L 266.897175 -171.123721 
L 269.567903 -175.11417 
L 272.23863 -171.186563 
L 274.909357 -175.102252 
L 277.580085 -166.958833 
L 280.250812 -168.701065 
L 282.921539 -163.276092 
L 285.592266 -168.735736 
L 288.262994 -163.841667 
L 290.933721 -148.403192 
L 293.604448 -157.687513 
L 296.275175 -161.008373 
L 298.945903 -160.46555 
L 301.61663 -166.128889 
L 304.287357 -161.514357 
L 306.958084 -160.703916 
L 309.628812 -161.598868 
L 312.299539 -163.946765 
L 314.970266 -158.229252 
L 317.640993 -161.177395 
L 320.311721 -160.852524 
L 322.982448 -158.777011 
L 325.653175 -160.49479 
L 328.323902 -156.135449 
L 330.99463 -159.793794 
L 333.665357 -155.5899 
L 336.336084 -156.58995 
L 339.006811 -151.443431 
L 341.677539 -152.988915 
L 344.348266 -153.562713 
L 347.018993 -154.019941 
L 349.68972 -141.994041 
L 352.360448 -152.020925 
L 355.031175 -150.128132 
L 357.701902 -143.291344 
L 360.372629 -134.631106 
L 363.043357 -140.50789 
L 365.714084 -144.046528 
L 368.384811 -147.402059 
L 371.055538 -147.473568 
L 373.726266 -142.226285 
L 376.396993 -129.266119 
L 379.06772 -138.130739 
L 381.738447 -147.242788 
L 384.409175 -143.142084 
L 387.079902 -143.130007 
L 389.750629 -143.382356 
L 392.421357 -147.602179 
L 395.092084 -145.326115 
L 397.762811 -144.706366 
L 400.433538 -144.548178 
L 403.104266 -138.277182 
L 405.774993 -141.839484 
L 408.44572 -142.2089 
L 411.116447 -133.986495 
L 413.787175 -126.417261 
L 416.457902 -133.855336 
L 419.128629 -121.668378 
L 421.799356 -128.870212 
L 424.470084 -125.087827 
L 427.140811 -128.650309 
L 429.811538 -127.921128 
L 432.482265 -131.624111 
L 435.152993 -130.503056 
L 437.82372 -129.73162 
L 440.494447 -131.532496 
L 443.165174 -131.502022 
L 445.835902 -134.679863 
L 448.506629 -128.8345 
L 451.177356 -131.335167 
L 453.848083 -137.426479 
L 456.518811 -137.416728 
L 459.189538 -132.622058 
L 461.860265 -117.60967 
L 464.530992 -115.558647 
L 467.20172 -132.652597 
L 469.872447 -128.294928 
L 472.543174 -132.011293 
L 475.213901 -130.060997 
L 477.884629 -123.199332 
L 480.555356 -124.682613 
L 483.226083 -124.612187 
L 485.89681 -131.418594 
L 488.567538 -127.740187 
L 491.238265 -125.768394 
L 493.908992 -120.818931 
L 496.579719 -130.581446 
L 499.250447 -128.030409 
L 501.921174 -122.042178 
L 504.591901 -128.620452 
L 507.262628 -129.973235 
L 509.933356 -128.588002 
L 512.604083 -118.91473 
L 515.27481 -125.667494 
L 517.945538 -125.904776 
L 520.616265 -124.773625 
L 523.286992 -129.624355 
L 525.957719 -122.966384 
L 528.628447 -125.269966 
L 531.299174 -120.924029 
L 533.969901 -120.328116 
L 536.640628 -124.915561 
L 539.311356 -126.264491 
L 541.982083 -124.529412 
L 544.65281 -125.656057 
L 547.323537 -118.256506 
L 549.994265 -124.746538 
L 552.664992 -108.478119 
L 555.335719 -109.722705 
L 558.006446 -112.78061 
L 560.677174 -121.163477 
L 563.347901 -120.489554 
L 566.018628 -115.831683 
L 568.689355 -122.176529 
L 571.360083 -120.308613 
L 574.03081 -119.693198 
L 576.701537 -119.362737 
L 579.372264 -120.726836 
L 582.042992 -120.815681 
L 584.713719 -117.835033 
L 587.384446 -110.416461 
L 590.055173 -111.038377 
L 592.725901 -118.169828 
L 595.396628 -117.157688 
L 598.067355 -116.708217 
L 600.738082 -113.328849 
L 603.40881 -117.846952 
L 606.079537 -119.871233 
L 608.750264 -120.698665 
L 611.420991 -118.401692 
L 614.091719 -121.156976 
L 616.762446 -116.644291 
L 619.433173 -118.024642 
L 622.1039 -117.139441 
L 624.774628 -119.217551 
L 627.445355 -117.961499 
L 630.116082 -119.552346 
L 632.786809 -110.759924 
L 635.457537 -102.784444 
L 638.128264 -107.48132 
L 640.798991 -104.163711 
L 643.469719 -107.436897 
L 646.140446 -107.164944 
L 648.811173 -112.96155 
L 651.4819 -109.147709 
L 654.152628 -117.797112 
L 656.823355 -111.597452 
L 659.494082 -116.105803 
L 662.164809 -113.281176 
L 664.835537 -111.119638 
L 667.506264 -100.432213 
L 667.506264 -135.708083 
L 667.506264 -135.708083 
L 664.835537 -135.134923 
L 662.164809 -129.53226 
L 659.494082 -138.680063 
L 656.823355 -131.647208 
L 654.152628 -134.936424 
L 651.4819 -133.899759 
L 648.811173 -133.647308 
L 646.140446 -139.365904 
L 643.469719 -133.739404 
L 640.798991 -135.238937 
L 638.128264 -133.719901 
L 635.457537 -139.390824 
L 632.786809 -140.036577 
L 630.116082 -141.528332 
L 627.445355 -139.992154 
L 624.774628 -146.701049 
L 622.1039 -143.984483 
L 619.433173 -139.129706 
L 616.762446 -144.081199 
L 614.091719 -138.675729 
L 611.420991 -135.628989 
L 608.750264 -138.502372 
L 606.079537 -135.621405 
L 603.40881 -135.743838 
L 600.738082 -134.885723 
L 598.067355 -137.957383 
L 595.396628 -145.659726 
L 592.725901 -141.371421 
L 590.055173 -133.984284 
L 587.384446 -143.784893 
L 584.713719 -144.748622 
L 582.042992 -142.368221 
L 579.372264 -137.579249 
L 576.701537 -139.271641 
L 574.03081 -141.78206 
L 571.360083 -139.504589 
L 568.689355 -144.907893 
L 566.018628 -135.647408 
L 563.347901 -140.281443 
L 560.677174 -149.061947 
L 558.006446 -143.772408 
L 555.335719 -140.565314 
L 552.664992 -142.711683 
L 549.994265 -137.362554 
L 547.323537 -140.858671 
L 544.65281 -154.525645 
L 541.982083 -178.348351 
L 539.311356 -216.985169 
L 536.640628 -144.996609 
L 533.969901 -140.354036 
L 531.299174 -142.877456 
L 528.628447 -152.525825 
L 525.957719 -151.416344 
L 523.286992 -144.605603 
L 520.616265 -147.129022 
L 517.945538 -142.784276 
L 515.27481 -143.519958 
L 512.604083 -149.025108 
L 509.933356 -150.039244 
L 507.262628 -150.076082 
L 504.591901 -146.652292 
L 501.921174 -156.457766 
L 499.250447 -151.41201 
L 496.579719 -146.403092 
L 493.908992 -143.244755 
L 491.238265 -150.026701 
L 488.567538 -149.498588 
L 485.89681 -149.667611 
L 483.226083 -148.43678 
L 480.555356 -148.656841 
L 477.884629 -149.449832 
L 475.213901 -145.008656 
L 472.543174 -151.584023 
L 469.872447 -157.504406 
L 467.20172 -157.47259 
L 464.530992 -155.961533 
L 461.860265 -157.666927 
L 459.189538 -147.580833 
L 456.518811 -160.040827 
L 453.848083 -152.712183 
L 451.177356 -156.567197 
L 448.506629 -156.476185 
L 445.835902 -158.821915 
L 443.165174 -156.767641 
L 440.494447 -155.164094 
L 437.82372 -152.919128 
L 435.152993 -155.984286 
L 432.482265 -154.678696 
L 429.811538 -151.802062 
L 427.140811 -150.322031 
L 424.470084 -150.81068 
L 421.799356 -158.243337 
L 419.128629 -161.846985 
L 416.457902 -160.247771 
L 413.787175 -153.847668 
L 411.116447 -161.485103 
L 408.44572 -160.183846 
L 405.774993 -160.56523 
L 403.104266 -159.830582 
L 400.433538 -163.904509 
L 397.762811 -171.79006 
L 395.092084 -163.153802 
L 392.421357 -168.201582 
L 389.750629 -165.323865 
L 387.079902 -166.878655 
L 384.409175 -163.044228 
L 381.738447 -165.120171 
L 379.06772 -167.569857 
L 376.396993 -169.767207 
L 373.726266 -166.535193 
L 371.055538 -170.789465 
L 368.384811 -164.358486 
L 365.714084 -169.897225 
L 363.043357 -170.282943 
L 360.372629 -175.677579 
L 357.701902 -172.101018 
L 355.031175 -164.294561 
L 352.360448 -177.4664 
L 349.68972 -184.278225 
L 347.018993 -178.332422 
L 344.348266 -181.801395 
L 341.677539 -176.298411 
L 339.006811 -181.181646 
L 336.336084 -179.41666 
L 333.665357 -176.594201 
L 330.99463 -173.756572 
L 328.323902 -184.479752 
L 325.653175 -184.565505 
L 322.982448 -181.053795 
L 320.311721 -181.110136 
L 317.640993 -186.669461 
L 314.970266 -181.632372 
L 312.299539 -187.135356 
L 309.628812 -181.732052 
L 306.958084 -187.356386 
L 304.287357 -181.507772 
L 301.61663 -184.13954 
L 298.945903 -188.410609 
L 296.275175 -188.372688 
L 293.604448 -180.439463 
L 290.933721 -195.484636 
L 288.262994 -191.484436 
L 285.592266 -195.730585 
L 282.921539 -203.375605 
L 280.250812 -195.850851 
L 277.580085 -202.49148 
L 274.909357 -202.156692 
L 272.23863 -192.403225 
L 269.567903 -200.895524 
L 266.897175 -203.580382 
L 264.226448 -203.460116 
L 261.555721 -211.295827 
L 258.884994 -207.515573 
L 256.214266 -203.378855 
L 253.543539 -207.212199 
L 250.872812 -202.260706 
L 248.202085 -199.01244 
L 245.531357 -206.178978 
L 242.86063 -203.44278 
L 240.189903 -205.0875 
L 237.519176 -213.856085 
L 234.848448 -215.274358 
L 232.177721 -219.229052 
L 229.506994 -217.316713 
L 226.836267 -215.41521 
L 224.165539 -223.173994 
L 221.494812 -221.16956 
L 218.824085 -218.56813 
L 216.153358 -226.102635 
L 213.48263 -222.99197 
L 210.811903 -224.453581 
L 208.141176 -246.033209 
L 205.470449 -242.81853 
L 202.799721 -238.848667 
L 200.128994 -245.942196 
L 197.458267 -245.816513 
L 194.78754 -245.674577 
L 192.116812 -253.680395 
L 189.446085 -243.268173 
L 186.775358 -232.785526 
L 184.104631 -238.252755 
L 181.433903 -239.794543 
L 178.763176 -249.063696 
L 176.092449 -276.636039 
L 173.421722 -259.529008 
L 170.750994 -264.731868 
L 168.080267 -256.212482 
L 165.40954 -276.824564 
L 162.738813 -299.477917 
L 160.068085 -311.528357 
L 157.397358 -300.107418 
L 154.726631 -308.990852 
L 152.055904 -295.651074 
L 149.385176 -316.116886 
L 146.714449 -332.164275 
L 144.043722 -337.756104 
L 141.372994 -328.918176 
L 138.702267 -363.084564 
L 136.03154 -505.895604 
z
" style="stroke: #ffffff; stroke-opacity: 0.3"/>
    </defs>
    <g clip-path="url(#pa0576426de)">
     <use xlink:href="#m60474bd323" x="0" y="576" style="fill: #4c72b0; fill-opacity: 0.3; stroke: #ffffff; stroke-opacity: 0.3"/>
    </g>
   </g>
   <g id="line2d_12">
    <path d="M 136.03154 89.435807 
L 138.702267 225.384098 
L 141.372994 249.649667 
L 144.043722 268.558521 
L 146.714449 282.240679 
L 149.385176 272.361528 
L 152.055904 299.296786 
L 154.726631 299.222026 
L 157.397358 294.446056 
L 160.068085 299.601243 
L 165.40954 326.242878 
L 168.080267 331.186787 
L 170.750994 327.484544 
L 173.421722 333.185804 
L 176.092449 341.276133 
L 178.763176 341.971725 
L 181.433903 341.848209 
L 184.104631 346.853876 
L 186.775358 347.006647 
L 189.446085 349.13243 
L 192.116812 353.322239 
L 194.78754 333.808804 
L 197.458267 358.07979 
L 200.128994 362.790751 
L 202.799721 362.038817 
L 205.470449 365.555786 
L 208.141176 362.444038 
L 210.811903 356.126279 
L 213.48263 371.222375 
L 216.153358 363.164551 
L 218.824085 359.779766 
L 221.494812 365.853743 
L 224.165539 373.181303 
L 226.836267 373.159633 
L 229.506994 372.175836 
L 232.177721 374.523732 
L 234.848448 374.453306 
L 237.519176 377.983276 
L 240.189903 380.152399 
L 242.86063 377.724325 
L 245.531357 382.44206 
L 248.202085 377.516298 
L 250.872812 380.226944 
L 253.543539 384.264197 
L 256.214266 379.883697 
L 258.884994 384.86011 
L 261.555721 382.325855 
L 264.226448 379.178352 
L 266.897175 385.545951 
L 269.567903 394.155266 
L 272.23863 393.881146 
L 274.909357 389.269865 
L 277.580085 386.596925 
L 280.250812 400.045202 
L 282.921539 391.578756 
L 285.592266 395.451105 
L 288.262994 398.340741 
L 290.933721 398.166006 
L 293.604448 402.576608 
L 296.275175 407.676502 
L 298.945903 397.697155 
L 301.61663 398.792551 
L 304.287357 396.69449 
L 306.958084 394.83244 
L 309.628812 403.243478 
L 314.970266 397.298435 
L 317.640993 403.052785 
L 320.311721 399.923702 
L 322.982448 401.795951 
L 325.653175 409.431363 
L 328.323902 397.490211 
L 330.99463 403.204472 
L 333.665357 404.725675 
L 336.336084 397.772998 
L 339.006811 401.263461 
L 341.677539 407.206839 
L 344.348266 401.940054 
L 347.018993 415.611003 
L 349.68972 420.649272 
L 352.360448 417.967941 
L 355.031175 412.444837 
L 357.701902 416.820538 
L 360.372629 408.003698 
L 363.043357 410.016297 
L 365.714084 414.829005 
L 368.384811 417.029649 
L 371.055538 414.731593 
L 376.396993 415.96134 
L 379.06772 418.557353 
L 381.738447 420.398181 
L 384.409175 420.328839 
L 387.079902 416.710382 
L 389.750629 415.576705 
L 392.421357 420.777427 
L 395.092084 424.265114 
L 397.762811 416.165034 
L 400.433538 421.604142 
L 403.104266 420.429509 
L 405.774993 420.490277 
L 408.44572 427.185086 
L 411.116447 423.213057 
L 413.787175 424.948788 
L 416.457902 421.882546 
L 419.128629 423.806802 
L 421.799356 422.73741 
L 424.470084 430.877578 
L 427.140811 430.637046 
L 429.811538 427.985554 
L 432.482265 429.571988 
L 435.152993 424.845563 
L 437.82372 429.685882 
L 440.494447 431.039383 
L 443.165174 434.251182 
L 445.835902 434.308953 
L 448.506629 432.308853 
L 451.177356 435.590707 
L 453.848083 430.274081 
L 456.518811 427.322688 
L 459.189538 432.680816 
L 461.860265 430.346674 
L 464.530992 435.199134 
L 467.20172 434.887207 
L 469.872447 434.315453 
L 472.543174 433.405009 
L 475.213901 437.954855 
L 477.884629 428.526432 
L 480.555356 437.951605 
L 483.226083 433.873395 
L 485.89681 435.686168 
L 488.567538 429.755096 
L 491.238265 435.018631 
L 493.908992 438.922401 
L 496.579719 433.185386 
L 499.250447 435.669801 
L 501.921174 440.815237 
L 504.591901 438.885563 
L 507.262628 435.766273 
L 509.933356 440.575788 
L 512.604083 438.721958 
L 515.27481 435.700138 
L 517.945538 440.056802 
L 520.616265 439.167267 
L 523.286992 441.604009 
L 525.957719 439.159683 
L 528.628447 442.198838 
L 531.299174 440.052468 
L 533.969901 439.519397 
L 536.640628 445.487193 
L 539.311356 439.46739 
L 541.982083 431.751208 
L 544.65281 437.098908 
L 547.323537 438.477092 
L 549.994265 439.104425 
L 552.664992 445.064637 
L 555.335719 440.551952 
L 558.006446 441.103442 
L 560.677174 442.59214 
L 563.347901 444.743927 
L 566.018628 444.717924 
L 568.689355 441.152198 
L 571.360083 448.229475 
L 574.03081 446.372875 
L 576.701537 445.771064 
L 579.372264 445.901081 
L 582.042992 444.320287 
L 584.713719 444.231442 
L 587.384446 444.773181 
L 590.055173 444.21844 
L 592.725901 445.71689 
L 595.396628 444.011496 
L 598.067355 449.361265 
L 600.738082 447.384363 
L 603.40881 451.759446 
L 606.079537 446.960723 
L 608.750264 440.09039 
L 611.420991 446.913541 
L 614.091719 448.428835 
L 616.762446 444.369044 
L 619.433173 445.36476 
L 622.1039 452.195004 
L 624.774628 445.538116 
L 627.445355 445.138313 
L 630.116082 443.904232 
L 632.786809 445.14048 
L 638.128264 450.844991 
L 640.798991 453.355409 
L 643.469719 449.626078 
L 646.140446 449.141764 
L 648.811173 456.457406 
L 651.4819 455.036966 
L 654.152628 453.386865 
L 656.823355 448.975991 
L 659.494082 446.333389 
L 662.164809 451.270797 
L 664.835537 457.057652 
L 667.506264 449.725758 
L 667.506264 449.725758 
" clip-path="url(#pa0576426de)" style="fill: none; stroke: #000000; stroke-width: 2; stroke-linecap: round"/>
   </g>
   <g id="patch_3">
    <path d="M 109.457804 495.840956 
L 109.457804 49.831226 
" style="fill: none; stroke: #cccccc; stroke-width: 1.25; stroke-linejoin: miter; stroke-linecap: square"/>
   </g>
   <g id="patch_4">
    <path d="M 694.08 495.840956 
L 694.08 49.831226 
" style="fill: none; stroke: #cccccc; stroke-width: 1.25; stroke-linejoin: miter; stroke-linecap: square"/>
   </g>
   <g id="patch_5">
    <path d="M 109.457804 495.840956 
L 694.08 495.840956 
" style="fill: none; stroke: #cccccc; stroke-width: 1.25; stroke-linejoin: miter; stroke-linecap: square"/>
   </g>
   <g id="patch_6">
    <path d="M 109.457804 49.831226 
L 694.08 49.831226 
" style="fill: none; stroke: #cccccc; stroke-width: 1.25; stroke-linejoin: miter; stroke-linecap: square"/>
   </g>
   <g id="text_14">
    <!-- Reconstruction Loss (LossG_recon) vs Epoch -->
    <g style="fill: #262626" transform="translate(191.873826 43.831226) scale(0.24 -0.24)">
     <defs>
      <path id="CMSS17-76" d="M 2675 2752 
L 2176 2752 
L 1747 1556 
C 1613 1165 1421 627 1389 352 
L 1382 352 
C 1370 468 1318 634 1286 749 
C 1248 890 1197 1056 1158 1172 
L 595 2752 
L 83 2752 
L 1094 0 
L 1664 0 
L 2675 2752 
z
" transform="scale(0.015625)"/>
     </defs>
     <use xlink:href="#CMSS17-52" transform="scale(0.996264)"/>
     <use xlink:href="#CMSS17-65" transform="translate(60.416155 0) scale(0.996264)"/>
     <use xlink:href="#CMSS17-63" transform="translate(102.054977 0) scale(0.996264)"/>
     <use xlink:href="#CMSS17-6f" transform="translate(143.693799 0) scale(0.996264)"/>
     <use xlink:href="#CMSS17-6e" transform="translate(190.537423 0) scale(0.996264)"/>
     <use xlink:href="#CMSS17-73" transform="translate(238.742366 0) scale(0.996264)"/>
     <use xlink:href="#CMSS17-74" transform="translate(274.655908 0) scale(0.996264)"/>
     <use xlink:href="#CMSS17-72" transform="translate(308.487474 0) scale(0.996264)"/>
     <use xlink:href="#CMSS17-75" transform="translate(340.397247 0) scale(0.996264)"/>
     <use xlink:href="#CMSS17-63" transform="translate(388.60219 0) scale(0.996264)"/>
     <use xlink:href="#CMSS17-74" transform="translate(430.241012 0) scale(0.996264)"/>
     <use xlink:href="#CMSS17-69" transform="translate(464.072579 0) scale(0.996264)"/>
     <use xlink:href="#CMSS17-6f" transform="translate(486.253302 0) scale(0.996264)"/>
     <use xlink:href="#CMSS17-6e" transform="translate(533.096925 0) scale(0.996264)"/>
     <use xlink:href="#CMSS17-4c" transform="translate(612.530981 0) scale(0.996264)"/>
     <use xlink:href="#CMSS17-6f" transform="translate(663.218087 0) scale(0.996264)"/>
     <use xlink:href="#CMSS17-73" transform="translate(710.06171 0) scale(0.996264)"/>
     <use xlink:href="#CMSS17-73" transform="translate(745.975252 0) scale(0.996264)"/>
     <use xlink:href="#CMSS17-28" transform="translate(813.117907 0) scale(0.996264)"/>
     <use xlink:href="#CMSS17-4c" transform="translate(849.551821 0) scale(0.996264)"/>
     <use xlink:href="#CMSS17-6f" transform="translate(900.238926 0) scale(0.996264)"/>
     <use xlink:href="#CMSS17-73" transform="translate(947.08255 0) scale(0.996264)"/>
     <use xlink:href="#CMSS17-73" transform="translate(982.996092 0) scale(0.996264)"/>
     <use xlink:href="#CMSS17-47" transform="translate(1018.909634 0) scale(0.996264)"/>
     <use xlink:href="#CMSS17-72" transform="translate(1115.095355 0) scale(0.996264)"/>
     <use xlink:href="#CMSS17-65" transform="translate(1147.005127 0) scale(0.996264)"/>
     <use xlink:href="#CMSS17-63" transform="translate(1188.643949 0) scale(0.996264)"/>
     <use xlink:href="#CMSS17-6f" transform="translate(1230.282771 0) scale(0.996264)"/>
     <use xlink:href="#CMSS17-6e" transform="translate(1277.126395 0) scale(0.996264)"/>
     <use xlink:href="#CMSS17-29" transform="translate(1325.331338 0) scale(0.996264)"/>
     <use xlink:href="#CMSS17-76" transform="translate(1392.994365 0) scale(0.996264)"/>
     <use xlink:href="#CMSS17-73" transform="translate(1435.994507 0) scale(0.996264)"/>
     <use xlink:href="#CMSS17-45" transform="translate(1503.137161 0) scale(0.996264)"/>
     <use xlink:href="#CMSS17-70" transform="translate(1559.029175 0) scale(0.996264)"/>
     <use xlink:href="#CMSS17-6f" transform="translate(1609.836557 0) scale(0.996264)"/>
     <use xlink:href="#CMSS17-63" transform="translate(1659.282619 0) scale(0.996264)"/>
     <use xlink:href="#CMSS17-68" transform="translate(1700.921441 0) scale(0.996264)"/>
     <path d="M 1086.98887 0 
L 1115.095355 0 
L 1115.095355 0.3985 
L 1086.98887 0.3985 
L 1086.98887 0 
z
"/>
    </g>
   </g>
   <g id="legend_1">
    <g id="patch_7">
     <path d="M 467.093325 128.757602 
L 678.68 128.757602 
Q 683.08 128.757602 683.08 124.357602 
L 683.08 65.231226 
Q 683.08 60.831226 678.68 60.831226 
L 467.093325 60.831226 
Q 462.693325 60.831226 462.693325 65.231226 
L 462.693325 124.357602 
Q 462.693325 128.757602 467.093325 128.757602 
z
" style="fill: #ffffff; opacity: 0.8; stroke: #cccccc; stroke-linejoin: miter"/>
    </g>
    <g id="line2d_13">
     <path d="M 471.493325 77.331226 
L 493.493325 77.331226 
L 515.493325 77.331226 
" style="fill: none; stroke: #000000; stroke-width: 2; stroke-linecap: round"/>
    </g>
    <g id="text_15">
     <!-- Median -->
     <g style="fill: #262626" transform="translate(533.093325 85.031226) scale(0.22 -0.22)">
      <defs>
       <path id="CMSS17-4d" d="M 3194 2371 
L 2886 1473 
C 2835 1307 2662 791 2624 587 
L 2618 587 
C 2598 715 2560 849 2458 1174 
C 2400 1365 2336 1562 2272 1741 
L 1325 4416 
L 576 4416 
L 576 0 
L 1075 0 
L 1075 3900 
L 1082 3900 
C 1082 3894 1139 3613 1530 2499 
L 2374 96 
L 2848 96 
L 3610 2231 
C 3661 2378 3821 2843 3891 3066 
C 3955 3257 4115 3728 4154 3913 
L 4160 3913 
L 4160 0 
L 4666 0 
L 4666 4416 
L 3923 4416 
L 3194 2371 
z
" transform="scale(0.015625)"/>
       <path id="CMSS17-64" d="M 2611 4416 
L 2138 4416 
L 2138 2438 
C 1939 2603 1613 2756 1254 2756 
C 672 2756 211 2131 211 1347 
C 211 562 666 -64 1235 -64 
C 1677 -64 1971 172 2125 306 
L 2125 -13 
L 2611 -13 
L 2611 4416 
z
M 2125 836 
C 2125 747 2125 653 1926 482 
C 1798 375 1645 325 1498 325 
C 1152 325 698 576 698 1340 
C 698 2134 1210 2368 1562 2368 
C 1798 2368 1990 2254 2125 2065 
L 2125 836 
z
" transform="scale(0.015625)"/>
       <path id="CMSS17-61" d="M 2406 1791 
C 2406 2392 1978 2808 1402 2808 
C 1120 2808 813 2757 461 2553 
L 499 2135 
C 659 2248 934 2432 1395 2432 
C 1722 2432 1920 2180 1920 1782 
L 1920 1536 
C 896 1536 256 1238 256 726 
C 256 461 416 -64 947 -64 
C 1043 -64 1562 -64 1933 217 
L 1933 -19 
L 2406 -19 
L 2406 1791 
z
M 1920 816 
C 1920 701 1920 548 1728 434 
C 1562 325 1350 325 1261 325 
C 941 325 723 511 723 744 
C 723 1211 1722 1211 1920 1211 
L 1920 816 
z
" transform="scale(0.015625)"/>
      </defs>
      <use xlink:href="#CMSS17-4d" transform="scale(0.996264)"/>
      <use xlink:href="#CMSS17-65" transform="translate(81.67603 0) scale(0.996264)"/>
      <use xlink:href="#CMSS17-64" transform="translate(123.314852 0) scale(0.996264)"/>
      <use xlink:href="#CMSS17-69" transform="translate(171.519795 0) scale(0.996264)"/>
      <use xlink:href="#CMSS17-61" transform="translate(193.700518 0) scale(0.996264)"/>
      <use xlink:href="#CMSS17-6e" transform="translate(238.622439 0) scale(0.996264)"/>
     </g>
    </g>
    <g id="patch_8">
     <path d="M 471.493325 115.694414 
L 515.493325 115.694414 
L 515.493325 100.294414 
L 471.493325 100.294414 
z
" style="fill: #4c72b0; fill-opacity: 0.3; stroke: #ffffff; stroke-opacity: 0.3; stroke-linejoin: miter"/>
    </g>
    <g id="text_16">
     <!-- Min–Max Range -->
     <g style="fill: #262626" transform="translate(533.093325 115.694414) scale(0.22 -0.22)">
      <defs>
       <path id="CMSS17-7b" d="M 3002 1472 
L 3002 1861 
L 0 1861 
L 0 1472 
L 3002 1472 
z
" transform="scale(0.015625)"/>
       <path id="CMSS17-78" d="M 1587 1414 
L 2656 2739 
L 2099 2739 
L 1363 1777 
L 602 2739 
L 32 2739 
L 1139 1414 
L 0 0 
L 563 0 
L 1363 1121 
L 2195 0 
L 2758 0 
L 1587 1414 
z
" transform="scale(0.015625)"/>
       <path id="CMSS17-67" d="M 2848 2808 
C 2483 2808 2170 2738 1914 2617 
C 1702 2777 1485 2808 1338 2808 
C 781 2808 358 2349 358 1814 
C 358 1468 550 1207 563 1195 
C 448 1035 384 863 384 672 
C 384 448 474 289 544 200 
C 211 -3 166 -314 166 -435 
C 166 -898 749 -1280 1498 -1280 
C 2253 -1280 2835 -898 2835 -428 
C 2835 448 1856 448 1587 448 
L 1069 448 
C 973 448 717 448 717 791 
C 717 921 774 1004 781 1010 
C 877 940 1075 832 1338 832 
C 1869 832 2310 1278 2310 1827 
C 2310 2132 2170 2355 2112 2432 
L 2131 2432 
C 2150 2432 2419 2432 2515 2432 
C 2720 2432 2739 2429 2918 2419 
L 2848 2808 
z
M 1338 1182 
C 1120 1182 813 1315 813 1823 
C 813 2375 1165 2464 1331 2464 
C 1549 2464 1856 2331 1856 1823 
C 1856 1271 1504 1182 1338 1182 
z
M 1581 -10 
C 1734 -10 2381 -10 2381 -442 
C 2381 -714 1984 -929 1504 -929 
C 1018 -929 621 -720 621 -435 
C 621 -403 621 -10 1062 -10 
L 1581 -10 
z
" transform="scale(0.015625)"/>
      </defs>
      <use xlink:href="#CMSS17-4d" transform="scale(0.996264)"/>
      <use xlink:href="#CMSS17-69" transform="translate(81.67603 0) scale(0.996264)"/>
      <use xlink:href="#CMSS17-6e" transform="translate(103.856753 0) scale(0.996264)"/>
      <use xlink:href="#CMSS17-7b" transform="translate(152.061696 0) scale(0.996264)"/>
      <use xlink:href="#CMSS17-4d" transform="translate(198.90532 0) scale(0.996264)"/>
      <use xlink:href="#CMSS17-61" transform="translate(280.58135 0) scale(0.996264)"/>
      <use xlink:href="#CMSS17-78" transform="translate(325.50327 0) scale(0.996264)"/>
      <use xlink:href="#CMSS17-52" transform="translate(399.732525 0) scale(0.996264)"/>
      <use xlink:href="#CMSS17-61" transform="translate(460.14868 0) scale(0.996264)"/>
      <use xlink:href="#CMSS17-6e" transform="translate(505.0706 0) scale(0.996264)"/>
      <use xlink:href="#CMSS17-67" transform="translate(553.275543 0) scale(0.996264)"/>
      <use xlink:href="#CMSS17-65" transform="translate(600.119167 0) scale(0.996264)"/>
     </g>
    </g>
   </g>
  </g>
 </g>
 <defs>
  <clipPath id="pa0576426de">
   <rect x="109.457804" y="49.831226" width="584.622196" height="446.00973"/>
  </clipPath>
 </defs>
</svg>
