<?xml version="1.0" encoding="utf-8" standalone="no"?>
<!DOCTYPE svg PUBLIC "-//W3C//DTD SVG 1.1//EN"
  "http://www.w3.org/Graphics/SVG/1.1/DTD/svg11.dtd">
<svg xmlns:xlink="http://www.w3.org/1999/xlink" width="720pt" height="576pt" viewBox="0 0 720 576" xmlns="http://www.w3.org/2000/svg" version="1.1">
 <metadata>
  <rdf:RDF xmlns:dc="http://purl.org/dc/elements/1.1/" xmlns:cc="http://creativecommons.org/ns#" xmlns:rdf="http://www.w3.org/1999/02/22-rdf-syntax-ns#">
   <cc:Work>
    <dc:type rdf:resource="http://purl.org/dc/dcmitype/StillImage"/>
    <dc:date>2025-04-24T10:46:39.381526</dc:date>
    <dc:format>image/svg+xml</dc:format>
    <dc:creator>
     <cc:Agent>
      <dc:title>Matplotlib v3.9.2, https://matplotlib.org/</dc:title>
     </cc:Agent>
    </dc:creator>
   </cc:Work>
  </rdf:RDF>
 </metadata>
 <defs>
  <style type="text/css">*{stroke-linejoin: round; stroke-linecap: butt}</style>
 </defs>
 <g id="figure_1">
  <g id="patch_1">
   <path d="M 0 576 
L 720 576 
L 720 0 
L 0 0 
z
" style="fill: #ffffff"/>
  </g>
  <g id="axes_1">
   <g id="patch_2">
    <path d="M 86.740351 495.840956 
L 694.08 495.840956 
L 694.08 49.831226 
L 86.740351 49.831226 
z
" style="fill: #ffffff"/>
   </g>
   <g id="matplotlib.axis_1">
    <g id="xtick_1">
     <g id="line2d_1">
      <path d="M 111.572192 495.840956 
L 111.572192 49.831226 
" clip-path="url(#p8c07d31b17)" style="fill: none; stroke: #cccccc; stroke-linecap: round"/>
     </g>
     <g id="text_1">
      <!-- $\mathdefault{0}$ -->
      <g style="fill: #262626" transform="translate(106.546239 520.56165) scale(0.22 -0.22)">
       <defs>
        <path id="CMR17-30" d="M 2688 2025 
C 2688 2416 2682 3080 2413 3591 
C 2176 4039 1798 4198 1466 4198 
C 1158 4198 768 4058 525 3597 
C 269 3118 243 2524 243 2025 
C 243 1661 250 1106 448 619 
C 723 -39 1216 -128 1466 -128 
C 1760 -128 2208 -7 2470 600 
C 2662 1042 2688 1559 2688 2025 
z
M 1466 -26 
C 1056 -26 813 325 723 812 
C 653 1188 653 1738 653 2096 
C 653 2588 653 2997 736 3387 
C 858 3929 1216 4096 1466 4096 
C 1728 4096 2067 3923 2189 3400 
C 2272 3036 2278 2607 2278 2096 
C 2278 1680 2278 1169 2202 792 
C 2067 95 1690 -26 1466 -26 
z
" transform="scale(0.015625)"/>
       </defs>
       <use xlink:href="#CMR17-30" transform="scale(0.996264)"/>
      </g>
     </g>
    </g>
    <g id="xtick_2">
     <g id="line2d_2">
      <path d="M 180.934874 495.840956 
L 180.934874 49.831226 
" clip-path="url(#p8c07d31b17)" style="fill: none; stroke: #cccccc; stroke-linecap: round"/>
     </g>
     <g id="text_2">
      <!-- $\mathdefault{25}$ -->
      <g style="fill: #262626" transform="translate(170.882969 520.56165) scale(0.22 -0.22)">
       <defs>
        <path id="CMR17-32" d="M 2669 989 
L 2554 989 
C 2490 536 2438 459 2413 420 
C 2381 369 1920 369 1830 369 
L 602 369 
C 832 619 1280 1072 1824 1597 
C 2214 1967 2669 2402 2669 3035 
C 2669 3790 2067 4224 1395 4224 
C 691 4224 262 3604 262 3030 
C 262 2780 448 2748 525 2748 
C 589 2748 781 2787 781 3010 
C 781 3207 614 3264 525 3264 
C 486 3264 448 3258 422 3245 
C 544 3790 915 4058 1306 4058 
C 1862 4058 2227 3617 2227 3035 
C 2227 2479 1901 2000 1536 1584 
L 262 146 
L 262 0 
L 2515 0 
L 2669 989 
z
" transform="scale(0.015625)"/>
        <path id="CMR17-35" d="M 730 3692 
C 794 3666 1056 3584 1325 3584 
C 1920 3584 2246 3911 2432 4100 
C 2432 4157 2432 4192 2394 4192 
C 2387 4192 2374 4192 2323 4163 
C 2099 4058 1837 3973 1517 3973 
C 1325 3973 1037 3999 723 4139 
C 653 4171 640 4171 634 4171 
C 602 4171 595 4164 595 4037 
L 595 2203 
C 595 2089 595 2057 659 2057 
C 691 2057 704 2070 736 2114 
C 941 2401 1222 2522 1542 2522 
C 1766 2522 2246 2382 2246 1289 
C 2246 1085 2246 715 2054 421 
C 1894 159 1645 25 1370 25 
C 947 25 518 320 403 814 
C 429 807 480 795 506 795 
C 589 795 749 840 749 1038 
C 749 1210 627 1280 506 1280 
C 358 1280 262 1190 262 1011 
C 262 454 704 -128 1382 -128 
C 2042 -128 2669 440 2669 1264 
C 2669 2030 2170 2624 1549 2624 
C 1222 2624 947 2503 730 2274 
L 730 3692 
z
" transform="scale(0.015625)"/>
       </defs>
       <use xlink:href="#CMR17-32" transform="scale(0.996264)"/>
       <use xlink:href="#CMR17-35" transform="translate(45.690477 0) scale(0.996264)"/>
      </g>
     </g>
    </g>
    <g id="xtick_3">
     <g id="line2d_3">
      <path d="M 250.297557 495.840956 
L 250.297557 49.831226 
" clip-path="url(#p8c07d31b17)" style="fill: none; stroke: #cccccc; stroke-linecap: round"/>
     </g>
     <g id="text_3">
      <!-- $\mathdefault{50}$ -->
      <g style="fill: #262626" transform="translate(240.245652 520.56165) scale(0.22 -0.22)">
       <use xlink:href="#CMR17-35" transform="scale(0.996264)"/>
       <use xlink:href="#CMR17-30" transform="translate(45.690477 0) scale(0.996264)"/>
      </g>
     </g>
    </g>
    <g id="xtick_4">
     <g id="line2d_4">
      <path d="M 319.660239 495.840956 
L 319.660239 49.831226 
" clip-path="url(#p8c07d31b17)" style="fill: none; stroke: #cccccc; stroke-linecap: round"/>
     </g>
     <g id="text_4">
      <!-- $\mathdefault{75}$ -->
      <g style="fill: #262626" transform="translate(309.608335 520.56165) scale(0.22 -0.22)">
       <defs>
        <path id="CMR17-37" d="M 2886 3941 
L 2886 4081 
L 1382 4081 
C 634 4081 621 4165 595 4288 
L 480 4288 
L 294 3094 
L 410 3094 
C 429 3215 474 3540 550 3661 
C 589 3712 1062 3712 1171 3712 
L 2579 3712 
L 1869 2661 
C 1395 1954 1069 999 1069 165 
C 1069 89 1069 -128 1299 -128 
C 1530 -128 1530 89 1530 171 
L 1530 465 
C 1530 1508 1709 2196 2003 2636 
L 2886 3941 
z
" transform="scale(0.015625)"/>
       </defs>
       <use xlink:href="#CMR17-37" transform="scale(0.996264)"/>
       <use xlink:href="#CMR17-35" transform="translate(45.690477 0) scale(0.996264)"/>
      </g>
     </g>
    </g>
    <g id="xtick_5">
     <g id="line2d_5">
      <path d="M 389.022922 495.840956 
L 389.022922 49.831226 
" clip-path="url(#p8c07d31b17)" style="fill: none; stroke: #cccccc; stroke-linecap: round"/>
     </g>
     <g id="text_5">
      <!-- $\mathdefault{100}$ -->
      <g style="fill: #262626" transform="translate(373.945065 520.56165) scale(0.22 -0.22)">
       <defs>
        <path id="CMR17-31" d="M 1702 4058 
C 1702 4192 1696 4192 1606 4192 
C 1357 3916 979 3827 621 3827 
C 602 3827 570 3827 563 3808 
C 557 3795 557 3782 557 3648 
C 755 3648 1088 3686 1344 3839 
L 1344 461 
C 1344 236 1331 160 781 160 
L 589 160 
L 589 0 
C 896 0 1216 0 1523 0 
C 1830 0 2150 0 2458 0 
L 2458 160 
L 2266 160 
C 1715 160 1702 230 1702 458 
L 1702 4058 
z
" transform="scale(0.015625)"/>
       </defs>
       <use xlink:href="#CMR17-31" transform="scale(0.996264)"/>
       <use xlink:href="#CMR17-30" transform="translate(45.690477 0) scale(0.996264)"/>
       <use xlink:href="#CMR17-30" transform="translate(91.380954 0) scale(0.996264)"/>
      </g>
     </g>
    </g>
    <g id="xtick_6">
     <g id="line2d_6">
      <path d="M 458.385605 495.840956 
L 458.385605 49.831226 
" clip-path="url(#p8c07d31b17)" style="fill: none; stroke: #cccccc; stroke-linecap: round"/>
     </g>
     <g id="text_6">
      <!-- $\mathdefault{125}$ -->
      <g style="fill: #262626" transform="translate(443.307747 520.56165) scale(0.22 -0.22)">
       <use xlink:href="#CMR17-31" transform="scale(0.996264)"/>
       <use xlink:href="#CMR17-32" transform="translate(45.690477 0) scale(0.996264)"/>
       <use xlink:href="#CMR17-35" transform="translate(91.380954 0) scale(0.996264)"/>
      </g>
     </g>
    </g>
    <g id="xtick_7">
     <g id="line2d_7">
      <path d="M 527.748287 495.840956 
L 527.748287 49.831226 
" clip-path="url(#p8c07d31b17)" style="fill: none; stroke: #cccccc; stroke-linecap: round"/>
     </g>
     <g id="text_7">
      <!-- $\mathdefault{150}$ -->
      <g style="fill: #262626" transform="translate(512.67043 520.56165) scale(0.22 -0.22)">
       <use xlink:href="#CMR17-31" transform="scale(0.996264)"/>
       <use xlink:href="#CMR17-35" transform="translate(45.690477 0) scale(0.996264)"/>
       <use xlink:href="#CMR17-30" transform="translate(91.380954 0) scale(0.996264)"/>
      </g>
     </g>
    </g>
    <g id="xtick_8">
     <g id="line2d_8">
      <path d="M 597.11097 495.840956 
L 597.11097 49.831226 
" clip-path="url(#p8c07d31b17)" style="fill: none; stroke: #cccccc; stroke-linecap: round"/>
     </g>
     <g id="text_8">
      <!-- $\mathdefault{175}$ -->
      <g style="fill: #262626" transform="translate(582.033112 520.56165) scale(0.22 -0.22)">
       <use xlink:href="#CMR17-31" transform="scale(0.996264)"/>
       <use xlink:href="#CMR17-37" transform="translate(45.690477 0) scale(0.996264)"/>
       <use xlink:href="#CMR17-35" transform="translate(91.380954 0) scale(0.996264)"/>
      </g>
     </g>
    </g>
    <g id="xtick_9">
     <g id="line2d_9">
      <path d="M 666.473652 495.840956 
L 666.473652 49.831226 
" clip-path="url(#p8c07d31b17)" style="fill: none; stroke: #cccccc; stroke-linecap: round"/>
     </g>
     <g id="text_9">
      <!-- $\mathdefault{200}$ -->
      <g style="fill: #262626" transform="translate(651.395795 520.56165) scale(0.22 -0.22)">
       <use xlink:href="#CMR17-32" transform="scale(0.996264)"/>
       <use xlink:href="#CMR17-30" transform="translate(45.690477 0) scale(0.996264)"/>
       <use xlink:href="#CMR17-30" transform="translate(91.380954 0) scale(0.996264)"/>
      </g>
     </g>
    </g>
    <g id="text_10">
     <!-- Epoch -->
     <g style="fill: #262626" transform="translate(360.891484 545.429243) scale(0.24 -0.24)">
      <defs>
       <path id="CMSS17-45" d="M 1958 433 
C 1446 433 1216 433 1101 433 
L 1101 2107 
L 3085 2107 
L 3085 2496 
L 1101 2496 
L 1101 4009 
L 1926 4009 
C 2003 4009 2080 4009 2157 4009 
L 3251 4009 
L 3251 4416 
L 563 4416 
L 563 0 
L 3334 0 
L 3334 433 
L 1958 433 
z
" transform="scale(0.015625)"/>
       <path id="CMSS17-70" d="M 966 333 
C 1178 129 1466 -5 1773 -5 
C 2368 -5 2880 603 2880 1412 
C 2880 2159 2496 2816 1946 2816 
C 1626 2816 1242 2702 954 2472 
L 954 2765 
L 480 2765 
L 480 -1216 
L 966 -1216 
L 966 333 
z
M 966 2100 
C 1018 2176 1235 2415 1587 2415 
C 2035 2415 2394 1960 2394 1412 
C 2394 787 1958 384 1530 384 
C 1402 384 1267 415 1139 523 
C 966 674 966 768 966 857 
L 966 2100 
z
" transform="scale(0.015625)"/>
       <path id="CMSS17-6f" d="M 2829 1356 
C 2829 2176 2221 2816 1504 2816 
C 768 2816 173 2157 173 1356 
C 173 544 787 -64 1498 -64 
C 2227 -64 2829 563 2829 1356 
z
M 1504 337 
C 1050 337 659 709 659 1408 
C 659 2151 1114 2427 1498 2427 
C 1914 2427 2342 2126 2342 1408 
C 2342 683 1926 337 1504 337 
z
" transform="scale(0.015625)"/>
       <path id="CMSS17-63" d="M 2464 2541 
C 2464 2585 2170 2714 2093 2739 
C 1882 2816 1613 2816 1542 2816 
C 710 2816 211 2093 211 1363 
C 211 595 768 -64 1517 -64 
C 1946 -64 2253 76 2502 242 
L 2464 664 
C 2189 453 1869 337 1523 337 
C 1024 337 698 774 698 1369 
C 698 1831 909 2414 1549 2414 
C 1901 2414 2099 2343 2394 2145 
L 2464 2541 
z
" transform="scale(0.015625)"/>
       <path id="CMSS17-68" d="M 2618 1891 
C 2618 2292 2522 2820 1798 2820 
C 1395 2820 1133 2623 947 2407 
L 947 4448 
L 474 4448 
L 474 32 
L 960 32 
L 960 1573 
C 960 1973 1114 2432 1549 2432 
C 2112 2432 2131 2056 2131 1839 
L 2131 32 
L 2618 32 
L 2618 1891 
z
" transform="scale(0.015625)"/>
      </defs>
      <use xlink:href="#CMSS17-45" transform="scale(0.996264)"/>
      <use xlink:href="#CMSS17-70" transform="translate(55.892013 0) scale(0.996264)"/>
      <use xlink:href="#CMSS17-6f" transform="translate(106.699395 0) scale(0.996264)"/>
      <use xlink:href="#CMSS17-63" transform="translate(156.145457 0) scale(0.996264)"/>
      <use xlink:href="#CMSS17-68" transform="translate(197.784279 0) scale(0.996264)"/>
     </g>
    </g>
   </g>
   <g id="matplotlib.axis_2">
    <g id="ytick_1">
     <g id="line2d_10">
      <path d="M 86.740351 446.779867 
L 694.08 446.779867 
" clip-path="url(#p8c07d31b17)" style="fill: none; stroke: #cccccc; stroke-linecap: round"/>
     </g>
     <g id="text_11">
      <!-- $\mathdefault{0.9}$ -->
      <g style="fill: #262626" transform="translate(51.175163 454.390214) scale(0.22 -0.22)">
       <defs>
        <path id="CMMI12-3a" d="M 1178 307 
C 1178 492 1024 619 870 619 
C 685 619 557 466 557 313 
C 557 128 710 0 864 0 
C 1050 0 1178 153 1178 307 
z
" transform="scale(0.015625)"/>
        <path id="CMR17-39" d="M 2253 1864 
C 2253 464 1670 31 1190 31 
C 1043 31 685 31 538 294 
C 704 268 826 357 826 518 
C 826 692 685 749 595 749 
C 538 749 365 723 365 506 
C 365 71 742 -128 1203 -128 
C 1939 -128 2688 674 2688 2073 
C 2688 3817 1971 4179 1485 4179 
C 851 4179 243 3628 243 2778 
C 243 1991 762 1408 1414 1408 
C 1952 1408 2189 1903 2253 2112 
L 2253 1864 
z
M 1427 1510 
C 1254 1510 1011 1542 813 1922 
C 678 2169 678 2461 678 2771 
C 678 3146 678 3405 858 3684 
C 947 3817 1114 4032 1485 4032 
C 2240 4032 2240 2885 2240 2632 
C 2240 2182 2035 1510 1427 1510 
z
" transform="scale(0.015625)"/>
       </defs>
       <use xlink:href="#CMR17-30" transform="scale(0.996264)"/>
       <use xlink:href="#CMMI12-3a" transform="translate(45.690477 0) scale(0.996264)"/>
       <use xlink:href="#CMR17-39" transform="translate(72.787654 0) scale(0.996264)"/>
      </g>
     </g>
    </g>
    <g id="ytick_2">
     <g id="line2d_11">
      <path d="M 86.740351 374.275588 
L 694.08 374.275588 
" clip-path="url(#p8c07d31b17)" style="fill: none; stroke: #cccccc; stroke-linecap: round"/>
     </g>
     <g id="text_12">
      <!-- $\mathdefault{1.0}$ -->
      <g style="fill: #262626" transform="translate(51.175163 381.885935) scale(0.22 -0.22)">
       <use xlink:href="#CMR17-31" transform="scale(0.996264)"/>
       <use xlink:href="#CMMI12-3a" transform="translate(45.690477 0) scale(0.996264)"/>
       <use xlink:href="#CMR17-30" transform="translate(72.787654 0) scale(0.996264)"/>
      </g>
     </g>
    </g>
    <g id="ytick_3">
     <g id="line2d_12">
      <path d="M 86.740351 301.771309 
L 694.08 301.771309 
" clip-path="url(#p8c07d31b17)" style="fill: none; stroke: #cccccc; stroke-linecap: round"/>
     </g>
     <g id="text_13">
      <!-- $\mathdefault{1.1}$ -->
      <g style="fill: #262626" transform="translate(51.175163 309.381656) scale(0.22 -0.22)">
       <use xlink:href="#CMR17-31" transform="scale(0.996264)"/>
       <use xlink:href="#CMMI12-3a" transform="translate(45.690477 0) scale(0.996264)"/>
       <use xlink:href="#CMR17-31" transform="translate(72.787654 0) scale(0.996264)"/>
      </g>
     </g>
    </g>
    <g id="ytick_4">
     <g id="line2d_13">
      <path d="M 86.740351 229.26703 
L 694.08 229.26703 
" clip-path="url(#p8c07d31b17)" style="fill: none; stroke: #cccccc; stroke-linecap: round"/>
     </g>
     <g id="text_14">
      <!-- $\mathdefault{1.2}$ -->
      <g style="fill: #262626" transform="translate(51.175163 236.877376) scale(0.22 -0.22)">
       <use xlink:href="#CMR17-31" transform="scale(0.996264)"/>
       <use xlink:href="#CMMI12-3a" transform="translate(45.690477 0) scale(0.996264)"/>
       <use xlink:href="#CMR17-32" transform="translate(72.787654 0) scale(0.996264)"/>
      </g>
     </g>
    </g>
    <g id="ytick_5">
     <g id="line2d_14">
      <path d="M 86.740351 156.762751 
L 694.08 156.762751 
" clip-path="url(#p8c07d31b17)" style="fill: none; stroke: #cccccc; stroke-linecap: round"/>
     </g>
     <g id="text_15">
      <!-- $\mathdefault{1.3}$ -->
      <g style="fill: #262626" transform="translate(51.175163 164.373097) scale(0.22 -0.22)">
       <defs>
        <path id="CMR17-33" d="M 1414 2157 
C 1984 2157 2234 1662 2234 1090 
C 2234 320 1824 25 1453 25 
C 1114 25 563 194 390 693 
C 422 680 454 680 486 680 
C 640 680 755 782 755 948 
C 755 1133 614 1216 486 1216 
C 378 1216 211 1165 211 926 
C 211 335 787 -128 1466 -128 
C 2176 -128 2720 430 2720 1085 
C 2720 1707 2208 2157 1600 2227 
C 2086 2328 2554 2756 2554 3329 
C 2554 3820 2048 4179 1472 4179 
C 890 4179 378 3829 378 3329 
C 378 3110 544 3072 627 3072 
C 762 3072 877 3155 877 3321 
C 877 3486 762 3569 627 3569 
C 602 3569 570 3569 544 3557 
C 730 3959 1235 4032 1459 4032 
C 1683 4032 2106 3925 2106 3320 
C 2106 3143 2080 2828 1862 2550 
C 1670 2304 1453 2304 1242 2284 
C 1210 2284 1062 2269 1037 2269 
C 992 2263 966 2257 966 2208 
C 966 2163 973 2157 1101 2157 
L 1414 2157 
z
" transform="scale(0.015625)"/>
       </defs>
       <use xlink:href="#CMR17-31" transform="scale(0.996264)"/>
       <use xlink:href="#CMMI12-3a" transform="translate(45.690477 0) scale(0.996264)"/>
       <use xlink:href="#CMR17-33" transform="translate(72.787654 0) scale(0.996264)"/>
      </g>
     </g>
    </g>
    <g id="ytick_6">
     <g id="line2d_15">
      <path d="M 86.740351 84.258471 
L 694.08 84.258471 
" clip-path="url(#p8c07d31b17)" style="fill: none; stroke: #cccccc; stroke-linecap: round"/>
     </g>
     <g id="text_16">
      <!-- $\mathdefault{1.4}$ -->
      <g style="fill: #262626" transform="translate(51.175163 91.868818) scale(0.22 -0.22)">
       <defs>
        <path id="CMR17-34" d="M 2150 4122 
C 2150 4256 2144 4256 2029 4256 
L 128 1254 
L 128 1088 
L 1779 1088 
L 1779 457 
C 1779 224 1766 160 1318 160 
L 1197 160 
L 1197 0 
C 1402 0 1747 0 1965 0 
C 2182 0 2528 0 2733 0 
L 2733 160 
L 2611 160 
C 2163 160 2150 224 2150 457 
L 2150 1088 
L 2803 1088 
L 2803 1254 
L 2150 1254 
L 2150 4122 
z
M 1798 3703 
L 1798 1254 
L 256 1254 
L 1798 3703 
z
" transform="scale(0.015625)"/>
       </defs>
       <use xlink:href="#CMR17-31" transform="scale(0.996264)"/>
       <use xlink:href="#CMMI12-3a" transform="translate(45.690477 0) scale(0.996264)"/>
       <use xlink:href="#CMR17-34" transform="translate(72.787654 0) scale(0.996264)"/>
      </g>
     </g>
    </g>
    <g id="text_17">
     <!-- Loss -->
     <g style="fill: #262626" transform="translate(42.524405 293.15902) rotate(-90) scale(0.24 -0.24)">
      <defs>
       <path id="CMSS17-4c" d="M 1670 414 
C 1594 414 1517 414 1440 414 
L 1101 414 
L 1101 4416 
L 563 4416 
L 563 0 
L 3002 0 
L 3002 414 
L 1670 414 
z
" transform="scale(0.015625)"/>
       <path id="CMSS17-73" d="M 2061 2627 
C 1683 2807 1389 2807 1197 2807 
C 742 2807 198 2648 198 2003 
C 198 1359 902 1218 1094 1179 
C 1389 1122 1715 1058 1715 740 
C 1715 337 1254 337 1171 337 
C 915 337 563 407 243 638 
L 166 210 
C 531 0 883 -64 1178 -64 
C 1965 -64 2163 416 2163 781 
C 2163 1094 1984 1305 1862 1401 
C 1651 1568 1574 1587 1050 1696 
C 960 1709 646 1779 646 2066 
C 646 2432 1050 2432 1139 2432 
C 1555 2432 1811 2303 1984 2208 
L 2061 2627 
z
" transform="scale(0.015625)"/>
      </defs>
      <use xlink:href="#CMSS17-4c" transform="scale(0.996264)"/>
      <use xlink:href="#CMSS17-6f" transform="translate(50.687105 0) scale(0.996264)"/>
      <use xlink:href="#CMSS17-73" transform="translate(97.530729 0) scale(0.996264)"/>
      <use xlink:href="#CMSS17-73" transform="translate(133.444271 0) scale(0.996264)"/>
     </g>
    </g>
   </g>
   <g id="PolyCollection_1">
    <defs>
     <path id="m392111847d" d="M 114.346699 -482.769983 
L 114.346699 -445.506599 
L 117.121206 -389.07919 
L 119.895714 -373.670313 
L 122.670221 -388.003742 
L 125.444728 -381.71638 
L 128.219236 -386.389901 
L 130.993743 -386.788079 
L 133.76825 -352.289565 
L 136.542758 -360.655271 
L 139.317265 -386.495891 
L 142.091772 -345.083116 
L 144.866279 -428.860237 
L 147.640787 -465.276894 
L 150.415294 -418.444759 
L 153.189801 -436.795592 
L 155.964309 -417.377181 
L 158.738816 -474.414389 
L 161.513323 -472.996501 
L 164.287831 -473.651711 
L 167.062338 -472.313291 
L 169.836845 -467.301719 
L 172.611352 -433.453335 
L 175.38586 -433.810228 
L 178.160367 -426.500699 
L 180.934874 -435.849411 
L 183.709382 -427.529163 
L 186.483889 -410.467141 
L 189.258396 -428.075521 
L 192.032904 -476.533804 
L 194.807411 -473.775445 
L 197.581918 -474.280924 
L 200.356425 -475.424202 
L 203.130933 -474.576999 
L 205.90544 -474.322852 
L 208.679947 -476.025606 
L 211.454455 -475.369681 
L 214.228962 -475.076038 
L 217.003469 -474.22998 
L 219.777977 -477.339841 
L 222.552484 -477.101054 
L 225.326991 -477.461066 
L 228.101498 -476.761616 
L 230.876006 -478.024721 
L 233.650513 -477.356107 
L 236.42502 -477.926649 
L 239.199528 -477.537368 
L 241.974035 -477.825572 
L 244.748542 -477.59208 
L 247.52305 -477.771346 
L 250.297557 -477.781974 
L 253.072064 -477.591508 
L 255.846572 -476.873524 
L 258.621079 -477.230036 
L 261.395586 -476.937451 
L 264.170093 -477.059364 
L 266.944601 -477.162158 
L 269.719108 -476.89165 
L 272.493615 -478.044898 
L 275.268123 -477.352768 
L 278.04263 -477.70055 
L 280.817137 -477.344945 
L 283.591645 -477.461095 
L 286.366152 -476.195037 
L 289.140659 -477.068499 
L 291.915166 -477.002887 
L 294.689674 -476.912018 
L 297.464181 -476.535092 
L 300.238688 -476.841088 
L 303.013196 -477.002363 
L 305.787703 -477.124908 
L 308.56221 -477.174891 
L 311.336718 -477.375646 
L 314.111225 -477.163255 
L 316.885732 -476.875862 
L 319.660239 -476.994063 
L 322.434747 -476.877674 
L 325.209254 -476.618662 
L 327.983761 -476.363419 
L 330.758269 -476.702304 
L 333.532776 -476.386553 
L 336.307283 -475.794212 
L 339.081791 -476.280802 
L 341.856298 -475.839527 
L 344.630805 -479.666829 
L 347.405313 -476.964148 
L 350.17982 -476.237729 
L 352.954327 -476.575458 
L 355.728834 -476.440025 
L 358.503342 -475.969351 
L 361.277849 -476.118574 
L 364.052356 -475.694376 
L 366.826864 -476.253804 
L 369.601371 -475.992263 
L 372.375878 -476.156638 
L 375.150386 -474.691739 
L 377.924893 -474.995902 
L 380.6994 -476.266186 
L 383.473907 -475.19858 
L 386.248415 -475.291929 
L 389.022922 -474.929503 
L 391.797429 -474.354382 
L 394.571937 -475.087868 
L 397.346444 -474.65704 
L 400.120951 -476.004547 
L 402.895459 -475.519602 
L 405.669966 -475.395367 
L 408.444473 -478.428014 
L 411.21898 -476.492638 
L 413.993488 -475.180311 
L 416.767995 -474.532374 
L 419.542502 -474.765129 
L 422.31701 -473.667166 
L 425.091517 -477.94053 
L 427.866024 -476.329742 
L 430.640532 -475.928825 
L 433.415039 -474.792795 
L 436.189546 -470.55554 
L 438.964054 -475.229903 
L 441.738561 -472.716549 
L 444.513068 -462.022361 
L 447.287575 -468.531955 
L 450.062083 -468.912459 
L 452.83659 -464.676874 
L 455.611097 -470.425509 
L 458.385605 -461.723469 
L 461.160112 -465.578502 
L 463.934619 -455.742626 
L 466.709127 -474.927452 
L 469.483634 -460.458508 
L 472.258141 -464.944329 
L 475.032648 -456.022963 
L 477.807156 -464.628747 
L 480.581663 -462.09119 
L 483.35617 -473.178224 
L 486.130678 -469.8921 
L 488.905185 -464.156465 
L 491.679692 -461.560859 
L 494.4542 -469.358408 
L 497.228707 -465.118053 
L 500.003214 -473.053169 
L 502.777721 -470.877325 
L 505.552229 -464.639334 
L 508.326736 -466.575389 
L 511.101243 -466.005006 
L 513.875751 -470.45432 
L 516.650258 -455.791617 
L 519.424765 -460.386549 
L 522.199273 -471.453535 
L 524.97378 -459.778303 
L 527.748287 -454.841287 
L 530.522794 -463.086645 
L 533.297302 -458.362095 
L 536.071809 -467.322755 
L 538.846316 -468.80418 
L 541.620824 -456.469205 
L 544.395331 -462.008239 
L 547.169838 -469.166892 
L 549.944346 -464.481732 
L 552.718853 -475.139861 
L 555.49336 -465.460683 
L 558.267868 -468.246421 
L 561.042375 -467.440908 
L 563.816882 -471.19353 
L 566.591389 -470.800719 
L 569.365897 -469.984664 
L 572.140404 -468.769597 
L 574.914911 -466.921406 
L 577.689419 -458.310282 
L 580.463926 -453.313068 
L 583.238433 -458.96387 
L 586.012941 -455.996967 
L 588.787448 -464.359858 
L 591.561955 -466.704264 
L 594.336462 -463.597466 
L 597.11097 -466.140649 
L 599.885477 -463.546761 
L 602.659984 -467.798087 
L 605.434492 -466.694805 
L 608.208999 -458.145287 
L 610.983506 -468.000098 
L 613.758014 -460.203264 
L 616.532521 -448.439683 
L 619.307028 -440.464246 
L 622.081535 -447.049462 
L 624.856043 -467.96776 
L 627.63055 -466.785842 
L 630.405057 -463.889964 
L 633.179565 -465.900091 
L 635.954072 -462.485432 
L 638.728579 -474.591786 
L 641.503087 -467.511075 
L 644.277594 -460.264607 
L 647.052101 -462.084703 
L 649.826609 -469.169802 
L 652.601116 -467.905556 
L 655.375623 -467.939852 
L 658.15013 -468.479055 
L 660.924638 -467.021624 
L 663.699145 -457.82665 
L 666.473652 -473.223215 
L 666.473652 -478.966036 
L 666.473652 -478.966036 
L 663.699145 -497.393762 
L 660.924638 -491.00022 
L 658.15013 -475.826362 
L 655.375623 -486.651251 
L 652.601116 -478.698441 
L 649.826609 -479.031862 
L 647.052101 -489.778857 
L 644.277594 -488.595701 
L 641.503087 -480.211249 
L 638.728579 -481.324953 
L 635.954072 -487.240825 
L 633.179565 -480.451324 
L 630.405057 -504.695754 
L 627.63055 -478.823556 
L 624.856043 -477.364312 
L 622.081535 -479.519692 
L 619.307028 -505.895604 
L 616.532521 -477.932325 
L 613.758014 -478.530152 
L 610.983506 -478.669722 
L 608.208999 -478.982826 
L 605.434492 -478.873593 
L 602.659984 -478.752435 
L 599.885477 -478.847406 
L 597.11097 -479.263542 
L 594.336462 -480.099058 
L 591.561955 -480.223508 
L 588.787448 -479.647481 
L 586.012941 -479.192326 
L 583.238433 -499.10596 
L 580.463926 -478.665191 
L 577.689419 -479.493982 
L 574.914911 -479.236019 
L 572.140404 -479.149873 
L 569.365897 -482.276047 
L 566.591389 -478.691378 
L 563.816882 -497.958627 
L 561.042375 -479.392953 
L 558.267868 -477.50746 
L 555.49336 -478.881845 
L 552.718853 -479.079849 
L 549.944346 -479.193343 
L 547.169838 -500.022042 
L 544.395331 -478.138629 
L 541.620824 -478.30735 
L 538.846316 -478.751162 
L 536.071809 -471.036707 
L 533.297302 -478.991365 
L 530.522794 -480.290289 
L 527.748287 -480.220026 
L 524.97378 -478.437518 
L 522.199273 -479.390043 
L 519.424765 -479.189845 
L 516.650258 -479.974036 
L 513.875751 -479.206493 
L 511.101243 -478.996469 
L 508.326736 -478.992923 
L 505.552229 -479.519454 
L 502.777721 -479.735774 
L 500.003214 -478.59924 
L 497.228707 -478.033831 
L 494.4542 -479.550506 
L 491.679692 -484.149562 
L 488.905185 -479.68786 
L 486.130678 -479.764871 
L 483.35617 -479.810711 
L 480.581663 -479.152097 
L 477.807156 -481.620742 
L 475.032648 -481.712899 
L 472.258141 -479.439174 
L 469.483634 -479.491835 
L 466.709127 -480.695835 
L 463.934619 -480.891168 
L 461.160112 -479.590956 
L 458.385605 -479.426009 
L 455.611097 -482.575115 
L 452.83659 -494.391035 
L 450.062083 -479.939835 
L 447.287575 -479.950997 
L 444.513068 -479.572878 
L 441.738561 -479.652203 
L 438.964054 -482.993935 
L 436.189546 -479.834895 
L 433.415039 -487.854284 
L 430.640532 -481.001832 
L 427.866024 -479.831956 
L 425.091517 -483.840435 
L 422.31701 -480.030179 
L 419.542502 -482.949669 
L 416.767995 -480.403863 
L 413.993488 -481.269764 
L 411.21898 -480.476987 
L 408.444473 -505.583263 
L 405.669966 -479.301893 
L 402.895459 -480.039195 
L 400.120951 -500.032586 
L 397.346444 -481.602807 
L 394.571937 -480.920742 
L 391.797429 -480.3198 
L 389.022922 -480.047208 
L 386.248415 -479.844483 
L 383.473907 -479.626874 
L 380.6994 -480.039242 
L 377.924893 -479.855358 
L 375.150386 -479.786765 
L 372.375878 -485.853845 
L 369.601371 -480.138507 
L 366.826864 -479.509144 
L 364.052356 -479.931297 
L 361.277849 -491.201038 
L 358.503342 -479.688244 
L 355.728834 -482.599741 
L 352.954327 -479.69972 
L 350.17982 -482.218836 
L 347.405313 -481.641539 
L 344.630805 -496.042368 
L 341.856298 -494.61409 
L 339.081791 -479.5913 
L 336.307283 -479.908926 
L 333.532776 -500.818728 
L 330.758269 -480.85686 
L 327.983761 -480.206241 
L 325.209254 -479.837661 
L 322.434747 -479.506527 
L 319.660239 -480.691876 
L 316.885732 -479.864119 
L 314.111225 -478.845545 
L 311.336718 -480.155201 
L 308.56221 -484.721015 
L 305.787703 -479.442513 
L 303.013196 -479.15946 
L 300.238688 -479.503665 
L 297.464181 -479.339862 
L 294.689674 -481.884619 
L 291.915166 -481.383672 
L 289.140659 -479.54836 
L 286.366152 -479.872149 
L 283.591645 -479.326172 
L 280.817137 -479.384927 
L 278.04263 -501.346377 
L 275.268123 -485.681659 
L 272.493615 -494.629965 
L 269.719108 -478.732782 
L 266.944601 -479.282956 
L 264.170093 -479.129145 
L 261.395586 -489.163286 
L 258.621079 -479.327985 
L 255.846572 -478.892339 
L 253.072064 -478.262697 
L 250.297557 -489.588342 
L 247.52305 -478.261647 
L 244.748542 -478.46547 
L 241.974035 -487.763047 
L 239.199528 -478.84068 
L 236.42502 -480.016442 
L 233.650513 -478.716879 
L 230.876006 -479.433355 
L 228.101498 -482.620298 
L 225.326991 -481.421928 
L 222.552484 -481.326889 
L 219.777977 -501.949507 
L 217.003469 -480.198847 
L 214.228962 -478.403794 
L 211.454455 -479.017505 
L 208.679947 -482.211175 
L 205.90544 -479.853307 
L 203.130933 -479.441826 
L 200.356425 -478.781341 
L 197.581918 -480.265246 
L 194.807411 -479.008871 
L 192.032904 -484.787843 
L 189.258396 -479.11424 
L 186.483889 -479.026568 
L 183.709382 -478.615487 
L 180.934874 -478.781961 
L 178.160367 -478.764169 
L 175.38586 -483.014351 
L 172.611352 -478.683985 
L 169.836845 -479.758479 
L 167.062338 -479.342772 
L 164.287831 -478.979487 
L 161.513323 -478.820884 
L 158.738816 -478.498956 
L 155.964309 -478.634806 
L 153.189801 -478.520755 
L 150.415294 -478.5779 
L 147.640787 -478.927351 
L 144.866279 -479.384939 
L 142.091772 -478.429791 
L 139.317265 -478.769941 
L 136.542758 -478.636475 
L 133.76825 -478.467426 
L 130.993743 -478.129804 
L 128.219236 -478.140489 
L 125.444728 -477.920496 
L 122.670221 -475.261067 
L 119.895714 -475.697906 
L 117.121206 -472.489687 
L 114.346699 -482.769983 
z
" style="stroke: #0000ff; stroke-opacity: 0.2"/>
    </defs>
    <g clip-path="url(#p8c07d31b17)">
     <use xlink:href="#m392111847d" x="0" y="576" style="fill: #0000ff; fill-opacity: 0.2; stroke: #0000ff; stroke-opacity: 0.2"/>
    </g>
   </g>
   <g id="PolyCollection_2">
    <defs>
     <path id="m37180a00dc" d="M 114.346699 -341.308315 
L 114.346699 -270.536315 
L 117.121206 -205.452181 
L 119.895714 -194.044062 
L 122.670221 -187.564708 
L 125.444728 -177.995812 
L 128.219236 -170.324669 
L 130.993743 -169.870849 
L 133.76825 -165.939543 
L 136.542758 -162.085845 
L 139.317265 -161.097498 
L 142.091772 -157.52442 
L 144.866279 -158.165224 
L 147.640787 -155.435867 
L 150.415294 -152.526872 
L 153.189801 -154.047983 
L 155.964309 -150.28606 
L 158.738816 -151.932384 
L 161.513323 -151.073256 
L 164.287831 -154.084855 
L 167.062338 -151.860882 
L 169.836845 -151.527791 
L 172.611352 -150.035157 
L 175.38586 -149.316649 
L 178.160367 -147.474039 
L 180.934874 -146.091258 
L 183.709382 -146.491224 
L 186.483889 -144.62858 
L 189.258396 -143.522365 
L 192.032904 -142.840062 
L 194.807411 -144.271544 
L 197.581918 -147.342053 
L 200.356425 -142.864341 
L 203.130933 -143.70334 
L 205.90544 -143.570208 
L 208.679947 -142.32075 
L 211.454455 -142.134528 
L 214.228962 -142.613295 
L 217.003469 -141.13416 
L 219.777977 -141.293288 
L 222.552484 -137.622658 
L 225.326991 -139.299524 
L 228.101498 -137.638929 
L 230.876006 -139.866194 
L 233.650513 -139.444763 
L 236.42502 -137.481041 
L 239.199528 -136.598493 
L 241.974035 -137.823529 
L 244.748542 -130.77244 
L 247.52305 -135.793313 
L 250.297557 -134.492768 
L 253.072064 -134.976782 
L 255.846572 -133.102403 
L 258.621079 -135.193245 
L 261.395586 -131.481121 
L 264.170093 -135.066697 
L 266.944601 -130.247022 
L 269.719108 -133.592332 
L 272.493615 -133.813994 
L 275.268123 -123.6944 
L 278.04263 -128.424017 
L 280.817137 -129.222804 
L 283.591645 -127.921495 
L 286.366152 -131.413578 
L 289.140659 -129.736487 
L 291.915166 -128.870443 
L 294.689674 -130.538709 
L 297.464181 -131.440147 
L 300.238688 -129.885646 
L 303.013196 -131.331438 
L 305.787703 -130.82968 
L 308.56221 -130.240907 
L 311.336718 -131.93525 
L 314.111225 -129.319478 
L 316.885732 -130.432862 
L 319.660239 -129.475472 
L 322.434747 -129.672569 
L 325.209254 -128.012078 
L 327.983761 -128.059104 
L 330.758269 -128.968543 
L 333.532776 -129.271601 
L 336.307283 -120.459023 
L 339.081791 -126.649522 
L 341.856298 -127.105937 
L 344.630805 -125.994503 
L 347.405313 -116.969056 
L 350.17982 -119.858208 
L 352.954327 -119.654863 
L 355.728834 -121.85656 
L 358.503342 -123.497256 
L 361.277849 -122.070066 
L 364.052356 -113.923458 
L 366.826864 -116.782644 
L 369.601371 -121.892955 
L 372.375878 -120.659794 
L 375.150386 -121.616319 
L 377.924893 -122.519545 
L 380.6994 -125.803261 
L 383.473907 -124.316029 
L 386.248415 -125.126598 
L 389.022922 -125.559531 
L 391.797429 -122.741054 
L 394.571937 -124.081726 
L 397.346444 -124.748731 
L 400.120951 -123.817133 
L 402.895459 -112.589702 
L 405.669966 -115.069969 
L 408.444473 -114.814733 
L 411.21898 -113.042459 
L 413.993488 -111.527024 
L 416.767995 -112.396373 
L 419.542502 -111.967978 
L 422.31701 -114.14779 
L 425.091517 -114.537015 
L 427.866024 -114.292026 
L 430.640532 -117.470982 
L 433.415039 -118.809758 
L 436.189546 -119.626624 
L 438.964054 -120.133248 
L 441.738561 -118.115721 
L 444.513068 -120.613684 
L 447.287575 -123.337555 
L 450.062083 -122.243108 
L 452.83659 -119.161118 
L 455.611097 -106.850225 
L 458.385605 -115.546114 
L 461.160112 -115.456769 
L 463.934619 -118.493965 
L 466.709127 -118.781043 
L 469.483634 -116.185724 
L 472.258141 -116.892306 
L 475.032648 -117.923823 
L 477.807156 -119.909335 
L 480.581663 -117.565094 
L 483.35617 -118.741404 
L 486.130678 -116.153049 
L 488.905185 -118.597968 
L 491.679692 -116.04787 
L 494.4542 -115.08156 
L 497.228707 -119.070201 
L 500.003214 -122.750843 
L 502.777721 -113.644115 
L 505.552229 -115.275843 
L 508.326736 -115.911276 
L 511.101243 -116.00327 
L 513.875751 -118.106324 
L 516.650258 -116.107114 
L 519.424765 -117.242092 
L 522.199273 -117.297567 
L 524.97378 -120.147796 
L 527.748287 -112.548394 
L 530.522794 -112.706138 
L 533.297302 -117.188191 
L 536.071809 -122.566545 
L 538.846316 -117.965692 
L 541.620824 -117.977552 
L 544.395331 -118.668423 
L 547.169838 -114.314064 
L 549.944346 -103.941204 
L 552.718853 -106.540699 
L 555.49336 -114.681832 
L 558.267868 -117.785063 
L 561.042375 -114.162234 
L 563.816882 -113.363065 
L 566.591389 -113.528299 
L 569.365897 -116.178092 
L 572.140404 -115.431393 
L 574.914911 -111.914554 
L 577.689419 -112.162356 
L 580.463926 -113.282023 
L 583.238433 -113.190629 
L 586.012941 -104.979853 
L 588.787448 -109.532645 
L 591.561955 -109.529545 
L 594.336462 -109.501354 
L 597.11097 -108.874001 
L 599.885477 -112.316285 
L 602.659984 -111.720319 
L 605.434492 -112.303072 
L 608.208999 -112.21206 
L 610.983506 -111.350261 
L 613.758014 -109.906662 
L 616.532521 -112.158206 
L 619.307028 -122.611177 
L 622.081535 -109.338792 
L 624.856043 -115.061383 
L 627.63055 -111.672762 
L 630.405057 -109.851282 
L 633.179565 -101.031089 
L 635.954072 -102.962565 
L 638.728579 -101.915689 
L 641.503087 -102.376473 
L 644.277594 -103.937891 
L 647.052101 -105.756317 
L 649.826609 -110.288216 
L 652.601116 -112.451141 
L 655.375623 -116.78584 
L 658.15013 -115.254044 
L 660.924638 -112.958949 
L 663.699145 -108.194321 
L 666.473652 -100.432213 
L 666.473652 -142.279632 
L 666.473652 -142.279632 
L 663.699145 -150.061392 
L 660.924638 -126.739771 
L 658.15013 -131.001067 
L 655.375623 -136.896476 
L 652.601116 -127.03203 
L 649.826609 -138.500203 
L 647.052101 -142.8766 
L 644.277594 -150.268554 
L 641.503087 -128.476487 
L 638.728579 -131.712324 
L 635.954072 -141.304354 
L 633.179565 -136.692587 
L 630.405057 -148.830155 
L 627.63055 -132.364004 
L 624.856043 -135.607664 
L 622.081535 -174.728875 
L 619.307028 -169.824882 
L 616.532521 -168.197145 
L 613.758014 -143.379169 
L 610.983506 -135.144686 
L 608.208999 -148.513665 
L 605.434492 -140.396499 
L 602.659984 -131.201121 
L 599.885477 -148.602148 
L 597.11097 -134.01009 
L 594.336462 -146.84349 
L 591.561955 -145.502241 
L 588.787448 -147.300506 
L 586.012941 -153.560487 
L 583.238433 -156.282069 
L 580.463926 -162.580783 
L 577.689419 -152.486136 
L 574.914911 -138.452551 
L 572.140404 -131.700161 
L 569.365897 -124.502966 
L 566.591389 -123.42809 
L 563.816882 -149.037794 
L 561.042375 -133.402723 
L 558.267868 -132.289306 
L 555.49336 -148.427709 
L 552.718853 -138.993137 
L 549.944346 -141.532409 
L 547.169838 -138.503876 
L 544.395331 -147.059429 
L 541.620824 -151.644266 
L 538.846316 -143.70231 
L 536.071809 -152.195165 
L 533.297302 -195.105732 
L 530.522794 -143.583755 
L 527.748287 -159.600904 
L 524.97378 -151.30589 
L 522.199273 -132.914512 
L 519.424765 -160.064269 
L 516.650258 -158.188931 
L 513.875751 -129.892944 
L 511.101243 -143.13308 
L 508.326736 -140.69508 
L 505.552229 -148.489576 
L 502.777721 -125.717604 
L 500.003214 -144.131926 
L 497.228707 -137.585362 
L 494.4542 -146.451967 
L 491.679692 -153.135192 
L 488.905185 -147.855116 
L 486.130678 -127.841015 
L 483.35617 -135.191748 
L 480.581663 -152.286892 
L 477.807156 -147.848464 
L 475.032648 -156.367643 
L 472.258141 -142.887762 
L 469.483634 -153.660991 
L 466.709127 -123.136261 
L 463.934619 -161.32594 
L 461.160112 -143.264927 
L 458.385605 -150.361331 
L 455.611097 -155.379247 
L 452.83659 -145.187531 
L 450.062083 -146.741794 
L 447.287575 -140.007195 
L 444.513068 -157.901481 
L 441.738561 -137.019924 
L 438.964054 -135.78778 
L 436.189546 -142.173452 
L 433.415039 -130.892468 
L 430.640532 -133.812802 
L 427.866024 -125.487975 
L 425.091517 -144.282008 
L 422.31701 -126.585222 
L 419.542502 -131.247295 
L 416.767995 -124.994373 
L 413.993488 -126.256139 
L 411.21898 -127.274347 
L 408.444473 -129.62568 
L 405.669966 -135.749048 
L 402.895459 -124.885331 
L 400.120951 -139.82991 
L 397.346444 -130.374954 
L 394.571937 -132.795118 
L 391.797429 -129.278899 
L 389.022922 -135.690615 
L 386.248415 -134.442063 
L 383.473907 -130.357298 
L 380.6994 -132.623897 
L 377.924893 -129.973553 
L 375.150386 -130.673176 
L 372.375878 -133.093494 
L 369.601371 -131.369932 
L 366.826864 -134.101447 
L 364.052356 -133.171234 
L 361.277849 -133.545728 
L 358.503342 -132.053177 
L 355.728834 -130.603247 
L 352.954327 -132.430355 
L 350.17982 -137.825046 
L 347.405313 -150.658742 
L 344.630805 -137.793668 
L 341.856298 -141.43259 
L 339.081791 -138.747958 
L 336.307283 -142.40599 
L 333.532776 -139.821987 
L 330.758269 -140.379877 
L 327.983761 -144.749738 
L 325.209254 -140.43187 
L 322.434747 -139.318452 
L 319.660239 -137.717396 
L 316.885732 -145.244932 
L 314.111225 -141.987755 
L 311.336718 -141.253874 
L 308.56221 -149.214762 
L 305.787703 -139.935359 
L 303.013196 -139.727148 
L 300.238688 -140.011345 
L 297.464181 -142.899019 
L 294.689674 -146.070223 
L 291.915166 -150.824595 
L 289.140659 -140.46429 
L 286.366152 -139.389144 
L 283.591645 -143.572641 
L 280.817137 -142.983258 
L 278.04263 -149.149975 
L 275.268123 -148.442257 
L 272.493615 -147.505807 
L 269.719108 -149.338925 
L 266.944601 -151.251178 
L 264.170093 -149.31913 
L 261.395586 -155.506464 
L 258.621079 -151.905672 
L 255.846572 -147.352737 
L 253.072064 -150.083573 
L 250.297557 -155.222695 
L 247.52305 -152.489856 
L 244.748542 -154.265639 
L 241.974035 -151.962102 
L 239.199528 -150.452152 
L 236.42502 -177.269339 
L 233.650513 -149.627178 
L 230.876006 -155.265959 
L 228.101498 -155.03132 
L 225.326991 -158.624959 
L 222.552484 -153.260214 
L 219.777977 -179.65579 
L 217.003469 -162.145948 
L 214.228962 -164.459359 
L 211.454455 -163.115406 
L 208.679947 -163.800715 
L 205.90544 -164.813103 
L 203.130933 -165.290051 
L 200.356425 -163.120367 
L 197.581918 -167.107005 
L 194.807411 -165.859979 
L 192.032904 -171.836002 
L 189.258396 -266.599428 
L 186.483889 -273.364411 
L 183.709382 -239.655359 
L 180.934874 -249.945052 
L 178.160367 -245.945153 
L 175.38586 -239.992218 
L 172.611352 -249.090265 
L 169.836845 -201.070061 
L 167.062338 -180.613026 
L 164.287831 -173.464963 
L 161.513323 -174.834387 
L 158.738816 -179.085619 
L 155.964309 -281.311739 
L 153.189801 -237.353253 
L 150.415294 -277.955029 
L 147.640787 -204.125258 
L 144.866279 -277.707036 
L 142.091772 -422.4583 
L 139.317265 -358.157737 
L 136.542758 -377.190014 
L 133.76825 -399.239234 
L 130.993743 -334.390629 
L 128.219236 -361.922044 
L 125.444728 -370.505454 
L 122.670221 -358.018357 
L 119.895714 -381.500394 
L 117.121206 -361.981956 
L 114.346699 -341.308315 
z
" style="stroke: #ff0000; stroke-opacity: 0.2"/>
    </defs>
    <g clip-path="url(#p8c07d31b17)">
     <use xlink:href="#m37180a00dc" x="0" y="576" style="fill: #ff0000; fill-opacity: 0.2; stroke: #ff0000; stroke-opacity: 0.2"/>
    </g>
   </g>
   <g id="line2d_16">
    <path d="M 114.346699 125.427975 
L 117.121206 163.803775 
L 119.895714 178.859098 
L 122.670221 164.112681 
L 125.444728 127.442163 
L 128.219236 158.279664 
L 130.993743 123.311757 
L 133.76825 166.518678 
L 136.542758 159.618561 
L 139.317265 172.717413 
L 142.091772 127.844085 
L 144.866279 105.074832 
L 147.640787 103.42679 
L 150.415294 103.52138 
L 153.189801 101.594006 
L 158.738816 101.021604 
L 161.513323 102.071676 
L 164.287831 100.679546 
L 167.062338 98.692309 
L 169.836845 97.682162 
L 172.611352 100.336248 
L 175.38586 97.501187 
L 180.934874 97.678155 
L 183.709382 99.659048 
L 186.483889 98.081031 
L 189.258396 100.733733 
L 192.032904 97.877828 
L 194.807411 98.174714 
L 197.581918 97.769787 
L 200.356425 98.108745 
L 203.130933 97.815007 
L 205.90544 97.949903 
L 208.679947 98.69436 
L 211.454455 98.656915 
L 214.228962 97.815198 
L 217.003469 97.988206 
L 219.777977 97.533766 
L 222.552484 97.493698 
L 225.326991 97.111238 
L 228.101498 97.900295 
L 230.876006 97.260015 
L 233.650513 97.719034 
L 236.42502 97.586714 
L 239.199528 97.580656 
L 241.974035 97.384179 
L 244.748542 98.171756 
L 247.52305 98.082986 
L 250.297557 97.840956 
L 253.072064 98.064908 
L 255.846572 97.855838 
L 258.621079 98.124295 
L 261.395586 97.485589 
L 264.170093 97.310911 
L 266.944601 98.500125 
L 269.719108 97.848158 
L 275.268123 97.331279 
L 280.817137 97.218087 
L 283.591645 97.407409 
L 286.366152 97.410128 
L 289.140659 98.101112 
L 291.915166 96.62069 
L 294.689674 98.151876 
L 297.464181 98.167702 
L 300.238688 97.659886 
L 303.013196 97.823307 
L 305.787703 96.94257 
L 308.56221 96.986932 
L 311.336718 98.03748 
L 314.111225 97.827075 
L 316.885732 97.019749 
L 319.660239 97.37669 
L 322.434747 97.310482 
L 325.209254 97.45902 
L 327.983761 97.098455 
L 336.307283 98.132814 
L 339.081791 98.619089 
L 341.856298 96.269521 
L 344.630805 95.968962 
L 350.17982 96.962938 
L 352.954327 97.068547 
L 355.728834 96.923013 
L 358.503342 97.535734 
L 361.277849 96.148792 
L 364.052356 97.139763 
L 369.601371 97.318066 
L 372.375878 96.329146 
L 375.150386 97.096547 
L 377.924893 96.954067 
L 380.6994 97.116915 
L 383.473907 97.537222 
L 386.248415 97.640615 
L 389.022922 96.648973 
L 391.797429 97.192519 
L 394.571937 97.210249 
L 397.346444 97.651824 
L 400.120951 96.588874 
L 402.895459 96.730018 
L 405.669966 97.108281 
L 408.444473 96.167919 
L 411.21898 97.041504 
L 413.993488 96.390214 
L 416.767995 96.563068 
L 422.31701 96.585639 
L 425.091517 97.140812 
L 427.866024 97.462121 
L 430.640532 97.205828 
L 433.415039 97.836853 
L 436.189546 97.691988 
L 438.964054 99.059314 
L 441.738561 98.994728 
L 444.513068 101.58604 
L 447.287575 99.361304 
L 450.062083 98.718514 
L 452.83659 96.799756 
L 455.611097 98.579545 
L 458.385605 98.504314 
L 461.160112 97.290323 
L 463.934619 100.740999 
L 466.709127 97.0664 
L 469.483634 98.253324 
L 477.807156 98.056608 
L 480.581663 100.489923 
L 483.35617 100.281773 
L 488.905185 97.293405 
L 491.679692 99.204656 
L 494.4542 102.27588 
L 497.228707 99.809781 
L 500.003214 98.778646 
L 502.777721 98.207388 
L 505.552229 96.971668 
L 508.326736 98.693787 
L 511.101243 102.519294 
L 513.875751 98.781794 
L 516.650258 98.982039 
L 519.424765 98.349678 
L 522.199273 100.540214 
L 524.97378 100.537876 
L 527.748287 99.377617 
L 530.522794 99.115271 
L 533.297302 105.213735 
L 536.071809 106.959996 
L 538.846316 104.145915 
L 541.620824 102.934572 
L 544.395331 100.138483 
L 547.169838 98.059232 
L 549.944346 97.896383 
L 552.718853 98.625051 
L 555.49336 102.286804 
L 558.267868 101.770497 
L 561.042375 99.605862 
L 563.816882 96.986216 
L 566.591389 99.716765 
L 569.365897 98.267538 
L 572.140404 102.385638 
L 574.914911 98.046591 
L 577.689419 100.837958 
L 580.463926 99.612285 
L 583.238433 97.313869 
L 586.012941 105.051066 
L 588.787448 103.892869 
L 591.561955 104.163345 
L 594.336462 99.771955 
L 597.11097 100.275668 
L 599.885477 100.46499 
L 602.659984 99.614067 
L 605.434492 102.857775 
L 608.208999 106.877851 
L 610.983506 100.150694 
L 613.758014 106.788747 
L 616.532521 107.449204 
L 619.307028 104.780808 
L 622.081535 101.440841 
L 624.856043 106.42489 
L 627.63055 100.680835 
L 630.405057 99.98589 
L 633.179565 99.845883 
L 635.954072 100.21528 
L 638.728579 98.468499 
L 641.503087 100.367014 
L 644.277594 102.090804 
L 647.052101 96.929548 
L 649.826609 97.407409 
L 652.601116 99.98527 
L 655.375623 99.646789 
L 658.15013 100.73588 
L 660.924638 99.112404 
L 663.699145 98.068724 
L 666.473652 99.668254 
L 666.473652 99.668254 
" clip-path="url(#p8c07d31b17)" style="fill: none; stroke: #0000ff; stroke-width: 1.5; stroke-linecap: round"/>
   </g>
   <g id="line2d_17">
    <path d="M 114.346699 245.714244 
L 117.121206 253.50502 
L 119.895714 223.364704 
L 122.670221 260.874364 
L 125.444728 323.939445 
L 128.219236 281.496489 
L 130.993743 327.371998 
L 133.76825 283.188319 
L 136.542758 281.986799 
L 139.317265 274.075676 
L 142.091772 352.766478 
L 144.866279 389.838012 
L 147.640787 399.318709 
L 150.415294 398.791097 
L 153.189801 402.599814 
L 155.964309 405.998309 
L 158.738816 407.411761 
L 161.513323 406.464197 
L 164.287831 407.979727 
L 167.062338 403.080727 
L 169.836845 405.869328 
L 172.611352 413.369991 
L 175.38586 390.393242 
L 178.160367 416.283423 
L 180.934874 417.725924 
L 183.709382 416.404772 
L 186.483889 416.501174 
L 189.258396 419.894279 
L 192.032904 415.692704 
L 194.807411 425.458028 
L 197.581918 414.268471 
L 200.356425 417.876656 
L 203.130933 420.887969 
L 205.90544 425.854989 
L 208.679947 425.520849 
L 211.454455 423.567384 
L 214.228962 423.816379 
L 217.003469 424.314321 
L 219.777977 427.848714 
L 222.552484 430.653818 
L 225.326991 427.750881 
L 228.101498 428.504734 
L 230.876006 428.997334 
L 233.650513 428.475946 
L 236.42502 431.474596 
L 239.199528 429.928966 
L 241.974035 431.831918 
L 244.748542 430.070541 
L 247.52305 428.849321 
L 250.297557 429.985587 
L 253.072064 437.520117 
L 255.846572 434.435107 
L 258.621079 435.681179 
L 261.395586 433.601308 
L 264.170093 439.299826 
L 266.944601 435.174031 
L 269.719108 437.393425 
L 272.493615 434.569145 
L 275.268123 437.3504 
L 278.04263 437.687306 
L 280.817137 442.708847 
L 283.591645 439.51823 
L 286.366152 437.708628 
L 289.140659 437.40411 
L 291.915166 435.338978 
L 294.689674 437.280566 
L 297.464181 440.445808 
L 300.238688 438.82362 
L 303.013196 438.255701 
L 305.787703 438.797957 
L 308.56221 440.00315 
L 311.336718 443.037158 
L 314.111225 438.96901 
L 316.885732 440.589481 
L 319.660239 440.966264 
L 322.434747 440.125787 
L 325.209254 439.160148 
L 327.983761 439.397167 
L 330.758269 442.077365 
L 333.532776 443.550546 
L 336.307283 446.59374 
L 339.081791 444.477141 
L 341.856298 446.664293 
L 344.630805 447.320624 
L 347.405313 445.180932 
L 350.17982 446.217339 
L 352.954327 447.810724 
L 355.728834 447.004823 
L 358.503342 448.019929 
L 361.277849 445.456998 
L 364.052356 448.214403 
L 366.826864 447.353891 
L 369.601371 446.997332 
L 372.375878 447.90874 
L 375.150386 449.413213 
L 377.924893 447.07413 
L 380.6994 448.40735 
L 383.473907 448.408447 
L 386.248415 447.460024 
L 389.022922 448.935677 
L 391.797429 448.596556 
L 394.571937 446.604426 
L 397.346444 448.011581 
L 400.120951 444.781118 
L 402.895459 451.473518 
L 405.669966 449.320236 
L 408.444473 450.179841 
L 411.21898 451.892611 
L 413.993488 452.592502 
L 416.767995 453.893737 
L 419.542502 451.939548 
L 422.31701 451.617679 
L 425.091517 450.761545 
L 427.866024 453.224825 
L 430.640532 453.118278 
L 433.415039 449.963378 
L 436.189546 454.728483 
L 438.964054 453.43223 
L 441.738561 453.045954 
L 444.513068 453.425695 
L 447.287575 452.447889 
L 452.83659 453.097327 
L 455.611097 452.564028 
L 458.385605 457.130693 
L 461.160112 455.655543 
L 463.934619 446.388917 
L 466.709127 455.400865 
L 469.483634 450.698771 
L 472.258141 457.802426 
L 475.032648 449.277163 
L 477.807156 452.79362 
L 480.581663 450.741654 
L 483.35617 454.675151 
L 486.130678 455.960197 
L 488.905185 453.636035 
L 491.679692 450.911323 
L 494.4542 454.156605 
L 497.228707 446.082674 
L 500.003214 452.962706 
L 502.777721 455.237056 
L 505.552229 451.723228 
L 508.326736 454.501191 
L 511.101243 455.188217 
L 513.875751 453.228837 
L 516.650258 455.159406 
L 519.424765 452.262192 
L 522.199273 455.024804 
L 524.97378 452.890165 
L 527.748287 456.615884 
L 533.297302 451.667419 
L 536.071809 431.980245 
L 538.846316 449.150423 
L 541.620824 452.363412 
L 544.395331 452.202901 
L 547.169838 459.313854 
L 549.944346 457.53311 
L 552.718853 456.127434 
L 555.49336 459.181486 
L 558.267868 452.11332 
L 561.042375 458.000191 
L 563.816882 451.60217 
L 566.591389 455.056326 
L 569.365897 454.714125 
L 572.140404 454.751188 
L 574.914911 453.703215 
L 577.689419 451.97976 
L 580.463926 455.955188 
L 583.238433 455.067488 
L 586.012941 446.895826 
L 588.787448 448.9715 
L 591.561955 451.625252 
L 594.336462 457.513744 
L 597.11097 458.511489 
L 599.885477 455.68344 
L 602.659984 453.417274 
L 605.434492 443.864289 
L 608.208999 454.527522 
L 610.983506 451.882881 
L 613.758014 436.586147 
L 616.532521 452.9216 
L 619.307028 446.864821 
L 622.081535 452.378867 
L 624.856043 451.954097 
L 627.63055 450.956114 
L 630.405057 449.646457 
L 633.179565 457.139432 
L 635.954072 457.049812 
L 638.728579 460.181425 
L 641.503087 457.315073 
L 644.277594 449.196406 
L 647.052101 457.044947 
L 649.826609 459.973404 
L 655.375623 455.118002 
L 658.15013 452.770724 
L 660.924638 454.209505 
L 663.699145 456.288851 
L 666.473652 457.816116 
L 666.473652 457.816116 
" clip-path="url(#p8c07d31b17)" style="fill: none; stroke: #ff0000; stroke-width: 1.5; stroke-linecap: round"/>
   </g>
   <g id="patch_3">
    <path d="M 86.740351 495.840956 
L 86.740351 49.831226 
" style="fill: none; stroke: #cccccc; stroke-width: 1.25; stroke-linejoin: miter; stroke-linecap: square"/>
   </g>
   <g id="patch_4">
    <path d="M 694.08 495.840956 
L 694.08 49.831226 
" style="fill: none; stroke: #cccccc; stroke-width: 1.25; stroke-linejoin: miter; stroke-linecap: square"/>
   </g>
   <g id="patch_5">
    <path d="M 86.740351 495.840956 
L 694.08 495.840956 
" style="fill: none; stroke: #cccccc; stroke-width: 1.25; stroke-linejoin: miter; stroke-linecap: square"/>
   </g>
   <g id="patch_6">
    <path d="M 86.740351 49.831226 
L 694.08 49.831226 
" style="fill: none; stroke: #cccccc; stroke-width: 1.25; stroke-linejoin: miter; stroke-linecap: square"/>
   </g>
   <g id="text_18">
    <!-- Discriminator($\mathcal{L}_{D}$) and Generator Loss ($\mathcal{L}_{G}$) vs Epoch -->
    <g style="fill: #262626" transform="translate(135.48476 43.831226) scale(0.24 -0.24)">
     <defs>
      <path id="CMSS17-44" d="M 570 4416 
L 570 0 
L 2144 0 
C 3194 0 4000 980 4000 2170 
C 4000 3398 3194 4416 2144 4416 
L 570 4416 
z
M 1094 357 
L 1094 4059 
L 2003 4059 
C 2861 4059 3475 3277 3475 2170 
C 3475 1107 2867 357 2003 357 
L 1094 357 
z
" transform="scale(0.015625)"/>
      <path id="CMSS17-69" d="M 979 4183 
L 442 4183 
L 442 3648 
L 979 3648 
L 979 4183 
z
M 947 2739 
L 474 2739 
L 474 0 
L 947 0 
L 947 2739 
z
" transform="scale(0.015625)"/>
      <path id="CMSS17-72" d="M 954 1363 
C 954 1965 1395 2368 1958 2368 
L 1958 2789 
C 1549 2789 1165 2585 934 2253 
L 934 2758 
L 480 2758 
L 480 0 
L 954 0 
L 954 1363 
z
" transform="scale(0.015625)"/>
      <path id="CMSS17-6d" d="M 4288 1877 
C 4288 2308 4179 2816 3462 2816 
C 2982 2816 2694 2516 2566 2331 
C 2451 2670 2182 2816 1798 2816 
C 1363 2816 1088 2568 941 2389 
L 941 2758 
L 474 2758 
L 474 0 
L 960 0 
L 960 1559 
C 960 1939 1101 2428 1555 2428 
C 2138 2428 2138 2016 2138 1829 
L 2138 0 
L 2624 0 
L 2624 1559 
C 2624 1939 2765 2428 3219 2428 
C 3802 2428 3802 2016 3802 1829 
L 3802 0 
L 4288 0 
L 4288 1877 
z
" transform="scale(0.015625)"/>
      <path id="CMSS17-6e" d="M 2618 1877 
C 2618 2283 2522 2816 1798 2816 
C 1389 2816 1120 2606 941 2389 
L 941 2758 
L 474 2758 
L 474 0 
L 960 0 
L 960 1559 
C 960 1964 1114 2428 1549 2428 
C 2112 2428 2131 2048 2131 1829 
L 2131 0 
L 2618 0 
L 2618 1877 
z
" transform="scale(0.015625)"/>
      <path id="CMSS17-61" d="M 2406 1791 
C 2406 2392 1978 2808 1402 2808 
C 1120 2808 813 2757 461 2553 
L 499 2135 
C 659 2248 934 2432 1395 2432 
C 1722 2432 1920 2180 1920 1782 
L 1920 1536 
C 896 1536 256 1238 256 726 
C 256 461 416 -64 947 -64 
C 1043 -64 1562 -64 1933 217 
L 1933 -19 
L 2406 -19 
L 2406 1791 
z
M 1920 816 
C 1920 701 1920 548 1728 434 
C 1562 325 1350 325 1261 325 
C 941 325 723 511 723 744 
C 723 1211 1722 1211 1920 1211 
L 1920 816 
z
" transform="scale(0.015625)"/>
      <path id="CMSS17-74" d="M 1069 2368 
L 1901 2368 
L 1901 2737 
L 1069 2737 
L 1069 3520 
L 614 3520 
L 614 2737 
L 109 2737 
L 109 2368 
L 602 2368 
L 602 749 
C 602 384 685 -64 1107 -64 
C 1427 -64 1722 25 2003 172 
L 1901 548 
C 1747 414 1562 337 1363 337 
C 1082 337 1069 696 1069 856 
L 1069 2368 
z
" transform="scale(0.015625)"/>
      <path id="CMSS17-28" d="M 1613 4768 
C 1267 4417 474 3601 474 1588 
C 474 -433 1267 -1243 1613 -1600 
L 2003 -1600 
C 1216 -784 960 357 960 1581 
C 960 2798 1203 3946 2003 4768 
L 1613 4768 
z
" transform="scale(0.015625)"/>
      <path id="CMSY10-4c" d="M 1152 610 
C 1498 1151 1606 1562 1690 1903 
C 1914 2790 2157 3562 2554 4005 
C 2630 4090 2682 4147 2886 4147 
C 3328 4147 3341 3704 3341 3613 
C 3341 3498 3309 3407 3309 3375 
C 3309 3330 3347 3330 3354 3330 
C 3456 3330 3629 3401 3789 3517 
C 3904 3607 3962 3671 3962 3934 
C 3962 4281 3782 4544 3424 4544 
C 3219 4544 2656 4493 2029 3856 
C 1517 3329 1216 2172 1094 1690 
C 979 1248 928 1048 736 662 
C 691 586 525 303 435 219 
C 262 59 198 -57 198 -89 
C 198 -102 211 -128 256 -128 
C 282 -128 416 -102 582 5 
C 691 68 704 80 851 231 
C 1171 231 1395 173 1798 58 
C 2125 -32 2451 -128 2778 -128 
C 3296 -128 3821 264 4026 546 
C 4154 719 4192 880 4192 899 
C 4192 944 4154 944 4147 944 
C 4045 944 3891 874 3782 796 
C 3610 687 3597 649 3558 539 
C 3526 436 3488 385 3462 346 
C 3411 269 3405 269 3309 269 
C 3002 269 2682 366 2259 481 
C 2080 532 1728 636 1408 636 
C 1325 636 1235 629 1152 610 
z
" transform="scale(0.015625)"/>
      <path id="CMMI12-44" d="M 1005 472 
C 947 249 934 185 486 185 
C 365 185 301 185 301 70 
C 301 0 339 0 467 0 
L 2496 0 
C 3789 0 5050 1332 5050 2753 
C 5050 3671 4499 4352 3584 4352 
L 1530 4352 
C 1408 4352 1350 4352 1350 4231 
C 1350 4167 1408 4167 1504 4167 
C 1894 4167 1894 4116 1894 4046 
C 1894 4034 1894 3995 1869 3899 
L 1005 472 
z
M 2355 3931 
C 2413 4167 2438 4167 2688 4167 
L 3392 4167 
C 3994 4167 4544 3842 4544 2963 
C 4544 2644 4416 1536 3795 835 
C 3616 625 3130 185 2394 185 
L 1664 185 
C 1574 185 1562 185 1523 192 
C 1453 198 1446 211 1446 262 
C 1446 307 1459 345 1472 402 
L 2355 3931 
z
" transform="scale(0.015625)"/>
      <path id="CMSS17-29" d="M 723 -1600 
C 1069 -1249 1862 -433 1862 1581 
C 1862 3601 1069 4411 723 4768 
L 333 4768 
C 1120 3952 1376 2811 1376 1588 
C 1376 370 1133 -778 333 -1600 
L 723 -1600 
z
" transform="scale(0.015625)"/>
      <path id="CMSS17-64" d="M 2611 4416 
L 2138 4416 
L 2138 2438 
C 1939 2603 1613 2756 1254 2756 
C 672 2756 211 2131 211 1347 
C 211 562 666 -64 1235 -64 
C 1677 -64 1971 172 2125 306 
L 2125 -13 
L 2611 -13 
L 2611 4416 
z
M 2125 836 
C 2125 747 2125 653 1926 482 
C 1798 375 1645 325 1498 325 
C 1152 325 698 576 698 1340 
C 698 2134 1210 2368 1562 2368 
C 1798 2368 1990 2254 2125 2065 
L 2125 836 
z
" transform="scale(0.015625)"/>
      <path id="CMSS17-47" d="M 3610 1856 
L 2336 1856 
L 2336 1461 
L 3123 1461 
L 3123 471 
C 2874 401 2618 350 2362 350 
C 1466 350 934 1301 934 2200 
C 934 3095 1491 4032 2362 4032 
C 2854 4032 3130 3881 3469 3627 
L 3552 4134 
C 3130 4351 2867 4440 2387 4440 
C 1146 4440 397 3324 397 2182 
C 397 1090 1152 -64 2349 -64 
C 2797 -64 3213 51 3610 248 
L 3610 1856 
z
" transform="scale(0.015625)"/>
      <path id="CMSS17-65" d="M 2502 1377 
C 2502 1590 2490 2003 2285 2345 
C 2061 2713 1696 2816 1421 2816 
C 755 2816 192 2188 192 1375 
C 192 582 774 -64 1510 -64 
C 1798 -64 2150 19 2470 248 
C 2470 274 2458 414 2451 420 
C 2451 433 2432 630 2432 656 
C 2125 407 1773 325 1517 325 
C 1107 325 666 667 646 1377 
L 2502 1377 
z
M 698 1728 
C 781 2084 1062 2421 1421 2421 
C 1517 2421 1965 2421 2080 1728 
L 698 1728 
z
" transform="scale(0.015625)"/>
      <path id="CMMI12-47" d="M 4774 4423 
C 4774 4480 4730 4480 4717 4480 
C 4704 4480 4678 4480 4627 4416 
L 4186 3889 
C 4154 3940 4026 4163 3776 4309 
C 3501 4480 3226 4480 3130 4480 
C 1760 4480 320 3095 320 1595 
C 320 546 1050 -128 2010 -128 
C 2470 -128 3053 25 3373 427 
C 3443 185 3584 12 3629 12 
C 3661 12 3667 32 3674 32 
C 3680 44 3731 270 3763 385 
L 3866 797 
C 3917 1009 3942 1099 3987 1291 
C 4051 1536 4064 1536 4416 1536 
C 4442 1536 4518 1536 4518 1666 
C 4518 1734 4454 1734 4435 1734 
C 4326 1734 4205 1734 4090 1734 
L 3744 1734 
C 3475 1734 3194 1734 2931 1734 
C 2874 1734 2797 1734 2797 1611 
C 2797 1542 2848 1542 2848 1536 
L 3008 1536 
C 3514 1536 3514 1489 3514 1402 
C 3514 1395 3392 751 3270 561 
C 3027 204 2522 57 2144 57 
C 1651 57 851 312 851 1410 
C 851 1836 1005 2808 1626 3526 
C 2029 3984 2624 4295 3187 4295 
C 3942 4295 4211 3655 4211 3071 
C 4211 2970 4186 2831 4186 2742 
C 4186 2685 4250 2685 4269 2685 
C 4339 2685 4346 2691 4371 2805 
L 4774 4423 
z
" transform="scale(0.015625)"/>
      <path id="CMSS17-76" d="M 2675 2752 
L 2176 2752 
L 1747 1556 
C 1613 1165 1421 627 1389 352 
L 1382 352 
C 1370 468 1318 634 1286 749 
C 1248 890 1197 1056 1158 1172 
L 595 2752 
L 83 2752 
L 1094 0 
L 1664 0 
L 2675 2752 
z
" transform="scale(0.015625)"/>
     </defs>
     <use xlink:href="#CMSS17-44" transform="scale(0.996264)"/>
     <use xlink:href="#CMSS17-69" transform="translate(67.542842 0) scale(0.996264)"/>
     <use xlink:href="#CMSS17-73" transform="translate(89.723565 0) scale(0.996264)"/>
     <use xlink:href="#CMSS17-63" transform="translate(125.637107 0) scale(0.996264)"/>
     <use xlink:href="#CMSS17-72" transform="translate(167.275929 0) scale(0.996264)"/>
     <use xlink:href="#CMSS17-69" transform="translate(199.185701 0) scale(0.996264)"/>
     <use xlink:href="#CMSS17-6d" transform="translate(221.366424 0) scale(0.996264)"/>
     <use xlink:href="#CMSS17-69" transform="translate(295.595679 0) scale(0.996264)"/>
     <use xlink:href="#CMSS17-6e" transform="translate(317.776402 0) scale(0.996264)"/>
     <use xlink:href="#CMSS17-61" transform="translate(365.981345 0) scale(0.996264)"/>
     <use xlink:href="#CMSS17-74" transform="translate(410.903266 0) scale(0.996264)"/>
     <use xlink:href="#CMSS17-6f" transform="translate(444.734832 0) scale(0.996264)"/>
     <use xlink:href="#CMSS17-72" transform="translate(488.976002 0) scale(0.996264)"/>
     <use xlink:href="#CMSS17-28" transform="translate(520.885774 0) scale(0.996264)"/>
     <use xlink:href="#CMSY10-4c" transform="translate(557.319689 0) scale(0.996264)"/>
     <use xlink:href="#CMMI12-44" transform="translate(626.034496 -14.943915) scale(0.697382)"/>
     <use xlink:href="#CMSS17-29" transform="translate(685.125132 0) scale(0.996264)"/>
     <use xlink:href="#CMSS17-61" transform="translate(752.788159 0) scale(0.996264)"/>
     <use xlink:href="#CMSS17-6e" transform="translate(797.71008 0) scale(0.996264)"/>
     <use xlink:href="#CMSS17-64" transform="translate(845.915023 0) scale(0.996264)"/>
     <use xlink:href="#CMSS17-47" transform="translate(925.349079 0) scale(0.996264)"/>
     <use xlink:href="#CMSS17-65" transform="translate(987.807304 0) scale(0.996264)"/>
     <use xlink:href="#CMSS17-6e" transform="translate(1029.446126 0) scale(0.996264)"/>
     <use xlink:href="#CMSS17-65" transform="translate(1077.651069 0) scale(0.996264)"/>
     <use xlink:href="#CMSS17-72" transform="translate(1119.289891 0) scale(0.996264)"/>
     <use xlink:href="#CMSS17-61" transform="translate(1151.199664 0) scale(0.996264)"/>
     <use xlink:href="#CMSS17-74" transform="translate(1196.121584 0) scale(0.996264)"/>
     <use xlink:href="#CMSS17-6f" transform="translate(1229.953151 0) scale(0.996264)"/>
     <use xlink:href="#CMSS17-72" transform="translate(1274.194321 0) scale(0.996264)"/>
     <use xlink:href="#CMSS17-4c" transform="translate(1337.333206 0) scale(0.996264)"/>
     <use xlink:href="#CMSS17-6f" transform="translate(1388.020311 0) scale(0.996264)"/>
     <use xlink:href="#CMSS17-73" transform="translate(1434.863935 0) scale(0.996264)"/>
     <use xlink:href="#CMSS17-73" transform="translate(1470.777477 0) scale(0.996264)"/>
     <use xlink:href="#CMSS17-28" transform="translate(1537.920132 0) scale(0.996264)"/>
     <use xlink:href="#CMSY10-4c" transform="translate(1574.354046 0) scale(0.996264)"/>
     <use xlink:href="#CMMI12-47" transform="translate(1643.068854 -14.943915) scale(0.697382)"/>
     <use xlink:href="#CMSS17-29" transform="translate(1697.429546 0) scale(0.996264)"/>
     <use xlink:href="#CMSS17-76" transform="translate(1765.092573 0) scale(0.996264)"/>
     <use xlink:href="#CMSS17-73" transform="translate(1808.092714 0) scale(0.996264)"/>
     <use xlink:href="#CMSS17-45" transform="translate(1875.235369 0) scale(0.996264)"/>
     <use xlink:href="#CMSS17-70" transform="translate(1931.127382 0) scale(0.996264)"/>
     <use xlink:href="#CMSS17-6f" transform="translate(1981.934764 0) scale(0.996264)"/>
     <use xlink:href="#CMSS17-63" transform="translate(2031.380827 0) scale(0.996264)"/>
     <use xlink:href="#CMSS17-68" transform="translate(2073.019649 0) scale(0.996264)"/>
    </g>
   </g>
   <g id="legend_1">
    <g id="patch_7">
     <path d="M 493.770978 309.015834 
L 678.68 309.015834 
Q 683.08 309.015834 683.08 304.615834 
L 683.08 241.056348 
Q 683.08 236.656348 678.68 236.656348 
L 493.770978 236.656348 
Q 489.370978 236.656348 489.370978 241.056348 
L 489.370978 304.615834 
Q 489.370978 309.015834 493.770978 309.015834 
z
" style="fill: #ffffff; opacity: 0.8; stroke: #cccccc; stroke-linejoin: miter"/>
    </g>
    <g id="line2d_18">
     <path d="M 498.170978 254.174973 
L 520.170978 254.174973 
L 542.170978 254.174973 
" style="fill: none; stroke: #0000ff; stroke-width: 1.5; stroke-linecap: round"/>
    </g>
    <g id="text_19">
     <!-- $\mathcal{L}_{D}$ (Median) -->
     <g style="fill: #262626" transform="translate(559.770978 261.874973) scale(0.22 -0.22)">
      <defs>
       <path id="CMSS17-4d" d="M 3194 2371 
L 2886 1473 
C 2835 1307 2662 791 2624 587 
L 2618 587 
C 2598 715 2560 849 2458 1174 
C 2400 1365 2336 1562 2272 1741 
L 1325 4416 
L 576 4416 
L 576 0 
L 1075 0 
L 1075 3900 
L 1082 3900 
C 1082 3894 1139 3613 1530 2499 
L 2374 96 
L 2848 96 
L 3610 2231 
C 3661 2378 3821 2843 3891 3066 
C 3955 3257 4115 3728 4154 3913 
L 4160 3913 
L 4160 0 
L 4666 0 
L 4666 4416 
L 3923 4416 
L 3194 2371 
z
" transform="scale(0.015625)"/>
      </defs>
      <use xlink:href="#CMSY10-4c" transform="scale(0.996264)"/>
      <use xlink:href="#CMMI12-44" transform="translate(68.714808 -14.943915) scale(0.697382)"/>
      <use xlink:href="#CMSS17-28" transform="translate(159.034556 0) scale(0.996264)"/>
      <use xlink:href="#CMSS17-4d" transform="translate(195.46847 0) scale(0.996264)"/>
      <use xlink:href="#CMSS17-65" transform="translate(277.1445 0) scale(0.996264)"/>
      <use xlink:href="#CMSS17-64" transform="translate(318.783322 0) scale(0.996264)"/>
      <use xlink:href="#CMSS17-69" transform="translate(366.988265 0) scale(0.996264)"/>
      <use xlink:href="#CMSS17-61" transform="translate(389.168988 0) scale(0.996264)"/>
      <use xlink:href="#CMSS17-6e" transform="translate(434.090909 0) scale(0.996264)"/>
      <use xlink:href="#CMSS17-29" transform="translate(482.295852 0) scale(0.996264)"/>
     </g>
    </g>
    <g id="line2d_19">
     <path d="M 498.170978 287.054716 
L 520.170978 287.054716 
L 542.170978 287.054716 
" style="fill: none; stroke: #ff0000; stroke-width: 1.5; stroke-linecap: round"/>
    </g>
    <g id="text_20">
     <!-- $\mathcal{L}_{G}$ (Median) -->
     <g style="fill: #262626" transform="translate(559.770978 294.754716) scale(0.22 -0.22)">
      <use xlink:href="#CMSY10-4c" transform="scale(0.996264)"/>
      <use xlink:href="#CMMI12-47" transform="translate(68.714808 -14.943915) scale(0.697382)"/>
      <use xlink:href="#CMSS17-28" transform="translate(154.304613 0) scale(0.996264)"/>
      <use xlink:href="#CMSS17-4d" transform="translate(190.738527 0) scale(0.996264)"/>
      <use xlink:href="#CMSS17-65" transform="translate(272.414557 0) scale(0.996264)"/>
      <use xlink:href="#CMSS17-64" transform="translate(314.053379 0) scale(0.996264)"/>
      <use xlink:href="#CMSS17-69" transform="translate(362.258322 0) scale(0.996264)"/>
      <use xlink:href="#CMSS17-61" transform="translate(384.439045 0) scale(0.996264)"/>
      <use xlink:href="#CMSS17-6e" transform="translate(429.360966 0) scale(0.996264)"/>
      <use xlink:href="#CMSS17-29" transform="translate(477.565909 0) scale(0.996264)"/>
     </g>
    </g>
   </g>
  </g>
 </g>
 <defs>
  <clipPath id="p8c07d31b17">
   <rect x="86.740351" y="49.831226" width="607.339649" height="446.00973"/>
  </clipPath>
 </defs>
</svg>
