<?xml version="1.0" encoding="utf-8" standalone="no"?>
<!DOCTYPE svg PUBLIC "-//W3C//DTD SVG 1.1//EN"
  "http://www.w3.org/Graphics/SVG/1.1/DTD/svg11.dtd">
<svg xmlns:xlink="http://www.w3.org/1999/xlink" width="720pt" height="576pt" viewBox="0 0 720 576" xmlns="http://www.w3.org/2000/svg" version="1.1">
 <metadata>
  <rdf:RDF xmlns:dc="http://purl.org/dc/elements/1.1/" xmlns:cc="http://creativecommons.org/ns#" xmlns:rdf="http://www.w3.org/1999/02/22-rdf-syntax-ns#">
   <cc:Work>
    <dc:type rdf:resource="http://purl.org/dc/dcmitype/StillImage"/>
    <dc:date>2025-04-24T10:46:42.560745</dc:date>
    <dc:format>image/svg+xml</dc:format>
    <dc:creator>
     <cc:Agent>
      <dc:title>Matplotlib v3.9.2, https://matplotlib.org/</dc:title>
     </cc:Agent>
    </dc:creator>
   </cc:Work>
  </rdf:RDF>
 </metadata>
 <defs>
  <style type="text/css">*{stroke-linejoin: round; stroke-linecap: butt}</style>
 </defs>
 <g id="figure_1">
  <g id="patch_1">
   <path d="M 0 576 
L 720 576 
L 720 0 
L 0 0 
z
" style="fill: #ffffff"/>
  </g>
  <g id="axes_1">
   <g id="patch_2">
    <path d="M 119.509709 495.840956 
L 694.08 495.840956 
L 694.08 49.831226 
L 119.509709 49.831226 
z
" style="fill: #ffffff"/>
   </g>
   <g id="matplotlib.axis_1">
    <g id="xtick_1">
     <g id="line2d_1">
      <path d="M 143.001733 495.840956 
L 143.001733 49.831226 
" clip-path="url(#p1565969d86)" style="fill: none; stroke: #cccccc; stroke-linecap: round"/>
     </g>
     <g id="text_1">
      <!-- $\mathdefault{0}$ -->
      <g style="fill: #262626" transform="translate(137.975781 520.56165) scale(0.22 -0.22)">
       <defs>
        <path id="CMR17-30" d="M 2688 2025 
C 2688 2416 2682 3080 2413 3591 
C 2176 4039 1798 4198 1466 4198 
C 1158 4198 768 4058 525 3597 
C 269 3118 243 2524 243 2025 
C 243 1661 250 1106 448 619 
C 723 -39 1216 -128 1466 -128 
C 1760 -128 2208 -7 2470 600 
C 2662 1042 2688 1559 2688 2025 
z
M 1466 -26 
C 1056 -26 813 325 723 812 
C 653 1188 653 1738 653 2096 
C 653 2588 653 2997 736 3387 
C 858 3929 1216 4096 1466 4096 
C 1728 4096 2067 3923 2189 3400 
C 2272 3036 2278 2607 2278 2096 
C 2278 1680 2278 1169 2202 792 
C 2067 95 1690 -26 1466 -26 
z
" transform="scale(0.015625)"/>
       </defs>
       <use xlink:href="#CMR17-30" transform="scale(0.996264)"/>
      </g>
     </g>
    </g>
    <g id="xtick_2">
     <g id="line2d_2">
      <path d="M 274.242092 495.840956 
L 274.242092 49.831226 
" clip-path="url(#p1565969d86)" style="fill: none; stroke: #cccccc; stroke-linecap: round"/>
     </g>
     <g id="text_2">
      <!-- $\mathdefault{50}$ -->
      <g style="fill: #262626" transform="translate(264.190187 520.56165) scale(0.22 -0.22)">
       <defs>
        <path id="CMR17-35" d="M 730 3692 
C 794 3666 1056 3584 1325 3584 
C 1920 3584 2246 3911 2432 4100 
C 2432 4157 2432 4192 2394 4192 
C 2387 4192 2374 4192 2323 4163 
C 2099 4058 1837 3973 1517 3973 
C 1325 3973 1037 3999 723 4139 
C 653 4171 640 4171 634 4171 
C 602 4171 595 4164 595 4037 
L 595 2203 
C 595 2089 595 2057 659 2057 
C 691 2057 704 2070 736 2114 
C 941 2401 1222 2522 1542 2522 
C 1766 2522 2246 2382 2246 1289 
C 2246 1085 2246 715 2054 421 
C 1894 159 1645 25 1370 25 
C 947 25 518 320 403 814 
C 429 807 480 795 506 795 
C 589 795 749 840 749 1038 
C 749 1210 627 1280 506 1280 
C 358 1280 262 1190 262 1011 
C 262 454 704 -128 1382 -128 
C 2042 -128 2669 440 2669 1264 
C 2669 2030 2170 2624 1549 2624 
C 1222 2624 947 2503 730 2274 
L 730 3692 
z
" transform="scale(0.015625)"/>
       </defs>
       <use xlink:href="#CMR17-35" transform="scale(0.996264)"/>
       <use xlink:href="#CMR17-30" transform="translate(45.690477 0) scale(0.996264)"/>
      </g>
     </g>
    </g>
    <g id="xtick_3">
     <g id="line2d_3">
      <path d="M 405.482451 495.840956 
L 405.482451 49.831226 
" clip-path="url(#p1565969d86)" style="fill: none; stroke: #cccccc; stroke-linecap: round"/>
     </g>
     <g id="text_3">
      <!-- $\mathdefault{100}$ -->
      <g style="fill: #262626" transform="translate(390.404593 520.56165) scale(0.22 -0.22)">
       <defs>
        <path id="CMR17-31" d="M 1702 4058 
C 1702 4192 1696 4192 1606 4192 
C 1357 3916 979 3827 621 3827 
C 602 3827 570 3827 563 3808 
C 557 3795 557 3782 557 3648 
C 755 3648 1088 3686 1344 3839 
L 1344 461 
C 1344 236 1331 160 781 160 
L 589 160 
L 589 0 
C 896 0 1216 0 1523 0 
C 1830 0 2150 0 2458 0 
L 2458 160 
L 2266 160 
C 1715 160 1702 230 1702 458 
L 1702 4058 
z
" transform="scale(0.015625)"/>
       </defs>
       <use xlink:href="#CMR17-31" transform="scale(0.996264)"/>
       <use xlink:href="#CMR17-30" transform="translate(45.690477 0) scale(0.996264)"/>
       <use xlink:href="#CMR17-30" transform="translate(91.380954 0) scale(0.996264)"/>
      </g>
     </g>
    </g>
    <g id="xtick_4">
     <g id="line2d_4">
      <path d="M 536.72281 495.840956 
L 536.72281 49.831226 
" clip-path="url(#p1565969d86)" style="fill: none; stroke: #cccccc; stroke-linecap: round"/>
     </g>
     <g id="text_4">
      <!-- $\mathdefault{150}$ -->
      <g style="fill: #262626" transform="translate(521.644952 520.56165) scale(0.22 -0.22)">
       <use xlink:href="#CMR17-31" transform="scale(0.996264)"/>
       <use xlink:href="#CMR17-35" transform="translate(45.690477 0) scale(0.996264)"/>
       <use xlink:href="#CMR17-30" transform="translate(91.380954 0) scale(0.996264)"/>
      </g>
     </g>
    </g>
    <g id="xtick_5">
     <g id="line2d_5">
      <path d="M 667.963169 495.840956 
L 667.963169 49.831226 
" clip-path="url(#p1565969d86)" style="fill: none; stroke: #cccccc; stroke-linecap: round"/>
     </g>
     <g id="text_5">
      <!-- $\mathdefault{200}$ -->
      <g style="fill: #262626" transform="translate(652.885311 520.56165) scale(0.22 -0.22)">
       <defs>
        <path id="CMR17-32" d="M 2669 989 
L 2554 989 
C 2490 536 2438 459 2413 420 
C 2381 369 1920 369 1830 369 
L 602 369 
C 832 619 1280 1072 1824 1597 
C 2214 1967 2669 2402 2669 3035 
C 2669 3790 2067 4224 1395 4224 
C 691 4224 262 3604 262 3030 
C 262 2780 448 2748 525 2748 
C 589 2748 781 2787 781 3010 
C 781 3207 614 3264 525 3264 
C 486 3264 448 3258 422 3245 
C 544 3790 915 4058 1306 4058 
C 1862 4058 2227 3617 2227 3035 
C 2227 2479 1901 2000 1536 1584 
L 262 146 
L 262 0 
L 2515 0 
L 2669 989 
z
" transform="scale(0.015625)"/>
       </defs>
       <use xlink:href="#CMR17-32" transform="scale(0.996264)"/>
       <use xlink:href="#CMR17-30" transform="translate(45.690477 0) scale(0.996264)"/>
       <use xlink:href="#CMR17-30" transform="translate(91.380954 0) scale(0.996264)"/>
      </g>
     </g>
    </g>
    <g id="text_6">
     <!-- Epoch -->
     <g style="fill: #262626" transform="translate(377.276163 545.429243) scale(0.24 -0.24)">
      <defs>
       <path id="CMSS17-45" d="M 1958 433 
C 1446 433 1216 433 1101 433 
L 1101 2107 
L 3085 2107 
L 3085 2496 
L 1101 2496 
L 1101 4009 
L 1926 4009 
C 2003 4009 2080 4009 2157 4009 
L 3251 4009 
L 3251 4416 
L 563 4416 
L 563 0 
L 3334 0 
L 3334 433 
L 1958 433 
z
" transform="scale(0.015625)"/>
       <path id="CMSS17-70" d="M 966 333 
C 1178 129 1466 -5 1773 -5 
C 2368 -5 2880 603 2880 1412 
C 2880 2159 2496 2816 1946 2816 
C 1626 2816 1242 2702 954 2472 
L 954 2765 
L 480 2765 
L 480 -1216 
L 966 -1216 
L 966 333 
z
M 966 2100 
C 1018 2176 1235 2415 1587 2415 
C 2035 2415 2394 1960 2394 1412 
C 2394 787 1958 384 1530 384 
C 1402 384 1267 415 1139 523 
C 966 674 966 768 966 857 
L 966 2100 
z
" transform="scale(0.015625)"/>
       <path id="CMSS17-6f" d="M 2829 1356 
C 2829 2176 2221 2816 1504 2816 
C 768 2816 173 2157 173 1356 
C 173 544 787 -64 1498 -64 
C 2227 -64 2829 563 2829 1356 
z
M 1504 337 
C 1050 337 659 709 659 1408 
C 659 2151 1114 2427 1498 2427 
C 1914 2427 2342 2126 2342 1408 
C 2342 683 1926 337 1504 337 
z
" transform="scale(0.015625)"/>
       <path id="CMSS17-63" d="M 2464 2541 
C 2464 2585 2170 2714 2093 2739 
C 1882 2816 1613 2816 1542 2816 
C 710 2816 211 2093 211 1363 
C 211 595 768 -64 1517 -64 
C 1946 -64 2253 76 2502 242 
L 2464 664 
C 2189 453 1869 337 1523 337 
C 1024 337 698 774 698 1369 
C 698 1831 909 2414 1549 2414 
C 1901 2414 2099 2343 2394 2145 
L 2464 2541 
z
" transform="scale(0.015625)"/>
       <path id="CMSS17-68" d="M 2618 1891 
C 2618 2292 2522 2820 1798 2820 
C 1395 2820 1133 2623 947 2407 
L 947 4448 
L 474 4448 
L 474 32 
L 960 32 
L 960 1573 
C 960 1973 1114 2432 1549 2432 
C 2112 2432 2131 2056 2131 1839 
L 2131 32 
L 2618 32 
L 2618 1891 
z
" transform="scale(0.015625)"/>
      </defs>
      <use xlink:href="#CMSS17-45" transform="scale(0.996264)"/>
      <use xlink:href="#CMSS17-70" transform="translate(55.892013 0) scale(0.996264)"/>
      <use xlink:href="#CMSS17-6f" transform="translate(106.699395 0) scale(0.996264)"/>
      <use xlink:href="#CMSS17-63" transform="translate(156.145457 0) scale(0.996264)"/>
      <use xlink:href="#CMSS17-68" transform="translate(197.784279 0) scale(0.996264)"/>
     </g>
    </g>
   </g>
   <g id="matplotlib.axis_2">
    <g id="ytick_1">
     <g id="line2d_6">
      <path d="M 119.509709 440.811274 
L 694.08 440.811274 
" clip-path="url(#p1565969d86)" style="fill: none; stroke: #cccccc; stroke-linecap: round"/>
     </g>
     <g id="text_7">
      <!-- $\mathdefault{0.0100}$ -->
      <g style="fill: #262626" transform="translate(53.788805 448.421621) scale(0.22 -0.22)">
       <defs>
        <path id="CMMI12-3a" d="M 1178 307 
C 1178 492 1024 619 870 619 
C 685 619 557 466 557 313 
C 557 128 710 0 864 0 
C 1050 0 1178 153 1178 307 
z
" transform="scale(0.015625)"/>
       </defs>
       <use xlink:href="#CMR17-30" transform="scale(0.996264)"/>
       <use xlink:href="#CMMI12-3a" transform="translate(45.690477 0) scale(0.996264)"/>
       <use xlink:href="#CMR17-30" transform="translate(72.787654 0) scale(0.996264)"/>
       <use xlink:href="#CMR17-31" transform="translate(118.478131 0) scale(0.996264)"/>
       <use xlink:href="#CMR17-30" transform="translate(164.168608 0) scale(0.996264)"/>
       <use xlink:href="#CMR17-30" transform="translate(209.859086 0) scale(0.996264)"/>
      </g>
     </g>
    </g>
    <g id="ytick_2">
     <g id="line2d_7">
      <path d="M 119.509709 385.224259 
L 694.08 385.224259 
" clip-path="url(#p1565969d86)" style="fill: none; stroke: #cccccc; stroke-linecap: round"/>
     </g>
     <g id="text_8">
      <!-- $\mathdefault{0.0125}$ -->
      <g style="fill: #262626" transform="translate(53.788805 392.834606) scale(0.22 -0.22)">
       <use xlink:href="#CMR17-30" transform="scale(0.996264)"/>
       <use xlink:href="#CMMI12-3a" transform="translate(45.690477 0) scale(0.996264)"/>
       <use xlink:href="#CMR17-30" transform="translate(72.787654 0) scale(0.996264)"/>
       <use xlink:href="#CMR17-31" transform="translate(118.478131 0) scale(0.996264)"/>
       <use xlink:href="#CMR17-32" transform="translate(164.168608 0) scale(0.996264)"/>
       <use xlink:href="#CMR17-35" transform="translate(209.859086 0) scale(0.996264)"/>
      </g>
     </g>
    </g>
    <g id="ytick_3">
     <g id="line2d_8">
      <path d="M 119.509709 329.637244 
L 694.08 329.637244 
" clip-path="url(#p1565969d86)" style="fill: none; stroke: #cccccc; stroke-linecap: round"/>
     </g>
     <g id="text_9">
      <!-- $\mathdefault{0.0150}$ -->
      <g style="fill: #262626" transform="translate(53.788805 337.247591) scale(0.22 -0.22)">
       <use xlink:href="#CMR17-30" transform="scale(0.996264)"/>
       <use xlink:href="#CMMI12-3a" transform="translate(45.690477 0) scale(0.996264)"/>
       <use xlink:href="#CMR17-30" transform="translate(72.787654 0) scale(0.996264)"/>
       <use xlink:href="#CMR17-31" transform="translate(118.478131 0) scale(0.996264)"/>
       <use xlink:href="#CMR17-35" transform="translate(164.168608 0) scale(0.996264)"/>
       <use xlink:href="#CMR17-30" transform="translate(209.859086 0) scale(0.996264)"/>
      </g>
     </g>
    </g>
    <g id="ytick_4">
     <g id="line2d_9">
      <path d="M 119.509709 274.050229 
L 694.08 274.050229 
" clip-path="url(#p1565969d86)" style="fill: none; stroke: #cccccc; stroke-linecap: round"/>
     </g>
     <g id="text_10">
      <!-- $\mathdefault{0.0175}$ -->
      <g style="fill: #262626" transform="translate(53.788805 281.660575) scale(0.22 -0.22)">
       <defs>
        <path id="CMR17-37" d="M 2886 3941 
L 2886 4081 
L 1382 4081 
C 634 4081 621 4165 595 4288 
L 480 4288 
L 294 3094 
L 410 3094 
C 429 3215 474 3540 550 3661 
C 589 3712 1062 3712 1171 3712 
L 2579 3712 
L 1869 2661 
C 1395 1954 1069 999 1069 165 
C 1069 89 1069 -128 1299 -128 
C 1530 -128 1530 89 1530 171 
L 1530 465 
C 1530 1508 1709 2196 2003 2636 
L 2886 3941 
z
" transform="scale(0.015625)"/>
       </defs>
       <use xlink:href="#CMR17-30" transform="scale(0.996264)"/>
       <use xlink:href="#CMMI12-3a" transform="translate(45.690477 0) scale(0.996264)"/>
       <use xlink:href="#CMR17-30" transform="translate(72.787654 0) scale(0.996264)"/>
       <use xlink:href="#CMR17-31" transform="translate(118.478131 0) scale(0.996264)"/>
       <use xlink:href="#CMR17-37" transform="translate(164.168608 0) scale(0.996264)"/>
       <use xlink:href="#CMR17-35" transform="translate(209.859086 0) scale(0.996264)"/>
      </g>
     </g>
    </g>
    <g id="ytick_5">
     <g id="line2d_10">
      <path d="M 119.509709 218.463214 
L 694.08 218.463214 
" clip-path="url(#p1565969d86)" style="fill: none; stroke: #cccccc; stroke-linecap: round"/>
     </g>
     <g id="text_11">
      <!-- $\mathdefault{0.0200}$ -->
      <g style="fill: #262626" transform="translate(53.788805 226.07356) scale(0.22 -0.22)">
       <use xlink:href="#CMR17-30" transform="scale(0.996264)"/>
       <use xlink:href="#CMMI12-3a" transform="translate(45.690477 0) scale(0.996264)"/>
       <use xlink:href="#CMR17-30" transform="translate(72.787654 0) scale(0.996264)"/>
       <use xlink:href="#CMR17-32" transform="translate(118.478131 0) scale(0.996264)"/>
       <use xlink:href="#CMR17-30" transform="translate(164.168608 0) scale(0.996264)"/>
       <use xlink:href="#CMR17-30" transform="translate(209.859086 0) scale(0.996264)"/>
      </g>
     </g>
    </g>
    <g id="ytick_6">
     <g id="line2d_11">
      <path d="M 119.509709 162.876199 
L 694.08 162.876199 
" clip-path="url(#p1565969d86)" style="fill: none; stroke: #cccccc; stroke-linecap: round"/>
     </g>
     <g id="text_12">
      <!-- $\mathdefault{0.0225}$ -->
      <g style="fill: #262626" transform="translate(53.788805 170.486545) scale(0.22 -0.22)">
       <use xlink:href="#CMR17-30" transform="scale(0.996264)"/>
       <use xlink:href="#CMMI12-3a" transform="translate(45.690477 0) scale(0.996264)"/>
       <use xlink:href="#CMR17-30" transform="translate(72.787654 0) scale(0.996264)"/>
       <use xlink:href="#CMR17-32" transform="translate(118.478131 0) scale(0.996264)"/>
       <use xlink:href="#CMR17-32" transform="translate(164.168608 0) scale(0.996264)"/>
       <use xlink:href="#CMR17-35" transform="translate(209.859086 0) scale(0.996264)"/>
      </g>
     </g>
    </g>
    <g id="ytick_7">
     <g id="line2d_12">
      <path d="M 119.509709 107.289183 
L 694.08 107.289183 
" clip-path="url(#p1565969d86)" style="fill: none; stroke: #cccccc; stroke-linecap: round"/>
     </g>
     <g id="text_13">
      <!-- $\mathdefault{0.0250}$ -->
      <g style="fill: #262626" transform="translate(53.788805 114.89953) scale(0.22 -0.22)">
       <use xlink:href="#CMR17-30" transform="scale(0.996264)"/>
       <use xlink:href="#CMMI12-3a" transform="translate(45.690477 0) scale(0.996264)"/>
       <use xlink:href="#CMR17-30" transform="translate(72.787654 0) scale(0.996264)"/>
       <use xlink:href="#CMR17-32" transform="translate(118.478131 0) scale(0.996264)"/>
       <use xlink:href="#CMR17-35" transform="translate(164.168608 0) scale(0.996264)"/>
       <use xlink:href="#CMR17-30" transform="translate(209.859086 0) scale(0.996264)"/>
      </g>
     </g>
    </g>
    <g id="ytick_8">
     <g id="line2d_13">
      <path d="M 119.509709 51.702168 
L 694.08 51.702168 
" clip-path="url(#p1565969d86)" style="fill: none; stroke: #cccccc; stroke-linecap: round"/>
     </g>
     <g id="text_14">
      <!-- $\mathdefault{0.0275}$ -->
      <g style="fill: #262626" transform="translate(53.788805 59.312515) scale(0.22 -0.22)">
       <use xlink:href="#CMR17-30" transform="scale(0.996264)"/>
       <use xlink:href="#CMMI12-3a" transform="translate(45.690477 0) scale(0.996264)"/>
       <use xlink:href="#CMR17-30" transform="translate(72.787654 0) scale(0.996264)"/>
       <use xlink:href="#CMR17-32" transform="translate(118.478131 0) scale(0.996264)"/>
       <use xlink:href="#CMR17-37" transform="translate(164.168608 0) scale(0.996264)"/>
       <use xlink:href="#CMR17-35" transform="translate(209.859086 0) scale(0.996264)"/>
      </g>
     </g>
    </g>
    <g id="text_15">
     <!-- Mean Squared Error (MSE) -->
     <g style="fill: #262626" transform="translate(43.831226 402.556914) rotate(-90) scale(0.24 -0.24)">
      <defs>
       <path id="CMSS17-4d" d="M 3194 2371 
L 2886 1473 
C 2835 1307 2662 791 2624 587 
L 2618 587 
C 2598 715 2560 849 2458 1174 
C 2400 1365 2336 1562 2272 1741 
L 1325 4416 
L 576 4416 
L 576 0 
L 1075 0 
L 1075 3900 
L 1082 3900 
C 1082 3894 1139 3613 1530 2499 
L 2374 96 
L 2848 96 
L 3610 2231 
C 3661 2378 3821 2843 3891 3066 
C 3955 3257 4115 3728 4154 3913 
L 4160 3913 
L 4160 0 
L 4666 0 
L 4666 4416 
L 3923 4416 
L 3194 2371 
z
" transform="scale(0.015625)"/>
       <path id="CMSS17-65" d="M 2502 1377 
C 2502 1590 2490 2003 2285 2345 
C 2061 2713 1696 2816 1421 2816 
C 755 2816 192 2188 192 1375 
C 192 582 774 -64 1510 -64 
C 1798 -64 2150 19 2470 248 
C 2470 274 2458 414 2451 420 
C 2451 433 2432 630 2432 656 
C 2125 407 1773 325 1517 325 
C 1107 325 666 667 646 1377 
L 2502 1377 
z
M 698 1728 
C 781 2084 1062 2421 1421 2421 
C 1517 2421 1965 2421 2080 1728 
L 698 1728 
z
" transform="scale(0.015625)"/>
       <path id="CMSS17-61" d="M 2406 1791 
C 2406 2392 1978 2808 1402 2808 
C 1120 2808 813 2757 461 2553 
L 499 2135 
C 659 2248 934 2432 1395 2432 
C 1722 2432 1920 2180 1920 1782 
L 1920 1536 
C 896 1536 256 1238 256 726 
C 256 461 416 -64 947 -64 
C 1043 -64 1562 -64 1933 217 
L 1933 -19 
L 2406 -19 
L 2406 1791 
z
M 1920 816 
C 1920 701 1920 548 1728 434 
C 1562 325 1350 325 1261 325 
C 941 325 723 511 723 744 
C 723 1211 1722 1211 1920 1211 
L 1920 816 
z
" transform="scale(0.015625)"/>
       <path id="CMSS17-6e" d="M 2618 1877 
C 2618 2283 2522 2816 1798 2816 
C 1389 2816 1120 2606 941 2389 
L 941 2758 
L 474 2758 
L 474 0 
L 960 0 
L 960 1559 
C 960 1964 1114 2428 1549 2428 
C 2112 2428 2131 2048 2131 1829 
L 2131 0 
L 2618 0 
L 2618 1877 
z
" transform="scale(0.015625)"/>
       <path id="CMSS17-53" d="M 2797 4169 
C 2515 4334 2208 4480 1690 4480 
C 864 4480 333 3879 333 3266 
C 333 3025 403 2753 653 2475 
C 902 2196 1184 2121 1542 2033 
C 1690 1994 1939 1924 1984 1906 
C 2342 1767 2515 1444 2515 1140 
C 2515 742 2202 318 1645 318 
C 1453 318 890 318 358 819 
L 269 318 
C 794 -64 1363 -128 1651 -128 
C 2438 -128 3002 488 3002 1186 
C 3002 1440 2925 1763 2656 2061 
C 2394 2347 2163 2410 1638 2549 
C 1338 2626 1146 2677 986 2873 
C 877 3013 819 3146 819 3317 
C 819 3673 1126 4060 1690 4060 
C 1971 4060 2336 4002 2707 3660 
L 2797 4169 
z
" transform="scale(0.015625)"/>
       <path id="CMSS17-71" d="M 2611 2816 
L 2138 2816 
L 2138 2428 
C 2112 2460 1818 2816 1318 2816 
C 736 2816 211 2228 211 1399 
C 211 633 653 -5 1229 -5 
C 1498 -5 1837 91 2125 365 
L 2125 -1216 
L 2611 -1216 
L 2611 2816 
z
M 2138 914 
C 2138 832 2138 718 1939 554 
C 1888 510 1747 384 1504 384 
C 1050 384 698 850 698 1399 
C 698 2011 1126 2415 1562 2415 
C 1926 2415 2138 2061 2138 1797 
L 2138 914 
z
" transform="scale(0.015625)"/>
       <path id="CMSS17-75" d="M 2618 2739 
L 2131 2739 
L 2131 972 
C 2131 498 1786 306 1421 306 
C 998 306 960 447 960 709 
L 960 2739 
L 474 2739 
L 474 678 
C 474 179 646 -64 1088 -64 
C 1306 -64 1798 -13 2144 306 
L 2144 0 
L 2618 0 
L 2618 2739 
z
" transform="scale(0.015625)"/>
       <path id="CMSS17-72" d="M 954 1363 
C 954 1965 1395 2368 1958 2368 
L 1958 2789 
C 1549 2789 1165 2585 934 2253 
L 934 2758 
L 480 2758 
L 480 0 
L 954 0 
L 954 1363 
z
" transform="scale(0.015625)"/>
       <path id="CMSS17-64" d="M 2611 4416 
L 2138 4416 
L 2138 2438 
C 1939 2603 1613 2756 1254 2756 
C 672 2756 211 2131 211 1347 
C 211 562 666 -64 1235 -64 
C 1677 -64 1971 172 2125 306 
L 2125 -13 
L 2611 -13 
L 2611 4416 
z
M 2125 836 
C 2125 747 2125 653 1926 482 
C 1798 375 1645 325 1498 325 
C 1152 325 698 576 698 1340 
C 698 2134 1210 2368 1562 2368 
C 1798 2368 1990 2254 2125 2065 
L 2125 836 
z
" transform="scale(0.015625)"/>
       <path id="CMSS17-28" d="M 1613 4768 
C 1267 4417 474 3601 474 1588 
C 474 -433 1267 -1243 1613 -1600 
L 2003 -1600 
C 1216 -784 960 357 960 1581 
C 960 2798 1203 3946 2003 4768 
L 1613 4768 
z
" transform="scale(0.015625)"/>
       <path id="CMSS17-29" d="M 723 -1600 
C 1069 -1249 1862 -433 1862 1581 
C 1862 3601 1069 4411 723 4768 
L 333 4768 
C 1120 3952 1376 2811 1376 1588 
C 1376 370 1133 -778 333 -1600 
L 723 -1600 
z
" transform="scale(0.015625)"/>
      </defs>
      <use xlink:href="#CMSS17-4d" transform="scale(0.996264)"/>
      <use xlink:href="#CMSS17-65" transform="translate(81.67603 0) scale(0.996264)"/>
      <use xlink:href="#CMSS17-61" transform="translate(123.314852 0) scale(0.996264)"/>
      <use xlink:href="#CMSS17-6e" transform="translate(168.236773 0) scale(0.996264)"/>
      <use xlink:href="#CMSS17-53" transform="translate(247.670829 0) scale(0.996264)"/>
      <use xlink:href="#CMSS17-71" transform="translate(299.719345 0) scale(0.996264)"/>
      <use xlink:href="#CMSS17-75" transform="translate(347.924288 0) scale(0.996264)"/>
      <use xlink:href="#CMSS17-61" transform="translate(396.129231 0) scale(0.996264)"/>
      <use xlink:href="#CMSS17-72" transform="translate(438.448698 0) scale(0.996264)"/>
      <use xlink:href="#CMSS17-65" transform="translate(470.35847 0) scale(0.996264)"/>
      <use xlink:href="#CMSS17-64" transform="translate(511.997292 0) scale(0.996264)"/>
      <use xlink:href="#CMSS17-45" transform="translate(591.431348 0) scale(0.996264)"/>
      <use xlink:href="#CMSS17-72" transform="translate(647.323361 0) scale(0.996264)"/>
      <use xlink:href="#CMSS17-72" transform="translate(679.233134 0) scale(0.996264)"/>
      <use xlink:href="#CMSS17-6f" transform="translate(711.142906 0) scale(0.996264)"/>
      <use xlink:href="#CMSS17-72" transform="translate(755.384076 0) scale(0.996264)"/>
      <use xlink:href="#CMSS17-28" transform="translate(818.522961 0) scale(0.996264)"/>
      <use xlink:href="#CMSS17-4d" transform="translate(854.956876 0) scale(0.996264)"/>
      <use xlink:href="#CMSS17-53" transform="translate(936.632906 0) scale(0.996264)"/>
      <use xlink:href="#CMSS17-45" transform="translate(988.681422 0) scale(0.996264)"/>
      <use xlink:href="#CMSS17-29" transform="translate(1044.573435 0) scale(0.996264)"/>
     </g>
    </g>
   </g>
   <g id="PolyCollection_1">
    <defs>
     <path id="m8d6fcb142e" d="M 145.62654 -505.895604 
L 145.62654 -420.350113 
L 148.251347 -302.695807 
L 150.876155 -299.287446 
L 153.500962 -287.131443 
L 156.125769 -279.671081 
L 158.750576 -268.846241 
L 161.375383 -268.422024 
L 164.00019 -261.561416 
L 166.624998 -253.486671 
L 169.249805 -253.120967 
L 171.874612 -243.758943 
L 174.499419 -242.222986 
L 177.124226 -235.391635 
L 179.749033 -230.871533 
L 182.373841 -233.065757 
L 184.998648 -221.655791 
L 187.623455 -228.253092 
L 190.248262 -227.404658 
L 192.873069 -232.787822 
L 195.497877 -229.54037 
L 198.122684 -226.804904 
L 200.747491 -219.095862 
L 203.372298 -220.675704 
L 205.997105 -214.239313 
L 208.621912 -209.148712 
L 211.24672 -213.171457 
L 213.871527 -208.826893 
L 216.496334 -204.891917 
L 219.121141 -203.882574 
L 221.745948 -205.052827 
L 224.370756 -215.833782 
L 226.995563 -203.633895 
L 229.62037 -207.437217 
L 232.245177 -208.0516 
L 234.869984 -202.463642 
L 237.494791 -204.365303 
L 240.119599 -203.794805 
L 242.744406 -199.435613 
L 245.369213 -199.889086 
L 247.99402 -186.50548 
L 250.618827 -195.646919 
L 253.243634 -189.75177 
L 255.868442 -194.227987 
L 258.493249 -194.52055 
L 261.118056 -186.32878 
L 263.742863 -187.104072 
L 266.36767 -181.165039 
L 268.992478 -177.990728 
L 271.617285 -189.152015 
L 274.242092 -183.022815 
L 276.866899 -186.870022 
L 279.491706 -181.925703 
L 282.116513 -187.513661 
L 284.741321 -176.045182 
L 287.366128 -179.248749 
L 289.990935 -174.202034 
L 292.615742 -179.073212 
L 295.240549 -173.792445 
L 297.865356 -160.451561 
L 300.490164 -171.52508 
L 303.114971 -173.51451 
L 305.739778 -170.486481 
L 308.364585 -175.869644 
L 310.989392 -169.784329 
L 313.6142 -167.414567 
L 316.239007 -170.8083 
L 318.863814 -172.212604 
L 321.488621 -166.522249 
L 324.113428 -169.418625 
L 326.738235 -169.041586 
L 329.363043 -165.522302 
L 331.98785 -168.61456 
L 334.612657 -162.960146 
L 337.237464 -168.160603 
L 339.862271 -160.919663 
L 342.487079 -162.996862 
L 345.111886 -157.013943 
L 347.736693 -158.719335 
L 350.3615 -159.544615 
L 352.986307 -160.685612 
L 355.611114 -155.185326 
L 358.235922 -157.906261 
L 360.860729 -153.536122 
L 363.485536 -149.217133 
L 366.110343 -142.678345 
L 368.73515 -147.110678 
L 371.359957 -148.04688 
L 373.984765 -152.215906 
L 376.609572 -152.991199 
L 379.234379 -146.993653 
L 381.859186 -137.029356 
L 384.483993 -143.336612 
L 387.108801 -152.011112 
L 389.733608 -146.750825 
L 392.358415 -145.031333 
L 394.983222 -146.364642 
L 397.608029 -150.54694 
L 400.232836 -148.76366 
L 402.857644 -145.17976 
L 405.482451 -148.017624 
L 408.107258 -139.561571 
L 410.732065 -144.170417 
L 413.356872 -143.272771 
L 415.98168 -137.308444 
L 418.606487 -132.233837 
L 421.231294 -138.143615 
L 423.856101 -123.413056 
L 426.480908 -134.9973 
L 429.105715 -130.049688 
L 431.730523 -132.906733 
L 434.35533 -131.122097 
L 436.980137 -134.010723 
L 439.604944 -131.195238 
L 442.229751 -132.745823 
L 444.854558 -131.478017 
L 447.479366 -130.390689 
L 450.104173 -133.916076 
L 452.72898 -131.531685 
L 455.353787 -132.541029 
L 457.978594 -136.168813 
L 460.603402 -137.573116 
L 463.228209 -131.463292 
L 465.853016 -119.990066 
L 468.477823 -117.386253 
L 471.10263 -134.393574 
L 473.727437 -128.518284 
L 476.352245 -130.800665 
L 478.977052 -128.430515 
L 481.601859 -120.970153 
L 484.226666 -122.842557 
L 486.851473 -122.871814 
L 489.47628 -130.85879 
L 492.101088 -126.631251 
L 494.725895 -125.322951 
L 497.350702 -117.64956 
L 499.975509 -128.68026 
L 502.600316 -130.579789 
L 505.225124 -120.180232 
L 507.849931 -127.649507 
L 510.474738 -129.176551 
L 513.099545 -126.754323 
L 515.724352 -118.785035 
L 518.349159 -124.261489 
L 520.973967 -124.773475 
L 523.598774 -124.612565 
L 526.223581 -127.83076 
L 528.848388 -119.551221 
L 531.473195 -123.879897 
L 534.098003 -118.7613 
L 536.72281 -117.64956 
L 539.347617 -121.540651 
L 541.972424 -124.861244 
L 544.597231 -122.392669 
L 547.222038 -123.452871 
L 549.846846 -115.689386 
L 552.471653 -122.272059 
L 555.09646 -109.882006 
L 557.721267 -109.905837 
L 560.346074 -110.96449 
L 562.970881 -118.702787 
L 565.595689 -117.927495 
L 568.220496 -113.217227 
L 570.845303 -120.107091 
L 573.47011 -117.196087 
L 576.094917 -116.142859 
L 578.719725 -116.040462 
L 581.344532 -117.210715 
L 583.969339 -117.576419 
L 586.594146 -113.802353 
L 589.218953 -113.158714 
L 591.84376 -111.008374 
L 594.468568 -115.850296 
L 597.093375 -114.9418 
L 599.718182 -112.910035 
L 602.342989 -110.218454 
L 604.967796 -115.747899 
L 607.592603 -116.399579 
L 610.217411 -118.849069 
L 612.842218 -114.54839 
L 615.467025 -117.839726 
L 618.091832 -113.802353 
L 620.716639 -113.875494 
L 623.341447 -113.407393 
L 625.966254 -117.152202 
L 628.591061 -114.779824 
L 631.215868 -115.528476 
L 633.840675 -110.759696 
L 636.465482 -102.977513 
L 639.09029 -106.693067 
L 641.715097 -101.529325 
L 644.339904 -106.853976 
L 646.964711 -103.767434 
L 649.589518 -111.929949 
L 652.214326 -104.601239 
L 654.839133 -114.051032 
L 657.46394 -108.170511 
L 660.088747 -112.471191 
L 662.713554 -108.872663 
L 665.338361 -110.584158 
L 667.963169 -100.432213 
L 667.963169 -130.975815 
L 667.963169 -130.975815 
L 665.338361 -129.761678 
L 662.713554 -129.58614 
L 660.088747 -136.680798 
L 657.46394 -132.643426 
L 654.839133 -137.014631 
L 652.214326 -136.622286 
L 649.589518 -134.925419 
L 646.964711 -136.315094 
L 644.339904 -135.905506 
L 641.715097 -136.300466 
L 639.09029 -134.164755 
L 636.465482 -140.659658 
L 633.840675 -139.591803 
L 631.215868 -141.682467 
L 628.591061 -139.444262 
L 625.966254 -139.035932 
L 623.341447 -136.900221 
L 620.716639 -139.53329 
L 618.091832 -144.506865 
L 615.467025 -139.182214 
L 612.842218 -134.403096 
L 610.217411 -137.368031 
L 607.592603 -134.457318 
L 604.967796 -135.686083 
L 602.342989 -136.461376 
L 599.718182 -138.202127 
L 597.093375 -146.320854 
L 594.468568 -138.202127 
L 591.84376 -134.054898 
L 589.218953 -146.909855 
L 586.594146 -140.337839 
L 583.969339 -141.551976 
L 581.344532 -139.065189 
L 578.719725 -140.25007 
L 576.094917 -142.883139 
L 573.47011 -142.166359 
L 570.845303 -147.88597 
L 568.220496 -138.611716 
L 565.595689 -144.170417 
L 562.970881 -143.980251 
L 560.346074 -145.955053 
L 557.721267 -143.424381 
L 555.09646 -146.437782 
L 552.471653 -141.347182 
L 549.846846 -139.664943 
L 547.222038 -150.237714 
L 544.597231 -189.1959 
L 541.972424 -223.318073 
L 539.347617 -149.015536 
L 536.72281 -144.462981 
L 534.098003 -146.642577 
L 531.473195 -156.428817 
L 528.848388 -155.595012 
L 526.223581 -150.621437 
L 523.598774 -150.987141 
L 520.973967 -139.035932 
L 518.349159 -148.120021 
L 515.724352 -150.460527 
L 513.099545 -153.590954 
L 510.474738 -157.013943 
L 507.849931 -151.224291 
L 505.225124 -159.515359 
L 502.600316 -155.331705 
L 499.975509 -150.957884 
L 497.350702 -150.456626 
L 494.725895 -154.876101 
L 492.101088 -158.169568 
L 489.47628 -158.374362 
L 486.851473 -155.477986 
L 484.226666 -153.948423 
L 481.601859 -157.467416 
L 478.977052 -151.543011 
L 476.352245 -155.259344 
L 473.727437 -165.454393 
L 471.10263 -163.195746 
L 468.477823 -159.881063 
L 465.853016 -165.937122 
L 463.228209 -154.596325 
L 460.603402 -165.907866 
L 457.978594 -156.458073 
L 455.353787 -161.636443 
L 452.72898 -162.909093 
L 450.104173 -165.410508 
L 447.479366 -166.27357 
L 444.854558 -164.781497 
L 442.229751 -161.709583 
L 439.604944 -165.044804 
L 436.980137 -165.498277 
L 434.35533 -161.680327 
L 431.730523 -158.725438 
L 429.105715 -163.113887 
L 426.480908 -170.384083 
L 423.856101 -172.344257 
L 421.231294 -171.8469 
L 418.606487 -163.450335 
L 415.98168 -170.881441 
L 413.356872 -170.735159 
L 410.732065 -170.97194 
L 408.107258 -171.963925 
L 405.482451 -172.724589 
L 402.857644 -186.387292 
L 400.232836 -174.946326 
L 397.608029 -180.974873 
L 394.983222 -176.801681 
L 392.358415 -179.512056 
L 389.733608 -174.041124 
L 387.108801 -176.001298 
L 384.483993 -181.263367 
L 381.859186 -182.598599 
L 379.234379 -181.618512 
L 376.609572 -184.841551 
L 373.984765 -177.551883 
L 371.359957 -184.792823 
L 368.73515 -185.612 
L 366.110343 -185.401102 
L 363.485536 -184.661169 
L 360.860729 -179.290212 
L 358.235922 -192.180045 
L 355.611114 -199.508754 
L 352.986307 -194.324475 
L 350.3615 -198.557923 
L 347.736693 -188.610773 
L 345.111886 -198.440898 
L 342.487079 -194.549807 
L 339.862271 -193.686745 
L 337.237464 -189.517719 
L 334.612657 -200.839916 
L 331.98785 -201.289418 
L 329.363043 -198.98214 
L 326.738235 -195.222702 
L 324.113428 -201.36653 
L 321.488621 -199.128421 
L 318.863814 -205.696466 
L 316.239007 -199.655035 
L 313.6142 -208.402676 
L 310.989392 -198.66032 
L 308.364585 -203.136538 
L 305.739778 -204.145881 
L 303.114971 -204.687123 
L 300.490164 -198.162963 
L 297.865356 -214.414851 
L 295.240549 -207.876062 
L 292.615742 -213.815096 
L 289.990935 -224.464398 
L 287.366128 -215.84841 
L 284.741321 -224.761127 
L 282.116513 -221.202318 
L 279.491706 -209.733839 
L 276.866899 -220.178346 
L 274.242092 -224.830102 
L 271.617285 -224.508282 
L 268.992478 -231.85162 
L 266.36767 -229.408717 
L 263.742863 -224.508282 
L 261.118056 -229.598883 
L 258.493249 -224.800846 
L 255.868442 -220.192975 
L 253.243634 -225.836054 
L 250.618827 -226.307546 
L 247.99402 -224.698448 
L 245.369213 -232.16782 
L 242.744406 -235.055187 
L 240.119599 -242.427781 
L 237.494791 -241.052733 
L 234.869984 -237.922307 
L 232.245177 -247.474496 
L 229.62037 -242.427781 
L 226.995563 -241.564719 
L 224.370756 -246.318872 
L 221.745948 -243.715059 
L 219.121141 -244.402582 
L 216.496334 -262.292824 
L 213.871527 -252.374931 
L 211.24672 -251.541125 
L 208.621912 -258.328593 
L 205.997105 -253.25262 
L 203.372298 -266.008378 
L 200.747491 -266.374082 
L 198.122684 -263.623987 
L 195.497877 -257.012058 
L 192.873069 -258.153055 
L 190.248262 -266.169287 
L 187.623455 -266.915324 
L 184.998648 -286.092844 
L 182.373841 -278.047355 
L 179.749033 -276.218834 
L 177.124226 -274.887672 
L 174.499419 -291.329726 
L 171.874612 -315.129745 
L 169.249805 -327.34426 
L 166.624998 -302.608039 
L 164.00019 -313.535275 
L 161.375383 -299.048939 
L 158.750576 -327.475914 
L 156.125769 -360.784238 
L 153.500962 -348.83303 
L 150.876155 -324.652678 
L 148.251347 -332.873705 
L 145.62654 -505.895604 
z
" style="stroke: #ffffff; stroke-opacity: 0.3"/>
    </defs>
    <g clip-path="url(#p1565969d86)">
     <use xlink:href="#m8d6fcb142e" x="0" y="576" style="fill: #4c72b0; fill-opacity: 0.3; stroke: #ffffff; stroke-opacity: 0.3"/>
    </g>
   </g>
   <g id="line2d_14">
    <path d="M 145.62654 105.504548 
L 148.251347 246.008042 
L 150.876155 263.678862 
L 153.500962 264.512667 
L 156.125769 278.687356 
L 158.750576 274.503702 
L 161.375383 286.805986 
L 164.00019 288.078636 
L 166.624998 280.150172 
L 169.249805 288.868557 
L 171.874612 299.722653 
L 174.499419 304.345152 
L 177.124226 318.183393 
L 179.749033 310.196417 
L 182.373841 310.401211 
L 184.998648 318.797776 
L 187.623455 318.914801 
L 190.248262 318.373559 
L 192.873069 324.268708 
L 195.497877 326.594586 
L 198.122684 335.751816 
L 200.747491 332.460479 
L 203.372298 316.281732 
L 205.997105 337.243888 
L 208.621912 342.027297 
L 211.24672 339.21869 
L 213.871527 348.039472 
L 216.496334 340.16952 
L 219.121141 335.927353 
L 221.745948 352.310895 
L 224.370756 340.388943 
L 226.995563 338.253231 
L 229.62037 342.861102 
L 232.245177 353.159328 
L 234.869984 351.213783 
L 237.494791 354.271068 
L 240.119599 354.329581 
L 242.744406 352.369407 
L 245.369213 358.542492 
L 247.99402 358.542492 
L 250.618827 358.147531 
L 253.243634 362.371001 
L 255.868442 358.206044 
L 258.493249 361.296074 
L 261.118056 366.617237 
L 263.742863 360.195474 
L 266.36767 366.895172 
L 268.992478 363.384413 
L 271.617285 360.283243 
L 274.242092 370.581469 
L 276.866899 372.278336 
L 279.491706 376.593643 
L 282.116513 373.668011 
L 284.741321 368.489642 
L 287.366128 384.738333 
L 289.990935 373.024372 
L 292.615742 378.743983 
L 295.240549 382.635074 
L 297.865356 382.485402 
L 300.490164 386.785113 
L 303.114971 388.007291 
L 305.739778 378.173485 
L 308.364585 385.619219 
L 310.989392 382.898381 
L 313.6142 380.426222 
L 316.239007 395.325634 
L 318.863814 385.326656 
L 321.488621 384.302685 
L 324.113428 392.889416 
L 326.738235 383.498136 
L 329.363043 399.267294 
L 331.98785 396.341662 
L 334.612657 384.492851 
L 337.237464 392.873032 
L 339.862271 392.728506 
L 342.487079 382.956603 
L 345.111886 388.463767 
L 347.736693 400.086471 
L 350.3615 389.466426 
L 352.986307 408.666518 
L 355.611114 415.323322 
L 358.235922 402.821938 
L 360.860729 398.947994 
L 363.485536 405.630545 
L 366.110343 395.237284 
L 371.359957 400.729723 
L 373.984765 407.693116 
L 376.609572 402.924335 
L 379.234379 404.489548 
L 381.859186 405.864595 
L 384.483993 409.901968 
L 387.108801 410.267672 
L 389.733608 408.84874 
L 392.358415 407.135114 
L 394.983222 406.961708 
L 397.608029 411.096149 
L 400.232836 417.274562 
L 402.857644 407.122617 
L 405.482451 412.198589 
L 408.107258 411.670426 
L 410.732065 413.14942 
L 413.356872 418.430186 
L 415.98168 415.343644 
L 418.606487 417.303818 
L 421.231294 414.74389 
L 423.856101 420.434245 
L 426.480908 411.964539 
L 429.105715 423.97426 
L 431.730523 424.076657 
L 434.35533 422.375528 
L 436.980137 423.754837 
L 439.604944 421.926317 
L 442.229751 422.905629 
L 444.854558 424.628458 
L 447.479366 428.448722 
L 450.104173 427.660557 
L 452.72898 427.748326 
L 455.353787 430.556933 
L 457.978594 426.84138 
L 460.603402 421.955573 
L 463.228209 429.502446 
L 465.853016 425.48096 
L 468.477823 427.735441 
L 471.10263 431.156687 
L 473.727437 429.313539 
L 478.977052 434.960009 
L 481.601859 431.039662 
L 484.226666 434.287114 
L 486.851473 431.858839 
L 489.47628 435.779186 
L 492.101088 429.325745 
L 494.725895 431.05429 
L 497.350702 435.296457 
L 499.975509 431.09275 
L 502.600316 437.841757 
L 505.225124 439.114407 
L 507.849931 440.518711 
L 510.474738 434.685659 
L 513.099545 441.601195 
L 515.724352 436.393569 
L 518.349159 437.271259 
L 520.973967 438.968126 
L 526.223581 438.148949 
L 528.848388 438.880357 
L 531.473195 444.994928 
L 534.098003 438.675562 
L 536.72281 439.538624 
L 539.347617 443.137152 
L 541.972424 437.674841 
L 544.597231 430.425279 
L 547.222038 436.364313 
L 549.846846 438.985369 
L 552.471653 442.054668 
L 555.09646 443.970957 
L 557.721267 442.069296 
L 560.346074 438.894985 
L 562.970881 440.738133 
L 565.595689 448.344777 
L 568.220496 444.102611 
L 570.845303 441.747476 
L 573.47011 449.558915 
L 576.094917 446.848539 
L 578.719725 445.185094 
L 581.344532 445.85799 
L 583.969339 443.502856 
L 586.594146 442.288718 
L 589.218953 448.593456 
L 591.84376 447.759651 
L 594.468568 448.300893 
L 597.093375 447.68651 
L 599.718182 449.940797 
L 602.342989 446.077412 
L 604.967796 452.850251 
L 607.592603 448.037586 
L 610.217411 443.766163 
L 612.842218 446.103158 
L 615.467025 450.846193 
L 618.091832 448.886019 
L 620.716639 447.45246 
L 623.341447 447.68651 
L 625.966254 445.755593 
L 628.591061 444.556084 
L 631.215868 445.521542 
L 633.840675 447.379319 
L 636.465482 450.029147 
L 639.09029 452.133471 
L 641.715097 453.684057 
L 644.339904 452.162728 
L 646.964711 448.374034 
L 649.589518 455.892909 
L 652.214326 454.92745 
L 654.839133 453.769307 
L 657.46394 453.25984 
L 660.088747 445.945759 
L 665.338361 458.774657 
L 667.963169 448.066842 
L 667.963169 448.066842 
" clip-path="url(#p1565969d86)" style="fill: none; stroke: #000000; stroke-width: 2; stroke-linecap: round"/>
   </g>
   <g id="patch_3">
    <path d="M 119.509709 495.840956 
L 119.509709 49.831226 
" style="fill: none; stroke: #cccccc; stroke-width: 1.25; stroke-linejoin: miter; stroke-linecap: square"/>
   </g>
   <g id="patch_4">
    <path d="M 694.08 495.840956 
L 694.08 49.831226 
" style="fill: none; stroke: #cccccc; stroke-width: 1.25; stroke-linejoin: miter; stroke-linecap: square"/>
   </g>
   <g id="patch_5">
    <path d="M 119.509709 495.840956 
L 694.08 495.840956 
" style="fill: none; stroke: #cccccc; stroke-width: 1.25; stroke-linejoin: miter; stroke-linecap: square"/>
   </g>
   <g id="patch_6">
    <path d="M 119.509709 49.831226 
L 694.08 49.831226 
" style="fill: none; stroke: #cccccc; stroke-width: 1.25; stroke-linejoin: miter; stroke-linecap: square"/>
   </g>
   <g id="text_16">
    <!-- Mean Squared Error (MSE) vs Epoch -->
    <g style="fill: #262626" transform="translate(230.590721 43.831226) scale(0.24 -0.24)">
     <defs>
      <path id="CMSS17-76" d="M 2675 2752 
L 2176 2752 
L 1747 1556 
C 1613 1165 1421 627 1389 352 
L 1382 352 
C 1370 468 1318 634 1286 749 
C 1248 890 1197 1056 1158 1172 
L 595 2752 
L 83 2752 
L 1094 0 
L 1664 0 
L 2675 2752 
z
" transform="scale(0.015625)"/>
      <path id="CMSS17-73" d="M 2061 2627 
C 1683 2807 1389 2807 1197 2807 
C 742 2807 198 2648 198 2003 
C 198 1359 902 1218 1094 1179 
C 1389 1122 1715 1058 1715 740 
C 1715 337 1254 337 1171 337 
C 915 337 563 407 243 638 
L 166 210 
C 531 0 883 -64 1178 -64 
C 1965 -64 2163 416 2163 781 
C 2163 1094 1984 1305 1862 1401 
C 1651 1568 1574 1587 1050 1696 
C 960 1709 646 1779 646 2066 
C 646 2432 1050 2432 1139 2432 
C 1555 2432 1811 2303 1984 2208 
L 2061 2627 
z
" transform="scale(0.015625)"/>
     </defs>
     <use xlink:href="#CMSS17-4d" transform="scale(0.996264)"/>
     <use xlink:href="#CMSS17-65" transform="translate(81.67603 0) scale(0.996264)"/>
     <use xlink:href="#CMSS17-61" transform="translate(123.314852 0) scale(0.996264)"/>
     <use xlink:href="#CMSS17-6e" transform="translate(168.236773 0) scale(0.996264)"/>
     <use xlink:href="#CMSS17-53" transform="translate(247.670829 0) scale(0.996264)"/>
     <use xlink:href="#CMSS17-71" transform="translate(299.719345 0) scale(0.996264)"/>
     <use xlink:href="#CMSS17-75" transform="translate(347.924288 0) scale(0.996264)"/>
     <use xlink:href="#CMSS17-61" transform="translate(396.129231 0) scale(0.996264)"/>
     <use xlink:href="#CMSS17-72" transform="translate(438.448698 0) scale(0.996264)"/>
     <use xlink:href="#CMSS17-65" transform="translate(470.35847 0) scale(0.996264)"/>
     <use xlink:href="#CMSS17-64" transform="translate(511.997292 0) scale(0.996264)"/>
     <use xlink:href="#CMSS17-45" transform="translate(591.431348 0) scale(0.996264)"/>
     <use xlink:href="#CMSS17-72" transform="translate(647.323361 0) scale(0.996264)"/>
     <use xlink:href="#CMSS17-72" transform="translate(679.233134 0) scale(0.996264)"/>
     <use xlink:href="#CMSS17-6f" transform="translate(711.142906 0) scale(0.996264)"/>
     <use xlink:href="#CMSS17-72" transform="translate(755.384076 0) scale(0.996264)"/>
     <use xlink:href="#CMSS17-28" transform="translate(818.522961 0) scale(0.996264)"/>
     <use xlink:href="#CMSS17-4d" transform="translate(854.956876 0) scale(0.996264)"/>
     <use xlink:href="#CMSS17-53" transform="translate(936.632906 0) scale(0.996264)"/>
     <use xlink:href="#CMSS17-45" transform="translate(988.681422 0) scale(0.996264)"/>
     <use xlink:href="#CMSS17-29" transform="translate(1044.573435 0) scale(0.996264)"/>
     <use xlink:href="#CMSS17-76" transform="translate(1112.236462 0) scale(0.996264)"/>
     <use xlink:href="#CMSS17-73" transform="translate(1155.236604 0) scale(0.996264)"/>
     <use xlink:href="#CMSS17-45" transform="translate(1222.379258 0) scale(0.996264)"/>
     <use xlink:href="#CMSS17-70" transform="translate(1278.271272 0) scale(0.996264)"/>
     <use xlink:href="#CMSS17-6f" transform="translate(1329.078653 0) scale(0.996264)"/>
     <use xlink:href="#CMSS17-63" transform="translate(1378.524716 0) scale(0.996264)"/>
     <use xlink:href="#CMSS17-68" transform="translate(1420.163538 0) scale(0.996264)"/>
    </g>
   </g>
   <g id="legend_1">
    <g id="patch_7">
     <path d="M 467.093325 128.757602 
L 678.68 128.757602 
Q 683.08 128.757602 683.08 124.357602 
L 683.08 65.231226 
Q 683.08 60.831226 678.68 60.831226 
L 467.093325 60.831226 
Q 462.693325 60.831226 462.693325 65.231226 
L 462.693325 124.357602 
Q 462.693325 128.757602 467.093325 128.757602 
z
" style="fill: #ffffff; opacity: 0.8; stroke: #cccccc; stroke-linejoin: miter"/>
    </g>
    <g id="line2d_15">
     <path d="M 471.493325 77.331226 
L 493.493325 77.331226 
L 515.493325 77.331226 
" style="fill: none; stroke: #000000; stroke-width: 2; stroke-linecap: round"/>
    </g>
    <g id="text_17">
     <!-- Median -->
     <g style="fill: #262626" transform="translate(533.093325 85.031226) scale(0.22 -0.22)">
      <defs>
       <path id="CMSS17-69" d="M 979 4183 
L 442 4183 
L 442 3648 
L 979 3648 
L 979 4183 
z
M 947 2739 
L 474 2739 
L 474 0 
L 947 0 
L 947 2739 
z
" transform="scale(0.015625)"/>
      </defs>
      <use xlink:href="#CMSS17-4d" transform="scale(0.996264)"/>
      <use xlink:href="#CMSS17-65" transform="translate(81.67603 0) scale(0.996264)"/>
      <use xlink:href="#CMSS17-64" transform="translate(123.314852 0) scale(0.996264)"/>
      <use xlink:href="#CMSS17-69" transform="translate(171.519795 0) scale(0.996264)"/>
      <use xlink:href="#CMSS17-61" transform="translate(193.700518 0) scale(0.996264)"/>
      <use xlink:href="#CMSS17-6e" transform="translate(238.622439 0) scale(0.996264)"/>
     </g>
    </g>
    <g id="patch_8">
     <path d="M 471.493325 115.694414 
L 515.493325 115.694414 
L 515.493325 100.294414 
L 471.493325 100.294414 
z
" style="fill: #4c72b0; fill-opacity: 0.3; stroke: #ffffff; stroke-opacity: 0.3; stroke-linejoin: miter"/>
    </g>
    <g id="text_18">
     <!-- Min–Max Range -->
     <g style="fill: #262626" transform="translate(533.093325 115.694414) scale(0.22 -0.22)">
      <defs>
       <path id="CMSS17-7b" d="M 3002 1472 
L 3002 1861 
L 0 1861 
L 0 1472 
L 3002 1472 
z
" transform="scale(0.015625)"/>
       <path id="CMSS17-78" d="M 1587 1414 
L 2656 2739 
L 2099 2739 
L 1363 1777 
L 602 2739 
L 32 2739 
L 1139 1414 
L 0 0 
L 563 0 
L 1363 1121 
L 2195 0 
L 2758 0 
L 1587 1414 
z
" transform="scale(0.015625)"/>
       <path id="CMSS17-52" d="M 2522 2109 
L 2534 2115 
C 3533 2459 3539 3147 3539 3268 
C 3539 3873 2925 4453 2003 4453 
L 570 4453 
L 570 32 
L 1094 32 
L 1094 2048 
L 2035 2048 
L 3168 32 
L 3706 32 
L 2522 2109 
z
M 1094 2437 
L 1094 4096 
L 1933 4096 
C 2746 4096 3034 3637 3034 3267 
C 3034 2922 2778 2437 1933 2437 
L 1094 2437 
z
" transform="scale(0.015625)"/>
       <path id="CMSS17-67" d="M 2848 2808 
C 2483 2808 2170 2738 1914 2617 
C 1702 2777 1485 2808 1338 2808 
C 781 2808 358 2349 358 1814 
C 358 1468 550 1207 563 1195 
C 448 1035 384 863 384 672 
C 384 448 474 289 544 200 
C 211 -3 166 -314 166 -435 
C 166 -898 749 -1280 1498 -1280 
C 2253 -1280 2835 -898 2835 -428 
C 2835 448 1856 448 1587 448 
L 1069 448 
C 973 448 717 448 717 791 
C 717 921 774 1004 781 1010 
C 877 940 1075 832 1338 832 
C 1869 832 2310 1278 2310 1827 
C 2310 2132 2170 2355 2112 2432 
L 2131 2432 
C 2150 2432 2419 2432 2515 2432 
C 2720 2432 2739 2429 2918 2419 
L 2848 2808 
z
M 1338 1182 
C 1120 1182 813 1315 813 1823 
C 813 2375 1165 2464 1331 2464 
C 1549 2464 1856 2331 1856 1823 
C 1856 1271 1504 1182 1338 1182 
z
M 1581 -10 
C 1734 -10 2381 -10 2381 -442 
C 2381 -714 1984 -929 1504 -929 
C 1018 -929 621 -720 621 -435 
C 621 -403 621 -10 1062 -10 
L 1581 -10 
z
" transform="scale(0.015625)"/>
      </defs>
      <use xlink:href="#CMSS17-4d" transform="scale(0.996264)"/>
      <use xlink:href="#CMSS17-69" transform="translate(81.67603 0) scale(0.996264)"/>
      <use xlink:href="#CMSS17-6e" transform="translate(103.856753 0) scale(0.996264)"/>
      <use xlink:href="#CMSS17-7b" transform="translate(152.061696 0) scale(0.996264)"/>
      <use xlink:href="#CMSS17-4d" transform="translate(198.90532 0) scale(0.996264)"/>
      <use xlink:href="#CMSS17-61" transform="translate(280.58135 0) scale(0.996264)"/>
      <use xlink:href="#CMSS17-78" transform="translate(325.50327 0) scale(0.996264)"/>
      <use xlink:href="#CMSS17-52" transform="translate(399.732525 0) scale(0.996264)"/>
      <use xlink:href="#CMSS17-61" transform="translate(460.14868 0) scale(0.996264)"/>
      <use xlink:href="#CMSS17-6e" transform="translate(505.0706 0) scale(0.996264)"/>
      <use xlink:href="#CMSS17-67" transform="translate(553.275543 0) scale(0.996264)"/>
      <use xlink:href="#CMSS17-65" transform="translate(600.119167 0) scale(0.996264)"/>
     </g>
    </g>
   </g>
  </g>
 </g>
 <defs>
  <clipPath id="p1565969d86">
   <rect x="119.509709" y="49.831226" width="574.570291" height="446.00973"/>
  </clipPath>
 </defs>
</svg>
