<?xml version="1.0" encoding="utf-8" standalone="no"?>
<!DOCTYPE svg PUBLIC "-//W3C//DTD SVG 1.1//EN"
  "http://www.w3.org/Graphics/SVG/1.1/DTD/svg11.dtd">
<svg xmlns:xlink="http://www.w3.org/1999/xlink" width="720pt" height="576pt" viewBox="0 0 720 576" xmlns="http://www.w3.org/2000/svg" version="1.1">
 <metadata>
  <rdf:RDF xmlns:dc="http://purl.org/dc/elements/1.1/" xmlns:cc="http://creativecommons.org/ns#" xmlns:rdf="http://www.w3.org/1999/02/22-rdf-syntax-ns#">
   <cc:Work>
    <dc:type rdf:resource="http://purl.org/dc/dcmitype/StillImage"/>
    <dc:date>2025-04-24T10:46:43.410472</dc:date>
    <dc:format>image/svg+xml</dc:format>
    <dc:creator>
     <cc:Agent>
      <dc:title>Matplotlib v3.9.2, https://matplotlib.org/</dc:title>
     </cc:Agent>
    </dc:creator>
   </cc:Work>
  </rdf:RDF>
 </metadata>
 <defs>
  <style type="text/css">*{stroke-linejoin: round; stroke-linecap: butt}</style>
 </defs>
 <g id="figure_1">
  <g id="patch_1">
   <path d="M 0 576 
L 720 576 
L 720 0 
L 0 0 
z
" style="fill: #ffffff"/>
  </g>
  <g id="axes_1">
   <g id="patch_2">
    <path d="M 83.392615 495.840956 
L 694.08 495.840956 
L 694.08 49.831226 
L 83.392615 49.831226 
z
" style="fill: #ffffff"/>
   </g>
   <g id="matplotlib.axis_1">
    <g id="xtick_1">
     <g id="line2d_1">
      <path d="M 108.361332 495.840956 
L 108.361332 49.831226 
" clip-path="url(#pefceea89f1)" style="fill: none; stroke: #cccccc; stroke-linecap: round"/>
     </g>
     <g id="text_1">
      <!-- $\mathdefault{0}$ -->
      <g style="fill: #262626" transform="translate(103.335379 520.56165) scale(0.22 -0.22)">
       <defs>
        <path id="CMR17-30" d="M 2688 2025 
C 2688 2416 2682 3080 2413 3591 
C 2176 4039 1798 4198 1466 4198 
C 1158 4198 768 4058 525 3597 
C 269 3118 243 2524 243 2025 
C 243 1661 250 1106 448 619 
C 723 -39 1216 -128 1466 -128 
C 1760 -128 2208 -7 2470 600 
C 2662 1042 2688 1559 2688 2025 
z
M 1466 -26 
C 1056 -26 813 325 723 812 
C 653 1188 653 1738 653 2096 
C 653 2588 653 2997 736 3387 
C 858 3929 1216 4096 1466 4096 
C 1728 4096 2067 3923 2189 3400 
C 2272 3036 2278 2607 2278 2096 
C 2278 1680 2278 1169 2202 792 
C 2067 95 1690 -26 1466 -26 
z
" transform="scale(0.015625)"/>
       </defs>
       <use xlink:href="#CMR17-30" transform="scale(0.996264)"/>
      </g>
     </g>
    </g>
    <g id="xtick_2">
     <g id="line2d_2">
      <path d="M 178.106351 495.840956 
L 178.106351 49.831226 
" clip-path="url(#pefceea89f1)" style="fill: none; stroke: #cccccc; stroke-linecap: round"/>
     </g>
     <g id="text_2">
      <!-- $\mathdefault{25}$ -->
      <g style="fill: #262626" transform="translate(168.054446 520.56165) scale(0.22 -0.22)">
       <defs>
        <path id="CMR17-32" d="M 2669 989 
L 2554 989 
C 2490 536 2438 459 2413 420 
C 2381 369 1920 369 1830 369 
L 602 369 
C 832 619 1280 1072 1824 1597 
C 2214 1967 2669 2402 2669 3035 
C 2669 3790 2067 4224 1395 4224 
C 691 4224 262 3604 262 3030 
C 262 2780 448 2748 525 2748 
C 589 2748 781 2787 781 3010 
C 781 3207 614 3264 525 3264 
C 486 3264 448 3258 422 3245 
C 544 3790 915 4058 1306 4058 
C 1862 4058 2227 3617 2227 3035 
C 2227 2479 1901 2000 1536 1584 
L 262 146 
L 262 0 
L 2515 0 
L 2669 989 
z
" transform="scale(0.015625)"/>
        <path id="CMR17-35" d="M 730 3692 
C 794 3666 1056 3584 1325 3584 
C 1920 3584 2246 3911 2432 4100 
C 2432 4157 2432 4192 2394 4192 
C 2387 4192 2374 4192 2323 4163 
C 2099 4058 1837 3973 1517 3973 
C 1325 3973 1037 3999 723 4139 
C 653 4171 640 4171 634 4171 
C 602 4171 595 4164 595 4037 
L 595 2203 
C 595 2089 595 2057 659 2057 
C 691 2057 704 2070 736 2114 
C 941 2401 1222 2522 1542 2522 
C 1766 2522 2246 2382 2246 1289 
C 2246 1085 2246 715 2054 421 
C 1894 159 1645 25 1370 25 
C 947 25 518 320 403 814 
C 429 807 480 795 506 795 
C 589 795 749 840 749 1038 
C 749 1210 627 1280 506 1280 
C 358 1280 262 1190 262 1011 
C 262 454 704 -128 1382 -128 
C 2042 -128 2669 440 2669 1264 
C 2669 2030 2170 2624 1549 2624 
C 1222 2624 947 2503 730 2274 
L 730 3692 
z
" transform="scale(0.015625)"/>
       </defs>
       <use xlink:href="#CMR17-32" transform="scale(0.996264)"/>
       <use xlink:href="#CMR17-35" transform="translate(45.690477 0) scale(0.996264)"/>
      </g>
     </g>
    </g>
    <g id="xtick_3">
     <g id="line2d_3">
      <path d="M 247.851369 495.840956 
L 247.851369 49.831226 
" clip-path="url(#pefceea89f1)" style="fill: none; stroke: #cccccc; stroke-linecap: round"/>
     </g>
     <g id="text_3">
      <!-- $\mathdefault{50}$ -->
      <g style="fill: #262626" transform="translate(237.799464 520.56165) scale(0.22 -0.22)">
       <use xlink:href="#CMR17-35" transform="scale(0.996264)"/>
       <use xlink:href="#CMR17-30" transform="translate(45.690477 0) scale(0.996264)"/>
      </g>
     </g>
    </g>
    <g id="xtick_4">
     <g id="line2d_4">
      <path d="M 317.596388 495.840956 
L 317.596388 49.831226 
" clip-path="url(#pefceea89f1)" style="fill: none; stroke: #cccccc; stroke-linecap: round"/>
     </g>
     <g id="text_4">
      <!-- $\mathdefault{75}$ -->
      <g style="fill: #262626" transform="translate(307.544483 520.56165) scale(0.22 -0.22)">
       <defs>
        <path id="CMR17-37" d="M 2886 3941 
L 2886 4081 
L 1382 4081 
C 634 4081 621 4165 595 4288 
L 480 4288 
L 294 3094 
L 410 3094 
C 429 3215 474 3540 550 3661 
C 589 3712 1062 3712 1171 3712 
L 2579 3712 
L 1869 2661 
C 1395 1954 1069 999 1069 165 
C 1069 89 1069 -128 1299 -128 
C 1530 -128 1530 89 1530 171 
L 1530 465 
C 1530 1508 1709 2196 2003 2636 
L 2886 3941 
z
" transform="scale(0.015625)"/>
       </defs>
       <use xlink:href="#CMR17-37" transform="scale(0.996264)"/>
       <use xlink:href="#CMR17-35" transform="translate(45.690477 0) scale(0.996264)"/>
      </g>
     </g>
    </g>
    <g id="xtick_5">
     <g id="line2d_5">
      <path d="M 387.341407 495.840956 
L 387.341407 49.831226 
" clip-path="url(#pefceea89f1)" style="fill: none; stroke: #cccccc; stroke-linecap: round"/>
     </g>
     <g id="text_5">
      <!-- $\mathdefault{100}$ -->
      <g style="fill: #262626" transform="translate(372.26355 520.56165) scale(0.22 -0.22)">
       <defs>
        <path id="CMR17-31" d="M 1702 4058 
C 1702 4192 1696 4192 1606 4192 
C 1357 3916 979 3827 621 3827 
C 602 3827 570 3827 563 3808 
C 557 3795 557 3782 557 3648 
C 755 3648 1088 3686 1344 3839 
L 1344 461 
C 1344 236 1331 160 781 160 
L 589 160 
L 589 0 
C 896 0 1216 0 1523 0 
C 1830 0 2150 0 2458 0 
L 2458 160 
L 2266 160 
C 1715 160 1702 230 1702 458 
L 1702 4058 
z
" transform="scale(0.015625)"/>
       </defs>
       <use xlink:href="#CMR17-31" transform="scale(0.996264)"/>
       <use xlink:href="#CMR17-30" transform="translate(45.690477 0) scale(0.996264)"/>
       <use xlink:href="#CMR17-30" transform="translate(91.380954 0) scale(0.996264)"/>
      </g>
     </g>
    </g>
    <g id="xtick_6">
     <g id="line2d_6">
      <path d="M 457.086426 495.840956 
L 457.086426 49.831226 
" clip-path="url(#pefceea89f1)" style="fill: none; stroke: #cccccc; stroke-linecap: round"/>
     </g>
     <g id="text_6">
      <!-- $\mathdefault{125}$ -->
      <g style="fill: #262626" transform="translate(442.008568 520.56165) scale(0.22 -0.22)">
       <use xlink:href="#CMR17-31" transform="scale(0.996264)"/>
       <use xlink:href="#CMR17-32" transform="translate(45.690477 0) scale(0.996264)"/>
       <use xlink:href="#CMR17-35" transform="translate(91.380954 0) scale(0.996264)"/>
      </g>
     </g>
    </g>
    <g id="xtick_7">
     <g id="line2d_7">
      <path d="M 526.831445 495.840956 
L 526.831445 49.831226 
" clip-path="url(#pefceea89f1)" style="fill: none; stroke: #cccccc; stroke-linecap: round"/>
     </g>
     <g id="text_7">
      <!-- $\mathdefault{150}$ -->
      <g style="fill: #262626" transform="translate(511.753587 520.56165) scale(0.22 -0.22)">
       <use xlink:href="#CMR17-31" transform="scale(0.996264)"/>
       <use xlink:href="#CMR17-35" transform="translate(45.690477 0) scale(0.996264)"/>
       <use xlink:href="#CMR17-30" transform="translate(91.380954 0) scale(0.996264)"/>
      </g>
     </g>
    </g>
    <g id="xtick_8">
     <g id="line2d_8">
      <path d="M 596.576464 495.840956 
L 596.576464 49.831226 
" clip-path="url(#pefceea89f1)" style="fill: none; stroke: #cccccc; stroke-linecap: round"/>
     </g>
     <g id="text_8">
      <!-- $\mathdefault{175}$ -->
      <g style="fill: #262626" transform="translate(581.498606 520.56165) scale(0.22 -0.22)">
       <use xlink:href="#CMR17-31" transform="scale(0.996264)"/>
       <use xlink:href="#CMR17-37" transform="translate(45.690477 0) scale(0.996264)"/>
       <use xlink:href="#CMR17-35" transform="translate(91.380954 0) scale(0.996264)"/>
      </g>
     </g>
    </g>
    <g id="xtick_9">
     <g id="line2d_9">
      <path d="M 666.321482 495.840956 
L 666.321482 49.831226 
" clip-path="url(#pefceea89f1)" style="fill: none; stroke: #cccccc; stroke-linecap: round"/>
     </g>
     <g id="text_9">
      <!-- $\mathdefault{200}$ -->
      <g style="fill: #262626" transform="translate(651.243625 520.56165) scale(0.22 -0.22)">
       <use xlink:href="#CMR17-32" transform="scale(0.996264)"/>
       <use xlink:href="#CMR17-30" transform="translate(45.690477 0) scale(0.996264)"/>
       <use xlink:href="#CMR17-30" transform="translate(91.380954 0) scale(0.996264)"/>
      </g>
     </g>
    </g>
    <g id="text_10">
     <!-- Epoch -->
     <g style="fill: #262626" transform="translate(359.217616 545.429243) scale(0.24 -0.24)">
      <defs>
       <path id="CMSS17-45" d="M 1958 433 
C 1446 433 1216 433 1101 433 
L 1101 2107 
L 3085 2107 
L 3085 2496 
L 1101 2496 
L 1101 4009 
L 1926 4009 
C 2003 4009 2080 4009 2157 4009 
L 3251 4009 
L 3251 4416 
L 563 4416 
L 563 0 
L 3334 0 
L 3334 433 
L 1958 433 
z
" transform="scale(0.015625)"/>
       <path id="CMSS17-70" d="M 966 333 
C 1178 129 1466 -5 1773 -5 
C 2368 -5 2880 603 2880 1412 
C 2880 2159 2496 2816 1946 2816 
C 1626 2816 1242 2702 954 2472 
L 954 2765 
L 480 2765 
L 480 -1216 
L 966 -1216 
L 966 333 
z
M 966 2100 
C 1018 2176 1235 2415 1587 2415 
C 2035 2415 2394 1960 2394 1412 
C 2394 787 1958 384 1530 384 
C 1402 384 1267 415 1139 523 
C 966 674 966 768 966 857 
L 966 2100 
z
" transform="scale(0.015625)"/>
       <path id="CMSS17-6f" d="M 2829 1356 
C 2829 2176 2221 2816 1504 2816 
C 768 2816 173 2157 173 1356 
C 173 544 787 -64 1498 -64 
C 2227 -64 2829 563 2829 1356 
z
M 1504 337 
C 1050 337 659 709 659 1408 
C 659 2151 1114 2427 1498 2427 
C 1914 2427 2342 2126 2342 1408 
C 2342 683 1926 337 1504 337 
z
" transform="scale(0.015625)"/>
       <path id="CMSS17-63" d="M 2464 2541 
C 2464 2585 2170 2714 2093 2739 
C 1882 2816 1613 2816 1542 2816 
C 710 2816 211 2093 211 1363 
C 211 595 768 -64 1517 -64 
C 1946 -64 2253 76 2502 242 
L 2464 664 
C 2189 453 1869 337 1523 337 
C 1024 337 698 774 698 1369 
C 698 1831 909 2414 1549 2414 
C 1901 2414 2099 2343 2394 2145 
L 2464 2541 
z
" transform="scale(0.015625)"/>
       <path id="CMSS17-68" d="M 2618 1891 
C 2618 2292 2522 2820 1798 2820 
C 1395 2820 1133 2623 947 2407 
L 947 4448 
L 474 4448 
L 474 32 
L 960 32 
L 960 1573 
C 960 1973 1114 2432 1549 2432 
C 2112 2432 2131 2056 2131 1839 
L 2131 32 
L 2618 32 
L 2618 1891 
z
" transform="scale(0.015625)"/>
      </defs>
      <use xlink:href="#CMSS17-45" transform="scale(0.996264)"/>
      <use xlink:href="#CMSS17-70" transform="translate(55.892013 0) scale(0.996264)"/>
      <use xlink:href="#CMSS17-6f" transform="translate(106.699395 0) scale(0.996264)"/>
      <use xlink:href="#CMSS17-63" transform="translate(156.145457 0) scale(0.996264)"/>
      <use xlink:href="#CMSS17-68" transform="translate(197.784279 0) scale(0.996264)"/>
     </g>
    </g>
   </g>
   <g id="matplotlib.axis_2">
    <g id="ytick_1">
     <g id="line2d_10">
      <path d="M 83.392615 476.659752 
L 694.08 476.659752 
" clip-path="url(#pefceea89f1)" style="fill: none; stroke: #cccccc; stroke-linecap: round"/>
     </g>
     <g id="text_11">
      <!-- $\mathdefault{24}$ -->
      <g style="fill: #262626" transform="translate(53.788805 484.270099) scale(0.22 -0.22)">
       <defs>
        <path id="CMR17-34" d="M 2150 4122 
C 2150 4256 2144 4256 2029 4256 
L 128 1254 
L 128 1088 
L 1779 1088 
L 1779 457 
C 1779 224 1766 160 1318 160 
L 1197 160 
L 1197 0 
C 1402 0 1747 0 1965 0 
C 2182 0 2528 0 2733 0 
L 2733 160 
L 2611 160 
C 2163 160 2150 224 2150 457 
L 2150 1088 
L 2803 1088 
L 2803 1254 
L 2150 1254 
L 2150 4122 
z
M 1798 3703 
L 1798 1254 
L 256 1254 
L 1798 3703 
z
" transform="scale(0.015625)"/>
       </defs>
       <use xlink:href="#CMR17-32" transform="scale(0.996264)"/>
       <use xlink:href="#CMR17-34" transform="translate(45.690477 0) scale(0.996264)"/>
      </g>
     </g>
    </g>
    <g id="ytick_2">
     <g id="line2d_11">
      <path d="M 83.392615 406.91786 
L 694.08 406.91786 
" clip-path="url(#pefceea89f1)" style="fill: none; stroke: #cccccc; stroke-linecap: round"/>
     </g>
     <g id="text_12">
      <!-- $\mathdefault{25}$ -->
      <g style="fill: #262626" transform="translate(53.788805 414.528207) scale(0.22 -0.22)">
       <use xlink:href="#CMR17-32" transform="scale(0.996264)"/>
       <use xlink:href="#CMR17-35" transform="translate(45.690477 0) scale(0.996264)"/>
      </g>
     </g>
    </g>
    <g id="ytick_3">
     <g id="line2d_12">
      <path d="M 83.392615 337.175969 
L 694.08 337.175969 
" clip-path="url(#pefceea89f1)" style="fill: none; stroke: #cccccc; stroke-linecap: round"/>
     </g>
     <g id="text_13">
      <!-- $\mathdefault{26}$ -->
      <g style="fill: #262626" transform="translate(53.788805 344.786315) scale(0.22 -0.22)">
       <defs>
        <path id="CMR17-36" d="M 678 2176 
C 678 3690 1395 4032 1811 4032 
C 1946 4032 2272 4009 2400 3776 
C 2298 3776 2106 3776 2106 3553 
C 2106 3381 2246 3323 2336 3323 
C 2394 3323 2566 3348 2566 3560 
C 2566 3954 2246 4179 1805 4179 
C 1043 4179 243 3390 243 1984 
C 243 253 966 -128 1478 -128 
C 2099 -128 2688 427 2688 1283 
C 2688 2081 2170 2662 1517 2662 
C 1126 2662 838 2407 678 1960 
L 678 2176 
z
M 1478 25 
C 691 25 691 1200 691 1436 
C 691 1896 909 2560 1504 2560 
C 1613 2560 1926 2560 2138 2120 
C 2253 1870 2253 1609 2253 1289 
C 2253 944 2253 690 2118 434 
C 1978 171 1773 25 1478 25 
z
" transform="scale(0.015625)"/>
       </defs>
       <use xlink:href="#CMR17-32" transform="scale(0.996264)"/>
       <use xlink:href="#CMR17-36" transform="translate(45.690477 0) scale(0.996264)"/>
      </g>
     </g>
    </g>
    <g id="ytick_4">
     <g id="line2d_13">
      <path d="M 83.392615 267.434077 
L 694.08 267.434077 
" clip-path="url(#pefceea89f1)" style="fill: none; stroke: #cccccc; stroke-linecap: round"/>
     </g>
     <g id="text_14">
      <!-- $\mathdefault{27}$ -->
      <g style="fill: #262626" transform="translate(53.788805 275.044424) scale(0.22 -0.22)">
       <use xlink:href="#CMR17-32" transform="scale(0.996264)"/>
       <use xlink:href="#CMR17-37" transform="translate(45.690477 0) scale(0.996264)"/>
      </g>
     </g>
    </g>
    <g id="ytick_5">
     <g id="line2d_14">
      <path d="M 83.392615 197.692185 
L 694.08 197.692185 
" clip-path="url(#pefceea89f1)" style="fill: none; stroke: #cccccc; stroke-linecap: round"/>
     </g>
     <g id="text_15">
      <!-- $\mathdefault{28}$ -->
      <g style="fill: #262626" transform="translate(53.788805 205.302532) scale(0.22 -0.22)">
       <defs>
        <path id="CMR17-38" d="M 1741 2264 
C 2144 2467 2554 2773 2554 3263 
C 2554 3841 1990 4179 1472 4179 
C 890 4179 378 3759 378 3180 
C 378 3021 416 2747 666 2505 
C 730 2442 998 2251 1171 2130 
C 883 1983 211 1634 211 934 
C 211 279 838 -128 1459 -128 
C 2144 -128 2720 362 2720 1010 
C 2720 1590 2330 1857 2074 2029 
L 1741 2264 
z
M 902 2822 
C 851 2854 595 3051 595 3351 
C 595 3739 998 4032 1459 4032 
C 1965 4032 2336 3676 2336 3262 
C 2336 2669 1670 2331 1638 2331 
C 1632 2331 1626 2331 1574 2370 
L 902 2822 
z
M 2080 1519 
C 2176 1449 2483 1240 2483 851 
C 2483 381 2010 25 1472 25 
C 890 25 448 438 448 940 
C 448 1443 838 1862 1280 2060 
L 2080 1519 
z
" transform="scale(0.015625)"/>
       </defs>
       <use xlink:href="#CMR17-32" transform="scale(0.996264)"/>
       <use xlink:href="#CMR17-38" transform="translate(45.690477 0) scale(0.996264)"/>
      </g>
     </g>
    </g>
    <g id="ytick_6">
     <g id="line2d_15">
      <path d="M 83.392615 127.950294 
L 694.08 127.950294 
" clip-path="url(#pefceea89f1)" style="fill: none; stroke: #cccccc; stroke-linecap: round"/>
     </g>
     <g id="text_16">
      <!-- $\mathdefault{29}$ -->
      <g style="fill: #262626" transform="translate(53.788805 135.560641) scale(0.22 -0.22)">
       <defs>
        <path id="CMR17-39" d="M 2253 1864 
C 2253 464 1670 31 1190 31 
C 1043 31 685 31 538 294 
C 704 268 826 357 826 518 
C 826 692 685 749 595 749 
C 538 749 365 723 365 506 
C 365 71 742 -128 1203 -128 
C 1939 -128 2688 674 2688 2073 
C 2688 3817 1971 4179 1485 4179 
C 851 4179 243 3628 243 2778 
C 243 1991 762 1408 1414 1408 
C 1952 1408 2189 1903 2253 2112 
L 2253 1864 
z
M 1427 1510 
C 1254 1510 1011 1542 813 1922 
C 678 2169 678 2461 678 2771 
C 678 3146 678 3405 858 3684 
C 947 3817 1114 4032 1485 4032 
C 2240 4032 2240 2885 2240 2632 
C 2240 2182 2035 1510 1427 1510 
z
" transform="scale(0.015625)"/>
       </defs>
       <use xlink:href="#CMR17-32" transform="scale(0.996264)"/>
       <use xlink:href="#CMR17-39" transform="translate(45.690477 0) scale(0.996264)"/>
      </g>
     </g>
    </g>
    <g id="ytick_7">
     <g id="line2d_16">
      <path d="M 83.392615 58.208402 
L 694.08 58.208402 
" clip-path="url(#pefceea89f1)" style="fill: none; stroke: #cccccc; stroke-linecap: round"/>
     </g>
     <g id="text_17">
      <!-- $\mathdefault{30}$ -->
      <g style="fill: #262626" transform="translate(53.788805 65.818749) scale(0.22 -0.22)">
       <defs>
        <path id="CMR17-33" d="M 1414 2157 
C 1984 2157 2234 1662 2234 1090 
C 2234 320 1824 25 1453 25 
C 1114 25 563 194 390 693 
C 422 680 454 680 486 680 
C 640 680 755 782 755 948 
C 755 1133 614 1216 486 1216 
C 378 1216 211 1165 211 926 
C 211 335 787 -128 1466 -128 
C 2176 -128 2720 430 2720 1085 
C 2720 1707 2208 2157 1600 2227 
C 2086 2328 2554 2756 2554 3329 
C 2554 3820 2048 4179 1472 4179 
C 890 4179 378 3829 378 3329 
C 378 3110 544 3072 627 3072 
C 762 3072 877 3155 877 3321 
C 877 3486 762 3569 627 3569 
C 602 3569 570 3569 544 3557 
C 730 3959 1235 4032 1459 4032 
C 1683 4032 2106 3925 2106 3320 
C 2106 3143 2080 2828 1862 2550 
C 1670 2304 1453 2304 1242 2284 
C 1210 2284 1062 2269 1037 2269 
C 992 2263 966 2257 966 2208 
C 966 2163 973 2157 1101 2157 
L 1414 2157 
z
" transform="scale(0.015625)"/>
       </defs>
       <use xlink:href="#CMR17-33" transform="scale(0.996264)"/>
       <use xlink:href="#CMR17-30" transform="translate(45.690477 0) scale(0.996264)"/>
      </g>
     </g>
    </g>
    <g id="text_18">
     <!-- Peak Signal-to-Noise Ratio (PSNR), dB -->
     <g style="fill: #262626" transform="translate(43.831226 460.306706) rotate(-90) scale(0.24 -0.24)">
      <defs>
       <path id="CMSS17-50" d="M 2106 1856 
C 2874 1856 3501 2453 3501 3158 
C 3501 3850 2899 4453 2067 4453 
L 570 4453 
L 570 0 
L 1107 0 
L 1107 1856 
L 2106 1856 
z
M 1926 4096 
C 2669 4096 2995 3627 2995 3157 
C 2995 2720 2694 2226 1926 2226 
L 1094 2226 
L 1094 4096 
L 1926 4096 
z
" transform="scale(0.015625)"/>
       <path id="CMSS17-65" d="M 2502 1377 
C 2502 1590 2490 2003 2285 2345 
C 2061 2713 1696 2816 1421 2816 
C 755 2816 192 2188 192 1375 
C 192 582 774 -64 1510 -64 
C 1798 -64 2150 19 2470 248 
C 2470 274 2458 414 2451 420 
C 2451 433 2432 630 2432 656 
C 2125 407 1773 325 1517 325 
C 1107 325 666 667 646 1377 
L 2502 1377 
z
M 698 1728 
C 781 2084 1062 2421 1421 2421 
C 1517 2421 1965 2421 2080 1728 
L 698 1728 
z
" transform="scale(0.015625)"/>
       <path id="CMSS17-61" d="M 2406 1791 
C 2406 2392 1978 2808 1402 2808 
C 1120 2808 813 2757 461 2553 
L 499 2135 
C 659 2248 934 2432 1395 2432 
C 1722 2432 1920 2180 1920 1782 
L 1920 1536 
C 896 1536 256 1238 256 726 
C 256 461 416 -64 947 -64 
C 1043 -64 1562 -64 1933 217 
L 1933 -19 
L 2406 -19 
L 2406 1791 
z
M 1920 816 
C 1920 701 1920 548 1728 434 
C 1562 325 1350 325 1261 325 
C 941 325 723 511 723 744 
C 723 1211 1722 1211 1920 1211 
L 1920 816 
z
" transform="scale(0.015625)"/>
       <path id="CMSS17-6b" d="M 1696 1688 
L 2688 2739 
L 2074 2739 
L 954 1554 
L 954 4416 
L 480 4416 
L 480 0 
L 947 0 
L 947 892 
L 1376 1344 
L 2278 0 
L 2822 0 
L 1696 1688 
z
" transform="scale(0.015625)"/>
       <path id="CMSS17-53" d="M 2797 4169 
C 2515 4334 2208 4480 1690 4480 
C 864 4480 333 3879 333 3266 
C 333 3025 403 2753 653 2475 
C 902 2196 1184 2121 1542 2033 
C 1690 1994 1939 1924 1984 1906 
C 2342 1767 2515 1444 2515 1140 
C 2515 742 2202 318 1645 318 
C 1453 318 890 318 358 819 
L 269 318 
C 794 -64 1363 -128 1651 -128 
C 2438 -128 3002 488 3002 1186 
C 3002 1440 2925 1763 2656 2061 
C 2394 2347 2163 2410 1638 2549 
C 1338 2626 1146 2677 986 2873 
C 877 3013 819 3146 819 3317 
C 819 3673 1126 4060 1690 4060 
C 1971 4060 2336 4002 2707 3660 
L 2797 4169 
z
" transform="scale(0.015625)"/>
       <path id="CMSS17-69" d="M 979 4183 
L 442 4183 
L 442 3648 
L 979 3648 
L 979 4183 
z
M 947 2739 
L 474 2739 
L 474 0 
L 947 0 
L 947 2739 
z
" transform="scale(0.015625)"/>
       <path id="CMSS17-67" d="M 2848 2808 
C 2483 2808 2170 2738 1914 2617 
C 1702 2777 1485 2808 1338 2808 
C 781 2808 358 2349 358 1814 
C 358 1468 550 1207 563 1195 
C 448 1035 384 863 384 672 
C 384 448 474 289 544 200 
C 211 -3 166 -314 166 -435 
C 166 -898 749 -1280 1498 -1280 
C 2253 -1280 2835 -898 2835 -428 
C 2835 448 1856 448 1587 448 
L 1069 448 
C 973 448 717 448 717 791 
C 717 921 774 1004 781 1010 
C 877 940 1075 832 1338 832 
C 1869 832 2310 1278 2310 1827 
C 2310 2132 2170 2355 2112 2432 
L 2131 2432 
C 2150 2432 2419 2432 2515 2432 
C 2720 2432 2739 2429 2918 2419 
L 2848 2808 
z
M 1338 1182 
C 1120 1182 813 1315 813 1823 
C 813 2375 1165 2464 1331 2464 
C 1549 2464 1856 2331 1856 1823 
C 1856 1271 1504 1182 1338 1182 
z
M 1581 -10 
C 1734 -10 2381 -10 2381 -442 
C 2381 -714 1984 -929 1504 -929 
C 1018 -929 621 -720 621 -435 
C 621 -403 621 -10 1062 -10 
L 1581 -10 
z
" transform="scale(0.015625)"/>
       <path id="CMSS17-6e" d="M 2618 1877 
C 2618 2283 2522 2816 1798 2816 
C 1389 2816 1120 2606 941 2389 
L 941 2758 
L 474 2758 
L 474 0 
L 960 0 
L 960 1559 
C 960 1964 1114 2428 1549 2428 
C 2112 2428 2131 2048 2131 1829 
L 2131 0 
L 2618 0 
L 2618 1877 
z
" transform="scale(0.015625)"/>
       <path id="CMSS17-6c" d="M 947 4416 
L 474 4416 
L 474 0 
L 947 0 
L 947 4416 
z
" transform="scale(0.015625)"/>
       <path id="CMSS17-2d" d="M 1664 1216 
L 1664 1585 
L 64 1585 
L 64 1216 
L 1664 1216 
z
" transform="scale(0.015625)"/>
       <path id="CMSS17-74" d="M 1069 2368 
L 1901 2368 
L 1901 2737 
L 1069 2737 
L 1069 3520 
L 614 3520 
L 614 2737 
L 109 2737 
L 109 2368 
L 602 2368 
L 602 749 
C 602 384 685 -64 1107 -64 
C 1427 -64 1722 25 2003 172 
L 1901 548 
C 1747 414 1562 337 1363 337 
C 1082 337 1069 696 1069 856 
L 1069 2368 
z
" transform="scale(0.015625)"/>
       <path id="CMSS17-4e" d="M 1466 4180 
L 1350 4416 
L 563 4416 
L 563 0 
L 1062 0 
L 1062 3926 
L 1069 3932 
C 1114 3817 1139 3760 1402 3194 
L 2771 236 
L 2886 0 
L 3674 0 
L 3674 4416 
L 3174 4416 
L 3174 490 
L 3168 483 
C 3123 598 3098 655 2835 1221 
L 1466 4180 
z
" transform="scale(0.015625)"/>
       <path id="CMSS17-73" d="M 2061 2627 
C 1683 2807 1389 2807 1197 2807 
C 742 2807 198 2648 198 2003 
C 198 1359 902 1218 1094 1179 
C 1389 1122 1715 1058 1715 740 
C 1715 337 1254 337 1171 337 
C 915 337 563 407 243 638 
L 166 210 
C 531 0 883 -64 1178 -64 
C 1965 -64 2163 416 2163 781 
C 2163 1094 1984 1305 1862 1401 
C 1651 1568 1574 1587 1050 1696 
C 960 1709 646 1779 646 2066 
C 646 2432 1050 2432 1139 2432 
C 1555 2432 1811 2303 1984 2208 
L 2061 2627 
z
" transform="scale(0.015625)"/>
       <path id="CMSS17-52" d="M 2522 2109 
L 2534 2115 
C 3533 2459 3539 3147 3539 3268 
C 3539 3873 2925 4453 2003 4453 
L 570 4453 
L 570 32 
L 1094 32 
L 1094 2048 
L 2035 2048 
L 3168 32 
L 3706 32 
L 2522 2109 
z
M 1094 2437 
L 1094 4096 
L 1933 4096 
C 2746 4096 3034 3637 3034 3267 
C 3034 2922 2778 2437 1933 2437 
L 1094 2437 
z
" transform="scale(0.015625)"/>
       <path id="CMSS17-28" d="M 1613 4768 
C 1267 4417 474 3601 474 1588 
C 474 -433 1267 -1243 1613 -1600 
L 2003 -1600 
C 1216 -784 960 357 960 1581 
C 960 2798 1203 3946 2003 4768 
L 1613 4768 
z
" transform="scale(0.015625)"/>
       <path id="CMSS17-29" d="M 723 -1600 
C 1069 -1249 1862 -433 1862 1581 
C 1862 3601 1069 4411 723 4768 
L 333 4768 
C 1120 3952 1376 2811 1376 1588 
C 1376 370 1133 -778 333 -1600 
L 723 -1600 
z
" transform="scale(0.015625)"/>
       <path id="CMSS17-2c" d="M 1088 6 
L 1088 510 
L 576 510 
L 576 0 
L 736 0 
L 570 -800 
L 826 -800 
L 1088 6 
z
" transform="scale(0.015625)"/>
       <path id="CMSS17-64" d="M 2611 4416 
L 2138 4416 
L 2138 2438 
C 1939 2603 1613 2756 1254 2756 
C 672 2756 211 2131 211 1347 
C 211 562 666 -64 1235 -64 
C 1677 -64 1971 172 2125 306 
L 2125 -13 
L 2611 -13 
L 2611 4416 
z
M 2125 836 
C 2125 747 2125 653 1926 482 
C 1798 375 1645 325 1498 325 
C 1152 325 698 576 698 1340 
C 698 2134 1210 2368 1562 2368 
C 1798 2368 1990 2254 2125 2065 
L 2125 836 
z
" transform="scale(0.015625)"/>
       <path id="CMSS17-42" d="M 570 4416 
L 570 0 
L 2163 0 
C 3034 0 3667 574 3667 1200 
C 3667 1685 3251 2176 2502 2317 
C 3334 2558 3501 3040 3501 3313 
C 3501 3883 2874 4416 1997 4416 
L 570 4416 
z
M 1088 2496 
L 1088 4059 
L 1824 4059 
C 2483 4059 3002 3724 3002 3306 
C 3002 2926 2592 2496 1766 2496 
L 1088 2496 
z
M 1088 357 
L 1088 2107 
L 1939 2107 
C 2630 2107 3162 1679 3162 1206 
C 3162 772 2694 357 1984 357 
L 1088 357 
z
" transform="scale(0.015625)"/>
      </defs>
      <use xlink:href="#CMSS17-50" transform="scale(0.996264)"/>
      <use xlink:href="#CMSS17-65" transform="translate(57.133132 0) scale(0.996264)"/>
      <use xlink:href="#CMSS17-61" transform="translate(98.771954 0) scale(0.996264)"/>
      <use xlink:href="#CMSS17-6b" transform="translate(143.693875 0) scale(0.996264)"/>
      <use xlink:href="#CMSS17-53" transform="translate(220.525477 0) scale(0.996264)"/>
      <use xlink:href="#CMSS17-69" transform="translate(272.573993 0) scale(0.996264)"/>
      <use xlink:href="#CMSS17-67" transform="translate(294.754716 0) scale(0.996264)"/>
      <use xlink:href="#CMSS17-6e" transform="translate(341.59834 0) scale(0.996264)"/>
      <use xlink:href="#CMSS17-61" transform="translate(389.803283 0) scale(0.996264)"/>
      <use xlink:href="#CMSS17-6c" transform="translate(434.725203 0) scale(0.996264)"/>
      <use xlink:href="#CMSS17-2d" transform="translate(456.905927 0) scale(0.996264)"/>
      <use xlink:href="#CMSS17-74" transform="translate(488.135039 0) scale(0.996264)"/>
      <use xlink:href="#CMSS17-6f" transform="translate(521.966606 0) scale(0.996264)"/>
      <use xlink:href="#CMSS17-2d" transform="translate(568.810229 0) scale(0.996264)"/>
      <use xlink:href="#CMSS17-4e" transform="translate(600.039342 0) scale(0.996264)"/>
      <use xlink:href="#CMSS17-6f" transform="translate(666.100861 0) scale(0.996264)"/>
      <use xlink:href="#CMSS17-69" transform="translate(712.944485 0) scale(0.996264)"/>
      <use xlink:href="#CMSS17-73" transform="translate(735.125208 0) scale(0.996264)"/>
      <use xlink:href="#CMSS17-65" transform="translate(771.03875 0) scale(0.996264)"/>
      <use xlink:href="#CMSS17-52" transform="translate(843.906685 0) scale(0.996264)"/>
      <use xlink:href="#CMSS17-61" transform="translate(904.32284 0) scale(0.996264)"/>
      <use xlink:href="#CMSS17-74" transform="translate(949.24476 0) scale(0.996264)"/>
      <use xlink:href="#CMSS17-69" transform="translate(983.076327 0) scale(0.996264)"/>
      <use xlink:href="#CMSS17-6f" transform="translate(1005.25705 0) scale(0.996264)"/>
      <use xlink:href="#CMSS17-28" transform="translate(1083.329786 0) scale(0.996264)"/>
      <use xlink:href="#CMSS17-50" transform="translate(1119.7637 0) scale(0.996264)"/>
      <use xlink:href="#CMSS17-53" transform="translate(1179.499287 0) scale(0.996264)"/>
      <use xlink:href="#CMSS17-4e" transform="translate(1231.547803 0) scale(0.996264)"/>
      <use xlink:href="#CMSS17-52" transform="translate(1297.609322 0) scale(0.996264)"/>
      <use xlink:href="#CMSS17-29" transform="translate(1358.025477 0) scale(0.996264)"/>
      <use xlink:href="#CMSS17-2c" transform="translate(1394.459391 0) scale(0.996264)"/>
      <use xlink:href="#CMSS17-64" transform="translate(1451.712709 0) scale(0.996264)"/>
      <use xlink:href="#CMSS17-42" transform="translate(1499.917652 0) scale(0.996264)"/>
     </g>
    </g>
   </g>
   <g id="PolyCollection_1">
    <defs>
     <path id="m148c30afd6" d="M 111.151132 -152.31339 
L 111.151132 -100.432213 
L 113.940933 -204.446005 
L 116.730734 -225.105526 
L 119.520535 -222.196325 
L 122.310335 -232.273019 
L 125.100136 -230.660789 
L 127.889937 -263.183176 
L 130.679738 -242.953302 
L 133.469538 -255.914098 
L 136.259339 -248.064511 
L 139.04914 -256.141723 
L 141.838941 -283.256957 
L 144.628741 -302.502416 
L 147.418542 -275.442608 
L 150.208343 -286.389607 
L 152.998144 -273.116578 
L 155.787944 -301.826011 
L 158.577745 -303.885875 
L 161.367546 -309.590211 
L 164.157347 -305.656814 
L 166.947147 -305.016565 
L 169.736948 -288.801071 
L 172.526749 -302.942616 
L 175.31655 -293.506859 
L 178.106351 -288.586339 
L 180.896151 -303.343448 
L 183.685952 -296.183984 
L 186.475753 -293.610462 
L 189.265554 -319.571147 
L 192.055354 -322.944682 
L 194.845155 -317.457142 
L 197.634956 -317.50665 
L 200.424757 -317.332433 
L 203.214557 -311.276405 
L 206.004358 -323.080541 
L 208.794159 -320.568686 
L 211.58396 -316.114473 
L 214.37376 -321.975224 
L 217.163561 -326.891413 
L 219.953362 -333.309107 
L 222.743163 -331.20304 
L 225.532963 -332.688211 
L 228.322764 -340.830724 
L 231.112565 -329.55135 
L 233.902366 -326.217642 
L 236.692166 -336.163661 
L 239.481967 -321.231326 
L 242.271768 -320.11385 
L 245.061569 -327.6507 
L 247.851369 -334.885366 
L 250.64117 -345.459796 
L 253.430971 -349.306704 
L 256.220772 -330.059686 
L 259.010572 -330.244151 
L 261.800373 -343.590943 
L 264.590174 -338.690474 
L 267.379975 -340.862705 
L 270.169775 -344.758019 
L 272.959576 -356.328153 
L 275.749377 -373.121495 
L 278.539178 -355.936772 
L 281.328978 -354.221948 
L 284.118779 -360.689911 
L 286.90858 -363.252074 
L 289.698381 -357.00887 
L 292.488181 -371.273656 
L 295.277982 -359.420242 
L 298.067783 -366.214249 
L 300.857584 -359.270664 
L 303.647384 -367.684427 
L 306.437185 -374.921846 
L 309.226986 -369.284876 
L 312.016787 -368.742668 
L 314.806587 -379.539126 
L 317.596388 -370.809643 
L 320.386189 -369.027279 
L 323.17599 -368.71546 
L 325.96579 -372.514925 
L 328.755591 -369.784942 
L 331.545392 -378.034713 
L 334.335193 -373.665207 
L 337.124993 -384.66566 
L 339.914794 -390.803543 
L 342.704595 -386.551857 
L 345.494396 -382.475443 
L 348.284197 -391.26806 
L 351.073997 -389.652801 
L 353.863798 -391.910347 
L 356.653599 -395.001714 
L 359.4434 -380.219431 
L 362.2332 -378.893601 
L 365.023001 -386.797712 
L 367.812802 -394.659673 
L 370.602603 -397.656005 
L 373.392403 -394.24971 
L 376.182204 -389.834071 
L 378.972005 -387.847542 
L 381.761806 -389.764698 
L 384.551606 -380.223193 
L 387.341407 -393.881729 
L 390.131208 -393.199463 
L 392.921009 -396.53183 
L 395.710809 -400.309179 
L 398.50061 -400.052006 
L 401.290411 -407.321221 
L 404.080212 -398.986652 
L 406.870012 -393.049323 
L 409.659813 -403.124916 
L 412.449614 -413.982536 
L 415.239415 -412.281613 
L 418.029215 -408.415848 
L 420.819016 -409.620364 
L 423.608817 -404.23005 
L 426.398618 -417.184468 
L 429.188418 -409.619171 
L 431.978219 -405.042313 
L 434.76802 -409.265965 
L 437.557821 -410.976844 
L 440.347621 -402.710457 
L 443.137422 -408.604977 
L 445.927223 -392.712543 
L 448.717024 -415.086981 
L 451.506824 -408.594149 
L 454.296625 -408.879907 
L 457.086426 -400.740409 
L 459.876227 -408.261406 
L 462.666027 -411.371562 
L 465.455828 -427.373346 
L 468.245629 -412.028157 
L 471.03543 -410.578635 
L 473.82523 -410.541599 
L 476.615031 -412.001591 
L 479.404832 -414.370383 
L 482.194633 -411.53008 
L 484.984433 -427.008302 
L 487.774234 -418.9711 
L 490.564035 -407.010778 
L 493.353836 -403.829309 
L 496.143636 -423.179059 
L 498.933437 -406.489871 
L 501.723238 -404.544164 
L 504.513039 -411.377951 
L 507.30284 -425.0748 
L 510.09264 -425.818393 
L 512.882441 -422.065162 
L 515.672242 -413.85934 
L 518.462043 -411.948688 
L 521.251843 -412.507265 
L 524.041644 -419.567806 
L 526.831445 -425.606628 
L 529.621246 -422.293517 
L 532.411046 -352.365401 
L 535.200847 -350.137642 
L 537.990648 -394.891651 
L 540.780449 -424.32613 
L 543.570249 -421.929119 
L 546.36005 -422.358629 
L 549.149851 -429.679325 
L 551.939652 -424.30328 
L 554.729452 -420.673857 
L 557.519253 -432.08074 
L 560.309054 -433.50375 
L 563.098855 -431.322645 
L 565.888655 -430.817632 
L 568.678456 -424.956009 
L 571.468257 -425.326926 
L 574.258058 -434.648756 
L 577.047858 -421.559074 
L 579.837659 -416.3717 
L 582.62746 -423.719116 
L 585.417261 -437.604911 
L 588.207061 -431.367079 
L 590.996862 -431.526282 
L 593.786663 -432.861115 
L 596.576464 -446.876712 
L 599.366264 -431.084257 
L 602.156065 -436.931197 
L 604.945866 -420.577457 
L 607.735667 -434.460127 
L 610.525467 -429.964578 
L 613.315268 -425.593001 
L 616.105069 -436.893435 
L 618.89487 -436.689306 
L 621.68467 -421.188984 
L 624.474471 -428.431081 
L 627.264272 -430.696122 
L 630.054073 -434.367632 
L 632.843873 -439.896971 
L 635.633674 -435.33397 
L 638.423475 -432.079639 
L 641.213276 -433.266903 
L 644.003076 -431.926023 
L 646.792877 -439.301412 
L 649.582678 -445.005931 
L 652.372479 -435.195587 
L 655.162279 -444.18339 
L 657.95208 -435.698142 
L 660.741881 -435.403758 
L 663.531682 -441.116628 
L 666.321482 -429.500061 
L 666.321482 -505.895604 
L 666.321482 -505.895604 
L 663.531682 -499.561526 
L 660.741881 -474.410031 
L 657.95208 -464.106171 
L 655.162279 -495.106029 
L 652.372479 -472.125708 
L 649.582678 -487.429741 
L 646.792877 -474.189151 
L 644.003076 -488.651738 
L 641.213276 -484.504573 
L 638.423475 -494.596362 
L 635.633674 -491.663945 
L 632.843873 -495.067625 
L 630.054073 -491.750755 
L 627.264272 -465.779793 
L 624.474471 -468.789143 
L 621.68467 -473.687376 
L 618.89487 -476.533579 
L 616.105069 -472.803673 
L 613.315268 -469.827208 
L 610.525467 -464.961748 
L 607.735667 -469.471203 
L 604.945866 -463.724563 
L 602.156065 -466.945787 
L 599.366264 -473.873844 
L 596.576464 -473.743215 
L 593.786663 -467.059189 
L 590.996862 -470.213495 
L 588.207061 -468.174325 
L 585.417261 -480.440594 
L 582.62746 -490.649201 
L 579.837659 -470.520177 
L 577.047858 -464.551922 
L 574.258058 -462.414379 
L 571.468257 -465.526657 
L 568.678456 -453.479204 
L 565.888655 -467.551283 
L 563.098855 -452.044632 
L 560.309054 -467.075891 
L 557.519253 -460.305697 
L 554.729452 -456.576249 
L 551.939652 -476.035797 
L 549.149851 -482.858023 
L 546.36005 -486.467853 
L 543.570249 -460.828852 
L 540.780449 -478.171504 
L 537.990648 -454.071018 
L 535.200847 -453.678754 
L 532.411046 -454.609803 
L 529.621246 -455.881445 
L 526.831445 -455.902047 
L 524.041644 -465.050806 
L 521.251843 -454.214381 
L 518.462043 -457.036041 
L 515.672242 -448.816867 
L 512.882441 -458.78124 
L 510.09264 -460.429855 
L 507.30284 -450.981986 
L 504.513039 -466.508768 
L 501.723238 -446.208055 
L 498.933437 -441.630057 
L 496.143636 -454.513902 
L 493.353836 -459.875866 
L 490.564035 -453.240997 
L 487.774234 -446.737589 
L 484.984433 -464.194633 
L 482.194633 -461.416917 
L 479.404832 -447.021793 
L 476.615031 -444.995929 
L 473.82523 -460.967969 
L 471.03543 -450.732888 
L 468.245629 -463.665925 
L 465.455828 -444.917469 
L 462.666027 -439.248787 
L 459.876227 -445.95254 
L 457.086426 -450.020353 
L 454.296625 -470.042949 
L 451.506824 -482.663708 
L 448.717024 -439.723125 
L 445.927223 -440.372317 
L 443.137422 -427.704712 
L 440.347621 -439.831817 
L 437.557821 -450.319529 
L 434.76802 -436.001565 
L 431.978219 -440.044071 
L 429.188418 -442.01694 
L 426.398618 -445.403414 
L 423.608817 -448.436682 
L 420.819016 -442.101092 
L 418.029215 -444.482959 
L 415.239415 -454.125418 
L 412.449614 -453.432164 
L 409.659813 -452.409868 
L 406.870012 -467.024685 
L 404.080212 -448.507341 
L 401.290411 -458.024586 
L 398.50061 -441.373082 
L 395.710809 -428.375842 
L 392.921009 -436.151785 
L 390.131208 -437.479253 
L 387.341407 -427.293189 
L 384.551606 -424.170404 
L 381.761806 -419.461587 
L 378.972005 -418.847852 
L 376.182204 -429.801281 
L 373.392403 -423.708391 
L 370.602603 -427.41587 
L 367.812802 -422.77864 
L 365.023001 -422.11912 
L 362.2332 -454.24431 
L 359.4434 -432.97362 
L 356.653599 -413.434819 
L 353.863798 -413.487322 
L 351.073997 -420.741856 
L 348.284197 -421.718242 
L 345.494396 -441.997945 
L 342.704595 -435.07877 
L 339.914794 -412.284956 
L 337.124993 -414.171389 
L 334.335193 -437.924892 
L 331.545392 -412.390815 
L 328.755591 -404.78193 
L 325.96579 -407.859486 
L 323.17599 -413.16807 
L 320.386189 -400.726024 
L 317.596388 -402.296639 
L 314.806587 -409.059767 
L 312.016787 -399.97057 
L 309.226986 -405.589595 
L 306.437185 -402.273114 
L 303.647384 -396.302285 
L 300.857584 -403.586222 
L 298.067783 -406.976779 
L 295.277982 -390.23299 
L 292.488181 -398.734251 
L 289.698381 -390.805607 
L 286.90858 -392.542731 
L 284.118779 -392.984904 
L 281.328978 -394.243378 
L 278.539178 -405.812077 
L 275.749377 -406.271973 
L 272.959576 -431.376393 
L 270.169775 -401.261706 
L 267.379975 -384.560313 
L 264.590174 -396.833693 
L 261.800373 -382.123338 
L 259.010572 -383.121198 
L 256.220772 -376.208859 
L 253.430971 -383.805036 
L 250.64117 -378.189207 
L 247.851369 -386.686982 
L 245.061569 -369.41988 
L 242.271768 -391.712573 
L 239.481967 -389.225449 
L 236.692166 -383.764888 
L 233.902366 -382.331188 
L 231.112565 -361.791191 
L 228.322764 -368.89064 
L 225.532963 -370.912559 
L 222.743163 -370.605694 
L 219.953362 -372.672577 
L 217.163561 -359.005415 
L 214.37376 -359.102412 
L 211.58396 -348.4531 
L 208.794159 -359.648922 
L 206.004358 -363.537032 
L 203.214557 -353.555867 
L 200.424757 -355.794306 
L 197.634956 -350.425786 
L 194.845155 -338.281062 
L 192.055354 -346.516157 
L 189.265554 -351.878758 
L 186.475753 -347.921043 
L 183.685952 -346.613061 
L 180.896151 -336.472728 
L 178.106351 -347.123829 
L 175.31655 -341.052201 
L 172.526749 -341.70884 
L 169.736948 -343.465867 
L 166.947147 -333.547881 
L 164.157347 -335.578793 
L 161.367546 -323.214748 
L 158.577745 -334.01194 
L 155.787944 -336.154072 
L 152.998144 -340.085725 
L 150.208343 -320.442967 
L 147.418542 -329.525977 
L 144.628741 -326.38672 
L 141.838941 -318.732501 
L 139.04914 -319.818594 
L 136.259339 -307.873184 
L 133.469538 -310.764628 
L 130.679738 -298.294778 
L 127.889937 -292.019017 
L 125.100136 -290.980643 
L 122.310335 -287.95155 
L 119.520535 -276.899342 
L 116.730734 -261.215675 
L 113.940933 -241.660324 
L 111.151132 -152.31339 
z
" style="stroke: #ffffff; stroke-opacity: 0.3"/>
    </defs>
    <g clip-path="url(#pefceea89f1)">
     <use xlink:href="#m148c30afd6" x="0" y="576" style="fill: #4c72b0; fill-opacity: 0.3; stroke: #ffffff; stroke-opacity: 0.3"/>
    </g>
   </g>
   <g id="line2d_17">
    <path d="M 111.151132 450.659745 
L 113.940933 364.060963 
L 116.730734 341.062932 
L 119.520535 326.218462 
L 122.310335 314.925828 
L 125.100136 318.041547 
L 127.889937 297.222078 
L 130.679738 290.496849 
L 133.469538 299.152781 
L 136.259339 296.809867 
L 139.04914 284.871523 
L 141.838941 266.485266 
L 144.628741 256.898234 
L 147.418542 262.424636 
L 150.208343 273.88066 
L 152.998144 267.922775 
L 155.787944 271.183117 
L 158.577745 254.747844 
L 161.367546 260.295352 
L 164.157347 259.560539 
L 166.947147 253.675424 
L 169.736948 251.958948 
L 172.526749 267.685469 
L 175.31655 249.437962 
L 178.106351 242.609956 
L 180.896151 246.762305 
L 183.685952 243.681319 
L 186.475753 250.955536 
L 189.265554 247.516619 
L 192.055354 239.736268 
L 194.845155 253.028981 
L 197.634956 242.398344 
L 200.424757 245.013665 
L 203.214557 229.416396 
L 206.004358 231.103553 
L 208.794159 240.301728 
L 211.58396 242.835928 
L 214.37376 231.928985 
L 217.163561 230.619305 
L 219.953362 229.655261 
L 222.743163 233.374569 
L 225.532963 217.672221 
L 228.322764 232.091043 
L 231.112565 229.055807 
L 233.902366 228.602297 
L 236.692166 221.586813 
L 239.481967 220.337378 
L 242.271768 229.457185 
L 245.061569 226.530274 
L 247.851369 200.276994 
L 250.64117 202.120796 
L 253.430971 215.479717 
L 256.220772 220.458325 
L 259.010572 210.503312 
L 261.800373 199.980643 
L 264.590174 211.993862 
L 267.379975 207.773238 
L 270.169775 206.505266 
L 272.959576 192.95454 
L 275.749377 190.87097 
L 278.539178 192.997317 
L 281.328978 194.615972 
L 284.118779 205.844324 
L 286.90858 203.880035 
L 289.698381 207.488811 
L 292.488181 202.197603 
L 295.277982 201.038236 
L 298.067783 203.964 
L 300.857584 202.295976 
L 303.647384 200.101171 
L 306.437185 189.385284 
L 309.226986 181.947053 
L 312.016787 202.737598 
L 314.806587 189.170703 
L 317.596388 191.223854 
L 320.386189 195.137092 
L 323.17599 189.279143 
L 325.96579 182.728301 
L 328.755591 200.912506 
L 331.545392 174.72946 
L 334.335193 172.266402 
L 339.914794 176.689507 
L 342.704595 177.499414 
L 345.494396 184.964429 
L 348.284197 170.734127 
L 351.073997 183.624415 
L 353.863798 180.294153 
L 356.653599 171.715487 
L 359.4434 169.469064 
L 362.2332 177.010595 
L 365.023001 175.015885 
L 367.812802 170.764566 
L 370.602603 173.435586 
L 373.392403 173.741619 
L 376.182204 179.721306 
L 378.972005 179.646171 
L 381.761806 172.177023 
L 384.551606 179.048067 
L 387.341407 166.944556 
L 390.131208 169.803789 
L 392.921009 165.341904 
L 395.710809 158.946573 
L 398.50061 163.16376 
L 401.290411 160.298648 
L 404.080212 164.907532 
L 406.870012 154.250787 
L 409.659813 162.342361 
L 412.449614 153.610492 
L 415.239415 160.692185 
L 418.029215 154.851714 
L 420.819016 151.000218 
L 423.608817 163.92284 
L 426.398618 155.428416 
L 429.188418 150.651511 
L 431.978219 139.652066 
L 434.76802 150.918455 
L 437.557821 146.605562 
L 440.347621 140.582156 
L 443.137422 158.84352 
L 445.927223 157.057898 
L 448.717024 149.349584 
L 451.506824 162.207603 
L 454.296625 140.030328 
L 457.086426 147.686515 
L 459.876227 154.642672 
L 462.666027 155.71633 
L 465.455828 140.350219 
L 468.245629 154.188662 
L 471.03543 149.085849 
L 473.82523 153.082152 
L 476.615031 137.695514 
L 479.404832 151.83195 
L 482.194633 147.478115 
L 484.984433 145.425501 
L 487.774234 148.799174 
L 490.564035 146.293834 
L 493.353836 135.906697 
L 496.143636 144.273017 
L 498.933437 146.68001 
L 501.723238 142.18076 
L 504.513039 147.220759 
L 507.30284 145.457711 
L 510.09264 137.301122 
L 512.882441 144.551479 
L 515.672242 136.907585 
L 518.462043 144.942447 
L 521.251843 135.693846 
L 524.041644 136.202274 
L 526.831445 143.035878 
L 529.621246 135.794743 
L 532.411046 148.955863 
L 535.200847 151.683041 
L 537.990648 148.142835 
L 540.780449 140.508453 
L 543.570249 136.854819 
L 546.36005 140.326818 
L 549.149851 137.75816 
L 551.939652 140.5031 
L 554.729452 138.127471 
L 557.519253 128.429632 
L 560.309054 132.936518 
L 563.098855 139.599989 
L 565.888655 127.02938 
L 568.678456 139.309862 
L 571.468257 135.912661 
L 574.258058 133.514687 
L 577.047858 129.220743 
L 579.837659 131.937787 
L 582.62746 133.309912 
L 585.417261 130.15244 
L 588.207061 125.48579 
L 590.996862 127.859033 
L 593.786663 127.249827 
L 596.576464 123.315486 
L 599.366264 124.412958 
L 602.156065 130.18855 
L 604.945866 139.070042 
L 607.735667 125.727776 
L 610.525467 123.691771 
L 613.315268 129.617905 
L 616.105069 135.919039 
L 618.89487 111.462156 
L 621.68467 134.242664 
L 624.474471 135.103472 
L 627.264272 133.698723 
L 630.054073 122.277342 
L 632.843873 127.081107 
L 635.633674 134.219126 
L 638.423475 121.388087 
L 641.213276 127.599015 
L 644.003076 132.15027 
L 646.792877 112.244558 
L 649.582678 123.892279 
L 652.372479 116.593358 
L 655.162279 125.043388 
L 657.95208 134.651388 
L 660.741881 127.795393 
L 663.531682 116.043976 
L 666.321482 120.473688 
L 666.321482 120.473688 
" clip-path="url(#pefceea89f1)" style="fill: none; stroke: #000000; stroke-width: 2; stroke-linecap: round"/>
   </g>
   <g id="patch_3">
    <path d="M 83.392615 495.840956 
L 83.392615 49.831226 
" style="fill: none; stroke: #cccccc; stroke-width: 1.25; stroke-linejoin: miter; stroke-linecap: square"/>
   </g>
   <g id="patch_4">
    <path d="M 694.08 495.840956 
L 694.08 49.831226 
" style="fill: none; stroke: #cccccc; stroke-width: 1.25; stroke-linejoin: miter; stroke-linecap: square"/>
   </g>
   <g id="patch_5">
    <path d="M 83.392615 495.840956 
L 694.08 495.840956 
" style="fill: none; stroke: #cccccc; stroke-width: 1.25; stroke-linejoin: miter; stroke-linecap: square"/>
   </g>
   <g id="patch_6">
    <path d="M 83.392615 49.831226 
L 694.08 49.831226 
" style="fill: none; stroke: #cccccc; stroke-width: 1.25; stroke-linejoin: miter; stroke-linecap: square"/>
   </g>
   <g id="text_19">
    <!-- Peak Signal-to-Noise Ratio (PSNR), dB vs Epoch -->
    <g style="fill: #262626" transform="translate(154.782382 43.831226) scale(0.24 -0.24)">
     <defs>
      <path id="CMSS17-76" d="M 2675 2752 
L 2176 2752 
L 1747 1556 
C 1613 1165 1421 627 1389 352 
L 1382 352 
C 1370 468 1318 634 1286 749 
C 1248 890 1197 1056 1158 1172 
L 595 2752 
L 83 2752 
L 1094 0 
L 1664 0 
L 2675 2752 
z
" transform="scale(0.015625)"/>
     </defs>
     <use xlink:href="#CMSS17-50" transform="scale(0.996264)"/>
     <use xlink:href="#CMSS17-65" transform="translate(57.133132 0) scale(0.996264)"/>
     <use xlink:href="#CMSS17-61" transform="translate(98.771954 0) scale(0.996264)"/>
     <use xlink:href="#CMSS17-6b" transform="translate(143.693875 0) scale(0.996264)"/>
     <use xlink:href="#CMSS17-53" transform="translate(220.525477 0) scale(0.996264)"/>
     <use xlink:href="#CMSS17-69" transform="translate(272.573993 0) scale(0.996264)"/>
     <use xlink:href="#CMSS17-67" transform="translate(294.754716 0) scale(0.996264)"/>
     <use xlink:href="#CMSS17-6e" transform="translate(341.59834 0) scale(0.996264)"/>
     <use xlink:href="#CMSS17-61" transform="translate(389.803283 0) scale(0.996264)"/>
     <use xlink:href="#CMSS17-6c" transform="translate(434.725203 0) scale(0.996264)"/>
     <use xlink:href="#CMSS17-2d" transform="translate(456.905927 0) scale(0.996264)"/>
     <use xlink:href="#CMSS17-74" transform="translate(488.135039 0) scale(0.996264)"/>
     <use xlink:href="#CMSS17-6f" transform="translate(521.966606 0) scale(0.996264)"/>
     <use xlink:href="#CMSS17-2d" transform="translate(568.810229 0) scale(0.996264)"/>
     <use xlink:href="#CMSS17-4e" transform="translate(600.039342 0) scale(0.996264)"/>
     <use xlink:href="#CMSS17-6f" transform="translate(666.100861 0) scale(0.996264)"/>
     <use xlink:href="#CMSS17-69" transform="translate(712.944485 0) scale(0.996264)"/>
     <use xlink:href="#CMSS17-73" transform="translate(735.125208 0) scale(0.996264)"/>
     <use xlink:href="#CMSS17-65" transform="translate(771.03875 0) scale(0.996264)"/>
     <use xlink:href="#CMSS17-52" transform="translate(843.906685 0) scale(0.996264)"/>
     <use xlink:href="#CMSS17-61" transform="translate(904.32284 0) scale(0.996264)"/>
     <use xlink:href="#CMSS17-74" transform="translate(949.24476 0) scale(0.996264)"/>
     <use xlink:href="#CMSS17-69" transform="translate(983.076327 0) scale(0.996264)"/>
     <use xlink:href="#CMSS17-6f" transform="translate(1005.25705 0) scale(0.996264)"/>
     <use xlink:href="#CMSS17-28" transform="translate(1083.329786 0) scale(0.996264)"/>
     <use xlink:href="#CMSS17-50" transform="translate(1119.7637 0) scale(0.996264)"/>
     <use xlink:href="#CMSS17-53" transform="translate(1179.499287 0) scale(0.996264)"/>
     <use xlink:href="#CMSS17-4e" transform="translate(1231.547803 0) scale(0.996264)"/>
     <use xlink:href="#CMSS17-52" transform="translate(1297.609322 0) scale(0.996264)"/>
     <use xlink:href="#CMSS17-29" transform="translate(1358.025477 0) scale(0.996264)"/>
     <use xlink:href="#CMSS17-2c" transform="translate(1394.459391 0) scale(0.996264)"/>
     <use xlink:href="#CMSS17-64" transform="translate(1451.712709 0) scale(0.996264)"/>
     <use xlink:href="#CMSS17-42" transform="translate(1499.917652 0) scale(0.996264)"/>
     <use xlink:href="#CMSS17-76" transform="translate(1593.484805 0) scale(0.996264)"/>
     <use xlink:href="#CMSS17-73" transform="translate(1636.484947 0) scale(0.996264)"/>
     <use xlink:href="#CMSS17-45" transform="translate(1703.627601 0) scale(0.996264)"/>
     <use xlink:href="#CMSS17-70" transform="translate(1759.519615 0) scale(0.996264)"/>
     <use xlink:href="#CMSS17-6f" transform="translate(1810.326996 0) scale(0.996264)"/>
     <use xlink:href="#CMSS17-63" transform="translate(1859.773059 0) scale(0.996264)"/>
     <use xlink:href="#CMSS17-68" transform="translate(1901.411881 0) scale(0.996264)"/>
    </g>
   </g>
   <g id="legend_1">
    <g id="patch_7">
     <path d="M 98.792615 128.757602 
L 310.37929 128.757602 
Q 314.77929 128.757602 314.77929 124.357602 
L 314.77929 65.231226 
Q 314.77929 60.831226 310.37929 60.831226 
L 98.792615 60.831226 
Q 94.392615 60.831226 94.392615 65.231226 
L 94.392615 124.357602 
Q 94.392615 128.757602 98.792615 128.757602 
z
" style="fill: #ffffff; opacity: 0.8; stroke: #cccccc; stroke-linejoin: miter"/>
    </g>
    <g id="line2d_18">
     <path d="M 103.192615 77.331226 
L 125.192615 77.331226 
L 147.192615 77.331226 
" style="fill: none; stroke: #000000; stroke-width: 2; stroke-linecap: round"/>
    </g>
    <g id="text_20">
     <!-- Median -->
     <g style="fill: #262626" transform="translate(164.792615 85.031226) scale(0.22 -0.22)">
      <defs>
       <path id="CMSS17-4d" d="M 3194 2371 
L 2886 1473 
C 2835 1307 2662 791 2624 587 
L 2618 587 
C 2598 715 2560 849 2458 1174 
C 2400 1365 2336 1562 2272 1741 
L 1325 4416 
L 576 4416 
L 576 0 
L 1075 0 
L 1075 3900 
L 1082 3900 
C 1082 3894 1139 3613 1530 2499 
L 2374 96 
L 2848 96 
L 3610 2231 
C 3661 2378 3821 2843 3891 3066 
C 3955 3257 4115 3728 4154 3913 
L 4160 3913 
L 4160 0 
L 4666 0 
L 4666 4416 
L 3923 4416 
L 3194 2371 
z
" transform="scale(0.015625)"/>
      </defs>
      <use xlink:href="#CMSS17-4d" transform="scale(0.996264)"/>
      <use xlink:href="#CMSS17-65" transform="translate(81.67603 0) scale(0.996264)"/>
      <use xlink:href="#CMSS17-64" transform="translate(123.314852 0) scale(0.996264)"/>
      <use xlink:href="#CMSS17-69" transform="translate(171.519795 0) scale(0.996264)"/>
      <use xlink:href="#CMSS17-61" transform="translate(193.700518 0) scale(0.996264)"/>
      <use xlink:href="#CMSS17-6e" transform="translate(238.622439 0) scale(0.996264)"/>
     </g>
    </g>
    <g id="patch_8">
     <path d="M 103.192615 115.694414 
L 147.192615 115.694414 
L 147.192615 100.294414 
L 103.192615 100.294414 
z
" style="fill: #4c72b0; fill-opacity: 0.3; stroke: #ffffff; stroke-opacity: 0.3; stroke-linejoin: miter"/>
    </g>
    <g id="text_21">
     <!-- MinMax Range -->
     <g style="fill: #262626" transform="translate(164.792615 115.694414) scale(0.22 -0.22)">
      <defs>
       <path id="CMSS17-7b" d="M 3002 1472 
L 3002 1861 
L 0 1861 
L 0 1472 
L 3002 1472 
z
" transform="scale(0.015625)"/>
       <path id="CMSS17-78" d="M 1587 1414 
L 2656 2739 
L 2099 2739 
L 1363 1777 
L 602 2739 
L 32 2739 
L 1139 1414 
L 0 0 
L 563 0 
L 1363 1121 
L 2195 0 
L 2758 0 
L 1587 1414 
z
" transform="scale(0.015625)"/>
      </defs>
      <use xlink:href="#CMSS17-4d" transform="scale(0.996264)"/>
      <use xlink:href="#CMSS17-69" transform="translate(81.67603 0) scale(0.996264)"/>
      <use xlink:href="#CMSS17-6e" transform="translate(103.856753 0) scale(0.996264)"/>
      <use xlink:href="#CMSS17-7b" transform="translate(152.061696 0) scale(0.996264)"/>
      <use xlink:href="#CMSS17-4d" transform="translate(198.90532 0) scale(0.996264)"/>
      <use xlink:href="#CMSS17-61" transform="translate(280.58135 0) scale(0.996264)"/>
      <use xlink:href="#CMSS17-78" transform="translate(325.50327 0) scale(0.996264)"/>
      <use xlink:href="#CMSS17-52" transform="translate(399.732525 0) scale(0.996264)"/>
      <use xlink:href="#CMSS17-61" transform="translate(460.14868 0) scale(0.996264)"/>
      <use xlink:href="#CMSS17-6e" transform="translate(505.0706 0) scale(0.996264)"/>
      <use xlink:href="#CMSS17-67" transform="translate(553.275543 0) scale(0.996264)"/>
      <use xlink:href="#CMSS17-65" transform="translate(600.119167 0) scale(0.996264)"/>
     </g>
    </g>
   </g>
  </g>
 </g>
 <defs>
  <clipPath id="pefceea89f1">
   <rect x="83.392615" y="49.831226" width="610.687385" height="446.00973"/>
  </clipPath>
 </defs>
</svg>
