<?xml version="1.0" encoding="utf-8" standalone="no"?>
<!DOCTYPE svg PUBLIC "-//W3C//DTD SVG 1.1//EN"
  "http://www.w3.org/Graphics/SVG/1.1/DTD/svg11.dtd">
<svg xmlns:xlink="http://www.w3.org/1999/xlink" width="720pt" height="576pt" viewBox="0 0 720 576" xmlns="http://www.w3.org/2000/svg" version="1.1">
 <metadata>
  <rdf:RDF xmlns:dc="http://purl.org/dc/elements/1.1/" xmlns:cc="http://creativecommons.org/ns#" xmlns:rdf="http://www.w3.org/1999/02/22-rdf-syntax-ns#">
   <cc:Work>
    <dc:type rdf:resource="http://purl.org/dc/dcmitype/StillImage"/>
    <dc:date>2025-04-24T10:46:44.280858</dc:date>
    <dc:format>image/svg+xml</dc:format>
    <dc:creator>
     <cc:Agent>
      <dc:title>Matplotlib v3.9.2, https://matplotlib.org/</dc:title>
     </cc:Agent>
    </dc:creator>
   </cc:Work>
  </rdf:RDF>
 </metadata>
 <defs>
  <style type="text/css">*{stroke-linejoin: round; stroke-linecap: butt}</style>
 </defs>
 <g id="figure_1">
  <g id="patch_1">
   <path d="M 0 576 
L 720 576 
L 720 0 
L 0 0 
z
" style="fill: #ffffff"/>
  </g>
  <g id="axes_1">
   <g id="patch_2">
    <path d="M 99.405899 495.840956 
L 694.08 495.840956 
L 694.08 49.831226 
L 99.405899 49.831226 
z
" style="fill: #ffffff"/>
   </g>
   <g id="matplotlib.axis_1">
    <g id="xtick_1">
     <g id="line2d_1">
      <path d="M 123.719892 495.840956 
L 123.719892 49.831226 
" clip-path="url(#p4441e8912e)" style="fill: none; stroke: #cccccc; stroke-linecap: round"/>
     </g>
     <g id="text_1">
      <!-- $\mathdefault{0}$ -->
      <g style="fill: #262626" transform="translate(118.69394 520.56165) scale(0.22 -0.22)">
       <defs>
        <path id="CMR17-30" d="M 2688 2025 
C 2688 2416 2682 3080 2413 3591 
C 2176 4039 1798 4198 1466 4198 
C 1158 4198 768 4058 525 3597 
C 269 3118 243 2524 243 2025 
C 243 1661 250 1106 448 619 
C 723 -39 1216 -128 1466 -128 
C 1760 -128 2208 -7 2470 600 
C 2662 1042 2688 1559 2688 2025 
z
M 1466 -26 
C 1056 -26 813 325 723 812 
C 653 1188 653 1738 653 2096 
C 653 2588 653 2997 736 3387 
C 858 3929 1216 4096 1466 4096 
C 1728 4096 2067 3923 2189 3400 
C 2272 3036 2278 2607 2278 2096 
C 2278 1680 2278 1169 2202 792 
C 2067 95 1690 -26 1466 -26 
z
" transform="scale(0.015625)"/>
       </defs>
       <use xlink:href="#CMR17-30" transform="scale(0.996264)"/>
      </g>
     </g>
    </g>
    <g id="xtick_2">
     <g id="line2d_2">
      <path d="M 191.636076 495.840956 
L 191.636076 49.831226 
" clip-path="url(#p4441e8912e)" style="fill: none; stroke: #cccccc; stroke-linecap: round"/>
     </g>
     <g id="text_2">
      <!-- $\mathdefault{25}$ -->
      <g style="fill: #262626" transform="translate(181.584171 520.56165) scale(0.22 -0.22)">
       <defs>
        <path id="CMR17-32" d="M 2669 989 
L 2554 989 
C 2490 536 2438 459 2413 420 
C 2381 369 1920 369 1830 369 
L 602 369 
C 832 619 1280 1072 1824 1597 
C 2214 1967 2669 2402 2669 3035 
C 2669 3790 2067 4224 1395 4224 
C 691 4224 262 3604 262 3030 
C 262 2780 448 2748 525 2748 
C 589 2748 781 2787 781 3010 
C 781 3207 614 3264 525 3264 
C 486 3264 448 3258 422 3245 
C 544 3790 915 4058 1306 4058 
C 1862 4058 2227 3617 2227 3035 
C 2227 2479 1901 2000 1536 1584 
L 262 146 
L 262 0 
L 2515 0 
L 2669 989 
z
" transform="scale(0.015625)"/>
        <path id="CMR17-35" d="M 730 3692 
C 794 3666 1056 3584 1325 3584 
C 1920 3584 2246 3911 2432 4100 
C 2432 4157 2432 4192 2394 4192 
C 2387 4192 2374 4192 2323 4163 
C 2099 4058 1837 3973 1517 3973 
C 1325 3973 1037 3999 723 4139 
C 653 4171 640 4171 634 4171 
C 602 4171 595 4164 595 4037 
L 595 2203 
C 595 2089 595 2057 659 2057 
C 691 2057 704 2070 736 2114 
C 941 2401 1222 2522 1542 2522 
C 1766 2522 2246 2382 2246 1289 
C 2246 1085 2246 715 2054 421 
C 1894 159 1645 25 1370 25 
C 947 25 518 320 403 814 
C 429 807 480 795 506 795 
C 589 795 749 840 749 1038 
C 749 1210 627 1280 506 1280 
C 358 1280 262 1190 262 1011 
C 262 454 704 -128 1382 -128 
C 2042 -128 2669 440 2669 1264 
C 2669 2030 2170 2624 1549 2624 
C 1222 2624 947 2503 730 2274 
L 730 3692 
z
" transform="scale(0.015625)"/>
       </defs>
       <use xlink:href="#CMR17-32" transform="scale(0.996264)"/>
       <use xlink:href="#CMR17-35" transform="translate(45.690477 0) scale(0.996264)"/>
      </g>
     </g>
    </g>
    <g id="xtick_3">
     <g id="line2d_3">
      <path d="M 259.552259 495.840956 
L 259.552259 49.831226 
" clip-path="url(#p4441e8912e)" style="fill: none; stroke: #cccccc; stroke-linecap: round"/>
     </g>
     <g id="text_3">
      <!-- $\mathdefault{50}$ -->
      <g style="fill: #262626" transform="translate(249.500354 520.56165) scale(0.22 -0.22)">
       <use xlink:href="#CMR17-35" transform="scale(0.996264)"/>
       <use xlink:href="#CMR17-30" transform="translate(45.690477 0) scale(0.996264)"/>
      </g>
     </g>
    </g>
    <g id="xtick_4">
     <g id="line2d_4">
      <path d="M 327.468442 495.840956 
L 327.468442 49.831226 
" clip-path="url(#p4441e8912e)" style="fill: none; stroke: #cccccc; stroke-linecap: round"/>
     </g>
     <g id="text_4">
      <!-- $\mathdefault{75}$ -->
      <g style="fill: #262626" transform="translate(317.416537 520.56165) scale(0.22 -0.22)">
       <defs>
        <path id="CMR17-37" d="M 2886 3941 
L 2886 4081 
L 1382 4081 
C 634 4081 621 4165 595 4288 
L 480 4288 
L 294 3094 
L 410 3094 
C 429 3215 474 3540 550 3661 
C 589 3712 1062 3712 1171 3712 
L 2579 3712 
L 1869 2661 
C 1395 1954 1069 999 1069 165 
C 1069 89 1069 -128 1299 -128 
C 1530 -128 1530 89 1530 171 
L 1530 465 
C 1530 1508 1709 2196 2003 2636 
L 2886 3941 
z
" transform="scale(0.015625)"/>
       </defs>
       <use xlink:href="#CMR17-37" transform="scale(0.996264)"/>
       <use xlink:href="#CMR17-35" transform="translate(45.690477 0) scale(0.996264)"/>
      </g>
     </g>
    </g>
    <g id="xtick_5">
     <g id="line2d_5">
      <path d="M 395.384626 495.840956 
L 395.384626 49.831226 
" clip-path="url(#p4441e8912e)" style="fill: none; stroke: #cccccc; stroke-linecap: round"/>
     </g>
     <g id="text_5">
      <!-- $\mathdefault{100}$ -->
      <g style="fill: #262626" transform="translate(380.306768 520.56165) scale(0.22 -0.22)">
       <defs>
        <path id="CMR17-31" d="M 1702 4058 
C 1702 4192 1696 4192 1606 4192 
C 1357 3916 979 3827 621 3827 
C 602 3827 570 3827 563 3808 
C 557 3795 557 3782 557 3648 
C 755 3648 1088 3686 1344 3839 
L 1344 461 
C 1344 236 1331 160 781 160 
L 589 160 
L 589 0 
C 896 0 1216 0 1523 0 
C 1830 0 2150 0 2458 0 
L 2458 160 
L 2266 160 
C 1715 160 1702 230 1702 458 
L 1702 4058 
z
" transform="scale(0.015625)"/>
       </defs>
       <use xlink:href="#CMR17-31" transform="scale(0.996264)"/>
       <use xlink:href="#CMR17-30" transform="translate(45.690477 0) scale(0.996264)"/>
       <use xlink:href="#CMR17-30" transform="translate(91.380954 0) scale(0.996264)"/>
      </g>
     </g>
    </g>
    <g id="xtick_6">
     <g id="line2d_6">
      <path d="M 463.300809 495.840956 
L 463.300809 49.831226 
" clip-path="url(#p4441e8912e)" style="fill: none; stroke: #cccccc; stroke-linecap: round"/>
     </g>
     <g id="text_6">
      <!-- $\mathdefault{125}$ -->
      <g style="fill: #262626" transform="translate(448.222952 520.56165) scale(0.22 -0.22)">
       <use xlink:href="#CMR17-31" transform="scale(0.996264)"/>
       <use xlink:href="#CMR17-32" transform="translate(45.690477 0) scale(0.996264)"/>
       <use xlink:href="#CMR17-35" transform="translate(91.380954 0) scale(0.996264)"/>
      </g>
     </g>
    </g>
    <g id="xtick_7">
     <g id="line2d_7">
      <path d="M 531.216992 495.840956 
L 531.216992 49.831226 
" clip-path="url(#p4441e8912e)" style="fill: none; stroke: #cccccc; stroke-linecap: round"/>
     </g>
     <g id="text_7">
      <!-- $\mathdefault{150}$ -->
      <g style="fill: #262626" transform="translate(516.139135 520.56165) scale(0.22 -0.22)">
       <use xlink:href="#CMR17-31" transform="scale(0.996264)"/>
       <use xlink:href="#CMR17-35" transform="translate(45.690477 0) scale(0.996264)"/>
       <use xlink:href="#CMR17-30" transform="translate(91.380954 0) scale(0.996264)"/>
      </g>
     </g>
    </g>
    <g id="xtick_8">
     <g id="line2d_8">
      <path d="M 599.133176 495.840956 
L 599.133176 49.831226 
" clip-path="url(#p4441e8912e)" style="fill: none; stroke: #cccccc; stroke-linecap: round"/>
     </g>
     <g id="text_8">
      <!-- $\mathdefault{175}$ -->
      <g style="fill: #262626" transform="translate(584.055318 520.56165) scale(0.22 -0.22)">
       <use xlink:href="#CMR17-31" transform="scale(0.996264)"/>
       <use xlink:href="#CMR17-37" transform="translate(45.690477 0) scale(0.996264)"/>
       <use xlink:href="#CMR17-35" transform="translate(91.380954 0) scale(0.996264)"/>
      </g>
     </g>
    </g>
    <g id="xtick_9">
     <g id="line2d_9">
      <path d="M 667.049359 495.840956 
L 667.049359 49.831226 
" clip-path="url(#p4441e8912e)" style="fill: none; stroke: #cccccc; stroke-linecap: round"/>
     </g>
     <g id="text_9">
      <!-- $\mathdefault{200}$ -->
      <g style="fill: #262626" transform="translate(651.971502 520.56165) scale(0.22 -0.22)">
       <use xlink:href="#CMR17-32" transform="scale(0.996264)"/>
       <use xlink:href="#CMR17-30" transform="translate(45.690477 0) scale(0.996264)"/>
       <use xlink:href="#CMR17-30" transform="translate(91.380954 0) scale(0.996264)"/>
      </g>
     </g>
    </g>
    <g id="text_10">
     <!-- Epoch -->
     <g style="fill: #262626" transform="translate(367.224258 545.429243) scale(0.24 -0.24)">
      <defs>
       <path id="CMSS17-45" d="M 1958 433 
C 1446 433 1216 433 1101 433 
L 1101 2107 
L 3085 2107 
L 3085 2496 
L 1101 2496 
L 1101 4009 
L 1926 4009 
C 2003 4009 2080 4009 2157 4009 
L 3251 4009 
L 3251 4416 
L 563 4416 
L 563 0 
L 3334 0 
L 3334 433 
L 1958 433 
z
" transform="scale(0.015625)"/>
       <path id="CMSS17-70" d="M 966 333 
C 1178 129 1466 -5 1773 -5 
C 2368 -5 2880 603 2880 1412 
C 2880 2159 2496 2816 1946 2816 
C 1626 2816 1242 2702 954 2472 
L 954 2765 
L 480 2765 
L 480 -1216 
L 966 -1216 
L 966 333 
z
M 966 2100 
C 1018 2176 1235 2415 1587 2415 
C 2035 2415 2394 1960 2394 1412 
C 2394 787 1958 384 1530 384 
C 1402 384 1267 415 1139 523 
C 966 674 966 768 966 857 
L 966 2100 
z
" transform="scale(0.015625)"/>
       <path id="CMSS17-6f" d="M 2829 1356 
C 2829 2176 2221 2816 1504 2816 
C 768 2816 173 2157 173 1356 
C 173 544 787 -64 1498 -64 
C 2227 -64 2829 563 2829 1356 
z
M 1504 337 
C 1050 337 659 709 659 1408 
C 659 2151 1114 2427 1498 2427 
C 1914 2427 2342 2126 2342 1408 
C 2342 683 1926 337 1504 337 
z
" transform="scale(0.015625)"/>
       <path id="CMSS17-63" d="M 2464 2541 
C 2464 2585 2170 2714 2093 2739 
C 1882 2816 1613 2816 1542 2816 
C 710 2816 211 2093 211 1363 
C 211 595 768 -64 1517 -64 
C 1946 -64 2253 76 2502 242 
L 2464 664 
C 2189 453 1869 337 1523 337 
C 1024 337 698 774 698 1369 
C 698 1831 909 2414 1549 2414 
C 1901 2414 2099 2343 2394 2145 
L 2464 2541 
z
" transform="scale(0.015625)"/>
       <path id="CMSS17-68" d="M 2618 1891 
C 2618 2292 2522 2820 1798 2820 
C 1395 2820 1133 2623 947 2407 
L 947 4448 
L 474 4448 
L 474 32 
L 960 32 
L 960 1573 
C 960 1973 1114 2432 1549 2432 
C 2112 2432 2131 2056 2131 1839 
L 2131 32 
L 2618 32 
L 2618 1891 
z
" transform="scale(0.015625)"/>
      </defs>
      <use xlink:href="#CMSS17-45" transform="scale(0.996264)"/>
      <use xlink:href="#CMSS17-70" transform="translate(55.892013 0) scale(0.996264)"/>
      <use xlink:href="#CMSS17-6f" transform="translate(106.699395 0) scale(0.996264)"/>
      <use xlink:href="#CMSS17-63" transform="translate(156.145457 0) scale(0.996264)"/>
      <use xlink:href="#CMSS17-68" transform="translate(197.784279 0) scale(0.996264)"/>
     </g>
    </g>
   </g>
   <g id="matplotlib.axis_2">
    <g id="ytick_1">
     <g id="line2d_10">
      <path d="M 99.405899 459.505472 
L 694.08 459.505472 
" clip-path="url(#p4441e8912e)" style="fill: none; stroke: #cccccc; stroke-linecap: round"/>
     </g>
     <g id="text_11">
      <!-- $\mathdefault{0.87}$ -->
      <g style="fill: #262626" transform="translate(53.788805 467.115819) scale(0.22 -0.22)">
       <defs>
        <path id="CMMI12-3a" d="M 1178 307 
C 1178 492 1024 619 870 619 
C 685 619 557 466 557 313 
C 557 128 710 0 864 0 
C 1050 0 1178 153 1178 307 
z
" transform="scale(0.015625)"/>
        <path id="CMR17-38" d="M 1741 2264 
C 2144 2467 2554 2773 2554 3263 
C 2554 3841 1990 4179 1472 4179 
C 890 4179 378 3759 378 3180 
C 378 3021 416 2747 666 2505 
C 730 2442 998 2251 1171 2130 
C 883 1983 211 1634 211 934 
C 211 279 838 -128 1459 -128 
C 2144 -128 2720 362 2720 1010 
C 2720 1590 2330 1857 2074 2029 
L 1741 2264 
z
M 902 2822 
C 851 2854 595 3051 595 3351 
C 595 3739 998 4032 1459 4032 
C 1965 4032 2336 3676 2336 3262 
C 2336 2669 1670 2331 1638 2331 
C 1632 2331 1626 2331 1574 2370 
L 902 2822 
z
M 2080 1519 
C 2176 1449 2483 1240 2483 851 
C 2483 381 2010 25 1472 25 
C 890 25 448 438 448 940 
C 448 1443 838 1862 1280 2060 
L 2080 1519 
z
" transform="scale(0.015625)"/>
       </defs>
       <use xlink:href="#CMR17-30" transform="scale(0.996264)"/>
       <use xlink:href="#CMMI12-3a" transform="translate(45.690477 0) scale(0.996264)"/>
       <use xlink:href="#CMR17-38" transform="translate(72.787654 0) scale(0.996264)"/>
       <use xlink:href="#CMR17-37" transform="translate(118.478131 0) scale(0.996264)"/>
      </g>
     </g>
    </g>
    <g id="ytick_2">
     <g id="line2d_11">
      <path d="M 99.405899 398.681562 
L 694.08 398.681562 
" clip-path="url(#p4441e8912e)" style="fill: none; stroke: #cccccc; stroke-linecap: round"/>
     </g>
     <g id="text_12">
      <!-- $\mathdefault{0.88}$ -->
      <g style="fill: #262626" transform="translate(53.788805 406.291909) scale(0.22 -0.22)">
       <use xlink:href="#CMR17-30" transform="scale(0.996264)"/>
       <use xlink:href="#CMMI12-3a" transform="translate(45.690477 0) scale(0.996264)"/>
       <use xlink:href="#CMR17-38" transform="translate(72.787654 0) scale(0.996264)"/>
       <use xlink:href="#CMR17-38" transform="translate(118.478131 0) scale(0.996264)"/>
      </g>
     </g>
    </g>
    <g id="ytick_3">
     <g id="line2d_12">
      <path d="M 99.405899 337.857652 
L 694.08 337.857652 
" clip-path="url(#p4441e8912e)" style="fill: none; stroke: #cccccc; stroke-linecap: round"/>
     </g>
     <g id="text_13">
      <!-- $\mathdefault{0.89}$ -->
      <g style="fill: #262626" transform="translate(53.788805 345.467999) scale(0.22 -0.22)">
       <defs>
        <path id="CMR17-39" d="M 2253 1864 
C 2253 464 1670 31 1190 31 
C 1043 31 685 31 538 294 
C 704 268 826 357 826 518 
C 826 692 685 749 595 749 
C 538 749 365 723 365 506 
C 365 71 742 -128 1203 -128 
C 1939 -128 2688 674 2688 2073 
C 2688 3817 1971 4179 1485 4179 
C 851 4179 243 3628 243 2778 
C 243 1991 762 1408 1414 1408 
C 1952 1408 2189 1903 2253 2112 
L 2253 1864 
z
M 1427 1510 
C 1254 1510 1011 1542 813 1922 
C 678 2169 678 2461 678 2771 
C 678 3146 678 3405 858 3684 
C 947 3817 1114 4032 1485 4032 
C 2240 4032 2240 2885 2240 2632 
C 2240 2182 2035 1510 1427 1510 
z
" transform="scale(0.015625)"/>
       </defs>
       <use xlink:href="#CMR17-30" transform="scale(0.996264)"/>
       <use xlink:href="#CMMI12-3a" transform="translate(45.690477 0) scale(0.996264)"/>
       <use xlink:href="#CMR17-38" transform="translate(72.787654 0) scale(0.996264)"/>
       <use xlink:href="#CMR17-39" transform="translate(118.478131 0) scale(0.996264)"/>
      </g>
     </g>
    </g>
    <g id="ytick_4">
     <g id="line2d_13">
      <path d="M 99.405899 277.033741 
L 694.08 277.033741 
" clip-path="url(#p4441e8912e)" style="fill: none; stroke: #cccccc; stroke-linecap: round"/>
     </g>
     <g id="text_14">
      <!-- $\mathdefault{0.90}$ -->
      <g style="fill: #262626" transform="translate(53.788805 284.644088) scale(0.22 -0.22)">
       <use xlink:href="#CMR17-30" transform="scale(0.996264)"/>
       <use xlink:href="#CMMI12-3a" transform="translate(45.690477 0) scale(0.996264)"/>
       <use xlink:href="#CMR17-39" transform="translate(72.787654 0) scale(0.996264)"/>
       <use xlink:href="#CMR17-30" transform="translate(118.478131 0) scale(0.996264)"/>
      </g>
     </g>
    </g>
    <g id="ytick_5">
     <g id="line2d_14">
      <path d="M 99.405899 216.209831 
L 694.08 216.209831 
" clip-path="url(#p4441e8912e)" style="fill: none; stroke: #cccccc; stroke-linecap: round"/>
     </g>
     <g id="text_15">
      <!-- $\mathdefault{0.91}$ -->
      <g style="fill: #262626" transform="translate(53.788805 223.820178) scale(0.22 -0.22)">
       <use xlink:href="#CMR17-30" transform="scale(0.996264)"/>
       <use xlink:href="#CMMI12-3a" transform="translate(45.690477 0) scale(0.996264)"/>
       <use xlink:href="#CMR17-39" transform="translate(72.787654 0) scale(0.996264)"/>
       <use xlink:href="#CMR17-31" transform="translate(118.478131 0) scale(0.996264)"/>
      </g>
     </g>
    </g>
    <g id="ytick_6">
     <g id="line2d_15">
      <path d="M 99.405899 155.385921 
L 694.08 155.385921 
" clip-path="url(#p4441e8912e)" style="fill: none; stroke: #cccccc; stroke-linecap: round"/>
     </g>
     <g id="text_16">
      <!-- $\mathdefault{0.92}$ -->
      <g style="fill: #262626" transform="translate(53.788805 162.996267) scale(0.22 -0.22)">
       <use xlink:href="#CMR17-30" transform="scale(0.996264)"/>
       <use xlink:href="#CMMI12-3a" transform="translate(45.690477 0) scale(0.996264)"/>
       <use xlink:href="#CMR17-39" transform="translate(72.787654 0) scale(0.996264)"/>
       <use xlink:href="#CMR17-32" transform="translate(118.478131 0) scale(0.996264)"/>
      </g>
     </g>
    </g>
    <g id="ytick_7">
     <g id="line2d_16">
      <path d="M 99.405899 94.56201 
L 694.08 94.56201 
" clip-path="url(#p4441e8912e)" style="fill: none; stroke: #cccccc; stroke-linecap: round"/>
     </g>
     <g id="text_17">
      <!-- $\mathdefault{0.93}$ -->
      <g style="fill: #262626" transform="translate(53.788805 102.172357) scale(0.22 -0.22)">
       <defs>
        <path id="CMR17-33" d="M 1414 2157 
C 1984 2157 2234 1662 2234 1090 
C 2234 320 1824 25 1453 25 
C 1114 25 563 194 390 693 
C 422 680 454 680 486 680 
C 640 680 755 782 755 948 
C 755 1133 614 1216 486 1216 
C 378 1216 211 1165 211 926 
C 211 335 787 -128 1466 -128 
C 2176 -128 2720 430 2720 1085 
C 2720 1707 2208 2157 1600 2227 
C 2086 2328 2554 2756 2554 3329 
C 2554 3820 2048 4179 1472 4179 
C 890 4179 378 3829 378 3329 
C 378 3110 544 3072 627 3072 
C 762 3072 877 3155 877 3321 
C 877 3486 762 3569 627 3569 
C 602 3569 570 3569 544 3557 
C 730 3959 1235 4032 1459 4032 
C 1683 4032 2106 3925 2106 3320 
C 2106 3143 2080 2828 1862 2550 
C 1670 2304 1453 2304 1242 2284 
C 1210 2284 1062 2269 1037 2269 
C 992 2263 966 2257 966 2208 
C 966 2163 973 2157 1101 2157 
L 1414 2157 
z
" transform="scale(0.015625)"/>
       </defs>
       <use xlink:href="#CMR17-30" transform="scale(0.996264)"/>
       <use xlink:href="#CMMI12-3a" transform="translate(45.690477 0) scale(0.996264)"/>
       <use xlink:href="#CMR17-39" transform="translate(72.787654 0) scale(0.996264)"/>
       <use xlink:href="#CMR17-33" transform="translate(118.478131 0) scale(0.996264)"/>
      </g>
     </g>
    </g>
    <g id="text_18">
     <!-- Structural Similarity Index (SSIM) -->
     <g style="fill: #262626" transform="translate(43.831226 433.286435) rotate(-90) scale(0.24 -0.24)">
      <defs>
       <path id="CMSS17-53" d="M 2797 4169 
C 2515 4334 2208 4480 1690 4480 
C 864 4480 333 3879 333 3266 
C 333 3025 403 2753 653 2475 
C 902 2196 1184 2121 1542 2033 
C 1690 1994 1939 1924 1984 1906 
C 2342 1767 2515 1444 2515 1140 
C 2515 742 2202 318 1645 318 
C 1453 318 890 318 358 819 
L 269 318 
C 794 -64 1363 -128 1651 -128 
C 2438 -128 3002 488 3002 1186 
C 3002 1440 2925 1763 2656 2061 
C 2394 2347 2163 2410 1638 2549 
C 1338 2626 1146 2677 986 2873 
C 877 3013 819 3146 819 3317 
C 819 3673 1126 4060 1690 4060 
C 1971 4060 2336 4002 2707 3660 
L 2797 4169 
z
" transform="scale(0.015625)"/>
       <path id="CMSS17-74" d="M 1069 2368 
L 1901 2368 
L 1901 2737 
L 1069 2737 
L 1069 3520 
L 614 3520 
L 614 2737 
L 109 2737 
L 109 2368 
L 602 2368 
L 602 749 
C 602 384 685 -64 1107 -64 
C 1427 -64 1722 25 2003 172 
L 1901 548 
C 1747 414 1562 337 1363 337 
C 1082 337 1069 696 1069 856 
L 1069 2368 
z
" transform="scale(0.015625)"/>
       <path id="CMSS17-72" d="M 954 1363 
C 954 1965 1395 2368 1958 2368 
L 1958 2789 
C 1549 2789 1165 2585 934 2253 
L 934 2758 
L 480 2758 
L 480 0 
L 954 0 
L 954 1363 
z
" transform="scale(0.015625)"/>
       <path id="CMSS17-75" d="M 2618 2739 
L 2131 2739 
L 2131 972 
C 2131 498 1786 306 1421 306 
C 998 306 960 447 960 709 
L 960 2739 
L 474 2739 
L 474 678 
C 474 179 646 -64 1088 -64 
C 1306 -64 1798 -13 2144 306 
L 2144 0 
L 2618 0 
L 2618 2739 
z
" transform="scale(0.015625)"/>
       <path id="CMSS17-61" d="M 2406 1791 
C 2406 2392 1978 2808 1402 2808 
C 1120 2808 813 2757 461 2553 
L 499 2135 
C 659 2248 934 2432 1395 2432 
C 1722 2432 1920 2180 1920 1782 
L 1920 1536 
C 896 1536 256 1238 256 726 
C 256 461 416 -64 947 -64 
C 1043 -64 1562 -64 1933 217 
L 1933 -19 
L 2406 -19 
L 2406 1791 
z
M 1920 816 
C 1920 701 1920 548 1728 434 
C 1562 325 1350 325 1261 325 
C 941 325 723 511 723 744 
C 723 1211 1722 1211 1920 1211 
L 1920 816 
z
" transform="scale(0.015625)"/>
       <path id="CMSS17-6c" d="M 947 4416 
L 474 4416 
L 474 0 
L 947 0 
L 947 4416 
z
" transform="scale(0.015625)"/>
       <path id="CMSS17-69" d="M 979 4183 
L 442 4183 
L 442 3648 
L 979 3648 
L 979 4183 
z
M 947 2739 
L 474 2739 
L 474 0 
L 947 0 
L 947 2739 
z
" transform="scale(0.015625)"/>
       <path id="CMSS17-6d" d="M 4288 1877 
C 4288 2308 4179 2816 3462 2816 
C 2982 2816 2694 2516 2566 2331 
C 2451 2670 2182 2816 1798 2816 
C 1363 2816 1088 2568 941 2389 
L 941 2758 
L 474 2758 
L 474 0 
L 960 0 
L 960 1559 
C 960 1939 1101 2428 1555 2428 
C 2138 2428 2138 2016 2138 1829 
L 2138 0 
L 2624 0 
L 2624 1559 
C 2624 1939 2765 2428 3219 2428 
C 3802 2428 3802 2016 3802 1829 
L 3802 0 
L 4288 0 
L 4288 1877 
z
" transform="scale(0.015625)"/>
       <path id="CMSS17-79" d="M 2675 2752 
L 2176 2752 
C 1632 1294 1446 702 1434 383 
L 1427 383 
C 1408 696 1126 1460 902 2007 
L 602 2752 
L 83 2752 
L 1216 13 
C 1146 -178 1043 -465 1011 -529 
C 870 -885 774 -885 672 -885 
C 646 -885 442 -885 211 -809 
L 250 -1229 
C 410 -1261 570 -1280 685 -1280 
C 845 -1280 1165 -1280 1459 -497 
L 2675 2752 
z
" transform="scale(0.015625)"/>
       <path id="CMSS17-49" d="M 1094 4416 
L 557 4416 
L 557 0 
L 1094 0 
L 1094 4416 
z
" transform="scale(0.015625)"/>
       <path id="CMSS17-6e" d="M 2618 1877 
C 2618 2283 2522 2816 1798 2816 
C 1389 2816 1120 2606 941 2389 
L 941 2758 
L 474 2758 
L 474 0 
L 960 0 
L 960 1559 
C 960 1964 1114 2428 1549 2428 
C 2112 2428 2131 2048 2131 1829 
L 2131 0 
L 2618 0 
L 2618 1877 
z
" transform="scale(0.015625)"/>
       <path id="CMSS17-64" d="M 2611 4416 
L 2138 4416 
L 2138 2438 
C 1939 2603 1613 2756 1254 2756 
C 672 2756 211 2131 211 1347 
C 211 562 666 -64 1235 -64 
C 1677 -64 1971 172 2125 306 
L 2125 -13 
L 2611 -13 
L 2611 4416 
z
M 2125 836 
C 2125 747 2125 653 1926 482 
C 1798 375 1645 325 1498 325 
C 1152 325 698 576 698 1340 
C 698 2134 1210 2368 1562 2368 
C 1798 2368 1990 2254 2125 2065 
L 2125 836 
z
" transform="scale(0.015625)"/>
       <path id="CMSS17-65" d="M 2502 1377 
C 2502 1590 2490 2003 2285 2345 
C 2061 2713 1696 2816 1421 2816 
C 755 2816 192 2188 192 1375 
C 192 582 774 -64 1510 -64 
C 1798 -64 2150 19 2470 248 
C 2470 274 2458 414 2451 420 
C 2451 433 2432 630 2432 656 
C 2125 407 1773 325 1517 325 
C 1107 325 666 667 646 1377 
L 2502 1377 
z
M 698 1728 
C 781 2084 1062 2421 1421 2421 
C 1517 2421 1965 2421 2080 1728 
L 698 1728 
z
" transform="scale(0.015625)"/>
       <path id="CMSS17-78" d="M 1587 1414 
L 2656 2739 
L 2099 2739 
L 1363 1777 
L 602 2739 
L 32 2739 
L 1139 1414 
L 0 0 
L 563 0 
L 1363 1121 
L 2195 0 
L 2758 0 
L 1587 1414 
z
" transform="scale(0.015625)"/>
       <path id="CMSS17-28" d="M 1613 4768 
C 1267 4417 474 3601 474 1588 
C 474 -433 1267 -1243 1613 -1600 
L 2003 -1600 
C 1216 -784 960 357 960 1581 
C 960 2798 1203 3946 2003 4768 
L 1613 4768 
z
" transform="scale(0.015625)"/>
       <path id="CMSS17-4d" d="M 3194 2371 
L 2886 1473 
C 2835 1307 2662 791 2624 587 
L 2618 587 
C 2598 715 2560 849 2458 1174 
C 2400 1365 2336 1562 2272 1741 
L 1325 4416 
L 576 4416 
L 576 0 
L 1075 0 
L 1075 3900 
L 1082 3900 
C 1082 3894 1139 3613 1530 2499 
L 2374 96 
L 2848 96 
L 3610 2231 
C 3661 2378 3821 2843 3891 3066 
C 3955 3257 4115 3728 4154 3913 
L 4160 3913 
L 4160 0 
L 4666 0 
L 4666 4416 
L 3923 4416 
L 3194 2371 
z
" transform="scale(0.015625)"/>
       <path id="CMSS17-29" d="M 723 -1600 
C 1069 -1249 1862 -433 1862 1581 
C 1862 3601 1069 4411 723 4768 
L 333 4768 
C 1120 3952 1376 2811 1376 1588 
C 1376 370 1133 -778 333 -1600 
L 723 -1600 
z
" transform="scale(0.015625)"/>
      </defs>
      <use xlink:href="#CMSS17-53" transform="scale(0.996264)"/>
      <use xlink:href="#CMSS17-74" transform="translate(52.048516 0) scale(0.996264)"/>
      <use xlink:href="#CMSS17-72" transform="translate(85.880083 0) scale(0.996264)"/>
      <use xlink:href="#CMSS17-75" transform="translate(117.789855 0) scale(0.996264)"/>
      <use xlink:href="#CMSS17-63" transform="translate(165.994799 0) scale(0.996264)"/>
      <use xlink:href="#CMSS17-74" transform="translate(207.633621 0) scale(0.996264)"/>
      <use xlink:href="#CMSS17-75" transform="translate(241.465187 0) scale(0.996264)"/>
      <use xlink:href="#CMSS17-72" transform="translate(289.67013 0) scale(0.996264)"/>
      <use xlink:href="#CMSS17-61" transform="translate(321.579903 0) scale(0.996264)"/>
      <use xlink:href="#CMSS17-6c" transform="translate(366.501824 0) scale(0.996264)"/>
      <use xlink:href="#CMSS17-53" transform="translate(419.911659 0) scale(0.996264)"/>
      <use xlink:href="#CMSS17-69" transform="translate(471.960176 0) scale(0.996264)"/>
      <use xlink:href="#CMSS17-6d" transform="translate(494.140899 0) scale(0.996264)"/>
      <use xlink:href="#CMSS17-69" transform="translate(568.370153 0) scale(0.996264)"/>
      <use xlink:href="#CMSS17-6c" transform="translate(590.550876 0) scale(0.996264)"/>
      <use xlink:href="#CMSS17-61" transform="translate(612.731599 0) scale(0.996264)"/>
      <use xlink:href="#CMSS17-72" transform="translate(655.051066 0) scale(0.996264)"/>
      <use xlink:href="#CMSS17-69" transform="translate(686.960838 0) scale(0.996264)"/>
      <use xlink:href="#CMSS17-74" transform="translate(709.141561 0) scale(0.996264)"/>
      <use xlink:href="#CMSS17-79" transform="translate(740.370674 0) scale(0.996264)"/>
      <use xlink:href="#CMSS17-49" transform="translate(814.599929 0) scale(0.996264)"/>
      <use xlink:href="#CMSS17-6e" transform="translate(840.383854 0) scale(0.996264)"/>
      <use xlink:href="#CMSS17-64" transform="translate(888.588797 0) scale(0.996264)"/>
      <use xlink:href="#CMSS17-65" transform="translate(936.79374 0) scale(0.996264)"/>
      <use xlink:href="#CMSS17-78" transform="translate(978.432562 0) scale(0.996264)"/>
      <use xlink:href="#CMSS17-28" transform="translate(1052.661817 0) scale(0.996264)"/>
      <use xlink:href="#CMSS17-53" transform="translate(1089.095731 0) scale(0.996264)"/>
      <use xlink:href="#CMSS17-53" transform="translate(1141.144247 0) scale(0.996264)"/>
      <use xlink:href="#CMSS17-49" transform="translate(1193.192763 0) scale(0.996264)"/>
      <use xlink:href="#CMSS17-4d" transform="translate(1218.976689 0) scale(0.996264)"/>
      <use xlink:href="#CMSS17-29" transform="translate(1300.652719 0) scale(0.996264)"/>
     </g>
    </g>
   </g>
   <g id="PolyCollection_1">
    <defs>
     <path id="m410bd92b38" d="M 126.43654 -176.766221 
L 126.43654 -100.432213 
L 129.153187 -239.90304 
L 131.869834 -292.935888 
L 134.586482 -321.35506 
L 137.303129 -316.661215 
L 140.019776 -334.816351 
L 142.736424 -343.743861 
L 145.453071 -338.013608 
L 148.169718 -347.969522 
L 150.886366 -356.368824 
L 153.603013 -360.214336 
L 156.31966 -361.935012 
L 159.036308 -365.540429 
L 161.752955 -370.658441 
L 164.469602 -374.808073 
L 167.18625 -362.575264 
L 169.902897 -378.165392 
L 172.619544 -384.635936 
L 175.336192 -381.622751 
L 178.052839 -386.516675 
L 180.769486 -384.099725 
L 183.486134 -380.934481 
L 186.202781 -385.600315 
L 188.919428 -382.675165 
L 191.636076 -381.834835 
L 194.352723 -388.813578 
L 197.06937 -384.375834 
L 199.786018 -383.711573 
L 202.502665 -392.030843 
L 205.219312 -390.358185 
L 207.93596 -381.202586 
L 210.652607 -387.052886 
L 213.369254 -385.796392 
L 216.085902 -387.985253 
L 218.802549 -394.155678 
L 221.519196 -392.222918 
L 224.235844 -393.271331 
L 226.952491 -389.117698 
L 229.669138 -399.942006 
L 232.385786 -400.846308 
L 235.102433 -399.557802 
L 237.81908 -401.484758 
L 240.535728 -405.248039 
L 243.252375 -402.030774 
L 245.969022 -398.43336 
L 248.68567 -400.078006 
L 251.402317 -396.06843 
L 254.118964 -394.611858 
L 256.835612 -400.798289 
L 259.552259 -402.566985 
L 262.268906 -401.650625 
L 264.985554 -406.684603 
L 267.702201 -399.945954 
L 270.418848 -405.081828 
L 273.135496 -406.312457 
L 275.852143 -400.358116 
L 278.56879 -406.352473 
L 281.285438 -405.908298 
L 284.002085 -405.840272 
L 286.718732 -421.154292 
L 289.43538 -415.416036 
L 292.152027 -411.734589 
L 294.868674 -413.751381 
L 297.585322 -415.348009 
L 300.301969 -408.073149 
L 303.018616 -419.518443 
L 305.735264 -413.591319 
L 308.451911 -412.470878 
L 311.168558 -412.418858 
L 313.885206 -416.736555 
L 316.601853 -418.145109 
L 319.3185 -415.417864 
L 322.035148 -415.332003 
L 324.751795 -422.906981 
L 327.468442 -424.115456 
L 330.18509 -416.080297 
L 332.901737 -418.80937 
L 335.618384 -417.444833 
L 338.335032 -417.620903 
L 341.051679 -419.341208 
L 343.768326 -415.087907 
L 346.484974 -418.433222 
L 349.201621 -433.255048 
L 351.918268 -422.987012 
L 354.634916 -417.728945 
L 357.351563 -429.433546 
L 360.06821 -429.365519 
L 362.784858 -432.41872 
L 365.501505 -430.571477 
L 368.218152 -430.89412 
L 370.9348 -423.043034 
L 373.651447 -426.321859 
L 376.368094 -430.097807 
L 379.084742 -431.694435 
L 381.801389 -431.570386 
L 384.518036 -430.493963 
L 387.234684 -426.968577 
L 389.951331 -430.277428 
L 392.667978 -424.855747 
L 395.384626 -424.491603 
L 398.101273 -432.694272 
L 400.81792 -430.05395 
L 403.534568 -433.179019 
L 406.251215 -429.317501 
L 408.967862 -437.132573 
L 411.68451 -437.260623 
L 414.401157 -433.215033 
L 417.117804 -434.675607 
L 419.834452 -443.134932 
L 422.551099 -441.290207 
L 425.267746 -438.627624 
L 427.984394 -441.104889 
L 430.701041 -435.840065 
L 433.417688 -439.605545 
L 436.134336 -438.269019 
L 438.850983 -435.928099 
L 441.56763 -435.183807 
L 444.284278 -439.073336 
L 447.000925 -433.435119 
L 449.717572 -431.651001 
L 452.43422 -433.943319 
L 455.150867 -441.906449 
L 457.867514 -435.023744 
L 460.584162 -437.872864 
L 463.300809 -434.905684 
L 466.017456 -437.564743 
L 468.734104 -438.382771 
L 471.450751 -446.276167 
L 474.167398 -440.806017 
L 476.884046 -438.768607 
L 479.600693 -442.634736 
L 482.31734 -442.790797 
L 485.033988 -439.037322 
L 487.750635 -442.140104 
L 490.467282 -445.632444 
L 493.18393 -441.60233 
L 495.900577 -435.860073 
L 498.617224 -436.404286 
L 501.333872 -440.806017 
L 504.050519 -440.549916 
L 506.767166 -434.547557 
L 509.483814 -438.19299 
L 512.200461 -445.515868 
L 514.917108 -447.936502 
L 517.633756 -439.985694 
L 520.350403 -443.463061 
L 523.06705 -439.305427 
L 525.783698 -440.293815 
L 528.500345 -443.991269 
L 531.216992 -446.052079 
L 533.93364 -443.453256 
L 536.650287 -404.695133 
L 539.366934 -417.620903 
L 542.083582 -432.71844 
L 544.800229 -445.519658 
L 547.516876 -449.137292 
L 550.233524 -443.779186 
L 552.950171 -447.388604 
L 555.666818 -451.482214 
L 558.383466 -449.36138 
L 561.100113 -448.200924 
L 563.81676 -451.262127 
L 566.533408 -444.551489 
L 569.250055 -446.044076 
L 571.966702 -442.686756 
L 574.68335 -447.776757 
L 577.399997 -452.582646 
L 580.116644 -444.967653 
L 582.833292 -443.755176 
L 585.549939 -449.289935 
L 588.266586 -456.173912 
L 590.983234 -446.832386 
L 593.699881 -445.09671 
L 596.416528 -450.057654 
L 599.133176 -452.77072 
L 601.849823 -448.92921 
L 604.56647 -450.325759 
L 607.283118 -447.724737 
L 609.999765 -452.153304 
L 612.716412 -447.864792 
L 615.43306 -444.379422 
L 618.149707 -447.668715 
L 620.866354 -447.102691 
L 623.583002 -441.138147 
L 626.299649 -447.036466 
L 629.016296 -445.136991 
L 631.732944 -450.129682 
L 634.449591 -450.553849 
L 637.166238 -452.054439 
L 639.882886 -451.314148 
L 642.599533 -452.774722 
L 645.31618 -451.202104 
L 648.032828 -458.412938 
L 650.749475 -459.269275 
L 653.466122 -451.438196 
L 656.18277 -456.056012 
L 658.899417 -454.771507 
L 661.616064 -455.107639 
L 664.332712 -453.162874 
L 667.049359 -455.319722 
L 667.049359 -505.895604 
L 667.049359 -505.895604 
L 664.332712 -494.695201 
L 661.616064 -478.740929 
L 658.899417 -472.082312 
L 656.18277 -480.62567 
L 653.466122 -473.798987 
L 650.749475 -479.493225 
L 648.032828 -479.713312 
L 645.31618 -482.174279 
L 642.599533 -487.592409 
L 639.882886 -495.639572 
L 637.166238 -491.646002 
L 634.449591 -496.888063 
L 631.732944 -495.103361 
L 629.016296 -470.693766 
L 626.299649 -471.398043 
L 623.583002 -474.49526 
L 620.866354 -482.390364 
L 618.149707 -472.798593 
L 615.43306 -470.521698 
L 612.716412 -468.188781 
L 609.999765 -468.596942 
L 607.283118 -470.869835 
L 604.56647 -469.95798 
L 601.849823 -472.958656 
L 599.133176 -474.887414 
L 596.416528 -473.314796 
L 593.699881 -474.618461 
L 590.983234 -474.771369 
L 588.266586 -483.7549 
L 585.549939 -492.466325 
L 582.833292 -470.901848 
L 580.116644 -466.344056 
L 577.399997 -466.652177 
L 574.68335 -469.425267 
L 571.966702 -467.304434 
L 569.250055 -468.548923 
L 566.533408 -464.875479 
L 563.81676 -471.049906 
L 561.100113 -467.632563 
L 558.383466 -468.961085 
L 555.666818 -478.000638 
L 552.950171 -484.668505 
L 550.233524 -496.75201 
L 547.516876 -464.911493 
L 544.800229 -471.185959 
L 542.083582 -462.119349 
L 539.366934 -463.678213 
L 536.650287 -467.968695 
L 533.93364 -461.994346 
L 531.216992 -465.263631 
L 528.500345 -467.124363 
L 525.783698 -464.032684 
L 523.06705 -465.291642 
L 520.350403 -464.915494 
L 517.633756 -471.782194 
L 514.917108 -463.362884 
L 512.200461 -461.754252 
L 509.483814 -472.020354 
L 506.767166 -461.746249 
L 504.050519 -458.41694 
L 501.333872 -459.247332 
L 498.617224 -465.859866 
L 495.900577 -468.656912 
L 493.18393 -456.061126 
L 490.467282 -466.340054 
L 487.750635 -464.443547 
L 485.033988 -460.649818 
L 482.31734 -467.148372 
L 479.600693 -462.682617 
L 476.884046 -461.574181 
L 474.167398 -463.458922 
L 471.450751 -459.945541 
L 468.734104 -455.815414 
L 466.017456 -462.362491 
L 463.300809 -461.603755 
L 460.584162 -479.725316 
L 457.867514 -489.557181 
L 455.150867 -453.833602 
L 452.43422 -453.491003 
L 449.717572 -449.721522 
L 447.000925 -457.288496 
L 444.284278 -471.662147 
L 441.56763 -455.499793 
L 438.850983 -458.916923 
L 436.134336 -455.742908 
L 433.417688 -466.464103 
L 430.701041 -458.569 
L 427.984394 -460.693411 
L 425.267746 -467.188388 
L 422.551099 -469.873443 
L 419.834452 -475.673816 
L 417.117804 -479.528683 
L 414.401157 -484.435168 
L 411.68451 -463.650997 
L 408.967862 -482.590443 
L 406.251215 -469.938216 
L 403.534568 -445.771969 
L 400.81792 -450.009635 
L 398.101273 -449.156713 
L 395.384626 -444.047291 
L 392.667978 -440.878045 
L 389.951331 -442.574712 
L 387.234684 -441.096833 
L 384.518036 -445.655923 
L 381.801389 -442.04437 
L 379.084742 -447.542852 
L 376.368094 -444.831599 
L 373.651447 -459.681437 
L 370.9348 -483.729963 
L 368.218152 -451.430193 
L 365.501505 -445.051686 
L 362.784858 -442.962865 
L 360.06821 -448.036859 
L 357.351563 -458.877121 
L 354.634916 -477.528453 
L 351.918268 -455.443771 
L 349.201621 -447.018101 
L 346.484974 -455.579824 
L 343.768326 -475.75035 
L 341.051679 -435.607973 
L 338.335032 -435.61731 
L 335.618384 -437.608521 
L 332.901737 -438.325042 
L 330.18509 -433.787258 
L 327.468442 -435.836063 
L 324.751795 -437.216606 
L 322.035148 -433.47169 
L 319.3185 -437.980906 
L 316.601853 -431.914521 
L 313.885206 -430.809133 
L 311.168558 -431.110205 
L 308.451911 -433.871291 
L 305.735264 -425.059827 
L 303.018616 -432.67482 
L 300.301969 -427.620834 
L 297.585322 -429.485567 
L 294.868674 -429.685645 
L 292.152027 -437.600757 
L 289.43538 -451.45301 
L 286.718732 -456.200068 
L 284.002085 -470.073522 
L 281.285438 -438.457093 
L 278.56879 -424.099449 
L 275.852143 -432.278665 
L 273.135496 -424.04197 
L 270.418848 -423.77132 
L 267.702201 -421.86257 
L 264.985554 -423.047036 
L 262.268906 -437.088555 
L 259.552259 -430.525976 
L 256.835612 -425.259906 
L 254.118964 -445.267771 
L 251.402317 -436.008131 
L 248.68567 -420.458018 
L 245.969022 -420.558057 
L 243.252375 -412.014699 
L 240.535728 -414.755776 
L 237.81908 -422.046642 
L 235.102433 -422.622869 
L 232.385786 -427.708868 
L 229.669138 -410.494101 
L 226.952491 -414.203559 
L 224.235844 -412.558913 
L 221.519196 -417.620903 
L 218.802549 -417.244755 
L 216.085902 -415.179943 
L 213.369254 -413.807403 
L 210.652607 -409.713794 
L 207.93596 -407.064753 
L 205.219312 -412.770996 
L 202.502665 -411.630548 
L 199.786018 -410.053928 
L 197.06937 -407.608967 
L 194.352723 -405.948314 
L 191.636076 -409.721797 
L 188.919428 -406.088369 
L 186.202781 -407.873283 
L 183.486134 -404.755845 
L 180.769486 -400.998368 
L 178.052839 -404.1316 
L 175.336192 -401.326497 
L 172.619544 -404.807866 
L 169.902897 -405.103982 
L 167.18625 -403.923518 
L 164.469602 -399.693855 
L 161.752955 -403.099194 
L 159.036308 -403.023164 
L 156.31966 -396.404562 
L 153.603013 -402.598997 
L 150.886366 -398.213273 
L 148.169718 -400.210058 
L 145.453071 -393.899578 
L 142.736424 -392.146889 
L 140.019776 -386.060496 
L 137.303129 -370.970564 
L 134.586482 -353.499696 
L 131.869834 -336.360959 
L 129.153187 -311.66325 
L 126.43654 -176.766221 
z
" style="stroke: #ffffff; stroke-opacity: 0.3"/>
    </defs>
    <g clip-path="url(#p4441e8912e)">
     <use xlink:href="#m410bd92b38" x="0" y="576" style="fill: #4c72b0; fill-opacity: 0.3; stroke: #ffffff; stroke-opacity: 0.3"/>
    </g>
   </g>
   <g id="line2d_17">
    <path d="M 126.43654 459.317399 
L 129.153187 325.604835 
L 131.869834 264.188692 
L 134.586482 235.429386 
L 137.303129 224.841224 
L 140.019776 233.476619 
L 142.736424 214.849296 
L 145.453071 199.01107 
L 148.169718 205.197502 
L 150.886366 204.141087 
L 153.603013 194.013105 
L 156.31966 193.560928 
L 159.036308 191.81224 
L 161.752955 196.121934 
L 164.469602 191.051941 
L 167.18625 182.924747 
L 169.902897 187.890699 
L 172.619544 186.962334 
L 175.336192 182.244479 
L 178.052839 187.578576 
L 180.769486 177.202497 
L 183.486134 174.841569 
L 186.202781 187.210431 
L 188.919428 177.594651 
L 191.636076 173.376993 
L 194.352723 174.965618 
L 197.06937 170.659925 
L 199.786018 174.713519 
L 202.502665 177.678684 
L 205.219312 170.351804 
L 207.93596 172.652709 
L 210.652607 177.706695 
L 213.369254 178.194887 
L 216.085902 168.503077 
L 218.802549 165.81402 
L 221.519196 171.556277 
L 224.235844 170.327795 
L 226.952491 167.046505 
L 229.669138 166.478281 
L 232.385786 165.165765 
L 235.102433 161.512329 
L 237.81908 161.288241 
L 240.535728 164.357448 
L 243.252375 166.088512 
L 245.969022 165.185773 
L 248.68567 163.481103 
L 251.402317 163.084947 
L 254.118964 168.607118 
L 256.835612 170.663927 
L 259.552259 159.503539 
L 262.268906 156.486353 
L 264.985554 162.244617 
L 267.702201 161.876472 
L 270.418848 158.41906 
L 273.135496 154.421542 
L 275.852143 158.719231 
L 278.56879 156.822486 
L 281.285438 157.986943 
L 284.002085 150.302492 
L 286.718732 145.942208 
L 292.152027 149.78772 
L 294.868674 154.177446 
L 297.585322 152.528798 
L 300.301969 154.737666 
L 303.018616 153.585213 
L 305.735264 156.570386 
L 308.451911 156.042179 
L 311.168558 155.361911 
L 313.885206 151.308318 
L 316.601853 153.201062 
L 319.3185 146.383176 
L 322.035148 149.899764 
L 324.751795 147.378773 
L 327.468442 150.584033 
L 330.18509 155.329899 
L 332.901737 153.79886 
L 335.618384 146.58458 
L 338.335032 150.560289 
L 343.768326 141.152325 
L 346.484974 142.897011 
L 349.201621 139.031942 
L 351.918268 133.473201 
L 354.634916 146.822236 
L 357.351563 139.923843 
L 360.06821 140.204112 
L 362.784858 141.452443 
L 365.501505 139.863819 
L 368.218152 140.01988 
L 370.9348 143.261154 
L 373.651447 144.873788 
L 376.368094 139.627726 
L 379.084742 137.122741 
L 381.801389 143.669315 
L 384.518036 143.064044 
L 387.234684 139.12056 
L 389.951331 139.463662 
L 392.667978 142.472845 
L 395.384626 138.673444 
L 398.101273 138.97547 
L 400.81792 134.785823 
L 403.534568 133.261223 
L 406.251215 136.127701 
L 408.967862 127.154823 
L 411.68451 136.414463 
L 414.401157 132.632976 
L 417.117804 131.440508 
L 419.834452 129.223636 
L 422.551099 132.116774 
L 425.267746 127.182834 
L 427.984394 131.368479 
L 430.701041 136.441891 
L 433.417688 128.212537 
L 436.134336 127.241771 
L 438.850983 127.07079 
L 441.56763 128.151215 
L 444.284278 124.977967 
L 447.000925 127.178832 
L 449.717572 129.587779 
L 452.43422 134.197592 
L 455.150867 132.244638 
L 457.867514 131.152394 
L 460.584162 121.630665 
L 463.300809 123.417354 
L 466.017456 127.963141 
L 468.734104 128.26726 
L 471.450751 124.217668 
L 474.167398 129.075578 
L 476.884046 124.34972 
L 479.600693 123.673454 
L 482.31734 124.495484 
L 485.033988 123.382877 
L 490.467282 126.858707 
L 493.18393 127.590994 
L 495.900577 122.529004 
L 498.617224 121.796717 
L 501.333872 127.771065 
L 504.050519 123.697066 
L 506.767166 124.641835 
L 509.483814 122.320923 
L 512.200461 124.681851 
L 514.917108 124.045601 
L 517.633756 123.673454 
L 520.350403 119.067644 
L 523.06705 125.078007 
L 525.783698 125.482165 
L 528.500345 118.799538 
L 531.216992 123.745483 
L 533.93364 117.827156 
L 536.650287 124.725868 
L 539.366934 128.067875 
L 542.083582 127.643015 
L 547.516876 124.881929 
L 550.233524 121.95678 
L 552.950171 120.576237 
L 555.666818 122.549012 
L 558.383466 119.047636 
L 561.100113 114.793964 
L 563.81676 118.979609 
L 566.533408 119.127667 
L 569.250055 111.268578 
L 571.966702 118.951598 
L 574.68335 117.15089 
L 577.399997 119.587848 
L 580.116644 114.994042 
L 582.833292 115.642297 
L 585.549939 120.160073 
L 588.266586 115.72633 
L 590.983234 114.037666 
L 593.699881 116.510639 
L 596.416528 117.703293 
L 599.133176 115.342179 
L 601.849823 115.822368 
L 604.56647 120.924374 
L 607.283118 116.098477 
L 609.999765 113.498521 
L 612.716412 116.186511 
L 615.43306 114.429821 
L 618.149707 120.612251 
L 620.866354 104.164938 
L 623.583002 114.293767 
L 626.299649 115.926409 
L 629.016296 120.396166 
L 631.732944 116.358579 
L 634.449591 114.380132 
L 637.166238 117.046849 
L 639.882886 112.725151 
L 642.599533 113.693531 
L 645.31618 110.344215 
L 648.032828 102.761234 
L 650.749475 108.855629 
L 653.466122 108.7796 
L 656.18277 111.536683 
L 658.899417 115.730332 
L 661.616064 110.812399 
L 664.332712 104.601957 
L 667.049359 109.583916 
L 667.049359 109.583916 
" clip-path="url(#p4441e8912e)" style="fill: none; stroke: #000000; stroke-width: 2; stroke-linecap: round"/>
   </g>
   <g id="patch_3">
    <path d="M 99.405899 495.840956 
L 99.405899 49.831226 
" style="fill: none; stroke: #cccccc; stroke-width: 1.25; stroke-linejoin: miter; stroke-linecap: square"/>
   </g>
   <g id="patch_4">
    <path d="M 694.08 495.840956 
L 694.08 49.831226 
" style="fill: none; stroke: #cccccc; stroke-width: 1.25; stroke-linejoin: miter; stroke-linecap: square"/>
   </g>
   <g id="patch_5">
    <path d="M 99.405899 495.840956 
L 694.08 495.840956 
" style="fill: none; stroke: #cccccc; stroke-width: 1.25; stroke-linejoin: miter; stroke-linecap: square"/>
   </g>
   <g id="patch_6">
    <path d="M 99.405899 49.831226 
L 694.08 49.831226 
" style="fill: none; stroke: #cccccc; stroke-width: 1.25; stroke-linejoin: miter; stroke-linecap: square"/>
   </g>
   <g id="text_19">
    <!-- Structural Similarity Index (SSIM) vs Epoch -->
    <g style="fill: #262626" transform="translate(189.809295 43.831226) scale(0.24 -0.24)">
     <defs>
      <path id="CMSS17-76" d="M 2675 2752 
L 2176 2752 
L 1747 1556 
C 1613 1165 1421 627 1389 352 
L 1382 352 
C 1370 468 1318 634 1286 749 
C 1248 890 1197 1056 1158 1172 
L 595 2752 
L 83 2752 
L 1094 0 
L 1664 0 
L 2675 2752 
z
" transform="scale(0.015625)"/>
      <path id="CMSS17-73" d="M 2061 2627 
C 1683 2807 1389 2807 1197 2807 
C 742 2807 198 2648 198 2003 
C 198 1359 902 1218 1094 1179 
C 1389 1122 1715 1058 1715 740 
C 1715 337 1254 337 1171 337 
C 915 337 563 407 243 638 
L 166 210 
C 531 0 883 -64 1178 -64 
C 1965 -64 2163 416 2163 781 
C 2163 1094 1984 1305 1862 1401 
C 1651 1568 1574 1587 1050 1696 
C 960 1709 646 1779 646 2066 
C 646 2432 1050 2432 1139 2432 
C 1555 2432 1811 2303 1984 2208 
L 2061 2627 
z
" transform="scale(0.015625)"/>
     </defs>
     <use xlink:href="#CMSS17-53" transform="scale(0.996264)"/>
     <use xlink:href="#CMSS17-74" transform="translate(52.048516 0) scale(0.996264)"/>
     <use xlink:href="#CMSS17-72" transform="translate(85.880083 0) scale(0.996264)"/>
     <use xlink:href="#CMSS17-75" transform="translate(117.789855 0) scale(0.996264)"/>
     <use xlink:href="#CMSS17-63" transform="translate(165.994799 0) scale(0.996264)"/>
     <use xlink:href="#CMSS17-74" transform="translate(207.633621 0) scale(0.996264)"/>
     <use xlink:href="#CMSS17-75" transform="translate(241.465187 0) scale(0.996264)"/>
     <use xlink:href="#CMSS17-72" transform="translate(289.67013 0) scale(0.996264)"/>
     <use xlink:href="#CMSS17-61" transform="translate(321.579903 0) scale(0.996264)"/>
     <use xlink:href="#CMSS17-6c" transform="translate(366.501824 0) scale(0.996264)"/>
     <use xlink:href="#CMSS17-53" transform="translate(419.911659 0) scale(0.996264)"/>
     <use xlink:href="#CMSS17-69" transform="translate(471.960176 0) scale(0.996264)"/>
     <use xlink:href="#CMSS17-6d" transform="translate(494.140899 0) scale(0.996264)"/>
     <use xlink:href="#CMSS17-69" transform="translate(568.370153 0) scale(0.996264)"/>
     <use xlink:href="#CMSS17-6c" transform="translate(590.550876 0) scale(0.996264)"/>
     <use xlink:href="#CMSS17-61" transform="translate(612.731599 0) scale(0.996264)"/>
     <use xlink:href="#CMSS17-72" transform="translate(655.051066 0) scale(0.996264)"/>
     <use xlink:href="#CMSS17-69" transform="translate(686.960838 0) scale(0.996264)"/>
     <use xlink:href="#CMSS17-74" transform="translate(709.141561 0) scale(0.996264)"/>
     <use xlink:href="#CMSS17-79" transform="translate(740.370674 0) scale(0.996264)"/>
     <use xlink:href="#CMSS17-49" transform="translate(814.599929 0) scale(0.996264)"/>
     <use xlink:href="#CMSS17-6e" transform="translate(840.383854 0) scale(0.996264)"/>
     <use xlink:href="#CMSS17-64" transform="translate(888.588797 0) scale(0.996264)"/>
     <use xlink:href="#CMSS17-65" transform="translate(936.79374 0) scale(0.996264)"/>
     <use xlink:href="#CMSS17-78" transform="translate(978.432562 0) scale(0.996264)"/>
     <use xlink:href="#CMSS17-28" transform="translate(1052.661817 0) scale(0.996264)"/>
     <use xlink:href="#CMSS17-53" transform="translate(1089.095731 0) scale(0.996264)"/>
     <use xlink:href="#CMSS17-53" transform="translate(1141.144247 0) scale(0.996264)"/>
     <use xlink:href="#CMSS17-49" transform="translate(1193.192763 0) scale(0.996264)"/>
     <use xlink:href="#CMSS17-4d" transform="translate(1218.976689 0) scale(0.996264)"/>
     <use xlink:href="#CMSS17-29" transform="translate(1300.652719 0) scale(0.996264)"/>
     <use xlink:href="#CMSS17-76" transform="translate(1368.315746 0) scale(0.996264)"/>
     <use xlink:href="#CMSS17-73" transform="translate(1411.315888 0) scale(0.996264)"/>
     <use xlink:href="#CMSS17-45" transform="translate(1478.458542 0) scale(0.996264)"/>
     <use xlink:href="#CMSS17-70" transform="translate(1534.350556 0) scale(0.996264)"/>
     <use xlink:href="#CMSS17-6f" transform="translate(1585.157937 0) scale(0.996264)"/>
     <use xlink:href="#CMSS17-63" transform="translate(1634.604 0) scale(0.996264)"/>
     <use xlink:href="#CMSS17-68" transform="translate(1676.242822 0) scale(0.996264)"/>
    </g>
   </g>
   <g id="legend_1">
    <g id="patch_7">
     <path d="M 467.093325 484.840956 
L 678.68 484.840956 
Q 683.08 484.840956 683.08 480.440956 
L 683.08 421.314581 
Q 683.08 416.914581 678.68 416.914581 
L 467.093325 416.914581 
Q 462.693325 416.914581 462.693325 421.314581 
L 462.693325 480.440956 
Q 462.693325 484.840956 467.093325 484.840956 
z
" style="fill: #ffffff; opacity: 0.8; stroke: #cccccc; stroke-linejoin: miter"/>
    </g>
    <g id="line2d_18">
     <path d="M 471.493325 433.414581 
L 493.493325 433.414581 
L 515.493325 433.414581 
" style="fill: none; stroke: #000000; stroke-width: 2; stroke-linecap: round"/>
    </g>
    <g id="text_20">
     <!-- Median -->
     <g style="fill: #262626" transform="translate(533.093325 441.114581) scale(0.22 -0.22)">
      <use xlink:href="#CMSS17-4d" transform="scale(0.996264)"/>
      <use xlink:href="#CMSS17-65" transform="translate(81.67603 0) scale(0.996264)"/>
      <use xlink:href="#CMSS17-64" transform="translate(123.314852 0) scale(0.996264)"/>
      <use xlink:href="#CMSS17-69" transform="translate(171.519795 0) scale(0.996264)"/>
      <use xlink:href="#CMSS17-61" transform="translate(193.700518 0) scale(0.996264)"/>
      <use xlink:href="#CMSS17-6e" transform="translate(238.622439 0) scale(0.996264)"/>
     </g>
    </g>
    <g id="patch_8">
     <path d="M 471.493325 471.777768 
L 515.493325 471.777768 
L 515.493325 456.377768 
L 471.493325 456.377768 
z
" style="fill: #4c72b0; fill-opacity: 0.3; stroke: #ffffff; stroke-opacity: 0.3; stroke-linejoin: miter"/>
    </g>
    <g id="text_21">
     <!-- MinMax Range -->
     <g style="fill: #262626" transform="translate(533.093325 471.777768) scale(0.22 -0.22)">
      <defs>
       <path id="CMSS17-7b" d="M 3002 1472 
L 3002 1861 
L 0 1861 
L 0 1472 
L 3002 1472 
z
" transform="scale(0.015625)"/>
       <path id="CMSS17-52" d="M 2522 2109 
L 2534 2115 
C 3533 2459 3539 3147 3539 3268 
C 3539 3873 2925 4453 2003 4453 
L 570 4453 
L 570 32 
L 1094 32 
L 1094 2048 
L 2035 2048 
L 3168 32 
L 3706 32 
L 2522 2109 
z
M 1094 2437 
L 1094 4096 
L 1933 4096 
C 2746 4096 3034 3637 3034 3267 
C 3034 2922 2778 2437 1933 2437 
L 1094 2437 
z
" transform="scale(0.015625)"/>
       <path id="CMSS17-67" d="M 2848 2808 
C 2483 2808 2170 2738 1914 2617 
C 1702 2777 1485 2808 1338 2808 
C 781 2808 358 2349 358 1814 
C 358 1468 550 1207 563 1195 
C 448 1035 384 863 384 672 
C 384 448 474 289 544 200 
C 211 -3 166 -314 166 -435 
C 166 -898 749 -1280 1498 -1280 
C 2253 -1280 2835 -898 2835 -428 
C 2835 448 1856 448 1587 448 
L 1069 448 
C 973 448 717 448 717 791 
C 717 921 774 1004 781 1010 
C 877 940 1075 832 1338 832 
C 1869 832 2310 1278 2310 1827 
C 2310 2132 2170 2355 2112 2432 
L 2131 2432 
C 2150 2432 2419 2432 2515 2432 
C 2720 2432 2739 2429 2918 2419 
L 2848 2808 
z
M 1338 1182 
C 1120 1182 813 1315 813 1823 
C 813 2375 1165 2464 1331 2464 
C 1549 2464 1856 2331 1856 1823 
C 1856 1271 1504 1182 1338 1182 
z
M 1581 -10 
C 1734 -10 2381 -10 2381 -442 
C 2381 -714 1984 -929 1504 -929 
C 1018 -929 621 -720 621 -435 
C 621 -403 621 -10 1062 -10 
L 1581 -10 
z
" transform="scale(0.015625)"/>
      </defs>
      <use xlink:href="#CMSS17-4d" transform="scale(0.996264)"/>
      <use xlink:href="#CMSS17-69" transform="translate(81.67603 0) scale(0.996264)"/>
      <use xlink:href="#CMSS17-6e" transform="translate(103.856753 0) scale(0.996264)"/>
      <use xlink:href="#CMSS17-7b" transform="translate(152.061696 0) scale(0.996264)"/>
      <use xlink:href="#CMSS17-4d" transform="translate(198.90532 0) scale(0.996264)"/>
      <use xlink:href="#CMSS17-61" transform="translate(280.58135 0) scale(0.996264)"/>
      <use xlink:href="#CMSS17-78" transform="translate(325.50327 0) scale(0.996264)"/>
      <use xlink:href="#CMSS17-52" transform="translate(399.732525 0) scale(0.996264)"/>
      <use xlink:href="#CMSS17-61" transform="translate(460.14868 0) scale(0.996264)"/>
      <use xlink:href="#CMSS17-6e" transform="translate(505.0706 0) scale(0.996264)"/>
      <use xlink:href="#CMSS17-67" transform="translate(553.275543 0) scale(0.996264)"/>
      <use xlink:href="#CMSS17-65" transform="translate(600.119167 0) scale(0.996264)"/>
     </g>
    </g>
   </g>
  </g>
 </g>
 <defs>
  <clipPath id="p4441e8912e">
   <rect x="99.405899" y="49.831226" width="594.674101" height="446.00973"/>
  </clipPath>
 </defs>
</svg>
