<?xml version="1.0" encoding="utf-8" standalone="no"?>
<!DOCTYPE svg PUBLIC "-//W3C//DTD SVG 1.1//EN"
  "http://www.w3.org/Graphics/SVG/1.1/DTD/svg11.dtd">
<svg xmlns:xlink="http://www.w3.org/1999/xlink" width="720pt" height="576pt" viewBox="0 0 720 576" xmlns="http://www.w3.org/2000/svg" version="1.1">
 <metadata>
  <rdf:RDF xmlns:dc="http://purl.org/dc/elements/1.1/" xmlns:cc="http://creativecommons.org/ns#" xmlns:rdf="http://www.w3.org/1999/02/22-rdf-syntax-ns#">
   <cc:Work>
    <dc:type rdf:resource="http://purl.org/dc/dcmitype/StillImage"/>
    <dc:date>2025-04-26T11:14:03.047499</dc:date>
    <dc:format>image/svg+xml</dc:format>
    <dc:creator>
     <cc:Agent>
      <dc:title>Matplotlib v3.9.2, https://matplotlib.org/</dc:title>
     </cc:Agent>
    </dc:creator>
   </cc:Work>
  </rdf:RDF>
 </metadata>
 <defs>
  <style type="text/css">*{stroke-linejoin: round; stroke-linecap: butt}</style>
 </defs>
 <g id="figure_1">
  <g id="patch_1">
   <path d="M 0 576 
L 720 576 
L 720 0 
L 0 0 
z
" style="fill: #ffffff"/>
  </g>
  <g id="axes_1">
   <g id="patch_2">
    <path d="M 76.24014 513.338305 
L 702.72 513.338305 
L 702.72 17.28 
L 76.24014 17.28 
z
" style="fill: #ffffff"/>
   </g>
   <g id="matplotlib.axis_1">
    <g id="xtick_1">
     <g id="line2d_1">
      <path d="M 104.716497 513.338305 
L 104.716497 17.28 
" clip-path="url(#p8bd6d29013)" style="fill: none; stroke: #cccccc; stroke-linecap: round"/>
     </g>
     <g id="text_1">
      <!-- $\mathdefault{0}$ -->
      <g style="fill: #262626" transform="translate(100.814503 533.907893) scale(0.16 -0.16)">
       <defs>
        <path id="CMR17-30" d="M 2688 2025 
C 2688 2416 2682 3080 2413 3591 
C 2176 4039 1798 4198 1466 4198 
C 1158 4198 768 4058 525 3597 
C 269 3118 243 2524 243 2025 
C 243 1661 250 1106 448 619 
C 723 -39 1216 -128 1466 -128 
C 1760 -128 2208 -7 2470 600 
C 2662 1042 2688 1559 2688 2025 
z
M 1466 -26 
C 1056 -26 813 325 723 812 
C 653 1188 653 1738 653 2096 
C 653 2588 653 2997 736 3387 
C 858 3929 1216 4096 1466 4096 
C 1728 4096 2067 3923 2189 3400 
C 2272 3036 2278 2607 2278 2096 
C 2278 1680 2278 1169 2202 792 
C 2067 95 1690 -26 1466 -26 
z
" transform="scale(0.015625)"/>
       </defs>
       <use xlink:href="#CMR17-30" transform="scale(0.996264)"/>
      </g>
     </g>
    </g>
    <g id="xtick_2">
     <g id="line2d_2">
      <path d="M 219.772486 513.338305 
L 219.772486 17.28 
" clip-path="url(#p8bd6d29013)" style="fill: none; stroke: #cccccc; stroke-linecap: round"/>
     </g>
     <g id="text_2">
      <!-- $\mathdefault{200}$ -->
      <g style="fill: #262626" transform="translate(208.066506 533.907893) scale(0.16 -0.16)">
       <defs>
        <path id="CMR17-32" d="M 2669 989 
L 2554 989 
C 2490 536 2438 459 2413 420 
C 2381 369 1920 369 1830 369 
L 602 369 
C 832 619 1280 1072 1824 1597 
C 2214 1967 2669 2402 2669 3035 
C 2669 3790 2067 4224 1395 4224 
C 691 4224 262 3604 262 3030 
C 262 2780 448 2748 525 2748 
C 589 2748 781 2787 781 3010 
C 781 3207 614 3264 525 3264 
C 486 3264 448 3258 422 3245 
C 544 3790 915 4058 1306 4058 
C 1862 4058 2227 3617 2227 3035 
C 2227 2479 1901 2000 1536 1584 
L 262 146 
L 262 0 
L 2515 0 
L 2669 989 
z
" transform="scale(0.015625)"/>
       </defs>
       <use xlink:href="#CMR17-32" transform="scale(0.996264)"/>
       <use xlink:href="#CMR17-30" transform="translate(45.690477 0) scale(0.996264)"/>
       <use xlink:href="#CMR17-30" transform="translate(91.380954 0) scale(0.996264)"/>
      </g>
     </g>
    </g>
    <g id="xtick_3">
     <g id="line2d_3">
      <path d="M 334.828475 513.338305 
L 334.828475 17.28 
" clip-path="url(#p8bd6d29013)" style="fill: none; stroke: #cccccc; stroke-linecap: round"/>
     </g>
     <g id="text_3">
      <!-- $\mathdefault{400}$ -->
      <g style="fill: #262626" transform="translate(323.122495 533.907893) scale(0.16 -0.16)">
       <defs>
        <path id="CMR17-34" d="M 2150 4122 
C 2150 4256 2144 4256 2029 4256 
L 128 1254 
L 128 1088 
L 1779 1088 
L 1779 457 
C 1779 224 1766 160 1318 160 
L 1197 160 
L 1197 0 
C 1402 0 1747 0 1965 0 
C 2182 0 2528 0 2733 0 
L 2733 160 
L 2611 160 
C 2163 160 2150 224 2150 457 
L 2150 1088 
L 2803 1088 
L 2803 1254 
L 2150 1254 
L 2150 4122 
z
M 1798 3703 
L 1798 1254 
L 256 1254 
L 1798 3703 
z
" transform="scale(0.015625)"/>
       </defs>
       <use xlink:href="#CMR17-34" transform="scale(0.996264)"/>
       <use xlink:href="#CMR17-30" transform="translate(45.690477 0) scale(0.996264)"/>
       <use xlink:href="#CMR17-30" transform="translate(91.380954 0) scale(0.996264)"/>
      </g>
     </g>
    </g>
    <g id="xtick_4">
     <g id="line2d_4">
      <path d="M 449.884464 513.338305 
L 449.884464 17.28 
" clip-path="url(#p8bd6d29013)" style="fill: none; stroke: #cccccc; stroke-linecap: round"/>
     </g>
     <g id="text_4">
      <!-- $\mathdefault{600}$ -->
      <g style="fill: #262626" transform="translate(438.178484 533.907893) scale(0.16 -0.16)">
       <defs>
        <path id="CMR17-36" d="M 678 2176 
C 678 3690 1395 4032 1811 4032 
C 1946 4032 2272 4009 2400 3776 
C 2298 3776 2106 3776 2106 3553 
C 2106 3381 2246 3323 2336 3323 
C 2394 3323 2566 3348 2566 3560 
C 2566 3954 2246 4179 1805 4179 
C 1043 4179 243 3390 243 1984 
C 243 253 966 -128 1478 -128 
C 2099 -128 2688 427 2688 1283 
C 2688 2081 2170 2662 1517 2662 
C 1126 2662 838 2407 678 1960 
L 678 2176 
z
M 1478 25 
C 691 25 691 1200 691 1436 
C 691 1896 909 2560 1504 2560 
C 1613 2560 1926 2560 2138 2120 
C 2253 1870 2253 1609 2253 1289 
C 2253 944 2253 690 2118 434 
C 1978 171 1773 25 1478 25 
z
" transform="scale(0.015625)"/>
       </defs>
       <use xlink:href="#CMR17-36" transform="scale(0.996264)"/>
       <use xlink:href="#CMR17-30" transform="translate(45.690477 0) scale(0.996264)"/>
       <use xlink:href="#CMR17-30" transform="translate(91.380954 0) scale(0.996264)"/>
      </g>
     </g>
    </g>
    <g id="xtick_5">
     <g id="line2d_5">
      <path d="M 564.940453 513.338305 
L 564.940453 17.28 
" clip-path="url(#p8bd6d29013)" style="fill: none; stroke: #cccccc; stroke-linecap: round"/>
     </g>
     <g id="text_5">
      <!-- $\mathdefault{800}$ -->
      <g style="fill: #262626" transform="translate(553.234473 533.907893) scale(0.16 -0.16)">
       <defs>
        <path id="CMR17-38" d="M 1741 2264 
C 2144 2467 2554 2773 2554 3263 
C 2554 3841 1990 4179 1472 4179 
C 890 4179 378 3759 378 3180 
C 378 3021 416 2747 666 2505 
C 730 2442 998 2251 1171 2130 
C 883 1983 211 1634 211 934 
C 211 279 838 -128 1459 -128 
C 2144 -128 2720 362 2720 1010 
C 2720 1590 2330 1857 2074 2029 
L 1741 2264 
z
M 902 2822 
C 851 2854 595 3051 595 3351 
C 595 3739 998 4032 1459 4032 
C 1965 4032 2336 3676 2336 3262 
C 2336 2669 1670 2331 1638 2331 
C 1632 2331 1626 2331 1574 2370 
L 902 2822 
z
M 2080 1519 
C 2176 1449 2483 1240 2483 851 
C 2483 381 2010 25 1472 25 
C 890 25 448 438 448 940 
C 448 1443 838 1862 1280 2060 
L 2080 1519 
z
" transform="scale(0.015625)"/>
       </defs>
       <use xlink:href="#CMR17-38" transform="scale(0.996264)"/>
       <use xlink:href="#CMR17-30" transform="translate(45.690477 0) scale(0.996264)"/>
       <use xlink:href="#CMR17-30" transform="translate(91.380954 0) scale(0.996264)"/>
      </g>
     </g>
    </g>
    <g id="xtick_6">
     <g id="line2d_6">
      <path d="M 679.996442 513.338305 
L 679.996442 17.28 
" clip-path="url(#p8bd6d29013)" style="fill: none; stroke: #cccccc; stroke-linecap: round"/>
     </g>
     <g id="text_6">
      <!-- $\mathdefault{1000}$ -->
      <g style="fill: #262626" transform="translate(664.388468 533.907893) scale(0.16 -0.16)">
       <defs>
        <path id="CMR17-31" d="M 1702 4058 
C 1702 4192 1696 4192 1606 4192 
C 1357 3916 979 3827 621 3827 
C 602 3827 570 3827 563 3808 
C 557 3795 557 3782 557 3648 
C 755 3648 1088 3686 1344 3839 
L 1344 461 
C 1344 236 1331 160 781 160 
L 589 160 
L 589 0 
C 896 0 1216 0 1523 0 
C 1830 0 2150 0 2458 0 
L 2458 160 
L 2266 160 
C 1715 160 1702 230 1702 458 
L 1702 4058 
z
" transform="scale(0.015625)"/>
       </defs>
       <use xlink:href="#CMR17-31" transform="scale(0.996264)"/>
       <use xlink:href="#CMR17-30" transform="translate(45.690477 0) scale(0.996264)"/>
       <use xlink:href="#CMR17-30" transform="translate(91.380954 0) scale(0.996264)"/>
       <use xlink:href="#CMR17-30" transform="translate(137.071431 0) scale(0.996264)"/>
      </g>
     </g>
    </g>
    <g id="text_7">
     <!-- Step -->
     <g style="fill: #262626" transform="translate(371.724365 554.844366) scale(0.2 -0.2)">
      <defs>
       <path id="CMR17-53" d="M 2803 4290 
C 2803 4404 2797 4411 2758 4411 
C 2720 4411 2707 4385 2682 4328 
L 2490 3907 
C 2246 4257 1875 4416 1472 4416 
C 819 4416 294 3901 294 3253 
C 294 3056 339 2776 557 2510 
C 794 2218 1018 2167 1530 2033 
C 1722 1982 2042 1899 2106 1874 
C 2470 1722 2662 1341 2662 985 
C 2662 527 2336 38 1779 38 
C 1094 38 454 419 410 1311 
C 403 1413 397 1419 352 1419 
C 301 1419 294 1413 294 1285 
L 294 -1 
C 294 -115 301 -122 339 -122 
C 384 -122 397 -90 486 108 
C 493 127 493 140 614 381 
C 934 -39 1472 -128 1779 -128 
C 2477 -128 2970 451 2970 1124 
C 2970 1454 2848 1708 2778 1823 
C 2509 2230 2221 2306 1914 2382 
C 1869 2402 1856 2402 1498 2490 
C 1152 2579 1005 2624 845 2796 
C 666 2992 602 3196 602 3399 
C 602 3812 934 4263 1478 4263 
C 2157 4263 2579 3786 2675 2993 
C 2694 2878 2701 2872 2746 2872 
C 2803 2872 2803 2891 2803 2999 
L 2803 4290 
z
" transform="scale(0.015625)"/>
       <path id="CMR17-74" d="M 966 2560 
L 1862 2560 
L 1862 2725 
L 966 2725 
L 966 3904 
L 851 3904 
C 838 3245 614 2668 70 2668 
L 70 2560 
L 627 2560 
L 627 771 
C 627 650 627 -64 1370 -64 
C 1747 -64 1965 306 1965 777 
L 1965 1140 
L 1850 1140 
L 1850 783 
C 1850 344 1677 51 1408 51 
C 1222 51 966 178 966 758 
L 966 2560 
z
" transform="scale(0.015625)"/>
       <path id="CMR17-65" d="M 2438 1472 
C 2464 1498 2464 1511 2464 1576 
C 2464 2238 2118 2816 1389 2816 
C 710 2816 173 2169 173 1383 
C 173 551 781 -64 1459 -64 
C 2176 -64 2458 607 2458 740 
C 2458 784 2419 784 2406 784 
C 2362 784 2355 771 2330 696 
C 2189 265 1837 51 1504 51 
C 1229 51 954 203 781 480 
C 582 803 582 1176 582 1472 
L 2438 1472 
z
M 589 1568 
C 634 2505 1126 2714 1382 2714 
C 1818 2714 2112 2297 2118 1568 
L 589 1568 
z
" transform="scale(0.015625)"/>
       <path id="CMR17-70" d="M 1408 -1063 
C 998 -1063 973 -1037 973 -789 
L 973 402 
C 1158 134 1427 -38 1766 -38 
C 2406 -38 3053 523 3053 1388 
C 3053 2191 2496 2802 1837 2802 
C 1453 2802 1139 2592 960 2338 
L 960 2802 
L 198 2732 
L 198 2567 
C 576 2567 634 2528 634 2223 
L 634 -789 
C 634 -1031 608 -1063 198 -1063 
L 198 -1228 
C 352 -1216 634 -1216 800 -1216 
C 966 -1216 1254 -1216 1408 -1228 
L 1408 -1063 
z
M 973 2012 
C 973 2102 973 2235 1222 2471 
C 1254 2497 1472 2688 1792 2688 
C 2259 2688 2643 2108 2643 1382 
C 2643 656 2234 64 1728 64 
C 1498 64 1248 172 1056 472 
C 973 612 973 650 973 752 
L 973 2012 
z
" transform="scale(0.015625)"/>
      </defs>
      <use xlink:href="#CMR17-53" transform="scale(0.996264)"/>
      <use xlink:href="#CMR17-74" transform="translate(50.89537 0) scale(0.996264)"/>
      <use xlink:href="#CMR17-65" transform="translate(86.176138 0) scale(0.996264)"/>
      <use xlink:href="#CMR17-70" transform="translate(126.661798 0) scale(0.996264)"/>
     </g>
    </g>
   </g>
   <g id="matplotlib.axis_2">
    <g id="ytick_1">
     <g id="line2d_7">
      <path d="M 76.24014 470.735396 
L 702.72 470.735396 
" clip-path="url(#p8bd6d29013)" style="fill: none; stroke: #cccccc; stroke-linecap: round"/>
     </g>
     <g id="text_8">
      <!-- $\mathdefault{0.05}$ -->
      <g style="fill: #262626" transform="translate(38.99263 476.27019) scale(0.16 -0.16)">
       <defs>
        <path id="CMMI12-3a" d="M 1178 307 
C 1178 492 1024 619 870 619 
C 685 619 557 466 557 313 
C 557 128 710 0 864 0 
C 1050 0 1178 153 1178 307 
z
" transform="scale(0.015625)"/>
        <path id="CMR17-35" d="M 730 3692 
C 794 3666 1056 3584 1325 3584 
C 1920 3584 2246 3911 2432 4100 
C 2432 4157 2432 4192 2394 4192 
C 2387 4192 2374 4192 2323 4163 
C 2099 4058 1837 3973 1517 3973 
C 1325 3973 1037 3999 723 4139 
C 653 4171 640 4171 634 4171 
C 602 4171 595 4164 595 4037 
L 595 2203 
C 595 2089 595 2057 659 2057 
C 691 2057 704 2070 736 2114 
C 941 2401 1222 2522 1542 2522 
C 1766 2522 2246 2382 2246 1289 
C 2246 1085 2246 715 2054 421 
C 1894 159 1645 25 1370 25 
C 947 25 518 320 403 814 
C 429 807 480 795 506 795 
C 589 795 749 840 749 1038 
C 749 1210 627 1280 506 1280 
C 358 1280 262 1190 262 1011 
C 262 454 704 -128 1382 -128 
C 2042 -128 2669 440 2669 1264 
C 2669 2030 2170 2624 1549 2624 
C 1222 2624 947 2503 730 2274 
L 730 3692 
z
" transform="scale(0.015625)"/>
       </defs>
       <use xlink:href="#CMR17-30" transform="scale(0.996264)"/>
       <use xlink:href="#CMMI12-3a" transform="translate(45.690477 0) scale(0.996264)"/>
       <use xlink:href="#CMR17-30" transform="translate(72.787654 0) scale(0.996264)"/>
       <use xlink:href="#CMR17-35" transform="translate(118.478131 0) scale(0.996264)"/>
      </g>
     </g>
    </g>
    <g id="ytick_2">
     <g id="line2d_8">
      <path d="M 76.24014 402.982677 
L 702.72 402.982677 
" clip-path="url(#p8bd6d29013)" style="fill: none; stroke: #cccccc; stroke-linecap: round"/>
     </g>
     <g id="text_9">
      <!-- $\mathdefault{0.10}$ -->
      <g style="fill: #262626" transform="translate(38.99263 408.517471) scale(0.16 -0.16)">
       <use xlink:href="#CMR17-30" transform="scale(0.996264)"/>
       <use xlink:href="#CMMI12-3a" transform="translate(45.690477 0) scale(0.996264)"/>
       <use xlink:href="#CMR17-31" transform="translate(72.787654 0) scale(0.996264)"/>
       <use xlink:href="#CMR17-30" transform="translate(118.478131 0) scale(0.996264)"/>
      </g>
     </g>
    </g>
    <g id="ytick_3">
     <g id="line2d_9">
      <path d="M 76.24014 335.229958 
L 702.72 335.229958 
" clip-path="url(#p8bd6d29013)" style="fill: none; stroke: #cccccc; stroke-linecap: round"/>
     </g>
     <g id="text_10">
      <!-- $\mathdefault{0.15}$ -->
      <g style="fill: #262626" transform="translate(38.99263 340.764752) scale(0.16 -0.16)">
       <use xlink:href="#CMR17-30" transform="scale(0.996264)"/>
       <use xlink:href="#CMMI12-3a" transform="translate(45.690477 0) scale(0.996264)"/>
       <use xlink:href="#CMR17-31" transform="translate(72.787654 0) scale(0.996264)"/>
       <use xlink:href="#CMR17-35" transform="translate(118.478131 0) scale(0.996264)"/>
      </g>
     </g>
    </g>
    <g id="ytick_4">
     <g id="line2d_10">
      <path d="M 76.24014 267.47724 
L 702.72 267.47724 
" clip-path="url(#p8bd6d29013)" style="fill: none; stroke: #cccccc; stroke-linecap: round"/>
     </g>
     <g id="text_11">
      <!-- $\mathdefault{0.20}$ -->
      <g style="fill: #262626" transform="translate(38.99263 273.012034) scale(0.16 -0.16)">
       <use xlink:href="#CMR17-30" transform="scale(0.996264)"/>
       <use xlink:href="#CMMI12-3a" transform="translate(45.690477 0) scale(0.996264)"/>
       <use xlink:href="#CMR17-32" transform="translate(72.787654 0) scale(0.996264)"/>
       <use xlink:href="#CMR17-30" transform="translate(118.478131 0) scale(0.996264)"/>
      </g>
     </g>
    </g>
    <g id="ytick_5">
     <g id="line2d_11">
      <path d="M 76.24014 199.724521 
L 702.72 199.724521 
" clip-path="url(#p8bd6d29013)" style="fill: none; stroke: #cccccc; stroke-linecap: round"/>
     </g>
     <g id="text_12">
      <!-- $\mathdefault{0.25}$ -->
      <g style="fill: #262626" transform="translate(38.99263 205.259315) scale(0.16 -0.16)">
       <use xlink:href="#CMR17-30" transform="scale(0.996264)"/>
       <use xlink:href="#CMMI12-3a" transform="translate(45.690477 0) scale(0.996264)"/>
       <use xlink:href="#CMR17-32" transform="translate(72.787654 0) scale(0.996264)"/>
       <use xlink:href="#CMR17-35" transform="translate(118.478131 0) scale(0.996264)"/>
      </g>
     </g>
    </g>
    <g id="ytick_6">
     <g id="line2d_12">
      <path d="M 76.24014 131.971802 
L 702.72 131.971802 
" clip-path="url(#p8bd6d29013)" style="fill: none; stroke: #cccccc; stroke-linecap: round"/>
     </g>
     <g id="text_13">
      <!-- $\mathdefault{0.30}$ -->
      <g style="fill: #262626" transform="translate(38.99263 137.506596) scale(0.16 -0.16)">
       <defs>
        <path id="CMR17-33" d="M 1414 2157 
C 1984 2157 2234 1662 2234 1090 
C 2234 320 1824 25 1453 25 
C 1114 25 563 194 390 693 
C 422 680 454 680 486 680 
C 640 680 755 782 755 948 
C 755 1133 614 1216 486 1216 
C 378 1216 211 1165 211 926 
C 211 335 787 -128 1466 -128 
C 2176 -128 2720 430 2720 1085 
C 2720 1707 2208 2157 1600 2227 
C 2086 2328 2554 2756 2554 3329 
C 2554 3820 2048 4179 1472 4179 
C 890 4179 378 3829 378 3329 
C 378 3110 544 3072 627 3072 
C 762 3072 877 3155 877 3321 
C 877 3486 762 3569 627 3569 
C 602 3569 570 3569 544 3557 
C 730 3959 1235 4032 1459 4032 
C 1683 4032 2106 3925 2106 3320 
C 2106 3143 2080 2828 1862 2550 
C 1670 2304 1453 2304 1242 2284 
C 1210 2284 1062 2269 1037 2269 
C 992 2263 966 2257 966 2208 
C 966 2163 973 2157 1101 2157 
L 1414 2157 
z
" transform="scale(0.015625)"/>
       </defs>
       <use xlink:href="#CMR17-30" transform="scale(0.996264)"/>
       <use xlink:href="#CMMI12-3a" transform="translate(45.690477 0) scale(0.996264)"/>
       <use xlink:href="#CMR17-33" transform="translate(72.787654 0) scale(0.996264)"/>
       <use xlink:href="#CMR17-30" transform="translate(118.478131 0) scale(0.996264)"/>
      </g>
     </g>
    </g>
    <g id="ytick_7">
     <g id="line2d_13">
      <path d="M 76.24014 64.219084 
L 702.72 64.219084 
" clip-path="url(#p8bd6d29013)" style="fill: none; stroke: #cccccc; stroke-linecap: round"/>
     </g>
     <g id="text_14">
      <!-- $\mathdefault{0.35}$ -->
      <g style="fill: #262626" transform="translate(38.99263 69.753878) scale(0.16 -0.16)">
       <use xlink:href="#CMR17-30" transform="scale(0.996264)"/>
       <use xlink:href="#CMMI12-3a" transform="translate(45.690477 0) scale(0.996264)"/>
       <use xlink:href="#CMR17-33" transform="translate(72.787654 0) scale(0.996264)"/>
       <use xlink:href="#CMR17-35" transform="translate(118.478131 0) scale(0.996264)"/>
      </g>
     </g>
    </g>
    <g id="text_15">
     <!-- MSE -->
     <g style="fill: #262626" transform="translate(31.116997 285.126006) rotate(-90) scale(0.2 -0.2)">
      <defs>
       <path id="CMR17-4d" d="M 1338 4224 
C 1299 4320 1293 4320 1158 4320 
L 339 4320 
L 339 4160 
C 781 4160 851 4160 851 3875 
L 851 610 
C 851 451 851 153 339 153 
L 339 -13 
C 486 0 755 0 915 0 
C 1075 0 1344 0 1491 -13 
L 1491 153 
C 979 153 979 451 979 610 
L 979 4135 
L 986 4135 
L 2490 89 
C 2515 25 2528 -13 2579 -13 
C 2630 -13 2643 25 2669 89 
L 4186 4166 
L 4192 4166 
L 4192 438 
C 4192 153 4122 153 3680 153 
L 3680 -13 
C 3853 0 4198 0 4384 0 
C 4570 0 4922 0 5094 -13 
L 5094 153 
C 4653 153 4582 153 4582 438 
L 4582 3875 
C 4582 4160 4653 4160 5094 4160 
L 5094 4320 
L 4282 4320 
C 4147 4320 4141 4314 4102 4218 
L 2720 502 
L 1338 4224 
z
" transform="scale(0.015625)"/>
       <path id="CMR17-45" d="M 3885 1615 
L 3770 1615 
C 3629 676 3546 166 2419 166 
L 1530 166 
C 1274 166 1261 197 1261 414 
L 1261 2176 
L 1862 2176 
C 2464 2176 2522 1960 2522 1430 
L 2637 1430 
L 2637 3081 
L 2522 3081 
C 2522 2557 2464 2342 1862 2342 
L 1261 2342 
L 1261 3913 
C 1261 4128 1274 4160 1530 4160 
L 2406 4160 
C 3398 4160 3514 3769 3603 2929 
L 3718 2929 
L 3565 4325 
L 326 4325 
L 326 4160 
C 768 4160 838 4160 838 3874 
L 838 451 
C 838 166 768 166 326 166 
L 326 0 
L 3654 0 
L 3885 1615 
z
" transform="scale(0.015625)"/>
      </defs>
      <use xlink:href="#CMR17-4d" transform="scale(0.996264)"/>
      <use xlink:href="#CMR17-53" transform="translate(84.686941 0) scale(0.996264)"/>
      <use xlink:href="#CMR17-45" transform="translate(135.58231 0) scale(0.996264)"/>
     </g>
    </g>
   </g>
   <g id="PolyCollection_1">
    <defs>
     <path id="mf43257563c" d="M 104.716497 -220.715237 
L 104.716497 -176.811475 
L 110.469296 -160.008801 
L 116.222096 -153.098024 
L 121.974895 -153.233529 
L 127.727695 -142.257589 
L 133.480494 -135.346811 
L 139.233294 -135.617822 
L 144.986093 -135.075801 
L 150.738893 -136.024339 
L 156.491692 -133.585241 
L 162.244492 -134.398273 
L 167.997291 -130.468616 
L 173.75009 -128.165023 
L 179.50289 -123.964355 
L 185.255689 -121.118741 
L 191.008489 -123.422333 
L 196.761288 -123.422333 
L 202.514088 -123.422333 
L 208.266887 -123.015817 
L 214.019687 -121.660762 
L 219.772486 -110.549316 
L 225.525285 -115.969534 
L 231.278085 -115.834028 
L 237.030884 -115.969534 
L 242.783684 -116.105039 
L 248.536483 -119.763686 
L 254.289283 -120.034697 
L 260.042082 -118.679643 
L 265.794882 -128.300529 
L 271.547681 -124.09986 
L 277.300481 -122.202784 
L 283.05328 -123.151322 
L 288.806079 -126.945474 
L 294.558879 -108.110219 
L 300.311678 -108.923251 
L 306.064478 -111.091338 
L 311.817277 -108.381229 
L 317.570077 -111.497854 
L 323.322876 -102.961012 
L 329.075676 -102.41899 
L 334.828475 -103.774045 
L 340.581275 -99.844387 
L 346.334074 -102.825507 
L 352.086873 -103.638539 
L 357.839673 -103.90955 
L 363.592472 -104.993594 
L 369.345272 -106.213142 
L 375.098071 -105.671121 
L 380.850871 -105.535615 
L 386.60367 -102.690001 
L 392.35647 -444.163703 
L 398.109269 -390.910066 
L 403.862068 -415.572056 
L 409.614868 -380.340642 
L 415.367667 -371.126273 
L 421.120467 -352.562028 
L 426.873266 -334.133288 
L 432.626066 -326.409478 
L 438.378865 -313.536462 
L 444.131665 -304.728608 
L 449.884464 -282.370211 
L 455.637264 -282.234706 
L 461.390063 -285.757847 
L 467.142862 -287.790429 
L 472.895662 -283.996276 
L 478.648461 -271.258765 
L 484.401261 -270.174722 
L 490.15406 -269.361689 
L 495.90686 -262.044395 
L 501.659659 -280.879651 
L 507.412459 -264.076977 
L 513.165258 -232.097694 
L 518.918058 -248.629357 
L 524.670857 -237.788922 
L 530.423656 -234.672297 
L 536.176456 -238.330944 
L 541.929255 -249.171379 
L 547.682055 -227.490509 
L 553.434854 -223.018829 
L 559.187654 -243.751161 
L 564.940453 -241.312063 
L 570.693253 -240.770042 
L 576.446052 -246.732281 
L 582.198851 -260.282825 
L 587.951651 -260.41833 
L 593.70445 -262.450912 
L 599.45725 -228.439047 
L 605.210049 -232.775221 
L 610.962849 -239.414987 
L 616.715648 -260.41833 
L 622.468448 -253.507553 
L 628.221247 -249.44239 
L 633.974047 -250.797444 
L 639.726846 -244.835205 
L 645.479645 -251.068455 
L 651.232445 -223.696357 
L 656.985244 -222.476808 
L 662.738044 -217.734117 
L 668.490843 -219.902204 
L 674.243643 -222.070291 
L 674.243643 -511.780916 
L 674.243643 -511.780916 
L 668.490843 -520.317759 
L 662.738044 -519.911243 
L 656.985244 -517.878661 
L 651.232445 -517.878661 
L 645.479645 -517.743156 
L 639.726846 -520.724275 
L 633.974047 -513.406982 
L 628.221247 -503.515085 
L 622.468448 -500.669471 
L 616.715648 -499.856438 
L 610.962849 -481.698709 
L 605.210049 -461.372894 
L 599.45725 -453.784589 
L 593.70445 -453.242568 
L 587.951651 -480.343655 
L 582.198851 -478.988601 
L 576.446052 -480.343655 
L 570.693253 -481.834215 
L 564.940453 -478.582084 
L 559.187654 -523.163373 
L 553.434854 -498.9079 
L 547.682055 -500.262954 
L 541.929255 -501.618009 
L 536.176456 -500.127449 
L 530.423656 -516.659112 
L 524.670857 -532.784259 
L 518.918058 -504.328117 
L 513.165258 -504.328117 
L 507.412459 -504.328117 
L 501.659659 -504.328117 
L 495.90686 -504.328117 
L 490.15406 -504.328117 
L 484.401261 -504.192612 
L 478.648461 -504.192612 
L 472.895662 -505.412161 
L 467.142862 -511.238895 
L 461.390063 -511.916422 
L 455.637264 -511.916422 
L 449.884464 -512.051927 
L 444.131665 -514.084509 
L 438.378865 -513.677993 
L 432.626066 -514.220014 
L 426.873266 -513.949003 
L 421.120467 -514.084509 
L 415.367667 -514.897542 
L 409.614868 -514.491025 
L 403.862068 -515.168552 
L 398.109269 -522.214835 
L 392.35647 -519.369221 
L 386.60367 -187.922921 
L 380.850871 -186.838878 
L 375.098071 -194.020666 
L 369.345272 -194.562688 
L 363.592472 -194.562688 
L 357.839673 -194.427182 
L 352.086873 -194.156171 
L 346.334074 -194.156171 
L 340.581275 -188.600448 
L 334.828475 -197.137291 
L 329.075676 -197.408302 
L 323.322876 -192.12359 
L 317.570077 -185.754834 
L 311.817277 -185.619329 
L 306.064478 -185.89034 
L 300.311678 -185.89034 
L 294.558879 -186.025845 
L 288.806079 -200.931443 
L 283.05328 -188.193932 
L 277.300481 -187.922921 
L 271.547681 -189.955503 
L 265.794882 -186.838878 
L 260.042082 -190.904041 
L 254.289283 -190.904041 
L 248.536483 -190.226514 
L 242.783684 -204.996606 
L 237.030884 -186.296856 
L 231.278085 -186.432361 
L 225.525285 -186.432361 
L 219.772486 -188.329437 
L 214.019687 -189.14247 
L 208.266887 -189.14247 
L 202.514088 -189.684492 
L 196.761288 -190.497524 
L 191.008489 -191.310557 
L 185.255689 -190.63303 
L 179.50289 -195.646731 
L 173.75009 -191.310557 
L 167.997291 -192.530106 
L 162.244492 -194.427182 
L 156.491692 -192.936622 
L 150.738893 -193.61415 
L 144.986093 -192.665611 
L 139.233294 -193.478644 
L 133.480494 -193.61415 
L 127.727695 -196.730775 
L 121.974895 -197.137291 
L 116.222096 -197.408302 
L 110.469296 -197.950324 
L 104.716497 -220.715237 
z
" style="stroke: #ffffff; stroke-opacity: 0.2"/>
    </defs>
    <g clip-path="url(#p8bd6d29013)">
     <use xlink:href="#mf43257563c" x="0" y="576" style="fill: #4c72b0; fill-opacity: 0.2; stroke: #ffffff; stroke-opacity: 0.2"/>
    </g>
   </g>
   <g id="PolyCollection_2">
    <defs>
     <path id="mb5d8d62d89" d="M 104.716497 -233.859264 
L 104.716497 -188.193932 
L 110.469296 -154.859594 
L 116.222096 -152.827013 
L 121.974895 -144.29017 
L 127.727695 -135.075801 
L 133.480494 -130.468616 
L 139.233294 -128.436034 
L 144.986093 -127.758507 
L 150.738893 -129.655583 
L 156.491692 -124.912893 
L 162.244492 -114.61448 
L 167.997291 -106.755164 
L 173.75009 -107.297186 
L 179.50289 -107.839208 
L 185.255689 -109.465273 
L 191.008489 -109.465273 
L 196.761288 -105.535615 
L 202.514088 -105.129099 
L 208.266887 -104.045055 
L 214.019687 -104.316066 
L 219.772486 -112.039876 
L 225.525285 -112.039876 
L 231.278085 -116.782567 
L 237.030884 -115.292007 
L 242.783684 -116.647061 
L 248.536483 -116.105039 
L 254.289283 -115.427512 
L 260.042082 -117.324588 
L 265.794882 -117.324588 
L 271.547681 -116.240545 
L 277.300481 -110.007295 
L 283.05328 -116.782567 
L 288.806079 -100.250903 
L 294.558879 -99.437871 
L 300.311678 -99.437871 
L 306.064478 -115.427512 
L 311.817277 -97.405289 
L 317.570077 -100.65742 
L 323.322876 -91.985072 
L 329.075676 -90.223501 
L 334.828475 -98.082816 
L 340.581275 -85.2098 
L 346.334074 -92.391588 
L 352.086873 -92.256082 
L 357.839673 -92.93361 
L 363.592472 -94.153159 
L 369.345272 -99.16686 
L 375.098071 -97.947311 
L 380.850871 -96.998773 
L 386.60367 -98.082816 
L 392.35647 -445.518758 
L 398.109269 -407.170719 
L 403.862068 -379.392104 
L 409.614868 -362.58943 
L 415.367667 -340.095527 
L 421.120467 -332.913739 
L 426.873266 -326.138467 
L 432.626066 -321.124766 
L 438.378865 -320.989261 
L 444.131665 -321.531282 
L 449.884464 -320.311733 
L 455.637264 -314.078483 
L 461.390063 -310.148826 
L 467.142862 -302.154005 
L 472.895662 -290.907054 
L 478.648461 -274.510896 
L 484.401261 -275.188423 
L 490.15406 -274.104379 
L 495.90686 -265.703042 
L 501.659659 -265.432031 
L 507.412459 -230.742639 
L 513.165258 -225.593433 
L 518.918058 -227.083993 
L 524.670857 -236.569373 
L 530.423656 -241.312063 
L 536.176456 -239.008471 
L 541.929255 -236.433868 
L 547.682055 -234.536792 
L 553.434854 -234.401286 
L 559.187654 -238.73746 
L 564.940453 -233.99477 
L 570.693253 -238.466449 
L 576.446052 -236.97589 
L 582.198851 -237.111395 
L 587.951651 -234.943308 
L 593.70445 -224.915906 
L 599.45725 -232.910726 
L 605.210049 -234.536792 
L 610.962849 -230.471629 
L 616.715648 -240.092515 
L 622.468448 -233.588254 
L 628.221247 -222.476808 
L 633.974047 -227.355003 
L 639.726846 -235.620835 
L 645.479645 -233.181737 
L 651.232445 -237.517911 
L 656.985244 -274.104379 
L 662.738044 -272.749325 
L 668.490843 -264.483493 
L 674.243643 -264.618999 
L 674.243643 -502.973063 
L 674.243643 -502.973063 
L 668.490843 -516.794618 
L 662.738044 -504.192612 
L 656.985244 -505.14115 
L 651.232445 -505.412161 
L 645.479645 -503.65059 
L 639.726846 -503.108569 
L 633.974047 -502.973063 
L 628.221247 -502.973063 
L 622.468448 -501.88902 
L 616.715648 -500.39846 
L 610.962849 -498.365878 
L 605.210049 -495.791275 
L 599.45725 -496.197791 
L 593.70445 -494.16521 
L 587.951651 -505.683172 
L 582.198851 -495.249253 
L 576.446052 -495.655769 
L 570.693253 -494.029704 
L 564.940453 -499.178911 
L 559.187654 -505.276656 
L 553.434854 -508.935302 
L 547.682055 -515.168552 
L 541.929255 -515.981585 
L 536.176456 -511.780916 
L 530.423656 -511.645411 
L 524.670857 -511.103389 
L 518.918058 -511.238895 
L 513.165258 -510.425862 
L 507.412459 -511.509906 
L 501.659659 -512.322938 
L 495.90686 -513.813498 
L 490.15406 -513.677993 
L 484.401261 -520.046748 
L 478.648461 -515.033047 
L 472.895662 -514.626531 
L 467.142862 -514.220014 
L 461.390063 -513.542487 
L 455.637264 -513.677993 
L 449.884464 -513.542487 
L 444.131665 -513.542487 
L 438.378865 -513.542487 
L 432.626066 -513.949003 
L 426.873266 -514.220014 
L 421.120467 -514.626531 
L 415.367667 -513.949003 
L 409.614868 -512.729455 
L 403.862068 -513.000465 
L 398.109269 -515.575069 
L 392.35647 -516.794618 
L 386.60367 -184.806296 
L 380.850871 -188.600448 
L 375.098071 -212.178394 
L 369.345272 -199.169872 
L 363.592472 -192.665611 
L 357.839673 -193.88516 
L 352.086873 -184.264274 
L 346.334074 -184.39978 
L 340.581275 -194.020666 
L 334.828475 -199.440883 
L 329.075676 -185.754834 
L 323.322876 -194.427182 
L 317.570077 -186.974383 
L 311.817277 -186.974383 
L 306.064478 -187.65191 
L 300.311678 -186.974383 
L 294.558879 -187.787416 
L 288.806079 -189.548986 
L 283.05328 -189.277976 
L 277.300481 -189.277976 
L 271.547681 -189.277976 
L 265.794882 -189.277976 
L 260.042082 -189.277976 
L 254.289283 -194.291677 
L 248.536483 -194.698193 
L 242.783684 -195.646731 
L 237.030884 -196.595269 
L 231.278085 -188.193932 
L 225.525285 -200.253916 
L 219.772486 -186.296856 
L 214.019687 -185.89034 
L 208.266887 -186.16135 
L 202.514088 -186.296856 
L 196.761288 -186.703372 
L 191.008489 -186.703372 
L 185.255689 -186.703372 
L 179.50289 -186.703372 
L 173.75009 -186.838878 
L 167.997291 -186.838878 
L 162.244492 -194.833698 
L 156.491692 -190.768535 
L 150.738893 -191.175052 
L 144.986093 -190.63303 
L 139.233294 -190.63303 
L 133.480494 -191.039546 
L 127.727695 -192.12359 
L 121.974895 -193.749655 
L 116.222096 -197.001785 
L 110.469296 -205.267617 
L 104.716497 -233.859264 
z
" style="stroke: #ffffff; stroke-opacity: 0.2"/>
    </defs>
    <g clip-path="url(#p8bd6d29013)">
     <use xlink:href="#mb5d8d62d89" x="0" y="576" style="fill: #dd8452; fill-opacity: 0.2; stroke: #ffffff; stroke-opacity: 0.2"/>
    </g>
   </g>
   <g id="PolyCollection_3">
    <defs>
     <path id="meb1821e7e6" d="M 104.716497 -214.481987 
L 104.716497 -189.413481 
L 110.469296 -185.348318 
L 116.222096 -160.144307 
L 121.974895 -157.840714 
L 127.727695 -153.640046 
L 133.480494 -149.439377 
L 139.233294 -146.729268 
L 144.986093 -143.070621 
L 150.738893 -136.56636 
L 156.491692 -136.29535 
L 162.244492 -136.024339 
L 167.997291 -135.075801 
L 173.75009 -131.281648 
L 179.50289 -129.249067 
L 185.255689 -130.33311 
L 191.008489 -128.707045 
L 196.761288 -129.655583 
L 202.514088 -134.127263 
L 208.266887 -130.875132 
L 214.019687 -128.84255 
L 219.772486 -130.468616 
L 225.525285 -130.062099 
L 231.278085 -129.791089 
L 237.030884 -124.912893 
L 242.783684 -121.796268 
L 248.536483 -123.557838 
L 254.289283 -124.370871 
L 260.042082 -122.880311 
L 265.794882 -116.511556 
L 271.547681 -115.834028 
L 277.300481 -118.002115 
L 283.05328 -120.84773 
L 288.806079 -123.015817 
L 294.558879 -123.828849 
L 300.311678 -123.015817 
L 306.064478 -120.576719 
L 311.817277 -113.665941 
L 317.570077 -113.259425 
L 323.322876 -125.59042 
L 329.075676 -121.389751 
L 334.828475 -121.525257 
L 340.581275 -122.067279 
L 346.334074 -120.84773 
L 352.086873 -127.894012 
L 357.839673 -125.725925 
L 363.592472 -124.777387 
L 369.345272 -122.880311 
L 375.098071 -125.996936 
L 380.850871 -127.894012 
L 386.60367 -125.861431 
L 392.35647 -464.218508 
L 398.109269 -415.572056 
L 403.862068 -403.376567 
L 409.614868 -367.196615 
L 415.367667 -366.654593 
L 421.120467 -362.995946 
L 426.873266 -352.562028 
L 432.626066 -336.030364 
L 438.378865 -333.862277 
L 444.131665 -311.774891 
L 449.884464 -312.045902 
L 455.637264 -311.50388 
L 461.390063 -304.322092 
L 467.142862 -294.430195 
L 472.895662 -297.682325 
L 478.648461 -286.435374 
L 484.401261 -248.358346 
L 490.15406 -238.195438 
L 495.90686 -237.382406 
L 501.659659 -235.078813 
L 507.412459 -228.168036 
L 513.165258 -233.99477 
L 518.918058 -239.685998 
L 524.670857 -244.022172 
L 530.423656 -242.938129 
L 536.176456 -239.685998 
L 541.929255 -253.643058 
L 547.682055 -270.039216 
L 553.434854 -275.594939 
L 559.187654 -280.202124 
L 564.940453 -283.183244 
L 570.693253 -267.329107 
L 576.446052 -273.968874 
L 582.198851 -286.299869 
L 587.951651 -262.857428 
L 593.70445 -258.385749 
L 599.45725 -262.179901 
L 605.210049 -262.586417 
L 610.962849 -238.73746 
L 616.715648 -234.536792 
L 622.468448 -228.710058 
L 628.221247 -227.76152 
L 633.974047 -231.149156 
L 639.726846 -231.555672 
L 645.479645 -236.162857 
L 651.232445 -238.601955 
L 656.985244 -253.643058 
L 662.738044 -255.540134 
L 668.490843 -265.567537 
L 674.243643 -265.16102 
L 674.243643 -483.866796 
L 674.243643 -483.866796 
L 668.490843 -486.305894 
L 662.738044 -485.221851 
L 656.985244 -485.763873 
L 651.232445 -486.847916 
L 645.479645 -487.254432 
L 639.726846 -496.468802 
L 633.974047 -496.197791 
L 628.221247 -503.921601 
L 622.468448 -504.057107 
L 616.715648 -498.230373 
L 610.962849 -497.41734 
L 605.210049 -473.974899 
L 599.45725 -452.023019 
L 593.70445 -443.892692 
L 587.951651 -431.290687 
L 582.198851 -425.463953 
L 576.446052 -421.940812 
L 570.693253 -403.647577 
L 564.940453 -413.67498 
L 559.187654 -414.623518 
L 553.434854 -420.314746 
L 547.682055 -452.023019 
L 541.929255 -439.963035 
L 536.176456 -417.875648 
L 530.423656 -417.875648 
L 524.670857 -421.39879 
L 518.918058 -466.115584 
L 513.165258 -478.988601 
L 507.412459 -461.77941 
L 501.659659 -488.880498 
L 495.90686 -507.444742 
L 490.15406 -521.401803 
L 484.401261 -536.171895 
L 478.648461 -525.060449 
L 472.895662 -526.279998 
L 467.142862 -523.027868 
L 461.390063 -525.873482 
L 455.637264 -525.737977 
L 449.884464 -524.789438 
L 444.131665 -525.466966 
L 438.378865 -526.144493 
L 432.626066 -526.008987 
L 426.873266 -525.466966 
L 421.120467 -525.602471 
L 415.367667 -526.144493 
L 409.614868 -526.551009 
L 403.862068 -530.209656 
L 398.109269 -529.667634 
L 392.35647 -534.410325 
L 386.60367 -200.389421 
L 380.850871 -194.833698 
L 375.098071 -194.698193 
L 369.345272 -194.969204 
L 363.592472 -196.053247 
L 357.839673 -192.801117 
L 352.086873 -191.446063 
L 346.334074 -191.717073 
L 340.581275 -191.988084 
L 334.828475 -191.852579 
L 329.075676 -190.768535 
L 323.322876 -190.768535 
L 317.570077 -194.969204 
L 311.817277 -191.717073 
L 306.064478 -192.394601 
L 300.311678 -191.446063 
L 294.558879 -195.37572 
L 288.806079 -193.343139 
L 283.05328 -192.394601 
L 277.300481 -201.202454 
L 271.547681 -195.646731 
L 265.794882 -198.763356 
L 260.042082 -204.183574 
L 254.289283 -199.169872 
L 248.536483 -194.969204 
L 242.783684 -191.175052 
L 237.030884 -193.749655 
L 231.278085 -191.446063 
L 225.525285 -194.156171 
L 219.772486 -196.053247 
L 214.019687 -194.833698 
L 208.266887 -196.595269 
L 202.514088 -216.243558 
L 196.761288 -200.253916 
L 191.008489 -201.337959 
L 185.255689 -207.029188 
L 179.50289 -200.253916 
L 173.75009 -201.473465 
L 167.997291 -198.221334 
L 162.244492 -198.492345 
L 156.491692 -201.744476 
L 150.738893 -199.305378 
L 144.986093 -202.015487 
L 139.233294 -202.557508 
L 133.480494 -200.389421 
L 127.727695 -205.403123 
L 121.974895 -220.173215 
L 116.222096 -201.744476 
L 110.469296 -208.248737 
L 104.716497 -214.481987 
z
" style="stroke: #ffffff; stroke-opacity: 0.2"/>
    </defs>
    <g clip-path="url(#p8bd6d29013)">
     <use xlink:href="#meb1821e7e6" x="0" y="576" style="fill: #55a868; fill-opacity: 0.2; stroke: #ffffff; stroke-opacity: 0.2"/>
    </g>
   </g>
   <g id="line2d_14">
    <path d="M 104.716497 380.488774 
L 110.469296 390.177413 
L 116.222096 391.261457 
L 121.974895 392.752016 
L 127.727695 393.700554 
L 133.480494 394.039318 
L 139.233294 395.191114 
L 144.986093 395.597631 
L 150.738893 397.155943 
L 156.491692 398.172234 
L 162.244492 399.730546 
L 167.997291 401.221106 
L 173.75009 403.321441 
L 179.50289 403.253688 
L 185.255689 403.456946 
L 191.008489 403.118182 
L 196.761288 404.405484 
L 202.514088 409.351432 
L 208.266887 408.809411 
L 214.019687 409.554691 
L 219.772486 407.725367 
L 225.525285 409.825702 
L 231.278085 408.064131 
L 237.030884 409.961207 
L 242.783684 409.757949 
L 248.536483 404.269979 
L 254.289283 401.966386 
L 260.042082 402.169644 
L 265.794882 406.980087 
L 271.547681 406.438066 
L 277.300481 408.5384 
L 283.05328 406.30256 
L 288.806079 409.825702 
L 294.558879 411.451767 
L 300.311678 417.210748 
L 306.064478 419.243329 
L 311.817277 426.831634 
L 317.570077 428.457699 
L 323.322876 425.47658 
L 329.075676 423.647256 
L 334.828475 417.481759 
L 340.581275 411.655025 
L 346.334074 406.370313 
L 352.086873 407.318851 
L 357.839673 406.370313 
L 363.592472 410.570981 
L 369.345272 411.384014 
L 375.098071 411.04525 
L 380.850871 411.04525 
L 386.60367 409.486938 
L 392.35647 89.287589 
L 398.109269 114.898117 
L 403.862068 116.185419 
L 409.614868 127.703381 
L 415.367667 123.502712 
L 421.120467 126.890348 
L 426.873266 129.126188 
L 432.626066 122.147658 
L 438.378865 121.673389 
L 444.131665 126.348327 
L 449.884464 118.556764 
L 455.637264 108.393856 
L 461.390063 120.589345 
L 467.142862 122.418669 
L 472.895662 139.085838 
L 478.648461 147.758186 
L 484.401261 151.078069 
L 490.15406 156.430534 
L 495.90686 162.121762 
L 501.659659 172.623433 
L 507.412459 186.580493 
L 513.165258 175.333542 
L 518.918058 173.571971 
L 524.670857 176.349833 
L 530.423656 175.875564 
L 536.176456 182.379825 
L 541.929255 192.678238 
L 547.682055 191.7297 
L 553.434854 195.591605 
L 559.187654 199.046994 
L 564.940453 197.624187 
L 570.693253 182.650836 
L 576.446052 181.49904 
L 582.198851 185.428697 
L 587.951651 192.339475 
L 593.70445 192.881496 
L 599.45725 198.775983 
L 605.210049 210.768214 
L 610.962849 211.039225 
L 616.715648 205.68676 
L 622.468448 204.602717 
L 628.221247 206.364287 
L 633.974047 210.497203 
L 639.726846 208.735632 
L 645.479645 204.873727 
L 651.232445 204.1962 
L 656.985244 205.347997 
L 662.738044 197.759692 
L 668.490843 216.256184 
L 674.243643 199.046994 
" clip-path="url(#p8bd6d29013)" style="fill: none; stroke: #4c72b0; stroke-width: 2; stroke-linecap: round"/>
   </g>
   <g id="line2d_15">
    <path d="M 104.716497 378.998215 
L 110.469296 386.044497 
L 116.222096 391.193704 
L 121.974895 391.803478 
L 127.727695 395.868641 
L 133.480494 396.0719 
L 139.233294 395.733136 
L 144.986093 395.394372 
L 150.738893 398.714256 
L 156.491692 398.57875 
L 162.244492 398.036728 
L 167.997291 400.340321 
L 173.75009 401.221106 
L 179.50289 409.893454 
L 185.255689 414.839403 
L 191.008489 419.649846 
L 196.761288 423.850514 
L 202.514088 423.579503 
L 208.266887 424.460289 
L 214.019687 426.018601 
L 219.772486 426.357365 
L 225.525285 415.51693 
L 231.278085 416.736479 
L 237.030884 415.787941 
L 242.783684 407.928625 
L 248.536483 409.893454 
L 254.289283 405.150764 
L 260.042082 403.660204 
L 265.794882 402.847172 
L 271.547681 403.185935 
L 277.300481 403.185935 
L 283.05328 403.660204 
L 288.806079 403.05043 
L 294.558879 404.06672 
L 300.311678 404.269979 
L 306.064478 406.167055 
L 311.817277 406.031549 
L 317.570077 403.321441 
L 323.322876 402.30515 
L 329.075676 402.711666 
L 334.828475 402.508408 
L 340.581275 403.931215 
L 346.334074 401.55987 
L 352.086873 403.253688 
L 357.839673 400.882343 
L 363.592472 402.847172 
L 369.345272 403.456946 
L 375.098071 403.118182 
L 380.850871 406.776829 
L 386.60367 407.928625 
L 392.35647 73.907722 
L 398.109269 90.981407 
L 403.862068 101.076562 
L 409.614868 107.716329 
L 415.367667 121.063614 
L 421.120467 127.906639 
L 426.873266 133.530115 
L 432.626066 129.058435 
L 438.378865 133.66562 
L 444.131665 146.335379 
L 449.884464 146.199873 
L 455.637264 154.60121 
L 461.390063 155.685254 
L 467.142862 161.511988 
L 472.895662 165.30614 
L 478.648461 154.533458 
L 484.401261 169.777819 
L 490.15406 189.426108 
L 495.90686 196.675649 
L 501.659659 200.876317 
L 507.412459 217.611239 
L 513.165258 214.697872 
L 518.918058 209.074396 
L 524.670857 214.088097 
L 530.423656 209.887429 
L 536.176456 219.034046 
L 541.929255 219.576067 
L 547.682055 219.779326 
L 553.434854 233.465375 
L 559.187654 233.262117 
L 564.940453 228.316168 
L 570.693253 228.180663 
L 576.446052 228.11291 
L 582.198851 221.676402 
L 587.951651 221.473144 
L 593.70445 219.508315 
L 599.45725 219.237304 
L 605.210049 219.711573 
L 610.962849 224.657521 
L 616.715648 229.806728 
L 622.468448 232.516837 
L 628.221247 233.465375 
L 633.974047 232.516837 
L 639.726846 228.11291 
L 645.479645 225.064038 
L 651.232445 224.183252 
L 656.985244 224.86078 
L 662.738044 218.492024 
L 668.490843 218.356519 
L 674.243643 215.172141 
" clip-path="url(#p8bd6d29013)" style="fill: none; stroke: #dd8452; stroke-width: 2; stroke-linecap: round"/>
   </g>
   <g id="line2d_16">
    <path d="M 104.716497 378.794956 
L 110.469296 382.995625 
L 116.222096 383.944163 
L 121.974895 384.011916 
L 127.727695 385.773486 
L 133.480494 385.637981 
L 139.233294 386.722024 
L 144.986093 387.738315 
L 150.738893 386.925283 
L 156.491692 387.806068 
L 162.244492 386.925283 
L 167.997291 386.722024 
L 173.75009 387.399552 
L 179.50289 387.196293 
L 185.255689 387.670563 
L 191.008489 386.789777 
L 196.761288 388.890111 
L 202.514088 389.770897 
L 208.266887 391.058198 
L 214.019687 395.32662 
L 219.772486 394.716845 
L 225.525285 394.716845 
L 231.278085 395.800889 
L 237.030884 398.239987 
L 242.783684 399.798299 
L 248.536483 398.239987 
L 254.289283 396.681674 
L 260.042082 393.632802 
L 265.794882 395.936394 
L 271.547681 393.700554 
L 277.300481 399.120772 
L 283.05328 399.120772 
L 288.806079 396.952685 
L 294.558879 392.074489 
L 300.311678 400.679085 
L 306.064478 407.454356 
L 311.817277 405.692786 
L 317.570077 405.218517 
L 323.322876 405.760538 
L 329.075676 403.05043 
L 334.828475 406.505818 
L 340.581275 401.966386 
L 346.334074 406.370313 
L 352.086873 403.660204 
L 357.839673 401.221106 
L 363.592472 405.150764 
L 369.345272 402.847172 
L 375.098071 405.286269 
L 380.850871 403.524699 
L 386.60367 398.375492 
L 392.35647 76.482326 
L 398.109269 83.799619 
L 403.862068 88.881073 
L 409.614868 92.200956 
L 415.367667 75.940304 
L 421.120467 79.531198 
L 426.873266 84.477146 
L 432.626066 85.832201 
L 438.378865 92.810731 
L 444.131665 97.485668 
L 449.884464 130.345737 
L 455.637264 133.259104 
L 461.390063 153.991436 
L 467.142862 164.899623 
L 472.895662 184.141396 
L 478.648461 197.895197 
L 484.401261 201.892608 
L 490.15406 203.789684 
L 495.90686 209.480912 
L 501.659659 216.459442 
L 507.412459 221.066627 
L 513.165258 220.863369 
L 518.918058 216.662701 
L 524.670857 222.963703 
L 530.423656 227.841899 
L 536.176456 224.251005 
L 541.929255 221.066627 
L 547.682055 234.34616 
L 553.434854 236.649753 
L 559.187654 230.145492 
L 564.940453 231.907062 
L 570.693253 231.907062 
L 576.446052 221.744154 
L 582.198851 230.687513 
L 587.951651 224.251005 
L 593.70445 226.554597 
L 599.45725 216.39169 
L 605.210049 217.882249 
L 610.962849 209.074396 
L 616.715648 205.754513 
L 622.468448 209.345407 
L 628.221247 195.998121 
L 633.974047 197.285423 
L 639.726846 192.000711 
L 645.479645 189.49386 
L 651.232445 193.22026 
L 656.985244 195.659358 
L 662.738044 190.510151 
L 668.490843 201.486092 
L 674.243643 203.044404 
" clip-path="url(#p8bd6d29013)" style="fill: none; stroke: #55a868; stroke-width: 2; stroke-linecap: round"/>
   </g>
   <g id="patch_3">
    <path d="M 76.24014 513.338305 
L 76.24014 17.28 
" style="fill: none; stroke: #cccccc; stroke-width: 1.25; stroke-linejoin: miter; stroke-linecap: square"/>
   </g>
   <g id="patch_4">
    <path d="M 702.72 513.338305 
L 702.72 17.28 
" style="fill: none; stroke: #cccccc; stroke-width: 1.25; stroke-linejoin: miter; stroke-linecap: square"/>
   </g>
   <g id="patch_5">
    <path d="M 76.24014 513.338305 
L 702.72 513.338305 
" style="fill: none; stroke: #cccccc; stroke-width: 1.25; stroke-linejoin: miter; stroke-linecap: square"/>
   </g>
   <g id="patch_6">
    <path d="M 76.24014 17.28 
L 702.72 17.28 
" style="fill: none; stroke: #cccccc; stroke-width: 1.25; stroke-linejoin: miter; stroke-linecap: square"/>
   </g>
   <g id="legend_1">
    <g id="patch_7">
     <path d="M 90.24014 148.162063 
L 281.942834 148.162063 
Q 285.942834 148.162063 285.942834 144.162063 
L 285.942834 31.28 
Q 285.942834 27.28 281.942834 27.28 
L 90.24014 27.28 
Q 86.24014 27.28 86.24014 31.28 
L 86.24014 144.162063 
Q 86.24014 148.162063 90.24014 148.162063 
z
" style="fill: #ffffff; opacity: 0.8; stroke: #cccccc; stroke-linejoin: miter"/>
    </g>
    <g id="text_16">
     <!-- Noise -->
     <g style="fill: #262626" transform="translate(160.180976 51.884405) scale(0.24 -0.24)">
      <defs>
       <path id="CMR17-4e" d="M 1312 4250 
C 1267 4320 1261 4320 1139 4320 
L 326 4320 
L 326 4160 
L 448 4160 
C 704 4160 819 4129 838 4122 
L 838 610 
C 838 451 838 153 326 153 
L 326 -13 
C 474 0 742 0 902 0 
C 1062 0 1331 0 1478 -13 
L 1478 153 
C 966 153 966 451 966 610 
L 966 4033 
C 1011 3995 1011 3982 1056 3919 
L 3430 76 
C 3475 0 3494 0 3526 0 
C 3590 0 3590 19 3590 139 
L 3590 3705 
C 3590 3863 3590 4160 4102 4160 
L 4102 4326 
C 3955 4320 3686 4320 3526 4320 
C 3366 4320 3098 4320 2950 4326 
L 2950 4160 
C 3462 4160 3462 3862 3462 3703 
L 3462 763 
L 1312 4250 
z
" transform="scale(0.015625)"/>
       <path id="CMR17-6f" d="M 2758 1356 
C 2758 2176 2163 2816 1466 2816 
C 768 2816 173 2176 173 1356 
C 173 551 768 -64 1466 -64 
C 2163 -64 2758 551 2758 1356 
z
M 1466 51 
C 1165 51 909 230 762 480 
C 602 767 582 1126 582 1408 
C 582 1677 595 2010 762 2298 
C 890 2509 1139 2714 1466 2714 
C 1754 2714 1997 2554 2150 2330 
C 2349 2029 2349 1607 2349 1408 
C 2349 1158 2336 775 2163 467 
C 1984 173 1709 51 1466 51 
z
" transform="scale(0.015625)"/>
       <path id="CMR17-69" d="M 992 3909 
C 992 4049 877 4170 730 4170 
C 589 4170 467 4056 467 3909 
C 467 3769 582 3648 730 3648 
C 870 3648 992 3763 992 3909 
z
M 243 2706 
L 243 2541 
C 602 2541 653 2502 653 2197 
L 653 427 
C 653 184 627 153 218 153 
L 218 -13 
C 371 0 646 0 806 0 
C 960 0 1222 0 1370 -13 
L 1370 153 
C 992 153 979 191 979 420 
L 979 2776 
L 243 2706 
z
" transform="scale(0.015625)"/>
       <path id="CMR17-73" d="M 1978 2697 
C 1978 2813 1971 2819 1933 2819 
C 1907 2819 1901 2813 1824 2717 
C 1805 2691 1747 2626 1728 2601 
C 1523 2819 1235 2819 1126 2819 
C 416 2819 160 2447 160 2076 
C 160 1498 813 1365 998 1325 
C 1402 1243 1542 1217 1677 1101 
C 1760 1025 1901 884 1901 654 
C 1901 384 1747 38 1158 38 
C 602 38 403 460 288 1021 
C 269 1110 269 1117 218 1117 
C 166 1117 160 1110 160 983 
L 160 63 
C 160 -51 166 -58 205 -58 
C 237 -58 243 -51 275 0 
C 314 57 410 211 448 276 
C 576 103 800 -64 1158 -64 
C 1792 -64 2131 283 2131 784 
C 2131 1112 1958 1285 1875 1362 
C 1683 1561 1459 1606 1190 1657 
C 838 1735 390 1825 390 2217 
C 390 2383 480 2737 1126 2737 
C 1811 2737 1850 2094 1862 1888 
C 1869 1856 1901 1849 1920 1849 
C 1978 1849 1978 1869 1978 1978 
L 1978 2697 
z
" transform="scale(0.015625)"/>
      </defs>
      <use xlink:href="#CMR17-4e" transform="scale(0.996264)"/>
      <use xlink:href="#CMR17-6f" transform="translate(69.07243 0) scale(0.996264)"/>
      <use xlink:href="#CMR17-69" transform="translate(114.762907 0) scale(0.996264)"/>
      <use xlink:href="#CMR17-73" transform="translate(139.633965 0) scale(0.996264)"/>
      <use xlink:href="#CMR17-65" transform="translate(175.435303 0) scale(0.996264)"/>
     </g>
    </g>
    <g id="line2d_17">
     <path d="M 94.24014 73.535163 
L 114.24014 73.535163 
L 134.24014 73.535163 
" style="fill: none; stroke: #4c72b0; stroke-width: 2; stroke-linecap: round"/>
    </g>
    <g id="text_17">
     <!-- None -->
     <g style="fill: #262626" transform="translate(150.24014 80.535163) scale(0.2 -0.2)">
      <defs>
       <path id="CMR17-6e" d="M 2656 1933 
C 2656 2259 2592 2790 1837 2790 
C 1331 2790 1069 2400 973 2144 
L 966 2144 
L 966 2790 
L 211 2720 
L 211 2554 
C 589 2554 646 2515 646 2208 
L 646 428 
C 646 184 621 153 211 153 
L 211 -13 
C 365 0 646 0 813 0 
C 979 0 1267 0 1421 -13 
L 1421 153 
C 1011 153 986 178 986 428 
L 986 1658 
C 986 2247 1344 2688 1792 2688 
C 2266 2688 2317 2266 2317 1958 
L 2317 428 
C 2317 184 2291 153 1882 153 
L 1882 -13 
C 2035 0 2317 0 2483 0 
C 2650 0 2938 0 3091 -13 
L 3091 153 
C 2682 153 2656 178 2656 428 
L 2656 1933 
z
" transform="scale(0.015625)"/>
      </defs>
      <use xlink:href="#CMR17-4e" transform="scale(0.996264)"/>
      <use xlink:href="#CMR17-6f" transform="translate(69.07243 0) scale(0.996264)"/>
      <use xlink:href="#CMR17-6e" transform="translate(114.762907 0) scale(0.996264)"/>
      <use xlink:href="#CMR17-65" transform="translate(165.658277 0) scale(0.996264)"/>
     </g>
    </g>
    <g id="line2d_18">
     <path d="M 94.24014 101.410796 
L 114.24014 101.410796 
L 134.24014 101.410796 
" style="fill: none; stroke: #dd8452; stroke-width: 2; stroke-linecap: round"/>
    </g>
    <g id="text_18">
     <!-- Gaussian -->
     <g style="fill: #262626" transform="translate(150.24014 108.410796) scale(0.2 -0.2)">
      <defs>
       <path id="CMR17-47" d="M 3974 1233 
C 3974 1473 3994 1505 4390 1505 
L 4390 1670 
C 4237 1664 3891 1664 3718 1664 
C 3539 1664 3040 1664 2797 1664 
L 2797 1505 
L 2989 1505 
C 3539 1505 3552 1434 3552 1201 
L 3552 774 
C 3552 63 2720 63 2522 63 
C 1862 63 781 511 781 2160 
C 781 3808 1843 4250 2464 4250 
C 3187 4250 3712 3626 3834 2741 
C 3846 2664 3846 2651 3904 2651 
C 3974 2651 3974 2664 3974 2779 
L 3974 4288 
C 3974 4402 3968 4409 3930 4409 
C 3904 4409 3898 4402 3853 4326 
L 3571 3791 
C 3258 4187 2874 4416 2381 4416 
C 1286 4416 294 3456 294 2148 
C 294 845 1267 -128 2394 -128 
C 2912 -128 3418 56 3616 417 
C 3725 158 3904 -20 3936 -20 
C 3968 -20 3974 -13 3974 100 
L 3974 1233 
z
" transform="scale(0.015625)"/>
       <path id="CMR17-61" d="M 2304 1653 
C 2304 2072 2304 2294 2035 2543 
C 1798 2752 1523 2816 1306 2816 
C 800 2816 435 2407 435 1971 
C 435 1728 627 1728 666 1728 
C 749 1728 896 1778 896 1954 
C 896 2112 774 2181 666 2181 
C 640 2181 608 2174 589 2168 
C 723 2592 1069 2714 1293 2714 
C 1613 2714 1965 2429 1965 1885 
L 1965 1600 
C 1587 1600 1133 1549 774 1357 
C 371 1133 256 813 256 570 
C 256 77 832 -64 1171 -64 
C 1523 -64 1850 139 1990 511 
C 2003 233 2182 -18 2464 -18 
C 2598 -18 2938 70 2938 567 
L 2938 920 
L 2822 920 
L 2822 562 
C 2822 178 2650 128 2566 128 
C 2304 128 2304 458 2304 738 
L 2304 1653 
z
M 1965 870 
C 1965 317 1568 38 1216 38 
C 896 38 646 275 646 570 
C 646 761 730 1100 1101 1305 
C 1408 1478 1760 1504 1965 1504 
L 1965 870 
z
" transform="scale(0.015625)"/>
       <path id="CMR17-75" d="M 1882 2693 
L 1882 2528 
C 2259 2528 2317 2489 2317 2186 
L 2317 1032 
C 2317 500 2029 38 1555 38 
C 1030 38 986 348 986 678 
L 986 2763 
L 211 2693 
L 211 2528 
C 467 2528 640 2528 646 2274 
L 646 1058 
C 646 633 646 361 813 183 
C 896 101 1056 -64 1517 -64 
C 2061 -64 2272 377 2323 506 
L 2330 506 
L 2330 -63 
L 3091 -63 
L 3091 128 
C 2714 128 2656 166 2656 473 
L 2656 2763 
L 1882 2693 
z
" transform="scale(0.015625)"/>
      </defs>
      <use xlink:href="#CMR17-47" transform="scale(0.996264)"/>
      <use xlink:href="#CMR17-61" transform="translate(72.355346 0) scale(0.996264)"/>
      <use xlink:href="#CMR17-75" transform="translate(118.045823 0) scale(0.996264)"/>
      <use xlink:href="#CMR17-73" transform="translate(168.941193 0) scale(0.996264)"/>
      <use xlink:href="#CMR17-73" transform="translate(204.74253 0) scale(0.996264)"/>
      <use xlink:href="#CMR17-69" transform="translate(240.543868 0) scale(0.996264)"/>
      <use xlink:href="#CMR17-61" transform="translate(265.414927 0) scale(0.996264)"/>
      <use xlink:href="#CMR17-6e" transform="translate(311.105404 0) scale(0.996264)"/>
     </g>
    </g>
    <g id="line2d_19">
     <path d="M 94.24014 129.28643 
L 114.24014 129.28643 
L 134.24014 129.28643 
" style="fill: none; stroke: #55a868; stroke-width: 2; stroke-linecap: round"/>
    </g>
    <g id="text_19">
     <!-- Salt-and-pepper -->
     <g style="fill: #262626" transform="translate(150.24014 136.28643) scale(0.2 -0.2)">
      <defs>
       <path id="CMR17-6c" d="M 979 4396 
L 218 4326 
L 218 4160 
C 595 4160 653 4122 653 3817 
L 653 426 
C 653 184 627 153 218 153 
L 218 -13 
C 371 0 653 0 813 0 
C 979 0 1261 0 1414 -13 
L 1414 153 
C 1005 153 979 178 979 426 
L 979 4396 
z
" transform="scale(0.015625)"/>
       <path id="CMR17-2d" d="M 1632 1216 
L 1632 1496 
L 26 1496 
L 26 1216 
L 1632 1216 
z
" transform="scale(0.015625)"/>
       <path id="CMR17-64" d="M 1869 4326 
L 1869 4160 
C 2246 4160 2304 4122 2304 3820 
L 2304 2345 
C 2278 2377 2016 2790 1498 2790 
C 845 2790 211 2208 211 1364 
C 211 525 806 -64 1434 -64 
C 1978 -64 2259 337 2291 380 
L 2291 -63 
L 3066 -63 
L 3066 128 
C 2688 128 2630 166 2630 473 
L 2630 4396 
L 1869 4326 
z
M 2291 755 
C 2291 563 2176 390 2029 262 
C 1811 70 1594 38 1472 38 
C 1286 38 621 134 621 1356 
C 621 2612 1363 2688 1530 2688 
C 1824 2688 2061 2522 2208 2291 
C 2291 2157 2291 2138 2291 2023 
L 2291 755 
z
" transform="scale(0.015625)"/>
       <path id="CMR17-72" d="M 960 1497 
C 960 2112 1222 2688 1702 2688 
C 1747 2688 1792 2682 1837 2662 
C 1837 2662 1696 2617 1696 2452 
C 1696 2298 1818 2234 1914 2234 
C 1990 2234 2131 2279 2131 2458 
C 2131 2663 1926 2790 1709 2790 
C 1222 2790 1011 2317 947 2093 
L 941 2093 
L 941 2790 
L 198 2720 
L 198 2554 
C 576 2554 634 2515 634 2208 
L 634 428 
C 634 184 608 153 198 153 
L 198 -13 
C 352 0 646 0 813 0 
C 998 0 1325 0 1498 -13 
L 1498 153 
C 1037 153 960 153 960 440 
L 960 1497 
z
" transform="scale(0.015625)"/>
      </defs>
      <use xlink:href="#CMR17-53" transform="scale(0.996264)"/>
      <use xlink:href="#CMR17-61" transform="translate(50.89537 0) scale(0.996264)"/>
      <use xlink:href="#CMR17-6c" transform="translate(96.585847 0) scale(0.996264)"/>
      <use xlink:href="#CMR17-74" transform="translate(121.456905 0) scale(0.996264)"/>
      <use xlink:href="#CMR17-2d" transform="translate(156.737673 0) scale(0.996264)"/>
      <use xlink:href="#CMR17-61" transform="translate(186.81364 0) scale(0.996264)"/>
      <use xlink:href="#CMR17-6e" transform="translate(232.504117 0) scale(0.996264)"/>
      <use xlink:href="#CMR17-64" transform="translate(283.399486 0) scale(0.996264)"/>
      <use xlink:href="#CMR17-2d" transform="translate(334.294856 0) scale(0.996264)"/>
      <use xlink:href="#CMR17-70" transform="translate(364.370823 0) scale(0.996264)"/>
      <use xlink:href="#CMR17-65" transform="translate(417.868631 0) scale(0.996264)"/>
      <use xlink:href="#CMR17-70" transform="translate(458.354292 0) scale(0.996264)"/>
      <use xlink:href="#CMR17-70" transform="translate(509.249661 0) scale(0.996264)"/>
      <use xlink:href="#CMR17-65" transform="translate(562.74747 0) scale(0.996264)"/>
      <use xlink:href="#CMR17-72" transform="translate(603.23313 0) scale(0.996264)"/>
     </g>
    </g>
   </g>
  </g>
 </g>
 <defs>
  <clipPath id="p8bd6d29013">
   <rect x="76.24014" y="17.28" width="626.47986" height="496.058305"/>
  </clipPath>
 </defs>
</svg>
