<?xml version="1.0" encoding="utf-8" standalone="no"?>
<!DOCTYPE svg PUBLIC "-//W3C//DTD SVG 1.1//EN"
  "http://www.w3.org/Graphics/SVG/1.1/DTD/svg11.dtd">
<svg xmlns:xlink="http://www.w3.org/1999/xlink" width="720pt" height="576pt" viewBox="0 0 720 576" xmlns="http://www.w3.org/2000/svg" version="1.1">
 <metadata>
  <rdf:RDF xmlns:dc="http://purl.org/dc/elements/1.1/" xmlns:cc="http://creativecommons.org/ns#" xmlns:rdf="http://www.w3.org/1999/02/22-rdf-syntax-ns#">
   <cc:Work>
    <dc:type rdf:resource="http://purl.org/dc/dcmitype/StillImage"/>
    <dc:date>2025-04-24T18:58:10.438168</dc:date>
    <dc:format>image/svg+xml</dc:format>
    <dc:creator>
     <cc:Agent>
      <dc:title>Matplotlib v3.9.2, https://matplotlib.org/</dc:title>
     </cc:Agent>
    </dc:creator>
   </cc:Work>
  </rdf:RDF>
 </metadata>
 <defs>
  <style type="text/css">*{stroke-linejoin: round; stroke-linecap: butt}</style>
 </defs>
 <g id="figure_1">
  <g id="patch_1">
   <path d="M 0 576 
L 720 576 
L 720 0 
L 0 0 
z
" style="fill: #ffffff"/>
  </g>
  <g id="axes_1">
   <g id="patch_2">
    <path d="M 83.392615 495.840956 
L 694.08 495.840956 
L 694.08 49.831226 
L 83.392615 49.831226 
z
" style="fill: #ffffff"/>
   </g>
   <g id="matplotlib.axis_1">
    <g id="xtick_1">
     <g id="line2d_1">
      <path d="M 111.151132 495.840956 
L 111.151132 49.831226 
" clip-path="url(#p4cb4dd8d25)" style="fill: none; stroke: #cccccc; stroke-linecap: round"/>
     </g>
     <g id="text_1">
      <!-- $\mathdefault{0}$ -->
      <g style="fill: #262626" transform="translate(106.12518 520.56165) scale(0.22 -0.22)">
       <defs>
        <path id="CMR17-30" d="M 2688 2025 
C 2688 2416 2682 3080 2413 3591 
C 2176 4039 1798 4198 1466 4198 
C 1158 4198 768 4058 525 3597 
C 269 3118 243 2524 243 2025 
C 243 1661 250 1106 448 619 
C 723 -39 1216 -128 1466 -128 
C 1760 -128 2208 -7 2470 600 
C 2662 1042 2688 1559 2688 2025 
z
M 1466 -26 
C 1056 -26 813 325 723 812 
C 653 1188 653 1738 653 2096 
C 653 2588 653 2997 736 3387 
C 858 3929 1216 4096 1466 4096 
C 1728 4096 2067 3923 2189 3400 
C 2272 3036 2278 2607 2278 2096 
C 2278 1680 2278 1169 2202 792 
C 2067 95 1690 -26 1466 -26 
z
" transform="scale(0.015625)"/>
       </defs>
       <use xlink:href="#CMR17-30" transform="scale(0.996264)"/>
      </g>
     </g>
    </g>
    <g id="xtick_2">
     <g id="line2d_2">
      <path d="M 223.306759 495.840956 
L 223.306759 49.831226 
" clip-path="url(#p4cb4dd8d25)" style="fill: none; stroke: #cccccc; stroke-linecap: round"/>
     </g>
     <g id="text_2">
      <!-- $\mathdefault{200}$ -->
      <g style="fill: #262626" transform="translate(208.228901 520.56165) scale(0.22 -0.22)">
       <defs>
        <path id="CMR17-32" d="M 2669 989 
L 2554 989 
C 2490 536 2438 459 2413 420 
C 2381 369 1920 369 1830 369 
L 602 369 
C 832 619 1280 1072 1824 1597 
C 2214 1967 2669 2402 2669 3035 
C 2669 3790 2067 4224 1395 4224 
C 691 4224 262 3604 262 3030 
C 262 2780 448 2748 525 2748 
C 589 2748 781 2787 781 3010 
C 781 3207 614 3264 525 3264 
C 486 3264 448 3258 422 3245 
C 544 3790 915 4058 1306 4058 
C 1862 4058 2227 3617 2227 3035 
C 2227 2479 1901 2000 1536 1584 
L 262 146 
L 262 0 
L 2515 0 
L 2669 989 
z
" transform="scale(0.015625)"/>
       </defs>
       <use xlink:href="#CMR17-32" transform="scale(0.996264)"/>
       <use xlink:href="#CMR17-30" transform="translate(45.690477 0) scale(0.996264)"/>
       <use xlink:href="#CMR17-30" transform="translate(91.380954 0) scale(0.996264)"/>
      </g>
     </g>
    </g>
    <g id="xtick_3">
     <g id="line2d_3">
      <path d="M 335.462385 495.840956 
L 335.462385 49.831226 
" clip-path="url(#p4cb4dd8d25)" style="fill: none; stroke: #cccccc; stroke-linecap: round"/>
     </g>
     <g id="text_3">
      <!-- $\mathdefault{400}$ -->
      <g style="fill: #262626" transform="translate(320.384528 520.56165) scale(0.22 -0.22)">
       <defs>
        <path id="CMR17-34" d="M 2150 4122 
C 2150 4256 2144 4256 2029 4256 
L 128 1254 
L 128 1088 
L 1779 1088 
L 1779 457 
C 1779 224 1766 160 1318 160 
L 1197 160 
L 1197 0 
C 1402 0 1747 0 1965 0 
C 2182 0 2528 0 2733 0 
L 2733 160 
L 2611 160 
C 2163 160 2150 224 2150 457 
L 2150 1088 
L 2803 1088 
L 2803 1254 
L 2150 1254 
L 2150 4122 
z
M 1798 3703 
L 1798 1254 
L 256 1254 
L 1798 3703 
z
" transform="scale(0.015625)"/>
       </defs>
       <use xlink:href="#CMR17-34" transform="scale(0.996264)"/>
       <use xlink:href="#CMR17-30" transform="translate(45.690477 0) scale(0.996264)"/>
       <use xlink:href="#CMR17-30" transform="translate(91.380954 0) scale(0.996264)"/>
      </g>
     </g>
    </g>
    <g id="xtick_4">
     <g id="line2d_4">
      <path d="M 447.618011 495.840956 
L 447.618011 49.831226 
" clip-path="url(#p4cb4dd8d25)" style="fill: none; stroke: #cccccc; stroke-linecap: round"/>
     </g>
     <g id="text_4">
      <!-- $\mathdefault{600}$ -->
      <g style="fill: #262626" transform="translate(432.540154 520.56165) scale(0.22 -0.22)">
       <defs>
        <path id="CMR17-36" d="M 678 2176 
C 678 3690 1395 4032 1811 4032 
C 1946 4032 2272 4009 2400 3776 
C 2298 3776 2106 3776 2106 3553 
C 2106 3381 2246 3323 2336 3323 
C 2394 3323 2566 3348 2566 3560 
C 2566 3954 2246 4179 1805 4179 
C 1043 4179 243 3390 243 1984 
C 243 253 966 -128 1478 -128 
C 2099 -128 2688 427 2688 1283 
C 2688 2081 2170 2662 1517 2662 
C 1126 2662 838 2407 678 1960 
L 678 2176 
z
M 1478 25 
C 691 25 691 1200 691 1436 
C 691 1896 909 2560 1504 2560 
C 1613 2560 1926 2560 2138 2120 
C 2253 1870 2253 1609 2253 1289 
C 2253 944 2253 690 2118 434 
C 1978 171 1773 25 1478 25 
z
" transform="scale(0.015625)"/>
       </defs>
       <use xlink:href="#CMR17-36" transform="scale(0.996264)"/>
       <use xlink:href="#CMR17-30" transform="translate(45.690477 0) scale(0.996264)"/>
       <use xlink:href="#CMR17-30" transform="translate(91.380954 0) scale(0.996264)"/>
      </g>
     </g>
    </g>
    <g id="xtick_5">
     <g id="line2d_5">
      <path d="M 559.773638 495.840956 
L 559.773638 49.831226 
" clip-path="url(#p4cb4dd8d25)" style="fill: none; stroke: #cccccc; stroke-linecap: round"/>
     </g>
     <g id="text_5">
      <!-- $\mathdefault{800}$ -->
      <g style="fill: #262626" transform="translate(544.69578 520.56165) scale(0.22 -0.22)">
       <defs>
        <path id="CMR17-38" d="M 1741 2264 
C 2144 2467 2554 2773 2554 3263 
C 2554 3841 1990 4179 1472 4179 
C 890 4179 378 3759 378 3180 
C 378 3021 416 2747 666 2505 
C 730 2442 998 2251 1171 2130 
C 883 1983 211 1634 211 934 
C 211 279 838 -128 1459 -128 
C 2144 -128 2720 362 2720 1010 
C 2720 1590 2330 1857 2074 2029 
L 1741 2264 
z
M 902 2822 
C 851 2854 595 3051 595 3351 
C 595 3739 998 4032 1459 4032 
C 1965 4032 2336 3676 2336 3262 
C 2336 2669 1670 2331 1638 2331 
C 1632 2331 1626 2331 1574 2370 
L 902 2822 
z
M 2080 1519 
C 2176 1449 2483 1240 2483 851 
C 2483 381 2010 25 1472 25 
C 890 25 448 438 448 940 
C 448 1443 838 1862 1280 2060 
L 2080 1519 
z
" transform="scale(0.015625)"/>
       </defs>
       <use xlink:href="#CMR17-38" transform="scale(0.996264)"/>
       <use xlink:href="#CMR17-30" transform="translate(45.690477 0) scale(0.996264)"/>
       <use xlink:href="#CMR17-30" transform="translate(91.380954 0) scale(0.996264)"/>
      </g>
     </g>
    </g>
    <g id="xtick_6">
     <g id="line2d_6">
      <path d="M 671.929264 495.840956 
L 671.929264 49.831226 
" clip-path="url(#p4cb4dd8d25)" style="fill: none; stroke: #cccccc; stroke-linecap: round"/>
     </g>
     <g id="text_6">
      <!-- $\mathdefault{1000}$ -->
      <g style="fill: #262626" transform="translate(651.825454 520.56165) scale(0.22 -0.22)">
       <defs>
        <path id="CMR17-31" d="M 1702 4058 
C 1702 4192 1696 4192 1606 4192 
C 1357 3916 979 3827 621 3827 
C 602 3827 570 3827 563 3808 
C 557 3795 557 3782 557 3648 
C 755 3648 1088 3686 1344 3839 
L 1344 461 
C 1344 236 1331 160 781 160 
L 589 160 
L 589 0 
C 896 0 1216 0 1523 0 
C 1830 0 2150 0 2458 0 
L 2458 160 
L 2266 160 
C 1715 160 1702 230 1702 458 
L 1702 4058 
z
" transform="scale(0.015625)"/>
       </defs>
       <use xlink:href="#CMR17-31" transform="scale(0.996264)"/>
       <use xlink:href="#CMR17-30" transform="translate(45.690477 0) scale(0.996264)"/>
       <use xlink:href="#CMR17-30" transform="translate(91.380954 0) scale(0.996264)"/>
       <use xlink:href="#CMR17-30" transform="translate(137.071431 0) scale(0.996264)"/>
      </g>
     </g>
    </g>
    <g id="text_7">
     <!-- Step -->
     <g style="fill: #262626" transform="translate(367.649451 545.429243) scale(0.24 -0.24)">
      <defs>
       <path id="CMSS17-53" d="M 2797 4169 
C 2515 4334 2208 4480 1690 4480 
C 864 4480 333 3879 333 3266 
C 333 3025 403 2753 653 2475 
C 902 2196 1184 2121 1542 2033 
C 1690 1994 1939 1924 1984 1906 
C 2342 1767 2515 1444 2515 1140 
C 2515 742 2202 318 1645 318 
C 1453 318 890 318 358 819 
L 269 318 
C 794 -64 1363 -128 1651 -128 
C 2438 -128 3002 488 3002 1186 
C 3002 1440 2925 1763 2656 2061 
C 2394 2347 2163 2410 1638 2549 
C 1338 2626 1146 2677 986 2873 
C 877 3013 819 3146 819 3317 
C 819 3673 1126 4060 1690 4060 
C 1971 4060 2336 4002 2707 3660 
L 2797 4169 
z
" transform="scale(0.015625)"/>
       <path id="CMSS17-74" d="M 1069 2368 
L 1901 2368 
L 1901 2737 
L 1069 2737 
L 1069 3520 
L 614 3520 
L 614 2737 
L 109 2737 
L 109 2368 
L 602 2368 
L 602 749 
C 602 384 685 -64 1107 -64 
C 1427 -64 1722 25 2003 172 
L 1901 548 
C 1747 414 1562 337 1363 337 
C 1082 337 1069 696 1069 856 
L 1069 2368 
z
" transform="scale(0.015625)"/>
       <path id="CMSS17-65" d="M 2502 1377 
C 2502 1590 2490 2003 2285 2345 
C 2061 2713 1696 2816 1421 2816 
C 755 2816 192 2188 192 1375 
C 192 582 774 -64 1510 -64 
C 1798 -64 2150 19 2470 248 
C 2470 274 2458 414 2451 420 
C 2451 433 2432 630 2432 656 
C 2125 407 1773 325 1517 325 
C 1107 325 666 667 646 1377 
L 2502 1377 
z
M 698 1728 
C 781 2084 1062 2421 1421 2421 
C 1517 2421 1965 2421 2080 1728 
L 698 1728 
z
" transform="scale(0.015625)"/>
       <path id="CMSS17-70" d="M 966 333 
C 1178 129 1466 -5 1773 -5 
C 2368 -5 2880 603 2880 1412 
C 2880 2159 2496 2816 1946 2816 
C 1626 2816 1242 2702 954 2472 
L 954 2765 
L 480 2765 
L 480 -1216 
L 966 -1216 
L 966 333 
z
M 966 2100 
C 1018 2176 1235 2415 1587 2415 
C 2035 2415 2394 1960 2394 1412 
C 2394 787 1958 384 1530 384 
C 1402 384 1267 415 1139 523 
C 966 674 966 768 966 857 
L 966 2100 
z
" transform="scale(0.015625)"/>
      </defs>
      <use xlink:href="#CMSS17-53" transform="scale(0.996264)"/>
      <use xlink:href="#CMSS17-74" transform="translate(52.048516 0) scale(0.996264)"/>
      <use xlink:href="#CMSS17-65" transform="translate(85.880083 0) scale(0.996264)"/>
      <use xlink:href="#CMSS17-70" transform="translate(127.518905 0) scale(0.996264)"/>
     </g>
    </g>
   </g>
   <g id="matplotlib.axis_2">
    <g id="ytick_1">
     <g id="line2d_7">
      <path d="M 83.392615 483.109621 
L 694.08 483.109621 
" clip-path="url(#p4cb4dd8d25)" style="fill: none; stroke: #cccccc; stroke-linecap: round"/>
     </g>
     <g id="text_8">
      <!-- $\mathdefault{0}$ -->
      <g style="fill: #262626" transform="translate(63.84071 490.719968) scale(0.22 -0.22)">
       <use xlink:href="#CMR17-30" transform="scale(0.996264)"/>
      </g>
     </g>
    </g>
    <g id="ytick_2">
     <g id="line2d_8">
      <path d="M 83.392615 393.325877 
L 694.08 393.325877 
" clip-path="url(#p4cb4dd8d25)" style="fill: none; stroke: #cccccc; stroke-linecap: round"/>
     </g>
     <g id="text_9">
      <!-- $\mathdefault{5}$ -->
      <g style="fill: #262626" transform="translate(63.84071 400.936223) scale(0.22 -0.22)">
       <defs>
        <path id="CMR17-35" d="M 730 3692 
C 794 3666 1056 3584 1325 3584 
C 1920 3584 2246 3911 2432 4100 
C 2432 4157 2432 4192 2394 4192 
C 2387 4192 2374 4192 2323 4163 
C 2099 4058 1837 3973 1517 3973 
C 1325 3973 1037 3999 723 4139 
C 653 4171 640 4171 634 4171 
C 602 4171 595 4164 595 4037 
L 595 2203 
C 595 2089 595 2057 659 2057 
C 691 2057 704 2070 736 2114 
C 941 2401 1222 2522 1542 2522 
C 1766 2522 2246 2382 2246 1289 
C 2246 1085 2246 715 2054 421 
C 1894 159 1645 25 1370 25 
C 947 25 518 320 403 814 
C 429 807 480 795 506 795 
C 589 795 749 840 749 1038 
C 749 1210 627 1280 506 1280 
C 358 1280 262 1190 262 1011 
C 262 454 704 -128 1382 -128 
C 2042 -128 2669 440 2669 1264 
C 2669 2030 2170 2624 1549 2624 
C 1222 2624 947 2503 730 2274 
L 730 3692 
z
" transform="scale(0.015625)"/>
       </defs>
       <use xlink:href="#CMR17-35" transform="scale(0.996264)"/>
      </g>
     </g>
    </g>
    <g id="ytick_3">
     <g id="line2d_9">
      <path d="M 83.392615 303.542132 
L 694.08 303.542132 
" clip-path="url(#p4cb4dd8d25)" style="fill: none; stroke: #cccccc; stroke-linecap: round"/>
     </g>
     <g id="text_10">
      <!-- $\mathdefault{10}$ -->
      <g style="fill: #262626" transform="translate(53.788805 311.152479) scale(0.22 -0.22)">
       <use xlink:href="#CMR17-31" transform="scale(0.996264)"/>
       <use xlink:href="#CMR17-30" transform="translate(45.690477 0) scale(0.996264)"/>
      </g>
     </g>
    </g>
    <g id="ytick_4">
     <g id="line2d_10">
      <path d="M 83.392615 213.758387 
L 694.08 213.758387 
" clip-path="url(#p4cb4dd8d25)" style="fill: none; stroke: #cccccc; stroke-linecap: round"/>
     </g>
     <g id="text_11">
      <!-- $\mathdefault{15}$ -->
      <g style="fill: #262626" transform="translate(53.788805 221.368734) scale(0.22 -0.22)">
       <use xlink:href="#CMR17-31" transform="scale(0.996264)"/>
       <use xlink:href="#CMR17-35" transform="translate(45.690477 0) scale(0.996264)"/>
      </g>
     </g>
    </g>
    <g id="ytick_5">
     <g id="line2d_11">
      <path d="M 83.392615 123.974643 
L 694.08 123.974643 
" clip-path="url(#p4cb4dd8d25)" style="fill: none; stroke: #cccccc; stroke-linecap: round"/>
     </g>
     <g id="text_12">
      <!-- $\mathdefault{20}$ -->
      <g style="fill: #262626" transform="translate(53.788805 131.584989) scale(0.22 -0.22)">
       <use xlink:href="#CMR17-32" transform="scale(0.996264)"/>
       <use xlink:href="#CMR17-30" transform="translate(45.690477 0) scale(0.996264)"/>
      </g>
     </g>
    </g>
    <g id="text_13">
     <!-- Percentage Explored (\%) -->
     <g style="fill: #262626" transform="translate(43.831226 390.204645) rotate(-90) scale(0.24 -0.24)">
      <defs>
       <path id="CMSS17-50" d="M 2106 1856 
C 2874 1856 3501 2453 3501 3158 
C 3501 3850 2899 4453 2067 4453 
L 570 4453 
L 570 0 
L 1107 0 
L 1107 1856 
L 2106 1856 
z
M 1926 4096 
C 2669 4096 2995 3627 2995 3157 
C 2995 2720 2694 2226 1926 2226 
L 1094 2226 
L 1094 4096 
L 1926 4096 
z
" transform="scale(0.015625)"/>
       <path id="CMSS17-72" d="M 954 1363 
C 954 1965 1395 2368 1958 2368 
L 1958 2789 
C 1549 2789 1165 2585 934 2253 
L 934 2758 
L 480 2758 
L 480 0 
L 954 0 
L 954 1363 
z
" transform="scale(0.015625)"/>
       <path id="CMSS17-63" d="M 2464 2541 
C 2464 2585 2170 2714 2093 2739 
C 1882 2816 1613 2816 1542 2816 
C 710 2816 211 2093 211 1363 
C 211 595 768 -64 1517 -64 
C 1946 -64 2253 76 2502 242 
L 2464 664 
C 2189 453 1869 337 1523 337 
C 1024 337 698 774 698 1369 
C 698 1831 909 2414 1549 2414 
C 1901 2414 2099 2343 2394 2145 
L 2464 2541 
z
" transform="scale(0.015625)"/>
       <path id="CMSS17-6e" d="M 2618 1877 
C 2618 2283 2522 2816 1798 2816 
C 1389 2816 1120 2606 941 2389 
L 941 2758 
L 474 2758 
L 474 0 
L 960 0 
L 960 1559 
C 960 1964 1114 2428 1549 2428 
C 2112 2428 2131 2048 2131 1829 
L 2131 0 
L 2618 0 
L 2618 1877 
z
" transform="scale(0.015625)"/>
       <path id="CMSS17-61" d="M 2406 1791 
C 2406 2392 1978 2808 1402 2808 
C 1120 2808 813 2757 461 2553 
L 499 2135 
C 659 2248 934 2432 1395 2432 
C 1722 2432 1920 2180 1920 1782 
L 1920 1536 
C 896 1536 256 1238 256 726 
C 256 461 416 -64 947 -64 
C 1043 -64 1562 -64 1933 217 
L 1933 -19 
L 2406 -19 
L 2406 1791 
z
M 1920 816 
C 1920 701 1920 548 1728 434 
C 1562 325 1350 325 1261 325 
C 941 325 723 511 723 744 
C 723 1211 1722 1211 1920 1211 
L 1920 816 
z
" transform="scale(0.015625)"/>
       <path id="CMSS17-67" d="M 2848 2808 
C 2483 2808 2170 2738 1914 2617 
C 1702 2777 1485 2808 1338 2808 
C 781 2808 358 2349 358 1814 
C 358 1468 550 1207 563 1195 
C 448 1035 384 863 384 672 
C 384 448 474 289 544 200 
C 211 -3 166 -314 166 -435 
C 166 -898 749 -1280 1498 -1280 
C 2253 -1280 2835 -898 2835 -428 
C 2835 448 1856 448 1587 448 
L 1069 448 
C 973 448 717 448 717 791 
C 717 921 774 1004 781 1010 
C 877 940 1075 832 1338 832 
C 1869 832 2310 1278 2310 1827 
C 2310 2132 2170 2355 2112 2432 
L 2131 2432 
C 2150 2432 2419 2432 2515 2432 
C 2720 2432 2739 2429 2918 2419 
L 2848 2808 
z
M 1338 1182 
C 1120 1182 813 1315 813 1823 
C 813 2375 1165 2464 1331 2464 
C 1549 2464 1856 2331 1856 1823 
C 1856 1271 1504 1182 1338 1182 
z
M 1581 -10 
C 1734 -10 2381 -10 2381 -442 
C 2381 -714 1984 -929 1504 -929 
C 1018 -929 621 -720 621 -435 
C 621 -403 621 -10 1062 -10 
L 1581 -10 
z
" transform="scale(0.015625)"/>
       <path id="CMSS17-45" d="M 1958 433 
C 1446 433 1216 433 1101 433 
L 1101 2107 
L 3085 2107 
L 3085 2496 
L 1101 2496 
L 1101 4009 
L 1926 4009 
C 2003 4009 2080 4009 2157 4009 
L 3251 4009 
L 3251 4416 
L 563 4416 
L 563 0 
L 3334 0 
L 3334 433 
L 1958 433 
z
" transform="scale(0.015625)"/>
       <path id="CMSS17-78" d="M 1587 1414 
L 2656 2739 
L 2099 2739 
L 1363 1777 
L 602 2739 
L 32 2739 
L 1139 1414 
L 0 0 
L 563 0 
L 1363 1121 
L 2195 0 
L 2758 0 
L 1587 1414 
z
" transform="scale(0.015625)"/>
       <path id="CMSS17-6c" d="M 947 4416 
L 474 4416 
L 474 0 
L 947 0 
L 947 4416 
z
" transform="scale(0.015625)"/>
       <path id="CMSS17-6f" d="M 2829 1356 
C 2829 2176 2221 2816 1504 2816 
C 768 2816 173 2157 173 1356 
C 173 544 787 -64 1498 -64 
C 2227 -64 2829 563 2829 1356 
z
M 1504 337 
C 1050 337 659 709 659 1408 
C 659 2151 1114 2427 1498 2427 
C 1914 2427 2342 2126 2342 1408 
C 2342 683 1926 337 1504 337 
z
" transform="scale(0.015625)"/>
       <path id="CMSS17-64" d="M 2611 4416 
L 2138 4416 
L 2138 2438 
C 1939 2603 1613 2756 1254 2756 
C 672 2756 211 2131 211 1347 
C 211 562 666 -64 1235 -64 
C 1677 -64 1971 172 2125 306 
L 2125 -13 
L 2611 -13 
L 2611 4416 
z
M 2125 836 
C 2125 747 2125 653 1926 482 
C 1798 375 1645 325 1498 325 
C 1152 325 698 576 698 1340 
C 698 2134 1210 2368 1562 2368 
C 1798 2368 1990 2254 2125 2065 
L 2125 836 
z
" transform="scale(0.015625)"/>
       <path id="CMSS17-28" d="M 1613 4768 
C 1267 4417 474 3601 474 1588 
C 474 -433 1267 -1243 1613 -1600 
L 2003 -1600 
C 1216 -784 960 357 960 1581 
C 960 2798 1203 3946 2003 4768 
L 1613 4768 
z
" transform="scale(0.015625)"/>
       <path id="CMSS17-25" d="M 3923 4583 
C 3962 4647 3962 4679 3962 4685 
C 3962 4755 3904 4800 3853 4800 
C 3782 4800 3750 4749 3718 4685 
L 1101 -104 
C 1088 -129 1062 -167 1062 -206 
C 1062 -276 1120 -320 1178 -320 
C 1235 -320 1248 -295 1299 -206 
L 3923 4583 
z
M 4678 959 
C 4678 1698 4282 2240 3846 2240 
C 3418 2240 3008 1711 3008 959 
C 3008 208 3418 -320 3846 -320 
C 4288 -320 4678 221 4678 959 
z
M 3846 68 
C 3712 68 3494 189 3494 959 
C 3494 1724 3712 1851 3846 1851 
C 4083 1851 4211 1386 4211 959 
C 4211 533 4083 68 3846 68 
z
M 2003 3519 
C 2003 4258 1606 4800 1171 4800 
C 742 4800 333 4271 333 3519 
C 333 2768 742 2240 1171 2240 
C 1613 2240 2003 2781 2003 3519 
z
M 1171 2628 
C 1037 2628 819 2749 819 3519 
C 819 4284 1037 4411 1171 4411 
C 1408 4411 1536 3946 1536 3519 
C 1536 3093 1408 2628 1171 2628 
z
" transform="scale(0.015625)"/>
       <path id="CMSS17-29" d="M 723 -1600 
C 1069 -1249 1862 -433 1862 1581 
C 1862 3601 1069 4411 723 4768 
L 333 4768 
C 1120 3952 1376 2811 1376 1588 
C 1376 370 1133 -778 333 -1600 
L 723 -1600 
z
" transform="scale(0.015625)"/>
      </defs>
      <use xlink:href="#CMSS17-50" transform="scale(0.996264)"/>
      <use xlink:href="#CMSS17-65" transform="translate(57.133132 0) scale(0.996264)"/>
      <use xlink:href="#CMSS17-72" transform="translate(98.771954 0) scale(0.996264)"/>
      <use xlink:href="#CMSS17-63" transform="translate(130.681727 0) scale(0.996264)"/>
      <use xlink:href="#CMSS17-65" transform="translate(172.320549 0) scale(0.996264)"/>
      <use xlink:href="#CMSS17-6e" transform="translate(213.959371 0) scale(0.996264)"/>
      <use xlink:href="#CMSS17-74" transform="translate(262.164314 0) scale(0.996264)"/>
      <use xlink:href="#CMSS17-61" transform="translate(295.995881 0) scale(0.996264)"/>
      <use xlink:href="#CMSS17-67" transform="translate(340.917802 0) scale(0.996264)"/>
      <use xlink:href="#CMSS17-65" transform="translate(387.761425 0) scale(0.996264)"/>
      <use xlink:href="#CMSS17-45" transform="translate(460.62936 0) scale(0.996264)"/>
      <use xlink:href="#CMSS17-78" transform="translate(516.521373 0) scale(0.996264)"/>
      <use xlink:href="#CMSS17-70" transform="translate(559.521515 0) scale(0.996264)"/>
      <use xlink:href="#CMSS17-6c" transform="translate(607.726458 0) scale(0.996264)"/>
      <use xlink:href="#CMSS17-6f" transform="translate(629.907181 0) scale(0.996264)"/>
      <use xlink:href="#CMSS17-72" transform="translate(674.148351 0) scale(0.996264)"/>
      <use xlink:href="#CMSS17-65" transform="translate(706.058123 0) scale(0.996264)"/>
      <use xlink:href="#CMSS17-64" transform="translate(747.696945 0) scale(0.996264)"/>
      <use xlink:href="#CMSS17-28" transform="translate(827.131001 0) scale(0.996264)"/>
      <use xlink:href="#CMSS17-25" transform="translate(863.564915 0) scale(0.996264)"/>
      <use xlink:href="#CMSS17-29" transform="translate(941.637652 0) scale(0.996264)"/>
     </g>
    </g>
   </g>
   <g id="PolyCollection_1">
    <defs>
     <path id="m278c479abf" d="M 111.151132 -107.435345 
L 111.151132 -100.432213 
L 116.758914 -131.856524 
L 122.366695 -142.630573 
L 127.974476 -171.720507 
L 133.582258 -176.389261 
L 139.190039 -179.082774 
L 144.79782 -186.983743 
L 150.405602 -195.423415 
L 156.013383 -206.736167 
L 161.621164 -214.996271 
L 167.228946 -232.773453 
L 172.836727 -239.597017 
L 178.444508 -246.779717 
L 184.052289 -251.448472 
L 189.660071 -256.296794 
L 195.267852 -259.349441 
L 200.875633 -259.349441 
L 206.483415 -258.451604 
L 212.091196 -255.937659 
L 217.698977 -258.092469 
L 223.306759 -258.092469 
L 228.91454 -256.476361 
L 234.522321 -255.937659 
L 240.130103 -251.448472 
L 245.737884 -244.265772 
L 251.345665 -241.392692 
L 256.953447 -248.575392 
L 262.561228 -248.575392 
L 268.169009 -235.8261 
L 273.776791 -223.076808 
L 279.384572 -229.541238 
L 284.992353 -245.702312 
L 290.600134 -265.813871 
L 296.207916 -292.210292 
L 301.815697 -279.461 
L 307.423478 -279.999703 
L 313.03126 -294.365102 
L 318.639041 -290.055482 
L 324.246822 -288.08024 
L 329.854604 -291.851157 
L 335.462385 -290.594184 
L 341.070166 -290.414617 
L 346.677948 -285.745862 
L 352.285729 -271.380463 
L 357.89351 -262.761224 
L 363.501292 -272.457868 
L 369.109073 -272.278301 
L 374.716854 -262.222521 
L 380.324635 -259.708576 
L 385.932417 -253.423714 
L 391.540198 -252.346309 
L 397.147979 -253.244147 
L 402.755761 -248.575392 
L 408.363542 -247.677554 
L 413.971323 -247.497987 
L 419.579105 -251.448472 
L 425.186886 -251.089337 
L 430.794667 -238.69918 
L 436.402449 -225.231618 
L 442.01023 -216.612379 
L 447.618011 -235.466965 
L 453.225793 -258.810739 
L 458.833574 -260.247279 
L 464.441355 -255.219389 
L 470.049137 -261.504251 
L 475.656918 -264.197763 
L 481.264699 -264.197763 
L 486.87248 -264.377331 
L 492.480262 -264.197763 
L 498.088043 -263.479494 
L 503.695824 -253.423714 
L 509.303606 -234.38956 
L 514.911387 -210.147949 
L 520.519168 -207.274869 
L 526.12695 -201.169575 
L 531.734731 -199.912602 
L 537.342512 -200.271737 
L 542.950294 -205.658762 
L 548.558075 -210.686652 
L 554.165856 -219.485459 
L 559.773638 -221.281134 
L 565.381419 -229.900373 
L 570.9892 -247.677554 
L 576.596981 -245.702312 
L 582.204763 -239.058315 
L 587.812544 -234.928263 
L 593.420325 -237.621775 
L 599.028107 -236.185235 
L 604.635888 -236.903505 
L 610.243669 -234.748695 
L 615.851451 -267.250411 
L 621.459232 -274.612678 
L 627.067013 -276.408353 
L 632.674795 -276.408353 
L 638.282576 -276.049218 
L 643.890357 -273.894408 
L 649.498139 -276.228785 
L 655.10592 -271.739598 
L 660.713701 -274.253543 
L 666.321482 -270.662193 
L 666.321482 -403.90127 
L 666.321482 -403.90127 
L 660.713701 -388.278899 
L 655.10592 -385.405819 
L 649.498139 -384.148846 
L 643.890357 -391.331546 
L 638.282576 -380.737064 
L 632.674795 -391.511113 
L 627.067013 -416.650562 
L 621.459232 -442.328713 
L 615.851451 -462.260704 
L 610.243669 -467.647729 
L 604.635888 -456.514544 
L 599.028107 -440.35347 
L 593.420325 -423.833261 
L 587.812544 -413.95705 
L 582.204763 -434.966446 
L 576.596981 -426.526774 
L 570.9892 -458.669354 
L 565.381419 -491.350637 
L 559.773638 -505.895604 
L 554.165856 -493.685015 
L 548.558075 -474.650861 
L 542.950294 -456.514544 
L 537.342512 -440.892173 
L 531.734731 -427.783746 
L 526.12695 -411.443105 
L 520.519168 -392.408951 
L 514.911387 -372.656527 
L 509.303606 -370.32215 
L 503.695824 -365.29426 
L 498.088043 -359.368533 
L 492.480262 -344.643999 
L 486.87248 -347.517079 
L 481.264699 -328.84206 
L 475.656918 -330.458167 
L 470.049137 -351.287996 
L 464.441355 -359.368533 
L 458.833574 -368.706042 
L 453.225793 -354.340643 
L 447.618011 -336.383894 
L 442.01023 -342.489189 
L 436.402449 -347.876213 
L 430.794667 -371.04042 
L 425.186886 -379.300524 
L 419.579105 -375.529607 
L 413.971323 -384.328414 
L 408.363542 -379.120957 
L 402.755761 -366.192097 
L 397.147979 -365.29426 
L 391.540198 -361.882478 
L 385.932417 -371.579122 
L 380.324635 -377.325282 
L 374.716854 -381.455334 
L 369.109073 -381.455334 
L 363.501292 -371.399555 
L 357.89351 -372.656527 
L 352.285729 -367.987772 
L 346.677948 -360.98464 
L 341.070166 -353.442806 
L 335.462385 -350.031023 
L 329.854604 -357.572858 
L 324.246822 -353.442806 
L 318.639041 -354.340643 
L 313.03126 -353.442806 
L 307.423478 -363.319018 
L 301.815697 -360.625505 
L 296.207916 -352.724536 
L 290.600134 -369.065177 
L 284.992353 -357.034155 
L 279.384572 -352.365401 
L 273.776791 -352.185833 
L 268.169009 -354.699778 
L 262.561228 -343.207459 
L 256.953447 -336.743029 
L 251.345665 -343.387026 
L 245.737884 -344.464431 
L 240.130103 -361.164208 
L 234.522321 -352.544968 
L 228.91454 -365.653395 
L 223.306759 -365.473827 
L 217.698977 -363.85772 
L 212.091196 -366.192097 
L 206.483415 -356.854588 
L 200.875633 -346.080539 
L 195.267852 -326.328115 
L 189.660071 -326.328115 
L 184.052289 -303.163909 
L 178.444508 -302.445639 
L 172.836727 -299.392991 
L 167.228946 -294.185534 
L 161.621164 -285.92543 
L 156.013383 -270.123491 
L 150.405602 -268.686951 
L 144.79782 -258.272036 
L 139.190039 -230.79821 
L 133.582258 -210.147949 
L 127.974476 -189.677255 
L 122.366695 -161.126025 
L 116.758914 -145.862788 
L 111.151132 -107.435345 
z
" style="stroke: #ffffff; stroke-opacity: 0.2"/>
    </defs>
    <g clip-path="url(#p4cb4dd8d25)">
     <use xlink:href="#m278c479abf" x="0" y="576" style="fill: #4c72b0; fill-opacity: 0.2; stroke: #ffffff; stroke-opacity: 0.2"/>
    </g>
   </g>
   <g id="PolyCollection_2">
    <defs>
     <path id="m2bf1118d62" d="M 111.151132 -107.435345 
L 111.151132 -107.435345 
L 116.758914 -136.884414 
L 122.366695 -146.581058 
L 127.974476 -165.974347 
L 133.582258 -165.974347 
L 139.190039 -165.974347 
L 144.79782 -176.030126 
L 150.405602 -178.184936 
L 156.013383 -189.497688 
L 161.621164 -189.497688 
L 167.228946 -193.089038 
L 172.836727 -202.426547 
L 178.444508 -224.692916 
L 184.052289 -227.745563 
L 189.660071 -236.364803 
L 195.267852 -234.209993 
L 200.875633 -227.745563 
L 206.483415 -225.231618 
L 212.091196 -226.847726 
L 217.698977 -227.745563 
L 223.306759 -223.256376 
L 228.91454 -236.185235 
L 234.522321 -250.371067 
L 240.130103 -241.57226 
L 245.737884 -241.57226 
L 251.345665 -244.624907 
L 256.953447 -246.061447 
L 262.561228 -248.036689 
L 268.169009 -246.420582 
L 273.776791 -226.488591 
L 279.384572 -207.993139 
L 284.992353 -208.711409 
L 290.600134 -225.770321 
L 296.207916 -232.773453 
L 301.815697 -241.57226 
L 307.423478 -272.457868 
L 313.03126 -275.15138 
L 318.639041 -278.74273 
L 324.246822 -303.702611 
L 329.854604 -319.324983 
L 335.462385 -316.63147 
L 341.070166 -313.758391 
L 346.677948 -293.467264 
L 352.285729 -284.309322 
L 357.89351 -291.132887 
L 363.501292 -273.535273 
L 369.109073 -258.631171 
L 374.716854 -257.194631 
L 380.324635 -250.191499 
L 385.932417 -274.612678 
L 391.540198 -269.046086 
L 397.147979 -253.962417 
L 402.755761 -258.631171 
L 408.363542 -258.092469 
L 413.971323 -270.841761 
L 419.579105 -268.148248 
L 425.186886 -267.070843 
L 430.794667 -266.711708 
L 436.402449 -265.634303 
L 442.01023 -266.173006 
L 447.618011 -288.259807 
L 453.225793 -297.597316 
L 458.833574 -304.600449 
L 464.441355 -306.755258 
L 470.049137 -290.414617 
L 475.656918 -271.919166 
L 481.264699 -275.15138 
L 486.87248 -292.928562 
L 492.480262 -301.009099 
L 498.088043 -285.745862 
L 503.695824 -286.464132 
L 509.303606 -275.690083 
L 514.911387 -275.690083 
L 520.519168 -284.848025 
L 526.12695 -291.312454 
L 531.734731 -287.541537 
L 537.342512 -279.281433 
L 542.950294 -275.330948 
L 548.558075 -244.265772 
L 554.165856 -246.779717 
L 559.773638 -257.194631 
L 565.381419 -261.863386 
L 570.9892 -264.377331 
L 576.596981 -263.120359 
L 582.204763 -266.173006 
L 587.812544 -268.327816 
L 593.420325 -265.095601 
L 599.028107 -263.838629 
L 604.635888 -260.785981 
L 610.243669 -244.086205 
L 615.851451 -234.030425 
L 621.459232 -213.021029 
L 627.067013 -207.274869 
L 632.674795 -211.045787 
L 638.282576 -207.454437 
L 643.890357 -200.451305 
L 649.498139 -204.940492 
L 655.10592 -231.875615 
L 660.713701 -257.733334 
L 666.321482 -258.631171 
L 666.321482 -364.935125 
L 666.321482 -364.935125 
L 660.713701 -382.891874 
L 655.10592 -381.455334 
L 649.498139 -384.867116 
L 643.890357 -388.997169 
L 638.282576 -398.514245 
L 632.674795 -403.003433 
L 627.067013 -408.92916 
L 621.459232 -412.52051 
L 615.851451 -408.390457 
L 610.243669 -400.489488 
L 604.635888 -392.768086 
L 599.028107 -410.186132 
L 593.420325 -412.879645 
L 587.812544 -431.913798 
L 582.204763 -448.25444 
L 576.596981 -472.316484 
L 570.9892 -474.830428 
L 565.381419 -464.595081 
L 559.773638 -464.415514 
L 554.165856 -454.0006 
L 548.558075 -449.152277 
L 542.950294 -457.591949 
L 537.342512 -441.430875 
L 531.734731 -436.402986 
L 526.12695 -412.700077 
L 520.519168 -413.23878 
L 514.911387 -415.393589 
L 509.303606 -380.018794 
L 503.695824 -369.065177 
L 498.088043 -355.418048 
L 492.480262 -337.640867 
L 486.87248 -341.950486 
L 481.264699 -348.235348 
L 475.656918 -349.312753 
L 470.049137 -354.161076 
L 464.441355 -351.826698 
L 458.833574 -367.44907 
L 453.225793 -373.195229 
L 447.618011 -364.396422 
L 442.01023 -360.98464 
L 436.402449 -348.774051 
L 430.794667 -332.433409 
L 425.186886 -330.996869 
L 419.579105 -346.080539 
L 413.971323 -346.978376 
L 408.363542 -357.213723 
L 402.755761 -366.371665 
L 397.147979 -364.57599 
L 391.540198 -379.659659 
L 385.932417 -403.003433 
L 380.324635 -416.830129 
L 374.716854 -429.579421 
L 369.109073 -431.375096 
L 363.501292 -415.393589 
L 357.89351 -403.542135 
L 352.285729 -394.384193 
L 346.677948 -405.876513 
L 341.070166 -385.226251 
L 335.462385 -399.59165 
L 329.854604 -416.470994 
L 324.246822 -448.613575 
L 318.639041 -453.461897 
L 313.03126 -486.322748 
L 307.423478 -483.808803 
L 301.815697 -472.316484 
L 296.207916 -447.53617 
L 290.600134 -427.963314 
L 284.992353 -395.102463 
L 279.384572 -362.600748 
L 273.776791 -336.204327 
L 268.169009 -330.817302 
L 262.561228 -347.517079 
L 256.953447 -366.910367 
L 251.345665 -381.634901 
L 245.737884 -375.888742 
L 240.130103 -365.29426 
L 234.522321 -373.374797 
L 228.91454 -369.963015 
L 223.306759 -392.768086 
L 217.698977 -393.127221 
L 212.091196 -374.452202 
L 206.483415 -371.219987 
L 200.875633 -365.473827 
L 195.267852 -360.625505 
L 189.660071 -349.851456 
L 184.052289 -355.418048 
L 178.444508 -358.11156 
L 172.836727 -357.213723 
L 167.228946 -359.368533 
L 161.621164 -329.380762 
L 156.013383 -287.182402 
L 150.405602 -256.296794 
L 144.79782 -252.525877 
L 139.190039 -251.628039 
L 133.582258 -241.931395 
L 127.974476 -225.231618 
L 122.366695 -206.377032 
L 116.758914 -157.714242 
L 111.151132 -107.435345 
z
" style="stroke: #ffffff; stroke-opacity: 0.2"/>
    </defs>
    <g clip-path="url(#p4cb4dd8d25)">
     <use xlink:href="#m2bf1118d62" x="0" y="576" style="fill: #dd8452; fill-opacity: 0.2; stroke: #ffffff; stroke-opacity: 0.2"/>
    </g>
   </g>
   <g id="PolyCollection_3">
    <defs>
     <path id="md43b24b9dd" d="M 111.151132 -107.435345 
L 111.151132 -107.435345 
L 116.758914 -132.215659 
L 122.366695 -150.71111 
L 127.974476 -174.414019 
L 133.582258 -185.008501 
L 139.190039 -195.243848 
L 144.79782 -197.93736 
L 150.405602 -209.070544 
L 156.013383 -218.767189 
L 161.621164 -225.590753 
L 167.228946 -245.343177 
L 172.836727 -248.216257 
L 178.444508 -257.015064 
L 184.052289 -256.476361 
L 189.660071 -259.169874 
L 195.267852 -290.773752 
L 200.875633 -297.238182 
L 206.483415 -300.649964 
L 212.091196 -301.368234 
L 217.698977 -301.906936 
L 223.306759 -302.984341 
L 228.91454 -302.266071 
L 234.522321 -302.266071 
L 240.130103 -302.445639 
L 245.737884 -303.882179 
L 251.345665 -290.414617 
L 256.953447 -289.696347 
L 262.561228 -285.386727 
L 268.169009 -275.510515 
L 273.776791 -262.222521 
L 279.384572 -245.88188 
L 284.992353 -239.597017 
L 290.600134 -230.618643 
L 296.207916 -223.076808 
L 301.815697 -220.742431 
L 307.423478 -226.668158 
L 313.03126 -238.160478 
L 318.639041 -247.857122 
L 324.246822 -249.114094 
L 329.854604 -249.114094 
L 335.462385 -255.578524 
L 341.070166 -261.683819 
L 346.677948 -264.916033 
L 352.285729 -277.30619 
L 357.89351 -281.795377 
L 363.501292 -287.36197 
L 369.109073 -285.92543 
L 374.716854 -281.61581 
L 380.324635 -302.445639 
L 385.932417 -324.53244 
L 391.540198 -344.823566 
L 397.147979 -317.170173 
L 402.755761 -301.906936 
L 408.363542 -315.374498 
L 413.971323 -303.523044 
L 419.579105 -302.984341 
L 425.186886 -290.414617 
L 430.794667 -277.844893 
L 436.402449 -271.200896 
L 442.01023 -252.525877 
L 447.618011 -250.191499 
L 453.225793 -250.191499 
L 458.833574 -232.95302 
L 464.441355 -241.751827 
L 470.049137 -239.237882 
L 475.656918 -277.126623 
L 481.264699 -263.659061 
L 486.87248 -263.659061 
L 492.480262 -263.659061 
L 498.088043 -262.761224 
L 503.695824 -262.222521 
L 509.303606 -268.686951 
L 514.911387 -263.120359 
L 520.519168 -281.61581 
L 526.12695 -302.086504 
L 531.734731 -293.467264 
L 537.342512 -268.148248 
L 542.950294 -272.278301 
L 548.558075 -292.389859 
L 554.165856 -291.671589 
L 559.773638 -291.312454 
L 565.381419 -279.640568 
L 570.9892 -262.042954 
L 576.596981 -259.708576 
L 582.204763 -257.912901 
L 587.812544 -278.204028 
L 593.420325 -282.513647 
L 599.028107 -299.931694 
L 604.635888 -320.22282 
L 610.243669 -345.362269 
L 615.851451 -347.696646 
L 621.459232 -356.495453 
L 627.067013 -345.362269 
L 632.674795 -339.616109 
L 638.282576 -334.947354 
L 643.890357 -327.764655 
L 649.498139 -331.356004 
L 655.10592 -308.012231 
L 660.713701 -283.05235 
L 666.321482 -277.665325 
L 666.321482 -430.297691 
L 666.321482 -430.297691 
L 660.713701 -421.498884 
L 655.10592 -403.003433 
L 649.498139 -408.031322 
L 643.890357 -373.195229 
L 638.282576 -358.470695 
L 632.674795 -370.142582 
L 627.067013 -388.997169 
L 621.459232 -406.05608 
L 615.851451 -418.087102 
L 610.243669 -409.108727 
L 604.635888 -425.449369 
L 599.028107 -442.687848 
L 593.420325 -452.384492 
L 587.812544 -453.461897 
L 582.204763 -446.09963 
L 576.596981 -445.022225 
L 570.9892 -435.505148 
L 565.381419 -446.8179 
L 559.773638 -471.418646 
L 554.165856 -469.622971 
L 548.558075 -456.514544 
L 542.950294 -454.359735 
L 537.342512 -436.582553 
L 531.734731 -428.861151 
L 526.12695 -431.554663 
L 520.519168 -415.034454 
L 514.911387 -400.669055 
L 509.303606 -401.207758 
L 503.695824 -388.997169 
L 498.088043 -378.582254 
L 492.480262 -361.70291 
L 486.87248 -327.585087 
L 481.264699 -359.5481 
L 475.656918 -385.046684 
L 470.049137 -416.111859 
L 464.441355 -420.601047 
L 458.833574 -418.087102 
L 453.225793 -427.604179 
L 447.618011 -430.297691 
L 442.01023 -441.430875 
L 436.402449 -455.796275 
L 430.794667 -454.359735 
L 425.186886 -425.988071 
L 419.579105 -394.743328 
L 413.971323 -401.02819 
L 408.363542 -387.201494 
L 402.755761 -401.926028 
L 397.147979 -404.439973 
L 391.540198 -407.133485 
L 385.932417 -385.046684 
L 380.324635 -395.102463 
L 374.716854 -388.458466 
L 369.109073 -384.507981 
L 363.501292 -393.127221 
L 357.89351 -381.994036 
L 352.285729 -397.257273 
L 346.677948 -424.910666 
L 341.070166 -438.378228 
L 335.462385 -440.892173 
L 329.854604 -443.406118 
L 324.246822 -442.867415 
L 318.639041 -428.681584 
L 313.03126 -426.526774 
L 307.423478 -406.77435 
L 301.815697 -376.966147 
L 296.207916 -375.709174 
L 290.600134 -373.913499 
L 284.992353 -378.941389 
L 279.384572 -381.275766 
L 273.776791 -381.096199 
L 268.169009 -381.994036 
L 262.561228 -365.473827 
L 256.953447 -366.910367 
L 251.345665 -366.7308 
L 245.737884 -362.780315 
L 240.130103 -365.114692 
L 234.522321 -366.910367 
L 228.91454 -359.727668 
L 223.306759 -348.594483 
L 217.698977 -342.489189 
L 212.091196 -336.024759 
L 206.483415 -330.458167 
L 200.875633 -320.402388 
L 195.267852 -318.427145 
L 189.660071 -318.247578 
L 184.052289 -309.628338 
L 178.444508 -288.08024 
L 172.836727 -276.049218 
L 167.228946 -269.046086 
L 161.621164 -268.148248 
L 156.013383 -255.758091 
L 150.405602 -253.064579 
L 144.79782 -236.54437 
L 139.190039 -217.510216 
L 133.582258 -197.21909 
L 127.974476 -181.776286 
L 122.366695 -173.516181 
L 116.758914 -157.355107 
L 111.151132 -107.435345 
z
" style="stroke: #ffffff; stroke-opacity: 0.2"/>
    </defs>
    <g clip-path="url(#p4cb4dd8d25)">
     <use xlink:href="#md43b24b9dd" x="0" y="576" style="fill: #55a868; fill-opacity: 0.2; stroke: #ffffff; stroke-opacity: 0.2"/>
    </g>
   </g>
   <g id="line2d_12">
    <path d="M 111.151132 468.564655 
L 116.758914 443.066071 
L 122.366695 421.158837 
L 127.974476 396.378524 
L 133.582258 369.443401 
L 139.190039 365.852051 
L 144.79782 354.539299 
L 150.405602 347.715734 
L 156.013383 335.505145 
L 161.621164 323.474123 
L 167.228946 321.319313 
L 172.836727 309.826994 
L 178.444508 295.82073 
L 184.052289 297.077702 
L 189.660071 282.173601 
L 195.267852 275.529604 
L 200.875633 275.709171 
L 206.483415 277.145711 
L 212.091196 268.167337 
L 217.698977 272.297389 
L 223.306759 270.501714 
L 228.91454 266.910364 
L 234.522321 273.913496 
L 240.130103 276.607009 
L 245.737884 290.07457 
L 251.345665 294.204623 
L 256.953447 298.69381 
L 262.561228 294.563758 
L 268.169009 294.563758 
L 273.776791 287.021923 
L 279.384572 269.603877 
L 284.992353 267.628634 
L 290.600134 263.498582 
L 296.207916 264.935122 
L 301.815697 259.009395 
L 307.423478 258.470692 
L 313.03126 258.111557 
L 318.639041 260.984637 
L 324.246822 269.603877 
L 329.854604 265.473824 
L 335.462385 249.31275 
L 341.070166 240.873078 
L 346.677948 255.956747 
L 352.285729 268.885607 
L 357.89351 292.768083 
L 363.501292 290.07457 
L 369.109073 274.990901 
L 374.716854 260.80507 
L 380.324635 244.105293 
L 385.932417 242.489186 
L 391.540198 232.433406 
L 397.147979 227.046382 
L 402.755761 242.489186 
L 408.363542 241.411781 
L 413.971323 230.637731 
L 419.579105 238.359133 
L 425.186886 235.126919 
L 430.794667 248.953615 
L 436.402449 251.647128 
L 442.01023 253.263235 
L 447.618011 259.727665 
L 453.225793 264.935122 
L 458.833574 257.572855 
L 464.441355 262.062042 
L 470.049137 272.656524 
L 475.656918 280.377926 
L 481.264699 271.579119 
L 486.87248 270.681281 
L 492.480262 273.913496 
L 498.088043 276.966144 
L 503.695824 276.786576 
L 509.303606 279.480088 
L 514.911387 287.021923 
L 520.519168 290.613273 
L 526.12695 251.46756 
L 531.734731 259.36853 
L 537.342512 260.80507 
L 542.950294 253.083668 
L 548.558075 234.767784 
L 554.165856 216.631467 
L 559.773638 195.801638 
L 565.381419 193.108126 
L 570.9892 177.665322 
L 576.596981 171.919162 
L 582.204763 172.09873 
L 587.812544 209.448768 
L 593.420325 219.504547 
L 599.028107 205.498283 
L 604.635888 190.953316 
L 610.243669 187.002831 
L 615.851451 190.414614 
L 621.459232 189.696344 
L 627.067013 199.033853 
L 632.674795 206.755255 
L 638.282576 210.167038 
L 643.890357 214.835792 
L 649.498139 205.139148 
L 655.10592 226.148544 
L 660.713701 249.31275 
L 666.321482 276.427441 
" clip-path="url(#p4cb4dd8d25)" style="fill: none; stroke: #4c72b0; stroke-width: 1.5; stroke-linecap: round"/>
   </g>
   <g id="line2d_13">
    <path d="M 111.151132 468.564655 
L 116.758914 426.72543 
L 122.366695 410.384788 
L 127.974476 394.582849 
L 133.582258 378.601343 
L 139.190039 364.415511 
L 144.79782 361.183296 
L 150.405602 359.387621 
L 156.013383 359.208054 
L 161.621164 355.078001 
L 167.228946 348.254437 
L 172.836727 335.505145 
L 178.444508 310.724832 
L 184.052289 288.099328 
L 189.660071 303.901267 
L 195.267852 301.387322 
L 200.875633 288.817598 
L 206.483415 288.458463 
L 212.091196 289.3563 
L 217.698977 292.94765 
L 223.306759 267.449067 
L 228.91454 249.492318 
L 234.522321 237.640863 
L 240.130103 247.517075 
L 245.737884 273.913496 
L 251.345665 282.891871 
L 256.953447 279.839223 
L 262.561228 282.891871 
L 268.169009 255.77718 
L 273.776791 258.470692 
L 279.384572 261.882474 
L 284.992353 288.817598 
L 290.600134 293.66592 
L 296.207916 274.093064 
L 301.815697 254.34064 
L 307.423478 242.130051 
L 313.03126 237.102161 
L 318.639041 248.774048 
L 324.246822 238.897836 
L 329.854604 242.668753 
L 335.462385 228.662489 
L 341.070166 232.074271 
L 346.677948 228.123787 
L 352.285729 211.783145 
L 357.89351 214.835792 
L 363.501292 212.321847 
L 369.109073 216.811035 
L 374.716854 228.123787 
L 380.324635 225.609842 
L 385.932417 225.968977 
L 391.540198 229.201191 
L 397.147979 228.482921 
L 402.755761 237.461296 
L 408.363542 239.795673 
L 413.971323 247.15794 
L 419.579105 268.167337 
L 425.186886 276.247874 
L 430.794667 288.63803 
L 436.402449 283.430573 
L 442.01023 271.758686 
L 447.618011 262.600744 
L 453.225793 262.959879 
L 458.833574 262.062042 
L 464.441355 267.628634 
L 470.049137 262.241609 
L 475.656918 262.600744 
L 481.264699 258.111557 
L 486.87248 247.696643 
L 492.480262 254.161072 
L 498.088043 235.665621 
L 503.695824 235.486054 
L 509.303606 230.278596 
L 514.911387 236.563459 
L 520.519168 234.229081 
L 526.12695 242.309618 
L 531.734731 239.616106 
L 537.342512 232.253839 
L 542.950294 218.247575 
L 548.558075 231.356001 
L 554.165856 227.405517 
L 559.773638 227.046382 
L 565.381419 227.944219 
L 570.9892 220.941087 
L 576.596981 235.845189 
L 582.204763 218.786277 
L 587.812544 206.575688 
L 593.420325 203.882175 
L 599.028107 202.086501 
L 604.635888 201.009096 
L 610.243669 197.597313 
L 615.851451 208.371363 
L 621.459232 224.891572 
L 627.067013 222.018492 
L 632.674795 237.102161 
L 638.282576 244.464428 
L 643.890357 244.823563 
L 649.498139 255.597612 
L 655.10592 270.142579 
L 660.713701 274.631766 
L 666.321482 265.294257 
" clip-path="url(#p4cb4dd8d25)" style="fill: none; stroke: #dd8452; stroke-width: 1.5; stroke-linecap: round"/>
   </g>
   <g id="line2d_14">
    <path d="M 111.151132 468.564655 
L 116.758914 429.957644 
L 122.366695 413.0783 
L 127.974476 395.660254 
L 133.582258 385.604475 
L 139.190039 378.601343 
L 144.79782 366.211186 
L 150.405602 340.1739 
L 156.013383 332.632065 
L 161.621164 325.988068 
L 167.228946 319.523639 
L 172.836727 308.929157 
L 178.444508 305.696942 
L 184.052289 294.743325 
L 189.660071 281.814466 
L 195.267852 272.476956 
L 200.875633 261.343772 
L 206.483415 260.80507 
L 212.091196 257.752422 
L 217.698977 247.696643 
L 223.306759 243.925726 
L 228.91454 254.879342 
L 234.522321 251.108425 
L 240.130103 249.851453 
L 245.737884 244.823563 
L 251.345665 248.414913 
L 256.953447 243.027888 
L 262.561228 241.411781 
L 268.169009 239.436538 
L 273.776791 239.436538 
L 279.384572 238.718268 
L 284.992353 224.891572 
L 290.600134 233.331244 
L 296.207916 231.894704 
L 301.815697 223.634599 
L 307.423478 219.863682 
L 313.03126 222.018492 
L 318.639041 229.919461 
L 324.246822 231.356001 
L 329.854604 220.581952 
L 335.462385 201.547798 
L 341.070166 189.157641 
L 346.677948 195.442503 
L 352.285729 209.448768 
L 357.89351 208.012228 
L 363.501292 207.653093 
L 369.109073 206.39612 
L 374.716854 213.57882 
L 380.324635 215.913197 
L 385.932417 216.990602 
L 391.540198 219.863682 
L 397.147979 222.377627 
L 402.755761 226.687247 
L 408.363542 230.996866 
L 413.971323 260.0868 
L 419.579105 268.167337 
L 425.186886 268.706039 
L 430.794667 267.269499 
L 436.402449 278.043549 
L 442.01023 287.021923 
L 447.618011 285.944518 
L 453.225793 268.706039 
L 458.833574 259.009395 
L 464.441355 270.681281 
L 470.049137 282.173601 
L 475.656918 278.402684 
L 481.264699 272.297389 
L 486.87248 255.956747 
L 492.480262 270.681281 
L 498.088043 274.093064 
L 503.695824 265.832959 
L 509.303606 261.164205 
L 514.911387 263.857717 
L 520.519168 235.486054 
L 526.12695 193.826396 
L 531.734731 179.101862 
L 537.342512 190.235046 
L 542.950294 181.974942 
L 548.558075 179.101862 
L 554.165856 181.256672 
L 559.773638 197.597313 
L 565.381419 190.773749 
L 570.9892 204.061743 
L 576.596981 178.922294 
L 582.204763 167.78911 
L 587.812544 175.330945 
L 593.420325 207.473525 
L 599.028107 203.52304 
L 604.635888 186.643697 
L 610.243669 190.235046 
L 615.851451 209.089633 
L 621.459232 217.17017 
L 627.067013 213.57882 
L 632.674795 229.201191 
L 638.282576 226.687247 
L 643.890357 211.244443 
L 649.498139 207.293958 
L 655.10592 211.962712 
L 660.713701 200.829528 
L 666.321482 202.804771 
" clip-path="url(#p4cb4dd8d25)" style="fill: none; stroke: #55a868; stroke-width: 1.5; stroke-linecap: round"/>
   </g>
   <g id="patch_3">
    <path d="M 83.392615 495.840956 
L 83.392615 49.831226 
" style="fill: none; stroke: #cccccc; stroke-width: 1.25; stroke-linejoin: miter; stroke-linecap: square"/>
   </g>
   <g id="patch_4">
    <path d="M 694.08 495.840956 
L 694.08 49.831226 
" style="fill: none; stroke: #cccccc; stroke-width: 1.25; stroke-linejoin: miter; stroke-linecap: square"/>
   </g>
   <g id="patch_5">
    <path d="M 83.392615 495.840956 
L 694.08 495.840956 
" style="fill: none; stroke: #cccccc; stroke-width: 1.25; stroke-linejoin: miter; stroke-linecap: square"/>
   </g>
   <g id="patch_6">
    <path d="M 83.392615 49.831226 
L 694.08 49.831226 
" style="fill: none; stroke: #cccccc; stroke-width: 1.25; stroke-linejoin: miter; stroke-linecap: square"/>
   </g>
   <g id="text_14">
    <!-- Percentage Explored (\%) vs Step -->
    <g style="fill: #262626" transform="translate(233.316279 43.831226) scale(0.24 -0.24)">
     <defs>
      <path id="CMSS17-76" d="M 2675 2752 
L 2176 2752 
L 1747 1556 
C 1613 1165 1421 627 1389 352 
L 1382 352 
C 1370 468 1318 634 1286 749 
C 1248 890 1197 1056 1158 1172 
L 595 2752 
L 83 2752 
L 1094 0 
L 1664 0 
L 2675 2752 
z
" transform="scale(0.015625)"/>
      <path id="CMSS17-73" d="M 2061 2627 
C 1683 2807 1389 2807 1197 2807 
C 742 2807 198 2648 198 2003 
C 198 1359 902 1218 1094 1179 
C 1389 1122 1715 1058 1715 740 
C 1715 337 1254 337 1171 337 
C 915 337 563 407 243 638 
L 166 210 
C 531 0 883 -64 1178 -64 
C 1965 -64 2163 416 2163 781 
C 2163 1094 1984 1305 1862 1401 
C 1651 1568 1574 1587 1050 1696 
C 960 1709 646 1779 646 2066 
C 646 2432 1050 2432 1139 2432 
C 1555 2432 1811 2303 1984 2208 
L 2061 2627 
z
" transform="scale(0.015625)"/>
     </defs>
     <use xlink:href="#CMSS17-50" transform="scale(0.996264)"/>
     <use xlink:href="#CMSS17-65" transform="translate(57.133132 0) scale(0.996264)"/>
     <use xlink:href="#CMSS17-72" transform="translate(98.771954 0) scale(0.996264)"/>
     <use xlink:href="#CMSS17-63" transform="translate(130.681727 0) scale(0.996264)"/>
     <use xlink:href="#CMSS17-65" transform="translate(172.320549 0) scale(0.996264)"/>
     <use xlink:href="#CMSS17-6e" transform="translate(213.959371 0) scale(0.996264)"/>
     <use xlink:href="#CMSS17-74" transform="translate(262.164314 0) scale(0.996264)"/>
     <use xlink:href="#CMSS17-61" transform="translate(295.995881 0) scale(0.996264)"/>
     <use xlink:href="#CMSS17-67" transform="translate(340.917802 0) scale(0.996264)"/>
     <use xlink:href="#CMSS17-65" transform="translate(387.761425 0) scale(0.996264)"/>
     <use xlink:href="#CMSS17-45" transform="translate(460.62936 0) scale(0.996264)"/>
     <use xlink:href="#CMSS17-78" transform="translate(516.521373 0) scale(0.996264)"/>
     <use xlink:href="#CMSS17-70" transform="translate(559.521515 0) scale(0.996264)"/>
     <use xlink:href="#CMSS17-6c" transform="translate(607.726458 0) scale(0.996264)"/>
     <use xlink:href="#CMSS17-6f" transform="translate(629.907181 0) scale(0.996264)"/>
     <use xlink:href="#CMSS17-72" transform="translate(674.148351 0) scale(0.996264)"/>
     <use xlink:href="#CMSS17-65" transform="translate(706.058123 0) scale(0.996264)"/>
     <use xlink:href="#CMSS17-64" transform="translate(747.696945 0) scale(0.996264)"/>
     <use xlink:href="#CMSS17-28" transform="translate(827.131001 0) scale(0.996264)"/>
     <use xlink:href="#CMSS17-25" transform="translate(863.564915 0) scale(0.996264)"/>
     <use xlink:href="#CMSS17-29" transform="translate(941.637652 0) scale(0.996264)"/>
     <use xlink:href="#CMSS17-76" transform="translate(1009.300678 0) scale(0.996264)"/>
     <use xlink:href="#CMSS17-73" transform="translate(1052.30082 0) scale(0.996264)"/>
     <use xlink:href="#CMSS17-53" transform="translate(1119.443475 0) scale(0.996264)"/>
     <use xlink:href="#CMSS17-74" transform="translate(1171.491991 0) scale(0.996264)"/>
     <use xlink:href="#CMSS17-65" transform="translate(1205.323558 0) scale(0.996264)"/>
     <use xlink:href="#CMSS17-70" transform="translate(1246.96238 0) scale(0.996264)"/>
    </g>
   </g>
   <g id="legend_1">
    <g id="patch_7">
     <path d="M 285.14057 484.840956 
L 492.332045 484.840956 
Q 496.732045 484.840956 496.732045 480.440956 
L 496.732045 358.39623 
Q 496.732045 353.99623 492.332045 353.99623 
L 285.14057 353.99623 
Q 280.74057 353.99623 280.74057 358.39623 
L 280.74057 480.440956 
Q 280.74057 484.840956 285.14057 484.840956 
z
" style="fill: #ffffff; opacity: 0.8; stroke: #cccccc; stroke-linejoin: miter"/>
    </g>
    <g id="text_15">
     <!-- Noise -->
     <g style="fill: #262626" transform="translate(363.219728 379.400635) scale(0.24 -0.24)">
      <defs>
       <path id="CMSS17-4e" d="M 1466 4180 
L 1350 4416 
L 563 4416 
L 563 0 
L 1062 0 
L 1062 3926 
L 1069 3932 
C 1114 3817 1139 3760 1402 3194 
L 2771 236 
L 2886 0 
L 3674 0 
L 3674 4416 
L 3174 4416 
L 3174 490 
L 3168 483 
C 3123 598 3098 655 2835 1221 
L 1466 4180 
z
" transform="scale(0.015625)"/>
       <path id="CMSS17-69" d="M 979 4183 
L 442 4183 
L 442 3648 
L 979 3648 
L 979 4183 
z
M 947 2739 
L 474 2739 
L 474 0 
L 947 0 
L 947 2739 
z
" transform="scale(0.015625)"/>
      </defs>
      <use xlink:href="#CMSS17-4e" transform="scale(0.996264)"/>
      <use xlink:href="#CMSS17-6f" transform="translate(66.061519 0) scale(0.996264)"/>
      <use xlink:href="#CMSS17-69" transform="translate(112.905143 0) scale(0.996264)"/>
      <use xlink:href="#CMSS17-73" transform="translate(135.085866 0) scale(0.996264)"/>
      <use xlink:href="#CMSS17-65" transform="translate(170.999408 0) scale(0.996264)"/>
     </g>
    </g>
    <g id="line2d_15">
     <path d="M 289.54057 402.751393 
L 311.54057 402.751393 
L 333.54057 402.751393 
" style="fill: none; stroke: #4c72b0; stroke-width: 1.5; stroke-linecap: round"/>
    </g>
    <g id="text_16">
     <!-- None -->
     <g style="fill: #262626" transform="translate(351.14057 410.451393) scale(0.22 -0.22)">
      <use xlink:href="#CMSS17-4e" transform="scale(0.996264)"/>
      <use xlink:href="#CMSS17-6f" transform="translate(66.061519 0) scale(0.996264)"/>
      <use xlink:href="#CMSS17-6e" transform="translate(112.905143 0) scale(0.996264)"/>
      <use xlink:href="#CMSS17-65" transform="translate(161.110086 0) scale(0.996264)"/>
     </g>
    </g>
    <g id="line2d_16">
     <path d="M 289.54057 433.414581 
L 311.54057 433.414581 
L 333.54057 433.414581 
" style="fill: none; stroke: #dd8452; stroke-width: 1.5; stroke-linecap: round"/>
    </g>
    <g id="text_17">
     <!-- Gaussian -->
     <g style="fill: #262626" transform="translate(351.14057 441.114581) scale(0.22 -0.22)">
      <defs>
       <path id="CMSS17-47" d="M 3610 1856 
L 2336 1856 
L 2336 1461 
L 3123 1461 
L 3123 471 
C 2874 401 2618 350 2362 350 
C 1466 350 934 1301 934 2200 
C 934 3095 1491 4032 2362 4032 
C 2854 4032 3130 3881 3469 3627 
L 3552 4134 
C 3130 4351 2867 4440 2387 4440 
C 1146 4440 397 3324 397 2182 
C 397 1090 1152 -64 2349 -64 
C 2797 -64 3213 51 3610 248 
L 3610 1856 
z
" transform="scale(0.015625)"/>
       <path id="CMSS17-75" d="M 2618 2739 
L 2131 2739 
L 2131 972 
C 2131 498 1786 306 1421 306 
C 998 306 960 447 960 709 
L 960 2739 
L 474 2739 
L 474 678 
C 474 179 646 -64 1088 -64 
C 1306 -64 1798 -13 2144 306 
L 2144 0 
L 2618 0 
L 2618 2739 
z
" transform="scale(0.015625)"/>
      </defs>
      <use xlink:href="#CMSS17-47" transform="scale(0.996264)"/>
      <use xlink:href="#CMSS17-61" transform="translate(62.458226 0) scale(0.996264)"/>
      <use xlink:href="#CMSS17-75" transform="translate(107.380146 0) scale(0.996264)"/>
      <use xlink:href="#CMSS17-73" transform="translate(155.585089 0) scale(0.996264)"/>
      <use xlink:href="#CMSS17-73" transform="translate(191.498631 0) scale(0.996264)"/>
      <use xlink:href="#CMSS17-69" transform="translate(227.412173 0) scale(0.996264)"/>
      <use xlink:href="#CMSS17-61" transform="translate(249.592896 0) scale(0.996264)"/>
      <use xlink:href="#CMSS17-6e" transform="translate(294.514817 0) scale(0.996264)"/>
     </g>
    </g>
    <g id="line2d_17">
     <path d="M 289.54057 464.077768 
L 311.54057 464.077768 
L 333.54057 464.077768 
" style="fill: none; stroke: #55a868; stroke-width: 1.5; stroke-linecap: round"/>
    </g>
    <g id="text_18">
     <!-- Salt-and-pepper -->
     <g style="fill: #262626" transform="translate(351.14057 471.777768) scale(0.22 -0.22)">
      <defs>
       <path id="CMSS17-2d" d="M 1664 1216 
L 1664 1585 
L 64 1585 
L 64 1216 
L 1664 1216 
z
" transform="scale(0.015625)"/>
      </defs>
      <use xlink:href="#CMSS17-53" transform="scale(0.996264)"/>
      <use xlink:href="#CMSS17-61" transform="translate(52.048516 0) scale(0.996264)"/>
      <use xlink:href="#CMSS17-6c" transform="translate(96.970437 0) scale(0.996264)"/>
      <use xlink:href="#CMSS17-74" transform="translate(119.15116 0) scale(0.996264)"/>
      <use xlink:href="#CMSS17-2d" transform="translate(152.982727 0) scale(0.996264)"/>
      <use xlink:href="#CMSS17-61" transform="translate(184.211839 0) scale(0.996264)"/>
      <use xlink:href="#CMSS17-6e" transform="translate(229.13376 0) scale(0.996264)"/>
      <use xlink:href="#CMSS17-64" transform="translate(277.338703 0) scale(0.996264)"/>
      <use xlink:href="#CMSS17-2d" transform="translate(325.543646 0) scale(0.996264)"/>
      <use xlink:href="#CMSS17-70" transform="translate(356.772759 0) scale(0.996264)"/>
      <use xlink:href="#CMSS17-65" transform="translate(407.580141 0) scale(0.996264)"/>
      <use xlink:href="#CMSS17-70" transform="translate(449.218963 0) scale(0.996264)"/>
      <use xlink:href="#CMSS17-70" transform="translate(497.423906 0) scale(0.996264)"/>
      <use xlink:href="#CMSS17-65" transform="translate(548.231288 0) scale(0.996264)"/>
      <use xlink:href="#CMSS17-72" transform="translate(589.87011 0) scale(0.996264)"/>
     </g>
    </g>
   </g>
  </g>
 </g>
 <defs>
  <clipPath id="p4cb4dd8d25">
   <rect x="83.392615" y="49.831226" width="610.687385" height="446.00973"/>
  </clipPath>
 </defs>
</svg>
