<?xml version="1.0" encoding="utf-8" standalone="no"?>
<!DOCTYPE svg PUBLIC "-//W3C//DTD SVG 1.1//EN"
  "http://www.w3.org/Graphics/SVG/1.1/DTD/svg11.dtd">
<svg xmlns:xlink="http://www.w3.org/1999/xlink" width="720pt" height="576pt" viewBox="0 0 720 576" xmlns="http://www.w3.org/2000/svg" version="1.1">
 <metadata>
  <rdf:RDF xmlns:dc="http://purl.org/dc/elements/1.1/" xmlns:cc="http://creativecommons.org/ns#" xmlns:rdf="http://www.w3.org/1999/02/22-rdf-syntax-ns#">
   <cc:Work>
    <dc:type rdf:resource="http://purl.org/dc/dcmitype/StillImage"/>
    <dc:date>2025-04-26T11:14:08.349386</dc:date>
    <dc:format>image/svg+xml</dc:format>
    <dc:creator>
     <cc:Agent>
      <dc:title>Matplotlib v3.9.2, https://matplotlib.org/</dc:title>
     </cc:Agent>
    </dc:creator>
   </cc:Work>
  </rdf:RDF>
 </metadata>
 <defs>
  <style type="text/css">*{stroke-linejoin: round; stroke-linecap: butt}</style>
 </defs>
 <g id="figure_1">
  <g id="patch_1">
   <path d="M 0 576 
L 720 576 
L 720 0 
L 0 0 
z
" style="fill: #ffffff"/>
  </g>
  <g id="axes_1">
   <g id="patch_2">
    <path d="M 66.27864 513.338305 
L 702.72 513.338305 
L 702.72 17.28 
L 66.27864 17.28 
z
" style="fill: #ffffff"/>
   </g>
   <g id="matplotlib.axis_1">
    <g id="xtick_1">
     <g id="line2d_1">
      <path d="M 95.207792 513.338305 
L 95.207792 17.28 
" clip-path="url(#peec7992670)" style="fill: none; stroke: #cccccc; stroke-linecap: round"/>
     </g>
     <g id="text_1">
      <!-- $\mathdefault{0}$ -->
      <g style="fill: #262626" transform="translate(91.305799 533.907893) scale(0.16 -0.16)">
       <defs>
        <path id="CMR17-30" d="M 2688 2025 
C 2688 2416 2682 3080 2413 3591 
C 2176 4039 1798 4198 1466 4198 
C 1158 4198 768 4058 525 3597 
C 269 3118 243 2524 243 2025 
C 243 1661 250 1106 448 619 
C 723 -39 1216 -128 1466 -128 
C 1760 -128 2208 -7 2470 600 
C 2662 1042 2688 1559 2688 2025 
z
M 1466 -26 
C 1056 -26 813 325 723 812 
C 653 1188 653 1738 653 2096 
C 653 2588 653 2997 736 3387 
C 858 3929 1216 4096 1466 4096 
C 1728 4096 2067 3923 2189 3400 
C 2272 3036 2278 2607 2278 2096 
C 2278 1680 2278 1169 2202 792 
C 2067 95 1690 -26 1466 -26 
z
" transform="scale(0.015625)"/>
       </defs>
       <use xlink:href="#CMR17-30" transform="scale(0.996264)"/>
      </g>
     </g>
    </g>
    <g id="xtick_2">
     <g id="line2d_2">
      <path d="M 212.093258 513.338305 
L 212.093258 17.28 
" clip-path="url(#peec7992670)" style="fill: none; stroke: #cccccc; stroke-linecap: round"/>
     </g>
     <g id="text_2">
      <!-- $\mathdefault{200}$ -->
      <g style="fill: #262626" transform="translate(200.387278 533.907893) scale(0.16 -0.16)">
       <defs>
        <path id="CMR17-32" d="M 2669 989 
L 2554 989 
C 2490 536 2438 459 2413 420 
C 2381 369 1920 369 1830 369 
L 602 369 
C 832 619 1280 1072 1824 1597 
C 2214 1967 2669 2402 2669 3035 
C 2669 3790 2067 4224 1395 4224 
C 691 4224 262 3604 262 3030 
C 262 2780 448 2748 525 2748 
C 589 2748 781 2787 781 3010 
C 781 3207 614 3264 525 3264 
C 486 3264 448 3258 422 3245 
C 544 3790 915 4058 1306 4058 
C 1862 4058 2227 3617 2227 3035 
C 2227 2479 1901 2000 1536 1584 
L 262 146 
L 262 0 
L 2515 0 
L 2669 989 
z
" transform="scale(0.015625)"/>
       </defs>
       <use xlink:href="#CMR17-32" transform="scale(0.996264)"/>
       <use xlink:href="#CMR17-30" transform="translate(45.690477 0) scale(0.996264)"/>
       <use xlink:href="#CMR17-30" transform="translate(91.380954 0) scale(0.996264)"/>
      </g>
     </g>
    </g>
    <g id="xtick_3">
     <g id="line2d_3">
      <path d="M 328.978724 513.338305 
L 328.978724 17.28 
" clip-path="url(#peec7992670)" style="fill: none; stroke: #cccccc; stroke-linecap: round"/>
     </g>
     <g id="text_3">
      <!-- $\mathdefault{400}$ -->
      <g style="fill: #262626" transform="translate(317.272743 533.907893) scale(0.16 -0.16)">
       <defs>
        <path id="CMR17-34" d="M 2150 4122 
C 2150 4256 2144 4256 2029 4256 
L 128 1254 
L 128 1088 
L 1779 1088 
L 1779 457 
C 1779 224 1766 160 1318 160 
L 1197 160 
L 1197 0 
C 1402 0 1747 0 1965 0 
C 2182 0 2528 0 2733 0 
L 2733 160 
L 2611 160 
C 2163 160 2150 224 2150 457 
L 2150 1088 
L 2803 1088 
L 2803 1254 
L 2150 1254 
L 2150 4122 
z
M 1798 3703 
L 1798 1254 
L 256 1254 
L 1798 3703 
z
" transform="scale(0.015625)"/>
       </defs>
       <use xlink:href="#CMR17-34" transform="scale(0.996264)"/>
       <use xlink:href="#CMR17-30" transform="translate(45.690477 0) scale(0.996264)"/>
       <use xlink:href="#CMR17-30" transform="translate(91.380954 0) scale(0.996264)"/>
      </g>
     </g>
    </g>
    <g id="xtick_4">
     <g id="line2d_4">
      <path d="M 445.864189 513.338305 
L 445.864189 17.28 
" clip-path="url(#peec7992670)" style="fill: none; stroke: #cccccc; stroke-linecap: round"/>
     </g>
     <g id="text_4">
      <!-- $\mathdefault{600}$ -->
      <g style="fill: #262626" transform="translate(434.158209 533.907893) scale(0.16 -0.16)">
       <defs>
        <path id="CMR17-36" d="M 678 2176 
C 678 3690 1395 4032 1811 4032 
C 1946 4032 2272 4009 2400 3776 
C 2298 3776 2106 3776 2106 3553 
C 2106 3381 2246 3323 2336 3323 
C 2394 3323 2566 3348 2566 3560 
C 2566 3954 2246 4179 1805 4179 
C 1043 4179 243 3390 243 1984 
C 243 253 966 -128 1478 -128 
C 2099 -128 2688 427 2688 1283 
C 2688 2081 2170 2662 1517 2662 
C 1126 2662 838 2407 678 1960 
L 678 2176 
z
M 1478 25 
C 691 25 691 1200 691 1436 
C 691 1896 909 2560 1504 2560 
C 1613 2560 1926 2560 2138 2120 
C 2253 1870 2253 1609 2253 1289 
C 2253 944 2253 690 2118 434 
C 1978 171 1773 25 1478 25 
z
" transform="scale(0.015625)"/>
       </defs>
       <use xlink:href="#CMR17-36" transform="scale(0.996264)"/>
       <use xlink:href="#CMR17-30" transform="translate(45.690477 0) scale(0.996264)"/>
       <use xlink:href="#CMR17-30" transform="translate(91.380954 0) scale(0.996264)"/>
      </g>
     </g>
    </g>
    <g id="xtick_5">
     <g id="line2d_5">
      <path d="M 562.749655 513.338305 
L 562.749655 17.28 
" clip-path="url(#peec7992670)" style="fill: none; stroke: #cccccc; stroke-linecap: round"/>
     </g>
     <g id="text_5">
      <!-- $\mathdefault{800}$ -->
      <g style="fill: #262626" transform="translate(551.043674 533.907893) scale(0.16 -0.16)">
       <defs>
        <path id="CMR17-38" d="M 1741 2264 
C 2144 2467 2554 2773 2554 3263 
C 2554 3841 1990 4179 1472 4179 
C 890 4179 378 3759 378 3180 
C 378 3021 416 2747 666 2505 
C 730 2442 998 2251 1171 2130 
C 883 1983 211 1634 211 934 
C 211 279 838 -128 1459 -128 
C 2144 -128 2720 362 2720 1010 
C 2720 1590 2330 1857 2074 2029 
L 1741 2264 
z
M 902 2822 
C 851 2854 595 3051 595 3351 
C 595 3739 998 4032 1459 4032 
C 1965 4032 2336 3676 2336 3262 
C 2336 2669 1670 2331 1638 2331 
C 1632 2331 1626 2331 1574 2370 
L 902 2822 
z
M 2080 1519 
C 2176 1449 2483 1240 2483 851 
C 2483 381 2010 25 1472 25 
C 890 25 448 438 448 940 
C 448 1443 838 1862 1280 2060 
L 2080 1519 
z
" transform="scale(0.015625)"/>
       </defs>
       <use xlink:href="#CMR17-38" transform="scale(0.996264)"/>
       <use xlink:href="#CMR17-30" transform="translate(45.690477 0) scale(0.996264)"/>
       <use xlink:href="#CMR17-30" transform="translate(91.380954 0) scale(0.996264)"/>
      </g>
     </g>
    </g>
    <g id="xtick_6">
     <g id="line2d_6">
      <path d="M 679.635121 513.338305 
L 679.635121 17.28 
" clip-path="url(#peec7992670)" style="fill: none; stroke: #cccccc; stroke-linecap: round"/>
     </g>
     <g id="text_6">
      <!-- $\mathdefault{1000}$ -->
      <g style="fill: #262626" transform="translate(664.027147 533.907893) scale(0.16 -0.16)">
       <defs>
        <path id="CMR17-31" d="M 1702 4058 
C 1702 4192 1696 4192 1606 4192 
C 1357 3916 979 3827 621 3827 
C 602 3827 570 3827 563 3808 
C 557 3795 557 3782 557 3648 
C 755 3648 1088 3686 1344 3839 
L 1344 461 
C 1344 236 1331 160 781 160 
L 589 160 
L 589 0 
C 896 0 1216 0 1523 0 
C 1830 0 2150 0 2458 0 
L 2458 160 
L 2266 160 
C 1715 160 1702 230 1702 458 
L 1702 4058 
z
" transform="scale(0.015625)"/>
       </defs>
       <use xlink:href="#CMR17-31" transform="scale(0.996264)"/>
       <use xlink:href="#CMR17-30" transform="translate(45.690477 0) scale(0.996264)"/>
       <use xlink:href="#CMR17-30" transform="translate(91.380954 0) scale(0.996264)"/>
       <use xlink:href="#CMR17-30" transform="translate(137.071431 0) scale(0.996264)"/>
      </g>
     </g>
    </g>
    <g id="text_7">
     <!-- Step -->
     <g style="fill: #262626" transform="translate(366.743615 554.844366) scale(0.2 -0.2)">
      <defs>
       <path id="CMR17-53" d="M 2803 4290 
C 2803 4404 2797 4411 2758 4411 
C 2720 4411 2707 4385 2682 4328 
L 2490 3907 
C 2246 4257 1875 4416 1472 4416 
C 819 4416 294 3901 294 3253 
C 294 3056 339 2776 557 2510 
C 794 2218 1018 2167 1530 2033 
C 1722 1982 2042 1899 2106 1874 
C 2470 1722 2662 1341 2662 985 
C 2662 527 2336 38 1779 38 
C 1094 38 454 419 410 1311 
C 403 1413 397 1419 352 1419 
C 301 1419 294 1413 294 1285 
L 294 -1 
C 294 -115 301 -122 339 -122 
C 384 -122 397 -90 486 108 
C 493 127 493 140 614 381 
C 934 -39 1472 -128 1779 -128 
C 2477 -128 2970 451 2970 1124 
C 2970 1454 2848 1708 2778 1823 
C 2509 2230 2221 2306 1914 2382 
C 1869 2402 1856 2402 1498 2490 
C 1152 2579 1005 2624 845 2796 
C 666 2992 602 3196 602 3399 
C 602 3812 934 4263 1478 4263 
C 2157 4263 2579 3786 2675 2993 
C 2694 2878 2701 2872 2746 2872 
C 2803 2872 2803 2891 2803 2999 
L 2803 4290 
z
" transform="scale(0.015625)"/>
       <path id="CMR17-74" d="M 966 2560 
L 1862 2560 
L 1862 2725 
L 966 2725 
L 966 3904 
L 851 3904 
C 838 3245 614 2668 70 2668 
L 70 2560 
L 627 2560 
L 627 771 
C 627 650 627 -64 1370 -64 
C 1747 -64 1965 306 1965 777 
L 1965 1140 
L 1850 1140 
L 1850 783 
C 1850 344 1677 51 1408 51 
C 1222 51 966 178 966 758 
L 966 2560 
z
" transform="scale(0.015625)"/>
       <path id="CMR17-65" d="M 2438 1472 
C 2464 1498 2464 1511 2464 1576 
C 2464 2238 2118 2816 1389 2816 
C 710 2816 173 2169 173 1383 
C 173 551 781 -64 1459 -64 
C 2176 -64 2458 607 2458 740 
C 2458 784 2419 784 2406 784 
C 2362 784 2355 771 2330 696 
C 2189 265 1837 51 1504 51 
C 1229 51 954 203 781 480 
C 582 803 582 1176 582 1472 
L 2438 1472 
z
M 589 1568 
C 634 2505 1126 2714 1382 2714 
C 1818 2714 2112 2297 2118 1568 
L 589 1568 
z
" transform="scale(0.015625)"/>
       <path id="CMR17-70" d="M 1408 -1063 
C 998 -1063 973 -1037 973 -789 
L 973 402 
C 1158 134 1427 -38 1766 -38 
C 2406 -38 3053 523 3053 1388 
C 3053 2191 2496 2802 1837 2802 
C 1453 2802 1139 2592 960 2338 
L 960 2802 
L 198 2732 
L 198 2567 
C 576 2567 634 2528 634 2223 
L 634 -789 
C 634 -1031 608 -1063 198 -1063 
L 198 -1228 
C 352 -1216 634 -1216 800 -1216 
C 966 -1216 1254 -1216 1408 -1228 
L 1408 -1063 
z
M 973 2012 
C 973 2102 973 2235 1222 2471 
C 1254 2497 1472 2688 1792 2688 
C 2259 2688 2643 2108 2643 1382 
C 2643 656 2234 64 1728 64 
C 1498 64 1248 172 1056 472 
C 973 612 973 650 973 752 
L 973 2012 
z
" transform="scale(0.015625)"/>
      </defs>
      <use xlink:href="#CMR17-53" transform="scale(0.996264)"/>
      <use xlink:href="#CMR17-74" transform="translate(50.89537 0) scale(0.996264)"/>
      <use xlink:href="#CMR17-65" transform="translate(86.176138 0) scale(0.996264)"/>
      <use xlink:href="#CMR17-70" transform="translate(126.661798 0) scale(0.996264)"/>
     </g>
    </g>
   </g>
   <g id="matplotlib.axis_2">
    <g id="ytick_1">
     <g id="line2d_7">
      <path d="M 66.27864 498.430305 
L 702.72 498.430305 
" clip-path="url(#peec7992670)" style="fill: none; stroke: #cccccc; stroke-linecap: round"/>
     </g>
     <g id="text_8">
      <!-- $\mathdefault{0}$ -->
      <g style="fill: #262626" transform="translate(48.974653 503.9651) scale(0.16 -0.16)">
       <use xlink:href="#CMR17-30" transform="scale(0.996264)"/>
      </g>
     </g>
    </g>
    <g id="ytick_2">
     <g id="line2d_8">
      <path d="M 66.27864 400.480241 
L 702.72 400.480241 
" clip-path="url(#peec7992670)" style="fill: none; stroke: #cccccc; stroke-linecap: round"/>
     </g>
     <g id="text_9">
      <!-- $\mathdefault{5}$ -->
      <g style="fill: #262626" transform="translate(48.974653 406.015035) scale(0.16 -0.16)">
       <defs>
        <path id="CMR17-35" d="M 730 3692 
C 794 3666 1056 3584 1325 3584 
C 1920 3584 2246 3911 2432 4100 
C 2432 4157 2432 4192 2394 4192 
C 2387 4192 2374 4192 2323 4163 
C 2099 4058 1837 3973 1517 3973 
C 1325 3973 1037 3999 723 4139 
C 653 4171 640 4171 634 4171 
C 602 4171 595 4164 595 4037 
L 595 2203 
C 595 2089 595 2057 659 2057 
C 691 2057 704 2070 736 2114 
C 941 2401 1222 2522 1542 2522 
C 1766 2522 2246 2382 2246 1289 
C 2246 1085 2246 715 2054 421 
C 1894 159 1645 25 1370 25 
C 947 25 518 320 403 814 
C 429 807 480 795 506 795 
C 589 795 749 840 749 1038 
C 749 1210 627 1280 506 1280 
C 358 1280 262 1190 262 1011 
C 262 454 704 -128 1382 -128 
C 2042 -128 2669 440 2669 1264 
C 2669 2030 2170 2624 1549 2624 
C 1222 2624 947 2503 730 2274 
L 730 3692 
z
" transform="scale(0.015625)"/>
       </defs>
       <use xlink:href="#CMR17-35" transform="scale(0.996264)"/>
      </g>
     </g>
    </g>
    <g id="ytick_3">
     <g id="line2d_9">
      <path d="M 66.27864 302.530177 
L 702.72 302.530177 
" clip-path="url(#peec7992670)" style="fill: none; stroke: #cccccc; stroke-linecap: round"/>
     </g>
     <g id="text_10">
      <!-- $\mathdefault{10}$ -->
      <g style="fill: #262626" transform="translate(41.170666 308.064971) scale(0.16 -0.16)">
       <use xlink:href="#CMR17-31" transform="scale(0.996264)"/>
       <use xlink:href="#CMR17-30" transform="translate(45.690477 0) scale(0.996264)"/>
      </g>
     </g>
    </g>
    <g id="ytick_4">
     <g id="line2d_10">
      <path d="M 66.27864 204.580113 
L 702.72 204.580113 
" clip-path="url(#peec7992670)" style="fill: none; stroke: #cccccc; stroke-linecap: round"/>
     </g>
     <g id="text_11">
      <!-- $\mathdefault{15}$ -->
      <g style="fill: #262626" transform="translate(41.170666 210.114907) scale(0.16 -0.16)">
       <use xlink:href="#CMR17-31" transform="scale(0.996264)"/>
       <use xlink:href="#CMR17-35" transform="translate(45.690477 0) scale(0.996264)"/>
      </g>
     </g>
    </g>
    <g id="ytick_5">
     <g id="line2d_11">
      <path d="M 66.27864 106.630049 
L 702.72 106.630049 
" clip-path="url(#peec7992670)" style="fill: none; stroke: #cccccc; stroke-linecap: round"/>
     </g>
     <g id="text_12">
      <!-- $\mathdefault{20}$ -->
      <g style="fill: #262626" transform="translate(41.170666 112.164843) scale(0.16 -0.16)">
       <use xlink:href="#CMR17-32" transform="scale(0.996264)"/>
       <use xlink:href="#CMR17-30" transform="translate(45.690477 0) scale(0.996264)"/>
      </g>
     </g>
    </g>
    <g id="text_13">
     <!-- Percentage Explored (\%) -->
     <g style="fill: #262626" transform="translate(32.206022 365.188382) rotate(-90) scale(0.2 -0.2)">
      <defs>
       <path id="CMR17-50" d="M 1267 2042 
L 2291 2042 
C 3117 2042 3718 2578 3718 3184 
C 3718 3791 3130 4352 2291 4352 
L 333 4352 
L 333 4186 
C 774 4186 845 4186 845 3899 
L 845 446 
C 845 160 774 160 333 160 
L 333 0 
C 518 0 858 0 1056 0 
C 1254 0 1594 0 1779 0 
L 1779 160 
C 1338 160 1267 160 1267 446 
L 1267 2042 
z
M 1254 2176 
L 1254 3938 
C 1254 4155 1267 4186 1523 4186 
L 2170 4186 
C 2995 4186 3232 3714 3232 3184 
C 3232 2604 2950 2176 2170 2176 
L 1254 2176 
z
" transform="scale(0.015625)"/>
       <path id="CMR17-72" d="M 960 1497 
C 960 2112 1222 2688 1702 2688 
C 1747 2688 1792 2682 1837 2662 
C 1837 2662 1696 2617 1696 2452 
C 1696 2298 1818 2234 1914 2234 
C 1990 2234 2131 2279 2131 2458 
C 2131 2663 1926 2790 1709 2790 
C 1222 2790 1011 2317 947 2093 
L 941 2093 
L 941 2790 
L 198 2720 
L 198 2554 
C 576 2554 634 2515 634 2208 
L 634 428 
C 634 184 608 153 198 153 
L 198 -13 
C 352 0 646 0 813 0 
C 998 0 1325 0 1498 -13 
L 1498 153 
C 1037 153 960 153 960 440 
L 960 1497 
z
" transform="scale(0.015625)"/>
       <path id="CMR17-63" d="M 2234 2240 
C 2112 2240 1933 2240 1933 2017 
C 1933 1838 2080 1787 2163 1787 
C 2208 1787 2394 1807 2394 2024 
C 2394 2467 1958 2803 1466 2803 
C 787 2803 211 2178 211 1363 
C 211 516 813 -64 1466 -64 
C 2259 -64 2458 677 2458 748 
C 2458 774 2451 793 2406 793 
C 2362 793 2355 787 2330 703 
C 2163 180 1798 51 1523 51 
C 1114 51 621 427 621 1369 
C 621 2338 1094 2688 1472 2688 
C 1722 2688 2093 2573 2234 2240 
z
" transform="scale(0.015625)"/>
       <path id="CMR17-6e" d="M 2656 1933 
C 2656 2259 2592 2790 1837 2790 
C 1331 2790 1069 2400 973 2144 
L 966 2144 
L 966 2790 
L 211 2720 
L 211 2554 
C 589 2554 646 2515 646 2208 
L 646 428 
C 646 184 621 153 211 153 
L 211 -13 
C 365 0 646 0 813 0 
C 979 0 1267 0 1421 -13 
L 1421 153 
C 1011 153 986 178 986 428 
L 986 1658 
C 986 2247 1344 2688 1792 2688 
C 2266 2688 2317 2266 2317 1958 
L 2317 428 
C 2317 184 2291 153 1882 153 
L 1882 -13 
C 2035 0 2317 0 2483 0 
C 2650 0 2938 0 3091 -13 
L 3091 153 
C 2682 153 2656 178 2656 428 
L 2656 1933 
z
" transform="scale(0.015625)"/>
       <path id="CMR17-61" d="M 2304 1653 
C 2304 2072 2304 2294 2035 2543 
C 1798 2752 1523 2816 1306 2816 
C 800 2816 435 2407 435 1971 
C 435 1728 627 1728 666 1728 
C 749 1728 896 1778 896 1954 
C 896 2112 774 2181 666 2181 
C 640 2181 608 2174 589 2168 
C 723 2592 1069 2714 1293 2714 
C 1613 2714 1965 2429 1965 1885 
L 1965 1600 
C 1587 1600 1133 1549 774 1357 
C 371 1133 256 813 256 570 
C 256 77 832 -64 1171 -64 
C 1523 -64 1850 139 1990 511 
C 2003 233 2182 -18 2464 -18 
C 2598 -18 2938 70 2938 567 
L 2938 920 
L 2822 920 
L 2822 562 
C 2822 178 2650 128 2566 128 
C 2304 128 2304 458 2304 738 
L 2304 1653 
z
M 1965 870 
C 1965 317 1568 38 1216 38 
C 896 38 646 275 646 570 
C 646 761 730 1100 1101 1305 
C 1408 1478 1760 1504 1965 1504 
L 1965 870 
z
" transform="scale(0.015625)"/>
       <path id="CMR17-67" d="M 710 1164 
C 832 1068 1043 960 1299 960 
C 1805 960 2240 1357 2240 1888 
C 2240 2054 2189 2310 1997 2509 
C 2176 2692 2438 2752 2586 2752 
C 2611 2752 2650 2752 2682 2734 
C 2656 2728 2598 2703 2598 2605 
C 2598 2527 2656 2471 2739 2471 
C 2835 2471 2886 2533 2886 2614 
C 2886 2731 2790 2854 2586 2854 
C 2330 2854 2106 2738 1926 2580 
C 1734 2753 1504 2816 1299 2816 
C 794 2816 358 2419 358 1888 
C 358 1522 570 1292 634 1228 
C 442 1004 442 743 442 711 
C 442 545 506 302 723 168 
C 390 85 128 -169 128 -486 
C 128 -943 736 -1280 1466 -1280 
C 2170 -1280 2803 -956 2803 -479 
C 2803 384 1856 384 1363 384 
C 1216 384 954 384 922 391 
C 723 423 589 602 589 826 
C 589 883 589 1024 710 1164 
z
M 1299 1068 
C 736 1068 736 1760 736 1889 
C 736 2016 736 2708 1299 2708 
C 1862 2708 1862 2016 1862 1889 
C 1862 1760 1862 1068 1299 1068 
z
M 1466 -1171 
C 826 -1171 384 -835 384 -486 
C 384 -289 493 -105 634 -4 
C 794 104 858 104 1293 104 
C 1818 104 2547 104 2547 -486 
C 2547 -835 2106 -1171 1466 -1171 
z
" transform="scale(0.015625)"/>
       <path id="CMR17-45" d="M 3885 1615 
L 3770 1615 
C 3629 676 3546 166 2419 166 
L 1530 166 
C 1274 166 1261 197 1261 414 
L 1261 2176 
L 1862 2176 
C 2464 2176 2522 1960 2522 1430 
L 2637 1430 
L 2637 3081 
L 2522 3081 
C 2522 2557 2464 2342 1862 2342 
L 1261 2342 
L 1261 3913 
C 1261 4128 1274 4160 1530 4160 
L 2406 4160 
C 3398 4160 3514 3769 3603 2929 
L 3718 2929 
L 3565 4325 
L 326 4325 
L 326 4160 
C 768 4160 838 4160 838 3874 
L 838 451 
C 838 166 768 166 326 166 
L 326 0 
L 3654 0 
L 3885 1615 
z
" transform="scale(0.015625)"/>
       <path id="CMR17-78" d="M 1664 1477 
C 1856 1726 2074 2006 2253 2216 
C 2464 2458 2707 2560 2989 2560 
L 2989 2726 
C 2880 2726 2656 2726 2541 2726 
C 2368 2726 2170 2726 2022 2732 
L 2022 2566 
C 2112 2553 2163 2489 2163 2400 
C 2163 2285 2099 2215 2067 2171 
L 1594 1573 
L 1030 2306 
C 973 2376 973 2388 973 2420 
C 973 2497 1037 2560 1146 2560 
L 1146 2732 
C 992 2726 717 2726 557 2726 
C 384 2726 179 2726 38 2732 
L 38 2560 
C 384 2560 461 2534 614 2343 
L 1350 1395 
C 1363 1382 1395 1344 1395 1325 
C 1395 1299 838 619 768 530 
C 480 185 179 160 6 160 
L 6 0 
C 115 0 339 0 454 0 
C 582 0 864 0 979 -6 
L 979 160 
C 941 166 838 179 838 325 
C 838 440 890 510 947 586 
L 1478 1236 
L 2035 512 
C 2086 442 2163 346 2163 301 
C 2163 211 2086 160 1984 160 
L 1984 -6 
C 2138 0 2413 0 2573 0 
C 2746 0 2950 0 3091 -6 
L 3091 160 
C 2771 160 2675 172 2522 370 
L 1664 1477 
z
" transform="scale(0.015625)"/>
       <path id="CMR17-6c" d="M 979 4396 
L 218 4326 
L 218 4160 
C 595 4160 653 4122 653 3817 
L 653 426 
C 653 184 627 153 218 153 
L 218 -13 
C 371 0 653 0 813 0 
C 979 0 1261 0 1414 -13 
L 1414 153 
C 1005 153 979 178 979 426 
L 979 4396 
z
" transform="scale(0.015625)"/>
       <path id="CMR17-6f" d="M 2758 1356 
C 2758 2176 2163 2816 1466 2816 
C 768 2816 173 2176 173 1356 
C 173 551 768 -64 1466 -64 
C 2163 -64 2758 551 2758 1356 
z
M 1466 51 
C 1165 51 909 230 762 480 
C 602 767 582 1126 582 1408 
C 582 1677 595 2010 762 2298 
C 890 2509 1139 2714 1466 2714 
C 1754 2714 1997 2554 2150 2330 
C 2349 2029 2349 1607 2349 1408 
C 2349 1158 2336 775 2163 467 
C 1984 173 1709 51 1466 51 
z
" transform="scale(0.015625)"/>
       <path id="CMR17-64" d="M 1869 4326 
L 1869 4160 
C 2246 4160 2304 4122 2304 3820 
L 2304 2345 
C 2278 2377 2016 2790 1498 2790 
C 845 2790 211 2208 211 1364 
C 211 525 806 -64 1434 -64 
C 1978 -64 2259 337 2291 380 
L 2291 -63 
L 3066 -63 
L 3066 128 
C 2688 128 2630 166 2630 473 
L 2630 4396 
L 1869 4326 
z
M 2291 755 
C 2291 563 2176 390 2029 262 
C 1811 70 1594 38 1472 38 
C 1286 38 621 134 621 1356 
C 621 2612 1363 2688 1530 2688 
C 1824 2688 2061 2522 2208 2291 
C 2291 2157 2291 2138 2291 2023 
L 2291 755 
z
" transform="scale(0.015625)"/>
       <path id="CMR17-28" d="M 1958 -1561 
C 1958 -1555 1958 -1542 1939 -1523 
C 1645 -1224 858 -407 858 1581 
C 858 3569 1632 4379 1946 4697 
C 1946 4704 1958 4717 1958 4736 
C 1958 4755 1939 4768 1914 4768 
C 1843 4768 1299 4296 986 3594 
C 666 2887 576 2199 576 1588 
C 576 1128 621 351 1005 -471 
C 1312 -1135 1837 -1600 1914 -1600 
C 1946 -1600 1958 -1587 1958 -1561 
z
" transform="scale(0.015625)"/>
       <path id="CMR17-25" d="M 4640 959 
C 4640 1698 4275 2240 3846 2240 
C 3411 2240 2970 1736 2970 959 
C 2970 183 3405 -320 3846 -320 
C 4275 -320 4640 215 4640 959 
z
M 3853 -218 
C 3686 -218 3270 -66 3270 959 
C 3270 1991 3686 2138 3853 2138 
C 4205 2138 4525 1634 4525 959 
C 4525 285 4205 -218 3853 -218 
z
M 4083 4577 
C 4128 4647 4134 4653 4134 4685 
C 4134 4761 4077 4800 4026 4800 
C 3962 4800 3936 4756 3891 4706 
C 3520 4190 3008 4134 2746 4134 
C 2106 4134 1715 4494 1594 4607 
C 1510 4682 1389 4800 1171 4800 
C 736 4800 294 4296 294 3519 
C 294 2743 730 2240 1171 2240 
C 1600 2240 1965 2778 1965 3527 
C 1965 3969 1830 4270 1811 4308 
C 2202 4064 2586 4032 2752 4032 
C 3162 4032 3456 4183 3616 4289 
L 3622 4283 
L 858 -84 
C 800 -174 800 -187 800 -206 
C 800 -276 858 -320 915 -320 
C 973 -320 992 -289 1037 -218 
L 4083 4577 
z
M 1178 2342 
C 1011 2342 595 2494 595 3519 
C 595 4551 1011 4698 1178 4698 
C 1530 4698 1850 4194 1850 3519 
C 1850 2845 1530 2342 1178 2342 
z
" transform="scale(0.015625)"/>
       <path id="CMR17-29" d="M 1683 1581 
C 1683 2040 1638 2817 1254 3639 
C 947 4303 422 4768 346 4768 
C 326 4768 301 4761 301 4729 
C 301 4717 307 4710 314 4697 
C 621 4378 1402 3568 1402 1584 
C 1402 -407 627 -1217 314 -1537 
C 307 -1549 301 -1556 301 -1568 
C 301 -1600 326 -1600 346 -1600 
C 416 -1600 960 -1128 1274 -426 
C 1594 281 1683 969 1683 1581 
z
" transform="scale(0.015625)"/>
      </defs>
      <use xlink:href="#CMR17-50" transform="scale(0.996264)"/>
      <use xlink:href="#CMR17-65" transform="translate(59.983847 0) scale(0.996264)"/>
      <use xlink:href="#CMR17-72" transform="translate(100.469507 0) scale(0.996264)"/>
      <use xlink:href="#CMR17-63" transform="translate(135.750275 0) scale(0.996264)"/>
      <use xlink:href="#CMR17-65" transform="translate(176.235935 0) scale(0.996264)"/>
      <use xlink:href="#CMR17-6e" transform="translate(216.721596 0) scale(0.996264)"/>
      <use xlink:href="#CMR17-74" transform="translate(265.014512 0) scale(0.996264)"/>
      <use xlink:href="#CMR17-61" transform="translate(300.295279 0) scale(0.996264)"/>
      <use xlink:href="#CMR17-67" transform="translate(345.985757 0) scale(0.996264)"/>
      <use xlink:href="#CMR17-65" transform="translate(391.676234 0) scale(0.996264)"/>
      <use xlink:href="#CMR17-45" transform="translate(462.23786 0) scale(0.996264)"/>
      <use xlink:href="#CMR17-78" transform="translate(524.824161 0) scale(0.996264)"/>
      <use xlink:href="#CMR17-70" transform="translate(573.117077 0) scale(0.996264)"/>
      <use xlink:href="#CMR17-6c" transform="translate(624.012447 0) scale(0.996264)"/>
      <use xlink:href="#CMR17-6f" transform="translate(648.883505 0) scale(0.996264)"/>
      <use xlink:href="#CMR17-72" transform="translate(694.573982 0) scale(0.996264)"/>
      <use xlink:href="#CMR17-65" transform="translate(729.85475 0) scale(0.996264)"/>
      <use xlink:href="#CMR17-64" transform="translate(770.34041 0) scale(0.996264)"/>
      <use xlink:href="#CMR17-28" transform="translate(851.311747 0) scale(0.996264)"/>
      <use xlink:href="#CMR17-25" transform="translate(886.592514 0) scale(0.996264)"/>
      <use xlink:href="#CMR17-29" transform="translate(963.512104 0) scale(0.996264)"/>
     </g>
    </g>
   </g>
   <g id="PolyCollection_1">
    <defs>
     <path id="m1ca5da48a3" d="M 95.207792 -93.437605 
L 95.207792 -85.6016 
L 101.052066 -93.829405 
L 106.896339 -100.68591 
L 112.740612 -100.68591 
L 118.584886 -104.408012 
L 124.429159 -106.562914 
L 130.273432 -107.738314 
L 136.117705 -118.904622 
L 141.961979 -120.471823 
L 147.806252 -120.471823 
L 153.650525 -120.471823 
L 159.494799 -120.471823 
L 165.339072 -122.822624 
L 171.183345 -134.772532 
L 177.027618 -140.453636 
L 182.871892 -146.33064 
L 188.716165 -153.774845 
L 194.560438 -165.137052 
L 200.404712 -189.820468 
L 206.248985 -192.17127 
L 212.093258 -203.925277 
L 217.937531 -226.061992 
L 223.781805 -230.567695 
L 229.626078 -235.465198 
L 235.470351 -241.929902 
L 241.314624 -239.579101 
L 247.158898 -247.415106 
L 253.003171 -244.476604 
L 258.847444 -233.506197 
L 264.691718 -219.597288 
L 270.535991 -226.649692 
L 276.380264 -244.280704 
L 282.224537 -251.137208 
L 288.068811 -250.745408 
L 293.913084 -262.107616 
L 299.757357 -274.841124 
L 305.601631 -275.428824 
L 311.445904 -268.57232 
L 317.290177 -256.622412 
L 323.13445 -265.633818 
L 328.978724 -260.148614 
L 334.822997 -256.230612 
L 340.66727 -251.137208 
L 346.511544 -257.993713 
L 352.355817 -257.014212 
L 358.20009 -255.838811 
L 364.044363 -242.517603 
L 369.888637 -222.33989 
L 375.73291 -230.175895 
L 381.577183 -220.576788 
L 387.421457 -237.6201 
L 393.26573 -252.508509 
L 399.110003 -247.415106 
L 404.954276 -246.435605 
L 410.79855 -246.239705 
L 416.642823 -245.652005 
L 422.487096 -234.485697 
L 428.331369 -233.897997 
L 434.175643 -221.948089 
L 440.019916 -212.544883 
L 445.864189 -229.000494 
L 451.708463 -256.230612 
L 457.552736 -248.786407 
L 463.397009 -254.663411 
L 469.241282 -261.519915 
L 475.085556 -264.458417 
L 480.929829 -264.458417 
L 486.774102 -264.654317 
L 492.618376 -264.458417 
L 498.462649 -263.674817 
L 504.306922 -252.704409 
L 510.151195 -231.938996 
L 515.995469 -205.492478 
L 521.839742 -202.358076 
L 527.684015 -195.697472 
L 533.528289 -194.326171 
L 539.372562 -194.717971 
L 545.216835 -200.594975 
L 551.061108 -206.080179 
L 556.905382 -215.679285 
L 562.749655 -217.638286 
L 568.593928 -226.061992 
L 574.438201 -227.237393 
L 580.282475 -215.679285 
L 586.126748 -216.266986 
L 591.971021 -232.134896 
L 597.815295 -230.567695 
L 603.659568 -233.897997 
L 609.503841 -227.433293 
L 615.348114 -207.64738 
L 621.192388 -205.492478 
L 627.036661 -188.057367 
L 632.880934 -163.373951 
L 638.725208 -151.228143 
L 644.569481 -163.178051 
L 650.413754 -160.239549 
L 656.258027 -161.80675 
L 662.102301 -154.166645 
L 667.946574 -160.435449 
L 673.790847 -200.986776 
L 673.790847 -428.622725 
L 673.790847 -428.622725 
L 667.946574 -439.984932 
L 662.102301 -460.162645 
L 656.258027 -474.855155 
L 650.413754 -470.153552 
L 644.569481 -463.688848 
L 638.725208 -459.183145 
L 632.880934 -467.21505 
L 627.036661 -468.978151 
L 621.192388 -480.536259 
L 615.348114 -486.413263 
L 609.503841 -474.267455 
L 603.659568 -456.636443 
L 597.815295 -438.613631 
L 591.971021 -441.552133 
L 586.126748 -450.759439 
L 580.282475 -454.873342 
L 574.438201 -476.618256 
L 568.593928 -512.27208 
L 562.749655 -528.13999 
L 556.905382 -514.818781 
L 551.061108 -494.053368 
L 545.216835 -474.267455 
L 539.372562 -457.224143 
L 533.528289 -442.923434 
L 527.684015 -425.880123 
L 521.839742 -410.991713 
L 515.995469 -409.228612 
L 510.151195 -415.105616 
L 504.306922 -412.558914 
L 498.462649 -401.784407 
L 492.618376 -426.076023 
L 486.774102 -420.98262 
L 480.929829 -420.003119 
L 475.085556 -421.17852 
L 469.241282 -428.230924 
L 463.397009 -447.625037 
L 457.552736 -459.966745 
L 451.708463 -461.729846 
L 445.864189 -492.094366 
L 440.019916 -511.096679 
L 434.175643 -496.208269 
L 428.331369 -478.185457 
L 422.487096 -480.340359 
L 416.642823 -484.650161 
L 410.79855 -489.743565 
L 404.954276 -468.390451 
L 399.110003 -483.670661 
L 393.26573 -480.928059 
L 387.421457 -473.092054 
L 381.577183 -450.171739 
L 375.73291 -443.707035 
L 369.888637 -444.490635 
L 364.044363 -442.335734 
L 358.20009 -432.540727 
L 352.355817 -431.757127 
L 346.511544 -432.344827 
L 340.66727 -461.925747 
L 334.822997 -474.659255 
L 328.978724 -467.998651 
L 323.13445 -466.039649 
L 317.290177 -457.811844 
L 311.445904 -434.695629 
L 305.601631 -435.087429 
L 299.757357 -434.695629 
L 293.913084 -461.142146 
L 288.068811 -463.297047 
L 282.224537 -447.037337 
L 276.380264 -422.353921 
L 270.535991 -420.394919 
L 264.691718 -421.37442 
L 258.847444 -425.096522 
L 253.003171 -410.991713 
L 247.158898 -413.930215 
L 241.314624 -429.406325 
L 235.470351 -434.499729 
L 229.626078 -428.426825 
L 223.781805 -438.417731 
L 217.937531 -444.686535 
L 212.093258 -443.707035 
L 206.248985 -432.736627 
L 200.404712 -420.199019 
L 194.560438 -408.445012 
L 188.716165 -385.916497 
L 182.871892 -372.007588 
L 177.027618 -352.613475 
L 171.183345 -338.312766 
L 165.339072 -330.868561 
L 159.494799 -327.734159 
L 153.650525 -324.012056 
L 147.806252 -320.877654 
L 141.961979 -312.453949 
L 136.117705 -305.009744 
L 130.273432 -294.235237 
L 124.429159 -269.747721 
L 118.584886 -249.178207 
L 112.740612 -224.690691 
L 106.896339 -196.872873 
L 101.052066 -164.549352 
L 95.207792 -93.437605 
z
" style="stroke: #ffffff; stroke-opacity: 0.2"/>
    </defs>
    <g clip-path="url(#peec7992670)">
     <use xlink:href="#m1ca5da48a3" x="0" y="576" style="fill: #4c72b0; fill-opacity: 0.2; stroke: #ffffff; stroke-opacity: 0.2"/>
    </g>
   </g>
   <g id="PolyCollection_2">
    <defs>
     <path id="m26a4d2b859" d="M 95.207792 -93.437605 
L 95.207792 -85.2098 
L 101.052066 -108.717815 
L 106.896339 -128.895528 
L 112.740612 -143.000338 
L 118.584886 -157.301047 
L 124.429159 -157.301047 
L 130.273432 -168.271454 
L 136.117705 -170.622256 
L 141.961979 -182.963964 
L 147.806252 -182.963964 
L 153.650525 -186.881966 
L 159.494799 -197.068773 
L 165.339072 -216.071085 
L 171.183345 -210.585882 
L 177.027618 -207.45148 
L 182.871892 -215.287485 
L 188.716165 -222.92759 
L 194.560438 -214.307984 
L 200.404712 -214.112084 
L 206.248985 -220.772688 
L 212.093258 -219.793188 
L 217.937531 -201.574476 
L 223.781805 -219.793188 
L 229.626078 -233.897997 
L 235.470351 -226.061992 
L 241.314624 -221.164489 
L 247.158898 -207.05968 
L 253.003171 -199.615475 
L 258.847444 -207.05968 
L 264.691718 -204.904778 
L 270.535991 -203.141677 
L 276.380264 -203.925277 
L 282.224537 -191.387669 
L 288.068811 -211.761283 
L 293.913084 -227.629193 
L 299.757357 -237.424199 
L 305.601631 -232.134896 
L 311.445904 -237.032399 
L 317.290177 -240.950402 
L 323.13445 -254.663411 
L 328.978724 -259.169114 
L 334.822997 -260.736315 
L 340.66727 -248.002806 
L 346.511544 -243.693004 
L 352.355817 -229.784094 
L 358.20009 -220.576788 
L 364.044363 -220.576788 
L 369.888637 -234.289797 
L 375.73291 -249.178207 
L 381.577183 -270.139521 
L 387.421457 -269.747721 
L 393.26573 -253.29211 
L 399.110003 -258.385513 
L 404.954276 -257.797813 
L 410.79855 -248.002806 
L 416.642823 -232.918496 
L 422.487096 -212.348983 
L 428.331369 -208.626881 
L 434.175643 -182.768064 
L 440.019916 -181.396763 
L 445.864189 -180.809062 
L 451.708463 -177.87056 
L 457.552736 -177.87056 
L 463.397009 -202.358076 
L 469.241282 -200.790875 
L 475.085556 -199.027774 
L 480.929829 -203.141677 
L 486.774102 -218.030087 
L 492.618376 -215.287485 
L 498.462649 -219.205487 
L 504.306922 -231.938996 
L 510.151195 -241.342202 
L 515.995469 -233.310297 
L 521.839742 -232.722596 
L 527.684015 -231.547196 
L 533.528289 -214.112084 
L 539.372562 -209.214581 
L 545.216835 -210.194082 
L 551.061108 -242.713503 
L 556.905382 -245.456105 
L 562.749655 -256.818312 
L 568.593928 -261.911715 
L 574.438201 -259.169114 
L 580.282475 -263.283016 
L 586.126748 -266.613319 
L 591.971021 -256.034712 
L 597.815295 -250.941308 
L 603.659568 -251.529009 
L 609.503841 -260.736315 
L 615.348114 -242.517603 
L 621.192388 -231.547196 
L 627.036661 -208.626881 
L 632.880934 -202.358076 
L 638.725208 -206.471979 
L 644.569481 -202.553977 
L 650.413754 -194.913872 
L 656.258027 -199.811375 
L 662.102301 -209.606381 
L 667.946574 -216.658786 
L 673.790847 -229.392294 
L 673.790847 -456.636443 
L 673.790847 -456.636443 
L 667.946574 -448.212738 
L 662.102301 -441.552133 
L 656.258027 -431.169426 
L 650.413754 -424.704722 
L 644.569481 -432.344827 
L 638.725208 -444.294735 
L 632.880934 -466.43145 
L 627.036661 -470.937152 
L 621.192388 -458.791345 
L 615.348114 -443.707035 
L 609.503841 -405.50651 
L 603.659568 -423.725222 
L 597.815295 -426.663723 
L 591.971021 -447.429137 
L 586.126748 -465.256049 
L 580.282475 -491.506666 
L 574.438201 -494.249268 
L 568.593928 -483.08296 
L 562.749655 -482.88706 
L 556.905382 -471.524853 
L 551.061108 -466.235549 
L 545.216835 -475.442855 
L 539.372562 -457.811844 
L 533.528289 -452.32664 
L 527.684015 -462.905247 
L 521.839742 -458.595444 
L 515.995469 -438.025931 
L 510.151195 -428.230924 
L 504.306922 -416.281017 
L 498.462649 -387.875498 
L 492.618376 -389.050899 
L 486.774102 -387.679598 
L 480.929829 -397.278704 
L 475.085556 -409.620412 
L 469.241282 -419.807219 
L 463.397009 -411.775314 
L 457.552736 -409.620412 
L 451.708463 -416.868717 
L 445.864189 -415.889216 
L 440.019916 -424.117022 
L 434.175643 -454.481542 
L 428.331369 -487.000963 
L 422.487096 -501.301672 
L 416.642823 -513.25158 
L 410.79855 -512.076179 
L 404.954276 -487.392763 
L 399.110003 -491.114866 
L 393.26573 -507.178676 
L 387.421457 -485.629662 
L 381.577183 -490.331265 
L 375.73291 -487.588663 
L 369.888637 -486.021462 
L 364.044363 -489.547665 
L 358.20009 -490.723065 
L 352.355817 -495.228768 
L 346.511544 -496.404169 
L 340.66727 -481.90756 
L 334.822997 -467.41095 
L 328.978724 -484.258361 
L 323.13445 -496.600069 
L 317.290177 -487.196863 
L 311.445904 -473.875654 
L 305.601631 -506.786876 
L 299.757357 -504.044274 
L 293.913084 -491.506666 
L 288.068811 -464.472448 
L 282.224537 -479.948558 
L 276.380264 -480.928059 
L 270.535991 -479.948558 
L 264.691718 -463.688848 
L 258.847444 -429.406325 
L 253.003171 -438.809531 
L 247.158898 -456.636443 
L 241.314624 -464.668348 
L 235.470351 -451.54304 
L 229.626078 -468.586351 
L 223.781805 -480.732159 
L 217.937531 -493.661567 
L 212.093258 -499.146771 
L 206.248985 -513.25158 
L 200.404712 -512.66388 
L 194.560438 -497.77547 
L 188.716165 -477.010056 
L 182.871892 -461.142146 
L 177.027618 -451.93484 
L 171.183345 -439.984932 
L 165.339072 -426.663723 
L 159.494799 -423.529321 
L 153.650525 -393.164801 
L 147.806252 -343.210269 
L 141.961979 -329.88906 
L 136.117705 -312.258048 
L 130.273432 -290.513134 
L 124.429159 -264.458417 
L 118.584886 -240.166801 
L 112.740612 -221.948089 
L 106.896339 -201.378576 
L 101.052066 -148.289641 
L 95.207792 -93.437605 
z
" style="stroke: #ffffff; stroke-opacity: 0.2"/>
    </defs>
    <g clip-path="url(#peec7992670)">
     <use xlink:href="#m26a4d2b859" x="0" y="576" style="fill: #dd8452; fill-opacity: 0.2; stroke: #ffffff; stroke-opacity: 0.2"/>
    </g>
   </g>
   <g id="PolyCollection_3">
    <defs>
     <path id="m37690755c2" d="M 95.207792 -93.437605 
L 95.207792 -89.127802 
L 101.052066 -119.492322 
L 106.896339 -140.061836 
L 112.740612 -143.196238 
L 118.584886 -154.754345 
L 124.429159 -173.364857 
L 130.273432 -189.232768 
L 136.117705 -201.574476 
L 141.961979 -212.544883 
L 147.806252 -215.091585 
L 153.650525 -216.462886 
L 159.494799 -213.132583 
L 165.339072 -219.205487 
L 171.183345 -230.371795 
L 177.027618 -233.506197 
L 182.871892 -234.485697 
L 188.716165 -230.959495 
L 194.560438 -230.959495 
L 200.404712 -231.547196 
L 206.248985 -230.959495 
L 212.093258 -255.055211 
L 217.937531 -254.663411 
L 223.781805 -250.157708 
L 229.626078 -252.116709 
L 235.470351 -252.116709 
L 241.314624 -251.724909 
L 247.158898 -251.724909 
L 253.003171 -247.806906 
L 258.847444 -255.251111 
L 264.691718 -262.303516 
L 270.535991 -244.476604 
L 276.380264 -237.6201 
L 282.224537 -227.825093 
L 288.068811 -219.597288 
L 293.913084 -217.050586 
L 299.757357 -223.51529 
L 305.601631 -236.052899 
L 311.445904 -246.631505 
L 317.290177 -248.002806 
L 323.13445 -235.073398 
L 328.978724 -232.722596 
L 334.822997 -221.360389 
L 340.66727 -217.638286 
L 346.511544 -217.638286 
L 352.355817 -220.184988 
L 358.20009 -249.374107 
L 364.044363 -257.993713 
L 369.888637 -245.847905 
L 375.73291 -240.166801 
L 381.577183 -230.371795 
L 387.421457 -222.92759 
L 393.26573 -220.380888 
L 399.110003 -220.184988 
L 404.954276 -219.597288 
L 410.79855 -219.009587 
L 416.642823 -216.462886 
L 422.487096 -209.018681 
L 428.331369 -204.708878 
L 434.175643 -198.831874 
L 440.019916 -199.419575 
L 445.864189 -199.419575 
L 451.708463 -201.574476 
L 457.552736 -202.358076 
L 463.397009 -201.574476 
L 469.241282 -202.162176 
L 475.085556 -203.141677 
L 480.929829 -229.979995 
L 486.774102 -251.724909 
L 492.618376 -252.90031 
L 498.462649 -243.497103 
L 504.306922 -241.146302 
L 510.151195 -237.6201 
L 515.995469 -263.283016 
L 521.839742 -283.46073 
L 527.684015 -279.738627 
L 533.528289 -285.811531 
L 539.372562 -268.76822 
L 545.216835 -273.273923 
L 551.061108 -282.873029 
L 556.905382 -272.490322 
L 562.749655 -273.078023 
L 568.593928 -280.130427 
L 574.438201 -262.107616 
L 580.282475 -259.560914 
L 586.126748 -257.601913 
L 591.971021 -262.499416 
L 597.815295 -259.952714 
L 603.659568 -242.125802 
L 609.503841 -232.526696 
L 615.348114 -225.866092 
L 621.192388 -225.278391 
L 627.036661 -225.278391 
L 632.880934 -225.278391 
L 638.725208 -220.576788 
L 644.569481 -224.690691 
L 650.413754 -226.845592 
L 656.258027 -228.804594 
L 662.102301 -238.0119 
L 667.946574 -248.786407 
L 673.790847 -264.458417 
L 673.790847 -445.666036 
L 673.790847 -445.666036 
L 667.946574 -436.06693 
L 662.102301 -451.151239 
L 656.258027 -469.565852 
L 650.413754 -495.620569 
L 644.569481 -514.818781 
L 638.725208 -536.171895 
L 632.880934 -522.067086 
L 627.036661 -519.128584 
L 621.192388 -516.777783 
L 615.348114 -502.672973 
L 609.503841 -474.855155 
L 603.659568 -459.183145 
L 597.815295 -469.761752 
L 591.971021 -470.937152 
L 586.126748 -462.905247 
L 580.282475 -461.729846 
L 574.438201 -456.048743 
L 568.593928 -463.688848 
L 562.749655 -490.527165 
L 556.905382 -488.568164 
L 551.061108 -474.267455 
L 545.216835 -471.916653 
L 539.372562 -452.52254 
L 533.528289 -453.502041 
L 527.684015 -475.246955 
L 521.839742 -475.246955 
L 515.995469 -475.638756 
L 510.151195 -455.265142 
L 504.306922 -462.905247 
L 498.462649 -455.265142 
L 492.618376 -455.656942 
L 486.774102 -480.340359 
L 480.929829 -480.732159 
L 475.085556 -454.481542 
L 469.241282 -471.916653 
L 463.397009 -465.060149 
L 457.552736 -469.565852 
L 451.708463 -470.153552 
L 445.864189 -466.62735 
L 440.019916 -457.811844 
L 434.175643 -473.483854 
L 428.331369 -471.916653 
L 422.487096 -444.490635 
L 416.642823 -454.089741 
L 410.79855 -460.946246 
L 404.954276 -460.750346 
L 399.110003 -454.285642 
L 393.26573 -447.820937 
L 387.421457 -452.52254 
L 381.577183 -448.800438 
L 375.73291 -466.62735 
L 369.888637 -461.142146 
L 364.044363 -426.271923 
L 358.20009 -428.622725 
L 352.355817 -426.663723 
L 346.511544 -442.531634 
L 340.66727 -459.379045 
L 334.822997 -463.884748 
L 328.978724 -457.224143 
L 323.13445 -459.966745 
L 317.290177 -459.379045 
L 311.445904 -443.902935 
L 305.601631 -441.552133 
L 299.757357 -445.274236 
L 293.913084 -427.251424 
L 288.068811 -450.955339 
L 282.224537 -460.554446 
L 276.380264 -474.463355 
L 270.535991 -478.381357 
L 264.691718 -469.761752 
L 258.847444 -471.328953 
L 253.003171 -479.360858 
L 247.158898 -491.506666 
L 241.314624 -502.281173 
L 235.470351 -503.064774 
L 229.626078 -493.661567 
L 223.781805 -489.547665 
L 217.937531 -487.392763 
L 212.093258 -499.146771 
L 206.248985 -498.950871 
L 200.404712 -501.301672 
L 194.560438 -496.600069 
L 188.716165 -485.629662 
L 182.871892 -470.153552 
L 177.027618 -431.561227 
L 171.183345 -396.886904 
L 165.339072 -395.123803 
L 159.494799 -376.513291 
L 153.650525 -349.674973 
L 147.806252 -337.333265 
L 141.961979 -315.588351 
L 136.117705 -308.535946 
L 130.273432 -274.449324 
L 124.429159 -242.517603 
L 118.584886 -219.205487 
L 112.740612 -187.469667 
L 106.896339 -166.704253 
L 101.052066 -152.011743 
L 95.207792 -93.437605 
z
" style="stroke: #ffffff; stroke-opacity: 0.2"/>
    </defs>
    <g clip-path="url(#peec7992670)">
     <use xlink:href="#m37690755c2" x="0" y="576" style="fill: #55a868; fill-opacity: 0.2; stroke: #ffffff; stroke-opacity: 0.2"/>
    </g>
   </g>
   <g id="line2d_12">
    <path d="M 95.207792 482.562395 
L 101.052066 446.908572 
L 106.896339 426.534958 
L 112.740612 401.263842 
L 118.584886 382.94718 
L 124.429159 367.86287 
L 130.273432 355.129361 
L 136.117705 341.318402 
L 141.961979 328.584894 
L 147.806252 322.21814 
L 153.650525 310.072332 
L 159.494799 297.632674 
L 165.339072 284.899165 
L 171.183345 276.57341 
L 177.027618 271.088206 
L 182.871892 261.0973 
L 188.716165 248.461742 
L 194.560438 237.785185 
L 200.404712 232.887681 
L 206.248985 240.135986 
L 212.093258 240.233936 
L 217.937531 237.981085 
L 223.781805 236.120033 
L 229.626078 245.033489 
L 235.470351 243.956039 
L 241.314624 247.188391 
L 247.158898 264.525552 
L 253.003171 265.309153 
L 258.847444 263.350151 
L 264.691718 257.081347 
L 270.535991 261.0973 
L 276.380264 255.416196 
L 282.224537 254.338745 
L 288.068811 251.596144 
L 293.913084 247.188391 
L 299.757357 238.960585 
L 305.601631 240.919587 
L 311.445904 237.393384 
L 317.290177 246.30684 
L 323.13445 249.637142 
L 328.978724 237.785185 
L 334.822997 233.181532 
L 340.66727 224.757826 
L 346.511544 219.272622 
L 352.355817 219.468523 
L 358.20009 219.370572 
L 364.044363 227.892228 
L 369.888637 233.083581 
L 375.73291 230.047129 
L 381.577183 213.591519 
L 387.421457 213.297668 
L 393.26573 218.684922 
L 399.110003 231.02663 
L 404.954276 227.206578 
L 410.79855 218.782872 
L 416.642823 215.64847 
L 422.487096 221.427524 
L 428.331369 223.190625 
L 434.175643 225.051676 
L 440.019916 228.479928 
L 445.864189 235.238483 
L 451.708463 242.682688 
L 457.552736 249.343292 
L 463.397009 251.400243 
L 469.241282 251.008443 
L 475.085556 240.821637 
L 480.929829 242.290887 
L 486.774102 229.067629 
L 492.618376 235.630283 
L 498.462649 233.377432 
L 504.306922 231.41843 
L 510.151195 238.274935 
L 515.995469 240.625736 
L 521.839742 238.079035 
L 527.684015 239.940086 
L 533.528289 236.315934 
L 539.372562 231.02663 
L 545.216835 221.427524 
L 551.061108 219.958273 
L 556.905382 220.545973 
L 562.749655 227.598378 
L 568.593928 234.846683 
L 574.438201 235.630283 
L 580.282475 236.511834 
L 586.126748 236.805684 
L 591.971021 241.703187 
L 597.815295 231.51638 
L 603.659568 223.386525 
L 609.503841 228.969679 
L 615.348114 226.325027 
L 621.192388 219.566473 
L 627.036661 224.757826 
L 632.880934 219.664423 
L 638.725208 221.721374 
L 644.569481 219.076722 
L 650.413754 223.288575 
L 656.258027 231.41843 
L 662.102301 222.896775 
L 667.946574 224.268076 
L 673.790847 222.504975 
" clip-path="url(#peec7992670)" style="fill: none; stroke: #4c72b0; stroke-width: 2; stroke-linecap: round"/>
   </g>
   <g id="line2d_13">
    <path d="M 95.207792 482.562395 
L 101.052066 445.14547 
L 106.896339 426.730858 
L 112.740612 404.398244 
L 118.584886 386.767232 
L 124.429159 373.641924 
L 130.273432 369.723921 
L 136.117705 358.165813 
L 141.961979 351.015459 
L 147.806252 345.138455 
L 153.650525 327.605393 
L 159.494799 315.557536 
L 165.339072 295.379822 
L 171.183345 287.152017 
L 177.027618 265.505053 
L 182.871892 251.400243 
L 188.716165 234.356932 
L 194.560438 234.650782 
L 200.404712 230.34098 
L 206.248985 226.422977 
L 212.093258 230.14508 
L 217.937531 235.434383 
L 223.781805 231.908181 
L 229.626078 229.753279 
L 235.470351 219.566473 
L 241.314624 205.363713 
L 247.158898 203.404712 
L 253.003171 219.174672 
L 258.847444 237.001584 
L 264.691718 240.625736 
L 270.535991 221.231624 
L 276.380264 224.170126 
L 282.224537 226.129127 
L 288.068811 227.010677 
L 293.913084 227.402478 
L 299.757357 230.83073 
L 305.601631 226.716827 
L 311.445904 240.429836 
L 317.290177 238.176985 
L 323.13445 240.429836 
L 328.978724 228.969679 
L 334.822997 225.149626 
L 340.66727 219.860323 
L 346.511544 202.425211 
L 352.355817 199.68261 
L 358.20009 198.996959 
L 364.044363 202.914962 
L 369.888637 210.750967 
L 375.73291 220.252123 
L 381.577183 214.96282 
L 387.421457 210.359167 
L 393.26573 214.668969 
L 399.110003 226.814777 
L 404.954276 232.202031 
L 410.79855 229.459429 
L 416.642823 237.589284 
L 422.487096 244.347839 
L 428.331369 242.878588 
L 434.175643 245.62119 
L 440.019916 263.154251 
L 445.864189 259.725999 
L 451.708463 259.334199 
L 457.552736 262.468601 
L 463.397009 260.7055 
L 469.241282 249.637142 
L 475.085556 241.605237 
L 480.929829 251.889994 
L 486.774102 250.028943 
L 492.618376 246.20889 
L 498.462649 238.764685 
L 504.306922 234.650782 
L 510.151195 234.944633 
L 515.995469 236.511834 
L 521.839742 233.181532 
L 527.684015 225.639377 
L 533.528289 225.541427 
L 539.372562 221.525474 
L 545.216835 218.097222 
L 551.061108 232.202031 
L 556.905382 239.450336 
L 562.749655 226.031177 
L 568.593928 229.655329 
L 574.438201 232.593831 
L 580.282475 236.511834 
L 586.126748 242.486788 
L 591.971021 258.648548 
L 597.815295 262.566551 
L 603.659568 259.334199 
L 609.503841 251.400243 
L 615.348114 239.842136 
L 621.192388 229.459429 
L 627.036661 225.541427 
L 632.880934 221.721374 
L 638.725208 226.031177 
L 644.569481 230.92868 
L 650.413754 234.356932 
L 656.258027 243.956039 
L 662.102301 233.965132 
L 667.946574 236.413884 
L 673.790847 255.710046 
" clip-path="url(#peec7992670)" style="fill: none; stroke: #dd8452; stroke-width: 2; stroke-linecap: round"/>
   </g>
   <g id="line2d_14">
    <path d="M 95.207792 482.562395 
L 101.052066 448.867573 
L 106.896339 423.596456 
L 112.740612 403.908493 
L 118.584886 391.958586 
L 124.429159 378.441477 
L 130.273432 365.120268 
L 136.117705 345.530255 
L 141.961979 334.265998 
L 147.806252 323.491491 
L 153.650525 314.871885 
L 159.494799 307.13383 
L 165.339072 289.404868 
L 171.183345 281.177063 
L 177.027618 271.577957 
L 182.871892 267.562004 
L 188.716165 257.962898 
L 194.560438 252.575644 
L 200.404712 240.429836 
L 206.248985 234.552832 
L 212.093258 223.288575 
L 217.937531 224.659876 
L 223.781805 236.413884 
L 229.626078 238.372885 
L 235.470351 234.748733 
L 241.314624 236.120033 
L 247.158898 235.630283 
L 253.003171 231.02663 
L 258.847444 220.545973 
L 264.691718 225.737327 
L 270.535991 233.279482 
L 276.380264 230.43893 
L 282.224537 229.655329 
L 288.068811 231.61433 
L 293.913084 237.295434 
L 299.757357 227.108628 
L 305.601631 214.081269 
L 311.445904 224.170126 
L 317.290177 232.495881 
L 323.13445 228.675829 
L 328.978724 221.721374 
L 334.822997 227.304528 
L 340.66727 228.969679 
L 346.511544 227.402478 
L 352.355817 226.227077 
L 358.20009 224.561926 
L 364.044363 227.010677 
L 369.888637 234.944633 
L 375.73291 226.031177 
L 381.577183 239.254435 
L 387.421457 230.14508 
L 393.26573 227.892228 
L 399.110003 224.366026 
L 404.954276 224.268076 
L 410.79855 233.181532 
L 416.642823 251.106393 
L 422.487096 265.015302 
L 428.331369 262.174751 
L 434.175643 256.101847 
L 440.019916 251.302293 
L 445.864189 240.919587 
L 451.708463 247.384291 
L 457.552736 251.400243 
L 463.397009 228.186078 
L 469.241282 223.582425 
L 475.085556 230.53688 
L 480.929829 226.912727 
L 486.774102 229.459429 
L 492.618376 205.069863 
L 498.462649 199.78056 
L 504.306922 196.548207 
L 510.151195 198.605159 
L 515.995469 198.605159 
L 521.839742 189.397853 
L 527.684015 185.969601 
L 533.528289 181.757748 
L 539.372562 182.051598 
L 545.216835 184.010599 
L 551.061108 193.903556 
L 556.905382 204.776013 
L 562.749655 209.379666 
L 568.593928 210.848917 
L 574.438201 204.678063 
L 580.282475 196.940008 
L 586.126748 199.388759 
L 591.971021 209.085816 
L 597.815295 218.880822 
L 603.659568 229.165579 
L 609.503841 237.687234 
L 615.348114 228.381978 
L 621.192388 233.279482 
L 627.036661 223.190625 
L 632.880934 222.309074 
L 638.725208 229.361479 
L 644.569481 231.41843 
L 650.413754 239.744186 
L 656.258027 241.115487 
L 662.102301 244.445789 
L 667.946574 256.003896 
L 673.790847 263.056301 
" clip-path="url(#peec7992670)" style="fill: none; stroke: #55a868; stroke-width: 2; stroke-linecap: round"/>
   </g>
   <g id="patch_3">
    <path d="M 66.27864 513.338305 
L 66.27864 17.28 
" style="fill: none; stroke: #cccccc; stroke-width: 1.25; stroke-linejoin: miter; stroke-linecap: square"/>
   </g>
   <g id="patch_4">
    <path d="M 702.72 513.338305 
L 702.72 17.28 
" style="fill: none; stroke: #cccccc; stroke-width: 1.25; stroke-linejoin: miter; stroke-linecap: square"/>
   </g>
   <g id="patch_5">
    <path d="M 66.27864 513.338305 
L 702.72 513.338305 
" style="fill: none; stroke: #cccccc; stroke-width: 1.25; stroke-linejoin: miter; stroke-linecap: square"/>
   </g>
   <g id="patch_6">
    <path d="M 66.27864 17.28 
L 702.72 17.28 
" style="fill: none; stroke: #cccccc; stroke-width: 1.25; stroke-linejoin: miter; stroke-linecap: square"/>
   </g>
   <g id="legend_1">
    <g id="patch_7">
     <path d="M 288.647973 503.338305 
L 480.350667 503.338305 
Q 484.350667 503.338305 484.350667 499.338305 
L 484.350667 386.456242 
Q 484.350667 382.456242 480.350667 382.456242 
L 288.647973 382.456242 
Q 284.647973 382.456242 284.647973 386.456242 
L 284.647973 499.338305 
Q 284.647973 503.338305 288.647973 503.338305 
z
" style="fill: #ffffff; opacity: 0.8; stroke: #cccccc; stroke-linejoin: miter"/>
    </g>
    <g id="text_14">
     <!-- Noise -->
     <g style="fill: #262626" transform="translate(358.588809 407.060647) scale(0.24 -0.24)">
      <defs>
       <path id="CMR17-4e" d="M 1312 4250 
C 1267 4320 1261 4320 1139 4320 
L 326 4320 
L 326 4160 
L 448 4160 
C 704 4160 819 4129 838 4122 
L 838 610 
C 838 451 838 153 326 153 
L 326 -13 
C 474 0 742 0 902 0 
C 1062 0 1331 0 1478 -13 
L 1478 153 
C 966 153 966 451 966 610 
L 966 4033 
C 1011 3995 1011 3982 1056 3919 
L 3430 76 
C 3475 0 3494 0 3526 0 
C 3590 0 3590 19 3590 139 
L 3590 3705 
C 3590 3863 3590 4160 4102 4160 
L 4102 4326 
C 3955 4320 3686 4320 3526 4320 
C 3366 4320 3098 4320 2950 4326 
L 2950 4160 
C 3462 4160 3462 3862 3462 3703 
L 3462 763 
L 1312 4250 
z
" transform="scale(0.015625)"/>
       <path id="CMR17-69" d="M 992 3909 
C 992 4049 877 4170 730 4170 
C 589 4170 467 4056 467 3909 
C 467 3769 582 3648 730 3648 
C 870 3648 992 3763 992 3909 
z
M 243 2706 
L 243 2541 
C 602 2541 653 2502 653 2197 
L 653 427 
C 653 184 627 153 218 153 
L 218 -13 
C 371 0 646 0 806 0 
C 960 0 1222 0 1370 -13 
L 1370 153 
C 992 153 979 191 979 420 
L 979 2776 
L 243 2706 
z
" transform="scale(0.015625)"/>
       <path id="CMR17-73" d="M 1978 2697 
C 1978 2813 1971 2819 1933 2819 
C 1907 2819 1901 2813 1824 2717 
C 1805 2691 1747 2626 1728 2601 
C 1523 2819 1235 2819 1126 2819 
C 416 2819 160 2447 160 2076 
C 160 1498 813 1365 998 1325 
C 1402 1243 1542 1217 1677 1101 
C 1760 1025 1901 884 1901 654 
C 1901 384 1747 38 1158 38 
C 602 38 403 460 288 1021 
C 269 1110 269 1117 218 1117 
C 166 1117 160 1110 160 983 
L 160 63 
C 160 -51 166 -58 205 -58 
C 237 -58 243 -51 275 0 
C 314 57 410 211 448 276 
C 576 103 800 -64 1158 -64 
C 1792 -64 2131 283 2131 784 
C 2131 1112 1958 1285 1875 1362 
C 1683 1561 1459 1606 1190 1657 
C 838 1735 390 1825 390 2217 
C 390 2383 480 2737 1126 2737 
C 1811 2737 1850 2094 1862 1888 
C 1869 1856 1901 1849 1920 1849 
C 1978 1849 1978 1869 1978 1978 
L 1978 2697 
z
" transform="scale(0.015625)"/>
      </defs>
      <use xlink:href="#CMR17-4e" transform="scale(0.996264)"/>
      <use xlink:href="#CMR17-6f" transform="translate(69.07243 0) scale(0.996264)"/>
      <use xlink:href="#CMR17-69" transform="translate(114.762907 0) scale(0.996264)"/>
      <use xlink:href="#CMR17-73" transform="translate(139.633965 0) scale(0.996264)"/>
      <use xlink:href="#CMR17-65" transform="translate(175.435303 0) scale(0.996264)"/>
     </g>
    </g>
    <g id="line2d_15">
     <path d="M 292.647973 428.711404 
L 312.647973 428.711404 
L 332.647973 428.711404 
" style="fill: none; stroke: #4c72b0; stroke-width: 2; stroke-linecap: round"/>
    </g>
    <g id="text_15">
     <!-- None -->
     <g style="fill: #262626" transform="translate(348.647973 435.711404) scale(0.2 -0.2)">
      <use xlink:href="#CMR17-4e" transform="scale(0.996264)"/>
      <use xlink:href="#CMR17-6f" transform="translate(69.07243 0) scale(0.996264)"/>
      <use xlink:href="#CMR17-6e" transform="translate(114.762907 0) scale(0.996264)"/>
      <use xlink:href="#CMR17-65" transform="translate(165.658277 0) scale(0.996264)"/>
     </g>
    </g>
    <g id="line2d_16">
     <path d="M 292.647973 456.587038 
L 312.647973 456.587038 
L 332.647973 456.587038 
" style="fill: none; stroke: #dd8452; stroke-width: 2; stroke-linecap: round"/>
    </g>
    <g id="text_16">
     <!-- Gaussian -->
     <g style="fill: #262626" transform="translate(348.647973 463.587038) scale(0.2 -0.2)">
      <defs>
       <path id="CMR17-47" d="M 3974 1233 
C 3974 1473 3994 1505 4390 1505 
L 4390 1670 
C 4237 1664 3891 1664 3718 1664 
C 3539 1664 3040 1664 2797 1664 
L 2797 1505 
L 2989 1505 
C 3539 1505 3552 1434 3552 1201 
L 3552 774 
C 3552 63 2720 63 2522 63 
C 1862 63 781 511 781 2160 
C 781 3808 1843 4250 2464 4250 
C 3187 4250 3712 3626 3834 2741 
C 3846 2664 3846 2651 3904 2651 
C 3974 2651 3974 2664 3974 2779 
L 3974 4288 
C 3974 4402 3968 4409 3930 4409 
C 3904 4409 3898 4402 3853 4326 
L 3571 3791 
C 3258 4187 2874 4416 2381 4416 
C 1286 4416 294 3456 294 2148 
C 294 845 1267 -128 2394 -128 
C 2912 -128 3418 56 3616 417 
C 3725 158 3904 -20 3936 -20 
C 3968 -20 3974 -13 3974 100 
L 3974 1233 
z
" transform="scale(0.015625)"/>
       <path id="CMR17-75" d="M 1882 2693 
L 1882 2528 
C 2259 2528 2317 2489 2317 2186 
L 2317 1032 
C 2317 500 2029 38 1555 38 
C 1030 38 986 348 986 678 
L 986 2763 
L 211 2693 
L 211 2528 
C 467 2528 640 2528 646 2274 
L 646 1058 
C 646 633 646 361 813 183 
C 896 101 1056 -64 1517 -64 
C 2061 -64 2272 377 2323 506 
L 2330 506 
L 2330 -63 
L 3091 -63 
L 3091 128 
C 2714 128 2656 166 2656 473 
L 2656 2763 
L 1882 2693 
z
" transform="scale(0.015625)"/>
      </defs>
      <use xlink:href="#CMR17-47" transform="scale(0.996264)"/>
      <use xlink:href="#CMR17-61" transform="translate(72.355346 0) scale(0.996264)"/>
      <use xlink:href="#CMR17-75" transform="translate(118.045823 0) scale(0.996264)"/>
      <use xlink:href="#CMR17-73" transform="translate(168.941193 0) scale(0.996264)"/>
      <use xlink:href="#CMR17-73" transform="translate(204.74253 0) scale(0.996264)"/>
      <use xlink:href="#CMR17-69" transform="translate(240.543868 0) scale(0.996264)"/>
      <use xlink:href="#CMR17-61" transform="translate(265.414927 0) scale(0.996264)"/>
      <use xlink:href="#CMR17-6e" transform="translate(311.105404 0) scale(0.996264)"/>
     </g>
    </g>
    <g id="line2d_17">
     <path d="M 292.647973 484.462672 
L 312.647973 484.462672 
L 332.647973 484.462672 
" style="fill: none; stroke: #55a868; stroke-width: 2; stroke-linecap: round"/>
    </g>
    <g id="text_17">
     <!-- Salt-and-pepper -->
     <g style="fill: #262626" transform="translate(348.647973 491.462672) scale(0.2 -0.2)">
      <defs>
       <path id="CMR17-2d" d="M 1632 1216 
L 1632 1496 
L 26 1496 
L 26 1216 
L 1632 1216 
z
" transform="scale(0.015625)"/>
      </defs>
      <use xlink:href="#CMR17-53" transform="scale(0.996264)"/>
      <use xlink:href="#CMR17-61" transform="translate(50.89537 0) scale(0.996264)"/>
      <use xlink:href="#CMR17-6c" transform="translate(96.585847 0) scale(0.996264)"/>
      <use xlink:href="#CMR17-74" transform="translate(121.456905 0) scale(0.996264)"/>
      <use xlink:href="#CMR17-2d" transform="translate(156.737673 0) scale(0.996264)"/>
      <use xlink:href="#CMR17-61" transform="translate(186.81364 0) scale(0.996264)"/>
      <use xlink:href="#CMR17-6e" transform="translate(232.504117 0) scale(0.996264)"/>
      <use xlink:href="#CMR17-64" transform="translate(283.399486 0) scale(0.996264)"/>
      <use xlink:href="#CMR17-2d" transform="translate(334.294856 0) scale(0.996264)"/>
      <use xlink:href="#CMR17-70" transform="translate(364.370823 0) scale(0.996264)"/>
      <use xlink:href="#CMR17-65" transform="translate(417.868631 0) scale(0.996264)"/>
      <use xlink:href="#CMR17-70" transform="translate(458.354292 0) scale(0.996264)"/>
      <use xlink:href="#CMR17-70" transform="translate(509.249661 0) scale(0.996264)"/>
      <use xlink:href="#CMR17-65" transform="translate(562.74747 0) scale(0.996264)"/>
      <use xlink:href="#CMR17-72" transform="translate(603.23313 0) scale(0.996264)"/>
     </g>
    </g>
   </g>
  </g>
 </g>
 <defs>
  <clipPath id="peec7992670">
   <rect x="66.27864" y="17.28" width="636.44136" height="496.058305"/>
  </clipPath>
 </defs>
</svg>
