<?xml version="1.0" encoding="utf-8" standalone="no"?>
<!DOCTYPE svg PUBLIC "-//W3C//DTD SVG 1.1//EN"
  "http://www.w3.org/Graphics/SVG/1.1/DTD/svg11.dtd">
<svg xmlns:xlink="http://www.w3.org/1999/xlink" width="720pt" height="576pt" viewBox="0 0 720 576" xmlns="http://www.w3.org/2000/svg" version="1.1">
 <metadata>
  <rdf:RDF xmlns:dc="http://purl.org/dc/elements/1.1/" xmlns:cc="http://creativecommons.org/ns#" xmlns:rdf="http://www.w3.org/1999/02/22-rdf-syntax-ns#">
   <cc:Work>
    <dc:type rdf:resource="http://purl.org/dc/dcmitype/StillImage"/>
    <dc:date>2025-04-26T11:14:05.753072</dc:date>
    <dc:format>image/svg+xml</dc:format>
    <dc:creator>
     <cc:Agent>
      <dc:title>Matplotlib v3.9.2, https://matplotlib.org/</dc:title>
     </cc:Agent>
    </dc:creator>
   </cc:Work>
  </rdf:RDF>
 </metadata>
 <defs>
  <style type="text/css">*{stroke-linejoin: round; stroke-linecap: butt}</style>
 </defs>
 <g id="figure_1">
  <g id="patch_1">
   <path d="M 0 576 
L 720 576 
L 720 0 
L 0 0 
z
" style="fill: #ffffff"/>
  </g>
  <g id="axes_1">
   <g id="patch_2">
    <path d="M 66.27864 513.338305 
L 702.72 513.338305 
L 702.72 17.28 
L 66.27864 17.28 
z
" style="fill: #ffffff"/>
   </g>
   <g id="matplotlib.axis_1">
    <g id="xtick_1">
     <g id="line2d_1">
      <path d="M 95.207792 513.338305 
L 95.207792 17.28 
" clip-path="url(#pa9fe693978)" style="fill: none; stroke: #cccccc; stroke-linecap: round"/>
     </g>
     <g id="text_1">
      <!-- $\mathdefault{0}$ -->
      <g style="fill: #262626" transform="translate(91.305799 533.907893) scale(0.16 -0.16)">
       <defs>
        <path id="CMR17-30" d="M 2688 2025 
C 2688 2416 2682 3080 2413 3591 
C 2176 4039 1798 4198 1466 4198 
C 1158 4198 768 4058 525 3597 
C 269 3118 243 2524 243 2025 
C 243 1661 250 1106 448 619 
C 723 -39 1216 -128 1466 -128 
C 1760 -128 2208 -7 2470 600 
C 2662 1042 2688 1559 2688 2025 
z
M 1466 -26 
C 1056 -26 813 325 723 812 
C 653 1188 653 1738 653 2096 
C 653 2588 653 2997 736 3387 
C 858 3929 1216 4096 1466 4096 
C 1728 4096 2067 3923 2189 3400 
C 2272 3036 2278 2607 2278 2096 
C 2278 1680 2278 1169 2202 792 
C 2067 95 1690 -26 1466 -26 
z
" transform="scale(0.015625)"/>
       </defs>
       <use xlink:href="#CMR17-30" transform="scale(0.996264)"/>
      </g>
     </g>
    </g>
    <g id="xtick_2">
     <g id="line2d_2">
      <path d="M 212.093258 513.338305 
L 212.093258 17.28 
" clip-path="url(#pa9fe693978)" style="fill: none; stroke: #cccccc; stroke-linecap: round"/>
     </g>
     <g id="text_2">
      <!-- $\mathdefault{200}$ -->
      <g style="fill: #262626" transform="translate(200.387278 533.907893) scale(0.16 -0.16)">
       <defs>
        <path id="CMR17-32" d="M 2669 989 
L 2554 989 
C 2490 536 2438 459 2413 420 
C 2381 369 1920 369 1830 369 
L 602 369 
C 832 619 1280 1072 1824 1597 
C 2214 1967 2669 2402 2669 3035 
C 2669 3790 2067 4224 1395 4224 
C 691 4224 262 3604 262 3030 
C 262 2780 448 2748 525 2748 
C 589 2748 781 2787 781 3010 
C 781 3207 614 3264 525 3264 
C 486 3264 448 3258 422 3245 
C 544 3790 915 4058 1306 4058 
C 1862 4058 2227 3617 2227 3035 
C 2227 2479 1901 2000 1536 1584 
L 262 146 
L 262 0 
L 2515 0 
L 2669 989 
z
" transform="scale(0.015625)"/>
       </defs>
       <use xlink:href="#CMR17-32" transform="scale(0.996264)"/>
       <use xlink:href="#CMR17-30" transform="translate(45.690477 0) scale(0.996264)"/>
       <use xlink:href="#CMR17-30" transform="translate(91.380954 0) scale(0.996264)"/>
      </g>
     </g>
    </g>
    <g id="xtick_3">
     <g id="line2d_3">
      <path d="M 328.978724 513.338305 
L 328.978724 17.28 
" clip-path="url(#pa9fe693978)" style="fill: none; stroke: #cccccc; stroke-linecap: round"/>
     </g>
     <g id="text_3">
      <!-- $\mathdefault{400}$ -->
      <g style="fill: #262626" transform="translate(317.272743 533.907893) scale(0.16 -0.16)">
       <defs>
        <path id="CMR17-34" d="M 2150 4122 
C 2150 4256 2144 4256 2029 4256 
L 128 1254 
L 128 1088 
L 1779 1088 
L 1779 457 
C 1779 224 1766 160 1318 160 
L 1197 160 
L 1197 0 
C 1402 0 1747 0 1965 0 
C 2182 0 2528 0 2733 0 
L 2733 160 
L 2611 160 
C 2163 160 2150 224 2150 457 
L 2150 1088 
L 2803 1088 
L 2803 1254 
L 2150 1254 
L 2150 4122 
z
M 1798 3703 
L 1798 1254 
L 256 1254 
L 1798 3703 
z
" transform="scale(0.015625)"/>
       </defs>
       <use xlink:href="#CMR17-34" transform="scale(0.996264)"/>
       <use xlink:href="#CMR17-30" transform="translate(45.690477 0) scale(0.996264)"/>
       <use xlink:href="#CMR17-30" transform="translate(91.380954 0) scale(0.996264)"/>
      </g>
     </g>
    </g>
    <g id="xtick_4">
     <g id="line2d_4">
      <path d="M 445.864189 513.338305 
L 445.864189 17.28 
" clip-path="url(#pa9fe693978)" style="fill: none; stroke: #cccccc; stroke-linecap: round"/>
     </g>
     <g id="text_4">
      <!-- $\mathdefault{600}$ -->
      <g style="fill: #262626" transform="translate(434.158209 533.907893) scale(0.16 -0.16)">
       <defs>
        <path id="CMR17-36" d="M 678 2176 
C 678 3690 1395 4032 1811 4032 
C 1946 4032 2272 4009 2400 3776 
C 2298 3776 2106 3776 2106 3553 
C 2106 3381 2246 3323 2336 3323 
C 2394 3323 2566 3348 2566 3560 
C 2566 3954 2246 4179 1805 4179 
C 1043 4179 243 3390 243 1984 
C 243 253 966 -128 1478 -128 
C 2099 -128 2688 427 2688 1283 
C 2688 2081 2170 2662 1517 2662 
C 1126 2662 838 2407 678 1960 
L 678 2176 
z
M 1478 25 
C 691 25 691 1200 691 1436 
C 691 1896 909 2560 1504 2560 
C 1613 2560 1926 2560 2138 2120 
C 2253 1870 2253 1609 2253 1289 
C 2253 944 2253 690 2118 434 
C 1978 171 1773 25 1478 25 
z
" transform="scale(0.015625)"/>
       </defs>
       <use xlink:href="#CMR17-36" transform="scale(0.996264)"/>
       <use xlink:href="#CMR17-30" transform="translate(45.690477 0) scale(0.996264)"/>
       <use xlink:href="#CMR17-30" transform="translate(91.380954 0) scale(0.996264)"/>
      </g>
     </g>
    </g>
    <g id="xtick_5">
     <g id="line2d_5">
      <path d="M 562.749655 513.338305 
L 562.749655 17.28 
" clip-path="url(#pa9fe693978)" style="fill: none; stroke: #cccccc; stroke-linecap: round"/>
     </g>
     <g id="text_5">
      <!-- $\mathdefault{800}$ -->
      <g style="fill: #262626" transform="translate(551.043674 533.907893) scale(0.16 -0.16)">
       <defs>
        <path id="CMR17-38" d="M 1741 2264 
C 2144 2467 2554 2773 2554 3263 
C 2554 3841 1990 4179 1472 4179 
C 890 4179 378 3759 378 3180 
C 378 3021 416 2747 666 2505 
C 730 2442 998 2251 1171 2130 
C 883 1983 211 1634 211 934 
C 211 279 838 -128 1459 -128 
C 2144 -128 2720 362 2720 1010 
C 2720 1590 2330 1857 2074 2029 
L 1741 2264 
z
M 902 2822 
C 851 2854 595 3051 595 3351 
C 595 3739 998 4032 1459 4032 
C 1965 4032 2336 3676 2336 3262 
C 2336 2669 1670 2331 1638 2331 
C 1632 2331 1626 2331 1574 2370 
L 902 2822 
z
M 2080 1519 
C 2176 1449 2483 1240 2483 851 
C 2483 381 2010 25 1472 25 
C 890 25 448 438 448 940 
C 448 1443 838 1862 1280 2060 
L 2080 1519 
z
" transform="scale(0.015625)"/>
       </defs>
       <use xlink:href="#CMR17-38" transform="scale(0.996264)"/>
       <use xlink:href="#CMR17-30" transform="translate(45.690477 0) scale(0.996264)"/>
       <use xlink:href="#CMR17-30" transform="translate(91.380954 0) scale(0.996264)"/>
      </g>
     </g>
    </g>
    <g id="xtick_6">
     <g id="line2d_6">
      <path d="M 679.635121 513.338305 
L 679.635121 17.28 
" clip-path="url(#pa9fe693978)" style="fill: none; stroke: #cccccc; stroke-linecap: round"/>
     </g>
     <g id="text_6">
      <!-- $\mathdefault{1000}$ -->
      <g style="fill: #262626" transform="translate(664.027147 533.907893) scale(0.16 -0.16)">
       <defs>
        <path id="CMR17-31" d="M 1702 4058 
C 1702 4192 1696 4192 1606 4192 
C 1357 3916 979 3827 621 3827 
C 602 3827 570 3827 563 3808 
C 557 3795 557 3782 557 3648 
C 755 3648 1088 3686 1344 3839 
L 1344 461 
C 1344 236 1331 160 781 160 
L 589 160 
L 589 0 
C 896 0 1216 0 1523 0 
C 1830 0 2150 0 2458 0 
L 2458 160 
L 2266 160 
C 1715 160 1702 230 1702 458 
L 1702 4058 
z
" transform="scale(0.015625)"/>
       </defs>
       <use xlink:href="#CMR17-31" transform="scale(0.996264)"/>
       <use xlink:href="#CMR17-30" transform="translate(45.690477 0) scale(0.996264)"/>
       <use xlink:href="#CMR17-30" transform="translate(91.380954 0) scale(0.996264)"/>
       <use xlink:href="#CMR17-30" transform="translate(137.071431 0) scale(0.996264)"/>
      </g>
     </g>
    </g>
    <g id="text_7">
     <!-- Step -->
     <g style="fill: #262626" transform="translate(366.743615 554.844366) scale(0.2 -0.2)">
      <defs>
       <path id="CMR17-53" d="M 2803 4290 
C 2803 4404 2797 4411 2758 4411 
C 2720 4411 2707 4385 2682 4328 
L 2490 3907 
C 2246 4257 1875 4416 1472 4416 
C 819 4416 294 3901 294 3253 
C 294 3056 339 2776 557 2510 
C 794 2218 1018 2167 1530 2033 
C 1722 1982 2042 1899 2106 1874 
C 2470 1722 2662 1341 2662 985 
C 2662 527 2336 38 1779 38 
C 1094 38 454 419 410 1311 
C 403 1413 397 1419 352 1419 
C 301 1419 294 1413 294 1285 
L 294 -1 
C 294 -115 301 -122 339 -122 
C 384 -122 397 -90 486 108 
C 493 127 493 140 614 381 
C 934 -39 1472 -128 1779 -128 
C 2477 -128 2970 451 2970 1124 
C 2970 1454 2848 1708 2778 1823 
C 2509 2230 2221 2306 1914 2382 
C 1869 2402 1856 2402 1498 2490 
C 1152 2579 1005 2624 845 2796 
C 666 2992 602 3196 602 3399 
C 602 3812 934 4263 1478 4263 
C 2157 4263 2579 3786 2675 2993 
C 2694 2878 2701 2872 2746 2872 
C 2803 2872 2803 2891 2803 2999 
L 2803 4290 
z
" transform="scale(0.015625)"/>
       <path id="CMR17-74" d="M 966 2560 
L 1862 2560 
L 1862 2725 
L 966 2725 
L 966 3904 
L 851 3904 
C 838 3245 614 2668 70 2668 
L 70 2560 
L 627 2560 
L 627 771 
C 627 650 627 -64 1370 -64 
C 1747 -64 1965 306 1965 777 
L 1965 1140 
L 1850 1140 
L 1850 783 
C 1850 344 1677 51 1408 51 
C 1222 51 966 178 966 758 
L 966 2560 
z
" transform="scale(0.015625)"/>
       <path id="CMR17-65" d="M 2438 1472 
C 2464 1498 2464 1511 2464 1576 
C 2464 2238 2118 2816 1389 2816 
C 710 2816 173 2169 173 1383 
C 173 551 781 -64 1459 -64 
C 2176 -64 2458 607 2458 740 
C 2458 784 2419 784 2406 784 
C 2362 784 2355 771 2330 696 
C 2189 265 1837 51 1504 51 
C 1229 51 954 203 781 480 
C 582 803 582 1176 582 1472 
L 2438 1472 
z
M 589 1568 
C 634 2505 1126 2714 1382 2714 
C 1818 2714 2112 2297 2118 1568 
L 589 1568 
z
" transform="scale(0.015625)"/>
       <path id="CMR17-70" d="M 1408 -1063 
C 998 -1063 973 -1037 973 -789 
L 973 402 
C 1158 134 1427 -38 1766 -38 
C 2406 -38 3053 523 3053 1388 
C 3053 2191 2496 2802 1837 2802 
C 1453 2802 1139 2592 960 2338 
L 960 2802 
L 198 2732 
L 198 2567 
C 576 2567 634 2528 634 2223 
L 634 -789 
C 634 -1031 608 -1063 198 -1063 
L 198 -1228 
C 352 -1216 634 -1216 800 -1216 
C 966 -1216 1254 -1216 1408 -1228 
L 1408 -1063 
z
M 973 2012 
C 973 2102 973 2235 1222 2471 
C 1254 2497 1472 2688 1792 2688 
C 2259 2688 2643 2108 2643 1382 
C 2643 656 2234 64 1728 64 
C 1498 64 1248 172 1056 472 
C 973 612 973 650 973 752 
L 973 2012 
z
" transform="scale(0.015625)"/>
      </defs>
      <use xlink:href="#CMR17-53" transform="scale(0.996264)"/>
      <use xlink:href="#CMR17-74" transform="translate(50.89537 0) scale(0.996264)"/>
      <use xlink:href="#CMR17-65" transform="translate(86.176138 0) scale(0.996264)"/>
      <use xlink:href="#CMR17-70" transform="translate(126.661798 0) scale(0.996264)"/>
     </g>
    </g>
   </g>
   <g id="matplotlib.axis_2">
    <g id="ytick_1">
     <g id="line2d_7">
      <path d="M 66.27864 503.808706 
L 702.72 503.808706 
" clip-path="url(#pa9fe693978)" style="fill: none; stroke: #cccccc; stroke-linecap: round"/>
     </g>
     <g id="text_8">
      <!-- $\mathdefault{10}$ -->
      <g style="fill: #262626" transform="translate(41.170666 509.3435) scale(0.16 -0.16)">
       <use xlink:href="#CMR17-31" transform="scale(0.996264)"/>
       <use xlink:href="#CMR17-30" transform="translate(45.690477 0) scale(0.996264)"/>
      </g>
     </g>
    </g>
    <g id="ytick_2">
     <g id="line2d_8">
      <path d="M 66.27864 415.066337 
L 702.72 415.066337 
" clip-path="url(#pa9fe693978)" style="fill: none; stroke: #cccccc; stroke-linecap: round"/>
     </g>
     <g id="text_9">
      <!-- $\mathdefault{12}$ -->
      <g style="fill: #262626" transform="translate(41.170666 420.601131) scale(0.16 -0.16)">
       <use xlink:href="#CMR17-31" transform="scale(0.996264)"/>
       <use xlink:href="#CMR17-32" transform="translate(45.690477 0) scale(0.996264)"/>
      </g>
     </g>
    </g>
    <g id="ytick_3">
     <g id="line2d_9">
      <path d="M 66.27864 326.323968 
L 702.72 326.323968 
" clip-path="url(#pa9fe693978)" style="fill: none; stroke: #cccccc; stroke-linecap: round"/>
     </g>
     <g id="text_10">
      <!-- $\mathdefault{14}$ -->
      <g style="fill: #262626" transform="translate(41.170666 331.858762) scale(0.16 -0.16)">
       <use xlink:href="#CMR17-31" transform="scale(0.996264)"/>
       <use xlink:href="#CMR17-34" transform="translate(45.690477 0) scale(0.996264)"/>
      </g>
     </g>
    </g>
    <g id="ytick_4">
     <g id="line2d_10">
      <path d="M 66.27864 237.581599 
L 702.72 237.581599 
" clip-path="url(#pa9fe693978)" style="fill: none; stroke: #cccccc; stroke-linecap: round"/>
     </g>
     <g id="text_11">
      <!-- $\mathdefault{16}$ -->
      <g style="fill: #262626" transform="translate(41.170666 243.116394) scale(0.16 -0.16)">
       <use xlink:href="#CMR17-31" transform="scale(0.996264)"/>
       <use xlink:href="#CMR17-36" transform="translate(45.690477 0) scale(0.996264)"/>
      </g>
     </g>
    </g>
    <g id="ytick_5">
     <g id="line2d_11">
      <path d="M 66.27864 148.839231 
L 702.72 148.839231 
" clip-path="url(#pa9fe693978)" style="fill: none; stroke: #cccccc; stroke-linecap: round"/>
     </g>
     <g id="text_12">
      <!-- $\mathdefault{18}$ -->
      <g style="fill: #262626" transform="translate(41.170666 154.374025) scale(0.16 -0.16)">
       <use xlink:href="#CMR17-31" transform="scale(0.996264)"/>
       <use xlink:href="#CMR17-38" transform="translate(45.690477 0) scale(0.996264)"/>
      </g>
     </g>
    </g>
    <g id="ytick_6">
     <g id="line2d_12">
      <path d="M 66.27864 60.096862 
L 702.72 60.096862 
" clip-path="url(#pa9fe693978)" style="fill: none; stroke: #cccccc; stroke-linecap: round"/>
     </g>
     <g id="text_13">
      <!-- $\mathdefault{20}$ -->
      <g style="fill: #262626" transform="translate(41.170666 65.631656) scale(0.16 -0.16)">
       <use xlink:href="#CMR17-32" transform="scale(0.996264)"/>
       <use xlink:href="#CMR17-30" transform="translate(45.690477 0) scale(0.996264)"/>
      </g>
     </g>
    </g>
    <g id="text_14">
     <!-- PSNR (dB) -->
     <g style="fill: #262626" transform="translate(32.206022 312.015816) rotate(-90) scale(0.2 -0.2)">
      <defs>
       <path id="CMR17-50" d="M 1267 2042 
L 2291 2042 
C 3117 2042 3718 2578 3718 3184 
C 3718 3791 3130 4352 2291 4352 
L 333 4352 
L 333 4186 
C 774 4186 845 4186 845 3899 
L 845 446 
C 845 160 774 160 333 160 
L 333 0 
C 518 0 858 0 1056 0 
C 1254 0 1594 0 1779 0 
L 1779 160 
C 1338 160 1267 160 1267 446 
L 1267 2042 
z
M 1254 2176 
L 1254 3938 
C 1254 4155 1267 4186 1523 4186 
L 2170 4186 
C 2995 4186 3232 3714 3232 3184 
C 3232 2604 2950 2176 2170 2176 
L 1254 2176 
z
" transform="scale(0.015625)"/>
       <path id="CMR17-4e" d="M 1312 4250 
C 1267 4320 1261 4320 1139 4320 
L 326 4320 
L 326 4160 
L 448 4160 
C 704 4160 819 4129 838 4122 
L 838 610 
C 838 451 838 153 326 153 
L 326 -13 
C 474 0 742 0 902 0 
C 1062 0 1331 0 1478 -13 
L 1478 153 
C 966 153 966 451 966 610 
L 966 4033 
C 1011 3995 1011 3982 1056 3919 
L 3430 76 
C 3475 0 3494 0 3526 0 
C 3590 0 3590 19 3590 139 
L 3590 3705 
C 3590 3863 3590 4160 4102 4160 
L 4102 4326 
C 3955 4320 3686 4320 3526 4320 
C 3366 4320 3098 4320 2950 4326 
L 2950 4160 
C 3462 4160 3462 3862 3462 3703 
L 3462 763 
L 1312 4250 
z
" transform="scale(0.015625)"/>
       <path id="CMR17-52" d="M 2509 2146 
C 3117 2268 3629 2676 3629 3186 
C 3629 3785 2950 4326 2054 4326 
L 333 4326 
L 333 4160 
C 774 4160 845 4160 845 3873 
L 845 415 
C 845 128 774 128 333 128 
L 333 -26 
C 518 -26 851 -26 1050 -26 
C 1248 -26 1581 -26 1766 -26 
L 1766 128 
C 1325 128 1254 128 1254 417 
L 1254 2112 
L 2003 2112 
C 2368 2112 2573 1964 2662 1881 
C 2918 1632 2918 1459 2918 1024 
C 2918 595 2918 377 3110 160 
C 3354 -102 3680 -128 3821 -128 
C 4294 -128 4365 396 4365 503 
C 4365 540 4365 585 4307 585 
C 4256 585 4250 547 4250 522 
C 4218 112 4032 -26 3834 -26 
C 3482 -26 3443 375 3405 764 
C 3386 898 3373 993 3360 1133 
C 3322 1452 3270 1917 2509 2146 
z
M 1984 2214 
L 1254 2214 
L 1254 3913 
C 1254 4129 1267 4160 1523 4160 
L 1990 4160 
C 2522 4160 3142 3977 3142 3190 
C 3142 2372 2464 2214 1984 2214 
z
" transform="scale(0.015625)"/>
       <path id="CMR17-28" d="M 1958 -1561 
C 1958 -1555 1958 -1542 1939 -1523 
C 1645 -1224 858 -407 858 1581 
C 858 3569 1632 4379 1946 4697 
C 1946 4704 1958 4717 1958 4736 
C 1958 4755 1939 4768 1914 4768 
C 1843 4768 1299 4296 986 3594 
C 666 2887 576 2199 576 1588 
C 576 1128 621 351 1005 -471 
C 1312 -1135 1837 -1600 1914 -1600 
C 1946 -1600 1958 -1587 1958 -1561 
z
" transform="scale(0.015625)"/>
       <path id="CMR17-64" d="M 1869 4326 
L 1869 4160 
C 2246 4160 2304 4122 2304 3820 
L 2304 2345 
C 2278 2377 2016 2790 1498 2790 
C 845 2790 211 2208 211 1364 
C 211 525 806 -64 1434 -64 
C 1978 -64 2259 337 2291 380 
L 2291 -63 
L 3066 -63 
L 3066 128 
C 2688 128 2630 166 2630 473 
L 2630 4396 
L 1869 4326 
z
M 2291 755 
C 2291 563 2176 390 2029 262 
C 1811 70 1594 38 1472 38 
C 1286 38 621 134 621 1356 
C 621 2612 1363 2688 1530 2688 
C 1824 2688 2061 2522 2208 2291 
C 2291 2157 2291 2138 2291 2023 
L 2291 755 
z
" transform="scale(0.015625)"/>
       <path id="CMR17-42" d="M 333 4352 
L 333 4186 
C 774 4186 845 4186 845 3900 
L 845 452 
C 845 166 774 166 333 166 
L 333 0 
L 2534 0 
C 3354 0 3885 583 3885 1164 
C 3885 1741 3360 2233 2675 2233 
C 3290 2356 3718 2771 3718 3264 
C 3718 3802 3194 4352 2368 4352 
L 333 4352 
z
M 1248 2304 
L 1248 3937 
C 1248 4155 1261 4186 1517 4186 
L 2336 4186 
C 2970 4186 3251 3674 3251 3277 
C 3251 2791 2861 2304 2170 2304 
L 1248 2304 
z
M 1517 166 
C 1261 166 1248 197 1248 413 
L 1248 2202 
L 2432 2202 
C 3091 2202 3411 1625 3411 1162 
C 3411 699 3046 166 2349 166 
L 1517 166 
z
" transform="scale(0.015625)"/>
       <path id="CMR17-29" d="M 1683 1581 
C 1683 2040 1638 2817 1254 3639 
C 947 4303 422 4768 346 4768 
C 326 4768 301 4761 301 4729 
C 301 4717 307 4710 314 4697 
C 621 4378 1402 3568 1402 1584 
C 1402 -407 627 -1217 314 -1537 
C 307 -1549 301 -1556 301 -1568 
C 301 -1600 326 -1600 346 -1600 
C 416 -1600 960 -1128 1274 -426 
C 1594 281 1683 969 1683 1581 
z
" transform="scale(0.015625)"/>
      </defs>
      <use xlink:href="#CMR17-50" transform="scale(0.996264)"/>
      <use xlink:href="#CMR17-53" transform="translate(62.586301 0) scale(0.996264)"/>
      <use xlink:href="#CMR17-4e" transform="translate(113.48167 0) scale(0.996264)"/>
      <use xlink:href="#CMR17-52" transform="translate(182.5541 0) scale(0.996264)"/>
      <use xlink:href="#CMR17-28" transform="translate(280.421168 0) scale(0.996264)"/>
      <use xlink:href="#CMR17-64" transform="translate(315.701936 0) scale(0.996264)"/>
      <use xlink:href="#CMR17-42" transform="translate(366.597306 0) scale(0.996264)"/>
      <use xlink:href="#CMR17-29" transform="translate(431.78606 0) scale(0.996264)"/>
     </g>
    </g>
   </g>
   <g id="PolyCollection_1">
    <defs>
     <path id="mee03801a84" d="M 95.207792 -329.362242 
L 95.207792 -276.635963 
L 101.052066 -302.247011 
L 106.896339 -302.877082 
L 112.740612 -303.196554 
L 118.584886 -303.675763 
L 124.429159 -307.553805 
L 130.273432 -307.620361 
L 136.117705 -308.738515 
L 141.961979 -307.513871 
L 147.806252 -308.36136 
L 153.650525 -306.502208 
L 159.494799 -308.787324 
L 165.339072 -310.295944 
L 171.183345 -305.033521 
L 177.027618 -311.183368 
L 182.871892 -310.415746 
L 188.716165 -311.405224 
L 194.560438 -312.412449 
L 200.404712 -313.095766 
L 206.248985 -313.024772 
L 212.093258 -314.129614 
L 217.937531 -316.614401 
L 223.781805 -316.636586 
L 229.626078 -316.791885 
L 235.470351 -293.936288 
L 241.314624 -311.79569 
L 247.158898 -310.797338 
L 253.003171 -310.899392 
L 258.847444 -316.055324 
L 264.691718 -312.110725 
L 270.535991 -314.591075 
L 276.380264 -314.271602 
L 282.224537 -298.644071 
L 288.068811 -317.129106 
L 293.913084 -317.204537 
L 299.757357 -317.271094 
L 305.601631 -317.661561 
L 311.445904 -317.395333 
L 317.290177 -309.364149 
L 323.13445 -302.885956 
L 328.978724 -303.12556 
L 334.822997 -313.881136 
L 340.66727 -306.861614 
L 346.511544 -306.8838 
L 352.355817 -306.582076 
L 358.20009 -306.417902 
L 364.044363 -306.275915 
L 369.888637 -306.919297 
L 375.73291 -315.98433 
L 381.577183 -314.697565 
L 387.421457 -91.803358 
L 393.26573 -90.667455 
L 399.110003 -93.52496 
L 404.954276 -93.782312 
L 410.79855 -93.618139 
L 416.642823 -93.928737 
L 422.487096 -94.004168 
L 428.331369 -93.910989 
L 434.175643 -94.128408 
L 440.019916 -93.933174 
L 445.864189 -94.789538 
L 451.708463 -94.816161 
L 457.552736 -94.829472 
L 463.397009 -95.091262 
L 469.241282 -97.487306 
L 475.085556 -97.975389 
L 480.929829 -98.002012 
L 486.774102 -97.926581 
L 492.618376 -97.926581 
L 498.462649 -97.926581 
L 504.306922 -97.939892 
L 510.151195 -97.94433 
L 515.995469 -97.939892 
L 521.839742 -86.545372 
L 527.684015 -92.9082 
L 533.528289 -99.674806 
L 539.372562 -99.075795 
L 545.216835 -99.643746 
L 551.061108 -100.1762 
L 556.905382 -90.303612 
L 562.749655 -108.877389 
L 568.593928 -107.479697 
L 574.438201 -108.131954 
L 580.282475 -108.695468 
L 586.126748 -108.131954 
L 591.971021 -120.245287 
L 597.815295 -120.041179 
L 603.659568 -116.535856 
L 609.503841 -107.515194 
L 615.348114 -99.812356 
L 621.192388 -99.448513 
L 627.036661 -98.281551 
L 632.880934 -94.208276 
L 638.725208 -91.310837 
L 644.569481 -92.4778 
L 650.413754 -92.420117 
L 656.258027 -92.433428 
L 662.102301 -91.59925 
L 667.946574 -91.470574 
L 673.790847 -94.864969 
L 673.790847 -276.831197 
L 673.790847 -276.831197 
L 667.946574 -279.107438 
L 662.102301 -281.348183 
L 656.258027 -276.280994 
L 650.413754 -275.074098 
L 644.569481 -248.659932 
L 638.725208 -254.321695 
L 632.880934 -248.886225 
L 627.036661 -250.137492 
L 621.192388 -246.419187 
L 615.348114 -240.375832 
L 609.503841 -259.459878 
L 603.659568 -265.911448 
L 597.815295 -270.28201 
L 591.971021 -238.667541 
L 586.126748 -240.389143 
L 580.282475 -240.513382 
L 574.438201 -252.529099 
L 568.593928 -258.142054 
L 562.749655 -257.605162 
L 556.905382 -255.364418 
L 551.061108 -275.770725 
L 545.216835 -271.182745 
L 539.372562 -250.337162 
L 533.528289 -260.489289 
L 527.684015 -264.016799 
L 521.839742 -260.95075 
L 515.995469 -250.842994 
L 510.151195 -266.577016 
L 504.306922 -237.256537 
L 498.462649 -223.50147 
L 492.618376 -238.964828 
L 486.774102 -232.752862 
L 480.929829 -232.176037 
L 475.085556 -231.257553 
L 469.241282 -221.038869 
L 463.397009 -218.101497 
L 457.552736 -219.592369 
L 451.708463 -222.436562 
L 445.864189 -222.259077 
L 440.019916 -205.455709 
L 434.175643 -199.194935 
L 428.331369 -190.378381 
L 422.487096 -185.293443 
L 416.642823 -173.694816 
L 410.79855 -162.655265 
L 404.954276 -157.423902 
L 399.110003 -138.570586 
L 393.26573 -151.584654 
L 387.421457 -124.500483 
L 381.577183 -475.667348 
L 375.73291 -467.631727 
L 369.888637 -467.161392 
L 364.044363 -465.595089 
L 358.20009 -469.131473 
L 352.355817 -472.108779 
L 346.511544 -473.06276 
L 340.66727 -475.29463 
L 334.822997 -484.328603 
L 328.978724 -472.614611 
L 323.13445 -476.426095 
L 317.290177 -475.050589 
L 311.445904 -451.307568 
L 305.601631 -459.809087 
L 299.757357 -452.376913 
L 293.913084 -458.309341 
L 288.068811 -460.341541 
L 282.224537 -414.878826 
L 276.380264 -423.278291 
L 270.535991 -425.408108 
L 264.691718 -421.215031 
L 258.847444 -411.866022 
L 253.003171 -433.58128 
L 247.158898 -430.253441 
L 241.314624 -431.118679 
L 235.470351 -439.624635 
L 229.626078 -440.188149 
L 223.781805 -440.569741 
L 217.937531 -440.112718 
L 212.093258 -453.98315 
L 206.248985 -426.725932 
L 200.404712 -423.411404 
L 194.560438 -422.506232 
L 188.716165 -422.523981 
L 182.871892 -422.523981 
L 177.027618 -427.946139 
L 171.183345 -421.428012 
L 165.339072 -412.220992 
L 159.494799 -407.477712 
L 153.650525 -399.544144 
L 147.806252 -401.021705 
L 141.961979 -396.269551 
L 136.117705 -397.991153 
L 130.273432 -396.939556 
L 124.429159 -397.574064 
L 118.584886 -384.409133 
L 112.740612 -365.116542 
L 106.896339 -365.307338 
L 101.052066 -354.29441 
L 95.207792 -329.362242 
z
" style="stroke: #ffffff; stroke-opacity: 0.2"/>
    </defs>
    <g clip-path="url(#pa9fe693978)">
     <use xlink:href="#mee03801a84" x="0" y="576" style="fill: #4c72b0; fill-opacity: 0.2; stroke: #ffffff; stroke-opacity: 0.2"/>
    </g>
   </g>
   <g id="PolyCollection_2">
    <defs>
     <path id="m407dacd124" d="M 95.207792 -314.386967 
L 95.207792 -263.311297 
L 101.052066 -293.68781 
L 106.896339 -303.413973 
L 112.740612 -307.394068 
L 118.584886 -309.435143 
L 124.429159 -310.775153 
L 130.273432 -311.227739 
L 136.117705 -311.147871 
L 141.961979 -310.593231 
L 147.806252 -311.130122 
L 153.650525 -305.956442 
L 159.494799 -315.98433 
L 165.339072 -316.095258 
L 171.183345 -316.259431 
L 177.027618 -316.299365 
L 182.871892 -316.286054 
L 188.716165 -316.263868 
L 194.560438 -316.680957 
L 200.404712 -317.00043 
L 206.248985 -317.240034 
L 212.093258 -316.814071 
L 217.937531 -299.464938 
L 223.781805 -314.395841 
L 229.626078 -303.822188 
L 235.470351 -304.949216 
L 241.314624 -306.142801 
L 247.158898 -306.670818 
L 253.003171 -312.878347 
L 258.847444 -312.927155 
L 264.691718 -312.887221 
L 270.535991 -312.931592 
L 276.380264 -312.967089 
L 282.224537 -312.634305 
L 288.068811 -314.799619 
L 293.913084 -315.833468 
L 299.757357 -314.999289 
L 305.601631 -315.900024 
L 311.445904 -315.855653 
L 317.290177 -306.537705 
L 323.13445 -317.435267 
L 328.978724 -300.512098 
L 334.822997 -307.061285 
L 340.66727 -319.156869 
L 346.511544 -319.431971 
L 352.355817 -307.11453 
L 358.20009 -308.725204 
L 364.044363 -300.751702 
L 369.888637 -285.922852 
L 375.73291 -313.82789 
L 381.577183 -318.73978 
L 387.421457 -92.850518 
L 393.26573 -93.325289 
L 399.110003 -94.412383 
L 404.954276 -94.47894 
L 410.79855 -94.008606 
L 416.642823 -93.711319 
L 422.487096 -93.9243 
L 428.331369 -94.01748 
L 434.175643 -94.150593 
L 440.019916 -94.194964 
L 445.864189 -94.146156 
L 451.708463 -94.132845 
L 457.552736 -94.15503 
L 463.397009 -93.89324 
L 469.241282 -93.746816 
L 475.085556 -93.556019 
L 480.929829 -91.56819 
L 486.774102 -94.115096 
L 492.618376 -94.04854 
L 498.462649 -94.665299 
L 504.306922 -95.00252 
L 510.151195 -95.419609 
L 515.995469 -95.086825 
L 521.839742 -95.140071 
L 527.684015 -94.958149 
L 533.528289 -94.913778 
L 539.372562 -93.174427 
L 545.216835 -93.502774 
L 551.061108 -96.023057 
L 556.905382 -97.5583 
L 562.749655 -100.087458 
L 568.593928 -102.230586 
L 574.438201 -101.565018 
L 580.282475 -101.729192 
L 586.126748 -97.363067 
L 591.971021 -102.190652 
L 597.815295 -101.312102 
L 603.659568 -101.494024 
L 609.503841 -100.442427 
L 615.348114 -99.563878 
L 621.192388 -98.955993 
L 627.036661 -98.503406 
L 632.880934 -98.516718 
L 638.725208 -98.419101 
L 644.569481 -98.246054 
L 650.413754 -97.478432 
L 656.258027 -97.580486 
L 662.102301 -97.970952 
L 667.946574 -92.881577 
L 673.790847 -98.498969 
L 673.790847 -236.777328 
L 673.790847 -236.777328 
L 667.946574 -236.914879 
L 662.102301 -229.997411 
L 656.258027 -228.883695 
L 650.413754 -261.279096 
L 644.569481 -265.481048 
L 638.725208 -263.124938 
L 632.880934 -271.26705 
L 627.036661 -276.338676 
L 621.192388 -265.152701 
L 615.348114 -258.803184 
L 609.503841 -268.169941 
L 603.659568 -264.19872 
L 597.815295 -265.787209 
L 591.971021 -273.778459 
L 586.126748 -263.790506 
L 580.282475 -261.651814 
L 574.438201 -261.798239 
L 568.593928 -260.342864 
L 562.749655 -264.629121 
L 556.905382 -260.098823 
L 551.061108 -264.349582 
L 545.216835 -264.167661 
L 539.372562 -262.295197 
L 533.528289 -259.823722 
L 527.684015 -257.645096 
L 521.839742 -262.233077 
L 515.995469 -271.626457 
L 510.151195 -273.135077 
L 504.306922 -267.86378 
L 498.462649 -236.058515 
L 492.618376 -235.907653 
L 486.774102 -228.919192 
L 480.929829 -228.058391 
L 475.085556 -228.528725 
L 469.241282 -215.669956 
L 463.397009 -207.350359 
L 457.552736 -201.542171 
L 451.708463 -198.804469 
L 445.864189 -194.531524 
L 440.019916 -193.688471 
L 434.175643 -194.047878 
L 428.331369 -194.012381 
L 422.487096 -190.56474 
L 416.642823 -186.087687 
L 410.79855 -181.49527 
L 404.954276 -167.660335 
L 399.110003 -157.951919 
L 393.26573 -142.892339 
L 387.421457 -123.87485 
L 381.577183 -489.945995 
L 375.73291 -493.540061 
L 369.888637 -490.389707 
L 364.044363 -486.698025 
L 358.20009 -502.960064 
L 352.355817 -506.975656 
L 346.511544 -509.220838 
L 340.66727 -509.114347 
L 334.822997 -536.171895 
L 328.978724 -489.870564 
L 323.13445 -516.524335 
L 317.290177 -510.192567 
L 311.445904 -482.10117 
L 305.601631 -492.271045 
L 299.757357 -441.253058 
L 293.913084 -485.810601 
L 288.068811 -485.593182 
L 282.224537 -483.077336 
L 276.380264 -438.107141 
L 270.535991 -455.163424 
L 264.691718 -439.535893 
L 258.847444 -436.789316 
L 253.003171 -436.749382 
L 247.158898 -441.275243 
L 241.314624 -439.868677 
L 235.470351 -438.439924 
L 229.626078 -441.656835 
L 223.781805 -437.982901 
L 217.937531 -449.838882 
L 212.093258 -449.94981 
L 206.248985 -470.901883 
L 200.404712 -471.718313 
L 194.560438 -468.630078 
L 188.716165 -467.476428 
L 182.871892 -456.627673 
L 177.027618 -456.618799 
L 171.183345 -461.060354 
L 165.339072 -462.582286 
L 159.494799 -464.308325 
L 153.650525 -443.502677 
L 147.806252 -419.364752 
L 141.961979 -409.052889 
L 136.117705 -413.139475 
L 130.273432 -411.599795 
L 124.429159 -407.522083 
L 118.584886 -398.031087 
L 112.740612 -380.664205 
L 106.896339 -365.808733 
L 101.052066 -362.57851 
L 95.207792 -314.386967 
z
" style="stroke: #ffffff; stroke-opacity: 0.2"/>
    </defs>
    <g clip-path="url(#pa9fe693978)">
     <use xlink:href="#m407dacd124" x="0" y="576" style="fill: #dd8452; fill-opacity: 0.2; stroke: #ffffff; stroke-opacity: 0.2"/>
    </g>
   </g>
   <g id="PolyCollection_3">
    <defs>
     <path id="m5b4f458fa7" d="M 95.207792 -312.683114 
L 95.207792 -283.344886 
L 101.052066 -290.217983 
L 106.896339 -297.761084 
L 112.740612 -277.2261 
L 118.584886 -293.474828 
L 124.429159 -299.274142 
L 130.273432 -296.833727 
L 136.117705 -297.370618 
L 141.961979 -300.680708 
L 147.806252 -297.69009 
L 153.650525 -301.528198 
L 159.494799 -301.967473 
L 165.339072 -297.960755 
L 171.183345 -299.416129 
L 177.027618 -291.589053 
L 182.871892 -298.218107 
L 188.716165 -299.442752 
L 194.560438 -281.459111 
L 200.404712 -303.786691 
L 206.248985 -305.983065 
L 212.093258 -304.478882 
L 217.937531 -306.808369 
L 223.781805 -310.233824 
L 229.626078 -307.28314 
L 235.470351 -310.557734 
L 241.314624 -305.778957 
L 247.158898 -300.756139 
L 253.003171 -294.899143 
L 258.847444 -301.310779 
L 264.691718 -305.073455 
L 270.535991 -298.324598 
L 276.380264 -308.938186 
L 282.224537 -307.917648 
L 288.068811 -305.326371 
L 293.913084 -310.167267 
L 299.757357 -309.000305 
L 305.601631 -309.807861 
L 311.445904 -305.841077 
L 317.290177 -311.005883 
L 323.13445 -311.130122 
L 328.978724 -309.754615 
L 334.822997 -309.475077 
L 340.66727 -309.834484 
L 346.511544 -310.185016 
L 352.355817 -308.458977 
L 358.20009 -304.443385 
L 364.044363 -305.841077 
L 369.888637 -306.187172 
L 375.73291 -306.009687 
L 381.577183 -299.32295 
L 387.421457 -85.910864 
L 393.26573 -87.73452 
L 399.110003 -87.543724 
L 404.954276 -88.994662 
L 410.79855 -89.154398 
L 416.642823 -89.358505 
L 422.487096 -89.407314 
L 428.331369 -89.207643 
L 434.175643 -89.163272 
L 440.019916 -89.380691 
L 445.864189 -89.669104 
L 451.708463 -89.309697 
L 457.552736 -89.260889 
L 463.397009 -90.356857 
L 469.241282 -89.070093 
L 475.085556 -89.580361 
L 480.929829 -85.2098 
L 486.774102 -91.04461 
L 492.618376 -96.662002 
L 498.462649 -104.449145 
L 504.306922 -116.336186 
L 510.151195 -108.704342 
L 515.995469 -114.397165 
L 521.839742 -135.637651 
L 527.684015 -137.408061 
L 533.528289 -137.408061 
L 539.372562 -126.519372 
L 545.216835 -120.822112 
L 551.061108 -136.143482 
L 556.905382 -139.089729 
L 562.749655 -139.533441 
L 568.593928 -144.760366 
L 574.438201 -135.353675 
L 580.282475 -133.623199 
L 586.126748 -130.743509 
L 591.971021 -124.669094 
L 597.815295 -120.853172 
L 603.659568 -110.87853 
L 609.503841 -100.788522 
L 615.348114 -100.446864 
L 621.192388 -98.073006 
L 627.036661 -98.099629 
L 632.880934 -101.338725 
L 638.725208 -101.1923 
L 644.569481 -105.132461 
L 650.413754 -105.270012 
L 656.258027 -105.731472 
L 662.102301 -105.96664 
L 667.946574 -105.549551 
L 673.790847 -106.574525 
L 673.790847 -236.369114 
L 673.790847 -236.369114 
L 667.946574 -235.956462 
L 662.102301 -244.662088 
L 656.258027 -246.277199 
L 650.413754 -260.218625 
L 644.569481 -262.552549 
L 638.725208 -267.158278 
L 632.880934 -267.566493 
L 627.036661 -270.894332 
L 621.192388 -269.913729 
L 615.348114 -264.132164 
L 609.503841 -260.085512 
L 603.659568 -238.494493 
L 597.815295 -238.82284 
L 591.971021 -242.203924 
L 586.126748 -238.317009 
L 580.282475 -219.219651 
L 574.438201 -229.025683 
L 568.593928 -234.452278 
L 562.749655 -221.606821 
L 556.905382 -223.99399 
L 551.061108 -227.725607 
L 545.216835 -232.189348 
L 539.372562 -246.339319 
L 533.528289 -259.238022 
L 527.684015 -256.171973 
L 521.839742 -255.062694 
L 515.995469 -259.229148 
L 510.151195 -264.762234 
L 504.306922 -270.428435 
L 498.462649 -263.670703 
L 492.618376 -261.41221 
L 486.774102 -260.653463 
L 480.929829 -251.082598 
L 475.085556 -219.14422 
L 469.241282 -210.589455 
L 463.397009 -212.994374 
L 457.552736 -205.766308 
L 451.708463 -200.601502 
L 445.864189 -200.250969 
L 440.019916 -200.472825 
L 434.175643 -185.546359 
L 428.331369 -184.099858 
L 422.487096 -173.685941 
L 416.642823 -167.465101 
L 410.79855 -165.313099 
L 404.954276 -164.971441 
L 399.110003 -144.92454 
L 393.26573 -138.588334 
L 387.421457 -115.280151 
L 381.577183 -417.310366 
L 375.73291 -412.740134 
L 369.888637 -416.848906 
L 364.044363 -423.690943 
L 358.20009 -419.693099 
L 352.355817 -417.549971 
L 346.511544 -412.691326 
L 340.66727 -428.429785 
L 334.822997 -425.678772 
L 328.978724 -426.925602 
L 323.13445 -427.218452 
L 317.290177 -417.731893 
L 311.445904 -446.697402 
L 305.601631 -445.983026 
L 299.757357 -429.224029 
L 293.913084 -423.575578 
L 288.068811 -421.552252 
L 282.224537 -423.575578 
L 276.380264 -428.522965 
L 270.535991 -435.236325 
L 264.691718 -440.299077 
L 258.847444 -438.825954 
L 253.003171 -423.930547 
L 247.158898 -420.505092 
L 241.314624 -422.373119 
L 235.470351 -426.118047 
L 229.626078 -419.18283 
L 223.781805 -408.844344 
L 217.937531 -408.347387 
L 212.093258 -407.49546 
L 206.248985 -410.832174 
L 200.404712 -406.497109 
L 194.560438 -399.912425 
L 188.716165 -409.132757 
L 182.871892 -411.062904 
L 177.027618 -407.779436 
L 171.183345 -410.006869 
L 165.339072 -405.614122 
L 159.494799 -398.155326 
L 153.650525 -396.251802 
L 147.806252 -395.80809 
L 141.961979 -395.257888 
L 136.117705 -382.931573 
L 130.273432 -376.431194 
L 124.429159 -371.497119 
L 118.584886 -364.579651 
L 112.740612 -357.648872 
L 106.896339 -353.92613 
L 101.052066 -318.007656 
L 95.207792 -312.683114 
z
" style="stroke: #ffffff; stroke-opacity: 0.2"/>
    </defs>
    <g clip-path="url(#pa9fe693978)">
     <use xlink:href="#m5b4f458fa7" x="0" y="576" style="fill: #55a868; fill-opacity: 0.2; stroke: #ffffff; stroke-opacity: 0.2"/>
    </g>
   </g>
   <g id="line2d_13">
    <path d="M 95.207792 270.862206 
L 101.052066 258.562514 
L 106.896339 257.195881 
L 112.740612 255.272391 
L 118.584886 253.994501 
L 124.429159 253.599597 
L 130.273432 251.986704 
L 136.117705 251.51637 
L 141.961979 249.364367 
L 147.806252 247.968894 
L 153.650525 245.812454 
L 159.494799 243.751413 
L 165.339072 240.696457 
L 171.183345 240.820696 
L 177.027618 240.618807 
L 182.871892 241.024803 
L 188.716165 239.216678 
L 194.560438 231.910962 
L 200.404712 232.707425 
L 206.248985 231.607019 
L 212.093258 234.39353 
L 217.937531 231.194367 
L 223.781805 233.91654 
L 229.626078 230.968074 
L 235.470351 231.331918 
L 241.314624 239.405255 
L 247.158898 242.673193 
L 253.003171 242.364813 
L 258.847444 235.473968 
L 264.691718 236.21053 
L 270.535991 233.133388 
L 276.380264 236.47232 
L 282.224537 231.303077 
L 288.068811 228.824946 
L 293.913084 219.688919 
L 299.757357 216.381048 
L 305.601631 203.859499 
L 311.445904 200.995339 
L 317.290177 206.295477 
L 323.13445 209.306062 
L 328.978724 219.424911 
L 334.822997 228.214842 
L 340.66727 236.330332 
L 346.511544 234.90158 
L 352.355817 236.323676 
L 358.20009 230.096181 
L 364.044363 228.824946 
L 369.888637 229.328559 
L 375.73291 229.375149 
L 381.577183 231.782286 
L 387.421457 470.652338 
L 393.26573 459.315501 
L 399.110003 458.763079 
L 404.954276 453.429663 
L 410.79855 455.348717 
L 416.642823 453.8046 
L 422.487096 452.728598 
L 428.331369 455.978788 
L 434.175643 456.209518 
L 440.019916 454.024237 
L 445.864189 457.651581 
L 451.708463 462.266184 
L 457.552736 456.735316 
L 463.397009 455.907794 
L 469.241282 447.987537 
L 475.085556 443.776712 
L 480.929829 442.110574 
L 486.774102 439.446084 
L 492.618376 436.550865 
L 498.462649 431.095427 
L 504.306922 423.612227 
L 510.151195 429.635615 
L 515.995469 430.574066 
L 521.839742 429.023293 
L 527.684015 429.349421 
L 533.528289 425.868502 
L 539.372562 420.151275 
L 545.216835 420.657106 
L 551.061108 418.587191 
L 556.905382 416.688104 
L 562.749655 417.442414 
L 568.593928 425.735388 
L 574.438201 426.341055 
L 580.282475 424.231205 
L 586.126748 420.406409 
L 591.971021 420.135745 
L 597.815295 416.761316 
L 603.659568 409.590933 
L 609.503841 409.442289 
L 615.348114 412.747943 
L 621.192388 413.431259 
L 627.036661 412.324198 
L 632.880934 409.799477 
L 638.725208 410.87326 
L 644.569481 413.207184 
L 650.413754 413.717453 
L 656.258027 412.96758 
L 662.102301 417.400261 
L 667.946574 406.582567 
L 673.790847 416.652607 
" clip-path="url(#pa9fe693978)" style="fill: none; stroke: #4c72b0; stroke-width: 2; stroke-linecap: round"/>
   </g>
   <g id="line2d_14">
    <path d="M 95.207792 272.572715 
L 101.052066 263.94252 
L 106.896339 257.326776 
L 112.740612 256.497035 
L 118.584886 251.083751 
L 124.429159 250.806431 
L 130.273432 251.274547 
L 136.117705 251.676106 
L 141.961979 247.152464 
L 147.806252 247.387631 
L 153.650525 248.148597 
L 159.494799 244.885096 
L 165.339072 243.607206 
L 171.183345 231.149996 
L 177.027618 223.449377 
L 182.871892 215.855249 
L 188.716165 209.046491 
L 194.560438 209.414772 
L 200.404712 207.881747 
L 206.248985 205.221695 
L 212.093258 204.647088 
L 217.937531 221.761054 
L 223.781805 219.668952 
L 229.626078 221.259659 
L 235.470351 234.08515 
L 241.314624 231.02132 
L 247.158898 238.136239 
L 253.003171 240.250526 
L 258.847444 241.428581 
L 264.691718 240.967121 
L 270.535991 240.918313 
L 276.380264 240.246089 
L 282.224537 241.171228 
L 288.068811 239.664827 
L 293.913084 239.387507 
L 299.757357 236.667553 
L 305.601631 236.865005 
L 311.445904 240.785199 
L 317.290177 242.238355 
L 323.13445 241.557258 
L 328.978724 241.92332 
L 334.822997 239.866715 
L 340.66727 243.272204 
L 346.511544 240.778543 
L 352.355817 244.206217 
L 358.20009 241.408614 
L 364.044363 240.585529 
L 369.888637 240.984869 
L 375.73291 235.638142 
L 381.577183 234.062965 
L 387.421457 477.130531 
L 393.26573 469.924651 
L 399.110003 465.498625 
L 404.954276 462.561253 
L 410.79855 456.409188 
L 416.642823 453.247741 
L 422.487096 450.61653 
L 428.331369 452.739691 
L 434.175643 450.530006 
L 440.019916 444.486651 
L 445.864189 444.524366 
L 451.708463 440.346819 
L 457.552736 439.816584 
L 463.397009 436.828184 
L 469.241282 434.922442 
L 475.085556 440.397846 
L 480.929829 432.588518 
L 486.774102 422.063673 
L 492.618376 417.974868 
L 498.462649 415.627633 
L 504.306922 405.63746 
L 510.151195 407.432275 
L 515.995469 410.859949 
L 521.839742 407.933669 
L 527.684015 410.407363 
L 533.528289 404.838779 
L 539.372562 404.501558 
L 545.216835 404.423908 
L 551.061108 396.004476 
L 556.905382 396.073252 
L 562.749655 399.148175 
L 568.593928 399.323441 
L 574.438201 399.38556 
L 580.282475 403.372311 
L 586.126748 403.483239 
L 591.971021 404.659076 
L 597.815295 404.85209 
L 603.659568 404.576989 
L 609.503841 401.419979 
L 615.348114 398.345056 
L 621.192388 396.656733 
L 627.036661 395.988946 
L 632.880934 396.658951 
L 638.725208 399.41662 
L 644.569481 401.289084 
L 650.413754 401.832631 
L 656.258027 401.400012 
L 662.102301 405.266961 
L 667.946574 405.344611 
L 673.790847 407.212637 
" clip-path="url(#pa9fe693978)" style="fill: none; stroke: #dd8452; stroke-width: 2; stroke-linecap: round"/>
   </g>
   <g id="line2d_15">
    <path d="M 95.207792 272.867784 
L 101.052066 267.769535 
L 106.896339 266.54489 
L 112.740612 266.447273 
L 118.584886 264.239807 
L 124.429159 264.377358 
L 130.273432 262.997414 
L 136.117705 261.83267 
L 141.961979 262.762247 
L 147.806252 261.659623 
L 153.650525 262.804399 
L 159.494799 263.041785 
L 165.339072 262.207607 
L 171.183345 262.476052 
L 177.027618 261.892571 
L 182.871892 263.001851 
L 188.716165 260.288553 
L 194.560438 259.154869 
L 200.404712 257.49095 
L 206.248985 251.813657 
L 212.093258 252.678895 
L 217.937531 252.641179 
L 223.781805 251.203553 
L 229.626078 247.806939 
L 235.470351 245.734805 
L 241.314624 247.924523 
L 247.158898 249.985564 
L 253.003171 254.078806 
L 258.847444 250.97726 
L 264.691718 253.956785 
L 270.535991 246.52683 
L 276.380264 246.478022 
L 282.224537 249.579568 
L 288.068811 256.182 
L 293.913084 244.288304 
L 299.757357 234.717439 
L 305.601631 237.353088 
L 311.445904 238.003126 
L 317.290177 237.175603 
L 323.13445 241.135731 
L 328.978724 236.143973 
L 334.822997 242.735313 
L 340.66727 236.281524 
L 346.511544 240.314864 
L 352.355817 243.66267 
L 358.20009 238.167299 
L 364.044363 241.381991 
L 369.888637 237.872231 
L 375.73291 240.459071 
L 381.577183 247.724852 
L 387.421457 476.058967 
L 393.26573 472.988481 
L 399.110003 470.8032 
L 404.954276 469.343388 
L 410.79855 476.28526 
L 416.642823 474.767766 
L 422.487096 472.706724 
L 428.331369 472.105495 
L 434.175643 469.101565 
L 440.019916 467.062709 
L 445.864189 451.827863 
L 451.708463 450.623186 
L 457.552736 440.550927 
L 463.397009 435.135424 
L 469.241282 424.907866 
L 475.085556 417.298208 
L 480.929829 414.911038 
L 486.774102 413.923779 
L 492.618376 410.631437 
L 498.462649 406.513791 
L 504.306922 403.705095 
L 510.151195 403.849302 
L 515.995469 406.303028 
L 521.839742 402.564756 
L 527.684015 399.549734 
L 533.528289 401.797134 
L 539.372562 403.738374 
L 545.216835 395.460929 
L 551.061108 394.001117 
L 556.905382 398.114326 
L 562.749655 397.044981 
L 568.593928 396.998391 
L 574.438201 403.321285 
L 580.282475 397.788198 
L 586.126748 401.750545 
L 591.971021 400.392786 
L 597.815295 406.504917 
L 603.659568 405.606401 
L 609.503841 410.871042 
L 615.348114 412.79897 
L 621.192388 410.731272 
L 627.036661 418.385302 
L 632.880934 417.653177 
L 638.725208 420.614954 
L 644.569481 422.02152 
L 650.413754 419.931637 
L 656.258027 418.580535 
L 662.102301 421.458006 
L 667.946574 415.237166 
L 673.790847 414.261 
" clip-path="url(#pa9fe693978)" style="fill: none; stroke: #55a868; stroke-width: 2; stroke-linecap: round"/>
   </g>
   <g id="patch_3">
    <path d="M 66.27864 513.338305 
L 66.27864 17.28 
" style="fill: none; stroke: #cccccc; stroke-width: 1.25; stroke-linejoin: miter; stroke-linecap: square"/>
   </g>
   <g id="patch_4">
    <path d="M 702.72 513.338305 
L 702.72 17.28 
" style="fill: none; stroke: #cccccc; stroke-width: 1.25; stroke-linejoin: miter; stroke-linecap: square"/>
   </g>
   <g id="patch_5">
    <path d="M 66.27864 513.338305 
L 702.72 513.338305 
" style="fill: none; stroke: #cccccc; stroke-width: 1.25; stroke-linejoin: miter; stroke-linecap: square"/>
   </g>
   <g id="patch_6">
    <path d="M 66.27864 17.28 
L 702.72 17.28 
" style="fill: none; stroke: #cccccc; stroke-width: 1.25; stroke-linejoin: miter; stroke-linecap: square"/>
   </g>
   <g id="legend_1">
    <g id="patch_7">
     <path d="M 497.017306 148.162063 
L 688.72 148.162063 
Q 692.72 148.162063 692.72 144.162063 
L 692.72 31.28 
Q 692.72 27.28 688.72 27.28 
L 497.017306 27.28 
Q 493.017306 27.28 493.017306 31.28 
L 493.017306 144.162063 
Q 493.017306 148.162063 497.017306 148.162063 
z
" style="fill: #ffffff; opacity: 0.8; stroke: #cccccc; stroke-linejoin: miter"/>
    </g>
    <g id="text_15">
     <!-- Noise -->
     <g style="fill: #262626" transform="translate(566.958142 51.884405) scale(0.24 -0.24)">
      <defs>
       <path id="CMR17-6f" d="M 2758 1356 
C 2758 2176 2163 2816 1466 2816 
C 768 2816 173 2176 173 1356 
C 173 551 768 -64 1466 -64 
C 2163 -64 2758 551 2758 1356 
z
M 1466 51 
C 1165 51 909 230 762 480 
C 602 767 582 1126 582 1408 
C 582 1677 595 2010 762 2298 
C 890 2509 1139 2714 1466 2714 
C 1754 2714 1997 2554 2150 2330 
C 2349 2029 2349 1607 2349 1408 
C 2349 1158 2336 775 2163 467 
C 1984 173 1709 51 1466 51 
z
" transform="scale(0.015625)"/>
       <path id="CMR17-69" d="M 992 3909 
C 992 4049 877 4170 730 4170 
C 589 4170 467 4056 467 3909 
C 467 3769 582 3648 730 3648 
C 870 3648 992 3763 992 3909 
z
M 243 2706 
L 243 2541 
C 602 2541 653 2502 653 2197 
L 653 427 
C 653 184 627 153 218 153 
L 218 -13 
C 371 0 646 0 806 0 
C 960 0 1222 0 1370 -13 
L 1370 153 
C 992 153 979 191 979 420 
L 979 2776 
L 243 2706 
z
" transform="scale(0.015625)"/>
       <path id="CMR17-73" d="M 1978 2697 
C 1978 2813 1971 2819 1933 2819 
C 1907 2819 1901 2813 1824 2717 
C 1805 2691 1747 2626 1728 2601 
C 1523 2819 1235 2819 1126 2819 
C 416 2819 160 2447 160 2076 
C 160 1498 813 1365 998 1325 
C 1402 1243 1542 1217 1677 1101 
C 1760 1025 1901 884 1901 654 
C 1901 384 1747 38 1158 38 
C 602 38 403 460 288 1021 
C 269 1110 269 1117 218 1117 
C 166 1117 160 1110 160 983 
L 160 63 
C 160 -51 166 -58 205 -58 
C 237 -58 243 -51 275 0 
C 314 57 410 211 448 276 
C 576 103 800 -64 1158 -64 
C 1792 -64 2131 283 2131 784 
C 2131 1112 1958 1285 1875 1362 
C 1683 1561 1459 1606 1190 1657 
C 838 1735 390 1825 390 2217 
C 390 2383 480 2737 1126 2737 
C 1811 2737 1850 2094 1862 1888 
C 1869 1856 1901 1849 1920 1849 
C 1978 1849 1978 1869 1978 1978 
L 1978 2697 
z
" transform="scale(0.015625)"/>
      </defs>
      <use xlink:href="#CMR17-4e" transform="scale(0.996264)"/>
      <use xlink:href="#CMR17-6f" transform="translate(69.07243 0) scale(0.996264)"/>
      <use xlink:href="#CMR17-69" transform="translate(114.762907 0) scale(0.996264)"/>
      <use xlink:href="#CMR17-73" transform="translate(139.633965 0) scale(0.996264)"/>
      <use xlink:href="#CMR17-65" transform="translate(175.435303 0) scale(0.996264)"/>
     </g>
    </g>
    <g id="line2d_16">
     <path d="M 501.017306 73.535163 
L 521.017306 73.535163 
L 541.017306 73.535163 
" style="fill: none; stroke: #4c72b0; stroke-width: 2; stroke-linecap: round"/>
    </g>
    <g id="text_16">
     <!-- None -->
     <g style="fill: #262626" transform="translate(557.017306 80.535163) scale(0.2 -0.2)">
      <defs>
       <path id="CMR17-6e" d="M 2656 1933 
C 2656 2259 2592 2790 1837 2790 
C 1331 2790 1069 2400 973 2144 
L 966 2144 
L 966 2790 
L 211 2720 
L 211 2554 
C 589 2554 646 2515 646 2208 
L 646 428 
C 646 184 621 153 211 153 
L 211 -13 
C 365 0 646 0 813 0 
C 979 0 1267 0 1421 -13 
L 1421 153 
C 1011 153 986 178 986 428 
L 986 1658 
C 986 2247 1344 2688 1792 2688 
C 2266 2688 2317 2266 2317 1958 
L 2317 428 
C 2317 184 2291 153 1882 153 
L 1882 -13 
C 2035 0 2317 0 2483 0 
C 2650 0 2938 0 3091 -13 
L 3091 153 
C 2682 153 2656 178 2656 428 
L 2656 1933 
z
" transform="scale(0.015625)"/>
      </defs>
      <use xlink:href="#CMR17-4e" transform="scale(0.996264)"/>
      <use xlink:href="#CMR17-6f" transform="translate(69.07243 0) scale(0.996264)"/>
      <use xlink:href="#CMR17-6e" transform="translate(114.762907 0) scale(0.996264)"/>
      <use xlink:href="#CMR17-65" transform="translate(165.658277 0) scale(0.996264)"/>
     </g>
    </g>
    <g id="line2d_17">
     <path d="M 501.017306 101.410796 
L 521.017306 101.410796 
L 541.017306 101.410796 
" style="fill: none; stroke: #dd8452; stroke-width: 2; stroke-linecap: round"/>
    </g>
    <g id="text_17">
     <!-- Gaussian -->
     <g style="fill: #262626" transform="translate(557.017306 108.410796) scale(0.2 -0.2)">
      <defs>
       <path id="CMR17-47" d="M 3974 1233 
C 3974 1473 3994 1505 4390 1505 
L 4390 1670 
C 4237 1664 3891 1664 3718 1664 
C 3539 1664 3040 1664 2797 1664 
L 2797 1505 
L 2989 1505 
C 3539 1505 3552 1434 3552 1201 
L 3552 774 
C 3552 63 2720 63 2522 63 
C 1862 63 781 511 781 2160 
C 781 3808 1843 4250 2464 4250 
C 3187 4250 3712 3626 3834 2741 
C 3846 2664 3846 2651 3904 2651 
C 3974 2651 3974 2664 3974 2779 
L 3974 4288 
C 3974 4402 3968 4409 3930 4409 
C 3904 4409 3898 4402 3853 4326 
L 3571 3791 
C 3258 4187 2874 4416 2381 4416 
C 1286 4416 294 3456 294 2148 
C 294 845 1267 -128 2394 -128 
C 2912 -128 3418 56 3616 417 
C 3725 158 3904 -20 3936 -20 
C 3968 -20 3974 -13 3974 100 
L 3974 1233 
z
" transform="scale(0.015625)"/>
       <path id="CMR17-61" d="M 2304 1653 
C 2304 2072 2304 2294 2035 2543 
C 1798 2752 1523 2816 1306 2816 
C 800 2816 435 2407 435 1971 
C 435 1728 627 1728 666 1728 
C 749 1728 896 1778 896 1954 
C 896 2112 774 2181 666 2181 
C 640 2181 608 2174 589 2168 
C 723 2592 1069 2714 1293 2714 
C 1613 2714 1965 2429 1965 1885 
L 1965 1600 
C 1587 1600 1133 1549 774 1357 
C 371 1133 256 813 256 570 
C 256 77 832 -64 1171 -64 
C 1523 -64 1850 139 1990 511 
C 2003 233 2182 -18 2464 -18 
C 2598 -18 2938 70 2938 567 
L 2938 920 
L 2822 920 
L 2822 562 
C 2822 178 2650 128 2566 128 
C 2304 128 2304 458 2304 738 
L 2304 1653 
z
M 1965 870 
C 1965 317 1568 38 1216 38 
C 896 38 646 275 646 570 
C 646 761 730 1100 1101 1305 
C 1408 1478 1760 1504 1965 1504 
L 1965 870 
z
" transform="scale(0.015625)"/>
       <path id="CMR17-75" d="M 1882 2693 
L 1882 2528 
C 2259 2528 2317 2489 2317 2186 
L 2317 1032 
C 2317 500 2029 38 1555 38 
C 1030 38 986 348 986 678 
L 986 2763 
L 211 2693 
L 211 2528 
C 467 2528 640 2528 646 2274 
L 646 1058 
C 646 633 646 361 813 183 
C 896 101 1056 -64 1517 -64 
C 2061 -64 2272 377 2323 506 
L 2330 506 
L 2330 -63 
L 3091 -63 
L 3091 128 
C 2714 128 2656 166 2656 473 
L 2656 2763 
L 1882 2693 
z
" transform="scale(0.015625)"/>
      </defs>
      <use xlink:href="#CMR17-47" transform="scale(0.996264)"/>
      <use xlink:href="#CMR17-61" transform="translate(72.355346 0) scale(0.996264)"/>
      <use xlink:href="#CMR17-75" transform="translate(118.045823 0) scale(0.996264)"/>
      <use xlink:href="#CMR17-73" transform="translate(168.941193 0) scale(0.996264)"/>
      <use xlink:href="#CMR17-73" transform="translate(204.74253 0) scale(0.996264)"/>
      <use xlink:href="#CMR17-69" transform="translate(240.543868 0) scale(0.996264)"/>
      <use xlink:href="#CMR17-61" transform="translate(265.414927 0) scale(0.996264)"/>
      <use xlink:href="#CMR17-6e" transform="translate(311.105404 0) scale(0.996264)"/>
     </g>
    </g>
    <g id="line2d_18">
     <path d="M 501.017306 129.28643 
L 521.017306 129.28643 
L 541.017306 129.28643 
" style="fill: none; stroke: #55a868; stroke-width: 2; stroke-linecap: round"/>
    </g>
    <g id="text_18">
     <!-- Salt-and-pepper -->
     <g style="fill: #262626" transform="translate(557.017306 136.28643) scale(0.2 -0.2)">
      <defs>
       <path id="CMR17-6c" d="M 979 4396 
L 218 4326 
L 218 4160 
C 595 4160 653 4122 653 3817 
L 653 426 
C 653 184 627 153 218 153 
L 218 -13 
C 371 0 653 0 813 0 
C 979 0 1261 0 1414 -13 
L 1414 153 
C 1005 153 979 178 979 426 
L 979 4396 
z
" transform="scale(0.015625)"/>
       <path id="CMR17-2d" d="M 1632 1216 
L 1632 1496 
L 26 1496 
L 26 1216 
L 1632 1216 
z
" transform="scale(0.015625)"/>
       <path id="CMR17-72" d="M 960 1497 
C 960 2112 1222 2688 1702 2688 
C 1747 2688 1792 2682 1837 2662 
C 1837 2662 1696 2617 1696 2452 
C 1696 2298 1818 2234 1914 2234 
C 1990 2234 2131 2279 2131 2458 
C 2131 2663 1926 2790 1709 2790 
C 1222 2790 1011 2317 947 2093 
L 941 2093 
L 941 2790 
L 198 2720 
L 198 2554 
C 576 2554 634 2515 634 2208 
L 634 428 
C 634 184 608 153 198 153 
L 198 -13 
C 352 0 646 0 813 0 
C 998 0 1325 0 1498 -13 
L 1498 153 
C 1037 153 960 153 960 440 
L 960 1497 
z
" transform="scale(0.015625)"/>
      </defs>
      <use xlink:href="#CMR17-53" transform="scale(0.996264)"/>
      <use xlink:href="#CMR17-61" transform="translate(50.89537 0) scale(0.996264)"/>
      <use xlink:href="#CMR17-6c" transform="translate(96.585847 0) scale(0.996264)"/>
      <use xlink:href="#CMR17-74" transform="translate(121.456905 0) scale(0.996264)"/>
      <use xlink:href="#CMR17-2d" transform="translate(156.737673 0) scale(0.996264)"/>
      <use xlink:href="#CMR17-61" transform="translate(186.81364 0) scale(0.996264)"/>
      <use xlink:href="#CMR17-6e" transform="translate(232.504117 0) scale(0.996264)"/>
      <use xlink:href="#CMR17-64" transform="translate(283.399486 0) scale(0.996264)"/>
      <use xlink:href="#CMR17-2d" transform="translate(334.294856 0) scale(0.996264)"/>
      <use xlink:href="#CMR17-70" transform="translate(364.370823 0) scale(0.996264)"/>
      <use xlink:href="#CMR17-65" transform="translate(417.868631 0) scale(0.996264)"/>
      <use xlink:href="#CMR17-70" transform="translate(458.354292 0) scale(0.996264)"/>
      <use xlink:href="#CMR17-70" transform="translate(509.249661 0) scale(0.996264)"/>
      <use xlink:href="#CMR17-65" transform="translate(562.74747 0) scale(0.996264)"/>
      <use xlink:href="#CMR17-72" transform="translate(603.23313 0) scale(0.996264)"/>
     </g>
    </g>
   </g>
  </g>
 </g>
 <defs>
  <clipPath id="pa9fe693978">
   <rect x="66.27864" y="17.28" width="636.44136" height="496.058305"/>
  </clipPath>
 </defs>
</svg>
