<?xml version="1.0" encoding="utf-8" standalone="no"?>
<!DOCTYPE svg PUBLIC "-//W3C//DTD SVG 1.1//EN"
  "http://www.w3.org/Graphics/SVG/1.1/DTD/svg11.dtd">
<svg xmlns:xlink="http://www.w3.org/1999/xlink" width="720pt" height="576pt" viewBox="0 0 720 576" xmlns="http://www.w3.org/2000/svg" version="1.1">
 <metadata>
  <rdf:RDF xmlns:dc="http://purl.org/dc/elements/1.1/" xmlns:cc="http://creativecommons.org/ns#" xmlns:rdf="http://www.w3.org/1999/02/22-rdf-syntax-ns#">
   <cc:Work>
    <dc:type rdf:resource="http://purl.org/dc/dcmitype/StillImage"/>
    <dc:date>2025-04-26T11:14:07.017605</dc:date>
    <dc:format>image/svg+xml</dc:format>
    <dc:creator>
     <cc:Agent>
      <dc:title>Matplotlib v3.9.2, https://matplotlib.org/</dc:title>
     </cc:Agent>
    </dc:creator>
   </cc:Work>
  </rdf:RDF>
 </metadata>
 <defs>
  <style type="text/css">*{stroke-linejoin: round; stroke-linecap: butt}</style>
 </defs>
 <g id="figure_1">
  <g id="patch_1">
   <path d="M 0 576 
L 720 576 
L 720 0 
L 0 0 
z
" style="fill: #ffffff"/>
  </g>
  <g id="axes_1">
   <g id="patch_2">
    <path d="M 68.436153 513.338305 
L 702.72 513.338305 
L 702.72 17.28 
L 68.436153 17.28 
z
" style="fill: #ffffff"/>
   </g>
   <g id="matplotlib.axis_1">
    <g id="xtick_1">
     <g id="line2d_1">
      <path d="M 97.267237 513.338305 
L 97.267237 17.28 
" clip-path="url(#p55e4ba5f21)" style="fill: none; stroke: #cccccc; stroke-linecap: round"/>
     </g>
     <g id="text_1">
      <!-- $\mathdefault{0}$ -->
      <g style="fill: #262626" transform="translate(93.365243 533.907893) scale(0.16 -0.16)">
       <defs>
        <path id="CMR17-30" d="M 2688 2025 
C 2688 2416 2682 3080 2413 3591 
C 2176 4039 1798 4198 1466 4198 
C 1158 4198 768 4058 525 3597 
C 269 3118 243 2524 243 2025 
C 243 1661 250 1106 448 619 
C 723 -39 1216 -128 1466 -128 
C 1760 -128 2208 -7 2470 600 
C 2662 1042 2688 1559 2688 2025 
z
M 1466 -26 
C 1056 -26 813 325 723 812 
C 653 1188 653 1738 653 2096 
C 653 2588 653 2997 736 3387 
C 858 3929 1216 4096 1466 4096 
C 1728 4096 2067 3923 2189 3400 
C 2272 3036 2278 2607 2278 2096 
C 2278 1680 2278 1169 2202 792 
C 2067 95 1690 -26 1466 -26 
z
" transform="scale(0.015625)"/>
       </defs>
       <use xlink:href="#CMR17-30" transform="scale(0.996264)"/>
      </g>
     </g>
    </g>
    <g id="xtick_2">
     <g id="line2d_2">
      <path d="M 213.756465 513.338305 
L 213.756465 17.28 
" clip-path="url(#p55e4ba5f21)" style="fill: none; stroke: #cccccc; stroke-linecap: round"/>
     </g>
     <g id="text_2">
      <!-- $\mathdefault{200}$ -->
      <g style="fill: #262626" transform="translate(202.050484 533.907893) scale(0.16 -0.16)">
       <defs>
        <path id="CMR17-32" d="M 2669 989 
L 2554 989 
C 2490 536 2438 459 2413 420 
C 2381 369 1920 369 1830 369 
L 602 369 
C 832 619 1280 1072 1824 1597 
C 2214 1967 2669 2402 2669 3035 
C 2669 3790 2067 4224 1395 4224 
C 691 4224 262 3604 262 3030 
C 262 2780 448 2748 525 2748 
C 589 2748 781 2787 781 3010 
C 781 3207 614 3264 525 3264 
C 486 3264 448 3258 422 3245 
C 544 3790 915 4058 1306 4058 
C 1862 4058 2227 3617 2227 3035 
C 2227 2479 1901 2000 1536 1584 
L 262 146 
L 262 0 
L 2515 0 
L 2669 989 
z
" transform="scale(0.015625)"/>
       </defs>
       <use xlink:href="#CMR17-32" transform="scale(0.996264)"/>
       <use xlink:href="#CMR17-30" transform="translate(45.690477 0) scale(0.996264)"/>
       <use xlink:href="#CMR17-30" transform="translate(91.380954 0) scale(0.996264)"/>
      </g>
     </g>
    </g>
    <g id="xtick_3">
     <g id="line2d_3">
      <path d="M 330.245693 513.338305 
L 330.245693 17.28 
" clip-path="url(#p55e4ba5f21)" style="fill: none; stroke: #cccccc; stroke-linecap: round"/>
     </g>
     <g id="text_3">
      <!-- $\mathdefault{400}$ -->
      <g style="fill: #262626" transform="translate(318.539712 533.907893) scale(0.16 -0.16)">
       <defs>
        <path id="CMR17-34" d="M 2150 4122 
C 2150 4256 2144 4256 2029 4256 
L 128 1254 
L 128 1088 
L 1779 1088 
L 1779 457 
C 1779 224 1766 160 1318 160 
L 1197 160 
L 1197 0 
C 1402 0 1747 0 1965 0 
C 2182 0 2528 0 2733 0 
L 2733 160 
L 2611 160 
C 2163 160 2150 224 2150 457 
L 2150 1088 
L 2803 1088 
L 2803 1254 
L 2150 1254 
L 2150 4122 
z
M 1798 3703 
L 1798 1254 
L 256 1254 
L 1798 3703 
z
" transform="scale(0.015625)"/>
       </defs>
       <use xlink:href="#CMR17-34" transform="scale(0.996264)"/>
       <use xlink:href="#CMR17-30" transform="translate(45.690477 0) scale(0.996264)"/>
       <use xlink:href="#CMR17-30" transform="translate(91.380954 0) scale(0.996264)"/>
      </g>
     </g>
    </g>
    <g id="xtick_4">
     <g id="line2d_4">
      <path d="M 446.734921 513.338305 
L 446.734921 17.28 
" clip-path="url(#p55e4ba5f21)" style="fill: none; stroke: #cccccc; stroke-linecap: round"/>
     </g>
     <g id="text_4">
      <!-- $\mathdefault{600}$ -->
      <g style="fill: #262626" transform="translate(435.028941 533.907893) scale(0.16 -0.16)">
       <defs>
        <path id="CMR17-36" d="M 678 2176 
C 678 3690 1395 4032 1811 4032 
C 1946 4032 2272 4009 2400 3776 
C 2298 3776 2106 3776 2106 3553 
C 2106 3381 2246 3323 2336 3323 
C 2394 3323 2566 3348 2566 3560 
C 2566 3954 2246 4179 1805 4179 
C 1043 4179 243 3390 243 1984 
C 243 253 966 -128 1478 -128 
C 2099 -128 2688 427 2688 1283 
C 2688 2081 2170 2662 1517 2662 
C 1126 2662 838 2407 678 1960 
L 678 2176 
z
M 1478 25 
C 691 25 691 1200 691 1436 
C 691 1896 909 2560 1504 2560 
C 1613 2560 1926 2560 2138 2120 
C 2253 1870 2253 1609 2253 1289 
C 2253 944 2253 690 2118 434 
C 1978 171 1773 25 1478 25 
z
" transform="scale(0.015625)"/>
       </defs>
       <use xlink:href="#CMR17-36" transform="scale(0.996264)"/>
       <use xlink:href="#CMR17-30" transform="translate(45.690477 0) scale(0.996264)"/>
       <use xlink:href="#CMR17-30" transform="translate(91.380954 0) scale(0.996264)"/>
      </g>
     </g>
    </g>
    <g id="xtick_5">
     <g id="line2d_5">
      <path d="M 563.224149 513.338305 
L 563.224149 17.28 
" clip-path="url(#p55e4ba5f21)" style="fill: none; stroke: #cccccc; stroke-linecap: round"/>
     </g>
     <g id="text_5">
      <!-- $\mathdefault{800}$ -->
      <g style="fill: #262626" transform="translate(551.518169 533.907893) scale(0.16 -0.16)">
       <defs>
        <path id="CMR17-38" d="M 1741 2264 
C 2144 2467 2554 2773 2554 3263 
C 2554 3841 1990 4179 1472 4179 
C 890 4179 378 3759 378 3180 
C 378 3021 416 2747 666 2505 
C 730 2442 998 2251 1171 2130 
C 883 1983 211 1634 211 934 
C 211 279 838 -128 1459 -128 
C 2144 -128 2720 362 2720 1010 
C 2720 1590 2330 1857 2074 2029 
L 1741 2264 
z
M 902 2822 
C 851 2854 595 3051 595 3351 
C 595 3739 998 4032 1459 4032 
C 1965 4032 2336 3676 2336 3262 
C 2336 2669 1670 2331 1638 2331 
C 1632 2331 1626 2331 1574 2370 
L 902 2822 
z
M 2080 1519 
C 2176 1449 2483 1240 2483 851 
C 2483 381 2010 25 1472 25 
C 890 25 448 438 448 940 
C 448 1443 838 1862 1280 2060 
L 2080 1519 
z
" transform="scale(0.015625)"/>
       </defs>
       <use xlink:href="#CMR17-38" transform="scale(0.996264)"/>
       <use xlink:href="#CMR17-30" transform="translate(45.690477 0) scale(0.996264)"/>
       <use xlink:href="#CMR17-30" transform="translate(91.380954 0) scale(0.996264)"/>
      </g>
     </g>
    </g>
    <g id="xtick_6">
     <g id="line2d_6">
      <path d="M 679.713377 513.338305 
L 679.713377 17.28 
" clip-path="url(#p55e4ba5f21)" style="fill: none; stroke: #cccccc; stroke-linecap: round"/>
     </g>
     <g id="text_6">
      <!-- $\mathdefault{1000}$ -->
      <g style="fill: #262626" transform="translate(664.105403 533.907893) scale(0.16 -0.16)">
       <defs>
        <path id="CMR17-31" d="M 1702 4058 
C 1702 4192 1696 4192 1606 4192 
C 1357 3916 979 3827 621 3827 
C 602 3827 570 3827 563 3808 
C 557 3795 557 3782 557 3648 
C 755 3648 1088 3686 1344 3839 
L 1344 461 
C 1344 236 1331 160 781 160 
L 589 160 
L 589 0 
C 896 0 1216 0 1523 0 
C 1830 0 2150 0 2458 0 
L 2458 160 
L 2266 160 
C 1715 160 1702 230 1702 458 
L 1702 4058 
z
" transform="scale(0.015625)"/>
       </defs>
       <use xlink:href="#CMR17-31" transform="scale(0.996264)"/>
       <use xlink:href="#CMR17-30" transform="translate(45.690477 0) scale(0.996264)"/>
       <use xlink:href="#CMR17-30" transform="translate(91.380954 0) scale(0.996264)"/>
       <use xlink:href="#CMR17-30" transform="translate(137.071431 0) scale(0.996264)"/>
      </g>
     </g>
    </g>
    <g id="text_7">
     <!-- Step -->
     <g style="fill: #262626" transform="translate(367.822372 554.844366) scale(0.2 -0.2)">
      <defs>
       <path id="CMR17-53" d="M 2803 4290 
C 2803 4404 2797 4411 2758 4411 
C 2720 4411 2707 4385 2682 4328 
L 2490 3907 
C 2246 4257 1875 4416 1472 4416 
C 819 4416 294 3901 294 3253 
C 294 3056 339 2776 557 2510 
C 794 2218 1018 2167 1530 2033 
C 1722 1982 2042 1899 2106 1874 
C 2470 1722 2662 1341 2662 985 
C 2662 527 2336 38 1779 38 
C 1094 38 454 419 410 1311 
C 403 1413 397 1419 352 1419 
C 301 1419 294 1413 294 1285 
L 294 -1 
C 294 -115 301 -122 339 -122 
C 384 -122 397 -90 486 108 
C 493 127 493 140 614 381 
C 934 -39 1472 -128 1779 -128 
C 2477 -128 2970 451 2970 1124 
C 2970 1454 2848 1708 2778 1823 
C 2509 2230 2221 2306 1914 2382 
C 1869 2402 1856 2402 1498 2490 
C 1152 2579 1005 2624 845 2796 
C 666 2992 602 3196 602 3399 
C 602 3812 934 4263 1478 4263 
C 2157 4263 2579 3786 2675 2993 
C 2694 2878 2701 2872 2746 2872 
C 2803 2872 2803 2891 2803 2999 
L 2803 4290 
z
" transform="scale(0.015625)"/>
       <path id="CMR17-74" d="M 966 2560 
L 1862 2560 
L 1862 2725 
L 966 2725 
L 966 3904 
L 851 3904 
C 838 3245 614 2668 70 2668 
L 70 2560 
L 627 2560 
L 627 771 
C 627 650 627 -64 1370 -64 
C 1747 -64 1965 306 1965 777 
L 1965 1140 
L 1850 1140 
L 1850 783 
C 1850 344 1677 51 1408 51 
C 1222 51 966 178 966 758 
L 966 2560 
z
" transform="scale(0.015625)"/>
       <path id="CMR17-65" d="M 2438 1472 
C 2464 1498 2464 1511 2464 1576 
C 2464 2238 2118 2816 1389 2816 
C 710 2816 173 2169 173 1383 
C 173 551 781 -64 1459 -64 
C 2176 -64 2458 607 2458 740 
C 2458 784 2419 784 2406 784 
C 2362 784 2355 771 2330 696 
C 2189 265 1837 51 1504 51 
C 1229 51 954 203 781 480 
C 582 803 582 1176 582 1472 
L 2438 1472 
z
M 589 1568 
C 634 2505 1126 2714 1382 2714 
C 1818 2714 2112 2297 2118 1568 
L 589 1568 
z
" transform="scale(0.015625)"/>
       <path id="CMR17-70" d="M 1408 -1063 
C 998 -1063 973 -1037 973 -789 
L 973 402 
C 1158 134 1427 -38 1766 -38 
C 2406 -38 3053 523 3053 1388 
C 3053 2191 2496 2802 1837 2802 
C 1453 2802 1139 2592 960 2338 
L 960 2802 
L 198 2732 
L 198 2567 
C 576 2567 634 2528 634 2223 
L 634 -789 
C 634 -1031 608 -1063 198 -1063 
L 198 -1228 
C 352 -1216 634 -1216 800 -1216 
C 966 -1216 1254 -1216 1408 -1228 
L 1408 -1063 
z
M 973 2012 
C 973 2102 973 2235 1222 2471 
C 1254 2497 1472 2688 1792 2688 
C 2259 2688 2643 2108 2643 1382 
C 2643 656 2234 64 1728 64 
C 1498 64 1248 172 1056 472 
C 973 612 973 650 973 752 
L 973 2012 
z
" transform="scale(0.015625)"/>
      </defs>
      <use xlink:href="#CMR17-53" transform="scale(0.996264)"/>
      <use xlink:href="#CMR17-74" transform="translate(50.89537 0) scale(0.996264)"/>
      <use xlink:href="#CMR17-65" transform="translate(86.176138 0) scale(0.996264)"/>
      <use xlink:href="#CMR17-70" transform="translate(126.661798 0) scale(0.996264)"/>
     </g>
    </g>
   </g>
   <g id="matplotlib.axis_2">
    <g id="ytick_1">
     <g id="line2d_7">
      <path d="M 68.436153 469.565034 
L 702.72 469.565034 
" clip-path="url(#p55e4ba5f21)" style="fill: none; stroke: #cccccc; stroke-linecap: round"/>
     </g>
     <g id="text_8">
      <!-- $\mathdefault{0.2}$ -->
      <g style="fill: #262626" transform="translate(38.99263 475.099828) scale(0.16 -0.16)">
       <defs>
        <path id="CMMI12-3a" d="M 1178 307 
C 1178 492 1024 619 870 619 
C 685 619 557 466 557 313 
C 557 128 710 0 864 0 
C 1050 0 1178 153 1178 307 
z
" transform="scale(0.015625)"/>
       </defs>
       <use xlink:href="#CMR17-30" transform="scale(0.996264)"/>
       <use xlink:href="#CMMI12-3a" transform="translate(45.690477 0) scale(0.996264)"/>
       <use xlink:href="#CMR17-32" transform="translate(72.787654 0) scale(0.996264)"/>
      </g>
     </g>
    </g>
    <g id="ytick_2">
     <g id="line2d_8">
      <path d="M 68.436153 372.646466 
L 702.72 372.646466 
" clip-path="url(#p55e4ba5f21)" style="fill: none; stroke: #cccccc; stroke-linecap: round"/>
     </g>
     <g id="text_9">
      <!-- $\mathdefault{0.3}$ -->
      <g style="fill: #262626" transform="translate(38.99263 378.18126) scale(0.16 -0.16)">
       <defs>
        <path id="CMR17-33" d="M 1414 2157 
C 1984 2157 2234 1662 2234 1090 
C 2234 320 1824 25 1453 25 
C 1114 25 563 194 390 693 
C 422 680 454 680 486 680 
C 640 680 755 782 755 948 
C 755 1133 614 1216 486 1216 
C 378 1216 211 1165 211 926 
C 211 335 787 -128 1466 -128 
C 2176 -128 2720 430 2720 1085 
C 2720 1707 2208 2157 1600 2227 
C 2086 2328 2554 2756 2554 3329 
C 2554 3820 2048 4179 1472 4179 
C 890 4179 378 3829 378 3329 
C 378 3110 544 3072 627 3072 
C 762 3072 877 3155 877 3321 
C 877 3486 762 3569 627 3569 
C 602 3569 570 3569 544 3557 
C 730 3959 1235 4032 1459 4032 
C 1683 4032 2106 3925 2106 3320 
C 2106 3143 2080 2828 1862 2550 
C 1670 2304 1453 2304 1242 2284 
C 1210 2284 1062 2269 1037 2269 
C 992 2263 966 2257 966 2208 
C 966 2163 973 2157 1101 2157 
L 1414 2157 
z
" transform="scale(0.015625)"/>
       </defs>
       <use xlink:href="#CMR17-30" transform="scale(0.996264)"/>
       <use xlink:href="#CMMI12-3a" transform="translate(45.690477 0) scale(0.996264)"/>
       <use xlink:href="#CMR17-33" transform="translate(72.787654 0) scale(0.996264)"/>
      </g>
     </g>
    </g>
    <g id="ytick_3">
     <g id="line2d_9">
      <path d="M 68.436153 275.727899 
L 702.72 275.727899 
" clip-path="url(#p55e4ba5f21)" style="fill: none; stroke: #cccccc; stroke-linecap: round"/>
     </g>
     <g id="text_10">
      <!-- $\mathdefault{0.4}$ -->
      <g style="fill: #262626" transform="translate(38.99263 281.262693) scale(0.16 -0.16)">
       <use xlink:href="#CMR17-30" transform="scale(0.996264)"/>
       <use xlink:href="#CMMI12-3a" transform="translate(45.690477 0) scale(0.996264)"/>
       <use xlink:href="#CMR17-34" transform="translate(72.787654 0) scale(0.996264)"/>
      </g>
     </g>
    </g>
    <g id="ytick_4">
     <g id="line2d_10">
      <path d="M 68.436153 178.809331 
L 702.72 178.809331 
" clip-path="url(#p55e4ba5f21)" style="fill: none; stroke: #cccccc; stroke-linecap: round"/>
     </g>
     <g id="text_11">
      <!-- $\mathdefault{0.5}$ -->
      <g style="fill: #262626" transform="translate(38.99263 184.344125) scale(0.16 -0.16)">
       <defs>
        <path id="CMR17-35" d="M 730 3692 
C 794 3666 1056 3584 1325 3584 
C 1920 3584 2246 3911 2432 4100 
C 2432 4157 2432 4192 2394 4192 
C 2387 4192 2374 4192 2323 4163 
C 2099 4058 1837 3973 1517 3973 
C 1325 3973 1037 3999 723 4139 
C 653 4171 640 4171 634 4171 
C 602 4171 595 4164 595 4037 
L 595 2203 
C 595 2089 595 2057 659 2057 
C 691 2057 704 2070 736 2114 
C 941 2401 1222 2522 1542 2522 
C 1766 2522 2246 2382 2246 1289 
C 2246 1085 2246 715 2054 421 
C 1894 159 1645 25 1370 25 
C 947 25 518 320 403 814 
C 429 807 480 795 506 795 
C 589 795 749 840 749 1038 
C 749 1210 627 1280 506 1280 
C 358 1280 262 1190 262 1011 
C 262 454 704 -128 1382 -128 
C 2042 -128 2669 440 2669 1264 
C 2669 2030 2170 2624 1549 2624 
C 1222 2624 947 2503 730 2274 
L 730 3692 
z
" transform="scale(0.015625)"/>
       </defs>
       <use xlink:href="#CMR17-30" transform="scale(0.996264)"/>
       <use xlink:href="#CMMI12-3a" transform="translate(45.690477 0) scale(0.996264)"/>
       <use xlink:href="#CMR17-35" transform="translate(72.787654 0) scale(0.996264)"/>
      </g>
     </g>
    </g>
    <g id="ytick_5">
     <g id="line2d_11">
      <path d="M 68.436153 81.890763 
L 702.72 81.890763 
" clip-path="url(#p55e4ba5f21)" style="fill: none; stroke: #cccccc; stroke-linecap: round"/>
     </g>
     <g id="text_12">
      <!-- $\mathdefault{0.6}$ -->
      <g style="fill: #262626" transform="translate(38.99263 87.425557) scale(0.16 -0.16)">
       <use xlink:href="#CMR17-30" transform="scale(0.996264)"/>
       <use xlink:href="#CMMI12-3a" transform="translate(45.690477 0) scale(0.996264)"/>
       <use xlink:href="#CMR17-36" transform="translate(72.787654 0) scale(0.996264)"/>
      </g>
     </g>
    </g>
    <g id="text_13">
     <!-- SSIM -->
     <g style="fill: #262626" transform="translate(31.116997 287.220751) rotate(-90) scale(0.2 -0.2)">
      <defs>
       <path id="CMR17-49" d="M 1261 3905 
C 1261 4192 1338 4192 1798 4192 
L 1798 4352 
C 1594 4352 1267 4352 1050 4352 
C 832 4352 506 4352 301 4352 
L 301 4192 
C 762 4192 838 4192 838 3905 
L 838 447 
C 838 160 762 160 301 160 
L 301 0 
C 506 0 832 0 1050 0 
C 1267 0 1594 0 1798 0 
L 1798 160 
C 1338 160 1261 160 1261 447 
L 1261 3905 
z
" transform="scale(0.015625)"/>
       <path id="CMR17-4d" d="M 1338 4224 
C 1299 4320 1293 4320 1158 4320 
L 339 4320 
L 339 4160 
C 781 4160 851 4160 851 3875 
L 851 610 
C 851 451 851 153 339 153 
L 339 -13 
C 486 0 755 0 915 0 
C 1075 0 1344 0 1491 -13 
L 1491 153 
C 979 153 979 451 979 610 
L 979 4135 
L 986 4135 
L 2490 89 
C 2515 25 2528 -13 2579 -13 
C 2630 -13 2643 25 2669 89 
L 4186 4166 
L 4192 4166 
L 4192 438 
C 4192 153 4122 153 3680 153 
L 3680 -13 
C 3853 0 4198 0 4384 0 
C 4570 0 4922 0 5094 -13 
L 5094 153 
C 4653 153 4582 153 4582 438 
L 4582 3875 
C 4582 4160 4653 4160 5094 4160 
L 5094 4320 
L 4282 4320 
C 4147 4320 4141 4314 4102 4218 
L 2720 502 
L 1338 4224 
z
" transform="scale(0.015625)"/>
      </defs>
      <use xlink:href="#CMR17-53" transform="scale(0.996264)"/>
      <use xlink:href="#CMR17-53" transform="translate(50.89537 0) scale(0.996264)"/>
      <use xlink:href="#CMR17-49" transform="translate(101.79074 0) scale(0.996264)"/>
      <use xlink:href="#CMR17-4d" transform="translate(134.429149 0) scale(0.996264)"/>
     </g>
    </g>
   </g>
   <g id="PolyCollection_1">
    <defs>
     <path id="m1408d7dbb7" d="M 97.267237 -366.079809 
L 97.267237 -304.051926 
L 103.091698 -329.056916 
L 108.916159 -343.400864 
L 114.740621 -342.722434 
L 120.565082 -347.277607 
L 126.389544 -348.731385 
L 132.214005 -349.215978 
L 138.038467 -355.031092 
L 143.862928 -355.418766 
L 149.687389 -355.418766 
L 155.511851 -355.418766 
L 161.336312 -355.418766 
L 167.160774 -363.463008 
L 172.985235 -354.255744 
L 178.809696 -370.247307 
L 184.634158 -365.692135 
L 190.458619 -371.798004 
L 196.283081 -377.419281 
L 202.107542 -382.168291 
L 207.932003 -380.423757 
L 213.756465 -387.401894 
L 219.580926 -403.490376 
L 225.405388 -401.84276 
L 231.229849 -396.996832 
L 237.05431 -398.45061 
L 242.878772 -396.124565 
L 248.703233 -387.498812 
L 254.527695 -388.661835 
L 260.352156 -391.569392 
L 266.176617 -386.626545 
L 272.001079 -390.890962 
L 277.82554 -388.080324 
L 283.650002 -398.838285 
L 289.474463 -396.027646 
L 295.298925 -403.393457 
L 301.123386 -399.904389 
L 306.947847 -390.697125 
L 312.772309 -404.071887 
L 318.59677 -379.357653 
L 324.421232 -380.133001 
L 330.245693 -384.397418 
L 336.070154 -385.851197 
L 341.894616 -379.842245 
L 347.719077 -381.58678 
L 353.543539 -365.207542 
L 359.368 -400.679738 
L 365.192461 -400.001308 
L 371.016923 -396.221483 
L 376.841384 -401.358168 
L 382.665846 -396.221483 
L 388.490307 -98.584562 
L 394.314768 -117.67752 
L 400.13923 -123.686471 
L 405.963691 -123.589552 
L 411.788153 -122.038855 
L 417.612614 -122.620367 
L 423.437076 -122.911122 
L 429.261537 -126.303272 
L 435.085998 -131.536875 
L 440.91046 -132.409142 
L 446.734921 -136.479722 
L 452.559383 -135.995129 
L 458.383844 -134.056758 
L 464.208305 -142.973266 
L 470.032767 -144.7178 
L 475.857228 -148.885299 
L 481.68169 -149.176054 
L 487.506151 -149.079136 
L 493.330612 -149.079136 
L 499.155074 -149.079136 
L 504.979535 -149.176054 
L 510.803997 -149.272973 
L 516.628458 -138.805768 
L 522.452919 -133.766002 
L 528.277381 -133.378328 
L 534.101842 -132.893735 
L 539.926304 -130.180015 
L 545.750765 -130.180015 
L 551.575226 -134.347513 
L 557.399688 -137.351989 
L 563.224149 -145.39623 
L 569.048611 -144.620882 
L 574.873072 -143.748615 
L 580.697534 -141.422569 
L 586.521995 -141.422569 
L 592.346456 -151.308263 
L 598.170918 -150.435996 
L 603.995379 -153.925064 
L 609.819841 -149.563729 
L 615.644302 -134.250595 
L 621.468763 -134.735188 
L 627.293225 -130.858445 
L 633.117686 -122.135774 
L 638.942148 -118.35595 
L 644.766609 -122.038855 
L 650.59107 -121.554263 
L 656.415532 -121.7481 
L 662.239993 -118.549787 
L 668.064455 -119.325135 
L 673.888916 -138.224256 
L 673.888916 -284.958968 
L 673.888916 -284.958968 
L 668.064455 -290.386407 
L 662.239993 -287.091176 
L 656.415532 -287.866525 
L 650.59107 -283.408271 
L 644.766609 -273.716414 
L 638.942148 -289.126466 
L 633.117686 -295.910766 
L 627.293225 -305.699541 
L 621.468763 -315.197561 
L 615.644302 -315.294479 
L 609.819841 -309.18861 
L 603.995379 -300.272101 
L 598.170918 -278.077749 
L 592.346456 -272.747228 
L 586.521995 -271.487287 
L 580.697534 -271.584205 
L 574.873072 -275.36403 
L 569.048611 -283.505189 
L 563.224149 -291.840186 
L 557.399688 -284.958968 
L 551.575226 -278.659261 
L 545.750765 -275.848622 
L 539.926304 -268.967404 
L 534.101842 -264.315313 
L 528.277381 -266.641358 
L 522.452919 -264.412231 
L 516.628458 -268.57973 
L 510.803997 -268.967404 
L 504.979535 -268.288974 
L 499.155074 -266.447521 
L 493.330612 -273.231821 
L 487.506151 -266.932114 
L 481.68169 -264.121476 
L 475.857228 -259.76014 
L 470.032767 -255.786479 
L 464.208305 -261.504674 
L 458.383844 -267.029033 
L 452.559383 -266.447521 
L 446.734921 -265.381417 
L 440.91046 -239.891834 
L 435.085998 -226.420153 
L 429.261537 -227.195501 
L 423.437076 -221.380387 
L 417.612614 -218.278993 
L 411.788153 -184.357494 
L 405.963691 -172.145755 
L 400.13923 -169.335116 
L 394.314768 -162.453898 
L 388.490307 -150.339077 
L 382.665846 -507.483999 
L 376.841384 -530.066025 
L 371.016923 -523.184807 
L 365.192461 -514.074462 
L 359.368 -520.180332 
L 353.543539 -517.56353 
L 347.719077 -519.695739 
L 341.894616 -532.876664 
L 336.070154 -536.171895 
L 330.245693 -532.779745 
L 324.421232 -530.259863 
L 318.59677 -529.77527 
L 312.772309 -513.396032 
L 306.947847 -509.034696 
L 301.123386 -515.915915 
L 295.298925 -510.77923 
L 289.474463 -509.228533 
L 283.650002 -502.347315 
L 277.82554 -480.540637 
L 272.001079 -477.148487 
L 266.176617 -477.923836 
L 260.352156 -484.998891 
L 254.527695 -505.061035 
L 248.703233 -503.801094 
L 242.878772 -493.333888 
L 237.05431 -494.981504 
L 231.229849 -491.88011 
L 225.405388 -490.717087 
L 219.580926 -482.866683 
L 213.756465 -492.364703 
L 207.932003 -480.734474 
L 202.107542 -472.108722 
L 196.283081 -467.747386 
L 190.458619 -468.231979 
L 184.634158 -468.425816 
L 178.809696 -468.425816 
L 172.985235 -461.156924 
L 167.160774 -461.641517 
L 161.336312 -461.932272 
L 155.511851 -461.350761 
L 149.687389 -438.38106 
L 143.862928 -439.544083 
L 138.038467 -438.865653 
L 132.214005 -426.556995 
L 126.389544 -428.107692 
L 120.565082 -425.490891 
L 114.740621 -413.37607 
L 108.916159 -398.45061 
L 103.091698 -390.115614 
L 97.267237 -366.079809 
z
" style="stroke: #ffffff; stroke-opacity: 0.2"/>
    </defs>
    <g clip-path="url(#p55e4ba5f21)">
     <use xlink:href="#m1408d7dbb7" x="0" y="576" style="fill: #4c72b0; fill-opacity: 0.2; stroke: #ffffff; stroke-opacity: 0.2"/>
    </g>
   </g>
   <g id="PolyCollection_2">
    <defs>
     <path id="mccb37c3034" d="M 97.267237 -363.366089 
L 97.267237 -286.509665 
L 103.091698 -325.470929 
L 108.916159 -332.352147 
L 114.740621 -339.911796 
L 120.565082 -337.973424 
L 126.389544 -345.533073 
L 132.214005 -346.986851 
L 138.038467 -346.889932 
L 143.862928 -346.40534 
L 149.687389 -347.08377 
L 155.511851 -350.088245 
L 161.336312 -359.586265 
L 167.160774 -361.621555 
L 172.985235 -359.877021 
L 178.809696 -347.7622 
L 184.634158 -347.859118 
L 190.458619 -347.956037 
L 196.283081 -344.563887 
L 202.107542 -344.563887 
L 207.932003 -347.471444 
L 213.756465 -349.506734 
L 219.580926 -355.806441 
L 225.405388 -368.01818 
L 231.229849 -359.101672 
L 237.05431 -360.167776 
L 242.878772 -359.586265 
L 248.703233 -359.198591 
L 254.527695 -359.004753 
L 260.352156 -357.841731 
L 266.176617 -357.163301 
L 272.001079 -348.537548 
L 277.82554 -340.590226 
L 283.650002 -349.603652 
L 289.474463 -350.282082 
L 295.298925 -350.282082 
L 301.123386 -355.128011 
L 306.947847 -356.387952 
L 312.772309 -356.097196 
L 318.59677 -361.91231 
L 324.421232 -370.344226 
L 330.245693 -356.484871 
L 336.070154 -358.132486 
L 341.894616 -365.692135 
L 347.719077 -366.079809 
L 353.543539 -363.559926 
L 359.368 -363.753763 
L 365.192461 -362.881496 
L 371.016923 -360.070858 
L 376.841384 -367.727425 
L 382.665846 -363.9476 
L 388.490307 -105.271943 
L 394.314768 -112.443917 
L 400.13923 -108.470256 
L 405.963691 -113.316184 
L 411.788153 -119.131298 
L 417.612614 -120.681995 
L 423.437076 -121.166588 
L 429.261537 -121.06967 
L 435.085998 -122.135774 
L 440.91046 -119.422054 
L 446.734921 -118.549787 
L 452.559383 -114.866881 
L 458.383844 -114.091533 
L 464.208305 -120.681995 
L 470.032767 -118.743624 
L 475.857228 -119.325135 
L 481.68169 -118.35595 
L 487.506151 -126.400191 
L 493.330612 -125.81868 
L 499.155074 -134.541351 
L 504.979535 -136.770478 
L 510.803997 -136.673559 
L 516.628458 -134.541351 
L 522.452919 -134.929025 
L 528.277381 -135.025943 
L 534.101842 -134.153676 
L 539.926304 -137.545826 
L 545.750765 -139.387279 
L 551.575226 -141.131813 
L 557.399688 -145.783904 
L 563.224149 -146.946927 
L 569.048611 -150.726751 
L 574.873072 -150.242159 
L 580.697534 -148.497624 
L 586.521995 -153.440471 
L 592.346456 -151.308263 
L 598.170918 -148.691461 
L 603.995379 -148.497624 
L 609.819841 -150.14524 
L 615.644302 -151.599019 
L 621.468763 -149.272973 
L 627.293225 -140.453383 
L 633.117686 -138.999605 
L 638.942148 -138.999605 
L 644.766609 -139.871872 
L 650.59107 -136.285885 
L 656.415532 -138.224256 
L 662.239993 -138.321175 
L 668.064455 -143.264022 
L 673.888916 -148.303787 
L 673.888916 -251.231306 
L 673.888916 -251.231306 
L 668.064455 -241.927124 
L 662.239993 -257.821769 
L 656.415532 -257.240257 
L 650.59107 -269.742753 
L 644.766609 -281.082225 
L 638.942148 -286.80042 
L 633.117686 -297.558382 
L 627.293225 -296.492277 
L 621.468763 -286.315828 
L 615.644302 -278.271587 
L 609.819841 -261.504674 
L 603.995379 -261.504674 
L 598.170918 -255.980316 
L 592.346456 -262.47386 
L 586.521995 -259.372466 
L 580.697534 -277.593157 
L 574.873072 -278.756179 
L 569.048611 -276.139378 
L 563.224149 -287.091176 
L 557.399688 -285.443561 
L 551.575226 -290.580245 
L 545.750765 -293.778557 
L 539.926304 -292.615535 
L 534.101842 -284.958968 
L 528.277381 -260.729326 
L 522.452919 -261.020081 
L 516.628458 -261.310837 
L 510.803997 -258.887873 
L 504.979535 -254.138863 
L 499.155074 -243.671658 
L 493.330612 -243.090146 
L 487.506151 -240.764101 
L 481.68169 -247.451482 
L 475.857228 -243.768576 
L 470.032767 -238.341137 
L 464.208305 -216.922133 
L 458.383844 -211.979286 
L 452.559383 -213.917658 
L 446.734921 -219.635853 
L 440.91046 -226.129397 
L 435.085998 -228.358524 
L 429.261537 -225.063293 
L 423.437076 -220.50812 
L 417.612614 -227.486257 
L 411.788153 -224.5787 
L 405.963691 -207.811788 
L 400.13923 -197.247664 
L 394.314768 -163.810758 
L 388.490307 -139.96879 
L 382.665846 -503.219582 
L 376.841384 -506.417895 
L 371.016923 -496.532201 
L 365.192461 -508.743941 
L 359.368 -517.854286 
L 353.543539 -524.541667 
L 347.719077 -528.806084 
L 341.894616 -509.131615 
L 336.070154 -529.387595 
L 330.245693 -518.92039 
L 324.421232 -533.361257 
L 318.59677 -533.264338 
L 312.772309 -512.620683 
L 306.947847 -503.219582 
L 301.123386 -498.66441 
L 295.298925 -507.774755 
L 289.474463 -504.382605 
L 283.650002 -498.955165 
L 277.82554 -490.232494 
L 272.001079 -491.20168 
L 266.176617 -488.972553 
L 260.352156 -491.686273 
L 254.527695 -493.527725 
L 248.703233 -496.822957 
L 242.878772 -494.787667 
L 237.05431 -489.941738 
L 231.229849 -489.263308 
L 225.405388 -490.329413 
L 219.580926 -503.413419 
L 213.756465 -504.091849 
L 207.932003 -520.761843 
L 202.107542 -520.374169 
L 196.283081 -520.568006 
L 190.458619 -516.8851 
L 184.634158 -516.788182 
L 178.809696 -513.299113 
L 172.985235 -513.977543 
L 167.160774 -518.726553 
L 161.336312 -515.237485 
L 155.511851 -491.104761 
L 149.687389 -466.487445 
L 143.862928 -440.997862 
L 138.038467 -441.385536 
L 132.214005 -432.565946 
L 126.389544 -425.006298 
L 120.565082 -420.935718 
L 114.740621 -404.847236 
L 108.916159 -405.622585 
L 103.091698 -377.225444 
L 97.267237 -363.366089 
z
" style="stroke: #ffffff; stroke-opacity: 0.2"/>
    </defs>
    <g clip-path="url(#p55e4ba5f21)">
     <use xlink:href="#mccb37c3034" x="0" y="576" style="fill: #dd8452; fill-opacity: 0.2; stroke: #ffffff; stroke-opacity: 0.2"/>
    </g>
   </g>
   <g id="PolyCollection_3">
    <defs>
     <path id="m403022dec1" d="M 97.267237 -358.132486 
L 97.267237 -309.285528 
L 103.091698 -316.845176 
L 108.916159 -303.276577 
L 114.740621 -298.527567 
L 120.565082 -306.47489 
L 126.389544 -303.664251 
L 132.214005 -314.519131 
L 138.038467 -307.250238 
L 143.862928 -310.54547 
L 149.687389 -310.836225 
L 155.511851 -309.285528 
L 161.336312 -307.928668 
L 167.160774 -306.959483 
L 172.985235 -300.950531 
L 178.809696 -308.994772 
L 184.634158 -307.347157 
L 190.458619 -297.461463 
L 196.283081 -294.456987 
L 202.107542 -290.289489 
L 207.932003 -293.875476 
L 213.756465 -304.827274 
L 219.580926 -311.2239 
L 225.405388 -317.717444 
L 231.229849 -312.58076 
L 237.05431 -319.752734 
L 242.878772 -308.316343 
L 248.703233 -308.704017 
L 254.527695 -300.272101 
L 260.352156 -310.060877 
L 266.176617 -297.170707 
L 272.001079 -298.236811 
L 277.82554 -298.624486 
L 283.650002 -306.281053 
L 289.474463 -311.90233 
L 295.298925 -301.919717 
L 301.123386 -298.527567 
L 306.947847 -304.148844 
L 312.772309 -303.08274 
L 318.59677 -313.743782 
L 324.421232 -309.963958 
L 330.245693 -318.880466 
L 336.070154 -314.228375 
L 341.894616 -315.197561 
L 347.719077 -311.708492 
L 353.543539 -310.448551 
L 359.368 -311.2239 
L 365.192461 -315.003724 
L 371.016923 -318.008199 
L 376.841384 -313.646864 
L 382.665846 -303.858088 
L 388.490307 -85.500555 
L 394.314768 -85.2098 
L 400.13923 -88.311194 
L 405.963691 -86.56666 
L 411.788153 -89.183461 
L 417.612614 -86.857415 
L 423.437076 -87.632764 
L 429.261537 -88.989624 
L 435.085998 -89.958809 
L 440.91046 -91.606425 
L 446.734921 -90.927995 
L 452.559383 -89.958809 
L 458.383844 -89.280379 
L 464.208305 -87.148171 
L 470.032767 -88.698868 
L 475.857228 -91.412588 
L 481.68169 -89.474217 
L 487.506151 -94.029389 
L 493.330612 -94.513982 
L 499.155074 -104.399676 
L 504.979535 -106.047292 
L 510.803997 -105.078106 
L 516.628458 -111.183976 
L 522.452919 -113.413103 
L 528.277381 -110.796302 
L 534.101842 -113.800777 
L 539.926304 -105.950373 
L 545.750765 -112.443917 
L 551.575226 -109.633279 
L 557.399688 -112.153161 
L 563.224149 -124.074145 
L 569.048611 -120.294321 
L 574.873072 -123.78339 
L 580.697534 -122.620367 
L 586.521995 -110.505546 
L 592.346456 -103.43049 
L 598.170918 -99.553748 
L 603.995379 -108.373337 
L 609.819841 -105.368862 
L 615.644302 -107.694907 
L 621.468763 -107.404152 
L 627.293225 -106.434966 
L 633.117686 -104.78735 
L 638.942148 -104.205839 
L 644.766609 -102.558223 
L 650.59107 -97.809213 
L 656.415532 -104.012002 
L 662.239993 -104.496595 
L 668.064455 -103.042816 
L 673.888916 -103.721246 
L 673.888916 -205.582661 
L 673.888916 -205.582661 
L 668.064455 -202.093592 
L 662.239993 -194.727781 
L 656.415532 -198.604524 
L 650.59107 -196.278478 
L 644.766609 -201.318244 
L 638.942148 -211.785449 
L 633.117686 -217.212889 
L 627.293225 -221.477306 
L 621.468763 -223.997189 
L 615.644302 -215.75911 
L 609.819841 -205.776498 
L 603.995379 -223.415677 
L 598.170918 -222.54341 
L 592.346456 -223.318759 
L 586.521995 -213.820739 
L 580.697534 -214.111495 
L 574.873072 -214.499169 
L 569.048611 -199.864465 
L 563.224149 -205.776498 
L 557.399688 -194.533944 
L 551.575226 -196.956908 
L 545.750765 -202.384348 
L 539.926304 -209.750159 
L 534.101842 -212.173123 
L 528.277381 -214.014576 
L 522.452919 -213.142309 
L 516.628458 -215.662192 
L 510.803997 -220.798876 
L 504.979535 -213.04539 
L 499.155074 -219.442016 
L 493.330612 -223.512596 
L 487.506151 -212.948472 
L 481.68169 -214.886843 
L 475.857228 -221.283469 
L 470.032767 -209.265566 
L 464.208305 -210.525508 
L 458.383844 -208.684055 
L 452.559383 -205.194986 
L 446.734921 -203.450452 
L 440.91046 -200.445977 
L 435.085998 -180.965345 
L 429.261537 -179.802322 
L 423.437076 -165.749129 
L 417.612614 -159.934015 
L 411.788153 -154.118901 
L 405.963691 -151.017507 
L 400.13923 -144.7178 
L 394.314768 -140.64722 
L 388.490307 -137.351989 
L 382.665846 -391.763229 
L 376.841384 -388.855672 
L 371.016923 -390.987881 
L 365.192461 -394.283112 
L 359.368 -392.732415 
L 353.543539 -400.195145 
L 347.719077 -395.446135 
L 341.894616 -398.353692 
L 336.070154 -396.415321 
L 330.245693 -399.12904 
L 324.421232 -399.710552 
L 318.59677 -390.018695 
L 312.772309 -412.794559 
L 306.947847 -410.274676 
L 301.123386 -403.974969 
L 295.298925 -400.970493 
L 289.474463 -408.336304 
L 283.650002 -399.032122 
L 277.82554 -404.750317 
L 272.001079 -407.560956 
L 266.176617 -408.62706 
L 260.352156 -406.979444 
L 254.527695 -380.036083 
L 248.703233 -387.208057 
L 242.878772 -385.948115 
L 237.05431 -393.701601 
L 231.229849 -389.243347 
L 225.405388 -387.789568 
L 219.580926 -382.168291 
L 213.756465 -387.401894 
L 207.932003 -390.212532 
L 202.107542 -390.503288 
L 196.283081 -387.692649 
L 190.458619 -387.983405 
L 184.634158 -389.921777 
L 178.809696 -376.15934 
L 172.985235 -385.65736 
L 167.160774 -371.701086 
L 161.336312 -366.758239 
L 155.511851 -374.317887 
L 149.687389 -383.137477 
L 143.862928 -375.577829 
L 138.038467 -369.956552 
L 132.214005 -362.687659 
L 126.389544 -366.758239 
L 120.565082 -352.898884 
L 114.740621 -355.709522 
L 108.916159 -354.158825 
L 103.091698 -353.092721 
L 97.267237 -358.132486 
z
" style="stroke: #ffffff; stroke-opacity: 0.2"/>
    </defs>
    <g clip-path="url(#p55e4ba5f21)">
     <use xlink:href="#m403022dec1" x="0" y="576" style="fill: #55a868; fill-opacity: 0.2; stroke: #ffffff; stroke-opacity: 0.2"/>
    </g>
   </g>
   <g id="line2d_12">
    <path d="M 97.267237 240.304162 
L 103.091698 206.964175 
L 108.916159 198.823015 
L 114.740621 186.029764 
L 120.565082 179.100087 
L 126.389544 175.804855 
L 132.214005 173.672647 
L 138.038467 170.862008 
L 143.862928 166.549132 
L 149.687389 160.782477 
L 155.511851 156.51806 
L 161.336312 163.399279 
L 167.160774 151.13908 
L 172.985235 146.341611 
L 178.809696 139.65423 
L 184.634158 142.174112 
L 190.458619 134.081412 
L 196.283081 132.773011 
L 202.107542 132.094581 
L 207.932003 128.411676 
L 213.756465 129.138565 
L 219.580926 128.896269 
L 225.405388 128.702431 
L 231.229849 128.702431 
L 237.05431 129.671617 
L 242.878772 132.530715 
L 248.703233 143.094839 
L 254.527695 134.711383 
L 260.352156 132.821471 
L 266.176617 131.367692 
L 272.001079 132.046122 
L 277.82554 133.354523 
L 283.650002 136.068243 
L 289.474463 136.843591 
L 295.298925 134.808301 
L 301.123386 130.107751 
L 306.947847 132.530715 
L 312.772309 132.579174 
L 318.59677 133.354523 
L 324.421232 125.891793 
L 330.245693 125.649496 
L 336.070154 124.05034 
L 341.894616 116.926825 
L 347.719077 118.574441 
L 353.543539 115.23075 
L 359.368 110.675578 
L 365.192461 103.891278 
L 371.016923 119.30133 
L 376.841384 117.94447 
L 382.665846 117.896011 
L 388.490307 445.190014 
L 394.314768 432.63906 
L 400.13923 429.92534 
L 405.963691 421.444965 
L 411.788153 417.76206 
L 417.612614 415.04834 
L 423.437076 410.541626 
L 429.261537 407.827906 
L 435.085998 406.034913 
L 440.91046 400.607473 
L 446.734921 397.360701 
L 452.559383 396.391515 
L 458.383844 393.629336 
L 464.208305 393.871633 
L 470.032767 395.664626 
L 475.857228 391.400209 
L 481.68169 383.452887 
L 487.506151 374.778675 
L 493.330612 371.677281 
L 499.155074 366.346759 
L 504.979535 364.020714 
L 510.803997 363.681499 
L 516.628458 362.27618 
L 522.452919 362.324639 
L 528.277381 360.822401 
L 534.101842 360.24089 
L 539.926304 356.994118 
L 545.750765 360.628564 
L 551.575226 354.522694 
L 557.399688 350.452114 
L 563.224149 353.165834 
L 569.048611 357.430251 
L 574.873072 362.130802 
L 580.697534 370.611176 
L 586.521995 366.104463 
L 592.346456 363.58458 
L 598.170918 357.236414 
L 603.995379 350.597492 
L 609.819841 351.954352 
L 615.644302 354.619613 
L 621.468763 352.196649 
L 627.293225 359.465541 
L 633.117686 359.320163 
L 638.942148 358.447896 
L 644.766609 355.007287 
L 650.59107 351.857434 
L 656.415532 354.910368 
L 662.239993 354.425776 
L 668.064455 349.822144 
L 673.888916 354.425776 
" clip-path="url(#p55e4ba5f21)" style="fill: none; stroke: #4c72b0; stroke-width: 2; stroke-linecap: round"/>
   </g>
   <g id="line2d_13">
    <path d="M 97.267237 244.132446 
L 103.091698 224.651813 
L 108.916159 212.536992 
L 114.740621 210.162488 
L 120.565082 201.585194 
L 126.389544 202.748217 
L 132.214005 198.047667 
L 138.038467 193.78325 
L 143.862928 189.228077 
L 149.687389 189.131158 
L 155.511851 190.536478 
L 161.336312 188.113513 
L 167.160774 185.205956 
L 172.985235 185.787468 
L 178.809696 180.360028 
L 184.634158 173.47881 
L 190.458619 172.267328 
L 196.283081 170.183578 
L 202.107542 167.663696 
L 207.932003 165.531487 
L 213.756465 166.355295 
L 219.580926 163.30236 
L 225.405388 164.513842 
L 231.229849 179.633139 
L 237.05431 173.381891 
L 242.878772 165.725324 
L 248.703233 173.963402 
L 254.527695 173.672647 
L 260.352156 162.187797 
L 266.176617 162.284715 
L 272.001079 162.090878 
L 277.82554 163.253901 
L 283.650002 164.320005 
L 289.474463 157.19649 
L 295.298925 161.315529 
L 301.123386 155.258119 
L 306.947847 155.015823 
L 312.772309 165.725324 
L 318.59677 166.161458 
L 324.421232 168.002911 
L 330.245693 163.835412 
L 336.070154 163.496197 
L 341.894616 161.800122 
L 347.719077 162.430093 
L 353.543539 160.637099 
L 359.368 153.416666 
L 365.192461 148.231523 
L 371.016923 148.764575 
L 376.841384 162.430093 
L 382.665846 165.483028 
L 388.490307 451.53818 
L 394.314768 441.41019 
L 400.13923 433.705164 
L 405.963691 424.594819 
L 411.788153 424.061766 
L 417.612614 422.559529 
L 423.437076 417.519763 
L 429.261537 419.215838 
L 435.085998 413.352265 
L 440.91046 405.792616 
L 446.734921 405.695698 
L 452.559383 405.017268 
L 458.383844 405.501861 
L 464.208305 397.312242 
L 470.032767 393.968551 
L 475.857228 394.501603 
L 481.68169 393.144743 
L 487.506151 386.166607 
L 493.330612 381.90219 
L 499.155074 376.135535 
L 504.979535 372.646466 
L 510.803997 371.871118 
L 516.628458 369.01202 
L 522.452919 369.351235 
L 528.277381 367.267486 
L 534.101842 366.97673 
L 539.926304 364.166092 
L 545.750765 364.844522 
L 551.575226 367.703619 
L 557.399688 365.716789 
L 563.224149 362.22772 
L 569.048611 361.258535 
L 574.873072 362.615395 
L 580.697534 370.708095 
L 586.521995 375.990157 
L 592.346456 387.038874 
L 598.170918 386.215066 
L 603.995379 382.241405 
L 609.819841 377.347017 
L 615.644302 372.598007 
L 621.468763 369.593531 
L 627.293225 371.72574 
L 633.117686 379.18847 
L 638.942148 387.765763 
L 644.766609 381.417597 
L 650.59107 375.602483 
L 656.415532 372.355711 
L 662.239993 376.571668 
L 668.064455 384.082857 
L 673.888916 380.739167 
" clip-path="url(#p55e4ba5f21)" style="fill: none; stroke: #dd8452; stroke-width: 2; stroke-linecap: round"/>
   </g>
   <g id="line2d_14">
    <path d="M 97.267237 243.938608 
L 103.091698 240.837214 
L 108.916159 238.41425 
L 114.740621 237.687361 
L 120.565082 232.017625 
L 126.389544 236.233582 
L 132.214005 237.05739 
L 138.038467 232.35684 
L 143.862928 235.748989 
L 149.687389 235.167478 
L 155.511851 238.656546 
L 161.336312 232.163002 
L 167.160774 233.326025 
L 172.985235 232.550677 
L 178.809696 234.101374 
L 184.634158 239.528814 
L 190.458619 231.145357 
L 196.283081 237.105849 
L 202.107542 236.912012 
L 207.932003 229.885416 
L 213.756465 230.854602 
L 219.580926 227.850126 
L 225.405388 223.53725 
L 231.229849 222.083471 
L 237.05431 227.704748 
L 242.878772 222.131931 
L 248.703233 223.246494 
L 254.527695 230.224631 
L 260.352156 227.365533 
L 266.176617 227.510911 
L 272.001079 229.788498 
L 277.82554 237.687361 
L 283.650002 238.171954 
L 289.474463 240.691836 
L 295.298925 242.436371 
L 301.123386 233.083729 
L 306.947847 236.039745 
L 312.772309 230.176172 
L 318.59677 224.264139 
L 324.421232 228.2378 
L 330.245693 229.449283 
L 336.070154 225.378703 
L 341.894616 230.612305 
L 347.719077 230.079253 
L 353.543539 239.286517 
L 359.368 239.916488 
L 365.192461 233.66524 
L 371.016923 235.652071 
L 376.841384 234.489048 
L 382.665846 234.682885 
L 388.490307 476.349334 
L 394.314768 467.578203 
L 400.13923 467.723581 
L 405.963691 464.42835 
L 411.788153 464.186054 
L 417.612614 459.097829 
L 423.437076 453.476552 
L 429.261537 452.21661 
L 435.085998 452.361988 
L 440.91046 451.150506 
L 446.734921 445.771526 
L 452.559383 445.432311 
L 458.383844 443.397021 
L 464.208305 434.189757 
L 470.032767 436.66118 
L 475.857228 432.784438 
L 481.68169 435.30432 
L 487.506151 432.299845 
L 493.330612 430.361473 
L 499.155074 429.731503 
L 504.979535 428.326183 
L 510.803997 432.057548 
L 516.628458 426.969324 
L 522.452919 425.224789 
L 528.277381 416.502118 
L 534.101842 413.303805 
L 539.926304 410.590086 
L 545.750765 407.682529 
L 551.575226 409.717818 
L 557.399688 410.929301 
L 563.224149 414.272991 
L 569.048611 417.325926 
L 574.873072 423.237959 
L 580.697534 424.255604 
L 586.521995 426.775486 
L 592.346456 429.392288 
L 598.170918 425.273249 
L 603.995379 426.242434 
L 609.819841 433.172112 
L 615.644302 432.5906 
L 621.468763 433.899001 
L 627.293225 429.24691 
L 633.117686 432.929815 
L 638.942148 437.630366 
L 644.766609 437.242692 
L 650.59107 438.308796 
L 656.415532 437.727285 
L 662.239993 436.418884 
L 668.064455 435.401239 
L 673.888916 440.537923 
" clip-path="url(#p55e4ba5f21)" style="fill: none; stroke: #55a868; stroke-width: 2; stroke-linecap: round"/>
   </g>
   <g id="patch_3">
    <path d="M 68.436153 513.338305 
L 68.436153 17.28 
" style="fill: none; stroke: #cccccc; stroke-width: 1.25; stroke-linejoin: miter; stroke-linecap: square"/>
   </g>
   <g id="patch_4">
    <path d="M 702.72 513.338305 
L 702.72 17.28 
" style="fill: none; stroke: #cccccc; stroke-width: 1.25; stroke-linejoin: miter; stroke-linecap: square"/>
   </g>
   <g id="patch_5">
    <path d="M 68.436153 513.338305 
L 702.72 513.338305 
" style="fill: none; stroke: #cccccc; stroke-width: 1.25; stroke-linejoin: miter; stroke-linecap: square"/>
   </g>
   <g id="patch_6">
    <path d="M 68.436153 17.28 
L 702.72 17.28 
" style="fill: none; stroke: #cccccc; stroke-width: 1.25; stroke-linejoin: miter; stroke-linecap: square"/>
   </g>
   <g id="legend_1">
    <g id="patch_7">
     <path d="M 497.017306 148.162063 
L 688.72 148.162063 
Q 692.72 148.162063 692.72 144.162063 
L 692.72 31.28 
Q 692.72 27.28 688.72 27.28 
L 497.017306 27.28 
Q 493.017306 27.28 493.017306 31.28 
L 493.017306 144.162063 
Q 493.017306 148.162063 497.017306 148.162063 
z
" style="fill: #ffffff; opacity: 0.8; stroke: #cccccc; stroke-linejoin: miter"/>
    </g>
    <g id="text_14">
     <!-- Noise -->
     <g style="fill: #262626" transform="translate(566.958142 51.884405) scale(0.24 -0.24)">
      <defs>
       <path id="CMR17-4e" d="M 1312 4250 
C 1267 4320 1261 4320 1139 4320 
L 326 4320 
L 326 4160 
L 448 4160 
C 704 4160 819 4129 838 4122 
L 838 610 
C 838 451 838 153 326 153 
L 326 -13 
C 474 0 742 0 902 0 
C 1062 0 1331 0 1478 -13 
L 1478 153 
C 966 153 966 451 966 610 
L 966 4033 
C 1011 3995 1011 3982 1056 3919 
L 3430 76 
C 3475 0 3494 0 3526 0 
C 3590 0 3590 19 3590 139 
L 3590 3705 
C 3590 3863 3590 4160 4102 4160 
L 4102 4326 
C 3955 4320 3686 4320 3526 4320 
C 3366 4320 3098 4320 2950 4326 
L 2950 4160 
C 3462 4160 3462 3862 3462 3703 
L 3462 763 
L 1312 4250 
z
" transform="scale(0.015625)"/>
       <path id="CMR17-6f" d="M 2758 1356 
C 2758 2176 2163 2816 1466 2816 
C 768 2816 173 2176 173 1356 
C 173 551 768 -64 1466 -64 
C 2163 -64 2758 551 2758 1356 
z
M 1466 51 
C 1165 51 909 230 762 480 
C 602 767 582 1126 582 1408 
C 582 1677 595 2010 762 2298 
C 890 2509 1139 2714 1466 2714 
C 1754 2714 1997 2554 2150 2330 
C 2349 2029 2349 1607 2349 1408 
C 2349 1158 2336 775 2163 467 
C 1984 173 1709 51 1466 51 
z
" transform="scale(0.015625)"/>
       <path id="CMR17-69" d="M 992 3909 
C 992 4049 877 4170 730 4170 
C 589 4170 467 4056 467 3909 
C 467 3769 582 3648 730 3648 
C 870 3648 992 3763 992 3909 
z
M 243 2706 
L 243 2541 
C 602 2541 653 2502 653 2197 
L 653 427 
C 653 184 627 153 218 153 
L 218 -13 
C 371 0 646 0 806 0 
C 960 0 1222 0 1370 -13 
L 1370 153 
C 992 153 979 191 979 420 
L 979 2776 
L 243 2706 
z
" transform="scale(0.015625)"/>
       <path id="CMR17-73" d="M 1978 2697 
C 1978 2813 1971 2819 1933 2819 
C 1907 2819 1901 2813 1824 2717 
C 1805 2691 1747 2626 1728 2601 
C 1523 2819 1235 2819 1126 2819 
C 416 2819 160 2447 160 2076 
C 160 1498 813 1365 998 1325 
C 1402 1243 1542 1217 1677 1101 
C 1760 1025 1901 884 1901 654 
C 1901 384 1747 38 1158 38 
C 602 38 403 460 288 1021 
C 269 1110 269 1117 218 1117 
C 166 1117 160 1110 160 983 
L 160 63 
C 160 -51 166 -58 205 -58 
C 237 -58 243 -51 275 0 
C 314 57 410 211 448 276 
C 576 103 800 -64 1158 -64 
C 1792 -64 2131 283 2131 784 
C 2131 1112 1958 1285 1875 1362 
C 1683 1561 1459 1606 1190 1657 
C 838 1735 390 1825 390 2217 
C 390 2383 480 2737 1126 2737 
C 1811 2737 1850 2094 1862 1888 
C 1869 1856 1901 1849 1920 1849 
C 1978 1849 1978 1869 1978 1978 
L 1978 2697 
z
" transform="scale(0.015625)"/>
      </defs>
      <use xlink:href="#CMR17-4e" transform="scale(0.996264)"/>
      <use xlink:href="#CMR17-6f" transform="translate(69.07243 0) scale(0.996264)"/>
      <use xlink:href="#CMR17-69" transform="translate(114.762907 0) scale(0.996264)"/>
      <use xlink:href="#CMR17-73" transform="translate(139.633965 0) scale(0.996264)"/>
      <use xlink:href="#CMR17-65" transform="translate(175.435303 0) scale(0.996264)"/>
     </g>
    </g>
    <g id="line2d_15">
     <path d="M 501.017306 73.535163 
L 521.017306 73.535163 
L 541.017306 73.535163 
" style="fill: none; stroke: #4c72b0; stroke-width: 2; stroke-linecap: round"/>
    </g>
    <g id="text_15">
     <!-- None -->
     <g style="fill: #262626" transform="translate(557.017306 80.535163) scale(0.2 -0.2)">
      <defs>
       <path id="CMR17-6e" d="M 2656 1933 
C 2656 2259 2592 2790 1837 2790 
C 1331 2790 1069 2400 973 2144 
L 966 2144 
L 966 2790 
L 211 2720 
L 211 2554 
C 589 2554 646 2515 646 2208 
L 646 428 
C 646 184 621 153 211 153 
L 211 -13 
C 365 0 646 0 813 0 
C 979 0 1267 0 1421 -13 
L 1421 153 
C 1011 153 986 178 986 428 
L 986 1658 
C 986 2247 1344 2688 1792 2688 
C 2266 2688 2317 2266 2317 1958 
L 2317 428 
C 2317 184 2291 153 1882 153 
L 1882 -13 
C 2035 0 2317 0 2483 0 
C 2650 0 2938 0 3091 -13 
L 3091 153 
C 2682 153 2656 178 2656 428 
L 2656 1933 
z
" transform="scale(0.015625)"/>
      </defs>
      <use xlink:href="#CMR17-4e" transform="scale(0.996264)"/>
      <use xlink:href="#CMR17-6f" transform="translate(69.07243 0) scale(0.996264)"/>
      <use xlink:href="#CMR17-6e" transform="translate(114.762907 0) scale(0.996264)"/>
      <use xlink:href="#CMR17-65" transform="translate(165.658277 0) scale(0.996264)"/>
     </g>
    </g>
    <g id="line2d_16">
     <path d="M 501.017306 101.410796 
L 521.017306 101.410796 
L 541.017306 101.410796 
" style="fill: none; stroke: #dd8452; stroke-width: 2; stroke-linecap: round"/>
    </g>
    <g id="text_16">
     <!-- Gaussian -->
     <g style="fill: #262626" transform="translate(557.017306 108.410796) scale(0.2 -0.2)">
      <defs>
       <path id="CMR17-47" d="M 3974 1233 
C 3974 1473 3994 1505 4390 1505 
L 4390 1670 
C 4237 1664 3891 1664 3718 1664 
C 3539 1664 3040 1664 2797 1664 
L 2797 1505 
L 2989 1505 
C 3539 1505 3552 1434 3552 1201 
L 3552 774 
C 3552 63 2720 63 2522 63 
C 1862 63 781 511 781 2160 
C 781 3808 1843 4250 2464 4250 
C 3187 4250 3712 3626 3834 2741 
C 3846 2664 3846 2651 3904 2651 
C 3974 2651 3974 2664 3974 2779 
L 3974 4288 
C 3974 4402 3968 4409 3930 4409 
C 3904 4409 3898 4402 3853 4326 
L 3571 3791 
C 3258 4187 2874 4416 2381 4416 
C 1286 4416 294 3456 294 2148 
C 294 845 1267 -128 2394 -128 
C 2912 -128 3418 56 3616 417 
C 3725 158 3904 -20 3936 -20 
C 3968 -20 3974 -13 3974 100 
L 3974 1233 
z
" transform="scale(0.015625)"/>
       <path id="CMR17-61" d="M 2304 1653 
C 2304 2072 2304 2294 2035 2543 
C 1798 2752 1523 2816 1306 2816 
C 800 2816 435 2407 435 1971 
C 435 1728 627 1728 666 1728 
C 749 1728 896 1778 896 1954 
C 896 2112 774 2181 666 2181 
C 640 2181 608 2174 589 2168 
C 723 2592 1069 2714 1293 2714 
C 1613 2714 1965 2429 1965 1885 
L 1965 1600 
C 1587 1600 1133 1549 774 1357 
C 371 1133 256 813 256 570 
C 256 77 832 -64 1171 -64 
C 1523 -64 1850 139 1990 511 
C 2003 233 2182 -18 2464 -18 
C 2598 -18 2938 70 2938 567 
L 2938 920 
L 2822 920 
L 2822 562 
C 2822 178 2650 128 2566 128 
C 2304 128 2304 458 2304 738 
L 2304 1653 
z
M 1965 870 
C 1965 317 1568 38 1216 38 
C 896 38 646 275 646 570 
C 646 761 730 1100 1101 1305 
C 1408 1478 1760 1504 1965 1504 
L 1965 870 
z
" transform="scale(0.015625)"/>
       <path id="CMR17-75" d="M 1882 2693 
L 1882 2528 
C 2259 2528 2317 2489 2317 2186 
L 2317 1032 
C 2317 500 2029 38 1555 38 
C 1030 38 986 348 986 678 
L 986 2763 
L 211 2693 
L 211 2528 
C 467 2528 640 2528 646 2274 
L 646 1058 
C 646 633 646 361 813 183 
C 896 101 1056 -64 1517 -64 
C 2061 -64 2272 377 2323 506 
L 2330 506 
L 2330 -63 
L 3091 -63 
L 3091 128 
C 2714 128 2656 166 2656 473 
L 2656 2763 
L 1882 2693 
z
" transform="scale(0.015625)"/>
      </defs>
      <use xlink:href="#CMR17-47" transform="scale(0.996264)"/>
      <use xlink:href="#CMR17-61" transform="translate(72.355346 0) scale(0.996264)"/>
      <use xlink:href="#CMR17-75" transform="translate(118.045823 0) scale(0.996264)"/>
      <use xlink:href="#CMR17-73" transform="translate(168.941193 0) scale(0.996264)"/>
      <use xlink:href="#CMR17-73" transform="translate(204.74253 0) scale(0.996264)"/>
      <use xlink:href="#CMR17-69" transform="translate(240.543868 0) scale(0.996264)"/>
      <use xlink:href="#CMR17-61" transform="translate(265.414927 0) scale(0.996264)"/>
      <use xlink:href="#CMR17-6e" transform="translate(311.105404 0) scale(0.996264)"/>
     </g>
    </g>
    <g id="line2d_17">
     <path d="M 501.017306 129.28643 
L 521.017306 129.28643 
L 541.017306 129.28643 
" style="fill: none; stroke: #55a868; stroke-width: 2; stroke-linecap: round"/>
    </g>
    <g id="text_17">
     <!-- Salt-and-pepper -->
     <g style="fill: #262626" transform="translate(557.017306 136.28643) scale(0.2 -0.2)">
      <defs>
       <path id="CMR17-6c" d="M 979 4396 
L 218 4326 
L 218 4160 
C 595 4160 653 4122 653 3817 
L 653 426 
C 653 184 627 153 218 153 
L 218 -13 
C 371 0 653 0 813 0 
C 979 0 1261 0 1414 -13 
L 1414 153 
C 1005 153 979 178 979 426 
L 979 4396 
z
" transform="scale(0.015625)"/>
       <path id="CMR17-2d" d="M 1632 1216 
L 1632 1496 
L 26 1496 
L 26 1216 
L 1632 1216 
z
" transform="scale(0.015625)"/>
       <path id="CMR17-64" d="M 1869 4326 
L 1869 4160 
C 2246 4160 2304 4122 2304 3820 
L 2304 2345 
C 2278 2377 2016 2790 1498 2790 
C 845 2790 211 2208 211 1364 
C 211 525 806 -64 1434 -64 
C 1978 -64 2259 337 2291 380 
L 2291 -63 
L 3066 -63 
L 3066 128 
C 2688 128 2630 166 2630 473 
L 2630 4396 
L 1869 4326 
z
M 2291 755 
C 2291 563 2176 390 2029 262 
C 1811 70 1594 38 1472 38 
C 1286 38 621 134 621 1356 
C 621 2612 1363 2688 1530 2688 
C 1824 2688 2061 2522 2208 2291 
C 2291 2157 2291 2138 2291 2023 
L 2291 755 
z
" transform="scale(0.015625)"/>
       <path id="CMR17-72" d="M 960 1497 
C 960 2112 1222 2688 1702 2688 
C 1747 2688 1792 2682 1837 2662 
C 1837 2662 1696 2617 1696 2452 
C 1696 2298 1818 2234 1914 2234 
C 1990 2234 2131 2279 2131 2458 
C 2131 2663 1926 2790 1709 2790 
C 1222 2790 1011 2317 947 2093 
L 941 2093 
L 941 2790 
L 198 2720 
L 198 2554 
C 576 2554 634 2515 634 2208 
L 634 428 
C 634 184 608 153 198 153 
L 198 -13 
C 352 0 646 0 813 0 
C 998 0 1325 0 1498 -13 
L 1498 153 
C 1037 153 960 153 960 440 
L 960 1497 
z
" transform="scale(0.015625)"/>
      </defs>
      <use xlink:href="#CMR17-53" transform="scale(0.996264)"/>
      <use xlink:href="#CMR17-61" transform="translate(50.89537 0) scale(0.996264)"/>
      <use xlink:href="#CMR17-6c" transform="translate(96.585847 0) scale(0.996264)"/>
      <use xlink:href="#CMR17-74" transform="translate(121.456905 0) scale(0.996264)"/>
      <use xlink:href="#CMR17-2d" transform="translate(156.737673 0) scale(0.996264)"/>
      <use xlink:href="#CMR17-61" transform="translate(186.81364 0) scale(0.996264)"/>
      <use xlink:href="#CMR17-6e" transform="translate(232.504117 0) scale(0.996264)"/>
      <use xlink:href="#CMR17-64" transform="translate(283.399486 0) scale(0.996264)"/>
      <use xlink:href="#CMR17-2d" transform="translate(334.294856 0) scale(0.996264)"/>
      <use xlink:href="#CMR17-70" transform="translate(364.370823 0) scale(0.996264)"/>
      <use xlink:href="#CMR17-65" transform="translate(417.868631 0) scale(0.996264)"/>
      <use xlink:href="#CMR17-70" transform="translate(458.354292 0) scale(0.996264)"/>
      <use xlink:href="#CMR17-70" transform="translate(509.249661 0) scale(0.996264)"/>
      <use xlink:href="#CMR17-65" transform="translate(562.74747 0) scale(0.996264)"/>
      <use xlink:href="#CMR17-72" transform="translate(603.23313 0) scale(0.996264)"/>
     </g>
    </g>
   </g>
  </g>
 </g>
 <defs>
  <clipPath id="p55e4ba5f21">
   <rect x="68.436153" y="17.28" width="634.283847" height="496.058305"/>
  </clipPath>
 </defs>
</svg>
