<?xml version="1.0" encoding="utf-8" standalone="no"?>
<!DOCTYPE svg PUBLIC "-//W3C//DTD SVG 1.1//EN"
  "http://www.w3.org/Graphics/SVG/1.1/DTD/svg11.dtd">
<svg xmlns:xlink="http://www.w3.org/1999/xlink" width="720pt" height="576pt" viewBox="0 0 720 576" xmlns="http://www.w3.org/2000/svg" version="1.1">
 <metadata>
  <rdf:RDF xmlns:dc="http://purl.org/dc/elements/1.1/" xmlns:cc="http://creativecommons.org/ns#" xmlns:rdf="http://www.w3.org/1999/02/22-rdf-syntax-ns#">
   <cc:Work>
    <dc:type rdf:resource="http://purl.org/dc/dcmitype/StillImage"/>
    <dc:date>2025-04-24T18:57:39.470954</dc:date>
    <dc:format>image/svg+xml</dc:format>
    <dc:creator>
     <cc:Agent>
      <dc:title>Matplotlib v3.9.2, https://matplotlib.org/</dc:title>
     </cc:Agent>
    </dc:creator>
   </cc:Work>
  </rdf:RDF>
 </metadata>
 <defs>
  <style type="text/css">*{stroke-linejoin: round; stroke-linecap: butt}</style>
 </defs>
 <g id="figure_1">
  <g id="patch_1">
   <path d="M 0 576 
L 720 576 
L 720 0 
L 0 0 
z
" style="fill: #ffffff"/>
  </g>
  <g id="axes_1">
   <g id="patch_2">
    <path d="M 99.405899 495.840956 
L 694.08 495.840956 
L 694.08 49.831226 
L 99.405899 49.831226 
z
" style="fill: #ffffff"/>
   </g>
   <g id="matplotlib.axis_1">
    <g id="xtick_1">
     <g id="line2d_1">
      <path d="M 126.43654 495.840956 
L 126.43654 49.831226 
" clip-path="url(#p7467988df2)" style="fill: none; stroke: #cccccc; stroke-linecap: round"/>
     </g>
     <g id="text_1">
      <!-- $\mathdefault{0}$ -->
      <g style="fill: #262626" transform="translate(121.410587 520.56165) scale(0.22 -0.22)">
       <defs>
        <path id="CMR17-30" d="M 2688 2025 
C 2688 2416 2682 3080 2413 3591 
C 2176 4039 1798 4198 1466 4198 
C 1158 4198 768 4058 525 3597 
C 269 3118 243 2524 243 2025 
C 243 1661 250 1106 448 619 
C 723 -39 1216 -128 1466 -128 
C 1760 -128 2208 -7 2470 600 
C 2662 1042 2688 1559 2688 2025 
z
M 1466 -26 
C 1056 -26 813 325 723 812 
C 653 1188 653 1738 653 2096 
C 653 2588 653 2997 736 3387 
C 858 3929 1216 4096 1466 4096 
C 1728 4096 2067 3923 2189 3400 
C 2272 3036 2278 2607 2278 2096 
C 2278 1680 2278 1169 2202 792 
C 2067 95 1690 -26 1466 -26 
z
" transform="scale(0.015625)"/>
       </defs>
       <use xlink:href="#CMR17-30" transform="scale(0.996264)"/>
      </g>
     </g>
    </g>
    <g id="xtick_2">
     <g id="line2d_2">
      <path d="M 235.651251 495.840956 
L 235.651251 49.831226 
" clip-path="url(#p7467988df2)" style="fill: none; stroke: #cccccc; stroke-linecap: round"/>
     </g>
     <g id="text_2">
      <!-- $\mathdefault{200}$ -->
      <g style="fill: #262626" transform="translate(220.573393 520.56165) scale(0.22 -0.22)">
       <defs>
        <path id="CMR17-32" d="M 2669 989 
L 2554 989 
C 2490 536 2438 459 2413 420 
C 2381 369 1920 369 1830 369 
L 602 369 
C 832 619 1280 1072 1824 1597 
C 2214 1967 2669 2402 2669 3035 
C 2669 3790 2067 4224 1395 4224 
C 691 4224 262 3604 262 3030 
C 262 2780 448 2748 525 2748 
C 589 2748 781 2787 781 3010 
C 781 3207 614 3264 525 3264 
C 486 3264 448 3258 422 3245 
C 544 3790 915 4058 1306 4058 
C 1862 4058 2227 3617 2227 3035 
C 2227 2479 1901 2000 1536 1584 
L 262 146 
L 262 0 
L 2515 0 
L 2669 989 
z
" transform="scale(0.015625)"/>
       </defs>
       <use xlink:href="#CMR17-32" transform="scale(0.996264)"/>
       <use xlink:href="#CMR17-30" transform="translate(45.690477 0) scale(0.996264)"/>
       <use xlink:href="#CMR17-30" transform="translate(91.380954 0) scale(0.996264)"/>
      </g>
     </g>
    </g>
    <g id="xtick_3">
     <g id="line2d_3">
      <path d="M 344.865962 495.840956 
L 344.865962 49.831226 
" clip-path="url(#p7467988df2)" style="fill: none; stroke: #cccccc; stroke-linecap: round"/>
     </g>
     <g id="text_3">
      <!-- $\mathdefault{400}$ -->
      <g style="fill: #262626" transform="translate(329.788104 520.56165) scale(0.22 -0.22)">
       <defs>
        <path id="CMR17-34" d="M 2150 4122 
C 2150 4256 2144 4256 2029 4256 
L 128 1254 
L 128 1088 
L 1779 1088 
L 1779 457 
C 1779 224 1766 160 1318 160 
L 1197 160 
L 1197 0 
C 1402 0 1747 0 1965 0 
C 2182 0 2528 0 2733 0 
L 2733 160 
L 2611 160 
C 2163 160 2150 224 2150 457 
L 2150 1088 
L 2803 1088 
L 2803 1254 
L 2150 1254 
L 2150 4122 
z
M 1798 3703 
L 1798 1254 
L 256 1254 
L 1798 3703 
z
" transform="scale(0.015625)"/>
       </defs>
       <use xlink:href="#CMR17-34" transform="scale(0.996264)"/>
       <use xlink:href="#CMR17-30" transform="translate(45.690477 0) scale(0.996264)"/>
       <use xlink:href="#CMR17-30" transform="translate(91.380954 0) scale(0.996264)"/>
      </g>
     </g>
    </g>
    <g id="xtick_4">
     <g id="line2d_4">
      <path d="M 454.080673 495.840956 
L 454.080673 49.831226 
" clip-path="url(#p7467988df2)" style="fill: none; stroke: #cccccc; stroke-linecap: round"/>
     </g>
     <g id="text_4">
      <!-- $\mathdefault{600}$ -->
      <g style="fill: #262626" transform="translate(439.002815 520.56165) scale(0.22 -0.22)">
       <defs>
        <path id="CMR17-36" d="M 678 2176 
C 678 3690 1395 4032 1811 4032 
C 1946 4032 2272 4009 2400 3776 
C 2298 3776 2106 3776 2106 3553 
C 2106 3381 2246 3323 2336 3323 
C 2394 3323 2566 3348 2566 3560 
C 2566 3954 2246 4179 1805 4179 
C 1043 4179 243 3390 243 1984 
C 243 253 966 -128 1478 -128 
C 2099 -128 2688 427 2688 1283 
C 2688 2081 2170 2662 1517 2662 
C 1126 2662 838 2407 678 1960 
L 678 2176 
z
M 1478 25 
C 691 25 691 1200 691 1436 
C 691 1896 909 2560 1504 2560 
C 1613 2560 1926 2560 2138 2120 
C 2253 1870 2253 1609 2253 1289 
C 2253 944 2253 690 2118 434 
C 1978 171 1773 25 1478 25 
z
" transform="scale(0.015625)"/>
       </defs>
       <use xlink:href="#CMR17-36" transform="scale(0.996264)"/>
       <use xlink:href="#CMR17-30" transform="translate(45.690477 0) scale(0.996264)"/>
       <use xlink:href="#CMR17-30" transform="translate(91.380954 0) scale(0.996264)"/>
      </g>
     </g>
    </g>
    <g id="xtick_5">
     <g id="line2d_5">
      <path d="M 563.295384 495.840956 
L 563.295384 49.831226 
" clip-path="url(#p7467988df2)" style="fill: none; stroke: #cccccc; stroke-linecap: round"/>
     </g>
     <g id="text_5">
      <!-- $\mathdefault{800}$ -->
      <g style="fill: #262626" transform="translate(548.217526 520.56165) scale(0.22 -0.22)">
       <defs>
        <path id="CMR17-38" d="M 1741 2264 
C 2144 2467 2554 2773 2554 3263 
C 2554 3841 1990 4179 1472 4179 
C 890 4179 378 3759 378 3180 
C 378 3021 416 2747 666 2505 
C 730 2442 998 2251 1171 2130 
C 883 1983 211 1634 211 934 
C 211 279 838 -128 1459 -128 
C 2144 -128 2720 362 2720 1010 
C 2720 1590 2330 1857 2074 2029 
L 1741 2264 
z
M 902 2822 
C 851 2854 595 3051 595 3351 
C 595 3739 998 4032 1459 4032 
C 1965 4032 2336 3676 2336 3262 
C 2336 2669 1670 2331 1638 2331 
C 1632 2331 1626 2331 1574 2370 
L 902 2822 
z
M 2080 1519 
C 2176 1449 2483 1240 2483 851 
C 2483 381 2010 25 1472 25 
C 890 25 448 438 448 940 
C 448 1443 838 1862 1280 2060 
L 2080 1519 
z
" transform="scale(0.015625)"/>
       </defs>
       <use xlink:href="#CMR17-38" transform="scale(0.996264)"/>
       <use xlink:href="#CMR17-30" transform="translate(45.690477 0) scale(0.996264)"/>
       <use xlink:href="#CMR17-30" transform="translate(91.380954 0) scale(0.996264)"/>
      </g>
     </g>
    </g>
    <g id="xtick_6">
     <g id="line2d_6">
      <path d="M 672.510095 495.840956 
L 672.510095 49.831226 
" clip-path="url(#p7467988df2)" style="fill: none; stroke: #cccccc; stroke-linecap: round"/>
     </g>
     <g id="text_6">
      <!-- $\mathdefault{1000}$ -->
      <g style="fill: #262626" transform="translate(652.406285 520.56165) scale(0.22 -0.22)">
       <defs>
        <path id="CMR17-31" d="M 1702 4058 
C 1702 4192 1696 4192 1606 4192 
C 1357 3916 979 3827 621 3827 
C 602 3827 570 3827 563 3808 
C 557 3795 557 3782 557 3648 
C 755 3648 1088 3686 1344 3839 
L 1344 461 
C 1344 236 1331 160 781 160 
L 589 160 
L 589 0 
C 896 0 1216 0 1523 0 
C 1830 0 2150 0 2458 0 
L 2458 160 
L 2266 160 
C 1715 160 1702 230 1702 458 
L 1702 4058 
z
" transform="scale(0.015625)"/>
       </defs>
       <use xlink:href="#CMR17-31" transform="scale(0.996264)"/>
       <use xlink:href="#CMR17-30" transform="translate(45.690477 0) scale(0.996264)"/>
       <use xlink:href="#CMR17-30" transform="translate(91.380954 0) scale(0.996264)"/>
       <use xlink:href="#CMR17-30" transform="translate(137.071431 0) scale(0.996264)"/>
      </g>
     </g>
    </g>
    <g id="text_7">
     <!-- Step -->
     <g style="fill: #262626" transform="translate(375.656093 545.429243) scale(0.24 -0.24)">
      <defs>
       <path id="CMSS17-53" d="M 2797 4169 
C 2515 4334 2208 4480 1690 4480 
C 864 4480 333 3879 333 3266 
C 333 3025 403 2753 653 2475 
C 902 2196 1184 2121 1542 2033 
C 1690 1994 1939 1924 1984 1906 
C 2342 1767 2515 1444 2515 1140 
C 2515 742 2202 318 1645 318 
C 1453 318 890 318 358 819 
L 269 318 
C 794 -64 1363 -128 1651 -128 
C 2438 -128 3002 488 3002 1186 
C 3002 1440 2925 1763 2656 2061 
C 2394 2347 2163 2410 1638 2549 
C 1338 2626 1146 2677 986 2873 
C 877 3013 819 3146 819 3317 
C 819 3673 1126 4060 1690 4060 
C 1971 4060 2336 4002 2707 3660 
L 2797 4169 
z
" transform="scale(0.015625)"/>
       <path id="CMSS17-74" d="M 1069 2368 
L 1901 2368 
L 1901 2737 
L 1069 2737 
L 1069 3520 
L 614 3520 
L 614 2737 
L 109 2737 
L 109 2368 
L 602 2368 
L 602 749 
C 602 384 685 -64 1107 -64 
C 1427 -64 1722 25 2003 172 
L 1901 548 
C 1747 414 1562 337 1363 337 
C 1082 337 1069 696 1069 856 
L 1069 2368 
z
" transform="scale(0.015625)"/>
       <path id="CMSS17-65" d="M 2502 1377 
C 2502 1590 2490 2003 2285 2345 
C 2061 2713 1696 2816 1421 2816 
C 755 2816 192 2188 192 1375 
C 192 582 774 -64 1510 -64 
C 1798 -64 2150 19 2470 248 
C 2470 274 2458 414 2451 420 
C 2451 433 2432 630 2432 656 
C 2125 407 1773 325 1517 325 
C 1107 325 666 667 646 1377 
L 2502 1377 
z
M 698 1728 
C 781 2084 1062 2421 1421 2421 
C 1517 2421 1965 2421 2080 1728 
L 698 1728 
z
" transform="scale(0.015625)"/>
       <path id="CMSS17-70" d="M 966 333 
C 1178 129 1466 -5 1773 -5 
C 2368 -5 2880 603 2880 1412 
C 2880 2159 2496 2816 1946 2816 
C 1626 2816 1242 2702 954 2472 
L 954 2765 
L 480 2765 
L 480 -1216 
L 966 -1216 
L 966 333 
z
M 966 2100 
C 1018 2176 1235 2415 1587 2415 
C 2035 2415 2394 1960 2394 1412 
C 2394 787 1958 384 1530 384 
C 1402 384 1267 415 1139 523 
C 966 674 966 768 966 857 
L 966 2100 
z
" transform="scale(0.015625)"/>
      </defs>
      <use xlink:href="#CMSS17-53" transform="scale(0.996264)"/>
      <use xlink:href="#CMSS17-74" transform="translate(52.048516 0) scale(0.996264)"/>
      <use xlink:href="#CMSS17-65" transform="translate(85.880083 0) scale(0.996264)"/>
      <use xlink:href="#CMSS17-70" transform="translate(127.518905 0) scale(0.996264)"/>
     </g>
    </g>
   </g>
   <g id="matplotlib.axis_2">
    <g id="ytick_1">
     <g id="line2d_7">
      <path d="M 99.405899 464.301437 
L 694.08 464.301437 
" clip-path="url(#p7467988df2)" style="fill: none; stroke: #cccccc; stroke-linecap: round"/>
     </g>
     <g id="text_8">
      <!-- $\mathdefault{0.05}$ -->
      <g style="fill: #262626" transform="translate(53.788805 471.911784) scale(0.22 -0.22)">
       <defs>
        <path id="CMMI12-3a" d="M 1178 307 
C 1178 492 1024 619 870 619 
C 685 619 557 466 557 313 
C 557 128 710 0 864 0 
C 1050 0 1178 153 1178 307 
z
" transform="scale(0.015625)"/>
        <path id="CMR17-35" d="M 730 3692 
C 794 3666 1056 3584 1325 3584 
C 1920 3584 2246 3911 2432 4100 
C 2432 4157 2432 4192 2394 4192 
C 2387 4192 2374 4192 2323 4163 
C 2099 4058 1837 3973 1517 3973 
C 1325 3973 1037 3999 723 4139 
C 653 4171 640 4171 634 4171 
C 602 4171 595 4164 595 4037 
L 595 2203 
C 595 2089 595 2057 659 2057 
C 691 2057 704 2070 736 2114 
C 941 2401 1222 2522 1542 2522 
C 1766 2522 2246 2382 2246 1289 
C 2246 1085 2246 715 2054 421 
C 1894 159 1645 25 1370 25 
C 947 25 518 320 403 814 
C 429 807 480 795 506 795 
C 589 795 749 840 749 1038 
C 749 1210 627 1280 506 1280 
C 358 1280 262 1190 262 1011 
C 262 454 704 -128 1382 -128 
C 2042 -128 2669 440 2669 1264 
C 2669 2030 2170 2624 1549 2624 
C 1222 2624 947 2503 730 2274 
L 730 3692 
z
" transform="scale(0.015625)"/>
       </defs>
       <use xlink:href="#CMR17-30" transform="scale(0.996264)"/>
       <use xlink:href="#CMMI12-3a" transform="translate(45.690477 0) scale(0.996264)"/>
       <use xlink:href="#CMR17-30" transform="translate(72.787654 0) scale(0.996264)"/>
       <use xlink:href="#CMR17-35" transform="translate(118.478131 0) scale(0.996264)"/>
      </g>
     </g>
    </g>
    <g id="ytick_2">
     <g id="line2d_8">
      <path d="M 99.405899 401.710608 
L 694.08 401.710608 
" clip-path="url(#p7467988df2)" style="fill: none; stroke: #cccccc; stroke-linecap: round"/>
     </g>
     <g id="text_9">
      <!-- $\mathdefault{0.10}$ -->
      <g style="fill: #262626" transform="translate(53.788805 409.320955) scale(0.22 -0.22)">
       <use xlink:href="#CMR17-30" transform="scale(0.996264)"/>
       <use xlink:href="#CMMI12-3a" transform="translate(45.690477 0) scale(0.996264)"/>
       <use xlink:href="#CMR17-31" transform="translate(72.787654 0) scale(0.996264)"/>
       <use xlink:href="#CMR17-30" transform="translate(118.478131 0) scale(0.996264)"/>
      </g>
     </g>
    </g>
    <g id="ytick_3">
     <g id="line2d_9">
      <path d="M 99.405899 339.119779 
L 694.08 339.119779 
" clip-path="url(#p7467988df2)" style="fill: none; stroke: #cccccc; stroke-linecap: round"/>
     </g>
     <g id="text_10">
      <!-- $\mathdefault{0.15}$ -->
      <g style="fill: #262626" transform="translate(53.788805 346.730126) scale(0.22 -0.22)">
       <use xlink:href="#CMR17-30" transform="scale(0.996264)"/>
       <use xlink:href="#CMMI12-3a" transform="translate(45.690477 0) scale(0.996264)"/>
       <use xlink:href="#CMR17-31" transform="translate(72.787654 0) scale(0.996264)"/>
       <use xlink:href="#CMR17-35" transform="translate(118.478131 0) scale(0.996264)"/>
      </g>
     </g>
    </g>
    <g id="ytick_4">
     <g id="line2d_10">
      <path d="M 99.405899 276.52895 
L 694.08 276.52895 
" clip-path="url(#p7467988df2)" style="fill: none; stroke: #cccccc; stroke-linecap: round"/>
     </g>
     <g id="text_11">
      <!-- $\mathdefault{0.20}$ -->
      <g style="fill: #262626" transform="translate(53.788805 284.139297) scale(0.22 -0.22)">
       <use xlink:href="#CMR17-30" transform="scale(0.996264)"/>
       <use xlink:href="#CMMI12-3a" transform="translate(45.690477 0) scale(0.996264)"/>
       <use xlink:href="#CMR17-32" transform="translate(72.787654 0) scale(0.996264)"/>
       <use xlink:href="#CMR17-30" transform="translate(118.478131 0) scale(0.996264)"/>
      </g>
     </g>
    </g>
    <g id="ytick_5">
     <g id="line2d_11">
      <path d="M 99.405899 213.938121 
L 694.08 213.938121 
" clip-path="url(#p7467988df2)" style="fill: none; stroke: #cccccc; stroke-linecap: round"/>
     </g>
     <g id="text_12">
      <!-- $\mathdefault{0.25}$ -->
      <g style="fill: #262626" transform="translate(53.788805 221.548468) scale(0.22 -0.22)">
       <use xlink:href="#CMR17-30" transform="scale(0.996264)"/>
       <use xlink:href="#CMMI12-3a" transform="translate(45.690477 0) scale(0.996264)"/>
       <use xlink:href="#CMR17-32" transform="translate(72.787654 0) scale(0.996264)"/>
       <use xlink:href="#CMR17-35" transform="translate(118.478131 0) scale(0.996264)"/>
      </g>
     </g>
    </g>
    <g id="ytick_6">
     <g id="line2d_12">
      <path d="M 99.405899 151.347292 
L 694.08 151.347292 
" clip-path="url(#p7467988df2)" style="fill: none; stroke: #cccccc; stroke-linecap: round"/>
     </g>
     <g id="text_13">
      <!-- $\mathdefault{0.30}$ -->
      <g style="fill: #262626" transform="translate(53.788805 158.957639) scale(0.22 -0.22)">
       <defs>
        <path id="CMR17-33" d="M 1414 2157 
C 1984 2157 2234 1662 2234 1090 
C 2234 320 1824 25 1453 25 
C 1114 25 563 194 390 693 
C 422 680 454 680 486 680 
C 640 680 755 782 755 948 
C 755 1133 614 1216 486 1216 
C 378 1216 211 1165 211 926 
C 211 335 787 -128 1466 -128 
C 2176 -128 2720 430 2720 1085 
C 2720 1707 2208 2157 1600 2227 
C 2086 2328 2554 2756 2554 3329 
C 2554 3820 2048 4179 1472 4179 
C 890 4179 378 3829 378 3329 
C 378 3110 544 3072 627 3072 
C 762 3072 877 3155 877 3321 
C 877 3486 762 3569 627 3569 
C 602 3569 570 3569 544 3557 
C 730 3959 1235 4032 1459 4032 
C 1683 4032 2106 3925 2106 3320 
C 2106 3143 2080 2828 1862 2550 
C 1670 2304 1453 2304 1242 2284 
C 1210 2284 1062 2269 1037 2269 
C 992 2263 966 2257 966 2208 
C 966 2163 973 2157 1101 2157 
L 1414 2157 
z
" transform="scale(0.015625)"/>
       </defs>
       <use xlink:href="#CMR17-30" transform="scale(0.996264)"/>
       <use xlink:href="#CMMI12-3a" transform="translate(45.690477 0) scale(0.996264)"/>
       <use xlink:href="#CMR17-33" transform="translate(72.787654 0) scale(0.996264)"/>
       <use xlink:href="#CMR17-30" transform="translate(118.478131 0) scale(0.996264)"/>
      </g>
     </g>
    </g>
    <g id="ytick_7">
     <g id="line2d_13">
      <path d="M 99.405899 88.756463 
L 694.08 88.756463 
" clip-path="url(#p7467988df2)" style="fill: none; stroke: #cccccc; stroke-linecap: round"/>
     </g>
     <g id="text_14">
      <!-- $\mathdefault{0.35}$ -->
      <g style="fill: #262626" transform="translate(53.788805 96.36681) scale(0.22 -0.22)">
       <use xlink:href="#CMR17-30" transform="scale(0.996264)"/>
       <use xlink:href="#CMMI12-3a" transform="translate(45.690477 0) scale(0.996264)"/>
       <use xlink:href="#CMR17-33" transform="translate(72.787654 0) scale(0.996264)"/>
       <use xlink:href="#CMR17-35" transform="translate(118.478131 0) scale(0.996264)"/>
      </g>
     </g>
    </g>
    <g id="text_15">
     <!-- Mean Squared Error (MSE) -->
     <g style="fill: #262626" transform="translate(43.831226 402.556914) rotate(-90) scale(0.24 -0.24)">
      <defs>
       <path id="CMSS17-4d" d="M 3194 2371 
L 2886 1473 
C 2835 1307 2662 791 2624 587 
L 2618 587 
C 2598 715 2560 849 2458 1174 
C 2400 1365 2336 1562 2272 1741 
L 1325 4416 
L 576 4416 
L 576 0 
L 1075 0 
L 1075 3900 
L 1082 3900 
C 1082 3894 1139 3613 1530 2499 
L 2374 96 
L 2848 96 
L 3610 2231 
C 3661 2378 3821 2843 3891 3066 
C 3955 3257 4115 3728 4154 3913 
L 4160 3913 
L 4160 0 
L 4666 0 
L 4666 4416 
L 3923 4416 
L 3194 2371 
z
" transform="scale(0.015625)"/>
       <path id="CMSS17-61" d="M 2406 1791 
C 2406 2392 1978 2808 1402 2808 
C 1120 2808 813 2757 461 2553 
L 499 2135 
C 659 2248 934 2432 1395 2432 
C 1722 2432 1920 2180 1920 1782 
L 1920 1536 
C 896 1536 256 1238 256 726 
C 256 461 416 -64 947 -64 
C 1043 -64 1562 -64 1933 217 
L 1933 -19 
L 2406 -19 
L 2406 1791 
z
M 1920 816 
C 1920 701 1920 548 1728 434 
C 1562 325 1350 325 1261 325 
C 941 325 723 511 723 744 
C 723 1211 1722 1211 1920 1211 
L 1920 816 
z
" transform="scale(0.015625)"/>
       <path id="CMSS17-6e" d="M 2618 1877 
C 2618 2283 2522 2816 1798 2816 
C 1389 2816 1120 2606 941 2389 
L 941 2758 
L 474 2758 
L 474 0 
L 960 0 
L 960 1559 
C 960 1964 1114 2428 1549 2428 
C 2112 2428 2131 2048 2131 1829 
L 2131 0 
L 2618 0 
L 2618 1877 
z
" transform="scale(0.015625)"/>
       <path id="CMSS17-71" d="M 2611 2816 
L 2138 2816 
L 2138 2428 
C 2112 2460 1818 2816 1318 2816 
C 736 2816 211 2228 211 1399 
C 211 633 653 -5 1229 -5 
C 1498 -5 1837 91 2125 365 
L 2125 -1216 
L 2611 -1216 
L 2611 2816 
z
M 2138 914 
C 2138 832 2138 718 1939 554 
C 1888 510 1747 384 1504 384 
C 1050 384 698 850 698 1399 
C 698 2011 1126 2415 1562 2415 
C 1926 2415 2138 2061 2138 1797 
L 2138 914 
z
" transform="scale(0.015625)"/>
       <path id="CMSS17-75" d="M 2618 2739 
L 2131 2739 
L 2131 972 
C 2131 498 1786 306 1421 306 
C 998 306 960 447 960 709 
L 960 2739 
L 474 2739 
L 474 678 
C 474 179 646 -64 1088 -64 
C 1306 -64 1798 -13 2144 306 
L 2144 0 
L 2618 0 
L 2618 2739 
z
" transform="scale(0.015625)"/>
       <path id="CMSS17-72" d="M 954 1363 
C 954 1965 1395 2368 1958 2368 
L 1958 2789 
C 1549 2789 1165 2585 934 2253 
L 934 2758 
L 480 2758 
L 480 0 
L 954 0 
L 954 1363 
z
" transform="scale(0.015625)"/>
       <path id="CMSS17-64" d="M 2611 4416 
L 2138 4416 
L 2138 2438 
C 1939 2603 1613 2756 1254 2756 
C 672 2756 211 2131 211 1347 
C 211 562 666 -64 1235 -64 
C 1677 -64 1971 172 2125 306 
L 2125 -13 
L 2611 -13 
L 2611 4416 
z
M 2125 836 
C 2125 747 2125 653 1926 482 
C 1798 375 1645 325 1498 325 
C 1152 325 698 576 698 1340 
C 698 2134 1210 2368 1562 2368 
C 1798 2368 1990 2254 2125 2065 
L 2125 836 
z
" transform="scale(0.015625)"/>
       <path id="CMSS17-45" d="M 1958 433 
C 1446 433 1216 433 1101 433 
L 1101 2107 
L 3085 2107 
L 3085 2496 
L 1101 2496 
L 1101 4009 
L 1926 4009 
C 2003 4009 2080 4009 2157 4009 
L 3251 4009 
L 3251 4416 
L 563 4416 
L 563 0 
L 3334 0 
L 3334 433 
L 1958 433 
z
" transform="scale(0.015625)"/>
       <path id="CMSS17-6f" d="M 2829 1356 
C 2829 2176 2221 2816 1504 2816 
C 768 2816 173 2157 173 1356 
C 173 544 787 -64 1498 -64 
C 2227 -64 2829 563 2829 1356 
z
M 1504 337 
C 1050 337 659 709 659 1408 
C 659 2151 1114 2427 1498 2427 
C 1914 2427 2342 2126 2342 1408 
C 2342 683 1926 337 1504 337 
z
" transform="scale(0.015625)"/>
       <path id="CMSS17-28" d="M 1613 4768 
C 1267 4417 474 3601 474 1588 
C 474 -433 1267 -1243 1613 -1600 
L 2003 -1600 
C 1216 -784 960 357 960 1581 
C 960 2798 1203 3946 2003 4768 
L 1613 4768 
z
" transform="scale(0.015625)"/>
       <path id="CMSS17-29" d="M 723 -1600 
C 1069 -1249 1862 -433 1862 1581 
C 1862 3601 1069 4411 723 4768 
L 333 4768 
C 1120 3952 1376 2811 1376 1588 
C 1376 370 1133 -778 333 -1600 
L 723 -1600 
z
" transform="scale(0.015625)"/>
      </defs>
      <use xlink:href="#CMSS17-4d" transform="scale(0.996264)"/>
      <use xlink:href="#CMSS17-65" transform="translate(81.67603 0) scale(0.996264)"/>
      <use xlink:href="#CMSS17-61" transform="translate(123.314852 0) scale(0.996264)"/>
      <use xlink:href="#CMSS17-6e" transform="translate(168.236773 0) scale(0.996264)"/>
      <use xlink:href="#CMSS17-53" transform="translate(247.670829 0) scale(0.996264)"/>
      <use xlink:href="#CMSS17-71" transform="translate(299.719345 0) scale(0.996264)"/>
      <use xlink:href="#CMSS17-75" transform="translate(347.924288 0) scale(0.996264)"/>
      <use xlink:href="#CMSS17-61" transform="translate(396.129231 0) scale(0.996264)"/>
      <use xlink:href="#CMSS17-72" transform="translate(438.448698 0) scale(0.996264)"/>
      <use xlink:href="#CMSS17-65" transform="translate(470.35847 0) scale(0.996264)"/>
      <use xlink:href="#CMSS17-64" transform="translate(511.997292 0) scale(0.996264)"/>
      <use xlink:href="#CMSS17-45" transform="translate(591.431348 0) scale(0.996264)"/>
      <use xlink:href="#CMSS17-72" transform="translate(647.323361 0) scale(0.996264)"/>
      <use xlink:href="#CMSS17-72" transform="translate(679.233134 0) scale(0.996264)"/>
      <use xlink:href="#CMSS17-6f" transform="translate(711.142906 0) scale(0.996264)"/>
      <use xlink:href="#CMSS17-72" transform="translate(755.384076 0) scale(0.996264)"/>
      <use xlink:href="#CMSS17-28" transform="translate(818.522961 0) scale(0.996264)"/>
      <use xlink:href="#CMSS17-4d" transform="translate(854.956876 0) scale(0.996264)"/>
      <use xlink:href="#CMSS17-53" transform="translate(936.632906 0) scale(0.996264)"/>
      <use xlink:href="#CMSS17-45" transform="translate(988.681422 0) scale(0.996264)"/>
      <use xlink:href="#CMSS17-29" transform="translate(1044.573435 0) scale(0.996264)"/>
     </g>
    </g>
   </g>
   <g id="PolyCollection_1">
    <defs>
     <path id="m659976af37" d="M 126.43654 -205.835169 
L 126.43654 -190.81337 
L 131.897275 -176.542661 
L 137.358011 -174.414573 
L 142.818746 -177.043388 
L 148.279482 -172.036122 
L 153.740218 -167.279219 
L 159.200953 -167.4044 
L 164.661689 -161.520862 
L 170.122424 -160.394228 
L 175.58316 -157.640231 
L 181.043895 -157.640231 
L 186.504631 -146.2487 
L 191.965366 -148.752333 
L 197.426102 -148.50197 
L 202.886837 -148.126425 
L 208.347573 -146.499064 
L 213.808309 -144.120612 
L 219.269044 -141.491797 
L 224.72978 -139.989617 
L 230.190515 -140.239981 
L 235.651251 -141.74216 
L 241.111986 -142.743614 
L 246.572722 -142.49325 
L 252.033457 -138.737801 
L 257.494193 -141.867342 
L 262.954928 -142.743614 
L 268.415664 -137.485984 
L 273.8764 -139.113346 
L 279.337135 -143.369522 
L 284.797871 -145.49761 
L 290.258606 -151.381148 
L 295.719342 -155.887688 
L 301.180077 -158.391321 
L 306.640813 -135.483078 
L 312.101548 -129.223995 
L 317.562284 -117.331737 
L 323.02302 -118.583554 
L 328.483755 -110.571928 
L 333.944491 -110.947473 
L 339.405226 -120.461279 
L 344.865962 -126.469998 
L 350.326697 -128.222541 
L 355.787433 -126.344817 
L 361.248168 -128.973631 
L 366.708904 -129.098813 
L 372.169639 -128.973631 
L 377.630375 -124.34191 
L 383.091111 -124.967818 
L 388.551846 -123.59082 
L 394.012582 -120.836824 
L 399.473317 -449.939403 
L 404.934053 -407.127276 
L 410.394788 -404.623643 
L 415.855524 -388.850754 
L 421.316259 -366.818782 
L 426.776995 -367.695053 
L 432.23773 -365.817329 
L 437.698466 -360.559699 
L 443.159202 -348.041533 
L 448.619937 -345.162355 
L 454.080673 -339.403999 
L 459.541408 -335.022641 
L 465.002144 -340.155089 
L 470.462879 -336.024094 
L 475.923615 -329.765011 
L 481.38435 -330.891646 
L 486.845086 -330.390919 
L 492.305822 -316.620937 
L 497.766557 -292.71124 
L 503.227293 -267.549727 
L 508.688028 -250.525021 
L 514.148764 -241.136397 
L 519.609499 -247.520662 
L 525.070235 -252.903473 
L 530.53097 -234.001043 
L 535.991706 -229.744866 
L 541.452441 -232.749226 
L 546.913177 -244.641483 
L 552.373913 -233.625498 
L 557.834648 -237.881674 
L 563.295384 -240.63567 
L 568.756119 -269.427452 
L 574.216855 -267.299364 
L 579.67759 -244.265939 
L 585.138326 -234.251406 
L 590.599061 -236.379494 
L 596.059797 -240.385307 
L 601.520532 -235.753586 
L 606.981268 -236.254312 
L 612.442004 -237.881674 
L 617.902739 -221.73324 
L 623.363475 -219.980697 
L 628.82421 -220.731787 
L 634.284946 -220.105878 
L 639.745681 -218.228154 
L 645.206417 -222.985057 
L 650.667152 -217.97779 
L 656.127888 -303.226499 
L 661.588623 -311.864034 
L 667.049359 -311.112944 
L 667.049359 -431.662881 
L 667.049359 -431.662881 
L 661.588623 -431.913244 
L 656.127888 -434.542059 
L 650.667152 -432.413971 
L 645.206417 -432.413971 
L 639.745681 -432.413971 
L 634.284946 -432.413971 
L 628.82421 -432.789516 
L 623.363475 -438.297509 
L 617.902739 -438.673054 
L 612.442004 -438.42269 
L 606.981268 -433.790969 
L 601.520532 -432.288789 
L 596.059797 -432.288789 
L 590.599061 -432.288789 
L 585.138326 -432.288789 
L 579.67759 -432.288789 
L 574.216855 -432.288789 
L 568.756119 -432.288789 
L 563.295384 -432.288789 
L 557.834648 -455.697759 
L 552.373913 -455.948122 
L 546.913177 -450.690493 
L 541.452441 -425.904524 
L 535.991706 -420.772076 
L 530.53097 -416.265537 
L 525.070235 -416.390718 
L 519.609499 -436.419784 
L 514.148764 -436.92051 
L 508.688028 -420.146168 
L 503.227293 -442.428503 
L 497.766557 -447.185406 
L 492.305822 -452.317854 
L 486.845086 -452.943763 
L 481.38435 -472.972828 
L 475.923615 -475.100916 
L 470.462879 -474.975734 
L 465.002144 -479.357092 
L 459.541408 -477.479368 
L 454.080673 -475.852006 
L 448.619937 -476.352733 
L 443.159202 -476.227551 
L 437.698466 -476.227551 
L 432.23773 -469.843286 
L 426.776995 -465.211565 
L 421.316259 -467.84038 
L 415.855524 -505.895604 
L 410.394788 -483.863632 
L 404.934053 -493.878165 
L 399.473317 -494.25371 
L 394.012582 -187.934192 
L 388.551846 -187.558647 
L 383.091111 -187.183102 
L 377.630375 -187.057921 
L 372.169639 -189.686736 
L 366.708904 -189.436372 
L 361.248168 -189.186009 
L 355.787433 -190.062281 
L 350.326697 -193.191822 
L 344.865962 -201.078266 
L 339.405226 -187.057921 
L 333.944491 -187.057921 
L 328.483755 -187.057921 
L 323.02302 -186.181649 
L 317.562284 -186.682376 
L 312.101548 -186.557194 
L 306.640813 -186.181649 
L 301.180077 -186.557194 
L 295.719342 -185.305378 
L 290.258606 -184.929833 
L 284.797871 -185.180196 
L 279.337135 -185.180196 
L 273.8764 -184.554288 
L 268.415664 -184.554288 
L 262.954928 -184.929833 
L 257.494193 -184.929833 
L 252.033457 -184.929833 
L 246.572722 -184.178743 
L 241.111986 -183.928379 
L 235.651251 -183.552834 
L 230.190515 -183.552834 
L 224.72978 -183.177289 
L 219.269044 -182.801744 
L 213.808309 -182.801744 
L 208.347573 -182.801744 
L 202.886837 -182.801744 
L 197.426102 -182.926926 
L 191.965366 -189.937099 
L 186.504631 -185.555741 
L 181.043895 -187.433466 
L 175.58316 -190.563007 
L 170.122424 -187.308284 
L 164.661689 -185.680922 
L 159.200953 -185.305378 
L 153.740218 -185.680922 
L 148.279482 -205.08408 
L 142.818746 -190.81337 
L 137.358011 -191.689642 
L 131.897275 -192.440732 
L 126.43654 -205.835169 
z
" style="stroke: #ffffff; stroke-opacity: 0.2"/>
    </defs>
    <g clip-path="url(#p7467988df2)">
     <use xlink:href="#m659976af37" x="0" y="576" style="fill: #4c72b0; fill-opacity: 0.2; stroke: #ffffff; stroke-opacity: 0.2"/>
    </g>
   </g>
   <g id="PolyCollection_2">
    <defs>
     <path id="mb25125317f" d="M 126.43654 -199.82645 
L 126.43654 -187.558647 
L 131.897275 -183.803198 
L 137.358011 -179.171476 
L 142.818746 -169.532489 
L 148.279482 -169.156944 
L 153.740218 -172.036122 
L 159.200953 -173.538302 
L 164.661689 -173.162757 
L 170.122424 -173.162757 
L 175.58316 -154.635871 
L 181.043895 -137.485984 
L 186.504631 -130.726175 
L 191.965366 -135.107533 
L 197.426102 -129.474358 
L 202.886837 -128.723268 
L 208.347573 -126.59518 
L 213.808309 -128.723268 
L 219.269044 -118.708735 
L 224.72978 -116.831011 
L 230.190515 -116.079921 
L 235.651251 -116.205102 
L 241.111986 -115.078467 
L 246.572722 -111.323018 
L 252.033457 -109.445293 
L 257.494193 -107.692749 
L 262.954928 -108.819384 
L 268.415664 -111.948926 
L 273.8764 -114.953286 
L 279.337135 -120.336097 
L 284.797871 -130.475811 
L 290.258606 -151.130785 
L 295.719342 -153.509236 
L 301.180077 -149.628605 
L 306.640813 -119.710189 
L 312.101548 -119.459825 
L 317.562284 -119.209462 
L 323.02302 -119.08428 
L 328.483755 -121.212369 
L 333.944491 -124.717455 
L 339.405226 -123.841183 
L 344.865962 -125.593727 
L 350.326697 -124.842637 
L 355.787433 -130.225448 
L 361.248168 -126.720362 
L 366.708904 -128.84845 
L 372.169639 -124.842637 
L 377.630375 -124.467092 
L 383.091111 -116.455466 
L 388.551846 -127.972178 
L 394.012582 -144.370975 
L 399.473317 -431.788062 
L 404.934053 -425.403798 
L 410.394788 -423.901618 
L 415.855524 -418.143262 
L 421.316259 -410.006454 
L 426.776995 -405.374733 
L 432.23773 -393.983202 
L 437.698466 -372.827501 
L 443.159202 -371.826048 
L 448.619937 -386.34712 
L 454.080673 -434.542059 
L 459.541408 -437.6716 
L 465.002144 -399.86674 
L 470.462879 -395.235018 
L 475.923615 -364.315149 
L 481.38435 -354.801343 
L 486.845086 -346.789717 
L 492.305822 -331.642736 
L 497.766557 -343.409812 
L 503.227293 -341.78245 
L 508.688028 -350.920711 
L 514.148764 -360.935244 
L 519.609499 -354.926524 
L 525.070235 -340.655815 
L 530.53097 -340.405452 
L 535.991706 -312.239579 
L 541.452441 -305.730133 
L 546.913177 -305.229406 
L 552.373913 -304.979043 
L 557.834648 -311.989216 
L 563.295384 -311.613671 
L 568.756119 -315.995029 
L 574.216855 -318.874207 
L 579.67759 -321.252658 
L 585.138326 -316.12021 
L 590.599061 -329.639829 
L 596.059797 -321.002295 
L 601.520532 -314.117304 
L 606.981268 -315.744665 
L 612.442004 -317.372027 
L 617.902739 -322.754838 
L 623.363475 -308.484129 
L 628.82421 -308.859674 
L 634.284946 -320.501568 
L 639.745681 -322.254112 
L 645.206417 -305.730133 
L 650.667152 -293.712693 
L 656.127888 -281.820436 
L 661.588623 -269.928178 
L 667.049359 -248.89766 
L 667.049359 -482.736997 
L 667.049359 -482.736997 
L 661.588623 -481.359999 
L 656.127888 -475.726824 
L 650.667152 -474.725371 
L 645.206417 -471.721011 
L 639.745681 -467.590017 
L 634.284946 -467.84038 
L 628.82421 -464.210112 
L 623.363475 -462.457569 
L 617.902739 -460.454662 
L 612.442004 -460.454662 
L 606.981268 -459.828754 
L 601.520532 -460.705025 
L 596.059797 -460.204299 
L 590.599061 -458.702119 
L 585.138326 -458.827301 
L 579.67759 -458.952482 
L 574.216855 -448.312041 
L 568.756119 -451.691946 
L 563.295384 -462.833114 
L 557.834648 -456.323667 
L 552.373913 -458.076211 
L 546.913177 -450.189766 
L 541.452441 -447.310588 
L 535.991706 -447.310588 
L 530.53097 -447.185406 
L 525.070235 -447.185406 
L 519.609499 -453.820034 
L 514.148764 -458.201392 
L 508.688028 -462.457569 
L 503.227293 -460.454662 
L 497.766557 -460.32948 
L 492.305822 -460.079117 
L 486.845086 -460.204299 
L 481.38435 -460.955389 
L 475.923615 -461.330934 
L 470.462879 -461.83166 
L 465.002144 -462.833114 
L 459.541408 -487.4939 
L 454.080673 -495.505526 
L 448.619937 -492.876712 
L 443.159202 -494.378891 
L 437.698466 -495.75589 
L 432.23773 -496.256616 
L 426.776995 -495.255163 
L 421.316259 -492.876712 
L 415.855524 -489.621988 
L 410.394788 -489.496807 
L 404.934053 -488.99608 
L 399.473317 -498.134341 
L 394.012582 -181.925473 
L 388.551846 -181.049201 
L 383.091111 -181.675109 
L 377.630375 -181.549928 
L 372.169639 -181.549928 
L 366.708904 -181.299564 
L 361.248168 -181.174383 
L 355.787433 -180.673656 
L 350.326697 -180.673656 
L 344.865962 -180.17293 
L 339.405226 -179.797385 
L 333.944491 -179.672203 
L 328.483755 -180.798838 
L 323.02302 -182.426199 
L 317.562284 -182.301018 
L 312.101548 -182.050654 
L 306.640813 -181.925473 
L 301.180077 -181.925473 
L 295.719342 -182.050654 
L 290.258606 -181.174383 
L 284.797871 -180.924019 
L 279.337135 -181.424746 
L 273.8764 -180.047748 
L 268.415664 -179.296658 
L 262.954928 -181.675109 
L 257.494193 -181.049201 
L 252.033457 -183.552834 
L 246.572722 -181.549928 
L 241.111986 -180.548475 
L 235.651251 -180.423293 
L 230.190515 -180.423293 
L 224.72978 -180.298111 
L 219.269044 -180.423293 
L 213.808309 -180.423293 
L 208.347573 -180.423293 
L 202.886837 -179.922566 
L 197.426102 -180.047748 
L 191.965366 -188.059374 
L 186.504631 -186.432012 
L 181.043895 -186.682376 
L 175.58316 -184.929833 
L 170.122424 -189.811917 
L 164.661689 -189.937099 
L 159.200953 -189.937099 
L 153.740218 -189.937099 
L 148.279482 -193.191822 
L 142.818746 -194.193275 
L 137.358011 -196.071 
L 131.897275 -196.82209 
L 126.43654 -199.82645 
z
" style="stroke: #ffffff; stroke-opacity: 0.2"/>
    </defs>
    <g clip-path="url(#p7467988df2)">
     <use xlink:href="#mb25125317f" x="0" y="576" style="fill: #dd8452; fill-opacity: 0.2; stroke: #ffffff; stroke-opacity: 0.2"/>
    </g>
   </g>
   <g id="PolyCollection_3">
    <defs>
     <path id="med0124b43e" d="M 126.43654 -207.712894 
L 126.43654 -184.178743 
L 131.897275 -173.162757 
L 137.358011 -182.050654 
L 142.818746 -160.143864 
L 148.279482 -160.394228 
L 153.740218 -151.130785 
L 159.200953 -139.363709 
L 164.661689 -139.238527 
L 170.122424 -138.612619 
L 175.58316 -138.612619 
L 181.043895 -138.487437 
L 186.504631 -139.113346 
L 191.965366 -138.487437 
L 197.426102 -138.487437 
L 202.886837 -122.464185 
L 208.347573 -115.954739 
L 213.808309 -104.187663 
L 219.269044 -100.557395 
L 224.72978 -100.557395 
L 230.190515 -100.557395 
L 235.651251 -100.557395 
L 241.111986 -100.432213 
L 246.572722 -101.68403 
L 252.033457 -114.577741 
L 257.494193 -115.328831 
L 262.954928 -117.5821 
L 268.415664 -116.705829 
L 273.8764 -116.580647 
L 279.337135 -112.825197 
L 284.797871 -111.823744 
L 290.258606 -112.074108 
L 295.719342 -112.574834 
L 301.180077 -112.574834 
L 306.640813 -113.200742 
L 312.101548 -112.449652 
L 317.562284 -112.574834 
L 323.02302 -118.583554 
L 328.483755 -125.84409 
L 333.944491 -125.718908 
L 339.405226 -127.596633 
L 344.865962 -123.465638 
L 350.326697 -123.340457 
L 355.787433 -123.841183 
L 361.248168 -122.964912 
L 366.708904 -124.216728 
L 372.169639 -115.704376 
L 377.630375 -110.446746 
L 383.091111 -111.197836 
L 388.551846 -111.698563 
L 394.012582 -110.196383 
L 399.473317 -466.713745 
L 404.934053 -432.539152 
L 410.394788 -405.499914 
L 415.855524 -379.587311 
L 421.316259 -369.69796 
L 426.776995 -369.823142 
L 432.23773 -378.836221 
L 437.698466 -366.943963 
L 443.159202 -360.810062 
L 448.619937 -358.807156 
L 454.080673 -351.671801 
L 459.541408 -351.045893 
L 465.002144 -347.79117 
L 470.462879 -345.5379 
L 475.923615 -345.913445 
L 481.38435 -346.038627 
L 486.845086 -346.28899 
L 492.305822 -339.403999 
L 497.766557 -336.524821 
L 503.227293 -329.013921 
L 508.688028 -320.62675 
L 514.148764 -315.494302 
L 519.609499 -307.357494 
L 525.070235 -276.687988 
L 530.53097 -277.56426 
L 535.991706 -293.337148 
L 541.452441 -297.718507 
L 546.913177 -291.709787 
L 552.373913 -288.580245 
L 557.834648 -288.580245 
L 563.295384 -284.324069 
L 568.756119 -285.075159 
L 574.216855 -246.519208 
L 579.67759 -244.891847 
L 585.138326 -249.64875 
L 590.599061 -251.90202 
L 596.059797 -252.277565 
L 601.520532 -245.267392 
L 606.981268 -259.538101 
L 612.442004 -244.39112 
L 617.902739 -252.402746 
L 623.363475 -259.913646 
L 628.82421 -265.797184 
L 634.284946 -257.410013 
L 639.745681 -249.398386 
L 645.206417 -246.394027 
L 650.667152 -263.794277 
L 656.127888 -273.933991 
L 661.588623 -300.97323 
L 667.049359 -304.728679 
L 667.049359 -418.643988 
L 667.049359 -418.643988 
L 661.588623 -418.268443 
L 656.127888 -417.892898 
L 650.667152 -418.01808 
L 645.206417 -412.885632 
L 639.745681 -409.756091 
L 634.284946 -411.383452 
L 628.82421 -414.763357 
L 623.363475 -407.502821 
L 617.902739 -403.497008 
L 612.442004 -401.744464 
L 606.981268 -400.868193 
L 601.520532 -398.740105 
L 596.059797 -397.738651 
L 590.599061 -398.740105 
L 585.138326 -393.357293 
L 579.67759 -395.109837 
L 574.216855 -393.983202 
L 568.756119 -392.481022 
L 563.295384 -403.371826 
L 557.834648 -410.256817 
L 552.373913 -470.218831 
L 546.913177 -425.779343 
L 541.452441 -398.239378 
L 535.991706 -396.11129 
L 530.53097 -395.735745 
L 525.070235 -395.860927 
L 519.609499 -419.895805 
L 514.148764 -402.620736 
L 508.688028 -404.248098 
L 503.227293 -460.705025 
L 497.766557 -479.607456 
L 492.305822 -468.341107 
L 486.845086 -462.833114 
L 481.38435 -465.58711 
L 475.923615 -465.211565 
L 470.462879 -480.233364 
L 465.002144 -485.365812 
L 459.541408 -485.741357 
L 454.080673 -487.619082 
L 448.619937 -489.121262 
L 443.159202 -485.741357 
L 437.698466 -485.490994 
L 432.23773 -490.49826 
L 426.776995 -490.873805 
L 421.316259 -490.873805 
L 415.855524 -490.873805 
L 410.394788 -490.998987 
L 404.934053 -479.857819 
L 399.473317 -480.734091 
L 394.012582 -196.071 
L 388.551846 -196.196182 
L 383.091111 -195.31991 
L 377.630375 -197.072453 
L 372.169639 -197.948725 
L 366.708904 -197.072453 
L 361.248168 -188.309737 
L 355.787433 -187.308284 
L 350.326697 -178.295205 
L 344.865962 -177.91966 
L 339.405226 -179.547021 
L 333.944491 -180.548475 
L 328.483755 -185.555741 
L 323.02302 -185.555741 
L 317.562284 -186.432012 
L 312.101548 -186.432012 
L 306.640813 -186.432012 
L 301.180077 -186.432012 
L 295.719342 -186.807557 
L 290.258606 -186.682376 
L 284.797871 -186.306831 
L 279.337135 -186.306831 
L 273.8764 -185.180196 
L 268.415664 -184.554288 
L 262.954928 -184.679469 
L 257.494193 -184.554288 
L 252.033457 -184.679469 
L 246.572722 -184.554288 
L 241.111986 -183.177289 
L 235.651251 -182.426199 
L 230.190515 -182.426199 
L 224.72978 -182.426199 
L 219.269044 -182.426199 
L 213.808309 -182.426199 
L 208.347573 -181.424746 
L 202.886837 -184.804651 
L 197.426102 -185.055014 
L 191.965366 -185.055014 
L 186.504631 -186.682376 
L 181.043895 -188.059374 
L 175.58316 -193.317004 
L 170.122424 -191.063734 
L 164.661689 -189.186009 
L 159.200953 -196.571727 
L 153.740218 -189.686736 
L 148.279482 -190.563007 
L 142.818746 -195.695455 
L 137.358011 -198.824997 
L 131.897275 -198.32427 
L 126.43654 -207.712894 
z
" style="stroke: #ffffff; stroke-opacity: 0.2"/>
    </defs>
    <g clip-path="url(#p7467988df2)">
     <use xlink:href="#med0124b43e" x="0" y="576" style="fill: #55a868; fill-opacity: 0.2; stroke: #ffffff; stroke-opacity: 0.2"/>
    </g>
   </g>
   <g id="line2d_14">
    <path d="M 126.43654 379.17791 
L 131.897275 386.939173 
L 137.358011 390.819804 
L 142.818746 395.576707 
L 148.279482 397.204069 
L 153.740218 398.330704 
L 159.200953 396.703342 
L 164.661689 402.837243 
L 170.122424 404.464605 
L 175.58316 401.460245 
L 181.043895 407.09342 
L 186.504631 407.343783 
L 191.965366 408.094873 
L 197.426102 407.09342 
L 202.886837 405.716421 
L 208.347573 407.09342 
L 213.808309 408.720781 
L 219.269044 409.096326 
L 224.72978 417.483497 
L 230.190515 417.608679 
L 235.651251 417.733861 
L 241.111986 414.729501 
L 246.572722 414.479138 
L 252.033457 413.102139 
L 257.494193 413.853229 
L 262.954928 413.853229 
L 268.415664 415.355409 
L 273.8764 421.364129 
L 279.337135 422.866309 
L 284.797871 421.238947 
L 290.258606 418.735314 
L 295.719342 405.215695 
L 301.180077 412.351049 
L 306.640813 412.100686 
L 312.101548 412.225868 
L 317.562284 407.969691 
L 323.02302 405.841603 
L 328.483755 404.589787 
L 333.944491 412.976958 
L 339.405226 412.351049 
L 344.865962 412.351049 
L 350.326697 412.476231 
L 355.787433 409.722235 
L 361.248168 408.720781 
L 366.708904 409.597053 
L 372.169639 405.340876 
L 377.630375 391.195349 
L 383.091111 391.195349 
L 388.551846 392.697529 
L 394.012582 398.956612 
L 399.473317 105.15526 
L 404.934053 108.409983 
L 410.394788 120.677786 
L 415.855524 120.928149 
L 421.316259 121.053331 
L 426.776995 130.316774 
L 432.23773 135.32404 
L 437.698466 119.300788 
L 443.159202 117.423063 
L 448.619937 122.680692 
L 454.080673 122.931056 
L 459.541408 123.056237 
L 465.002144 123.056237 
L 470.462879 123.056237 
L 475.923615 123.056237 
L 481.38435 123.056237 
L 486.845086 124.308054 
L 492.305822 149.094022 
L 497.766557 155.603468 
L 503.227293 190.278788 
L 508.688028 233.216097 
L 514.148764 217.568389 
L 519.609499 173.504446 
L 525.070235 243.105448 
L 530.53097 246.234989 
L 535.991706 252.994799 
L 541.452441 253.245162 
L 546.913177 265.012238 
L 552.373913 263.134513 
L 557.834648 267.140326 
L 563.295384 281.661398 
L 568.756119 294.179564 
L 574.216855 294.555109 
L 579.67759 289.547843 
L 585.138326 286.042756 
L 590.599061 280.2844 
L 596.059797 279.157765 
L 601.520532 281.411035 
L 606.981268 277.780767 
L 612.442004 275.77786 
L 617.902739 277.405222 
L 623.363475 283.664305 
L 628.82421 280.910308 
L 634.284946 277.154859 
L 639.745681 271.772047 
L 645.206417 248.112714 
L 650.667152 223.702291 
L 656.127888 223.827472 
L 661.588623 203.548044 
L 667.049359 201.04441 
" clip-path="url(#p7467988df2)" style="fill: none; stroke: #4c72b0; stroke-width: 1.5; stroke-linecap: round"/>
   </g>
   <g id="line2d_15">
    <path d="M 126.43654 379.303092 
L 131.897275 383.183723 
L 137.358011 383.809631 
L 142.818746 390.569441 
L 148.279482 390.694622 
L 153.740218 393.824164 
L 159.200953 397.454432 
L 164.661689 398.956612 
L 170.122424 399.081794 
L 175.58316 398.581067 
L 181.043895 399.081794 
L 186.504631 398.706249 
L 191.965366 400.083247 
L 197.426102 403.33797 
L 202.886837 405.716421 
L 208.347573 404.714968 
L 213.808309 400.709155 
L 219.269044 402.58688 
L 224.72978 402.962425 
L 230.190515 408.845963 
L 235.651251 407.09342 
L 241.111986 412.726594 
L 246.572722 408.720781 
L 252.033457 407.969691 
L 257.494193 408.345236 
L 262.954928 408.5956 
L 268.415664 408.971145 
L 273.8764 405.966785 
L 279.337135 404.84015 
L 284.797871 400.458792 
L 290.258606 406.467511 
L 295.719342 407.594146 
L 301.180077 401.83579 
L 306.640813 402.712062 
L 312.101548 401.585427 
L 317.562284 400.458792 
L 323.02302 399.457339 
L 328.483755 400.083247 
L 333.944491 400.083247 
L 339.405226 399.958065 
L 344.865962 399.958065 
L 350.326697 398.455885 
L 355.787433 398.455885 
L 361.248168 403.33797 
L 366.708904 403.212788 
L 372.169639 402.837243 
L 377.630375 401.585427 
L 383.091111 402.461698 
L 388.551846 402.461698 
L 394.012582 402.461698 
L 399.473317 85.877285 
L 404.934053 90.884551 
L 410.394788 94.640001 
L 415.855524 94.890364 
L 421.316259 95.015546 
L 426.776995 95.140728 
L 432.23773 95.516273 
L 437.698466 100.147994 
L 443.159202 107.909257 
L 448.619937 107.784075 
L 454.080673 117.548244 
L 459.541408 125.434689 
L 465.002144 136.951401 
L 470.462879 139.955761 
L 475.923615 156.730103 
L 481.38435 176.88435 
L 486.845086 189.277335 
L 492.305822 193.533511 
L 497.766557 194.284601 
L 503.227293 197.539324 
L 508.688028 197.163779 
L 514.148764 203.29768 
L 519.609499 202.54659 
L 525.070235 200.418502 
L 530.53097 199.792594 
L 535.991706 199.667412 
L 541.452441 199.667412 
L 546.913177 199.667412 
L 552.373913 199.667412 
L 557.834648 199.792594 
L 563.295384 200.29332 
L 568.756119 197.414142 
L 574.216855 198.040051 
L 579.67759 196.913416 
L 585.138326 209.807126 
L 590.599061 209.431581 
L 596.059797 205.55095 
L 601.520532 202.671772 
L 606.981268 196.287507 
L 612.442004 191.906149 
L 617.902739 175.507352 
L 623.363475 167.871271 
L 628.82421 172.252629 
L 634.284946 205.676132 
L 639.745681 212.811486 
L 645.206417 235.093821 
L 650.667152 233.967186 
L 656.127888 226.581469 
L 661.588623 228.20883 
L 667.049359 256.374703 
" clip-path="url(#p7467988df2)" style="fill: none; stroke: #dd8452; stroke-width: 1.5; stroke-linecap: round"/>
   </g>
   <g id="line2d_16">
    <path d="M 126.43654 379.052728 
L 131.897275 384.936266 
L 137.358011 385.687356 
L 142.818746 386.062901 
L 148.279482 386.438446 
L 153.740218 391.320531 
L 159.200953 391.195349 
L 164.661689 392.697529 
L 170.122424 393.198256 
L 175.58316 394.700436 
L 181.043895 394.700436 
L 186.504631 395.326344 
L 191.965366 395.701889 
L 197.426102 395.701889 
L 202.886837 395.701889 
L 208.347573 397.454432 
L 213.808309 402.086153 
L 219.269044 405.215695 
L 224.72978 406.467511 
L 230.190515 406.467511 
L 235.651251 406.717875 
L 241.111986 406.717875 
L 246.572722 406.843056 
L 252.033457 406.843056 
L 257.494193 407.09342 
L 262.954928 407.343783 
L 268.415664 406.34233 
L 273.8764 407.343783 
L 279.337135 407.218601 
L 284.797871 406.717875 
L 290.258606 405.466058 
L 295.719342 404.84015 
L 301.180077 404.84015 
L 306.640813 402.58688 
L 312.101548 402.58688 
L 317.562284 402.58688 
L 323.02302 402.962425 
L 328.483755 407.468965 
L 333.944491 406.843056 
L 339.405226 407.468965 
L 344.865962 410.348143 
L 350.326697 404.714968 
L 355.787433 399.707702 
L 361.248168 399.832884 
L 366.708904 400.709155 
L 372.169639 399.58252 
L 377.630375 399.081794 
L 383.091111 399.332157 
L 388.551846 399.58252 
L 394.012582 399.58252 
L 399.473317 104.779715 
L 404.934053 115.044611 
L 410.394788 118.800061 
L 415.855524 119.801514 
L 421.316259 125.685052 
L 426.776995 105.405624 
L 432.23773 105.15526 
L 437.698466 109.161073 
L 443.159202 111.91507 
L 448.619937 114.418703 
L 454.080673 117.923789 
L 459.541408 122.555511 
L 465.002144 125.059144 
L 470.462879 125.184326 
L 475.923615 163.364731 
L 481.38435 172.502992 
L 486.845086 152.473927 
L 492.305822 205.050223 
L 497.766557 206.427222 
L 503.227293 221.449021 
L 508.688028 229.210283 
L 514.148764 235.594548 
L 519.609499 246.610534 
L 525.070235 253.87107 
L 530.53097 264.135966 
L 535.991706 269.393596 
L 541.452441 270.269867 
L 546.913177 275.903042 
L 552.373913 274.901589 
L 557.834648 275.652679 
L 563.295384 275.77786 
L 568.756119 276.654132 
L 574.216855 275.527497 
L 579.67759 275.402315 
L 585.138326 274.776407 
L 590.599061 275.02677 
L 596.059797 277.28004 
L 601.520532 281.285853 
L 606.981268 280.534763 
L 612.442004 280.785127 
L 617.902739 263.009331 
L 623.363475 265.638146 
L 628.82421 265.387783 
L 634.284946 266.889963 
L 639.745681 245.358717 
L 645.206417 228.709557 
L 650.667152 226.70665 
L 656.127888 222.200111 
L 661.588623 219.070569 
L 667.049359 219.446114 
" clip-path="url(#p7467988df2)" style="fill: none; stroke: #55a868; stroke-width: 1.5; stroke-linecap: round"/>
   </g>
   <g id="patch_3">
    <path d="M 99.405899 495.840956 
L 99.405899 49.831226 
" style="fill: none; stroke: #cccccc; stroke-width: 1.25; stroke-linejoin: miter; stroke-linecap: square"/>
   </g>
   <g id="patch_4">
    <path d="M 694.08 495.840956 
L 694.08 49.831226 
" style="fill: none; stroke: #cccccc; stroke-width: 1.25; stroke-linejoin: miter; stroke-linecap: square"/>
   </g>
   <g id="patch_5">
    <path d="M 99.405899 495.840956 
L 694.08 495.840956 
" style="fill: none; stroke: #cccccc; stroke-width: 1.25; stroke-linejoin: miter; stroke-linecap: square"/>
   </g>
   <g id="patch_6">
    <path d="M 99.405899 49.831226 
L 694.08 49.831226 
" style="fill: none; stroke: #cccccc; stroke-width: 1.25; stroke-linejoin: miter; stroke-linecap: square"/>
   </g>
   <g id="text_16">
    <!-- Mean Squared Error (MSE) vs Step -->
    <g style="fill: #262626" transform="translate(228.970652 43.831226) scale(0.24 -0.24)">
     <defs>
      <path id="CMSS17-76" d="M 2675 2752 
L 2176 2752 
L 1747 1556 
C 1613 1165 1421 627 1389 352 
L 1382 352 
C 1370 468 1318 634 1286 749 
C 1248 890 1197 1056 1158 1172 
L 595 2752 
L 83 2752 
L 1094 0 
L 1664 0 
L 2675 2752 
z
" transform="scale(0.015625)"/>
      <path id="CMSS17-73" d="M 2061 2627 
C 1683 2807 1389 2807 1197 2807 
C 742 2807 198 2648 198 2003 
C 198 1359 902 1218 1094 1179 
C 1389 1122 1715 1058 1715 740 
C 1715 337 1254 337 1171 337 
C 915 337 563 407 243 638 
L 166 210 
C 531 0 883 -64 1178 -64 
C 1965 -64 2163 416 2163 781 
C 2163 1094 1984 1305 1862 1401 
C 1651 1568 1574 1587 1050 1696 
C 960 1709 646 1779 646 2066 
C 646 2432 1050 2432 1139 2432 
C 1555 2432 1811 2303 1984 2208 
L 2061 2627 
z
" transform="scale(0.015625)"/>
     </defs>
     <use xlink:href="#CMSS17-4d" transform="scale(0.996264)"/>
     <use xlink:href="#CMSS17-65" transform="translate(81.67603 0) scale(0.996264)"/>
     <use xlink:href="#CMSS17-61" transform="translate(123.314852 0) scale(0.996264)"/>
     <use xlink:href="#CMSS17-6e" transform="translate(168.236773 0) scale(0.996264)"/>
     <use xlink:href="#CMSS17-53" transform="translate(247.670829 0) scale(0.996264)"/>
     <use xlink:href="#CMSS17-71" transform="translate(299.719345 0) scale(0.996264)"/>
     <use xlink:href="#CMSS17-75" transform="translate(347.924288 0) scale(0.996264)"/>
     <use xlink:href="#CMSS17-61" transform="translate(396.129231 0) scale(0.996264)"/>
     <use xlink:href="#CMSS17-72" transform="translate(438.448698 0) scale(0.996264)"/>
     <use xlink:href="#CMSS17-65" transform="translate(470.35847 0) scale(0.996264)"/>
     <use xlink:href="#CMSS17-64" transform="translate(511.997292 0) scale(0.996264)"/>
     <use xlink:href="#CMSS17-45" transform="translate(591.431348 0) scale(0.996264)"/>
     <use xlink:href="#CMSS17-72" transform="translate(647.323361 0) scale(0.996264)"/>
     <use xlink:href="#CMSS17-72" transform="translate(679.233134 0) scale(0.996264)"/>
     <use xlink:href="#CMSS17-6f" transform="translate(711.142906 0) scale(0.996264)"/>
     <use xlink:href="#CMSS17-72" transform="translate(755.384076 0) scale(0.996264)"/>
     <use xlink:href="#CMSS17-28" transform="translate(818.522961 0) scale(0.996264)"/>
     <use xlink:href="#CMSS17-4d" transform="translate(854.956876 0) scale(0.996264)"/>
     <use xlink:href="#CMSS17-53" transform="translate(936.632906 0) scale(0.996264)"/>
     <use xlink:href="#CMSS17-45" transform="translate(988.681422 0) scale(0.996264)"/>
     <use xlink:href="#CMSS17-29" transform="translate(1044.573435 0) scale(0.996264)"/>
     <use xlink:href="#CMSS17-76" transform="translate(1112.236462 0) scale(0.996264)"/>
     <use xlink:href="#CMSS17-73" transform="translate(1155.236604 0) scale(0.996264)"/>
     <use xlink:href="#CMSS17-53" transform="translate(1222.379258 0) scale(0.996264)"/>
     <use xlink:href="#CMSS17-74" transform="translate(1274.427775 0) scale(0.996264)"/>
     <use xlink:href="#CMSS17-65" transform="translate(1308.259341 0) scale(0.996264)"/>
     <use xlink:href="#CMSS17-70" transform="translate(1349.898163 0) scale(0.996264)"/>
    </g>
   </g>
   <g id="legend_1">
    <g id="patch_7">
     <path d="M 114.805899 191.675953 
L 318.888695 191.675953 
Q 323.288695 191.675953 323.288695 187.275953 
L 323.288695 65.231226 
Q 323.288695 60.831226 318.888695 60.831226 
L 114.805899 60.831226 
Q 110.405899 60.831226 110.405899 65.231226 
L 110.405899 187.275953 
Q 110.405899 191.675953 114.805899 191.675953 
z
" style="fill: #ffffff; opacity: 0.8; stroke: #cccccc; stroke-linejoin: miter"/>
    </g>
    <g id="text_17">
     <!-- Confidence reception -->
     <g style="fill: #262626" transform="translate(119.205899 86.235632) scale(0.24 -0.24)">
      <defs>
       <path id="CMSS17-43" d="M 3501 714 
C 3072 427 2874 344 2355 344 
C 1459 344 934 1303 934 2179 
C 934 3112 1472 4032 2381 4032 
C 2790 4032 3059 3918 3386 3715 
L 3475 4217 
C 3168 4370 2778 4440 2387 4440 
C 1158 4440 397 3316 397 2179 
C 397 927 1299 -64 2323 -64 
C 2874 -64 3066 -19 3539 280 
L 3501 714 
z
" transform="scale(0.015625)"/>
       <path id="CMSS17-c" d="M 2752 4416 
L 2240 4416 
L 2240 3906 
L 2752 3906 
L 2752 4416 
z
M 2733 2737 
L 2259 2737 
L 2259 0 
L 2733 0 
L 2733 2737 
z
M 1075 2368 
L 1773 2368 
L 1773 2737 
L 1062 2737 
L 1062 3578 
C 1062 3919 1216 4092 1421 4092 
C 1542 4092 1664 4056 1773 3992 
L 1773 4410 
C 1722 4428 1574 4480 1421 4480 
C 941 4480 602 3993 602 3372 
L 602 2737 
L 160 2737 
L 160 2368 
L 602 2368 
L 602 0 
L 1075 0 
L 1075 2368 
z
" transform="scale(0.015625)"/>
       <path id="CMSS17-63" d="M 2464 2541 
C 2464 2585 2170 2714 2093 2739 
C 1882 2816 1613 2816 1542 2816 
C 710 2816 211 2093 211 1363 
C 211 595 768 -64 1517 -64 
C 1946 -64 2253 76 2502 242 
L 2464 664 
C 2189 453 1869 337 1523 337 
C 1024 337 698 774 698 1369 
C 698 1831 909 2414 1549 2414 
C 1901 2414 2099 2343 2394 2145 
L 2464 2541 
z
" transform="scale(0.015625)"/>
       <path id="CMSS17-69" d="M 979 4183 
L 442 4183 
L 442 3648 
L 979 3648 
L 979 4183 
z
M 947 2739 
L 474 2739 
L 474 0 
L 947 0 
L 947 2739 
z
" transform="scale(0.015625)"/>
      </defs>
      <use xlink:href="#CMSS17-43" transform="scale(0.996264)"/>
      <use xlink:href="#CMSS17-6f" transform="translate(59.855772 0) scale(0.996264)"/>
      <use xlink:href="#CMSS17-6e" transform="translate(106.699395 0) scale(0.996264)"/>
      <use xlink:href="#CMSS17-c" transform="translate(154.904338 0) scale(0.996264)"/>
      <use xlink:href="#CMSS17-64" transform="translate(205.031075 0) scale(0.996264)"/>
      <use xlink:href="#CMSS17-65" transform="translate(253.236019 0) scale(0.996264)"/>
      <use xlink:href="#CMSS17-6e" transform="translate(294.874841 0) scale(0.996264)"/>
      <use xlink:href="#CMSS17-63" transform="translate(343.079784 0) scale(0.996264)"/>
      <use xlink:href="#CMSS17-65" transform="translate(384.718606 0) scale(0.996264)"/>
      <use xlink:href="#CMSS17-72" transform="translate(457.586541 0) scale(0.996264)"/>
      <use xlink:href="#CMSS17-65" transform="translate(489.496313 0) scale(0.996264)"/>
      <use xlink:href="#CMSS17-63" transform="translate(531.135135 0) scale(0.996264)"/>
      <use xlink:href="#CMSS17-65" transform="translate(572.773957 0) scale(0.996264)"/>
      <use xlink:href="#CMSS17-70" transform="translate(614.412779 0) scale(0.996264)"/>
      <use xlink:href="#CMSS17-74" transform="translate(662.617723 0) scale(0.996264)"/>
      <use xlink:href="#CMSS17-69" transform="translate(696.449289 0) scale(0.996264)"/>
      <use xlink:href="#CMSS17-6f" transform="translate(718.630012 0) scale(0.996264)"/>
      <use xlink:href="#CMSS17-6e" transform="translate(765.473636 0) scale(0.996264)"/>
     </g>
    </g>
    <g id="line2d_17">
     <path d="M 172.879042 109.586389 
L 194.879042 109.586389 
L 216.879042 109.586389 
" style="fill: none; stroke: #4c72b0; stroke-width: 1.5; stroke-linecap: round"/>
    </g>
    <g id="text_18">
     <!-- 0.4 -->
     <g style="fill: #262626" transform="translate(234.479042 117.286389) scale(0.22 -0.22)">
      <defs>
       <path id="CMSS17-30" d="M 2758 2044 
C 2758 2405 2752 3077 2490 3596 
C 2227 4096 1805 4229 1504 4229 
C 1069 4229 698 3975 506 3570 
C 301 3146 243 2709 243 2044 
C 243 1589 262 1031 493 543 
C 755 5 1197 -128 1498 -128 
C 1894 -128 2278 81 2496 518 
C 2720 974 2758 1474 2758 2044 
z
M 1498 261 
C 1011 261 864 811 819 995 
C 742 1310 730 1614 730 2114 
C 730 2506 730 2948 851 3297 
C 998 3701 1254 3840 1498 3840 
C 1971 3840 2125 3372 2176 3208 
C 2272 2873 2272 2481 2272 2114 
C 2272 1526 2272 261 1498 261 
z
" transform="scale(0.015625)"/>
       <path id="CMSS17-2e" d="M 1088 510 
L 576 510 
L 576 0 
L 1088 0 
L 1088 510 
z
" transform="scale(0.015625)"/>
       <path id="CMSS17-34" d="M 2253 1088 
L 2835 1088 
L 2835 1477 
L 2253 1477 
L 2253 4192 
L 1690 4192 
L 166 1477 
L 166 1088 
L 1747 1088 
L 1747 0 
L 2253 0 
L 2253 1088 
z
M 659 1477 
C 1030 2127 1766 3439 1766 3885 
L 1766 1477 
L 659 1477 
z
" transform="scale(0.015625)"/>
      </defs>
      <use xlink:href="#CMSS17-30" transform="scale(0.996264)"/>
      <use xlink:href="#CMSS17-2e" transform="translate(46.843624 0) scale(0.996264)"/>
      <use xlink:href="#CMSS17-34" transform="translate(72.867828 0) scale(0.996264)"/>
     </g>
    </g>
    <g id="line2d_18">
     <path d="M 172.879042 140.249577 
L 194.879042 140.249577 
L 216.879042 140.249577 
" style="fill: none; stroke: #dd8452; stroke-width: 1.5; stroke-linecap: round"/>
    </g>
    <g id="text_19">
     <!-- 0.6 -->
     <g style="fill: #262626" transform="translate(234.479042 147.949577) scale(0.22 -0.22)">
      <defs>
       <path id="CMSS17-36" d="M 2496 4101 
C 2227 4210 2035 4229 1856 4229 
C 1024 4229 250 3368 250 2006 
C 250 265 986 -128 1510 -128 
C 1798 -128 2086 -39 2362 280 
C 2643 617 2752 898 2752 1389 
C 2752 2179 2362 2880 1779 2880 
C 1357 2880 992 2657 768 2376 
C 832 3258 1254 3840 1862 3840 
C 2029 3840 2246 3816 2496 3710 
L 2496 4101 
z
M 774 1369 
C 774 1420 774 1452 781 1548 
C 781 2045 1069 2491 1536 2491 
C 1837 2491 1990 2332 2106 2135 
C 2240 1886 2246 1650 2246 1388 
C 2246 1140 2246 891 2099 637 
C 1978 439 1818 267 1510 267 
C 902 267 800 1114 774 1369 
z
" transform="scale(0.015625)"/>
      </defs>
      <use xlink:href="#CMSS17-30" transform="scale(0.996264)"/>
      <use xlink:href="#CMSS17-2e" transform="translate(46.843624 0) scale(0.996264)"/>
      <use xlink:href="#CMSS17-36" transform="translate(72.867828 0) scale(0.996264)"/>
     </g>
    </g>
    <g id="line2d_19">
     <path d="M 172.879042 170.912765 
L 194.879042 170.912765 
L 216.879042 170.912765 
" style="fill: none; stroke: #55a868; stroke-width: 1.5; stroke-linecap: round"/>
    </g>
    <g id="text_20">
     <!-- 0.8 -->
     <g style="fill: #262626" transform="translate(234.479042 178.612765) scale(0.22 -0.22)">
      <defs>
       <path id="CMSS17-38" d="M 1933 2222 
C 2419 2380 2669 2760 2669 3134 
C 2669 3722 2157 4229 1504 4229 
C 826 4229 333 3708 333 3144 
C 333 2780 576 2403 1069 2241 
C 442 1997 250 1512 250 1149 
C 250 446 819 -128 1498 -128 
C 2202 -128 2752 455 2752 1138 
C 2752 1557 2502 2000 1933 2222 
z
M 1504 2432 
C 1075 2432 787 2712 787 3136 
C 787 3566 1075 3840 1504 3840 
C 1901 3840 2214 3591 2214 3136 
C 2214 2687 1907 2432 1504 2432 
z
M 1504 267 
C 1139 267 749 517 749 1156 
C 749 1813 1184 2043 1498 2043 
C 1843 2043 2253 1800 2253 1156 
C 2253 491 1830 267 1504 267 
z
" transform="scale(0.015625)"/>
      </defs>
      <use xlink:href="#CMSS17-30" transform="scale(0.996264)"/>
      <use xlink:href="#CMSS17-2e" transform="translate(46.843624 0) scale(0.996264)"/>
      <use xlink:href="#CMSS17-38" transform="translate(72.867828 0) scale(0.996264)"/>
     </g>
    </g>
   </g>
  </g>
 </g>
 <defs>
  <clipPath id="p7467988df2">
   <rect x="99.405899" y="49.831226" width="594.674101" height="446.00973"/>
  </clipPath>
 </defs>
</svg>
