<?xml version="1.0" encoding="utf-8" standalone="no"?>
<!DOCTYPE svg PUBLIC "-//W3C//DTD SVG 1.1//EN"
  "http://www.w3.org/Graphics/SVG/1.1/DTD/svg11.dtd">
<svg xmlns:xlink="http://www.w3.org/1999/xlink" width="720pt" height="576pt" viewBox="0 0 720 576" xmlns="http://www.w3.org/2000/svg" version="1.1">
 <metadata>
  <rdf:RDF xmlns:dc="http://purl.org/dc/elements/1.1/" xmlns:cc="http://creativecommons.org/ns#" xmlns:rdf="http://www.w3.org/1999/02/22-rdf-syntax-ns#">
   <cc:Work>
    <dc:type rdf:resource="http://purl.org/dc/dcmitype/StillImage"/>
    <dc:date>2025-04-25T15:59:54.297557</dc:date>
    <dc:format>image/svg+xml</dc:format>
    <dc:creator>
     <cc:Agent>
      <dc:title>Matplotlib v3.9.2, https://matplotlib.org/</dc:title>
     </cc:Agent>
    </dc:creator>
   </cc:Work>
  </rdf:RDF>
 </metadata>
 <defs>
  <style type="text/css">*{stroke-linejoin: round; stroke-linecap: butt}</style>
 </defs>
 <g id="figure_1">
  <g id="patch_1">
   <path d="M 0 576 
L 720 576 
L 720 0 
L 0 0 
z
" style="fill: #ffffff"/>
  </g>
  <g id="axes_1">
   <g id="patch_2">
    <path d="M 76.24014 513.338305 
L 702.72 513.338305 
L 702.72 17.28 
L 76.24014 17.28 
z
" style="fill: #ffffff"/>
   </g>
   <g id="matplotlib.axis_1">
    <g id="xtick_1">
     <g id="line2d_1">
      <path d="M 104.716497 513.338305 
L 104.716497 17.28 
" clip-path="url(#pc284a56504)" style="fill: none; stroke: #cccccc; stroke-linecap: round"/>
     </g>
     <g id="text_1">
      <!-- $\mathdefault{0}$ -->
      <g style="fill: #262626" transform="translate(100.814503 533.907893) scale(0.16 -0.16)">
       <defs>
        <path id="CMR17-30" d="M 2688 2025 
C 2688 2416 2682 3080 2413 3591 
C 2176 4039 1798 4198 1466 4198 
C 1158 4198 768 4058 525 3597 
C 269 3118 243 2524 243 2025 
C 243 1661 250 1106 448 619 
C 723 -39 1216 -128 1466 -128 
C 1760 -128 2208 -7 2470 600 
C 2662 1042 2688 1559 2688 2025 
z
M 1466 -26 
C 1056 -26 813 325 723 812 
C 653 1188 653 1738 653 2096 
C 653 2588 653 2997 736 3387 
C 858 3929 1216 4096 1466 4096 
C 1728 4096 2067 3923 2189 3400 
C 2272 3036 2278 2607 2278 2096 
C 2278 1680 2278 1169 2202 792 
C 2067 95 1690 -26 1466 -26 
z
" transform="scale(0.015625)"/>
       </defs>
       <use xlink:href="#CMR17-30" transform="scale(0.996264)"/>
      </g>
     </g>
    </g>
    <g id="xtick_2">
     <g id="line2d_2">
      <path d="M 219.772486 513.338305 
L 219.772486 17.28 
" clip-path="url(#pc284a56504)" style="fill: none; stroke: #cccccc; stroke-linecap: round"/>
     </g>
     <g id="text_2">
      <!-- $\mathdefault{200}$ -->
      <g style="fill: #262626" transform="translate(208.066506 533.907893) scale(0.16 -0.16)">
       <defs>
        <path id="CMR17-32" d="M 2669 989 
L 2554 989 
C 2490 536 2438 459 2413 420 
C 2381 369 1920 369 1830 369 
L 602 369 
C 832 619 1280 1072 1824 1597 
C 2214 1967 2669 2402 2669 3035 
C 2669 3790 2067 4224 1395 4224 
C 691 4224 262 3604 262 3030 
C 262 2780 448 2748 525 2748 
C 589 2748 781 2787 781 3010 
C 781 3207 614 3264 525 3264 
C 486 3264 448 3258 422 3245 
C 544 3790 915 4058 1306 4058 
C 1862 4058 2227 3617 2227 3035 
C 2227 2479 1901 2000 1536 1584 
L 262 146 
L 262 0 
L 2515 0 
L 2669 989 
z
" transform="scale(0.015625)"/>
       </defs>
       <use xlink:href="#CMR17-32" transform="scale(0.996264)"/>
       <use xlink:href="#CMR17-30" transform="translate(45.690477 0) scale(0.996264)"/>
       <use xlink:href="#CMR17-30" transform="translate(91.380954 0) scale(0.996264)"/>
      </g>
     </g>
    </g>
    <g id="xtick_3">
     <g id="line2d_3">
      <path d="M 334.828475 513.338305 
L 334.828475 17.28 
" clip-path="url(#pc284a56504)" style="fill: none; stroke: #cccccc; stroke-linecap: round"/>
     </g>
     <g id="text_3">
      <!-- $\mathdefault{400}$ -->
      <g style="fill: #262626" transform="translate(323.122495 533.907893) scale(0.16 -0.16)">
       <defs>
        <path id="CMR17-34" d="M 2150 4122 
C 2150 4256 2144 4256 2029 4256 
L 128 1254 
L 128 1088 
L 1779 1088 
L 1779 457 
C 1779 224 1766 160 1318 160 
L 1197 160 
L 1197 0 
C 1402 0 1747 0 1965 0 
C 2182 0 2528 0 2733 0 
L 2733 160 
L 2611 160 
C 2163 160 2150 224 2150 457 
L 2150 1088 
L 2803 1088 
L 2803 1254 
L 2150 1254 
L 2150 4122 
z
M 1798 3703 
L 1798 1254 
L 256 1254 
L 1798 3703 
z
" transform="scale(0.015625)"/>
       </defs>
       <use xlink:href="#CMR17-34" transform="scale(0.996264)"/>
       <use xlink:href="#CMR17-30" transform="translate(45.690477 0) scale(0.996264)"/>
       <use xlink:href="#CMR17-30" transform="translate(91.380954 0) scale(0.996264)"/>
      </g>
     </g>
    </g>
    <g id="xtick_4">
     <g id="line2d_4">
      <path d="M 449.884464 513.338305 
L 449.884464 17.28 
" clip-path="url(#pc284a56504)" style="fill: none; stroke: #cccccc; stroke-linecap: round"/>
     </g>
     <g id="text_4">
      <!-- $\mathdefault{600}$ -->
      <g style="fill: #262626" transform="translate(438.178484 533.907893) scale(0.16 -0.16)">
       <defs>
        <path id="CMR17-36" d="M 678 2176 
C 678 3690 1395 4032 1811 4032 
C 1946 4032 2272 4009 2400 3776 
C 2298 3776 2106 3776 2106 3553 
C 2106 3381 2246 3323 2336 3323 
C 2394 3323 2566 3348 2566 3560 
C 2566 3954 2246 4179 1805 4179 
C 1043 4179 243 3390 243 1984 
C 243 253 966 -128 1478 -128 
C 2099 -128 2688 427 2688 1283 
C 2688 2081 2170 2662 1517 2662 
C 1126 2662 838 2407 678 1960 
L 678 2176 
z
M 1478 25 
C 691 25 691 1200 691 1436 
C 691 1896 909 2560 1504 2560 
C 1613 2560 1926 2560 2138 2120 
C 2253 1870 2253 1609 2253 1289 
C 2253 944 2253 690 2118 434 
C 1978 171 1773 25 1478 25 
z
" transform="scale(0.015625)"/>
       </defs>
       <use xlink:href="#CMR17-36" transform="scale(0.996264)"/>
       <use xlink:href="#CMR17-30" transform="translate(45.690477 0) scale(0.996264)"/>
       <use xlink:href="#CMR17-30" transform="translate(91.380954 0) scale(0.996264)"/>
      </g>
     </g>
    </g>
    <g id="xtick_5">
     <g id="line2d_5">
      <path d="M 564.940453 513.338305 
L 564.940453 17.28 
" clip-path="url(#pc284a56504)" style="fill: none; stroke: #cccccc; stroke-linecap: round"/>
     </g>
     <g id="text_5">
      <!-- $\mathdefault{800}$ -->
      <g style="fill: #262626" transform="translate(553.234473 533.907893) scale(0.16 -0.16)">
       <defs>
        <path id="CMR17-38" d="M 1741 2264 
C 2144 2467 2554 2773 2554 3263 
C 2554 3841 1990 4179 1472 4179 
C 890 4179 378 3759 378 3180 
C 378 3021 416 2747 666 2505 
C 730 2442 998 2251 1171 2130 
C 883 1983 211 1634 211 934 
C 211 279 838 -128 1459 -128 
C 2144 -128 2720 362 2720 1010 
C 2720 1590 2330 1857 2074 2029 
L 1741 2264 
z
M 902 2822 
C 851 2854 595 3051 595 3351 
C 595 3739 998 4032 1459 4032 
C 1965 4032 2336 3676 2336 3262 
C 2336 2669 1670 2331 1638 2331 
C 1632 2331 1626 2331 1574 2370 
L 902 2822 
z
M 2080 1519 
C 2176 1449 2483 1240 2483 851 
C 2483 381 2010 25 1472 25 
C 890 25 448 438 448 940 
C 448 1443 838 1862 1280 2060 
L 2080 1519 
z
" transform="scale(0.015625)"/>
       </defs>
       <use xlink:href="#CMR17-38" transform="scale(0.996264)"/>
       <use xlink:href="#CMR17-30" transform="translate(45.690477 0) scale(0.996264)"/>
       <use xlink:href="#CMR17-30" transform="translate(91.380954 0) scale(0.996264)"/>
      </g>
     </g>
    </g>
    <g id="xtick_6">
     <g id="line2d_6">
      <path d="M 679.996442 513.338305 
L 679.996442 17.28 
" clip-path="url(#pc284a56504)" style="fill: none; stroke: #cccccc; stroke-linecap: round"/>
     </g>
     <g id="text_6">
      <!-- $\mathdefault{1000}$ -->
      <g style="fill: #262626" transform="translate(664.388468 533.907893) scale(0.16 -0.16)">
       <defs>
        <path id="CMR17-31" d="M 1702 4058 
C 1702 4192 1696 4192 1606 4192 
C 1357 3916 979 3827 621 3827 
C 602 3827 570 3827 563 3808 
C 557 3795 557 3782 557 3648 
C 755 3648 1088 3686 1344 3839 
L 1344 461 
C 1344 236 1331 160 781 160 
L 589 160 
L 589 0 
C 896 0 1216 0 1523 0 
C 1830 0 2150 0 2458 0 
L 2458 160 
L 2266 160 
C 1715 160 1702 230 1702 458 
L 1702 4058 
z
" transform="scale(0.015625)"/>
       </defs>
       <use xlink:href="#CMR17-31" transform="scale(0.996264)"/>
       <use xlink:href="#CMR17-30" transform="translate(45.690477 0) scale(0.996264)"/>
       <use xlink:href="#CMR17-30" transform="translate(91.380954 0) scale(0.996264)"/>
       <use xlink:href="#CMR17-30" transform="translate(137.071431 0) scale(0.996264)"/>
      </g>
     </g>
    </g>
    <g id="text_7">
     <!-- Step -->
     <g style="fill: #262626" transform="translate(371.724365 554.844366) scale(0.2 -0.2)">
      <defs>
       <path id="CMR17-53" d="M 2803 4290 
C 2803 4404 2797 4411 2758 4411 
C 2720 4411 2707 4385 2682 4328 
L 2490 3907 
C 2246 4257 1875 4416 1472 4416 
C 819 4416 294 3901 294 3253 
C 294 3056 339 2776 557 2510 
C 794 2218 1018 2167 1530 2033 
C 1722 1982 2042 1899 2106 1874 
C 2470 1722 2662 1341 2662 985 
C 2662 527 2336 38 1779 38 
C 1094 38 454 419 410 1311 
C 403 1413 397 1419 352 1419 
C 301 1419 294 1413 294 1285 
L 294 -1 
C 294 -115 301 -122 339 -122 
C 384 -122 397 -90 486 108 
C 493 127 493 140 614 381 
C 934 -39 1472 -128 1779 -128 
C 2477 -128 2970 451 2970 1124 
C 2970 1454 2848 1708 2778 1823 
C 2509 2230 2221 2306 1914 2382 
C 1869 2402 1856 2402 1498 2490 
C 1152 2579 1005 2624 845 2796 
C 666 2992 602 3196 602 3399 
C 602 3812 934 4263 1478 4263 
C 2157 4263 2579 3786 2675 2993 
C 2694 2878 2701 2872 2746 2872 
C 2803 2872 2803 2891 2803 2999 
L 2803 4290 
z
" transform="scale(0.015625)"/>
       <path id="CMR17-74" d="M 966 2560 
L 1862 2560 
L 1862 2725 
L 966 2725 
L 966 3904 
L 851 3904 
C 838 3245 614 2668 70 2668 
L 70 2560 
L 627 2560 
L 627 771 
C 627 650 627 -64 1370 -64 
C 1747 -64 1965 306 1965 777 
L 1965 1140 
L 1850 1140 
L 1850 783 
C 1850 344 1677 51 1408 51 
C 1222 51 966 178 966 758 
L 966 2560 
z
" transform="scale(0.015625)"/>
       <path id="CMR17-65" d="M 2438 1472 
C 2464 1498 2464 1511 2464 1576 
C 2464 2238 2118 2816 1389 2816 
C 710 2816 173 2169 173 1383 
C 173 551 781 -64 1459 -64 
C 2176 -64 2458 607 2458 740 
C 2458 784 2419 784 2406 784 
C 2362 784 2355 771 2330 696 
C 2189 265 1837 51 1504 51 
C 1229 51 954 203 781 480 
C 582 803 582 1176 582 1472 
L 2438 1472 
z
M 589 1568 
C 634 2505 1126 2714 1382 2714 
C 1818 2714 2112 2297 2118 1568 
L 589 1568 
z
" transform="scale(0.015625)"/>
       <path id="CMR17-70" d="M 1408 -1063 
C 998 -1063 973 -1037 973 -789 
L 973 402 
C 1158 134 1427 -38 1766 -38 
C 2406 -38 3053 523 3053 1388 
C 3053 2191 2496 2802 1837 2802 
C 1453 2802 1139 2592 960 2338 
L 960 2802 
L 198 2732 
L 198 2567 
C 576 2567 634 2528 634 2223 
L 634 -789 
C 634 -1031 608 -1063 198 -1063 
L 198 -1228 
C 352 -1216 634 -1216 800 -1216 
C 966 -1216 1254 -1216 1408 -1228 
L 1408 -1063 
z
M 973 2012 
C 973 2102 973 2235 1222 2471 
C 1254 2497 1472 2688 1792 2688 
C 2259 2688 2643 2108 2643 1382 
C 2643 656 2234 64 1728 64 
C 1498 64 1248 172 1056 472 
C 973 612 973 650 973 752 
L 973 2012 
z
" transform="scale(0.015625)"/>
      </defs>
      <use xlink:href="#CMR17-53" transform="scale(0.996264)"/>
      <use xlink:href="#CMR17-74" transform="translate(50.89537 0) scale(0.996264)"/>
      <use xlink:href="#CMR17-65" transform="translate(86.176138 0) scale(0.996264)"/>
      <use xlink:href="#CMR17-70" transform="translate(126.661798 0) scale(0.996264)"/>
     </g>
    </g>
   </g>
   <g id="matplotlib.axis_2">
    <g id="ytick_1">
     <g id="line2d_7">
      <path d="M 76.24014 476.370296 
L 702.72 476.370296 
" clip-path="url(#pc284a56504)" style="fill: none; stroke: #cccccc; stroke-linecap: round"/>
     </g>
     <g id="text_8">
      <!-- $\mathdefault{0.05}$ -->
      <g style="fill: #262626" transform="translate(38.99263 481.90509) scale(0.16 -0.16)">
       <defs>
        <path id="CMMI12-3a" d="M 1178 307 
C 1178 492 1024 619 870 619 
C 685 619 557 466 557 313 
C 557 128 710 0 864 0 
C 1050 0 1178 153 1178 307 
z
" transform="scale(0.015625)"/>
        <path id="CMR17-35" d="M 730 3692 
C 794 3666 1056 3584 1325 3584 
C 1920 3584 2246 3911 2432 4100 
C 2432 4157 2432 4192 2394 4192 
C 2387 4192 2374 4192 2323 4163 
C 2099 4058 1837 3973 1517 3973 
C 1325 3973 1037 3999 723 4139 
C 653 4171 640 4171 634 4171 
C 602 4171 595 4164 595 4037 
L 595 2203 
C 595 2089 595 2057 659 2057 
C 691 2057 704 2070 736 2114 
C 941 2401 1222 2522 1542 2522 
C 1766 2522 2246 2382 2246 1289 
C 2246 1085 2246 715 2054 421 
C 1894 159 1645 25 1370 25 
C 947 25 518 320 403 814 
C 429 807 480 795 506 795 
C 589 795 749 840 749 1038 
C 749 1210 627 1280 506 1280 
C 358 1280 262 1190 262 1011 
C 262 454 704 -128 1382 -128 
C 2042 -128 2669 440 2669 1264 
C 2669 2030 2170 2624 1549 2624 
C 1222 2624 947 2503 730 2274 
L 730 3692 
z
" transform="scale(0.015625)"/>
       </defs>
       <use xlink:href="#CMR17-30" transform="scale(0.996264)"/>
       <use xlink:href="#CMMI12-3a" transform="translate(45.690477 0) scale(0.996264)"/>
       <use xlink:href="#CMR17-30" transform="translate(72.787654 0) scale(0.996264)"/>
       <use xlink:href="#CMR17-35" transform="translate(118.478131 0) scale(0.996264)"/>
      </g>
     </g>
    </g>
    <g id="ytick_2">
     <g id="line2d_8">
      <path d="M 76.24014 408.351881 
L 702.72 408.351881 
" clip-path="url(#pc284a56504)" style="fill: none; stroke: #cccccc; stroke-linecap: round"/>
     </g>
     <g id="text_9">
      <!-- $\mathdefault{0.10}$ -->
      <g style="fill: #262626" transform="translate(38.99263 413.886675) scale(0.16 -0.16)">
       <use xlink:href="#CMR17-30" transform="scale(0.996264)"/>
       <use xlink:href="#CMMI12-3a" transform="translate(45.690477 0) scale(0.996264)"/>
       <use xlink:href="#CMR17-31" transform="translate(72.787654 0) scale(0.996264)"/>
       <use xlink:href="#CMR17-30" transform="translate(118.478131 0) scale(0.996264)"/>
      </g>
     </g>
    </g>
    <g id="ytick_3">
     <g id="line2d_9">
      <path d="M 76.24014 340.333465 
L 702.72 340.333465 
" clip-path="url(#pc284a56504)" style="fill: none; stroke: #cccccc; stroke-linecap: round"/>
     </g>
     <g id="text_10">
      <!-- $\mathdefault{0.15}$ -->
      <g style="fill: #262626" transform="translate(38.99263 345.868259) scale(0.16 -0.16)">
       <use xlink:href="#CMR17-30" transform="scale(0.996264)"/>
       <use xlink:href="#CMMI12-3a" transform="translate(45.690477 0) scale(0.996264)"/>
       <use xlink:href="#CMR17-31" transform="translate(72.787654 0) scale(0.996264)"/>
       <use xlink:href="#CMR17-35" transform="translate(118.478131 0) scale(0.996264)"/>
      </g>
     </g>
    </g>
    <g id="ytick_4">
     <g id="line2d_10">
      <path d="M 76.24014 272.315049 
L 702.72 272.315049 
" clip-path="url(#pc284a56504)" style="fill: none; stroke: #cccccc; stroke-linecap: round"/>
     </g>
     <g id="text_11">
      <!-- $\mathdefault{0.20}$ -->
      <g style="fill: #262626" transform="translate(38.99263 277.849844) scale(0.16 -0.16)">
       <use xlink:href="#CMR17-30" transform="scale(0.996264)"/>
       <use xlink:href="#CMMI12-3a" transform="translate(45.690477 0) scale(0.996264)"/>
       <use xlink:href="#CMR17-32" transform="translate(72.787654 0) scale(0.996264)"/>
       <use xlink:href="#CMR17-30" transform="translate(118.478131 0) scale(0.996264)"/>
      </g>
     </g>
    </g>
    <g id="ytick_5">
     <g id="line2d_11">
      <path d="M 76.24014 204.296634 
L 702.72 204.296634 
" clip-path="url(#pc284a56504)" style="fill: none; stroke: #cccccc; stroke-linecap: round"/>
     </g>
     <g id="text_12">
      <!-- $\mathdefault{0.25}$ -->
      <g style="fill: #262626" transform="translate(38.99263 209.831428) scale(0.16 -0.16)">
       <use xlink:href="#CMR17-30" transform="scale(0.996264)"/>
       <use xlink:href="#CMMI12-3a" transform="translate(45.690477 0) scale(0.996264)"/>
       <use xlink:href="#CMR17-32" transform="translate(72.787654 0) scale(0.996264)"/>
       <use xlink:href="#CMR17-35" transform="translate(118.478131 0) scale(0.996264)"/>
      </g>
     </g>
    </g>
    <g id="ytick_6">
     <g id="line2d_12">
      <path d="M 76.24014 136.278218 
L 702.72 136.278218 
" clip-path="url(#pc284a56504)" style="fill: none; stroke: #cccccc; stroke-linecap: round"/>
     </g>
     <g id="text_13">
      <!-- $\mathdefault{0.30}$ -->
      <g style="fill: #262626" transform="translate(38.99263 141.813012) scale(0.16 -0.16)">
       <defs>
        <path id="CMR17-33" d="M 1414 2157 
C 1984 2157 2234 1662 2234 1090 
C 2234 320 1824 25 1453 25 
C 1114 25 563 194 390 693 
C 422 680 454 680 486 680 
C 640 680 755 782 755 948 
C 755 1133 614 1216 486 1216 
C 378 1216 211 1165 211 926 
C 211 335 787 -128 1466 -128 
C 2176 -128 2720 430 2720 1085 
C 2720 1707 2208 2157 1600 2227 
C 2086 2328 2554 2756 2554 3329 
C 2554 3820 2048 4179 1472 4179 
C 890 4179 378 3829 378 3329 
C 378 3110 544 3072 627 3072 
C 762 3072 877 3155 877 3321 
C 877 3486 762 3569 627 3569 
C 602 3569 570 3569 544 3557 
C 730 3959 1235 4032 1459 4032 
C 1683 4032 2106 3925 2106 3320 
C 2106 3143 2080 2828 1862 2550 
C 1670 2304 1453 2304 1242 2284 
C 1210 2284 1062 2269 1037 2269 
C 992 2263 966 2257 966 2208 
C 966 2163 973 2157 1101 2157 
L 1414 2157 
z
" transform="scale(0.015625)"/>
       </defs>
       <use xlink:href="#CMR17-30" transform="scale(0.996264)"/>
       <use xlink:href="#CMMI12-3a" transform="translate(45.690477 0) scale(0.996264)"/>
       <use xlink:href="#CMR17-33" transform="translate(72.787654 0) scale(0.996264)"/>
       <use xlink:href="#CMR17-30" transform="translate(118.478131 0) scale(0.996264)"/>
      </g>
     </g>
    </g>
    <g id="ytick_7">
     <g id="line2d_13">
      <path d="M 76.24014 68.259803 
L 702.72 68.259803 
" clip-path="url(#pc284a56504)" style="fill: none; stroke: #cccccc; stroke-linecap: round"/>
     </g>
     <g id="text_14">
      <!-- $\mathdefault{0.35}$ -->
      <g style="fill: #262626" transform="translate(38.99263 73.794597) scale(0.16 -0.16)">
       <use xlink:href="#CMR17-30" transform="scale(0.996264)"/>
       <use xlink:href="#CMMI12-3a" transform="translate(45.690477 0) scale(0.996264)"/>
       <use xlink:href="#CMR17-33" transform="translate(72.787654 0) scale(0.996264)"/>
       <use xlink:href="#CMR17-35" transform="translate(118.478131 0) scale(0.996264)"/>
      </g>
     </g>
    </g>
    <g id="text_15">
     <!-- MSE -->
     <g style="fill: #262626" transform="translate(31.116997 285.126006) rotate(-90) scale(0.2 -0.2)">
      <defs>
       <path id="CMR17-4d" d="M 1338 4224 
C 1299 4320 1293 4320 1158 4320 
L 339 4320 
L 339 4160 
C 781 4160 851 4160 851 3875 
L 851 610 
C 851 451 851 153 339 153 
L 339 -13 
C 486 0 755 0 915 0 
C 1075 0 1344 0 1491 -13 
L 1491 153 
C 979 153 979 451 979 610 
L 979 4135 
L 986 4135 
L 2490 89 
C 2515 25 2528 -13 2579 -13 
C 2630 -13 2643 25 2669 89 
L 4186 4166 
L 4192 4166 
L 4192 438 
C 4192 153 4122 153 3680 153 
L 3680 -13 
C 3853 0 4198 0 4384 0 
C 4570 0 4922 0 5094 -13 
L 5094 153 
C 4653 153 4582 153 4582 438 
L 4582 3875 
C 4582 4160 4653 4160 5094 4160 
L 5094 4320 
L 4282 4320 
C 4147 4320 4141 4314 4102 4218 
L 2720 502 
L 1338 4224 
z
" transform="scale(0.015625)"/>
       <path id="CMR17-45" d="M 3885 1615 
L 3770 1615 
C 3629 676 3546 166 2419 166 
L 1530 166 
C 1274 166 1261 197 1261 414 
L 1261 2176 
L 1862 2176 
C 2464 2176 2522 1960 2522 1430 
L 2637 1430 
L 2637 3081 
L 2522 3081 
C 2522 2557 2464 2342 1862 2342 
L 1261 2342 
L 1261 3913 
C 1261 4128 1274 4160 1530 4160 
L 2406 4160 
C 3398 4160 3514 3769 3603 2929 
L 3718 2929 
L 3565 4325 
L 326 4325 
L 326 4160 
C 768 4160 838 4160 838 3874 
L 838 451 
C 838 166 768 166 326 166 
L 326 0 
L 3654 0 
L 3885 1615 
z
" transform="scale(0.015625)"/>
      </defs>
      <use xlink:href="#CMR17-4d" transform="scale(0.996264)"/>
      <use xlink:href="#CMR17-53" transform="translate(84.686941 0) scale(0.996264)"/>
      <use xlink:href="#CMR17-45" transform="translate(135.58231 0) scale(0.996264)"/>
     </g>
    </g>
   </g>
   <g id="PolyCollection_1">
    <defs>
     <path id="m7dff0c53e1" d="M 104.716497 -201.929401 
L 104.716497 -170.504893 
L 110.469296 -152.139921 
L 116.222096 -141.665085 
L 121.974895 -132.550617 
L 127.727695 -128.741586 
L 133.480494 -126.020849 
L 139.233294 -124.796518 
L 144.986093 -125.612739 
L 150.738893 -124.25237 
L 156.491692 -126.42896 
L 162.244492 -124.388407 
L 167.997291 -122.075781 
L 173.75009 -119.082971 
L 179.50289 -114.865829 
L 185.255689 -114.865829 
L 191.008489 -114.049608 
L 196.761288 -114.729792 
L 202.514088 -113.777534 
L 208.266887 -111.600945 
L 214.019687 -109.696429 
L 219.772486 -111.192834 
L 225.525285 -112.68924 
L 231.278085 -104.799103 
L 237.030884 -105.887398 
L 242.783684 -106.567582 
L 248.536483 -108.744171 
L 254.289283 -107.791914 
L 260.042082 -119.219007 
L 265.794882 -118.26675 
L 271.547681 -115.546013 
L 277.300481 -121.803707 
L 283.05328 -122.075781 
L 288.806079 -122.892002 
L 294.558879 -109.560392 
L 300.311678 -108.063987 
L 306.064478 -105.751361 
L 311.817277 -105.207214 
L 317.570077 -98.405372 
L 323.322876 -98.813483 
L 329.075676 -100.990072 
L 334.828475 -110.10454 
L 340.581275 -112.553203 
L 346.334074 -108.200024 
L 352.086873 -113.369424 
L 357.839673 -115.818087 
L 363.592472 -111.600945 
L 369.345272 -111.600945 
L 375.098071 -111.192834 
L 380.850871 -110.10454 
L 386.60367 -109.560392 
L 392.35647 -467.201222 
L 398.109269 -390.068338 
L 403.862068 -388.435896 
L 409.614868 -386.395344 
L 415.367667 -376.872766 
L 421.120467 -345.448258 
L 426.873266 -345.856368 
L 432.626066 -328.579691 
L 438.378865 -331.572501 
L 444.131665 -334.973422 
L 449.884464 -300.147993 
L 455.637264 -290.897488 
L 461.390063 -260.833349 
L 467.142862 -259.609017 
L 472.895662 -259.06487 
L 478.648461 -260.017128 
L 484.401261 -261.377496 
L 490.15406 -259.745054 
L 495.90686 -239.339529 
L 501.659659 -212.948384 
L 507.412459 -205.738432 
L 513.165258 -199.888848 
L 518.918058 -191.318528 
L 524.670857 -211.179905 
L 530.423656 -214.308752 
L 536.176456 -227.912436 
L 541.929255 -230.225062 
L 547.682055 -238.387272 
L 553.434854 -232.129577 
L 559.187654 -236.75483 
L 564.940453 -231.313356 
L 570.693253 -235.802572 
L 576.446052 -241.788192 
L 582.198851 -230.769209 
L 587.951651 -232.809762 
L 593.70445 -235.122388 
L 599.45725 -238.387272 
L 605.210049 -234.442204 
L 610.962849 -234.986351 
L 616.715648 -236.75483 
L 622.468448 -219.206078 
L 628.221247 -217.301563 
L 633.974047 -218.117784 
L 639.726846 -217.4376 
L 645.479645 -215.397047 
L 651.232445 -220.566447 
L 656.985244 -215.124973 
L 662.738044 -229.00073 
L 668.490843 -244.372892 
L 674.243643 -243.420634 
L 674.243643 -484.88601 
L 674.243643 -484.88601 
L 668.490843 -484.88601 
L 662.738044 -484.341863 
L 656.985244 -485.838268 
L 651.232445 -486.518452 
L 645.479645 -489.375225 
L 639.726846 -497.537435 
L 633.974047 -497.673472 
L 628.221247 -489.919373 
L 622.468448 -490.599557 
L 616.715648 -490.735594 
L 610.962849 -490.87163 
L 605.210049 -490.327483 
L 599.45725 -487.334673 
L 593.70445 -483.797715 
L 587.951651 -484.205826 
L 582.198851 -483.933752 
L 576.446052 -484.069789 
L 570.693253 -493.864441 
L 564.940453 -497.945546 
L 559.187654 -496.177067 
L 553.434854 -495.904993 
L 547.682055 -495.63292 
L 541.929255 -493.45633 
L 536.176456 -489.919373 
L 530.423656 -493.184257 
L 524.670857 -483.933752 
L 518.918058 -484.069789 
L 513.165258 -484.069789 
L 507.412459 -488.014857 
L 501.659659 -484.205826 
L 495.90686 -484.205826 
L 490.15406 -494.680662 
L 484.401261 -497.265361 
L 478.648461 -508.964529 
L 472.895662 -507.468124 
L 467.142862 -505.427571 
L 461.390063 -508.828492 
L 455.637264 -510.733008 
L 449.884464 -511.685266 
L 444.131665 -511.413192 
L 438.378865 -509.916787 
L 432.626066 -509.78075 
L 426.873266 -509.916787 
L 421.120467 -509.78075 
L 415.367667 -510.324897 
L 409.614868 -528.009685 
L 403.862068 -525.152912 
L 398.109269 -533.995306 
L 392.35647 -536.171895 
L 386.60367 -183.020281 
L 380.850871 -183.972539 
L 375.098071 -184.516686 
L 369.345272 -182.612171 
L 363.592472 -184.38065 
L 357.839673 -184.108576 
L 352.086873 -183.836502 
L 346.334074 -184.78876 
L 340.581275 -188.189681 
L 334.828475 -196.760001 
L 329.075676 -182.20406 
L 323.322876 -181.523876 
L 317.570077 -181.523876 
L 311.817277 -180.571618 
L 306.064478 -181.115766 
L 300.311678 -180.979729 
L 294.558879 -180.571618 
L 288.806079 -180.979729 
L 283.05328 -179.619361 
L 277.300481 -179.21125 
L 271.547681 -182.340097 
L 265.794882 -205.330322 
L 260.042082 -204.786174 
L 254.289283 -204.514101 
L 248.536483 -203.153732 
L 242.783684 -189.822123 
L 237.030884 -179.21125 
L 231.278085 -181.931987 
L 225.525285 -178.122955 
L 219.772486 -177.714845 
L 214.019687 -177.714845 
L 208.266887 -177.306734 
L 202.514088 -182.612171 
L 196.761288 -176.898624 
L 191.008489 -177.850882 
L 185.255689 -177.986919 
L 179.50289 -177.850882 
L 173.75009 -184.652723 
L 167.997291 -179.891434 
L 162.244492 -181.931987 
L 156.491692 -185.332907 
L 150.738893 -181.79595 
L 144.986093 -196.896038 
L 139.233294 -183.156318 
L 133.480494 -181.79595 
L 127.727695 -201.11318 
L 121.974895 -185.604981 
L 116.222096 -187.509497 
L 110.469296 -196.487928 
L 104.716497 -201.929401 
z
" style="stroke: #ffffff; stroke-opacity: 0.2"/>
    </defs>
    <g clip-path="url(#pc284a56504)">
     <use xlink:href="#m7dff0c53e1" x="0" y="576" style="fill: #4c72b0; fill-opacity: 0.2; stroke: #ffffff; stroke-opacity: 0.2"/>
    </g>
   </g>
   <g id="PolyCollection_2">
    <defs>
     <path id="me34a96befd" d="M 104.716497 -200.705069 
L 104.716497 -163.430978 
L 110.469296 -139.352458 
L 116.222096 -140.032643 
L 121.974895 -133.094764 
L 127.727695 -125.748775 
L 133.480494 -125.340665 
L 139.233294 -120.035228 
L 144.986093 -119.899192 
L 150.738893 -120.987486 
L 156.491692 -116.634308 
L 162.244492 -115.546013 
L 167.997291 -113.09735 
L 173.75009 -112.009055 
L 179.50289 -109.288319 
L 185.255689 -109.696429 
L 191.008489 -111.192834 
L 196.761288 -103.438735 
L 202.514088 -100.717998 
L 208.266887 -97.181041 
L 214.019687 -93.099936 
L 219.772486 -95.820672 
L 225.525285 -94.596341 
L 231.278085 -92.283715 
L 237.030884 -95.684636 
L 242.783684 -93.508046 
L 248.536483 -96.500857 
L 254.289283 -99.901777 
L 260.042082 -103.166661 
L 265.794882 -107.111729 
L 271.547681 -116.770344 
L 277.300481 -106.839656 
L 283.05328 -108.063987 
L 288.806079 -111.056798 
L 294.558879 -103.710809 
L 300.311678 -103.982882 
L 306.064478 -99.085556 
L 311.817277 -99.629704 
L 317.570077 -100.990072 
L 323.322876 -102.622514 
L 329.075676 -100.717998 
L 334.828475 -96.228783 
L 340.581275 -88.20261 
L 346.334074 -85.2098 
L 352.086873 -86.026021 
L 357.839673 -86.434131 
L 363.592472 -87.522426 
L 369.345272 -89.699015 
L 375.098071 -97.045004 
L 380.850871 -95.684636 
L 386.60367 -98.269335 
L 392.35647 -447.475881 
L 398.109269 -436.592935 
L 403.862068 -372.655624 
L 409.614868 -367.350188 
L 415.367667 -313.887713 
L 421.120467 -308.038129 
L 426.873266 -303.820987 
L 432.626066 -304.229098 
L 438.378865 -305.453429 
L 444.131665 -304.909282 
L 449.884464 -276.341548 
L 455.637264 -270.764037 
L 461.390063 -288.720899 
L 467.142862 -297.971404 
L 472.895662 -280.558689 
L 478.648461 -290.625415 
L 484.401261 -273.892885 
L 490.15406 -255.799986 
L 495.90686 -253.759434 
L 501.659659 -247.90985 
L 507.412459 -263.554085 
L 513.165258 -284.911868 
L 518.918058 -288.312789 
L 524.670857 -288.040715 
L 530.423656 -287.088457 
L 536.176456 -286.816384 
L 541.929255 -274.573069 
L 547.682055 -267.499154 
L 553.434854 -243.420634 
L 559.187654 -241.516119 
L 564.940453 -235.802572 
L 570.693253 -229.816951 
L 576.446052 -244.644966 
L 582.198851 -249.406255 
L 587.951651 -254.167544 
L 593.70445 -254.303581 
L 599.45725 -254.303581 
L 605.210049 -254.167544 
L 610.962849 -260.289201 
L 616.715648 -266.002748 
L 622.468448 -286.408273 
L 628.221247 -286.680347 
L 633.974047 -287.904678 
L 639.726846 -291.985783 
L 645.479645 -292.802004 
L 651.232445 -292.802004 
L 656.985244 -295.658778 
L 662.738044 -225.463773 
L 668.490843 -229.272804 
L 674.243643 -246.957592 
L 674.243643 -515.494297 
L 674.243643 -515.494297 
L 668.490843 -515.494297 
L 662.738044 -515.494297 
L 656.985244 -512.229413 
L 651.232445 -512.229413 
L 645.479645 -512.501487 
L 639.726846 -512.501487 
L 633.974047 -512.501487 
L 628.221247 -512.501487 
L 622.468448 -513.589781 
L 616.715648 -515.222223 
L 610.962849 -515.35826 
L 605.210049 -515.35826 
L 599.45725 -517.670886 
L 593.70445 -517.262776 
L 587.951651 -515.35826 
L 582.198851 -515.222223 
L 576.446052 -513.725818 
L 570.693253 -513.589781 
L 564.940453 -511.821302 
L 559.187654 -506.107756 
L 553.434854 -504.067203 
L 547.682055 -503.659093 
L 541.929255 -497.945546 
L 536.176456 -499.577988 
L 530.423656 -498.62573 
L 524.670857 -498.62573 
L 518.918058 -496.993288 
L 513.165258 -495.63292 
L 507.412459 -496.585177 
L 501.659659 -496.44914 
L 495.90686 -496.993288 
L 490.15406 -496.585177 
L 484.401261 -496.313104 
L 478.648461 -496.857251 
L 472.895662 -496.313104 
L 467.142862 -501.21043 
L 461.390063 -515.766371 
L 455.637264 -522.024065 
L 449.884464 -522.976323 
L 444.131665 -521.615954 
L 438.378865 -516.174481 
L 432.626066 -516.990702 
L 426.873266 -523.248396 
L 421.120467 -516.446555 
L 415.367667 -513.861855 
L 409.614868 -511.277155 
L 403.862068 -521.615954 
L 398.109269 -516.446555 
L 392.35647 -519.575402 
L 386.60367 -182.20406 
L 380.850871 -182.612171 
L 375.098071 -183.836502 
L 369.345272 -181.387839 
L 363.592472 -180.707655 
L 357.839673 -181.387839 
L 352.086873 -182.068023 
L 346.334074 -182.068023 
L 340.581275 -182.068023 
L 334.828475 -182.068023 
L 329.075676 -182.068023 
L 323.322876 -180.979729 
L 317.570077 -179.619361 
L 311.817277 -176.490513 
L 306.064478 -176.354477 
L 300.311678 -176.082403 
L 294.558879 -175.946366 
L 288.806079 -179.755397 
L 283.05328 -186.013092 
L 277.300481 -192.542859 
L 271.547681 -195.807743 
L 265.794882 -195.807743 
L 260.042082 -196.351891 
L 254.289283 -195.263596 
L 248.536483 -178.531066 
L 242.783684 -179.21125 
L 237.030884 -179.075213 
L 231.278085 -179.21125 
L 225.525285 -179.891434 
L 219.772486 -179.755397 
L 214.019687 -182.884244 
L 208.266887 -182.340097 
L 202.514088 -181.659913 
L 196.761288 -181.79595 
L 191.008489 -181.79595 
L 185.255689 -182.476134 
L 179.50289 -182.476134 
L 173.75009 -182.612171 
L 167.997291 -182.884244 
L 162.244492 -186.421202 
L 156.491692 -183.156318 
L 150.738893 -185.196871 
L 144.986093 -184.652723 
L 139.233294 -184.652723 
L 133.480494 -188.597791 
L 127.727695 -188.189681 
L 121.974895 -189.277976 
L 116.222096 -191.318528 
L 110.469296 -192.134749 
L 104.716497 -200.705069 
z
" style="stroke: #ffffff; stroke-opacity: 0.2"/>
    </defs>
    <g clip-path="url(#pc284a56504)">
     <use xlink:href="#me34a96befd" x="0" y="576" style="fill: #dd8452; fill-opacity: 0.2; stroke: #ffffff; stroke-opacity: 0.2"/>
    </g>
   </g>
   <g id="PolyCollection_3">
    <defs>
     <path id="m3d18e88ab7" d="M 104.716497 -203.969953 
L 104.716497 -147.650705 
L 110.469296 -150.235405 
L 116.222096 -149.011073 
L 121.974895 -143.16149 
L 127.727695 -143.5696 
L 133.480494 -142.481306 
L 139.233294 -129.693843 
L 144.986093 -129.557807 
L 150.738893 -128.877622 
L 156.491692 -128.877622 
L 162.244492 -128.741586 
L 167.997291 -129.42177 
L 173.75009 -117.722602 
L 179.50289 -117.722602 
L 185.255689 -111.328871 
L 191.008489 -104.254956 
L 196.761288 -91.467494 
L 202.514088 -87.522426 
L 208.266887 -87.522426 
L 214.019687 -87.522426 
L 219.772486 -87.522426 
L 225.525285 -87.386389 
L 231.278085 -88.746757 
L 237.030884 -102.758551 
L 242.783684 -103.574772 
L 248.536483 -106.023435 
L 254.289283 -101.534219 
L 260.042082 -89.562978 
L 265.794882 -86.434131 
L 271.547681 -87.250352 
L 277.300481 -89.154868 
L 283.05328 -93.099936 
L 288.806079 -88.066573 
L 294.558879 -86.434131 
L 300.311678 -100.445925 
L 306.064478 -96.500857 
L 311.817277 -96.636893 
L 317.570077 -97.453114 
L 323.322876 -97.725188 
L 329.075676 -97.997262 
L 334.828475 -97.589151 
L 340.581275 -95.412562 
L 346.334074 -94.188231 
L 352.086873 -93.78012 
L 357.839673 -94.052194 
L 363.592472 -95.140488 
L 369.345272 -93.099936 
L 375.098071 -92.419752 
L 380.850871 -94.052194 
L 386.60367 -97.997262 
L 392.35647 -455.774128 
L 398.109269 -430.199204 
L 403.862068 -418.908147 
L 409.614868 -390.748523 
L 415.367667 -356.875352 
L 421.120467 -336.33379 
L 426.873266 -316.880523 
L 432.626066 -307.630019 
L 438.378865 -305.725503 
L 444.131665 -306.26965 
L 449.884464 -305.86154 
L 455.637264 -293.074078 
L 461.390063 -289.12901 
L 467.142862 -289.673157 
L 472.895662 -300.964214 
L 478.648461 -289.53712 
L 484.401261 -306.949835 
L 490.15406 -216.349305 
L 495.90686 -208.459169 
L 501.659659 -208.595206 
L 507.412459 -191.862675 
L 513.165258 -189.550049 
L 518.918058 -188.869865 
L 524.670857 -191.454565 
L 530.423656 -191.182491 
L 536.176456 -191.590602 
L 541.929255 -191.318528 
L 547.682055 -191.590602 
L 553.434854 -194.311338 
L 559.187654 -198.936591 
L 564.940453 -212.540274 
L 570.693253 -229.272804 
L 576.446052 -246.141371 
L 582.198851 -244.372892 
L 587.951651 -249.542292 
L 593.70445 -251.990955 
L 599.45725 -252.399065 
L 605.210049 -244.781003 
L 610.962849 -254.711691 
L 616.715648 -222.879073 
L 622.468448 -209.139353 
L 628.221247 -195.127559 
L 633.974047 -203.153732 
L 639.726846 -186.693276 
L 645.479645 -191.590602 
L 651.232445 -180.707655 
L 656.985244 -178.531066 
L 662.738044 -182.20406 
L 668.490843 -197.712259 
L 674.243643 -194.583412 
L 674.243643 -502.978908 
L 674.243643 -502.978908 
L 668.490843 -503.659093 
L 662.738044 -505.835682 
L 656.985244 -505.699645 
L 651.232445 -509.916787 
L 645.479645 -505.563608 
L 639.726846 -500.258172 
L 633.974047 -500.258172 
L 628.221247 -499.577988 
L 622.468448 -499.169877 
L 616.715648 -500.394209 
L 610.962849 -500.802319 
L 605.210049 -500.802319 
L 599.45725 -500.666282 
L 593.70445 -500.666282 
L 587.951651 -500.530245 
L 582.198851 -507.468124 
L 576.446052 -509.508676 
L 570.693253 -515.494297 
L 564.940453 -513.181671 
L 559.187654 -495.768956 
L 553.434854 -496.313104 
L 547.682055 -490.735594 
L 541.929255 -492.912183 
L 536.176456 -491.551815 
L 530.423656 -496.993288 
L 524.670857 -494.136514 
L 518.918058 -491.415778 
L 513.165258 -491.551815 
L 507.412459 -491.551815 
L 501.659659 -491.551815 
L 495.90686 -499.441951 
L 490.15406 -489.375225 
L 484.401261 -489.375225 
L 478.648461 -489.783336 
L 472.895662 -490.735594 
L 467.142862 -500.122135 
L 461.390063 -505.699645 
L 455.637264 -512.501487 
L 449.884464 -520.52766 
L 444.131665 -520.255586 
L 438.378865 -522.704249 
L 432.626066 -516.718628 
L 426.873266 -515.766371 
L 421.120467 -514.95015 
L 415.367667 -515.222223 
L 409.614868 -516.718628 
L 403.862068 -518.895218 
L 398.109269 -520.799733 
L 392.35647 -528.009685 
L 386.60367 -191.318528 
L 380.850871 -191.454565 
L 375.098071 -190.502307 
L 369.345272 -192.406823 
L 363.592472 -193.35908 
L 357.839673 -192.406823 
L 352.086873 -182.884244 
L 346.334074 -181.79595 
L 340.581275 -176.762587 
L 334.828475 -176.898624 
L 329.075676 -176.762587 
L 323.322876 -184.244613 
L 317.570077 -184.38065 
L 311.817277 -191.590602 
L 306.064478 -191.590602 
L 300.311678 -191.046454 
L 294.558879 -190.36627 
L 288.806079 -183.428392 
L 283.05328 -182.612171 
L 277.300481 -183.020281 
L 271.547681 -182.612171 
L 265.794882 -182.340097 
L 260.042082 -182.20406 
L 254.289283 -180.979729 
L 248.536483 -180.707655 
L 242.783684 -196.896038 
L 237.030884 -186.557239 
L 231.278085 -184.108576 
L 225.525285 -182.476134 
L 219.772486 -182.476134 
L 214.019687 -182.476134 
L 208.266887 -182.476134 
L 202.514088 -182.476134 
L 196.761288 -182.476134 
L 191.008489 -183.156318 
L 185.255689 -183.428392 
L 179.50289 -183.156318 
L 173.75009 -183.156318 
L 167.997291 -183.156318 
L 162.244492 -183.156318 
L 156.491692 -188.325718 
L 150.738893 -185.877055 
L 144.986093 -184.38065 
L 139.233294 -191.862675 
L 133.480494 -188.597791 
L 127.727695 -187.917607 
L 121.974895 -190.910418 
L 116.222096 -194.311338 
L 110.469296 -206.010506 
L 104.716497 -203.969953 
z
" style="stroke: #ffffff; stroke-opacity: 0.2"/>
    </defs>
    <g clip-path="url(#pc284a56504)">
     <use xlink:href="#m3d18e88ab7" x="0" y="576" style="fill: #55a868; fill-opacity: 0.2; stroke: #ffffff; stroke-opacity: 0.2"/>
    </g>
   </g>
   <g id="line2d_14">
    <path d="M 104.716497 388.422485 
L 110.469296 394.816216 
L 116.222096 396.244603 
L 121.974895 396.856768 
L 127.727695 398.013081 
L 133.480494 400.325708 
L 139.233294 402.36626 
L 144.986093 400.325708 
L 150.738893 403.998702 
L 156.491692 407.331604 
L 162.244492 408.011789 
L 167.997291 409.23612 
L 173.75009 409.780267 
L 179.50289 410.188378 
L 185.255689 410.93658 
L 191.008489 411.412709 
L 196.761288 410.324415 
L 202.514088 412.637041 
L 208.266887 418.010496 
L 214.019687 419.438882 
L 219.772486 420.663214 
L 225.525285 413.249207 
L 231.278085 417.058238 
L 237.030884 414.81363 
L 242.783684 415.629851 
L 248.536483 417.194275 
L 254.289283 417.80644 
L 260.042082 412.22893 
L 265.794882 413.52128 
L 271.547681 413.385243 
L 277.300481 412.432986 
L 283.05328 407.94377 
L 288.806079 409.032065 
L 294.558879 409.032065 
L 300.311678 408.964046 
L 306.064478 412.569022 
L 311.817277 411.412709 
L 317.570077 410.392433 
L 323.322876 409.304138 
L 329.075676 410.732525 
L 334.828475 412.909114 
L 340.581275 412.092893 
L 346.334074 411.208654 
L 352.086873 410.120359 
L 357.839673 410.664507 
L 363.592472 410.256396 
L 369.345272 410.392433 
L 375.098071 410.664507 
L 380.850871 414.065428 
L 386.60367 411.140636 
L 392.35647 78.66662 
L 398.109269 98.459979 
L 403.862068 106.962281 
L 409.614868 105.73795 
L 415.367667 111.859607 
L 421.120467 134.713795 
L 426.873266 135.530016 
L 432.626066 153.078767 
L 438.378865 160.288719 
L 444.131665 164.709916 
L 449.884464 166.68245 
L 455.637264 167.226597 
L 461.390063 176.477102 
L 467.142862 177.225304 
L 472.895662 180.490188 
L 478.648461 192.801522 
L 484.401261 190.692951 
L 490.15406 186.611846 
L 495.90686 201.984008 
L 501.659659 217.084096 
L 507.412459 232.116166 
L 513.165258 232.388239 
L 518.918058 231.299945 
L 524.670857 234.292755 
L 530.423656 236.197271 
L 536.176456 240.482431 
L 541.929255 236.945473 
L 547.682055 245.719849 
L 553.434854 252.793764 
L 559.187654 251.977543 
L 564.940453 244.495517 
L 570.693253 243.611278 
L 576.446052 229.055337 
L 582.198851 234.632847 
L 587.951651 236.6734 
L 593.70445 239.258099 
L 599.45725 231.572018 
L 605.210049 218.444464 
L 610.962849 214.635433 
L 616.715648 215.315617 
L 622.468448 216.812022 
L 628.221247 212.050733 
L 633.974047 201.507879 
L 639.726846 202.052026 
L 645.479645 203.004284 
L 651.232445 196.338479 
L 656.985244 208.581794 
L 662.738044 215.859764 
L 668.490843 213.683175 
L 674.243643 233.340497 
" clip-path="url(#pc284a56504)" style="fill: none; stroke: #4c72b0; stroke-width: 2; stroke-linecap: round"/>
   </g>
   <g id="line2d_15">
    <path d="M 104.716497 385.225619 
L 110.469296 392.639627 
L 116.222096 396.516676 
L 121.974895 397.19686 
L 127.727695 402.774371 
L 133.480494 402.094186 
L 139.233294 404.338794 
L 144.986093 407.331604 
L 150.738893 407.331604 
L 156.491692 407.263586 
L 162.244492 409.576212 
L 167.997291 409.168102 
L 173.75009 414.541556 
L 179.50289 415.69787 
L 185.255689 418.282569 
L 191.008489 417.942477 
L 196.761288 420.323122 
L 202.514088 421.27538 
L 208.266887 423.928098 
L 214.019687 429.505608 
L 219.772486 430.593903 
L 225.525285 429.233534 
L 231.278085 431.818234 
L 237.030884 432.4304 
L 242.783684 434.198879 
L 248.536483 434.470952 
L 254.289283 433.926805 
L 260.042082 433.518694 
L 265.794882 431.886252 
L 271.547681 433.246621 
L 277.300481 415.969943 
L 283.05328 418.826717 
L 288.806079 418.758698 
L 294.558879 421.547453 
L 300.311678 420.39114 
L 306.064478 416.718146 
L 311.817277 416.10598 
L 317.570077 417.466348 
L 323.322876 412.637041 
L 329.075676 412.773078 
L 334.828475 410.52847 
L 340.581275 410.256396 
L 346.334074 412.024875 
L 352.086873 412.296949 
L 357.839673 411.072617 
L 363.592472 410.120359 
L 369.345272 408.623954 
L 375.098071 406.855475 
L 380.850871 406.855475 
L 386.60367 406.039254 
L 392.35647 78.462565 
L 398.109269 82.54367 
L 403.862068 86.82883 
L 409.614868 95.943298 
L 415.367667 96.079334 
L 421.120467 96.6915 
L 426.873266 100.908642 
L 432.626066 98.800071 
L 438.378865 115.60062 
L 444.131665 123.898866 
L 449.884464 120.633983 
L 455.637264 119.681725 
L 461.390063 142.603931 
L 467.142862 139.475084 
L 472.895662 162.8054 
L 478.648461 175.116733 
L 484.401261 181.782538 
L 490.15406 184.095164 
L 495.90686 184.571293 
L 501.659659 188.99249 
L 507.412459 189.536638 
L 513.165258 192.801522 
L 518.918058 192.597466 
L 524.670857 197.902903 
L 530.423656 193.005577 
L 536.176456 191.305116 
L 541.929255 185.523551 
L 547.682055 185.387514 
L 553.434854 185.251477 
L 559.187654 184.163183 
L 564.940453 184.70733 
L 570.693253 173.280236 
L 576.446052 172.804107 
L 582.198851 163.009455 
L 587.951651 174.708623 
L 593.70445 172.055905 
L 599.45725 183.619035 
L 605.210049 206.881334 
L 610.962849 214.635433 
L 616.715648 216.744004 
L 622.468448 224.838195 
L 628.221247 226.198564 
L 633.974047 229.531466 
L 639.726846 229.055337 
L 645.479645 231.231926 
L 651.232445 237.149528 
L 656.985244 234.564829 
L 662.738044 235.313031 
L 668.490843 235.925197 
L 674.243643 247.488328 
" clip-path="url(#pc284a56504)" style="fill: none; stroke: #dd8452; stroke-width: 2; stroke-linecap: round"/>
   </g>
   <g id="line2d_16">
    <path d="M 104.716497 388.694559 
L 110.469296 392.367553 
L 116.222096 395.904511 
L 121.974895 397.468934 
L 127.727695 396.924787 
L 133.480494 397.060824 
L 139.233294 397.672989 
L 144.986093 399.033358 
L 150.738893 399.37345 
L 156.491692 400.461744 
L 162.244492 400.6658 
L 167.997291 403.114463 
L 173.75009 403.386536 
L 179.50289 403.386536 
L 185.255689 405.018978 
L 191.008489 406.447365 
L 196.761288 407.739715 
L 202.514088 408.691973 
L 208.266887 409.644231 
L 214.019687 409.644231 
L 219.772486 410.732525 
L 225.525285 410.868562 
L 231.278085 410.800544 
L 237.030884 410.664507 
L 242.783684 411.684783 
L 248.536483 407.603678 
L 254.289283 410.324415 
L 260.042082 411.480728 
L 265.794882 411.140636 
L 271.547681 408.079807 
L 277.300481 410.120359 
L 283.05328 407.875752 
L 288.806079 408.419899 
L 294.558879 407.875752 
L 300.311678 407.53566 
L 306.064478 407.059531 
L 311.817277 406.24331 
L 317.570077 408.487917 
L 323.322876 407.807733 
L 329.075676 406.65142 
L 334.828475 407.127549 
L 340.581275 407.263586 
L 346.334074 405.086997 
L 352.086873 406.039254 
L 357.839673 406.039254 
L 363.592472 405.971236 
L 369.345272 407.739715 
L 375.098071 407.059531 
L 380.850871 406.65142 
L 386.60367 410.120359 
L 392.35647 84.720259 
L 398.109269 96.147353 
L 403.862068 91.182009 
L 409.614868 93.562653 
L 415.367667 105.057765 
L 421.120467 108.526705 
L 426.873266 111.791589 
L 432.626066 111.043386 
L 438.378865 115.872693 
L 444.131665 134.645776 
L 449.884464 134.645776 
L 455.637264 123.014627 
L 461.390063 123.150664 
L 467.142862 136.346237 
L 472.895662 159.064387 
L 478.648461 164.09775 
L 484.401261 161.10494 
L 490.15406 171.647794 
L 495.90686 187.019956 
L 501.659659 199.263271 
L 507.412459 214.77147 
L 513.165258 216.199856 
L 518.918058 220.893127 
L 524.670857 221.369256 
L 530.423656 218.716538 
L 536.176456 219.940869 
L 541.929255 203.684468 
L 547.682055 227.286858 
L 553.434854 239.054044 
L 559.187654 241.026578 
L 564.940453 246.604088 
L 570.693253 253.201875 
L 576.446052 251.501414 
L 582.198851 253.337911 
L 587.951651 253.746022 
L 593.70445 233.612571 
L 599.45725 235.449068 
L 605.210049 246.672107 
L 610.962849 241.094597 
L 616.715648 242.386947 
L 622.468448 240.142339 
L 628.221247 241.638744 
L 633.974047 241.570726 
L 639.726846 242.386947 
L 645.479645 233.340497 
L 651.232445 230.483724 
L 656.985244 236.741418 
L 662.738044 231.844092 
L 668.490843 223.273772 
L 674.243643 225.178287 
" clip-path="url(#pc284a56504)" style="fill: none; stroke: #55a868; stroke-width: 2; stroke-linecap: round"/>
   </g>
   <g id="patch_3">
    <path d="M 76.24014 513.338305 
L 76.24014 17.28 
" style="fill: none; stroke: #cccccc; stroke-width: 1.25; stroke-linejoin: miter; stroke-linecap: square"/>
   </g>
   <g id="patch_4">
    <path d="M 702.72 513.338305 
L 702.72 17.28 
" style="fill: none; stroke: #cccccc; stroke-width: 1.25; stroke-linejoin: miter; stroke-linecap: square"/>
   </g>
   <g id="patch_5">
    <path d="M 76.24014 513.338305 
L 702.72 513.338305 
" style="fill: none; stroke: #cccccc; stroke-width: 1.25; stroke-linejoin: miter; stroke-linecap: square"/>
   </g>
   <g id="patch_6">
    <path d="M 76.24014 17.28 
L 702.72 17.28 
" style="fill: none; stroke: #cccccc; stroke-width: 1.25; stroke-linejoin: miter; stroke-linecap: square"/>
   </g>
   <g id="legend_1">
    <g id="patch_7">
     <path d="M 90.24014 148.162063 
L 177.490536 148.162063 
Q 181.490536 148.162063 181.490536 144.162063 
L 181.490536 31.28 
Q 181.490536 27.28 177.490536 27.28 
L 90.24014 27.28 
Q 86.24014 27.28 86.24014 31.28 
L 86.24014 144.162063 
Q 86.24014 148.162063 90.24014 148.162063 
z
" style="fill: #ffffff; opacity: 0.8; stroke: #cccccc; stroke-linejoin: miter"/>
    </g>
    <g id="text_16">
     <!-- $\theta_{\mathrm{init}}$ -->
     <g style="fill: #262626" transform="translate(116.118952 51.884405) scale(0.24 -0.24)">
      <defs>
       <path id="CMMI12-12" d="M 2835 3200 
C 2835 3850 2630 4480 2106 4480 
C 1210 4480 256 2615 256 1216 
C 256 923 320 -64 992 -64 
C 1862 -64 2835 1756 2835 3200 
z
M 896 2304 
C 992 2679 1126 3214 1382 3665 
C 1594 4047 1818 4352 2099 4352 
C 2310 4352 2451 4174 2451 3564 
C 2451 3334 2432 3017 2246 2304 
L 896 2304 
z
M 2202 2113 
C 2042 1490 1907 1088 1677 687 
C 1491 363 1267 64 998 64 
C 800 64 640 217 640 846 
C 640 1260 742 1693 845 2113 
L 2202 2113 
z
" transform="scale(0.015625)"/>
       <path id="CMR17-69" d="M 992 3909 
C 992 4049 877 4170 730 4170 
C 589 4170 467 4056 467 3909 
C 467 3769 582 3648 730 3648 
C 870 3648 992 3763 992 3909 
z
M 243 2706 
L 243 2541 
C 602 2541 653 2502 653 2197 
L 653 427 
C 653 184 627 153 218 153 
L 218 -13 
C 371 0 646 0 806 0 
C 960 0 1222 0 1370 -13 
L 1370 153 
C 992 153 979 191 979 420 
L 979 2776 
L 243 2706 
z
" transform="scale(0.015625)"/>
       <path id="CMR17-6e" d="M 2656 1933 
C 2656 2259 2592 2790 1837 2790 
C 1331 2790 1069 2400 973 2144 
L 966 2144 
L 966 2790 
L 211 2720 
L 211 2554 
C 589 2554 646 2515 646 2208 
L 646 428 
C 646 184 621 153 211 153 
L 211 -13 
C 365 0 646 0 813 0 
C 979 0 1267 0 1421 -13 
L 1421 153 
C 1011 153 986 178 986 428 
L 986 1658 
C 986 2247 1344 2688 1792 2688 
C 2266 2688 2317 2266 2317 1958 
L 2317 428 
C 2317 184 2291 153 1882 153 
L 1882 -13 
C 2035 0 2317 0 2483 0 
C 2650 0 2938 0 3091 -13 
L 3091 153 
C 2682 153 2656 178 2656 428 
L 2656 1933 
z
" transform="scale(0.015625)"/>
      </defs>
      <use xlink:href="#CMMI12-12" transform="scale(0.996264)"/>
      <use xlink:href="#CMR17-69" transform="translate(45.45979 -14.943915) scale(0.697382)"/>
      <use xlink:href="#CMR17-6e" transform="translate(62.869449 -14.943915) scale(0.697382)"/>
      <use xlink:href="#CMR17-69" transform="translate(98.496057 -14.943915) scale(0.697382)"/>
      <use xlink:href="#CMR17-74" transform="translate(115.905716 -14.943915) scale(0.697382)"/>
     </g>
    </g>
    <g id="line2d_17">
     <path d="M 94.24014 73.535163 
L 114.24014 73.535163 
L 134.24014 73.535163 
" style="fill: none; stroke: #4c72b0; stroke-width: 2; stroke-linecap: round"/>
    </g>
    <g id="text_17">
     <!-- 0.4 -->
     <g style="fill: #262626" transform="translate(150.24014 80.535163) scale(0.2 -0.2)">
      <defs>
       <path id="CMR17-2e" d="M 1062 261 
C 1062 420 934 522 800 522 
C 672 522 538 420 538 261 
C 538 102 666 0 800 0 
C 928 0 1062 102 1062 261 
z
" transform="scale(0.015625)"/>
      </defs>
      <use xlink:href="#CMR17-30" transform="scale(0.996264)"/>
      <use xlink:href="#CMR17-2e" transform="translate(45.690477 0) scale(0.996264)"/>
      <use xlink:href="#CMR17-34" transform="translate(70.561536 0) scale(0.996264)"/>
     </g>
    </g>
    <g id="line2d_18">
     <path d="M 94.24014 101.410796 
L 114.24014 101.410796 
L 134.24014 101.410796 
" style="fill: none; stroke: #dd8452; stroke-width: 2; stroke-linecap: round"/>
    </g>
    <g id="text_18">
     <!-- 0.6 -->
     <g style="fill: #262626" transform="translate(150.24014 108.410796) scale(0.2 -0.2)">
      <use xlink:href="#CMR17-30" transform="scale(0.996264)"/>
      <use xlink:href="#CMR17-2e" transform="translate(45.690477 0) scale(0.996264)"/>
      <use xlink:href="#CMR17-36" transform="translate(70.561536 0) scale(0.996264)"/>
     </g>
    </g>
    <g id="line2d_19">
     <path d="M 94.24014 129.28643 
L 114.24014 129.28643 
L 134.24014 129.28643 
" style="fill: none; stroke: #55a868; stroke-width: 2; stroke-linecap: round"/>
    </g>
    <g id="text_19">
     <!-- 0.8 -->
     <g style="fill: #262626" transform="translate(150.24014 136.28643) scale(0.2 -0.2)">
      <use xlink:href="#CMR17-30" transform="scale(0.996264)"/>
      <use xlink:href="#CMR17-2e" transform="translate(45.690477 0) scale(0.996264)"/>
      <use xlink:href="#CMR17-38" transform="translate(70.561536 0) scale(0.996264)"/>
     </g>
    </g>
   </g>
  </g>
 </g>
 <defs>
  <clipPath id="pc284a56504">
   <rect x="76.24014" y="17.28" width="626.47986" height="496.058305"/>
  </clipPath>
 </defs>
</svg>
