<?xml version="1.0" encoding="utf-8" standalone="no"?>
<!DOCTYPE svg PUBLIC "-//W3C//DTD SVG 1.1//EN"
  "http://www.w3.org/Graphics/SVG/1.1/DTD/svg11.dtd">
<svg xmlns:xlink="http://www.w3.org/1999/xlink" width="720pt" height="576pt" viewBox="0 0 720 576" xmlns="http://www.w3.org/2000/svg" version="1.1">
 <metadata>
  <rdf:RDF xmlns:dc="http://purl.org/dc/elements/1.1/" xmlns:cc="http://creativecommons.org/ns#" xmlns:rdf="http://www.w3.org/1999/02/22-rdf-syntax-ns#">
   <cc:Work>
    <dc:type rdf:resource="http://purl.org/dc/dcmitype/StillImage"/>
    <dc:date>2025-04-24T18:57:43.774711</dc:date>
    <dc:format>image/svg+xml</dc:format>
    <dc:creator>
     <cc:Agent>
      <dc:title>Matplotlib v3.9.2, https://matplotlib.org/</dc:title>
     </cc:Agent>
    </dc:creator>
   </cc:Work>
  </rdf:RDF>
 </metadata>
 <defs>
  <style type="text/css">*{stroke-linejoin: round; stroke-linecap: butt}</style>
 </defs>
 <g id="figure_1">
  <g id="patch_1">
   <path d="M 0 576 
L 720 576 
L 720 0 
L 0 0 
z
" style="fill: #ffffff"/>
  </g>
  <g id="axes_1">
   <g id="patch_2">
    <path d="M 83.392615 495.840956 
L 694.08 495.840956 
L 694.08 49.831226 
L 83.392615 49.831226 
z
" style="fill: #ffffff"/>
   </g>
   <g id="matplotlib.axis_1">
    <g id="xtick_1">
     <g id="line2d_1">
      <path d="M 111.151132 495.840956 
L 111.151132 49.831226 
" clip-path="url(#p92c4bf6b50)" style="fill: none; stroke: #cccccc; stroke-linecap: round"/>
     </g>
     <g id="text_1">
      <!-- $\mathdefault{0}$ -->
      <g style="fill: #262626" transform="translate(106.12518 520.56165) scale(0.22 -0.22)">
       <defs>
        <path id="CMR17-30" d="M 2688 2025 
C 2688 2416 2682 3080 2413 3591 
C 2176 4039 1798 4198 1466 4198 
C 1158 4198 768 4058 525 3597 
C 269 3118 243 2524 243 2025 
C 243 1661 250 1106 448 619 
C 723 -39 1216 -128 1466 -128 
C 1760 -128 2208 -7 2470 600 
C 2662 1042 2688 1559 2688 2025 
z
M 1466 -26 
C 1056 -26 813 325 723 812 
C 653 1188 653 1738 653 2096 
C 653 2588 653 2997 736 3387 
C 858 3929 1216 4096 1466 4096 
C 1728 4096 2067 3923 2189 3400 
C 2272 3036 2278 2607 2278 2096 
C 2278 1680 2278 1169 2202 792 
C 2067 95 1690 -26 1466 -26 
z
" transform="scale(0.015625)"/>
       </defs>
       <use xlink:href="#CMR17-30" transform="scale(0.996264)"/>
      </g>
     </g>
    </g>
    <g id="xtick_2">
     <g id="line2d_2">
      <path d="M 223.306759 495.840956 
L 223.306759 49.831226 
" clip-path="url(#p92c4bf6b50)" style="fill: none; stroke: #cccccc; stroke-linecap: round"/>
     </g>
     <g id="text_2">
      <!-- $\mathdefault{200}$ -->
      <g style="fill: #262626" transform="translate(208.228901 520.56165) scale(0.22 -0.22)">
       <defs>
        <path id="CMR17-32" d="M 2669 989 
L 2554 989 
C 2490 536 2438 459 2413 420 
C 2381 369 1920 369 1830 369 
L 602 369 
C 832 619 1280 1072 1824 1597 
C 2214 1967 2669 2402 2669 3035 
C 2669 3790 2067 4224 1395 4224 
C 691 4224 262 3604 262 3030 
C 262 2780 448 2748 525 2748 
C 589 2748 781 2787 781 3010 
C 781 3207 614 3264 525 3264 
C 486 3264 448 3258 422 3245 
C 544 3790 915 4058 1306 4058 
C 1862 4058 2227 3617 2227 3035 
C 2227 2479 1901 2000 1536 1584 
L 262 146 
L 262 0 
L 2515 0 
L 2669 989 
z
" transform="scale(0.015625)"/>
       </defs>
       <use xlink:href="#CMR17-32" transform="scale(0.996264)"/>
       <use xlink:href="#CMR17-30" transform="translate(45.690477 0) scale(0.996264)"/>
       <use xlink:href="#CMR17-30" transform="translate(91.380954 0) scale(0.996264)"/>
      </g>
     </g>
    </g>
    <g id="xtick_3">
     <g id="line2d_3">
      <path d="M 335.462385 495.840956 
L 335.462385 49.831226 
" clip-path="url(#p92c4bf6b50)" style="fill: none; stroke: #cccccc; stroke-linecap: round"/>
     </g>
     <g id="text_3">
      <!-- $\mathdefault{400}$ -->
      <g style="fill: #262626" transform="translate(320.384528 520.56165) scale(0.22 -0.22)">
       <defs>
        <path id="CMR17-34" d="M 2150 4122 
C 2150 4256 2144 4256 2029 4256 
L 128 1254 
L 128 1088 
L 1779 1088 
L 1779 457 
C 1779 224 1766 160 1318 160 
L 1197 160 
L 1197 0 
C 1402 0 1747 0 1965 0 
C 2182 0 2528 0 2733 0 
L 2733 160 
L 2611 160 
C 2163 160 2150 224 2150 457 
L 2150 1088 
L 2803 1088 
L 2803 1254 
L 2150 1254 
L 2150 4122 
z
M 1798 3703 
L 1798 1254 
L 256 1254 
L 1798 3703 
z
" transform="scale(0.015625)"/>
       </defs>
       <use xlink:href="#CMR17-34" transform="scale(0.996264)"/>
       <use xlink:href="#CMR17-30" transform="translate(45.690477 0) scale(0.996264)"/>
       <use xlink:href="#CMR17-30" transform="translate(91.380954 0) scale(0.996264)"/>
      </g>
     </g>
    </g>
    <g id="xtick_4">
     <g id="line2d_4">
      <path d="M 447.618011 495.840956 
L 447.618011 49.831226 
" clip-path="url(#p92c4bf6b50)" style="fill: none; stroke: #cccccc; stroke-linecap: round"/>
     </g>
     <g id="text_4">
      <!-- $\mathdefault{600}$ -->
      <g style="fill: #262626" transform="translate(432.540154 520.56165) scale(0.22 -0.22)">
       <defs>
        <path id="CMR17-36" d="M 678 2176 
C 678 3690 1395 4032 1811 4032 
C 1946 4032 2272 4009 2400 3776 
C 2298 3776 2106 3776 2106 3553 
C 2106 3381 2246 3323 2336 3323 
C 2394 3323 2566 3348 2566 3560 
C 2566 3954 2246 4179 1805 4179 
C 1043 4179 243 3390 243 1984 
C 243 253 966 -128 1478 -128 
C 2099 -128 2688 427 2688 1283 
C 2688 2081 2170 2662 1517 2662 
C 1126 2662 838 2407 678 1960 
L 678 2176 
z
M 1478 25 
C 691 25 691 1200 691 1436 
C 691 1896 909 2560 1504 2560 
C 1613 2560 1926 2560 2138 2120 
C 2253 1870 2253 1609 2253 1289 
C 2253 944 2253 690 2118 434 
C 1978 171 1773 25 1478 25 
z
" transform="scale(0.015625)"/>
       </defs>
       <use xlink:href="#CMR17-36" transform="scale(0.996264)"/>
       <use xlink:href="#CMR17-30" transform="translate(45.690477 0) scale(0.996264)"/>
       <use xlink:href="#CMR17-30" transform="translate(91.380954 0) scale(0.996264)"/>
      </g>
     </g>
    </g>
    <g id="xtick_5">
     <g id="line2d_5">
      <path d="M 559.773638 495.840956 
L 559.773638 49.831226 
" clip-path="url(#p92c4bf6b50)" style="fill: none; stroke: #cccccc; stroke-linecap: round"/>
     </g>
     <g id="text_5">
      <!-- $\mathdefault{800}$ -->
      <g style="fill: #262626" transform="translate(544.69578 520.56165) scale(0.22 -0.22)">
       <defs>
        <path id="CMR17-38" d="M 1741 2264 
C 2144 2467 2554 2773 2554 3263 
C 2554 3841 1990 4179 1472 4179 
C 890 4179 378 3759 378 3180 
C 378 3021 416 2747 666 2505 
C 730 2442 998 2251 1171 2130 
C 883 1983 211 1634 211 934 
C 211 279 838 -128 1459 -128 
C 2144 -128 2720 362 2720 1010 
C 2720 1590 2330 1857 2074 2029 
L 1741 2264 
z
M 902 2822 
C 851 2854 595 3051 595 3351 
C 595 3739 998 4032 1459 4032 
C 1965 4032 2336 3676 2336 3262 
C 2336 2669 1670 2331 1638 2331 
C 1632 2331 1626 2331 1574 2370 
L 902 2822 
z
M 2080 1519 
C 2176 1449 2483 1240 2483 851 
C 2483 381 2010 25 1472 25 
C 890 25 448 438 448 940 
C 448 1443 838 1862 1280 2060 
L 2080 1519 
z
" transform="scale(0.015625)"/>
       </defs>
       <use xlink:href="#CMR17-38" transform="scale(0.996264)"/>
       <use xlink:href="#CMR17-30" transform="translate(45.690477 0) scale(0.996264)"/>
       <use xlink:href="#CMR17-30" transform="translate(91.380954 0) scale(0.996264)"/>
      </g>
     </g>
    </g>
    <g id="xtick_6">
     <g id="line2d_6">
      <path d="M 671.929264 495.840956 
L 671.929264 49.831226 
" clip-path="url(#p92c4bf6b50)" style="fill: none; stroke: #cccccc; stroke-linecap: round"/>
     </g>
     <g id="text_6">
      <!-- $\mathdefault{1000}$ -->
      <g style="fill: #262626" transform="translate(651.825454 520.56165) scale(0.22 -0.22)">
       <defs>
        <path id="CMR17-31" d="M 1702 4058 
C 1702 4192 1696 4192 1606 4192 
C 1357 3916 979 3827 621 3827 
C 602 3827 570 3827 563 3808 
C 557 3795 557 3782 557 3648 
C 755 3648 1088 3686 1344 3839 
L 1344 461 
C 1344 236 1331 160 781 160 
L 589 160 
L 589 0 
C 896 0 1216 0 1523 0 
C 1830 0 2150 0 2458 0 
L 2458 160 
L 2266 160 
C 1715 160 1702 230 1702 458 
L 1702 4058 
z
" transform="scale(0.015625)"/>
       </defs>
       <use xlink:href="#CMR17-31" transform="scale(0.996264)"/>
       <use xlink:href="#CMR17-30" transform="translate(45.690477 0) scale(0.996264)"/>
       <use xlink:href="#CMR17-30" transform="translate(91.380954 0) scale(0.996264)"/>
       <use xlink:href="#CMR17-30" transform="translate(137.071431 0) scale(0.996264)"/>
      </g>
     </g>
    </g>
    <g id="text_7">
     <!-- Step -->
     <g style="fill: #262626" transform="translate(367.649451 545.429243) scale(0.24 -0.24)">
      <defs>
       <path id="CMSS17-53" d="M 2797 4169 
C 2515 4334 2208 4480 1690 4480 
C 864 4480 333 3879 333 3266 
C 333 3025 403 2753 653 2475 
C 902 2196 1184 2121 1542 2033 
C 1690 1994 1939 1924 1984 1906 
C 2342 1767 2515 1444 2515 1140 
C 2515 742 2202 318 1645 318 
C 1453 318 890 318 358 819 
L 269 318 
C 794 -64 1363 -128 1651 -128 
C 2438 -128 3002 488 3002 1186 
C 3002 1440 2925 1763 2656 2061 
C 2394 2347 2163 2410 1638 2549 
C 1338 2626 1146 2677 986 2873 
C 877 3013 819 3146 819 3317 
C 819 3673 1126 4060 1690 4060 
C 1971 4060 2336 4002 2707 3660 
L 2797 4169 
z
" transform="scale(0.015625)"/>
       <path id="CMSS17-74" d="M 1069 2368 
L 1901 2368 
L 1901 2737 
L 1069 2737 
L 1069 3520 
L 614 3520 
L 614 2737 
L 109 2737 
L 109 2368 
L 602 2368 
L 602 749 
C 602 384 685 -64 1107 -64 
C 1427 -64 1722 25 2003 172 
L 1901 548 
C 1747 414 1562 337 1363 337 
C 1082 337 1069 696 1069 856 
L 1069 2368 
z
" transform="scale(0.015625)"/>
       <path id="CMSS17-65" d="M 2502 1377 
C 2502 1590 2490 2003 2285 2345 
C 2061 2713 1696 2816 1421 2816 
C 755 2816 192 2188 192 1375 
C 192 582 774 -64 1510 -64 
C 1798 -64 2150 19 2470 248 
C 2470 274 2458 414 2451 420 
C 2451 433 2432 630 2432 656 
C 2125 407 1773 325 1517 325 
C 1107 325 666 667 646 1377 
L 2502 1377 
z
M 698 1728 
C 781 2084 1062 2421 1421 2421 
C 1517 2421 1965 2421 2080 1728 
L 698 1728 
z
" transform="scale(0.015625)"/>
       <path id="CMSS17-70" d="M 966 333 
C 1178 129 1466 -5 1773 -5 
C 2368 -5 2880 603 2880 1412 
C 2880 2159 2496 2816 1946 2816 
C 1626 2816 1242 2702 954 2472 
L 954 2765 
L 480 2765 
L 480 -1216 
L 966 -1216 
L 966 333 
z
M 966 2100 
C 1018 2176 1235 2415 1587 2415 
C 2035 2415 2394 1960 2394 1412 
C 2394 787 1958 384 1530 384 
C 1402 384 1267 415 1139 523 
C 966 674 966 768 966 857 
L 966 2100 
z
" transform="scale(0.015625)"/>
      </defs>
      <use xlink:href="#CMSS17-53" transform="scale(0.996264)"/>
      <use xlink:href="#CMSS17-74" transform="translate(52.048516 0) scale(0.996264)"/>
      <use xlink:href="#CMSS17-65" transform="translate(85.880083 0) scale(0.996264)"/>
      <use xlink:href="#CMSS17-70" transform="translate(127.518905 0) scale(0.996264)"/>
     </g>
    </g>
   </g>
   <g id="matplotlib.axis_2">
    <g id="ytick_1">
     <g id="line2d_7">
      <path d="M 83.392615 488.801406 
L 694.08 488.801406 
" clip-path="url(#p92c4bf6b50)" style="fill: none; stroke: #cccccc; stroke-linecap: round"/>
     </g>
     <g id="text_8">
      <!-- $\mathdefault{0}$ -->
      <g style="fill: #262626" transform="translate(63.84071 496.411753) scale(0.22 -0.22)">
       <use xlink:href="#CMR17-30" transform="scale(0.996264)"/>
      </g>
     </g>
    </g>
    <g id="ytick_2">
     <g id="line2d_8">
      <path d="M 83.392615 396.901272 
L 694.08 396.901272 
" clip-path="url(#p92c4bf6b50)" style="fill: none; stroke: #cccccc; stroke-linecap: round"/>
     </g>
     <g id="text_9">
      <!-- $\mathdefault{5}$ -->
      <g style="fill: #262626" transform="translate(63.84071 404.511619) scale(0.22 -0.22)">
       <defs>
        <path id="CMR17-35" d="M 730 3692 
C 794 3666 1056 3584 1325 3584 
C 1920 3584 2246 3911 2432 4100 
C 2432 4157 2432 4192 2394 4192 
C 2387 4192 2374 4192 2323 4163 
C 2099 4058 1837 3973 1517 3973 
C 1325 3973 1037 3999 723 4139 
C 653 4171 640 4171 634 4171 
C 602 4171 595 4164 595 4037 
L 595 2203 
C 595 2089 595 2057 659 2057 
C 691 2057 704 2070 736 2114 
C 941 2401 1222 2522 1542 2522 
C 1766 2522 2246 2382 2246 1289 
C 2246 1085 2246 715 2054 421 
C 1894 159 1645 25 1370 25 
C 947 25 518 320 403 814 
C 429 807 480 795 506 795 
C 589 795 749 840 749 1038 
C 749 1210 627 1280 506 1280 
C 358 1280 262 1190 262 1011 
C 262 454 704 -128 1382 -128 
C 2042 -128 2669 440 2669 1264 
C 2669 2030 2170 2624 1549 2624 
C 1222 2624 947 2503 730 2274 
L 730 3692 
z
" transform="scale(0.015625)"/>
       </defs>
       <use xlink:href="#CMR17-35" transform="scale(0.996264)"/>
      </g>
     </g>
    </g>
    <g id="ytick_3">
     <g id="line2d_9">
      <path d="M 83.392615 305.001138 
L 694.08 305.001138 
" clip-path="url(#p92c4bf6b50)" style="fill: none; stroke: #cccccc; stroke-linecap: round"/>
     </g>
     <g id="text_10">
      <!-- $\mathdefault{10}$ -->
      <g style="fill: #262626" transform="translate(53.788805 312.611485) scale(0.22 -0.22)">
       <use xlink:href="#CMR17-31" transform="scale(0.996264)"/>
       <use xlink:href="#CMR17-30" transform="translate(45.690477 0) scale(0.996264)"/>
      </g>
     </g>
    </g>
    <g id="ytick_4">
     <g id="line2d_10">
      <path d="M 83.392615 213.101004 
L 694.08 213.101004 
" clip-path="url(#p92c4bf6b50)" style="fill: none; stroke: #cccccc; stroke-linecap: round"/>
     </g>
     <g id="text_11">
      <!-- $\mathdefault{15}$ -->
      <g style="fill: #262626" transform="translate(53.788805 220.711351) scale(0.22 -0.22)">
       <use xlink:href="#CMR17-31" transform="scale(0.996264)"/>
       <use xlink:href="#CMR17-35" transform="translate(45.690477 0) scale(0.996264)"/>
      </g>
     </g>
    </g>
    <g id="ytick_5">
     <g id="line2d_11">
      <path d="M 83.392615 121.20087 
L 694.08 121.20087 
" clip-path="url(#p92c4bf6b50)" style="fill: none; stroke: #cccccc; stroke-linecap: round"/>
     </g>
     <g id="text_12">
      <!-- $\mathdefault{20}$ -->
      <g style="fill: #262626" transform="translate(53.788805 128.811217) scale(0.22 -0.22)">
       <use xlink:href="#CMR17-32" transform="scale(0.996264)"/>
       <use xlink:href="#CMR17-30" transform="translate(45.690477 0) scale(0.996264)"/>
      </g>
     </g>
    </g>
    <g id="text_13">
     <!-- Percentage Explored (\%) -->
     <g style="fill: #262626" transform="translate(43.831226 390.204645) rotate(-90) scale(0.24 -0.24)">
      <defs>
       <path id="CMSS17-50" d="M 2106 1856 
C 2874 1856 3501 2453 3501 3158 
C 3501 3850 2899 4453 2067 4453 
L 570 4453 
L 570 0 
L 1107 0 
L 1107 1856 
L 2106 1856 
z
M 1926 4096 
C 2669 4096 2995 3627 2995 3157 
C 2995 2720 2694 2226 1926 2226 
L 1094 2226 
L 1094 4096 
L 1926 4096 
z
" transform="scale(0.015625)"/>
       <path id="CMSS17-72" d="M 954 1363 
C 954 1965 1395 2368 1958 2368 
L 1958 2789 
C 1549 2789 1165 2585 934 2253 
L 934 2758 
L 480 2758 
L 480 0 
L 954 0 
L 954 1363 
z
" transform="scale(0.015625)"/>
       <path id="CMSS17-63" d="M 2464 2541 
C 2464 2585 2170 2714 2093 2739 
C 1882 2816 1613 2816 1542 2816 
C 710 2816 211 2093 211 1363 
C 211 595 768 -64 1517 -64 
C 1946 -64 2253 76 2502 242 
L 2464 664 
C 2189 453 1869 337 1523 337 
C 1024 337 698 774 698 1369 
C 698 1831 909 2414 1549 2414 
C 1901 2414 2099 2343 2394 2145 
L 2464 2541 
z
" transform="scale(0.015625)"/>
       <path id="CMSS17-6e" d="M 2618 1877 
C 2618 2283 2522 2816 1798 2816 
C 1389 2816 1120 2606 941 2389 
L 941 2758 
L 474 2758 
L 474 0 
L 960 0 
L 960 1559 
C 960 1964 1114 2428 1549 2428 
C 2112 2428 2131 2048 2131 1829 
L 2131 0 
L 2618 0 
L 2618 1877 
z
" transform="scale(0.015625)"/>
       <path id="CMSS17-61" d="M 2406 1791 
C 2406 2392 1978 2808 1402 2808 
C 1120 2808 813 2757 461 2553 
L 499 2135 
C 659 2248 934 2432 1395 2432 
C 1722 2432 1920 2180 1920 1782 
L 1920 1536 
C 896 1536 256 1238 256 726 
C 256 461 416 -64 947 -64 
C 1043 -64 1562 -64 1933 217 
L 1933 -19 
L 2406 -19 
L 2406 1791 
z
M 1920 816 
C 1920 701 1920 548 1728 434 
C 1562 325 1350 325 1261 325 
C 941 325 723 511 723 744 
C 723 1211 1722 1211 1920 1211 
L 1920 816 
z
" transform="scale(0.015625)"/>
       <path id="CMSS17-67" d="M 2848 2808 
C 2483 2808 2170 2738 1914 2617 
C 1702 2777 1485 2808 1338 2808 
C 781 2808 358 2349 358 1814 
C 358 1468 550 1207 563 1195 
C 448 1035 384 863 384 672 
C 384 448 474 289 544 200 
C 211 -3 166 -314 166 -435 
C 166 -898 749 -1280 1498 -1280 
C 2253 -1280 2835 -898 2835 -428 
C 2835 448 1856 448 1587 448 
L 1069 448 
C 973 448 717 448 717 791 
C 717 921 774 1004 781 1010 
C 877 940 1075 832 1338 832 
C 1869 832 2310 1278 2310 1827 
C 2310 2132 2170 2355 2112 2432 
L 2131 2432 
C 2150 2432 2419 2432 2515 2432 
C 2720 2432 2739 2429 2918 2419 
L 2848 2808 
z
M 1338 1182 
C 1120 1182 813 1315 813 1823 
C 813 2375 1165 2464 1331 2464 
C 1549 2464 1856 2331 1856 1823 
C 1856 1271 1504 1182 1338 1182 
z
M 1581 -10 
C 1734 -10 2381 -10 2381 -442 
C 2381 -714 1984 -929 1504 -929 
C 1018 -929 621 -720 621 -435 
C 621 -403 621 -10 1062 -10 
L 1581 -10 
z
" transform="scale(0.015625)"/>
       <path id="CMSS17-45" d="M 1958 433 
C 1446 433 1216 433 1101 433 
L 1101 2107 
L 3085 2107 
L 3085 2496 
L 1101 2496 
L 1101 4009 
L 1926 4009 
C 2003 4009 2080 4009 2157 4009 
L 3251 4009 
L 3251 4416 
L 563 4416 
L 563 0 
L 3334 0 
L 3334 433 
L 1958 433 
z
" transform="scale(0.015625)"/>
       <path id="CMSS17-78" d="M 1587 1414 
L 2656 2739 
L 2099 2739 
L 1363 1777 
L 602 2739 
L 32 2739 
L 1139 1414 
L 0 0 
L 563 0 
L 1363 1121 
L 2195 0 
L 2758 0 
L 1587 1414 
z
" transform="scale(0.015625)"/>
       <path id="CMSS17-6c" d="M 947 4416 
L 474 4416 
L 474 0 
L 947 0 
L 947 4416 
z
" transform="scale(0.015625)"/>
       <path id="CMSS17-6f" d="M 2829 1356 
C 2829 2176 2221 2816 1504 2816 
C 768 2816 173 2157 173 1356 
C 173 544 787 -64 1498 -64 
C 2227 -64 2829 563 2829 1356 
z
M 1504 337 
C 1050 337 659 709 659 1408 
C 659 2151 1114 2427 1498 2427 
C 1914 2427 2342 2126 2342 1408 
C 2342 683 1926 337 1504 337 
z
" transform="scale(0.015625)"/>
       <path id="CMSS17-64" d="M 2611 4416 
L 2138 4416 
L 2138 2438 
C 1939 2603 1613 2756 1254 2756 
C 672 2756 211 2131 211 1347 
C 211 562 666 -64 1235 -64 
C 1677 -64 1971 172 2125 306 
L 2125 -13 
L 2611 -13 
L 2611 4416 
z
M 2125 836 
C 2125 747 2125 653 1926 482 
C 1798 375 1645 325 1498 325 
C 1152 325 698 576 698 1340 
C 698 2134 1210 2368 1562 2368 
C 1798 2368 1990 2254 2125 2065 
L 2125 836 
z
" transform="scale(0.015625)"/>
       <path id="CMSS17-28" d="M 1613 4768 
C 1267 4417 474 3601 474 1588 
C 474 -433 1267 -1243 1613 -1600 
L 2003 -1600 
C 1216 -784 960 357 960 1581 
C 960 2798 1203 3946 2003 4768 
L 1613 4768 
z
" transform="scale(0.015625)"/>
       <path id="CMSS17-25" d="M 3923 4583 
C 3962 4647 3962 4679 3962 4685 
C 3962 4755 3904 4800 3853 4800 
C 3782 4800 3750 4749 3718 4685 
L 1101 -104 
C 1088 -129 1062 -167 1062 -206 
C 1062 -276 1120 -320 1178 -320 
C 1235 -320 1248 -295 1299 -206 
L 3923 4583 
z
M 4678 959 
C 4678 1698 4282 2240 3846 2240 
C 3418 2240 3008 1711 3008 959 
C 3008 208 3418 -320 3846 -320 
C 4288 -320 4678 221 4678 959 
z
M 3846 68 
C 3712 68 3494 189 3494 959 
C 3494 1724 3712 1851 3846 1851 
C 4083 1851 4211 1386 4211 959 
C 4211 533 4083 68 3846 68 
z
M 2003 3519 
C 2003 4258 1606 4800 1171 4800 
C 742 4800 333 4271 333 3519 
C 333 2768 742 2240 1171 2240 
C 1613 2240 2003 2781 2003 3519 
z
M 1171 2628 
C 1037 2628 819 2749 819 3519 
C 819 4284 1037 4411 1171 4411 
C 1408 4411 1536 3946 1536 3519 
C 1536 3093 1408 2628 1171 2628 
z
" transform="scale(0.015625)"/>
       <path id="CMSS17-29" d="M 723 -1600 
C 1069 -1249 1862 -433 1862 1581 
C 1862 3601 1069 4411 723 4768 
L 333 4768 
C 1120 3952 1376 2811 1376 1588 
C 1376 370 1133 -778 333 -1600 
L 723 -1600 
z
" transform="scale(0.015625)"/>
      </defs>
      <use xlink:href="#CMSS17-50" transform="scale(0.996264)"/>
      <use xlink:href="#CMSS17-65" transform="translate(57.133132 0) scale(0.996264)"/>
      <use xlink:href="#CMSS17-72" transform="translate(98.771954 0) scale(0.996264)"/>
      <use xlink:href="#CMSS17-63" transform="translate(130.681727 0) scale(0.996264)"/>
      <use xlink:href="#CMSS17-65" transform="translate(172.320549 0) scale(0.996264)"/>
      <use xlink:href="#CMSS17-6e" transform="translate(213.959371 0) scale(0.996264)"/>
      <use xlink:href="#CMSS17-74" transform="translate(262.164314 0) scale(0.996264)"/>
      <use xlink:href="#CMSS17-61" transform="translate(295.995881 0) scale(0.996264)"/>
      <use xlink:href="#CMSS17-67" transform="translate(340.917802 0) scale(0.996264)"/>
      <use xlink:href="#CMSS17-65" transform="translate(387.761425 0) scale(0.996264)"/>
      <use xlink:href="#CMSS17-45" transform="translate(460.62936 0) scale(0.996264)"/>
      <use xlink:href="#CMSS17-78" transform="translate(516.521373 0) scale(0.996264)"/>
      <use xlink:href="#CMSS17-70" transform="translate(559.521515 0) scale(0.996264)"/>
      <use xlink:href="#CMSS17-6c" transform="translate(607.726458 0) scale(0.996264)"/>
      <use xlink:href="#CMSS17-6f" transform="translate(629.907181 0) scale(0.996264)"/>
      <use xlink:href="#CMSS17-72" transform="translate(674.148351 0) scale(0.996264)"/>
      <use xlink:href="#CMSS17-65" transform="translate(706.058123 0) scale(0.996264)"/>
      <use xlink:href="#CMSS17-64" transform="translate(747.696945 0) scale(0.996264)"/>
      <use xlink:href="#CMSS17-28" transform="translate(827.131001 0) scale(0.996264)"/>
      <use xlink:href="#CMSS17-25" transform="translate(863.564915 0) scale(0.996264)"/>
      <use xlink:href="#CMSS17-29" transform="translate(941.637652 0) scale(0.996264)"/>
     </g>
    </g>
   </g>
   <g id="PolyCollection_1">
    <defs>
     <path id="m42b72f3316" d="M 111.151132 -102.086416 
L 111.151132 -102.086416 
L 116.758914 -128.921255 
L 122.366695 -157.226496 
L 127.974476 -164.394706 
L 133.582258 -168.254512 
L 139.190039 -178.731127 
L 144.79782 -195.640752 
L 150.405602 -193.618949 
L 156.013383 -191.045745 
L 161.621164 -191.413346 
L 167.228946 -193.802749 
L 172.836727 -214.57218 
L 178.444508 -229.643802 
L 184.052289 -249.678031 
L 189.660071 -241.958419 
L 195.267852 -246.553426 
L 200.875633 -246.553426 
L 206.483415 -243.980222 
L 212.091196 -239.017615 
L 217.698977 -234.238808 
L 223.306759 -233.319807 
L 228.91454 -230.195202 
L 234.522321 -220.086188 
L 240.130103 -211.447575 
L 245.737884 -204.279365 
L 251.345665 -205.382166 
L 256.953447 -206.668768 
L 262.561228 -211.079975 
L 268.169009 -211.447575 
L 273.776791 -210.528574 
L 279.384572 -216.042582 
L 284.992353 -223.762193 
L 290.600134 -206.301168 
L 296.207916 -204.095564 
L 301.815697 -198.581556 
L 307.423478 -194.721751 
L 313.03126 -194.53795 
L 318.639041 -185.347937 
L 324.246822 -187.18594 
L 329.854604 -189.023942 
L 335.462385 -188.104941 
L 341.070166 -186.634539 
L 346.677948 -186.083138 
L 352.285729 -180.56913 
L 357.89351 -182.774733 
L 363.501292 -189.023942 
L 369.109073 -188.288741 
L 374.716854 -186.266938 
L 380.324635 -184.061335 
L 385.932417 -182.774733 
L 391.540198 -179.098728 
L 397.147979 -173.58472 
L 402.755761 -170.827716 
L 408.363542 -189.391543 
L 413.971323 -217.145383 
L 419.579105 -230.011402 
L 425.186886 -238.650015 
L 430.794667 -238.650015 
L 436.402449 -237.731013 
L 442.01023 -241.223218 
L 447.618011 -246.185826 
L 453.225793 -246.369626 
L 458.833574 -246.369626 
L 464.441355 -246.369626 
L 470.049137 -246.369626 
L 475.656918 -246.369626 
L 481.264699 -256.662441 
L 486.87248 -260.154646 
L 492.480262 -275.226268 
L 498.088043 -277.431871 
L 503.695824 -289.011288 
L 509.303606 -292.687293 
L 514.911387 -297.2823 
L 520.519168 -297.2823 
L 526.12695 -296.9147 
L 531.734731 -292.687293 
L 537.342512 -286.621885 
L 542.950294 -279.453674 
L 548.558075 -279.453674 
L 554.165856 -276.51287 
L 559.773638 -260.522247 
L 565.381419 -259.603245 
L 570.9892 -259.970846 
L 576.596981 -257.949043 
L 582.204763 -252.986436 
L 587.812544 -240.304217 
L 593.420325 -237.179613 
L 599.028107 -242.32602 
L 604.635888 -241.774619 
L 610.243669 -232.768406 
L 615.851451 -229.460001 
L 621.459232 -240.304217 
L 627.067013 -261.808848 
L 632.674795 -263.830651 
L 638.282576 -261.441248 
L 643.890357 -269.71226 
L 649.498139 -267.322856 
L 655.10592 -261.441248 
L 660.713701 -257.397642 
L 666.321482 -257.765243 
L 666.321482 -367.126402 
L 666.321482 -367.126402 
L 660.713701 -374.478413 
L 655.10592 -371.721409 
L 649.498139 -395.983044 
L 643.890357 -385.138828 
L 638.282576 -393.40984 
L 632.674795 -380.360021 
L 627.067013 -378.889619 
L 621.459232 -381.830423 
L 615.851451 -379.992421 
L 610.243669 -389.550035 
L 604.635888 -397.821047 
L 599.028107 -385.138828 
L 593.420325 -393.59364 
L 587.812544 -412.892669 
L 582.204763 -402.783654 
L 576.596981 -421.163681 
L 570.9892 -444.322514 
L 565.381419 -449.468922 
L 559.773638 -466.746147 
L 554.165856 -452.225926 
L 548.558075 -433.845899 
L 542.950294 -435.683902 
L 537.342512 -433.845899 
L 531.734731 -408.665262 
L 526.12695 -404.437856 
L 520.519168 -421.531281 
L 514.911387 -420.61228 
L 509.303606 -421.715081 
L 503.695824 -426.677689 
L 498.088043 -437.889505 
L 492.480262 -429.986093 
L 486.87248 -423.736884 
L 481.264699 -424.655886 
L 475.656918 -411.238466 
L 470.049137 -400.578051 
L 464.441355 -393.961241 
L 458.833574 -382.014224 
L 453.225793 -394.696442 
L 447.618011 -401.680852 
L 442.01023 -387.528232 
L 436.402449 -379.80862 
L 430.794667 -385.138828 
L 425.186886 -398.004847 
L 419.579105 -394.512642 
L 413.971323 -395.799244 
L 408.363542 -372.45661 
L 402.755761 -367.677803 
L 397.147979 -376.867816 
L 391.540198 -356.649787 
L 385.932417 -338.08596 
L 380.324635 -353.341382 
L 374.716854 -351.87098 
L 369.109073 -357.752588 
L 363.501292 -356.098386 
L 357.89351 -370.802407 
L 352.285729 -363.082796 
L 346.677948 -349.665376 
L 341.070166 -360.693392 
L 335.462385 -369.515805 
L 329.854604 -384.403627 
L 324.246822 -383.300825 
L 318.639041 -358.120189 
L 313.03126 -358.303989 
L 307.423478 -356.282186 
L 301.815697 -361.244793 
L 296.207916 -376.132615 
L 290.600134 -388.998634 
L 284.992353 -405.173057 
L 279.384572 -411.973667 
L 273.776791 -400.945651 
L 268.169009 -376.500215 
L 262.561228 -368.413004 
L 256.953447 -376.867816 
L 251.345665 -389.550035 
L 245.737884 -418.222876 
L 240.130103 -421.715081 
L 234.522321 -403.702655 
L 228.91454 -392.307039 
L 223.306759 -393.59364 
L 217.698977 -397.085845 
L 212.091196 -392.674639 
L 206.483415 -391.204237 
L 200.875633 -405.724458 
L 195.267852 -383.484626 
L 189.660071 -376.500215 
L 184.052289 -358.487789 
L 178.444508 -362.715195 
L 172.836727 -335.880356 
L 167.228946 -313.824324 
L 161.621164 -306.104713 
L 156.013383 -297.4661 
L 150.405602 -295.260497 
L 144.79782 -283.31348 
L 139.190039 -278.902273 
L 133.582258 -253.170236 
L 127.974476 -240.671818 
L 122.366695 -228.173399 
L 116.758914 -168.989713 
L 111.151132 -102.086416 
z
" style="stroke: #ffffff; stroke-opacity: 0.2"/>
    </defs>
    <g clip-path="url(#p92c4bf6b50)">
     <use xlink:href="#m42b72f3316" x="0" y="576" style="fill: #4c72b0; fill-opacity: 0.2; stroke: #ffffff; stroke-opacity: 0.2"/>
    </g>
   </g>
   <g id="PolyCollection_2">
    <defs>
     <path id="m329cce0d9d" d="M 111.151132 -102.086416 
L 111.151132 -102.086416 
L 116.758914 -121.936845 
L 122.366695 -138.662669 
L 127.974476 -152.080089 
L 133.582258 -162.924304 
L 139.190039 -174.319921 
L 144.79782 -184.612736 
L 150.405602 -197.111154 
L 156.013383 -204.279365 
L 161.621164 -212.734177 
L 167.228946 -246.002025 
L 172.836727 -250.964633 
L 178.444508 -258.868044 
L 184.052289 -258.500444 
L 189.660071 -262.544049 
L 195.267852 -271.366462 
L 200.875633 -275.410068 
L 206.483415 -277.064271 
L 212.091196 -284.048681 
L 217.698977 -298.568902 
L 223.306759 -299.855504 
L 228.91454 -277.615671 
L 234.522321 -278.350873 
L 240.130103 -258.868044 
L 245.737884 -253.721637 
L 251.345665 -249.12663 
L 256.953447 -265.301053 
L 262.561228 -262.91165 
L 268.169009 -266.036255 
L 273.776791 -265.484854 
L 279.384572 -255.74344 
L 284.992353 -241.958419 
L 290.600134 -240.488017 
L 296.207916 -237.914814 
L 301.815697 -238.098614 
L 307.423478 -245.083024 
L 313.03126 -257.581442 
L 318.639041 -254.089237 
L 324.246822 -250.780832 
L 329.854604 -250.964633 
L 335.462385 -244.715424 
L 341.070166 -222.475591 
L 346.677948 -222.475591 
L 352.285729 -222.475591 
L 357.89351 -225.416395 
L 363.501292 -219.534787 
L 369.109073 -215.307381 
L 374.716854 -218.615785 
L 380.324635 -212.734177 
L 385.932417 -220.821389 
L 391.540198 -228.541 
L 397.147979 -240.488017 
L 402.755761 -240.855618 
L 408.363542 -240.304217 
L 413.971323 -237.547213 
L 419.579105 -236.995812 
L 425.186886 -239.385216 
L 430.794667 -242.32602 
L 436.402449 -245.818225 
L 442.01023 -248.759029 
L 447.618011 -250.045631 
L 453.225793 -259.419445 
L 458.833574 -273.020665 
L 464.441355 -276.88047 
L 470.049137 -285.702883 
L 475.656918 -287.357086 
L 481.264699 -283.68108 
L 486.87248 -273.020665 
L 492.480262 -267.690457 
L 498.088043 -277.983272 
L 503.695824 -288.459887 
L 509.303606 -296.547099 
L 514.911387 -299.304103 
L 520.519168 -293.973895 
L 526.12695 -293.238694 
L 531.734731 -293.054894 
L 537.342512 -289.746489 
L 542.950294 -292.319693 
L 548.558075 -292.687293 
L 554.165856 -293.422494 
L 559.773638 -283.864881 
L 565.381419 -289.195088 
L 570.9892 -282.578279 
L 576.596981 -265.484854 
L 582.204763 -259.235645 
L 587.812544 -240.304217 
L 593.420325 -238.282414 
L 599.028107 -241.223218 
L 604.635888 -252.986436 
L 610.243669 -248.391429 
L 615.851451 -240.671818 
L 621.459232 -243.612622 
L 627.067013 -244.531623 
L 632.674795 -253.170236 
L 638.282576 -262.91165 
L 643.890357 -247.840028 
L 649.498139 -231.298004 
L 655.10592 -225.967796 
L 660.713701 -218.064385 
L 666.321482 -222.291791 
L 666.321482 -500.013995 
L 666.321482 -500.013995 
L 660.713701 -456.453332 
L 655.10592 -436.786703 
L 649.498139 -437.705705 
L 643.890357 -427.41289 
L 638.282576 -431.640296 
L 632.674795 -443.771114 
L 627.067013 -460.864538 
L 621.459232 -436.051502 
L 615.851451 -430.537494 
L 610.243669 -445.425316 
L 604.635888 -431.272695 
L 599.028107 -409.216663 
L 593.420325 -390.652836 
L 587.812544 -371.170008 
L 582.204763 -373.375611 
L 576.596981 -357.201187 
L 570.9892 -366.207401 
L 565.381419 -366.758801 
L 559.773638 -380.911422 
L 554.165856 -389.366234 
L 548.558075 -409.400463 
L 542.950294 -404.621656 
L 537.342512 -372.45661 
L 531.734731 -357.752588 
L 526.12695 -363.634197 
L 520.519168 -373.00801 
L 514.911387 -363.817997 
L 509.303606 -352.23858 
L 503.695824 -357.017387 
L 498.088043 -386.60923 
L 492.480262 -390.285236 
L 486.87248 -391.939438 
L 481.264699 -401.680852 
L 475.656918 -409.400463 
L 470.049137 -416.752474 
L 464.441355 -426.677689 
L 458.833574 -448.18232 
L 453.225793 -438.624706 
L 447.618011 -436.602903 
L 442.01023 -454.063928 
L 436.402449 -436.970504 
L 430.794667 -411.789867 
L 425.186886 -379.62482 
L 419.579105 -361.428594 
L 413.971323 -368.596804 
L 408.363542 -375.948815 
L 402.755761 -373.559411 
L 397.147979 -373.191811 
L 391.540198 -367.310202 
L 385.932417 -367.126402 
L 380.324635 -398.004847 
L 374.716854 -435.500101 
L 369.109073 -424.655886 
L 363.501292 -411.973667 
L 357.89351 -397.269646 
L 352.285729 -406.82726 
L 346.677948 -418.590477 
L 341.070166 -415.465872 
L 335.462385 -412.157467 
L 329.854604 -412.157467 
L 324.246822 -416.752474 
L 318.639041 -412.525068 
L 313.03126 -401.864652 
L 307.423478 -393.777441 
L 301.815697 -387.344431 
L 296.207916 -377.786817 
L 290.600134 -352.05478 
L 284.992353 -363.082796 
L 279.384572 -377.235417 
L 273.776791 -410.135665 
L 268.169009 -419.325678 
L 262.561228 -444.690115 
L 256.953447 -462.518741 
L 251.345665 -471.524954 
L 245.737884 -466.378546 
L 240.130103 -464.172943 
L 234.522321 -440.646509 
L 228.91454 -415.098272 
L 223.306759 -403.702655 
L 217.698977 -403.151254 
L 212.091196 -394.880242 
L 206.483415 -382.749425 
L 200.875633 -366.942602 
L 195.267852 -335.328956 
L 189.660071 -331.101549 
L 184.052289 -331.101549 
L 178.444508 -332.571952 
L 172.836727 -314.008124 
L 167.228946 -301.877307 
L 161.621164 -286.070484 
L 156.013383 -285.151482 
L 150.405602 -281.291677 
L 144.79782 -256.478641 
L 139.190039 -247.288627 
L 133.582258 -206.301168 
L 127.974476 -196.927354 
L 122.366695 -192.148547 
L 116.758914 -152.81529 
L 111.151132 -102.086416 
z
" style="stroke: #ffffff; stroke-opacity: 0.2"/>
    </defs>
    <g clip-path="url(#p92c4bf6b50)">
     <use xlink:href="#m329cce0d9d" x="0" y="576" style="fill: #dd8452; fill-opacity: 0.2; stroke: #ffffff; stroke-opacity: 0.2"/>
    </g>
   </g>
   <g id="PolyCollection_3">
    <defs>
     <path id="m8652587ad9" d="M 111.151132 -102.086416 
L 111.151132 -100.432213 
L 116.758914 -124.326248 
L 122.366695 -142.890075 
L 127.974476 -153.550491 
L 133.582258 -164.946107 
L 139.190039 -164.946107 
L 144.79782 -173.95232 
L 150.405602 -178.914928 
L 156.013383 -186.266938 
L 161.621164 -191.413346 
L 167.228946 -212.734177 
L 172.836727 -235.893011 
L 178.444508 -241.039418 
L 184.052289 -256.29484 
L 189.660071 -257.213842 
L 195.267852 -257.765243 
L 200.875633 -249.678031 
L 206.483415 -250.413232 
L 212.091196 -248.391429 
L 217.698977 -248.391429 
L 223.306759 -247.656228 
L 228.91454 -236.076811 
L 234.522321 -220.086188 
L 240.130103 -216.042582 
L 245.737884 -215.858781 
L 251.345665 -209.241972 
L 256.953447 -203.544164 
L 262.561228 -193.802749 
L 268.169009 -187.002139 
L 273.776791 -185.531737 
L 279.384572 -194.17035 
L 284.992353 -191.597146 
L 290.600134 -202.441362 
L 296.207916 -202.441362 
L 301.815697 -202.073761 
L 307.423478 -202.073761 
L 313.03126 -207.403969 
L 318.639041 -207.403969 
L 324.246822 -236.995812 
L 329.854604 -257.397642 
L 335.462385 -281.291677 
L 341.070166 -283.68108 
L 346.677948 -286.621885 
L 352.285729 -288.643688 
L 357.89351 -291.768292 
L 363.501292 -300.406905 
L 369.109073 -304.634311 
L 374.716854 -286.438084 
L 380.324635 -283.68108 
L 385.932417 -283.68108 
L 391.540198 -300.590705 
L 397.147979 -304.818111 
L 402.755761 -299.855504 
L 408.363542 -299.855504 
L 413.971323 -292.135893 
L 419.579105 -287.540886 
L 425.186886 -264.933453 
L 430.794667 -260.522247 
L 436.402449 -260.522247 
L 442.01023 -252.986436 
L 447.618011 -248.391429 
L 453.225793 -249.678031 
L 458.833574 -248.391429 
L 464.441355 -253.721637 
L 470.049137 -261.808848 
L 475.656918 -256.478641 
L 481.264699 -253.170236 
L 486.87248 -236.260611 
L 492.480262 -225.967796 
L 498.088043 -240.488017 
L 503.695824 -260.706047 
L 509.303606 -275.961469 
L 514.911387 -296.730899 
L 520.519168 -311.986322 
L 526.12695 -314.008124 
L 531.734731 -306.839914 
L 537.342512 -306.839914 
L 542.950294 -259.603245 
L 548.558075 -257.030041 
L 554.165856 -252.618835 
L 559.773638 -270.631261 
L 565.381419 -290.48169 
L 570.9892 -293.238694 
L 576.596981 -310.515919 
L 582.204763 -330.917749 
L 587.812544 -337.350758 
L 593.420325 -341.026764 
L 599.028107 -340.107762 
L 604.635888 -345.805571 
L 610.243669 -357.752588 
L 615.851451 -359.958191 
L 621.459232 -339.923962 
L 627.067013 -327.425544 
L 632.674795 -356.465986 
L 638.282576 -354.444183 
L 643.890357 -340.475363 
L 649.498139 -320.257334 
L 655.10592 -304.634311 
L 660.713701 -293.790095 
L 666.321482 -282.945879 
L 666.321482 -384.036026 
L 666.321482 -384.036026 
L 660.713701 -390.652836 
L 655.10592 -394.145041 
L 649.498139 -398.740048 
L 643.890357 -411.606067 
L 638.282576 -441.19791 
L 632.674795 -468.58415 
L 627.067013 -473.546757 
L 621.459232 -473.914357 
L 615.851451 -453.328727 
L 610.243669 -450.755524 
L 604.635888 -445.792916 
L 599.028107 -465.827146 
L 593.420325 -490.640182 
L 587.812544 -500.565396 
L 582.204763 -505.895604 
L 576.596981 -480.163567 
L 570.9892 -468.216549 
L 565.381419 -462.15114 
L 559.773638 -425.942488 
L 554.165856 -420.428479 
L 548.558075 -421.163681 
L 542.950294 -437.338104 
L 537.342512 -433.478299 
L 531.734731 -414.17927 
L 526.12695 -423.553084 
L 520.519168 -420.060879 
L 514.911387 -410.687065 
L 509.303606 -399.84285 
L 503.695824 -387.528232 
L 498.088043 -383.852226 
L 492.480262 -405.356858 
L 486.87248 -419.325678 
L 481.264699 -437.154304 
L 475.656918 -435.316301 
L 470.049137 -437.521904 
L 464.441355 -440.830309 
L 458.833574 -428.515691 
L 453.225793 -414.17927 
L 447.618011 -382.749425 
L 442.01023 -359.22299 
L 436.402449 -355.914586 
L 430.794667 -368.596804 
L 425.186886 -395.431643 
L 419.579105 -413.81167 
L 413.971323 -423.369284 
L 408.363542 -438.992307 
L 402.755761 -460.129337 
L 397.147979 -452.409726 
L 391.540198 -467.113748 
L 385.932417 -466.378546 
L 380.324635 -466.929947 
L 374.716854 -470.238352 
L 369.109073 -470.789753 
L 363.501292 -448.733721 
L 357.89351 -428.148091 
L 352.285729 -425.942488 
L 346.677948 -423.185484 
L 341.070166 -395.983044 
L 335.462385 -401.680852 
L 329.854604 -436.051502 
L 324.246822 -449.652722 
L 318.639041 -469.503151 
L 313.03126 -470.973553 
L 307.423478 -470.789753 
L 301.815697 -461.415939 
L 296.207916 -433.478299 
L 290.600134 -435.867702 
L 284.992353 -428.148091 
L 279.384572 -422.266482 
L 273.776791 -420.79608 
L 268.169009 -443.403513 
L 262.561228 -426.861489 
L 256.953447 -416.752474 
L 251.345665 -425.023486 
L 245.737884 -416.936274 
L 240.130103 -422.817883 
L 234.522321 -423.553084 
L 228.91454 -443.219713 
L 223.306759 -446.528118 
L 217.698977 -445.976717 
L 212.091196 -448.917521 
L 206.483415 -451.306924 
L 200.875633 -443.587313 
L 195.267852 -423.736884 
L 189.660071 -399.107648 
L 184.052289 -379.44102 
L 178.444508 -373.743211 
L 172.836727 -348.378775 
L 167.228946 -319.154532 
L 161.621164 -281.475477 
L 156.013383 -267.506657 
L 150.405602 -265.117253 
L 144.79782 -249.12663 
L 139.190039 -235.34161 
L 133.582258 -202.073761 
L 127.974476 -191.045745 
L 122.366695 -162.924304 
L 116.758914 -137.376067 
L 111.151132 -102.086416 
z
" style="stroke: #ffffff; stroke-opacity: 0.2"/>
    </defs>
    <g clip-path="url(#p92c4bf6b50)">
     <use xlink:href="#m8652587ad9" x="0" y="576" style="fill: #55a868; fill-opacity: 0.2; stroke: #ffffff; stroke-opacity: 0.2"/>
    </g>
   </g>
   <g id="line2d_12">
    <path d="M 111.151132 473.913584 
L 116.758914 432.374724 
L 122.366695 415.097499 
L 127.974476 394.144268 
L 133.582258 374.293839 
L 139.190039 358.854617 
L 144.79782 354.994811 
L 150.405602 336.614784 
L 156.013383 345.437197 
L 161.621164 323.748766 
L 167.228946 329.262774 
L 172.836727 329.262774 
L 178.444508 325.770568 
L 184.052289 325.219168 
L 189.660071 300.589932 
L 195.267852 289.194315 
L 200.875633 288.091514 
L 206.483415 286.253511 
L 212.091196 272.652291 
L 217.698977 277.614898 
L 223.306759 281.474704 
L 228.91454 300.406132 
L 234.522321 302.244134 
L 240.130103 316.029154 
L 245.737884 311.066547 
L 251.345665 305.184938 
L 256.953447 299.67093 
L 262.561228 274.857894 
L 268.169009 273.019892 
L 273.776791 273.019892 
L 279.384572 265.667881 
L 284.992353 268.976286 
L 290.600134 277.614898 
L 296.207916 256.845468 
L 301.815697 255.558866 
L 307.423478 232.032432 
L 313.03126 246.736453 
L 318.639041 260.889074 
L 324.246822 275.041695 
L 329.854604 294.524523 
L 335.462385 293.054121 
L 341.070166 285.33451 
L 346.677948 284.783109 
L 352.285729 279.636701 
L 357.89351 273.203692 
L 363.501292 292.870321 
L 369.109073 305.552539 
L 374.716854 319.88896 
L 380.324635 301.141333 
L 385.932417 273.755093 
L 391.540198 257.94827 
L 397.147979 252.250461 
L 402.755761 273.755093 
L 408.363542 299.11953 
L 413.971323 305.001138 
L 419.579105 296.913926 
L 425.186886 298.200528 
L 430.794667 298.751929 
L 436.402449 296.178725 
L 442.01023 277.798699 
L 447.618011 273.019892 
L 453.225793 273.938893 
L 458.833574 259.786272 
L 464.441355 253.720863 
L 470.049137 239.935843 
L 475.656918 225.967023 
L 481.264699 246.001252 
L 486.87248 232.767633 
L 492.480262 223.94522 
L 498.088043 228.356427 
L 503.695824 222.658618 
L 509.303606 223.76142 
L 514.911387 232.767633 
L 520.519168 213.101004 
L 526.12695 241.773846 
L 531.734731 245.817452 
L 537.342512 233.319034 
L 542.950294 242.876648 
L 548.558075 243.060448 
L 554.165856 245.266051 
L 559.773638 249.861058 
L 565.381419 265.851681 
L 570.9892 232.583833 
L 576.596981 206.851795 
L 582.204763 231.664831 
L 587.812544 260.889074 
L 593.420325 251.699061 
L 599.028107 262.727077 
L 604.635888 271.365689 
L 610.243669 273.571292 
L 615.851451 263.278477 
L 621.459232 257.213069 
L 627.067013 256.845468 
L 632.674795 241.773846 
L 638.282576 243.428048 
L 643.890357 266.035481 
L 649.498139 298.935729 
L 655.10592 288.826715 
L 660.713701 294.892123 
L 666.321482 293.605522 
" clip-path="url(#p92c4bf6b50)" style="fill: none; stroke: #4c72b0; stroke-width: 1.5; stroke-linecap: round"/>
   </g>
   <g id="line2d_13">
    <path d="M 111.151132 473.913584 
L 116.758914 426.676915 
L 122.366695 410.686292 
L 127.974476 389.365461 
L 133.582258 379.624047 
L 139.190039 370.985434 
L 144.79782 362.163021 
L 150.405602 359.406017 
L 156.013383 358.670816 
L 161.621164 344.150595 
L 167.228946 320.25656 
L 172.836727 314.374952 
L 178.444508 295.443524 
L 184.052289 268.608685 
L 189.660071 264.565079 
L 195.267852 256.477868 
L 200.875633 256.477868 
L 206.483415 256.294067 
L 212.091196 256.110267 
L 217.698977 257.580669 
L 223.306759 257.580669 
L 228.91454 268.241085 
L 234.522321 271.91709 
L 240.130103 265.484081 
L 245.737884 265.484081 
L 251.345665 271.365689 
L 256.953447 269.895287 
L 262.561228 293.605522 
L 268.169009 293.237921 
L 273.776791 284.783109 
L 279.384572 274.857894 
L 284.992353 246.185053 
L 290.600134 227.621225 
L 296.207916 219.166413 
L 301.815697 224.864221 
L 307.423478 230.92963 
L 313.03126 240.303444 
L 318.639041 228.907827 
L 324.246822 247.287854 
L 329.854604 255.558866 
L 335.462385 269.343886 
L 341.070166 303.346936 
L 346.677948 300.957532 
L 352.285729 279.269101 
L 357.89351 289.194315 
L 363.501292 285.88591 
L 369.109073 290.297117 
L 374.716854 265.11648 
L 380.324635 257.580669 
L 385.932417 251.33146 
L 391.540198 235.340837 
L 397.147979 227.805026 
L 402.755761 233.319034 
L 408.363542 247.839255 
L 413.971323 250.780059 
L 419.579105 246.368853 
L 425.186886 254.823665 
L 430.794667 243.244248 
L 436.402449 249.493457 
L 442.01023 249.125857 
L 447.618011 262.910877 
L 453.225793 258.13207 
L 458.833574 251.882861 
L 464.441355 257.213069 
L 470.049137 259.234872 
L 475.656918 261.072874 
L 481.264699 278.166299 
L 486.87248 258.867271 
L 492.480262 277.614898 
L 498.088043 277.063498 
L 503.695824 264.197479 
L 509.303606 252.801862 
L 514.911387 246.185053 
L 520.519168 238.097841 
L 526.12695 239.016842 
L 531.734731 238.097841 
L 537.342512 253.537063 
L 542.950294 263.462278 
L 548.558075 275.041695 
L 554.165856 272.284691 
L 559.773638 276.144496 
L 565.381419 252.618062 
L 570.9892 264.197479 
L 576.596981 261.440475 
L 582.204763 258.683471 
L 587.812544 264.197479 
L 593.420325 274.122693 
L 599.028107 273.387492 
L 604.635888 275.041695 
L 610.243669 285.33451 
L 615.851451 286.988712 
L 621.459232 287.172512 
L 627.067013 293.054121 
L 632.674795 311.066547 
L 638.282576 300.406132 
L 643.890357 289.745716 
L 649.498139 290.480917 
L 655.10592 278.5339 
L 660.713701 264.197479 
L 666.321482 252.250461 
" clip-path="url(#p92c4bf6b50)" style="fill: none; stroke: #dd8452; stroke-width: 1.5; stroke-linecap: round"/>
   </g>
   <g id="line2d_14">
    <path d="M 111.151132 473.913584 
L 116.758914 446.159744 
L 122.366695 426.125515 
L 127.974476 400.761078 
L 133.582258 393.592867 
L 139.190039 369.331232 
L 144.79782 363.449623 
L 150.405602 347.2752 
L 156.013383 337.349985 
L 161.621164 309.596145 
L 167.228946 309.228544 
L 172.836727 301.692733 
L 178.444508 293.973122 
L 184.052289 293.973122 
L 189.660071 289.010515 
L 195.267852 264.93268 
L 200.875633 259.051071 
L 206.483415 261.072874 
L 212.091196 262.359476 
L 217.698977 259.234872 
L 223.306759 235.524637 
L 228.91454 228.724027 
L 234.522321 242.692847 
L 240.130103 250.412459 
L 245.737884 232.032432 
L 251.345665 191.963974 
L 256.953447 179.833156 
L 262.561228 194.904778 
L 268.169009 195.823779 
L 273.776791 200.051185 
L 279.384572 199.683585 
L 284.992353 194.353377 
L 290.600134 196.007579 
L 296.207916 196.007579 
L 301.815697 207.586996 
L 307.423478 205.381393 
L 313.03126 205.381393 
L 318.639041 205.381393 
L 324.246822 205.932794 
L 329.854604 191.963974 
L 335.462385 217.879811 
L 341.070166 239.016842 
L 346.677948 234.238035 
L 352.285729 234.238035 
L 357.89351 241.406246 
L 363.501292 250.228658 
L 369.109073 251.14766 
L 374.716854 249.125857 
L 380.324635 249.861058 
L 385.932417 254.639865 
L 391.540198 259.786272 
L 397.147979 265.851681 
L 402.755761 265.484081 
L 408.363542 266.770683 
L 413.971323 270.814288 
L 419.579105 282.026105 
L 425.186886 282.026105 
L 430.794667 277.614898 
L 436.402449 265.851681 
L 442.01023 265.667881 
L 447.618011 270.262888 
L 453.225793 273.203692 
L 458.833574 282.026105 
L 464.441355 290.297117 
L 470.049137 285.88591 
L 475.656918 287.172512 
L 481.264699 280.739503 
L 486.87248 271.365689 
L 492.480262 268.057284 
L 498.088043 258.867271 
L 503.695824 240.487244 
L 509.303606 213.468605 
L 514.911387 225.048022 
L 520.519168 223.026219 
L 526.12695 221.188216 
L 531.734731 211.814402 
L 537.342512 218.431212 
L 542.950294 209.608799 
L 548.558075 177.811353 
L 554.165856 172.481145 
L 559.773638 180.384557 
L 565.381419 185.530964 
L 570.9892 181.303558 
L 576.596981 184.244362 
L 582.204763 185.530964 
L 587.812544 190.861172 
L 593.420325 191.412573 
L 599.028107 180.200756 
L 604.635888 182.95776 
L 610.243669 161.82073 
L 615.851451 166.231936 
L 621.459232 193.066775 
L 627.067013 200.602586 
L 632.674795 199.499785 
L 638.282576 197.110381 
L 643.890357 203.35959 
L 649.498139 220.085414 
L 655.10592 213.836205 
L 660.713701 225.415622 
L 666.321482 233.870435 
" clip-path="url(#p92c4bf6b50)" style="fill: none; stroke: #55a868; stroke-width: 1.5; stroke-linecap: round"/>
   </g>
   <g id="patch_3">
    <path d="M 83.392615 495.840956 
L 83.392615 49.831226 
" style="fill: none; stroke: #cccccc; stroke-width: 1.25; stroke-linejoin: miter; stroke-linecap: square"/>
   </g>
   <g id="patch_4">
    <path d="M 694.08 495.840956 
L 694.08 49.831226 
" style="fill: none; stroke: #cccccc; stroke-width: 1.25; stroke-linejoin: miter; stroke-linecap: square"/>
   </g>
   <g id="patch_5">
    <path d="M 83.392615 495.840956 
L 694.08 495.840956 
" style="fill: none; stroke: #cccccc; stroke-width: 1.25; stroke-linejoin: miter; stroke-linecap: square"/>
   </g>
   <g id="patch_6">
    <path d="M 83.392615 49.831226 
L 694.08 49.831226 
" style="fill: none; stroke: #cccccc; stroke-width: 1.25; stroke-linejoin: miter; stroke-linecap: square"/>
   </g>
   <g id="text_14">
    <!-- Percentage Explored (\%) vs Step -->
    <g style="fill: #262626" transform="translate(233.316279 43.831226) scale(0.24 -0.24)">
     <defs>
      <path id="CMSS17-76" d="M 2675 2752 
L 2176 2752 
L 1747 1556 
C 1613 1165 1421 627 1389 352 
L 1382 352 
C 1370 468 1318 634 1286 749 
C 1248 890 1197 1056 1158 1172 
L 595 2752 
L 83 2752 
L 1094 0 
L 1664 0 
L 2675 2752 
z
" transform="scale(0.015625)"/>
      <path id="CMSS17-73" d="M 2061 2627 
C 1683 2807 1389 2807 1197 2807 
C 742 2807 198 2648 198 2003 
C 198 1359 902 1218 1094 1179 
C 1389 1122 1715 1058 1715 740 
C 1715 337 1254 337 1171 337 
C 915 337 563 407 243 638 
L 166 210 
C 531 0 883 -64 1178 -64 
C 1965 -64 2163 416 2163 781 
C 2163 1094 1984 1305 1862 1401 
C 1651 1568 1574 1587 1050 1696 
C 960 1709 646 1779 646 2066 
C 646 2432 1050 2432 1139 2432 
C 1555 2432 1811 2303 1984 2208 
L 2061 2627 
z
" transform="scale(0.015625)"/>
     </defs>
     <use xlink:href="#CMSS17-50" transform="scale(0.996264)"/>
     <use xlink:href="#CMSS17-65" transform="translate(57.133132 0) scale(0.996264)"/>
     <use xlink:href="#CMSS17-72" transform="translate(98.771954 0) scale(0.996264)"/>
     <use xlink:href="#CMSS17-63" transform="translate(130.681727 0) scale(0.996264)"/>
     <use xlink:href="#CMSS17-65" transform="translate(172.320549 0) scale(0.996264)"/>
     <use xlink:href="#CMSS17-6e" transform="translate(213.959371 0) scale(0.996264)"/>
     <use xlink:href="#CMSS17-74" transform="translate(262.164314 0) scale(0.996264)"/>
     <use xlink:href="#CMSS17-61" transform="translate(295.995881 0) scale(0.996264)"/>
     <use xlink:href="#CMSS17-67" transform="translate(340.917802 0) scale(0.996264)"/>
     <use xlink:href="#CMSS17-65" transform="translate(387.761425 0) scale(0.996264)"/>
     <use xlink:href="#CMSS17-45" transform="translate(460.62936 0) scale(0.996264)"/>
     <use xlink:href="#CMSS17-78" transform="translate(516.521373 0) scale(0.996264)"/>
     <use xlink:href="#CMSS17-70" transform="translate(559.521515 0) scale(0.996264)"/>
     <use xlink:href="#CMSS17-6c" transform="translate(607.726458 0) scale(0.996264)"/>
     <use xlink:href="#CMSS17-6f" transform="translate(629.907181 0) scale(0.996264)"/>
     <use xlink:href="#CMSS17-72" transform="translate(674.148351 0) scale(0.996264)"/>
     <use xlink:href="#CMSS17-65" transform="translate(706.058123 0) scale(0.996264)"/>
     <use xlink:href="#CMSS17-64" transform="translate(747.696945 0) scale(0.996264)"/>
     <use xlink:href="#CMSS17-28" transform="translate(827.131001 0) scale(0.996264)"/>
     <use xlink:href="#CMSS17-25" transform="translate(863.564915 0) scale(0.996264)"/>
     <use xlink:href="#CMSS17-29" transform="translate(941.637652 0) scale(0.996264)"/>
     <use xlink:href="#CMSS17-76" transform="translate(1009.300678 0) scale(0.996264)"/>
     <use xlink:href="#CMSS17-73" transform="translate(1052.30082 0) scale(0.996264)"/>
     <use xlink:href="#CMSS17-53" transform="translate(1119.443475 0) scale(0.996264)"/>
     <use xlink:href="#CMSS17-74" transform="translate(1171.491991 0) scale(0.996264)"/>
     <use xlink:href="#CMSS17-65" transform="translate(1205.323558 0) scale(0.996264)"/>
     <use xlink:href="#CMSS17-70" transform="translate(1246.96238 0) scale(0.996264)"/>
    </g>
   </g>
   <g id="legend_1">
    <g id="patch_7">
     <path d="M 474.597204 484.840956 
L 678.68 484.840956 
Q 683.08 484.840956 683.08 480.440956 
L 683.08 358.39623 
Q 683.08 353.99623 678.68 353.99623 
L 474.597204 353.99623 
Q 470.197204 353.99623 470.197204 358.39623 
L 470.197204 480.440956 
Q 470.197204 484.840956 474.597204 484.840956 
z
" style="fill: #ffffff; opacity: 0.8; stroke: #cccccc; stroke-linejoin: miter"/>
    </g>
    <g id="text_15">
     <!-- Confidence reception -->
     <g style="fill: #262626" transform="translate(478.997204 379.400635) scale(0.24 -0.24)">
      <defs>
       <path id="CMSS17-43" d="M 3501 714 
C 3072 427 2874 344 2355 344 
C 1459 344 934 1303 934 2179 
C 934 3112 1472 4032 2381 4032 
C 2790 4032 3059 3918 3386 3715 
L 3475 4217 
C 3168 4370 2778 4440 2387 4440 
C 1158 4440 397 3316 397 2179 
C 397 927 1299 -64 2323 -64 
C 2874 -64 3066 -19 3539 280 
L 3501 714 
z
" transform="scale(0.015625)"/>
       <path id="CMSS17-c" d="M 2752 4416 
L 2240 4416 
L 2240 3906 
L 2752 3906 
L 2752 4416 
z
M 2733 2737 
L 2259 2737 
L 2259 0 
L 2733 0 
L 2733 2737 
z
M 1075 2368 
L 1773 2368 
L 1773 2737 
L 1062 2737 
L 1062 3578 
C 1062 3919 1216 4092 1421 4092 
C 1542 4092 1664 4056 1773 3992 
L 1773 4410 
C 1722 4428 1574 4480 1421 4480 
C 941 4480 602 3993 602 3372 
L 602 2737 
L 160 2737 
L 160 2368 
L 602 2368 
L 602 0 
L 1075 0 
L 1075 2368 
z
" transform="scale(0.015625)"/>
       <path id="CMSS17-69" d="M 979 4183 
L 442 4183 
L 442 3648 
L 979 3648 
L 979 4183 
z
M 947 2739 
L 474 2739 
L 474 0 
L 947 0 
L 947 2739 
z
" transform="scale(0.015625)"/>
      </defs>
      <use xlink:href="#CMSS17-43" transform="scale(0.996264)"/>
      <use xlink:href="#CMSS17-6f" transform="translate(59.855772 0) scale(0.996264)"/>
      <use xlink:href="#CMSS17-6e" transform="translate(106.699395 0) scale(0.996264)"/>
      <use xlink:href="#CMSS17-c" transform="translate(154.904338 0) scale(0.996264)"/>
      <use xlink:href="#CMSS17-64" transform="translate(205.031075 0) scale(0.996264)"/>
      <use xlink:href="#CMSS17-65" transform="translate(253.236019 0) scale(0.996264)"/>
      <use xlink:href="#CMSS17-6e" transform="translate(294.874841 0) scale(0.996264)"/>
      <use xlink:href="#CMSS17-63" transform="translate(343.079784 0) scale(0.996264)"/>
      <use xlink:href="#CMSS17-65" transform="translate(384.718606 0) scale(0.996264)"/>
      <use xlink:href="#CMSS17-72" transform="translate(457.586541 0) scale(0.996264)"/>
      <use xlink:href="#CMSS17-65" transform="translate(489.496313 0) scale(0.996264)"/>
      <use xlink:href="#CMSS17-63" transform="translate(531.135135 0) scale(0.996264)"/>
      <use xlink:href="#CMSS17-65" transform="translate(572.773957 0) scale(0.996264)"/>
      <use xlink:href="#CMSS17-70" transform="translate(614.412779 0) scale(0.996264)"/>
      <use xlink:href="#CMSS17-74" transform="translate(662.617723 0) scale(0.996264)"/>
      <use xlink:href="#CMSS17-69" transform="translate(696.449289 0) scale(0.996264)"/>
      <use xlink:href="#CMSS17-6f" transform="translate(718.630012 0) scale(0.996264)"/>
      <use xlink:href="#CMSS17-6e" transform="translate(765.473636 0) scale(0.996264)"/>
     </g>
    </g>
    <g id="line2d_15">
     <path d="M 532.670347 402.751393 
L 554.670347 402.751393 
L 576.670347 402.751393 
" style="fill: none; stroke: #4c72b0; stroke-width: 1.5; stroke-linecap: round"/>
    </g>
    <g id="text_16">
     <!-- 0.4 -->
     <g style="fill: #262626" transform="translate(594.270347 410.451393) scale(0.22 -0.22)">
      <defs>
       <path id="CMSS17-30" d="M 2758 2044 
C 2758 2405 2752 3077 2490 3596 
C 2227 4096 1805 4229 1504 4229 
C 1069 4229 698 3975 506 3570 
C 301 3146 243 2709 243 2044 
C 243 1589 262 1031 493 543 
C 755 5 1197 -128 1498 -128 
C 1894 -128 2278 81 2496 518 
C 2720 974 2758 1474 2758 2044 
z
M 1498 261 
C 1011 261 864 811 819 995 
C 742 1310 730 1614 730 2114 
C 730 2506 730 2948 851 3297 
C 998 3701 1254 3840 1498 3840 
C 1971 3840 2125 3372 2176 3208 
C 2272 2873 2272 2481 2272 2114 
C 2272 1526 2272 261 1498 261 
z
" transform="scale(0.015625)"/>
       <path id="CMSS17-2e" d="M 1088 510 
L 576 510 
L 576 0 
L 1088 0 
L 1088 510 
z
" transform="scale(0.015625)"/>
       <path id="CMSS17-34" d="M 2253 1088 
L 2835 1088 
L 2835 1477 
L 2253 1477 
L 2253 4192 
L 1690 4192 
L 166 1477 
L 166 1088 
L 1747 1088 
L 1747 0 
L 2253 0 
L 2253 1088 
z
M 659 1477 
C 1030 2127 1766 3439 1766 3885 
L 1766 1477 
L 659 1477 
z
" transform="scale(0.015625)"/>
      </defs>
      <use xlink:href="#CMSS17-30" transform="scale(0.996264)"/>
      <use xlink:href="#CMSS17-2e" transform="translate(46.843624 0) scale(0.996264)"/>
      <use xlink:href="#CMSS17-34" transform="translate(72.867828 0) scale(0.996264)"/>
     </g>
    </g>
    <g id="line2d_16">
     <path d="M 532.670347 433.414581 
L 554.670347 433.414581 
L 576.670347 433.414581 
" style="fill: none; stroke: #dd8452; stroke-width: 1.5; stroke-linecap: round"/>
    </g>
    <g id="text_17">
     <!-- 0.6 -->
     <g style="fill: #262626" transform="translate(594.270347 441.114581) scale(0.22 -0.22)">
      <defs>
       <path id="CMSS17-36" d="M 2496 4101 
C 2227 4210 2035 4229 1856 4229 
C 1024 4229 250 3368 250 2006 
C 250 265 986 -128 1510 -128 
C 1798 -128 2086 -39 2362 280 
C 2643 617 2752 898 2752 1389 
C 2752 2179 2362 2880 1779 2880 
C 1357 2880 992 2657 768 2376 
C 832 3258 1254 3840 1862 3840 
C 2029 3840 2246 3816 2496 3710 
L 2496 4101 
z
M 774 1369 
C 774 1420 774 1452 781 1548 
C 781 2045 1069 2491 1536 2491 
C 1837 2491 1990 2332 2106 2135 
C 2240 1886 2246 1650 2246 1388 
C 2246 1140 2246 891 2099 637 
C 1978 439 1818 267 1510 267 
C 902 267 800 1114 774 1369 
z
" transform="scale(0.015625)"/>
      </defs>
      <use xlink:href="#CMSS17-30" transform="scale(0.996264)"/>
      <use xlink:href="#CMSS17-2e" transform="translate(46.843624 0) scale(0.996264)"/>
      <use xlink:href="#CMSS17-36" transform="translate(72.867828 0) scale(0.996264)"/>
     </g>
    </g>
    <g id="line2d_17">
     <path d="M 532.670347 464.077768 
L 554.670347 464.077768 
L 576.670347 464.077768 
" style="fill: none; stroke: #55a868; stroke-width: 1.5; stroke-linecap: round"/>
    </g>
    <g id="text_18">
     <!-- 0.8 -->
     <g style="fill: #262626" transform="translate(594.270347 471.777768) scale(0.22 -0.22)">
      <defs>
       <path id="CMSS17-38" d="M 1933 2222 
C 2419 2380 2669 2760 2669 3134 
C 2669 3722 2157 4229 1504 4229 
C 826 4229 333 3708 333 3144 
C 333 2780 576 2403 1069 2241 
C 442 1997 250 1512 250 1149 
C 250 446 819 -128 1498 -128 
C 2202 -128 2752 455 2752 1138 
C 2752 1557 2502 2000 1933 2222 
z
M 1504 2432 
C 1075 2432 787 2712 787 3136 
C 787 3566 1075 3840 1504 3840 
C 1901 3840 2214 3591 2214 3136 
C 2214 2687 1907 2432 1504 2432 
z
M 1504 267 
C 1139 267 749 517 749 1156 
C 749 1813 1184 2043 1498 2043 
C 1843 2043 2253 1800 2253 1156 
C 2253 491 1830 267 1504 267 
z
" transform="scale(0.015625)"/>
      </defs>
      <use xlink:href="#CMSS17-30" transform="scale(0.996264)"/>
      <use xlink:href="#CMSS17-2e" transform="translate(46.843624 0) scale(0.996264)"/>
      <use xlink:href="#CMSS17-38" transform="translate(72.867828 0) scale(0.996264)"/>
     </g>
    </g>
   </g>
  </g>
 </g>
 <defs>
  <clipPath id="p92c4bf6b50">
   <rect x="83.392615" y="49.831226" width="610.687385" height="446.00973"/>
  </clipPath>
 </defs>
</svg>
