<?xml version="1.0" encoding="utf-8" standalone="no"?>
<!DOCTYPE svg PUBLIC "-//W3C//DTD SVG 1.1//EN"
  "http://www.w3.org/Graphics/SVG/1.1/DTD/svg11.dtd">
<svg xmlns:xlink="http://www.w3.org/1999/xlink" width="720pt" height="576pt" viewBox="0 0 720 576" xmlns="http://www.w3.org/2000/svg" version="1.1">
 <metadata>
  <rdf:RDF xmlns:dc="http://purl.org/dc/elements/1.1/" xmlns:cc="http://creativecommons.org/ns#" xmlns:rdf="http://www.w3.org/1999/02/22-rdf-syntax-ns#">
   <cc:Work>
    <dc:type rdf:resource="http://purl.org/dc/dcmitype/StillImage"/>
    <dc:date>2025-04-25T15:59:59.335634</dc:date>
    <dc:format>image/svg+xml</dc:format>
    <dc:creator>
     <cc:Agent>
      <dc:title>Matplotlib v3.9.2, https://matplotlib.org/</dc:title>
     </cc:Agent>
    </dc:creator>
   </cc:Work>
  </rdf:RDF>
 </metadata>
 <defs>
  <style type="text/css">*{stroke-linejoin: round; stroke-linecap: butt}</style>
 </defs>
 <g id="figure_1">
  <g id="patch_1">
   <path d="M 0 576 
L 720 576 
L 720 0 
L 0 0 
z
" style="fill: #ffffff"/>
  </g>
  <g id="axes_1">
   <g id="patch_2">
    <path d="M 66.27864 513.338305 
L 702.72 513.338305 
L 702.72 19.754031 
L 66.27864 19.754031 
z
" style="fill: #ffffff"/>
   </g>
   <g id="matplotlib.axis_1">
    <g id="xtick_1">
     <g id="line2d_1">
      <path d="M 95.207792 513.338305 
L 95.207792 19.754031 
" clip-path="url(#pb249231739)" style="fill: none; stroke: #cccccc; stroke-linecap: round"/>
     </g>
     <g id="text_1">
      <!-- $\mathdefault{0}$ -->
      <g style="fill: #262626" transform="translate(91.305799 533.907893) scale(0.16 -0.16)">
       <defs>
        <path id="CMR17-30" d="M 2688 2025 
C 2688 2416 2682 3080 2413 3591 
C 2176 4039 1798 4198 1466 4198 
C 1158 4198 768 4058 525 3597 
C 269 3118 243 2524 243 2025 
C 243 1661 250 1106 448 619 
C 723 -39 1216 -128 1466 -128 
C 1760 -128 2208 -7 2470 600 
C 2662 1042 2688 1559 2688 2025 
z
M 1466 -26 
C 1056 -26 813 325 723 812 
C 653 1188 653 1738 653 2096 
C 653 2588 653 2997 736 3387 
C 858 3929 1216 4096 1466 4096 
C 1728 4096 2067 3923 2189 3400 
C 2272 3036 2278 2607 2278 2096 
C 2278 1680 2278 1169 2202 792 
C 2067 95 1690 -26 1466 -26 
z
" transform="scale(0.015625)"/>
       </defs>
       <use xlink:href="#CMR17-30" transform="scale(0.996264)"/>
      </g>
     </g>
    </g>
    <g id="xtick_2">
     <g id="line2d_2">
      <path d="M 212.093258 513.338305 
L 212.093258 19.754031 
" clip-path="url(#pb249231739)" style="fill: none; stroke: #cccccc; stroke-linecap: round"/>
     </g>
     <g id="text_2">
      <!-- $\mathdefault{200}$ -->
      <g style="fill: #262626" transform="translate(200.387278 533.907893) scale(0.16 -0.16)">
       <defs>
        <path id="CMR17-32" d="M 2669 989 
L 2554 989 
C 2490 536 2438 459 2413 420 
C 2381 369 1920 369 1830 369 
L 602 369 
C 832 619 1280 1072 1824 1597 
C 2214 1967 2669 2402 2669 3035 
C 2669 3790 2067 4224 1395 4224 
C 691 4224 262 3604 262 3030 
C 262 2780 448 2748 525 2748 
C 589 2748 781 2787 781 3010 
C 781 3207 614 3264 525 3264 
C 486 3264 448 3258 422 3245 
C 544 3790 915 4058 1306 4058 
C 1862 4058 2227 3617 2227 3035 
C 2227 2479 1901 2000 1536 1584 
L 262 146 
L 262 0 
L 2515 0 
L 2669 989 
z
" transform="scale(0.015625)"/>
       </defs>
       <use xlink:href="#CMR17-32" transform="scale(0.996264)"/>
       <use xlink:href="#CMR17-30" transform="translate(45.690477 0) scale(0.996264)"/>
       <use xlink:href="#CMR17-30" transform="translate(91.380954 0) scale(0.996264)"/>
      </g>
     </g>
    </g>
    <g id="xtick_3">
     <g id="line2d_3">
      <path d="M 328.978724 513.338305 
L 328.978724 19.754031 
" clip-path="url(#pb249231739)" style="fill: none; stroke: #cccccc; stroke-linecap: round"/>
     </g>
     <g id="text_3">
      <!-- $\mathdefault{400}$ -->
      <g style="fill: #262626" transform="translate(317.272743 533.907893) scale(0.16 -0.16)">
       <defs>
        <path id="CMR17-34" d="M 2150 4122 
C 2150 4256 2144 4256 2029 4256 
L 128 1254 
L 128 1088 
L 1779 1088 
L 1779 457 
C 1779 224 1766 160 1318 160 
L 1197 160 
L 1197 0 
C 1402 0 1747 0 1965 0 
C 2182 0 2528 0 2733 0 
L 2733 160 
L 2611 160 
C 2163 160 2150 224 2150 457 
L 2150 1088 
L 2803 1088 
L 2803 1254 
L 2150 1254 
L 2150 4122 
z
M 1798 3703 
L 1798 1254 
L 256 1254 
L 1798 3703 
z
" transform="scale(0.015625)"/>
       </defs>
       <use xlink:href="#CMR17-34" transform="scale(0.996264)"/>
       <use xlink:href="#CMR17-30" transform="translate(45.690477 0) scale(0.996264)"/>
       <use xlink:href="#CMR17-30" transform="translate(91.380954 0) scale(0.996264)"/>
      </g>
     </g>
    </g>
    <g id="xtick_4">
     <g id="line2d_4">
      <path d="M 445.864189 513.338305 
L 445.864189 19.754031 
" clip-path="url(#pb249231739)" style="fill: none; stroke: #cccccc; stroke-linecap: round"/>
     </g>
     <g id="text_4">
      <!-- $\mathdefault{600}$ -->
      <g style="fill: #262626" transform="translate(434.158209 533.907893) scale(0.16 -0.16)">
       <defs>
        <path id="CMR17-36" d="M 678 2176 
C 678 3690 1395 4032 1811 4032 
C 1946 4032 2272 4009 2400 3776 
C 2298 3776 2106 3776 2106 3553 
C 2106 3381 2246 3323 2336 3323 
C 2394 3323 2566 3348 2566 3560 
C 2566 3954 2246 4179 1805 4179 
C 1043 4179 243 3390 243 1984 
C 243 253 966 -128 1478 -128 
C 2099 -128 2688 427 2688 1283 
C 2688 2081 2170 2662 1517 2662 
C 1126 2662 838 2407 678 1960 
L 678 2176 
z
M 1478 25 
C 691 25 691 1200 691 1436 
C 691 1896 909 2560 1504 2560 
C 1613 2560 1926 2560 2138 2120 
C 2253 1870 2253 1609 2253 1289 
C 2253 944 2253 690 2118 434 
C 1978 171 1773 25 1478 25 
z
" transform="scale(0.015625)"/>
       </defs>
       <use xlink:href="#CMR17-36" transform="scale(0.996264)"/>
       <use xlink:href="#CMR17-30" transform="translate(45.690477 0) scale(0.996264)"/>
       <use xlink:href="#CMR17-30" transform="translate(91.380954 0) scale(0.996264)"/>
      </g>
     </g>
    </g>
    <g id="xtick_5">
     <g id="line2d_5">
      <path d="M 562.749655 513.338305 
L 562.749655 19.754031 
" clip-path="url(#pb249231739)" style="fill: none; stroke: #cccccc; stroke-linecap: round"/>
     </g>
     <g id="text_5">
      <!-- $\mathdefault{800}$ -->
      <g style="fill: #262626" transform="translate(551.043674 533.907893) scale(0.16 -0.16)">
       <defs>
        <path id="CMR17-38" d="M 1741 2264 
C 2144 2467 2554 2773 2554 3263 
C 2554 3841 1990 4179 1472 4179 
C 890 4179 378 3759 378 3180 
C 378 3021 416 2747 666 2505 
C 730 2442 998 2251 1171 2130 
C 883 1983 211 1634 211 934 
C 211 279 838 -128 1459 -128 
C 2144 -128 2720 362 2720 1010 
C 2720 1590 2330 1857 2074 2029 
L 1741 2264 
z
M 902 2822 
C 851 2854 595 3051 595 3351 
C 595 3739 998 4032 1459 4032 
C 1965 4032 2336 3676 2336 3262 
C 2336 2669 1670 2331 1638 2331 
C 1632 2331 1626 2331 1574 2370 
L 902 2822 
z
M 2080 1519 
C 2176 1449 2483 1240 2483 851 
C 2483 381 2010 25 1472 25 
C 890 25 448 438 448 940 
C 448 1443 838 1862 1280 2060 
L 2080 1519 
z
" transform="scale(0.015625)"/>
       </defs>
       <use xlink:href="#CMR17-38" transform="scale(0.996264)"/>
       <use xlink:href="#CMR17-30" transform="translate(45.690477 0) scale(0.996264)"/>
       <use xlink:href="#CMR17-30" transform="translate(91.380954 0) scale(0.996264)"/>
      </g>
     </g>
    </g>
    <g id="xtick_6">
     <g id="line2d_6">
      <path d="M 679.635121 513.338305 
L 679.635121 19.754031 
" clip-path="url(#pb249231739)" style="fill: none; stroke: #cccccc; stroke-linecap: round"/>
     </g>
     <g id="text_6">
      <!-- $\mathdefault{1000}$ -->
      <g style="fill: #262626" transform="translate(664.027147 533.907893) scale(0.16 -0.16)">
       <defs>
        <path id="CMR17-31" d="M 1702 4058 
C 1702 4192 1696 4192 1606 4192 
C 1357 3916 979 3827 621 3827 
C 602 3827 570 3827 563 3808 
C 557 3795 557 3782 557 3648 
C 755 3648 1088 3686 1344 3839 
L 1344 461 
C 1344 236 1331 160 781 160 
L 589 160 
L 589 0 
C 896 0 1216 0 1523 0 
C 1830 0 2150 0 2458 0 
L 2458 160 
L 2266 160 
C 1715 160 1702 230 1702 458 
L 1702 4058 
z
" transform="scale(0.015625)"/>
       </defs>
       <use xlink:href="#CMR17-31" transform="scale(0.996264)"/>
       <use xlink:href="#CMR17-30" transform="translate(45.690477 0) scale(0.996264)"/>
       <use xlink:href="#CMR17-30" transform="translate(91.380954 0) scale(0.996264)"/>
       <use xlink:href="#CMR17-30" transform="translate(137.071431 0) scale(0.996264)"/>
      </g>
     </g>
    </g>
    <g id="text_7">
     <!-- Step -->
     <g style="fill: #262626" transform="translate(366.743615 554.844366) scale(0.2 -0.2)">
      <defs>
       <path id="CMR17-53" d="M 2803 4290 
C 2803 4404 2797 4411 2758 4411 
C 2720 4411 2707 4385 2682 4328 
L 2490 3907 
C 2246 4257 1875 4416 1472 4416 
C 819 4416 294 3901 294 3253 
C 294 3056 339 2776 557 2510 
C 794 2218 1018 2167 1530 2033 
C 1722 1982 2042 1899 2106 1874 
C 2470 1722 2662 1341 2662 985 
C 2662 527 2336 38 1779 38 
C 1094 38 454 419 410 1311 
C 403 1413 397 1419 352 1419 
C 301 1419 294 1413 294 1285 
L 294 -1 
C 294 -115 301 -122 339 -122 
C 384 -122 397 -90 486 108 
C 493 127 493 140 614 381 
C 934 -39 1472 -128 1779 -128 
C 2477 -128 2970 451 2970 1124 
C 2970 1454 2848 1708 2778 1823 
C 2509 2230 2221 2306 1914 2382 
C 1869 2402 1856 2402 1498 2490 
C 1152 2579 1005 2624 845 2796 
C 666 2992 602 3196 602 3399 
C 602 3812 934 4263 1478 4263 
C 2157 4263 2579 3786 2675 2993 
C 2694 2878 2701 2872 2746 2872 
C 2803 2872 2803 2891 2803 2999 
L 2803 4290 
z
" transform="scale(0.015625)"/>
       <path id="CMR17-74" d="M 966 2560 
L 1862 2560 
L 1862 2725 
L 966 2725 
L 966 3904 
L 851 3904 
C 838 3245 614 2668 70 2668 
L 70 2560 
L 627 2560 
L 627 771 
C 627 650 627 -64 1370 -64 
C 1747 -64 1965 306 1965 777 
L 1965 1140 
L 1850 1140 
L 1850 783 
C 1850 344 1677 51 1408 51 
C 1222 51 966 178 966 758 
L 966 2560 
z
" transform="scale(0.015625)"/>
       <path id="CMR17-65" d="M 2438 1472 
C 2464 1498 2464 1511 2464 1576 
C 2464 2238 2118 2816 1389 2816 
C 710 2816 173 2169 173 1383 
C 173 551 781 -64 1459 -64 
C 2176 -64 2458 607 2458 740 
C 2458 784 2419 784 2406 784 
C 2362 784 2355 771 2330 696 
C 2189 265 1837 51 1504 51 
C 1229 51 954 203 781 480 
C 582 803 582 1176 582 1472 
L 2438 1472 
z
M 589 1568 
C 634 2505 1126 2714 1382 2714 
C 1818 2714 2112 2297 2118 1568 
L 589 1568 
z
" transform="scale(0.015625)"/>
       <path id="CMR17-70" d="M 1408 -1063 
C 998 -1063 973 -1037 973 -789 
L 973 402 
C 1158 134 1427 -38 1766 -38 
C 2406 -38 3053 523 3053 1388 
C 3053 2191 2496 2802 1837 2802 
C 1453 2802 1139 2592 960 2338 
L 960 2802 
L 198 2732 
L 198 2567 
C 576 2567 634 2528 634 2223 
L 634 -789 
C 634 -1031 608 -1063 198 -1063 
L 198 -1228 
C 352 -1216 634 -1216 800 -1216 
C 966 -1216 1254 -1216 1408 -1228 
L 1408 -1063 
z
M 973 2012 
C 973 2102 973 2235 1222 2471 
C 1254 2497 1472 2688 1792 2688 
C 2259 2688 2643 2108 2643 1382 
C 2643 656 2234 64 1728 64 
C 1498 64 1248 172 1056 472 
C 973 612 973 650 973 752 
L 973 2012 
z
" transform="scale(0.015625)"/>
      </defs>
      <use xlink:href="#CMR17-53" transform="scale(0.996264)"/>
      <use xlink:href="#CMR17-74" transform="translate(50.89537 0) scale(0.996264)"/>
      <use xlink:href="#CMR17-65" transform="translate(86.176138 0) scale(0.996264)"/>
      <use xlink:href="#CMR17-70" transform="translate(126.661798 0) scale(0.996264)"/>
     </g>
    </g>
   </g>
   <g id="matplotlib.axis_2">
    <g id="ytick_1">
     <g id="line2d_7">
      <path d="M 66.27864 498.894999 
L 702.72 498.894999 
" clip-path="url(#pb249231739)" style="fill: none; stroke: #cccccc; stroke-linecap: round"/>
     </g>
     <g id="text_8">
      <!-- $\mathdefault{0}$ -->
      <g style="fill: #262626" transform="translate(48.974653 504.429794) scale(0.16 -0.16)">
       <use xlink:href="#CMR17-30" transform="scale(0.996264)"/>
      </g>
     </g>
    </g>
    <g id="ytick_2">
     <g id="line2d_8">
      <path d="M 66.27864 403.748058 
L 702.72 403.748058 
" clip-path="url(#pb249231739)" style="fill: none; stroke: #cccccc; stroke-linecap: round"/>
     </g>
     <g id="text_9">
      <!-- $\mathdefault{5}$ -->
      <g style="fill: #262626" transform="translate(48.974653 409.282852) scale(0.16 -0.16)">
       <defs>
        <path id="CMR17-35" d="M 730 3692 
C 794 3666 1056 3584 1325 3584 
C 1920 3584 2246 3911 2432 4100 
C 2432 4157 2432 4192 2394 4192 
C 2387 4192 2374 4192 2323 4163 
C 2099 4058 1837 3973 1517 3973 
C 1325 3973 1037 3999 723 4139 
C 653 4171 640 4171 634 4171 
C 602 4171 595 4164 595 4037 
L 595 2203 
C 595 2089 595 2057 659 2057 
C 691 2057 704 2070 736 2114 
C 941 2401 1222 2522 1542 2522 
C 1766 2522 2246 2382 2246 1289 
C 2246 1085 2246 715 2054 421 
C 1894 159 1645 25 1370 25 
C 947 25 518 320 403 814 
C 429 807 480 795 506 795 
C 589 795 749 840 749 1038 
C 749 1210 627 1280 506 1280 
C 358 1280 262 1190 262 1011 
C 262 454 704 -128 1382 -128 
C 2042 -128 2669 440 2669 1264 
C 2669 2030 2170 2624 1549 2624 
C 1222 2624 947 2503 730 2274 
L 730 3692 
z
" transform="scale(0.015625)"/>
       </defs>
       <use xlink:href="#CMR17-35" transform="scale(0.996264)"/>
      </g>
     </g>
    </g>
    <g id="ytick_3">
     <g id="line2d_9">
      <path d="M 66.27864 308.601116 
L 702.72 308.601116 
" clip-path="url(#pb249231739)" style="fill: none; stroke: #cccccc; stroke-linecap: round"/>
     </g>
     <g id="text_10">
      <!-- $\mathdefault{10}$ -->
      <g style="fill: #262626" transform="translate(41.170666 314.13591) scale(0.16 -0.16)">
       <use xlink:href="#CMR17-31" transform="scale(0.996264)"/>
       <use xlink:href="#CMR17-30" transform="translate(45.690477 0) scale(0.996264)"/>
      </g>
     </g>
    </g>
    <g id="ytick_4">
     <g id="line2d_10">
      <path d="M 66.27864 213.454175 
L 702.72 213.454175 
" clip-path="url(#pb249231739)" style="fill: none; stroke: #cccccc; stroke-linecap: round"/>
     </g>
     <g id="text_11">
      <!-- $\mathdefault{15}$ -->
      <g style="fill: #262626" transform="translate(41.170666 218.988969) scale(0.16 -0.16)">
       <use xlink:href="#CMR17-31" transform="scale(0.996264)"/>
       <use xlink:href="#CMR17-35" transform="translate(45.690477 0) scale(0.996264)"/>
      </g>
     </g>
    </g>
    <g id="ytick_5">
     <g id="line2d_11">
      <path d="M 66.27864 118.307233 
L 702.72 118.307233 
" clip-path="url(#pb249231739)" style="fill: none; stroke: #cccccc; stroke-linecap: round"/>
     </g>
     <g id="text_12">
      <!-- $\mathdefault{20}$ -->
      <g style="fill: #262626" transform="translate(41.170666 123.842027) scale(0.16 -0.16)">
       <use xlink:href="#CMR17-32" transform="scale(0.996264)"/>
       <use xlink:href="#CMR17-30" transform="translate(45.690477 0) scale(0.996264)"/>
      </g>
     </g>
    </g>
    <g id="ytick_6">
     <g id="line2d_12">
      <path d="M 66.27864 23.160291 
L 702.72 23.160291 
" clip-path="url(#pb249231739)" style="fill: none; stroke: #cccccc; stroke-linecap: round"/>
     </g>
     <g id="text_13">
      <!-- $\mathdefault{25}$ -->
      <g style="fill: #262626" transform="translate(41.170666 28.695085) scale(0.16 -0.16)">
       <use xlink:href="#CMR17-32" transform="scale(0.996264)"/>
       <use xlink:href="#CMR17-35" transform="translate(45.690477 0) scale(0.996264)"/>
      </g>
     </g>
    </g>
    <g id="text_14">
     <!-- Percentage Explored (\%) -->
     <g style="fill: #262626" transform="translate(32.206022 366.425397) rotate(-90) scale(0.2 -0.2)">
      <defs>
       <path id="CMR17-50" d="M 1267 2042 
L 2291 2042 
C 3117 2042 3718 2578 3718 3184 
C 3718 3791 3130 4352 2291 4352 
L 333 4352 
L 333 4186 
C 774 4186 845 4186 845 3899 
L 845 446 
C 845 160 774 160 333 160 
L 333 0 
C 518 0 858 0 1056 0 
C 1254 0 1594 0 1779 0 
L 1779 160 
C 1338 160 1267 160 1267 446 
L 1267 2042 
z
M 1254 2176 
L 1254 3938 
C 1254 4155 1267 4186 1523 4186 
L 2170 4186 
C 2995 4186 3232 3714 3232 3184 
C 3232 2604 2950 2176 2170 2176 
L 1254 2176 
z
" transform="scale(0.015625)"/>
       <path id="CMR17-72" d="M 960 1497 
C 960 2112 1222 2688 1702 2688 
C 1747 2688 1792 2682 1837 2662 
C 1837 2662 1696 2617 1696 2452 
C 1696 2298 1818 2234 1914 2234 
C 1990 2234 2131 2279 2131 2458 
C 2131 2663 1926 2790 1709 2790 
C 1222 2790 1011 2317 947 2093 
L 941 2093 
L 941 2790 
L 198 2720 
L 198 2554 
C 576 2554 634 2515 634 2208 
L 634 428 
C 634 184 608 153 198 153 
L 198 -13 
C 352 0 646 0 813 0 
C 998 0 1325 0 1498 -13 
L 1498 153 
C 1037 153 960 153 960 440 
L 960 1497 
z
" transform="scale(0.015625)"/>
       <path id="CMR17-63" d="M 2234 2240 
C 2112 2240 1933 2240 1933 2017 
C 1933 1838 2080 1787 2163 1787 
C 2208 1787 2394 1807 2394 2024 
C 2394 2467 1958 2803 1466 2803 
C 787 2803 211 2178 211 1363 
C 211 516 813 -64 1466 -64 
C 2259 -64 2458 677 2458 748 
C 2458 774 2451 793 2406 793 
C 2362 793 2355 787 2330 703 
C 2163 180 1798 51 1523 51 
C 1114 51 621 427 621 1369 
C 621 2338 1094 2688 1472 2688 
C 1722 2688 2093 2573 2234 2240 
z
" transform="scale(0.015625)"/>
       <path id="CMR17-6e" d="M 2656 1933 
C 2656 2259 2592 2790 1837 2790 
C 1331 2790 1069 2400 973 2144 
L 966 2144 
L 966 2790 
L 211 2720 
L 211 2554 
C 589 2554 646 2515 646 2208 
L 646 428 
C 646 184 621 153 211 153 
L 211 -13 
C 365 0 646 0 813 0 
C 979 0 1267 0 1421 -13 
L 1421 153 
C 1011 153 986 178 986 428 
L 986 1658 
C 986 2247 1344 2688 1792 2688 
C 2266 2688 2317 2266 2317 1958 
L 2317 428 
C 2317 184 2291 153 1882 153 
L 1882 -13 
C 2035 0 2317 0 2483 0 
C 2650 0 2938 0 3091 -13 
L 3091 153 
C 2682 153 2656 178 2656 428 
L 2656 1933 
z
" transform="scale(0.015625)"/>
       <path id="CMR17-61" d="M 2304 1653 
C 2304 2072 2304 2294 2035 2543 
C 1798 2752 1523 2816 1306 2816 
C 800 2816 435 2407 435 1971 
C 435 1728 627 1728 666 1728 
C 749 1728 896 1778 896 1954 
C 896 2112 774 2181 666 2181 
C 640 2181 608 2174 589 2168 
C 723 2592 1069 2714 1293 2714 
C 1613 2714 1965 2429 1965 1885 
L 1965 1600 
C 1587 1600 1133 1549 774 1357 
C 371 1133 256 813 256 570 
C 256 77 832 -64 1171 -64 
C 1523 -64 1850 139 1990 511 
C 2003 233 2182 -18 2464 -18 
C 2598 -18 2938 70 2938 567 
L 2938 920 
L 2822 920 
L 2822 562 
C 2822 178 2650 128 2566 128 
C 2304 128 2304 458 2304 738 
L 2304 1653 
z
M 1965 870 
C 1965 317 1568 38 1216 38 
C 896 38 646 275 646 570 
C 646 761 730 1100 1101 1305 
C 1408 1478 1760 1504 1965 1504 
L 1965 870 
z
" transform="scale(0.015625)"/>
       <path id="CMR17-67" d="M 710 1164 
C 832 1068 1043 960 1299 960 
C 1805 960 2240 1357 2240 1888 
C 2240 2054 2189 2310 1997 2509 
C 2176 2692 2438 2752 2586 2752 
C 2611 2752 2650 2752 2682 2734 
C 2656 2728 2598 2703 2598 2605 
C 2598 2527 2656 2471 2739 2471 
C 2835 2471 2886 2533 2886 2614 
C 2886 2731 2790 2854 2586 2854 
C 2330 2854 2106 2738 1926 2580 
C 1734 2753 1504 2816 1299 2816 
C 794 2816 358 2419 358 1888 
C 358 1522 570 1292 634 1228 
C 442 1004 442 743 442 711 
C 442 545 506 302 723 168 
C 390 85 128 -169 128 -486 
C 128 -943 736 -1280 1466 -1280 
C 2170 -1280 2803 -956 2803 -479 
C 2803 384 1856 384 1363 384 
C 1216 384 954 384 922 391 
C 723 423 589 602 589 826 
C 589 883 589 1024 710 1164 
z
M 1299 1068 
C 736 1068 736 1760 736 1889 
C 736 2016 736 2708 1299 2708 
C 1862 2708 1862 2016 1862 1889 
C 1862 1760 1862 1068 1299 1068 
z
M 1466 -1171 
C 826 -1171 384 -835 384 -486 
C 384 -289 493 -105 634 -4 
C 794 104 858 104 1293 104 
C 1818 104 2547 104 2547 -486 
C 2547 -835 2106 -1171 1466 -1171 
z
" transform="scale(0.015625)"/>
       <path id="CMR17-45" d="M 3885 1615 
L 3770 1615 
C 3629 676 3546 166 2419 166 
L 1530 166 
C 1274 166 1261 197 1261 414 
L 1261 2176 
L 1862 2176 
C 2464 2176 2522 1960 2522 1430 
L 2637 1430 
L 2637 3081 
L 2522 3081 
C 2522 2557 2464 2342 1862 2342 
L 1261 2342 
L 1261 3913 
C 1261 4128 1274 4160 1530 4160 
L 2406 4160 
C 3398 4160 3514 3769 3603 2929 
L 3718 2929 
L 3565 4325 
L 326 4325 
L 326 4160 
C 768 4160 838 4160 838 3874 
L 838 451 
C 838 166 768 166 326 166 
L 326 0 
L 3654 0 
L 3885 1615 
z
" transform="scale(0.015625)"/>
       <path id="CMR17-78" d="M 1664 1477 
C 1856 1726 2074 2006 2253 2216 
C 2464 2458 2707 2560 2989 2560 
L 2989 2726 
C 2880 2726 2656 2726 2541 2726 
C 2368 2726 2170 2726 2022 2732 
L 2022 2566 
C 2112 2553 2163 2489 2163 2400 
C 2163 2285 2099 2215 2067 2171 
L 1594 1573 
L 1030 2306 
C 973 2376 973 2388 973 2420 
C 973 2497 1037 2560 1146 2560 
L 1146 2732 
C 992 2726 717 2726 557 2726 
C 384 2726 179 2726 38 2732 
L 38 2560 
C 384 2560 461 2534 614 2343 
L 1350 1395 
C 1363 1382 1395 1344 1395 1325 
C 1395 1299 838 619 768 530 
C 480 185 179 160 6 160 
L 6 0 
C 115 0 339 0 454 0 
C 582 0 864 0 979 -6 
L 979 160 
C 941 166 838 179 838 325 
C 838 440 890 510 947 586 
L 1478 1236 
L 2035 512 
C 2086 442 2163 346 2163 301 
C 2163 211 2086 160 1984 160 
L 1984 -6 
C 2138 0 2413 0 2573 0 
C 2746 0 2950 0 3091 -6 
L 3091 160 
C 2771 160 2675 172 2522 370 
L 1664 1477 
z
" transform="scale(0.015625)"/>
       <path id="CMR17-6c" d="M 979 4396 
L 218 4326 
L 218 4160 
C 595 4160 653 4122 653 3817 
L 653 426 
C 653 184 627 153 218 153 
L 218 -13 
C 371 0 653 0 813 0 
C 979 0 1261 0 1414 -13 
L 1414 153 
C 1005 153 979 178 979 426 
L 979 4396 
z
" transform="scale(0.015625)"/>
       <path id="CMR17-6f" d="M 2758 1356 
C 2758 2176 2163 2816 1466 2816 
C 768 2816 173 2176 173 1356 
C 173 551 768 -64 1466 -64 
C 2163 -64 2758 551 2758 1356 
z
M 1466 51 
C 1165 51 909 230 762 480 
C 602 767 582 1126 582 1408 
C 582 1677 595 2010 762 2298 
C 890 2509 1139 2714 1466 2714 
C 1754 2714 1997 2554 2150 2330 
C 2349 2029 2349 1607 2349 1408 
C 2349 1158 2336 775 2163 467 
C 1984 173 1709 51 1466 51 
z
" transform="scale(0.015625)"/>
       <path id="CMR17-64" d="M 1869 4326 
L 1869 4160 
C 2246 4160 2304 4122 2304 3820 
L 2304 2345 
C 2278 2377 2016 2790 1498 2790 
C 845 2790 211 2208 211 1364 
C 211 525 806 -64 1434 -64 
C 1978 -64 2259 337 2291 380 
L 2291 -63 
L 3066 -63 
L 3066 128 
C 2688 128 2630 166 2630 473 
L 2630 4396 
L 1869 4326 
z
M 2291 755 
C 2291 563 2176 390 2029 262 
C 1811 70 1594 38 1472 38 
C 1286 38 621 134 621 1356 
C 621 2612 1363 2688 1530 2688 
C 1824 2688 2061 2522 2208 2291 
C 2291 2157 2291 2138 2291 2023 
L 2291 755 
z
" transform="scale(0.015625)"/>
       <path id="CMR17-28" d="M 1958 -1561 
C 1958 -1555 1958 -1542 1939 -1523 
C 1645 -1224 858 -407 858 1581 
C 858 3569 1632 4379 1946 4697 
C 1946 4704 1958 4717 1958 4736 
C 1958 4755 1939 4768 1914 4768 
C 1843 4768 1299 4296 986 3594 
C 666 2887 576 2199 576 1588 
C 576 1128 621 351 1005 -471 
C 1312 -1135 1837 -1600 1914 -1600 
C 1946 -1600 1958 -1587 1958 -1561 
z
" transform="scale(0.015625)"/>
       <path id="CMR17-25" d="M 4640 959 
C 4640 1698 4275 2240 3846 2240 
C 3411 2240 2970 1736 2970 959 
C 2970 183 3405 -320 3846 -320 
C 4275 -320 4640 215 4640 959 
z
M 3853 -218 
C 3686 -218 3270 -66 3270 959 
C 3270 1991 3686 2138 3853 2138 
C 4205 2138 4525 1634 4525 959 
C 4525 285 4205 -218 3853 -218 
z
M 4083 4577 
C 4128 4647 4134 4653 4134 4685 
C 4134 4761 4077 4800 4026 4800 
C 3962 4800 3936 4756 3891 4706 
C 3520 4190 3008 4134 2746 4134 
C 2106 4134 1715 4494 1594 4607 
C 1510 4682 1389 4800 1171 4800 
C 736 4800 294 4296 294 3519 
C 294 2743 730 2240 1171 2240 
C 1600 2240 1965 2778 1965 3527 
C 1965 3969 1830 4270 1811 4308 
C 2202 4064 2586 4032 2752 4032 
C 3162 4032 3456 4183 3616 4289 
L 3622 4283 
L 858 -84 
C 800 -174 800 -187 800 -206 
C 800 -276 858 -320 915 -320 
C 973 -320 992 -289 1037 -218 
L 4083 4577 
z
M 1178 2342 
C 1011 2342 595 2494 595 3519 
C 595 4551 1011 4698 1178 4698 
C 1530 4698 1850 4194 1850 3519 
C 1850 2845 1530 2342 1178 2342 
z
" transform="scale(0.015625)"/>
       <path id="CMR17-29" d="M 1683 1581 
C 1683 2040 1638 2817 1254 3639 
C 947 4303 422 4768 346 4768 
C 326 4768 301 4761 301 4729 
C 301 4717 307 4710 314 4697 
C 621 4378 1402 3568 1402 1584 
C 1402 -407 627 -1217 314 -1537 
C 307 -1549 301 -1556 301 -1568 
C 301 -1600 326 -1600 346 -1600 
C 416 -1600 960 -1128 1274 -426 
C 1594 281 1683 969 1683 1581 
z
" transform="scale(0.015625)"/>
      </defs>
      <use xlink:href="#CMR17-50" transform="scale(0.996264)"/>
      <use xlink:href="#CMR17-65" transform="translate(59.983847 0) scale(0.996264)"/>
      <use xlink:href="#CMR17-72" transform="translate(100.469507 0) scale(0.996264)"/>
      <use xlink:href="#CMR17-63" transform="translate(135.750275 0) scale(0.996264)"/>
      <use xlink:href="#CMR17-65" transform="translate(176.235935 0) scale(0.996264)"/>
      <use xlink:href="#CMR17-6e" transform="translate(216.721596 0) scale(0.996264)"/>
      <use xlink:href="#CMR17-74" transform="translate(265.014512 0) scale(0.996264)"/>
      <use xlink:href="#CMR17-61" transform="translate(300.295279 0) scale(0.996264)"/>
      <use xlink:href="#CMR17-67" transform="translate(345.985757 0) scale(0.996264)"/>
      <use xlink:href="#CMR17-65" transform="translate(391.676234 0) scale(0.996264)"/>
      <use xlink:href="#CMR17-45" transform="translate(462.23786 0) scale(0.996264)"/>
      <use xlink:href="#CMR17-78" transform="translate(524.824161 0) scale(0.996264)"/>
      <use xlink:href="#CMR17-70" transform="translate(573.117077 0) scale(0.996264)"/>
      <use xlink:href="#CMR17-6c" transform="translate(624.012447 0) scale(0.996264)"/>
      <use xlink:href="#CMR17-6f" transform="translate(648.883505 0) scale(0.996264)"/>
      <use xlink:href="#CMR17-72" transform="translate(694.573982 0) scale(0.996264)"/>
      <use xlink:href="#CMR17-65" transform="translate(729.85475 0) scale(0.996264)"/>
      <use xlink:href="#CMR17-64" transform="translate(770.34041 0) scale(0.996264)"/>
      <use xlink:href="#CMR17-28" transform="translate(851.311747 0) scale(0.996264)"/>
      <use xlink:href="#CMR17-25" transform="translate(886.592514 0) scale(0.996264)"/>
      <use xlink:href="#CMR17-29" transform="translate(963.512104 0) scale(0.996264)"/>
     </g>
    </g>
   </g>
   <g id="PolyCollection_1">
    <defs>
     <path id="mab9737596e" d="M 95.207792 -92.518805 
L 95.207792 -86.429401 
L 101.052066 -113.260838 
L 106.896339 -129.435818 
L 112.740612 -144.659329 
L 118.584886 -147.704031 
L 124.429159 -155.315787 
L 130.273432 -170.349003 
L 136.117705 -170.349003 
L 141.961979 -171.110179 
L 147.806252 -171.110179 
L 153.650525 -174.154881 
L 159.494799 -173.583999 
L 165.339072 -191.852212 
L 171.183345 -194.70662 
L 177.027618 -190.520155 
L 182.871892 -212.974833 
L 188.716165 -214.116597 
L 194.560438 -222.870115 
L 200.404712 -229.149813 
L 206.248985 -229.340107 
L 212.093258 -228.388638 
L 217.937531 -224.011878 
L 223.781805 -213.165127 
L 229.626078 -205.743666 
L 235.470351 -198.322204 
L 241.314624 -199.463968 
L 247.158898 -200.796025 
L 253.003171 -205.363078 
L 258.847444 -205.743666 
L 264.691718 -204.792196 
L 270.535991 -210.501013 
L 276.380264 -218.493356 
L 282.224537 -200.415437 
L 288.068811 -198.13191 
L 293.913084 -192.423094 
L 299.757357 -188.426922 
L 305.601631 -188.236628 
L 311.445904 -178.721934 
L 317.290177 -177.009289 
L 323.13445 -172.061648 
L 328.978724 -162.737248 
L 334.822997 -160.644015 
L 340.66727 -156.076962 
L 346.511544 -153.03226 
L 352.355817 -148.274913 
L 358.20009 -165.020775 
L 364.044363 -181.576343 
L 369.888637 -179.673404 
L 375.73291 -177.389877 
L 381.577183 -176.05782 
L 387.421457 -172.251942 
L 393.26573 -166.543126 
L 399.110003 -163.688717 
L 404.954276 -182.9084 
L 410.79855 -211.642776 
L 416.642823 -224.963348 
L 422.487096 -233.90716 
L 428.331369 -233.90716 
L 434.175643 -232.955691 
L 440.019916 -222.10894 
L 445.864189 -204.792196 
L 451.708463 -193.564857 
L 457.552736 -203.269845 
L 463.397009 -218.68365 
L 469.241282 -217.161299 
L 475.085556 -237.33245 
L 480.929829 -242.280091 
L 486.774102 -252.175373 
L 492.618376 -255.220075 
L 498.462649 -238.093626 
L 504.306922 -239.235389 
L 510.151195 -237.903332 
L 515.995469 -234.85863 
L 521.839742 -220.206001 
L 527.684015 -204.98249 
L 533.528289 -201.176612 
L 539.372562 -194.516327 
L 545.216835 -186.143396 
L 551.061108 -178.721934 
L 556.905382 -175.296644 
L 562.749655 -184.811339 
L 568.593928 -207.646605 
L 574.438201 -217.161299 
L 580.282475 -234.668336 
L 586.126748 -228.00805 
L 591.971021 -227.056581 
L 597.815295 -232.384809 
L 603.659568 -228.00805 
L 609.503841 -220.967176 
L 615.348114 -221.347764 
L 621.192388 -205.93396 
L 627.036661 -202.318376 
L 632.880934 -202.128082 
L 638.725208 -202.50867 
L 644.569481 -191.091037 
L 650.413754 -188.046335 
L 656.258027 -217.161299 
L 662.102301 -257.503602 
L 667.946574 -253.317136 
L 673.790847 -253.697724 
L 673.790847 -447.797485 
L 673.790847 -447.797485 
L 667.946574 -474.628923 
L 662.102301 -483.001854 
L 656.258027 -473.867747 
L 650.413754 -461.118057 
L 644.569481 -457.692767 
L 638.725208 -450.651893 
L 632.880934 -440.756611 
L 627.036661 -418.872815 
L 621.192388 -409.738709 
L 615.348114 -402.507541 
L 609.503841 -409.358121 
L 603.659568 -422.488399 
L 597.815295 -413.925174 
L 591.971021 -416.969876 
L 586.126748 -431.432211 
L 580.282475 -472.155102 
L 574.438201 -499.938009 
L 568.593928 -511.165348 
L 562.749655 -489.662139 
L 556.905382 -456.741298 
L 551.061108 -437.711909 
L 545.216835 -451.413069 
L 539.372562 -449.700424 
L 533.528289 -443.61102 
L 527.684015 -436.76044 
L 521.839742 -423.249574 
L 515.995469 -436.379852 
L 510.151195 -423.820456 
L 504.306922 -428.768097 
L 498.462649 -440.18573 
L 492.618376 -432.003093 
L 486.774102 -425.533101 
L 480.929829 -426.48457 
L 475.085556 -414.686349 
L 469.241282 -416.208701 
L 463.397009 -430.86133 
L 457.552736 -454.267477 
L 451.708463 -441.137199 
L 445.864189 -422.678693 
L 440.019916 -421.917517 
L 434.175643 -440.946905 
L 428.331369 -448.748955 
L 422.487096 -428.577803 
L 416.642823 -435.999264 
L 410.79855 -428.768097 
L 404.954276 -399.653133 
L 399.110003 -421.346635 
L 393.26573 -418.492227 
L 387.421457 -409.738709 
L 381.577183 -391.089908 
L 375.73291 -365.971115 
L 369.888637 -363.497295 
L 364.044363 -367.68376 
L 358.20009 -376.437279 
L 352.355817 -395.847255 
L 346.511544 -418.301933 
L 340.66727 -454.838359 
L 334.822997 -460.356881 
L 328.978724 -457.502473 
L 323.13445 -492.516548 
L 317.290177 -506.027413 
L 311.445904 -499.176834 
L 305.601631 -502.982711 
L 299.757357 -493.277723 
L 293.913084 -462.25982 
L 288.068811 -451.603363 
L 282.224537 -435.999264 
L 276.380264 -409.167827 
L 270.535991 -413.354292 
L 264.691718 -401.936659 
L 258.847444 -386.142267 
L 253.003171 -387.28403 
L 247.158898 -384.81021 
L 241.314624 -392.231671 
L 235.470351 -419.824284 
L 229.626078 -423.439868 
L 223.781805 -404.791068 
L 217.937531 -401.936659 
L 212.093258 -394.324904 
L 206.248985 -397.940488 
L 200.404712 -393.373435 
L 194.560438 -391.851083 
L 188.716165 -406.8843 
L 182.871892 -383.85874 
L 177.027618 -376.627573 
L 171.183345 -357.978772 
L 165.339072 -362.355532 
L 159.494799 -334.572625 
L 153.650525 -311.737359 
L 147.806252 -303.745016 
L 141.961979 -295.752672 
L 136.117705 -292.517676 
L 130.273432 -280.148574 
L 124.429159 -275.581521 
L 118.584886 -248.940377 
L 112.740612 -236.000393 
L 106.896339 -223.060409 
L 101.052066 -161.785779 
L 95.207792 -92.518805 
z
" style="stroke: #ffffff; stroke-opacity: 0.2"/>
    </defs>
    <g clip-path="url(#pb249231739)">
     <use xlink:href="#mab9737596e" x="0" y="576" style="fill: #4c72b0; fill-opacity: 0.2; stroke: #ffffff; stroke-opacity: 0.2"/>
    </g>
   </g>
   <g id="PolyCollection_2">
    <defs>
     <path id="m5fa1ca45dc" d="M 95.207792 -92.518805 
L 95.207792 -85.097344 
L 101.052066 -96.134389 
L 106.896339 -106.790846 
L 112.740612 -123.727002 
L 118.584886 -128.103761 
L 124.429159 -137.999043 
L 130.273432 -146.942856 
L 136.117705 -158.360489 
L 141.961979 -162.166366 
L 147.806252 -166.73342 
L 153.650525 -166.73342 
L 159.494799 -173.583999 
L 165.339072 -184.621045 
L 171.183345 -189.758979 
L 177.027618 -189.568686 
L 182.871892 -189.568686 
L 188.716165 -187.475453 
L 194.560438 -186.143396 
L 200.404712 -181.386049 
L 206.248985 -182.527812 
L 212.093258 -186.33369 
L 217.937531 -230.672164 
L 223.781805 -244.373324 
L 229.626078 -244.563618 
L 235.470351 -244.563618 
L 241.314624 -244.563618 
L 247.158898 -245.895675 
L 253.003171 -245.895675 
L 258.847444 -240.567446 
L 264.691718 -240.75774 
L 270.535991 -251.604492 
L 276.380264 -237.33245 
L 282.224537 -235.810099 
L 288.068811 -233.145985 
L 293.913084 -233.336279 
L 299.757357 -240.567446 
L 305.601631 -253.50743 
L 311.445904 -249.891847 
L 317.290177 -246.466557 
L 323.13445 -236.571275 
L 328.978724 -238.854801 
L 334.822997 -217.161299 
L 340.66727 -217.161299 
L 346.511544 -217.161299 
L 352.355817 -220.206001 
L 358.20009 -214.116597 
L 364.044363 -209.739837 
L 369.888637 -213.165127 
L 375.73291 -207.075723 
L 381.577183 -215.448654 
L 387.421457 -223.440997 
L 393.26573 -231.43334 
L 399.110003 -231.623634 
L 404.954276 -232.765397 
L 410.79855 -232.194515 
L 416.642823 -227.437168 
L 422.487096 -210.501013 
L 428.331369 -205.172784 
L 434.175643 -200.225143 
L 440.019916 -191.471624 
L 445.864189 -189.378392 
L 451.708463 -188.80751 
L 457.552736 -186.143396 
L 463.397009 -185.001632 
L 469.241282 -191.281331 
L 475.085556 -216.209829 
L 480.929829 -217.161299 
L 486.774102 -242.660679 
L 492.618376 -247.60832 
L 498.462649 -251.604492 
L 504.306922 -251.03361 
L 510.151195 -244.373324 
L 515.995469 -227.627462 
L 521.839742 -212.784539 
L 527.684015 -212.403952 
L 533.528289 -213.545715 
L 539.372562 -216.590417 
L 545.216835 -218.68365 
L 551.061108 -218.112768 
L 556.905382 -219.635119 
L 562.749655 -200.225143 
L 568.593928 -196.228972 
L 574.438201 -185.191926 
L 580.282475 -186.904571 
L 586.126748 -184.430751 
L 591.971021 -184.430751 
L 597.815295 -183.288987 
L 603.659568 -185.953102 
L 609.503841 -185.953102 
L 615.348114 -183.288987 
L 621.192388 -181.766636 
L 627.036661 -184.240457 
L 632.880934 -184.621045 
L 638.725208 -184.811339 
L 644.569481 -184.811339 
L 650.413754 -185.191926 
L 656.258027 -186.904571 
L 662.102301 -199.273674 
L 667.946574 -199.273674 
L 673.790847 -199.273674 
L 673.790847 -504.505062 
L 673.790847 -504.505062 
L 667.946574 -459.405412 
L 662.102301 -439.043967 
L 656.258027 -439.995436 
L 650.413754 -432.764268 
L 644.569481 -439.805142 
L 638.725208 -446.275134 
L 632.880934 -463.972465 
L 627.036661 -438.282791 
L 621.192388 -432.573974 
L 615.348114 -447.987779 
L 609.503841 -433.33515 
L 603.659568 -410.499884 
L 597.815295 -398.321076 
L 591.971021 -401.556072 
L 586.126748 -401.936659 
L 580.282475 -397.369606 
L 574.438201 -408.596945 
L 568.593928 -432.383681 
L 562.749655 -437.711909 
L 556.905382 -431.241917 
L 551.061108 -417.731052 
L 545.216835 -405.742537 
L 539.372562 -399.843427 
L 533.528289 -408.216357 
L 527.684015 -396.608431 
L 521.839742 -404.220186 
L 515.995469 -403.45901 
L 510.151195 -421.536929 
L 504.306922 -432.383681 
L 498.462649 -450.842187 
L 492.618376 -438.282791 
L 486.774102 -471.964808 
L 480.929829 -469.681282 
L 475.085556 -446.275134 
L 469.241282 -437.902203 
L 463.397009 -436.189558 
L 457.552736 -450.842187 
L 451.708463 -440.946905 
L 445.864189 -438.853673 
L 440.019916 -456.931592 
L 434.175643 -439.23426 
L 428.331369 -415.447525 
L 422.487096 -428.577803 
L 416.642823 -442.278963 
L 410.79855 -424.391338 
L 404.954276 -439.995436 
L 399.110003 -450.4616 
L 393.26573 -447.416897 
L 387.421457 -453.125714 
L 381.577183 -443.040138 
L 375.73291 -448.748955 
L 369.888637 -450.081012 
L 364.044363 -480.147445 
L 358.20009 -506.408001 
L 352.355817 -505.83712 
L 346.511544 -516.874165 
L 340.66727 -533.81032 
L 334.822997 -516.683871 
L 328.978724 -512.687699 
L 323.13445 -524.676214 
L 317.290177 -533.429733 
L 311.445904 -514.019757 
L 305.601631 -521.250924 
L 299.757357 -530.955912 
L 293.913084 -490.042727 
L 288.068811 -448.558661 
L 282.224537 -437.141028 
L 276.380264 -438.473085 
L 270.535991 -421.917517 
L 264.691718 -428.768097 
L 258.847444 -455.218947 
L 253.003171 -456.170416 
L 247.158898 -470.632751 
L 241.314624 -475.00951 
L 235.470351 -477.102743 
L 229.626078 -467.397755 
L 223.781805 -462.069526 
L 217.937531 -471.203633 
L 212.093258 -472.155102 
L 206.248985 -483.192147 
L 200.404712 -457.121885 
L 194.560438 -441.898375 
L 188.716165 -415.257231 
L 182.871892 -375.295516 
L 177.027618 -360.262299 
L 171.183345 -348.273784 
L 165.339072 -333.430861 
L 159.494799 -323.154992 
L 153.650525 -308.88295 
L 147.806252 -307.550893 
L 141.961979 -302.603252 
L 136.117705 -279.387398 
L 130.273432 -270.443586 
L 124.429159 -258.074484 
L 118.584886 -240.377152 
L 112.740612 -221.918646 
L 106.896339 -191.281331 
L 101.052066 -160.073134 
L 95.207792 -92.518805 
z
" style="stroke: #ffffff; stroke-opacity: 0.2"/>
    </defs>
    <g clip-path="url(#pb249231739)">
     <use xlink:href="#m5fa1ca45dc" x="0" y="576" style="fill: #dd8452; fill-opacity: 0.2; stroke: #ffffff; stroke-opacity: 0.2"/>
    </g>
   </g>
   <g id="PolyCollection_3">
    <defs>
     <path id="m57c54975d0" d="M 95.207792 -92.518805 
L 95.207792 -85.858519 
L 101.052066 -106.410259 
L 106.896339 -109.454961 
L 112.740612 -109.454961 
L 118.584886 -121.824063 
L 124.429159 -145.039917 
L 130.273432 -153.412848 
L 136.117705 -157.599313 
L 141.961979 -159.88284 
L 147.806252 -166.543126 
L 153.650525 -173.203412 
L 159.494799 -176.628702 
L 165.339072 -180.244285 
L 171.183345 -180.244285 
L 177.027618 -180.624873 
L 182.871892 -199.463968 
L 188.716165 -201.937788 
L 194.560438 -212.403952 
L 200.404712 -212.403952 
L 206.248985 -214.116597 
L 212.093258 -216.780711 
L 217.937531 -204.601902 
L 223.781805 -197.561029 
L 229.626078 -192.2328 
L 235.470351 -210.310719 
L 241.314624 -203.460139 
L 247.158898 -197.561029 
L 253.003171 -187.475453 
L 258.847444 -180.434579 
L 264.691718 -178.912228 
L 270.535991 -187.856041 
L 276.380264 -185.191926 
L 282.224537 -196.419265 
L 288.068811 -196.419265 
L 293.913084 -196.038678 
L 299.757357 -196.038678 
L 305.601631 -201.5572 
L 311.445904 -201.5572 
L 317.290177 -230.48187 
L 323.13445 -218.873944 
L 328.978724 -212.023364 
L 334.822997 -212.403952 
L 340.66727 -231.623634 
L 346.511544 -239.615977 
L 352.355817 -240.948034 
L 358.20009 -237.903332 
L 364.044363 -223.250703 
L 369.888637 -199.844555 
L 375.73291 -185.572514 
L 381.577183 -187.856041 
L 387.421457 -186.904571 
L 393.26573 -188.617216 
L 399.110003 -199.463968 
L 404.954276 -217.161299 
L 410.79855 -209.739837 
L 416.642823 -217.922474 
L 422.487096 -217.922474 
L 428.331369 -217.922474 
L 434.175643 -217.922474 
L 440.019916 -229.530401 
L 445.864189 -236.000393 
L 451.708463 -236.380981 
L 457.552736 -235.429511 
L 463.397009 -236.951863 
L 469.241282 -240.567446 
L 475.085556 -247.988908 
L 480.929829 -246.466557 
L 486.774102 -231.43334 
L 492.618376 -220.776882 
L 498.462649 -235.810099 
L 504.306922 -246.276263 
L 510.151195 -240.186859 
L 515.995469 -218.873944 
L 521.839742 -212.594245 
L 527.684015 -203.650433 
L 533.528289 -183.479281 
L 539.372562 -169.968416 
L 545.216835 -188.617216 
L 551.061108 -210.881601 
L 556.905382 -210.120425 
L 562.749655 -192.613388 
L 568.593928 -177.770465 
L 574.438201 -202.318376 
L 580.282475 -200.605731 
L 586.126748 -232.004222 
L 591.971021 -230.672164 
L 597.815295 -235.048924 
L 603.659568 -237.903332 
L 609.503841 -237.903332 
L 615.348114 -235.619805 
L 621.192388 -230.48187 
L 627.036661 -224.011878 
L 632.880934 -220.206001 
L 638.725208 -220.206001 
L 644.569481 -198.512498 
L 650.413754 -188.046335 
L 656.258027 -196.609559 
L 662.102301 -198.512498 
L 667.946574 -219.444825 
L 673.790847 -225.153642 
L 673.790847 -486.998025 
L 673.790847 -486.998025 
L 667.946574 -477.483331 
L 662.102301 -506.027413 
L 656.258027 -527.340328 
L 650.413754 -515.542108 
L 644.569481 -487.949495 
L 638.725208 -486.427143 
L 632.880934 -482.430972 
L 627.036661 -497.844776 
L 621.192388 -487.949495 
L 615.348114 -462.25982 
L 609.503841 -460.927763 
L 603.659568 -486.046556 
L 597.815295 -494.800074 
L 591.971021 -505.075944 
L 586.126748 -510.594467 
L 580.282475 -483.953323 
L 574.438201 -471.584221 
L 568.593928 -465.304522 
L 562.749655 -467.968637 
L 556.905382 -480.718327 
L 551.061108 -487.759201 
L 545.216835 -498.605952 
L 539.372562 -499.747715 
L 533.528289 -488.520376 
L 527.684015 -478.054213 
L 521.839742 -453.506302 
L 515.995469 -446.655722 
L 510.151195 -438.282791 
L 504.306922 -430.480742 
L 498.462649 -414.876643 
L 492.618376 -418.492227 
L 486.774102 -421.536929 
L 480.929829 -451.603363 
L 475.085556 -482.430972 
L 469.241282 -507.549764 
L 463.397009 -505.456532 
L 457.552736 -508.691528 
L 451.708463 -505.075944 
L 445.864189 -498.605952 
L 440.019916 -480.337739 
L 434.175643 -477.483331 
L 428.331369 -458.263649 
L 422.487096 -449.890718 
L 416.642823 -476.531862 
L 410.79855 -493.087429 
L 404.954276 -487.188319 
L 399.110003 -498.98654 
L 393.26573 -485.856262 
L 387.421457 -480.147445 
L 381.577183 -474.819217 
L 375.73291 -499.367128 
L 369.888637 -489.662139 
L 364.044363 -474.819217 
L 358.20009 -480.718327 
L 352.355817 -483.192147 
L 346.511544 -469.871576 
L 340.66727 -458.073355 
L 334.822997 -453.316008 
L 328.978724 -442.65955 
L 323.13445 -438.282791 
L 317.290177 -452.364538 
L 311.445904 -472.916278 
L 305.601631 -474.438629 
L 299.757357 -474.248335 
L 293.913084 -470.632751 
L 288.068811 -483.382441 
L 282.224537 -461.498645 
L 276.380264 -445.513959 
L 270.535991 -443.991607 
L 264.691718 -456.741298 
L 258.847444 -482.050384 
L 253.003171 -488.330082 
L 247.158898 -507.549764 
L 241.314624 -509.072116 
L 235.470351 -481.098915 
L 229.626078 -478.244506 
L 223.781805 -472.916278 
L 217.937531 -474.438629 
L 212.093258 -449.890718 
L 206.248985 -448.558661 
L 200.404712 -451.603363 
L 194.560438 -454.077183 
L 188.716165 -446.08484 
L 182.871892 -425.533101 
L 177.027618 -400.03372 
L 171.183345 -379.672275 
L 165.339072 -373.773165 
L 159.494799 -347.512609 
L 153.650525 -322.964698 
L 147.806252 -322.393816 
L 141.961979 -303.554722 
L 136.117705 -289.28268 
L 130.273432 -260.928892 
L 124.429159 -243.231561 
L 118.584886 -209.549543 
L 112.740612 -189.949273 
L 106.896339 -174.916057 
L 101.052066 -158.93137 
L 95.207792 -92.518805 
z
" style="stroke: #ffffff; stroke-opacity: 0.2"/>
    </defs>
    <g clip-path="url(#pb249231739)">
     <use xlink:href="#m57c54975d0" x="0" y="576" style="fill: #55a868; fill-opacity: 0.2; stroke: #ffffff; stroke-opacity: 0.2"/>
    </g>
   </g>
   <g id="line2d_13">
    <path d="M 95.207792 483.481195 
L 101.052066 447.991386 
L 106.896339 426.202736 
L 112.740612 409.171433 
L 118.584886 397.7538 
L 124.429159 383.196318 
L 130.273432 374.537947 
L 136.117705 363.976636 
L 141.961979 360.170759 
L 147.806252 347.040481 
L 153.650525 337.430639 
L 159.494799 337.71608 
L 165.339072 329.438296 
L 171.183345 322.397423 
L 177.027618 304.700092 
L 182.871892 296.993189 
L 188.716165 291.37952 
L 194.560438 287.288201 
L 200.404712 271.969544 
L 206.248985 265.594699 
L 212.093258 271.77925 
L 217.937531 281.389091 
L 223.781805 286.431879 
L 229.626078 286.622173 
L 235.470351 287.859083 
L 241.314624 289.571728 
L 247.158898 283.101736 
L 253.003171 287.478495 
L 258.847444 293.282459 
L 264.691718 286.431879 
L 270.535991 281.959973 
L 276.380264 278.344389 
L 282.224537 279.105564 
L 288.068811 271.113221 
L 293.913084 264.738376 
L 299.757357 261.979115 
L 305.601631 266.070433 
L 311.445904 268.35396 
L 317.290177 275.48998 
L 323.13445 281.198797 
L 328.978724 269.686017 
L 334.822997 271.303515 
L 340.66727 268.639401 
L 346.511544 261.788821 
L 352.355817 267.11705 
L 358.20009 272.159838 
L 364.044363 272.540425 
L 369.888637 271.018074 
L 375.73291 265.023817 
L 381.577183 259.600441 
L 387.421457 259.505294 
L 393.26573 259.02956 
L 399.110003 263.216025 
L 404.954276 262.930584 
L 410.79855 257.792649 
L 416.642823 256.84118 
L 422.487096 264.643229 
L 428.331369 271.969544 
L 434.175643 254.367359 
L 440.019916 242.283698 
L 445.864189 238.668114 
L 451.708463 235.623412 
L 457.552736 228.582538 
L 463.397009 239.42929 
L 469.241282 241.427375 
L 475.085556 250.561482 
L 480.929829 247.421633 
L 486.774102 246.945898 
L 492.618376 257.602355 
L 498.462649 256.84118 
L 504.306922 252.083833 
L 510.151195 244.662371 
L 515.995469 254.747947 
L 521.839742 254.557653 
L 527.684015 253.986772 
L 533.528289 250.276041 
L 539.372562 253.796478 
L 545.216835 248.277955 
L 551.061108 258.363531 
L 556.905382 271.398662 
L 562.749655 272.825866 
L 568.593928 277.107478 
L 574.438201 278.344389 
L 580.282475 279.010417 
L 586.126748 271.684103 
L 591.971021 264.643229 
L 597.815295 256.175151 
L 603.659568 259.315 
L 609.503841 271.303515 
L 615.348114 276.917185 
L 621.192388 273.967629 
L 627.036661 267.307343 
L 632.880934 259.695588 
L 638.725208 253.511037 
L 644.569481 248.468249 
L 650.413754 258.934413 
L 656.258027 269.971458 
L 662.102301 260.26647 
L 667.946574 255.318829 
L 673.790847 257.316915 
" clip-path="url(#pb249231739)" style="fill: none; stroke: #4c72b0; stroke-width: 2; stroke-linecap: round"/>
   </g>
   <g id="line2d_14">
    <path d="M 95.207792 483.481195 
L 101.052066 449.894324 
L 106.896339 434.48052 
L 112.740612 420.208479 
L 118.584886 406.887907 
L 124.429159 387.668225 
L 130.273432 375.394269 
L 136.117705 366.735897 
L 141.961979 350.370624 
L 147.806252 334.861672 
L 153.650525 320.30419 
L 159.494799 307.839941 
L 165.339072 297.088336 
L 171.183345 289.381434 
L 177.027618 284.053205 
L 182.871892 285.290115 
L 188.716165 287.00276 
L 194.560438 289.952316 
L 200.404712 293.758193 
L 206.248985 279.391005 
L 212.093258 278.154095 
L 217.937531 276.251156 
L 223.781805 275.775421 
L 229.626078 267.592784 
L 235.470351 263.406319 
L 241.314624 268.639401 
L 247.158898 271.208368 
L 253.003171 280.723062 
L 258.847444 259.790735 
L 264.691718 251.703245 
L 270.535991 236.384587 
L 276.380264 234.196208 
L 282.224537 224.776661 
L 288.068811 213.549321 
L 293.913084 218.687256 
L 299.757357 226.774746 
L 305.601631 241.427375 
L 311.445904 237.431204 
L 317.290177 243.710902 
L 323.13445 238.572967 
L 328.978724 229.819448 
L 334.822997 233.720473 
L 340.66727 243.901196 
L 346.511544 252.274127 
L 352.355817 253.701331 
L 358.20009 261.788821 
L 364.044363 267.212197 
L 369.888637 263.311172 
L 375.73291 264.452935 
L 381.577183 265.309258 
L 387.421457 259.315 
L 393.26573 249.705159 
L 399.110003 254.081919 
L 404.954276 256.460592 
L 410.79855 251.512951 
L 416.642823 246.660457 
L 422.487096 253.130449 
L 428.331369 258.458678 
L 434.175643 255.318829 
L 440.019916 259.885882 
L 445.864189 247.992514 
L 451.708463 243.996343 
L 457.552736 249.324572 
L 463.397009 256.84118 
L 469.241282 259.885882 
L 475.085556 261.408233 
L 480.929829 262.169409 
L 486.774102 264.548082 
L 492.618376 277.202625 
L 498.462649 278.439536 
L 504.306922 270.256899 
L 510.151195 259.124707 
L 515.995469 253.225596 
L 521.839742 248.182808 
L 527.684015 242.854579 
L 533.528289 250.466335 
L 539.372562 270.82778 
L 545.216835 276.536597 
L 551.061108 271.588956 
L 556.905382 278.249242 
L 562.749655 275.680274 
L 568.593928 274.157923 
L 574.438201 276.631744 
L 580.282475 287.668789 
L 586.126748 271.684103 
L 591.971021 260.647058 
L 597.815295 246.56531 
L 603.659568 240.285612 
L 609.503841 238.858408 
L 615.348114 238.763261 
L 621.192388 243.235167 
L 627.036661 245.899282 
L 632.880934 249.895453 
L 638.725208 247.231339 
L 644.569481 236.479734 
L 650.413754 221.541665 
L 656.258027 236.574881 
L 662.102301 243.425461 
L 667.946574 234.291355 
L 673.790847 230.295183 
" clip-path="url(#pb249231739)" style="fill: none; stroke: #dd8452; stroke-width: 2; stroke-linecap: round"/>
   </g>
   <g id="line2d_15">
    <path d="M 95.207792 483.481195 
L 101.052066 455.3177 
L 106.896339 435.71743 
L 112.740612 421.540536 
L 118.584886 405.936437 
L 124.429159 399.181005 
L 130.273432 396.51689 
L 136.117705 384.623523 
L 141.961979 361.97855 
L 147.806252 348.182244 
L 153.650525 342.37828 
L 159.494799 331.436382 
L 165.339072 313.168169 
L 171.183345 302.987447 
L 177.027618 292.901871 
L 182.871892 284.814381 
L 188.716165 275.109393 
L 194.560438 263.977201 
L 200.404712 256.270298 
L 206.248985 255.128535 
L 212.093258 239.524437 
L 217.937531 246.279869 
L 223.781805 249.324572 
L 229.626078 253.511037 
L 235.470351 255.413976 
L 241.314624 261.313086 
L 247.158898 251.893539 
L 253.003171 229.819448 
L 258.847444 216.213436 
L 264.691718 214.500791 
L 270.535991 218.592109 
L 276.380264 212.692999 
L 282.224537 221.731958 
L 288.068811 235.05253 
L 293.913084 243.615755 
L 299.757357 246.850751 
L 305.601631 248.087661 
L 311.445904 242.569139 
L 317.290177 230.295183 
L 323.13445 235.718559 
L 328.978724 230.485477 
L 334.822997 246.089576 
L 340.66727 250.751776 
L 346.511544 238.858408 
L 352.355817 238.858408 
L 358.20009 235.05253 
L 364.044363 244.186637 
L 369.888637 246.279869 
L 375.73291 247.992514 
L 381.577183 241.332228 
L 387.421457 243.14002 
L 393.26573 249.514865 
L 399.110003 249.705159 
L 404.954276 251.893539 
L 410.79855 255.413976 
L 416.642823 249.9906 
L 422.487096 250.94207 
L 428.331369 255.509123 
L 434.175643 249.514865 
L 440.019916 259.981029 
L 445.864189 265.118964 
L 451.708463 273.491895 
L 457.552736 279.86674 
L 463.397009 281.389091 
L 469.241282 287.00276 
L 475.085556 287.193054 
L 480.929829 282.150266 
L 486.774102 270.54234 
L 492.618376 266.260727 
L 498.462649 262.74029 
L 504.306922 257.887796 
L 510.151195 258.268384 
L 515.995469 251.608098 
L 521.839742 254.367359 
L 527.684015 250.085747 
L 533.528289 260.932498 
L 539.372562 240.285612 
L 545.216835 225.632983 
L 551.061108 216.879464 
L 556.905382 222.493134 
L 562.749655 228.582538 
L 568.593928 240.190465 
L 574.438201 241.427375 
L 580.282475 229.629155 
L 586.126748 227.821363 
L 591.971021 225.062101 
L 597.815295 210.980354 
L 603.659568 202.036542 
L 609.503841 212.692999 
L 615.348114 201.751101 
L 621.192388 193.663611 
L 627.036661 195.56655 
L 632.880934 198.325811 
L 638.725208 195.090815 
L 644.569481 201.655954 
L 650.413754 213.454175 
L 656.258027 214.595938 
L 662.102301 219.067844 
L 667.946574 217.64064 
L 673.790847 223.730044 
" clip-path="url(#pb249231739)" style="fill: none; stroke: #55a868; stroke-width: 2; stroke-linecap: round"/>
   </g>
   <g id="patch_3">
    <path d="M 66.27864 513.338305 
L 66.27864 19.754031 
" style="fill: none; stroke: #cccccc; stroke-width: 1.25; stroke-linejoin: miter; stroke-linecap: square"/>
   </g>
   <g id="patch_4">
    <path d="M 702.72 513.338305 
L 702.72 19.754031 
" style="fill: none; stroke: #cccccc; stroke-width: 1.25; stroke-linejoin: miter; stroke-linecap: square"/>
   </g>
   <g id="patch_5">
    <path d="M 66.27864 513.338305 
L 702.72 513.338305 
" style="fill: none; stroke: #cccccc; stroke-width: 1.25; stroke-linejoin: miter; stroke-linecap: square"/>
   </g>
   <g id="patch_6">
    <path d="M 66.27864 19.754031 
L 702.72 19.754031 
" style="fill: none; stroke: #cccccc; stroke-width: 1.25; stroke-linejoin: miter; stroke-linecap: square"/>
   </g>
   <g id="legend_1">
    <g id="patch_7">
     <path d="M 80.27864 150.636094 
L 167.529036 150.636094 
Q 171.529036 150.636094 171.529036 146.636094 
L 171.529036 33.754031 
Q 171.529036 29.754031 167.529036 29.754031 
L 80.27864 29.754031 
Q 76.27864 29.754031 76.27864 33.754031 
L 76.27864 146.636094 
Q 76.27864 150.636094 80.27864 150.636094 
z
" style="fill: #ffffff; opacity: 0.8; stroke: #cccccc; stroke-linejoin: miter"/>
    </g>
    <g id="text_15">
     <!-- $\theta_{\mathrm{init}}$ -->
     <g style="fill: #262626" transform="translate(106.157452 54.358436) scale(0.24 -0.24)">
      <defs>
       <path id="CMMI12-12" d="M 2835 3200 
C 2835 3850 2630 4480 2106 4480 
C 1210 4480 256 2615 256 1216 
C 256 923 320 -64 992 -64 
C 1862 -64 2835 1756 2835 3200 
z
M 896 2304 
C 992 2679 1126 3214 1382 3665 
C 1594 4047 1818 4352 2099 4352 
C 2310 4352 2451 4174 2451 3564 
C 2451 3334 2432 3017 2246 2304 
L 896 2304 
z
M 2202 2113 
C 2042 1490 1907 1088 1677 687 
C 1491 363 1267 64 998 64 
C 800 64 640 217 640 846 
C 640 1260 742 1693 845 2113 
L 2202 2113 
z
" transform="scale(0.015625)"/>
       <path id="CMR17-69" d="M 992 3909 
C 992 4049 877 4170 730 4170 
C 589 4170 467 4056 467 3909 
C 467 3769 582 3648 730 3648 
C 870 3648 992 3763 992 3909 
z
M 243 2706 
L 243 2541 
C 602 2541 653 2502 653 2197 
L 653 427 
C 653 184 627 153 218 153 
L 218 -13 
C 371 0 646 0 806 0 
C 960 0 1222 0 1370 -13 
L 1370 153 
C 992 153 979 191 979 420 
L 979 2776 
L 243 2706 
z
" transform="scale(0.015625)"/>
      </defs>
      <use xlink:href="#CMMI12-12" transform="scale(0.996264)"/>
      <use xlink:href="#CMR17-69" transform="translate(45.45979 -14.943915) scale(0.697382)"/>
      <use xlink:href="#CMR17-6e" transform="translate(62.869449 -14.943915) scale(0.697382)"/>
      <use xlink:href="#CMR17-69" transform="translate(98.496057 -14.943915) scale(0.697382)"/>
      <use xlink:href="#CMR17-74" transform="translate(115.905716 -14.943915) scale(0.697382)"/>
     </g>
    </g>
    <g id="line2d_16">
     <path d="M 84.27864 76.009193 
L 104.27864 76.009193 
L 124.27864 76.009193 
" style="fill: none; stroke: #4c72b0; stroke-width: 2; stroke-linecap: round"/>
    </g>
    <g id="text_16">
     <!-- 0.4 -->
     <g style="fill: #262626" transform="translate(140.27864 83.009193) scale(0.2 -0.2)">
      <defs>
       <path id="CMR17-2e" d="M 1062 261 
C 1062 420 934 522 800 522 
C 672 522 538 420 538 261 
C 538 102 666 0 800 0 
C 928 0 1062 102 1062 261 
z
" transform="scale(0.015625)"/>
      </defs>
      <use xlink:href="#CMR17-30" transform="scale(0.996264)"/>
      <use xlink:href="#CMR17-2e" transform="translate(45.690477 0) scale(0.996264)"/>
      <use xlink:href="#CMR17-34" transform="translate(70.561536 0) scale(0.996264)"/>
     </g>
    </g>
    <g id="line2d_17">
     <path d="M 84.27864 103.884827 
L 104.27864 103.884827 
L 124.27864 103.884827 
" style="fill: none; stroke: #dd8452; stroke-width: 2; stroke-linecap: round"/>
    </g>
    <g id="text_17">
     <!-- 0.6 -->
     <g style="fill: #262626" transform="translate(140.27864 110.884827) scale(0.2 -0.2)">
      <use xlink:href="#CMR17-30" transform="scale(0.996264)"/>
      <use xlink:href="#CMR17-2e" transform="translate(45.690477 0) scale(0.996264)"/>
      <use xlink:href="#CMR17-36" transform="translate(70.561536 0) scale(0.996264)"/>
     </g>
    </g>
    <g id="line2d_18">
     <path d="M 84.27864 131.760461 
L 104.27864 131.760461 
L 124.27864 131.760461 
" style="fill: none; stroke: #55a868; stroke-width: 2; stroke-linecap: round"/>
    </g>
    <g id="text_18">
     <!-- 0.8 -->
     <g style="fill: #262626" transform="translate(140.27864 138.760461) scale(0.2 -0.2)">
      <use xlink:href="#CMR17-30" transform="scale(0.996264)"/>
      <use xlink:href="#CMR17-2e" transform="translate(45.690477 0) scale(0.996264)"/>
      <use xlink:href="#CMR17-38" transform="translate(70.561536 0) scale(0.996264)"/>
     </g>
    </g>
   </g>
  </g>
 </g>
 <defs>
  <clipPath id="pb249231739">
   <rect x="66.27864" y="19.754031" width="636.44136" height="493.584274"/>
  </clipPath>
 </defs>
</svg>
