<?xml version="1.0" encoding="utf-8" standalone="no"?>
<!DOCTYPE svg PUBLIC "-//W3C//DTD SVG 1.1//EN"
  "http://www.w3.org/Graphics/SVG/1.1/DTD/svg11.dtd">
<svg xmlns:xlink="http://www.w3.org/1999/xlink" width="720pt" height="576pt" viewBox="0 0 720 576" xmlns="http://www.w3.org/2000/svg" version="1.1">
 <metadata>
  <rdf:RDF xmlns:dc="http://purl.org/dc/elements/1.1/" xmlns:cc="http://creativecommons.org/ns#" xmlns:rdf="http://www.w3.org/1999/02/22-rdf-syntax-ns#">
   <cc:Work>
    <dc:type rdf:resource="http://purl.org/dc/dcmitype/StillImage"/>
    <dc:date>2025-04-25T15:59:56.013428</dc:date>
    <dc:format>image/svg+xml</dc:format>
    <dc:creator>
     <cc:Agent>
      <dc:title>Matplotlib v3.9.2, https://matplotlib.org/</dc:title>
     </cc:Agent>
    </dc:creator>
   </cc:Work>
  </rdf:RDF>
 </metadata>
 <defs>
  <style type="text/css">*{stroke-linejoin: round; stroke-linecap: butt}</style>
 </defs>
 <g id="figure_1">
  <g id="patch_1">
   <path d="M 0 576 
L 720 576 
L 720 0 
L 0 0 
z
" style="fill: #ffffff"/>
  </g>
  <g id="axes_1">
   <g id="patch_2">
    <path d="M 66.27864 513.338305 
L 702.72 513.338305 
L 702.72 17.28 
L 66.27864 17.28 
z
" style="fill: #ffffff"/>
   </g>
   <g id="matplotlib.axis_1">
    <g id="xtick_1">
     <g id="line2d_1">
      <path d="M 95.207792 513.338305 
L 95.207792 17.28 
" clip-path="url(#p37da9bc0b0)" style="fill: none; stroke: #cccccc; stroke-linecap: round"/>
     </g>
     <g id="text_1">
      <!-- $\mathdefault{0}$ -->
      <g style="fill: #262626" transform="translate(91.305799 533.907893) scale(0.16 -0.16)">
       <defs>
        <path id="CMR17-30" d="M 2688 2025 
C 2688 2416 2682 3080 2413 3591 
C 2176 4039 1798 4198 1466 4198 
C 1158 4198 768 4058 525 3597 
C 269 3118 243 2524 243 2025 
C 243 1661 250 1106 448 619 
C 723 -39 1216 -128 1466 -128 
C 1760 -128 2208 -7 2470 600 
C 2662 1042 2688 1559 2688 2025 
z
M 1466 -26 
C 1056 -26 813 325 723 812 
C 653 1188 653 1738 653 2096 
C 653 2588 653 2997 736 3387 
C 858 3929 1216 4096 1466 4096 
C 1728 4096 2067 3923 2189 3400 
C 2272 3036 2278 2607 2278 2096 
C 2278 1680 2278 1169 2202 792 
C 2067 95 1690 -26 1466 -26 
z
" transform="scale(0.015625)"/>
       </defs>
       <use xlink:href="#CMR17-30" transform="scale(0.996264)"/>
      </g>
     </g>
    </g>
    <g id="xtick_2">
     <g id="line2d_2">
      <path d="M 212.093258 513.338305 
L 212.093258 17.28 
" clip-path="url(#p37da9bc0b0)" style="fill: none; stroke: #cccccc; stroke-linecap: round"/>
     </g>
     <g id="text_2">
      <!-- $\mathdefault{200}$ -->
      <g style="fill: #262626" transform="translate(200.387278 533.907893) scale(0.16 -0.16)">
       <defs>
        <path id="CMR17-32" d="M 2669 989 
L 2554 989 
C 2490 536 2438 459 2413 420 
C 2381 369 1920 369 1830 369 
L 602 369 
C 832 619 1280 1072 1824 1597 
C 2214 1967 2669 2402 2669 3035 
C 2669 3790 2067 4224 1395 4224 
C 691 4224 262 3604 262 3030 
C 262 2780 448 2748 525 2748 
C 589 2748 781 2787 781 3010 
C 781 3207 614 3264 525 3264 
C 486 3264 448 3258 422 3245 
C 544 3790 915 4058 1306 4058 
C 1862 4058 2227 3617 2227 3035 
C 2227 2479 1901 2000 1536 1584 
L 262 146 
L 262 0 
L 2515 0 
L 2669 989 
z
" transform="scale(0.015625)"/>
       </defs>
       <use xlink:href="#CMR17-32" transform="scale(0.996264)"/>
       <use xlink:href="#CMR17-30" transform="translate(45.690477 0) scale(0.996264)"/>
       <use xlink:href="#CMR17-30" transform="translate(91.380954 0) scale(0.996264)"/>
      </g>
     </g>
    </g>
    <g id="xtick_3">
     <g id="line2d_3">
      <path d="M 328.978724 513.338305 
L 328.978724 17.28 
" clip-path="url(#p37da9bc0b0)" style="fill: none; stroke: #cccccc; stroke-linecap: round"/>
     </g>
     <g id="text_3">
      <!-- $\mathdefault{400}$ -->
      <g style="fill: #262626" transform="translate(317.272743 533.907893) scale(0.16 -0.16)">
       <defs>
        <path id="CMR17-34" d="M 2150 4122 
C 2150 4256 2144 4256 2029 4256 
L 128 1254 
L 128 1088 
L 1779 1088 
L 1779 457 
C 1779 224 1766 160 1318 160 
L 1197 160 
L 1197 0 
C 1402 0 1747 0 1965 0 
C 2182 0 2528 0 2733 0 
L 2733 160 
L 2611 160 
C 2163 160 2150 224 2150 457 
L 2150 1088 
L 2803 1088 
L 2803 1254 
L 2150 1254 
L 2150 4122 
z
M 1798 3703 
L 1798 1254 
L 256 1254 
L 1798 3703 
z
" transform="scale(0.015625)"/>
       </defs>
       <use xlink:href="#CMR17-34" transform="scale(0.996264)"/>
       <use xlink:href="#CMR17-30" transform="translate(45.690477 0) scale(0.996264)"/>
       <use xlink:href="#CMR17-30" transform="translate(91.380954 0) scale(0.996264)"/>
      </g>
     </g>
    </g>
    <g id="xtick_4">
     <g id="line2d_4">
      <path d="M 445.864189 513.338305 
L 445.864189 17.28 
" clip-path="url(#p37da9bc0b0)" style="fill: none; stroke: #cccccc; stroke-linecap: round"/>
     </g>
     <g id="text_4">
      <!-- $\mathdefault{600}$ -->
      <g style="fill: #262626" transform="translate(434.158209 533.907893) scale(0.16 -0.16)">
       <defs>
        <path id="CMR17-36" d="M 678 2176 
C 678 3690 1395 4032 1811 4032 
C 1946 4032 2272 4009 2400 3776 
C 2298 3776 2106 3776 2106 3553 
C 2106 3381 2246 3323 2336 3323 
C 2394 3323 2566 3348 2566 3560 
C 2566 3954 2246 4179 1805 4179 
C 1043 4179 243 3390 243 1984 
C 243 253 966 -128 1478 -128 
C 2099 -128 2688 427 2688 1283 
C 2688 2081 2170 2662 1517 2662 
C 1126 2662 838 2407 678 1960 
L 678 2176 
z
M 1478 25 
C 691 25 691 1200 691 1436 
C 691 1896 909 2560 1504 2560 
C 1613 2560 1926 2560 2138 2120 
C 2253 1870 2253 1609 2253 1289 
C 2253 944 2253 690 2118 434 
C 1978 171 1773 25 1478 25 
z
" transform="scale(0.015625)"/>
       </defs>
       <use xlink:href="#CMR17-36" transform="scale(0.996264)"/>
       <use xlink:href="#CMR17-30" transform="translate(45.690477 0) scale(0.996264)"/>
       <use xlink:href="#CMR17-30" transform="translate(91.380954 0) scale(0.996264)"/>
      </g>
     </g>
    </g>
    <g id="xtick_5">
     <g id="line2d_5">
      <path d="M 562.749655 513.338305 
L 562.749655 17.28 
" clip-path="url(#p37da9bc0b0)" style="fill: none; stroke: #cccccc; stroke-linecap: round"/>
     </g>
     <g id="text_5">
      <!-- $\mathdefault{800}$ -->
      <g style="fill: #262626" transform="translate(551.043674 533.907893) scale(0.16 -0.16)">
       <defs>
        <path id="CMR17-38" d="M 1741 2264 
C 2144 2467 2554 2773 2554 3263 
C 2554 3841 1990 4179 1472 4179 
C 890 4179 378 3759 378 3180 
C 378 3021 416 2747 666 2505 
C 730 2442 998 2251 1171 2130 
C 883 1983 211 1634 211 934 
C 211 279 838 -128 1459 -128 
C 2144 -128 2720 362 2720 1010 
C 2720 1590 2330 1857 2074 2029 
L 1741 2264 
z
M 902 2822 
C 851 2854 595 3051 595 3351 
C 595 3739 998 4032 1459 4032 
C 1965 4032 2336 3676 2336 3262 
C 2336 2669 1670 2331 1638 2331 
C 1632 2331 1626 2331 1574 2370 
L 902 2822 
z
M 2080 1519 
C 2176 1449 2483 1240 2483 851 
C 2483 381 2010 25 1472 25 
C 890 25 448 438 448 940 
C 448 1443 838 1862 1280 2060 
L 2080 1519 
z
" transform="scale(0.015625)"/>
       </defs>
       <use xlink:href="#CMR17-38" transform="scale(0.996264)"/>
       <use xlink:href="#CMR17-30" transform="translate(45.690477 0) scale(0.996264)"/>
       <use xlink:href="#CMR17-30" transform="translate(91.380954 0) scale(0.996264)"/>
      </g>
     </g>
    </g>
    <g id="xtick_6">
     <g id="line2d_6">
      <path d="M 679.635121 513.338305 
L 679.635121 17.28 
" clip-path="url(#p37da9bc0b0)" style="fill: none; stroke: #cccccc; stroke-linecap: round"/>
     </g>
     <g id="text_6">
      <!-- $\mathdefault{1000}$ -->
      <g style="fill: #262626" transform="translate(664.027147 533.907893) scale(0.16 -0.16)">
       <defs>
        <path id="CMR17-31" d="M 1702 4058 
C 1702 4192 1696 4192 1606 4192 
C 1357 3916 979 3827 621 3827 
C 602 3827 570 3827 563 3808 
C 557 3795 557 3782 557 3648 
C 755 3648 1088 3686 1344 3839 
L 1344 461 
C 1344 236 1331 160 781 160 
L 589 160 
L 589 0 
C 896 0 1216 0 1523 0 
C 1830 0 2150 0 2458 0 
L 2458 160 
L 2266 160 
C 1715 160 1702 230 1702 458 
L 1702 4058 
z
" transform="scale(0.015625)"/>
       </defs>
       <use xlink:href="#CMR17-31" transform="scale(0.996264)"/>
       <use xlink:href="#CMR17-30" transform="translate(45.690477 0) scale(0.996264)"/>
       <use xlink:href="#CMR17-30" transform="translate(91.380954 0) scale(0.996264)"/>
       <use xlink:href="#CMR17-30" transform="translate(137.071431 0) scale(0.996264)"/>
      </g>
     </g>
    </g>
    <g id="text_7">
     <!-- Step -->
     <g style="fill: #262626" transform="translate(366.743615 554.844366) scale(0.2 -0.2)">
      <defs>
       <path id="CMR17-53" d="M 2803 4290 
C 2803 4404 2797 4411 2758 4411 
C 2720 4411 2707 4385 2682 4328 
L 2490 3907 
C 2246 4257 1875 4416 1472 4416 
C 819 4416 294 3901 294 3253 
C 294 3056 339 2776 557 2510 
C 794 2218 1018 2167 1530 2033 
C 1722 1982 2042 1899 2106 1874 
C 2470 1722 2662 1341 2662 985 
C 2662 527 2336 38 1779 38 
C 1094 38 454 419 410 1311 
C 403 1413 397 1419 352 1419 
C 301 1419 294 1413 294 1285 
L 294 -1 
C 294 -115 301 -122 339 -122 
C 384 -122 397 -90 486 108 
C 493 127 493 140 614 381 
C 934 -39 1472 -128 1779 -128 
C 2477 -128 2970 451 2970 1124 
C 2970 1454 2848 1708 2778 1823 
C 2509 2230 2221 2306 1914 2382 
C 1869 2402 1856 2402 1498 2490 
C 1152 2579 1005 2624 845 2796 
C 666 2992 602 3196 602 3399 
C 602 3812 934 4263 1478 4263 
C 2157 4263 2579 3786 2675 2993 
C 2694 2878 2701 2872 2746 2872 
C 2803 2872 2803 2891 2803 2999 
L 2803 4290 
z
" transform="scale(0.015625)"/>
       <path id="CMR17-74" d="M 966 2560 
L 1862 2560 
L 1862 2725 
L 966 2725 
L 966 3904 
L 851 3904 
C 838 3245 614 2668 70 2668 
L 70 2560 
L 627 2560 
L 627 771 
C 627 650 627 -64 1370 -64 
C 1747 -64 1965 306 1965 777 
L 1965 1140 
L 1850 1140 
L 1850 783 
C 1850 344 1677 51 1408 51 
C 1222 51 966 178 966 758 
L 966 2560 
z
" transform="scale(0.015625)"/>
       <path id="CMR17-65" d="M 2438 1472 
C 2464 1498 2464 1511 2464 1576 
C 2464 2238 2118 2816 1389 2816 
C 710 2816 173 2169 173 1383 
C 173 551 781 -64 1459 -64 
C 2176 -64 2458 607 2458 740 
C 2458 784 2419 784 2406 784 
C 2362 784 2355 771 2330 696 
C 2189 265 1837 51 1504 51 
C 1229 51 954 203 781 480 
C 582 803 582 1176 582 1472 
L 2438 1472 
z
M 589 1568 
C 634 2505 1126 2714 1382 2714 
C 1818 2714 2112 2297 2118 1568 
L 589 1568 
z
" transform="scale(0.015625)"/>
       <path id="CMR17-70" d="M 1408 -1063 
C 998 -1063 973 -1037 973 -789 
L 973 402 
C 1158 134 1427 -38 1766 -38 
C 2406 -38 3053 523 3053 1388 
C 3053 2191 2496 2802 1837 2802 
C 1453 2802 1139 2592 960 2338 
L 960 2802 
L 198 2732 
L 198 2567 
C 576 2567 634 2528 634 2223 
L 634 -789 
C 634 -1031 608 -1063 198 -1063 
L 198 -1228 
C 352 -1216 634 -1216 800 -1216 
C 966 -1216 1254 -1216 1408 -1228 
L 1408 -1063 
z
M 973 2012 
C 973 2102 973 2235 1222 2471 
C 1254 2497 1472 2688 1792 2688 
C 2259 2688 2643 2108 2643 1382 
C 2643 656 2234 64 1728 64 
C 1498 64 1248 172 1056 472 
C 973 612 973 650 973 752 
L 973 2012 
z
" transform="scale(0.015625)"/>
      </defs>
      <use xlink:href="#CMR17-53" transform="scale(0.996264)"/>
      <use xlink:href="#CMR17-74" transform="translate(50.89537 0) scale(0.996264)"/>
      <use xlink:href="#CMR17-65" transform="translate(86.176138 0) scale(0.996264)"/>
      <use xlink:href="#CMR17-70" transform="translate(126.661798 0) scale(0.996264)"/>
     </g>
    </g>
   </g>
   <g id="matplotlib.axis_2">
    <g id="ytick_1">
     <g id="line2d_7">
      <path d="M 66.27864 502.875352 
L 702.72 502.875352 
" clip-path="url(#p37da9bc0b0)" style="fill: none; stroke: #cccccc; stroke-linecap: round"/>
     </g>
     <g id="text_8">
      <!-- $\mathdefault{10}$ -->
      <g style="fill: #262626" transform="translate(41.170666 508.410147) scale(0.16 -0.16)">
       <use xlink:href="#CMR17-31" transform="scale(0.996264)"/>
       <use xlink:href="#CMR17-30" transform="translate(45.690477 0) scale(0.996264)"/>
      </g>
     </g>
    </g>
    <g id="ytick_2">
     <g id="line2d_8">
      <path d="M 66.27864 409.912645 
L 702.72 409.912645 
" clip-path="url(#p37da9bc0b0)" style="fill: none; stroke: #cccccc; stroke-linecap: round"/>
     </g>
     <g id="text_9">
      <!-- $\mathdefault{12}$ -->
      <g style="fill: #262626" transform="translate(41.170666 415.447439) scale(0.16 -0.16)">
       <use xlink:href="#CMR17-31" transform="scale(0.996264)"/>
       <use xlink:href="#CMR17-32" transform="translate(45.690477 0) scale(0.996264)"/>
      </g>
     </g>
    </g>
    <g id="ytick_3">
     <g id="line2d_9">
      <path d="M 66.27864 316.949937 
L 702.72 316.949937 
" clip-path="url(#p37da9bc0b0)" style="fill: none; stroke: #cccccc; stroke-linecap: round"/>
     </g>
     <g id="text_10">
      <!-- $\mathdefault{14}$ -->
      <g style="fill: #262626" transform="translate(41.170666 322.484731) scale(0.16 -0.16)">
       <use xlink:href="#CMR17-31" transform="scale(0.996264)"/>
       <use xlink:href="#CMR17-34" transform="translate(45.690477 0) scale(0.996264)"/>
      </g>
     </g>
    </g>
    <g id="ytick_4">
     <g id="line2d_10">
      <path d="M 66.27864 223.987229 
L 702.72 223.987229 
" clip-path="url(#p37da9bc0b0)" style="fill: none; stroke: #cccccc; stroke-linecap: round"/>
     </g>
     <g id="text_11">
      <!-- $\mathdefault{16}$ -->
      <g style="fill: #262626" transform="translate(41.170666 229.522023) scale(0.16 -0.16)">
       <use xlink:href="#CMR17-31" transform="scale(0.996264)"/>
       <use xlink:href="#CMR17-36" transform="translate(45.690477 0) scale(0.996264)"/>
      </g>
     </g>
    </g>
    <g id="ytick_5">
     <g id="line2d_11">
      <path d="M 66.27864 131.024521 
L 702.72 131.024521 
" clip-path="url(#p37da9bc0b0)" style="fill: none; stroke: #cccccc; stroke-linecap: round"/>
     </g>
     <g id="text_12">
      <!-- $\mathdefault{18}$ -->
      <g style="fill: #262626" transform="translate(41.170666 136.559315) scale(0.16 -0.16)">
       <use xlink:href="#CMR17-31" transform="scale(0.996264)"/>
       <use xlink:href="#CMR17-38" transform="translate(45.690477 0) scale(0.996264)"/>
      </g>
     </g>
    </g>
    <g id="ytick_6">
     <g id="line2d_12">
      <path d="M 66.27864 38.061813 
L 702.72 38.061813 
" clip-path="url(#p37da9bc0b0)" style="fill: none; stroke: #cccccc; stroke-linecap: round"/>
     </g>
     <g id="text_13">
      <!-- $\mathdefault{20}$ -->
      <g style="fill: #262626" transform="translate(41.170666 43.596607) scale(0.16 -0.16)">
       <use xlink:href="#CMR17-32" transform="scale(0.996264)"/>
       <use xlink:href="#CMR17-30" transform="translate(45.690477 0) scale(0.996264)"/>
      </g>
     </g>
    </g>
    <g id="text_14">
     <!-- PSNR (dB) -->
     <g style="fill: #262626" transform="translate(32.206022 312.015816) rotate(-90) scale(0.2 -0.2)">
      <defs>
       <path id="CMR17-50" d="M 1267 2042 
L 2291 2042 
C 3117 2042 3718 2578 3718 3184 
C 3718 3791 3130 4352 2291 4352 
L 333 4352 
L 333 4186 
C 774 4186 845 4186 845 3899 
L 845 446 
C 845 160 774 160 333 160 
L 333 0 
C 518 0 858 0 1056 0 
C 1254 0 1594 0 1779 0 
L 1779 160 
C 1338 160 1267 160 1267 446 
L 1267 2042 
z
M 1254 2176 
L 1254 3938 
C 1254 4155 1267 4186 1523 4186 
L 2170 4186 
C 2995 4186 3232 3714 3232 3184 
C 3232 2604 2950 2176 2170 2176 
L 1254 2176 
z
" transform="scale(0.015625)"/>
       <path id="CMR17-4e" d="M 1312 4250 
C 1267 4320 1261 4320 1139 4320 
L 326 4320 
L 326 4160 
L 448 4160 
C 704 4160 819 4129 838 4122 
L 838 610 
C 838 451 838 153 326 153 
L 326 -13 
C 474 0 742 0 902 0 
C 1062 0 1331 0 1478 -13 
L 1478 153 
C 966 153 966 451 966 610 
L 966 4033 
C 1011 3995 1011 3982 1056 3919 
L 3430 76 
C 3475 0 3494 0 3526 0 
C 3590 0 3590 19 3590 139 
L 3590 3705 
C 3590 3863 3590 4160 4102 4160 
L 4102 4326 
C 3955 4320 3686 4320 3526 4320 
C 3366 4320 3098 4320 2950 4326 
L 2950 4160 
C 3462 4160 3462 3862 3462 3703 
L 3462 763 
L 1312 4250 
z
" transform="scale(0.015625)"/>
       <path id="CMR17-52" d="M 2509 2146 
C 3117 2268 3629 2676 3629 3186 
C 3629 3785 2950 4326 2054 4326 
L 333 4326 
L 333 4160 
C 774 4160 845 4160 845 3873 
L 845 415 
C 845 128 774 128 333 128 
L 333 -26 
C 518 -26 851 -26 1050 -26 
C 1248 -26 1581 -26 1766 -26 
L 1766 128 
C 1325 128 1254 128 1254 417 
L 1254 2112 
L 2003 2112 
C 2368 2112 2573 1964 2662 1881 
C 2918 1632 2918 1459 2918 1024 
C 2918 595 2918 377 3110 160 
C 3354 -102 3680 -128 3821 -128 
C 4294 -128 4365 396 4365 503 
C 4365 540 4365 585 4307 585 
C 4256 585 4250 547 4250 522 
C 4218 112 4032 -26 3834 -26 
C 3482 -26 3443 375 3405 764 
C 3386 898 3373 993 3360 1133 
C 3322 1452 3270 1917 2509 2146 
z
M 1984 2214 
L 1254 2214 
L 1254 3913 
C 1254 4129 1267 4160 1523 4160 
L 1990 4160 
C 2522 4160 3142 3977 3142 3190 
C 3142 2372 2464 2214 1984 2214 
z
" transform="scale(0.015625)"/>
       <path id="CMR17-28" d="M 1958 -1561 
C 1958 -1555 1958 -1542 1939 -1523 
C 1645 -1224 858 -407 858 1581 
C 858 3569 1632 4379 1946 4697 
C 1946 4704 1958 4717 1958 4736 
C 1958 4755 1939 4768 1914 4768 
C 1843 4768 1299 4296 986 3594 
C 666 2887 576 2199 576 1588 
C 576 1128 621 351 1005 -471 
C 1312 -1135 1837 -1600 1914 -1600 
C 1946 -1600 1958 -1587 1958 -1561 
z
" transform="scale(0.015625)"/>
       <path id="CMR17-64" d="M 1869 4326 
L 1869 4160 
C 2246 4160 2304 4122 2304 3820 
L 2304 2345 
C 2278 2377 2016 2790 1498 2790 
C 845 2790 211 2208 211 1364 
C 211 525 806 -64 1434 -64 
C 1978 -64 2259 337 2291 380 
L 2291 -63 
L 3066 -63 
L 3066 128 
C 2688 128 2630 166 2630 473 
L 2630 4396 
L 1869 4326 
z
M 2291 755 
C 2291 563 2176 390 2029 262 
C 1811 70 1594 38 1472 38 
C 1286 38 621 134 621 1356 
C 621 2612 1363 2688 1530 2688 
C 1824 2688 2061 2522 2208 2291 
C 2291 2157 2291 2138 2291 2023 
L 2291 755 
z
" transform="scale(0.015625)"/>
       <path id="CMR17-42" d="M 333 4352 
L 333 4186 
C 774 4186 845 4186 845 3900 
L 845 452 
C 845 166 774 166 333 166 
L 333 0 
L 2534 0 
C 3354 0 3885 583 3885 1164 
C 3885 1741 3360 2233 2675 2233 
C 3290 2356 3718 2771 3718 3264 
C 3718 3802 3194 4352 2368 4352 
L 333 4352 
z
M 1248 2304 
L 1248 3937 
C 1248 4155 1261 4186 1517 4186 
L 2336 4186 
C 2970 4186 3251 3674 3251 3277 
C 3251 2791 2861 2304 2170 2304 
L 1248 2304 
z
M 1517 166 
C 1261 166 1248 197 1248 413 
L 1248 2202 
L 2432 2202 
C 3091 2202 3411 1625 3411 1162 
C 3411 699 3046 166 2349 166 
L 1517 166 
z
" transform="scale(0.015625)"/>
       <path id="CMR17-29" d="M 1683 1581 
C 1683 2040 1638 2817 1254 3639 
C 947 4303 422 4768 346 4768 
C 326 4768 301 4761 301 4729 
C 301 4717 307 4710 314 4697 
C 621 4378 1402 3568 1402 1584 
C 1402 -407 627 -1217 314 -1537 
C 307 -1549 301 -1556 301 -1568 
C 301 -1600 326 -1600 346 -1600 
C 416 -1600 960 -1128 1274 -426 
C 1594 281 1683 969 1683 1581 
z
" transform="scale(0.015625)"/>
      </defs>
      <use xlink:href="#CMR17-50" transform="scale(0.996264)"/>
      <use xlink:href="#CMR17-53" transform="translate(62.586301 0) scale(0.996264)"/>
      <use xlink:href="#CMR17-4e" transform="translate(113.48167 0) scale(0.996264)"/>
      <use xlink:href="#CMR17-52" transform="translate(182.5541 0) scale(0.996264)"/>
      <use xlink:href="#CMR17-28" transform="translate(280.421168 0) scale(0.996264)"/>
      <use xlink:href="#CMR17-64" transform="translate(315.701936 0) scale(0.996264)"/>
      <use xlink:href="#CMR17-42" transform="translate(366.597306 0) scale(0.996264)"/>
      <use xlink:href="#CMR17-29" transform="translate(431.78606 0) scale(0.996264)"/>
     </g>
    </g>
   </g>
   <g id="PolyCollection_1">
    <defs>
     <path id="mad28bd3573" d="M 95.207792 -343.952904 
L 95.207792 -302.812258 
L 101.052066 -309.384721 
L 106.896339 -320.726172 
L 112.740612 -323.133906 
L 118.584886 -303.867385 
L 124.429159 -328.311929 
L 130.273432 -326.345767 
L 136.117705 -308.850186 
L 141.961979 -328.302632 
L 147.806252 -323.468572 
L 153.650525 -328.060929 
L 159.494799 -330.794033 
L 165.339072 -324.388902 
L 171.183345 -333.56897 
L 177.027618 -333.341211 
L 182.871892 -333.606155 
L 188.716165 -334.926225 
L 194.560438 -327.098765 
L 200.404712 -334.280135 
L 206.248985 -333.86645 
L 212.093258 -333.84321 
L 217.937531 -333.192471 
L 223.781805 -328.074874 
L 229.626078 -331.788734 
L 235.470351 -317.704884 
L 241.314624 -301.413169 
L 247.158898 -299.786322 
L 253.003171 -299.423767 
L 258.847444 -298.777676 
L 264.691718 -327.503153 
L 270.535991 -331.728308 
L 276.380264 -331.22631 
L 282.224537 -329.376352 
L 288.068811 -329.910887 
L 293.913084 -329.404241 
L 299.757357 -329.213667 
L 305.601631 -329.841165 
L 311.445904 -328.623354 
L 317.290177 -328.576872 
L 323.13445 -327.707671 
L 328.978724 -309.022167 
L 334.822997 -319.7826 
L 340.66727 -324.300588 
L 346.511544 -325.471918 
L 352.355817 -325.151197 
L 358.20009 -324.774698 
L 364.044363 -327.094117 
L 369.888637 -324.528346 
L 375.73291 -325.2674 
L 381.577183 -326.568878 
L 387.421457 -85.2098 
L 393.26573 -86.060408 
L 399.110003 -89.653417 
L 404.954276 -88.458846 
L 410.79855 -95.793604 
L 416.642823 -96.012066 
L 422.487096 -96.007418 
L 428.331369 -96.016714 
L 434.175643 -96.007418 
L 440.019916 -95.365975 
L 445.864189 -95.235828 
L 451.708463 -95.616975 
L 457.552736 -96.458287 
L 463.397009 -97.880617 
L 469.241282 -97.006767 
L 475.085556 -96.40251 
L 480.929829 -101.385311 
L 486.774102 -102.519456 
L 492.618376 -107.139702 
L 498.462649 -107.153647 
L 504.306922 -105.447781 
L 510.151195 -107.186184 
L 515.995469 -107.214073 
L 521.839742 -107.265202 
L 527.684015 -103.188787 
L 533.528289 -104.615765 
L 539.372562 -103.063288 
L 545.216835 -102.096476 
L 551.061108 -101.989568 
L 556.905382 -101.882661 
L 562.749655 -101.115719 
L 568.593928 -102.872714 
L 574.438201 -107.172239 
L 580.282475 -107.24661 
L 586.126748 -107.116462 
L 591.971021 -107.293091 
L 597.815295 -105.726669 
L 603.659568 -104.401951 
L 609.503841 -104.206729 
L 615.348114 -104.216025 
L 621.192388 -104.285747 
L 627.036661 -104.625061 
L 632.880934 -101.204034 
L 638.725208 -101.296996 
L 644.569481 -104.838875 
L 650.413754 -106.121761 
L 656.258027 -106.405297 
L 662.102301 -107.04674 
L 667.946574 -106.832925 
L 673.790847 -106.832925 
L 673.790847 -260.449152 
L 673.790847 -260.449152 
L 667.946574 -259.496284 
L 662.102301 -274.58878 
L 656.258027 -289.383795 
L 650.413754 -283.503904 
L 644.569481 -289.016592 
L 638.725208 -286.836617 
L 632.880934 -286.051082 
L 627.036661 -286.95282 
L 621.192388 -284.930881 
L 615.348114 -266.928653 
L 609.503841 -268.60663 
L 603.659568 -269.164406 
L 597.815295 -265.227435 
L 591.971021 -268.416056 
L 586.126748 -270.805198 
L 580.282475 -272.780655 
L 574.438201 -262.006277 
L 568.593928 -267.85828 
L 562.749655 -272.24612 
L 556.905382 -266.821746 
L 551.061108 -271.451288 
L 545.216835 -265.292509 
L 539.372562 -273.408153 
L 533.528289 -275.70898 
L 527.684015 -290.252996 
L 521.839742 -293.822764 
L 515.995469 -317.43994 
L 510.151195 -306.846839 
L 504.306922 -299.93971 
L 498.462649 -291.726455 
L 492.618376 -264.316401 
L 486.774102 -245.482156 
L 480.929829 -243.971512 
L 475.085556 -245.212564 
L 469.241282 -245.984155 
L 463.397009 -245.542582 
L 457.552736 -244.478159 
L 451.708463 -219.578098 
L 445.864189 -212.522228 
L 440.019916 -187.919647 
L 434.175643 -190.1554 
L 428.331369 -192.168043 
L 422.487096 -180.808 
L 416.642823 -181.068296 
L 410.79855 -161.741349 
L 404.954276 -156.289086 
L 399.110003 -155.122404 
L 393.26573 -154.229962 
L 387.421457 -114.883496 
L 381.577183 -460.686176 
L 375.73291 -459.287088 
L 369.888637 -456.526095 
L 364.044363 -455.280395 
L 358.20009 -455.275747 
L 352.355817 -444.952238 
L 346.511544 -451.064536 
L 340.66727 -464.088612 
L 334.822997 -452.965624 
L 328.978724 -459.203421 
L 323.13445 -484.228982 
L 317.290177 -490.550446 
L 311.445904 -491.800795 
L 305.601631 -472.078756 
L 299.757357 -470.837704 
L 293.913084 -464.344259 
L 288.068811 -460.500251 
L 282.224537 -428.683764 
L 276.380264 -430.408223 
L 270.535991 -431.026425 
L 264.691718 -445.798199 
L 258.847444 -439.286161 
L 253.003171 -436.999279 
L 247.158898 -465.292479 
L 241.314624 -462.833615 
L 235.470351 -468.532229 
L 229.626078 -470.265984 
L 223.781805 -473.333753 
L 217.937531 -452.570532 
L 212.093258 -456.474966 
L 206.248985 -460.184178 
L 200.404712 -455.396598 
L 194.560438 -449.907151 
L 188.716165 -447.736471 
L 182.871892 -449.265708 
L 177.027618 -447.271658 
L 171.183345 -447.243769 
L 165.339072 -437.264222 
L 159.494799 -430.701055 
L 153.650525 -425.560217 
L 147.806252 -421.158433 
L 141.961979 -425.787976 
L 136.117705 -422.906132 
L 130.273432 -424.625942 
L 124.429159 -421.88819 
L 118.584886 -416.30578 
L 112.740612 -408.390005 
L 106.896339 -390.982738 
L 101.052066 -372.515696 
L 95.207792 -343.952904 
z
" style="stroke: #ffffff; stroke-opacity: 0.2"/>
    </defs>
    <g clip-path="url(#p37da9bc0b0)">
     <use xlink:href="#mad28bd3573" x="0" y="576" style="fill: #4c72b0; fill-opacity: 0.2; stroke: #ffffff; stroke-opacity: 0.2"/>
    </g>
   </g>
   <g id="PolyCollection_2">
    <defs>
     <path id="md38fa768c8" d="M 95.207792 -354.587838 
L 95.207792 -304.332198 
L 101.052066 -314.84628 
L 106.896339 -315.789852 
L 112.740612 -318.471826 
L 118.584886 -319.736119 
L 124.429159 -319.341027 
L 130.273432 -324.384254 
L 136.117705 -324.388902 
L 141.961979 -323.631256 
L 147.806252 -326.410841 
L 153.650525 -322.05089 
L 159.494799 -326.671137 
L 165.339072 -327.163839 
L 171.183345 -327.266098 
L 177.027618 -327.266098 
L 182.871892 -328.311929 
L 188.716165 -328.288688 
L 194.560438 -328.330521 
L 200.404712 -327.419487 
L 206.248985 -326.680433 
L 212.093258 -330.910236 
L 217.937531 -330.747552 
L 223.781805 -331.737604 
L 229.626078 -331.951419 
L 235.470351 -331.770141 
L 241.314624 -332.67188 
L 247.158898 -310.955791 
L 253.003171 -309.626424 
L 258.847444 -310.170256 
L 264.691718 -310.230682 
L 270.535991 -314.260615 
L 276.380264 -322.57613 
L 282.224537 -331.058977 
L 288.068811 -336.26024 
L 293.913084 -336.027833 
L 299.757357 -335.651334 
L 305.601631 -335.530483 
L 311.445904 -331.254198 
L 317.290177 -329.320574 
L 323.13445 -327.823874 
L 328.978724 -327.828523 
L 334.822997 -327.86106 
L 340.66727 -327.791338 
L 346.511544 -327.791338 
L 352.355817 -328.795335 
L 358.20009 -329.60411 
L 364.044363 -328.804631 
L 369.888637 -325.527696 
L 375.73291 -327.140599 
L 381.577183 -327.624005 
L 387.421457 -91.926355 
L 393.26573 -93.246426 
L 399.110003 -91.089691 
L 404.954276 -95.407809 
L 410.79855 -94.343386 
L 416.642823 -93.269666 
L 422.487096 -90.420359 
L 428.331369 -93.018667 
L 434.175643 -93.330092 
L 440.019916 -91.122228 
L 445.864189 -90.545859 
L 451.708463 -90.922358 
L 457.552736 -93.539258 
L 463.397009 -99.69339 
L 469.241282 -101.831532 
L 475.085556 -101.552644 
L 480.929829 -101.775754 
L 486.774102 -101.71068 
L 492.618376 -101.529403 
L 498.462649 -101.76181 
L 504.306922 -101.71068 
L 510.151195 -102.105772 
L 515.995469 -101.515459 
L 521.839742 -100.790349 
L 527.684015 -100.794998 
L 533.528289 -100.413851 
L 539.372562 -101.078534 
L 545.216835 -98.642911 
L 551.061108 -98.452337 
L 556.905382 -97.620321 
L 562.749655 -95.184698 
L 568.593928 -94.445645 
L 574.438201 -94.361978 
L 580.282475 -93.771665 
L 586.126748 -93.669406 
L 591.971021 -92.907112 
L 597.815295 -92.739779 
L 603.659568 -93.669406 
L 609.503841 -93.669406 
L 615.348114 -93.743776 
L 621.192388 -94.459589 
L 627.036661 -94.891866 
L 632.880934 -94.891866 
L 638.725208 -94.891866 
L 644.569481 -94.891866 
L 650.413754 -94.994125 
L 656.258027 -94.989477 
L 662.102301 -93.622925 
L 667.946574 -93.622925 
L 673.790847 -93.622925 
L 673.790847 -257.023476 
L 673.790847 -257.023476 
L 667.946574 -274.421447 
L 662.102301 -278.363066 
L 656.258027 -215.892126 
L 650.413754 -218.090694 
L 644.569481 -218.113935 
L 638.725208 -218.787914 
L 632.880934 -221.962591 
L 627.036661 -222.892218 
L 621.192388 -223.119977 
L 615.348114 -240.015949 
L 609.503841 -244.887195 
L 603.659568 -250.40918 
L 597.815295 -250.316217 
L 591.971021 -250.279032 
L 586.126748 -250.437068 
L 580.282475 -254.815612 
L 574.438201 -259.268526 
L 568.593928 -273.803245 
L 562.749655 -267.760669 
L 556.905382 -262.187555 
L 551.061108 -260.421263 
L 545.216835 -238.621508 
L 539.372562 -232.732321 
L 533.528289 -222.841089 
L 527.684015 -222.520367 
L 521.839742 -221.785962 
L 515.995469 -221.618629 
L 510.151195 -224.323844 
L 504.306922 -242.135499 
L 498.462649 -256.19146 
L 492.618376 -250.813567 
L 486.774102 -249.000795 
L 480.929829 -233.234319 
L 475.085556 -219.810504 
L 469.241282 -227.84713 
L 463.397009 -214.18626 
L 457.552736 -221.237482 
L 451.708463 -235.911645 
L 445.864189 -231.193788 
L 440.019916 -208.919923 
L 434.175643 -208.580609 
L 428.331369 -209.435866 
L 422.487096 -209.798421 
L 416.642823 -206.619096 
L 410.79855 -202.477607 
L 404.954276 -167.439963 
L 399.110003 -164.237398 
L 393.26573 -129.562308 
L 387.421457 -124.249489 
L 381.577183 -492.223775 
L 375.73291 -500.13955 
L 369.888637 -496.067783 
L 364.044363 -520.001032 
L 358.20009 -527.5589 
L 352.355817 -531.728278 
L 346.511544 -533.308644 
L 340.66727 -536.171895 
L 334.822997 -525.123277 
L 328.978724 -498.308184 
L 323.13445 -484.712388 
L 317.290177 -479.288014 
L 311.445904 -484.270815 
L 305.601631 -488.110175 
L 299.757357 -489.848578 
L 293.913084 -475.667117 
L 288.068811 -476.206301 
L 282.224537 -456.73991 
L 276.380264 -464.572018 
L 270.535991 -467.700213 
L 264.691718 -442.762966 
L 258.847444 -467.123844 
L 253.003171 -477.926111 
L 247.158898 -487.120122 
L 241.314624 -497.643501 
L 235.470351 -506.958364 
L 229.626078 -499.986161 
L 223.781805 -511.095205 
L 217.937531 -503.639596 
L 212.093258 -499.549236 
L 206.248985 -508.487601 
L 200.404712 -495.565784 
L 194.560438 -485.005221 
L 188.716165 -476.950002 
L 182.871892 -456.512151 
L 177.027618 -460.142345 
L 171.183345 -461.481008 
L 165.339072 -454.22062 
L 159.494799 -451.580479 
L 153.650525 -445.602977 
L 147.806252 -443.167354 
L 141.961979 -432.927512 
L 136.117705 -435.339894 
L 130.273432 -435.135376 
L 124.429159 -423.357001 
L 118.584886 -422.394837 
L 112.740612 -407.38136 
L 106.896339 -393.897119 
L 101.052066 -395.235782 
L 95.207792 -354.587838 
z
" style="stroke: #ffffff; stroke-opacity: 0.2"/>
    </defs>
    <g clip-path="url(#p37da9bc0b0)">
     <use xlink:href="#md38fa768c8" x="0" y="576" style="fill: #dd8452; fill-opacity: 0.2; stroke: #ffffff; stroke-opacity: 0.2"/>
    </g>
   </g>
   <g id="PolyCollection_3">
    <defs>
     <path id="mb0b30be8dc" d="M 95.207792 -380.194416 
L 95.207792 -300.33945 
L 101.052066 -298.089752 
L 106.896339 -311.987677 
L 112.740612 -316.356924 
L 118.584886 -320.13121 
L 124.429159 -319.238768 
L 130.273432 -315.111224 
L 136.117705 -324.797938 
L 141.961979 -322.752759 
L 147.806252 -319.619916 
L 153.650525 -326.331823 
L 159.494799 -326.420138 
L 165.339072 -326.406193 
L 171.183345 -326.406193 
L 177.027618 -326.029694 
L 182.871892 -326.480563 
L 188.716165 -327.238209 
L 194.560438 -327.293987 
L 200.404712 -327.252154 
L 206.248985 -327.266098 
L 212.093258 -327.266098 
L 217.937531 -327.331172 
L 223.781805 -325.06753 
L 229.626078 -321.916094 
L 235.470351 -308.961741 
L 241.314624 -329.627351 
L 247.158898 -329.278741 
L 253.003171 -327.651893 
L 258.847444 -327.484561 
L 264.691718 -327.126654 
L 270.535991 -326.592119 
L 276.380264 -327.052284 
L 282.224537 -326.099416 
L 288.068811 -317.095978 
L 293.913084 -316.208184 
L 299.757357 -315.483075 
L 305.601631 -315.478427 
L 311.445904 -324.756105 
L 317.290177 -324.91879 
L 323.13445 -335.126095 
L 328.978724 -334.861151 
L 334.822997 -335.023836 
L 340.66727 -328.149244 
L 346.511544 -326.824525 
L 352.355817 -314.362874 
L 358.20009 -313.321692 
L 364.044363 -314.511615 
L 369.888637 -316.872868 
L 375.73291 -315.692241 
L 381.577183 -315.836333 
L 387.421457 -88.482087 
L 393.26573 -91.452245 
L 399.110003 -92.228484 
L 404.954276 -93.11163 
L 410.79855 -93.776313 
L 416.642823 -93.846035 
L 422.487096 -93.525314 
L 428.331369 -93.148815 
L 434.175643 -90.629526 
L 440.019916 -91.675356 
L 445.864189 -91.568449 
L 451.708463 -94.915106 
L 457.552736 -97.741173 
L 463.397009 -100.172147 
L 469.241282 -104.239266 
L 475.085556 -104.666894 
L 480.929829 -104.820283 
L 486.774102 -104.834227 
L 492.618376 -100.446387 
L 498.462649 -103.858119 
L 504.306922 -103.858119 
L 510.151195 -103.858119 
L 515.995469 -103.923193 
L 521.839742 -102.723974 
L 527.684015 -101.506162 
L 533.528289 -103.858119 
L 539.372562 -103.314287 
L 545.216835 -104.267155 
L 551.061108 -101.78505 
L 556.905382 -102.026753 
L 562.749655 -94.612978 
L 568.593928 -93.650814 
L 574.438201 -96.15151 
L 580.282475 -97.020712 
L 586.126748 -99.958333 
L 591.971021 -99.935093 
L 597.815295 -99.935093 
L 603.659568 -99.837482 
L 609.503841 -99.837482 
L 615.348114 -100.051296 
L 621.192388 -100.581183 
L 627.036661 -100.418499 
L 632.880934 -100.125666 
L 638.725208 -100.125666 
L 644.569481 -97.820191 
L 650.413754 -95.951641 
L 656.258027 -97.77371 
L 662.102301 -97.717932 
L 667.946574 -98.633615 
L 673.790847 -98.921799 
L 673.790847 -313.25197 
L 673.790847 -313.25197 
L 667.946574 -309.565999 
L 662.102301 -329.353111 
L 656.258027 -334.177876 
L 650.413754 -331.328569 
L 644.569481 -317.007663 
L 638.725208 -323.361665 
L 632.880934 -302.951702 
L 627.036661 -312.596583 
L 621.192388 -296.021332 
L 615.348114 -281.012503 
L 609.503841 -249.911829 
L 603.659568 -259.110489 
L 597.815295 -252.091805 
L 591.971021 -252.3521 
L 586.126748 -254.62039 
L 580.282475 -259.566006 
L 574.438201 -257.776474 
L 568.593928 -274.337781 
L 562.749655 -292.23775 
L 556.905382 -307.929855 
L 551.061108 -313.702839 
L 545.216835 -317.030904 
L 539.372562 -317.379514 
L 533.528289 -317.030904 
L 527.684015 -317.542199 
L 521.839742 -317.212181 
L 515.995469 -320.512358 
L 510.151195 -319.657101 
L 504.306922 -316.784553 
L 498.462649 -296.746441 
L 492.618376 -296.867293 
L 486.774102 -288.091613 
L 480.929829 -207.451112 
L 475.085556 -220.647169 
L 469.241282 -211.885433 
L 463.397009 -220.507725 
L 457.552736 -220.944649 
L 451.708463 -217.904769 
L 445.864189 -208.213406 
L 440.019916 -207.920574 
L 434.175643 -208.366795 
L 428.331369 -206.935169 
L 422.487096 -200.283688 
L 416.642823 -187.022557 
L 410.79855 -173.789316 
L 404.954276 -153.853463 
L 399.110003 -138.57969 
L 393.26573 -132.769521 
L 387.421457 -120.228852 
L 381.577183 -492.920995 
L 375.73291 -505.219962 
L 369.888637 -510.955761 
L 364.044363 -508.376046 
L 358.20009 -502.031341 
L 352.355817 -505.438424 
L 346.511544 -506.316922 
L 340.66727 -504.908537 
L 334.822997 -501.245806 
L 328.978724 -494.357269 
L 323.13445 -493.037199 
L 317.290177 -493.934289 
L 311.445904 -494.784898 
L 305.601631 -497.32278 
L 299.757357 -497.485464 
L 293.913084 -485.507219 
L 288.068811 -531.537704 
L 282.224537 -525.704294 
L 276.380264 -508.357453 
L 270.535991 -522.004379 
L 264.691718 -528.860378 
L 258.847444 -531.835185 
L 253.003171 -520.261328 
L 247.158898 -482.532413 
L 241.314624 -470.00104 
L 235.470351 -476.647873 
L 229.626078 -478.902219 
L 223.781805 -523.212894 
L 217.937531 -528.372324 
L 212.093258 -527.6844 
L 206.248985 -527.679752 
L 200.404712 -527.586789 
L 194.560438 -527.805252 
L 188.716165 -514.111845 
L 182.871892 -474.932711 
L 177.027618 -456.19143 
L 171.183345 -440.531861 
L 165.339072 -440.531861 
L 159.494799 -414.846265 
L 153.650525 -416.05478 
L 147.806252 -415.943225 
L 141.961979 -415.943225 
L 136.117705 -414.623155 
L 130.273432 -414.18623 
L 124.429159 -389.569705 
L 118.584886 -387.473396 
L 112.740612 -388.198505 
L 106.896339 -377.930774 
L 101.052066 -375.904187 
L 95.207792 -380.194416 
z
" style="stroke: #ffffff; stroke-opacity: 0.2"/>
    </defs>
    <g clip-path="url(#p37da9bc0b0)">
     <use xlink:href="#mb0b30be8dc" x="0" y="576" style="fill: #55a868; fill-opacity: 0.2; stroke: #ffffff; stroke-opacity: 0.2"/>
    </g>
   </g>
   <g id="line2d_13">
    <path d="M 95.207792 255.362143 
L 101.052066 246.921129 
L 106.896339 245.031662 
L 112.740612 244.197322 
L 118.584886 242.549558 
L 124.429159 239.40277 
L 130.273432 236.569731 
L 136.117705 239.421363 
L 141.961979 234.196858 
L 147.806252 229.283779 
L 153.650525 228.293726 
L 159.494799 226.49025 
L 165.339072 225.59316 
L 171.183345 225.058624 
L 177.027618 223.998849 
L 182.871892 223.266768 
L 188.716165 224.837838 
L 194.560438 221.333144 
L 200.404712 212.764306 
L 206.248985 210.505312 
L 212.093258 208.660002 
L 217.937531 220.278017 
L 223.781805 214.465524 
L 229.626078 217.972542 
L 235.470351 216.703601 
L 241.314624 214.247061 
L 247.158898 213.198907 
L 253.003171 221.95367 
L 258.847444 219.985184 
L 264.691718 220.187378 
L 270.535991 221.612032 
L 276.380264 228.398309 
L 282.224537 226.745897 
L 288.068811 226.831888 
L 293.913084 226.892314 
L 299.757357 221.40519 
L 305.601631 223.259796 
L 311.445904 224.705366 
L 317.290177 226.378695 
L 323.13445 224.224284 
L 328.978724 220.900867 
L 334.822997 222.183752 
L 340.66727 223.585165 
L 346.511544 225.121374 
L 352.355817 224.259145 
L 358.20009 224.98193 
L 364.044363 224.737903 
L 369.888637 224.326543 
L 375.73291 219.206622 
L 381.577183 223.596786 
L 387.421457 474.642578 
L 393.26573 465.878519 
L 399.110003 461.99965 
L 404.954276 462.543482 
L 410.79855 459.715091 
L 416.642823 448.708307 
L 422.487096 448.348076 
L 428.331369 439.484082 
L 434.175643 435.740009 
L 440.019916 433.395025 
L 445.864189 432.330602 
L 451.708463 432.023825 
L 457.552736 427.045672 
L 463.397009 426.618043 
L 469.241282 424.826187 
L 475.085556 417.582068 
L 480.929829 418.509371 
L 486.774102 421.186697 
L 492.618376 412.343619 
L 498.462649 403.449412 
L 504.306922 393.927707 
L 510.151195 393.785939 
L 515.995469 394.464567 
L 521.839742 392.554183 
L 527.684015 391.296862 
L 533.528289 388.435935 
L 539.372562 390.832049 
L 545.216835 384.938213 
L 551.061108 380.127393 
L 556.905382 380.592207 
L 562.749655 385.654026 
L 568.593928 386.367515 
L 574.438201 395.919433 
L 580.282475 392.145147 
L 586.126748 390.760003 
L 591.971021 389.251683 
L 597.815295 394.283289 
L 603.659568 402.549998 
L 609.503841 404.860121 
L 615.348114 404.446437 
L 621.192388 403.616745 
L 627.036661 406.519506 
L 632.880934 412.748007 
L 638.725208 412.383129 
L 644.569481 411.804436 
L 650.413754 415.773943 
L 656.258027 408.606519 
L 662.102301 404.188466 
L 667.946574 405.278454 
L 673.790847 393.100339 
" clip-path="url(#p37da9bc0b0)" style="fill: none; stroke: #4c72b0; stroke-width: 2; stroke-linecap: round"/>
   </g>
   <g id="line2d_14">
    <path d="M 95.207792 259.522224 
L 101.052066 249.879667 
L 106.896339 244.63657 
L 112.740612 243.674406 
L 118.584886 235.937585 
L 124.429159 236.804462 
L 130.273432 233.699508 
L 136.117705 229.302372 
L 141.961979 229.248918 
L 147.806252 229.325612 
L 153.650525 225.948742 
L 159.494799 226.594833 
L 165.339072 218.330448 
L 171.183345 216.599018 
L 177.027618 212.49239 
L 182.871892 213.073407 
L 188.716165 209.148057 
L 194.560438 207.511913 
L 200.404712 203.089212 
L 206.248985 193.778997 
L 212.093258 191.771003 
L 217.937531 194.141552 
L 223.781805 189.588703 
L 229.626078 188.480123 
L 235.470351 185.235724 
L 241.314624 184.791827 
L 247.158898 185.635464 
L 253.003171 186.523258 
L 258.847444 189.305167 
L 264.691718 186.971803 
L 270.535991 216.19463 
L 276.380264 211.462828 
L 282.224537 211.344301 
L 288.068811 206.291778 
L 293.913084 208.278855 
L 299.757357 214.721171 
L 305.601631 215.825103 
L 311.445904 213.717174 
L 317.290177 221.207644 
L 323.13445 221.014746 
L 328.978724 224.482255 
L 334.822997 224.956365 
L 340.66727 222.148891 
L 346.511544 221.914161 
L 352.355817 223.6851 
L 358.20009 225.11905 
L 364.044363 227.438469 
L 369.888637 229.901981 
L 375.73291 229.948463 
L 381.577183 231.105848 
L 387.421457 474.726244 
L 393.26573 472.950657 
L 399.110003 471.044921 
L 404.954276 466.996395 
L 410.79855 466.933645 
L 416.642823 466.689618 
L 422.487096 464.730429 
L 428.331369 465.704214 
L 434.175643 457.967392 
L 440.019916 453.981616 
L 445.864189 455.582899 
L 451.708463 456.02912 
L 457.552736 444.543577 
L 463.397009 446.277332 
L 469.241282 434.12943 
L 475.085556 427.728948 
L 480.929829 424.105726 
L 486.774102 422.808896 
L 492.618376 422.550925 
L 498.462649 420.085089 
L 504.306922 419.72021 
L 510.151195 417.860956 
L 515.995469 417.984132 
L 521.839742 414.886149 
L 527.684015 417.751725 
L 533.528289 418.753398 
L 539.372562 422.004769 
L 545.216835 422.095407 
L 551.061108 422.139565 
L 556.905382 422.755443 
L 562.749655 422.469582 
L 568.593928 428.756185 
L 574.438201 429.011833 
L 580.282475 434.313031 
L 586.126748 428.003188 
L 591.971021 429.413897 
L 597.815295 423.087784 
L 603.659568 409.461775 
L 609.503841 404.911251 
L 615.348114 403.626041 
L 621.192388 398.589787 
L 627.036661 397.750798 
L 632.880934 395.589415 
L 638.725208 395.863655 
L 644.569481 394.492455 
L 650.413754 390.632179 
L 656.258027 392.338045 
L 662.102301 391.836046 
L 667.946574 391.403769 
L 673.790847 383.7878 
" clip-path="url(#p37da9bc0b0)" style="fill: none; stroke: #dd8452; stroke-width: 2; stroke-linecap: round"/>
   </g>
   <g id="line2d_15">
    <path d="M 95.207792 255.008885 
L 101.052066 250.244546 
L 106.896339 245.44767 
L 112.740612 243.374602 
L 118.584886 244.109007 
L 124.429159 243.971887 
L 130.273432 243.058528 
L 136.117705 241.201598 
L 141.961979 240.71122 
L 147.806252 239.188956 
L 153.650525 238.986762 
L 159.494799 235.482068 
L 165.339072 235.070708 
L 171.183345 234.998662 
L 177.027618 232.651353 
L 182.871892 230.645683 
L 188.716165 228.732975 
L 194.560438 227.303674 
L 200.404712 225.788381 
L 206.248985 225.832539 
L 212.093258 224.152238 
L 217.937531 223.982581 
L 223.781805 224.198719 
L 229.626078 224.289358 
L 235.470351 222.794982 
L 241.314624 228.805021 
L 247.158898 224.893615 
L 253.003171 223.069222 
L 258.847444 223.541008 
L 264.691718 228.212384 
L 270.535991 225.137642 
L 276.380264 228.416902 
L 282.224537 227.789404 
L 288.068811 228.574939 
L 293.913084 228.98165 
L 299.757357 229.70676 
L 305.601631 230.871117 
L 311.445904 227.52446 
L 317.290177 228.572615 
L 323.13445 230.357498 
L 328.978724 229.585908 
L 334.822997 229.416251 
L 340.66727 232.604872 
L 346.511544 231.191839 
L 352.355817 231.205783 
L 358.20009 231.331283 
L 364.044363 228.686494 
L 369.888637 229.664926 
L 375.73291 230.338906 
L 381.577183 225.13067 
L 387.421457 471.972224 
L 393.26573 466.928997 
L 399.110003 469.132214 
L 404.954276 468.060818 
L 410.79855 462.847934 
L 416.642823 461.214115 
L 422.487096 459.738332 
L 428.331369 460.02884 
L 434.175643 457.809356 
L 440.019916 448.785001 
L 445.864189 448.785001 
L 451.708463 454.439458 
L 457.552736 454.369736 
L 463.397009 447.455634 
L 469.241282 436.344266 
L 475.085556 433.711098 
L 480.929829 435.263575 
L 486.774102 429.650951 
L 492.618376 421.193669 
L 498.462649 414.165688 
L 504.306922 404.832233 
L 510.151195 403.965355 
L 515.995469 401.009141 
L 521.839742 400.690744 
L 527.684015 402.426823 
L 533.528289 401.63664 
L 539.372562 411.55576 
L 545.216835 397.051254 
L 551.061108 389.400423 
L 556.905382 388.094297 
L 562.749655 384.361844 
L 568.593928 379.827588 
L 574.438201 381.001242 
L 580.282475 379.711385 
L 586.126748 379.455737 
L 591.971021 392.949274 
L 597.815295 391.782592 
L 603.659568 384.045771 
L 609.503841 387.610891 
L 615.348114 386.806764 
L 621.192388 388.340648 
L 627.036661 387.306438 
L 632.880934 387.397077 
L 638.725208 386.781199 
L 644.569481 393.111959 
L 650.413754 394.887547 
L 656.258027 390.590346 
L 662.102301 393.860309 
L 667.946574 399.510118 
L 673.790847 398.369 
" clip-path="url(#p37da9bc0b0)" style="fill: none; stroke: #55a868; stroke-width: 2; stroke-linecap: round"/>
   </g>
   <g id="patch_3">
    <path d="M 66.27864 513.338305 
L 66.27864 17.28 
" style="fill: none; stroke: #cccccc; stroke-width: 1.25; stroke-linejoin: miter; stroke-linecap: square"/>
   </g>
   <g id="patch_4">
    <path d="M 702.72 513.338305 
L 702.72 17.28 
" style="fill: none; stroke: #cccccc; stroke-width: 1.25; stroke-linejoin: miter; stroke-linecap: square"/>
   </g>
   <g id="patch_5">
    <path d="M 66.27864 513.338305 
L 702.72 513.338305 
" style="fill: none; stroke: #cccccc; stroke-width: 1.25; stroke-linejoin: miter; stroke-linecap: square"/>
   </g>
   <g id="patch_6">
    <path d="M 66.27864 17.28 
L 702.72 17.28 
" style="fill: none; stroke: #cccccc; stroke-width: 1.25; stroke-linejoin: miter; stroke-linecap: square"/>
   </g>
   <g id="legend_1">
    <g id="patch_7">
     <path d="M 601.469604 148.162063 
L 688.72 148.162063 
Q 692.72 148.162063 692.72 144.162063 
L 692.72 31.28 
Q 692.72 27.28 688.72 27.28 
L 601.469604 27.28 
Q 597.469604 27.28 597.469604 31.28 
L 597.469604 144.162063 
Q 597.469604 148.162063 601.469604 148.162063 
z
" style="fill: #ffffff; opacity: 0.8; stroke: #cccccc; stroke-linejoin: miter"/>
    </g>
    <g id="text_15">
     <!-- $\theta_{\mathrm{init}}$ -->
     <g style="fill: #262626" transform="translate(627.348416 51.884405) scale(0.24 -0.24)">
      <defs>
       <path id="CMMI12-12" d="M 2835 3200 
C 2835 3850 2630 4480 2106 4480 
C 1210 4480 256 2615 256 1216 
C 256 923 320 -64 992 -64 
C 1862 -64 2835 1756 2835 3200 
z
M 896 2304 
C 992 2679 1126 3214 1382 3665 
C 1594 4047 1818 4352 2099 4352 
C 2310 4352 2451 4174 2451 3564 
C 2451 3334 2432 3017 2246 2304 
L 896 2304 
z
M 2202 2113 
C 2042 1490 1907 1088 1677 687 
C 1491 363 1267 64 998 64 
C 800 64 640 217 640 846 
C 640 1260 742 1693 845 2113 
L 2202 2113 
z
" transform="scale(0.015625)"/>
       <path id="CMR17-69" d="M 992 3909 
C 992 4049 877 4170 730 4170 
C 589 4170 467 4056 467 3909 
C 467 3769 582 3648 730 3648 
C 870 3648 992 3763 992 3909 
z
M 243 2706 
L 243 2541 
C 602 2541 653 2502 653 2197 
L 653 427 
C 653 184 627 153 218 153 
L 218 -13 
C 371 0 646 0 806 0 
C 960 0 1222 0 1370 -13 
L 1370 153 
C 992 153 979 191 979 420 
L 979 2776 
L 243 2706 
z
" transform="scale(0.015625)"/>
       <path id="CMR17-6e" d="M 2656 1933 
C 2656 2259 2592 2790 1837 2790 
C 1331 2790 1069 2400 973 2144 
L 966 2144 
L 966 2790 
L 211 2720 
L 211 2554 
C 589 2554 646 2515 646 2208 
L 646 428 
C 646 184 621 153 211 153 
L 211 -13 
C 365 0 646 0 813 0 
C 979 0 1267 0 1421 -13 
L 1421 153 
C 1011 153 986 178 986 428 
L 986 1658 
C 986 2247 1344 2688 1792 2688 
C 2266 2688 2317 2266 2317 1958 
L 2317 428 
C 2317 184 2291 153 1882 153 
L 1882 -13 
C 2035 0 2317 0 2483 0 
C 2650 0 2938 0 3091 -13 
L 3091 153 
C 2682 153 2656 178 2656 428 
L 2656 1933 
z
" transform="scale(0.015625)"/>
      </defs>
      <use xlink:href="#CMMI12-12" transform="scale(0.996264)"/>
      <use xlink:href="#CMR17-69" transform="translate(45.45979 -14.943915) scale(0.697382)"/>
      <use xlink:href="#CMR17-6e" transform="translate(62.869449 -14.943915) scale(0.697382)"/>
      <use xlink:href="#CMR17-69" transform="translate(98.496057 -14.943915) scale(0.697382)"/>
      <use xlink:href="#CMR17-74" transform="translate(115.905716 -14.943915) scale(0.697382)"/>
     </g>
    </g>
    <g id="line2d_16">
     <path d="M 605.469604 73.535163 
L 625.469604 73.535163 
L 645.469604 73.535163 
" style="fill: none; stroke: #4c72b0; stroke-width: 2; stroke-linecap: round"/>
    </g>
    <g id="text_16">
     <!-- 0.4 -->
     <g style="fill: #262626" transform="translate(661.469604 80.535163) scale(0.2 -0.2)">
      <defs>
       <path id="CMR17-2e" d="M 1062 261 
C 1062 420 934 522 800 522 
C 672 522 538 420 538 261 
C 538 102 666 0 800 0 
C 928 0 1062 102 1062 261 
z
" transform="scale(0.015625)"/>
      </defs>
      <use xlink:href="#CMR17-30" transform="scale(0.996264)"/>
      <use xlink:href="#CMR17-2e" transform="translate(45.690477 0) scale(0.996264)"/>
      <use xlink:href="#CMR17-34" transform="translate(70.561536 0) scale(0.996264)"/>
     </g>
    </g>
    <g id="line2d_17">
     <path d="M 605.469604 101.410796 
L 625.469604 101.410796 
L 645.469604 101.410796 
" style="fill: none; stroke: #dd8452; stroke-width: 2; stroke-linecap: round"/>
    </g>
    <g id="text_17">
     <!-- 0.6 -->
     <g style="fill: #262626" transform="translate(661.469604 108.410796) scale(0.2 -0.2)">
      <use xlink:href="#CMR17-30" transform="scale(0.996264)"/>
      <use xlink:href="#CMR17-2e" transform="translate(45.690477 0) scale(0.996264)"/>
      <use xlink:href="#CMR17-36" transform="translate(70.561536 0) scale(0.996264)"/>
     </g>
    </g>
    <g id="line2d_18">
     <path d="M 605.469604 129.28643 
L 625.469604 129.28643 
L 645.469604 129.28643 
" style="fill: none; stroke: #55a868; stroke-width: 2; stroke-linecap: round"/>
    </g>
    <g id="text_18">
     <!-- 0.8 -->
     <g style="fill: #262626" transform="translate(661.469604 136.28643) scale(0.2 -0.2)">
      <use xlink:href="#CMR17-30" transform="scale(0.996264)"/>
      <use xlink:href="#CMR17-2e" transform="translate(45.690477 0) scale(0.996264)"/>
      <use xlink:href="#CMR17-38" transform="translate(70.561536 0) scale(0.996264)"/>
     </g>
    </g>
   </g>
  </g>
 </g>
 <defs>
  <clipPath id="p37da9bc0b0">
   <rect x="66.27864" y="17.28" width="636.44136" height="496.058305"/>
  </clipPath>
 </defs>
</svg>
