<?xml version="1.0" encoding="utf-8" standalone="no"?>
<!DOCTYPE svg PUBLIC "-//W3C//DTD SVG 1.1//EN"
  "http://www.w3.org/Graphics/SVG/1.1/DTD/svg11.dtd">
<svg xmlns:xlink="http://www.w3.org/1999/xlink" width="720pt" height="576pt" viewBox="0 0 720 576" xmlns="http://www.w3.org/2000/svg" version="1.1">
 <metadata>
  <rdf:RDF xmlns:dc="http://purl.org/dc/elements/1.1/" xmlns:cc="http://creativecommons.org/ns#" xmlns:rdf="http://www.w3.org/1999/02/22-rdf-syntax-ns#">
   <cc:Work>
    <dc:type rdf:resource="http://purl.org/dc/dcmitype/StillImage"/>
    <dc:date>2025-04-25T15:59:57.623526</dc:date>
    <dc:format>image/svg+xml</dc:format>
    <dc:creator>
     <cc:Agent>
      <dc:title>Matplotlib v3.9.2, https://matplotlib.org/</dc:title>
     </cc:Agent>
    </dc:creator>
   </cc:Work>
  </rdf:RDF>
 </metadata>
 <defs>
  <style type="text/css">*{stroke-linejoin: round; stroke-linecap: butt}</style>
 </defs>
 <g id="figure_1">
  <g id="patch_1">
   <path d="M 0 576 
L 720 576 
L 720 0 
L 0 0 
z
" style="fill: #ffffff"/>
  </g>
  <g id="axes_1">
   <g id="patch_2">
    <path d="M 68.436153 513.338305 
L 702.72 513.338305 
L 702.72 17.28 
L 68.436153 17.28 
z
" style="fill: #ffffff"/>
   </g>
   <g id="matplotlib.axis_1">
    <g id="xtick_1">
     <g id="line2d_1">
      <path d="M 97.267237 513.338305 
L 97.267237 17.28 
" clip-path="url(#p1ecbbb53e7)" style="fill: none; stroke: #cccccc; stroke-linecap: round"/>
     </g>
     <g id="text_1">
      <!-- $\mathdefault{0}$ -->
      <g style="fill: #262626" transform="translate(93.365243 533.907893) scale(0.16 -0.16)">
       <defs>
        <path id="CMR17-30" d="M 2688 2025 
C 2688 2416 2682 3080 2413 3591 
C 2176 4039 1798 4198 1466 4198 
C 1158 4198 768 4058 525 3597 
C 269 3118 243 2524 243 2025 
C 243 1661 250 1106 448 619 
C 723 -39 1216 -128 1466 -128 
C 1760 -128 2208 -7 2470 600 
C 2662 1042 2688 1559 2688 2025 
z
M 1466 -26 
C 1056 -26 813 325 723 812 
C 653 1188 653 1738 653 2096 
C 653 2588 653 2997 736 3387 
C 858 3929 1216 4096 1466 4096 
C 1728 4096 2067 3923 2189 3400 
C 2272 3036 2278 2607 2278 2096 
C 2278 1680 2278 1169 2202 792 
C 2067 95 1690 -26 1466 -26 
z
" transform="scale(0.015625)"/>
       </defs>
       <use xlink:href="#CMR17-30" transform="scale(0.996264)"/>
      </g>
     </g>
    </g>
    <g id="xtick_2">
     <g id="line2d_2">
      <path d="M 213.756465 513.338305 
L 213.756465 17.28 
" clip-path="url(#p1ecbbb53e7)" style="fill: none; stroke: #cccccc; stroke-linecap: round"/>
     </g>
     <g id="text_2">
      <!-- $\mathdefault{200}$ -->
      <g style="fill: #262626" transform="translate(202.050484 533.907893) scale(0.16 -0.16)">
       <defs>
        <path id="CMR17-32" d="M 2669 989 
L 2554 989 
C 2490 536 2438 459 2413 420 
C 2381 369 1920 369 1830 369 
L 602 369 
C 832 619 1280 1072 1824 1597 
C 2214 1967 2669 2402 2669 3035 
C 2669 3790 2067 4224 1395 4224 
C 691 4224 262 3604 262 3030 
C 262 2780 448 2748 525 2748 
C 589 2748 781 2787 781 3010 
C 781 3207 614 3264 525 3264 
C 486 3264 448 3258 422 3245 
C 544 3790 915 4058 1306 4058 
C 1862 4058 2227 3617 2227 3035 
C 2227 2479 1901 2000 1536 1584 
L 262 146 
L 262 0 
L 2515 0 
L 2669 989 
z
" transform="scale(0.015625)"/>
       </defs>
       <use xlink:href="#CMR17-32" transform="scale(0.996264)"/>
       <use xlink:href="#CMR17-30" transform="translate(45.690477 0) scale(0.996264)"/>
       <use xlink:href="#CMR17-30" transform="translate(91.380954 0) scale(0.996264)"/>
      </g>
     </g>
    </g>
    <g id="xtick_3">
     <g id="line2d_3">
      <path d="M 330.245693 513.338305 
L 330.245693 17.28 
" clip-path="url(#p1ecbbb53e7)" style="fill: none; stroke: #cccccc; stroke-linecap: round"/>
     </g>
     <g id="text_3">
      <!-- $\mathdefault{400}$ -->
      <g style="fill: #262626" transform="translate(318.539712 533.907893) scale(0.16 -0.16)">
       <defs>
        <path id="CMR17-34" d="M 2150 4122 
C 2150 4256 2144 4256 2029 4256 
L 128 1254 
L 128 1088 
L 1779 1088 
L 1779 457 
C 1779 224 1766 160 1318 160 
L 1197 160 
L 1197 0 
C 1402 0 1747 0 1965 0 
C 2182 0 2528 0 2733 0 
L 2733 160 
L 2611 160 
C 2163 160 2150 224 2150 457 
L 2150 1088 
L 2803 1088 
L 2803 1254 
L 2150 1254 
L 2150 4122 
z
M 1798 3703 
L 1798 1254 
L 256 1254 
L 1798 3703 
z
" transform="scale(0.015625)"/>
       </defs>
       <use xlink:href="#CMR17-34" transform="scale(0.996264)"/>
       <use xlink:href="#CMR17-30" transform="translate(45.690477 0) scale(0.996264)"/>
       <use xlink:href="#CMR17-30" transform="translate(91.380954 0) scale(0.996264)"/>
      </g>
     </g>
    </g>
    <g id="xtick_4">
     <g id="line2d_4">
      <path d="M 446.734921 513.338305 
L 446.734921 17.28 
" clip-path="url(#p1ecbbb53e7)" style="fill: none; stroke: #cccccc; stroke-linecap: round"/>
     </g>
     <g id="text_4">
      <!-- $\mathdefault{600}$ -->
      <g style="fill: #262626" transform="translate(435.028941 533.907893) scale(0.16 -0.16)">
       <defs>
        <path id="CMR17-36" d="M 678 2176 
C 678 3690 1395 4032 1811 4032 
C 1946 4032 2272 4009 2400 3776 
C 2298 3776 2106 3776 2106 3553 
C 2106 3381 2246 3323 2336 3323 
C 2394 3323 2566 3348 2566 3560 
C 2566 3954 2246 4179 1805 4179 
C 1043 4179 243 3390 243 1984 
C 243 253 966 -128 1478 -128 
C 2099 -128 2688 427 2688 1283 
C 2688 2081 2170 2662 1517 2662 
C 1126 2662 838 2407 678 1960 
L 678 2176 
z
M 1478 25 
C 691 25 691 1200 691 1436 
C 691 1896 909 2560 1504 2560 
C 1613 2560 1926 2560 2138 2120 
C 2253 1870 2253 1609 2253 1289 
C 2253 944 2253 690 2118 434 
C 1978 171 1773 25 1478 25 
z
" transform="scale(0.015625)"/>
       </defs>
       <use xlink:href="#CMR17-36" transform="scale(0.996264)"/>
       <use xlink:href="#CMR17-30" transform="translate(45.690477 0) scale(0.996264)"/>
       <use xlink:href="#CMR17-30" transform="translate(91.380954 0) scale(0.996264)"/>
      </g>
     </g>
    </g>
    <g id="xtick_5">
     <g id="line2d_5">
      <path d="M 563.224149 513.338305 
L 563.224149 17.28 
" clip-path="url(#p1ecbbb53e7)" style="fill: none; stroke: #cccccc; stroke-linecap: round"/>
     </g>
     <g id="text_5">
      <!-- $\mathdefault{800}$ -->
      <g style="fill: #262626" transform="translate(551.518169 533.907893) scale(0.16 -0.16)">
       <defs>
        <path id="CMR17-38" d="M 1741 2264 
C 2144 2467 2554 2773 2554 3263 
C 2554 3841 1990 4179 1472 4179 
C 890 4179 378 3759 378 3180 
C 378 3021 416 2747 666 2505 
C 730 2442 998 2251 1171 2130 
C 883 1983 211 1634 211 934 
C 211 279 838 -128 1459 -128 
C 2144 -128 2720 362 2720 1010 
C 2720 1590 2330 1857 2074 2029 
L 1741 2264 
z
M 902 2822 
C 851 2854 595 3051 595 3351 
C 595 3739 998 4032 1459 4032 
C 1965 4032 2336 3676 2336 3262 
C 2336 2669 1670 2331 1638 2331 
C 1632 2331 1626 2331 1574 2370 
L 902 2822 
z
M 2080 1519 
C 2176 1449 2483 1240 2483 851 
C 2483 381 2010 25 1472 25 
C 890 25 448 438 448 940 
C 448 1443 838 1862 1280 2060 
L 2080 1519 
z
" transform="scale(0.015625)"/>
       </defs>
       <use xlink:href="#CMR17-38" transform="scale(0.996264)"/>
       <use xlink:href="#CMR17-30" transform="translate(45.690477 0) scale(0.996264)"/>
       <use xlink:href="#CMR17-30" transform="translate(91.380954 0) scale(0.996264)"/>
      </g>
     </g>
    </g>
    <g id="xtick_6">
     <g id="line2d_6">
      <path d="M 679.713377 513.338305 
L 679.713377 17.28 
" clip-path="url(#p1ecbbb53e7)" style="fill: none; stroke: #cccccc; stroke-linecap: round"/>
     </g>
     <g id="text_6">
      <!-- $\mathdefault{1000}$ -->
      <g style="fill: #262626" transform="translate(664.105403 533.907893) scale(0.16 -0.16)">
       <defs>
        <path id="CMR17-31" d="M 1702 4058 
C 1702 4192 1696 4192 1606 4192 
C 1357 3916 979 3827 621 3827 
C 602 3827 570 3827 563 3808 
C 557 3795 557 3782 557 3648 
C 755 3648 1088 3686 1344 3839 
L 1344 461 
C 1344 236 1331 160 781 160 
L 589 160 
L 589 0 
C 896 0 1216 0 1523 0 
C 1830 0 2150 0 2458 0 
L 2458 160 
L 2266 160 
C 1715 160 1702 230 1702 458 
L 1702 4058 
z
" transform="scale(0.015625)"/>
       </defs>
       <use xlink:href="#CMR17-31" transform="scale(0.996264)"/>
       <use xlink:href="#CMR17-30" transform="translate(45.690477 0) scale(0.996264)"/>
       <use xlink:href="#CMR17-30" transform="translate(91.380954 0) scale(0.996264)"/>
       <use xlink:href="#CMR17-30" transform="translate(137.071431 0) scale(0.996264)"/>
      </g>
     </g>
    </g>
    <g id="text_7">
     <!-- Step -->
     <g style="fill: #262626" transform="translate(367.822372 554.844366) scale(0.2 -0.2)">
      <defs>
       <path id="CMR17-53" d="M 2803 4290 
C 2803 4404 2797 4411 2758 4411 
C 2720 4411 2707 4385 2682 4328 
L 2490 3907 
C 2246 4257 1875 4416 1472 4416 
C 819 4416 294 3901 294 3253 
C 294 3056 339 2776 557 2510 
C 794 2218 1018 2167 1530 2033 
C 1722 1982 2042 1899 2106 1874 
C 2470 1722 2662 1341 2662 985 
C 2662 527 2336 38 1779 38 
C 1094 38 454 419 410 1311 
C 403 1413 397 1419 352 1419 
C 301 1419 294 1413 294 1285 
L 294 -1 
C 294 -115 301 -122 339 -122 
C 384 -122 397 -90 486 108 
C 493 127 493 140 614 381 
C 934 -39 1472 -128 1779 -128 
C 2477 -128 2970 451 2970 1124 
C 2970 1454 2848 1708 2778 1823 
C 2509 2230 2221 2306 1914 2382 
C 1869 2402 1856 2402 1498 2490 
C 1152 2579 1005 2624 845 2796 
C 666 2992 602 3196 602 3399 
C 602 3812 934 4263 1478 4263 
C 2157 4263 2579 3786 2675 2993 
C 2694 2878 2701 2872 2746 2872 
C 2803 2872 2803 2891 2803 2999 
L 2803 4290 
z
" transform="scale(0.015625)"/>
       <path id="CMR17-74" d="M 966 2560 
L 1862 2560 
L 1862 2725 
L 966 2725 
L 966 3904 
L 851 3904 
C 838 3245 614 2668 70 2668 
L 70 2560 
L 627 2560 
L 627 771 
C 627 650 627 -64 1370 -64 
C 1747 -64 1965 306 1965 777 
L 1965 1140 
L 1850 1140 
L 1850 783 
C 1850 344 1677 51 1408 51 
C 1222 51 966 178 966 758 
L 966 2560 
z
" transform="scale(0.015625)"/>
       <path id="CMR17-65" d="M 2438 1472 
C 2464 1498 2464 1511 2464 1576 
C 2464 2238 2118 2816 1389 2816 
C 710 2816 173 2169 173 1383 
C 173 551 781 -64 1459 -64 
C 2176 -64 2458 607 2458 740 
C 2458 784 2419 784 2406 784 
C 2362 784 2355 771 2330 696 
C 2189 265 1837 51 1504 51 
C 1229 51 954 203 781 480 
C 582 803 582 1176 582 1472 
L 2438 1472 
z
M 589 1568 
C 634 2505 1126 2714 1382 2714 
C 1818 2714 2112 2297 2118 1568 
L 589 1568 
z
" transform="scale(0.015625)"/>
       <path id="CMR17-70" d="M 1408 -1063 
C 998 -1063 973 -1037 973 -789 
L 973 402 
C 1158 134 1427 -38 1766 -38 
C 2406 -38 3053 523 3053 1388 
C 3053 2191 2496 2802 1837 2802 
C 1453 2802 1139 2592 960 2338 
L 960 2802 
L 198 2732 
L 198 2567 
C 576 2567 634 2528 634 2223 
L 634 -789 
C 634 -1031 608 -1063 198 -1063 
L 198 -1228 
C 352 -1216 634 -1216 800 -1216 
C 966 -1216 1254 -1216 1408 -1228 
L 1408 -1063 
z
M 973 2012 
C 973 2102 973 2235 1222 2471 
C 1254 2497 1472 2688 1792 2688 
C 2259 2688 2643 2108 2643 1382 
C 2643 656 2234 64 1728 64 
C 1498 64 1248 172 1056 472 
C 973 612 973 650 973 752 
L 973 2012 
z
" transform="scale(0.015625)"/>
      </defs>
      <use xlink:href="#CMR17-53" transform="scale(0.996264)"/>
      <use xlink:href="#CMR17-74" transform="translate(50.89537 0) scale(0.996264)"/>
      <use xlink:href="#CMR17-65" transform="translate(86.176138 0) scale(0.996264)"/>
      <use xlink:href="#CMR17-70" transform="translate(126.661798 0) scale(0.996264)"/>
     </g>
    </g>
   </g>
   <g id="matplotlib.axis_2">
    <g id="ytick_1">
     <g id="line2d_7">
      <path d="M 68.436153 489.083712 
L 702.72 489.083712 
" clip-path="url(#p1ecbbb53e7)" style="fill: none; stroke: #cccccc; stroke-linecap: round"/>
     </g>
     <g id="text_8">
      <!-- $\mathdefault{0.2}$ -->
      <g style="fill: #262626" transform="translate(38.99263 494.618506) scale(0.16 -0.16)">
       <defs>
        <path id="CMMI12-3a" d="M 1178 307 
C 1178 492 1024 619 870 619 
C 685 619 557 466 557 313 
C 557 128 710 0 864 0 
C 1050 0 1178 153 1178 307 
z
" transform="scale(0.015625)"/>
       </defs>
       <use xlink:href="#CMR17-30" transform="scale(0.996264)"/>
       <use xlink:href="#CMMI12-3a" transform="translate(45.690477 0) scale(0.996264)"/>
       <use xlink:href="#CMR17-32" transform="translate(72.787654 0) scale(0.996264)"/>
      </g>
     </g>
    </g>
    <g id="ytick_2">
     <g id="line2d_8">
      <path d="M 68.436153 399.268516 
L 702.72 399.268516 
" clip-path="url(#p1ecbbb53e7)" style="fill: none; stroke: #cccccc; stroke-linecap: round"/>
     </g>
     <g id="text_9">
      <!-- $\mathdefault{0.3}$ -->
      <g style="fill: #262626" transform="translate(38.99263 404.80331) scale(0.16 -0.16)">
       <defs>
        <path id="CMR17-33" d="M 1414 2157 
C 1984 2157 2234 1662 2234 1090 
C 2234 320 1824 25 1453 25 
C 1114 25 563 194 390 693 
C 422 680 454 680 486 680 
C 640 680 755 782 755 948 
C 755 1133 614 1216 486 1216 
C 378 1216 211 1165 211 926 
C 211 335 787 -128 1466 -128 
C 2176 -128 2720 430 2720 1085 
C 2720 1707 2208 2157 1600 2227 
C 2086 2328 2554 2756 2554 3329 
C 2554 3820 2048 4179 1472 4179 
C 890 4179 378 3829 378 3329 
C 378 3110 544 3072 627 3072 
C 762 3072 877 3155 877 3321 
C 877 3486 762 3569 627 3569 
C 602 3569 570 3569 544 3557 
C 730 3959 1235 4032 1459 4032 
C 1683 4032 2106 3925 2106 3320 
C 2106 3143 2080 2828 1862 2550 
C 1670 2304 1453 2304 1242 2284 
C 1210 2284 1062 2269 1037 2269 
C 992 2263 966 2257 966 2208 
C 966 2163 973 2157 1101 2157 
L 1414 2157 
z
" transform="scale(0.015625)"/>
       </defs>
       <use xlink:href="#CMR17-30" transform="scale(0.996264)"/>
       <use xlink:href="#CMMI12-3a" transform="translate(45.690477 0) scale(0.996264)"/>
       <use xlink:href="#CMR17-33" transform="translate(72.787654 0) scale(0.996264)"/>
      </g>
     </g>
    </g>
    <g id="ytick_3">
     <g id="line2d_9">
      <path d="M 68.436153 309.453321 
L 702.72 309.453321 
" clip-path="url(#p1ecbbb53e7)" style="fill: none; stroke: #cccccc; stroke-linecap: round"/>
     </g>
     <g id="text_10">
      <!-- $\mathdefault{0.4}$ -->
      <g style="fill: #262626" transform="translate(38.99263 314.988115) scale(0.16 -0.16)">
       <use xlink:href="#CMR17-30" transform="scale(0.996264)"/>
       <use xlink:href="#CMMI12-3a" transform="translate(45.690477 0) scale(0.996264)"/>
       <use xlink:href="#CMR17-34" transform="translate(72.787654 0) scale(0.996264)"/>
      </g>
     </g>
    </g>
    <g id="ytick_4">
     <g id="line2d_10">
      <path d="M 68.436153 219.638126 
L 702.72 219.638126 
" clip-path="url(#p1ecbbb53e7)" style="fill: none; stroke: #cccccc; stroke-linecap: round"/>
     </g>
     <g id="text_11">
      <!-- $\mathdefault{0.5}$ -->
      <g style="fill: #262626" transform="translate(38.99263 225.17292) scale(0.16 -0.16)">
       <defs>
        <path id="CMR17-35" d="M 730 3692 
C 794 3666 1056 3584 1325 3584 
C 1920 3584 2246 3911 2432 4100 
C 2432 4157 2432 4192 2394 4192 
C 2387 4192 2374 4192 2323 4163 
C 2099 4058 1837 3973 1517 3973 
C 1325 3973 1037 3999 723 4139 
C 653 4171 640 4171 634 4171 
C 602 4171 595 4164 595 4037 
L 595 2203 
C 595 2089 595 2057 659 2057 
C 691 2057 704 2070 736 2114 
C 941 2401 1222 2522 1542 2522 
C 1766 2522 2246 2382 2246 1289 
C 2246 1085 2246 715 2054 421 
C 1894 159 1645 25 1370 25 
C 947 25 518 320 403 814 
C 429 807 480 795 506 795 
C 589 795 749 840 749 1038 
C 749 1210 627 1280 506 1280 
C 358 1280 262 1190 262 1011 
C 262 454 704 -128 1382 -128 
C 2042 -128 2669 440 2669 1264 
C 2669 2030 2170 2624 1549 2624 
C 1222 2624 947 2503 730 2274 
L 730 3692 
z
" transform="scale(0.015625)"/>
       </defs>
       <use xlink:href="#CMR17-30" transform="scale(0.996264)"/>
       <use xlink:href="#CMMI12-3a" transform="translate(45.690477 0) scale(0.996264)"/>
       <use xlink:href="#CMR17-35" transform="translate(72.787654 0) scale(0.996264)"/>
      </g>
     </g>
    </g>
    <g id="ytick_5">
     <g id="line2d_11">
      <path d="M 68.436153 129.82293 
L 702.72 129.82293 
" clip-path="url(#p1ecbbb53e7)" style="fill: none; stroke: #cccccc; stroke-linecap: round"/>
     </g>
     <g id="text_12">
      <!-- $\mathdefault{0.6}$ -->
      <g style="fill: #262626" transform="translate(38.99263 135.357725) scale(0.16 -0.16)">
       <use xlink:href="#CMR17-30" transform="scale(0.996264)"/>
       <use xlink:href="#CMMI12-3a" transform="translate(45.690477 0) scale(0.996264)"/>
       <use xlink:href="#CMR17-36" transform="translate(72.787654 0) scale(0.996264)"/>
      </g>
     </g>
    </g>
    <g id="ytick_6">
     <g id="line2d_12">
      <path d="M 68.436153 40.007735 
L 702.72 40.007735 
" clip-path="url(#p1ecbbb53e7)" style="fill: none; stroke: #cccccc; stroke-linecap: round"/>
     </g>
     <g id="text_13">
      <!-- $\mathdefault{0.7}$ -->
      <g style="fill: #262626" transform="translate(38.99263 45.542529) scale(0.16 -0.16)">
       <defs>
        <path id="CMR17-37" d="M 2886 3941 
L 2886 4081 
L 1382 4081 
C 634 4081 621 4165 595 4288 
L 480 4288 
L 294 3094 
L 410 3094 
C 429 3215 474 3540 550 3661 
C 589 3712 1062 3712 1171 3712 
L 2579 3712 
L 1869 2661 
C 1395 1954 1069 999 1069 165 
C 1069 89 1069 -128 1299 -128 
C 1530 -128 1530 89 1530 171 
L 1530 465 
C 1530 1508 1709 2196 2003 2636 
L 2886 3941 
z
" transform="scale(0.015625)"/>
       </defs>
       <use xlink:href="#CMR17-30" transform="scale(0.996264)"/>
       <use xlink:href="#CMMI12-3a" transform="translate(45.690477 0) scale(0.996264)"/>
       <use xlink:href="#CMR17-37" transform="translate(72.787654 0) scale(0.996264)"/>
      </g>
     </g>
    </g>
    <g id="text_14">
     <!-- SSIM -->
     <g style="fill: #262626" transform="translate(31.116997 287.220751) rotate(-90) scale(0.2 -0.2)">
      <defs>
       <path id="CMR17-49" d="M 1261 3905 
C 1261 4192 1338 4192 1798 4192 
L 1798 4352 
C 1594 4352 1267 4352 1050 4352 
C 832 4352 506 4352 301 4352 
L 301 4192 
C 762 4192 838 4192 838 3905 
L 838 447 
C 838 160 762 160 301 160 
L 301 0 
C 506 0 832 0 1050 0 
C 1267 0 1594 0 1798 0 
L 1798 160 
C 1338 160 1261 160 1261 447 
L 1261 3905 
z
" transform="scale(0.015625)"/>
       <path id="CMR17-4d" d="M 1338 4224 
C 1299 4320 1293 4320 1158 4320 
L 339 4320 
L 339 4160 
C 781 4160 851 4160 851 3875 
L 851 610 
C 851 451 851 153 339 153 
L 339 -13 
C 486 0 755 0 915 0 
C 1075 0 1344 0 1491 -13 
L 1491 153 
C 979 153 979 451 979 610 
L 979 4135 
L 986 4135 
L 2490 89 
C 2515 25 2528 -13 2579 -13 
C 2630 -13 2643 25 2669 89 
L 4186 4166 
L 4192 4166 
L 4192 438 
C 4192 153 4122 153 3680 153 
L 3680 -13 
C 3853 0 4198 0 4384 0 
C 4570 0 4922 0 5094 -13 
L 5094 153 
C 4653 153 4582 153 4582 438 
L 4582 3875 
C 4582 4160 4653 4160 5094 4160 
L 5094 4320 
L 4282 4320 
C 4147 4320 4141 4314 4102 4218 
L 2720 502 
L 1338 4224 
z
" transform="scale(0.015625)"/>
      </defs>
      <use xlink:href="#CMR17-53" transform="scale(0.996264)"/>
      <use xlink:href="#CMR17-53" transform="translate(50.89537 0) scale(0.996264)"/>
      <use xlink:href="#CMR17-49" transform="translate(101.79074 0) scale(0.996264)"/>
      <use xlink:href="#CMR17-4d" transform="translate(134.429149 0) scale(0.996264)"/>
     </g>
    </g>
   </g>
   <g id="PolyCollection_1">
    <defs>
     <path id="m3edb9cceca" d="M 97.267237 -331.57288 
L 97.267237 -261.876289 
L 103.091698 -280.827295 
L 108.916159 -297.173661 
L 114.740621 -305.795919 
L 120.565082 -314.238548 
L 126.389544 -322.05247 
L 132.214005 -319.537644 
L 138.038467 -321.333948 
L 143.862928 -321.333948 
L 149.687389 -320.705242 
L 155.511851 -319.088568 
L 161.336312 -317.382079 
L 167.160774 -324.567295 
L 172.985235 -330.854359 
L 178.809696 -341.183106 
L 184.634158 -341.542367 
L 190.458619 -353.308158 
L 196.283081 -352.948897 
L 202.107542 -350.074811 
L 207.932003 -349.356289 
L 213.756465 -348.727583 
L 219.580926 -346.482203 
L 225.405388 -345.314605 
L 231.229849 -342.620149 
L 237.05431 -340.913661 
L 242.878772 -331.662696 
L 248.703233 -334.896043 
L 254.527695 -334.357151 
L 260.352156 -333.458999 
L 266.176617 -343.608117 
L 272.001079 -344.685899 
L 277.82554 -346.751648 
L 283.650002 -339.117357 
L 289.474463 -336.782162 
L 295.298925 -334.626597 
L 301.123386 -333.189554 
L 306.947847 -336.24327 
L 312.772309 -331.39325 
L 318.59677 -331.483065 
L 324.421232 -331.752511 
L 330.245693 -330.135837 
L 336.070154 -325.645077 
L 341.894616 -331.57288 
L 347.719077 -332.560847 
L 353.543539 -328.339533 
L 359.368 -329.956207 
L 365.192461 -332.291402 
L 371.016923 -332.381217 
L 376.841384 -334.267336 
L 382.665846 -334.357151 
L 388.490307 -85.2098 
L 394.314768 -93.562613 
L 400.13923 -96.616329 
L 405.963691 -102.723763 
L 411.788153 -104.070991 
L 417.612614 -108.471935 
L 423.437076 -112.064543 
L 429.261537 -113.950662 
L 435.085998 -113.501586 
L 440.91046 -111.076576 
L 446.734921 -109.190457 
L 452.559383 -109.459902 
L 458.383844 -112.244173 
L 464.208305 -114.040477 
L 470.032767 -113.232141 
L 475.857228 -117.004379 
L 481.68169 -128.500724 
L 487.506151 -133.081299 
L 493.330612 -135.506309 
L 499.155074 -137.572059 
L 504.979535 -133.350744 
L 510.803997 -133.889635 
L 516.628458 -135.416494 
L 522.452919 -133.081299 
L 528.277381 -125.357192 
L 534.101842 -124.548855 
L 539.926304 -121.135878 
L 545.750765 -115.028444 
L 551.575226 -112.513619 
L 557.399688 -111.166391 
L 563.224149 -116.555303 
L 569.048611 -123.740518 
L 574.873072 -129.578506 
L 580.697534 -133.62019 
L 586.521995 -134.608157 
L 592.346456 -132.272962 
L 598.170918 -126.434974 
L 603.995379 -120.956247 
L 609.819841 -117.184009 
L 615.644302 -117.184009 
L 621.468763 -117.453455 
L 627.293225 -119.249759 
L 633.117686 -122.21366 
L 638.942148 -126.345159 
L 644.766609 -129.398876 
L 650.59107 -132.811853 
L 656.415532 -140.895221 
L 662.239993 -144.398013 
L 668.064455 -145.655426 
L 673.888916 -143.410046 
L 673.888916 -276.785611 
L 673.888916 -276.785611 
L 668.064455 -290.706966 
L 662.239993 -297.083845 
L 656.415532 -287.473619 
L 650.59107 -272.743927 
L 644.766609 -269.600396 
L 638.942148 -266.546679 
L 633.117686 -259.900354 
L 627.293225 -248.404009 
L 621.468763 -248.58364 
L 615.644302 -245.889184 
L 609.819841 -242.835467 
L 603.995379 -245.529923 
L 598.170918 -253.523476 
L 592.346456 -247.505858 
L 586.521995 -254.780888 
L 580.697534 -274.899492 
L 574.873072 -281.905077 
L 569.048611 -285.22824 
L 563.224149 -288.192141 
L 557.399688 -277.055057 
L 551.575226 -263.492962 
L 545.750765 -259.002203 
L 539.926304 -260.888322 
L 534.101842 -259.002203 
L 528.277381 -259.271648 
L 522.452919 -259.271648 
L 516.628458 -262.864256 
L 510.803997 -257.205899 
L 504.979535 -261.966104 
L 499.155074 -255.31978 
L 493.330612 -239.961381 
L 487.506151 -229.363188 
L 481.68169 -235.021545 
L 475.857228 -239.512305 
L 470.032767 -239.332675 
L 464.208305 -238.793784 
L 458.383844 -236.548404 
L 452.559383 -220.022408 
L 446.734921 -215.262202 
L 440.91046 -207.627911 
L 435.085998 -199.095467 
L 429.261537 -195.413044 
L 423.437076 -191.37136 
L 417.612614 -181.940765 
L 411.788153 -174.486104 
L 405.963691 -166.223106 
L 400.13923 -154.457315 
L 394.314768 -152.211935 
L 388.490307 -125.357192 
L 382.665846 -455.068774 
L 376.841384 -446.266885 
L 371.016923 -454.978959 
L 365.192461 -453.721546 
L 359.368 -442.225201 
L 353.543539 -439.530745 
L 347.719077 -449.769677 
L 341.894616 -466.026228 
L 336.070154 -443.752059 
L 330.245693 -457.403969 
L 324.421232 -495.126351 
L 318.59677 -501.233784 
L 312.772309 -497.281916 
L 306.947847 -495.036536 
L 301.123386 -476.624421 
L 295.298925 -471.7744 
L 289.474463 -469.439205 
L 283.650002 -463.062326 
L 277.82554 -466.565119 
L 272.001079 -469.618836 
L 266.176617 -469.618836 
L 260.352156 -462.792881 
L 254.527695 -463.331772 
L 248.703233 -474.109595 
L 242.878772 -469.34939 
L 237.05431 -473.84015 
L 231.229849 -466.205858 
L 225.405388 -464.85863 
L 219.580926 -459.918794 
L 213.756465 -473.391074 
L 207.932003 -474.917932 
L 202.107542 -472.403107 
L 196.283081 -471.504955 
L 190.458619 -466.654934 
L 184.634158 -458.751197 
L 178.809696 -452.553948 
L 172.985235 -453.631731 
L 167.160774 -450.667829 
L 161.336312 -447.165037 
L 155.511851 -445.548363 
L 149.687389 -437.105735 
L 143.862928 -427.85477 
L 138.038467 -425.699205 
L 132.214005 -406.299123 
L 126.389544 -397.856494 
L 120.565082 -386.360149 
L 114.740621 -375.223065 
L 108.916159 -361.660971 
L 103.091698 -359.595221 
L 97.267237 -331.57288 
z
" style="stroke: #ffffff; stroke-opacity: 0.2"/>
    </defs>
    <g clip-path="url(#p1ecbbb53e7)">
     <use xlink:href="#m3edb9cceca" x="0" y="576" style="fill: #4c72b0; fill-opacity: 0.2; stroke: #ffffff; stroke-opacity: 0.2"/>
    </g>
   </g>
   <g id="PolyCollection_2">
    <defs>
     <path id="m01e5d11c67" d="M 97.267237 -316.214482 
L 97.267237 -267.534646 
L 103.091698 -280.378219 
L 108.916159 -284.419903 
L 114.740621 -309.837603 
L 120.565082 -309.837603 
L 126.389544 -307.232962 
L 132.214005 -318.010786 
L 138.038467 -320.795057 
L 143.862928 -320.795057 
L 149.687389 -320.795057 
L 155.511851 -320.166351 
L 161.336312 -323.758958 
L 167.160774 -333.099739 
L 172.985235 -331.033989 
L 178.809696 -330.405283 
L 184.634158 -328.429349 
L 190.458619 -344.775714 
L 196.283081 -344.685899 
L 202.107542 -351.781299 
L 207.932003 -355.733168 
L 213.756465 -357.619287 
L 219.580926 -362.648938 
L 225.405388 -360.762819 
L 231.229849 -352.499821 
L 237.05431 -360.134112 
L 242.878772 -357.798917 
L 248.703233 -348.997028 
L 254.527695 -340.464585 
L 260.352156 -344.057192 
L 266.176617 -344.865529 
L 272.001079 -350.703517 
L 277.82554 -352.679451 
L 283.650002 -352.410006 
L 289.474463 -352.679451 
L 295.298925 -347.6498 
L 301.123386 -345.314605 
L 306.947847 -369.834154 
L 312.772309 -367.858219 
L 318.59677 -361.391525 
L 324.421232 -357.170211 
L 330.245693 -357.529472 
L 336.070154 -350.344256 
L 341.894616 -356.63132 
L 347.719077 -356.63132 
L 353.543539 -360.942449 
L 359.368 -357.798917 
L 365.192461 -354.026679 
L 371.016923 -351.601669 
L 376.841384 -354.835016 
L 382.665846 -356.541505 
L 388.490307 -95.269102 
L 394.314768 -96.436699 
L 400.13923 -96.526514 
L 405.963691 -96.79596 
L 411.788153 -96.616329 
L 417.612614 -96.077438 
L 423.437076 -93.382982 
L 429.261537 -94.640395 
L 435.085998 -89.610744 
L 440.91046 -88.443147 
L 446.734921 -88.263516 
L 452.559383 -93.113537 
L 458.383844 -95.448732 
L 464.208305 -104.340436 
L 470.032767 -106.13674 
L 475.857228 -113.321956 
L 481.68169 -117.902531 
L 487.506151 -133.62019 
L 493.330612 -139.907254 
L 499.155074 -142.332264 
L 504.979535 -140.53596 
L 510.803997 -141.344297 
L 516.628458 -132.722038 
L 522.452919 -126.165529 
L 528.277381 -126.165529 
L 534.101842 -126.524789 
L 539.926304 -129.488691 
L 545.750765 -124.728486 
L 551.575226 -124.45904 
L 557.399688 -122.932182 
L 563.224149 -121.854399 
L 569.048611 -118.531237 
L 574.873072 -116.734933 
L 580.697534 -114.579369 
L 586.521995 -113.411771 
L 592.346456 -111.795097 
L 598.170918 -110.717315 
L 603.995379 -113.771032 
L 609.819841 -113.771032 
L 615.644302 -113.591401 
L 621.468763 -112.603434 
L 627.293225 -112.333989 
L 633.117686 -112.423804 
L 638.942148 -112.423804 
L 644.766609 -112.423804 
L 650.59107 -112.513619 
L 656.415532 -112.423804 
L 662.239993 -112.513619 
L 668.064455 -112.513619 
L 673.888916 -112.513619 
L 673.888916 -297.802367 
L 673.888916 -297.802367 
L 668.064455 -260.888322 
L 662.239993 -251.00865 
L 656.415532 -258.553127 
L 650.59107 -250.918835 
L 644.766609 -253.164215 
L 638.942148 -259.271648 
L 633.117686 -269.420765 
L 627.293225 -268.163352 
L 621.468763 -264.301299 
L 615.644302 -264.301299 
L 609.819841 -262.864256 
L 603.995379 -249.481792 
L 598.170918 -243.284543 
L 592.346456 -243.553989 
L 586.521995 -244.541956 
L 580.697534 -251.727172 
L 574.873072 -259.720724 
L 569.048611 -270.049472 
L 563.224149 -269.420765 
L 557.399688 -264.84019 
L 551.575226 -256.936453 
L 545.750765 -243.91325 
L 539.926304 -247.595673 
L 534.101842 -261.247582 
L 528.277381 -259.361463 
L 522.452919 -256.128116 
L 516.628458 -255.050334 
L 510.803997 -252.086433 
L 504.979535 -241.937315 
L 499.155074 -268.792059 
L 493.330612 -261.696658 
L 487.506151 -252.445693 
L 481.68169 -242.476207 
L 475.857228 -235.829882 
L 470.032767 -232.50672 
L 464.208305 -230.620601 
L 458.383844 -233.404872 
L 452.559383 -227.477069 
L 446.734921 -214.453866 
L 440.91046 -196.041751 
L 435.085998 -183.467623 
L 429.261537 -179.7852 
L 423.437076 -173.228691 
L 417.612614 -174.575919 
L 411.788153 -166.941627 
L 405.963691 -159.217521 
L 400.13923 -157.780477 
L 394.314768 -145.116535 
L 388.490307 -133.530375 
L 382.665846 -487.132799 
L 376.841384 -488.929102 
L 371.016923 -509.047706 
L 365.192461 -507.790294 
L 359.368 -504.556946 
L 353.543539 -516.771813 
L 347.719077 -529.525571 
L 341.894616 -536.171895 
L 336.070154 -524.765365 
L 330.245693 -499.527296 
L 324.421232 -478.420725 
L 318.59677 -486.773538 
L 312.772309 -488.480027 
L 306.947847 -495.305981 
L 301.123386 -491.084667 
L 295.298925 -462.253989 
L 289.474463 -471.864215 
L 283.650002 -455.966926 
L 277.82554 -459.379903 
L 272.001079 -473.121628 
L 266.176617 -476.804051 
L 260.352156 -489.378178 
L 254.527695 -493.868938 
L 248.703233 -503.658795 
L 242.878772 -515.15514 
L 237.05431 -520.18479 
L 231.229849 -515.065324 
L 225.405388 -515.604215 
L 219.580926 -515.963476 
L 213.756465 -511.562532 
L 207.932003 -515.873661 
L 202.107542 -498.090252 
L 196.283081 -479.767953 
L 190.458619 -474.738302 
L 184.634158 -439.44093 
L 178.809696 -434.141833 
L 172.985235 -438.632593 
L 167.160774 -420.220478 
L 161.336312 -418.69362 
L 155.511851 -414.741751 
L 149.687389 -417.436207 
L 143.862928 -415.819534 
L 138.038467 -413.484338 
L 132.214005 -411.867665 
L 126.389544 -410.969513 
L 120.565082 -404.053743 
L 114.740621 -394.084256 
L 108.916159 -361.660971 
L 103.091698 -349.535919 
L 97.267237 -316.214482 
z
" style="stroke: #ffffff; stroke-opacity: 0.2"/>
    </defs>
    <g clip-path="url(#p1ecbbb53e7)">
     <use xlink:href="#m01e5d11c67" x="0" y="576" style="fill: #dd8452; fill-opacity: 0.2; stroke: #ffffff; stroke-opacity: 0.2"/>
    </g>
   </g>
   <g id="PolyCollection_3">
    <defs>
     <path id="me2f41ff322" d="M 97.267237 -325.555262 
L 97.267237 -269.690211 
L 103.091698 -282.713414 
L 108.916159 -277.953209 
L 114.740621 -299.598671 
L 120.565082 -300.137562 
L 126.389544 -301.574605 
L 132.214005 -301.125529 
L 138.038467 -306.33481 
L 143.862928 -310.196864 
L 149.687389 -310.107049 
L 155.511851 -310.107049 
L 161.336312 -310.107049 
L 167.160774 -310.107049 
L 172.985235 -310.107049 
L 178.809696 -310.017233 
L 184.634158 -321.693209 
L 190.458619 -316.304297 
L 196.283081 -319.98672 
L 202.107542 -331.842326 
L 207.932003 -331.033989 
L 213.756465 -330.495098 
L 219.580926 -324.926556 
L 225.405388 -322.860806 
L 231.229849 -315.226515 
L 237.05431 -337.051607 
L 242.878772 -342.530334 
L 248.703233 -340.913661 
L 254.527695 -343.248856 
L 260.352156 -336.06364 
L 266.176617 -335.704379 
L 272.001079 -335.345119 
L 277.82554 -335.075673 
L 283.650002 -339.296987 
L 289.474463 -339.296987 
L 295.298925 -337.949759 
L 301.123386 -335.345119 
L 306.947847 -335.165488 
L 312.772309 -325.285817 
L 318.59677 -325.734893 
L 324.421232 -329.3275 
L 330.245693 -330.495098 
L 336.070154 -329.776576 
L 341.894616 -340.105324 
L 347.719077 -338.668281 
L 353.543539 -337.051607 
L 359.368 -334.536782 
L 365.192461 -339.117357 
L 371.016923 -345.853496 
L 376.841384 -343.159041 
L 382.665846 -342.709965 
L 388.490307 -91.047787 
L 394.314768 -96.616329 
L 400.13923 -102.005241 
L 405.963691 -103.532099 
L 411.788153 -102.274687 
L 417.612614 -94.999656 
L 423.437076 -102.274687 
L 429.261537 -102.813578 
L 435.085998 -104.430251 
L 440.91046 -104.070991 
L 446.734921 -104.789512 
L 452.559383 -105.148773 
L 458.383844 -106.496001 
L 464.208305 -106.585816 
L 470.032767 -106.406186 
L 475.857228 -106.316371 
L 481.68169 -106.316371 
L 487.506151 -106.046925 
L 493.330612 -112.87288 
L 499.155074 -124.27941 
L 504.979535 -131.913701 
L 510.803997 -131.913701 
L 516.628458 -126.165529 
L 522.452919 -123.920149 
L 528.277381 -120.237726 
L 534.101842 -107.124707 
L 539.926304 -100.388568 
L 545.750765 -110.358054 
L 551.575226 -117.54327 
L 557.399688 -119.249759 
L 563.224149 -114.309923 
L 569.048611 -113.05251 
L 574.873072 -117.094194 
L 580.697534 -118.171976 
L 586.521995 -127.602572 
L 592.346456 -128.859985 
L 598.170918 -128.859985 
L 603.995379 -128.770169 
L 609.819841 -128.770169 
L 615.644302 -128.9498 
L 621.468763 -130.476658 
L 627.293225 -132.811853 
L 633.117686 -132.362777 
L 638.942148 -132.362777 
L 644.766609 -120.147911 
L 650.59107 -115.028444 
L 656.415532 -119.429389 
L 662.239993 -119.609019 
L 668.064455 -127.692387 
L 673.888916 -127.961833 
L 673.888916 -295.197726 
L 673.888916 -295.197726 
L 668.064455 -286.395837 
L 662.239993 -293.850498 
L 656.415532 -312.442244 
L 650.59107 -306.873702 
L 644.766609 -291.964379 
L 638.942148 -291.605118 
L 633.117686 -288.910663 
L 627.293225 -298.341258 
L 621.468763 -289.000478 
L 615.644302 -271.845775 
L 609.819841 -267.265201 
L 603.995379 -277.055057 
L 598.170918 -269.959656 
L 592.346456 -254.331812 
L 586.521995 -245.260478 
L 580.697534 -252.355878 
L 574.873072 -253.792921 
L 569.048611 -252.984584 
L 563.224149 -255.409595 
L 557.399688 -261.786474 
L 551.575226 -262.774441 
L 545.750765 -274.809677 
L 539.926304 -275.258753 
L 534.101842 -271.75596 
L 528.277381 -269.241135 
L 522.452919 -264.66056 
L 516.628458 -264.930005 
L 510.803997 -266.367049 
L 504.979535 -258.732757 
L 499.155074 -257.385529 
L 493.330612 -258.193866 
L 487.506151 -236.548404 
L 481.68169 -235.470621 
L 475.857228 -233.225241 
L 470.032767 -203.855673 
L 464.208305 -203.496412 
L 458.383844 -203.406597 
L 452.559383 -198.197315 
L 446.734921 -196.670457 
L 440.91046 -195.413044 
L 435.085998 -196.041751 
L 429.261537 -193.25748 
L 423.437076 -181.761135 
L 417.612614 -172.240724 
L 411.788153 -154.906391 
L 405.963691 -149.068403 
L 400.13923 -145.02672 
L 394.314768 -133.350744 
L 388.490307 -129.668321 
L 382.665846 -492.611526 
L 376.841384 -492.431895 
L 371.016923 -494.58746 
L 365.192461 -490.0967 
L 359.368 -492.701341 
L 353.543539 -492.072634 
L 347.719077 -490.815222 
L 341.894616 -490.366146 
L 336.070154 -490.545776 
L 330.245693 -473.750334 
L 324.421232 -475.546638 
L 318.59677 -477.522573 
L 312.772309 -478.600355 
L 306.947847 -482.911484 
L 301.123386 -484.079082 
L 295.298925 -481.743887 
L 289.474463 -515.963476 
L 283.650002 -510.933825 
L 277.82554 -490.006885 
L 272.001079 -494.318014 
L 266.176617 -502.131936 
L 260.352156 -506.892142 
L 254.527695 -496.114318 
L 248.703233 -488.480027 
L 242.878772 -474.109595 
L 237.05431 -467.193825 
L 231.229849 -469.34939 
L 225.405388 -478.959616 
L 219.580926 -486.324462 
L 213.756465 -486.414277 
L 207.932003 -486.414277 
L 202.107542 -485.875386 
L 196.283081 -485.246679 
L 190.458619 -481.923517 
L 184.634158 -471.59477 
L 178.809696 -461.804914 
L 172.985235 -444.560396 
L 167.160774 -448.961341 
L 161.336312 -433.243681 
L 155.511851 -412.765817 
L 149.687389 -412.406556 
L 143.862928 -404.951895 
L 138.038467 -405.939862 
L 132.214005 -377.37863 
L 126.389544 -372.977685 
L 120.565082 -376.211032 
L 114.740621 -373.067501 
L 108.916159 -364.355427 
L 103.091698 -352.410006 
L 97.267237 -325.555262 
z
" style="stroke: #ffffff; stroke-opacity: 0.2"/>
    </defs>
    <g clip-path="url(#p1ecbbb53e7)">
     <use xlink:href="#me2f41ff322" x="0" y="576" style="fill: #55a868; fill-opacity: 0.2; stroke: #ffffff; stroke-opacity: 0.2"/>
    </g>
   </g>
   <g id="line2d_13">
    <path d="M 97.267237 273.257797 
L 103.091698 243.439153 
L 108.916159 232.346976 
L 114.740621 223.85944 
L 120.565082 219.952479 
L 126.389544 214.51866 
L 132.214005 218.021452 
L 138.038467 213.800138 
L 143.862928 203.785744 
L 149.687389 201.98944 
L 155.511851 196.420898 
L 161.336312 198.62137 
L 167.160774 197.768126 
L 172.985235 193.95098 
L 178.809696 195.343115 
L 184.634158 192.424122 
L 190.458619 186.09215 
L 196.283081 186.541226 
L 202.107542 175.224512 
L 207.932003 173.024039 
L 213.756465 171.182828 
L 219.580926 179.356011 
L 225.405388 175.987941 
L 231.229849 178.772212 
L 237.05431 177.829152 
L 242.878772 177.829152 
L 248.703233 176.077756 
L 254.527695 184.924553 
L 260.352156 187.349563 
L 266.176617 181.287037 
L 272.001079 185.867612 
L 277.82554 186.586134 
L 283.650002 188.741699 
L 289.474463 190.538002 
L 295.298925 181.646298 
L 301.123386 181.601391 
L 306.947847 179.266195 
L 312.772309 175.62868 
L 318.59677 180.703239 
L 324.421232 183.756955 
L 330.245693 176.57174 
L 336.070154 182.858803 
L 341.894616 176.661555 
L 347.719077 182.005559 
L 353.543539 181.017592 
L 359.368 175.853218 
L 365.192461 179.041657 
L 371.016923 179.625456 
L 376.841384 175.493957 
L 382.665846 176.841185 
L 388.490307 473.725313 
L 394.314768 464.474348 
L 400.13923 455.08866 
L 405.963691 450.552993 
L 411.788153 444.535375 
L 417.612614 435.64367 
L 423.437076 430.61402 
L 429.261537 427.066319 
L 435.085998 416.782479 
L 440.91046 414.402377 
L 446.734921 406.723178 
L 452.559383 402.501863 
L 458.383844 398.325457 
L 464.208305 396.439338 
L 470.032767 397.921288 
L 475.857228 397.876381 
L 481.68169 390.646258 
L 487.506151 387.278188 
L 493.330612 386.784204 
L 499.155074 385.077715 
L 504.979535 386.11059 
L 510.803997 384.62864 
L 516.628458 381.215662 
L 522.452919 382.38326 
L 528.277381 383.550857 
L 534.101842 382.158722 
L 539.926304 382.023999 
L 545.750765 383.595765 
L 551.575226 382.38326 
L 557.399688 390.152274 
L 563.224149 399.313424 
L 569.048611 395.181925 
L 574.873072 393.071268 
L 580.697534 391.454594 
L 586.521995 390.691165 
L 592.346456 392.128208 
L 598.170918 395.226833 
L 603.995379 391.499502 
L 609.819841 393.161083 
L 615.644302 394.059235 
L 621.468763 394.777757 
L 627.293225 392.307839 
L 633.117686 394.957387 
L 638.942148 389.882828 
L 644.766609 394.418496 
L 650.59107 395.316648 
L 656.415532 401.154635 
L 662.239993 397.472212 
L 668.064455 394.912479 
L 673.888916 394.553219 
" clip-path="url(#p1ecbbb53e7)" style="fill: none; stroke: #4c72b0; stroke-width: 2; stroke-linecap: round"/>
   </g>
   <g id="line2d_14">
    <path d="M 97.267237 275.368454 
L 103.091698 250.489645 
L 108.916159 242.585908 
L 114.740621 239.622007 
L 120.565082 232.885867 
L 126.389544 229.607612 
L 132.214005 227.856216 
L 138.038467 221.973321 
L 143.862928 216.898762 
L 149.687389 210.072807 
L 155.511851 200.013506 
L 161.336312 197.408865 
L 167.160774 189.774573 
L 172.985235 189.819481 
L 178.809696 186.09215 
L 184.634158 186.675949 
L 190.458619 187.125025 
L 196.283081 187.708824 
L 202.107542 189.46022 
L 207.932003 190.40328 
L 213.756465 191.436154 
L 219.580926 190.897263 
L 225.405388 195.792191 
L 231.229849 193.412089 
L 237.05431 189.100959 
L 242.878772 177.335169 
L 248.703233 179.625456 
L 254.527695 182.813896 
L 260.352156 176.57174 
L 266.176617 176.706462 
L 272.001079 171.811534 
L 277.82554 168.71291 
L 283.650002 168.623095 
L 289.474463 165.479563 
L 295.298925 163.683259 
L 301.123386 164.850857 
L 306.947847 170.01523 
L 312.772309 167.814758 
L 318.59677 166.377715 
L 324.421232 167.230959 
L 330.245693 165.704101 
L 336.070154 166.692068 
L 341.894616 170.913382 
L 347.719077 176.392109 
L 353.543539 180.343978 
L 359.368 180.882869 
L 365.192461 183.173156 
L 371.016923 183.173156 
L 376.841384 188.33753 
L 382.665846 192.019953 
L 388.490307 469.86326 
L 394.314768 460.028496 
L 400.13923 454.100693 
L 405.963691 451.990036 
L 411.788153 449.565026 
L 417.612614 440.987675 
L 423.437076 434.026997 
L 429.261537 425.808907 
L 435.085998 426.437613 
L 440.91046 420.240364 
L 446.734921 418.578783 
L 452.559383 416.153773 
L 458.383844 414.626915 
L 464.208305 413.504225 
L 470.032767 412.65098 
L 475.857228 411.932459 
L 481.68169 413.144964 
L 487.506151 415.120898 
L 493.330612 413.908393 
L 499.155074 402.906032 
L 504.979535 397.606935 
L 510.803997 395.586093 
L 516.628458 394.687941 
L 522.452919 393.565251 
L 528.277381 393.295806 
L 534.101842 398.63981 
L 539.926304 399.537962 
L 545.750765 400.301391 
L 551.575226 398.909256 
L 557.399688 400.88519 
L 563.224149 400.930097 
L 569.048611 400.391206 
L 574.873072 402.546771 
L 580.697534 410.450508 
L 586.521995 407.127346 
L 592.346456 398.63981 
L 598.170918 398.145826 
L 603.995379 390.915703 
L 609.819841 390.107366 
L 615.644302 380.766586 
L 621.468763 381.934184 
L 627.293225 381.305477 
L 633.117686 383.955026 
L 638.942148 384.673547 
L 644.766609 382.652705 
L 650.59107 377.129071 
L 656.415532 387.278188 
L 662.239993 388.131432 
L 668.064455 385.077715 
L 673.888916 378.970282 
" clip-path="url(#p1ecbbb53e7)" style="fill: none; stroke: #dd8452; stroke-width: 2; stroke-linecap: round"/>
   </g>
   <g id="line2d_15">
    <path d="M 97.267237 272.135107 
L 103.091698 257.809584 
L 108.916159 247.795189 
L 114.740621 239.891452 
L 120.565082 234.996524 
L 126.389544 231.224286 
L 132.214005 230.909933 
L 138.038467 223.589994 
L 143.862928 221.299707 
L 149.687389 219.18905 
L 155.511851 218.021452 
L 161.336312 217.437653 
L 167.160774 206.929276 
L 172.985235 206.704738 
L 178.809696 199.205169 
L 184.634158 192.738475 
L 190.458619 189.100959 
L 196.283081 194.444963 
L 202.107542 186.002335 
L 207.932003 183.038434 
L 213.756465 183.038434 
L 219.580926 184.78983 
L 225.405388 182.768988 
L 231.229849 185.059276 
L 237.05431 180.837961 
L 242.878772 186.810672 
L 248.703233 183.48751 
L 254.527695 177.200446 
L 260.352156 177.424984 
L 266.176617 177.69443 
L 272.001079 163.907797 
L 277.82554 164.805949 
L 283.650002 163.144368 
L 289.474463 165.524471 
L 295.298925 169.566154 
L 301.123386 170.464306 
L 306.947847 171.317551 
L 312.772309 174.056914 
L 318.59677 170.194861 
L 324.421232 171.811534 
L 330.245693 169.611062 
L 336.070154 172.574963 
L 341.894616 180.388885 
L 347.719077 174.146729 
L 353.543539 172.574963 
L 359.368 172.979132 
L 365.192461 179.445826 
L 371.016923 168.71291 
L 376.841384 171.721719 
L 382.665846 170.733752 
L 388.490307 470.941042 
L 394.314768 461.869707 
L 400.13923 457.783116 
L 405.963691 452.708558 
L 411.788153 448.666874 
L 417.612614 441.032582 
L 423.437076 438.023773 
L 429.261537 434.880241 
L 435.085998 435.104779 
L 440.91046 430.389482 
L 446.734921 427.964471 
L 452.559383 423.967695 
L 458.383844 422.395929 
L 464.208305 421.093609 
L 470.032767 419.836196 
L 475.857228 408.339851 
L 481.68169 410.136155 
L 487.506151 406.543547 
L 493.330612 405.106504 
L 499.155074 399.897223 
L 504.979535 395.945354 
L 510.803997 391.858763 
L 516.628458 396.843506 
L 522.452919 394.687941 
L 528.277381 399.987038 
L 534.101842 398.46018 
L 539.926304 391.095334 
L 545.750765 378.341576 
L 551.575226 370.258208 
L 557.399688 370.482746 
L 563.224149 368.955888 
L 569.048611 367.833198 
L 574.873072 371.111453 
L 580.697534 360.737798 
L 586.521995 367.743383 
L 592.346456 362.309563 
L 598.170918 368.012828 
L 603.995379 367.698475 
L 609.819841 370.437839 
L 615.644302 368.327182 
L 621.468763 363.207715 
L 627.293225 361.501227 
L 633.117686 364.734574 
L 638.942148 367.024861 
L 644.766609 366.30634 
L 650.59107 363.701699 
L 656.415532 367.78829 
L 662.239993 370.168393 
L 668.064455 378.07213 
L 673.888916 378.790652 
" clip-path="url(#p1ecbbb53e7)" style="fill: none; stroke: #55a868; stroke-width: 2; stroke-linecap: round"/>
   </g>
   <g id="patch_3">
    <path d="M 68.436153 513.338305 
L 68.436153 17.28 
" style="fill: none; stroke: #cccccc; stroke-width: 1.25; stroke-linejoin: miter; stroke-linecap: square"/>
   </g>
   <g id="patch_4">
    <path d="M 702.72 513.338305 
L 702.72 17.28 
" style="fill: none; stroke: #cccccc; stroke-width: 1.25; stroke-linejoin: miter; stroke-linecap: square"/>
   </g>
   <g id="patch_5">
    <path d="M 68.436153 513.338305 
L 702.72 513.338305 
" style="fill: none; stroke: #cccccc; stroke-width: 1.25; stroke-linejoin: miter; stroke-linecap: square"/>
   </g>
   <g id="patch_6">
    <path d="M 68.436153 17.28 
L 702.72 17.28 
" style="fill: none; stroke: #cccccc; stroke-width: 1.25; stroke-linejoin: miter; stroke-linecap: square"/>
   </g>
   <g id="legend_1">
    <g id="patch_7">
     <path d="M 601.469604 148.162063 
L 688.72 148.162063 
Q 692.72 148.162063 692.72 144.162063 
L 692.72 31.28 
Q 692.72 27.28 688.72 27.28 
L 601.469604 27.28 
Q 597.469604 27.28 597.469604 31.28 
L 597.469604 144.162063 
Q 597.469604 148.162063 601.469604 148.162063 
z
" style="fill: #ffffff; opacity: 0.8; stroke: #cccccc; stroke-linejoin: miter"/>
    </g>
    <g id="text_15">
     <!-- $\theta_{\mathrm{init}}$ -->
     <g style="fill: #262626" transform="translate(627.348416 51.884405) scale(0.24 -0.24)">
      <defs>
       <path id="CMMI12-12" d="M 2835 3200 
C 2835 3850 2630 4480 2106 4480 
C 1210 4480 256 2615 256 1216 
C 256 923 320 -64 992 -64 
C 1862 -64 2835 1756 2835 3200 
z
M 896 2304 
C 992 2679 1126 3214 1382 3665 
C 1594 4047 1818 4352 2099 4352 
C 2310 4352 2451 4174 2451 3564 
C 2451 3334 2432 3017 2246 2304 
L 896 2304 
z
M 2202 2113 
C 2042 1490 1907 1088 1677 687 
C 1491 363 1267 64 998 64 
C 800 64 640 217 640 846 
C 640 1260 742 1693 845 2113 
L 2202 2113 
z
" transform="scale(0.015625)"/>
       <path id="CMR17-69" d="M 992 3909 
C 992 4049 877 4170 730 4170 
C 589 4170 467 4056 467 3909 
C 467 3769 582 3648 730 3648 
C 870 3648 992 3763 992 3909 
z
M 243 2706 
L 243 2541 
C 602 2541 653 2502 653 2197 
L 653 427 
C 653 184 627 153 218 153 
L 218 -13 
C 371 0 646 0 806 0 
C 960 0 1222 0 1370 -13 
L 1370 153 
C 992 153 979 191 979 420 
L 979 2776 
L 243 2706 
z
" transform="scale(0.015625)"/>
       <path id="CMR17-6e" d="M 2656 1933 
C 2656 2259 2592 2790 1837 2790 
C 1331 2790 1069 2400 973 2144 
L 966 2144 
L 966 2790 
L 211 2720 
L 211 2554 
C 589 2554 646 2515 646 2208 
L 646 428 
C 646 184 621 153 211 153 
L 211 -13 
C 365 0 646 0 813 0 
C 979 0 1267 0 1421 -13 
L 1421 153 
C 1011 153 986 178 986 428 
L 986 1658 
C 986 2247 1344 2688 1792 2688 
C 2266 2688 2317 2266 2317 1958 
L 2317 428 
C 2317 184 2291 153 1882 153 
L 1882 -13 
C 2035 0 2317 0 2483 0 
C 2650 0 2938 0 3091 -13 
L 3091 153 
C 2682 153 2656 178 2656 428 
L 2656 1933 
z
" transform="scale(0.015625)"/>
      </defs>
      <use xlink:href="#CMMI12-12" transform="scale(0.996264)"/>
      <use xlink:href="#CMR17-69" transform="translate(45.45979 -14.943915) scale(0.697382)"/>
      <use xlink:href="#CMR17-6e" transform="translate(62.869449 -14.943915) scale(0.697382)"/>
      <use xlink:href="#CMR17-69" transform="translate(98.496057 -14.943915) scale(0.697382)"/>
      <use xlink:href="#CMR17-74" transform="translate(115.905716 -14.943915) scale(0.697382)"/>
     </g>
    </g>
    <g id="line2d_16">
     <path d="M 605.469604 73.535163 
L 625.469604 73.535163 
L 645.469604 73.535163 
" style="fill: none; stroke: #4c72b0; stroke-width: 2; stroke-linecap: round"/>
    </g>
    <g id="text_16">
     <!-- 0.4 -->
     <g style="fill: #262626" transform="translate(661.469604 80.535163) scale(0.2 -0.2)">
      <defs>
       <path id="CMR17-2e" d="M 1062 261 
C 1062 420 934 522 800 522 
C 672 522 538 420 538 261 
C 538 102 666 0 800 0 
C 928 0 1062 102 1062 261 
z
" transform="scale(0.015625)"/>
      </defs>
      <use xlink:href="#CMR17-30" transform="scale(0.996264)"/>
      <use xlink:href="#CMR17-2e" transform="translate(45.690477 0) scale(0.996264)"/>
      <use xlink:href="#CMR17-34" transform="translate(70.561536 0) scale(0.996264)"/>
     </g>
    </g>
    <g id="line2d_17">
     <path d="M 605.469604 101.410796 
L 625.469604 101.410796 
L 645.469604 101.410796 
" style="fill: none; stroke: #dd8452; stroke-width: 2; stroke-linecap: round"/>
    </g>
    <g id="text_17">
     <!-- 0.6 -->
     <g style="fill: #262626" transform="translate(661.469604 108.410796) scale(0.2 -0.2)">
      <use xlink:href="#CMR17-30" transform="scale(0.996264)"/>
      <use xlink:href="#CMR17-2e" transform="translate(45.690477 0) scale(0.996264)"/>
      <use xlink:href="#CMR17-36" transform="translate(70.561536 0) scale(0.996264)"/>
     </g>
    </g>
    <g id="line2d_18">
     <path d="M 605.469604 129.28643 
L 625.469604 129.28643 
L 645.469604 129.28643 
" style="fill: none; stroke: #55a868; stroke-width: 2; stroke-linecap: round"/>
    </g>
    <g id="text_18">
     <!-- 0.8 -->
     <g style="fill: #262626" transform="translate(661.469604 136.28643) scale(0.2 -0.2)">
      <use xlink:href="#CMR17-30" transform="scale(0.996264)"/>
      <use xlink:href="#CMR17-2e" transform="translate(45.690477 0) scale(0.996264)"/>
      <use xlink:href="#CMR17-38" transform="translate(70.561536 0) scale(0.996264)"/>
     </g>
    </g>
   </g>
  </g>
 </g>
 <defs>
  <clipPath id="p1ecbbb53e7">
   <rect x="68.436153" y="17.28" width="634.283847" height="496.058305"/>
  </clipPath>
 </defs>
</svg>
