<?xml version="1.0" encoding="utf-8" standalone="no"?>
<!DOCTYPE svg PUBLIC "-//W3C//DTD SVG 1.1//EN"
  "http://www.w3.org/Graphics/SVG/1.1/DTD/svg11.dtd">
<svg xmlns:xlink="http://www.w3.org/1999/xlink" width="720pt" height="576pt" viewBox="0 0 720 576" xmlns="http://www.w3.org/2000/svg" version="1.1">
 <metadata>
  <rdf:RDF xmlns:dc="http://purl.org/dc/elements/1.1/" xmlns:cc="http://creativecommons.org/ns#" xmlns:rdf="http://www.w3.org/1999/02/22-rdf-syntax-ns#">
   <cc:Work>
    <dc:type rdf:resource="http://purl.org/dc/dcmitype/StillImage"/>
    <dc:date>2025-04-25T00:39:19.360138</dc:date>
    <dc:format>image/svg+xml</dc:format>
    <dc:creator>
     <cc:Agent>
      <dc:title>Matplotlib v3.9.2, https://matplotlib.org/</dc:title>
     </cc:Agent>
    </dc:creator>
   </cc:Work>
  </rdf:RDF>
 </metadata>
 <defs>
  <style type="text/css">*{stroke-linejoin: round; stroke-linecap: butt}</style>
 </defs>
 <g id="figure_1">
  <g id="patch_1">
   <path d="M 0 576 
L 720 576 
L 720 0 
L 0 0 
z
" style="fill: #ffffff"/>
  </g>
  <g id="axes_1">
   <g id="patch_2">
    <path d="M 89.353994 495.840956 
L 694.08 495.840956 
L 694.08 49.831226 
L 89.353994 49.831226 
z
" style="fill: #ffffff"/>
   </g>
   <g id="matplotlib.axis_1">
    <g id="xtick_1">
     <g id="line2d_1">
      <path d="M 105.622133 495.840956 
L 105.622133 49.831226 
" clip-path="url(#pa5360b4947)" style="fill: none; stroke: #cccccc; stroke-linecap: round"/>
     </g>
     <g id="text_1">
      <!-- $\mathdefault{0}$ -->
      <g style="fill: #262626" transform="translate(100.596181 520.56165) scale(0.22 -0.22)">
       <defs>
        <path id="CMR17-30" d="M 2688 2025 
C 2688 2416 2682 3080 2413 3591 
C 2176 4039 1798 4198 1466 4198 
C 1158 4198 768 4058 525 3597 
C 269 3118 243 2524 243 2025 
C 243 1661 250 1106 448 619 
C 723 -39 1216 -128 1466 -128 
C 1760 -128 2208 -7 2470 600 
C 2662 1042 2688 1559 2688 2025 
z
M 1466 -26 
C 1056 -26 813 325 723 812 
C 653 1188 653 1738 653 2096 
C 653 2588 653 2997 736 3387 
C 858 3929 1216 4096 1466 4096 
C 1728 4096 2067 3923 2189 3400 
C 2272 3036 2278 2607 2278 2096 
C 2278 1680 2278 1169 2202 792 
C 2067 95 1690 -26 1466 -26 
z
" transform="scale(0.015625)"/>
       </defs>
       <use xlink:href="#CMR17-30" transform="scale(0.996264)"/>
      </g>
     </g>
    </g>
    <g id="xtick_2">
     <g id="line2d_2">
      <path d="M 217.816197 495.840956 
L 217.816197 49.831226 
" clip-path="url(#pa5360b4947)" style="fill: none; stroke: #cccccc; stroke-linecap: round"/>
     </g>
     <g id="text_2">
      <!-- $\mathdefault{10}$ -->
      <g style="fill: #262626" transform="translate(207.764292 520.56165) scale(0.22 -0.22)">
       <defs>
        <path id="CMR17-31" d="M 1702 4058 
C 1702 4192 1696 4192 1606 4192 
C 1357 3916 979 3827 621 3827 
C 602 3827 570 3827 563 3808 
C 557 3795 557 3782 557 3648 
C 755 3648 1088 3686 1344 3839 
L 1344 461 
C 1344 236 1331 160 781 160 
L 589 160 
L 589 0 
C 896 0 1216 0 1523 0 
C 1830 0 2150 0 2458 0 
L 2458 160 
L 2266 160 
C 1715 160 1702 230 1702 458 
L 1702 4058 
z
" transform="scale(0.015625)"/>
       </defs>
       <use xlink:href="#CMR17-31" transform="scale(0.996264)"/>
       <use xlink:href="#CMR17-30" transform="translate(45.690477 0) scale(0.996264)"/>
      </g>
     </g>
    </g>
    <g id="xtick_3">
     <g id="line2d_3">
      <path d="M 330.010262 495.840956 
L 330.010262 49.831226 
" clip-path="url(#pa5360b4947)" style="fill: none; stroke: #cccccc; stroke-linecap: round"/>
     </g>
     <g id="text_3">
      <!-- $\mathdefault{20}$ -->
      <g style="fill: #262626" transform="translate(319.958357 520.56165) scale(0.22 -0.22)">
       <defs>
        <path id="CMR17-32" d="M 2669 989 
L 2554 989 
C 2490 536 2438 459 2413 420 
C 2381 369 1920 369 1830 369 
L 602 369 
C 832 619 1280 1072 1824 1597 
C 2214 1967 2669 2402 2669 3035 
C 2669 3790 2067 4224 1395 4224 
C 691 4224 262 3604 262 3030 
C 262 2780 448 2748 525 2748 
C 589 2748 781 2787 781 3010 
C 781 3207 614 3264 525 3264 
C 486 3264 448 3258 422 3245 
C 544 3790 915 4058 1306 4058 
C 1862 4058 2227 3617 2227 3035 
C 2227 2479 1901 2000 1536 1584 
L 262 146 
L 262 0 
L 2515 0 
L 2669 989 
z
" transform="scale(0.015625)"/>
       </defs>
       <use xlink:href="#CMR17-32" transform="scale(0.996264)"/>
       <use xlink:href="#CMR17-30" transform="translate(45.690477 0) scale(0.996264)"/>
      </g>
     </g>
    </g>
    <g id="xtick_4">
     <g id="line2d_4">
      <path d="M 442.204326 495.840956 
L 442.204326 49.831226 
" clip-path="url(#pa5360b4947)" style="fill: none; stroke: #cccccc; stroke-linecap: round"/>
     </g>
     <g id="text_4">
      <!-- $\mathdefault{30}$ -->
      <g style="fill: #262626" transform="translate(432.152421 520.56165) scale(0.22 -0.22)">
       <defs>
        <path id="CMR17-33" d="M 1414 2157 
C 1984 2157 2234 1662 2234 1090 
C 2234 320 1824 25 1453 25 
C 1114 25 563 194 390 693 
C 422 680 454 680 486 680 
C 640 680 755 782 755 948 
C 755 1133 614 1216 486 1216 
C 378 1216 211 1165 211 926 
C 211 335 787 -128 1466 -128 
C 2176 -128 2720 430 2720 1085 
C 2720 1707 2208 2157 1600 2227 
C 2086 2328 2554 2756 2554 3329 
C 2554 3820 2048 4179 1472 4179 
C 890 4179 378 3829 378 3329 
C 378 3110 544 3072 627 3072 
C 762 3072 877 3155 877 3321 
C 877 3486 762 3569 627 3569 
C 602 3569 570 3569 544 3557 
C 730 3959 1235 4032 1459 4032 
C 1683 4032 2106 3925 2106 3320 
C 2106 3143 2080 2828 1862 2550 
C 1670 2304 1453 2304 1242 2284 
C 1210 2284 1062 2269 1037 2269 
C 992 2263 966 2257 966 2208 
C 966 2163 973 2157 1101 2157 
L 1414 2157 
z
" transform="scale(0.015625)"/>
       </defs>
       <use xlink:href="#CMR17-33" transform="scale(0.996264)"/>
       <use xlink:href="#CMR17-30" transform="translate(45.690477 0) scale(0.996264)"/>
      </g>
     </g>
    </g>
    <g id="xtick_5">
     <g id="line2d_5">
      <path d="M 554.39839 495.840956 
L 554.39839 49.831226 
" clip-path="url(#pa5360b4947)" style="fill: none; stroke: #cccccc; stroke-linecap: round"/>
     </g>
     <g id="text_5">
      <!-- $\mathdefault{40}$ -->
      <g style="fill: #262626" transform="translate(544.346485 520.56165) scale(0.22 -0.22)">
       <defs>
        <path id="CMR17-34" d="M 2150 4122 
C 2150 4256 2144 4256 2029 4256 
L 128 1254 
L 128 1088 
L 1779 1088 
L 1779 457 
C 1779 224 1766 160 1318 160 
L 1197 160 
L 1197 0 
C 1402 0 1747 0 1965 0 
C 2182 0 2528 0 2733 0 
L 2733 160 
L 2611 160 
C 2163 160 2150 224 2150 457 
L 2150 1088 
L 2803 1088 
L 2803 1254 
L 2150 1254 
L 2150 4122 
z
M 1798 3703 
L 1798 1254 
L 256 1254 
L 1798 3703 
z
" transform="scale(0.015625)"/>
       </defs>
       <use xlink:href="#CMR17-34" transform="scale(0.996264)"/>
       <use xlink:href="#CMR17-30" transform="translate(45.690477 0) scale(0.996264)"/>
      </g>
     </g>
    </g>
    <g id="xtick_6">
     <g id="line2d_6">
      <path d="M 666.592454 495.840956 
L 666.592454 49.831226 
" clip-path="url(#pa5360b4947)" style="fill: none; stroke: #cccccc; stroke-linecap: round"/>
     </g>
     <g id="text_6">
      <!-- $\mathdefault{50}$ -->
      <g style="fill: #262626" transform="translate(656.540549 520.56165) scale(0.22 -0.22)">
       <defs>
        <path id="CMR17-35" d="M 730 3692 
C 794 3666 1056 3584 1325 3584 
C 1920 3584 2246 3911 2432 4100 
C 2432 4157 2432 4192 2394 4192 
C 2387 4192 2374 4192 2323 4163 
C 2099 4058 1837 3973 1517 3973 
C 1325 3973 1037 3999 723 4139 
C 653 4171 640 4171 634 4171 
C 602 4171 595 4164 595 4037 
L 595 2203 
C 595 2089 595 2057 659 2057 
C 691 2057 704 2070 736 2114 
C 941 2401 1222 2522 1542 2522 
C 1766 2522 2246 2382 2246 1289 
C 2246 1085 2246 715 2054 421 
C 1894 159 1645 25 1370 25 
C 947 25 518 320 403 814 
C 429 807 480 795 506 795 
C 589 795 749 840 749 1038 
C 749 1210 627 1280 506 1280 
C 358 1280 262 1190 262 1011 
C 262 454 704 -128 1382 -128 
C 2042 -128 2669 440 2669 1264 
C 2669 2030 2170 2624 1549 2624 
C 1222 2624 947 2503 730 2274 
L 730 3692 
z
" transform="scale(0.015625)"/>
       </defs>
       <use xlink:href="#CMR17-35" transform="scale(0.996264)"/>
       <use xlink:href="#CMR17-30" transform="translate(45.690477 0) scale(0.996264)"/>
      </g>
     </g>
    </g>
    <g id="text_7">
     <!-- Epoch -->
     <g style="fill: #262626" transform="translate(362.198305 545.429243) scale(0.24 -0.24)">
      <defs>
       <path id="CMSS17-45" d="M 1958 433 
C 1446 433 1216 433 1101 433 
L 1101 2107 
L 3085 2107 
L 3085 2496 
L 1101 2496 
L 1101 4009 
L 1926 4009 
C 2003 4009 2080 4009 2157 4009 
L 3251 4009 
L 3251 4416 
L 563 4416 
L 563 0 
L 3334 0 
L 3334 433 
L 1958 433 
z
" transform="scale(0.015625)"/>
       <path id="CMSS17-70" d="M 966 333 
C 1178 129 1466 -5 1773 -5 
C 2368 -5 2880 603 2880 1412 
C 2880 2159 2496 2816 1946 2816 
C 1626 2816 1242 2702 954 2472 
L 954 2765 
L 480 2765 
L 480 -1216 
L 966 -1216 
L 966 333 
z
M 966 2100 
C 1018 2176 1235 2415 1587 2415 
C 2035 2415 2394 1960 2394 1412 
C 2394 787 1958 384 1530 384 
C 1402 384 1267 415 1139 523 
C 966 674 966 768 966 857 
L 966 2100 
z
" transform="scale(0.015625)"/>
       <path id="CMSS17-6f" d="M 2829 1356 
C 2829 2176 2221 2816 1504 2816 
C 768 2816 173 2157 173 1356 
C 173 544 787 -64 1498 -64 
C 2227 -64 2829 563 2829 1356 
z
M 1504 337 
C 1050 337 659 709 659 1408 
C 659 2151 1114 2427 1498 2427 
C 1914 2427 2342 2126 2342 1408 
C 2342 683 1926 337 1504 337 
z
" transform="scale(0.015625)"/>
       <path id="CMSS17-63" d="M 2464 2541 
C 2464 2585 2170 2714 2093 2739 
C 1882 2816 1613 2816 1542 2816 
C 710 2816 211 2093 211 1363 
C 211 595 768 -64 1517 -64 
C 1946 -64 2253 76 2502 242 
L 2464 664 
C 2189 453 1869 337 1523 337 
C 1024 337 698 774 698 1369 
C 698 1831 909 2414 1549 2414 
C 1901 2414 2099 2343 2394 2145 
L 2464 2541 
z
" transform="scale(0.015625)"/>
       <path id="CMSS17-68" d="M 2618 1891 
C 2618 2292 2522 2820 1798 2820 
C 1395 2820 1133 2623 947 2407 
L 947 4448 
L 474 4448 
L 474 32 
L 960 32 
L 960 1573 
C 960 1973 1114 2432 1549 2432 
C 2112 2432 2131 2056 2131 1839 
L 2131 32 
L 2618 32 
L 2618 1891 
z
" transform="scale(0.015625)"/>
      </defs>
      <use xlink:href="#CMSS17-45" transform="scale(0.996264)"/>
      <use xlink:href="#CMSS17-70" transform="translate(55.892013 0) scale(0.996264)"/>
      <use xlink:href="#CMSS17-6f" transform="translate(106.699395 0) scale(0.996264)"/>
      <use xlink:href="#CMSS17-63" transform="translate(156.145457 0) scale(0.996264)"/>
      <use xlink:href="#CMSS17-68" transform="translate(197.784279 0) scale(0.996264)"/>
     </g>
    </g>
   </g>
   <g id="matplotlib.axis_2">
    <g id="ytick_1">
     <g id="line2d_7">
      <path d="M 89.353994 494.599586 
L 694.08 494.599586 
" clip-path="url(#pa5360b4947)" style="fill: none; stroke: #cccccc; stroke-linecap: round"/>
     </g>
     <g id="text_8">
      <!-- $\mathdefault{0.0}$ -->
      <g style="fill: #262626" transform="translate(53.788805 502.209932) scale(0.22 -0.22)">
       <defs>
        <path id="CMMI12-3a" d="M 1178 307 
C 1178 492 1024 619 870 619 
C 685 619 557 466 557 313 
C 557 128 710 0 864 0 
C 1050 0 1178 153 1178 307 
z
" transform="scale(0.015625)"/>
       </defs>
       <use xlink:href="#CMR17-30" transform="scale(0.996264)"/>
       <use xlink:href="#CMMI12-3a" transform="translate(45.690477 0) scale(0.996264)"/>
       <use xlink:href="#CMR17-30" transform="translate(72.787654 0) scale(0.996264)"/>
      </g>
     </g>
    </g>
    <g id="ytick_2">
     <g id="line2d_8">
      <path d="M 89.353994 414.901935 
L 694.08 414.901935 
" clip-path="url(#pa5360b4947)" style="fill: none; stroke: #cccccc; stroke-linecap: round"/>
     </g>
     <g id="text_9">
      <!-- $\mathdefault{0.1}$ -->
      <g style="fill: #262626" transform="translate(53.788805 422.512282) scale(0.22 -0.22)">
       <use xlink:href="#CMR17-30" transform="scale(0.996264)"/>
       <use xlink:href="#CMMI12-3a" transform="translate(45.690477 0) scale(0.996264)"/>
       <use xlink:href="#CMR17-31" transform="translate(72.787654 0) scale(0.996264)"/>
      </g>
     </g>
    </g>
    <g id="ytick_3">
     <g id="line2d_9">
      <path d="M 89.353994 335.204285 
L 694.08 335.204285 
" clip-path="url(#pa5360b4947)" style="fill: none; stroke: #cccccc; stroke-linecap: round"/>
     </g>
     <g id="text_10">
      <!-- $\mathdefault{0.2}$ -->
      <g style="fill: #262626" transform="translate(53.788805 342.814631) scale(0.22 -0.22)">
       <use xlink:href="#CMR17-30" transform="scale(0.996264)"/>
       <use xlink:href="#CMMI12-3a" transform="translate(45.690477 0) scale(0.996264)"/>
       <use xlink:href="#CMR17-32" transform="translate(72.787654 0) scale(0.996264)"/>
      </g>
     </g>
    </g>
    <g id="ytick_4">
     <g id="line2d_10">
      <path d="M 89.353994 255.506634 
L 694.08 255.506634 
" clip-path="url(#pa5360b4947)" style="fill: none; stroke: #cccccc; stroke-linecap: round"/>
     </g>
     <g id="text_11">
      <!-- $\mathdefault{0.3}$ -->
      <g style="fill: #262626" transform="translate(53.788805 263.116981) scale(0.22 -0.22)">
       <use xlink:href="#CMR17-30" transform="scale(0.996264)"/>
       <use xlink:href="#CMMI12-3a" transform="translate(45.690477 0) scale(0.996264)"/>
       <use xlink:href="#CMR17-33" transform="translate(72.787654 0) scale(0.996264)"/>
      </g>
     </g>
    </g>
    <g id="ytick_5">
     <g id="line2d_11">
      <path d="M 89.353994 175.808984 
L 694.08 175.808984 
" clip-path="url(#pa5360b4947)" style="fill: none; stroke: #cccccc; stroke-linecap: round"/>
     </g>
     <g id="text_12">
      <!-- $\mathdefault{0.4}$ -->
      <g style="fill: #262626" transform="translate(53.788805 183.41933) scale(0.22 -0.22)">
       <use xlink:href="#CMR17-30" transform="scale(0.996264)"/>
       <use xlink:href="#CMMI12-3a" transform="translate(45.690477 0) scale(0.996264)"/>
       <use xlink:href="#CMR17-34" transform="translate(72.787654 0) scale(0.996264)"/>
      </g>
     </g>
    </g>
    <g id="ytick_6">
     <g id="line2d_12">
      <path d="M 89.353994 96.111333 
L 694.08 96.111333 
" clip-path="url(#pa5360b4947)" style="fill: none; stroke: #cccccc; stroke-linecap: round"/>
     </g>
     <g id="text_13">
      <!-- $\mathdefault{0.5}$ -->
      <g style="fill: #262626" transform="translate(53.788805 103.72168) scale(0.22 -0.22)">
       <use xlink:href="#CMR17-30" transform="scale(0.996264)"/>
       <use xlink:href="#CMMI12-3a" transform="translate(45.690477 0) scale(0.996264)"/>
       <use xlink:href="#CMR17-35" transform="translate(72.787654 0) scale(0.996264)"/>
      </g>
     </g>
    </g>
    <g id="text_14">
     <!-- Mean Squared Error (MSE) -->
     <g style="fill: #262626" transform="translate(43.831226 402.556914) rotate(-90) scale(0.24 -0.24)">
      <defs>
       <path id="CMSS17-4d" d="M 3194 2371 
L 2886 1473 
C 2835 1307 2662 791 2624 587 
L 2618 587 
C 2598 715 2560 849 2458 1174 
C 2400 1365 2336 1562 2272 1741 
L 1325 4416 
L 576 4416 
L 576 0 
L 1075 0 
L 1075 3900 
L 1082 3900 
C 1082 3894 1139 3613 1530 2499 
L 2374 96 
L 2848 96 
L 3610 2231 
C 3661 2378 3821 2843 3891 3066 
C 3955 3257 4115 3728 4154 3913 
L 4160 3913 
L 4160 0 
L 4666 0 
L 4666 4416 
L 3923 4416 
L 3194 2371 
z
" transform="scale(0.015625)"/>
       <path id="CMSS17-65" d="M 2502 1377 
C 2502 1590 2490 2003 2285 2345 
C 2061 2713 1696 2816 1421 2816 
C 755 2816 192 2188 192 1375 
C 192 582 774 -64 1510 -64 
C 1798 -64 2150 19 2470 248 
C 2470 274 2458 414 2451 420 
C 2451 433 2432 630 2432 656 
C 2125 407 1773 325 1517 325 
C 1107 325 666 667 646 1377 
L 2502 1377 
z
M 698 1728 
C 781 2084 1062 2421 1421 2421 
C 1517 2421 1965 2421 2080 1728 
L 698 1728 
z
" transform="scale(0.015625)"/>
       <path id="CMSS17-61" d="M 2406 1791 
C 2406 2392 1978 2808 1402 2808 
C 1120 2808 813 2757 461 2553 
L 499 2135 
C 659 2248 934 2432 1395 2432 
C 1722 2432 1920 2180 1920 1782 
L 1920 1536 
C 896 1536 256 1238 256 726 
C 256 461 416 -64 947 -64 
C 1043 -64 1562 -64 1933 217 
L 1933 -19 
L 2406 -19 
L 2406 1791 
z
M 1920 816 
C 1920 701 1920 548 1728 434 
C 1562 325 1350 325 1261 325 
C 941 325 723 511 723 744 
C 723 1211 1722 1211 1920 1211 
L 1920 816 
z
" transform="scale(0.015625)"/>
       <path id="CMSS17-6e" d="M 2618 1877 
C 2618 2283 2522 2816 1798 2816 
C 1389 2816 1120 2606 941 2389 
L 941 2758 
L 474 2758 
L 474 0 
L 960 0 
L 960 1559 
C 960 1964 1114 2428 1549 2428 
C 2112 2428 2131 2048 2131 1829 
L 2131 0 
L 2618 0 
L 2618 1877 
z
" transform="scale(0.015625)"/>
       <path id="CMSS17-53" d="M 2797 4169 
C 2515 4334 2208 4480 1690 4480 
C 864 4480 333 3879 333 3266 
C 333 3025 403 2753 653 2475 
C 902 2196 1184 2121 1542 2033 
C 1690 1994 1939 1924 1984 1906 
C 2342 1767 2515 1444 2515 1140 
C 2515 742 2202 318 1645 318 
C 1453 318 890 318 358 819 
L 269 318 
C 794 -64 1363 -128 1651 -128 
C 2438 -128 3002 488 3002 1186 
C 3002 1440 2925 1763 2656 2061 
C 2394 2347 2163 2410 1638 2549 
C 1338 2626 1146 2677 986 2873 
C 877 3013 819 3146 819 3317 
C 819 3673 1126 4060 1690 4060 
C 1971 4060 2336 4002 2707 3660 
L 2797 4169 
z
" transform="scale(0.015625)"/>
       <path id="CMSS17-71" d="M 2611 2816 
L 2138 2816 
L 2138 2428 
C 2112 2460 1818 2816 1318 2816 
C 736 2816 211 2228 211 1399 
C 211 633 653 -5 1229 -5 
C 1498 -5 1837 91 2125 365 
L 2125 -1216 
L 2611 -1216 
L 2611 2816 
z
M 2138 914 
C 2138 832 2138 718 1939 554 
C 1888 510 1747 384 1504 384 
C 1050 384 698 850 698 1399 
C 698 2011 1126 2415 1562 2415 
C 1926 2415 2138 2061 2138 1797 
L 2138 914 
z
" transform="scale(0.015625)"/>
       <path id="CMSS17-75" d="M 2618 2739 
L 2131 2739 
L 2131 972 
C 2131 498 1786 306 1421 306 
C 998 306 960 447 960 709 
L 960 2739 
L 474 2739 
L 474 678 
C 474 179 646 -64 1088 -64 
C 1306 -64 1798 -13 2144 306 
L 2144 0 
L 2618 0 
L 2618 2739 
z
" transform="scale(0.015625)"/>
       <path id="CMSS17-72" d="M 954 1363 
C 954 1965 1395 2368 1958 2368 
L 1958 2789 
C 1549 2789 1165 2585 934 2253 
L 934 2758 
L 480 2758 
L 480 0 
L 954 0 
L 954 1363 
z
" transform="scale(0.015625)"/>
       <path id="CMSS17-64" d="M 2611 4416 
L 2138 4416 
L 2138 2438 
C 1939 2603 1613 2756 1254 2756 
C 672 2756 211 2131 211 1347 
C 211 562 666 -64 1235 -64 
C 1677 -64 1971 172 2125 306 
L 2125 -13 
L 2611 -13 
L 2611 4416 
z
M 2125 836 
C 2125 747 2125 653 1926 482 
C 1798 375 1645 325 1498 325 
C 1152 325 698 576 698 1340 
C 698 2134 1210 2368 1562 2368 
C 1798 2368 1990 2254 2125 2065 
L 2125 836 
z
" transform="scale(0.015625)"/>
       <path id="CMSS17-28" d="M 1613 4768 
C 1267 4417 474 3601 474 1588 
C 474 -433 1267 -1243 1613 -1600 
L 2003 -1600 
C 1216 -784 960 357 960 1581 
C 960 2798 1203 3946 2003 4768 
L 1613 4768 
z
" transform="scale(0.015625)"/>
       <path id="CMSS17-29" d="M 723 -1600 
C 1069 -1249 1862 -433 1862 1581 
C 1862 3601 1069 4411 723 4768 
L 333 4768 
C 1120 3952 1376 2811 1376 1588 
C 1376 370 1133 -778 333 -1600 
L 723 -1600 
z
" transform="scale(0.015625)"/>
      </defs>
      <use xlink:href="#CMSS17-4d" transform="scale(0.996264)"/>
      <use xlink:href="#CMSS17-65" transform="translate(81.67603 0) scale(0.996264)"/>
      <use xlink:href="#CMSS17-61" transform="translate(123.314852 0) scale(0.996264)"/>
      <use xlink:href="#CMSS17-6e" transform="translate(168.236773 0) scale(0.996264)"/>
      <use xlink:href="#CMSS17-53" transform="translate(247.670829 0) scale(0.996264)"/>
      <use xlink:href="#CMSS17-71" transform="translate(299.719345 0) scale(0.996264)"/>
      <use xlink:href="#CMSS17-75" transform="translate(347.924288 0) scale(0.996264)"/>
      <use xlink:href="#CMSS17-61" transform="translate(396.129231 0) scale(0.996264)"/>
      <use xlink:href="#CMSS17-72" transform="translate(438.448698 0) scale(0.996264)"/>
      <use xlink:href="#CMSS17-65" transform="translate(470.35847 0) scale(0.996264)"/>
      <use xlink:href="#CMSS17-64" transform="translate(511.997292 0) scale(0.996264)"/>
      <use xlink:href="#CMSS17-45" transform="translate(591.431348 0) scale(0.996264)"/>
      <use xlink:href="#CMSS17-72" transform="translate(647.323361 0) scale(0.996264)"/>
      <use xlink:href="#CMSS17-72" transform="translate(679.233134 0) scale(0.996264)"/>
      <use xlink:href="#CMSS17-6f" transform="translate(711.142906 0) scale(0.996264)"/>
      <use xlink:href="#CMSS17-72" transform="translate(755.384076 0) scale(0.996264)"/>
      <use xlink:href="#CMSS17-28" transform="translate(818.522961 0) scale(0.996264)"/>
      <use xlink:href="#CMSS17-4d" transform="translate(854.956876 0) scale(0.996264)"/>
      <use xlink:href="#CMSS17-53" transform="translate(936.632906 0) scale(0.996264)"/>
      <use xlink:href="#CMSS17-45" transform="translate(988.681422 0) scale(0.996264)"/>
      <use xlink:href="#CMSS17-29" transform="translate(1044.573435 0) scale(0.996264)"/>
     </g>
    </g>
   </g>
   <g id="PolyCollection_1">
    <defs>
     <path id="m8c3b8b5417" d="M 116.84154 -224.990077 
L 116.84154 -190.082506 
L 128.060946 -152.420585 
L 139.280352 -146.717421 
L 150.499759 -141.941938 
L 161.719165 -143.172469 
L 172.938572 -137.147327 
L 184.157978 -132.763956 
L 195.377385 -131.061614 
L 206.596791 -127.334952 
L 217.816197 -127.660119 
L 229.035604 -125.973716 
L 240.25501 -125.890831 
L 251.474417 -125.642174 
L 262.693823 -124.118355 
L 273.91323 -124.905768 
L 285.132636 -125.830261 
L 296.352042 -123.767685 
L 307.571449 -124.580601 
L 318.790855 -124.405267 
L 330.010262 -124.070536 
L 341.229668 -123.579599 
L 352.449074 -123.710303 
L 363.668481 -121.749741 
L 374.887887 -118.348245 
L 386.107294 -120.838 
L 397.3267 -122.310812 
L 408.546107 -120.398069 
L 419.765513 -120.194043 
L 430.984919 -119.218543 
L 442.204326 -119.648911 
L 453.423732 -120.200419 
L 464.643139 -118.651096 
L 475.862545 -119.036833 
L 487.081952 -121.15679 
L 498.301358 -120.009144 
L 509.520764 -120.531961 
L 520.740171 -116.990197 
L 531.959577 -119.307805 
L 543.178984 -118.360997 
L 554.39839 -119.929447 
L 565.617796 -118.772237 
L 576.837203 -118.813679 
L 588.056609 -117.879623 
L 599.276016 -118.46301 
L 610.495422 -118.380124 
L 621.714829 -116.508823 
L 632.934235 -117.375934 
L 644.153641 -114.38249 
L 655.373048 -118.810492 
L 666.592454 -118.003951 
L 666.592454 -122.352255 
L 666.592454 -122.352255 
L 655.373048 -126.056602 
L 644.153641 -124.912144 
L 632.934235 -124.124731 
L 621.714829 -127.191496 
L 610.495422 -125.642174 
L 599.276016 -124.296878 
L 588.056609 -127.057604 
L 576.837203 -127.287134 
L 565.617796 -126.974719 
L 554.39839 -126.901397 
L 543.178984 -126.751565 
L 531.959577 -126.286131 
L 520.740171 -127.268006 
L 509.520764 -126.47103 
L 498.301358 -126.286131 
L 487.081952 -127.226563 
L 475.862545 -128.737631 
L 464.643139 -126.388144 
L 453.423732 -128.539981 
L 442.204326 -127.570857 
L 430.984919 -128.460283 
L 419.765513 -129.697191 
L 408.546107 -127.360455 
L 397.3267 -129.324206 
L 386.107294 -127.226563 
L 374.887887 -129.250884 
L 363.668481 -129.030918 
L 352.449074 -132.563118 
L 341.229668 -129.31783 
L 330.010262 -130.838461 
L 318.790855 -131.374029 
L 307.571449 -131.109433 
L 296.352042 -131.240137 
L 285.132636 -130.669502 
L 273.91323 -134.214453 
L 262.693823 -131.995671 
L 251.474417 -136.496994 
L 240.25501 -138.141954 
L 229.035604 -141.364927 
L 217.816197 -144.288236 
L 206.596791 -143.083208 
L 195.377385 -145.939572 
L 184.157978 -145.177662 
L 172.938572 -148.968082 
L 161.719165 -148.920264 
L 150.499759 -152.331323 
L 139.280352 -153.756317 
L 128.060946 -161.349909 
L 116.84154 -224.990077 
z
" style="stroke: #ffffff; stroke-opacity: 0.2"/>
    </defs>
    <g clip-path="url(#pa5360b4947)">
     <use xlink:href="#m8c3b8b5417" x="0" y="576" style="fill: #4c72b0; fill-opacity: 0.2; stroke: #ffffff; stroke-opacity: 0.2"/>
    </g>
   </g>
   <g id="PolyCollection_2">
    <defs>
     <path id="m47c0468cf4" d="M 116.84154 -187.831845 
L 116.84154 -155.468223 
L 128.060946 -133.057244 
L 139.280352 -130.806582 
L 150.499759 -127.889648 
L 161.719165 -128.425216 
L 172.938572 -126.706935 
L 184.157978 -125.37439 
L 195.377385 -125.112982 
L 206.596791 -123.611478 
L 217.816197 -121.220548 
L 229.035604 -121.883633 
L 240.25501 -121.214173 
L 251.474417 -118.915692 
L 262.693823 -120.232298 
L 273.91323 -120.519209 
L 285.132636 -120.27374 
L 296.352042 -119.272738 
L 307.571449 -119.661662 
L 318.790855 -118.893377 
L 330.010262 -119.046397 
L 341.229668 -118.989014 
L 352.449074 -117.270733 
L 363.668481 -116.926439 
L 374.887887 -117.535329 
L 386.107294 -117.353618 
L 397.3267 -116.272918 
L 408.546107 -116.598085 
L 419.765513 -116.037013 
L 430.984919 -114.634335 
L 442.204326 -116.75748 
L 453.423732 -115.431311 
L 464.643139 -115.711847 
L 475.862545 -112.743906 
L 487.081952 -115.526948 
L 498.301358 -115.016883 
L 509.520764 -114.497255 
L 520.740171 -114.589704 
L 531.959577 -114.30598 
L 543.178984 -115.134836 
L 554.39839 -112.82998 
L 565.617796 -114.022257 
L 576.837203 -113.228468 
L 588.056609 -112.386861 
L 599.276016 -114.296417 
L 610.495422 -112.87461 
L 621.714829 -113.394239 
L 632.934235 -113.735345 
L 644.153641 -113.709842 
L 655.373048 -113.540883 
L 666.592454 -112.641893 
L 666.592454 -116.760668 
L 666.592454 -116.760668 
L 655.373048 -118.491701 
L 644.153641 -116.314361 
L 632.934235 -117.321739 
L 621.714829 -118.281299 
L 610.495422 -118.529956 
L 599.276016 -118.871062 
L 588.056609 -117.930629 
L 576.837203 -117.710664 
L 565.617796 -118.105964 
L 554.39839 -118.877438 
L 543.178984 -119.059148 
L 531.959577 -120.598907 
L 520.740171 -118.682975 
L 509.520764 -119.100591 
L 498.301358 -120.143036 
L 487.081952 -120.034647 
L 475.862545 -118.596902 
L 464.643139 -121.045214 
L 453.423732 -120.573404 
L 442.204326 -121.443702 
L 430.984919 -120.206794 
L 419.765513 -121.768868 
L 408.546107 -121.539339 
L 397.3267 -122.211987 
L 386.107294 -123.295875 
L 374.887887 -124.150234 
L 363.668481 -122.613663 
L 352.449074 -123.825068 
L 341.229668 -123.184299 
L 330.010262 -123.60829 
L 318.790855 -124.316005 
L 307.571449 -124.730433 
L 296.352042 -123.888826 
L 285.132636 -124.481776 
L 273.91323 -126.161803 
L 262.693823 -126.601734 
L 251.474417 -124.819694 
L 240.25501 -126.560291 
L 229.035604 -127.127738 
L 217.816197 -129.57605 
L 206.596791 -129.493165 
L 195.377385 -130.283765 
L 184.157978 -131.900034 
L 172.938572 -132.202885 
L 161.719165 -135.075188 
L 150.499759 -135.897668 
L 139.280352 -138.40655 
L 128.060946 -156.985666 
L 116.84154 -187.831845 
z
" style="stroke: #ffffff; stroke-opacity: 0.2"/>
    </defs>
    <g clip-path="url(#pa5360b4947)">
     <use xlink:href="#m47c0468cf4" x="0" y="576" style="fill: #dd8452; fill-opacity: 0.2; stroke: #ffffff; stroke-opacity: 0.2"/>
    </g>
   </g>
   <g id="PolyCollection_3">
    <defs>
     <path id="mf88230ef2a" d="M 116.84154 -505.895604 
L 116.84154 -412.327374 
L 128.060946 -278.349248 
L 139.280352 -224.562898 
L 150.499759 -197.701602 
L 161.719165 -188.976303 
L 172.938572 -166.071198 
L 184.157978 -147.868255 
L 195.377385 -147.265741 
L 206.596791 -138.422489 
L 217.816197 -135.798843 
L 229.035604 -133.835093 
L 240.25501 -130.357087 
L 251.474417 -122.170544 
L 262.693823 -123.598726 
L 273.91323 -117.184659 
L 285.132636 -119.358811 
L 296.352042 -118.823243 
L 307.571449 -118.12828 
L 318.790855 -116.413186 
L 330.010262 -116.193221 
L 341.229668 -114.911682 
L 352.449074 -112.482498 
L 363.668481 -113.588701 
L 374.887887 -110.314722 
L 386.107294 -112.587699 
L 397.3267 -111.570757 
L 408.546107 -112.217902 
L 419.765513 -110.684519 
L 430.984919 -109.575128 
L 442.204326 -106.282021 
L 453.423732 -107.480674 
L 464.643139 -108.67295 
L 475.862545 -107.034367 
L 487.081952 -107.783525 
L 498.301358 -109.157512 
L 509.520764 -104.576491 
L 520.740171 -106.919602 
L 531.959577 -107.933356 
L 543.178984 -100.432213 
L 554.39839 -102.513916 
L 565.617796 -103.049484 
L 576.837203 -107.458358 
L 588.056609 -107.47111 
L 599.276016 -107.276648 
L 610.495422 -102.150495 
L 621.714829 -101.3057 
L 632.934235 -104.305519 
L 644.153641 -104.80602 
L 655.373048 -103.502167 
L 666.592454 -104.104681 
L 666.592454 -129.604741 
L 666.592454 -129.604741 
L 655.373048 -129.996854 
L 644.153641 -129.802391 
L 632.934235 -117.630966 
L 621.714829 -128.444343 
L 610.495422 -131.73745 
L 599.276016 -136.356726 
L 588.056609 -118.437507 
L 576.837203 -118.214353 
L 565.617796 -121.724238 
L 554.39839 -124.067349 
L 543.178984 -128.874711 
L 531.959577 -131.303895 
L 520.740171 -126.45509 
L 509.520764 -128.810953 
L 498.301358 -126.786632 
L 487.081952 -127.580421 
L 475.862545 -157.349087 
L 464.643139 -128.233942 
L 453.423732 -137.089945 
L 442.204326 -174.216298 
L 430.984919 -126.910961 
L 419.765513 -129.050046 
L 408.546107 -138.148329 
L 397.3267 -132.531239 
L 386.107294 -130.822521 
L 374.887887 -141.753851 
L 363.668481 -134.61613 
L 352.449074 -134.938108 
L 341.229668 -142.671968 
L 330.010262 -142.040763 
L 318.790855 -137.724338 
L 307.571449 -140.577514 
L 296.352042 -140.421306 
L 285.132636 -170.228228 
L 273.91323 -161.451922 
L 262.693823 -143.433878 
L 251.474417 -150.40264 
L 240.25501 -164.461306 
L 229.035604 -175.485085 
L 217.816197 -167.231596 
L 206.596791 -173.556402 
L 195.377385 -190.114385 
L 184.157978 -202.186986 
L 172.938572 -208.836957 
L 161.719165 -225.28974 
L 150.499759 -253.716298 
L 139.280352 -305.23286 
L 128.060946 -350.150455 
L 116.84154 -505.895604 
z
" style="stroke: #ffffff; stroke-opacity: 0.2"/>
    </defs>
    <g clip-path="url(#pa5360b4947)">
     <use xlink:href="#mf88230ef2a" x="0" y="576" style="fill: #55a868; fill-opacity: 0.2; stroke: #ffffff; stroke-opacity: 0.2"/>
    </g>
   </g>
   <g id="line2d_13">
    <path d="M 116.84154 372.220655 
L 128.060946 418.721047 
L 139.280352 425.681839 
L 150.499759 428.386778 
L 161.719165 429.666722 
L 172.938572 433.321656 
L 184.157978 437.711403 
L 195.377385 441.388652 
L 206.596791 442.863059 
L 217.816197 444.042584 
L 229.035604 445.437293 
L 240.25501 444.731172 
L 251.474417 447.058343 
L 262.693823 447.386697 
L 273.91323 448.241056 
L 285.132636 447.579566 
L 296.352042 448.476961 
L 307.571449 448.239462 
L 318.790855 448.205989 
L 330.010262 449.495497 
L 341.229668 449.578383 
L 352.449074 449.624608 
L 363.668481 450.225528 
L 374.887887 449.782409 
L 386.107294 450.820072 
L 397.3267 451.252034 
L 408.546107 450.74675 
L 419.765513 451.016128 
L 430.984919 451.754129 
L 442.204326 452.302449 
L 453.423732 451.72225 
L 464.643139 451.428962 
L 475.862545 452.672246 
L 487.081952 452.045822 
L 498.301358 452.728034 
L 509.520764 452.53676 
L 520.740171 454.079706 
L 531.959577 453.60949 
L 543.178984 453.969723 
L 554.39839 453.929875 
L 565.617796 454.035075 
L 576.837203 455.192285 
L 588.056609 454.288514 
L 599.276016 454.793797 
L 610.495422 455.731041 
L 621.714829 454.635996 
L 632.934235 455.071145 
L 644.153641 455.122151 
L 655.373048 455.531797 
L 666.592454 456.073741 
" clip-path="url(#pa5360b4947)" style="fill: none; stroke: #4c72b0; stroke-width: 1.5; stroke-linecap: round"/>
   </g>
   <g id="line2d_14">
    <path d="M 116.84154 413.535917 
L 128.060946 438.876582 
L 139.280352 441.26273 
L 150.499759 443.006515 
L 161.719165 445.217327 
L 172.938572 446.816062 
L 184.157978 447.440892 
L 195.377385 447.577972 
L 206.596791 449.452461 
L 217.816197 451.051195 
L 229.035604 451.661679 
L 240.25501 452.249848 
L 251.474417 453.177529 
L 262.693823 453.373585 
L 273.91323 452.546323 
L 285.132636 453.845395 
L 296.352042 453.281136 
L 307.571449 453.797576 
L 318.790855 454.3714 
L 330.010262 454.385745 
L 341.229668 454.906968 
L 352.449074 455.356463 
L 363.668481 455.864934 
L 374.887887 455.63381 
L 386.107294 456.435569 
L 397.3267 456.418035 
L 408.546107 457.08112 
L 419.765513 456.386156 
L 430.984919 457.264424 
L 442.204326 457.873314 
L 453.423732 457.792023 
L 464.643139 457.42382 
L 475.862545 458.785055 
L 487.081952 458.813747 
L 498.301358 459.401915 
L 509.520764 459.075155 
L 520.740171 459.277587 
L 531.959577 459.231362 
L 543.178984 458.914166 
L 554.39839 459.452922 
L 565.617796 460.055436 
L 576.837203 460.933704 
L 588.056609 460.445954 
L 599.276016 460.680266 
L 610.495422 460.563907 
L 621.714829 461.297125 
L 632.934235 460.930516 
L 644.153641 461.094693 
L 655.373048 460.804594 
L 666.592454 461.692426 
" clip-path="url(#pa5360b4947)" style="fill: none; stroke: #dd8452; stroke-width: 1.5; stroke-linecap: round"/>
   </g>
   <g id="line2d_15">
    <path d="M 116.84154 113.415287 
L 128.060946 261.520619 
L 139.280352 318.490093 
L 150.499759 348.312954 
L 161.719165 367.343159 
L 172.938572 391.203042 
L 184.157978 406.595846 
L 195.377385 418.081871 
L 206.596791 423.820102 
L 217.816197 427.34752 
L 229.035604 433.777527 
L 240.25501 435.143544 
L 251.474417 441.267512 
L 262.693823 442.711633 
L 273.91323 445.735362 
L 285.132636 446.678982 
L 296.352042 446.726801 
L 307.571449 446.620006 
L 318.790855 447.903138 
L 330.010262 449.981653 
L 341.229668 452.130302 
L 352.449074 453.590363 
L 363.668481 454.084488 
L 374.887887 454.452691 
L 386.107294 453.882056 
L 397.3267 456.594964 
L 408.546107 456.499327 
L 419.765513 456.838839 
L 430.984919 456.821305 
L 442.204326 458.856783 
L 453.423732 459.679263 
L 464.643139 458.259051 
L 475.862545 458.048649 
L 487.081952 458.83925 
L 498.301358 460.463488 
L 509.520764 461.829506 
L 520.740171 461.311471 
L 531.959577 462.585039 
L 543.178984 460.358287 
L 554.39839 463.654582 
L 565.617796 464.577481 
L 576.837203 464.929744 
L 588.056609 464.465904 
L 599.276016 464.301727 
L 610.495422 467.081581 
L 621.714829 464.880332 
L 632.934235 466.415309 
L 644.153641 466.01682 
L 655.373048 468.243573 
L 666.592454 467.907249 
" clip-path="url(#pa5360b4947)" style="fill: none; stroke: #55a868; stroke-width: 1.5; stroke-linecap: round"/>
   </g>
   <g id="patch_3">
    <path d="M 89.353994 495.840956 
L 89.353994 49.831226 
" style="fill: none; stroke: #cccccc; stroke-width: 1.25; stroke-linejoin: miter; stroke-linecap: square"/>
   </g>
   <g id="patch_4">
    <path d="M 694.08 495.840956 
L 694.08 49.831226 
" style="fill: none; stroke: #cccccc; stroke-width: 1.25; stroke-linejoin: miter; stroke-linecap: square"/>
   </g>
   <g id="patch_5">
    <path d="M 89.353994 495.840956 
L 694.08 495.840956 
" style="fill: none; stroke: #cccccc; stroke-width: 1.25; stroke-linejoin: miter; stroke-linecap: square"/>
   </g>
   <g id="patch_6">
    <path d="M 89.353994 49.831226 
L 694.08 49.831226 
" style="fill: none; stroke: #cccccc; stroke-width: 1.25; stroke-linejoin: miter; stroke-linecap: square"/>
   </g>
   <g id="text_15">
    <!-- Mean Squared Error (MSE) vs Epoch -->
    <g style="fill: #262626" transform="translate(215.512864 43.831226) scale(0.24 -0.24)">
     <defs>
      <path id="CMSS17-76" d="M 2675 2752 
L 2176 2752 
L 1747 1556 
C 1613 1165 1421 627 1389 352 
L 1382 352 
C 1370 468 1318 634 1286 749 
C 1248 890 1197 1056 1158 1172 
L 595 2752 
L 83 2752 
L 1094 0 
L 1664 0 
L 2675 2752 
z
" transform="scale(0.015625)"/>
      <path id="CMSS17-73" d="M 2061 2627 
C 1683 2807 1389 2807 1197 2807 
C 742 2807 198 2648 198 2003 
C 198 1359 902 1218 1094 1179 
C 1389 1122 1715 1058 1715 740 
C 1715 337 1254 337 1171 337 
C 915 337 563 407 243 638 
L 166 210 
C 531 0 883 -64 1178 -64 
C 1965 -64 2163 416 2163 781 
C 2163 1094 1984 1305 1862 1401 
C 1651 1568 1574 1587 1050 1696 
C 960 1709 646 1779 646 2066 
C 646 2432 1050 2432 1139 2432 
C 1555 2432 1811 2303 1984 2208 
L 2061 2627 
z
" transform="scale(0.015625)"/>
     </defs>
     <use xlink:href="#CMSS17-4d" transform="scale(0.996264)"/>
     <use xlink:href="#CMSS17-65" transform="translate(81.67603 0) scale(0.996264)"/>
     <use xlink:href="#CMSS17-61" transform="translate(123.314852 0) scale(0.996264)"/>
     <use xlink:href="#CMSS17-6e" transform="translate(168.236773 0) scale(0.996264)"/>
     <use xlink:href="#CMSS17-53" transform="translate(247.670829 0) scale(0.996264)"/>
     <use xlink:href="#CMSS17-71" transform="translate(299.719345 0) scale(0.996264)"/>
     <use xlink:href="#CMSS17-75" transform="translate(347.924288 0) scale(0.996264)"/>
     <use xlink:href="#CMSS17-61" transform="translate(396.129231 0) scale(0.996264)"/>
     <use xlink:href="#CMSS17-72" transform="translate(438.448698 0) scale(0.996264)"/>
     <use xlink:href="#CMSS17-65" transform="translate(470.35847 0) scale(0.996264)"/>
     <use xlink:href="#CMSS17-64" transform="translate(511.997292 0) scale(0.996264)"/>
     <use xlink:href="#CMSS17-45" transform="translate(591.431348 0) scale(0.996264)"/>
     <use xlink:href="#CMSS17-72" transform="translate(647.323361 0) scale(0.996264)"/>
     <use xlink:href="#CMSS17-72" transform="translate(679.233134 0) scale(0.996264)"/>
     <use xlink:href="#CMSS17-6f" transform="translate(711.142906 0) scale(0.996264)"/>
     <use xlink:href="#CMSS17-72" transform="translate(755.384076 0) scale(0.996264)"/>
     <use xlink:href="#CMSS17-28" transform="translate(818.522961 0) scale(0.996264)"/>
     <use xlink:href="#CMSS17-4d" transform="translate(854.956876 0) scale(0.996264)"/>
     <use xlink:href="#CMSS17-53" transform="translate(936.632906 0) scale(0.996264)"/>
     <use xlink:href="#CMSS17-45" transform="translate(988.681422 0) scale(0.996264)"/>
     <use xlink:href="#CMSS17-29" transform="translate(1044.573435 0) scale(0.996264)"/>
     <use xlink:href="#CMSS17-76" transform="translate(1112.236462 0) scale(0.996264)"/>
     <use xlink:href="#CMSS17-73" transform="translate(1155.236604 0) scale(0.996264)"/>
     <use xlink:href="#CMSS17-45" transform="translate(1222.379258 0) scale(0.996264)"/>
     <use xlink:href="#CMSS17-70" transform="translate(1278.271272 0) scale(0.996264)"/>
     <use xlink:href="#CMSS17-6f" transform="translate(1329.078653 0) scale(0.996264)"/>
     <use xlink:href="#CMSS17-63" transform="translate(1378.524716 0) scale(0.996264)"/>
     <use xlink:href="#CMSS17-68" transform="translate(1420.163538 0) scale(0.996264)"/>
    </g>
   </g>
   <g id="legend_1">
    <g id="patch_7">
     <path d="M 555.985747 191.675953 
L 678.68 191.675953 
Q 683.08 191.675953 683.08 187.275953 
L 683.08 65.231226 
Q 683.08 60.831226 678.68 60.831226 
L 555.985747 60.831226 
Q 551.585747 60.831226 551.585747 65.231226 
L 551.585747 187.275953 
Q 551.585747 191.675953 555.985747 191.675953 
z
" style="fill: #ffffff; opacity: 0.8; stroke: #cccccc; stroke-linejoin: miter"/>
    </g>
    <g id="text_16">
     <!-- Model -->
     <g style="fill: #262626" transform="translate(588.155294 86.235632) scale(0.24 -0.24)">
      <defs>
       <path id="CMSS17-6c" d="M 947 4416 
L 474 4416 
L 474 0 
L 947 0 
L 947 4416 
z
" transform="scale(0.015625)"/>
      </defs>
      <use xlink:href="#CMSS17-4d" transform="scale(0.996264)"/>
      <use xlink:href="#CMSS17-6f" transform="translate(81.67603 0) scale(0.996264)"/>
      <use xlink:href="#CMSS17-64" transform="translate(131.122092 0) scale(0.996264)"/>
      <use xlink:href="#CMSS17-65" transform="translate(179.327035 0) scale(0.996264)"/>
      <use xlink:href="#CMSS17-6c" transform="translate(220.965857 0) scale(0.996264)"/>
     </g>
    </g>
    <g id="line2d_16">
     <path d="M 560.385747 109.586389 
L 582.385747 109.586389 
L 604.385747 109.586389 
" style="fill: none; stroke: #4c72b0; stroke-width: 1.5; stroke-linecap: round"/>
    </g>
    <g id="text_17">
     <!-- CAE -->
     <g style="fill: #262626" transform="translate(621.985747 117.286389) scale(0.22 -0.22)">
      <defs>
       <path id="CMSS17-43" d="M 3501 714 
C 3072 427 2874 344 2355 344 
C 1459 344 934 1303 934 2179 
C 934 3112 1472 4032 2381 4032 
C 2790 4032 3059 3918 3386 3715 
L 3475 4217 
C 3168 4370 2778 4440 2387 4440 
C 1158 4440 397 3316 397 2179 
C 397 927 1299 -64 2323 -64 
C 2874 -64 3066 -19 3539 280 
L 3501 714 
z
" transform="scale(0.015625)"/>
       <path id="CMSS17-41" d="M 2272 4416 
L 1722 4416 
L 166 0 
L 653 0 
L 1101 1280 
L 2816 1280 
L 3270 0 
L 3827 0 
L 2272 4416 
z
M 2694 1637 
L 1222 1637 
C 1530 2528 1914 3638 1958 3925 
L 1965 3925 
C 2010 3663 2138 3281 2246 2956 
L 2694 1637 
z
" transform="scale(0.015625)"/>
      </defs>
      <use xlink:href="#CMSS17-43" transform="scale(0.996264)"/>
      <use xlink:href="#CMSS17-41" transform="translate(59.855772 0) scale(0.996264)"/>
      <use xlink:href="#CMSS17-45" transform="translate(122.073626 0) scale(0.996264)"/>
     </g>
    </g>
    <g id="line2d_17">
     <path d="M 560.385747 140.249577 
L 582.385747 140.249577 
L 604.385747 140.249577 
" style="fill: none; stroke: #dd8452; stroke-width: 1.5; stroke-linecap: round"/>
    </g>
    <g id="text_18">
     <!-- PCAE -->
     <g style="fill: #262626" transform="translate(621.985747 147.949577) scale(0.22 -0.22)">
      <defs>
       <path id="CMSS17-50" d="M 2106 1856 
C 2874 1856 3501 2453 3501 3158 
C 3501 3850 2899 4453 2067 4453 
L 570 4453 
L 570 0 
L 1107 0 
L 1107 1856 
L 2106 1856 
z
M 1926 4096 
C 2669 4096 2995 3627 2995 3157 
C 2995 2720 2694 2226 1926 2226 
L 1094 2226 
L 1094 4096 
L 1926 4096 
z
" transform="scale(0.015625)"/>
      </defs>
      <use xlink:href="#CMSS17-50" transform="scale(0.996264)"/>
      <use xlink:href="#CMSS17-43" transform="translate(59.735586 0) scale(0.996264)"/>
      <use xlink:href="#CMSS17-41" transform="translate(119.591358 0) scale(0.996264)"/>
      <use xlink:href="#CMSS17-45" transform="translate(181.809213 0) scale(0.996264)"/>
     </g>
    </g>
    <g id="line2d_18">
     <path d="M 560.385747 170.912765 
L 582.385747 170.912765 
L 604.385747 170.912765 
" style="fill: none; stroke: #55a868; stroke-width: 1.5; stroke-linecap: round"/>
    </g>
    <g id="text_19">
     <!-- GAN -->
     <g style="fill: #262626" transform="translate(621.985747 178.612765) scale(0.22 -0.22)">
      <defs>
       <path id="CMSS17-47" d="M 3610 1856 
L 2336 1856 
L 2336 1461 
L 3123 1461 
L 3123 471 
C 2874 401 2618 350 2362 350 
C 1466 350 934 1301 934 2200 
C 934 3095 1491 4032 2362 4032 
C 2854 4032 3130 3881 3469 3627 
L 3552 4134 
C 3130 4351 2867 4440 2387 4440 
C 1146 4440 397 3324 397 2182 
C 397 1090 1152 -64 2349 -64 
C 2797 -64 3213 51 3610 248 
L 3610 1856 
z
" transform="scale(0.015625)"/>
       <path id="CMSS17-4e" d="M 1466 4180 
L 1350 4416 
L 563 4416 
L 563 0 
L 1062 0 
L 1062 3926 
L 1069 3932 
C 1114 3817 1139 3760 1402 3194 
L 2771 236 
L 2886 0 
L 3674 0 
L 3674 4416 
L 3174 4416 
L 3174 490 
L 3168 483 
C 3123 598 3098 655 2835 1221 
L 1466 4180 
z
" transform="scale(0.015625)"/>
      </defs>
      <use xlink:href="#CMSS17-47" transform="scale(0.996264)"/>
      <use xlink:href="#CMSS17-41" transform="translate(62.458226 0) scale(0.996264)"/>
      <use xlink:href="#CMSS17-4e" transform="translate(124.67608 0) scale(0.996264)"/>
     </g>
    </g>
   </g>
  </g>
 </g>
 <defs>
  <clipPath id="pa5360b4947">
   <rect x="89.353994" y="49.831226" width="604.726006" height="446.00973"/>
  </clipPath>
 </defs>
</svg>
