<?xml version="1.0" encoding="utf-8" standalone="no"?>
<!DOCTYPE svg PUBLIC "-//W3C//DTD SVG 1.1//EN"
  "http://www.w3.org/Graphics/SVG/1.1/DTD/svg11.dtd">
<svg xmlns:xlink="http://www.w3.org/1999/xlink" width="720pt" height="576pt" viewBox="0 0 720 576" xmlns="http://www.w3.org/2000/svg" version="1.1">
 <metadata>
  <rdf:RDF xmlns:dc="http://purl.org/dc/elements/1.1/" xmlns:cc="http://creativecommons.org/ns#" xmlns:rdf="http://www.w3.org/1999/02/22-rdf-syntax-ns#">
   <cc:Work>
    <dc:type rdf:resource="http://purl.org/dc/dcmitype/StillImage"/>
    <dc:date>2025-04-25T00:39:21.672588</dc:date>
    <dc:format>image/svg+xml</dc:format>
    <dc:creator>
     <cc:Agent>
      <dc:title>Matplotlib v3.9.2, https://matplotlib.org/</dc:title>
     </cc:Agent>
    </dc:creator>
   </cc:Work>
  </rdf:RDF>
 </metadata>
 <defs>
  <style type="text/css">*{stroke-linejoin: round; stroke-linecap: butt}</style>
 </defs>
 <g id="figure_1">
  <g id="patch_1">
   <path d="M 0 576 
L 720 576 
L 720 0 
L 0 0 
z
" style="fill: #ffffff"/>
  </g>
  <g id="axes_1">
   <g id="patch_2">
    <path d="M 83.392615 495.840956 
L 694.08 495.840956 
L 694.08 49.831226 
L 83.392615 49.831226 
z
" style="fill: #ffffff"/>
   </g>
   <g id="matplotlib.axis_1">
    <g id="xtick_1">
     <g id="line2d_1">
      <path d="M 99.821125 495.840956 
L 99.821125 49.831226 
" clip-path="url(#p0732612d08)" style="fill: none; stroke: #cccccc; stroke-linecap: round"/>
     </g>
     <g id="text_1">
      <!-- $\mathdefault{0}$ -->
      <g style="fill: #262626" transform="translate(94.795173 520.56165) scale(0.22 -0.22)">
       <defs>
        <path id="CMR17-30" d="M 2688 2025 
C 2688 2416 2682 3080 2413 3591 
C 2176 4039 1798 4198 1466 4198 
C 1158 4198 768 4058 525 3597 
C 269 3118 243 2524 243 2025 
C 243 1661 250 1106 448 619 
C 723 -39 1216 -128 1466 -128 
C 1760 -128 2208 -7 2470 600 
C 2662 1042 2688 1559 2688 2025 
z
M 1466 -26 
C 1056 -26 813 325 723 812 
C 653 1188 653 1738 653 2096 
C 653 2588 653 2997 736 3387 
C 858 3929 1216 4096 1466 4096 
C 1728 4096 2067 3923 2189 3400 
C 2272 3036 2278 2607 2278 2096 
C 2278 1680 2278 1169 2202 792 
C 2067 95 1690 -26 1466 -26 
z
" transform="scale(0.015625)"/>
       </defs>
       <use xlink:href="#CMR17-30" transform="scale(0.996264)"/>
      </g>
     </g>
    </g>
    <g id="xtick_2">
     <g id="line2d_2">
      <path d="M 213.121197 495.840956 
L 213.121197 49.831226 
" clip-path="url(#p0732612d08)" style="fill: none; stroke: #cccccc; stroke-linecap: round"/>
     </g>
     <g id="text_2">
      <!-- $\mathdefault{10}$ -->
      <g style="fill: #262626" transform="translate(203.069292 520.56165) scale(0.22 -0.22)">
       <defs>
        <path id="CMR17-31" d="M 1702 4058 
C 1702 4192 1696 4192 1606 4192 
C 1357 3916 979 3827 621 3827 
C 602 3827 570 3827 563 3808 
C 557 3795 557 3782 557 3648 
C 755 3648 1088 3686 1344 3839 
L 1344 461 
C 1344 236 1331 160 781 160 
L 589 160 
L 589 0 
C 896 0 1216 0 1523 0 
C 1830 0 2150 0 2458 0 
L 2458 160 
L 2266 160 
C 1715 160 1702 230 1702 458 
L 1702 4058 
z
" transform="scale(0.015625)"/>
       </defs>
       <use xlink:href="#CMR17-31" transform="scale(0.996264)"/>
       <use xlink:href="#CMR17-30" transform="translate(45.690477 0) scale(0.996264)"/>
      </g>
     </g>
    </g>
    <g id="xtick_3">
     <g id="line2d_3">
      <path d="M 326.421268 495.840956 
L 326.421268 49.831226 
" clip-path="url(#p0732612d08)" style="fill: none; stroke: #cccccc; stroke-linecap: round"/>
     </g>
     <g id="text_3">
      <!-- $\mathdefault{20}$ -->
      <g style="fill: #262626" transform="translate(316.369363 520.56165) scale(0.22 -0.22)">
       <defs>
        <path id="CMR17-32" d="M 2669 989 
L 2554 989 
C 2490 536 2438 459 2413 420 
C 2381 369 1920 369 1830 369 
L 602 369 
C 832 619 1280 1072 1824 1597 
C 2214 1967 2669 2402 2669 3035 
C 2669 3790 2067 4224 1395 4224 
C 691 4224 262 3604 262 3030 
C 262 2780 448 2748 525 2748 
C 589 2748 781 2787 781 3010 
C 781 3207 614 3264 525 3264 
C 486 3264 448 3258 422 3245 
C 544 3790 915 4058 1306 4058 
C 1862 4058 2227 3617 2227 3035 
C 2227 2479 1901 2000 1536 1584 
L 262 146 
L 262 0 
L 2515 0 
L 2669 989 
z
" transform="scale(0.015625)"/>
       </defs>
       <use xlink:href="#CMR17-32" transform="scale(0.996264)"/>
       <use xlink:href="#CMR17-30" transform="translate(45.690477 0) scale(0.996264)"/>
      </g>
     </g>
    </g>
    <g id="xtick_4">
     <g id="line2d_4">
      <path d="M 439.72134 495.840956 
L 439.72134 49.831226 
" clip-path="url(#p0732612d08)" style="fill: none; stroke: #cccccc; stroke-linecap: round"/>
     </g>
     <g id="text_4">
      <!-- $\mathdefault{30}$ -->
      <g style="fill: #262626" transform="translate(429.669435 520.56165) scale(0.22 -0.22)">
       <defs>
        <path id="CMR17-33" d="M 1414 2157 
C 1984 2157 2234 1662 2234 1090 
C 2234 320 1824 25 1453 25 
C 1114 25 563 194 390 693 
C 422 680 454 680 486 680 
C 640 680 755 782 755 948 
C 755 1133 614 1216 486 1216 
C 378 1216 211 1165 211 926 
C 211 335 787 -128 1466 -128 
C 2176 -128 2720 430 2720 1085 
C 2720 1707 2208 2157 1600 2227 
C 2086 2328 2554 2756 2554 3329 
C 2554 3820 2048 4179 1472 4179 
C 890 4179 378 3829 378 3329 
C 378 3110 544 3072 627 3072 
C 762 3072 877 3155 877 3321 
C 877 3486 762 3569 627 3569 
C 602 3569 570 3569 544 3557 
C 730 3959 1235 4032 1459 4032 
C 1683 4032 2106 3925 2106 3320 
C 2106 3143 2080 2828 1862 2550 
C 1670 2304 1453 2304 1242 2284 
C 1210 2284 1062 2269 1037 2269 
C 992 2263 966 2257 966 2208 
C 966 2163 973 2157 1101 2157 
L 1414 2157 
z
" transform="scale(0.015625)"/>
       </defs>
       <use xlink:href="#CMR17-33" transform="scale(0.996264)"/>
       <use xlink:href="#CMR17-30" transform="translate(45.690477 0) scale(0.996264)"/>
      </g>
     </g>
    </g>
    <g id="xtick_5">
     <g id="line2d_5">
      <path d="M 553.021411 495.840956 
L 553.021411 49.831226 
" clip-path="url(#p0732612d08)" style="fill: none; stroke: #cccccc; stroke-linecap: round"/>
     </g>
     <g id="text_5">
      <!-- $\mathdefault{40}$ -->
      <g style="fill: #262626" transform="translate(542.969506 520.56165) scale(0.22 -0.22)">
       <defs>
        <path id="CMR17-34" d="M 2150 4122 
C 2150 4256 2144 4256 2029 4256 
L 128 1254 
L 128 1088 
L 1779 1088 
L 1779 457 
C 1779 224 1766 160 1318 160 
L 1197 160 
L 1197 0 
C 1402 0 1747 0 1965 0 
C 2182 0 2528 0 2733 0 
L 2733 160 
L 2611 160 
C 2163 160 2150 224 2150 457 
L 2150 1088 
L 2803 1088 
L 2803 1254 
L 2150 1254 
L 2150 4122 
z
M 1798 3703 
L 1798 1254 
L 256 1254 
L 1798 3703 
z
" transform="scale(0.015625)"/>
       </defs>
       <use xlink:href="#CMR17-34" transform="scale(0.996264)"/>
       <use xlink:href="#CMR17-30" transform="translate(45.690477 0) scale(0.996264)"/>
      </g>
     </g>
    </g>
    <g id="xtick_6">
     <g id="line2d_6">
      <path d="M 666.321482 495.840956 
L 666.321482 49.831226 
" clip-path="url(#p0732612d08)" style="fill: none; stroke: #cccccc; stroke-linecap: round"/>
     </g>
     <g id="text_6">
      <!-- $\mathdefault{50}$ -->
      <g style="fill: #262626" transform="translate(656.269578 520.56165) scale(0.22 -0.22)">
       <defs>
        <path id="CMR17-35" d="M 730 3692 
C 794 3666 1056 3584 1325 3584 
C 1920 3584 2246 3911 2432 4100 
C 2432 4157 2432 4192 2394 4192 
C 2387 4192 2374 4192 2323 4163 
C 2099 4058 1837 3973 1517 3973 
C 1325 3973 1037 3999 723 4139 
C 653 4171 640 4171 634 4171 
C 602 4171 595 4164 595 4037 
L 595 2203 
C 595 2089 595 2057 659 2057 
C 691 2057 704 2070 736 2114 
C 941 2401 1222 2522 1542 2522 
C 1766 2522 2246 2382 2246 1289 
C 2246 1085 2246 715 2054 421 
C 1894 159 1645 25 1370 25 
C 947 25 518 320 403 814 
C 429 807 480 795 506 795 
C 589 795 749 840 749 1038 
C 749 1210 627 1280 506 1280 
C 358 1280 262 1190 262 1011 
C 262 454 704 -128 1382 -128 
C 2042 -128 2669 440 2669 1264 
C 2669 2030 2170 2624 1549 2624 
C 1222 2624 947 2503 730 2274 
L 730 3692 
z
" transform="scale(0.015625)"/>
       </defs>
       <use xlink:href="#CMR17-35" transform="scale(0.996264)"/>
       <use xlink:href="#CMR17-30" transform="translate(45.690477 0) scale(0.996264)"/>
      </g>
     </g>
    </g>
    <g id="text_7">
     <!-- Epoch -->
     <g style="fill: #262626" transform="translate(359.217616 545.429243) scale(0.24 -0.24)">
      <defs>
       <path id="CMSS17-45" d="M 1958 433 
C 1446 433 1216 433 1101 433 
L 1101 2107 
L 3085 2107 
L 3085 2496 
L 1101 2496 
L 1101 4009 
L 1926 4009 
C 2003 4009 2080 4009 2157 4009 
L 3251 4009 
L 3251 4416 
L 563 4416 
L 563 0 
L 3334 0 
L 3334 433 
L 1958 433 
z
" transform="scale(0.015625)"/>
       <path id="CMSS17-70" d="M 966 333 
C 1178 129 1466 -5 1773 -5 
C 2368 -5 2880 603 2880 1412 
C 2880 2159 2496 2816 1946 2816 
C 1626 2816 1242 2702 954 2472 
L 954 2765 
L 480 2765 
L 480 -1216 
L 966 -1216 
L 966 333 
z
M 966 2100 
C 1018 2176 1235 2415 1587 2415 
C 2035 2415 2394 1960 2394 1412 
C 2394 787 1958 384 1530 384 
C 1402 384 1267 415 1139 523 
C 966 674 966 768 966 857 
L 966 2100 
z
" transform="scale(0.015625)"/>
       <path id="CMSS17-6f" d="M 2829 1356 
C 2829 2176 2221 2816 1504 2816 
C 768 2816 173 2157 173 1356 
C 173 544 787 -64 1498 -64 
C 2227 -64 2829 563 2829 1356 
z
M 1504 337 
C 1050 337 659 709 659 1408 
C 659 2151 1114 2427 1498 2427 
C 1914 2427 2342 2126 2342 1408 
C 2342 683 1926 337 1504 337 
z
" transform="scale(0.015625)"/>
       <path id="CMSS17-63" d="M 2464 2541 
C 2464 2585 2170 2714 2093 2739 
C 1882 2816 1613 2816 1542 2816 
C 710 2816 211 2093 211 1363 
C 211 595 768 -64 1517 -64 
C 1946 -64 2253 76 2502 242 
L 2464 664 
C 2189 453 1869 337 1523 337 
C 1024 337 698 774 698 1369 
C 698 1831 909 2414 1549 2414 
C 1901 2414 2099 2343 2394 2145 
L 2464 2541 
z
" transform="scale(0.015625)"/>
       <path id="CMSS17-68" d="M 2618 1891 
C 2618 2292 2522 2820 1798 2820 
C 1395 2820 1133 2623 947 2407 
L 947 4448 
L 474 4448 
L 474 32 
L 960 32 
L 960 1573 
C 960 1973 1114 2432 1549 2432 
C 2112 2432 2131 2056 2131 1839 
L 2131 32 
L 2618 32 
L 2618 1891 
z
" transform="scale(0.015625)"/>
      </defs>
      <use xlink:href="#CMSS17-45" transform="scale(0.996264)"/>
      <use xlink:href="#CMSS17-70" transform="translate(55.892013 0) scale(0.996264)"/>
      <use xlink:href="#CMSS17-6f" transform="translate(106.699395 0) scale(0.996264)"/>
      <use xlink:href="#CMSS17-63" transform="translate(156.145457 0) scale(0.996264)"/>
      <use xlink:href="#CMSS17-68" transform="translate(197.784279 0) scale(0.996264)"/>
     </g>
    </g>
   </g>
   <g id="matplotlib.axis_2">
    <g id="ytick_1">
     <g id="line2d_7">
      <path d="M 83.392615 429.143513 
L 694.08 429.143513 
" clip-path="url(#p0732612d08)" style="fill: none; stroke: #cccccc; stroke-linecap: round"/>
     </g>
     <g id="text_8">
      <!-- $\mathdefault{10}$ -->
      <g style="fill: #262626" transform="translate(53.788805 436.75386) scale(0.22 -0.22)">
       <use xlink:href="#CMR17-31" transform="scale(0.996264)"/>
       <use xlink:href="#CMR17-30" transform="translate(45.690477 0) scale(0.996264)"/>
      </g>
     </g>
    </g>
    <g id="ytick_2">
     <g id="line2d_8">
      <path d="M 83.392615 341.708389 
L 694.08 341.708389 
" clip-path="url(#p0732612d08)" style="fill: none; stroke: #cccccc; stroke-linecap: round"/>
     </g>
     <g id="text_9">
      <!-- $\mathdefault{15}$ -->
      <g style="fill: #262626" transform="translate(53.788805 349.318736) scale(0.22 -0.22)">
       <use xlink:href="#CMR17-31" transform="scale(0.996264)"/>
       <use xlink:href="#CMR17-35" transform="translate(45.690477 0) scale(0.996264)"/>
      </g>
     </g>
    </g>
    <g id="ytick_3">
     <g id="line2d_9">
      <path d="M 83.392615 254.273265 
L 694.08 254.273265 
" clip-path="url(#p0732612d08)" style="fill: none; stroke: #cccccc; stroke-linecap: round"/>
     </g>
     <g id="text_10">
      <!-- $\mathdefault{20}$ -->
      <g style="fill: #262626" transform="translate(53.788805 261.883611) scale(0.22 -0.22)">
       <use xlink:href="#CMR17-32" transform="scale(0.996264)"/>
       <use xlink:href="#CMR17-30" transform="translate(45.690477 0) scale(0.996264)"/>
      </g>
     </g>
    </g>
    <g id="ytick_4">
     <g id="line2d_10">
      <path d="M 83.392615 166.838141 
L 694.08 166.838141 
" clip-path="url(#p0732612d08)" style="fill: none; stroke: #cccccc; stroke-linecap: round"/>
     </g>
     <g id="text_11">
      <!-- $\mathdefault{25}$ -->
      <g style="fill: #262626" transform="translate(53.788805 174.448487) scale(0.22 -0.22)">
       <use xlink:href="#CMR17-32" transform="scale(0.996264)"/>
       <use xlink:href="#CMR17-35" transform="translate(45.690477 0) scale(0.996264)"/>
      </g>
     </g>
    </g>
    <g id="ytick_5">
     <g id="line2d_11">
      <path d="M 83.392615 79.403017 
L 694.08 79.403017 
" clip-path="url(#p0732612d08)" style="fill: none; stroke: #cccccc; stroke-linecap: round"/>
     </g>
     <g id="text_12">
      <!-- $\mathdefault{30}$ -->
      <g style="fill: #262626" transform="translate(53.788805 87.013363) scale(0.22 -0.22)">
       <use xlink:href="#CMR17-33" transform="scale(0.996264)"/>
       <use xlink:href="#CMR17-30" transform="translate(45.690477 0) scale(0.996264)"/>
      </g>
     </g>
    </g>
    <g id="text_13">
     <!-- Peak Signal-to-Noise Ratio (PSNR), dB -->
     <g style="fill: #262626" transform="translate(43.831226 460.306706) rotate(-90) scale(0.24 -0.24)">
      <defs>
       <path id="CMSS17-50" d="M 2106 1856 
C 2874 1856 3501 2453 3501 3158 
C 3501 3850 2899 4453 2067 4453 
L 570 4453 
L 570 0 
L 1107 0 
L 1107 1856 
L 2106 1856 
z
M 1926 4096 
C 2669 4096 2995 3627 2995 3157 
C 2995 2720 2694 2226 1926 2226 
L 1094 2226 
L 1094 4096 
L 1926 4096 
z
" transform="scale(0.015625)"/>
       <path id="CMSS17-65" d="M 2502 1377 
C 2502 1590 2490 2003 2285 2345 
C 2061 2713 1696 2816 1421 2816 
C 755 2816 192 2188 192 1375 
C 192 582 774 -64 1510 -64 
C 1798 -64 2150 19 2470 248 
C 2470 274 2458 414 2451 420 
C 2451 433 2432 630 2432 656 
C 2125 407 1773 325 1517 325 
C 1107 325 666 667 646 1377 
L 2502 1377 
z
M 698 1728 
C 781 2084 1062 2421 1421 2421 
C 1517 2421 1965 2421 2080 1728 
L 698 1728 
z
" transform="scale(0.015625)"/>
       <path id="CMSS17-61" d="M 2406 1791 
C 2406 2392 1978 2808 1402 2808 
C 1120 2808 813 2757 461 2553 
L 499 2135 
C 659 2248 934 2432 1395 2432 
C 1722 2432 1920 2180 1920 1782 
L 1920 1536 
C 896 1536 256 1238 256 726 
C 256 461 416 -64 947 -64 
C 1043 -64 1562 -64 1933 217 
L 1933 -19 
L 2406 -19 
L 2406 1791 
z
M 1920 816 
C 1920 701 1920 548 1728 434 
C 1562 325 1350 325 1261 325 
C 941 325 723 511 723 744 
C 723 1211 1722 1211 1920 1211 
L 1920 816 
z
" transform="scale(0.015625)"/>
       <path id="CMSS17-6b" d="M 1696 1688 
L 2688 2739 
L 2074 2739 
L 954 1554 
L 954 4416 
L 480 4416 
L 480 0 
L 947 0 
L 947 892 
L 1376 1344 
L 2278 0 
L 2822 0 
L 1696 1688 
z
" transform="scale(0.015625)"/>
       <path id="CMSS17-53" d="M 2797 4169 
C 2515 4334 2208 4480 1690 4480 
C 864 4480 333 3879 333 3266 
C 333 3025 403 2753 653 2475 
C 902 2196 1184 2121 1542 2033 
C 1690 1994 1939 1924 1984 1906 
C 2342 1767 2515 1444 2515 1140 
C 2515 742 2202 318 1645 318 
C 1453 318 890 318 358 819 
L 269 318 
C 794 -64 1363 -128 1651 -128 
C 2438 -128 3002 488 3002 1186 
C 3002 1440 2925 1763 2656 2061 
C 2394 2347 2163 2410 1638 2549 
C 1338 2626 1146 2677 986 2873 
C 877 3013 819 3146 819 3317 
C 819 3673 1126 4060 1690 4060 
C 1971 4060 2336 4002 2707 3660 
L 2797 4169 
z
" transform="scale(0.015625)"/>
       <path id="CMSS17-69" d="M 979 4183 
L 442 4183 
L 442 3648 
L 979 3648 
L 979 4183 
z
M 947 2739 
L 474 2739 
L 474 0 
L 947 0 
L 947 2739 
z
" transform="scale(0.015625)"/>
       <path id="CMSS17-67" d="M 2848 2808 
C 2483 2808 2170 2738 1914 2617 
C 1702 2777 1485 2808 1338 2808 
C 781 2808 358 2349 358 1814 
C 358 1468 550 1207 563 1195 
C 448 1035 384 863 384 672 
C 384 448 474 289 544 200 
C 211 -3 166 -314 166 -435 
C 166 -898 749 -1280 1498 -1280 
C 2253 -1280 2835 -898 2835 -428 
C 2835 448 1856 448 1587 448 
L 1069 448 
C 973 448 717 448 717 791 
C 717 921 774 1004 781 1010 
C 877 940 1075 832 1338 832 
C 1869 832 2310 1278 2310 1827 
C 2310 2132 2170 2355 2112 2432 
L 2131 2432 
C 2150 2432 2419 2432 2515 2432 
C 2720 2432 2739 2429 2918 2419 
L 2848 2808 
z
M 1338 1182 
C 1120 1182 813 1315 813 1823 
C 813 2375 1165 2464 1331 2464 
C 1549 2464 1856 2331 1856 1823 
C 1856 1271 1504 1182 1338 1182 
z
M 1581 -10 
C 1734 -10 2381 -10 2381 -442 
C 2381 -714 1984 -929 1504 -929 
C 1018 -929 621 -720 621 -435 
C 621 -403 621 -10 1062 -10 
L 1581 -10 
z
" transform="scale(0.015625)"/>
       <path id="CMSS17-6e" d="M 2618 1877 
C 2618 2283 2522 2816 1798 2816 
C 1389 2816 1120 2606 941 2389 
L 941 2758 
L 474 2758 
L 474 0 
L 960 0 
L 960 1559 
C 960 1964 1114 2428 1549 2428 
C 2112 2428 2131 2048 2131 1829 
L 2131 0 
L 2618 0 
L 2618 1877 
z
" transform="scale(0.015625)"/>
       <path id="CMSS17-6c" d="M 947 4416 
L 474 4416 
L 474 0 
L 947 0 
L 947 4416 
z
" transform="scale(0.015625)"/>
       <path id="CMSS17-2d" d="M 1664 1216 
L 1664 1585 
L 64 1585 
L 64 1216 
L 1664 1216 
z
" transform="scale(0.015625)"/>
       <path id="CMSS17-74" d="M 1069 2368 
L 1901 2368 
L 1901 2737 
L 1069 2737 
L 1069 3520 
L 614 3520 
L 614 2737 
L 109 2737 
L 109 2368 
L 602 2368 
L 602 749 
C 602 384 685 -64 1107 -64 
C 1427 -64 1722 25 2003 172 
L 1901 548 
C 1747 414 1562 337 1363 337 
C 1082 337 1069 696 1069 856 
L 1069 2368 
z
" transform="scale(0.015625)"/>
       <path id="CMSS17-4e" d="M 1466 4180 
L 1350 4416 
L 563 4416 
L 563 0 
L 1062 0 
L 1062 3926 
L 1069 3932 
C 1114 3817 1139 3760 1402 3194 
L 2771 236 
L 2886 0 
L 3674 0 
L 3674 4416 
L 3174 4416 
L 3174 490 
L 3168 483 
C 3123 598 3098 655 2835 1221 
L 1466 4180 
z
" transform="scale(0.015625)"/>
       <path id="CMSS17-73" d="M 2061 2627 
C 1683 2807 1389 2807 1197 2807 
C 742 2807 198 2648 198 2003 
C 198 1359 902 1218 1094 1179 
C 1389 1122 1715 1058 1715 740 
C 1715 337 1254 337 1171 337 
C 915 337 563 407 243 638 
L 166 210 
C 531 0 883 -64 1178 -64 
C 1965 -64 2163 416 2163 781 
C 2163 1094 1984 1305 1862 1401 
C 1651 1568 1574 1587 1050 1696 
C 960 1709 646 1779 646 2066 
C 646 2432 1050 2432 1139 2432 
C 1555 2432 1811 2303 1984 2208 
L 2061 2627 
z
" transform="scale(0.015625)"/>
       <path id="CMSS17-52" d="M 2522 2109 
L 2534 2115 
C 3533 2459 3539 3147 3539 3268 
C 3539 3873 2925 4453 2003 4453 
L 570 4453 
L 570 32 
L 1094 32 
L 1094 2048 
L 2035 2048 
L 3168 32 
L 3706 32 
L 2522 2109 
z
M 1094 2437 
L 1094 4096 
L 1933 4096 
C 2746 4096 3034 3637 3034 3267 
C 3034 2922 2778 2437 1933 2437 
L 1094 2437 
z
" transform="scale(0.015625)"/>
       <path id="CMSS17-28" d="M 1613 4768 
C 1267 4417 474 3601 474 1588 
C 474 -433 1267 -1243 1613 -1600 
L 2003 -1600 
C 1216 -784 960 357 960 1581 
C 960 2798 1203 3946 2003 4768 
L 1613 4768 
z
" transform="scale(0.015625)"/>
       <path id="CMSS17-29" d="M 723 -1600 
C 1069 -1249 1862 -433 1862 1581 
C 1862 3601 1069 4411 723 4768 
L 333 4768 
C 1120 3952 1376 2811 1376 1588 
C 1376 370 1133 -778 333 -1600 
L 723 -1600 
z
" transform="scale(0.015625)"/>
       <path id="CMSS17-2c" d="M 1088 6 
L 1088 510 
L 576 510 
L 576 0 
L 736 0 
L 570 -800 
L 826 -800 
L 1088 6 
z
" transform="scale(0.015625)"/>
       <path id="CMSS17-64" d="M 2611 4416 
L 2138 4416 
L 2138 2438 
C 1939 2603 1613 2756 1254 2756 
C 672 2756 211 2131 211 1347 
C 211 562 666 -64 1235 -64 
C 1677 -64 1971 172 2125 306 
L 2125 -13 
L 2611 -13 
L 2611 4416 
z
M 2125 836 
C 2125 747 2125 653 1926 482 
C 1798 375 1645 325 1498 325 
C 1152 325 698 576 698 1340 
C 698 2134 1210 2368 1562 2368 
C 1798 2368 1990 2254 2125 2065 
L 2125 836 
z
" transform="scale(0.015625)"/>
       <path id="CMSS17-42" d="M 570 4416 
L 570 0 
L 2163 0 
C 3034 0 3667 574 3667 1200 
C 3667 1685 3251 2176 2502 2317 
C 3334 2558 3501 3040 3501 3313 
C 3501 3883 2874 4416 1997 4416 
L 570 4416 
z
M 1088 2496 
L 1088 4059 
L 1824 4059 
C 2483 4059 3002 3724 3002 3306 
C 3002 2926 2592 2496 1766 2496 
L 1088 2496 
z
M 1088 357 
L 1088 2107 
L 1939 2107 
C 2630 2107 3162 1679 3162 1206 
C 3162 772 2694 357 1984 357 
L 1088 357 
z
" transform="scale(0.015625)"/>
      </defs>
      <use xlink:href="#CMSS17-50" transform="scale(0.996264)"/>
      <use xlink:href="#CMSS17-65" transform="translate(57.133132 0) scale(0.996264)"/>
      <use xlink:href="#CMSS17-61" transform="translate(98.771954 0) scale(0.996264)"/>
      <use xlink:href="#CMSS17-6b" transform="translate(143.693875 0) scale(0.996264)"/>
      <use xlink:href="#CMSS17-53" transform="translate(220.525477 0) scale(0.996264)"/>
      <use xlink:href="#CMSS17-69" transform="translate(272.573993 0) scale(0.996264)"/>
      <use xlink:href="#CMSS17-67" transform="translate(294.754716 0) scale(0.996264)"/>
      <use xlink:href="#CMSS17-6e" transform="translate(341.59834 0) scale(0.996264)"/>
      <use xlink:href="#CMSS17-61" transform="translate(389.803283 0) scale(0.996264)"/>
      <use xlink:href="#CMSS17-6c" transform="translate(434.725203 0) scale(0.996264)"/>
      <use xlink:href="#CMSS17-2d" transform="translate(456.905927 0) scale(0.996264)"/>
      <use xlink:href="#CMSS17-74" transform="translate(488.135039 0) scale(0.996264)"/>
      <use xlink:href="#CMSS17-6f" transform="translate(521.966606 0) scale(0.996264)"/>
      <use xlink:href="#CMSS17-2d" transform="translate(568.810229 0) scale(0.996264)"/>
      <use xlink:href="#CMSS17-4e" transform="translate(600.039342 0) scale(0.996264)"/>
      <use xlink:href="#CMSS17-6f" transform="translate(666.100861 0) scale(0.996264)"/>
      <use xlink:href="#CMSS17-69" transform="translate(712.944485 0) scale(0.996264)"/>
      <use xlink:href="#CMSS17-73" transform="translate(735.125208 0) scale(0.996264)"/>
      <use xlink:href="#CMSS17-65" transform="translate(771.03875 0) scale(0.996264)"/>
      <use xlink:href="#CMSS17-52" transform="translate(843.906685 0) scale(0.996264)"/>
      <use xlink:href="#CMSS17-61" transform="translate(904.32284 0) scale(0.996264)"/>
      <use xlink:href="#CMSS17-74" transform="translate(949.24476 0) scale(0.996264)"/>
      <use xlink:href="#CMSS17-69" transform="translate(983.076327 0) scale(0.996264)"/>
      <use xlink:href="#CMSS17-6f" transform="translate(1005.25705 0) scale(0.996264)"/>
      <use xlink:href="#CMSS17-28" transform="translate(1083.329786 0) scale(0.996264)"/>
      <use xlink:href="#CMSS17-50" transform="translate(1119.7637 0) scale(0.996264)"/>
      <use xlink:href="#CMSS17-53" transform="translate(1179.499287 0) scale(0.996264)"/>
      <use xlink:href="#CMSS17-4e" transform="translate(1231.547803 0) scale(0.996264)"/>
      <use xlink:href="#CMSS17-52" transform="translate(1297.609322 0) scale(0.996264)"/>
      <use xlink:href="#CMSS17-29" transform="translate(1358.025477 0) scale(0.996264)"/>
      <use xlink:href="#CMSS17-2c" transform="translate(1394.459391 0) scale(0.996264)"/>
      <use xlink:href="#CMSS17-64" transform="translate(1451.712709 0) scale(0.996264)"/>
      <use xlink:href="#CMSS17-42" transform="translate(1499.917652 0) scale(0.996264)"/>
     </g>
    </g>
   </g>
   <g id="PolyCollection_1">
    <defs>
     <path id="m7edbc8c625" d="M 111.151132 -123.736682 
L 111.151132 -100.432213 
L 122.48114 -153.237362 
L 133.811147 -159.311725 
L 145.141154 -159.405456 
L 156.471161 -165.253257 
L 167.801168 -164.746203 
L 179.131175 -169.556184 
L 190.461182 -168.580408 
L 201.79119 -171.813689 
L 213.121197 -170.368002 
L 224.451204 -174.141842 
L 235.781211 -179.993909 
L 247.111218 -183.892327 
L 258.441225 -191.93356 
L 269.771232 -189.297916 
L 281.10124 -196.034547 
L 292.431247 -195.49231 
L 303.761254 -192.765803 
L 315.091261 -196.290977 
L 326.421268 -193.340846 
L 337.751275 -196.417233 
L 349.081282 -190.426459 
L 360.41129 -198.724681 
L 371.741297 -199.991372 
L 383.071304 -200.711347 
L 394.401311 -198.532044 
L 405.731318 -202.377301 
L 417.061325 -199.919325 
L 428.391332 -199.043015 
L 439.72134 -199.839304 
L 451.051347 -198.805611 
L 462.381354 -203.831732 
L 473.711361 -199.624074 
L 485.041368 -203.043767 
L 496.371375 -201.98867 
L 507.701382 -202.908137 
L 519.03139 -203.257038 
L 530.361397 -204.501345 
L 541.691404 -205.934302 
L 553.021411 -202.916461 
L 564.351418 -200.720091 
L 575.681425 -205.726136 
L 587.011432 -201.168458 
L 598.34144 -206.587897 
L 609.671447 -205.959833 
L 621.001454 -203.393367 
L 632.331461 -209.007192 
L 643.661468 -206.073499 
L 654.991475 -207.351101 
L 666.321482 -212.036924 
L 666.321482 -222.555159 
L 666.321482 -222.555159 
L 654.991475 -224.752999 
L 643.661468 -234.080858 
L 632.331461 -225.962611 
L 621.001454 -226.886765 
L 609.671447 -223.585985 
L 598.34144 -224.582815 
L 587.011432 -224.715716 
L 575.681425 -219.811795 
L 564.351418 -222.807532 
L 553.021411 -217.422438 
L 541.691404 -221.699834 
L 530.361397 -222.40589 
L 519.03139 -226.061798 
L 507.701382 -218.151647 
L 496.371375 -218.84791 
L 485.041368 -218.477815 
L 473.711361 -220.683488 
L 462.381354 -219.236822 
L 451.051347 -217.794142 
L 439.72134 -221.222159 
L 428.391332 -219.025718 
L 417.061325 -218.080789 
L 405.731318 -217.320943 
L 394.401311 -214.138445 
L 383.071304 -214.789172 
L 371.741297 -220.745812 
L 360.41129 -214.825475 
L 349.081282 -211.23315 
L 337.751275 -208.08003 
L 326.421268 -211.969424 
L 315.091261 -210.090968 
L 303.761254 -206.930433 
L 292.431247 -210.041025 
L 281.10124 -205.874706 
L 269.771232 -205.459214 
L 258.441225 -208.224123 
L 247.111218 -206.184926 
L 235.781211 -207.211344 
L 224.451204 -204.865775 
L 213.121197 -202.805384 
L 201.79119 -203.202759 
L 190.461182 -197.767791 
L 179.131175 -190.830898 
L 167.801168 -184.233114 
L 156.471161 -173.822878 
L 145.141154 -175.431824 
L 133.811147 -168.57754 
L 122.48114 -165.392663 
L 111.151132 -123.736682 
z
" style="stroke: #ffffff; stroke-opacity: 0.2"/>
    </defs>
    <g clip-path="url(#p0732612d08)">
     <use xlink:href="#m7edbc8c625" x="0" y="576" style="fill: #4c72b0; fill-opacity: 0.2; stroke: #ffffff; stroke-opacity: 0.2"/>
    </g>
   </g>
   <g id="PolyCollection_2">
    <defs>
     <path id="mdabbd35bcb" d="M 111.151132 -158.143102 
L 111.151132 -135.178652 
L 122.48114 -159.707422 
L 133.811147 -175.555353 
L 145.141154 -180.097293 
L 156.471161 -178.953361 
L 167.801168 -185.943415 
L 179.131175 -188.746515 
L 190.461182 -189.783006 
L 201.79119 -189.998656 
L 213.121197 -190.620635 
L 224.451204 -193.350429 
L 235.781211 -194.740997 
L 247.111218 -198.680055 
L 258.441225 -196.502011 
L 269.771232 -196.267894 
L 281.10124 -199.334769 
L 292.431247 -199.046303 
L 303.761254 -199.379955 
L 315.091261 -201.05864 
L 326.421268 -200.504791 
L 337.751275 -202.587495 
L 349.081282 -201.349064 
L 360.41129 -203.944908 
L 371.741297 -200.665601 
L 383.071304 -201.247989 
L 394.401311 -204.529254 
L 405.731318 -204.884661 
L 417.061325 -204.660617 
L 428.391332 -207.468404 
L 439.72134 -205.823434 
L 451.051347 -206.562366 
L 462.381354 -207.574515 
L 473.711361 -210.257094 
L 485.041368 -209.146598 
L 496.371375 -209.097285 
L 507.701382 -211.932841 
L 519.03139 -210.010597 
L 530.361397 -208.483001 
L 541.691404 -210.523946 
L 553.021411 -210.891734 
L 564.351418 -212.014051 
L 575.681425 -213.514647 
L 587.011432 -212.011603 
L 598.34144 -210.675734 
L 609.671447 -212.942962 
L 621.001454 -212.146393 
L 632.331461 -214.201957 
L 643.661468 -215.682899 
L 654.991475 -213.930209 
L 666.321482 -215.61309 
L 666.321482 -224.201178 
L 666.321482 -224.201178 
L 654.991475 -224.177396 
L 643.661468 -222.049994 
L 632.331461 -222.177929 
L 621.001454 -223.070467 
L 609.671447 -224.721802 
L 598.34144 -221.890862 
L 587.011432 -224.736281 
L 575.681425 -222.744999 
L 564.351418 -223.254221 
L 553.021411 -224.897092 
L 541.691404 -218.646879 
L 530.361397 -219.676306 
L 519.03139 -220.095784 
L 507.701382 -219.555365 
L 496.371375 -217.747766 
L 485.041368 -217.839538 
L 473.711361 -221.664091 
L 462.381354 -217.605772 
L 451.051347 -216.815708 
L 439.72134 -215.70843 
L 428.391332 -218.709903 
L 417.061325 -216.607473 
L 405.731318 -214.456289 
L 394.401311 -217.154607 
L 383.071304 -213.092161 
L 371.741297 -212.745568 
L 360.41129 -213.318093 
L 349.081282 -212.547195 
L 337.751275 -208.921855 
L 326.421268 -208.779931 
L 315.091261 -210.409861 
L 303.761254 -207.548214 
L 292.431247 -208.331633 
L 281.10124 -206.19297 
L 269.771232 -205.258324 
L 258.441225 -206.553413 
L 247.111218 -209.539497 
L 235.781211 -203.612655 
L 224.451204 -202.977456 
L 213.121197 -203.918398 
L 201.79119 -198.858842 
L 190.461182 -196.747179 
L 179.131175 -196.266635 
L 167.801168 -194.879075 
L 156.471161 -192.824489 
L 145.141154 -191.511144 
L 133.811147 -186.925836 
L 122.48114 -183.916109 
L 111.151132 -158.143102 
z
" style="stroke: #ffffff; stroke-opacity: 0.2"/>
    </defs>
    <g clip-path="url(#p0732612d08)">
     <use xlink:href="#mdabbd35bcb" x="0" y="576" style="fill: #dd8452; fill-opacity: 0.2; stroke: #ffffff; stroke-opacity: 0.2"/>
    </g>
   </g>
   <g id="PolyCollection_3">
    <defs>
     <path id="m3b7c769afc" d="M 111.151132 -164.976192 
L 111.151132 -141.176072 
L 122.48114 -199.056655 
L 133.811147 -215.044832 
L 145.141154 -246.752725 
L 156.471161 -263.365189 
L 167.801168 -270.447644 
L 179.131175 -287.341159 
L 190.461182 -309.578499 
L 201.79119 -325.813803 
L 213.121197 -329.636816 
L 224.451204 -329.070167 
L 235.781211 -341.252188 
L 247.111218 -351.219512 
L 258.441225 -358.826438 
L 269.771232 -342.645414 
L 281.10124 -332.215243 
L 292.431247 -374.873861 
L 303.761254 -374.320152 
L 315.091261 -375.856911 
L 326.421268 -376.568074 
L 337.751275 -376.497566 
L 349.081282 -387.11149 
L 360.41129 -391.95036 
L 371.741297 -389.264353 
L 383.071304 -394.60587 
L 394.401311 -398.50002 
L 405.731318 -397.858946 
L 417.061325 -396.57379 
L 428.391332 -411.072282 
L 439.72134 -358.251185 
L 451.051347 -382.292766 
L 462.381354 -401.527374 
L 473.711361 -365.828802 
L 485.041368 -405.377527 
L 496.371375 -415.365976 
L 507.701382 -404.621948 
L 519.03139 -412.309244 
L 530.361397 -423.384616 
L 541.691404 -415.879955 
L 553.021411 -428.289167 
L 564.351418 -438.893299 
L 575.681425 -434.111507 
L 587.011432 -436.485615 
L 598.34144 -394.875939 
L 609.671447 -408.341998 
L 621.001454 -430.532613 
L 632.331461 -446.402367 
L 643.661468 -426.286973 
L 654.991475 -429.110847 
L 666.321482 -430.988954 
L 666.321482 -492.590636 
L 666.321482 -492.590636 
L 654.991475 -505.895604 
L 643.661468 -480.782698 
L 632.331461 -486.189336 
L 621.001454 -489.146672 
L 609.671447 -477.768354 
L 598.34144 -472.833446 
L 587.011432 -470.532433 
L 575.681425 -474.321382 
L 564.351418 -471.208481 
L 553.021411 -474.726941 
L 541.691404 -471.942027 
L 530.361397 -458.753383 
L 519.03139 -463.209916 
L 507.701382 -471.457846 
L 496.371375 -454.941631 
L 485.041368 -462.365713 
L 473.711361 -462.814919 
L 462.381354 -449.251983 
L 451.051347 -456.894023 
L 439.72134 -450.194604 
L 428.391332 -447.187815 
L 417.061325 -451.041325 
L 405.731318 -437.306107 
L 394.401311 -448.426875 
L 383.071304 -436.751768 
L 371.741297 -428.628485 
L 360.41129 -426.408962 
L 349.081282 -423.937836 
L 337.751275 -421.9774 
L 326.421268 -418.508674 
L 315.091261 -417.096982 
L 303.761254 -422.847695 
L 292.431247 -410.290192 
L 281.10124 -405.474685 
L 269.771232 -403.839089 
L 258.441225 -392.821913 
L 247.111218 -393.544477 
L 235.781211 -381.408482 
L 224.451204 -375.674207 
L 213.121197 -369.881525 
L 201.79119 -353.801856 
L 190.461182 -340.682111 
L 179.131175 -335.479441 
L 167.801168 -314.460876 
L 156.471161 -291.963679 
L 145.141154 -282.134922 
L 133.811147 -264.430498 
L 122.48114 -225.240467 
L 111.151132 -164.976192 
z
" style="stroke: #ffffff; stroke-opacity: 0.2"/>
    </defs>
    <g clip-path="url(#p0732612d08)">
     <use xlink:href="#m3b7c769afc" x="0" y="576" style="fill: #55a868; fill-opacity: 0.2; stroke: #ffffff; stroke-opacity: 0.2"/>
    </g>
   </g>
   <g id="line2d_12">
    <path d="M 111.151132 460.302034 
L 122.48114 417.774079 
L 133.811147 411.904489 
L 145.141154 408.499311 
L 156.471161 407.24675 
L 167.801168 401.896245 
L 179.131175 395.752983 
L 190.461182 386.852542 
L 201.79119 385.364606 
L 213.121197 381.802534 
L 224.451204 379.082603 
L 235.781211 379.405203 
L 247.111218 376.243549 
L 258.441225 376.739201 
L 269.771232 374.931253 
L 281.10124 375.923502 
L 292.431247 373.29758 
L 303.761254 375.116161 
L 315.091261 373.743674 
L 326.421268 371.495542 
L 337.751275 371.920582 
L 349.081282 371.913412 
L 360.41129 370.765739 
L 371.741297 370.64903 
L 383.071304 370.936132 
L 394.401311 368.921732 
L 405.731318 367.636855 
L 417.061325 370.314608 
L 428.391332 366.721514 
L 439.72134 365.322308 
L 451.051347 366.754915 
L 462.381354 367.675921 
L 473.711361 365.852619 
L 485.041368 365.013102 
L 496.371375 366.660764 
L 507.701382 364.206915 
L 519.03139 363.574549 
L 530.361397 363.032382 
L 541.691404 362.63756 
L 553.021411 363.251424 
L 564.351418 362.603775 
L 575.681425 360.983392 
L 587.011432 361.078556 
L 598.34144 360.894208 
L 609.671447 358.759392 
L 621.001454 360.015905 
L 632.331461 360.329028 
L 643.661468 358.009129 
L 654.991475 358.053721 
L 666.321482 357.729337 
" clip-path="url(#p0732612d08)" style="fill: none; stroke: #4c72b0; stroke-width: 1.5; stroke-linecap: round"/>
   </g>
   <g id="line2d_13">
    <path d="M 111.151132 423.740162 
L 122.48114 398.535764 
L 133.811147 394.951308 
L 145.141154 391.558511 
L 156.471161 388.170749 
L 167.801168 385.54196 
L 179.131175 384.435416 
L 190.461182 383.983831 
L 201.79119 381.454578 
L 213.121197 378.525326 
L 224.451204 377.170816 
L 235.781211 377.067818 
L 247.111218 374.064141 
L 258.441225 373.944775 
L 269.771232 374.646599 
L 281.10124 372.881319 
L 292.431247 373.099907 
L 303.761254 372.707708 
L 315.091261 372.065724 
L 326.421268 371.369531 
L 337.751275 369.97571 
L 349.081282 369.24797 
L 360.41129 368.693002 
L 371.741297 368.920892 
L 383.071304 367.371647 
L 394.401311 367.111055 
L 405.731318 365.919 
L 417.061325 366.927197 
L 428.391332 364.389235 
L 439.72134 363.589938 
L 451.051347 363.092607 
L 462.381354 364.369405 
L 473.711361 361.528602 
L 485.041368 362.718455 
L 496.371375 360.970242 
L 507.701382 361.904574 
L 519.03139 360.240298 
L 530.361397 360.26513 
L 541.691404 361.315296 
L 553.021411 359.001098 
L 564.351418 359.161874 
L 575.681425 357.656066 
L 587.011432 358.016438 
L 598.34144 358.509643 
L 609.671447 357.266665 
L 621.001454 357.30003 
L 632.331461 356.866317 
L 643.661468 356.32908 
L 654.991475 356.921366 
L 666.321482 355.23859 
" clip-path="url(#p0732612d08)" style="fill: none; stroke: #dd8452; stroke-width: 1.5; stroke-linecap: round"/>
   </g>
   <g id="line2d_14">
    <path d="M 111.151132 426.117943 
L 122.48114 367.383958 
L 133.811147 339.507927 
L 145.141154 314.770536 
L 156.471161 300.844499 
L 167.801168 282.783306 
L 179.131175 262.664763 
L 190.461182 243.442956 
L 201.79119 229.15784 
L 213.121197 225.873007 
L 224.451204 215.870779 
L 235.781211 213.676927 
L 247.111218 199.076975 
L 258.441225 196.617005 
L 269.771232 191.231106 
L 281.10124 186.896877 
L 292.431247 181.397243 
L 303.761254 183.037631 
L 315.091261 177.511066 
L 326.421268 177.279853 
L 337.751275 172.614909 
L 349.081282 171.002676 
L 360.41129 164.263246 
L 371.741297 158.555621 
L 383.071304 159.597638 
L 394.401311 156.476659 
L 405.731318 151.249962 
L 417.061325 148.81937 
L 428.391332 149.923221 
L 439.72134 138.602891 
L 451.051347 142.056718 
L 462.381354 138.859391 
L 473.711361 142.026501 
L 485.041368 145.836853 
L 496.371375 137.289021 
L 507.701382 130.763877 
L 519.03139 131.899555 
L 530.361397 129.113487 
L 541.691404 126.982518 
L 553.021411 123.336683 
L 564.351418 122.571871 
L 575.681425 118.280345 
L 587.011432 122.456526 
L 598.34144 114.038622 
L 609.671447 114.423372 
L 621.001454 111.989877 
L 632.331461 109.249836 
L 643.661468 108.55025 
L 654.991475 106.80473 
L 666.321482 104.628085 
" clip-path="url(#p0732612d08)" style="fill: none; stroke: #55a868; stroke-width: 1.5; stroke-linecap: round"/>
   </g>
   <g id="patch_3">
    <path d="M 83.392615 495.840956 
L 83.392615 49.831226 
" style="fill: none; stroke: #cccccc; stroke-width: 1.25; stroke-linejoin: miter; stroke-linecap: square"/>
   </g>
   <g id="patch_4">
    <path d="M 694.08 495.840956 
L 694.08 49.831226 
" style="fill: none; stroke: #cccccc; stroke-width: 1.25; stroke-linejoin: miter; stroke-linecap: square"/>
   </g>
   <g id="patch_5">
    <path d="M 83.392615 495.840956 
L 694.08 495.840956 
" style="fill: none; stroke: #cccccc; stroke-width: 1.25; stroke-linejoin: miter; stroke-linecap: square"/>
   </g>
   <g id="patch_6">
    <path d="M 83.392615 49.831226 
L 694.08 49.831226 
" style="fill: none; stroke: #cccccc; stroke-width: 1.25; stroke-linejoin: miter; stroke-linecap: square"/>
   </g>
   <g id="text_14">
    <!-- Peak Signal-to-Noise Ratio (PSNR), dB vs Epoch -->
    <g style="fill: #262626" transform="translate(154.782382 43.831226) scale(0.24 -0.24)">
     <defs>
      <path id="CMSS17-76" d="M 2675 2752 
L 2176 2752 
L 1747 1556 
C 1613 1165 1421 627 1389 352 
L 1382 352 
C 1370 468 1318 634 1286 749 
C 1248 890 1197 1056 1158 1172 
L 595 2752 
L 83 2752 
L 1094 0 
L 1664 0 
L 2675 2752 
z
" transform="scale(0.015625)"/>
     </defs>
     <use xlink:href="#CMSS17-50" transform="scale(0.996264)"/>
     <use xlink:href="#CMSS17-65" transform="translate(57.133132 0) scale(0.996264)"/>
     <use xlink:href="#CMSS17-61" transform="translate(98.771954 0) scale(0.996264)"/>
     <use xlink:href="#CMSS17-6b" transform="translate(143.693875 0) scale(0.996264)"/>
     <use xlink:href="#CMSS17-53" transform="translate(220.525477 0) scale(0.996264)"/>
     <use xlink:href="#CMSS17-69" transform="translate(272.573993 0) scale(0.996264)"/>
     <use xlink:href="#CMSS17-67" transform="translate(294.754716 0) scale(0.996264)"/>
     <use xlink:href="#CMSS17-6e" transform="translate(341.59834 0) scale(0.996264)"/>
     <use xlink:href="#CMSS17-61" transform="translate(389.803283 0) scale(0.996264)"/>
     <use xlink:href="#CMSS17-6c" transform="translate(434.725203 0) scale(0.996264)"/>
     <use xlink:href="#CMSS17-2d" transform="translate(456.905927 0) scale(0.996264)"/>
     <use xlink:href="#CMSS17-74" transform="translate(488.135039 0) scale(0.996264)"/>
     <use xlink:href="#CMSS17-6f" transform="translate(521.966606 0) scale(0.996264)"/>
     <use xlink:href="#CMSS17-2d" transform="translate(568.810229 0) scale(0.996264)"/>
     <use xlink:href="#CMSS17-4e" transform="translate(600.039342 0) scale(0.996264)"/>
     <use xlink:href="#CMSS17-6f" transform="translate(666.100861 0) scale(0.996264)"/>
     <use xlink:href="#CMSS17-69" transform="translate(712.944485 0) scale(0.996264)"/>
     <use xlink:href="#CMSS17-73" transform="translate(735.125208 0) scale(0.996264)"/>
     <use xlink:href="#CMSS17-65" transform="translate(771.03875 0) scale(0.996264)"/>
     <use xlink:href="#CMSS17-52" transform="translate(843.906685 0) scale(0.996264)"/>
     <use xlink:href="#CMSS17-61" transform="translate(904.32284 0) scale(0.996264)"/>
     <use xlink:href="#CMSS17-74" transform="translate(949.24476 0) scale(0.996264)"/>
     <use xlink:href="#CMSS17-69" transform="translate(983.076327 0) scale(0.996264)"/>
     <use xlink:href="#CMSS17-6f" transform="translate(1005.25705 0) scale(0.996264)"/>
     <use xlink:href="#CMSS17-28" transform="translate(1083.329786 0) scale(0.996264)"/>
     <use xlink:href="#CMSS17-50" transform="translate(1119.7637 0) scale(0.996264)"/>
     <use xlink:href="#CMSS17-53" transform="translate(1179.499287 0) scale(0.996264)"/>
     <use xlink:href="#CMSS17-4e" transform="translate(1231.547803 0) scale(0.996264)"/>
     <use xlink:href="#CMSS17-52" transform="translate(1297.609322 0) scale(0.996264)"/>
     <use xlink:href="#CMSS17-29" transform="translate(1358.025477 0) scale(0.996264)"/>
     <use xlink:href="#CMSS17-2c" transform="translate(1394.459391 0) scale(0.996264)"/>
     <use xlink:href="#CMSS17-64" transform="translate(1451.712709 0) scale(0.996264)"/>
     <use xlink:href="#CMSS17-42" transform="translate(1499.917652 0) scale(0.996264)"/>
     <use xlink:href="#CMSS17-76" transform="translate(1593.484805 0) scale(0.996264)"/>
     <use xlink:href="#CMSS17-73" transform="translate(1636.484947 0) scale(0.996264)"/>
     <use xlink:href="#CMSS17-45" transform="translate(1703.627601 0) scale(0.996264)"/>
     <use xlink:href="#CMSS17-70" transform="translate(1759.519615 0) scale(0.996264)"/>
     <use xlink:href="#CMSS17-6f" transform="translate(1810.326996 0) scale(0.996264)"/>
     <use xlink:href="#CMSS17-63" transform="translate(1859.773059 0) scale(0.996264)"/>
     <use xlink:href="#CMSS17-68" transform="translate(1901.411881 0) scale(0.996264)"/>
    </g>
   </g>
   <g id="legend_1">
    <g id="patch_7">
     <path d="M 98.792615 191.675953 
L 221.486868 191.675953 
Q 225.886868 191.675953 225.886868 187.275953 
L 225.886868 65.231226 
Q 225.886868 60.831226 221.486868 60.831226 
L 98.792615 60.831226 
Q 94.392615 60.831226 94.392615 65.231226 
L 94.392615 187.275953 
Q 94.392615 191.675953 98.792615 191.675953 
z
" style="fill: #ffffff; opacity: 0.8; stroke: #cccccc; stroke-linejoin: miter"/>
    </g>
    <g id="text_15">
     <!-- Model -->
     <g style="fill: #262626" transform="translate(130.962162 86.235632) scale(0.24 -0.24)">
      <defs>
       <path id="CMSS17-4d" d="M 3194 2371 
L 2886 1473 
C 2835 1307 2662 791 2624 587 
L 2618 587 
C 2598 715 2560 849 2458 1174 
C 2400 1365 2336 1562 2272 1741 
L 1325 4416 
L 576 4416 
L 576 0 
L 1075 0 
L 1075 3900 
L 1082 3900 
C 1082 3894 1139 3613 1530 2499 
L 2374 96 
L 2848 96 
L 3610 2231 
C 3661 2378 3821 2843 3891 3066 
C 3955 3257 4115 3728 4154 3913 
L 4160 3913 
L 4160 0 
L 4666 0 
L 4666 4416 
L 3923 4416 
L 3194 2371 
z
" transform="scale(0.015625)"/>
      </defs>
      <use xlink:href="#CMSS17-4d" transform="scale(0.996264)"/>
      <use xlink:href="#CMSS17-6f" transform="translate(81.67603 0) scale(0.996264)"/>
      <use xlink:href="#CMSS17-64" transform="translate(131.122092 0) scale(0.996264)"/>
      <use xlink:href="#CMSS17-65" transform="translate(179.327035 0) scale(0.996264)"/>
      <use xlink:href="#CMSS17-6c" transform="translate(220.965857 0) scale(0.996264)"/>
     </g>
    </g>
    <g id="line2d_15">
     <path d="M 103.192615 109.586389 
L 125.192615 109.586389 
L 147.192615 109.586389 
" style="fill: none; stroke: #4c72b0; stroke-width: 1.5; stroke-linecap: round"/>
    </g>
    <g id="text_16">
     <!-- CAE -->
     <g style="fill: #262626" transform="translate(164.792615 117.286389) scale(0.22 -0.22)">
      <defs>
       <path id="CMSS17-43" d="M 3501 714 
C 3072 427 2874 344 2355 344 
C 1459 344 934 1303 934 2179 
C 934 3112 1472 4032 2381 4032 
C 2790 4032 3059 3918 3386 3715 
L 3475 4217 
C 3168 4370 2778 4440 2387 4440 
C 1158 4440 397 3316 397 2179 
C 397 927 1299 -64 2323 -64 
C 2874 -64 3066 -19 3539 280 
L 3501 714 
z
" transform="scale(0.015625)"/>
       <path id="CMSS17-41" d="M 2272 4416 
L 1722 4416 
L 166 0 
L 653 0 
L 1101 1280 
L 2816 1280 
L 3270 0 
L 3827 0 
L 2272 4416 
z
M 2694 1637 
L 1222 1637 
C 1530 2528 1914 3638 1958 3925 
L 1965 3925 
C 2010 3663 2138 3281 2246 2956 
L 2694 1637 
z
" transform="scale(0.015625)"/>
      </defs>
      <use xlink:href="#CMSS17-43" transform="scale(0.996264)"/>
      <use xlink:href="#CMSS17-41" transform="translate(59.855772 0) scale(0.996264)"/>
      <use xlink:href="#CMSS17-45" transform="translate(122.073626 0) scale(0.996264)"/>
     </g>
    </g>
    <g id="line2d_16">
     <path d="M 103.192615 140.249577 
L 125.192615 140.249577 
L 147.192615 140.249577 
" style="fill: none; stroke: #dd8452; stroke-width: 1.5; stroke-linecap: round"/>
    </g>
    <g id="text_17">
     <!-- PCAE -->
     <g style="fill: #262626" transform="translate(164.792615 147.949577) scale(0.22 -0.22)">
      <use xlink:href="#CMSS17-50" transform="scale(0.996264)"/>
      <use xlink:href="#CMSS17-43" transform="translate(59.735586 0) scale(0.996264)"/>
      <use xlink:href="#CMSS17-41" transform="translate(119.591358 0) scale(0.996264)"/>
      <use xlink:href="#CMSS17-45" transform="translate(181.809213 0) scale(0.996264)"/>
     </g>
    </g>
    <g id="line2d_17">
     <path d="M 103.192615 170.912765 
L 125.192615 170.912765 
L 147.192615 170.912765 
" style="fill: none; stroke: #55a868; stroke-width: 1.5; stroke-linecap: round"/>
    </g>
    <g id="text_18">
     <!-- GAN -->
     <g style="fill: #262626" transform="translate(164.792615 178.612765) scale(0.22 -0.22)">
      <defs>
       <path id="CMSS17-47" d="M 3610 1856 
L 2336 1856 
L 2336 1461 
L 3123 1461 
L 3123 471 
C 2874 401 2618 350 2362 350 
C 1466 350 934 1301 934 2200 
C 934 3095 1491 4032 2362 4032 
C 2854 4032 3130 3881 3469 3627 
L 3552 4134 
C 3130 4351 2867 4440 2387 4440 
C 1146 4440 397 3324 397 2182 
C 397 1090 1152 -64 2349 -64 
C 2797 -64 3213 51 3610 248 
L 3610 1856 
z
" transform="scale(0.015625)"/>
      </defs>
      <use xlink:href="#CMSS17-47" transform="scale(0.996264)"/>
      <use xlink:href="#CMSS17-41" transform="translate(62.458226 0) scale(0.996264)"/>
      <use xlink:href="#CMSS17-4e" transform="translate(124.67608 0) scale(0.996264)"/>
     </g>
    </g>
   </g>
  </g>
 </g>
 <defs>
  <clipPath id="p0732612d08">
   <rect x="83.392615" y="49.831226" width="610.687385" height="446.00973"/>
  </clipPath>
 </defs>
</svg>
