<?xml version="1.0" encoding="utf-8" standalone="no"?>
<!DOCTYPE svg PUBLIC "-//W3C//DTD SVG 1.1//EN"
  "http://www.w3.org/Graphics/SVG/1.1/DTD/svg11.dtd">
<svg xmlns:xlink="http://www.w3.org/1999/xlink" width="720pt" height="576pt" viewBox="0 0 720 576" xmlns="http://www.w3.org/2000/svg" version="1.1">
 <metadata>
  <rdf:RDF xmlns:dc="http://purl.org/dc/elements/1.1/" xmlns:cc="http://creativecommons.org/ns#" xmlns:rdf="http://www.w3.org/1999/02/22-rdf-syntax-ns#">
   <cc:Work>
    <dc:type rdf:resource="http://purl.org/dc/dcmitype/StillImage"/>
    <dc:date>2025-04-25T00:39:23.589957</dc:date>
    <dc:format>image/svg+xml</dc:format>
    <dc:creator>
     <cc:Agent>
      <dc:title>Matplotlib v3.9.2, https://matplotlib.org/</dc:title>
     </cc:Agent>
    </dc:creator>
   </cc:Work>
  </rdf:RDF>
 </metadata>
 <defs>
  <style type="text/css">*{stroke-linejoin: round; stroke-linecap: butt}</style>
 </defs>
 <g id="figure_1">
  <g id="patch_1">
   <path d="M 0 576 
L 720 576 
L 720 0 
L 0 0 
z
" style="fill: #ffffff"/>
  </g>
  <g id="axes_1">
   <g id="patch_2">
    <path d="M 99.405899 495.840956 
L 694.08 495.840956 
L 694.08 49.831226 
L 99.405899 49.831226 
z
" style="fill: #ffffff"/>
   </g>
   <g id="matplotlib.axis_1">
    <g id="xtick_1">
     <g id="line2d_1">
      <path d="M 115.403625 495.840956 
L 115.403625 49.831226 
" clip-path="url(#pe0908d3b92)" style="fill: none; stroke: #cccccc; stroke-linecap: round"/>
     </g>
     <g id="text_1">
      <!-- $\mathdefault{0}$ -->
      <g style="fill: #262626" transform="translate(110.377673 520.56165) scale(0.22 -0.22)">
       <defs>
        <path id="CMR17-30" d="M 2688 2025 
C 2688 2416 2682 3080 2413 3591 
C 2176 4039 1798 4198 1466 4198 
C 1158 4198 768 4058 525 3597 
C 269 3118 243 2524 243 2025 
C 243 1661 250 1106 448 619 
C 723 -39 1216 -128 1466 -128 
C 1760 -128 2208 -7 2470 600 
C 2662 1042 2688 1559 2688 2025 
z
M 1466 -26 
C 1056 -26 813 325 723 812 
C 653 1188 653 1738 653 2096 
C 653 2588 653 2997 736 3387 
C 858 3929 1216 4096 1466 4096 
C 1728 4096 2067 3923 2189 3400 
C 2272 3036 2278 2607 2278 2096 
C 2278 1680 2278 1169 2202 792 
C 2067 95 1690 -26 1466 -26 
z
" transform="scale(0.015625)"/>
       </defs>
       <use xlink:href="#CMR17-30" transform="scale(0.996264)"/>
      </g>
     </g>
    </g>
    <g id="xtick_2">
     <g id="line2d_2">
      <path d="M 225.732772 495.840956 
L 225.732772 49.831226 
" clip-path="url(#pe0908d3b92)" style="fill: none; stroke: #cccccc; stroke-linecap: round"/>
     </g>
     <g id="text_2">
      <!-- $\mathdefault{10}$ -->
      <g style="fill: #262626" transform="translate(215.680867 520.56165) scale(0.22 -0.22)">
       <defs>
        <path id="CMR17-31" d="M 1702 4058 
C 1702 4192 1696 4192 1606 4192 
C 1357 3916 979 3827 621 3827 
C 602 3827 570 3827 563 3808 
C 557 3795 557 3782 557 3648 
C 755 3648 1088 3686 1344 3839 
L 1344 461 
C 1344 236 1331 160 781 160 
L 589 160 
L 589 0 
C 896 0 1216 0 1523 0 
C 1830 0 2150 0 2458 0 
L 2458 160 
L 2266 160 
C 1715 160 1702 230 1702 458 
L 1702 4058 
z
" transform="scale(0.015625)"/>
       </defs>
       <use xlink:href="#CMR17-31" transform="scale(0.996264)"/>
       <use xlink:href="#CMR17-30" transform="translate(45.690477 0) scale(0.996264)"/>
      </g>
     </g>
    </g>
    <g id="xtick_3">
     <g id="line2d_3">
      <path d="M 336.061919 495.840956 
L 336.061919 49.831226 
" clip-path="url(#pe0908d3b92)" style="fill: none; stroke: #cccccc; stroke-linecap: round"/>
     </g>
     <g id="text_3">
      <!-- $\mathdefault{20}$ -->
      <g style="fill: #262626" transform="translate(326.010014 520.56165) scale(0.22 -0.22)">
       <defs>
        <path id="CMR17-32" d="M 2669 989 
L 2554 989 
C 2490 536 2438 459 2413 420 
C 2381 369 1920 369 1830 369 
L 602 369 
C 832 619 1280 1072 1824 1597 
C 2214 1967 2669 2402 2669 3035 
C 2669 3790 2067 4224 1395 4224 
C 691 4224 262 3604 262 3030 
C 262 2780 448 2748 525 2748 
C 589 2748 781 2787 781 3010 
C 781 3207 614 3264 525 3264 
C 486 3264 448 3258 422 3245 
C 544 3790 915 4058 1306 4058 
C 1862 4058 2227 3617 2227 3035 
C 2227 2479 1901 2000 1536 1584 
L 262 146 
L 262 0 
L 2515 0 
L 2669 989 
z
" transform="scale(0.015625)"/>
       </defs>
       <use xlink:href="#CMR17-32" transform="scale(0.996264)"/>
       <use xlink:href="#CMR17-30" transform="translate(45.690477 0) scale(0.996264)"/>
      </g>
     </g>
    </g>
    <g id="xtick_4">
     <g id="line2d_4">
      <path d="M 446.391065 495.840956 
L 446.391065 49.831226 
" clip-path="url(#pe0908d3b92)" style="fill: none; stroke: #cccccc; stroke-linecap: round"/>
     </g>
     <g id="text_4">
      <!-- $\mathdefault{30}$ -->
      <g style="fill: #262626" transform="translate(436.339161 520.56165) scale(0.22 -0.22)">
       <defs>
        <path id="CMR17-33" d="M 1414 2157 
C 1984 2157 2234 1662 2234 1090 
C 2234 320 1824 25 1453 25 
C 1114 25 563 194 390 693 
C 422 680 454 680 486 680 
C 640 680 755 782 755 948 
C 755 1133 614 1216 486 1216 
C 378 1216 211 1165 211 926 
C 211 335 787 -128 1466 -128 
C 2176 -128 2720 430 2720 1085 
C 2720 1707 2208 2157 1600 2227 
C 2086 2328 2554 2756 2554 3329 
C 2554 3820 2048 4179 1472 4179 
C 890 4179 378 3829 378 3329 
C 378 3110 544 3072 627 3072 
C 762 3072 877 3155 877 3321 
C 877 3486 762 3569 627 3569 
C 602 3569 570 3569 544 3557 
C 730 3959 1235 4032 1459 4032 
C 1683 4032 2106 3925 2106 3320 
C 2106 3143 2080 2828 1862 2550 
C 1670 2304 1453 2304 1242 2284 
C 1210 2284 1062 2269 1037 2269 
C 992 2263 966 2257 966 2208 
C 966 2163 973 2157 1101 2157 
L 1414 2157 
z
" transform="scale(0.015625)"/>
       </defs>
       <use xlink:href="#CMR17-33" transform="scale(0.996264)"/>
       <use xlink:href="#CMR17-30" transform="translate(45.690477 0) scale(0.996264)"/>
      </g>
     </g>
    </g>
    <g id="xtick_5">
     <g id="line2d_5">
      <path d="M 556.720212 495.840956 
L 556.720212 49.831226 
" clip-path="url(#pe0908d3b92)" style="fill: none; stroke: #cccccc; stroke-linecap: round"/>
     </g>
     <g id="text_5">
      <!-- $\mathdefault{40}$ -->
      <g style="fill: #262626" transform="translate(546.668307 520.56165) scale(0.22 -0.22)">
       <defs>
        <path id="CMR17-34" d="M 2150 4122 
C 2150 4256 2144 4256 2029 4256 
L 128 1254 
L 128 1088 
L 1779 1088 
L 1779 457 
C 1779 224 1766 160 1318 160 
L 1197 160 
L 1197 0 
C 1402 0 1747 0 1965 0 
C 2182 0 2528 0 2733 0 
L 2733 160 
L 2611 160 
C 2163 160 2150 224 2150 457 
L 2150 1088 
L 2803 1088 
L 2803 1254 
L 2150 1254 
L 2150 4122 
z
M 1798 3703 
L 1798 1254 
L 256 1254 
L 1798 3703 
z
" transform="scale(0.015625)"/>
       </defs>
       <use xlink:href="#CMR17-34" transform="scale(0.996264)"/>
       <use xlink:href="#CMR17-30" transform="translate(45.690477 0) scale(0.996264)"/>
      </g>
     </g>
    </g>
    <g id="xtick_6">
     <g id="line2d_6">
      <path d="M 667.049359 495.840956 
L 667.049359 49.831226 
" clip-path="url(#pe0908d3b92)" style="fill: none; stroke: #cccccc; stroke-linecap: round"/>
     </g>
     <g id="text_6">
      <!-- $\mathdefault{50}$ -->
      <g style="fill: #262626" transform="translate(656.997454 520.56165) scale(0.22 -0.22)">
       <defs>
        <path id="CMR17-35" d="M 730 3692 
C 794 3666 1056 3584 1325 3584 
C 1920 3584 2246 3911 2432 4100 
C 2432 4157 2432 4192 2394 4192 
C 2387 4192 2374 4192 2323 4163 
C 2099 4058 1837 3973 1517 3973 
C 1325 3973 1037 3999 723 4139 
C 653 4171 640 4171 634 4171 
C 602 4171 595 4164 595 4037 
L 595 2203 
C 595 2089 595 2057 659 2057 
C 691 2057 704 2070 736 2114 
C 941 2401 1222 2522 1542 2522 
C 1766 2522 2246 2382 2246 1289 
C 2246 1085 2246 715 2054 421 
C 1894 159 1645 25 1370 25 
C 947 25 518 320 403 814 
C 429 807 480 795 506 795 
C 589 795 749 840 749 1038 
C 749 1210 627 1280 506 1280 
C 358 1280 262 1190 262 1011 
C 262 454 704 -128 1382 -128 
C 2042 -128 2669 440 2669 1264 
C 2669 2030 2170 2624 1549 2624 
C 1222 2624 947 2503 730 2274 
L 730 3692 
z
" transform="scale(0.015625)"/>
       </defs>
       <use xlink:href="#CMR17-35" transform="scale(0.996264)"/>
       <use xlink:href="#CMR17-30" transform="translate(45.690477 0) scale(0.996264)"/>
      </g>
     </g>
    </g>
    <g id="text_7">
     <!-- Epoch -->
     <g style="fill: #262626" transform="translate(367.224258 545.429243) scale(0.24 -0.24)">
      <defs>
       <path id="CMSS17-45" d="M 1958 433 
C 1446 433 1216 433 1101 433 
L 1101 2107 
L 3085 2107 
L 3085 2496 
L 1101 2496 
L 1101 4009 
L 1926 4009 
C 2003 4009 2080 4009 2157 4009 
L 3251 4009 
L 3251 4416 
L 563 4416 
L 563 0 
L 3334 0 
L 3334 433 
L 1958 433 
z
" transform="scale(0.015625)"/>
       <path id="CMSS17-70" d="M 966 333 
C 1178 129 1466 -5 1773 -5 
C 2368 -5 2880 603 2880 1412 
C 2880 2159 2496 2816 1946 2816 
C 1626 2816 1242 2702 954 2472 
L 954 2765 
L 480 2765 
L 480 -1216 
L 966 -1216 
L 966 333 
z
M 966 2100 
C 1018 2176 1235 2415 1587 2415 
C 2035 2415 2394 1960 2394 1412 
C 2394 787 1958 384 1530 384 
C 1402 384 1267 415 1139 523 
C 966 674 966 768 966 857 
L 966 2100 
z
" transform="scale(0.015625)"/>
       <path id="CMSS17-6f" d="M 2829 1356 
C 2829 2176 2221 2816 1504 2816 
C 768 2816 173 2157 173 1356 
C 173 544 787 -64 1498 -64 
C 2227 -64 2829 563 2829 1356 
z
M 1504 337 
C 1050 337 659 709 659 1408 
C 659 2151 1114 2427 1498 2427 
C 1914 2427 2342 2126 2342 1408 
C 2342 683 1926 337 1504 337 
z
" transform="scale(0.015625)"/>
       <path id="CMSS17-63" d="M 2464 2541 
C 2464 2585 2170 2714 2093 2739 
C 1882 2816 1613 2816 1542 2816 
C 710 2816 211 2093 211 1363 
C 211 595 768 -64 1517 -64 
C 1946 -64 2253 76 2502 242 
L 2464 664 
C 2189 453 1869 337 1523 337 
C 1024 337 698 774 698 1369 
C 698 1831 909 2414 1549 2414 
C 1901 2414 2099 2343 2394 2145 
L 2464 2541 
z
" transform="scale(0.015625)"/>
       <path id="CMSS17-68" d="M 2618 1891 
C 2618 2292 2522 2820 1798 2820 
C 1395 2820 1133 2623 947 2407 
L 947 4448 
L 474 4448 
L 474 32 
L 960 32 
L 960 1573 
C 960 1973 1114 2432 1549 2432 
C 2112 2432 2131 2056 2131 1839 
L 2131 32 
L 2618 32 
L 2618 1891 
z
" transform="scale(0.015625)"/>
      </defs>
      <use xlink:href="#CMSS17-45" transform="scale(0.996264)"/>
      <use xlink:href="#CMSS17-70" transform="translate(55.892013 0) scale(0.996264)"/>
      <use xlink:href="#CMSS17-6f" transform="translate(106.699395 0) scale(0.996264)"/>
      <use xlink:href="#CMSS17-63" transform="translate(156.145457 0) scale(0.996264)"/>
      <use xlink:href="#CMSS17-68" transform="translate(197.784279 0) scale(0.996264)"/>
     </g>
    </g>
   </g>
   <g id="matplotlib.axis_2">
    <g id="ytick_1">
     <g id="line2d_7">
      <path d="M 99.405899 442.052591 
L 694.08 442.052591 
" clip-path="url(#pe0908d3b92)" style="fill: none; stroke: #cccccc; stroke-linecap: round"/>
     </g>
     <g id="text_8">
      <!-- $\mathdefault{0.65}$ -->
      <g style="fill: #262626" transform="translate(53.788805 449.662938) scale(0.22 -0.22)">
       <defs>
        <path id="CMMI12-3a" d="M 1178 307 
C 1178 492 1024 619 870 619 
C 685 619 557 466 557 313 
C 557 128 710 0 864 0 
C 1050 0 1178 153 1178 307 
z
" transform="scale(0.015625)"/>
        <path id="CMR17-36" d="M 678 2176 
C 678 3690 1395 4032 1811 4032 
C 1946 4032 2272 4009 2400 3776 
C 2298 3776 2106 3776 2106 3553 
C 2106 3381 2246 3323 2336 3323 
C 2394 3323 2566 3348 2566 3560 
C 2566 3954 2246 4179 1805 4179 
C 1043 4179 243 3390 243 1984 
C 243 253 966 -128 1478 -128 
C 2099 -128 2688 427 2688 1283 
C 2688 2081 2170 2662 1517 2662 
C 1126 2662 838 2407 678 1960 
L 678 2176 
z
M 1478 25 
C 691 25 691 1200 691 1436 
C 691 1896 909 2560 1504 2560 
C 1613 2560 1926 2560 2138 2120 
C 2253 1870 2253 1609 2253 1289 
C 2253 944 2253 690 2118 434 
C 1978 171 1773 25 1478 25 
z
" transform="scale(0.015625)"/>
       </defs>
       <use xlink:href="#CMR17-30" transform="scale(0.996264)"/>
       <use xlink:href="#CMMI12-3a" transform="translate(45.690477 0) scale(0.996264)"/>
       <use xlink:href="#CMR17-36" transform="translate(72.787654 0) scale(0.996264)"/>
       <use xlink:href="#CMR17-35" transform="translate(118.478131 0) scale(0.996264)"/>
      </g>
     </g>
    </g>
    <g id="ytick_2">
     <g id="line2d_8">
      <path d="M 99.405899 380.732341 
L 694.08 380.732341 
" clip-path="url(#pe0908d3b92)" style="fill: none; stroke: #cccccc; stroke-linecap: round"/>
     </g>
     <g id="text_9">
      <!-- $\mathdefault{0.70}$ -->
      <g style="fill: #262626" transform="translate(53.788805 388.342688) scale(0.22 -0.22)">
       <defs>
        <path id="CMR17-37" d="M 2886 3941 
L 2886 4081 
L 1382 4081 
C 634 4081 621 4165 595 4288 
L 480 4288 
L 294 3094 
L 410 3094 
C 429 3215 474 3540 550 3661 
C 589 3712 1062 3712 1171 3712 
L 2579 3712 
L 1869 2661 
C 1395 1954 1069 999 1069 165 
C 1069 89 1069 -128 1299 -128 
C 1530 -128 1530 89 1530 171 
L 1530 465 
C 1530 1508 1709 2196 2003 2636 
L 2886 3941 
z
" transform="scale(0.015625)"/>
       </defs>
       <use xlink:href="#CMR17-30" transform="scale(0.996264)"/>
       <use xlink:href="#CMMI12-3a" transform="translate(45.690477 0) scale(0.996264)"/>
       <use xlink:href="#CMR17-37" transform="translate(72.787654 0) scale(0.996264)"/>
       <use xlink:href="#CMR17-30" transform="translate(118.478131 0) scale(0.996264)"/>
      </g>
     </g>
    </g>
    <g id="ytick_3">
     <g id="line2d_9">
      <path d="M 99.405899 319.412091 
L 694.08 319.412091 
" clip-path="url(#pe0908d3b92)" style="fill: none; stroke: #cccccc; stroke-linecap: round"/>
     </g>
     <g id="text_10">
      <!-- $\mathdefault{0.75}$ -->
      <g style="fill: #262626" transform="translate(53.788805 327.022438) scale(0.22 -0.22)">
       <use xlink:href="#CMR17-30" transform="scale(0.996264)"/>
       <use xlink:href="#CMMI12-3a" transform="translate(45.690477 0) scale(0.996264)"/>
       <use xlink:href="#CMR17-37" transform="translate(72.787654 0) scale(0.996264)"/>
       <use xlink:href="#CMR17-35" transform="translate(118.478131 0) scale(0.996264)"/>
      </g>
     </g>
    </g>
    <g id="ytick_4">
     <g id="line2d_10">
      <path d="M 99.405899 258.091842 
L 694.08 258.091842 
" clip-path="url(#pe0908d3b92)" style="fill: none; stroke: #cccccc; stroke-linecap: round"/>
     </g>
     <g id="text_11">
      <!-- $\mathdefault{0.80}$ -->
      <g style="fill: #262626" transform="translate(53.788805 265.702188) scale(0.22 -0.22)">
       <defs>
        <path id="CMR17-38" d="M 1741 2264 
C 2144 2467 2554 2773 2554 3263 
C 2554 3841 1990 4179 1472 4179 
C 890 4179 378 3759 378 3180 
C 378 3021 416 2747 666 2505 
C 730 2442 998 2251 1171 2130 
C 883 1983 211 1634 211 934 
C 211 279 838 -128 1459 -128 
C 2144 -128 2720 362 2720 1010 
C 2720 1590 2330 1857 2074 2029 
L 1741 2264 
z
M 902 2822 
C 851 2854 595 3051 595 3351 
C 595 3739 998 4032 1459 4032 
C 1965 4032 2336 3676 2336 3262 
C 2336 2669 1670 2331 1638 2331 
C 1632 2331 1626 2331 1574 2370 
L 902 2822 
z
M 2080 1519 
C 2176 1449 2483 1240 2483 851 
C 2483 381 2010 25 1472 25 
C 890 25 448 438 448 940 
C 448 1443 838 1862 1280 2060 
L 2080 1519 
z
" transform="scale(0.015625)"/>
       </defs>
       <use xlink:href="#CMR17-30" transform="scale(0.996264)"/>
       <use xlink:href="#CMMI12-3a" transform="translate(45.690477 0) scale(0.996264)"/>
       <use xlink:href="#CMR17-38" transform="translate(72.787654 0) scale(0.996264)"/>
       <use xlink:href="#CMR17-30" transform="translate(118.478131 0) scale(0.996264)"/>
      </g>
     </g>
    </g>
    <g id="ytick_5">
     <g id="line2d_11">
      <path d="M 99.405899 196.771592 
L 694.08 196.771592 
" clip-path="url(#pe0908d3b92)" style="fill: none; stroke: #cccccc; stroke-linecap: round"/>
     </g>
     <g id="text_12">
      <!-- $\mathdefault{0.85}$ -->
      <g style="fill: #262626" transform="translate(53.788805 204.381939) scale(0.22 -0.22)">
       <use xlink:href="#CMR17-30" transform="scale(0.996264)"/>
       <use xlink:href="#CMMI12-3a" transform="translate(45.690477 0) scale(0.996264)"/>
       <use xlink:href="#CMR17-38" transform="translate(72.787654 0) scale(0.996264)"/>
       <use xlink:href="#CMR17-35" transform="translate(118.478131 0) scale(0.996264)"/>
      </g>
     </g>
    </g>
    <g id="ytick_6">
     <g id="line2d_12">
      <path d="M 99.405899 135.451342 
L 694.08 135.451342 
" clip-path="url(#pe0908d3b92)" style="fill: none; stroke: #cccccc; stroke-linecap: round"/>
     </g>
     <g id="text_13">
      <!-- $\mathdefault{0.90}$ -->
      <g style="fill: #262626" transform="translate(53.788805 143.061689) scale(0.22 -0.22)">
       <defs>
        <path id="CMR17-39" d="M 2253 1864 
C 2253 464 1670 31 1190 31 
C 1043 31 685 31 538 294 
C 704 268 826 357 826 518 
C 826 692 685 749 595 749 
C 538 749 365 723 365 506 
C 365 71 742 -128 1203 -128 
C 1939 -128 2688 674 2688 2073 
C 2688 3817 1971 4179 1485 4179 
C 851 4179 243 3628 243 2778 
C 243 1991 762 1408 1414 1408 
C 1952 1408 2189 1903 2253 2112 
L 2253 1864 
z
M 1427 1510 
C 1254 1510 1011 1542 813 1922 
C 678 2169 678 2461 678 2771 
C 678 3146 678 3405 858 3684 
C 947 3817 1114 4032 1485 4032 
C 2240 4032 2240 2885 2240 2632 
C 2240 2182 2035 1510 1427 1510 
z
" transform="scale(0.015625)"/>
       </defs>
       <use xlink:href="#CMR17-30" transform="scale(0.996264)"/>
       <use xlink:href="#CMMI12-3a" transform="translate(45.690477 0) scale(0.996264)"/>
       <use xlink:href="#CMR17-39" transform="translate(72.787654 0) scale(0.996264)"/>
       <use xlink:href="#CMR17-30" transform="translate(118.478131 0) scale(0.996264)"/>
      </g>
     </g>
    </g>
    <g id="ytick_7">
     <g id="line2d_13">
      <path d="M 99.405899 74.131092 
L 694.08 74.131092 
" clip-path="url(#pe0908d3b92)" style="fill: none; stroke: #cccccc; stroke-linecap: round"/>
     </g>
     <g id="text_14">
      <!-- $\mathdefault{0.95}$ -->
      <g style="fill: #262626" transform="translate(53.788805 81.741439) scale(0.22 -0.22)">
       <use xlink:href="#CMR17-30" transform="scale(0.996264)"/>
       <use xlink:href="#CMMI12-3a" transform="translate(45.690477 0) scale(0.996264)"/>
       <use xlink:href="#CMR17-39" transform="translate(72.787654 0) scale(0.996264)"/>
       <use xlink:href="#CMR17-35" transform="translate(118.478131 0) scale(0.996264)"/>
      </g>
     </g>
    </g>
    <g id="text_15">
     <!-- Structural Similarity Index Measure (SSIM) -->
     <g style="fill: #262626" transform="translate(43.831226 476.142373) rotate(-90) scale(0.24 -0.24)">
      <defs>
       <path id="CMSS17-53" d="M 2797 4169 
C 2515 4334 2208 4480 1690 4480 
C 864 4480 333 3879 333 3266 
C 333 3025 403 2753 653 2475 
C 902 2196 1184 2121 1542 2033 
C 1690 1994 1939 1924 1984 1906 
C 2342 1767 2515 1444 2515 1140 
C 2515 742 2202 318 1645 318 
C 1453 318 890 318 358 819 
L 269 318 
C 794 -64 1363 -128 1651 -128 
C 2438 -128 3002 488 3002 1186 
C 3002 1440 2925 1763 2656 2061 
C 2394 2347 2163 2410 1638 2549 
C 1338 2626 1146 2677 986 2873 
C 877 3013 819 3146 819 3317 
C 819 3673 1126 4060 1690 4060 
C 1971 4060 2336 4002 2707 3660 
L 2797 4169 
z
" transform="scale(0.015625)"/>
       <path id="CMSS17-74" d="M 1069 2368 
L 1901 2368 
L 1901 2737 
L 1069 2737 
L 1069 3520 
L 614 3520 
L 614 2737 
L 109 2737 
L 109 2368 
L 602 2368 
L 602 749 
C 602 384 685 -64 1107 -64 
C 1427 -64 1722 25 2003 172 
L 1901 548 
C 1747 414 1562 337 1363 337 
C 1082 337 1069 696 1069 856 
L 1069 2368 
z
" transform="scale(0.015625)"/>
       <path id="CMSS17-72" d="M 954 1363 
C 954 1965 1395 2368 1958 2368 
L 1958 2789 
C 1549 2789 1165 2585 934 2253 
L 934 2758 
L 480 2758 
L 480 0 
L 954 0 
L 954 1363 
z
" transform="scale(0.015625)"/>
       <path id="CMSS17-75" d="M 2618 2739 
L 2131 2739 
L 2131 972 
C 2131 498 1786 306 1421 306 
C 998 306 960 447 960 709 
L 960 2739 
L 474 2739 
L 474 678 
C 474 179 646 -64 1088 -64 
C 1306 -64 1798 -13 2144 306 
L 2144 0 
L 2618 0 
L 2618 2739 
z
" transform="scale(0.015625)"/>
       <path id="CMSS17-61" d="M 2406 1791 
C 2406 2392 1978 2808 1402 2808 
C 1120 2808 813 2757 461 2553 
L 499 2135 
C 659 2248 934 2432 1395 2432 
C 1722 2432 1920 2180 1920 1782 
L 1920 1536 
C 896 1536 256 1238 256 726 
C 256 461 416 -64 947 -64 
C 1043 -64 1562 -64 1933 217 
L 1933 -19 
L 2406 -19 
L 2406 1791 
z
M 1920 816 
C 1920 701 1920 548 1728 434 
C 1562 325 1350 325 1261 325 
C 941 325 723 511 723 744 
C 723 1211 1722 1211 1920 1211 
L 1920 816 
z
" transform="scale(0.015625)"/>
       <path id="CMSS17-6c" d="M 947 4416 
L 474 4416 
L 474 0 
L 947 0 
L 947 4416 
z
" transform="scale(0.015625)"/>
       <path id="CMSS17-69" d="M 979 4183 
L 442 4183 
L 442 3648 
L 979 3648 
L 979 4183 
z
M 947 2739 
L 474 2739 
L 474 0 
L 947 0 
L 947 2739 
z
" transform="scale(0.015625)"/>
       <path id="CMSS17-6d" d="M 4288 1877 
C 4288 2308 4179 2816 3462 2816 
C 2982 2816 2694 2516 2566 2331 
C 2451 2670 2182 2816 1798 2816 
C 1363 2816 1088 2568 941 2389 
L 941 2758 
L 474 2758 
L 474 0 
L 960 0 
L 960 1559 
C 960 1939 1101 2428 1555 2428 
C 2138 2428 2138 2016 2138 1829 
L 2138 0 
L 2624 0 
L 2624 1559 
C 2624 1939 2765 2428 3219 2428 
C 3802 2428 3802 2016 3802 1829 
L 3802 0 
L 4288 0 
L 4288 1877 
z
" transform="scale(0.015625)"/>
       <path id="CMSS17-79" d="M 2675 2752 
L 2176 2752 
C 1632 1294 1446 702 1434 383 
L 1427 383 
C 1408 696 1126 1460 902 2007 
L 602 2752 
L 83 2752 
L 1216 13 
C 1146 -178 1043 -465 1011 -529 
C 870 -885 774 -885 672 -885 
C 646 -885 442 -885 211 -809 
L 250 -1229 
C 410 -1261 570 -1280 685 -1280 
C 845 -1280 1165 -1280 1459 -497 
L 2675 2752 
z
" transform="scale(0.015625)"/>
       <path id="CMSS17-49" d="M 1094 4416 
L 557 4416 
L 557 0 
L 1094 0 
L 1094 4416 
z
" transform="scale(0.015625)"/>
       <path id="CMSS17-6e" d="M 2618 1877 
C 2618 2283 2522 2816 1798 2816 
C 1389 2816 1120 2606 941 2389 
L 941 2758 
L 474 2758 
L 474 0 
L 960 0 
L 960 1559 
C 960 1964 1114 2428 1549 2428 
C 2112 2428 2131 2048 2131 1829 
L 2131 0 
L 2618 0 
L 2618 1877 
z
" transform="scale(0.015625)"/>
       <path id="CMSS17-64" d="M 2611 4416 
L 2138 4416 
L 2138 2438 
C 1939 2603 1613 2756 1254 2756 
C 672 2756 211 2131 211 1347 
C 211 562 666 -64 1235 -64 
C 1677 -64 1971 172 2125 306 
L 2125 -13 
L 2611 -13 
L 2611 4416 
z
M 2125 836 
C 2125 747 2125 653 1926 482 
C 1798 375 1645 325 1498 325 
C 1152 325 698 576 698 1340 
C 698 2134 1210 2368 1562 2368 
C 1798 2368 1990 2254 2125 2065 
L 2125 836 
z
" transform="scale(0.015625)"/>
       <path id="CMSS17-65" d="M 2502 1377 
C 2502 1590 2490 2003 2285 2345 
C 2061 2713 1696 2816 1421 2816 
C 755 2816 192 2188 192 1375 
C 192 582 774 -64 1510 -64 
C 1798 -64 2150 19 2470 248 
C 2470 274 2458 414 2451 420 
C 2451 433 2432 630 2432 656 
C 2125 407 1773 325 1517 325 
C 1107 325 666 667 646 1377 
L 2502 1377 
z
M 698 1728 
C 781 2084 1062 2421 1421 2421 
C 1517 2421 1965 2421 2080 1728 
L 698 1728 
z
" transform="scale(0.015625)"/>
       <path id="CMSS17-78" d="M 1587 1414 
L 2656 2739 
L 2099 2739 
L 1363 1777 
L 602 2739 
L 32 2739 
L 1139 1414 
L 0 0 
L 563 0 
L 1363 1121 
L 2195 0 
L 2758 0 
L 1587 1414 
z
" transform="scale(0.015625)"/>
       <path id="CMSS17-4d" d="M 3194 2371 
L 2886 1473 
C 2835 1307 2662 791 2624 587 
L 2618 587 
C 2598 715 2560 849 2458 1174 
C 2400 1365 2336 1562 2272 1741 
L 1325 4416 
L 576 4416 
L 576 0 
L 1075 0 
L 1075 3900 
L 1082 3900 
C 1082 3894 1139 3613 1530 2499 
L 2374 96 
L 2848 96 
L 3610 2231 
C 3661 2378 3821 2843 3891 3066 
C 3955 3257 4115 3728 4154 3913 
L 4160 3913 
L 4160 0 
L 4666 0 
L 4666 4416 
L 3923 4416 
L 3194 2371 
z
" transform="scale(0.015625)"/>
       <path id="CMSS17-73" d="M 2061 2627 
C 1683 2807 1389 2807 1197 2807 
C 742 2807 198 2648 198 2003 
C 198 1359 902 1218 1094 1179 
C 1389 1122 1715 1058 1715 740 
C 1715 337 1254 337 1171 337 
C 915 337 563 407 243 638 
L 166 210 
C 531 0 883 -64 1178 -64 
C 1965 -64 2163 416 2163 781 
C 2163 1094 1984 1305 1862 1401 
C 1651 1568 1574 1587 1050 1696 
C 960 1709 646 1779 646 2066 
C 646 2432 1050 2432 1139 2432 
C 1555 2432 1811 2303 1984 2208 
L 2061 2627 
z
" transform="scale(0.015625)"/>
       <path id="CMSS17-28" d="M 1613 4768 
C 1267 4417 474 3601 474 1588 
C 474 -433 1267 -1243 1613 -1600 
L 2003 -1600 
C 1216 -784 960 357 960 1581 
C 960 2798 1203 3946 2003 4768 
L 1613 4768 
z
" transform="scale(0.015625)"/>
       <path id="CMSS17-29" d="M 723 -1600 
C 1069 -1249 1862 -433 1862 1581 
C 1862 3601 1069 4411 723 4768 
L 333 4768 
C 1120 3952 1376 2811 1376 1588 
C 1376 370 1133 -778 333 -1600 
L 723 -1600 
z
" transform="scale(0.015625)"/>
      </defs>
      <use xlink:href="#CMSS17-53" transform="scale(0.996264)"/>
      <use xlink:href="#CMSS17-74" transform="translate(52.048516 0) scale(0.996264)"/>
      <use xlink:href="#CMSS17-72" transform="translate(85.880083 0) scale(0.996264)"/>
      <use xlink:href="#CMSS17-75" transform="translate(117.789855 0) scale(0.996264)"/>
      <use xlink:href="#CMSS17-63" transform="translate(165.994799 0) scale(0.996264)"/>
      <use xlink:href="#CMSS17-74" transform="translate(207.633621 0) scale(0.996264)"/>
      <use xlink:href="#CMSS17-75" transform="translate(241.465187 0) scale(0.996264)"/>
      <use xlink:href="#CMSS17-72" transform="translate(289.67013 0) scale(0.996264)"/>
      <use xlink:href="#CMSS17-61" transform="translate(321.579903 0) scale(0.996264)"/>
      <use xlink:href="#CMSS17-6c" transform="translate(366.501824 0) scale(0.996264)"/>
      <use xlink:href="#CMSS17-53" transform="translate(419.911659 0) scale(0.996264)"/>
      <use xlink:href="#CMSS17-69" transform="translate(471.960176 0) scale(0.996264)"/>
      <use xlink:href="#CMSS17-6d" transform="translate(494.140899 0) scale(0.996264)"/>
      <use xlink:href="#CMSS17-69" transform="translate(568.370153 0) scale(0.996264)"/>
      <use xlink:href="#CMSS17-6c" transform="translate(590.550876 0) scale(0.996264)"/>
      <use xlink:href="#CMSS17-61" transform="translate(612.731599 0) scale(0.996264)"/>
      <use xlink:href="#CMSS17-72" transform="translate(655.051066 0) scale(0.996264)"/>
      <use xlink:href="#CMSS17-69" transform="translate(686.960838 0) scale(0.996264)"/>
      <use xlink:href="#CMSS17-74" transform="translate(709.141561 0) scale(0.996264)"/>
      <use xlink:href="#CMSS17-79" transform="translate(740.370674 0) scale(0.996264)"/>
      <use xlink:href="#CMSS17-49" transform="translate(814.599929 0) scale(0.996264)"/>
      <use xlink:href="#CMSS17-6e" transform="translate(840.383854 0) scale(0.996264)"/>
      <use xlink:href="#CMSS17-64" transform="translate(888.588797 0) scale(0.996264)"/>
      <use xlink:href="#CMSS17-65" transform="translate(936.79374 0) scale(0.996264)"/>
      <use xlink:href="#CMSS17-78" transform="translate(978.432562 0) scale(0.996264)"/>
      <use xlink:href="#CMSS17-4d" transform="translate(1052.661817 0) scale(0.996264)"/>
      <use xlink:href="#CMSS17-65" transform="translate(1134.337847 0) scale(0.996264)"/>
      <use xlink:href="#CMSS17-61" transform="translate(1175.976669 0) scale(0.996264)"/>
      <use xlink:href="#CMSS17-73" transform="translate(1220.89859 0) scale(0.996264)"/>
      <use xlink:href="#CMSS17-75" transform="translate(1256.812132 0) scale(0.996264)"/>
      <use xlink:href="#CMSS17-72" transform="translate(1305.017075 0) scale(0.996264)"/>
      <use xlink:href="#CMSS17-65" transform="translate(1336.926847 0) scale(0.996264)"/>
      <use xlink:href="#CMSS17-28" transform="translate(1409.794782 0) scale(0.996264)"/>
      <use xlink:href="#CMSS17-53" transform="translate(1446.228696 0) scale(0.996264)"/>
      <use xlink:href="#CMSS17-53" transform="translate(1498.277212 0) scale(0.996264)"/>
      <use xlink:href="#CMSS17-49" transform="translate(1550.325729 0) scale(0.996264)"/>
      <use xlink:href="#CMSS17-4d" transform="translate(1576.109654 0) scale(0.996264)"/>
      <use xlink:href="#CMSS17-29" transform="translate(1657.785684 0) scale(0.996264)"/>
     </g>
    </g>
   </g>
   <g id="PolyCollection_1">
    <defs>
     <path id="m221499c7ba" d="M 126.43654 -259.31155 
L 126.43654 -205.886282 
L 137.469454 -167.506755 
L 148.502369 -190.469962 
L 159.535284 -234.656588 
L 170.568199 -246.316767 
L 181.601113 -249.136272 
L 192.634028 -250.78456 
L 203.666943 -265.438465 
L 214.699857 -247.299224 
L 225.732772 -261.309568 
L 236.765687 -270.902508 
L 247.798601 -276.455669 
L 258.831516 -269.759498 
L 269.864431 -276.58853 
L 280.897345 -275.018323 
L 291.93026 -276.93642 
L 302.963175 -274.508138 
L 313.996089 -269.008938 
L 325.029004 -279.683567 
L 336.061919 -256.293571 
L 347.094833 -276.997332 
L 358.127748 -260.113823 
L 369.160663 -281.923392 
L 380.193577 -280.012244 
L 391.226492 -283.094253 
L 402.259407 -279.296841 
L 413.292321 -287.571804 
L 424.325236 -285.29645 
L 435.358151 -281.673001 
L 446.391065 -282.541704 
L 457.42398 -268.582149 
L 468.456895 -290.000086 
L 479.48981 -281.964681 
L 490.522724 -280.088894 
L 501.555639 -292.864968 
L 512.588554 -289.828816 
L 523.621468 -283.068036 
L 534.654383 -283.995607 
L 545.687298 -287.851016 
L 556.720212 -279.237156 
L 567.753127 -288.911039 
L 578.786042 -293.384964 
L 589.818956 -281.106197 
L 600.851871 -295.326976 
L 611.884786 -289.798956 
L 622.9177 -268.954977 
L 633.950615 -292.250744 
L 644.98353 -293.615119 
L 656.016444 -290.876148 
L 667.049359 -301.699172 
L 667.049359 -343.367211 
L 667.049359 -343.367211 
L 656.016444 -345.516988 
L 644.98353 -360.500182 
L 633.950615 -345.86486 
L 622.9177 -348.052171 
L 611.884786 -364.707773 
L 600.851871 -345.159899 
L 589.818956 -357.856968 
L 578.786042 -343.172101 
L 567.753127 -342.95237 
L 556.720212 -329.514855 
L 545.687298 -348.41777 
L 534.654383 -342.94726 
L 523.621468 -339.165845 
L 512.588554 -332.870299 
L 501.555639 -347.367428 
L 490.522724 -335.224997 
L 479.48981 -339.875525 
L 468.456895 -342.277848 
L 457.42398 -346.084813 
L 446.391065 -349.09809 
L 435.358151 -335.936312 
L 424.325236 -330.873712 
L 413.292321 -337.726863 
L 402.259407 -352.695403 
L 391.226492 -334.704797 
L 380.193577 -345.471611 
L 369.160663 -327.484337 
L 358.127748 -337.918182 
L 347.094833 -328.465461 
L 336.061919 -326.600304 
L 325.029004 -330.205656 
L 313.996089 -341.759283 
L 302.963175 -328.886936 
L 291.93026 -312.595372 
L 280.897345 -325.61407 
L 269.864431 -326.610728 
L 258.831516 -321.5236 
L 247.798601 -323.250378 
L 236.765687 -321.788504 
L 225.732772 -307.998806 
L 214.699857 -328.833383 
L 203.666943 -319.325882 
L 192.634028 -313.468572 
L 181.601113 -309.803665 
L 170.568199 -321.239892 
L 159.535284 -299.006805 
L 148.502369 -263.992329 
L 137.469454 -229.175304 
L 126.43654 -259.31155 
z
" style="stroke: #ffffff; stroke-opacity: 0.2"/>
    </defs>
    <g clip-path="url(#pe0908d3b92)">
     <use xlink:href="#m221499c7ba" x="0" y="576" style="fill: #4c72b0; fill-opacity: 0.2; stroke: #ffffff; stroke-opacity: 0.2"/>
    </g>
   </g>
   <g id="PolyCollection_2">
    <defs>
     <path id="m013155fe0e" d="M 126.43654 -322.794156 
L 126.43654 -282.792095 
L 137.469454 -278.211658 
L 148.502369 -270.941957 
L 159.535284 -284.130921 
L 170.568199 -270.963508 
L 181.601113 -280.076017 
L 192.634028 -272.300609 
L 203.666943 -285.157813 
L 214.699857 -278.566108 
L 225.732772 -283.809194 
L 236.765687 -293.337401 
L 247.798601 -294.382511 
L 258.831516 -310.804821 
L 269.864431 -314.034763 
L 280.897345 -302.45055 
L 291.93026 -305.492034 
L 302.963175 -302.184624 
L 313.996089 -310.227797 
L 325.029004 -302.031788 
L 336.061919 -291.049889 
L 347.094833 -318.468039 
L 358.127748 -312.565298 
L 369.160663 -315.114088 
L 380.193577 -318.073456 
L 391.226492 -294.375899 
L 402.259407 -310.96364 
L 413.292321 -304.938925 
L 424.325236 -314.011535 
L 435.358151 -317.422502 
L 446.391065 -318.585134 
L 457.42398 -318.056349 
L 468.456895 -312.538637 
L 479.48981 -317.579482 
L 490.522724 -317.569671 
L 501.555639 -314.864444 
L 512.588554 -315.288111 
L 523.621468 -330.30466 
L 534.654383 -318.955713 
L 545.687298 -329.995606 
L 556.720212 -317.494247 
L 567.753127 -329.11304 
L 578.786042 -339.782318 
L 589.818956 -322.665588 
L 600.851871 -322.653812 
L 611.884786 -323.897103 
L 622.9177 -326.973335 
L 633.950615 -329.514855 
L 644.98353 -323.023289 
L 656.016444 -313.939066 
L 667.049359 -330.603903 
L 667.049359 -385.178925 
L 667.049359 -385.178925 
L 656.016444 -372.762801 
L 644.98353 -390.644195 
L 633.950615 -377.19973 
L 622.9177 -376.520506 
L 611.884786 -371.614033 
L 600.851871 -368.640445 
L 589.818956 -368.12699 
L 578.786042 -373.144373 
L 567.753127 -383.858087 
L 556.720212 -372.247711 
L 545.687298 -367.598001 
L 534.654383 -383.398185 
L 523.621468 -378.247284 
L 512.588554 -366.140214 
L 501.555639 -372.326201 
L 490.522724 -369.146337 
L 479.48981 -367.993472 
L 468.456895 -368.803966 
L 457.42398 -361.715345 
L 446.391065 -363.475236 
L 435.358151 -360.796563 
L 424.325236 -365.97257 
L 413.292321 -366.164529 
L 402.259407 -371.060551 
L 391.226492 -365.654335 
L 380.193577 -369.074797 
L 369.160663 -363.932685 
L 358.127748 -358.973103 
L 347.094833 -360.985634 
L 336.061919 -344.112345 
L 325.029004 -357.505043 
L 313.996089 -348.363882 
L 302.963175 -352.523439 
L 291.93026 -345.159899 
L 280.897345 -351.293035 
L 269.864431 -354.337719 
L 258.831516 -345.532931 
L 247.798601 -340.688631 
L 236.765687 -345.783322 
L 225.732772 -354.385709 
L 214.699857 -323.922875 
L 203.666943 -330.172208 
L 192.634028 -322.750005 
L 181.601113 -330.790743 
L 170.568199 -322.251676 
L 159.535284 -335.585114 
L 148.502369 -328.674972 
L 137.469454 -327.208396 
L 126.43654 -322.794156 
z
" style="stroke: #ffffff; stroke-opacity: 0.2"/>
    </defs>
    <g clip-path="url(#pe0908d3b92)">
     <use xlink:href="#m013155fe0e" x="0" y="576" style="fill: #dd8452; fill-opacity: 0.2; stroke: #ffffff; stroke-opacity: 0.2"/>
    </g>
   </g>
   <g id="PolyCollection_3">
    <defs>
     <path id="m284838259f" d="M 126.43654 -208.144911 
L 126.43654 -100.432213 
L 137.469454 -267.582896 
L 148.502369 -300.626068 
L 159.535284 -306.32978 
L 170.568199 -321.318732 
L 181.601113 -352.998671 
L 192.634028 -362.48287 
L 203.666943 -381.838198 
L 214.699857 -380.756304 
L 225.732772 -378.865597 
L 236.765687 -398.263236 
L 247.798601 -403.908582 
L 258.831516 -404.124429 
L 269.864431 -416.761511 
L 280.897345 -423.404538 
L 291.93026 -411.472639 
L 302.963175 -432.822306 
L 313.996089 -425.988778 
L 325.029004 -437.078954 
L 336.061919 -430.732086 
L 347.094833 -411.937651 
L 358.127748 -429.42182 
L 369.160663 -446.244083 
L 380.193577 -438.831691 
L 391.226492 -444.232983 
L 402.259407 -447.017944 
L 413.292321 -443.05479 
L 424.325236 -449.6633 
L 435.358151 -454.554203 
L 446.391065 -422.883316 
L 457.42398 -447.936522 
L 468.456895 -439.945267 
L 479.48981 -423.378988 
L 490.522724 -439.889465 
L 501.555639 -444.139572 
L 512.588554 -450.428576 
L 523.621468 -449.457264 
L 534.654383 -464.277142 
L 545.687298 -461.005093 
L 556.720212 -461.952091 
L 567.753127 -460.283558 
L 578.786042 -471.235444 
L 589.818956 -459.98963 
L 600.851871 -447.799164 
L 611.884786 -449.30519 
L 622.9177 -470.428789 
L 633.950615 -463.446661 
L 644.98353 -468.321621 
L 656.016444 -462.479978 
L 667.049359 -470.166338 
L 667.049359 -500.693603 
L 667.049359 -500.693603 
L 656.016444 -505.895604 
L 644.98353 -502.49233 
L 633.950615 -501.981328 
L 622.9177 -505.098441 
L 611.884786 -497.249449 
L 600.851871 -495.486027 
L 589.818956 -494.382727 
L 578.786042 -495.766316 
L 567.753127 -500.427882 
L 556.720212 -503.340594 
L 545.687298 -494.827299 
L 534.654383 -492.62999 
L 523.621468 -490.25894 
L 512.588554 -493.357657 
L 501.555639 -496.119521 
L 490.522724 -495.51613 
L 479.48981 -495.07953 
L 468.456895 -483.646573 
L 457.42398 -494.995707 
L 446.391065 -483.516983 
L 435.358151 -483.830534 
L 424.325236 -485.762122 
L 413.292321 -485.521951 
L 402.259407 -486.293564 
L 391.226492 -481.161059 
L 380.193577 -472.984404 
L 369.160663 -476.017312 
L 358.127748 -472.440093 
L 347.094833 -477.218167 
L 336.061919 -469.614456 
L 325.029004 -464.218274 
L 313.996089 -473.872534 
L 302.963175 -463.011492 
L 291.93026 -455.153097 
L 280.897345 -464.770157 
L 269.864431 -450.717599 
L 258.831516 -458.414926 
L 247.798601 -438.6835 
L 236.765687 -440.990164 
L 225.732772 -437.973207 
L 214.699857 -426.38368 
L 203.666943 -419.503548 
L 192.634028 -430.470808 
L 181.601113 -408.876749 
L 170.568199 -383.511014 
L 159.535284 -369.166981 
L 148.502369 -346.983768 
L 137.469454 -326.498325 
L 126.43654 -208.144911 
z
" style="stroke: #ffffff; stroke-opacity: 0.2"/>
    </defs>
    <g clip-path="url(#pe0908d3b92)">
     <use xlink:href="#m284838259f" x="0" y="576" style="fill: #55a868; fill-opacity: 0.2; stroke: #ffffff; stroke-opacity: 0.2"/>
    </g>
   </g>
   <g id="line2d_14">
    <path d="M 126.43654 351.951069 
L 137.469454 377.1355 
L 148.502369 345.938912 
L 159.535284 315.56118 
L 170.568199 299.119994 
L 181.601113 285.261618 
L 192.634028 291.561354 
L 203.666943 290.693774 
L 214.699857 283.363143 
L 225.732772 282.825978 
L 236.765687 281.351839 
L 247.798601 284.748981 
L 258.831516 272.541345 
L 269.864431 274.858229 
L 280.897345 269.919291 
L 291.93026 284.803862 
L 302.963175 275.317926 
L 313.996089 274.373186 
L 325.029004 277.643803 
L 336.061919 274.719441 
L 347.094833 271.182489 
L 358.127748 275.028801 
L 369.160663 273.088322 
L 380.193577 273.005437 
L 391.226492 263.728399 
L 402.259407 266.275269 
L 413.292321 265.549917 
L 424.325236 270.035391 
L 435.358151 264.246862 
L 446.391065 258.965655 
L 457.42398 265.477048 
L 468.456895 265.058742 
L 479.48981 262.109238 
L 490.522724 269.631157 
L 501.555639 264.91172 
L 512.588554 263.632739 
L 523.621468 258.176157 
L 534.654383 260.968028 
L 545.687298 255.880122 
L 556.720212 265.6931 
L 567.753127 261.271808 
L 578.786042 254.353759 
L 589.818956 258.84753 
L 600.851871 257.246689 
L 611.884786 252.642338 
L 622.9177 261.464455 
L 633.950615 255.833212 
L 644.98353 249.968339 
L 656.016444 250.448886 
L 667.049359 251.919936 
" clip-path="url(#pe0908d3b92)" style="fill: none; stroke: #4c72b0; stroke-width: 1.5; stroke-linecap: round"/>
   </g>
   <g id="line2d_15">
    <path d="M 126.43654 276.109775 
L 137.469454 279.966174 
L 148.502369 278.811261 
L 159.535284 271.338957 
L 170.568199 273.591031 
L 181.601113 266.304054 
L 192.634028 277.125434 
L 203.666943 266.014818 
L 214.699857 269.416465 
L 225.732772 262.001621 
L 236.765687 255.898754 
L 247.798601 250.666981 
L 258.831516 246.58571 
L 269.864431 250.735865 
L 280.897345 247.404546 
L 291.93026 248.333542 
L 302.963175 248.205951 
L 313.996089 248.064648 
L 325.029004 251.706871 
L 336.061919 246.732265 
L 347.094833 240.927282 
L 358.127748 243.668808 
L 369.160663 237.627319 
L 380.193577 238.386955 
L 391.226492 238.889201 
L 402.259407 236.515801 
L 413.292321 237.981253 
L 424.325236 240.095686 
L 435.358151 240.537861 
L 446.391065 232.727809 
L 457.42398 235.166755 
L 468.456895 239.647045 
L 479.48981 230.521724 
L 490.522724 232.888108 
L 501.555639 226.739309 
L 512.588554 235.350138 
L 523.621468 229.575686 
L 534.654383 225.741508 
L 545.687298 224.819385 
L 556.720212 229.645582 
L 567.753127 228.83464 
L 578.786042 218.118295 
L 589.818956 221.589346 
L 600.851871 229.19774 
L 611.884786 225.232519 
L 622.9177 219.088679 
L 633.950615 222.985999 
L 644.98353 220.766686 
L 656.016444 229.049503 
L 667.049359 225.957476 
" clip-path="url(#pe0908d3b92)" style="fill: none; stroke: #dd8452; stroke-width: 1.5; stroke-linecap: round"/>
   </g>
   <g id="line2d_16">
    <path d="M 126.43654 428.091237 
L 137.469454 276.47703 
L 148.502369 253.529309 
L 159.535284 236.922492 
L 170.568199 216.89189 
L 181.601113 199.297636 
L 192.634028 186.121491 
L 203.666943 172.961642 
L 214.699857 164.851847 
L 225.732772 160.779058 
L 236.765687 154.585202 
L 247.798601 153.107522 
L 258.831516 144.849337 
L 269.864431 142.775433 
L 280.897345 134.825022 
L 291.93026 133.60267 
L 302.963175 128.392053 
L 313.996089 125.346276 
L 325.029004 125.922175 
L 336.061919 122.515018 
L 347.094833 121.324485 
L 358.127748 119.884379 
L 369.160663 118.825276 
L 380.193577 111.737575 
L 391.226492 117.274998 
L 402.259407 115.073731 
L 413.292321 109.242747 
L 424.325236 109.818586 
L 435.358151 108.989099 
L 446.391065 102.712105 
L 457.42398 108.394293 
L 468.456895 102.253092 
L 479.48981 102.479817 
L 490.522724 107.210348 
L 501.555639 100.862708 
L 512.588554 102.550095 
L 523.621468 99.351205 
L 534.654383 99.686362 
L 545.687298 98.080329 
L 556.720212 96.085972 
L 567.753127 93.814893 
L 578.786042 95.85368 
L 589.818956 92.353427 
L 600.851871 93.707582 
L 611.884786 89.272288 
L 622.9177 88.615446 
L 633.950615 89.900208 
L 644.98353 88.358883 
L 656.016444 86.854156 
L 667.049359 86.732404 
" clip-path="url(#pe0908d3b92)" style="fill: none; stroke: #55a868; stroke-width: 1.5; stroke-linecap: round"/>
   </g>
   <g id="patch_3">
    <path d="M 99.405899 495.840956 
L 99.405899 49.831226 
" style="fill: none; stroke: #cccccc; stroke-width: 1.25; stroke-linejoin: miter; stroke-linecap: square"/>
   </g>
   <g id="patch_4">
    <path d="M 694.08 495.840956 
L 694.08 49.831226 
" style="fill: none; stroke: #cccccc; stroke-width: 1.25; stroke-linejoin: miter; stroke-linecap: square"/>
   </g>
   <g id="patch_5">
    <path d="M 99.405899 495.840956 
L 694.08 495.840956 
" style="fill: none; stroke: #cccccc; stroke-width: 1.25; stroke-linejoin: miter; stroke-linecap: square"/>
   </g>
   <g id="patch_6">
    <path d="M 99.405899 49.831226 
L 694.08 49.831226 
" style="fill: none; stroke: #cccccc; stroke-width: 1.25; stroke-linejoin: miter; stroke-linecap: square"/>
   </g>
   <g id="text_16">
    <!-- Structural Similarity Index Measure (SSIM) vs Epoch -->
    <g style="fill: #262626" transform="translate(146.953357 43.831226) scale(0.24 -0.24)">
     <defs>
      <path id="CMSS17-76" d="M 2675 2752 
L 2176 2752 
L 1747 1556 
C 1613 1165 1421 627 1389 352 
L 1382 352 
C 1370 468 1318 634 1286 749 
C 1248 890 1197 1056 1158 1172 
L 595 2752 
L 83 2752 
L 1094 0 
L 1664 0 
L 2675 2752 
z
" transform="scale(0.015625)"/>
     </defs>
     <use xlink:href="#CMSS17-53" transform="scale(0.996264)"/>
     <use xlink:href="#CMSS17-74" transform="translate(52.048516 0) scale(0.996264)"/>
     <use xlink:href="#CMSS17-72" transform="translate(85.880083 0) scale(0.996264)"/>
     <use xlink:href="#CMSS17-75" transform="translate(117.789855 0) scale(0.996264)"/>
     <use xlink:href="#CMSS17-63" transform="translate(165.994799 0) scale(0.996264)"/>
     <use xlink:href="#CMSS17-74" transform="translate(207.633621 0) scale(0.996264)"/>
     <use xlink:href="#CMSS17-75" transform="translate(241.465187 0) scale(0.996264)"/>
     <use xlink:href="#CMSS17-72" transform="translate(289.67013 0) scale(0.996264)"/>
     <use xlink:href="#CMSS17-61" transform="translate(321.579903 0) scale(0.996264)"/>
     <use xlink:href="#CMSS17-6c" transform="translate(366.501824 0) scale(0.996264)"/>
     <use xlink:href="#CMSS17-53" transform="translate(419.911659 0) scale(0.996264)"/>
     <use xlink:href="#CMSS17-69" transform="translate(471.960176 0) scale(0.996264)"/>
     <use xlink:href="#CMSS17-6d" transform="translate(494.140899 0) scale(0.996264)"/>
     <use xlink:href="#CMSS17-69" transform="translate(568.370153 0) scale(0.996264)"/>
     <use xlink:href="#CMSS17-6c" transform="translate(590.550876 0) scale(0.996264)"/>
     <use xlink:href="#CMSS17-61" transform="translate(612.731599 0) scale(0.996264)"/>
     <use xlink:href="#CMSS17-72" transform="translate(655.051066 0) scale(0.996264)"/>
     <use xlink:href="#CMSS17-69" transform="translate(686.960838 0) scale(0.996264)"/>
     <use xlink:href="#CMSS17-74" transform="translate(709.141561 0) scale(0.996264)"/>
     <use xlink:href="#CMSS17-79" transform="translate(740.370674 0) scale(0.996264)"/>
     <use xlink:href="#CMSS17-49" transform="translate(814.599929 0) scale(0.996264)"/>
     <use xlink:href="#CMSS17-6e" transform="translate(840.383854 0) scale(0.996264)"/>
     <use xlink:href="#CMSS17-64" transform="translate(888.588797 0) scale(0.996264)"/>
     <use xlink:href="#CMSS17-65" transform="translate(936.79374 0) scale(0.996264)"/>
     <use xlink:href="#CMSS17-78" transform="translate(978.432562 0) scale(0.996264)"/>
     <use xlink:href="#CMSS17-4d" transform="translate(1052.661817 0) scale(0.996264)"/>
     <use xlink:href="#CMSS17-65" transform="translate(1134.337847 0) scale(0.996264)"/>
     <use xlink:href="#CMSS17-61" transform="translate(1175.976669 0) scale(0.996264)"/>
     <use xlink:href="#CMSS17-73" transform="translate(1220.89859 0) scale(0.996264)"/>
     <use xlink:href="#CMSS17-75" transform="translate(1256.812132 0) scale(0.996264)"/>
     <use xlink:href="#CMSS17-72" transform="translate(1305.017075 0) scale(0.996264)"/>
     <use xlink:href="#CMSS17-65" transform="translate(1336.926847 0) scale(0.996264)"/>
     <use xlink:href="#CMSS17-28" transform="translate(1409.794782 0) scale(0.996264)"/>
     <use xlink:href="#CMSS17-53" transform="translate(1446.228696 0) scale(0.996264)"/>
     <use xlink:href="#CMSS17-53" transform="translate(1498.277212 0) scale(0.996264)"/>
     <use xlink:href="#CMSS17-49" transform="translate(1550.325729 0) scale(0.996264)"/>
     <use xlink:href="#CMSS17-4d" transform="translate(1576.109654 0) scale(0.996264)"/>
     <use xlink:href="#CMSS17-29" transform="translate(1657.785684 0) scale(0.996264)"/>
     <use xlink:href="#CMSS17-76" transform="translate(1725.448711 0) scale(0.996264)"/>
     <use xlink:href="#CMSS17-73" transform="translate(1768.448853 0) scale(0.996264)"/>
     <use xlink:href="#CMSS17-45" transform="translate(1835.591507 0) scale(0.996264)"/>
     <use xlink:href="#CMSS17-70" transform="translate(1891.483521 0) scale(0.996264)"/>
     <use xlink:href="#CMSS17-6f" transform="translate(1942.290903 0) scale(0.996264)"/>
     <use xlink:href="#CMSS17-63" transform="translate(1991.736965 0) scale(0.996264)"/>
     <use xlink:href="#CMSS17-68" transform="translate(2033.375787 0) scale(0.996264)"/>
    </g>
   </g>
   <g id="legend_1">
    <g id="patch_7">
     <path d="M 555.985747 484.840956 
L 678.68 484.840956 
Q 683.08 484.840956 683.08 480.440956 
L 683.08 358.39623 
Q 683.08 353.99623 678.68 353.99623 
L 555.985747 353.99623 
Q 551.585747 353.99623 551.585747 358.39623 
L 551.585747 480.440956 
Q 551.585747 484.840956 555.985747 484.840956 
z
" style="fill: #ffffff; opacity: 0.8; stroke: #cccccc; stroke-linejoin: miter"/>
    </g>
    <g id="text_17">
     <!-- Model -->
     <g style="fill: #262626" transform="translate(588.155294 379.400635) scale(0.24 -0.24)">
      <use xlink:href="#CMSS17-4d" transform="scale(0.996264)"/>
      <use xlink:href="#CMSS17-6f" transform="translate(81.67603 0) scale(0.996264)"/>
      <use xlink:href="#CMSS17-64" transform="translate(131.122092 0) scale(0.996264)"/>
      <use xlink:href="#CMSS17-65" transform="translate(179.327035 0) scale(0.996264)"/>
      <use xlink:href="#CMSS17-6c" transform="translate(220.965857 0) scale(0.996264)"/>
     </g>
    </g>
    <g id="line2d_17">
     <path d="M 560.385747 402.751393 
L 582.385747 402.751393 
L 604.385747 402.751393 
" style="fill: none; stroke: #4c72b0; stroke-width: 1.5; stroke-linecap: round"/>
    </g>
    <g id="text_18">
     <!-- CAE -->
     <g style="fill: #262626" transform="translate(621.985747 410.451393) scale(0.22 -0.22)">
      <defs>
       <path id="CMSS17-43" d="M 3501 714 
C 3072 427 2874 344 2355 344 
C 1459 344 934 1303 934 2179 
C 934 3112 1472 4032 2381 4032 
C 2790 4032 3059 3918 3386 3715 
L 3475 4217 
C 3168 4370 2778 4440 2387 4440 
C 1158 4440 397 3316 397 2179 
C 397 927 1299 -64 2323 -64 
C 2874 -64 3066 -19 3539 280 
L 3501 714 
z
" transform="scale(0.015625)"/>
       <path id="CMSS17-41" d="M 2272 4416 
L 1722 4416 
L 166 0 
L 653 0 
L 1101 1280 
L 2816 1280 
L 3270 0 
L 3827 0 
L 2272 4416 
z
M 2694 1637 
L 1222 1637 
C 1530 2528 1914 3638 1958 3925 
L 1965 3925 
C 2010 3663 2138 3281 2246 2956 
L 2694 1637 
z
" transform="scale(0.015625)"/>
      </defs>
      <use xlink:href="#CMSS17-43" transform="scale(0.996264)"/>
      <use xlink:href="#CMSS17-41" transform="translate(59.855772 0) scale(0.996264)"/>
      <use xlink:href="#CMSS17-45" transform="translate(122.073626 0) scale(0.996264)"/>
     </g>
    </g>
    <g id="line2d_18">
     <path d="M 560.385747 433.414581 
L 582.385747 433.414581 
L 604.385747 433.414581 
" style="fill: none; stroke: #dd8452; stroke-width: 1.5; stroke-linecap: round"/>
    </g>
    <g id="text_19">
     <!-- PCAE -->
     <g style="fill: #262626" transform="translate(621.985747 441.114581) scale(0.22 -0.22)">
      <defs>
       <path id="CMSS17-50" d="M 2106 1856 
C 2874 1856 3501 2453 3501 3158 
C 3501 3850 2899 4453 2067 4453 
L 570 4453 
L 570 0 
L 1107 0 
L 1107 1856 
L 2106 1856 
z
M 1926 4096 
C 2669 4096 2995 3627 2995 3157 
C 2995 2720 2694 2226 1926 2226 
L 1094 2226 
L 1094 4096 
L 1926 4096 
z
" transform="scale(0.015625)"/>
      </defs>
      <use xlink:href="#CMSS17-50" transform="scale(0.996264)"/>
      <use xlink:href="#CMSS17-43" transform="translate(59.735586 0) scale(0.996264)"/>
      <use xlink:href="#CMSS17-41" transform="translate(119.591358 0) scale(0.996264)"/>
      <use xlink:href="#CMSS17-45" transform="translate(181.809213 0) scale(0.996264)"/>
     </g>
    </g>
    <g id="line2d_19">
     <path d="M 560.385747 464.077768 
L 582.385747 464.077768 
L 604.385747 464.077768 
" style="fill: none; stroke: #55a868; stroke-width: 1.5; stroke-linecap: round"/>
    </g>
    <g id="text_20">
     <!-- GAN -->
     <g style="fill: #262626" transform="translate(621.985747 471.777768) scale(0.22 -0.22)">
      <defs>
       <path id="CMSS17-47" d="M 3610 1856 
L 2336 1856 
L 2336 1461 
L 3123 1461 
L 3123 471 
C 2874 401 2618 350 2362 350 
C 1466 350 934 1301 934 2200 
C 934 3095 1491 4032 2362 4032 
C 2854 4032 3130 3881 3469 3627 
L 3552 4134 
C 3130 4351 2867 4440 2387 4440 
C 1146 4440 397 3324 397 2182 
C 397 1090 1152 -64 2349 -64 
C 2797 -64 3213 51 3610 248 
L 3610 1856 
z
" transform="scale(0.015625)"/>
       <path id="CMSS17-4e" d="M 1466 4180 
L 1350 4416 
L 563 4416 
L 563 0 
L 1062 0 
L 1062 3926 
L 1069 3932 
C 1114 3817 1139 3760 1402 3194 
L 2771 236 
L 2886 0 
L 3674 0 
L 3674 4416 
L 3174 4416 
L 3174 490 
L 3168 483 
C 3123 598 3098 655 2835 1221 
L 1466 4180 
z
" transform="scale(0.015625)"/>
      </defs>
      <use xlink:href="#CMSS17-47" transform="scale(0.996264)"/>
      <use xlink:href="#CMSS17-41" transform="translate(62.458226 0) scale(0.996264)"/>
      <use xlink:href="#CMSS17-4e" transform="translate(124.67608 0) scale(0.996264)"/>
     </g>
    </g>
   </g>
  </g>
 </g>
 <defs>
  <clipPath id="pe0908d3b92">
   <rect x="99.405899" y="49.831226" width="594.674101" height="446.00973"/>
  </clipPath>
 </defs>
</svg>
