<?xml version="1.0" encoding="utf-8" standalone="no"?>
<!DOCTYPE svg PUBLIC "-//W3C//DTD SVG 1.1//EN"
  "http://www.w3.org/Graphics/SVG/1.1/DTD/svg11.dtd">
<svg xmlns:xlink="http://www.w3.org/1999/xlink" width="720pt" height="576pt" viewBox="0 0 720 576" xmlns="http://www.w3.org/2000/svg" version="1.1">
 <metadata>
  <rdf:RDF xmlns:dc="http://purl.org/dc/elements/1.1/" xmlns:cc="http://creativecommons.org/ns#" xmlns:rdf="http://www.w3.org/1999/02/22-rdf-syntax-ns#">
   <cc:Work>
    <dc:type rdf:resource="http://purl.org/dc/dcmitype/StillImage"/>
    <dc:date>2025-04-25T12:17:55.465878</dc:date>
    <dc:format>image/svg+xml</dc:format>
    <dc:creator>
     <cc:Agent>
      <dc:title>Matplotlib v3.9.2, https://matplotlib.org/</dc:title>
     </cc:Agent>
    </dc:creator>
   </cc:Work>
  </rdf:RDF>
 </metadata>
 <defs>
  <style type="text/css">*{stroke-linejoin: round; stroke-linecap: butt}</style>
 </defs>
 <g id="figure_1">
  <g id="patch_1">
   <path d="M 0 576 
L 720 576 
L 720 0 
L 0 0 
z
" style="fill: #ffffff"/>
  </g>
  <g id="axes_1">
   <g id="patch_2">
    <path d="M 80.050789 501.932207 
L 698.4 501.932207 
L 698.4 21.6 
L 80.050789 21.6 
z
" style="fill: #ffffff"/>
   </g>
   <g id="matplotlib.axis_1">
    <g id="xtick_1">
     <g id="line2d_1">
      <path d="M 96.685415 501.932207 
L 96.685415 21.6 
" clip-path="url(#p75b656c069)" style="fill: none; stroke: #cccccc; stroke-linecap: round"/>
     </g>
     <g id="text_1">
      <!-- $\mathdefault{0}$ -->
      <g style="fill: #262626" transform="translate(92.116367 525.269204) scale(0.2 -0.2)">
       <defs>
        <path id="CMR17-30" d="M 2688 2025 
C 2688 2416 2682 3080 2413 3591 
C 2176 4039 1798 4198 1466 4198 
C 1158 4198 768 4058 525 3597 
C 269 3118 243 2524 243 2025 
C 243 1661 250 1106 448 619 
C 723 -39 1216 -128 1466 -128 
C 1760 -128 2208 -7 2470 600 
C 2662 1042 2688 1559 2688 2025 
z
M 1466 -26 
C 1056 -26 813 325 723 812 
C 653 1188 653 1738 653 2096 
C 653 2588 653 2997 736 3387 
C 858 3929 1216 4096 1466 4096 
C 1728 4096 2067 3923 2189 3400 
C 2272 3036 2278 2607 2278 2096 
C 2278 1680 2278 1169 2202 792 
C 2067 95 1690 -26 1466 -26 
z
" transform="scale(0.015625)"/>
       </defs>
       <use xlink:href="#CMR17-30" transform="scale(0.996264)"/>
      </g>
     </g>
    </g>
    <g id="xtick_2">
     <g id="line2d_2">
      <path d="M 211.406976 501.932207 
L 211.406976 21.6 
" clip-path="url(#p75b656c069)" style="fill: none; stroke: #cccccc; stroke-linecap: round"/>
     </g>
     <g id="text_2">
      <!-- $\mathdefault{10}$ -->
      <g style="fill: #262626" transform="translate(202.26888 525.269204) scale(0.2 -0.2)">
       <defs>
        <path id="CMR17-31" d="M 1702 4058 
C 1702 4192 1696 4192 1606 4192 
C 1357 3916 979 3827 621 3827 
C 602 3827 570 3827 563 3808 
C 557 3795 557 3782 557 3648 
C 755 3648 1088 3686 1344 3839 
L 1344 461 
C 1344 236 1331 160 781 160 
L 589 160 
L 589 0 
C 896 0 1216 0 1523 0 
C 1830 0 2150 0 2458 0 
L 2458 160 
L 2266 160 
C 1715 160 1702 230 1702 458 
L 1702 4058 
z
" transform="scale(0.015625)"/>
       </defs>
       <use xlink:href="#CMR17-31" transform="scale(0.996264)"/>
       <use xlink:href="#CMR17-30" transform="translate(45.690477 0) scale(0.996264)"/>
      </g>
     </g>
    </g>
    <g id="xtick_3">
     <g id="line2d_3">
      <path d="M 326.128536 501.932207 
L 326.128536 21.6 
" clip-path="url(#p75b656c069)" style="fill: none; stroke: #cccccc; stroke-linecap: round"/>
     </g>
     <g id="text_3">
      <!-- $\mathdefault{20}$ -->
      <g style="fill: #262626" transform="translate(316.990441 525.269204) scale(0.2 -0.2)">
       <defs>
        <path id="CMR17-32" d="M 2669 989 
L 2554 989 
C 2490 536 2438 459 2413 420 
C 2381 369 1920 369 1830 369 
L 602 369 
C 832 619 1280 1072 1824 1597 
C 2214 1967 2669 2402 2669 3035 
C 2669 3790 2067 4224 1395 4224 
C 691 4224 262 3604 262 3030 
C 262 2780 448 2748 525 2748 
C 589 2748 781 2787 781 3010 
C 781 3207 614 3264 525 3264 
C 486 3264 448 3258 422 3245 
C 544 3790 915 4058 1306 4058 
C 1862 4058 2227 3617 2227 3035 
C 2227 2479 1901 2000 1536 1584 
L 262 146 
L 262 0 
L 2515 0 
L 2669 989 
z
" transform="scale(0.015625)"/>
       </defs>
       <use xlink:href="#CMR17-32" transform="scale(0.996264)"/>
       <use xlink:href="#CMR17-30" transform="translate(45.690477 0) scale(0.996264)"/>
      </g>
     </g>
    </g>
    <g id="xtick_4">
     <g id="line2d_4">
      <path d="M 440.850097 501.932207 
L 440.850097 21.6 
" clip-path="url(#p75b656c069)" style="fill: none; stroke: #cccccc; stroke-linecap: round"/>
     </g>
     <g id="text_4">
      <!-- $\mathdefault{30}$ -->
      <g style="fill: #262626" transform="translate(431.712001 525.269204) scale(0.2 -0.2)">
       <defs>
        <path id="CMR17-33" d="M 1414 2157 
C 1984 2157 2234 1662 2234 1090 
C 2234 320 1824 25 1453 25 
C 1114 25 563 194 390 693 
C 422 680 454 680 486 680 
C 640 680 755 782 755 948 
C 755 1133 614 1216 486 1216 
C 378 1216 211 1165 211 926 
C 211 335 787 -128 1466 -128 
C 2176 -128 2720 430 2720 1085 
C 2720 1707 2208 2157 1600 2227 
C 2086 2328 2554 2756 2554 3329 
C 2554 3820 2048 4179 1472 4179 
C 890 4179 378 3829 378 3329 
C 378 3110 544 3072 627 3072 
C 762 3072 877 3155 877 3321 
C 877 3486 762 3569 627 3569 
C 602 3569 570 3569 544 3557 
C 730 3959 1235 4032 1459 4032 
C 1683 4032 2106 3925 2106 3320 
C 2106 3143 2080 2828 1862 2550 
C 1670 2304 1453 2304 1242 2284 
C 1210 2284 1062 2269 1037 2269 
C 992 2263 966 2257 966 2208 
C 966 2163 973 2157 1101 2157 
L 1414 2157 
z
" transform="scale(0.015625)"/>
       </defs>
       <use xlink:href="#CMR17-33" transform="scale(0.996264)"/>
       <use xlink:href="#CMR17-30" transform="translate(45.690477 0) scale(0.996264)"/>
      </g>
     </g>
    </g>
    <g id="xtick_5">
     <g id="line2d_5">
      <path d="M 555.571657 501.932207 
L 555.571657 21.6 
" clip-path="url(#p75b656c069)" style="fill: none; stroke: #cccccc; stroke-linecap: round"/>
     </g>
     <g id="text_5">
      <!-- $\mathdefault{40}$ -->
      <g style="fill: #262626" transform="translate(546.433562 525.269204) scale(0.2 -0.2)">
       <defs>
        <path id="CMR17-34" d="M 2150 4122 
C 2150 4256 2144 4256 2029 4256 
L 128 1254 
L 128 1088 
L 1779 1088 
L 1779 457 
C 1779 224 1766 160 1318 160 
L 1197 160 
L 1197 0 
C 1402 0 1747 0 1965 0 
C 2182 0 2528 0 2733 0 
L 2733 160 
L 2611 160 
C 2163 160 2150 224 2150 457 
L 2150 1088 
L 2803 1088 
L 2803 1254 
L 2150 1254 
L 2150 4122 
z
M 1798 3703 
L 1798 1254 
L 256 1254 
L 1798 3703 
z
" transform="scale(0.015625)"/>
       </defs>
       <use xlink:href="#CMR17-34" transform="scale(0.996264)"/>
       <use xlink:href="#CMR17-30" transform="translate(45.690477 0) scale(0.996264)"/>
      </g>
     </g>
    </g>
    <g id="xtick_6">
     <g id="line2d_6">
      <path d="M 670.293218 501.932207 
L 670.293218 21.6 
" clip-path="url(#p75b656c069)" style="fill: none; stroke: #cccccc; stroke-linecap: round"/>
     </g>
     <g id="text_6">
      <!-- $\mathdefault{50}$ -->
      <g style="fill: #262626" transform="translate(661.155122 525.269204) scale(0.2 -0.2)">
       <defs>
        <path id="CMR17-35" d="M 730 3692 
C 794 3666 1056 3584 1325 3584 
C 1920 3584 2246 3911 2432 4100 
C 2432 4157 2432 4192 2394 4192 
C 2387 4192 2374 4192 2323 4163 
C 2099 4058 1837 3973 1517 3973 
C 1325 3973 1037 3999 723 4139 
C 653 4171 640 4171 634 4171 
C 602 4171 595 4164 595 4037 
L 595 2203 
C 595 2089 595 2057 659 2057 
C 691 2057 704 2070 736 2114 
C 941 2401 1222 2522 1542 2522 
C 1766 2522 2246 2382 2246 1289 
C 2246 1085 2246 715 2054 421 
C 1894 159 1645 25 1370 25 
C 947 25 518 320 403 814 
C 429 807 480 795 506 795 
C 589 795 749 840 749 1038 
C 749 1210 627 1280 506 1280 
C 358 1280 262 1190 262 1011 
C 262 454 704 -128 1382 -128 
C 2042 -128 2669 440 2669 1264 
C 2669 2030 2170 2624 1549 2624 
C 1222 2624 947 2503 730 2274 
L 730 3692 
z
" transform="scale(0.015625)"/>
       </defs>
       <use xlink:href="#CMR17-35" transform="scale(0.996264)"/>
       <use xlink:href="#CMR17-30" transform="translate(45.690477 0) scale(0.996264)"/>
      </g>
     </g>
    </g>
    <g id="text_7">
     <!-- Epoch -->
     <g style="fill: #262626" transform="translate(358.84673 549.749243) scale(0.24 -0.24)">
      <defs>
       <path id="CMR17-45" d="M 3885 1615 
L 3770 1615 
C 3629 676 3546 166 2419 166 
L 1530 166 
C 1274 166 1261 197 1261 414 
L 1261 2176 
L 1862 2176 
C 2464 2176 2522 1960 2522 1430 
L 2637 1430 
L 2637 3081 
L 2522 3081 
C 2522 2557 2464 2342 1862 2342 
L 1261 2342 
L 1261 3913 
C 1261 4128 1274 4160 1530 4160 
L 2406 4160 
C 3398 4160 3514 3769 3603 2929 
L 3718 2929 
L 3565 4325 
L 326 4325 
L 326 4160 
C 768 4160 838 4160 838 3874 
L 838 451 
C 838 166 768 166 326 166 
L 326 0 
L 3654 0 
L 3885 1615 
z
" transform="scale(0.015625)"/>
       <path id="CMR17-70" d="M 1408 -1063 
C 998 -1063 973 -1037 973 -789 
L 973 402 
C 1158 134 1427 -38 1766 -38 
C 2406 -38 3053 523 3053 1388 
C 3053 2191 2496 2802 1837 2802 
C 1453 2802 1139 2592 960 2338 
L 960 2802 
L 198 2732 
L 198 2567 
C 576 2567 634 2528 634 2223 
L 634 -789 
C 634 -1031 608 -1063 198 -1063 
L 198 -1228 
C 352 -1216 634 -1216 800 -1216 
C 966 -1216 1254 -1216 1408 -1228 
L 1408 -1063 
z
M 973 2012 
C 973 2102 973 2235 1222 2471 
C 1254 2497 1472 2688 1792 2688 
C 2259 2688 2643 2108 2643 1382 
C 2643 656 2234 64 1728 64 
C 1498 64 1248 172 1056 472 
C 973 612 973 650 973 752 
L 973 2012 
z
" transform="scale(0.015625)"/>
       <path id="CMR17-6f" d="M 2758 1356 
C 2758 2176 2163 2816 1466 2816 
C 768 2816 173 2176 173 1356 
C 173 551 768 -64 1466 -64 
C 2163 -64 2758 551 2758 1356 
z
M 1466 51 
C 1165 51 909 230 762 480 
C 602 767 582 1126 582 1408 
C 582 1677 595 2010 762 2298 
C 890 2509 1139 2714 1466 2714 
C 1754 2714 1997 2554 2150 2330 
C 2349 2029 2349 1607 2349 1408 
C 2349 1158 2336 775 2163 467 
C 1984 173 1709 51 1466 51 
z
" transform="scale(0.015625)"/>
       <path id="CMR17-63" d="M 2234 2240 
C 2112 2240 1933 2240 1933 2017 
C 1933 1838 2080 1787 2163 1787 
C 2208 1787 2394 1807 2394 2024 
C 2394 2467 1958 2803 1466 2803 
C 787 2803 211 2178 211 1363 
C 211 516 813 -64 1466 -64 
C 2259 -64 2458 677 2458 748 
C 2458 774 2451 793 2406 793 
C 2362 793 2355 787 2330 703 
C 2163 180 1798 51 1523 51 
C 1114 51 621 427 621 1369 
C 621 2338 1094 2688 1472 2688 
C 1722 2688 2093 2573 2234 2240 
z
" transform="scale(0.015625)"/>
       <path id="CMR17-68" d="M 2656 1933 
C 2656 2259 2592 2790 1837 2790 
C 1312 2790 1056 2368 979 2157 
L 973 2157 
L 973 4396 
L 211 4326 
L 211 4160 
C 589 4160 646 4122 646 3817 
L 646 426 
C 646 184 621 153 211 153 
L 211 -13 
C 365 0 646 0 813 0 
C 979 0 1267 0 1421 -13 
L 1421 153 
C 1011 153 986 178 986 428 
L 986 1658 
C 986 2247 1344 2688 1792 2688 
C 2266 2688 2317 2266 2317 1958 
L 2317 428 
C 2317 184 2291 153 1882 153 
L 1882 -13 
C 2035 0 2317 0 2483 0 
C 2650 0 2938 0 3091 -13 
L 3091 153 
C 2682 153 2656 178 2656 428 
L 2656 1933 
z
" transform="scale(0.015625)"/>
      </defs>
      <use xlink:href="#CMR17-45" transform="scale(0.996264)"/>
      <use xlink:href="#CMR17-70" transform="translate(62.586301 0) scale(0.996264)"/>
      <use xlink:href="#CMR17-6f" transform="translate(116.084109 0) scale(0.996264)"/>
      <use xlink:href="#CMR17-63" transform="translate(164.377025 0) scale(0.996264)"/>
      <use xlink:href="#CMR17-68" transform="translate(202.260231 0) scale(0.996264)"/>
     </g>
    </g>
   </g>
   <g id="matplotlib.axis_2">
    <g id="ytick_1">
     <g id="line2d_7">
      <path d="M 80.050789 500.595307 
L 698.4 500.595307 
" clip-path="url(#p75b656c069)" style="fill: none; stroke: #cccccc; stroke-linecap: round"/>
     </g>
     <g id="text_8">
      <!-- $\mathdefault{0.0}$ -->
      <g style="fill: #262626" transform="translate(46.855163 507.513806) scale(0.2 -0.2)">
       <defs>
        <path id="CMMI12-3a" d="M 1178 307 
C 1178 492 1024 619 870 619 
C 685 619 557 466 557 313 
C 557 128 710 0 864 0 
C 1050 0 1178 153 1178 307 
z
" transform="scale(0.015625)"/>
       </defs>
       <use xlink:href="#CMR17-30" transform="scale(0.996264)"/>
       <use xlink:href="#CMMI12-3a" transform="translate(45.690477 0) scale(0.996264)"/>
       <use xlink:href="#CMR17-30" transform="translate(72.787654 0) scale(0.996264)"/>
      </g>
     </g>
    </g>
    <g id="ytick_2">
     <g id="line2d_8">
      <path d="M 80.050789 414.76456 
L 698.4 414.76456 
" clip-path="url(#p75b656c069)" style="fill: none; stroke: #cccccc; stroke-linecap: round"/>
     </g>
     <g id="text_9">
      <!-- $\mathdefault{0.1}$ -->
      <g style="fill: #262626" transform="translate(46.855163 421.683059) scale(0.2 -0.2)">
       <use xlink:href="#CMR17-30" transform="scale(0.996264)"/>
       <use xlink:href="#CMMI12-3a" transform="translate(45.690477 0) scale(0.996264)"/>
       <use xlink:href="#CMR17-31" transform="translate(72.787654 0) scale(0.996264)"/>
      </g>
     </g>
    </g>
    <g id="ytick_3">
     <g id="line2d_9">
      <path d="M 80.050789 328.933813 
L 698.4 328.933813 
" clip-path="url(#p75b656c069)" style="fill: none; stroke: #cccccc; stroke-linecap: round"/>
     </g>
     <g id="text_10">
      <!-- $\mathdefault{0.2}$ -->
      <g style="fill: #262626" transform="translate(46.855163 335.852311) scale(0.2 -0.2)">
       <use xlink:href="#CMR17-30" transform="scale(0.996264)"/>
       <use xlink:href="#CMMI12-3a" transform="translate(45.690477 0) scale(0.996264)"/>
       <use xlink:href="#CMR17-32" transform="translate(72.787654 0) scale(0.996264)"/>
      </g>
     </g>
    </g>
    <g id="ytick_4">
     <g id="line2d_10">
      <path d="M 80.050789 243.103066 
L 698.4 243.103066 
" clip-path="url(#p75b656c069)" style="fill: none; stroke: #cccccc; stroke-linecap: round"/>
     </g>
     <g id="text_11">
      <!-- $\mathdefault{0.3}$ -->
      <g style="fill: #262626" transform="translate(46.855163 250.021564) scale(0.2 -0.2)">
       <use xlink:href="#CMR17-30" transform="scale(0.996264)"/>
       <use xlink:href="#CMMI12-3a" transform="translate(45.690477 0) scale(0.996264)"/>
       <use xlink:href="#CMR17-33" transform="translate(72.787654 0) scale(0.996264)"/>
      </g>
     </g>
    </g>
    <g id="ytick_5">
     <g id="line2d_11">
      <path d="M 80.050789 157.272319 
L 698.4 157.272319 
" clip-path="url(#p75b656c069)" style="fill: none; stroke: #cccccc; stroke-linecap: round"/>
     </g>
     <g id="text_12">
      <!-- $\mathdefault{0.4}$ -->
      <g style="fill: #262626" transform="translate(46.855163 164.190817) scale(0.2 -0.2)">
       <use xlink:href="#CMR17-30" transform="scale(0.996264)"/>
       <use xlink:href="#CMMI12-3a" transform="translate(45.690477 0) scale(0.996264)"/>
       <use xlink:href="#CMR17-34" transform="translate(72.787654 0) scale(0.996264)"/>
      </g>
     </g>
    </g>
    <g id="ytick_6">
     <g id="line2d_12">
      <path d="M 80.050789 71.441572 
L 698.4 71.441572 
" clip-path="url(#p75b656c069)" style="fill: none; stroke: #cccccc; stroke-linecap: round"/>
     </g>
     <g id="text_13">
      <!-- $\mathdefault{0.5}$ -->
      <g style="fill: #262626" transform="translate(46.855163 78.36007) scale(0.2 -0.2)">
       <use xlink:href="#CMR17-30" transform="scale(0.996264)"/>
       <use xlink:href="#CMMI12-3a" transform="translate(45.690477 0) scale(0.996264)"/>
       <use xlink:href="#CMR17-35" transform="translate(72.787654 0) scale(0.996264)"/>
      </g>
     </g>
    </g>
    <g id="text_14">
     <!-- MSE -->
     <g style="fill: #262626" transform="translate(38.204405 285.546335) rotate(-90) scale(0.24 -0.24)">
      <defs>
       <path id="CMR17-4d" d="M 1338 4224 
C 1299 4320 1293 4320 1158 4320 
L 339 4320 
L 339 4160 
C 781 4160 851 4160 851 3875 
L 851 610 
C 851 451 851 153 339 153 
L 339 -13 
C 486 0 755 0 915 0 
C 1075 0 1344 0 1491 -13 
L 1491 153 
C 979 153 979 451 979 610 
L 979 4135 
L 986 4135 
L 2490 89 
C 2515 25 2528 -13 2579 -13 
C 2630 -13 2643 25 2669 89 
L 4186 4166 
L 4192 4166 
L 4192 438 
C 4192 153 4122 153 3680 153 
L 3680 -13 
C 3853 0 4198 0 4384 0 
C 4570 0 4922 0 5094 -13 
L 5094 153 
C 4653 153 4582 153 4582 438 
L 4582 3875 
C 4582 4160 4653 4160 5094 4160 
L 5094 4320 
L 4282 4320 
C 4147 4320 4141 4314 4102 4218 
L 2720 502 
L 1338 4224 
z
" transform="scale(0.015625)"/>
       <path id="CMR17-53" d="M 2803 4290 
C 2803 4404 2797 4411 2758 4411 
C 2720 4411 2707 4385 2682 4328 
L 2490 3907 
C 2246 4257 1875 4416 1472 4416 
C 819 4416 294 3901 294 3253 
C 294 3056 339 2776 557 2510 
C 794 2218 1018 2167 1530 2033 
C 1722 1982 2042 1899 2106 1874 
C 2470 1722 2662 1341 2662 985 
C 2662 527 2336 38 1779 38 
C 1094 38 454 419 410 1311 
C 403 1413 397 1419 352 1419 
C 301 1419 294 1413 294 1285 
L 294 -1 
C 294 -115 301 -122 339 -122 
C 384 -122 397 -90 486 108 
C 493 127 493 140 614 381 
C 934 -39 1472 -128 1779 -128 
C 2477 -128 2970 451 2970 1124 
C 2970 1454 2848 1708 2778 1823 
C 2509 2230 2221 2306 1914 2382 
C 1869 2402 1856 2402 1498 2490 
C 1152 2579 1005 2624 845 2796 
C 666 2992 602 3196 602 3399 
C 602 3812 934 4263 1478 4263 
C 2157 4263 2579 3786 2675 2993 
C 2694 2878 2701 2872 2746 2872 
C 2803 2872 2803 2891 2803 2999 
L 2803 4290 
z
" transform="scale(0.015625)"/>
      </defs>
      <use xlink:href="#CMR17-4d" transform="scale(0.996264)"/>
      <use xlink:href="#CMR17-53" transform="translate(84.686941 0) scale(0.996264)"/>
      <use xlink:href="#CMR17-45" transform="translate(135.58231 0) scale(0.996264)"/>
     </g>
    </g>
   </g>
   <g id="PolyCollection_1">
    <defs>
     <path id="m9794876c38" d="M 108.157571 -230.044233 
L 108.157571 -192.450366 
L 119.629727 -151.890188 
L 131.101883 -145.74814 
L 142.574039 -140.605161 
L 154.046195 -141.930388 
L 165.518351 -135.441584 
L 176.990507 -130.720893 
L 188.462663 -128.887548 
L 199.93482 -124.874102 
L 211.406976 -125.224291 
L 222.879132 -123.408113 
L 234.351288 -123.318849 
L 245.823444 -123.051057 
L 257.2956 -121.409973 
L 268.767756 -122.257981 
L 280.239912 -123.253618 
L 291.712068 -121.032318 
L 303.184224 -121.907791 
L 314.65638 -121.718964 
L 326.128536 -121.358475 
L 337.600692 -120.829757 
L 349.072848 -120.97052 
L 360.545004 -118.859083 
L 372.01716 -115.195827 
L 383.489316 -117.87718 
L 394.961472 -119.463332 
L 406.433628 -117.403394 
L 417.905785 -117.183667 
L 429.377941 -116.133099 
L 440.850097 -116.596585 
L 452.322253 -117.190534 
L 463.794409 -115.521984 
L 475.266565 -115.937405 
L 486.738721 -118.220503 
L 498.210877 -116.98454 
L 509.683033 -117.547589 
L 521.155189 -113.733271 
L 532.627345 -116.229229 
L 544.099501 -115.20956 
L 555.571657 -116.898709 
L 567.043813 -115.652447 
L 578.515969 -115.697079 
L 589.988125 -114.691142 
L 601.460281 -115.319423 
L 612.932437 -115.230159 
L 624.404593 -113.214853 
L 635.87675 -114.148692 
L 647.348906 -110.924889 
L 658.821062 -115.693645 
L 670.293218 -114.825038 
L 670.293218 -119.507964 
L 670.293218 -119.507964 
L 658.821062 -123.497377 
L 647.348906 -122.264847 
L 635.87675 -121.41684 
L 624.404593 -124.719607 
L 612.932437 -123.051057 
L 601.460281 -121.602234 
L 589.988125 -124.575411 
L 578.515969 -124.822604 
L 567.043813 -124.486147 
L 555.571657 -124.407183 
L 544.099501 -124.245821 
L 532.627345 -123.744569 
L 521.155189 -124.802004 
L 509.683033 -123.943697 
L 498.210877 -123.744569 
L 486.738721 -124.757372 
L 475.266565 -126.384723 
L 463.794409 -123.854433 
L 452.322253 -126.171863 
L 440.850097 -125.128161 
L 429.377941 -126.086032 
L 417.905785 -127.418125 
L 406.433628 -124.901568 
L 394.961472 -127.016437 
L 383.489316 -124.757372 
L 372.01716 -126.937473 
L 360.545004 -126.70058 
L 349.072848 -130.504599 
L 337.600692 -127.009571 
L 326.128536 -128.647222 
L 314.65638 -129.224004 
L 303.184224 -128.939046 
L 291.712068 -129.079809 
L 280.239912 -128.465261 
L 268.767756 -132.283012 
L 257.2956 -129.893484 
L 245.823444 -134.741205 
L 234.351288 -136.512751 
L 222.879132 -139.983747 
L 211.406976 -143.132019 
L 199.93482 -141.834258 
L 188.462663 -144.910432 
L 176.990507 -144.08989 
L 165.518351 -148.172 
L 154.046195 -148.120502 
L 142.574039 -151.794058 
L 131.101883 -153.328711 
L 119.629727 -161.506665 
L 108.157571 -230.044233 
z
" style="stroke: #ffffff; stroke-opacity: 0.2"/>
    </defs>
    <g clip-path="url(#p75b656c069)">
     <use xlink:href="#m9794876c38" x="0" y="576" style="fill: #4c72b0; fill-opacity: 0.2; stroke: #ffffff; stroke-opacity: 0.2"/>
    </g>
   </g>
   <g id="PolyCollection_2">
    <defs>
     <path id="me1259dae02" d="M 108.157571 -190.026506 
L 108.157571 -155.172356 
L 119.629727 -131.03675 
L 131.101883 -128.612889 
L 142.574039 -125.471484 
L 154.046195 -126.048267 
L 165.518351 -124.197756 
L 176.990507 -122.762666 
L 188.462663 -122.481141 
L 199.93482 -120.86409 
L 211.406976 -118.289167 
L 222.879132 -119.003279 
L 234.351288 -118.282301 
L 245.823444 -115.806942 
L 257.2956 -117.224866 
L 268.767756 -117.533857 
L 280.239912 -117.269498 
L 291.712068 -116.191464 
L 303.184224 -116.610318 
L 314.65638 -115.782909 
L 326.128536 -115.947704 
L 337.600692 -115.885906 
L 349.072848 -114.035395 
L 360.545004 -113.664606 
L 372.01716 -114.320353 
L 383.489316 -114.124659 
L 394.961472 -112.960794 
L 406.433628 -113.310984 
L 417.905785 -112.706735 
L 429.377941 -111.196114 
L 440.850097 -113.482645 
L 452.322253 -112.054422 
L 463.794409 -112.356546 
L 475.266565 -109.160209 
L 486.738721 -112.157419 
L 498.210877 -111.608102 
L 509.683033 -111.048485 
L 521.155189 -111.148049 
L 532.627345 -110.842492 
L 544.099501 -111.735131 
L 555.571657 -109.252906 
L 567.043813 -110.536934 
L 578.515969 -109.68206 
L 589.988125 -108.775687 
L 601.460281 -110.832192 
L 612.932437 -109.300971 
L 624.404593 -109.860588 
L 635.87675 -110.227943 
L 647.348906 -110.200478 
L 658.821062 -110.018516 
L 670.293218 -109.050346 
L 670.293218 -113.486079 
L 670.293218 -113.486079 
L 658.821062 -115.350322 
L 647.348906 -113.005426 
L 635.87675 -114.090327 
L 624.404593 -115.123729 
L 612.932437 -115.391521 
L 601.460281 -115.758877 
L 589.988125 -114.746074 
L 578.515969 -114.509181 
L 567.043813 -114.934902 
L 555.571657 -115.765743 
L 544.099501 -115.961437 
L 532.627345 -117.619687 
L 521.155189 -115.556316 
L 509.683033 -116.006069 
L 498.210877 -117.128735 
L 486.738721 -117.012006 
L 475.266565 -115.463619 
L 463.794409 -118.100339 
L 452.322253 -117.592221 
L 440.850097 -118.529493 
L 429.377941 -117.1974 
L 417.905785 -118.879683 
L 406.433628 -118.63249 
L 394.961472 -119.356902 
L 383.489316 -120.5242 
L 372.01716 -121.444305 
L 360.545004 -119.789489 
L 349.072848 -121.094116 
L 337.600692 -120.404037 
L 326.128536 -120.860656 
L 314.65638 -121.622833 
L 303.184224 -122.069153 
L 291.712068 -121.162781 
L 280.239912 -121.801361 
L 268.767756 -123.610673 
L 257.2956 -124.084459 
L 245.823444 -122.165284 
L 234.351288 -124.039827 
L 222.879132 -124.650942 
L 211.406976 -127.287663 
L 199.93482 -127.198399 
L 188.462663 -128.04984 
L 176.990507 -129.790487 
L 165.518351 -130.116644 
L 154.046195 -133.209984 
L 142.574039 -134.095758 
L 131.101883 -136.797709 
L 119.629727 -156.806573 
L 108.157571 -190.026506 
z
" style="stroke: #ffffff; stroke-opacity: 0.2"/>
    </defs>
    <g clip-path="url(#p75b656c069)">
     <use xlink:href="#me1259dae02" x="0" y="576" style="fill: #dd8452; fill-opacity: 0.2; stroke: #ffffff; stroke-opacity: 0.2"/>
    </g>
   </g>
   <g id="PolyCollection_3">
    <defs>
     <path id="md58dafc34a" d="M 108.157571 -532.566718 
L 108.157571 -431.797987 
L 119.629727 -287.509635 
L 131.101883 -229.58418 
L 142.574039 -200.655785 
L 154.046195 -191.259035 
L 165.518351 -166.591278 
L 176.990507 -146.987536 
L 188.462663 -146.338655 
L 199.93482 -136.814876 
L 211.406976 -133.989327 
L 222.879132 -131.874458 
L 234.351288 -128.128804 
L 245.823444 -119.31227 
L 257.2956 -120.850357 
L 268.767756 -113.942698 
L 280.239912 -116.284161 
L 291.712068 -115.707378 
L 303.184224 -114.958934 
L 314.65638 -113.111856 
L 326.128536 -112.874964 
L 337.600692 -111.494805 
L 349.072848 -108.878684 
L 360.545004 -110.070015 
L 372.01716 -106.544088 
L 383.489316 -108.991981 
L 394.961472 -107.89678 
L 406.433628 -108.593726 
L 417.905785 -106.942342 
L 429.377941 -105.747578 
L 440.850097 -102.201052 
L 452.322253 -103.491946 
L 463.794409 -104.775974 
L 475.266565 -103.011294 
L 486.738721 -103.818103 
L 498.210877 -105.297825 
L 509.683033 -100.364274 
L 521.155189 -102.887698 
L 532.627345 -103.979465 
L 544.099501 -95.901075 
L 555.571657 -98.142974 
L 567.043813 -98.719757 
L 578.515969 -103.467914 
L 589.988125 -103.481647 
L 601.460281 -103.27222 
L 612.932437 -97.751586 
L 624.404593 -96.84178 
L 635.87675 -100.072449 
L 647.348906 -100.611466 
L 658.821062 -99.207275 
L 670.293218 -99.856156 
L 670.293218 -127.318562 
L 670.293218 -127.318562 
L 658.821062 -127.740849 
L 647.348906 -127.531422 
L 635.87675 -114.42335 
L 624.404593 -126.068866 
L 612.932437 -129.615393 
L 601.460281 -134.590143 
L 589.988125 -115.291957 
L 578.515969 -115.051631 
L 567.043813 -118.831617 
L 555.571657 -121.355041 
L 544.099501 -126.532352 
L 532.627345 -129.148473 
L 521.155189 -123.926531 
L 509.683033 -126.463687 
L 498.210877 -124.283587 
L 486.738721 -125.138461 
L 475.266565 -157.197961 
L 463.794409 -125.842273 
L 452.322253 -135.379786 
L 440.850097 -175.363181 
L 429.377941 -124.417482 
L 417.905785 -126.72118 
L 406.433628 -136.519618 
L 394.961472 -130.470267 
L 383.489316 -128.630056 
L 372.01716 -140.402601 
L 360.545004 -132.715599 
L 349.072848 -133.062355 
L 337.600692 -141.391371 
L 326.128536 -140.711592 
L 314.65638 -136.062998 
L 303.184224 -139.135739 
L 291.712068 -138.967511 
L 280.239912 -171.06821 
L 268.767756 -161.616528 
L 257.2956 -142.211913 
L 245.823444 -149.716954 
L 234.351288 -164.857497 
L 222.879132 -176.729606 
L 211.406976 -167.840974 
L 199.93482 -174.652502 
L 188.462663 -192.484698 
L 176.990507 -205.48634 
L 165.518351 -212.648057 
L 154.046195 -230.366957 
L 142.574039 -260.981068 
L 131.101883 -316.462063 
L 119.629727 -364.836272 
L 108.157571 -532.566718 
z
" style="stroke: #ffffff; stroke-opacity: 0.2"/>
    </defs>
    <g clip-path="url(#p75b656c069)">
     <use xlink:href="#md58dafc34a" x="0" y="576" style="fill: #55a868; fill-opacity: 0.2; stroke: #ffffff; stroke-opacity: 0.2"/>
    </g>
   </g>
   <g id="line2d_13">
    <path d="M 108.157571 368.798762 
L 119.629727 418.87757 
L 131.101883 426.374027 
L 142.574039 429.287123 
L 154.046195 430.665564 
L 165.518351 434.601763 
L 176.990507 439.32932 
L 188.462663 443.289551 
L 199.93482 444.87742 
L 211.406976 446.147715 
L 222.879132 447.649753 
L 234.351288 446.889292 
L 245.823444 449.39555 
L 257.2956 449.749173 
L 268.767756 450.669278 
L 280.239912 449.956883 
L 291.712068 450.923337 
L 303.184224 450.667562 
L 314.65638 450.631513 
L 326.128536 452.020254 
L 337.600692 452.109518 
L 349.072848 452.1593 
L 360.545004 452.806464 
L 372.01716 452.329245 
L 383.489316 453.446761 
L 394.961472 453.911964 
L 406.433628 453.367797 
L 417.905785 453.657905 
L 429.377941 454.452698 
L 440.850097 455.043213 
L 452.322253 454.418365 
L 463.794409 454.102508 
L 475.266565 455.441468 
L 486.738721 454.766838 
L 498.210877 455.501549 
L 509.683033 455.295556 
L 521.155189 456.957239 
L 532.627345 456.450838 
L 544.099501 456.838792 
L 555.571657 456.795877 
L 567.043813 456.909174 
L 578.515969 458.155436 
L 589.988125 457.182115 
L 601.460281 457.726282 
L 612.932437 458.735652 
L 624.404593 457.556338 
L 635.87675 458.024973 
L 647.348906 458.079905 
L 658.821062 458.521075 
L 670.293218 459.104724 
" clip-path="url(#p75b656c069)" style="fill: none; stroke: #4c72b0; stroke-width: 2; stroke-linecap: round"/>
   </g>
   <g id="line2d_14">
    <path d="M 108.157571 413.293421 
L 119.629727 440.584166 
L 131.101883 443.153938 
L 142.574039 445.031915 
L 154.046195 447.41286 
L 165.518351 449.134625 
L 176.990507 449.807538 
L 188.462663 449.955167 
L 199.93482 451.973906 
L 211.406976 453.695671 
L 222.879132 454.353134 
L 234.351288 454.986565 
L 245.823444 455.985635 
L 257.2956 456.196778 
L 268.767756 455.305855 
L 280.239912 456.704897 
L 291.712068 456.097215 
L 303.184224 456.653398 
L 314.65638 457.271379 
L 326.128536 457.286829 
L 337.600692 457.848162 
L 349.072848 458.332247 
L 360.545004 458.879848 
L 372.01716 458.630938 
L 383.489316 459.494396 
L 394.961472 459.475513 
L 406.433628 460.189625 
L 417.905785 459.441181 
L 429.377941 460.387036 
L 440.850097 461.042782 
L 452.322253 460.955235 
L 463.794409 460.558697 
L 475.266565 462.024686 
L 486.738721 462.055585 
L 498.210877 462.689016 
L 509.683033 462.33711 
L 521.155189 462.55512 
L 532.627345 462.505338 
L 544.099501 462.163732 
L 555.571657 462.743948 
L 567.043813 463.392828 
L 578.515969 464.338683 
L 589.988125 463.813399 
L 601.460281 464.065741 
L 612.932437 463.940429 
L 624.404593 464.730071 
L 635.87675 464.33525 
L 647.348906 464.512061 
L 658.821062 464.199637 
L 670.293218 465.155792 
" clip-path="url(#p75b656c069)" style="fill: none; stroke: #dd8452; stroke-width: 2; stroke-linecap: round"/>
   </g>
   <g id="line2d_15">
    <path d="M 108.157571 90.077143 
L 119.629727 249.579854 
L 131.101883 310.933389 
L 142.574039 343.051254 
L 154.046195 363.54592 
L 165.518351 389.241929 
L 176.990507 405.81928 
L 188.462663 418.189207 
L 199.93482 424.369021 
L 211.406976 428.16789 
L 222.879132 435.092714 
L 234.351288 436.563853 
L 245.823444 443.159088 
L 257.2956 444.714341 
L 268.767756 447.97076 
L 280.239912 448.986996 
L 291.712068 449.038494 
L 303.184224 448.923481 
L 314.65638 450.305356 
L 326.128536 452.543822 
L 337.600692 454.857819 
L 349.072848 456.430238 
L 360.545004 456.962389 
L 372.01716 457.358927 
L 383.489316 456.744379 
L 394.961472 459.666057 
L 406.433628 459.56306 
L 417.905785 459.928699 
L 429.377941 459.909817 
L 440.850097 462.101934 
L 452.322253 462.987707 
L 463.794409 461.458203 
L 475.266565 461.23161 
L 486.738721 462.083051 
L 498.210877 463.832282 
L 509.683033 465.303421 
L 521.155189 464.745521 
L 532.627345 466.117096 
L 544.099501 463.718985 
L 555.571657 467.268945 
L 567.043813 468.262865 
L 578.515969 468.642237 
L 589.988125 468.142702 
L 601.460281 467.965891 
L 612.932437 470.959667 
L 624.404593 468.589022 
L 635.87675 470.242122 
L 647.348906 469.812968 
L 658.821062 472.211079 
L 670.293218 471.848874 
" clip-path="url(#p75b656c069)" style="fill: none; stroke: #55a868; stroke-width: 2; stroke-linecap: round"/>
   </g>
   <g id="patch_3">
    <path d="M 80.050789 501.932207 
L 80.050789 21.6 
" style="fill: none; stroke: #cccccc; stroke-width: 1.25; stroke-linejoin: miter; stroke-linecap: square"/>
   </g>
   <g id="patch_4">
    <path d="M 698.4 501.932207 
L 698.4 21.6 
" style="fill: none; stroke: #cccccc; stroke-width: 1.25; stroke-linejoin: miter; stroke-linecap: square"/>
   </g>
   <g id="patch_5">
    <path d="M 80.050789 501.932207 
L 698.4 501.932207 
" style="fill: none; stroke: #cccccc; stroke-width: 1.25; stroke-linejoin: miter; stroke-linecap: square"/>
   </g>
   <g id="patch_6">
    <path d="M 80.050789 21.6 
L 698.4 21.6 
" style="fill: none; stroke: #cccccc; stroke-width: 1.25; stroke-linejoin: miter; stroke-linecap: square"/>
   </g>
   <g id="legend_1">
    <g id="patch_7">
     <path d="M 542.218822 174.407434 
L 681.6 174.407434 
Q 686.4 174.407434 686.4 169.607434 
L 686.4 38.4 
Q 686.4 33.6 681.6 33.6 
L 542.218822 33.6 
Q 537.418822 33.6 537.418822 38.4 
L 537.418822 169.607434 
Q 537.418822 174.407434 542.218822 174.407434 
z
" style="fill: #ffffff; opacity: 0.8; stroke: #cccccc; stroke-linejoin: miter"/>
    </g>
    <g id="text_15">
     <!-- Model -->
     <g style="fill: #262626" transform="translate(582.001584 59.804405) scale(0.24 -0.24)">
      <defs>
       <path id="CMR17-64" d="M 1869 4326 
L 1869 4160 
C 2246 4160 2304 4122 2304 3820 
L 2304 2345 
C 2278 2377 2016 2790 1498 2790 
C 845 2790 211 2208 211 1364 
C 211 525 806 -64 1434 -64 
C 1978 -64 2259 337 2291 380 
L 2291 -63 
L 3066 -63 
L 3066 128 
C 2688 128 2630 166 2630 473 
L 2630 4396 
L 1869 4326 
z
M 2291 755 
C 2291 563 2176 390 2029 262 
C 1811 70 1594 38 1472 38 
C 1286 38 621 134 621 1356 
C 621 2612 1363 2688 1530 2688 
C 1824 2688 2061 2522 2208 2291 
C 2291 2157 2291 2138 2291 2023 
L 2291 755 
z
" transform="scale(0.015625)"/>
       <path id="CMR17-65" d="M 2438 1472 
C 2464 1498 2464 1511 2464 1576 
C 2464 2238 2118 2816 1389 2816 
C 710 2816 173 2169 173 1383 
C 173 551 781 -64 1459 -64 
C 2176 -64 2458 607 2458 740 
C 2458 784 2419 784 2406 784 
C 2362 784 2355 771 2330 696 
C 2189 265 1837 51 1504 51 
C 1229 51 954 203 781 480 
C 582 803 582 1176 582 1472 
L 2438 1472 
z
M 589 1568 
C 634 2505 1126 2714 1382 2714 
C 1818 2714 2112 2297 2118 1568 
L 589 1568 
z
" transform="scale(0.015625)"/>
       <path id="CMR17-6c" d="M 979 4396 
L 218 4326 
L 218 4160 
C 595 4160 653 4122 653 3817 
L 653 426 
C 653 184 627 153 218 153 
L 218 -13 
C 371 0 653 0 813 0 
C 979 0 1261 0 1414 -13 
L 1414 153 
C 1005 153 979 178 979 426 
L 979 4396 
z
" transform="scale(0.015625)"/>
      </defs>
      <use xlink:href="#CMR17-4d" transform="scale(0.996264)"/>
      <use xlink:href="#CMR17-6f" transform="translate(84.686941 0) scale(0.996264)"/>
      <use xlink:href="#CMR17-64" transform="translate(132.979856 0) scale(0.996264)"/>
      <use xlink:href="#CMR17-65" transform="translate(183.875226 0) scale(0.996264)"/>
      <use xlink:href="#CMR17-6c" transform="translate(224.360887 0) scale(0.996264)"/>
     </g>
    </g>
    <g id="line2d_16">
     <path d="M 547.018822 84.855163 
L 571.018822 84.855163 
L 595.018822 84.855163 
" style="fill: none; stroke: #4c72b0; stroke-width: 2; stroke-linecap: round"/>
    </g>
    <g id="text_16">
     <!-- CAE -->
     <g style="fill: #262626" transform="translate(614.218822 93.255163) scale(0.24 -0.24)">
      <defs>
       <path id="CMR17-43" d="M 3974 4289 
C 3974 4403 3968 4410 3930 4410 
C 3904 4410 3898 4403 3853 4327 
L 3571 3792 
C 3258 4187 2874 4416 2381 4416 
C 1286 4416 294 3456 294 2148 
C 294 826 1286 -128 2387 -128 
C 3366 -128 3974 730 3974 1461 
C 3974 1524 3974 1550 3917 1550 
C 3866 1550 3866 1531 3859 1474 
C 3808 585 3168 38 2477 38 
C 1824 38 781 495 781 2147 
C 781 3805 1843 4250 2464 4250 
C 3187 4250 3712 3628 3834 2745 
C 3846 2668 3846 2655 3904 2655 
C 3974 2655 3974 2668 3974 2783 
L 3974 4289 
z
" transform="scale(0.015625)"/>
       <path id="CMR17-41" d="M 2323 4378 
C 2291 4461 2278 4480 2214 4480 
C 2150 4480 2138 4461 2106 4378 
L 749 566 
C 627 223 371 153 147 153 
L 147 -13 
C 262 0 518 0 640 0 
C 800 0 1056 0 1210 -13 
L 1210 153 
C 909 153 864 361 864 439 
C 864 497 877 530 890 569 
L 1229 1536 
L 2906 1536 
L 3290 442 
C 3322 365 3322 352 3322 327 
C 3322 153 3046 153 2925 153 
L 2925 0 
C 3110 0 3443 0 3642 0 
C 3808 0 4128 0 4282 -13 
L 4282 153 
C 3942 153 3827 153 3744 387 
L 2323 4378 
z
M 2067 3893 
L 2848 1702 
L 1286 1702 
L 2067 3893 
z
" transform="scale(0.015625)"/>
      </defs>
      <use xlink:href="#CMR17-43" transform="scale(0.996264)"/>
      <use xlink:href="#CMR17-41" transform="translate(66.509881 0) scale(0.996264)"/>
      <use xlink:href="#CMR17-45" transform="translate(135.58231 0) scale(0.996264)"/>
     </g>
    </g>
    <g id="line2d_17">
     <path d="M 547.018822 118.30592 
L 571.018822 118.30592 
L 595.018822 118.30592 
" style="fill: none; stroke: #dd8452; stroke-width: 2; stroke-linecap: round"/>
    </g>
    <g id="text_17">
     <!-- PCAE -->
     <g style="fill: #262626" transform="translate(614.218822 126.70592) scale(0.24 -0.24)">
      <defs>
       <path id="CMR17-50" d="M 1267 2042 
L 2291 2042 
C 3117 2042 3718 2578 3718 3184 
C 3718 3791 3130 4352 2291 4352 
L 333 4352 
L 333 4186 
C 774 4186 845 4186 845 3899 
L 845 446 
C 845 160 774 160 333 160 
L 333 0 
C 518 0 858 0 1056 0 
C 1254 0 1594 0 1779 0 
L 1779 160 
C 1338 160 1267 160 1267 446 
L 1267 2042 
z
M 1254 2176 
L 1254 3938 
C 1254 4155 1267 4186 1523 4186 
L 2170 4186 
C 2995 4186 3232 3714 3232 3184 
C 3232 2604 2950 2176 2170 2176 
L 1254 2176 
z
" transform="scale(0.015625)"/>
      </defs>
      <use xlink:href="#CMR17-50" transform="scale(0.996264)"/>
      <use xlink:href="#CMR17-43" transform="translate(62.586301 0) scale(0.996264)"/>
      <use xlink:href="#CMR17-41" transform="translate(129.096181 0) scale(0.996264)"/>
      <use xlink:href="#CMR17-45" transform="translate(198.168611 0) scale(0.996264)"/>
     </g>
    </g>
    <g id="line2d_18">
     <path d="M 547.018822 151.756677 
L 571.018822 151.756677 
L 595.018822 151.756677 
" style="fill: none; stroke: #55a868; stroke-width: 2; stroke-linecap: round"/>
    </g>
    <g id="text_18">
     <!-- GAN -->
     <g style="fill: #262626" transform="translate(614.218822 160.156677) scale(0.24 -0.24)">
      <defs>
       <path id="CMR17-47" d="M 3974 1233 
C 3974 1473 3994 1505 4390 1505 
L 4390 1670 
C 4237 1664 3891 1664 3718 1664 
C 3539 1664 3040 1664 2797 1664 
L 2797 1505 
L 2989 1505 
C 3539 1505 3552 1434 3552 1201 
L 3552 774 
C 3552 63 2720 63 2522 63 
C 1862 63 781 511 781 2160 
C 781 3808 1843 4250 2464 4250 
C 3187 4250 3712 3626 3834 2741 
C 3846 2664 3846 2651 3904 2651 
C 3974 2651 3974 2664 3974 2779 
L 3974 4288 
C 3974 4402 3968 4409 3930 4409 
C 3904 4409 3898 4402 3853 4326 
L 3571 3791 
C 3258 4187 2874 4416 2381 4416 
C 1286 4416 294 3456 294 2148 
C 294 845 1267 -128 2394 -128 
C 2912 -128 3418 56 3616 417 
C 3725 158 3904 -20 3936 -20 
C 3968 -20 3974 -13 3974 100 
L 3974 1233 
z
" transform="scale(0.015625)"/>
       <path id="CMR17-4e" d="M 1312 4250 
C 1267 4320 1261 4320 1139 4320 
L 326 4320 
L 326 4160 
L 448 4160 
C 704 4160 819 4129 838 4122 
L 838 610 
C 838 451 838 153 326 153 
L 326 -13 
C 474 0 742 0 902 0 
C 1062 0 1331 0 1478 -13 
L 1478 153 
C 966 153 966 451 966 610 
L 966 4033 
C 1011 3995 1011 3982 1056 3919 
L 3430 76 
C 3475 0 3494 0 3526 0 
C 3590 0 3590 19 3590 139 
L 3590 3705 
C 3590 3863 3590 4160 4102 4160 
L 4102 4326 
C 3955 4320 3686 4320 3526 4320 
C 3366 4320 3098 4320 2950 4326 
L 2950 4160 
C 3462 4160 3462 3862 3462 3703 
L 3462 763 
L 1312 4250 
z
" transform="scale(0.015625)"/>
      </defs>
      <use xlink:href="#CMR17-47" transform="scale(0.996264)"/>
      <use xlink:href="#CMR17-41" transform="translate(72.355346 0) scale(0.996264)"/>
      <use xlink:href="#CMR17-4e" transform="translate(141.427776 0) scale(0.996264)"/>
     </g>
    </g>
   </g>
  </g>
 </g>
 <defs>
  <clipPath id="p75b656c069">
   <rect x="80.050789" y="21.6" width="618.349211" height="480.332207"/>
  </clipPath>
 </defs>
</svg>
