<?xml version="1.0" encoding="utf-8" standalone="no"?>
<!DOCTYPE svg PUBLIC "-//W3C//DTD SVG 1.1//EN"
  "http://www.w3.org/Graphics/SVG/1.1/DTD/svg11.dtd">
<svg xmlns:xlink="http://www.w3.org/1999/xlink" width="720pt" height="576pt" viewBox="0 0 720 576" xmlns="http://www.w3.org/2000/svg" version="1.1">
 <metadata>
  <rdf:RDF xmlns:dc="http://purl.org/dc/elements/1.1/" xmlns:cc="http://creativecommons.org/ns#" xmlns:rdf="http://www.w3.org/1999/02/22-rdf-syntax-ns#">
   <cc:Work>
    <dc:type rdf:resource="http://purl.org/dc/dcmitype/StillImage"/>
    <dc:date>2025-04-25T12:18:04.706311</dc:date>
    <dc:format>image/svg+xml</dc:format>
    <dc:creator>
     <cc:Agent>
      <dc:title>Matplotlib v3.9.2, https://matplotlib.org/</dc:title>
     </cc:Agent>
    </dc:creator>
   </cc:Work>
  </rdf:RDF>
 </metadata>
 <defs>
  <style type="text/css">*{stroke-linejoin: round; stroke-linecap: butt}</style>
 </defs>
 <g id="figure_1">
  <g id="patch_1">
   <path d="M 0 576 
L 720 576 
L 720 0 
L 0 0 
z
" style="fill: #ffffff"/>
  </g>
  <g id="axes_1">
   <g id="patch_2">
    <path d="M 77.244996 501.932207 
L 698.4 501.932207 
L 698.4 21.6 
L 77.244996 21.6 
z
" style="fill: #ffffff"/>
   </g>
   <g id="matplotlib.axis_1">
    <g id="xtick_1">
     <g id="line2d_1">
      <path d="M 93.955103 501.932207 
L 93.955103 21.6 
" clip-path="url(#paff6a50244)" style="fill: none; stroke: #cccccc; stroke-linecap: round"/>
     </g>
     <g id="text_1">
      <!-- $\mathdefault{0}$ -->
      <g style="fill: #262626" transform="translate(89.386055 525.269204) scale(0.2 -0.2)">
       <defs>
        <path id="CMR17-30" d="M 2688 2025 
C 2688 2416 2682 3080 2413 3591 
C 2176 4039 1798 4198 1466 4198 
C 1158 4198 768 4058 525 3597 
C 269 3118 243 2524 243 2025 
C 243 1661 250 1106 448 619 
C 723 -39 1216 -128 1466 -128 
C 1760 -128 2208 -7 2470 600 
C 2662 1042 2688 1559 2688 2025 
z
M 1466 -26 
C 1056 -26 813 325 723 812 
C 653 1188 653 1738 653 2096 
C 653 2588 653 2997 736 3387 
C 858 3929 1216 4096 1466 4096 
C 1728 4096 2067 3923 2189 3400 
C 2272 3036 2278 2607 2278 2096 
C 2278 1680 2278 1169 2202 792 
C 2067 95 1690 -26 1466 -26 
z
" transform="scale(0.015625)"/>
       </defs>
       <use xlink:href="#CMR17-30" transform="scale(0.996264)"/>
      </g>
     </g>
    </g>
    <g id="xtick_2">
     <g id="line2d_2">
      <path d="M 209.197218 501.932207 
L 209.197218 21.6 
" clip-path="url(#paff6a50244)" style="fill: none; stroke: #cccccc; stroke-linecap: round"/>
     </g>
     <g id="text_2">
      <!-- $\mathdefault{10}$ -->
      <g style="fill: #262626" transform="translate(200.059123 525.269204) scale(0.2 -0.2)">
       <defs>
        <path id="CMR17-31" d="M 1702 4058 
C 1702 4192 1696 4192 1606 4192 
C 1357 3916 979 3827 621 3827 
C 602 3827 570 3827 563 3808 
C 557 3795 557 3782 557 3648 
C 755 3648 1088 3686 1344 3839 
L 1344 461 
C 1344 236 1331 160 781 160 
L 589 160 
L 589 0 
C 896 0 1216 0 1523 0 
C 1830 0 2150 0 2458 0 
L 2458 160 
L 2266 160 
C 1715 160 1702 230 1702 458 
L 1702 4058 
z
" transform="scale(0.015625)"/>
       </defs>
       <use xlink:href="#CMR17-31" transform="scale(0.996264)"/>
       <use xlink:href="#CMR17-30" transform="translate(45.690477 0) scale(0.996264)"/>
      </g>
     </g>
    </g>
    <g id="xtick_3">
     <g id="line2d_3">
      <path d="M 324.439334 501.932207 
L 324.439334 21.6 
" clip-path="url(#paff6a50244)" style="fill: none; stroke: #cccccc; stroke-linecap: round"/>
     </g>
     <g id="text_3">
      <!-- $\mathdefault{20}$ -->
      <g style="fill: #262626" transform="translate(315.301239 525.269204) scale(0.2 -0.2)">
       <defs>
        <path id="CMR17-32" d="M 2669 989 
L 2554 989 
C 2490 536 2438 459 2413 420 
C 2381 369 1920 369 1830 369 
L 602 369 
C 832 619 1280 1072 1824 1597 
C 2214 1967 2669 2402 2669 3035 
C 2669 3790 2067 4224 1395 4224 
C 691 4224 262 3604 262 3030 
C 262 2780 448 2748 525 2748 
C 589 2748 781 2787 781 3010 
C 781 3207 614 3264 525 3264 
C 486 3264 448 3258 422 3245 
C 544 3790 915 4058 1306 4058 
C 1862 4058 2227 3617 2227 3035 
C 2227 2479 1901 2000 1536 1584 
L 262 146 
L 262 0 
L 2515 0 
L 2669 989 
z
" transform="scale(0.015625)"/>
       </defs>
       <use xlink:href="#CMR17-32" transform="scale(0.996264)"/>
       <use xlink:href="#CMR17-30" transform="translate(45.690477 0) scale(0.996264)"/>
      </g>
     </g>
    </g>
    <g id="xtick_4">
     <g id="line2d_4">
      <path d="M 439.68145 501.932207 
L 439.68145 21.6 
" clip-path="url(#paff6a50244)" style="fill: none; stroke: #cccccc; stroke-linecap: round"/>
     </g>
     <g id="text_4">
      <!-- $\mathdefault{30}$ -->
      <g style="fill: #262626" transform="translate(430.543355 525.269204) scale(0.2 -0.2)">
       <defs>
        <path id="CMR17-33" d="M 1414 2157 
C 1984 2157 2234 1662 2234 1090 
C 2234 320 1824 25 1453 25 
C 1114 25 563 194 390 693 
C 422 680 454 680 486 680 
C 640 680 755 782 755 948 
C 755 1133 614 1216 486 1216 
C 378 1216 211 1165 211 926 
C 211 335 787 -128 1466 -128 
C 2176 -128 2720 430 2720 1085 
C 2720 1707 2208 2157 1600 2227 
C 2086 2328 2554 2756 2554 3329 
C 2554 3820 2048 4179 1472 4179 
C 890 4179 378 3829 378 3329 
C 378 3110 544 3072 627 3072 
C 762 3072 877 3155 877 3321 
C 877 3486 762 3569 627 3569 
C 602 3569 570 3569 544 3557 
C 730 3959 1235 4032 1459 4032 
C 1683 4032 2106 3925 2106 3320 
C 2106 3143 2080 2828 1862 2550 
C 1670 2304 1453 2304 1242 2284 
C 1210 2284 1062 2269 1037 2269 
C 992 2263 966 2257 966 2208 
C 966 2163 973 2157 1101 2157 
L 1414 2157 
z
" transform="scale(0.015625)"/>
       </defs>
       <use xlink:href="#CMR17-33" transform="scale(0.996264)"/>
       <use xlink:href="#CMR17-30" transform="translate(45.690477 0) scale(0.996264)"/>
      </g>
     </g>
    </g>
    <g id="xtick_5">
     <g id="line2d_5">
      <path d="M 554.923566 501.932207 
L 554.923566 21.6 
" clip-path="url(#paff6a50244)" style="fill: none; stroke: #cccccc; stroke-linecap: round"/>
     </g>
     <g id="text_5">
      <!-- $\mathdefault{40}$ -->
      <g style="fill: #262626" transform="translate(545.78547 525.269204) scale(0.2 -0.2)">
       <defs>
        <path id="CMR17-34" d="M 2150 4122 
C 2150 4256 2144 4256 2029 4256 
L 128 1254 
L 128 1088 
L 1779 1088 
L 1779 457 
C 1779 224 1766 160 1318 160 
L 1197 160 
L 1197 0 
C 1402 0 1747 0 1965 0 
C 2182 0 2528 0 2733 0 
L 2733 160 
L 2611 160 
C 2163 160 2150 224 2150 457 
L 2150 1088 
L 2803 1088 
L 2803 1254 
L 2150 1254 
L 2150 4122 
z
M 1798 3703 
L 1798 1254 
L 256 1254 
L 1798 3703 
z
" transform="scale(0.015625)"/>
       </defs>
       <use xlink:href="#CMR17-34" transform="scale(0.996264)"/>
       <use xlink:href="#CMR17-30" transform="translate(45.690477 0) scale(0.996264)"/>
      </g>
     </g>
    </g>
    <g id="xtick_6">
     <g id="line2d_6">
      <path d="M 670.165682 501.932207 
L 670.165682 21.6 
" clip-path="url(#paff6a50244)" style="fill: none; stroke: #cccccc; stroke-linecap: round"/>
     </g>
     <g id="text_6">
      <!-- $\mathdefault{50}$ -->
      <g style="fill: #262626" transform="translate(661.027586 525.269204) scale(0.2 -0.2)">
       <defs>
        <path id="CMR17-35" d="M 730 3692 
C 794 3666 1056 3584 1325 3584 
C 1920 3584 2246 3911 2432 4100 
C 2432 4157 2432 4192 2394 4192 
C 2387 4192 2374 4192 2323 4163 
C 2099 4058 1837 3973 1517 3973 
C 1325 3973 1037 3999 723 4139 
C 653 4171 640 4171 634 4171 
C 602 4171 595 4164 595 4037 
L 595 2203 
C 595 2089 595 2057 659 2057 
C 691 2057 704 2070 736 2114 
C 941 2401 1222 2522 1542 2522 
C 1766 2522 2246 2382 2246 1289 
C 2246 1085 2246 715 2054 421 
C 1894 159 1645 25 1370 25 
C 947 25 518 320 403 814 
C 429 807 480 795 506 795 
C 589 795 749 840 749 1038 
C 749 1210 627 1280 506 1280 
C 358 1280 262 1190 262 1011 
C 262 454 704 -128 1382 -128 
C 2042 -128 2669 440 2669 1264 
C 2669 2030 2170 2624 1549 2624 
C 1222 2624 947 2503 730 2274 
L 730 3692 
z
" transform="scale(0.015625)"/>
       </defs>
       <use xlink:href="#CMR17-35" transform="scale(0.996264)"/>
       <use xlink:href="#CMR17-30" transform="translate(45.690477 0) scale(0.996264)"/>
      </g>
     </g>
    </g>
    <g id="text_7">
     <!-- Epoch -->
     <g style="fill: #262626" transform="translate(357.443834 549.749243) scale(0.24 -0.24)">
      <defs>
       <path id="CMR17-45" d="M 3885 1615 
L 3770 1615 
C 3629 676 3546 166 2419 166 
L 1530 166 
C 1274 166 1261 197 1261 414 
L 1261 2176 
L 1862 2176 
C 2464 2176 2522 1960 2522 1430 
L 2637 1430 
L 2637 3081 
L 2522 3081 
C 2522 2557 2464 2342 1862 2342 
L 1261 2342 
L 1261 3913 
C 1261 4128 1274 4160 1530 4160 
L 2406 4160 
C 3398 4160 3514 3769 3603 2929 
L 3718 2929 
L 3565 4325 
L 326 4325 
L 326 4160 
C 768 4160 838 4160 838 3874 
L 838 451 
C 838 166 768 166 326 166 
L 326 0 
L 3654 0 
L 3885 1615 
z
" transform="scale(0.015625)"/>
       <path id="CMR17-70" d="M 1408 -1063 
C 998 -1063 973 -1037 973 -789 
L 973 402 
C 1158 134 1427 -38 1766 -38 
C 2406 -38 3053 523 3053 1388 
C 3053 2191 2496 2802 1837 2802 
C 1453 2802 1139 2592 960 2338 
L 960 2802 
L 198 2732 
L 198 2567 
C 576 2567 634 2528 634 2223 
L 634 -789 
C 634 -1031 608 -1063 198 -1063 
L 198 -1228 
C 352 -1216 634 -1216 800 -1216 
C 966 -1216 1254 -1216 1408 -1228 
L 1408 -1063 
z
M 973 2012 
C 973 2102 973 2235 1222 2471 
C 1254 2497 1472 2688 1792 2688 
C 2259 2688 2643 2108 2643 1382 
C 2643 656 2234 64 1728 64 
C 1498 64 1248 172 1056 472 
C 973 612 973 650 973 752 
L 973 2012 
z
" transform="scale(0.015625)"/>
       <path id="CMR17-6f" d="M 2758 1356 
C 2758 2176 2163 2816 1466 2816 
C 768 2816 173 2176 173 1356 
C 173 551 768 -64 1466 -64 
C 2163 -64 2758 551 2758 1356 
z
M 1466 51 
C 1165 51 909 230 762 480 
C 602 767 582 1126 582 1408 
C 582 1677 595 2010 762 2298 
C 890 2509 1139 2714 1466 2714 
C 1754 2714 1997 2554 2150 2330 
C 2349 2029 2349 1607 2349 1408 
C 2349 1158 2336 775 2163 467 
C 1984 173 1709 51 1466 51 
z
" transform="scale(0.015625)"/>
       <path id="CMR17-63" d="M 2234 2240 
C 2112 2240 1933 2240 1933 2017 
C 1933 1838 2080 1787 2163 1787 
C 2208 1787 2394 1807 2394 2024 
C 2394 2467 1958 2803 1466 2803 
C 787 2803 211 2178 211 1363 
C 211 516 813 -64 1466 -64 
C 2259 -64 2458 677 2458 748 
C 2458 774 2451 793 2406 793 
C 2362 793 2355 787 2330 703 
C 2163 180 1798 51 1523 51 
C 1114 51 621 427 621 1369 
C 621 2338 1094 2688 1472 2688 
C 1722 2688 2093 2573 2234 2240 
z
" transform="scale(0.015625)"/>
       <path id="CMR17-68" d="M 2656 1933 
C 2656 2259 2592 2790 1837 2790 
C 1312 2790 1056 2368 979 2157 
L 973 2157 
L 973 4396 
L 211 4326 
L 211 4160 
C 589 4160 646 4122 646 3817 
L 646 426 
C 646 184 621 153 211 153 
L 211 -13 
C 365 0 646 0 813 0 
C 979 0 1267 0 1421 -13 
L 1421 153 
C 1011 153 986 178 986 428 
L 986 1658 
C 986 2247 1344 2688 1792 2688 
C 2266 2688 2317 2266 2317 1958 
L 2317 428 
C 2317 184 2291 153 1882 153 
L 1882 -13 
C 2035 0 2317 0 2483 0 
C 2650 0 2938 0 3091 -13 
L 3091 153 
C 2682 153 2656 178 2656 428 
L 2656 1933 
z
" transform="scale(0.015625)"/>
      </defs>
      <use xlink:href="#CMR17-45" transform="scale(0.996264)"/>
      <use xlink:href="#CMR17-70" transform="translate(62.586301 0) scale(0.996264)"/>
      <use xlink:href="#CMR17-6f" transform="translate(116.084109 0) scale(0.996264)"/>
      <use xlink:href="#CMR17-63" transform="translate(164.377025 0) scale(0.996264)"/>
      <use xlink:href="#CMR17-68" transform="translate(202.260231 0) scale(0.996264)"/>
     </g>
    </g>
   </g>
   <g id="matplotlib.axis_2">
    <g id="ytick_1">
     <g id="line2d_7">
      <path d="M 77.244996 430.102092 
L 698.4 430.102092 
" clip-path="url(#paff6a50244)" style="fill: none; stroke: #cccccc; stroke-linecap: round"/>
     </g>
     <g id="text_8">
      <!-- $\mathdefault{10}$ -->
      <g style="fill: #262626" transform="translate(49.468805 437.020591) scale(0.2 -0.2)">
       <use xlink:href="#CMR17-31" transform="scale(0.996264)"/>
       <use xlink:href="#CMR17-30" transform="translate(45.690477 0) scale(0.996264)"/>
      </g>
     </g>
    </g>
    <g id="ytick_2">
     <g id="line2d_8">
      <path d="M 77.244996 335.938438 
L 698.4 335.938438 
" clip-path="url(#paff6a50244)" style="fill: none; stroke: #cccccc; stroke-linecap: round"/>
     </g>
     <g id="text_9">
      <!-- $\mathdefault{15}$ -->
      <g style="fill: #262626" transform="translate(49.468805 342.856936) scale(0.2 -0.2)">
       <use xlink:href="#CMR17-31" transform="scale(0.996264)"/>
       <use xlink:href="#CMR17-35" transform="translate(45.690477 0) scale(0.996264)"/>
      </g>
     </g>
    </g>
    <g id="ytick_3">
     <g id="line2d_9">
      <path d="M 77.244996 241.774783 
L 698.4 241.774783 
" clip-path="url(#paff6a50244)" style="fill: none; stroke: #cccccc; stroke-linecap: round"/>
     </g>
     <g id="text_10">
      <!-- $\mathdefault{20}$ -->
      <g style="fill: #262626" transform="translate(49.468805 248.693281) scale(0.2 -0.2)">
       <use xlink:href="#CMR17-32" transform="scale(0.996264)"/>
       <use xlink:href="#CMR17-30" transform="translate(45.690477 0) scale(0.996264)"/>
      </g>
     </g>
    </g>
    <g id="ytick_4">
     <g id="line2d_10">
      <path d="M 77.244996 147.611128 
L 698.4 147.611128 
" clip-path="url(#paff6a50244)" style="fill: none; stroke: #cccccc; stroke-linecap: round"/>
     </g>
     <g id="text_11">
      <!-- $\mathdefault{25}$ -->
      <g style="fill: #262626" transform="translate(49.468805 154.529627) scale(0.2 -0.2)">
       <use xlink:href="#CMR17-32" transform="scale(0.996264)"/>
       <use xlink:href="#CMR17-35" transform="translate(45.690477 0) scale(0.996264)"/>
      </g>
     </g>
    </g>
    <g id="ytick_5">
     <g id="line2d_11">
      <path d="M 77.244996 53.447474 
L 698.4 53.447474 
" clip-path="url(#paff6a50244)" style="fill: none; stroke: #cccccc; stroke-linecap: round"/>
     </g>
     <g id="text_12">
      <!-- $\mathdefault{30}$ -->
      <g style="fill: #262626" transform="translate(49.468805 60.365972) scale(0.2 -0.2)">
       <use xlink:href="#CMR17-33" transform="scale(0.996264)"/>
       <use xlink:href="#CMR17-30" transform="translate(45.690477 0) scale(0.996264)"/>
      </g>
     </g>
    </g>
    <g id="text_13">
     <!-- PSNR (dB) -->
     <g style="fill: #262626" transform="translate(39.511226 317.81411) rotate(-90) scale(0.24 -0.24)">
      <defs>
       <path id="CMR17-50" d="M 1267 2042 
L 2291 2042 
C 3117 2042 3718 2578 3718 3184 
C 3718 3791 3130 4352 2291 4352 
L 333 4352 
L 333 4186 
C 774 4186 845 4186 845 3899 
L 845 446 
C 845 160 774 160 333 160 
L 333 0 
C 518 0 858 0 1056 0 
C 1254 0 1594 0 1779 0 
L 1779 160 
C 1338 160 1267 160 1267 446 
L 1267 2042 
z
M 1254 2176 
L 1254 3938 
C 1254 4155 1267 4186 1523 4186 
L 2170 4186 
C 2995 4186 3232 3714 3232 3184 
C 3232 2604 2950 2176 2170 2176 
L 1254 2176 
z
" transform="scale(0.015625)"/>
       <path id="CMR17-53" d="M 2803 4290 
C 2803 4404 2797 4411 2758 4411 
C 2720 4411 2707 4385 2682 4328 
L 2490 3907 
C 2246 4257 1875 4416 1472 4416 
C 819 4416 294 3901 294 3253 
C 294 3056 339 2776 557 2510 
C 794 2218 1018 2167 1530 2033 
C 1722 1982 2042 1899 2106 1874 
C 2470 1722 2662 1341 2662 985 
C 2662 527 2336 38 1779 38 
C 1094 38 454 419 410 1311 
C 403 1413 397 1419 352 1419 
C 301 1419 294 1413 294 1285 
L 294 -1 
C 294 -115 301 -122 339 -122 
C 384 -122 397 -90 486 108 
C 493 127 493 140 614 381 
C 934 -39 1472 -128 1779 -128 
C 2477 -128 2970 451 2970 1124 
C 2970 1454 2848 1708 2778 1823 
C 2509 2230 2221 2306 1914 2382 
C 1869 2402 1856 2402 1498 2490 
C 1152 2579 1005 2624 845 2796 
C 666 2992 602 3196 602 3399 
C 602 3812 934 4263 1478 4263 
C 2157 4263 2579 3786 2675 2993 
C 2694 2878 2701 2872 2746 2872 
C 2803 2872 2803 2891 2803 2999 
L 2803 4290 
z
" transform="scale(0.015625)"/>
       <path id="CMR17-4e" d="M 1312 4250 
C 1267 4320 1261 4320 1139 4320 
L 326 4320 
L 326 4160 
L 448 4160 
C 704 4160 819 4129 838 4122 
L 838 610 
C 838 451 838 153 326 153 
L 326 -13 
C 474 0 742 0 902 0 
C 1062 0 1331 0 1478 -13 
L 1478 153 
C 966 153 966 451 966 610 
L 966 4033 
C 1011 3995 1011 3982 1056 3919 
L 3430 76 
C 3475 0 3494 0 3526 0 
C 3590 0 3590 19 3590 139 
L 3590 3705 
C 3590 3863 3590 4160 4102 4160 
L 4102 4326 
C 3955 4320 3686 4320 3526 4320 
C 3366 4320 3098 4320 2950 4326 
L 2950 4160 
C 3462 4160 3462 3862 3462 3703 
L 3462 763 
L 1312 4250 
z
" transform="scale(0.015625)"/>
       <path id="CMR17-52" d="M 2509 2146 
C 3117 2268 3629 2676 3629 3186 
C 3629 3785 2950 4326 2054 4326 
L 333 4326 
L 333 4160 
C 774 4160 845 4160 845 3873 
L 845 415 
C 845 128 774 128 333 128 
L 333 -26 
C 518 -26 851 -26 1050 -26 
C 1248 -26 1581 -26 1766 -26 
L 1766 128 
C 1325 128 1254 128 1254 417 
L 1254 2112 
L 2003 2112 
C 2368 2112 2573 1964 2662 1881 
C 2918 1632 2918 1459 2918 1024 
C 2918 595 2918 377 3110 160 
C 3354 -102 3680 -128 3821 -128 
C 4294 -128 4365 396 4365 503 
C 4365 540 4365 585 4307 585 
C 4256 585 4250 547 4250 522 
C 4218 112 4032 -26 3834 -26 
C 3482 -26 3443 375 3405 764 
C 3386 898 3373 993 3360 1133 
C 3322 1452 3270 1917 2509 2146 
z
M 1984 2214 
L 1254 2214 
L 1254 3913 
C 1254 4129 1267 4160 1523 4160 
L 1990 4160 
C 2522 4160 3142 3977 3142 3190 
C 3142 2372 2464 2214 1984 2214 
z
" transform="scale(0.015625)"/>
       <path id="CMR17-28" d="M 1958 -1561 
C 1958 -1555 1958 -1542 1939 -1523 
C 1645 -1224 858 -407 858 1581 
C 858 3569 1632 4379 1946 4697 
C 1946 4704 1958 4717 1958 4736 
C 1958 4755 1939 4768 1914 4768 
C 1843 4768 1299 4296 986 3594 
C 666 2887 576 2199 576 1588 
C 576 1128 621 351 1005 -471 
C 1312 -1135 1837 -1600 1914 -1600 
C 1946 -1600 1958 -1587 1958 -1561 
z
" transform="scale(0.015625)"/>
       <path id="CMR17-64" d="M 1869 4326 
L 1869 4160 
C 2246 4160 2304 4122 2304 3820 
L 2304 2345 
C 2278 2377 2016 2790 1498 2790 
C 845 2790 211 2208 211 1364 
C 211 525 806 -64 1434 -64 
C 1978 -64 2259 337 2291 380 
L 2291 -63 
L 3066 -63 
L 3066 128 
C 2688 128 2630 166 2630 473 
L 2630 4396 
L 1869 4326 
z
M 2291 755 
C 2291 563 2176 390 2029 262 
C 1811 70 1594 38 1472 38 
C 1286 38 621 134 621 1356 
C 621 2612 1363 2688 1530 2688 
C 1824 2688 2061 2522 2208 2291 
C 2291 2157 2291 2138 2291 2023 
L 2291 755 
z
" transform="scale(0.015625)"/>
       <path id="CMR17-42" d="M 333 4352 
L 333 4186 
C 774 4186 845 4186 845 3900 
L 845 452 
C 845 166 774 166 333 166 
L 333 0 
L 2534 0 
C 3354 0 3885 583 3885 1164 
C 3885 1741 3360 2233 2675 2233 
C 3290 2356 3718 2771 3718 3264 
C 3718 3802 3194 4352 2368 4352 
L 333 4352 
z
M 1248 2304 
L 1248 3937 
C 1248 4155 1261 4186 1517 4186 
L 2336 4186 
C 2970 4186 3251 3674 3251 3277 
C 3251 2791 2861 2304 2170 2304 
L 1248 2304 
z
M 1517 166 
C 1261 166 1248 197 1248 413 
L 1248 2202 
L 2432 2202 
C 3091 2202 3411 1625 3411 1162 
C 3411 699 3046 166 2349 166 
L 1517 166 
z
" transform="scale(0.015625)"/>
       <path id="CMR17-29" d="M 1683 1581 
C 1683 2040 1638 2817 1254 3639 
C 947 4303 422 4768 346 4768 
C 326 4768 301 4761 301 4729 
C 301 4717 307 4710 314 4697 
C 621 4378 1402 3568 1402 1584 
C 1402 -407 627 -1217 314 -1537 
C 307 -1549 301 -1556 301 -1568 
C 301 -1600 326 -1600 346 -1600 
C 416 -1600 960 -1128 1274 -426 
C 1594 281 1683 969 1683 1581 
z
" transform="scale(0.015625)"/>
      </defs>
      <use xlink:href="#CMR17-50" transform="scale(0.996264)"/>
      <use xlink:href="#CMR17-53" transform="translate(62.586301 0) scale(0.996264)"/>
      <use xlink:href="#CMR17-4e" transform="translate(113.48167 0) scale(0.996264)"/>
      <use xlink:href="#CMR17-52" transform="translate(182.5541 0) scale(0.996264)"/>
      <use xlink:href="#CMR17-28" transform="translate(280.421168 0) scale(0.996264)"/>
      <use xlink:href="#CMR17-64" transform="translate(315.701936 0) scale(0.996264)"/>
      <use xlink:href="#CMR17-42" transform="translate(366.597306 0) scale(0.996264)"/>
      <use xlink:href="#CMR17-29" transform="translate(431.78606 0) scale(0.996264)"/>
     </g>
    </g>
   </g>
   <g id="PolyCollection_1">
    <defs>
     <path id="m33d4a83e8e" d="M 105.479314 -120.998928 
L 105.479314 -95.901075 
L 117.003526 -152.769821 
L 128.527737 -159.311633 
L 140.051949 -159.412577 
L 151.576161 -165.710393 
L 163.100372 -165.164319 
L 174.624584 -170.34445 
L 186.148795 -169.293583 
L 197.673007 -172.77568 
L 209.197218 -171.21874 
L 220.72143 -175.282994 
L 232.245642 -181.585406 
L 243.769853 -185.783824 
L 255.294065 -194.443867 
L 266.818276 -191.605398 
L 278.342488 -198.860444 
L 289.866699 -198.276478 
L 301.390911 -195.340154 
L 312.915123 -199.136607 
L 324.439334 -195.95945 
L 335.963546 -199.272579 
L 347.487757 -192.820787 
L 359.011969 -201.757596 
L 370.536181 -203.121763 
L 382.060392 -203.897145 
L 393.584604 -201.550134 
L 405.108815 -205.691301 
L 416.633027 -203.044172 
L 428.157238 -202.100427 
L 439.68145 -202.957994 
L 451.205662 -201.844753 
L 462.729873 -207.257657 
L 474.254085 -202.726201 
L 485.778296 -206.409054 
L 497.302508 -205.272763 
L 508.82672 -206.262988 
L 520.350931 -206.638738 
L 531.875143 -207.9788 
L 543.399354 -209.522029 
L 554.923566 -206.271952 
L 566.447777 -203.906561 
L 577.971989 -209.297844 
L 589.496201 -204.389432 
L 601.020412 -210.225921 
L 612.544624 -209.549525 
L 624.068835 -206.785558 
L 635.593047 -212.831392 
L 647.117258 -209.671938 
L 658.64147 -211.047857 
L 670.165682 -216.094276 
L 670.165682 -227.421937 
L 670.165682 -227.421937 
L 658.64147 -229.78891 
L 647.117258 -239.83459 
L 635.593047 -231.091608 
L 624.068835 -232.08688 
L 612.544624 -228.532089 
L 601.020412 -229.60563 
L 589.496201 -229.748759 
L 577.971989 -224.467459 
L 566.447777 -227.693731 
L 554.923566 -221.894229 
L 543.399354 -226.500791 
L 531.875143 -227.261181 
L 520.350931 -231.198427 
L 508.82672 -222.679554 
L 497.302508 -223.429398 
L 485.778296 -223.030822 
L 474.254085 -225.406232 
L 462.729873 -223.848238 
L 451.205662 -222.294538 
L 439.68145 -225.986356 
L 428.157238 -223.62089 
L 416.633027 -222.603244 
L 405.108815 -221.784924 
L 393.584604 -218.357518 
L 382.060392 -219.058322 
L 370.536181 -225.473352 
L 359.011969 -219.097418 
L 347.487757 -215.228648 
L 335.963546 -211.832881 
L 324.439334 -216.021581 
L 312.915123 -213.998569 
L 301.390911 -210.594817 
L 289.866699 -213.944783 
L 278.342488 -209.457847 
L 266.818276 -209.010382 
L 255.294065 -211.988062 
L 243.769853 -209.79194 
L 232.245642 -210.897346 
L 220.72143 -208.371274 
L 209.197218 -206.152326 
L 197.673007 -206.580281 
L 186.148795 -200.727069 
L 174.624584 -193.25635 
L 163.100372 -186.150836 
L 151.576161 -174.939485 
L 140.051949 -176.672247 
L 128.527737 -169.290495 
L 117.003526 -165.860527 
L 105.479314 -120.998928 
z
" style="stroke: #ffffff; stroke-opacity: 0.2"/>
    </defs>
    <g clip-path="url(#paff6a50244)">
     <use xlink:href="#m33d4a83e8e" x="0" y="576" style="fill: #4c72b0; fill-opacity: 0.2; stroke: #ffffff; stroke-opacity: 0.2"/>
    </g>
   </g>
   <g id="PolyCollection_2">
    <defs>
     <path id="mb71ad3ae83" d="M 105.479314 -158.05308 
L 105.479314 -133.32141 
L 117.003526 -159.73778 
L 128.527737 -176.805282 
L 140.051949 -181.696745 
L 151.576161 -180.464783 
L 163.100372 -187.992753 
L 174.624584 -191.011564 
L 186.148795 -192.127818 
L 197.673007 -192.360063 
L 209.197218 -193.029905 
L 220.72143 -195.96977 
L 232.245642 -197.467349 
L 243.769853 -201.709534 
L 255.294065 -199.36388 
L 266.818276 -199.111748 
L 278.342488 -202.414632 
L 289.866699 -202.103967 
L 301.390911 -202.463296 
L 312.915123 -204.271163 
L 324.439334 -203.674692 
L 335.963546 -205.917671 
L 347.487757 -204.583937 
L 359.011969 -207.379542 
L 370.536181 -203.847878 
L 382.060392 -204.475083 
L 393.584604 -208.008857 
L 405.108815 -208.391613 
L 416.633027 -208.150328 
L 428.157238 -211.174187 
L 439.68145 -209.40263 
L 451.205662 -210.198426 
L 462.729873 -211.288464 
L 474.254085 -214.17748 
L 485.778296 -212.981527 
L 497.302508 -212.928418 
L 508.82672 -215.982183 
L 520.350931 -213.912014 
L 531.875143 -212.266862 
L 543.399354 -214.464868 
L 554.923566 -214.860958 
L 566.447777 -216.069642 
L 577.971989 -217.685717 
L 589.496201 -216.067006 
L 601.020412 -214.628336 
L 612.544624 -217.070037 
L 624.068835 -216.212169 
L 635.593047 -218.425918 
L 647.117258 -220.020825 
L 658.64147 -218.133258 
L 670.165682 -219.945644 
L 670.165682 -229.194625 
L 670.165682 -229.194625 
L 658.64147 -229.169012 
L 647.117258 -226.877897 
L 635.593047 -227.015678 
L 624.068835 -227.9769 
L 612.544624 -229.755313 
L 601.020412 -226.70652 
L 589.496201 -229.770906 
L 577.971989 -227.626385 
L 566.447777 -228.174795 
L 554.923566 -229.944092 
L 543.399354 -223.212897 
L 531.875143 -224.321543 
L 520.350931 -224.773302 
L 508.82672 -224.191295 
L 497.302508 -222.244594 
L 485.778296 -222.343428 
L 474.254085 -226.462297 
L 462.729873 -222.091672 
L 451.205662 -221.240809 
L 439.68145 -220.048321 
L 428.157238 -223.28077 
L 416.633027 -221.016549 
L 405.108815 -218.699822 
L 393.584604 -221.605787 
L 382.060392 -217.230718 
L 370.536181 -216.857453 
L 359.011969 -217.474037 
L 347.487757 -216.643815 
L 335.963546 -212.739488 
L 324.439334 -212.586642 
L 312.915123 -214.342003 
L 301.390911 -211.26014 
L 289.866699 -212.103846 
L 278.342488 -209.800603 
L 266.818276 -208.794031 
L 255.294065 -210.188783 
L 243.769853 -213.40466 
L 232.245642 -207.021721 
L 220.72143 -206.33764 
L 209.197218 -207.350992 
L 197.673007 -201.90208 
L 186.148795 -199.627915 
L 174.624584 -199.110392 
L 163.100372 -197.616052 
L 151.576161 -195.403357 
L 140.051949 -193.988943 
L 128.527737 -189.050775 
L 117.003526 -185.809436 
L 105.479314 -158.05308 
z
" style="stroke: #ffffff; stroke-opacity: 0.2"/>
    </defs>
    <g clip-path="url(#paff6a50244)">
     <use xlink:href="#mb71ad3ae83" x="0" y="576" style="fill: #dd8452; fill-opacity: 0.2; stroke: #ffffff; stroke-opacity: 0.2"/>
    </g>
   </g>
   <g id="PolyCollection_3">
    <defs>
     <path id="m5875b9beff" d="M 105.479314 -165.412007 
L 105.479314 -139.780359 
L 117.003526 -202.115116 
L 128.527737 -219.333656 
L 140.051949 -253.481616 
L 151.576161 -271.372484 
L 163.100372 -278.999966 
L 174.624584 -297.193514 
L 186.148795 -321.142119 
L 197.673007 -338.626803 
L 209.197218 -342.744014 
L 220.72143 -342.133759 
L 232.245642 -355.253242 
L 243.769853 -365.987597 
L 255.294065 -374.17991 
L 266.818276 -356.753683 
L 278.342488 -345.520863 
L 289.866699 -391.462255 
L 301.390911 -390.865936 
L 312.915123 -392.520956 
L 324.439334 -393.286846 
L 335.963546 -393.210912 
L 347.487757 -404.641627 
L 359.011969 -409.852869 
L 370.536181 -406.960162 
L 382.060392 -412.712732 
L 393.584604 -416.906556 
L 405.108815 -416.216148 
L 416.633027 -414.832093 
L 428.157238 -430.44631 
L 439.68145 -373.560389 
L 451.205662 -399.452079 
L 462.729873 -420.166878 
L 474.254085 -381.721138 
L 485.778296 -424.313318 
L 497.302508 -435.070423 
L 508.82672 -423.499593 
L 520.350931 -431.778462 
L 531.875143 -443.706134 
L 543.399354 -435.623955 
L 554.923566 -448.988113 
L 566.447777 -460.408281 
L 577.971989 -455.258508 
L 589.496201 -457.815315 
L 601.020412 -413.003585 
L 612.544624 -427.505918 
L 624.068835 -451.404201 
L 635.593047 -468.495206 
L 647.117258 -446.83184 
L 658.64147 -449.873025 
L 670.165682 -451.89566 
L 670.165682 -518.237872 
L 670.165682 -518.237872 
L 658.64147 -532.566718 
L 647.117258 -505.521259 
L 635.593047 -511.343963 
L 624.068835 -514.528879 
L 612.544624 -502.274948 
L 601.020412 -496.960276 
L 589.496201 -494.48219 
L 577.971989 -498.562716 
L 566.447777 -495.210263 
L 554.923566 -498.999484 
L 543.399354 -496.000259 
L 531.875143 -481.796689 
L 520.350931 -486.596172 
L 508.82672 -495.478818 
L 497.302508 -477.691605 
L 485.778296 -485.687003 
L 474.254085 -486.170779 
L 462.729873 -471.564113 
L 451.205662 -479.794242 
L 439.68145 -472.579272 
L 428.157238 -469.341097 
L 416.633027 -473.491153 
L 405.108815 -458.698947 
L 393.584604 -470.675509 
L 382.060392 -458.101949 
L 370.536181 -449.353543 
L 359.011969 -446.963217 
L 347.487757 -444.301927 
L 335.963546 -442.190627 
L 324.439334 -438.454966 
L 312.915123 -436.934638 
L 301.390911 -443.127894 
L 289.866699 -429.604035 
L 278.342488 -424.417953 
L 266.818276 -422.65649 
L 255.294065 -410.791492 
L 243.769853 -411.569661 
L 232.245642 -398.499746 
L 220.72143 -392.324192 
L 209.197218 -386.085737 
L 197.673007 -368.768664 
L 186.148795 -354.639295 
L 174.624584 -349.036256 
L 163.100372 -326.400217 
L 151.576161 -302.171758 
L 140.051949 -291.586634 
L 128.527737 -272.519774 
L 117.003526 -230.313892 
L 105.479314 -165.412007 
z
" style="stroke: #ffffff; stroke-opacity: 0.2"/>
    </defs>
    <g clip-path="url(#paff6a50244)">
     <use xlink:href="#m5875b9beff" x="0" y="576" style="fill: #55a868; fill-opacity: 0.2; stroke: #ffffff; stroke-opacity: 0.2"/>
    </g>
   </g>
   <g id="line2d_12">
    <path d="M 105.479314 463.658403 
L 117.003526 417.857729 
L 128.527737 411.536447 
L 140.051949 407.869225 
L 151.576161 406.520274 
L 163.100372 400.758023 
L 174.624584 394.14201 
L 186.148795 384.556639 
L 197.673007 382.9542 
L 209.197218 379.11801 
L 220.72143 376.188767 
L 232.245642 376.536193 
L 243.769853 373.131236 
L 255.294065 373.665031 
L 266.818276 371.717952 
L 278.342488 372.786559 
L 289.866699 369.958561 
L 301.390911 371.917089 
L 312.915123 370.438984 
L 324.439334 368.017848 
L 335.963546 368.475596 
L 347.487757 368.467875 
L 359.011969 367.231883 
L 370.536181 367.106193 
L 382.060392 367.415389 
L 393.584604 365.245971 
L 405.108815 363.862217 
L 416.633027 366.746036 
L 428.157238 362.876437 
L 439.68145 361.369555 
L 451.205662 362.912407 
L 462.729873 363.90429 
L 474.254085 361.940676 
L 485.778296 361.036554 
L 497.302508 362.811012 
L 508.82672 360.168328 
L 520.350931 359.487299 
L 531.875143 358.903409 
L 543.399354 358.478203 
L 554.923566 359.139307 
L 566.447777 358.441818 
L 577.971989 356.69674 
L 589.496201 356.799228 
L 601.020412 356.600693 
L 612.544624 354.301593 
L 624.068835 355.6548 
L 635.593047 355.992019 
L 647.117258 353.493594 
L 658.64147 353.541617 
L 670.165682 353.19227 
" clip-path="url(#paff6a50244)" style="fill: none; stroke: #4c72b0; stroke-width: 2; stroke-linecap: round"/>
   </g>
   <g id="line2d_13">
    <path d="M 105.479314 424.282929 
L 117.003526 397.138937 
L 128.527737 393.278642 
L 140.051949 389.624753 
L 151.576161 385.976288 
L 163.100372 383.145201 
L 174.624584 381.953504 
L 186.148795 381.467167 
L 197.673007 378.743276 
L 209.197218 375.588606 
L 220.72143 374.12986 
L 232.245642 374.018935 
L 243.769853 370.784112 
L 255.294065 370.65556 
L 266.818276 371.411393 
L 278.342488 369.510266 
L 289.866699 369.745676 
L 301.390911 369.323295 
L 312.915123 368.631908 
L 324.439334 367.882139 
L 335.963546 366.381058 
L 347.487757 365.597315 
L 359.011969 364.999639 
L 370.536181 365.245067 
L 382.060392 363.5766 
L 393.584604 363.295955 
L 405.108815 362.012165 
L 416.633027 363.097948 
L 428.157238 360.364678 
L 439.68145 359.503871 
L 451.205662 358.968269 
L 462.729873 360.343322 
L 474.254085 357.283907 
L 485.778296 358.565324 
L 497.302508 356.682578 
L 508.82672 357.688811 
L 520.350931 355.896462 
L 531.875143 355.923204 
L 543.399354 357.054185 
L 554.923566 354.561899 
L 566.447777 354.735047 
L 577.971989 353.113361 
L 589.496201 353.501466 
L 601.020412 354.032624 
L 612.544624 352.693994 
L 624.068835 352.729927 
L 635.593047 352.262837 
L 647.117258 351.684258 
L 658.64147 352.322123 
L 670.165682 350.509849 
" clip-path="url(#paff6a50244)" style="fill: none; stroke: #dd8452; stroke-width: 2; stroke-linecap: round"/>
   </g>
   <g id="line2d_14">
    <path d="M 105.479314 426.843691 
L 117.003526 363.589858 
L 128.527737 333.56864 
L 140.051949 306.927595 
L 151.576161 291.929886 
L 163.100372 272.478801 
L 174.624584 250.812046 
L 186.148795 230.111032 
L 197.673007 214.726612 
L 209.197218 211.188997 
L 220.72143 200.417051 
L 232.245642 198.054372 
L 243.769853 182.330887 
L 255.294065 179.681612 
L 266.818276 173.881244 
L 278.342488 169.213476 
L 289.866699 163.29062 
L 301.390911 165.057243 
L 312.915123 159.105384 
L 324.439334 158.856378 
L 335.963546 153.832446 
L 347.487757 152.096143 
L 359.011969 144.838084 
L 370.536181 138.691231 
L 382.060392 139.813436 
L 393.584604 136.452283 
L 405.108815 130.823368 
L 416.633027 128.205732 
L 428.157238 129.394529 
L 439.68145 117.203048 
L 451.205662 120.922663 
L 462.729873 117.479286 
L 474.254085 120.89012 
L 485.778296 124.993697 
L 497.302508 115.788069 
L 508.82672 108.760786 
L 520.350931 109.983859 
L 531.875143 106.983391 
L 543.399354 104.688434 
L 554.923566 100.762036 
L 566.447777 99.938368 
L 577.971989 95.31659 
L 589.496201 99.814147 
L 601.020412 90.748447 
L 612.544624 91.162805 
L 624.068835 88.542042 
L 635.593047 85.591141 
L 647.117258 84.837719 
L 658.64147 82.957874 
L 670.165682 80.613726 
" clip-path="url(#paff6a50244)" style="fill: none; stroke: #55a868; stroke-width: 2; stroke-linecap: round"/>
   </g>
   <g id="patch_3">
    <path d="M 77.244996 501.932207 
L 77.244996 21.6 
" style="fill: none; stroke: #cccccc; stroke-width: 1.25; stroke-linejoin: miter; stroke-linecap: square"/>
   </g>
   <g id="patch_4">
    <path d="M 698.4 501.932207 
L 698.4 21.6 
" style="fill: none; stroke: #cccccc; stroke-width: 1.25; stroke-linejoin: miter; stroke-linecap: square"/>
   </g>
   <g id="patch_5">
    <path d="M 77.244996 501.932207 
L 698.4 501.932207 
" style="fill: none; stroke: #cccccc; stroke-width: 1.25; stroke-linejoin: miter; stroke-linecap: square"/>
   </g>
   <g id="patch_6">
    <path d="M 77.244996 21.6 
L 698.4 21.6 
" style="fill: none; stroke: #cccccc; stroke-width: 1.25; stroke-linejoin: miter; stroke-linecap: square"/>
   </g>
   <g id="legend_1">
    <g id="patch_7">
     <path d="M 542.218822 332.169821 
L 681.6 332.169821 
Q 686.4 332.169821 686.4 327.369821 
L 686.4 196.162386 
Q 686.4 191.362386 681.6 191.362386 
L 542.218822 191.362386 
Q 537.418822 191.362386 537.418822 196.162386 
L 537.418822 327.369821 
Q 537.418822 332.169821 542.218822 332.169821 
z
" style="fill: #ffffff; opacity: 0.8; stroke: #cccccc; stroke-linejoin: miter"/>
    </g>
    <g id="text_14">
     <!-- Model -->
     <g style="fill: #262626" transform="translate(582.001584 217.566792) scale(0.24 -0.24)">
      <defs>
       <path id="CMR17-4d" d="M 1338 4224 
C 1299 4320 1293 4320 1158 4320 
L 339 4320 
L 339 4160 
C 781 4160 851 4160 851 3875 
L 851 610 
C 851 451 851 153 339 153 
L 339 -13 
C 486 0 755 0 915 0 
C 1075 0 1344 0 1491 -13 
L 1491 153 
C 979 153 979 451 979 610 
L 979 4135 
L 986 4135 
L 2490 89 
C 2515 25 2528 -13 2579 -13 
C 2630 -13 2643 25 2669 89 
L 4186 4166 
L 4192 4166 
L 4192 438 
C 4192 153 4122 153 3680 153 
L 3680 -13 
C 3853 0 4198 0 4384 0 
C 4570 0 4922 0 5094 -13 
L 5094 153 
C 4653 153 4582 153 4582 438 
L 4582 3875 
C 4582 4160 4653 4160 5094 4160 
L 5094 4320 
L 4282 4320 
C 4147 4320 4141 4314 4102 4218 
L 2720 502 
L 1338 4224 
z
" transform="scale(0.015625)"/>
       <path id="CMR17-65" d="M 2438 1472 
C 2464 1498 2464 1511 2464 1576 
C 2464 2238 2118 2816 1389 2816 
C 710 2816 173 2169 173 1383 
C 173 551 781 -64 1459 -64 
C 2176 -64 2458 607 2458 740 
C 2458 784 2419 784 2406 784 
C 2362 784 2355 771 2330 696 
C 2189 265 1837 51 1504 51 
C 1229 51 954 203 781 480 
C 582 803 582 1176 582 1472 
L 2438 1472 
z
M 589 1568 
C 634 2505 1126 2714 1382 2714 
C 1818 2714 2112 2297 2118 1568 
L 589 1568 
z
" transform="scale(0.015625)"/>
       <path id="CMR17-6c" d="M 979 4396 
L 218 4326 
L 218 4160 
C 595 4160 653 4122 653 3817 
L 653 426 
C 653 184 627 153 218 153 
L 218 -13 
C 371 0 653 0 813 0 
C 979 0 1261 0 1414 -13 
L 1414 153 
C 1005 153 979 178 979 426 
L 979 4396 
z
" transform="scale(0.015625)"/>
      </defs>
      <use xlink:href="#CMR17-4d" transform="scale(0.996264)"/>
      <use xlink:href="#CMR17-6f" transform="translate(84.686941 0) scale(0.996264)"/>
      <use xlink:href="#CMR17-64" transform="translate(132.979856 0) scale(0.996264)"/>
      <use xlink:href="#CMR17-65" transform="translate(183.875226 0) scale(0.996264)"/>
      <use xlink:href="#CMR17-6c" transform="translate(224.360887 0) scale(0.996264)"/>
     </g>
    </g>
    <g id="line2d_15">
     <path d="M 547.018822 242.617549 
L 571.018822 242.617549 
L 595.018822 242.617549 
" style="fill: none; stroke: #4c72b0; stroke-width: 2; stroke-linecap: round"/>
    </g>
    <g id="text_15">
     <!-- CAE -->
     <g style="fill: #262626" transform="translate(614.218822 251.017549) scale(0.24 -0.24)">
      <defs>
       <path id="CMR17-43" d="M 3974 4289 
C 3974 4403 3968 4410 3930 4410 
C 3904 4410 3898 4403 3853 4327 
L 3571 3792 
C 3258 4187 2874 4416 2381 4416 
C 1286 4416 294 3456 294 2148 
C 294 826 1286 -128 2387 -128 
C 3366 -128 3974 730 3974 1461 
C 3974 1524 3974 1550 3917 1550 
C 3866 1550 3866 1531 3859 1474 
C 3808 585 3168 38 2477 38 
C 1824 38 781 495 781 2147 
C 781 3805 1843 4250 2464 4250 
C 3187 4250 3712 3628 3834 2745 
C 3846 2668 3846 2655 3904 2655 
C 3974 2655 3974 2668 3974 2783 
L 3974 4289 
z
" transform="scale(0.015625)"/>
       <path id="CMR17-41" d="M 2323 4378 
C 2291 4461 2278 4480 2214 4480 
C 2150 4480 2138 4461 2106 4378 
L 749 566 
C 627 223 371 153 147 153 
L 147 -13 
C 262 0 518 0 640 0 
C 800 0 1056 0 1210 -13 
L 1210 153 
C 909 153 864 361 864 439 
C 864 497 877 530 890 569 
L 1229 1536 
L 2906 1536 
L 3290 442 
C 3322 365 3322 352 3322 327 
C 3322 153 3046 153 2925 153 
L 2925 0 
C 3110 0 3443 0 3642 0 
C 3808 0 4128 0 4282 -13 
L 4282 153 
C 3942 153 3827 153 3744 387 
L 2323 4378 
z
M 2067 3893 
L 2848 1702 
L 1286 1702 
L 2067 3893 
z
" transform="scale(0.015625)"/>
      </defs>
      <use xlink:href="#CMR17-43" transform="scale(0.996264)"/>
      <use xlink:href="#CMR17-41" transform="translate(66.509881 0) scale(0.996264)"/>
      <use xlink:href="#CMR17-45" transform="translate(135.58231 0) scale(0.996264)"/>
     </g>
    </g>
    <g id="line2d_16">
     <path d="M 547.018822 276.068306 
L 571.018822 276.068306 
L 595.018822 276.068306 
" style="fill: none; stroke: #dd8452; stroke-width: 2; stroke-linecap: round"/>
    </g>
    <g id="text_16">
     <!-- PCAE -->
     <g style="fill: #262626" transform="translate(614.218822 284.468306) scale(0.24 -0.24)">
      <use xlink:href="#CMR17-50" transform="scale(0.996264)"/>
      <use xlink:href="#CMR17-43" transform="translate(62.586301 0) scale(0.996264)"/>
      <use xlink:href="#CMR17-41" transform="translate(129.096181 0) scale(0.996264)"/>
      <use xlink:href="#CMR17-45" transform="translate(198.168611 0) scale(0.996264)"/>
     </g>
    </g>
    <g id="line2d_17">
     <path d="M 547.018822 309.519063 
L 571.018822 309.519063 
L 595.018822 309.519063 
" style="fill: none; stroke: #55a868; stroke-width: 2; stroke-linecap: round"/>
    </g>
    <g id="text_17">
     <!-- GAN -->
     <g style="fill: #262626" transform="translate(614.218822 317.919063) scale(0.24 -0.24)">
      <defs>
       <path id="CMR17-47" d="M 3974 1233 
C 3974 1473 3994 1505 4390 1505 
L 4390 1670 
C 4237 1664 3891 1664 3718 1664 
C 3539 1664 3040 1664 2797 1664 
L 2797 1505 
L 2989 1505 
C 3539 1505 3552 1434 3552 1201 
L 3552 774 
C 3552 63 2720 63 2522 63 
C 1862 63 781 511 781 2160 
C 781 3808 1843 4250 2464 4250 
C 3187 4250 3712 3626 3834 2741 
C 3846 2664 3846 2651 3904 2651 
C 3974 2651 3974 2664 3974 2779 
L 3974 4288 
C 3974 4402 3968 4409 3930 4409 
C 3904 4409 3898 4402 3853 4326 
L 3571 3791 
C 3258 4187 2874 4416 2381 4416 
C 1286 4416 294 3456 294 2148 
C 294 845 1267 -128 2394 -128 
C 2912 -128 3418 56 3616 417 
C 3725 158 3904 -20 3936 -20 
C 3968 -20 3974 -13 3974 100 
L 3974 1233 
z
" transform="scale(0.015625)"/>
      </defs>
      <use xlink:href="#CMR17-47" transform="scale(0.996264)"/>
      <use xlink:href="#CMR17-41" transform="translate(72.355346 0) scale(0.996264)"/>
      <use xlink:href="#CMR17-4e" transform="translate(141.427776 0) scale(0.996264)"/>
     </g>
    </g>
   </g>
  </g>
 </g>
 <defs>
  <clipPath id="paff6a50244">
   <rect x="77.244996" y="21.6" width="621.155004" height="480.332207"/>
  </clipPath>
 </defs>
</svg>
