<?xml version="1.0" encoding="utf-8" standalone="no"?>
<!DOCTYPE svg PUBLIC "-//W3C//DTD SVG 1.1//EN"
  "http://www.w3.org/Graphics/SVG/1.1/DTD/svg11.dtd">
<svg xmlns:xlink="http://www.w3.org/1999/xlink" width="720pt" height="576pt" viewBox="0 0 720 576" xmlns="http://www.w3.org/2000/svg" version="1.1">
 <metadata>
  <rdf:RDF xmlns:dc="http://purl.org/dc/elements/1.1/" xmlns:cc="http://creativecommons.org/ns#" xmlns:rdf="http://www.w3.org/1999/02/22-rdf-syntax-ns#">
   <cc:Work>
    <dc:type rdf:resource="http://purl.org/dc/dcmitype/StillImage"/>
    <dc:date>2025-04-25T12:18:11.908229</dc:date>
    <dc:format>image/svg+xml</dc:format>
    <dc:creator>
     <cc:Agent>
      <dc:title>Matplotlib v3.9.2, https://matplotlib.org/</dc:title>
     </cc:Agent>
    </dc:creator>
   </cc:Work>
  </rdf:RDF>
 </metadata>
 <defs>
  <style type="text/css">*{stroke-linejoin: round; stroke-linecap: butt}</style>
 </defs>
 <g id="figure_1">
  <g id="patch_1">
   <path d="M 0 576 
L 720 576 
L 720 0 
L 0 0 
z
" style="fill: #ffffff"/>
  </g>
  <g id="axes_1">
   <g id="patch_2">
    <path d="M 89.188884 501.932207 
L 698.4 501.932207 
L 698.4 21.6 
L 89.188884 21.6 
z
" style="fill: #ffffff"/>
   </g>
   <g id="matplotlib.axis_1">
    <g id="xtick_1">
     <g id="line2d_1">
      <path d="M 105.57768 501.932207 
L 105.57768 21.6 
" clip-path="url(#p04fca62209)" style="fill: none; stroke: #cccccc; stroke-linecap: round"/>
     </g>
     <g id="text_1">
      <!-- $\mathdefault{0}$ -->
      <g style="fill: #262626" transform="translate(101.008633 525.269204) scale(0.2 -0.2)">
       <defs>
        <path id="CMR17-30" d="M 2688 2025 
C 2688 2416 2682 3080 2413 3591 
C 2176 4039 1798 4198 1466 4198 
C 1158 4198 768 4058 525 3597 
C 269 3118 243 2524 243 2025 
C 243 1661 250 1106 448 619 
C 723 -39 1216 -128 1466 -128 
C 1760 -128 2208 -7 2470 600 
C 2662 1042 2688 1559 2688 2025 
z
M 1466 -26 
C 1056 -26 813 325 723 812 
C 653 1188 653 1738 653 2096 
C 653 2588 653 2997 736 3387 
C 858 3929 1216 4096 1466 4096 
C 1728 4096 2067 3923 2189 3400 
C 2272 3036 2278 2607 2278 2096 
C 2278 1680 2278 1169 2202 792 
C 2067 95 1690 -26 1466 -26 
z
" transform="scale(0.015625)"/>
       </defs>
       <use xlink:href="#CMR17-30" transform="scale(0.996264)"/>
      </g>
     </g>
    </g>
    <g id="xtick_2">
     <g id="line2d_2">
      <path d="M 218.603862 501.932207 
L 218.603862 21.6 
" clip-path="url(#p04fca62209)" style="fill: none; stroke: #cccccc; stroke-linecap: round"/>
     </g>
     <g id="text_2">
      <!-- $\mathdefault{10}$ -->
      <g style="fill: #262626" transform="translate(209.465766 525.269204) scale(0.2 -0.2)">
       <defs>
        <path id="CMR17-31" d="M 1702 4058 
C 1702 4192 1696 4192 1606 4192 
C 1357 3916 979 3827 621 3827 
C 602 3827 570 3827 563 3808 
C 557 3795 557 3782 557 3648 
C 755 3648 1088 3686 1344 3839 
L 1344 461 
C 1344 236 1331 160 781 160 
L 589 160 
L 589 0 
C 896 0 1216 0 1523 0 
C 1830 0 2150 0 2458 0 
L 2458 160 
L 2266 160 
C 1715 160 1702 230 1702 458 
L 1702 4058 
z
" transform="scale(0.015625)"/>
       </defs>
       <use xlink:href="#CMR17-31" transform="scale(0.996264)"/>
       <use xlink:href="#CMR17-30" transform="translate(45.690477 0) scale(0.996264)"/>
      </g>
     </g>
    </g>
    <g id="xtick_3">
     <g id="line2d_3">
      <path d="M 331.630043 501.932207 
L 331.630043 21.6 
" clip-path="url(#p04fca62209)" style="fill: none; stroke: #cccccc; stroke-linecap: round"/>
     </g>
     <g id="text_3">
      <!-- $\mathdefault{20}$ -->
      <g style="fill: #262626" transform="translate(322.491947 525.269204) scale(0.2 -0.2)">
       <defs>
        <path id="CMR17-32" d="M 2669 989 
L 2554 989 
C 2490 536 2438 459 2413 420 
C 2381 369 1920 369 1830 369 
L 602 369 
C 832 619 1280 1072 1824 1597 
C 2214 1967 2669 2402 2669 3035 
C 2669 3790 2067 4224 1395 4224 
C 691 4224 262 3604 262 3030 
C 262 2780 448 2748 525 2748 
C 589 2748 781 2787 781 3010 
C 781 3207 614 3264 525 3264 
C 486 3264 448 3258 422 3245 
C 544 3790 915 4058 1306 4058 
C 1862 4058 2227 3617 2227 3035 
C 2227 2479 1901 2000 1536 1584 
L 262 146 
L 262 0 
L 2515 0 
L 2669 989 
z
" transform="scale(0.015625)"/>
       </defs>
       <use xlink:href="#CMR17-32" transform="scale(0.996264)"/>
       <use xlink:href="#CMR17-30" transform="translate(45.690477 0) scale(0.996264)"/>
      </g>
     </g>
    </g>
    <g id="xtick_4">
     <g id="line2d_4">
      <path d="M 444.656224 501.932207 
L 444.656224 21.6 
" clip-path="url(#p04fca62209)" style="fill: none; stroke: #cccccc; stroke-linecap: round"/>
     </g>
     <g id="text_4">
      <!-- $\mathdefault{30}$ -->
      <g style="fill: #262626" transform="translate(435.518128 525.269204) scale(0.2 -0.2)">
       <defs>
        <path id="CMR17-33" d="M 1414 2157 
C 1984 2157 2234 1662 2234 1090 
C 2234 320 1824 25 1453 25 
C 1114 25 563 194 390 693 
C 422 680 454 680 486 680 
C 640 680 755 782 755 948 
C 755 1133 614 1216 486 1216 
C 378 1216 211 1165 211 926 
C 211 335 787 -128 1466 -128 
C 2176 -128 2720 430 2720 1085 
C 2720 1707 2208 2157 1600 2227 
C 2086 2328 2554 2756 2554 3329 
C 2554 3820 2048 4179 1472 4179 
C 890 4179 378 3829 378 3329 
C 378 3110 544 3072 627 3072 
C 762 3072 877 3155 877 3321 
C 877 3486 762 3569 627 3569 
C 602 3569 570 3569 544 3557 
C 730 3959 1235 4032 1459 4032 
C 1683 4032 2106 3925 2106 3320 
C 2106 3143 2080 2828 1862 2550 
C 1670 2304 1453 2304 1242 2284 
C 1210 2284 1062 2269 1037 2269 
C 992 2263 966 2257 966 2208 
C 966 2163 973 2157 1101 2157 
L 1414 2157 
z
" transform="scale(0.015625)"/>
       </defs>
       <use xlink:href="#CMR17-33" transform="scale(0.996264)"/>
       <use xlink:href="#CMR17-30" transform="translate(45.690477 0) scale(0.996264)"/>
      </g>
     </g>
    </g>
    <g id="xtick_5">
     <g id="line2d_5">
      <path d="M 557.682405 501.932207 
L 557.682405 21.6 
" clip-path="url(#p04fca62209)" style="fill: none; stroke: #cccccc; stroke-linecap: round"/>
     </g>
     <g id="text_5">
      <!-- $\mathdefault{40}$ -->
      <g style="fill: #262626" transform="translate(548.544309 525.269204) scale(0.2 -0.2)">
       <defs>
        <path id="CMR17-34" d="M 2150 4122 
C 2150 4256 2144 4256 2029 4256 
L 128 1254 
L 128 1088 
L 1779 1088 
L 1779 457 
C 1779 224 1766 160 1318 160 
L 1197 160 
L 1197 0 
C 1402 0 1747 0 1965 0 
C 2182 0 2528 0 2733 0 
L 2733 160 
L 2611 160 
C 2163 160 2150 224 2150 457 
L 2150 1088 
L 2803 1088 
L 2803 1254 
L 2150 1254 
L 2150 4122 
z
M 1798 3703 
L 1798 1254 
L 256 1254 
L 1798 3703 
z
" transform="scale(0.015625)"/>
       </defs>
       <use xlink:href="#CMR17-34" transform="scale(0.996264)"/>
       <use xlink:href="#CMR17-30" transform="translate(45.690477 0) scale(0.996264)"/>
      </g>
     </g>
    </g>
    <g id="xtick_6">
     <g id="line2d_6">
      <path d="M 670.708586 501.932207 
L 670.708586 21.6 
" clip-path="url(#p04fca62209)" style="fill: none; stroke: #cccccc; stroke-linecap: round"/>
     </g>
     <g id="text_6">
      <!-- $\mathdefault{50}$ -->
      <g style="fill: #262626" transform="translate(661.57049 525.269204) scale(0.2 -0.2)">
       <defs>
        <path id="CMR17-35" d="M 730 3692 
C 794 3666 1056 3584 1325 3584 
C 1920 3584 2246 3911 2432 4100 
C 2432 4157 2432 4192 2394 4192 
C 2387 4192 2374 4192 2323 4163 
C 2099 4058 1837 3973 1517 3973 
C 1325 3973 1037 3999 723 4139 
C 653 4171 640 4171 634 4171 
C 602 4171 595 4164 595 4037 
L 595 2203 
C 595 2089 595 2057 659 2057 
C 691 2057 704 2070 736 2114 
C 941 2401 1222 2522 1542 2522 
C 1766 2522 2246 2382 2246 1289 
C 2246 1085 2246 715 2054 421 
C 1894 159 1645 25 1370 25 
C 947 25 518 320 403 814 
C 429 807 480 795 506 795 
C 589 795 749 840 749 1038 
C 749 1210 627 1280 506 1280 
C 358 1280 262 1190 262 1011 
C 262 454 704 -128 1382 -128 
C 2042 -128 2669 440 2669 1264 
C 2669 2030 2170 2624 1549 2624 
C 1222 2624 947 2503 730 2274 
L 730 3692 
z
" transform="scale(0.015625)"/>
       </defs>
       <use xlink:href="#CMR17-35" transform="scale(0.996264)"/>
       <use xlink:href="#CMR17-30" transform="translate(45.690477 0) scale(0.996264)"/>
      </g>
     </g>
    </g>
    <g id="text_7">
     <!-- Epoch -->
     <g style="fill: #262626" transform="translate(363.415778 549.749243) scale(0.24 -0.24)">
      <defs>
       <path id="CMR17-45" d="M 3885 1615 
L 3770 1615 
C 3629 676 3546 166 2419 166 
L 1530 166 
C 1274 166 1261 197 1261 414 
L 1261 2176 
L 1862 2176 
C 2464 2176 2522 1960 2522 1430 
L 2637 1430 
L 2637 3081 
L 2522 3081 
C 2522 2557 2464 2342 1862 2342 
L 1261 2342 
L 1261 3913 
C 1261 4128 1274 4160 1530 4160 
L 2406 4160 
C 3398 4160 3514 3769 3603 2929 
L 3718 2929 
L 3565 4325 
L 326 4325 
L 326 4160 
C 768 4160 838 4160 838 3874 
L 838 451 
C 838 166 768 166 326 166 
L 326 0 
L 3654 0 
L 3885 1615 
z
" transform="scale(0.015625)"/>
       <path id="CMR17-70" d="M 1408 -1063 
C 998 -1063 973 -1037 973 -789 
L 973 402 
C 1158 134 1427 -38 1766 -38 
C 2406 -38 3053 523 3053 1388 
C 3053 2191 2496 2802 1837 2802 
C 1453 2802 1139 2592 960 2338 
L 960 2802 
L 198 2732 
L 198 2567 
C 576 2567 634 2528 634 2223 
L 634 -789 
C 634 -1031 608 -1063 198 -1063 
L 198 -1228 
C 352 -1216 634 -1216 800 -1216 
C 966 -1216 1254 -1216 1408 -1228 
L 1408 -1063 
z
M 973 2012 
C 973 2102 973 2235 1222 2471 
C 1254 2497 1472 2688 1792 2688 
C 2259 2688 2643 2108 2643 1382 
C 2643 656 2234 64 1728 64 
C 1498 64 1248 172 1056 472 
C 973 612 973 650 973 752 
L 973 2012 
z
" transform="scale(0.015625)"/>
       <path id="CMR17-6f" d="M 2758 1356 
C 2758 2176 2163 2816 1466 2816 
C 768 2816 173 2176 173 1356 
C 173 551 768 -64 1466 -64 
C 2163 -64 2758 551 2758 1356 
z
M 1466 51 
C 1165 51 909 230 762 480 
C 602 767 582 1126 582 1408 
C 582 1677 595 2010 762 2298 
C 890 2509 1139 2714 1466 2714 
C 1754 2714 1997 2554 2150 2330 
C 2349 2029 2349 1607 2349 1408 
C 2349 1158 2336 775 2163 467 
C 1984 173 1709 51 1466 51 
z
" transform="scale(0.015625)"/>
       <path id="CMR17-63" d="M 2234 2240 
C 2112 2240 1933 2240 1933 2017 
C 1933 1838 2080 1787 2163 1787 
C 2208 1787 2394 1807 2394 2024 
C 2394 2467 1958 2803 1466 2803 
C 787 2803 211 2178 211 1363 
C 211 516 813 -64 1466 -64 
C 2259 -64 2458 677 2458 748 
C 2458 774 2451 793 2406 793 
C 2362 793 2355 787 2330 703 
C 2163 180 1798 51 1523 51 
C 1114 51 621 427 621 1369 
C 621 2338 1094 2688 1472 2688 
C 1722 2688 2093 2573 2234 2240 
z
" transform="scale(0.015625)"/>
       <path id="CMR17-68" d="M 2656 1933 
C 2656 2259 2592 2790 1837 2790 
C 1312 2790 1056 2368 979 2157 
L 973 2157 
L 973 4396 
L 211 4326 
L 211 4160 
C 589 4160 646 4122 646 3817 
L 646 426 
C 646 184 621 153 211 153 
L 211 -13 
C 365 0 646 0 813 0 
C 979 0 1267 0 1421 -13 
L 1421 153 
C 1011 153 986 178 986 428 
L 986 1658 
C 986 2247 1344 2688 1792 2688 
C 2266 2688 2317 2266 2317 1958 
L 2317 428 
C 2317 184 2291 153 1882 153 
L 1882 -13 
C 2035 0 2317 0 2483 0 
C 2650 0 2938 0 3091 -13 
L 3091 153 
C 2682 153 2656 178 2656 428 
L 2656 1933 
z
" transform="scale(0.015625)"/>
      </defs>
      <use xlink:href="#CMR17-45" transform="scale(0.996264)"/>
      <use xlink:href="#CMR17-70" transform="translate(62.586301 0) scale(0.996264)"/>
      <use xlink:href="#CMR17-6f" transform="translate(116.084109 0) scale(0.996264)"/>
      <use xlink:href="#CMR17-63" transform="translate(164.377025 0) scale(0.996264)"/>
      <use xlink:href="#CMR17-68" transform="translate(202.260231 0) scale(0.996264)"/>
     </g>
    </g>
   </g>
   <g id="matplotlib.axis_2">
    <g id="ytick_1">
     <g id="line2d_7">
      <path d="M 89.188884 444.004583 
L 698.4 444.004583 
" clip-path="url(#p04fca62209)" style="fill: none; stroke: #cccccc; stroke-linecap: round"/>
     </g>
     <g id="text_8">
      <!-- $\mathdefault{0.65}$ -->
      <g style="fill: #262626" transform="translate(46.855163 450.923081) scale(0.2 -0.2)">
       <defs>
        <path id="CMMI12-3a" d="M 1178 307 
C 1178 492 1024 619 870 619 
C 685 619 557 466 557 313 
C 557 128 710 0 864 0 
C 1050 0 1178 153 1178 307 
z
" transform="scale(0.015625)"/>
        <path id="CMR17-36" d="M 678 2176 
C 678 3690 1395 4032 1811 4032 
C 1946 4032 2272 4009 2400 3776 
C 2298 3776 2106 3776 2106 3553 
C 2106 3381 2246 3323 2336 3323 
C 2394 3323 2566 3348 2566 3560 
C 2566 3954 2246 4179 1805 4179 
C 1043 4179 243 3390 243 1984 
C 243 253 966 -128 1478 -128 
C 2099 -128 2688 427 2688 1283 
C 2688 2081 2170 2662 1517 2662 
C 1126 2662 838 2407 678 1960 
L 678 2176 
z
M 1478 25 
C 691 25 691 1200 691 1436 
C 691 1896 909 2560 1504 2560 
C 1613 2560 1926 2560 2138 2120 
C 2253 1870 2253 1609 2253 1289 
C 2253 944 2253 690 2118 434 
C 1978 171 1773 25 1478 25 
z
" transform="scale(0.015625)"/>
       </defs>
       <use xlink:href="#CMR17-30" transform="scale(0.996264)"/>
       <use xlink:href="#CMMI12-3a" transform="translate(45.690477 0) scale(0.996264)"/>
       <use xlink:href="#CMR17-36" transform="translate(72.787654 0) scale(0.996264)"/>
       <use xlink:href="#CMR17-35" transform="translate(118.478131 0) scale(0.996264)"/>
      </g>
     </g>
    </g>
    <g id="ytick_2">
     <g id="line2d_8">
      <path d="M 89.188884 377.965461 
L 698.4 377.965461 
" clip-path="url(#p04fca62209)" style="fill: none; stroke: #cccccc; stroke-linecap: round"/>
     </g>
     <g id="text_9">
      <!-- $\mathdefault{0.70}$ -->
      <g style="fill: #262626" transform="translate(46.855163 384.883959) scale(0.2 -0.2)">
       <defs>
        <path id="CMR17-37" d="M 2886 3941 
L 2886 4081 
L 1382 4081 
C 634 4081 621 4165 595 4288 
L 480 4288 
L 294 3094 
L 410 3094 
C 429 3215 474 3540 550 3661 
C 589 3712 1062 3712 1171 3712 
L 2579 3712 
L 1869 2661 
C 1395 1954 1069 999 1069 165 
C 1069 89 1069 -128 1299 -128 
C 1530 -128 1530 89 1530 171 
L 1530 465 
C 1530 1508 1709 2196 2003 2636 
L 2886 3941 
z
" transform="scale(0.015625)"/>
       </defs>
       <use xlink:href="#CMR17-30" transform="scale(0.996264)"/>
       <use xlink:href="#CMMI12-3a" transform="translate(45.690477 0) scale(0.996264)"/>
       <use xlink:href="#CMR17-37" transform="translate(72.787654 0) scale(0.996264)"/>
       <use xlink:href="#CMR17-30" transform="translate(118.478131 0) scale(0.996264)"/>
      </g>
     </g>
    </g>
    <g id="ytick_3">
     <g id="line2d_9">
      <path d="M 89.188884 311.926339 
L 698.4 311.926339 
" clip-path="url(#p04fca62209)" style="fill: none; stroke: #cccccc; stroke-linecap: round"/>
     </g>
     <g id="text_10">
      <!-- $\mathdefault{0.75}$ -->
      <g style="fill: #262626" transform="translate(46.855163 318.844837) scale(0.2 -0.2)">
       <use xlink:href="#CMR17-30" transform="scale(0.996264)"/>
       <use xlink:href="#CMMI12-3a" transform="translate(45.690477 0) scale(0.996264)"/>
       <use xlink:href="#CMR17-37" transform="translate(72.787654 0) scale(0.996264)"/>
       <use xlink:href="#CMR17-35" transform="translate(118.478131 0) scale(0.996264)"/>
      </g>
     </g>
    </g>
    <g id="ytick_4">
     <g id="line2d_10">
      <path d="M 89.188884 245.887217 
L 698.4 245.887217 
" clip-path="url(#p04fca62209)" style="fill: none; stroke: #cccccc; stroke-linecap: round"/>
     </g>
     <g id="text_11">
      <!-- $\mathdefault{0.80}$ -->
      <g style="fill: #262626" transform="translate(46.855163 252.805715) scale(0.2 -0.2)">
       <defs>
        <path id="CMR17-38" d="M 1741 2264 
C 2144 2467 2554 2773 2554 3263 
C 2554 3841 1990 4179 1472 4179 
C 890 4179 378 3759 378 3180 
C 378 3021 416 2747 666 2505 
C 730 2442 998 2251 1171 2130 
C 883 1983 211 1634 211 934 
C 211 279 838 -128 1459 -128 
C 2144 -128 2720 362 2720 1010 
C 2720 1590 2330 1857 2074 2029 
L 1741 2264 
z
M 902 2822 
C 851 2854 595 3051 595 3351 
C 595 3739 998 4032 1459 4032 
C 1965 4032 2336 3676 2336 3262 
C 2336 2669 1670 2331 1638 2331 
C 1632 2331 1626 2331 1574 2370 
L 902 2822 
z
M 2080 1519 
C 2176 1449 2483 1240 2483 851 
C 2483 381 2010 25 1472 25 
C 890 25 448 438 448 940 
C 448 1443 838 1862 1280 2060 
L 2080 1519 
z
" transform="scale(0.015625)"/>
       </defs>
       <use xlink:href="#CMR17-30" transform="scale(0.996264)"/>
       <use xlink:href="#CMMI12-3a" transform="translate(45.690477 0) scale(0.996264)"/>
       <use xlink:href="#CMR17-38" transform="translate(72.787654 0) scale(0.996264)"/>
       <use xlink:href="#CMR17-30" transform="translate(118.478131 0) scale(0.996264)"/>
      </g>
     </g>
    </g>
    <g id="ytick_5">
     <g id="line2d_11">
      <path d="M 89.188884 179.848095 
L 698.4 179.848095 
" clip-path="url(#p04fca62209)" style="fill: none; stroke: #cccccc; stroke-linecap: round"/>
     </g>
     <g id="text_12">
      <!-- $\mathdefault{0.85}$ -->
      <g style="fill: #262626" transform="translate(46.855163 186.766593) scale(0.2 -0.2)">
       <use xlink:href="#CMR17-30" transform="scale(0.996264)"/>
       <use xlink:href="#CMMI12-3a" transform="translate(45.690477 0) scale(0.996264)"/>
       <use xlink:href="#CMR17-38" transform="translate(72.787654 0) scale(0.996264)"/>
       <use xlink:href="#CMR17-35" transform="translate(118.478131 0) scale(0.996264)"/>
      </g>
     </g>
    </g>
    <g id="ytick_6">
     <g id="line2d_12">
      <path d="M 89.188884 113.808973 
L 698.4 113.808973 
" clip-path="url(#p04fca62209)" style="fill: none; stroke: #cccccc; stroke-linecap: round"/>
     </g>
     <g id="text_13">
      <!-- $\mathdefault{0.90}$ -->
      <g style="fill: #262626" transform="translate(46.855163 120.727471) scale(0.2 -0.2)">
       <defs>
        <path id="CMR17-39" d="M 2253 1864 
C 2253 464 1670 31 1190 31 
C 1043 31 685 31 538 294 
C 704 268 826 357 826 518 
C 826 692 685 749 595 749 
C 538 749 365 723 365 506 
C 365 71 742 -128 1203 -128 
C 1939 -128 2688 674 2688 2073 
C 2688 3817 1971 4179 1485 4179 
C 851 4179 243 3628 243 2778 
C 243 1991 762 1408 1414 1408 
C 1952 1408 2189 1903 2253 2112 
L 2253 1864 
z
M 1427 1510 
C 1254 1510 1011 1542 813 1922 
C 678 2169 678 2461 678 2771 
C 678 3146 678 3405 858 3684 
C 947 3817 1114 4032 1485 4032 
C 2240 4032 2240 2885 2240 2632 
C 2240 2182 2035 1510 1427 1510 
z
" transform="scale(0.015625)"/>
       </defs>
       <use xlink:href="#CMR17-30" transform="scale(0.996264)"/>
       <use xlink:href="#CMMI12-3a" transform="translate(45.690477 0) scale(0.996264)"/>
       <use xlink:href="#CMR17-39" transform="translate(72.787654 0) scale(0.996264)"/>
       <use xlink:href="#CMR17-30" transform="translate(118.478131 0) scale(0.996264)"/>
      </g>
     </g>
    </g>
    <g id="ytick_7">
     <g id="line2d_13">
      <path d="M 89.188884 47.769851 
L 698.4 47.769851 
" clip-path="url(#p04fca62209)" style="fill: none; stroke: #cccccc; stroke-linecap: round"/>
     </g>
     <g id="text_14">
      <!-- $\mathdefault{0.95}$ -->
      <g style="fill: #262626" transform="translate(46.855163 54.68835) scale(0.2 -0.2)">
       <use xlink:href="#CMR17-30" transform="scale(0.996264)"/>
       <use xlink:href="#CMMI12-3a" transform="translate(45.690477 0) scale(0.996264)"/>
       <use xlink:href="#CMR17-39" transform="translate(72.787654 0) scale(0.996264)"/>
       <use xlink:href="#CMR17-35" transform="translate(118.478131 0) scale(0.996264)"/>
      </g>
     </g>
    </g>
    <g id="text_15">
     <!-- SSIM -->
     <g style="fill: #262626" transform="translate(38.204405 288.060034) rotate(-90) scale(0.24 -0.24)">
      <defs>
       <path id="CMR17-53" d="M 2803 4290 
C 2803 4404 2797 4411 2758 4411 
C 2720 4411 2707 4385 2682 4328 
L 2490 3907 
C 2246 4257 1875 4416 1472 4416 
C 819 4416 294 3901 294 3253 
C 294 3056 339 2776 557 2510 
C 794 2218 1018 2167 1530 2033 
C 1722 1982 2042 1899 2106 1874 
C 2470 1722 2662 1341 2662 985 
C 2662 527 2336 38 1779 38 
C 1094 38 454 419 410 1311 
C 403 1413 397 1419 352 1419 
C 301 1419 294 1413 294 1285 
L 294 -1 
C 294 -115 301 -122 339 -122 
C 384 -122 397 -90 486 108 
C 493 127 493 140 614 381 
C 934 -39 1472 -128 1779 -128 
C 2477 -128 2970 451 2970 1124 
C 2970 1454 2848 1708 2778 1823 
C 2509 2230 2221 2306 1914 2382 
C 1869 2402 1856 2402 1498 2490 
C 1152 2579 1005 2624 845 2796 
C 666 2992 602 3196 602 3399 
C 602 3812 934 4263 1478 4263 
C 2157 4263 2579 3786 2675 2993 
C 2694 2878 2701 2872 2746 2872 
C 2803 2872 2803 2891 2803 2999 
L 2803 4290 
z
" transform="scale(0.015625)"/>
       <path id="CMR17-49" d="M 1261 3905 
C 1261 4192 1338 4192 1798 4192 
L 1798 4352 
C 1594 4352 1267 4352 1050 4352 
C 832 4352 506 4352 301 4352 
L 301 4192 
C 762 4192 838 4192 838 3905 
L 838 447 
C 838 160 762 160 301 160 
L 301 0 
C 506 0 832 0 1050 0 
C 1267 0 1594 0 1798 0 
L 1798 160 
C 1338 160 1261 160 1261 447 
L 1261 3905 
z
" transform="scale(0.015625)"/>
       <path id="CMR17-4d" d="M 1338 4224 
C 1299 4320 1293 4320 1158 4320 
L 339 4320 
L 339 4160 
C 781 4160 851 4160 851 3875 
L 851 610 
C 851 451 851 153 339 153 
L 339 -13 
C 486 0 755 0 915 0 
C 1075 0 1344 0 1491 -13 
L 1491 153 
C 979 153 979 451 979 610 
L 979 4135 
L 986 4135 
L 2490 89 
C 2515 25 2528 -13 2579 -13 
C 2630 -13 2643 25 2669 89 
L 4186 4166 
L 4192 4166 
L 4192 438 
C 4192 153 4122 153 3680 153 
L 3680 -13 
C 3853 0 4198 0 4384 0 
C 4570 0 4922 0 5094 -13 
L 5094 153 
C 4653 153 4582 153 4582 438 
L 4582 3875 
C 4582 4160 4653 4160 5094 4160 
L 5094 4320 
L 4282 4320 
C 4147 4320 4141 4314 4102 4218 
L 2720 502 
L 1338 4224 
z
" transform="scale(0.015625)"/>
      </defs>
      <use xlink:href="#CMR17-53" transform="scale(0.996264)"/>
      <use xlink:href="#CMR17-53" transform="translate(50.89537 0) scale(0.996264)"/>
      <use xlink:href="#CMR17-49" transform="translate(101.79074 0) scale(0.996264)"/>
      <use xlink:href="#CMR17-4d" transform="translate(134.429149 0) scale(0.996264)"/>
     </g>
    </g>
   </g>
   <g id="PolyCollection_1">
    <defs>
     <path id="m8cdf49b354" d="M 116.880299 -267.006899 
L 116.880299 -209.470314 
L 128.182917 -168.137308 
L 139.485535 -192.867638 
L 150.788153 -240.454626 
L 162.090771 -253.012108 
L 173.393389 -256.048587 
L 184.696007 -257.823719 
L 195.998625 -273.605308 
L 207.301243 -254.07017 
L 218.603862 -269.158674 
L 229.90648 -279.489834 
L 241.209098 -285.470337 
L 252.511716 -278.258865 
L 263.814334 -285.613422 
L 275.116952 -283.92238 
L 286.41957 -285.988083 
L 297.722188 -283.372934 
L 309.024806 -277.450546 
L 320.327424 -288.946636 
L 331.630043 -263.756673 
L 342.932661 -286.053682 
L 354.235279 -267.870911 
L 365.537897 -291.358825 
L 376.840515 -289.300606 
L 388.143133 -292.61979 
L 399.445751 -288.530149 
L 410.748369 -297.441909 
L 422.050987 -294.991455 
L 433.353605 -291.089165 
L 444.656224 -292.02472 
L 455.958842 -276.990914 
L 467.26146 -300.057058 
L 478.564078 -291.403291 
L 489.866696 -289.383155 
L 501.169314 -303.142406 
L 512.471932 -299.872608 
L 523.77455 -292.591555 
L 535.077168 -293.590507 
L 546.379787 -297.742607 
L 557.682405 -288.465871 
L 568.985023 -298.884203 
L 580.287641 -303.702418 
L 591.590259 -290.478744 
L 602.892877 -305.793877 
L 614.195495 -299.84045 
L 625.498113 -277.392431 
L 636.800731 -302.480914 
L 648.103349 -303.950284 
L 659.405968 -301.000537 
L 670.708586 -312.656442 
L 670.708586 -357.531026 
L 670.708586 -357.531026 
L 659.405968 -359.846237 
L 648.103349 -375.982457 
L 636.800731 -360.22088 
L 625.498113 -362.576515 
L 614.195495 -380.513841 
L 602.892877 -359.46167 
L 591.590259 -373.135835 
L 580.287641 -357.320901 
L 568.985023 -357.084261 
L 557.682405 -342.612668 
L 546.379787 -362.970248 
L 535.077168 -357.078758 
L 523.77455 -353.006345 
L 512.471932 -346.226329 
L 501.169314 -361.839078 
L 489.866696 -348.762231 
L 478.564078 -353.770638 
L 467.26146 -356.357831 
L 455.958842 -360.45776 
L 444.656224 -363.702922 
L 433.353605 -349.528285 
L 422.050987 -344.076095 
L 410.748369 -351.456627 
L 399.445751 -367.577064 
L 388.143133 -348.201999 
L 376.840515 -359.797368 
L 365.537897 -340.425893 
L 354.235279 -351.662669 
L 342.932661 -341.482519 
L 331.630043 -339.473829 
L 320.327424 -343.356629 
L 309.024806 -355.79936 
L 297.722188 -341.936428 
L 286.41957 -324.391154 
L 275.116952 -338.411699 
L 263.814334 -339.485055 
L 252.511716 -334.00645 
L 241.209098 -335.866111 
L 229.90648 -334.291739 
L 218.603862 -319.440861 
L 207.301243 -341.878753 
L 195.998625 -331.639608 
L 184.696007 -325.331551 
L 173.393389 -321.384613 
L 162.090771 -333.700909 
L 150.788153 -309.756884 
L 139.485535 -272.047885 
L 128.182917 -234.551532 
L 116.880299 -267.006899 
z
" style="stroke: #ffffff; stroke-opacity: 0.2"/>
    </defs>
    <g clip-path="url(#p04fca62209)">
     <use xlink:href="#m8cdf49b354" x="0" y="576" style="fill: #4c72b0; fill-opacity: 0.2; stroke: #ffffff; stroke-opacity: 0.2"/>
    </g>
   </g>
   <g id="PolyCollection_2">
    <defs>
     <path id="med99b7024a" d="M 116.880299 -335.37478 
L 116.880299 -292.294379 
L 128.182917 -287.361457 
L 139.485535 -279.532319 
L 150.788153 -293.736234 
L 162.090771 -279.555528 
L 173.393389 -289.369287 
L 184.696007 -280.995526 
L 195.998625 -294.84215 
L 207.301243 -287.743183 
L 218.603862 -293.389748 
L 229.90648 -303.651194 
L 241.209098 -304.77673 
L 252.511716 -322.462811 
L 263.814334 -325.941312 
L 275.116952 -313.465641 
L 286.41957 -316.741182 
L 297.722188 -313.179252 
L 309.024806 -321.841383 
L 320.327424 -313.014654 
L 331.630043 -301.187648 
L 342.932661 -330.715749 
L 354.235279 -324.358766 
L 365.537897 -327.103696 
L 376.840515 -330.290802 
L 388.143133 -304.76961 
L 399.445751 -322.633853 
L 410.748369 -316.145509 
L 422.050987 -325.916297 
L 433.353605 -329.589753 
L 444.656224 -330.841855 
L 455.958842 -330.272378 
L 467.26146 -324.330053 
L 478.564078 -329.758813 
L 489.866696 -329.748247 
L 501.169314 -326.834841 
L 512.471932 -327.291112 
L 523.77455 -343.463252 
L 535.077168 -331.240952 
L 546.379787 -343.130415 
L 557.682405 -329.667019 
L 568.985023 -342.179932 
L 580.287641 -353.670259 
L 591.590259 -335.236318 
L 602.892877 -335.223637 
L 614.195495 -336.562604 
L 625.498113 -339.875567 
L 636.800731 -342.612668 
L 648.103349 -335.621547 
L 659.405968 -325.838251 
L 670.708586 -343.785523 
L 670.708586 -402.560341 
L 670.708586 -402.560341 
L 659.405968 -389.18874 
L 648.103349 -408.446188 
L 636.800731 -393.967111 
L 625.498113 -393.235617 
L 614.195495 -387.951569 
L 602.892877 -384.74915 
L 591.590259 -384.196182 
L 580.287641 -389.599676 
L 568.985023 -401.137859 
L 557.682405 -388.634011 
L 546.379787 -383.626485 
L 535.077168 -400.642565 
L 523.77455 -395.095279 
L 512.471932 -382.056515 
L 501.169314 -388.718542 
L 489.866696 -385.293973 
L 478.564078 -384.052389 
L 467.26146 -384.925254 
L 455.958842 -377.291132 
L 444.656224 -379.186455 
L 433.353605 -376.301646 
L 422.050987 -381.87597 
L 410.748369 -382.082701 
L 399.445751 -387.355494 
L 388.143133 -381.533245 
L 376.840515 -385.216927 
L 365.537897 -379.679107 
L 354.235279 -374.337862 
L 342.932661 -376.505266 
L 331.630043 -358.333501 
L 320.327424 -372.756828 
L 309.024806 -362.912214 
L 297.722188 -367.391867 
L 286.41957 -359.46167 
L 275.116952 -366.066778 
L 263.814334 -369.345764 
L 252.511716 -359.863408 
L 241.209098 -354.646317 
L 229.90648 -360.133067 
L 218.603862 -369.397447 
L 207.301243 -336.59036 
L 195.998625 -343.320608 
L 184.696007 -335.327232 
L 173.393389 -343.986741 
L 162.090771 -334.790554 
L 150.788153 -349.150061 
L 139.485535 -341.708152 
L 128.182917 -340.128717 
L 116.880299 -335.37478 
z
" style="stroke: #ffffff; stroke-opacity: 0.2"/>
    </defs>
    <g clip-path="url(#p04fca62209)">
     <use xlink:href="#med99b7024a" x="0" y="576" style="fill: #dd8452; fill-opacity: 0.2; stroke: #ffffff; stroke-opacity: 0.2"/>
    </g>
   </g>
   <g id="PolyCollection_3">
    <defs>
     <path id="me8aee303d2" d="M 116.880299 -211.902755 
L 116.880299 -95.901075 
L 128.182917 -275.914763 
L 139.485535 -311.500757 
L 150.788153 -317.643396 
L 162.090771 -333.785816 
L 173.393389 -367.903671 
L 184.696007 -378.117722 
L 195.998625 -398.96253 
L 207.301243 -397.79738 
L 218.603862 -395.761174 
L 229.90648 -416.651549 
L 241.209098 -422.731331 
L 252.511716 -422.963789 
L 263.814334 -436.573351 
L 275.116952 -443.727589 
L 286.41957 -430.877477 
L 297.722188 -453.870098 
L 309.024806 -446.510698 
L 320.327424 -458.454313 
L 331.630043 -451.619025 
L 342.932661 -431.378273 
L 354.235279 -450.207928 
L 365.537897 -468.324741 
L 376.840515 -460.341932 
L 388.143133 -466.158878 
L 399.445751 -469.158154 
L 410.748369 -464.890017 
L 422.050987 -472.007082 
L 433.353605 -477.274362 
L 444.656224 -443.166257 
L 455.958842 -470.14742 
L 467.26146 -461.541202 
L 478.564078 -443.700073 
L 489.866696 -461.481106 
L 501.169314 -466.058278 
L 512.471932 -472.83125 
L 523.77455 -471.785191 
L 535.077168 -487.745526 
L 546.379787 -484.221678 
L 557.682405 -485.241552 
L 568.985023 -483.444618 
L 580.287641 -495.239301 
L 591.590259 -483.12807 
L 602.892877 -469.999493 
L 614.195495 -471.621414 
L 625.498113 -494.37057 
L 636.800731 -486.851136 
L 648.103349 -492.101246 
L 659.405968 -485.810062 
L 670.708586 -494.087923 
L 670.708586 -526.964399 
L 670.708586 -526.964399 
L 659.405968 -532.566718 
L 648.103349 -528.901547 
L 636.800731 -528.351221 
L 625.498113 -531.708209 
L 614.195495 -523.255202 
L 602.892877 -521.356077 
L 591.590259 -520.167873 
L 580.287641 -521.657935 
L 568.985023 -526.678229 
L 557.682405 -529.815088 
L 546.379787 -520.646656 
L 535.077168 -518.280254 
L 523.77455 -515.726742 
L 512.471932 -519.063919 
L 501.169314 -522.038321 
L 489.866696 -521.388496 
L 478.564078 -520.918297 
L 467.26146 -508.605523 
L 455.958842 -520.828025 
L 444.656224 -508.46596 
L 433.353605 -508.80364 
L 422.050987 -510.883873 
L 410.748369 -510.62522 
L 399.445751 -511.456212 
L 388.143133 -505.928737 
L 376.840515 -497.122851 
L 365.537897 -500.389156 
L 354.235279 -496.536653 
L 342.932661 -501.682422 
L 331.630043 -493.493571 
L 320.327424 -487.682128 
L 309.024806 -498.079327 
L 297.722188 -486.382478 
L 286.41957 -477.919344 
L 275.116952 -488.27648 
L 263.814334 -473.142515 
L 252.511716 -481.432186 
L 241.209098 -460.182337 
L 229.90648 -462.666509 
L 218.603862 -459.417384 
L 207.301243 -446.93599 
L 195.998625 -439.5264 
L 184.696007 -451.337641 
L 173.393389 -428.081821 
L 162.090771 -400.764077 
L 150.788153 -385.316206 
L 139.485535 -361.425893 
L 128.182917 -339.364003 
L 116.880299 -211.902755 
z
" style="stroke: #ffffff; stroke-opacity: 0.2"/>
    </defs>
    <g clip-path="url(#p04fca62209)">
     <use xlink:href="#me8aee303d2" x="0" y="576" style="fill: #55a868; fill-opacity: 0.2; stroke: #ffffff; stroke-opacity: 0.2"/>
    </g>
   </g>
   <g id="line2d_14">
    <path d="M 116.880299 346.969338 
L 128.182917 374.091826 
L 139.485535 340.494518 
L 150.788153 307.779082 
L 162.090771 290.072672 
L 173.393389 275.147831 
L 184.696007 281.93236 
L 195.998625 280.998017 
L 207.301243 273.10326 
L 218.603862 272.524757 
L 229.90648 270.937177 
L 241.209098 274.595744 
L 252.511716 261.448676 
L 263.814334 263.943854 
L 275.116952 258.624843 
L 286.41957 274.654849 
L 297.722188 264.438927 
L 309.024806 263.421484 
L 320.327424 266.943791 
L 331.630043 263.794385 
L 342.932661 259.985249 
L 354.235279 264.127552 
L 365.537897 262.037744 
L 376.840515 261.948482 
L 388.143133 251.957533 
L 399.445751 254.700396 
L 410.748369 253.919225 
L 422.050987 258.749877 
L 433.353605 252.515894 
L 444.656224 246.828274 
L 455.958842 253.840749 
L 467.26146 253.390252 
L 478.564078 250.21377 
L 489.866696 258.314535 
L 501.169314 253.231916 
L 512.471932 251.854512 
L 523.77455 245.978021 
L 535.077168 248.984739 
L 546.379787 243.505296 
L 557.682405 254.073426 
L 568.985023 249.311896 
L 580.287641 241.861472 
L 591.590259 246.701059 
L 602.892877 244.977025 
L 614.195495 240.018349 
L 625.498113 249.519369 
L 636.800731 243.454776 
L 648.103349 237.138574 
L 659.405968 237.656101 
L 670.708586 239.240355 
" clip-path="url(#p04fca62209)" style="fill: none; stroke: #4c72b0; stroke-width: 2; stroke-linecap: round"/>
   </g>
   <g id="line2d_15">
    <path d="M 116.880299 265.291712 
L 128.182917 269.444879 
L 139.485535 268.20109 
L 150.788153 260.153758 
L 162.090771 262.579139 
L 173.393389 254.731396 
L 184.696007 266.385531 
L 195.998625 254.419902 
L 207.301243 258.083322 
L 218.603862 250.097871 
L 229.90648 243.525361 
L 241.209098 237.89098 
L 252.511716 233.495636 
L 263.814334 237.965164 
L 275.116952 234.377485 
L 286.41957 235.377971 
L 297.722188 235.240562 
L 309.024806 235.088385 
L 320.327424 239.010893 
L 331.630043 233.653469 
L 342.932661 227.401766 
L 354.235279 230.354265 
L 365.537897 223.847856 
L 376.840515 224.66595 
L 388.143133 225.206846 
L 399.445751 222.650801 
L 410.748369 224.229026 
L 422.050987 226.506175 
L 433.353605 226.982378 
L 444.656224 218.571306 
L 455.958842 221.197941 
L 467.26146 226.023009 
L 478.564078 216.195453 
L 489.866696 218.743941 
L 501.169314 212.121964 
L 512.471932 221.395436 
L 523.77455 215.176613 
L 535.077168 211.047378 
L 546.379787 210.054294 
L 557.682405 215.251888 
L 568.985023 214.37854 
L 580.287641 202.837524 
L 591.590259 206.575688 
L 602.892877 214.769583 
L 614.195495 210.49922 
L 625.498113 203.882583 
L 636.800731 208.07982 
L 648.103349 205.68972 
L 659.405968 214.609938 
L 670.708586 211.279965 
" clip-path="url(#p04fca62209)" style="fill: none; stroke: #dd8452; stroke-width: 2; stroke-linecap: round"/>
   </g>
   <g id="line2d_16">
    <path d="M 116.880299 428.968838 
L 128.182917 265.687229 
L 139.485535 240.973576 
L 150.788153 223.088789 
L 162.090771 201.516742 
L 173.393389 182.568529 
L 184.696007 168.37842 
L 195.998625 154.205861 
L 207.301243 145.47198 
L 218.603862 141.085772 
L 229.90648 134.41527 
L 241.209098 132.823876 
L 252.511716 123.930186 
L 263.814334 121.696686 
L 275.116952 113.134455 
L 286.41957 111.818037 
L 297.722188 106.206439 
L 309.024806 102.926276 
L 320.327424 103.546493 
L 331.630043 99.87714 
L 342.932661 98.59499 
L 354.235279 97.044061 
L 365.537897 95.903456 
L 376.840515 88.270324 
L 388.143133 94.233877 
L 399.445751 91.863212 
L 410.748369 85.583508 
L 422.050987 86.20366 
L 433.353605 85.31034 
L 444.656224 78.550303 
L 455.958842 84.669761 
L 467.26146 78.055967 
L 478.564078 78.300139 
L 489.866696 83.394705 
L 501.169314 76.558586 
L 512.471932 78.375826 
L 523.77455 74.930766 
L 535.077168 75.291715 
L 546.379787 73.562091 
L 557.682405 71.414258 
L 568.985023 68.968409 
L 580.287641 71.16409 
L 591.590259 67.394477 
L 602.892877 68.852841 
L 614.195495 64.076231 
L 625.498113 63.368842 
L 636.800731 64.752472 
L 648.103349 63.092535 
L 659.405968 61.472012 
L 670.708586 61.340891 
" clip-path="url(#p04fca62209)" style="fill: none; stroke: #55a868; stroke-width: 2; stroke-linecap: round"/>
   </g>
   <g id="patch_3">
    <path d="M 89.188884 501.932207 
L 89.188884 21.6 
" style="fill: none; stroke: #cccccc; stroke-width: 1.25; stroke-linejoin: miter; stroke-linecap: square"/>
   </g>
   <g id="patch_4">
    <path d="M 698.4 501.932207 
L 698.4 21.6 
" style="fill: none; stroke: #cccccc; stroke-width: 1.25; stroke-linejoin: miter; stroke-linecap: square"/>
   </g>
   <g id="patch_5">
    <path d="M 89.188884 501.932207 
L 698.4 501.932207 
" style="fill: none; stroke: #cccccc; stroke-width: 1.25; stroke-linejoin: miter; stroke-linecap: square"/>
   </g>
   <g id="patch_6">
    <path d="M 89.188884 21.6 
L 698.4 21.6 
" style="fill: none; stroke: #cccccc; stroke-width: 1.25; stroke-linejoin: miter; stroke-linecap: square"/>
   </g>
   <g id="legend_1">
    <g id="patch_7">
     <path d="M 542.218822 489.932207 
L 681.6 489.932207 
Q 686.4 489.932207 686.4 485.132207 
L 686.4 353.924773 
Q 686.4 349.124773 681.6 349.124773 
L 542.218822 349.124773 
Q 537.418822 349.124773 537.418822 353.924773 
L 537.418822 485.132207 
Q 537.418822 489.932207 542.218822 489.932207 
z
" style="fill: #ffffff; opacity: 0.8; stroke: #cccccc; stroke-linejoin: miter"/>
    </g>
    <g id="text_16">
     <!-- Model -->
     <g style="fill: #262626" transform="translate(582.001584 375.329178) scale(0.24 -0.24)">
      <defs>
       <path id="CMR17-64" d="M 1869 4326 
L 1869 4160 
C 2246 4160 2304 4122 2304 3820 
L 2304 2345 
C 2278 2377 2016 2790 1498 2790 
C 845 2790 211 2208 211 1364 
C 211 525 806 -64 1434 -64 
C 1978 -64 2259 337 2291 380 
L 2291 -63 
L 3066 -63 
L 3066 128 
C 2688 128 2630 166 2630 473 
L 2630 4396 
L 1869 4326 
z
M 2291 755 
C 2291 563 2176 390 2029 262 
C 1811 70 1594 38 1472 38 
C 1286 38 621 134 621 1356 
C 621 2612 1363 2688 1530 2688 
C 1824 2688 2061 2522 2208 2291 
C 2291 2157 2291 2138 2291 2023 
L 2291 755 
z
" transform="scale(0.015625)"/>
       <path id="CMR17-65" d="M 2438 1472 
C 2464 1498 2464 1511 2464 1576 
C 2464 2238 2118 2816 1389 2816 
C 710 2816 173 2169 173 1383 
C 173 551 781 -64 1459 -64 
C 2176 -64 2458 607 2458 740 
C 2458 784 2419 784 2406 784 
C 2362 784 2355 771 2330 696 
C 2189 265 1837 51 1504 51 
C 1229 51 954 203 781 480 
C 582 803 582 1176 582 1472 
L 2438 1472 
z
M 589 1568 
C 634 2505 1126 2714 1382 2714 
C 1818 2714 2112 2297 2118 1568 
L 589 1568 
z
" transform="scale(0.015625)"/>
       <path id="CMR17-6c" d="M 979 4396 
L 218 4326 
L 218 4160 
C 595 4160 653 4122 653 3817 
L 653 426 
C 653 184 627 153 218 153 
L 218 -13 
C 371 0 653 0 813 0 
C 979 0 1261 0 1414 -13 
L 1414 153 
C 1005 153 979 178 979 426 
L 979 4396 
z
" transform="scale(0.015625)"/>
      </defs>
      <use xlink:href="#CMR17-4d" transform="scale(0.996264)"/>
      <use xlink:href="#CMR17-6f" transform="translate(84.686941 0) scale(0.996264)"/>
      <use xlink:href="#CMR17-64" transform="translate(132.979856 0) scale(0.996264)"/>
      <use xlink:href="#CMR17-65" transform="translate(183.875226 0) scale(0.996264)"/>
      <use xlink:href="#CMR17-6c" transform="translate(224.360887 0) scale(0.996264)"/>
     </g>
    </g>
    <g id="line2d_17">
     <path d="M 547.018822 400.379935 
L 571.018822 400.379935 
L 595.018822 400.379935 
" style="fill: none; stroke: #4c72b0; stroke-width: 2; stroke-linecap: round"/>
    </g>
    <g id="text_17">
     <!-- CAE -->
     <g style="fill: #262626" transform="translate(614.218822 408.779935) scale(0.24 -0.24)">
      <defs>
       <path id="CMR17-43" d="M 3974 4289 
C 3974 4403 3968 4410 3930 4410 
C 3904 4410 3898 4403 3853 4327 
L 3571 3792 
C 3258 4187 2874 4416 2381 4416 
C 1286 4416 294 3456 294 2148 
C 294 826 1286 -128 2387 -128 
C 3366 -128 3974 730 3974 1461 
C 3974 1524 3974 1550 3917 1550 
C 3866 1550 3866 1531 3859 1474 
C 3808 585 3168 38 2477 38 
C 1824 38 781 495 781 2147 
C 781 3805 1843 4250 2464 4250 
C 3187 4250 3712 3628 3834 2745 
C 3846 2668 3846 2655 3904 2655 
C 3974 2655 3974 2668 3974 2783 
L 3974 4289 
z
" transform="scale(0.015625)"/>
       <path id="CMR17-41" d="M 2323 4378 
C 2291 4461 2278 4480 2214 4480 
C 2150 4480 2138 4461 2106 4378 
L 749 566 
C 627 223 371 153 147 153 
L 147 -13 
C 262 0 518 0 640 0 
C 800 0 1056 0 1210 -13 
L 1210 153 
C 909 153 864 361 864 439 
C 864 497 877 530 890 569 
L 1229 1536 
L 2906 1536 
L 3290 442 
C 3322 365 3322 352 3322 327 
C 3322 153 3046 153 2925 153 
L 2925 0 
C 3110 0 3443 0 3642 0 
C 3808 0 4128 0 4282 -13 
L 4282 153 
C 3942 153 3827 153 3744 387 
L 2323 4378 
z
M 2067 3893 
L 2848 1702 
L 1286 1702 
L 2067 3893 
z
" transform="scale(0.015625)"/>
      </defs>
      <use xlink:href="#CMR17-43" transform="scale(0.996264)"/>
      <use xlink:href="#CMR17-41" transform="translate(66.509881 0) scale(0.996264)"/>
      <use xlink:href="#CMR17-45" transform="translate(135.58231 0) scale(0.996264)"/>
     </g>
    </g>
    <g id="line2d_18">
     <path d="M 547.018822 433.830693 
L 571.018822 433.830693 
L 595.018822 433.830693 
" style="fill: none; stroke: #dd8452; stroke-width: 2; stroke-linecap: round"/>
    </g>
    <g id="text_18">
     <!-- PCAE -->
     <g style="fill: #262626" transform="translate(614.218822 442.230693) scale(0.24 -0.24)">
      <defs>
       <path id="CMR17-50" d="M 1267 2042 
L 2291 2042 
C 3117 2042 3718 2578 3718 3184 
C 3718 3791 3130 4352 2291 4352 
L 333 4352 
L 333 4186 
C 774 4186 845 4186 845 3899 
L 845 446 
C 845 160 774 160 333 160 
L 333 0 
C 518 0 858 0 1056 0 
C 1254 0 1594 0 1779 0 
L 1779 160 
C 1338 160 1267 160 1267 446 
L 1267 2042 
z
M 1254 2176 
L 1254 3938 
C 1254 4155 1267 4186 1523 4186 
L 2170 4186 
C 2995 4186 3232 3714 3232 3184 
C 3232 2604 2950 2176 2170 2176 
L 1254 2176 
z
" transform="scale(0.015625)"/>
      </defs>
      <use xlink:href="#CMR17-50" transform="scale(0.996264)"/>
      <use xlink:href="#CMR17-43" transform="translate(62.586301 0) scale(0.996264)"/>
      <use xlink:href="#CMR17-41" transform="translate(129.096181 0) scale(0.996264)"/>
      <use xlink:href="#CMR17-45" transform="translate(198.168611 0) scale(0.996264)"/>
     </g>
    </g>
    <g id="line2d_19">
     <path d="M 547.018822 467.28145 
L 571.018822 467.28145 
L 595.018822 467.28145 
" style="fill: none; stroke: #55a868; stroke-width: 2; stroke-linecap: round"/>
    </g>
    <g id="text_19">
     <!-- GAN -->
     <g style="fill: #262626" transform="translate(614.218822 475.68145) scale(0.24 -0.24)">
      <defs>
       <path id="CMR17-47" d="M 3974 1233 
C 3974 1473 3994 1505 4390 1505 
L 4390 1670 
C 4237 1664 3891 1664 3718 1664 
C 3539 1664 3040 1664 2797 1664 
L 2797 1505 
L 2989 1505 
C 3539 1505 3552 1434 3552 1201 
L 3552 774 
C 3552 63 2720 63 2522 63 
C 1862 63 781 511 781 2160 
C 781 3808 1843 4250 2464 4250 
C 3187 4250 3712 3626 3834 2741 
C 3846 2664 3846 2651 3904 2651 
C 3974 2651 3974 2664 3974 2779 
L 3974 4288 
C 3974 4402 3968 4409 3930 4409 
C 3904 4409 3898 4402 3853 4326 
L 3571 3791 
C 3258 4187 2874 4416 2381 4416 
C 1286 4416 294 3456 294 2148 
C 294 845 1267 -128 2394 -128 
C 2912 -128 3418 56 3616 417 
C 3725 158 3904 -20 3936 -20 
C 3968 -20 3974 -13 3974 100 
L 3974 1233 
z
" transform="scale(0.015625)"/>
       <path id="CMR17-4e" d="M 1312 4250 
C 1267 4320 1261 4320 1139 4320 
L 326 4320 
L 326 4160 
L 448 4160 
C 704 4160 819 4129 838 4122 
L 838 610 
C 838 451 838 153 326 153 
L 326 -13 
C 474 0 742 0 902 0 
C 1062 0 1331 0 1478 -13 
L 1478 153 
C 966 153 966 451 966 610 
L 966 4033 
C 1011 3995 1011 3982 1056 3919 
L 3430 76 
C 3475 0 3494 0 3526 0 
C 3590 0 3590 19 3590 139 
L 3590 3705 
C 3590 3863 3590 4160 4102 4160 
L 4102 4326 
C 3955 4320 3686 4320 3526 4320 
C 3366 4320 3098 4320 2950 4326 
L 2950 4160 
C 3462 4160 3462 3862 3462 3703 
L 3462 763 
L 1312 4250 
z
" transform="scale(0.015625)"/>
      </defs>
      <use xlink:href="#CMR17-47" transform="scale(0.996264)"/>
      <use xlink:href="#CMR17-41" transform="translate(72.355346 0) scale(0.996264)"/>
      <use xlink:href="#CMR17-4e" transform="translate(141.427776 0) scale(0.996264)"/>
     </g>
    </g>
   </g>
  </g>
 </g>
 <defs>
  <clipPath id="p04fca62209">
   <rect x="89.188884" y="21.6" width="609.211116" height="480.332207"/>
  </clipPath>
 </defs>
</svg>
