<?xml version="1.0" encoding="utf-8" standalone="no"?>
<!DOCTYPE svg PUBLIC "-//W3C//DTD SVG 1.1//EN"
  "http://www.w3.org/Graphics/SVG/1.1/DTD/svg11.dtd">
<svg xmlns:xlink="http://www.w3.org/1999/xlink" width="720pt" height="576pt" viewBox="0 0 720 576" xmlns="http://www.w3.org/2000/svg" version="1.1">
 <metadata>
  <rdf:RDF xmlns:dc="http://purl.org/dc/elements/1.1/" xmlns:cc="http://creativecommons.org/ns#" xmlns:rdf="http://www.w3.org/1999/02/22-rdf-syntax-ns#">
   <cc:Work>
    <dc:type rdf:resource="http://purl.org/dc/dcmitype/StillImage"/>
    <dc:date>2025-04-24T19:34:07.290208</dc:date>
    <dc:format>image/svg+xml</dc:format>
    <dc:creator>
     <cc:Agent>
      <dc:title>Matplotlib v3.9.2, https://matplotlib.org/</dc:title>
     </cc:Agent>
    </dc:creator>
   </cc:Work>
  </rdf:RDF>
 </metadata>
 <defs>
  <style type="text/css">*{stroke-linejoin: round; stroke-linecap: butt}</style>
 </defs>
 <g id="figure_1">
  <g id="patch_1">
   <path d="M 0 576 
L 720 576 
L 720 0 
L 0 0 
z
" style="fill: #ffffff"/>
  </g>
  <g id="axes_1">
   <g id="patch_2">
    <path d="M 89.353994 495.840956 
L 694.08 495.840956 
L 694.08 49.831226 
L 89.353994 49.831226 
z
" style="fill: #ffffff"/>
   </g>
   <g id="matplotlib.axis_1">
    <g id="xtick_1">
     <g id="line2d_1">
      <path d="M 116.84154 495.840956 
L 116.84154 49.831226 
" clip-path="url(#pa36c10feb9)" style="fill: none; stroke: #cccccc; stroke-linecap: round"/>
     </g>
     <g id="text_1">
      <!-- $\mathdefault{0}$ -->
      <g style="fill: #262626" transform="translate(111.815587 520.56165) scale(0.22 -0.22)">
       <defs>
        <path id="CMR17-30" d="M 2688 2025 
C 2688 2416 2682 3080 2413 3591 
C 2176 4039 1798 4198 1466 4198 
C 1158 4198 768 4058 525 3597 
C 269 3118 243 2524 243 2025 
C 243 1661 250 1106 448 619 
C 723 -39 1216 -128 1466 -128 
C 1760 -128 2208 -7 2470 600 
C 2662 1042 2688 1559 2688 2025 
z
M 1466 -26 
C 1056 -26 813 325 723 812 
C 653 1188 653 1738 653 2096 
C 653 2588 653 2997 736 3387 
C 858 3929 1216 4096 1466 4096 
C 1728 4096 2067 3923 2189 3400 
C 2272 3036 2278 2607 2278 2096 
C 2278 1680 2278 1169 2202 792 
C 2067 95 1690 -26 1466 -26 
z
" transform="scale(0.015625)"/>
       </defs>
       <use xlink:href="#CMR17-30" transform="scale(0.996264)"/>
      </g>
     </g>
    </g>
    <g id="xtick_2">
     <g id="line2d_2">
      <path d="M 227.90233 495.840956 
L 227.90233 49.831226 
" clip-path="url(#pa36c10feb9)" style="fill: none; stroke: #cccccc; stroke-linecap: round"/>
     </g>
     <g id="text_2">
      <!-- $\mathdefault{200}$ -->
      <g style="fill: #262626" transform="translate(212.824473 520.56165) scale(0.22 -0.22)">
       <defs>
        <path id="CMR17-32" d="M 2669 989 
L 2554 989 
C 2490 536 2438 459 2413 420 
C 2381 369 1920 369 1830 369 
L 602 369 
C 832 619 1280 1072 1824 1597 
C 2214 1967 2669 2402 2669 3035 
C 2669 3790 2067 4224 1395 4224 
C 691 4224 262 3604 262 3030 
C 262 2780 448 2748 525 2748 
C 589 2748 781 2787 781 3010 
C 781 3207 614 3264 525 3264 
C 486 3264 448 3258 422 3245 
C 544 3790 915 4058 1306 4058 
C 1862 4058 2227 3617 2227 3035 
C 2227 2479 1901 2000 1536 1584 
L 262 146 
L 262 0 
L 2515 0 
L 2669 989 
z
" transform="scale(0.015625)"/>
       </defs>
       <use xlink:href="#CMR17-32" transform="scale(0.996264)"/>
       <use xlink:href="#CMR17-30" transform="translate(45.690477 0) scale(0.996264)"/>
       <use xlink:href="#CMR17-30" transform="translate(91.380954 0) scale(0.996264)"/>
      </g>
     </g>
    </g>
    <g id="xtick_3">
     <g id="line2d_3">
      <path d="M 338.963121 495.840956 
L 338.963121 49.831226 
" clip-path="url(#pa36c10feb9)" style="fill: none; stroke: #cccccc; stroke-linecap: round"/>
     </g>
     <g id="text_3">
      <!-- $\mathdefault{400}$ -->
      <g style="fill: #262626" transform="translate(323.885264 520.56165) scale(0.22 -0.22)">
       <defs>
        <path id="CMR17-34" d="M 2150 4122 
C 2150 4256 2144 4256 2029 4256 
L 128 1254 
L 128 1088 
L 1779 1088 
L 1779 457 
C 1779 224 1766 160 1318 160 
L 1197 160 
L 1197 0 
C 1402 0 1747 0 1965 0 
C 2182 0 2528 0 2733 0 
L 2733 160 
L 2611 160 
C 2163 160 2150 224 2150 457 
L 2150 1088 
L 2803 1088 
L 2803 1254 
L 2150 1254 
L 2150 4122 
z
M 1798 3703 
L 1798 1254 
L 256 1254 
L 1798 3703 
z
" transform="scale(0.015625)"/>
       </defs>
       <use xlink:href="#CMR17-34" transform="scale(0.996264)"/>
       <use xlink:href="#CMR17-30" transform="translate(45.690477 0) scale(0.996264)"/>
       <use xlink:href="#CMR17-30" transform="translate(91.380954 0) scale(0.996264)"/>
      </g>
     </g>
    </g>
    <g id="xtick_4">
     <g id="line2d_4">
      <path d="M 450.023912 495.840956 
L 450.023912 49.831226 
" clip-path="url(#pa36c10feb9)" style="fill: none; stroke: #cccccc; stroke-linecap: round"/>
     </g>
     <g id="text_4">
      <!-- $\mathdefault{600}$ -->
      <g style="fill: #262626" transform="translate(434.946055 520.56165) scale(0.22 -0.22)">
       <defs>
        <path id="CMR17-36" d="M 678 2176 
C 678 3690 1395 4032 1811 4032 
C 1946 4032 2272 4009 2400 3776 
C 2298 3776 2106 3776 2106 3553 
C 2106 3381 2246 3323 2336 3323 
C 2394 3323 2566 3348 2566 3560 
C 2566 3954 2246 4179 1805 4179 
C 1043 4179 243 3390 243 1984 
C 243 253 966 -128 1478 -128 
C 2099 -128 2688 427 2688 1283 
C 2688 2081 2170 2662 1517 2662 
C 1126 2662 838 2407 678 1960 
L 678 2176 
z
M 1478 25 
C 691 25 691 1200 691 1436 
C 691 1896 909 2560 1504 2560 
C 1613 2560 1926 2560 2138 2120 
C 2253 1870 2253 1609 2253 1289 
C 2253 944 2253 690 2118 434 
C 1978 171 1773 25 1478 25 
z
" transform="scale(0.015625)"/>
       </defs>
       <use xlink:href="#CMR17-36" transform="scale(0.996264)"/>
       <use xlink:href="#CMR17-30" transform="translate(45.690477 0) scale(0.996264)"/>
       <use xlink:href="#CMR17-30" transform="translate(91.380954 0) scale(0.996264)"/>
      </g>
     </g>
    </g>
    <g id="xtick_5">
     <g id="line2d_5">
      <path d="M 561.084703 495.840956 
L 561.084703 49.831226 
" clip-path="url(#pa36c10feb9)" style="fill: none; stroke: #cccccc; stroke-linecap: round"/>
     </g>
     <g id="text_5">
      <!-- $\mathdefault{800}$ -->
      <g style="fill: #262626" transform="translate(546.006846 520.56165) scale(0.22 -0.22)">
       <defs>
        <path id="CMR17-38" d="M 1741 2264 
C 2144 2467 2554 2773 2554 3263 
C 2554 3841 1990 4179 1472 4179 
C 890 4179 378 3759 378 3180 
C 378 3021 416 2747 666 2505 
C 730 2442 998 2251 1171 2130 
C 883 1983 211 1634 211 934 
C 211 279 838 -128 1459 -128 
C 2144 -128 2720 362 2720 1010 
C 2720 1590 2330 1857 2074 2029 
L 1741 2264 
z
M 902 2822 
C 851 2854 595 3051 595 3351 
C 595 3739 998 4032 1459 4032 
C 1965 4032 2336 3676 2336 3262 
C 2336 2669 1670 2331 1638 2331 
C 1632 2331 1626 2331 1574 2370 
L 902 2822 
z
M 2080 1519 
C 2176 1449 2483 1240 2483 851 
C 2483 381 2010 25 1472 25 
C 890 25 448 438 448 940 
C 448 1443 838 1862 1280 2060 
L 2080 1519 
z
" transform="scale(0.015625)"/>
       </defs>
       <use xlink:href="#CMR17-38" transform="scale(0.996264)"/>
       <use xlink:href="#CMR17-30" transform="translate(45.690477 0) scale(0.996264)"/>
       <use xlink:href="#CMR17-30" transform="translate(91.380954 0) scale(0.996264)"/>
      </g>
     </g>
    </g>
    <g id="xtick_6">
     <g id="line2d_6">
      <path d="M 672.145494 495.840956 
L 672.145494 49.831226 
" clip-path="url(#pa36c10feb9)" style="fill: none; stroke: #cccccc; stroke-linecap: round"/>
     </g>
     <g id="text_6">
      <!-- $\mathdefault{1000}$ -->
      <g style="fill: #262626" transform="translate(652.041684 520.56165) scale(0.22 -0.22)">
       <defs>
        <path id="CMR17-31" d="M 1702 4058 
C 1702 4192 1696 4192 1606 4192 
C 1357 3916 979 3827 621 3827 
C 602 3827 570 3827 563 3808 
C 557 3795 557 3782 557 3648 
C 755 3648 1088 3686 1344 3839 
L 1344 461 
C 1344 236 1331 160 781 160 
L 589 160 
L 589 0 
C 896 0 1216 0 1523 0 
C 1830 0 2150 0 2458 0 
L 2458 160 
L 2266 160 
C 1715 160 1702 230 1702 458 
L 1702 4058 
z
" transform="scale(0.015625)"/>
       </defs>
       <use xlink:href="#CMR17-31" transform="scale(0.996264)"/>
       <use xlink:href="#CMR17-30" transform="translate(45.690477 0) scale(0.996264)"/>
       <use xlink:href="#CMR17-30" transform="translate(91.380954 0) scale(0.996264)"/>
       <use xlink:href="#CMR17-30" transform="translate(137.071431 0) scale(0.996264)"/>
      </g>
     </g>
    </g>
    <g id="text_7">
     <!-- Step -->
     <g style="fill: #262626" transform="translate(370.630141 545.429243) scale(0.24 -0.24)">
      <defs>
       <path id="CMSS17-53" d="M 2797 4169 
C 2515 4334 2208 4480 1690 4480 
C 864 4480 333 3879 333 3266 
C 333 3025 403 2753 653 2475 
C 902 2196 1184 2121 1542 2033 
C 1690 1994 1939 1924 1984 1906 
C 2342 1767 2515 1444 2515 1140 
C 2515 742 2202 318 1645 318 
C 1453 318 890 318 358 819 
L 269 318 
C 794 -64 1363 -128 1651 -128 
C 2438 -128 3002 488 3002 1186 
C 3002 1440 2925 1763 2656 2061 
C 2394 2347 2163 2410 1638 2549 
C 1338 2626 1146 2677 986 2873 
C 877 3013 819 3146 819 3317 
C 819 3673 1126 4060 1690 4060 
C 1971 4060 2336 4002 2707 3660 
L 2797 4169 
z
" transform="scale(0.015625)"/>
       <path id="CMSS17-74" d="M 1069 2368 
L 1901 2368 
L 1901 2737 
L 1069 2737 
L 1069 3520 
L 614 3520 
L 614 2737 
L 109 2737 
L 109 2368 
L 602 2368 
L 602 749 
C 602 384 685 -64 1107 -64 
C 1427 -64 1722 25 2003 172 
L 1901 548 
C 1747 414 1562 337 1363 337 
C 1082 337 1069 696 1069 856 
L 1069 2368 
z
" transform="scale(0.015625)"/>
       <path id="CMSS17-65" d="M 2502 1377 
C 2502 1590 2490 2003 2285 2345 
C 2061 2713 1696 2816 1421 2816 
C 755 2816 192 2188 192 1375 
C 192 582 774 -64 1510 -64 
C 1798 -64 2150 19 2470 248 
C 2470 274 2458 414 2451 420 
C 2451 433 2432 630 2432 656 
C 2125 407 1773 325 1517 325 
C 1107 325 666 667 646 1377 
L 2502 1377 
z
M 698 1728 
C 781 2084 1062 2421 1421 2421 
C 1517 2421 1965 2421 2080 1728 
L 698 1728 
z
" transform="scale(0.015625)"/>
       <path id="CMSS17-70" d="M 966 333 
C 1178 129 1466 -5 1773 -5 
C 2368 -5 2880 603 2880 1412 
C 2880 2159 2496 2816 1946 2816 
C 1626 2816 1242 2702 954 2472 
L 954 2765 
L 480 2765 
L 480 -1216 
L 966 -1216 
L 966 333 
z
M 966 2100 
C 1018 2176 1235 2415 1587 2415 
C 2035 2415 2394 1960 2394 1412 
C 2394 787 1958 384 1530 384 
C 1402 384 1267 415 1139 523 
C 966 674 966 768 966 857 
L 966 2100 
z
" transform="scale(0.015625)"/>
      </defs>
      <use xlink:href="#CMSS17-53" transform="scale(0.996264)"/>
      <use xlink:href="#CMSS17-74" transform="translate(52.048516 0) scale(0.996264)"/>
      <use xlink:href="#CMSS17-65" transform="translate(85.880083 0) scale(0.996264)"/>
      <use xlink:href="#CMSS17-70" transform="translate(127.518905 0) scale(0.996264)"/>
     </g>
    </g>
   </g>
   <g id="matplotlib.axis_2">
    <g id="ytick_1">
     <g id="line2d_7">
      <path d="M 89.353994 477.349857 
L 694.08 477.349857 
" clip-path="url(#pa36c10feb9)" style="fill: none; stroke: #cccccc; stroke-linecap: round"/>
     </g>
     <g id="text_8">
      <!-- $\mathdefault{0.2}$ -->
      <g style="fill: #262626" transform="translate(53.788805 484.960204) scale(0.22 -0.22)">
       <defs>
        <path id="CMMI12-3a" d="M 1178 307 
C 1178 492 1024 619 870 619 
C 685 619 557 466 557 313 
C 557 128 710 0 864 0 
C 1050 0 1178 153 1178 307 
z
" transform="scale(0.015625)"/>
       </defs>
       <use xlink:href="#CMR17-30" transform="scale(0.996264)"/>
       <use xlink:href="#CMMI12-3a" transform="translate(45.690477 0) scale(0.996264)"/>
       <use xlink:href="#CMR17-32" transform="translate(72.787654 0) scale(0.996264)"/>
      </g>
     </g>
    </g>
    <g id="ytick_2">
     <g id="line2d_8">
      <path d="M 89.353994 392.489373 
L 694.08 392.489373 
" clip-path="url(#pa36c10feb9)" style="fill: none; stroke: #cccccc; stroke-linecap: round"/>
     </g>
     <g id="text_9">
      <!-- $\mathdefault{0.3}$ -->
      <g style="fill: #262626" transform="translate(53.788805 400.09972) scale(0.22 -0.22)">
       <defs>
        <path id="CMR17-33" d="M 1414 2157 
C 1984 2157 2234 1662 2234 1090 
C 2234 320 1824 25 1453 25 
C 1114 25 563 194 390 693 
C 422 680 454 680 486 680 
C 640 680 755 782 755 948 
C 755 1133 614 1216 486 1216 
C 378 1216 211 1165 211 926 
C 211 335 787 -128 1466 -128 
C 2176 -128 2720 430 2720 1085 
C 2720 1707 2208 2157 1600 2227 
C 2086 2328 2554 2756 2554 3329 
C 2554 3820 2048 4179 1472 4179 
C 890 4179 378 3829 378 3329 
C 378 3110 544 3072 627 3072 
C 762 3072 877 3155 877 3321 
C 877 3486 762 3569 627 3569 
C 602 3569 570 3569 544 3557 
C 730 3959 1235 4032 1459 4032 
C 1683 4032 2106 3925 2106 3320 
C 2106 3143 2080 2828 1862 2550 
C 1670 2304 1453 2304 1242 2284 
C 1210 2284 1062 2269 1037 2269 
C 992 2263 966 2257 966 2208 
C 966 2163 973 2157 1101 2157 
L 1414 2157 
z
" transform="scale(0.015625)"/>
       </defs>
       <use xlink:href="#CMR17-30" transform="scale(0.996264)"/>
       <use xlink:href="#CMMI12-3a" transform="translate(45.690477 0) scale(0.996264)"/>
       <use xlink:href="#CMR17-33" transform="translate(72.787654 0) scale(0.996264)"/>
      </g>
     </g>
    </g>
    <g id="ytick_3">
     <g id="line2d_9">
      <path d="M 89.353994 307.62889 
L 694.08 307.62889 
" clip-path="url(#pa36c10feb9)" style="fill: none; stroke: #cccccc; stroke-linecap: round"/>
     </g>
     <g id="text_10">
      <!-- $\mathdefault{0.4}$ -->
      <g style="fill: #262626" transform="translate(53.788805 315.239236) scale(0.22 -0.22)">
       <use xlink:href="#CMR17-30" transform="scale(0.996264)"/>
       <use xlink:href="#CMMI12-3a" transform="translate(45.690477 0) scale(0.996264)"/>
       <use xlink:href="#CMR17-34" transform="translate(72.787654 0) scale(0.996264)"/>
      </g>
     </g>
    </g>
    <g id="ytick_4">
     <g id="line2d_10">
      <path d="M 89.353994 222.768406 
L 694.08 222.768406 
" clip-path="url(#pa36c10feb9)" style="fill: none; stroke: #cccccc; stroke-linecap: round"/>
     </g>
     <g id="text_11">
      <!-- $\mathdefault{0.5}$ -->
      <g style="fill: #262626" transform="translate(53.788805 230.378753) scale(0.22 -0.22)">
       <defs>
        <path id="CMR17-35" d="M 730 3692 
C 794 3666 1056 3584 1325 3584 
C 1920 3584 2246 3911 2432 4100 
C 2432 4157 2432 4192 2394 4192 
C 2387 4192 2374 4192 2323 4163 
C 2099 4058 1837 3973 1517 3973 
C 1325 3973 1037 3999 723 4139 
C 653 4171 640 4171 634 4171 
C 602 4171 595 4164 595 4037 
L 595 2203 
C 595 2089 595 2057 659 2057 
C 691 2057 704 2070 736 2114 
C 941 2401 1222 2522 1542 2522 
C 1766 2522 2246 2382 2246 1289 
C 2246 1085 2246 715 2054 421 
C 1894 159 1645 25 1370 25 
C 947 25 518 320 403 814 
C 429 807 480 795 506 795 
C 589 795 749 840 749 1038 
C 749 1210 627 1280 506 1280 
C 358 1280 262 1190 262 1011 
C 262 454 704 -128 1382 -128 
C 2042 -128 2669 440 2669 1264 
C 2669 2030 2170 2624 1549 2624 
C 1222 2624 947 2503 730 2274 
L 730 3692 
z
" transform="scale(0.015625)"/>
       </defs>
       <use xlink:href="#CMR17-30" transform="scale(0.996264)"/>
       <use xlink:href="#CMMI12-3a" transform="translate(45.690477 0) scale(0.996264)"/>
       <use xlink:href="#CMR17-35" transform="translate(72.787654 0) scale(0.996264)"/>
      </g>
     </g>
    </g>
    <g id="ytick_5">
     <g id="line2d_11">
      <path d="M 89.353994 137.907922 
L 694.08 137.907922 
" clip-path="url(#pa36c10feb9)" style="fill: none; stroke: #cccccc; stroke-linecap: round"/>
     </g>
     <g id="text_12">
      <!-- $\mathdefault{0.6}$ -->
      <g style="fill: #262626" transform="translate(53.788805 145.518269) scale(0.22 -0.22)">
       <use xlink:href="#CMR17-30" transform="scale(0.996264)"/>
       <use xlink:href="#CMMI12-3a" transform="translate(45.690477 0) scale(0.996264)"/>
       <use xlink:href="#CMR17-36" transform="translate(72.787654 0) scale(0.996264)"/>
      </g>
     </g>
    </g>
    <g id="ytick_6">
     <g id="line2d_12">
      <path d="M 89.353994 53.047439 
L 694.08 53.047439 
" clip-path="url(#pa36c10feb9)" style="fill: none; stroke: #cccccc; stroke-linecap: round"/>
     </g>
     <g id="text_13">
      <!-- $\mathdefault{0.7}$ -->
      <g style="fill: #262626" transform="translate(53.788805 60.657785) scale(0.22 -0.22)">
       <defs>
        <path id="CMR17-37" d="M 2886 3941 
L 2886 4081 
L 1382 4081 
C 634 4081 621 4165 595 4288 
L 480 4288 
L 294 3094 
L 410 3094 
C 429 3215 474 3540 550 3661 
C 589 3712 1062 3712 1171 3712 
L 2579 3712 
L 1869 2661 
C 1395 1954 1069 999 1069 165 
C 1069 89 1069 -128 1299 -128 
C 1530 -128 1530 89 1530 171 
L 1530 465 
C 1530 1508 1709 2196 2003 2636 
L 2886 3941 
z
" transform="scale(0.015625)"/>
       </defs>
       <use xlink:href="#CMR17-30" transform="scale(0.996264)"/>
       <use xlink:href="#CMMI12-3a" transform="translate(45.690477 0) scale(0.996264)"/>
       <use xlink:href="#CMR17-37" transform="translate(72.787654 0) scale(0.996264)"/>
      </g>
     </g>
    </g>
    <g id="text_14">
     <!-- Structural Similarity Index Measure (SSIM) -->
     <g style="fill: #262626" transform="translate(43.831226 476.142373) rotate(-90) scale(0.24 -0.24)">
      <defs>
       <path id="CMSS17-72" d="M 954 1363 
C 954 1965 1395 2368 1958 2368 
L 1958 2789 
C 1549 2789 1165 2585 934 2253 
L 934 2758 
L 480 2758 
L 480 0 
L 954 0 
L 954 1363 
z
" transform="scale(0.015625)"/>
       <path id="CMSS17-75" d="M 2618 2739 
L 2131 2739 
L 2131 972 
C 2131 498 1786 306 1421 306 
C 998 306 960 447 960 709 
L 960 2739 
L 474 2739 
L 474 678 
C 474 179 646 -64 1088 -64 
C 1306 -64 1798 -13 2144 306 
L 2144 0 
L 2618 0 
L 2618 2739 
z
" transform="scale(0.015625)"/>
       <path id="CMSS17-63" d="M 2464 2541 
C 2464 2585 2170 2714 2093 2739 
C 1882 2816 1613 2816 1542 2816 
C 710 2816 211 2093 211 1363 
C 211 595 768 -64 1517 -64 
C 1946 -64 2253 76 2502 242 
L 2464 664 
C 2189 453 1869 337 1523 337 
C 1024 337 698 774 698 1369 
C 698 1831 909 2414 1549 2414 
C 1901 2414 2099 2343 2394 2145 
L 2464 2541 
z
" transform="scale(0.015625)"/>
       <path id="CMSS17-61" d="M 2406 1791 
C 2406 2392 1978 2808 1402 2808 
C 1120 2808 813 2757 461 2553 
L 499 2135 
C 659 2248 934 2432 1395 2432 
C 1722 2432 1920 2180 1920 1782 
L 1920 1536 
C 896 1536 256 1238 256 726 
C 256 461 416 -64 947 -64 
C 1043 -64 1562 -64 1933 217 
L 1933 -19 
L 2406 -19 
L 2406 1791 
z
M 1920 816 
C 1920 701 1920 548 1728 434 
C 1562 325 1350 325 1261 325 
C 941 325 723 511 723 744 
C 723 1211 1722 1211 1920 1211 
L 1920 816 
z
" transform="scale(0.015625)"/>
       <path id="CMSS17-6c" d="M 947 4416 
L 474 4416 
L 474 0 
L 947 0 
L 947 4416 
z
" transform="scale(0.015625)"/>
       <path id="CMSS17-69" d="M 979 4183 
L 442 4183 
L 442 3648 
L 979 3648 
L 979 4183 
z
M 947 2739 
L 474 2739 
L 474 0 
L 947 0 
L 947 2739 
z
" transform="scale(0.015625)"/>
       <path id="CMSS17-6d" d="M 4288 1877 
C 4288 2308 4179 2816 3462 2816 
C 2982 2816 2694 2516 2566 2331 
C 2451 2670 2182 2816 1798 2816 
C 1363 2816 1088 2568 941 2389 
L 941 2758 
L 474 2758 
L 474 0 
L 960 0 
L 960 1559 
C 960 1939 1101 2428 1555 2428 
C 2138 2428 2138 2016 2138 1829 
L 2138 0 
L 2624 0 
L 2624 1559 
C 2624 1939 2765 2428 3219 2428 
C 3802 2428 3802 2016 3802 1829 
L 3802 0 
L 4288 0 
L 4288 1877 
z
" transform="scale(0.015625)"/>
       <path id="CMSS17-79" d="M 2675 2752 
L 2176 2752 
C 1632 1294 1446 702 1434 383 
L 1427 383 
C 1408 696 1126 1460 902 2007 
L 602 2752 
L 83 2752 
L 1216 13 
C 1146 -178 1043 -465 1011 -529 
C 870 -885 774 -885 672 -885 
C 646 -885 442 -885 211 -809 
L 250 -1229 
C 410 -1261 570 -1280 685 -1280 
C 845 -1280 1165 -1280 1459 -497 
L 2675 2752 
z
" transform="scale(0.015625)"/>
       <path id="CMSS17-49" d="M 1094 4416 
L 557 4416 
L 557 0 
L 1094 0 
L 1094 4416 
z
" transform="scale(0.015625)"/>
       <path id="CMSS17-6e" d="M 2618 1877 
C 2618 2283 2522 2816 1798 2816 
C 1389 2816 1120 2606 941 2389 
L 941 2758 
L 474 2758 
L 474 0 
L 960 0 
L 960 1559 
C 960 1964 1114 2428 1549 2428 
C 2112 2428 2131 2048 2131 1829 
L 2131 0 
L 2618 0 
L 2618 1877 
z
" transform="scale(0.015625)"/>
       <path id="CMSS17-64" d="M 2611 4416 
L 2138 4416 
L 2138 2438 
C 1939 2603 1613 2756 1254 2756 
C 672 2756 211 2131 211 1347 
C 211 562 666 -64 1235 -64 
C 1677 -64 1971 172 2125 306 
L 2125 -13 
L 2611 -13 
L 2611 4416 
z
M 2125 836 
C 2125 747 2125 653 1926 482 
C 1798 375 1645 325 1498 325 
C 1152 325 698 576 698 1340 
C 698 2134 1210 2368 1562 2368 
C 1798 2368 1990 2254 2125 2065 
L 2125 836 
z
" transform="scale(0.015625)"/>
       <path id="CMSS17-78" d="M 1587 1414 
L 2656 2739 
L 2099 2739 
L 1363 1777 
L 602 2739 
L 32 2739 
L 1139 1414 
L 0 0 
L 563 0 
L 1363 1121 
L 2195 0 
L 2758 0 
L 1587 1414 
z
" transform="scale(0.015625)"/>
       <path id="CMSS17-4d" d="M 3194 2371 
L 2886 1473 
C 2835 1307 2662 791 2624 587 
L 2618 587 
C 2598 715 2560 849 2458 1174 
C 2400 1365 2336 1562 2272 1741 
L 1325 4416 
L 576 4416 
L 576 0 
L 1075 0 
L 1075 3900 
L 1082 3900 
C 1082 3894 1139 3613 1530 2499 
L 2374 96 
L 2848 96 
L 3610 2231 
C 3661 2378 3821 2843 3891 3066 
C 3955 3257 4115 3728 4154 3913 
L 4160 3913 
L 4160 0 
L 4666 0 
L 4666 4416 
L 3923 4416 
L 3194 2371 
z
" transform="scale(0.015625)"/>
       <path id="CMSS17-73" d="M 2061 2627 
C 1683 2807 1389 2807 1197 2807 
C 742 2807 198 2648 198 2003 
C 198 1359 902 1218 1094 1179 
C 1389 1122 1715 1058 1715 740 
C 1715 337 1254 337 1171 337 
C 915 337 563 407 243 638 
L 166 210 
C 531 0 883 -64 1178 -64 
C 1965 -64 2163 416 2163 781 
C 2163 1094 1984 1305 1862 1401 
C 1651 1568 1574 1587 1050 1696 
C 960 1709 646 1779 646 2066 
C 646 2432 1050 2432 1139 2432 
C 1555 2432 1811 2303 1984 2208 
L 2061 2627 
z
" transform="scale(0.015625)"/>
       <path id="CMSS17-28" d="M 1613 4768 
C 1267 4417 474 3601 474 1588 
C 474 -433 1267 -1243 1613 -1600 
L 2003 -1600 
C 1216 -784 960 357 960 1581 
C 960 2798 1203 3946 2003 4768 
L 1613 4768 
z
" transform="scale(0.015625)"/>
       <path id="CMSS17-29" d="M 723 -1600 
C 1069 -1249 1862 -433 1862 1581 
C 1862 3601 1069 4411 723 4768 
L 333 4768 
C 1120 3952 1376 2811 1376 1588 
C 1376 370 1133 -778 333 -1600 
L 723 -1600 
z
" transform="scale(0.015625)"/>
      </defs>
      <use xlink:href="#CMSS17-53" transform="scale(0.996264)"/>
      <use xlink:href="#CMSS17-74" transform="translate(52.048516 0) scale(0.996264)"/>
      <use xlink:href="#CMSS17-72" transform="translate(85.880083 0) scale(0.996264)"/>
      <use xlink:href="#CMSS17-75" transform="translate(117.789855 0) scale(0.996264)"/>
      <use xlink:href="#CMSS17-63" transform="translate(165.994799 0) scale(0.996264)"/>
      <use xlink:href="#CMSS17-74" transform="translate(207.633621 0) scale(0.996264)"/>
      <use xlink:href="#CMSS17-75" transform="translate(241.465187 0) scale(0.996264)"/>
      <use xlink:href="#CMSS17-72" transform="translate(289.67013 0) scale(0.996264)"/>
      <use xlink:href="#CMSS17-61" transform="translate(321.579903 0) scale(0.996264)"/>
      <use xlink:href="#CMSS17-6c" transform="translate(366.501824 0) scale(0.996264)"/>
      <use xlink:href="#CMSS17-53" transform="translate(419.911659 0) scale(0.996264)"/>
      <use xlink:href="#CMSS17-69" transform="translate(471.960176 0) scale(0.996264)"/>
      <use xlink:href="#CMSS17-6d" transform="translate(494.140899 0) scale(0.996264)"/>
      <use xlink:href="#CMSS17-69" transform="translate(568.370153 0) scale(0.996264)"/>
      <use xlink:href="#CMSS17-6c" transform="translate(590.550876 0) scale(0.996264)"/>
      <use xlink:href="#CMSS17-61" transform="translate(612.731599 0) scale(0.996264)"/>
      <use xlink:href="#CMSS17-72" transform="translate(655.051066 0) scale(0.996264)"/>
      <use xlink:href="#CMSS17-69" transform="translate(686.960838 0) scale(0.996264)"/>
      <use xlink:href="#CMSS17-74" transform="translate(709.141561 0) scale(0.996264)"/>
      <use xlink:href="#CMSS17-79" transform="translate(740.370674 0) scale(0.996264)"/>
      <use xlink:href="#CMSS17-49" transform="translate(814.599929 0) scale(0.996264)"/>
      <use xlink:href="#CMSS17-6e" transform="translate(840.383854 0) scale(0.996264)"/>
      <use xlink:href="#CMSS17-64" transform="translate(888.588797 0) scale(0.996264)"/>
      <use xlink:href="#CMSS17-65" transform="translate(936.79374 0) scale(0.996264)"/>
      <use xlink:href="#CMSS17-78" transform="translate(978.432562 0) scale(0.996264)"/>
      <use xlink:href="#CMSS17-4d" transform="translate(1052.661817 0) scale(0.996264)"/>
      <use xlink:href="#CMSS17-65" transform="translate(1134.337847 0) scale(0.996264)"/>
      <use xlink:href="#CMSS17-61" transform="translate(1175.976669 0) scale(0.996264)"/>
      <use xlink:href="#CMSS17-73" transform="translate(1220.89859 0) scale(0.996264)"/>
      <use xlink:href="#CMSS17-75" transform="translate(1256.812132 0) scale(0.996264)"/>
      <use xlink:href="#CMSS17-72" transform="translate(1305.017075 0) scale(0.996264)"/>
      <use xlink:href="#CMSS17-65" transform="translate(1336.926847 0) scale(0.996264)"/>
      <use xlink:href="#CMSS17-28" transform="translate(1409.794782 0) scale(0.996264)"/>
      <use xlink:href="#CMSS17-53" transform="translate(1446.228696 0) scale(0.996264)"/>
      <use xlink:href="#CMSS17-53" transform="translate(1498.277212 0) scale(0.996264)"/>
      <use xlink:href="#CMSS17-49" transform="translate(1550.325729 0) scale(0.996264)"/>
      <use xlink:href="#CMSS17-4d" transform="translate(1576.109654 0) scale(0.996264)"/>
      <use xlink:href="#CMSS17-29" transform="translate(1657.785684 0) scale(0.996264)"/>
     </g>
    </g>
   </g>
   <g id="PolyCollection_1">
    <defs>
     <path id="mfc856a2773" d="M 116.84154 -307.067491 
L 116.84154 -272.104972 
L 122.394579 -285.428068 
L 127.947619 -310.971073 
L 133.500658 -327.688588 
L 139.053698 -340.417661 
L 144.606737 -341.690568 
L 150.159777 -342.708894 
L 155.712816 -339.059893 
L 161.265856 -331.083008 
L 166.818895 -331.592171 
L 172.371935 -325.312495 
L 177.924975 -338.55073 
L 183.478014 -336.004916 
L 189.031054 -349.158291 
L 194.584093 -350.176617 
L 200.137133 -350.346338 
L 205.690172 -350.346338 
L 211.243212 -350.006896 
L 216.796251 -347.29136 
L 222.349291 -346.612476 
L 227.90233 -346.018453 
L 233.45537 -343.896941 
L 239.00841 -342.793755 
L 244.561449 -340.24794 
L 250.114489 -338.635591 
L 255.667528 -339.144754 
L 261.220568 -340.757103 
L 266.773607 -341.775429 
L 272.326647 -341.520847 
L 277.879686 -341.181405 
L 283.432726 -342.199731 
L 288.985765 -344.151522 
L 294.538805 -336.938381 
L 300.091844 -334.732009 
L 305.644884 -332.695357 
L 311.197924 -331.337589 
L 316.750963 -334.222846 
L 322.304003 -329.64038 
L 327.857042 -329.72524 
L 333.410082 -329.979821 
L 338.963121 -328.452333 
L 344.516161 -324.209309 
L 350.0692 -329.810101 
L 355.62224 -330.743566 
L 361.175279 -326.755123 
L 366.728319 -328.282612 
L 372.281359 -330.488984 
L 377.834398 -330.573845 
L 383.387438 -332.355915 
L 388.940477 -332.440776 
L 394.493517 -100.432213 
L 400.046556 -104.929819 
L 405.599596 -112.397541 
L 411.152635 -120.798729 
L 416.705675 -135.055291 
L 422.258714 -138.789152 
L 427.811754 -141.759269 
L 433.364793 -139.383175 
L 438.917833 -140.486362 
L 444.470873 -141.92899 
L 450.023912 -142.692734 
L 455.576952 -140.062059 
L 461.129991 -141.92899 
L 466.683031 -144.644525 
L 472.23607 -144.644525 
L 477.78911 -144.644525 
L 483.342149 -146.935758 
L 488.895189 -148.632968 
L 494.448228 -153.809457 
L 500.001268 -154.997504 
L 505.554308 -161.27718 
L 511.107347 -159.919412 
L 516.660387 -165.265623 
L 522.213426 -165.265623 
L 527.766466 -164.926181 
L 533.319505 -164.332157 
L 538.872545 -159.49511 
L 544.425584 -155.167225 
L 549.978624 -155.167225 
L 555.531663 -153.724597 
L 561.084703 -151.178783 
L 566.637743 -151.093922 
L 572.190782 -151.348503 
L 577.743822 -150.584759 
L 583.296861 -149.990736 
L 588.849901 -149.736154 
L 594.40294 -149.736154 
L 599.95598 -149.481573 
L 605.509019 -145.917433 
L 611.062059 -138.619431 
L 616.615098 -139.722617 
L 622.168138 -145.917433 
L 627.721177 -155.846109 
L 633.274217 -159.325389 
L 638.827257 -159.325389 
L 644.380296 -159.240528 
L 649.933336 -159.410249 
L 655.486375 -152.960853 
L 661.039415 -160.004273 
L 666.592454 -161.531762 
L 666.592454 -233.323731 
L 666.592454 -233.323731 
L 661.039415 -233.15401 
L 655.486375 -237.566755 
L 649.933336 -247.750013 
L 644.380296 -241.724919 
L 638.827257 -244.864756 
L 633.274217 -237.991057 
L 627.721177 -236.63329 
L 622.168138 -238.160778 
L 616.615098 -236.548429 
L 611.062059 -231.626521 
L 605.509019 -234.172335 
L 599.95598 -248.513757 
L 594.40294 -244.779896 
L 588.849901 -242.573523 
L 583.296861 -253.859968 
L 577.743822 -262.176295 
L 572.190782 -272.698995 
L 566.637743 -276.263135 
L 561.084703 -288.822487 
L 555.531663 -278.299787 
L 549.978624 -265.485854 
L 544.425584 -261.24283 
L 538.872545 -240.027709 
L 533.319505 -227.468357 
L 527.766466 -223.479915 
L 522.213426 -229.929311 
L 516.660387 -229.165567 
L 511.107347 -229.505009 
L 505.554308 -229.75959 
L 500.001268 -232.814568 
L 494.448228 -224.667961 
L 488.895189 -216.691076 
L 483.342149 -211.514586 
L 477.78911 -207.695865 
L 472.23607 -201.755631 
L 466.683031 -197.767188 
L 461.129991 -196.069978 
L 455.576952 -193.693885 
L 450.023912 -197.597467 
L 444.470873 -179.691905 
L 438.917833 -172.987927 
L 433.364793 -172.139322 
L 427.811754 -170.187531 
L 422.258714 -163.992716 
L 416.705675 -157.288737 
L 411.152635 -142.438153 
L 405.599596 -145.49313 
L 400.046556 -136.243337 
L 394.493517 -122.66566 
L 388.940477 -446.493265 
L 383.387438 -438.176938 
L 377.834398 -446.408405 
L 372.281359 -445.220358 
L 366.728319 -434.358216 
L 361.175279 -430.284913 
L 355.62224 -429.521169 
L 350.0692 -423.071772 
L 344.516161 -413.482537 
L 338.963121 -432.236704 
L 333.410082 -436.81917 
L 327.857042 -462.447036 
L 322.304003 -452.60322 
L 316.750963 -439.704427 
L 311.197924 -440.29845 
L 305.644884 -437.158612 
L 300.091844 -435.631124 
L 294.538805 -447.426731 
L 288.985765 -457.355407 
L 283.432726 -460.240664 
L 277.879686 -460.240664 
L 272.326647 -453.791267 
L 266.773607 -454.30043 
L 261.220568 -464.483688 
L 255.667528 -449.972545 
L 250.114489 -464.229107 
L 244.561449 -457.015965 
L 239.00841 -455.743058 
L 233.45537 -449.802824 
L 227.90233 -453.197244 
L 222.349291 -461.768153 
L 216.796251 -462.871339 
L 211.243212 -462.022734 
L 205.690172 -457.440268 
L 200.137133 -444.202032 
L 194.584093 -444.117172 
L 189.031054 -440.637892 
L 183.478014 -442.335102 
L 177.924975 -439.025543 
L 172.371935 -437.498054 
L 166.818895 -429.521169 
L 161.265856 -420.780539 
L 155.712816 -418.743887 
L 150.159777 -392.097695 
L 144.606737 -389.721602 
L 139.053698 -381.574996 
L 133.500658 -368.676202 
L 127.947619 -354.674222 
L 122.394579 -344.915267 
L 116.84154 -307.067491 
z
" style="stroke: #ffffff; stroke-opacity: 0.2"/>
    </defs>
    <g clip-path="url(#pa36c10feb9)">
     <use xlink:href="#mfc856a2773" x="0" y="576" style="fill: #4c72b0; fill-opacity: 0.2; stroke: #ffffff; stroke-opacity: 0.2"/>
    </g>
   </g>
   <g id="PolyCollection_2">
    <defs>
     <path id="mb48a88f504" d="M 116.84154 -308.085817 
L 116.84154 -293.320093 
L 122.394579 -298.496582 
L 127.947619 -305.1157 
L 133.500658 -320.220866 
L 139.053698 -330.998147 
L 144.606737 -344.830406 
L 150.159777 -347.630802 
L 155.712816 -348.139965 
L 161.265856 -348.98857 
L 166.818895 -351.364663 
L 172.371935 -353.571036 
L 177.924975 -353.655896 
L 183.478014 -353.571036 
L 189.031054 -356.201711 
L 194.584093 -352.213268 
L 200.137133 -347.461081 
L 205.690172 -348.903709 
L 211.243212 -348.98857 
L 216.796251 -354.33478 
L 222.349291 -364.093736 
L 227.90233 -364.602899 
L 233.45537 -360.953898 
L 239.00841 -359.680991 
L 244.561449 -349.582593 
L 250.114489 -359.850712 
L 255.667528 -354.589362 
L 261.220568 -360.444735 
L 266.773607 -354.589362 
L 272.326647 -351.279803 
L 277.879686 -359.341549 
L 283.432726 -356.11685 
L 288.985765 -349.752314 
L 294.538805 -349.497733 
L 300.091844 -349.752314 
L 305.644884 -345.000127 
L 311.197924 -342.793755 
L 316.750963 -365.960667 
L 322.304003 -367.742737 
L 327.857042 -367.233574 
L 333.410082 -367.063853 
L 338.963121 -366.724411 
L 344.516161 -368.930783 
L 350.0692 -377.501692 
L 355.62224 -385.478578 
L 361.175279 -381.574996 
L 366.728319 -378.85946 
L 372.281359 -378.944321 
L 377.834398 -373.937552 
L 383.387438 -378.265437 
L 388.940477 -374.022412 
L 394.493517 -111.548937 
L 400.046556 -122.241358 
L 405.599596 -125.381195 
L 411.152635 -128.945336 
L 416.705675 -123.344544 
L 422.258714 -117.913473 
L 427.811754 -113.331007 
L 433.364793 -111.464076 
L 438.917833 -115.452519 
L 444.470873 -117.064868 
L 450.023912 -116.470845 
L 455.576952 -120.713869 
L 461.129991 -126.060079 
L 466.683031 -130.133383 
L 472.23607 -147.444921 
L 477.78911 -162.550087 
L 483.342149 -164.84132 
L 488.895189 -165.265623 
L 494.448228 -165.689925 
L 500.001268 -167.556856 
L 505.554308 -169.848089 
L 511.107347 -166.962832 
L 516.660387 -170.01781 
L 522.213426 -164.586739 
L 527.766466 -157.882761 
L 533.319505 -158.052482 
L 538.872545 -158.222203 
L 544.425584 -156.949295 
L 549.978624 -156.949295 
L 555.531663 -157.543319 
L 561.084703 -157.7979 
L 566.637743 -155.93097 
L 572.190782 -154.148899 
L 577.743822 -149.226991 
L 583.296861 -145.747712 
L 588.849901 -139.213454 
L 594.40294 -137.770826 
L 599.95598 -139.468036 
L 605.509019 -145.917433 
L 611.062059 -155.846109 
L 616.615098 -155.93097 
L 622.168138 -151.518224 
L 627.721177 -151.009062 
L 633.274217 -149.396712 
L 638.827257 -152.366829 
L 644.380296 -141.844129 
L 649.933336 -135.479593 
L 655.486375 -134.376407 
L 661.039415 -129.115057 
L 666.592454 -129.030196 
L 666.592454 -297.902559 
L 666.592454 -297.902559 
L 661.039415 -263.0249 
L 655.486375 -253.011363 
L 649.933336 -260.818527 
L 644.380296 -253.605386 
L 638.827257 -255.726898 
L 633.274217 -261.497411 
L 627.721177 -271.086646 
L 622.168138 -269.898599 
L 616.615098 -266.249598 
L 611.062059 -266.249598 
L 605.509019 -264.891831 
L 599.95598 -252.247618 
L 594.40294 -215.67275 
L 588.849901 -218.388286 
L 583.296861 -227.298636 
L 577.743822 -217.709402 
L 572.190782 -223.395054 
L 566.637743 -221.528123 
L 561.084703 -228.316962 
L 555.531663 -230.014172 
L 549.978624 -245.034477 
L 544.425584 -243.422128 
L 538.872545 -236.972731 
L 533.319505 -216.436494 
L 527.766466 -202.264794 
L 522.213426 -205.828934 
L 516.660387 -202.858817 
L 511.107347 -198.276351 
L 505.554308 -196.918583 
L 500.001268 -212.448052 
L 494.448228 -211.938889 
L 488.895189 -210.835702 
L 483.342149 -209.732516 
L 477.78911 -207.526144 
L 472.23607 -204.980329 
L 466.683031 -202.434515 
L 461.129991 -201.755631 
L 455.576952 -198.785514 
L 450.023912 -192.166396 
L 444.470873 -196.069978 
L 438.917833 -189.111419 
L 433.364793 -179.352463 
L 427.811754 -152.197108 
L 422.258714 -145.832572 
L 416.705675 -137.516245 
L 411.152635 -133.952104 
L 405.599596 -137.601105 
L 400.046556 -132.085174 
L 394.493517 -128.521033 
L 388.940477 -429.266587 
L 383.387438 -455.658198 
L 377.834398 -497.494416 
L 372.281359 -460.580106 
L 366.728319 -464.229107 
L 361.175279 -454.30043 
L 355.62224 -449.208801 
L 350.0692 -444.626335 
L 344.516161 -445.305219 
L 338.963121 -443.098846 
L 333.410082 -446.068963 
L 327.857042 -443.86259 
L 322.304003 -455.658198 
L 316.750963 -456.0825 
L 311.197924 -454.639872 
L 305.644884 -453.282104 
L 300.091844 -453.536686 
L 294.538805 -447.34187 
L 288.985765 -417.301259 
L 283.432726 -427.060215 
L 277.879686 -449.887685 
L 272.326647 -468.896433 
L 266.773607 -483.152994 
L 261.220568 -492.402787 
L 255.667528 -503.264929 
L 250.114489 -505.895604 
L 244.561449 -503.180069 
L 239.00841 -483.407576 
L 233.45537 -467.623526 
L 227.90233 -467.708386 
L 222.349291 -467.623526 
L 216.796251 -462.107594 
L 211.243212 -457.270547 
L 205.690172 -431.55782 
L 200.137133 -429.860611 
L 194.584093 -426.720773 
L 189.031054 -430.963797 
L 183.478014 -396.42558 
L 177.924975 -412.12477 
L 172.371935 -398.377371 
L 166.818895 -378.010855 
L 161.265856 -377.756274 
L 155.712816 -375.974204 
L 150.159777 -370.882575 
L 144.606737 -373.428389 
L 139.053698 -367.148713 
L 133.500658 -361.208479 
L 127.947619 -358.238363 
L 122.394579 -340.841963 
L 116.84154 -308.085817 
z
" style="stroke: #ffffff; stroke-opacity: 0.2"/>
    </defs>
    <g clip-path="url(#pa36c10feb9)">
     <use xlink:href="#mb48a88f504" x="0" y="576" style="fill: #dd8452; fill-opacity: 0.2; stroke: #ffffff; stroke-opacity: 0.2"/>
    </g>
   </g>
   <g id="PolyCollection_3">
    <defs>
     <path id="m36c56f2f08" d="M 116.84154 -324.124448 
L 116.84154 -271.341227 
L 122.394579 -283.900579 
L 127.947619 -279.148392 
L 133.500658 -303.842793 
L 139.053698 -303.757932 
L 144.606737 -321.833215 
L 150.159777 -335.326032 
L 155.712816 -347.885384 
L 161.265856 -338.975033 
L 166.818895 -339.569056 
L 172.371935 -353.146734 
L 177.924975 -355.522827 
L 183.478014 -355.607688 
L 189.031054 -355.437967 
L 194.584093 -355.607688 
L 200.137133 -355.013664 
L 205.690172 -353.825617 
L 211.243212 -353.655896 
L 216.796251 -353.995338 
L 222.349291 -353.995338 
L 227.90233 -353.910478 
L 233.45537 -351.364663 
L 239.00841 -347.630802 
L 244.561449 -347.800523 
L 250.114489 -347.970244 
L 255.667528 -345.084988 
L 261.220568 -346.612476 
L 266.773607 -340.841963 
L 272.326647 -334.053125 
L 277.879686 -333.713683 
L 283.432726 -333.374241 
L 288.985765 -333.119659 
L 294.538805 -337.108102 
L 300.091844 -337.108102 
L 305.644884 -337.108102 
L 311.197924 -337.108102 
L 316.750963 -340.587382 
L 322.304003 -340.587382 
L 327.857042 -353.995338 
L 333.410082 -362.057084 
L 338.963121 -368.761062 
L 344.516161 -366.63955 
L 350.0692 -362.141945 
L 355.62224 -357.983781 
L 361.175279 -334.98659 
L 366.728319 -335.156311 
L 372.281359 -347.461081 
L 377.834398 -350.600919 
L 383.387438 -350.006896 
L 388.940477 -350.685779 
L 394.493517 -102.553725 
L 400.046556 -107.815075 
L 405.599596 -112.906704 
L 411.152635 -114.349333 
L 416.705675 -113.161286 
L 422.258714 -106.287587 
L 427.811754 -113.161286 
L 433.364793 -113.670449 
L 438.917833 -115.197937 
L 444.470873 -114.858496 
L 450.023912 -115.537379 
L 455.576952 -115.876821 
L 461.129991 -117.149729 
L 466.683031 -117.234589 
L 472.23607 -117.064868 
L 477.78911 -116.980008 
L 483.342149 -116.980008 
L 488.895189 -116.725426 
L 494.448228 -123.174823 
L 500.001268 -133.952104 
L 505.554308 -149.736154 
L 511.107347 -152.027387 
L 516.660387 -159.749691 
L 522.213426 -168.914624 
L 527.766466 -169.423786 
L 533.319505 -168.744903 
L 538.872545 -166.877972 
L 544.425584 -145.068828 
L 549.978624 -139.468036 
L 555.531663 -143.117037 
L 561.084703 -151.687945 
L 566.637743 -159.49511 
L 572.190782 -160.089133 
L 577.743822 -169.932949 
L 583.296861 -177.740114 
L 588.849901 -182.152859 
L 594.40294 -185.207836 
L 599.95598 -185.462418 
L 605.509019 -189.026558 
L 611.062059 -193.863606 
L 616.615098 -198.10663 
L 622.168138 -193.099861 
L 627.721177 -189.790303 
L 633.274217 -194.966792 
L 638.827257 -194.62735 
L 644.380296 -194.62735 
L 649.933336 -190.129744 
L 655.486375 -176.891509 
L 661.039415 -170.357252 
L 666.592454 -166.283949 
L 666.592454 -225.177124 
L 666.592454 -225.177124 
L 661.039415 -227.044055 
L 655.486375 -229.080706 
L 649.933336 -218.558006 
L 644.380296 -226.789473 
L 638.827257 -236.208987 
L 633.274217 -247.410571 
L 627.721177 -247.580292 
L 622.168138 -246.137664 
L 616.615098 -247.24085 
L 611.062059 -254.708573 
L 605.509019 -242.912965 
L 599.95598 -249.871525 
L 594.40294 -259.46076 
L 588.849901 -248.174315 
L 583.296861 -247.24085 
L 577.743822 -254.963154 
L 572.190782 -256.320922 
L 566.637743 -255.387456 
L 561.084703 -238.754802 
L 555.531663 -240.112569 
L 549.978624 -241.809779 
L 544.425584 -247.580292 
L 538.872545 -238.924523 
L 533.319505 -237.906197 
L 527.766466 -242.997826 
L 522.213426 -240.791453 
L 516.660387 -239.094244 
L 511.107347 -232.220544 
L 505.554308 -229.165567 
L 500.001268 -219.321751 
L 494.448228 -216.097052 
L 488.895189 -203.198259 
L 483.342149 -201.416189 
L 477.78911 -200.737305 
L 472.23607 -200.313003 
L 466.683031 -200.313003 
L 461.129991 -198.446072 
L 455.576952 -193.524164 
L 450.023912 -189.28114 
L 444.470873 -169.338926 
L 438.917833 -160.258854 
L 433.364793 -155.167225 
L 427.811754 -156.355272 
L 422.258714 -150.839341 
L 416.705675 -150.330178 
L 411.152635 -151.178783 
L 405.599596 -148.293526 
L 400.046556 -126.654103 
L 394.493517 -122.071637 
L 388.940477 -481.964948 
L 383.387438 -481.795227 
L 377.834398 -478.485668 
L 372.281359 -478.231086 
L 366.728319 -471.951411 
L 361.175279 -463.804804 
L 355.62224 -460.919548 
L 350.0692 -451.669755 
L 344.516161 -415.943491 
L 338.963121 -412.039909 
L 333.410082 -426.126749 
L 327.857042 -432.661007 
L 322.304003 -432.915588 
L 316.750963 -432.915588 
L 311.197924 -441.825939 
L 305.644884 -441.910799 
L 300.091844 -438.770961 
L 294.538805 -440.043869 
L 288.985765 -439.959008 
L 283.432726 -446.408405 
L 277.879686 -440.128729 
L 272.326647 -438.092078 
L 266.773607 -437.837496 
L 261.220568 -439.619566 
L 255.667528 -431.218378 
L 250.114489 -436.055426 
L 244.561449 -440.977334 
L 239.00841 -469.066154 
L 233.45537 -476.024714 
L 227.90233 -476.109574 
L 222.349291 -476.109574 
L 216.796251 -475.600411 
L 211.243212 -475.006388 
L 205.690172 -471.86655 
L 200.137133 -462.107594 
L 194.584093 -452.857802 
L 189.031054 -436.564589 
L 183.478014 -440.722753 
L 177.924975 -425.872168 
L 172.371935 -395.831557 
L 166.818895 -377.756274 
L 161.265856 -378.350297 
L 155.712816 -377.331971 
L 150.159777 -373.088947 
L 144.606737 -368.930783 
L 139.053698 -346.782197 
L 133.500658 -345.084988 
L 127.947619 -339.229614 
L 122.394579 -329.810101 
L 116.84154 -324.124448 
z
" style="stroke: #ffffff; stroke-opacity: 0.2"/>
    </defs>
    <g clip-path="url(#pa36c10feb9)">
     <use xlink:href="#m36c56f2f08" x="0" y="576" style="fill: #55a868; fill-opacity: 0.2; stroke: #ffffff; stroke-opacity: 0.2"/>
    </g>
   </g>
   <g id="line2d_13">
    <path d="M 116.84154 276.485092 
L 122.394579 254.251645 
L 127.947619 231.339315 
L 133.500658 231.254454 
L 139.053698 225.568802 
L 144.606737 220.901475 
L 150.159777 227.520593 
L 155.712816 214.367218 
L 161.265856 216.234149 
L 166.818895 218.779963 
L 172.371935 209.784752 
L 177.924975 207.323798 
L 183.478014 205.456867 
L 189.031054 204.777983 
L 194.584093 208.681566 
L 200.137133 198.074005 
L 205.690172 192.133771 
L 211.243212 187.042142 
L 216.796251 167.609092 
L 222.349291 175.501117 
L 227.90233 161.923439 
L 233.45537 182.035374 
L 239.00841 175.840559 
L 244.561449 180.507885 
L 250.114489 179.150117 
L 255.667528 179.234978 
L 261.220568 168.966859 
L 266.773607 178.640955 
L 272.326647 174.31307 
L 277.879686 174.31307 
L 283.432726 179.065257 
L 288.985765 195.782772 
L 294.538805 190.860864 
L 300.091844 175.925419 
L 305.644884 180.762467 
L 311.197924 175.076814 
L 316.750963 174.907093 
L 322.304003 176.774024 
L 327.857042 186.787561 
L 333.410082 210.209054 
L 338.963121 210.124194 
L 344.516161 213.094311 
L 350.0692 214.452079 
L 355.62224 216.573591 
L 361.175279 218.18594 
L 366.728319 216.064428 
L 372.281359 216.149288 
L 377.834398 219.373987 
L 383.387438 216.149288 
L 388.940477 196.461656 
L 394.493517 465.045087 
L 400.046556 452.655456 
L 405.599596 444.169408 
L 411.152635 436.786546 
L 416.705675 436.616825 
L 422.258714 432.20408 
L 427.811754 430.761451 
L 433.364793 430.761451 
L 438.917833 429.658265 
L 444.470873 426.773009 
L 450.023912 425.669822 
L 455.576952 425.160659 
L 461.129991 412.516447 
L 466.683031 407.000516 
L 472.23607 401.569445 
L 477.78911 395.883793 
L 483.342149 386.379418 
L 488.895189 380.863487 
L 494.448228 372.801741 
L 500.001268 354.387016 
L 505.554308 351.671481 
L 511.107347 364.230832 
L 516.660387 370.84995 
L 522.213426 375.517277 
L 527.766466 376.365881 
L 533.319505 373.989788 
L 538.872545 372.037997 
L 544.425584 384.257906 
L 549.978624 374.753532 
L 555.531663 374.838393 
L 561.084703 375.771858 
L 566.637743 384.512488 
L 572.190782 375.941579 
L 577.743822 365.334018 
L 583.296861 344.45834 
L 588.849901 361.515297 
L 594.40294 356.169086 
L 599.95598 363.127646 
L 605.509019 359.563506 
L 611.062059 360.581831 
L 616.615098 359.393785 
L 622.168138 366.691786 
L 627.721177 373.226043 
L 633.274217 371.613694 
L 638.827257 374.074648 
L 644.380296 386.549139 
L 649.933336 404.624422 
L 655.486375 401.484584 
L 661.039415 406.067051 
L 666.592454 406.067051 
" clip-path="url(#pa36c10feb9)" style="fill: none; stroke: #4c72b0; stroke-width: 1.5; stroke-linecap: round"/>
   </g>
   <g id="line2d_14">
    <path d="M 116.84154 273.599836 
L 122.394579 243.559224 
L 127.947619 239.655642 
L 133.500658 219.289126 
L 139.053698 221.580359 
L 144.606737 217.252475 
L 150.159777 211.906264 
L 155.712816 208.172403 
L 161.265856 208.172403 
L 166.818895 205.711449 
L 172.371935 193.915842 
L 177.924975 191.87919 
L 183.478014 193.746121 
L 189.031054 196.037354 
L 194.584093 190.09712 
L 200.137133 191.454888 
L 205.690172 191.539748 
L 211.243212 190.691143 
L 216.796251 190.09712 
L 222.349291 191.96405 
L 227.90233 191.200306 
L 233.45537 191.370027 
L 239.00841 201.468425 
L 244.561449 208.851287 
L 250.114489 208.172403 
L 255.667528 208.172403 
L 261.220568 205.456867 
L 266.773607 205.626588 
L 272.326647 205.202286 
L 277.879686 204.693123 
L 283.432726 205.287146 
L 288.985765 192.048911 
L 294.538805 182.120234 
L 300.091844 175.076814 
L 305.644884 168.966859 
L 311.197924 171.003511 
L 316.750963 182.205095 
L 322.304003 172.021837 
L 327.857042 170.154906 
L 333.410082 172.021837 
L 338.963121 175.416256 
L 344.516161 181.017048 
L 350.0692 183.647723 
L 355.62224 171.173232 
L 361.175279 172.785581 
L 366.728319 177.537768 
L 372.281359 185.005491 
L 377.834398 174.228209 
L 383.387438 174.058488 
L 388.940477 179.150117 
L 394.493517 458.341109 
L 400.046556 445.866617 
L 405.599596 444.339129 
L 411.152635 442.557059 
L 416.705675 442.302477 
L 422.258714 440.944709 
L 427.811754 438.398895 
L 433.364793 431.355475 
L 438.917833 431.185754 
L 444.470873 430.761451 
L 450.023912 423.208868 
L 455.576952 413.365052 
L 461.129991 410.479796 
L 466.683031 411.073819 
L 472.23607 410.564656 
L 477.78911 407.933981 
L 483.342149 406.745934 
L 488.895189 406.915655 
L 494.448228 408.273423 
L 500.001268 402.927213 
L 505.554308 391.640768 
L 511.107347 386.464279 
L 516.660387 385.615674 
L 522.213426 384.597348 
L 527.766466 384.85193 
L 533.319505 385.870256 
L 538.872545 388.925233 
L 544.425584 393.253118 
L 549.978624 394.356304 
L 555.531663 397.920444 
L 561.084703 397.496142 
L 566.637743 393.847141 
L 572.190782 392.743955 
L 577.743822 397.496142 
L 583.296861 394.101722 
L 588.849901 393.59256 
L 594.40294 400.466259 
L 599.95598 407.76426 
L 605.509019 406.830795 
L 611.062059 411.413261 
L 616.615098 412.601308 
L 622.168138 413.534773 
L 627.721177 417.777797 
L 633.274217 408.103702 
L 638.827257 405.133585 
L 644.380296 394.356304 
L 649.933336 393.76228 
L 655.486375 401.060282 
L 661.039415 383.409301 
L 666.592454 375.432416 
" clip-path="url(#pa36c10feb9)" style="fill: none; stroke: #dd8452; stroke-width: 1.5; stroke-linecap: round"/>
   </g>
   <g id="line2d_15">
    <path d="M 116.84154 274.108999 
L 122.394579 263.077136 
L 127.947619 249.244877 
L 133.500658 241.01341 
L 139.053698 232.357641 
L 144.606737 232.866804 
L 150.159777 224.974779 
L 155.712816 221.325778 
L 161.265856 220.986336 
L 166.818895 214.197497 
L 172.371935 199.771215 
L 177.924975 196.037354 
L 183.478014 192.473213 
L 189.031054 194.000702 
L 194.584093 189.163654 
L 200.137133 184.411467 
L 205.690172 177.87721 
L 211.243212 177.452908 
L 216.796251 168.797138 
L 222.349291 168.797138 
L 227.90233 156.492368 
L 233.45537 153.691972 
L 239.00841 161.159695 
L 244.561449 168.881999 
L 250.114489 175.840559 
L 255.667528 162.0083 
L 261.220568 150.212693 
L 266.773607 149.958111 
L 272.326647 151.146158 
L 277.879686 155.898345 
L 283.432726 162.602323 
L 288.985765 164.893556 
L 294.538805 164.808696 
L 300.091844 169.815464 
L 305.644884 173.888767 
L 311.197924 174.143349 
L 316.750963 173.294744 
L 322.304003 174.907093 
L 327.857042 165.402719 
L 333.410082 169.221441 
L 338.963121 175.076814 
L 344.516161 178.810675 
L 350.0692 191.030585 
L 355.62224 184.92063 
L 361.175279 188.484771 
L 366.728319 197.989145 
L 372.281359 192.218632 
L 377.834398 193.746121 
L 383.387438 194.085563 
L 388.940477 194.849307 
L 394.493517 462.923575 
L 400.046556 452.316014 
L 405.599596 449.006455 
L 411.152635 448.751874 
L 416.705675 448.836734 
L 422.258714 448.751874 
L 427.811754 445.527175 
L 433.364793 437.46543 
L 438.917833 433.137545 
L 444.470873 432.373801 
L 450.023912 434.665034 
L 455.576952 431.100893 
L 461.129991 429.912847 
L 466.683031 431.949498 
L 472.23607 419.899309 
L 477.78911 410.479796 
L 483.342149 406.067051 
L 488.895189 396.562676 
L 494.448228 394.780606 
L 500.001268 393.67742 
L 505.554308 385.615674 
L 511.107347 378.741975 
L 516.660387 379.166277 
L 522.213426 372.292578 
L 527.766466 370.425647 
L 533.319505 369.15274 
L 538.872545 370.086206 
L 544.425584 366.776647 
L 549.978624 359.987808 
L 555.531663 359.393785 
L 561.084703 361.260715 
L 566.637743 358.969482 
L 572.190782 352.944388 
L 577.743822 339.19699 
L 583.296861 340.385036 
L 588.849901 344.288619 
L 594.40294 345.391805 
L 599.95598 336.142012 
L 605.509019 340.639618 
L 611.062059 338.518106 
L 616.615098 338.942408 
L 622.168138 348.786224 
L 627.721177 353.28383 
L 633.274217 349.125666 
L 638.827257 348.616503 
L 644.380296 353.198969 
L 649.933336 357.866296 
L 655.486375 360.41211 
L 661.039415 368.643577 
L 666.592454 370.510508 
" clip-path="url(#pa36c10feb9)" style="fill: none; stroke: #55a868; stroke-width: 1.5; stroke-linecap: round"/>
   </g>
   <g id="patch_3">
    <path d="M 89.353994 495.840956 
L 89.353994 49.831226 
" style="fill: none; stroke: #cccccc; stroke-width: 1.25; stroke-linejoin: miter; stroke-linecap: square"/>
   </g>
   <g id="patch_4">
    <path d="M 694.08 495.840956 
L 694.08 49.831226 
" style="fill: none; stroke: #cccccc; stroke-width: 1.25; stroke-linejoin: miter; stroke-linecap: square"/>
   </g>
   <g id="patch_5">
    <path d="M 89.353994 495.840956 
L 694.08 495.840956 
" style="fill: none; stroke: #cccccc; stroke-width: 1.25; stroke-linejoin: miter; stroke-linecap: square"/>
   </g>
   <g id="patch_6">
    <path d="M 89.353994 49.831226 
L 694.08 49.831226 
" style="fill: none; stroke: #cccccc; stroke-width: 1.25; stroke-linejoin: miter; stroke-linecap: square"/>
   </g>
   <g id="text_15">
    <!-- Structural Similarity Index Measure (SSIM) over Step (Median) -->
    <g style="fill: #262626" transform="translate(93.310896 43.831226) scale(0.24 -0.24)">
     <defs>
      <path id="CMSS17-6f" d="M 2829 1356 
C 2829 2176 2221 2816 1504 2816 
C 768 2816 173 2157 173 1356 
C 173 544 787 -64 1498 -64 
C 2227 -64 2829 563 2829 1356 
z
M 1504 337 
C 1050 337 659 709 659 1408 
C 659 2151 1114 2427 1498 2427 
C 1914 2427 2342 2126 2342 1408 
C 2342 683 1926 337 1504 337 
z
" transform="scale(0.015625)"/>
      <path id="CMSS17-76" d="M 2675 2752 
L 2176 2752 
L 1747 1556 
C 1613 1165 1421 627 1389 352 
L 1382 352 
C 1370 468 1318 634 1286 749 
C 1248 890 1197 1056 1158 1172 
L 595 2752 
L 83 2752 
L 1094 0 
L 1664 0 
L 2675 2752 
z
" transform="scale(0.015625)"/>
     </defs>
     <use xlink:href="#CMSS17-53" transform="scale(0.996264)"/>
     <use xlink:href="#CMSS17-74" transform="translate(52.048516 0) scale(0.996264)"/>
     <use xlink:href="#CMSS17-72" transform="translate(85.880083 0) scale(0.996264)"/>
     <use xlink:href="#CMSS17-75" transform="translate(117.789855 0) scale(0.996264)"/>
     <use xlink:href="#CMSS17-63" transform="translate(165.994799 0) scale(0.996264)"/>
     <use xlink:href="#CMSS17-74" transform="translate(207.633621 0) scale(0.996264)"/>
     <use xlink:href="#CMSS17-75" transform="translate(241.465187 0) scale(0.996264)"/>
     <use xlink:href="#CMSS17-72" transform="translate(289.67013 0) scale(0.996264)"/>
     <use xlink:href="#CMSS17-61" transform="translate(321.579903 0) scale(0.996264)"/>
     <use xlink:href="#CMSS17-6c" transform="translate(366.501824 0) scale(0.996264)"/>
     <use xlink:href="#CMSS17-53" transform="translate(419.911659 0) scale(0.996264)"/>
     <use xlink:href="#CMSS17-69" transform="translate(471.960176 0) scale(0.996264)"/>
     <use xlink:href="#CMSS17-6d" transform="translate(494.140899 0) scale(0.996264)"/>
     <use xlink:href="#CMSS17-69" transform="translate(568.370153 0) scale(0.996264)"/>
     <use xlink:href="#CMSS17-6c" transform="translate(590.550876 0) scale(0.996264)"/>
     <use xlink:href="#CMSS17-61" transform="translate(612.731599 0) scale(0.996264)"/>
     <use xlink:href="#CMSS17-72" transform="translate(655.051066 0) scale(0.996264)"/>
     <use xlink:href="#CMSS17-69" transform="translate(686.960838 0) scale(0.996264)"/>
     <use xlink:href="#CMSS17-74" transform="translate(709.141561 0) scale(0.996264)"/>
     <use xlink:href="#CMSS17-79" transform="translate(740.370674 0) scale(0.996264)"/>
     <use xlink:href="#CMSS17-49" transform="translate(814.599929 0) scale(0.996264)"/>
     <use xlink:href="#CMSS17-6e" transform="translate(840.383854 0) scale(0.996264)"/>
     <use xlink:href="#CMSS17-64" transform="translate(888.588797 0) scale(0.996264)"/>
     <use xlink:href="#CMSS17-65" transform="translate(936.79374 0) scale(0.996264)"/>
     <use xlink:href="#CMSS17-78" transform="translate(978.432562 0) scale(0.996264)"/>
     <use xlink:href="#CMSS17-4d" transform="translate(1052.661817 0) scale(0.996264)"/>
     <use xlink:href="#CMSS17-65" transform="translate(1134.337847 0) scale(0.996264)"/>
     <use xlink:href="#CMSS17-61" transform="translate(1175.976669 0) scale(0.996264)"/>
     <use xlink:href="#CMSS17-73" transform="translate(1220.89859 0) scale(0.996264)"/>
     <use xlink:href="#CMSS17-75" transform="translate(1256.812132 0) scale(0.996264)"/>
     <use xlink:href="#CMSS17-72" transform="translate(1305.017075 0) scale(0.996264)"/>
     <use xlink:href="#CMSS17-65" transform="translate(1336.926847 0) scale(0.996264)"/>
     <use xlink:href="#CMSS17-28" transform="translate(1409.794782 0) scale(0.996264)"/>
     <use xlink:href="#CMSS17-53" transform="translate(1446.228696 0) scale(0.996264)"/>
     <use xlink:href="#CMSS17-53" transform="translate(1498.277212 0) scale(0.996264)"/>
     <use xlink:href="#CMSS17-49" transform="translate(1550.325729 0) scale(0.996264)"/>
     <use xlink:href="#CMSS17-4d" transform="translate(1576.109654 0) scale(0.996264)"/>
     <use xlink:href="#CMSS17-29" transform="translate(1657.785684 0) scale(0.996264)"/>
     <use xlink:href="#CMSS17-6f" transform="translate(1725.448711 0) scale(0.996264)"/>
     <use xlink:href="#CMSS17-76" transform="translate(1772.292335 0) scale(0.996264)"/>
     <use xlink:href="#CMSS17-65" transform="translate(1815.292476 0) scale(0.996264)"/>
     <use xlink:href="#CMSS17-72" transform="translate(1856.931298 0) scale(0.996264)"/>
     <use xlink:href="#CMSS17-53" transform="translate(1920.070184 0) scale(0.996264)"/>
     <use xlink:href="#CMSS17-74" transform="translate(1972.1187 0) scale(0.996264)"/>
     <use xlink:href="#CMSS17-65" transform="translate(2005.950266 0) scale(0.996264)"/>
     <use xlink:href="#CMSS17-70" transform="translate(2047.589089 0) scale(0.996264)"/>
     <use xlink:href="#CMSS17-28" transform="translate(2127.023144 0) scale(0.996264)"/>
     <use xlink:href="#CMSS17-4d" transform="translate(2163.457059 0) scale(0.996264)"/>
     <use xlink:href="#CMSS17-65" transform="translate(2245.133089 0) scale(0.996264)"/>
     <use xlink:href="#CMSS17-64" transform="translate(2286.771911 0) scale(0.996264)"/>
     <use xlink:href="#CMSS17-69" transform="translate(2334.976854 0) scale(0.996264)"/>
     <use xlink:href="#CMSS17-61" transform="translate(2357.157577 0) scale(0.996264)"/>
     <use xlink:href="#CMSS17-6e" transform="translate(2402.079497 0) scale(0.996264)"/>
     <use xlink:href="#CMSS17-29" transform="translate(2450.284441 0) scale(0.996264)"/>
    </g>
   </g>
   <g id="legend_1">
    <g id="patch_7">
     <path d="M 424.76792 191.675953 
L 678.68 191.675953 
Q 683.08 191.675953 683.08 187.275953 
L 683.08 65.231226 
Q 683.08 60.831226 678.68 60.831226 
L 424.76792 60.831226 
Q 420.36792 60.831226 420.36792 65.231226 
L 420.36792 187.275953 
Q 420.36792 191.675953 424.76792 191.675953 
z
" style="fill: #ffffff; opacity: 0.8; stroke: #cccccc; stroke-linejoin: miter"/>
    </g>
    <g id="text_16">
     <!-- Reception Confidence $\theta_{\mathrm{init}}$ -->
     <g style="fill: #262626" transform="translate(429.16792 86.235632) scale(0.24 -0.24)">
      <defs>
       <path id="CMSS17-52" d="M 2522 2109 
L 2534 2115 
C 3533 2459 3539 3147 3539 3268 
C 3539 3873 2925 4453 2003 4453 
L 570 4453 
L 570 32 
L 1094 32 
L 1094 2048 
L 2035 2048 
L 3168 32 
L 3706 32 
L 2522 2109 
z
M 1094 2437 
L 1094 4096 
L 1933 4096 
C 2746 4096 3034 3637 3034 3267 
C 3034 2922 2778 2437 1933 2437 
L 1094 2437 
z
" transform="scale(0.015625)"/>
       <path id="CMSS17-43" d="M 3501 714 
C 3072 427 2874 344 2355 344 
C 1459 344 934 1303 934 2179 
C 934 3112 1472 4032 2381 4032 
C 2790 4032 3059 3918 3386 3715 
L 3475 4217 
C 3168 4370 2778 4440 2387 4440 
C 1158 4440 397 3316 397 2179 
C 397 927 1299 -64 2323 -64 
C 2874 -64 3066 -19 3539 280 
L 3501 714 
z
" transform="scale(0.015625)"/>
       <path id="CMSS17-c" d="M 2752 4416 
L 2240 4416 
L 2240 3906 
L 2752 3906 
L 2752 4416 
z
M 2733 2737 
L 2259 2737 
L 2259 0 
L 2733 0 
L 2733 2737 
z
M 1075 2368 
L 1773 2368 
L 1773 2737 
L 1062 2737 
L 1062 3578 
C 1062 3919 1216 4092 1421 4092 
C 1542 4092 1664 4056 1773 3992 
L 1773 4410 
C 1722 4428 1574 4480 1421 4480 
C 941 4480 602 3993 602 3372 
L 602 2737 
L 160 2737 
L 160 2368 
L 602 2368 
L 602 0 
L 1075 0 
L 1075 2368 
z
" transform="scale(0.015625)"/>
       <path id="CMMI12-12" d="M 2835 3200 
C 2835 3850 2630 4480 2106 4480 
C 1210 4480 256 2615 256 1216 
C 256 923 320 -64 992 -64 
C 1862 -64 2835 1756 2835 3200 
z
M 896 2304 
C 992 2679 1126 3214 1382 3665 
C 1594 4047 1818 4352 2099 4352 
C 2310 4352 2451 4174 2451 3564 
C 2451 3334 2432 3017 2246 2304 
L 896 2304 
z
M 2202 2113 
C 2042 1490 1907 1088 1677 687 
C 1491 363 1267 64 998 64 
C 800 64 640 217 640 846 
C 640 1260 742 1693 845 2113 
L 2202 2113 
z
" transform="scale(0.015625)"/>
       <path id="CMR17-69" d="M 992 3909 
C 992 4049 877 4170 730 4170 
C 589 4170 467 4056 467 3909 
C 467 3769 582 3648 730 3648 
C 870 3648 992 3763 992 3909 
z
M 243 2706 
L 243 2541 
C 602 2541 653 2502 653 2197 
L 653 427 
C 653 184 627 153 218 153 
L 218 -13 
C 371 0 646 0 806 0 
C 960 0 1222 0 1370 -13 
L 1370 153 
C 992 153 979 191 979 420 
L 979 2776 
L 243 2706 
z
" transform="scale(0.015625)"/>
       <path id="CMR17-6e" d="M 2656 1933 
C 2656 2259 2592 2790 1837 2790 
C 1331 2790 1069 2400 973 2144 
L 966 2144 
L 966 2790 
L 211 2720 
L 211 2554 
C 589 2554 646 2515 646 2208 
L 646 428 
C 646 184 621 153 211 153 
L 211 -13 
C 365 0 646 0 813 0 
C 979 0 1267 0 1421 -13 
L 1421 153 
C 1011 153 986 178 986 428 
L 986 1658 
C 986 2247 1344 2688 1792 2688 
C 2266 2688 2317 2266 2317 1958 
L 2317 428 
C 2317 184 2291 153 1882 153 
L 1882 -13 
C 2035 0 2317 0 2483 0 
C 2650 0 2938 0 3091 -13 
L 3091 153 
C 2682 153 2656 178 2656 428 
L 2656 1933 
z
" transform="scale(0.015625)"/>
       <path id="CMR17-74" d="M 966 2560 
L 1862 2560 
L 1862 2725 
L 966 2725 
L 966 3904 
L 851 3904 
C 838 3245 614 2668 70 2668 
L 70 2560 
L 627 2560 
L 627 771 
C 627 650 627 -64 1370 -64 
C 1747 -64 1965 306 1965 777 
L 1965 1140 
L 1850 1140 
L 1850 783 
C 1850 344 1677 51 1408 51 
C 1222 51 966 178 966 758 
L 966 2560 
z
" transform="scale(0.015625)"/>
      </defs>
      <use xlink:href="#CMSS17-52" transform="scale(0.996264)"/>
      <use xlink:href="#CMSS17-65" transform="translate(60.416155 0) scale(0.996264)"/>
      <use xlink:href="#CMSS17-63" transform="translate(102.054977 0) scale(0.996264)"/>
      <use xlink:href="#CMSS17-65" transform="translate(143.693799 0) scale(0.996264)"/>
      <use xlink:href="#CMSS17-70" transform="translate(185.332621 0) scale(0.996264)"/>
      <use xlink:href="#CMSS17-74" transform="translate(233.537564 0) scale(0.996264)"/>
      <use xlink:href="#CMSS17-69" transform="translate(267.369131 0) scale(0.996264)"/>
      <use xlink:href="#CMSS17-6f" transform="translate(289.549854 0) scale(0.996264)"/>
      <use xlink:href="#CMSS17-6e" transform="translate(336.393477 0) scale(0.996264)"/>
      <use xlink:href="#CMSS17-43" transform="translate(415.827533 0) scale(0.996264)"/>
      <use xlink:href="#CMSS17-6f" transform="translate(475.683305 0) scale(0.996264)"/>
      <use xlink:href="#CMSS17-6e" transform="translate(522.526928 0) scale(0.996264)"/>
      <use xlink:href="#CMSS17-c" transform="translate(570.731872 0) scale(0.996264)"/>
      <use xlink:href="#CMSS17-64" transform="translate(620.858609 0) scale(0.996264)"/>
      <use xlink:href="#CMSS17-65" transform="translate(669.063552 0) scale(0.996264)"/>
      <use xlink:href="#CMSS17-6e" transform="translate(710.702374 0) scale(0.996264)"/>
      <use xlink:href="#CMSS17-63" transform="translate(758.907317 0) scale(0.996264)"/>
      <use xlink:href="#CMSS17-65" transform="translate(800.546139 0) scale(0.996264)"/>
      <use xlink:href="#CMMI12-12" transform="translate(873.414074 0) scale(0.996264)"/>
      <use xlink:href="#CMR17-69" transform="translate(918.873864 -14.943915) scale(0.697382)"/>
      <use xlink:href="#CMR17-6e" transform="translate(936.283523 -14.943915) scale(0.697382)"/>
      <use xlink:href="#CMR17-69" transform="translate(971.910131 -14.943915) scale(0.697382)"/>
      <use xlink:href="#CMR17-74" transform="translate(989.31979 -14.943915) scale(0.697382)"/>
     </g>
    </g>
    <g id="line2d_16">
     <path d="M 507.755705 109.586389 
L 529.755705 109.586389 
L 551.755705 109.586389 
" style="fill: none; stroke: #4c72b0; stroke-width: 1.5; stroke-linecap: round"/>
    </g>
    <g id="text_17">
     <!-- 0.4 -->
     <g style="fill: #262626" transform="translate(569.355705 117.286389) scale(0.22 -0.22)">
      <defs>
       <path id="CMSS17-30" d="M 2758 2044 
C 2758 2405 2752 3077 2490 3596 
C 2227 4096 1805 4229 1504 4229 
C 1069 4229 698 3975 506 3570 
C 301 3146 243 2709 243 2044 
C 243 1589 262 1031 493 543 
C 755 5 1197 -128 1498 -128 
C 1894 -128 2278 81 2496 518 
C 2720 974 2758 1474 2758 2044 
z
M 1498 261 
C 1011 261 864 811 819 995 
C 742 1310 730 1614 730 2114 
C 730 2506 730 2948 851 3297 
C 998 3701 1254 3840 1498 3840 
C 1971 3840 2125 3372 2176 3208 
C 2272 2873 2272 2481 2272 2114 
C 2272 1526 2272 261 1498 261 
z
" transform="scale(0.015625)"/>
       <path id="CMSS17-2e" d="M 1088 510 
L 576 510 
L 576 0 
L 1088 0 
L 1088 510 
z
" transform="scale(0.015625)"/>
       <path id="CMSS17-34" d="M 2253 1088 
L 2835 1088 
L 2835 1477 
L 2253 1477 
L 2253 4192 
L 1690 4192 
L 166 1477 
L 166 1088 
L 1747 1088 
L 1747 0 
L 2253 0 
L 2253 1088 
z
M 659 1477 
C 1030 2127 1766 3439 1766 3885 
L 1766 1477 
L 659 1477 
z
" transform="scale(0.015625)"/>
      </defs>
      <use xlink:href="#CMSS17-30" transform="scale(0.996264)"/>
      <use xlink:href="#CMSS17-2e" transform="translate(46.843624 0) scale(0.996264)"/>
      <use xlink:href="#CMSS17-34" transform="translate(72.867828 0) scale(0.996264)"/>
     </g>
    </g>
    <g id="line2d_17">
     <path d="M 507.755705 140.249577 
L 529.755705 140.249577 
L 551.755705 140.249577 
" style="fill: none; stroke: #dd8452; stroke-width: 1.5; stroke-linecap: round"/>
    </g>
    <g id="text_18">
     <!-- 0.6 -->
     <g style="fill: #262626" transform="translate(569.355705 147.949577) scale(0.22 -0.22)">
      <defs>
       <path id="CMSS17-36" d="M 2496 4101 
C 2227 4210 2035 4229 1856 4229 
C 1024 4229 250 3368 250 2006 
C 250 265 986 -128 1510 -128 
C 1798 -128 2086 -39 2362 280 
C 2643 617 2752 898 2752 1389 
C 2752 2179 2362 2880 1779 2880 
C 1357 2880 992 2657 768 2376 
C 832 3258 1254 3840 1862 3840 
C 2029 3840 2246 3816 2496 3710 
L 2496 4101 
z
M 774 1369 
C 774 1420 774 1452 781 1548 
C 781 2045 1069 2491 1536 2491 
C 1837 2491 1990 2332 2106 2135 
C 2240 1886 2246 1650 2246 1388 
C 2246 1140 2246 891 2099 637 
C 1978 439 1818 267 1510 267 
C 902 267 800 1114 774 1369 
z
" transform="scale(0.015625)"/>
      </defs>
      <use xlink:href="#CMSS17-30" transform="scale(0.996264)"/>
      <use xlink:href="#CMSS17-2e" transform="translate(46.843624 0) scale(0.996264)"/>
      <use xlink:href="#CMSS17-36" transform="translate(72.867828 0) scale(0.996264)"/>
     </g>
    </g>
    <g id="line2d_18">
     <path d="M 507.755705 170.912765 
L 529.755705 170.912765 
L 551.755705 170.912765 
" style="fill: none; stroke: #55a868; stroke-width: 1.5; stroke-linecap: round"/>
    </g>
    <g id="text_19">
     <!-- 0.8 -->
     <g style="fill: #262626" transform="translate(569.355705 178.612765) scale(0.22 -0.22)">
      <defs>
       <path id="CMSS17-38" d="M 1933 2222 
C 2419 2380 2669 2760 2669 3134 
C 2669 3722 2157 4229 1504 4229 
C 826 4229 333 3708 333 3144 
C 333 2780 576 2403 1069 2241 
C 442 1997 250 1512 250 1149 
C 250 446 819 -128 1498 -128 
C 2202 -128 2752 455 2752 1138 
C 2752 1557 2502 2000 1933 2222 
z
M 1504 2432 
C 1075 2432 787 2712 787 3136 
C 787 3566 1075 3840 1504 3840 
C 1901 3840 2214 3591 2214 3136 
C 2214 2687 1907 2432 1504 2432 
z
M 1504 267 
C 1139 267 749 517 749 1156 
C 749 1813 1184 2043 1498 2043 
C 1843 2043 2253 1800 2253 1156 
C 2253 491 1830 267 1504 267 
z
" transform="scale(0.015625)"/>
      </defs>
      <use xlink:href="#CMSS17-30" transform="scale(0.996264)"/>
      <use xlink:href="#CMSS17-2e" transform="translate(46.843624 0) scale(0.996264)"/>
      <use xlink:href="#CMSS17-38" transform="translate(72.867828 0) scale(0.996264)"/>
     </g>
    </g>
   </g>
  </g>
 </g>
 <defs>
  <clipPath id="pa36c10feb9">
   <rect x="89.353994" y="49.831226" width="604.726006" height="446.00973"/>
  </clipPath>
 </defs>
</svg>
