<?xml version="1.0" encoding="utf-8" standalone="no"?>
<!DOCTYPE svg PUBLIC "-//W3C//DTD SVG 1.1//EN"
  "http://www.w3.org/Graphics/SVG/1.1/DTD/svg11.dtd">
<svg xmlns:xlink="http://www.w3.org/1999/xlink" width="720pt" height="576pt" viewBox="0 0 720 576" xmlns="http://www.w3.org/2000/svg" version="1.1">
 <metadata>
  <rdf:RDF xmlns:dc="http://purl.org/dc/elements/1.1/" xmlns:cc="http://creativecommons.org/ns#" xmlns:rdf="http://www.w3.org/1999/02/22-rdf-syntax-ns#">
   <cc:Work>
    <dc:type rdf:resource="http://purl.org/dc/dcmitype/StillImage"/>
    <dc:date>2025-04-25T15:59:24.818612</dc:date>
    <dc:format>image/svg+xml</dc:format>
    <dc:creator>
     <cc:Agent>
      <dc:title>Matplotlib v3.9.2, https://matplotlib.org/</dc:title>
     </cc:Agent>
    </dc:creator>
   </cc:Work>
  </rdf:RDF>
 </metadata>
 <defs>
  <style type="text/css">*{stroke-linejoin: round; stroke-linecap: butt}</style>
 </defs>
 <g id="figure_1">
  <g id="patch_1">
   <path d="M 0 576 
L 720 576 
L 720 0 
L 0 0 
z
" style="fill: #ffffff"/>
  </g>
  <g id="axes_1">
   <g id="patch_2">
    <path d="M 76.24014 513.338305 
L 702.72 513.338305 
L 702.72 17.28 
L 76.24014 17.28 
z
" style="fill: #ffffff"/>
   </g>
   <g id="matplotlib.axis_1">
    <g id="xtick_1">
     <g id="line2d_1">
      <path d="M 104.716497 513.338305 
L 104.716497 17.28 
" clip-path="url(#p5c30e6db87)" style="fill: none; stroke: #cccccc; stroke-linecap: round"/>
     </g>
     <g id="text_1">
      <!-- $\mathdefault{0}$ -->
      <g style="fill: #262626" transform="translate(100.814503 533.907893) scale(0.16 -0.16)">
       <defs>
        <path id="CMR17-30" d="M 2688 2025 
C 2688 2416 2682 3080 2413 3591 
C 2176 4039 1798 4198 1466 4198 
C 1158 4198 768 4058 525 3597 
C 269 3118 243 2524 243 2025 
C 243 1661 250 1106 448 619 
C 723 -39 1216 -128 1466 -128 
C 1760 -128 2208 -7 2470 600 
C 2662 1042 2688 1559 2688 2025 
z
M 1466 -26 
C 1056 -26 813 325 723 812 
C 653 1188 653 1738 653 2096 
C 653 2588 653 2997 736 3387 
C 858 3929 1216 4096 1466 4096 
C 1728 4096 2067 3923 2189 3400 
C 2272 3036 2278 2607 2278 2096 
C 2278 1680 2278 1169 2202 792 
C 2067 95 1690 -26 1466 -26 
z
" transform="scale(0.015625)"/>
       </defs>
       <use xlink:href="#CMR17-30" transform="scale(0.996264)"/>
      </g>
     </g>
    </g>
    <g id="xtick_2">
     <g id="line2d_2">
      <path d="M 219.772486 513.338305 
L 219.772486 17.28 
" clip-path="url(#p5c30e6db87)" style="fill: none; stroke: #cccccc; stroke-linecap: round"/>
     </g>
     <g id="text_2">
      <!-- $\mathdefault{200}$ -->
      <g style="fill: #262626" transform="translate(208.066506 533.907893) scale(0.16 -0.16)">
       <defs>
        <path id="CMR17-32" d="M 2669 989 
L 2554 989 
C 2490 536 2438 459 2413 420 
C 2381 369 1920 369 1830 369 
L 602 369 
C 832 619 1280 1072 1824 1597 
C 2214 1967 2669 2402 2669 3035 
C 2669 3790 2067 4224 1395 4224 
C 691 4224 262 3604 262 3030 
C 262 2780 448 2748 525 2748 
C 589 2748 781 2787 781 3010 
C 781 3207 614 3264 525 3264 
C 486 3264 448 3258 422 3245 
C 544 3790 915 4058 1306 4058 
C 1862 4058 2227 3617 2227 3035 
C 2227 2479 1901 2000 1536 1584 
L 262 146 
L 262 0 
L 2515 0 
L 2669 989 
z
" transform="scale(0.015625)"/>
       </defs>
       <use xlink:href="#CMR17-32" transform="scale(0.996264)"/>
       <use xlink:href="#CMR17-30" transform="translate(45.690477 0) scale(0.996264)"/>
       <use xlink:href="#CMR17-30" transform="translate(91.380954 0) scale(0.996264)"/>
      </g>
     </g>
    </g>
    <g id="xtick_3">
     <g id="line2d_3">
      <path d="M 334.828475 513.338305 
L 334.828475 17.28 
" clip-path="url(#p5c30e6db87)" style="fill: none; stroke: #cccccc; stroke-linecap: round"/>
     </g>
     <g id="text_3">
      <!-- $\mathdefault{400}$ -->
      <g style="fill: #262626" transform="translate(323.122495 533.907893) scale(0.16 -0.16)">
       <defs>
        <path id="CMR17-34" d="M 2150 4122 
C 2150 4256 2144 4256 2029 4256 
L 128 1254 
L 128 1088 
L 1779 1088 
L 1779 457 
C 1779 224 1766 160 1318 160 
L 1197 160 
L 1197 0 
C 1402 0 1747 0 1965 0 
C 2182 0 2528 0 2733 0 
L 2733 160 
L 2611 160 
C 2163 160 2150 224 2150 457 
L 2150 1088 
L 2803 1088 
L 2803 1254 
L 2150 1254 
L 2150 4122 
z
M 1798 3703 
L 1798 1254 
L 256 1254 
L 1798 3703 
z
" transform="scale(0.015625)"/>
       </defs>
       <use xlink:href="#CMR17-34" transform="scale(0.996264)"/>
       <use xlink:href="#CMR17-30" transform="translate(45.690477 0) scale(0.996264)"/>
       <use xlink:href="#CMR17-30" transform="translate(91.380954 0) scale(0.996264)"/>
      </g>
     </g>
    </g>
    <g id="xtick_4">
     <g id="line2d_4">
      <path d="M 449.884464 513.338305 
L 449.884464 17.28 
" clip-path="url(#p5c30e6db87)" style="fill: none; stroke: #cccccc; stroke-linecap: round"/>
     </g>
     <g id="text_4">
      <!-- $\mathdefault{600}$ -->
      <g style="fill: #262626" transform="translate(438.178484 533.907893) scale(0.16 -0.16)">
       <defs>
        <path id="CMR17-36" d="M 678 2176 
C 678 3690 1395 4032 1811 4032 
C 1946 4032 2272 4009 2400 3776 
C 2298 3776 2106 3776 2106 3553 
C 2106 3381 2246 3323 2336 3323 
C 2394 3323 2566 3348 2566 3560 
C 2566 3954 2246 4179 1805 4179 
C 1043 4179 243 3390 243 1984 
C 243 253 966 -128 1478 -128 
C 2099 -128 2688 427 2688 1283 
C 2688 2081 2170 2662 1517 2662 
C 1126 2662 838 2407 678 1960 
L 678 2176 
z
M 1478 25 
C 691 25 691 1200 691 1436 
C 691 1896 909 2560 1504 2560 
C 1613 2560 1926 2560 2138 2120 
C 2253 1870 2253 1609 2253 1289 
C 2253 944 2253 690 2118 434 
C 1978 171 1773 25 1478 25 
z
" transform="scale(0.015625)"/>
       </defs>
       <use xlink:href="#CMR17-36" transform="scale(0.996264)"/>
       <use xlink:href="#CMR17-30" transform="translate(45.690477 0) scale(0.996264)"/>
       <use xlink:href="#CMR17-30" transform="translate(91.380954 0) scale(0.996264)"/>
      </g>
     </g>
    </g>
    <g id="xtick_5">
     <g id="line2d_5">
      <path d="M 564.940453 513.338305 
L 564.940453 17.28 
" clip-path="url(#p5c30e6db87)" style="fill: none; stroke: #cccccc; stroke-linecap: round"/>
     </g>
     <g id="text_5">
      <!-- $\mathdefault{800}$ -->
      <g style="fill: #262626" transform="translate(553.234473 533.907893) scale(0.16 -0.16)">
       <defs>
        <path id="CMR17-38" d="M 1741 2264 
C 2144 2467 2554 2773 2554 3263 
C 2554 3841 1990 4179 1472 4179 
C 890 4179 378 3759 378 3180 
C 378 3021 416 2747 666 2505 
C 730 2442 998 2251 1171 2130 
C 883 1983 211 1634 211 934 
C 211 279 838 -128 1459 -128 
C 2144 -128 2720 362 2720 1010 
C 2720 1590 2330 1857 2074 2029 
L 1741 2264 
z
M 902 2822 
C 851 2854 595 3051 595 3351 
C 595 3739 998 4032 1459 4032 
C 1965 4032 2336 3676 2336 3262 
C 2336 2669 1670 2331 1638 2331 
C 1632 2331 1626 2331 1574 2370 
L 902 2822 
z
M 2080 1519 
C 2176 1449 2483 1240 2483 851 
C 2483 381 2010 25 1472 25 
C 890 25 448 438 448 940 
C 448 1443 838 1862 1280 2060 
L 2080 1519 
z
" transform="scale(0.015625)"/>
       </defs>
       <use xlink:href="#CMR17-38" transform="scale(0.996264)"/>
       <use xlink:href="#CMR17-30" transform="translate(45.690477 0) scale(0.996264)"/>
       <use xlink:href="#CMR17-30" transform="translate(91.380954 0) scale(0.996264)"/>
      </g>
     </g>
    </g>
    <g id="xtick_6">
     <g id="line2d_6">
      <path d="M 679.996442 513.338305 
L 679.996442 17.28 
" clip-path="url(#p5c30e6db87)" style="fill: none; stroke: #cccccc; stroke-linecap: round"/>
     </g>
     <g id="text_6">
      <!-- $\mathdefault{1000}$ -->
      <g style="fill: #262626" transform="translate(664.388468 533.907893) scale(0.16 -0.16)">
       <defs>
        <path id="CMR17-31" d="M 1702 4058 
C 1702 4192 1696 4192 1606 4192 
C 1357 3916 979 3827 621 3827 
C 602 3827 570 3827 563 3808 
C 557 3795 557 3782 557 3648 
C 755 3648 1088 3686 1344 3839 
L 1344 461 
C 1344 236 1331 160 781 160 
L 589 160 
L 589 0 
C 896 0 1216 0 1523 0 
C 1830 0 2150 0 2458 0 
L 2458 160 
L 2266 160 
C 1715 160 1702 230 1702 458 
L 1702 4058 
z
" transform="scale(0.015625)"/>
       </defs>
       <use xlink:href="#CMR17-31" transform="scale(0.996264)"/>
       <use xlink:href="#CMR17-30" transform="translate(45.690477 0) scale(0.996264)"/>
       <use xlink:href="#CMR17-30" transform="translate(91.380954 0) scale(0.996264)"/>
       <use xlink:href="#CMR17-30" transform="translate(137.071431 0) scale(0.996264)"/>
      </g>
     </g>
    </g>
    <g id="text_7">
     <!-- Step -->
     <g style="fill: #262626" transform="translate(371.724365 554.844366) scale(0.2 -0.2)">
      <defs>
       <path id="CMR17-53" d="M 2803 4290 
C 2803 4404 2797 4411 2758 4411 
C 2720 4411 2707 4385 2682 4328 
L 2490 3907 
C 2246 4257 1875 4416 1472 4416 
C 819 4416 294 3901 294 3253 
C 294 3056 339 2776 557 2510 
C 794 2218 1018 2167 1530 2033 
C 1722 1982 2042 1899 2106 1874 
C 2470 1722 2662 1341 2662 985 
C 2662 527 2336 38 1779 38 
C 1094 38 454 419 410 1311 
C 403 1413 397 1419 352 1419 
C 301 1419 294 1413 294 1285 
L 294 -1 
C 294 -115 301 -122 339 -122 
C 384 -122 397 -90 486 108 
C 493 127 493 140 614 381 
C 934 -39 1472 -128 1779 -128 
C 2477 -128 2970 451 2970 1124 
C 2970 1454 2848 1708 2778 1823 
C 2509 2230 2221 2306 1914 2382 
C 1869 2402 1856 2402 1498 2490 
C 1152 2579 1005 2624 845 2796 
C 666 2992 602 3196 602 3399 
C 602 3812 934 4263 1478 4263 
C 2157 4263 2579 3786 2675 2993 
C 2694 2878 2701 2872 2746 2872 
C 2803 2872 2803 2891 2803 2999 
L 2803 4290 
z
" transform="scale(0.015625)"/>
       <path id="CMR17-74" d="M 966 2560 
L 1862 2560 
L 1862 2725 
L 966 2725 
L 966 3904 
L 851 3904 
C 838 3245 614 2668 70 2668 
L 70 2560 
L 627 2560 
L 627 771 
C 627 650 627 -64 1370 -64 
C 1747 -64 1965 306 1965 777 
L 1965 1140 
L 1850 1140 
L 1850 783 
C 1850 344 1677 51 1408 51 
C 1222 51 966 178 966 758 
L 966 2560 
z
" transform="scale(0.015625)"/>
       <path id="CMR17-65" d="M 2438 1472 
C 2464 1498 2464 1511 2464 1576 
C 2464 2238 2118 2816 1389 2816 
C 710 2816 173 2169 173 1383 
C 173 551 781 -64 1459 -64 
C 2176 -64 2458 607 2458 740 
C 2458 784 2419 784 2406 784 
C 2362 784 2355 771 2330 696 
C 2189 265 1837 51 1504 51 
C 1229 51 954 203 781 480 
C 582 803 582 1176 582 1472 
L 2438 1472 
z
M 589 1568 
C 634 2505 1126 2714 1382 2714 
C 1818 2714 2112 2297 2118 1568 
L 589 1568 
z
" transform="scale(0.015625)"/>
       <path id="CMR17-70" d="M 1408 -1063 
C 998 -1063 973 -1037 973 -789 
L 973 402 
C 1158 134 1427 -38 1766 -38 
C 2406 -38 3053 523 3053 1388 
C 3053 2191 2496 2802 1837 2802 
C 1453 2802 1139 2592 960 2338 
L 960 2802 
L 198 2732 
L 198 2567 
C 576 2567 634 2528 634 2223 
L 634 -789 
C 634 -1031 608 -1063 198 -1063 
L 198 -1228 
C 352 -1216 634 -1216 800 -1216 
C 966 -1216 1254 -1216 1408 -1228 
L 1408 -1063 
z
M 973 2012 
C 973 2102 973 2235 1222 2471 
C 1254 2497 1472 2688 1792 2688 
C 2259 2688 2643 2108 2643 1382 
C 2643 656 2234 64 1728 64 
C 1498 64 1248 172 1056 472 
C 973 612 973 650 973 752 
L 973 2012 
z
" transform="scale(0.015625)"/>
      </defs>
      <use xlink:href="#CMR17-53" transform="scale(0.996264)"/>
      <use xlink:href="#CMR17-74" transform="translate(50.89537 0) scale(0.996264)"/>
      <use xlink:href="#CMR17-65" transform="translate(86.176138 0) scale(0.996264)"/>
      <use xlink:href="#CMR17-70" transform="translate(126.661798 0) scale(0.996264)"/>
     </g>
    </g>
   </g>
   <g id="matplotlib.axis_2">
    <g id="ytick_1">
     <g id="line2d_7">
      <path d="M 76.24014 469.296624 
L 702.72 469.296624 
" clip-path="url(#p5c30e6db87)" style="fill: none; stroke: #cccccc; stroke-linecap: round"/>
     </g>
     <g id="text_8">
      <!-- $\mathdefault{0.05}$ -->
      <g style="fill: #262626" transform="translate(38.99263 474.831418) scale(0.16 -0.16)">
       <defs>
        <path id="CMMI12-3a" d="M 1178 307 
C 1178 492 1024 619 870 619 
C 685 619 557 466 557 313 
C 557 128 710 0 864 0 
C 1050 0 1178 153 1178 307 
z
" transform="scale(0.015625)"/>
        <path id="CMR17-35" d="M 730 3692 
C 794 3666 1056 3584 1325 3584 
C 1920 3584 2246 3911 2432 4100 
C 2432 4157 2432 4192 2394 4192 
C 2387 4192 2374 4192 2323 4163 
C 2099 4058 1837 3973 1517 3973 
C 1325 3973 1037 3999 723 4139 
C 653 4171 640 4171 634 4171 
C 602 4171 595 4164 595 4037 
L 595 2203 
C 595 2089 595 2057 659 2057 
C 691 2057 704 2070 736 2114 
C 941 2401 1222 2522 1542 2522 
C 1766 2522 2246 2382 2246 1289 
C 2246 1085 2246 715 2054 421 
C 1894 159 1645 25 1370 25 
C 947 25 518 320 403 814 
C 429 807 480 795 506 795 
C 589 795 749 840 749 1038 
C 749 1210 627 1280 506 1280 
C 358 1280 262 1190 262 1011 
C 262 454 704 -128 1382 -128 
C 2042 -128 2669 440 2669 1264 
C 2669 2030 2170 2624 1549 2624 
C 1222 2624 947 2503 730 2274 
L 730 3692 
z
" transform="scale(0.015625)"/>
       </defs>
       <use xlink:href="#CMR17-30" transform="scale(0.996264)"/>
       <use xlink:href="#CMMI12-3a" transform="translate(45.690477 0) scale(0.996264)"/>
       <use xlink:href="#CMR17-30" transform="translate(72.787654 0) scale(0.996264)"/>
       <use xlink:href="#CMR17-35" transform="translate(118.478131 0) scale(0.996264)"/>
      </g>
     </g>
    </g>
    <g id="ytick_2">
     <g id="line2d_8">
      <path d="M 76.24014 402.129199 
L 702.72 402.129199 
" clip-path="url(#p5c30e6db87)" style="fill: none; stroke: #cccccc; stroke-linecap: round"/>
     </g>
     <g id="text_9">
      <!-- $\mathdefault{0.10}$ -->
      <g style="fill: #262626" transform="translate(38.99263 407.663993) scale(0.16 -0.16)">
       <use xlink:href="#CMR17-30" transform="scale(0.996264)"/>
       <use xlink:href="#CMMI12-3a" transform="translate(45.690477 0) scale(0.996264)"/>
       <use xlink:href="#CMR17-31" transform="translate(72.787654 0) scale(0.996264)"/>
       <use xlink:href="#CMR17-30" transform="translate(118.478131 0) scale(0.996264)"/>
      </g>
     </g>
    </g>
    <g id="ytick_3">
     <g id="line2d_9">
      <path d="M 76.24014 334.961773 
L 702.72 334.961773 
" clip-path="url(#p5c30e6db87)" style="fill: none; stroke: #cccccc; stroke-linecap: round"/>
     </g>
     <g id="text_10">
      <!-- $\mathdefault{0.15}$ -->
      <g style="fill: #262626" transform="translate(38.99263 340.496567) scale(0.16 -0.16)">
       <use xlink:href="#CMR17-30" transform="scale(0.996264)"/>
       <use xlink:href="#CMMI12-3a" transform="translate(45.690477 0) scale(0.996264)"/>
       <use xlink:href="#CMR17-31" transform="translate(72.787654 0) scale(0.996264)"/>
       <use xlink:href="#CMR17-35" transform="translate(118.478131 0) scale(0.996264)"/>
      </g>
     </g>
    </g>
    <g id="ytick_4">
     <g id="line2d_10">
      <path d="M 76.24014 267.794347 
L 702.72 267.794347 
" clip-path="url(#p5c30e6db87)" style="fill: none; stroke: #cccccc; stroke-linecap: round"/>
     </g>
     <g id="text_11">
      <!-- $\mathdefault{0.20}$ -->
      <g style="fill: #262626" transform="translate(38.99263 273.329141) scale(0.16 -0.16)">
       <use xlink:href="#CMR17-30" transform="scale(0.996264)"/>
       <use xlink:href="#CMMI12-3a" transform="translate(45.690477 0) scale(0.996264)"/>
       <use xlink:href="#CMR17-32" transform="translate(72.787654 0) scale(0.996264)"/>
       <use xlink:href="#CMR17-30" transform="translate(118.478131 0) scale(0.996264)"/>
      </g>
     </g>
    </g>
    <g id="ytick_5">
     <g id="line2d_11">
      <path d="M 76.24014 200.626922 
L 702.72 200.626922 
" clip-path="url(#p5c30e6db87)" style="fill: none; stroke: #cccccc; stroke-linecap: round"/>
     </g>
     <g id="text_12">
      <!-- $\mathdefault{0.25}$ -->
      <g style="fill: #262626" transform="translate(38.99263 206.161716) scale(0.16 -0.16)">
       <use xlink:href="#CMR17-30" transform="scale(0.996264)"/>
       <use xlink:href="#CMMI12-3a" transform="translate(45.690477 0) scale(0.996264)"/>
       <use xlink:href="#CMR17-32" transform="translate(72.787654 0) scale(0.996264)"/>
       <use xlink:href="#CMR17-35" transform="translate(118.478131 0) scale(0.996264)"/>
      </g>
     </g>
    </g>
    <g id="ytick_6">
     <g id="line2d_12">
      <path d="M 76.24014 133.459496 
L 702.72 133.459496 
" clip-path="url(#p5c30e6db87)" style="fill: none; stroke: #cccccc; stroke-linecap: round"/>
     </g>
     <g id="text_13">
      <!-- $\mathdefault{0.30}$ -->
      <g style="fill: #262626" transform="translate(38.99263 138.99429) scale(0.16 -0.16)">
       <defs>
        <path id="CMR17-33" d="M 1414 2157 
C 1984 2157 2234 1662 2234 1090 
C 2234 320 1824 25 1453 25 
C 1114 25 563 194 390 693 
C 422 680 454 680 486 680 
C 640 680 755 782 755 948 
C 755 1133 614 1216 486 1216 
C 378 1216 211 1165 211 926 
C 211 335 787 -128 1466 -128 
C 2176 -128 2720 430 2720 1085 
C 2720 1707 2208 2157 1600 2227 
C 2086 2328 2554 2756 2554 3329 
C 2554 3820 2048 4179 1472 4179 
C 890 4179 378 3829 378 3329 
C 378 3110 544 3072 627 3072 
C 762 3072 877 3155 877 3321 
C 877 3486 762 3569 627 3569 
C 602 3569 570 3569 544 3557 
C 730 3959 1235 4032 1459 4032 
C 1683 4032 2106 3925 2106 3320 
C 2106 3143 2080 2828 1862 2550 
C 1670 2304 1453 2304 1242 2284 
C 1210 2284 1062 2269 1037 2269 
C 992 2263 966 2257 966 2208 
C 966 2163 973 2157 1101 2157 
L 1414 2157 
z
" transform="scale(0.015625)"/>
       </defs>
       <use xlink:href="#CMR17-30" transform="scale(0.996264)"/>
       <use xlink:href="#CMMI12-3a" transform="translate(45.690477 0) scale(0.996264)"/>
       <use xlink:href="#CMR17-33" transform="translate(72.787654 0) scale(0.996264)"/>
       <use xlink:href="#CMR17-30" transform="translate(118.478131 0) scale(0.996264)"/>
      </g>
     </g>
    </g>
    <g id="ytick_7">
     <g id="line2d_13">
      <path d="M 76.24014 66.29207 
L 702.72 66.29207 
" clip-path="url(#p5c30e6db87)" style="fill: none; stroke: #cccccc; stroke-linecap: round"/>
     </g>
     <g id="text_14">
      <!-- $\mathdefault{0.35}$ -->
      <g style="fill: #262626" transform="translate(38.99263 71.826865) scale(0.16 -0.16)">
       <use xlink:href="#CMR17-30" transform="scale(0.996264)"/>
       <use xlink:href="#CMMI12-3a" transform="translate(45.690477 0) scale(0.996264)"/>
       <use xlink:href="#CMR17-33" transform="translate(72.787654 0) scale(0.996264)"/>
       <use xlink:href="#CMR17-35" transform="translate(118.478131 0) scale(0.996264)"/>
      </g>
     </g>
    </g>
    <g id="text_15">
     <!-- MSE -->
     <g style="fill: #262626" transform="translate(31.116997 285.126006) rotate(-90) scale(0.2 -0.2)">
      <defs>
       <path id="CMR17-4d" d="M 1338 4224 
C 1299 4320 1293 4320 1158 4320 
L 339 4320 
L 339 4160 
C 781 4160 851 4160 851 3875 
L 851 610 
C 851 451 851 153 339 153 
L 339 -13 
C 486 0 755 0 915 0 
C 1075 0 1344 0 1491 -13 
L 1491 153 
C 979 153 979 451 979 610 
L 979 4135 
L 986 4135 
L 2490 89 
C 2515 25 2528 -13 2579 -13 
C 2630 -13 2643 25 2669 89 
L 4186 4166 
L 4192 4166 
L 4192 438 
C 4192 153 4122 153 3680 153 
L 3680 -13 
C 3853 0 4198 0 4384 0 
C 4570 0 4922 0 5094 -13 
L 5094 153 
C 4653 153 4582 153 4582 438 
L 4582 3875 
C 4582 4160 4653 4160 5094 4160 
L 5094 4320 
L 4282 4320 
C 4147 4320 4141 4314 4102 4218 
L 2720 502 
L 1338 4224 
z
" transform="scale(0.015625)"/>
       <path id="CMR17-45" d="M 3885 1615 
L 3770 1615 
C 3629 676 3546 166 2419 166 
L 1530 166 
C 1274 166 1261 197 1261 414 
L 1261 2176 
L 1862 2176 
C 2464 2176 2522 1960 2522 1430 
L 2637 1430 
L 2637 3081 
L 2522 3081 
C 2522 2557 2464 2342 1862 2342 
L 1261 2342 
L 1261 3913 
C 1261 4128 1274 4160 1530 4160 
L 2406 4160 
C 3398 4160 3514 3769 3603 2929 
L 3718 2929 
L 3565 4325 
L 326 4325 
L 326 4160 
C 768 4160 838 4160 838 3874 
L 838 451 
C 838 166 768 166 326 166 
L 326 0 
L 3654 0 
L 3885 1615 
z
" transform="scale(0.015625)"/>
      </defs>
      <use xlink:href="#CMR17-4d" transform="scale(0.996264)"/>
      <use xlink:href="#CMR17-53" transform="translate(84.686941 0) scale(0.996264)"/>
      <use xlink:href="#CMR17-45" transform="translate(135.58231 0) scale(0.996264)"/>
     </g>
    </g>
   </g>
   <g id="PolyCollection_1">
    <defs>
     <path id="m2669594a5b" d="M 104.716497 -210.94722 
L 104.716497 -187.169952 
L 110.469296 -159.093968 
L 116.222096 -156.407271 
L 121.974895 -145.794818 
L 127.727695 -137.331722 
L 133.480494 -146.735162 
L 139.233294 -144.048464 
L 144.986093 -140.018419 
L 150.738893 -130.480645 
L 156.491692 -139.749749 
L 162.244492 -134.913695 
L 167.997291 -135.585369 
L 173.75009 -147.675505 
L 179.50289 -140.824428 
L 185.255689 -126.853604 
L 191.008489 -124.435576 
L 196.761288 -123.092228 
L 202.514088 -124.838581 
L 208.266887 -126.181929 
L 214.019687 -128.465622 
L 219.772486 -129.943305 
L 225.525285 -131.152319 
L 231.278085 -139.749749 
L 237.030884 -131.555323 
L 242.783684 -133.570346 
L 248.536483 -141.630437 
L 254.289283 -133.033007 
L 260.042082 -123.360897 
L 265.794882 -117.853168 
L 271.547681 -116.644155 
L 277.300481 -124.032572 
L 283.05328 -125.64459 
L 288.806079 -143.64546 
L 294.558879 -144.720139 
L 300.311678 -155.466927 
L 306.064478 -148.212845 
L 311.817277 -150.227868 
L 317.570077 -135.048029 
L 323.322876 -147.675505 
L 329.075676 -148.884519 
L 334.828475 -147.80984 
L 340.581275 -151.436881 
L 346.334074 -150.362202 
L 352.086873 -138.540736 
L 357.839673 -133.704681 
L 363.592472 -132.092663 
L 369.345272 -131.420988 
L 375.098071 -126.853604 
L 380.850871 -129.943305 
L 386.60367 -130.34631 
L 392.35647 -455.705319 
L 398.109269 -393.105279 
L 403.862068 -369.32801 
L 409.614868 -354.148172 
L 415.367667 -333.32627 
L 421.120467 -319.086776 
L 426.873266 -340.177347 
L 432.626066 -326.609527 
L 438.378865 -316.534413 
L 444.131665 -319.22111 
L 449.884464 -323.385491 
L 455.637264 -316.668748 
L 461.390063 -258.098753 
L 467.142862 -266.024509 
L 472.895662 -268.442537 
L 478.648461 -271.397903 
L 484.401261 -284.025379 
L 490.15406 -269.517216 
L 495.90686 -298.667878 
L 501.659659 -311.832694 
L 507.412459 -320.698794 
L 513.165258 -309.280331 
L 518.918058 -316.400079 
L 524.670857 -310.89235 
L 530.423656 -289.533108 
L 536.176456 -292.488475 
L 541.929255 -294.234828 
L 547.682055 -284.831389 
L 553.434854 -309.280331 
L 559.187654 -284.159714 
L 564.940453 -278.248981 
L 570.693253 -294.100493 
L 576.446052 -299.608222 
L 582.198851 -305.653291 
L 587.951651 -335.744297 
L 593.70445 -328.35588 
L 599.45725 -336.147302 
L 605.210049 -333.191935 
L 610.962849 -335.475627 
L 616.715648 -338.699664 
L 622.468448 -330.908243 
L 628.221247 -305.787625 
L 633.974047 -304.444277 
L 639.726846 -283.085036 
L 645.479645 -306.324965 
L 651.232445 -315.997074 
L 656.985244 -302.697924 
L 662.738044 -279.32366 
L 668.490843 -277.980311 
L 674.243643 -277.308637 
L 674.243643 -504.871875 
L 674.243643 -504.871875 
L 668.490843 -509.70793 
L 662.738044 -509.842264 
L 656.985244 -506.752563 
L 651.232445 -506.618228 
L 645.479645 -518.57403 
L 639.726846 -518.439695 
L 633.974047 -518.439695 
L 628.221247 -520.320383 
L 622.468448 -519.380039 
L 616.715648 -518.708365 
L 610.962849 -523.544419 
L 605.210049 -520.589052 
L 599.45725 -519.917378 
L 593.70445 -519.917378 
L 587.951651 -519.514374 
L 582.198851 -518.439695 
L 576.446052 -516.693342 
L 570.693253 -514.275314 
L 564.940453 -506.349558 
L 559.187654 -509.036255 
L 553.434854 -504.73754 
L 547.682055 -514.006645 
L 541.929255 -514.946989 
L 536.176456 -509.70793 
L 530.423656 -509.842264 
L 524.670857 -512.125957 
L 518.918058 -514.006645 
L 513.165258 -518.30536 
L 507.412459 -523.813089 
L 501.659659 -521.126392 
L 495.90686 -521.260727 
L 490.15406 -522.73841 
L 484.401261 -517.902355 
L 478.648461 -516.559007 
L 472.895662 -521.932401 
L 467.142862 -512.125957 
L 461.390063 -508.90192 
L 455.637264 -507.289902 
L 449.884464 -509.573595 
L 444.131665 -533.216528 
L 438.378865 -515.349993 
L 432.626066 -514.543984 
L 426.873266 -518.708365 
L 421.120467 -515.215658 
L 415.367667 -519.514374 
L 409.614868 -520.857722 
L 403.862068 -521.126392 
L 398.109269 -530.126827 
L 392.35647 -536.171895 
L 386.60367 -192.006006 
L 380.850871 -190.662658 
L 375.098071 -192.812015 
L 369.345272 -191.065662 
L 363.592472 -193.618025 
L 357.839673 -191.603002 
L 352.086873 -191.603002 
L 346.334074 -193.618025 
L 340.581275 -193.886694 
L 334.828475 -193.886694 
L 329.075676 -192.677681 
L 323.322876 -194.692703 
L 317.570077 -194.692703 
L 311.817277 -191.737337 
L 306.064478 -191.871672 
L 300.311678 -191.737337 
L 294.558879 -191.871672 
L 288.806079 -206.51417 
L 283.05328 -211.48456 
L 277.300481 -196.573391 
L 271.547681 -192.543346 
L 265.794882 -193.349355 
L 260.042082 -192.677681 
L 254.289283 -194.289699 
L 248.536483 -196.707726 
L 242.783684 -192.677681 
L 237.030884 -204.767817 
L 231.278085 -204.902152 
L 225.525285 -205.036487 
L 219.772486 -206.111166 
L 214.019687 -213.365248 
L 208.266887 -190.259653 
L 202.514088 -189.587979 
L 196.761288 -189.453644 
L 191.008489 -189.722314 
L 185.255689 -190.528323 
L 179.50289 -189.990984 
L 173.75009 -190.931328 
L 167.997291 -190.393988 
L 162.244492 -191.199997 
L 156.491692 -190.393988 
L 150.738893 -189.990984 
L 144.986093 -190.528323 
L 139.233294 -190.528323 
L 133.480494 -191.199997 
L 127.727695 -191.199997 
L 121.974895 -203.290134 
L 116.222096 -200.737772 
L 110.469296 -200.872107 
L 104.716497 -210.94722 
z
" style="stroke: #ffffff; stroke-opacity: 0.2"/>
    </defs>
    <g clip-path="url(#p5c30e6db87)">
     <use xlink:href="#m2669594a5b" x="0" y="576" style="fill: #4c72b0; fill-opacity: 0.2; stroke: #ffffff; stroke-opacity: 0.2"/>
    </g>
   </g>
   <g id="PolyCollection_2">
    <defs>
     <path id="m9d14c9bd41" d="M 104.716497 -209.066532 
L 104.716497 -184.34892 
L 110.469296 -158.422294 
L 116.222096 -161.108991 
L 121.974895 -150.093533 
L 127.727695 -133.839016 
L 133.480494 -139.21241 
L 139.233294 -133.704681 
L 144.986093 -127.390943 
L 150.738893 -118.256173 
L 156.491692 -115.435141 
L 162.244492 -113.957458 
L 167.997291 -113.823123 
L 173.75009 -114.091793 
L 179.50289 -113.420118 
L 185.255689 -113.554453 
L 191.008489 -113.688788 
L 196.761288 -113.957458 
L 202.514088 -113.957458 
L 208.266887 -113.957458 
L 214.019687 -115.166471 
L 219.772486 -114.763467 
L 225.525285 -114.494797 
L 231.278085 -113.554453 
L 237.030884 -116.77849 
L 242.783684 -109.793077 
L 248.536483 -109.121403 
L 254.289283 -109.255738 
L 260.042082 -109.927412 
L 265.794882 -110.599087 
L 271.547681 -116.375485 
L 277.300481 -109.390073 
L 283.05328 -107.64372 
L 288.806079 -107.509385 
L 294.558879 -103.882344 
L 300.311678 -106.837711 
L 306.064478 -107.91239 
L 311.817277 -107.509385 
L 317.570077 -110.733421 
L 323.322876 -114.629132 
L 329.075676 -116.375485 
L 334.828475 -121.077205 
L 340.581275 -117.450164 
L 346.334074 -118.524843 
L 352.086873 -115.972481 
L 357.839673 -117.987503 
L 363.592472 -112.748444 
L 369.345272 -111.002091 
L 375.098071 -104.822688 
L 380.850871 -105.628697 
L 386.60367 -104.957023 
L 392.35647 -455.973989 
L 398.109269 -432.331055 
L 403.862068 -375.776083 
L 409.614868 -371.611702 
L 415.367667 -371.611702 
L 421.120467 -367.581657 
L 426.873266 -369.32801 
L 432.626066 -351.998814 
L 438.378865 -337.087646 
L 444.131665 -318.280767 
L 449.884464 -324.057165 
L 455.637264 -283.21937 
L 461.390063 -282.950701 
L 467.142862 -282.547696 
L 472.895662 -277.174302 
L 478.648461 -276.771297 
L 484.401261 -278.248981 
L 490.15406 -274.487605 
L 495.90686 -261.591459 
L 501.659659 -263.203478 
L 507.412459 -265.084165 
L 513.165258 -268.173867 
L 518.918058 -267.502193 
L 524.670857 -264.278156 
L 530.423656 -262.666138 
L 536.176456 -264.815496 
L 541.929255 -260.113776 
L 547.682055 -250.844671 
L 553.434854 -244.262263 
L 559.187654 -205.305157 
L 564.940453 -207.991854 
L 570.693253 -198.051075 
L 576.446052 -209.603872 
L 582.198851 -218.469972 
L 587.951651 -219.141646 
L 593.70445 -221.156669 
L 599.45725 -222.634352 
L 605.210049 -209.469537 
L 610.962849 -207.857519 
L 616.715648 -217.798298 
L 622.468448 -220.753665 
L 628.221247 -214.574261 
L 633.974047 -214.305592 
L 639.726846 -205.976831 
L 645.479645 -200.334767 
L 651.232445 -176.960503 
L 656.985244 -179.109861 
L 662.738044 -186.229608 
L 668.490843 -187.975961 
L 674.243643 -192.140341 
L 674.243643 -513.737975 
L 674.243643 -513.737975 
L 668.490843 -513.737975 
L 662.738044 -513.737975 
L 656.985244 -513.469305 
L 651.232445 -511.588617 
L 645.479645 -512.125957 
L 639.726846 -512.394627 
L 633.974047 -512.394627 
L 628.221247 -511.722952 
L 622.468448 -511.857287 
L 616.715648 -511.857287 
L 610.962849 -511.319948 
L 605.210049 -509.70793 
L 599.45725 -511.991622 
L 593.70445 -508.90192 
L 587.951651 -513.87231 
L 582.198851 -503.125522 
L 576.446052 -502.185178 
L 570.693253 -496.408779 
L 564.940453 -499.095476 
L 559.187654 -491.707059 
L 553.434854 -489.826372 
L 547.682055 -488.751693 
L 541.929255 -488.751693 
L 536.176456 -485.796326 
L 530.423656 -474.377864 
L 524.670857 -481.363276 
L 518.918058 -484.721647 
L 513.165258 -485.527656 
L 507.412459 -485.527656 
L 501.659659 -489.826372 
L 495.90686 -501.647838 
L 490.15406 -496.408779 
L 484.401261 -511.722952 
L 478.648461 -508.230246 
L 472.895662 -516.424672 
L 467.142862 -517.499351 
L 461.390063 -509.976599 
L 455.637264 -509.842264 
L 449.884464 -509.842264 
L 444.131665 -512.394627 
L 438.378865 -519.783043 
L 432.626066 -519.783043 
L 426.873266 -519.783043 
L 421.120467 -520.454718 
L 415.367667 -520.589052 
L 409.614868 -520.454718 
L 403.862068 -523.544419 
L 398.109269 -520.051713 
L 392.35647 -527.843134 
L 386.60367 -188.78197 
L 380.850871 -189.05064 
L 375.098071 -189.184974 
L 369.345272 -189.722314 
L 363.592472 -189.722314 
L 357.839673 -189.319309 
L 352.086873 -189.184974 
L 346.334074 -192.274676 
L 340.581275 -183.81158 
L 334.828475 -183.81158 
L 329.075676 -185.826603 
L 323.322876 -187.841626 
L 317.570077 -188.110296 
L 311.817277 -187.975961 
L 306.064478 -188.5133 
L 300.311678 -188.5133 
L 294.558879 -188.5133 
L 288.806079 -188.5133 
L 283.05328 -188.5133 
L 277.300481 -188.5133 
L 271.547681 -188.5133 
L 265.794882 -188.5133 
L 260.042082 -192.140341 
L 254.289283 -189.453644 
L 248.536483 -189.587979 
L 242.783684 -189.184974 
L 237.030884 -189.184974 
L 231.278085 -189.184974 
L 225.525285 -202.752794 
L 219.772486 -198.051075 
L 214.019687 -188.78197 
L 208.266887 -188.78197 
L 202.514088 -188.78197 
L 196.761288 -191.871672 
L 191.008489 -192.274676 
L 185.255689 -192.274676 
L 179.50289 -193.21502 
L 173.75009 -192.812015 
L 167.997291 -201.946785 
L 162.244492 -189.05064 
L 156.491692 -193.752359 
L 150.738893 -191.065662 
L 144.986093 -188.78197 
L 139.233294 -189.453644 
L 133.480494 -191.871672 
L 127.727695 -191.871672 
L 121.974895 -191.737337 
L 116.222096 -192.006006 
L 110.469296 -196.439056 
L 104.716497 -209.066532 
z
" style="stroke: #ffffff; stroke-opacity: 0.2"/>
    </defs>
    <g clip-path="url(#p5c30e6db87)">
     <use xlink:href="#m9d14c9bd41" x="0" y="576" style="fill: #dd8452; fill-opacity: 0.2; stroke: #ffffff; stroke-opacity: 0.2"/>
    </g>
   </g>
   <g id="PolyCollection_3">
    <defs>
     <path id="m01f8878f2e" d="M 104.716497 -217.932633 
L 104.716497 -182.065227 
L 110.469296 -164.467362 
L 116.222096 -163.392683 
L 121.974895 -161.915 
L 127.727695 -152.78023 
L 133.480494 -144.988808 
L 139.233294 -130.34631 
L 144.986093 -125.241585 
L 150.738893 -117.718834 
L 156.491692 -117.853168 
L 162.244492 -117.584499 
L 167.997291 -109.927412 
L 173.75009 -112.34544 
L 179.50289 -101.598651 
L 185.255689 -104.151014 
L 191.008489 -102.135991 
L 196.761288 -104.285349 
L 202.514088 -102.001656 
L 208.266887 -101.867321 
L 214.019687 -101.867321 
L 219.772486 -101.867321 
L 225.525285 -102.270326 
L 231.278085 -102.538995 
L 237.030884 -102.135991 
L 242.783684 -102.001656 
L 248.536483 -102.001656 
L 254.289283 -98.50895 
L 260.042082 -98.24028 
L 265.794882 -98.24028 
L 271.547681 -96.090923 
L 277.300481 -98.77762 
L 283.05328 -93.53856 
L 288.806079 -94.34457 
L 294.558879 -91.657873 
L 300.311678 -88.836841 
L 306.064478 -90.314524 
L 311.817277 -86.553148 
L 317.570077 -85.2098 
L 323.322876 -85.2098 
L 329.075676 -85.2098 
L 334.828475 -85.344134 
L 340.581275 -87.627827 
L 346.334074 -87.896497 
L 352.086873 -87.896497 
L 357.839673 -88.030832 
L 363.592472 -87.896497 
L 369.345272 -89.37418 
L 375.098071 -92.463882 
L 380.850871 -93.941565 
L 386.60367 -94.613239 
L 392.35647 -408.688121 
L 398.109269 -383.970509 
L 403.862068 -357.640878 
L 409.614868 -352.804823 
L 415.367667 -350.924135 
L 421.120467 -326.206523 
L 426.873266 -317.340423 
L 432.626066 -316.803083 
L 438.378865 -312.773038 
L 444.131665 -309.414666 
L 449.884464 -309.549001 
L 455.637264 -305.653291 
L 461.390063 -318.012097 
L 467.142862 -319.892785 
L 472.895662 -311.832694 
L 478.648461 -308.205653 
L 484.401261 -280.398338 
L 490.15406 -280.532673 
L 495.90686 -246.680291 
L 501.659659 -235.933503 
L 507.412459 -233.515475 
L 513.165258 -215.64894 
L 518.918058 -205.573826 
L 524.670857 -204.499148 
L 530.423656 -204.499148 
L 536.176456 -203.827473 
L 541.929255 -203.693138 
L 547.682055 -203.827473 
L 553.434854 -203.961808 
L 559.187654 -206.51417 
L 564.940453 -206.51417 
L 570.693253 -207.320179 
L 576.446052 -208.260523 
L 582.198851 -209.066532 
L 587.951651 -209.066532 
L 593.70445 -209.066532 
L 599.45725 -208.932198 
L 605.210049 -210.275546 
L 610.962849 -203.558804 
L 616.715648 -184.751924 
L 622.468448 -176.691833 
L 628.221247 -200.737772 
L 633.974047 -193.48369 
L 639.726846 -193.080685 
L 645.479645 -190.125318 
L 651.232445 -191.334332 
L 656.985244 -186.363943 
L 662.738044 -193.618025 
L 668.490843 -184.08025 
L 674.243643 -183.945915 
L 674.243643 -439.450802 
L 674.243643 -439.450802 
L 668.490843 -439.316467 
L 662.738044 -438.913463 
L 656.985244 -438.913463 
L 651.232445 -441.197155 
L 645.479645 -438.913463 
L 639.726846 -469.541809 
L 633.974047 -448.451237 
L 628.221247 -448.451237 
L 622.468448 -447.779563 
L 616.715648 -447.510893 
L 610.962849 -450.19759 
L 605.210049 -456.914333 
L 599.45725 -458.795021 
L 593.70445 -448.048233 
L 587.951651 -434.346078 
L 582.198851 -423.06195 
L 576.446052 -427.898005 
L 570.693253 -427.898005 
L 564.940453 -430.316032 
L 559.187654 -438.644793 
L 553.434854 -465.914768 
L 547.682055 -469.541809 
L 541.929255 -469.944814 
L 536.176456 -470.079148 
L 530.423656 -469.810479 
L 524.670857 -472.228506 
L 518.918058 -467.795456 
L 513.165258 -473.034515 
L 507.412459 -469.138804 
L 501.659659 -468.7358 
L 495.90686 -468.46713 
L 490.15406 -495.065431 
L 484.401261 -495.87144 
L 478.648461 -497.214788 
L 472.895662 -494.528091 
L 467.142862 -494.125087 
L 461.390063 -499.229811 
L 455.637264 -499.229811 
L 449.884464 -499.229811 
L 444.131665 -507.289902 
L 438.378865 -507.155567 
L 432.626066 -505.677884 
L 426.873266 -504.73754 
L 421.120467 -507.289902 
L 415.367667 -508.364581 
L 409.614868 -506.080889 
L 403.862068 -503.931531 
L 398.109269 -505.00621 
L 392.35647 -507.289902 
L 386.60367 -182.602567 
L 380.850871 -182.736902 
L 375.098071 -181.930893 
L 369.345272 -180.721879 
L 363.592472 -181.259218 
L 357.839673 -185.020594 
L 352.086873 -185.020594 
L 346.334074 -186.363943 
L 340.581275 -186.363943 
L 334.828475 -186.363943 
L 329.075676 -186.363943 
L 323.322876 -186.363943 
L 317.570077 -186.363943 
L 311.817277 -186.363943 
L 306.064478 -186.363943 
L 300.311678 -186.363943 
L 294.558879 -186.363943 
L 288.806079 -186.363943 
L 283.05328 -186.229608 
L 277.300481 -187.169952 
L 271.547681 -184.751924 
L 265.794882 -184.483255 
L 260.042082 -186.632612 
L 254.289283 -188.110296 
L 248.536483 -188.110296 
L 242.783684 -187.707291 
L 237.030884 -187.169952 
L 231.278085 -187.572956 
L 225.525285 -187.572956 
L 219.772486 -187.572956 
L 214.019687 -190.259653 
L 208.266887 -190.528323 
L 202.514088 -188.647635 
L 196.761288 -188.647635 
L 191.008489 -189.05064 
L 185.255689 -189.05064 
L 179.50289 -189.05064 
L 173.75009 -189.05064 
L 167.997291 -189.184974 
L 162.244492 -192.94635 
L 156.491692 -192.274676 
L 150.738893 -194.961373 
L 144.986093 -196.170387 
L 139.233294 -197.782405 
L 133.480494 -197.782405 
L 127.727695 -195.230043 
L 121.974895 -196.842061 
L 116.222096 -193.349355 
L 110.469296 -194.827038 
L 104.716497 -217.932633 
z
" style="stroke: #ffffff; stroke-opacity: 0.2"/>
    </defs>
    <g clip-path="url(#p5c30e6db87)">
     <use xlink:href="#m01f8878f2e" x="0" y="576" style="fill: #55a868; fill-opacity: 0.2; stroke: #ffffff; stroke-opacity: 0.2"/>
    </g>
   </g>
   <g id="line2d_14">
    <path d="M 104.716497 380.971459 
L 110.469296 385.40451 
L 116.222096 389.30022 
L 121.974895 391.785415 
L 127.727695 392.322754 
L 133.480494 393.061596 
L 139.233294 396.3528 
L 144.986093 397.091642 
L 150.738893 397.830483 
L 156.491692 397.225976 
L 162.244492 396.554302 
L 167.997291 396.688637 
L 173.75009 396.3528 
L 179.50289 396.3528 
L 185.255689 392.725759 
L 191.008489 395.815461 
L 196.761288 395.412456 
L 202.514088 395.479623 
L 208.266887 395.949795 
L 214.019687 396.487135 
L 219.772486 393.464601 
L 225.525285 393.934773 
L 231.278085 393.195931 
L 237.030884 394.673614 
L 242.783684 394.539279 
L 248.536483 396.151298 
L 254.289283 396.218465 
L 260.042082 396.218465 
L 265.794882 395.546791 
L 271.547681 395.479623 
L 277.300481 395.210954 
L 283.05328 392.322754 
L 288.806079 392.18842 
L 294.558879 388.830048 
L 300.311678 389.233053 
L 306.064478 390.845071 
L 311.817277 390.240564 
L 317.570077 391.718248 
L 323.322876 392.524257 
L 329.075676 393.128764 
L 334.828475 393.397433 
L 340.581275 393.061596 
L 346.334074 390.576401 
L 352.086873 401.323189 
L 357.839673 399.106664 
L 363.592472 397.427479 
L 369.345272 395.546791 
L 375.098071 393.531768 
L 380.850871 391.583913 
L 386.60367 393.464601 
L 392.35647 66.023401 
L 398.109269 84.763113 
L 403.862068 97.793593 
L 409.614868 108.204544 
L 415.367667 133.526664 
L 421.120467 151.997706 
L 426.873266 161.602647 
L 432.626066 169.998576 
L 438.378865 175.439137 
L 444.131665 174.767463 
L 449.884464 172.282268 
L 455.637264 163.147498 
L 461.390063 161.602647 
L 467.142862 160.796638 
L 472.895662 147.363153 
L 478.648461 148.303497 
L 484.401261 152.064873 
L 490.15406 154.75157 
L 495.90686 152.40071 
L 501.659659 155.423244 
L 507.412459 173.558449 
L 513.165258 163.281833 
L 518.918058 156.229253 
L 524.670857 155.423244 
L 530.423656 149.445343 
L 536.176456 146.221307 
L 541.929255 160.124964 
L 547.682055 172.618105 
L 553.434854 157.841272 
L 559.187654 157.438267 
L 564.940453 141.18375 
L 570.693253 149.915515 
L 576.446052 148.437832 
L 582.198851 145.952637 
L 587.951651 148.975171 
L 593.70445 166.774539 
L 599.45725 179.334848 
L 605.210049 181.484205 
L 610.962849 181.484205 
L 616.715648 164.759516 
L 622.468448 169.864241 
L 628.221247 194.447519 
L 633.974047 172.416603 
L 639.726846 177.789997 
L 645.479645 171.274757 
L 651.232445 171.812096 
L 656.985244 167.580548 
L 662.738044 167.177544 
L 668.490843 176.110811 
L 674.243643 177.319825 
" clip-path="url(#p5c30e6db87)" style="fill: none; stroke: #4c72b0; stroke-width: 2; stroke-linecap: round"/>
   </g>
   <g id="line2d_15">
    <path d="M 104.716497 380.971459 
L 110.469296 387.21803 
L 116.222096 388.628546 
L 121.974895 388.158374 
L 127.727695 389.971895 
L 133.480494 391.315243 
L 139.233294 390.845071 
L 144.986093 392.18842 
L 150.738893 392.591424 
L 156.491692 392.524257 
L 162.244492 394.27061 
L 167.997291 395.345289 
L 173.75009 396.822972 
L 179.50289 397.494646 
L 185.255689 398.099153 
L 191.008489 398.837995 
L 196.761288 398.770827 
L 202.514088 398.97233 
L 208.266887 398.636492 
L 214.019687 400.718683 
L 219.772486 400.987352 
L 225.525285 403.606882 
L 231.278085 402.86804 
L 237.030884 404.278556 
L 242.783684 404.614393 
L 248.536483 404.077054 
L 254.289283 405.151733 
L 260.042082 405.554737 
L 265.794882 407.771262 
L 271.547681 407.771262 
L 277.300481 413.010321 
L 283.05328 413.816331 
L 288.806079 412.069978 
L 294.558879 412.875987 
L 300.311678 412.607317 
L 306.064478 409.383281 
L 311.817277 407.704095 
L 317.570077 405.823407 
L 323.322876 404.883063 
L 329.075676 404.211389 
L 334.828475 402.666538 
L 340.581275 400.853017 
L 346.334074 400.248511 
L 352.086873 399.912673 
L 357.839673 399.711171 
L 363.592472 399.375334 
L 369.345272 402.86804 
L 375.098071 399.778339 
L 380.850871 402.532203 
L 386.60367 402.666538 
L 392.35647 70.456451 
L 398.109269 83.688434 
L 403.862068 96.31591 
L 409.614868 120.630518 
L 415.367667 118.078156 
L 421.120467 147.027316 
L 426.873266 154.818737 
L 432.626066 163.349 
L 438.378865 171.274757 
L 444.131665 181.551373 
L 449.884464 190.48464 
L 455.637264 191.089147 
L 461.390063 193.238505 
L 467.142862 197.604388 
L 472.895662 200.761257 
L 478.648461 202.171772 
L 484.401261 198.141727 
L 490.15406 200.559754 
L 495.90686 202.373275 
L 501.659659 202.641944 
L 507.412459 211.843882 
L 513.165258 214.261909 
L 518.918058 212.985728 
L 524.670857 209.090017 
L 530.423656 220.50848 
L 536.176456 212.448389 
L 541.929255 219.097964 
L 547.682055 218.963629 
L 553.434854 217.485946 
L 559.187654 209.560189 
L 564.940453 211.64238 
L 570.693253 202.50761 
L 576.446052 211.440877 
L 582.198851 209.090017 
L 587.951651 207.209329 
L 593.70445 208.351176 
L 599.45725 219.500968 
L 605.210049 223.060842 
L 610.962849 223.866851 
L 616.715648 221.986163 
L 622.468448 221.045819 
L 628.221247 219.232299 
L 633.974047 219.769638 
L 639.726846 214.060407 
L 645.479645 215.672425 
L 651.232445 215.202253 
L 656.985244 215.739592 
L 662.738044 213.388733 
L 668.490843 214.799249 
L 674.243643 221.112987 
" clip-path="url(#p5c30e6db87)" style="fill: none; stroke: #dd8452; stroke-width: 2; stroke-linecap: round"/>
   </g>
   <g id="line2d_16">
    <path d="M 104.716497 381.307297 
L 110.469296 386.680691 
L 116.222096 387.016528 
L 121.974895 388.225541 
L 127.727695 390.442066 
L 133.480494 389.703225 
L 139.233294 392.054085 
L 144.986093 393.195931 
L 150.738893 393.73327 
L 156.491692 394.740782 
L 162.244492 394.27061 
L 167.997291 395.546791 
L 173.75009 396.218465 
L 179.50289 396.419967 
L 185.255689 396.822972 
L 191.008489 397.024474 
L 196.761288 398.031986 
L 202.514088 402.935208 
L 208.266887 403.002375 
L 214.019687 404.009886 
L 219.772486 405.2189 
L 225.525285 405.621905 
L 231.278085 407.771262 
L 237.030884 408.711606 
L 242.783684 409.517615 
L 248.536483 410.122122 
L 254.289283 410.793796 
L 260.042082 410.659462 
L 265.794882 410.793796 
L 271.547681 410.793796 
L 277.300481 410.793796 
L 283.05328 411.398303 
L 288.806079 418.719553 
L 294.558879 420.801743 
L 300.311678 421.204747 
L 306.064478 421.943589 
L 311.817277 421.674919 
L 317.570077 421.876422 
L 323.322876 422.816766 
L 329.075676 421.876422 
L 334.828475 426.913979 
L 340.581275 429.73501 
L 346.334074 430.742522 
L 352.086873 429.399173 
L 357.839673 428.794667 
L 363.592472 426.443807 
L 369.345272 433.160549 
L 375.098071 434.235228 
L 380.850871 434.772567 
L 386.60367 436.854758 
L 392.35647 98.12943 
L 398.109269 112.771929 
L 403.862068 112.906264 
L 409.614868 114.854119 
L 415.367667 114.988454 
L 421.120467 120.361848 
L 426.873266 124.526228 
L 432.626066 134.13117 
L 438.378865 131.175804 
L 444.131665 143.937614 
L 449.884464 144.206284 
L 455.637264 163.61767 
L 461.390063 157.975606 
L 467.142862 162.139987 
L 472.895662 165.028186 
L 478.648461 174.767463 
L 484.401261 168.991064 
L 490.15406 169.729906 
L 495.90686 162.341489 
L 501.659659 183.364893 
L 507.412459 194.044514 
L 513.165258 202.641944 
L 518.918058 194.649021 
L 524.670857 204.388298 
L 530.423656 230.046254 
L 536.176456 225.008697 
L 541.929255 224.135521 
L 547.682055 222.725005 
L 553.434854 227.762562 
L 559.187654 241.128879 
L 564.940453 242.270726 
L 570.693253 239.248191 
L 576.446052 240.86021 
L 582.198851 238.442182 
L 587.951651 242.9424 
L 593.70445 240.793042 
L 599.45725 241.867721 
L 605.210049 261.21194 
L 610.962849 257.383396 
L 616.715648 259.734256 
L 622.468448 274.77976 
L 628.221247 268.734691 
L 633.974047 268.398854 
L 639.726846 259.398419 
L 645.479645 241.330382 
L 651.232445 239.785531 
L 656.985244 239.919866 
L 662.738044 239.046689 
L 668.490843 233.068788 
L 674.243643 233.203123 
" clip-path="url(#p5c30e6db87)" style="fill: none; stroke: #55a868; stroke-width: 2; stroke-linecap: round"/>
   </g>
   <g id="patch_3">
    <path d="M 76.24014 513.338305 
L 76.24014 17.28 
" style="fill: none; stroke: #cccccc; stroke-width: 1.25; stroke-linejoin: miter; stroke-linecap: square"/>
   </g>
   <g id="patch_4">
    <path d="M 702.72 513.338305 
L 702.72 17.28 
" style="fill: none; stroke: #cccccc; stroke-width: 1.25; stroke-linejoin: miter; stroke-linecap: square"/>
   </g>
   <g id="patch_5">
    <path d="M 76.24014 513.338305 
L 702.72 513.338305 
" style="fill: none; stroke: #cccccc; stroke-width: 1.25; stroke-linejoin: miter; stroke-linecap: square"/>
   </g>
   <g id="patch_6">
    <path d="M 76.24014 17.28 
L 702.72 17.28 
" style="fill: none; stroke: #cccccc; stroke-width: 1.25; stroke-linejoin: miter; stroke-linecap: square"/>
   </g>
   <g id="legend_1">
    <g id="patch_7">
     <path d="M 90.24014 148.162063 
L 195.766727 148.162063 
Q 199.766727 148.162063 199.766727 144.162063 
L 199.766727 31.28 
Q 199.766727 27.28 195.766727 27.28 
L 90.24014 27.28 
Q 86.24014 27.28 86.24014 31.28 
L 86.24014 144.162063 
Q 86.24014 148.162063 90.24014 148.162063 
z
" style="fill: #ffffff; opacity: 0.8; stroke: #cccccc; stroke-linejoin: miter"/>
    </g>
    <g id="text_16">
     <!-- $\alpha$ -->
     <g style="fill: #262626" transform="translate(135.557828 51.884405) scale(0.24 -0.24)">
      <defs>
       <path id="CMMI12-b" d="M 2963 1616 
C 2963 2235 2611 2815 1933 2815 
C 1094 2815 256 1902 256 996 
C 256 441 602 -64 1254 -64 
C 1651 -64 2125 89 2579 472 
C 2669 115 2867 -64 3142 -64 
C 3488 -64 3661 294 3661 377 
C 3661 434 3616 434 3597 434 
C 3546 434 3539 415 3520 364 
C 3462 204 3315 64 3162 64 
C 2963 64 2963 472 2963 862 
C 3616 1641 3770 2446 3770 2452 
C 3770 2510 3718 2510 3699 2510 
C 3642 2510 3635 2491 3610 2376 
C 3526 2095 3360 1597 2963 1073 
L 2963 1616 
z
M 2560 626 
C 1997 121 1491 64 1267 64 
C 813 64 685 466 685 766 
C 685 1040 826 1692 1024 2044 
C 1286 2491 1645 2688 1933 2688 
C 2554 2688 2554 1877 2554 1341 
C 2554 1182 2547 1016 2547 856 
C 2547 728 2554 696 2560 626 
z
" transform="scale(0.015625)"/>
      </defs>
      <use xlink:href="#CMMI12-b" transform="scale(0.996264)"/>
     </g>
    </g>
    <g id="line2d_17">
     <path d="M 94.24014 73.535163 
L 114.24014 73.535163 
L 134.24014 73.535163 
" style="fill: none; stroke: #4c72b0; stroke-width: 2; stroke-linecap: round"/>
    </g>
    <g id="text_17">
     <!-- 0.01 -->
     <g style="fill: #262626" transform="translate(150.24014 80.535163) scale(0.2 -0.2)">
      <defs>
       <path id="CMR17-2e" d="M 1062 261 
C 1062 420 934 522 800 522 
C 672 522 538 420 538 261 
C 538 102 666 0 800 0 
C 928 0 1062 102 1062 261 
z
" transform="scale(0.015625)"/>
      </defs>
      <use xlink:href="#CMR17-30" transform="scale(0.996264)"/>
      <use xlink:href="#CMR17-2e" transform="translate(45.690477 0) scale(0.996264)"/>
      <use xlink:href="#CMR17-30" transform="translate(70.561536 0) scale(0.996264)"/>
      <use xlink:href="#CMR17-31" transform="translate(116.252013 0) scale(0.996264)"/>
     </g>
    </g>
    <g id="line2d_18">
     <path d="M 94.24014 101.410796 
L 114.24014 101.410796 
L 134.24014 101.410796 
" style="fill: none; stroke: #dd8452; stroke-width: 2; stroke-linecap: round"/>
    </g>
    <g id="text_18">
     <!-- 0.004 -->
     <g style="fill: #262626" transform="translate(150.24014 108.410796) scale(0.2 -0.2)">
      <use xlink:href="#CMR17-30" transform="scale(0.996264)"/>
      <use xlink:href="#CMR17-2e" transform="translate(45.690477 0) scale(0.996264)"/>
      <use xlink:href="#CMR17-30" transform="translate(70.561536 0) scale(0.996264)"/>
      <use xlink:href="#CMR17-30" transform="translate(116.252013 0) scale(0.996264)"/>
      <use xlink:href="#CMR17-34" transform="translate(161.94249 0) scale(0.996264)"/>
     </g>
    </g>
    <g id="line2d_19">
     <path d="M 94.24014 129.28643 
L 114.24014 129.28643 
L 134.24014 129.28643 
" style="fill: none; stroke: #55a868; stroke-width: 2; stroke-linecap: round"/>
    </g>
    <g id="text_19">
     <!-- 0.002 -->
     <g style="fill: #262626" transform="translate(150.24014 136.28643) scale(0.2 -0.2)">
      <use xlink:href="#CMR17-30" transform="scale(0.996264)"/>
      <use xlink:href="#CMR17-2e" transform="translate(45.690477 0) scale(0.996264)"/>
      <use xlink:href="#CMR17-30" transform="translate(70.561536 0) scale(0.996264)"/>
      <use xlink:href="#CMR17-30" transform="translate(116.252013 0) scale(0.996264)"/>
      <use xlink:href="#CMR17-32" transform="translate(161.94249 0) scale(0.996264)"/>
     </g>
    </g>
   </g>
  </g>
 </g>
 <defs>
  <clipPath id="p5c30e6db87">
   <rect x="76.24014" y="17.28" width="626.47986" height="496.058305"/>
  </clipPath>
 </defs>
</svg>
