<?xml version="1.0" encoding="utf-8" standalone="no"?>
<!DOCTYPE svg PUBLIC "-//W3C//DTD SVG 1.1//EN"
  "http://www.w3.org/Graphics/SVG/1.1/DTD/svg11.dtd">
<svg xmlns:xlink="http://www.w3.org/1999/xlink" width="720pt" height="576pt" viewBox="0 0 720 576" xmlns="http://www.w3.org/2000/svg" version="1.1">
 <metadata>
  <rdf:RDF xmlns:dc="http://purl.org/dc/elements/1.1/" xmlns:cc="http://creativecommons.org/ns#" xmlns:rdf="http://www.w3.org/1999/02/22-rdf-syntax-ns#">
   <cc:Work>
    <dc:type rdf:resource="http://purl.org/dc/dcmitype/StillImage"/>
    <dc:date>2025-04-24T18:57:28.128243</dc:date>
    <dc:format>image/svg+xml</dc:format>
    <dc:creator>
     <cc:Agent>
      <dc:title>Matplotlib v3.9.2, https://matplotlib.org/</dc:title>
     </cc:Agent>
    </dc:creator>
   </cc:Work>
  </rdf:RDF>
 </metadata>
 <defs>
  <style type="text/css">*{stroke-linejoin: round; stroke-linecap: butt}</style>
 </defs>
 <g id="figure_1">
  <g id="patch_1">
   <path d="M 0 576 
L 720 576 
L 720 0 
L 0 0 
z
" style="fill: #ffffff"/>
  </g>
  <g id="axes_1">
   <g id="patch_2">
    <path d="M 99.405899 495.840956 
L 694.08 495.840956 
L 694.08 49.831226 
L 99.405899 49.831226 
z
" style="fill: #ffffff"/>
   </g>
   <g id="matplotlib.axis_1">
    <g id="xtick_1">
     <g id="line2d_1">
      <path d="M 126.43654 495.840956 
L 126.43654 49.831226 
" clip-path="url(#pf8e69d65fe)" style="fill: none; stroke: #cccccc; stroke-linecap: round"/>
     </g>
     <g id="text_1">
      <!-- $\mathdefault{0}$ -->
      <g style="fill: #262626" transform="translate(121.410587 520.56165) scale(0.22 -0.22)">
       <defs>
        <path id="CMR17-30" d="M 2688 2025 
C 2688 2416 2682 3080 2413 3591 
C 2176 4039 1798 4198 1466 4198 
C 1158 4198 768 4058 525 3597 
C 269 3118 243 2524 243 2025 
C 243 1661 250 1106 448 619 
C 723 -39 1216 -128 1466 -128 
C 1760 -128 2208 -7 2470 600 
C 2662 1042 2688 1559 2688 2025 
z
M 1466 -26 
C 1056 -26 813 325 723 812 
C 653 1188 653 1738 653 2096 
C 653 2588 653 2997 736 3387 
C 858 3929 1216 4096 1466 4096 
C 1728 4096 2067 3923 2189 3400 
C 2272 3036 2278 2607 2278 2096 
C 2278 1680 2278 1169 2202 792 
C 2067 95 1690 -26 1466 -26 
z
" transform="scale(0.015625)"/>
       </defs>
       <use xlink:href="#CMR17-30" transform="scale(0.996264)"/>
      </g>
     </g>
    </g>
    <g id="xtick_2">
     <g id="line2d_2">
      <path d="M 235.651251 495.840956 
L 235.651251 49.831226 
" clip-path="url(#pf8e69d65fe)" style="fill: none; stroke: #cccccc; stroke-linecap: round"/>
     </g>
     <g id="text_2">
      <!-- $\mathdefault{200}$ -->
      <g style="fill: #262626" transform="translate(220.573393 520.56165) scale(0.22 -0.22)">
       <defs>
        <path id="CMR17-32" d="M 2669 989 
L 2554 989 
C 2490 536 2438 459 2413 420 
C 2381 369 1920 369 1830 369 
L 602 369 
C 832 619 1280 1072 1824 1597 
C 2214 1967 2669 2402 2669 3035 
C 2669 3790 2067 4224 1395 4224 
C 691 4224 262 3604 262 3030 
C 262 2780 448 2748 525 2748 
C 589 2748 781 2787 781 3010 
C 781 3207 614 3264 525 3264 
C 486 3264 448 3258 422 3245 
C 544 3790 915 4058 1306 4058 
C 1862 4058 2227 3617 2227 3035 
C 2227 2479 1901 2000 1536 1584 
L 262 146 
L 262 0 
L 2515 0 
L 2669 989 
z
" transform="scale(0.015625)"/>
       </defs>
       <use xlink:href="#CMR17-32" transform="scale(0.996264)"/>
       <use xlink:href="#CMR17-30" transform="translate(45.690477 0) scale(0.996264)"/>
       <use xlink:href="#CMR17-30" transform="translate(91.380954 0) scale(0.996264)"/>
      </g>
     </g>
    </g>
    <g id="xtick_3">
     <g id="line2d_3">
      <path d="M 344.865962 495.840956 
L 344.865962 49.831226 
" clip-path="url(#pf8e69d65fe)" style="fill: none; stroke: #cccccc; stroke-linecap: round"/>
     </g>
     <g id="text_3">
      <!-- $\mathdefault{400}$ -->
      <g style="fill: #262626" transform="translate(329.788104 520.56165) scale(0.22 -0.22)">
       <defs>
        <path id="CMR17-34" d="M 2150 4122 
C 2150 4256 2144 4256 2029 4256 
L 128 1254 
L 128 1088 
L 1779 1088 
L 1779 457 
C 1779 224 1766 160 1318 160 
L 1197 160 
L 1197 0 
C 1402 0 1747 0 1965 0 
C 2182 0 2528 0 2733 0 
L 2733 160 
L 2611 160 
C 2163 160 2150 224 2150 457 
L 2150 1088 
L 2803 1088 
L 2803 1254 
L 2150 1254 
L 2150 4122 
z
M 1798 3703 
L 1798 1254 
L 256 1254 
L 1798 3703 
z
" transform="scale(0.015625)"/>
       </defs>
       <use xlink:href="#CMR17-34" transform="scale(0.996264)"/>
       <use xlink:href="#CMR17-30" transform="translate(45.690477 0) scale(0.996264)"/>
       <use xlink:href="#CMR17-30" transform="translate(91.380954 0) scale(0.996264)"/>
      </g>
     </g>
    </g>
    <g id="xtick_4">
     <g id="line2d_4">
      <path d="M 454.080673 495.840956 
L 454.080673 49.831226 
" clip-path="url(#pf8e69d65fe)" style="fill: none; stroke: #cccccc; stroke-linecap: round"/>
     </g>
     <g id="text_4">
      <!-- $\mathdefault{600}$ -->
      <g style="fill: #262626" transform="translate(439.002815 520.56165) scale(0.22 -0.22)">
       <defs>
        <path id="CMR17-36" d="M 678 2176 
C 678 3690 1395 4032 1811 4032 
C 1946 4032 2272 4009 2400 3776 
C 2298 3776 2106 3776 2106 3553 
C 2106 3381 2246 3323 2336 3323 
C 2394 3323 2566 3348 2566 3560 
C 2566 3954 2246 4179 1805 4179 
C 1043 4179 243 3390 243 1984 
C 243 253 966 -128 1478 -128 
C 2099 -128 2688 427 2688 1283 
C 2688 2081 2170 2662 1517 2662 
C 1126 2662 838 2407 678 1960 
L 678 2176 
z
M 1478 25 
C 691 25 691 1200 691 1436 
C 691 1896 909 2560 1504 2560 
C 1613 2560 1926 2560 2138 2120 
C 2253 1870 2253 1609 2253 1289 
C 2253 944 2253 690 2118 434 
C 1978 171 1773 25 1478 25 
z
" transform="scale(0.015625)"/>
       </defs>
       <use xlink:href="#CMR17-36" transform="scale(0.996264)"/>
       <use xlink:href="#CMR17-30" transform="translate(45.690477 0) scale(0.996264)"/>
       <use xlink:href="#CMR17-30" transform="translate(91.380954 0) scale(0.996264)"/>
      </g>
     </g>
    </g>
    <g id="xtick_5">
     <g id="line2d_5">
      <path d="M 563.295384 495.840956 
L 563.295384 49.831226 
" clip-path="url(#pf8e69d65fe)" style="fill: none; stroke: #cccccc; stroke-linecap: round"/>
     </g>
     <g id="text_5">
      <!-- $\mathdefault{800}$ -->
      <g style="fill: #262626" transform="translate(548.217526 520.56165) scale(0.22 -0.22)">
       <defs>
        <path id="CMR17-38" d="M 1741 2264 
C 2144 2467 2554 2773 2554 3263 
C 2554 3841 1990 4179 1472 4179 
C 890 4179 378 3759 378 3180 
C 378 3021 416 2747 666 2505 
C 730 2442 998 2251 1171 2130 
C 883 1983 211 1634 211 934 
C 211 279 838 -128 1459 -128 
C 2144 -128 2720 362 2720 1010 
C 2720 1590 2330 1857 2074 2029 
L 1741 2264 
z
M 902 2822 
C 851 2854 595 3051 595 3351 
C 595 3739 998 4032 1459 4032 
C 1965 4032 2336 3676 2336 3262 
C 2336 2669 1670 2331 1638 2331 
C 1632 2331 1626 2331 1574 2370 
L 902 2822 
z
M 2080 1519 
C 2176 1449 2483 1240 2483 851 
C 2483 381 2010 25 1472 25 
C 890 25 448 438 448 940 
C 448 1443 838 1862 1280 2060 
L 2080 1519 
z
" transform="scale(0.015625)"/>
       </defs>
       <use xlink:href="#CMR17-38" transform="scale(0.996264)"/>
       <use xlink:href="#CMR17-30" transform="translate(45.690477 0) scale(0.996264)"/>
       <use xlink:href="#CMR17-30" transform="translate(91.380954 0) scale(0.996264)"/>
      </g>
     </g>
    </g>
    <g id="xtick_6">
     <g id="line2d_6">
      <path d="M 672.510095 495.840956 
L 672.510095 49.831226 
" clip-path="url(#pf8e69d65fe)" style="fill: none; stroke: #cccccc; stroke-linecap: round"/>
     </g>
     <g id="text_6">
      <!-- $\mathdefault{1000}$ -->
      <g style="fill: #262626" transform="translate(652.406285 520.56165) scale(0.22 -0.22)">
       <defs>
        <path id="CMR17-31" d="M 1702 4058 
C 1702 4192 1696 4192 1606 4192 
C 1357 3916 979 3827 621 3827 
C 602 3827 570 3827 563 3808 
C 557 3795 557 3782 557 3648 
C 755 3648 1088 3686 1344 3839 
L 1344 461 
C 1344 236 1331 160 781 160 
L 589 160 
L 589 0 
C 896 0 1216 0 1523 0 
C 1830 0 2150 0 2458 0 
L 2458 160 
L 2266 160 
C 1715 160 1702 230 1702 458 
L 1702 4058 
z
" transform="scale(0.015625)"/>
       </defs>
       <use xlink:href="#CMR17-31" transform="scale(0.996264)"/>
       <use xlink:href="#CMR17-30" transform="translate(45.690477 0) scale(0.996264)"/>
       <use xlink:href="#CMR17-30" transform="translate(91.380954 0) scale(0.996264)"/>
       <use xlink:href="#CMR17-30" transform="translate(137.071431 0) scale(0.996264)"/>
      </g>
     </g>
    </g>
    <g id="text_7">
     <!-- Step -->
     <g style="fill: #262626" transform="translate(375.656093 545.429243) scale(0.24 -0.24)">
      <defs>
       <path id="CMSS17-53" d="M 2797 4169 
C 2515 4334 2208 4480 1690 4480 
C 864 4480 333 3879 333 3266 
C 333 3025 403 2753 653 2475 
C 902 2196 1184 2121 1542 2033 
C 1690 1994 1939 1924 1984 1906 
C 2342 1767 2515 1444 2515 1140 
C 2515 742 2202 318 1645 318 
C 1453 318 890 318 358 819 
L 269 318 
C 794 -64 1363 -128 1651 -128 
C 2438 -128 3002 488 3002 1186 
C 3002 1440 2925 1763 2656 2061 
C 2394 2347 2163 2410 1638 2549 
C 1338 2626 1146 2677 986 2873 
C 877 3013 819 3146 819 3317 
C 819 3673 1126 4060 1690 4060 
C 1971 4060 2336 4002 2707 3660 
L 2797 4169 
z
" transform="scale(0.015625)"/>
       <path id="CMSS17-74" d="M 1069 2368 
L 1901 2368 
L 1901 2737 
L 1069 2737 
L 1069 3520 
L 614 3520 
L 614 2737 
L 109 2737 
L 109 2368 
L 602 2368 
L 602 749 
C 602 384 685 -64 1107 -64 
C 1427 -64 1722 25 2003 172 
L 1901 548 
C 1747 414 1562 337 1363 337 
C 1082 337 1069 696 1069 856 
L 1069 2368 
z
" transform="scale(0.015625)"/>
       <path id="CMSS17-65" d="M 2502 1377 
C 2502 1590 2490 2003 2285 2345 
C 2061 2713 1696 2816 1421 2816 
C 755 2816 192 2188 192 1375 
C 192 582 774 -64 1510 -64 
C 1798 -64 2150 19 2470 248 
C 2470 274 2458 414 2451 420 
C 2451 433 2432 630 2432 656 
C 2125 407 1773 325 1517 325 
C 1107 325 666 667 646 1377 
L 2502 1377 
z
M 698 1728 
C 781 2084 1062 2421 1421 2421 
C 1517 2421 1965 2421 2080 1728 
L 698 1728 
z
" transform="scale(0.015625)"/>
       <path id="CMSS17-70" d="M 966 333 
C 1178 129 1466 -5 1773 -5 
C 2368 -5 2880 603 2880 1412 
C 2880 2159 2496 2816 1946 2816 
C 1626 2816 1242 2702 954 2472 
L 954 2765 
L 480 2765 
L 480 -1216 
L 966 -1216 
L 966 333 
z
M 966 2100 
C 1018 2176 1235 2415 1587 2415 
C 2035 2415 2394 1960 2394 1412 
C 2394 787 1958 384 1530 384 
C 1402 384 1267 415 1139 523 
C 966 674 966 768 966 857 
L 966 2100 
z
" transform="scale(0.015625)"/>
      </defs>
      <use xlink:href="#CMSS17-53" transform="scale(0.996264)"/>
      <use xlink:href="#CMSS17-74" transform="translate(52.048516 0) scale(0.996264)"/>
      <use xlink:href="#CMSS17-65" transform="translate(85.880083 0) scale(0.996264)"/>
      <use xlink:href="#CMSS17-70" transform="translate(127.518905 0) scale(0.996264)"/>
     </g>
    </g>
   </g>
   <g id="matplotlib.axis_2">
    <g id="ytick_1">
     <g id="line2d_7">
      <path d="M 99.405899 467.244856 
L 694.08 467.244856 
" clip-path="url(#pf8e69d65fe)" style="fill: none; stroke: #cccccc; stroke-linecap: round"/>
     </g>
     <g id="text_8">
      <!-- $\mathdefault{0.05}$ -->
      <g style="fill: #262626" transform="translate(53.788805 474.855202) scale(0.22 -0.22)">
       <defs>
        <path id="CMMI12-3a" d="M 1178 307 
C 1178 492 1024 619 870 619 
C 685 619 557 466 557 313 
C 557 128 710 0 864 0 
C 1050 0 1178 153 1178 307 
z
" transform="scale(0.015625)"/>
        <path id="CMR17-35" d="M 730 3692 
C 794 3666 1056 3584 1325 3584 
C 1920 3584 2246 3911 2432 4100 
C 2432 4157 2432 4192 2394 4192 
C 2387 4192 2374 4192 2323 4163 
C 2099 4058 1837 3973 1517 3973 
C 1325 3973 1037 3999 723 4139 
C 653 4171 640 4171 634 4171 
C 602 4171 595 4164 595 4037 
L 595 2203 
C 595 2089 595 2057 659 2057 
C 691 2057 704 2070 736 2114 
C 941 2401 1222 2522 1542 2522 
C 1766 2522 2246 2382 2246 1289 
C 2246 1085 2246 715 2054 421 
C 1894 159 1645 25 1370 25 
C 947 25 518 320 403 814 
C 429 807 480 795 506 795 
C 589 795 749 840 749 1038 
C 749 1210 627 1280 506 1280 
C 358 1280 262 1190 262 1011 
C 262 454 704 -128 1382 -128 
C 2042 -128 2669 440 2669 1264 
C 2669 2030 2170 2624 1549 2624 
C 1222 2624 947 2503 730 2274 
L 730 3692 
z
" transform="scale(0.015625)"/>
       </defs>
       <use xlink:href="#CMR17-30" transform="scale(0.996264)"/>
       <use xlink:href="#CMMI12-3a" transform="translate(45.690477 0) scale(0.996264)"/>
       <use xlink:href="#CMR17-30" transform="translate(72.787654 0) scale(0.996264)"/>
       <use xlink:href="#CMR17-35" transform="translate(118.478131 0) scale(0.996264)"/>
      </g>
     </g>
    </g>
    <g id="ytick_2">
     <g id="line2d_8">
      <path d="M 99.405899 405.133429 
L 694.08 405.133429 
" clip-path="url(#pf8e69d65fe)" style="fill: none; stroke: #cccccc; stroke-linecap: round"/>
     </g>
     <g id="text_9">
      <!-- $\mathdefault{0.10}$ -->
      <g style="fill: #262626" transform="translate(53.788805 412.743776) scale(0.22 -0.22)">
       <use xlink:href="#CMR17-30" transform="scale(0.996264)"/>
       <use xlink:href="#CMMI12-3a" transform="translate(45.690477 0) scale(0.996264)"/>
       <use xlink:href="#CMR17-31" transform="translate(72.787654 0) scale(0.996264)"/>
       <use xlink:href="#CMR17-30" transform="translate(118.478131 0) scale(0.996264)"/>
      </g>
     </g>
    </g>
    <g id="ytick_3">
     <g id="line2d_9">
      <path d="M 99.405899 343.022003 
L 694.08 343.022003 
" clip-path="url(#pf8e69d65fe)" style="fill: none; stroke: #cccccc; stroke-linecap: round"/>
     </g>
     <g id="text_10">
      <!-- $\mathdefault{0.15}$ -->
      <g style="fill: #262626" transform="translate(53.788805 350.63235) scale(0.22 -0.22)">
       <use xlink:href="#CMR17-30" transform="scale(0.996264)"/>
       <use xlink:href="#CMMI12-3a" transform="translate(45.690477 0) scale(0.996264)"/>
       <use xlink:href="#CMR17-31" transform="translate(72.787654 0) scale(0.996264)"/>
       <use xlink:href="#CMR17-35" transform="translate(118.478131 0) scale(0.996264)"/>
      </g>
     </g>
    </g>
    <g id="ytick_4">
     <g id="line2d_10">
      <path d="M 99.405899 280.910577 
L 694.08 280.910577 
" clip-path="url(#pf8e69d65fe)" style="fill: none; stroke: #cccccc; stroke-linecap: round"/>
     </g>
     <g id="text_11">
      <!-- $\mathdefault{0.20}$ -->
      <g style="fill: #262626" transform="translate(53.788805 288.520923) scale(0.22 -0.22)">
       <use xlink:href="#CMR17-30" transform="scale(0.996264)"/>
       <use xlink:href="#CMMI12-3a" transform="translate(45.690477 0) scale(0.996264)"/>
       <use xlink:href="#CMR17-32" transform="translate(72.787654 0) scale(0.996264)"/>
       <use xlink:href="#CMR17-30" transform="translate(118.478131 0) scale(0.996264)"/>
      </g>
     </g>
    </g>
    <g id="ytick_5">
     <g id="line2d_11">
      <path d="M 99.405899 218.79915 
L 694.08 218.79915 
" clip-path="url(#pf8e69d65fe)" style="fill: none; stroke: #cccccc; stroke-linecap: round"/>
     </g>
     <g id="text_12">
      <!-- $\mathdefault{0.25}$ -->
      <g style="fill: #262626" transform="translate(53.788805 226.409497) scale(0.22 -0.22)">
       <use xlink:href="#CMR17-30" transform="scale(0.996264)"/>
       <use xlink:href="#CMMI12-3a" transform="translate(45.690477 0) scale(0.996264)"/>
       <use xlink:href="#CMR17-32" transform="translate(72.787654 0) scale(0.996264)"/>
       <use xlink:href="#CMR17-35" transform="translate(118.478131 0) scale(0.996264)"/>
      </g>
     </g>
    </g>
    <g id="ytick_6">
     <g id="line2d_12">
      <path d="M 99.405899 156.687724 
L 694.08 156.687724 
" clip-path="url(#pf8e69d65fe)" style="fill: none; stroke: #cccccc; stroke-linecap: round"/>
     </g>
     <g id="text_13">
      <!-- $\mathdefault{0.30}$ -->
      <g style="fill: #262626" transform="translate(53.788805 164.298071) scale(0.22 -0.22)">
       <defs>
        <path id="CMR17-33" d="M 1414 2157 
C 1984 2157 2234 1662 2234 1090 
C 2234 320 1824 25 1453 25 
C 1114 25 563 194 390 693 
C 422 680 454 680 486 680 
C 640 680 755 782 755 948 
C 755 1133 614 1216 486 1216 
C 378 1216 211 1165 211 926 
C 211 335 787 -128 1466 -128 
C 2176 -128 2720 430 2720 1085 
C 2720 1707 2208 2157 1600 2227 
C 2086 2328 2554 2756 2554 3329 
C 2554 3820 2048 4179 1472 4179 
C 890 4179 378 3829 378 3329 
C 378 3110 544 3072 627 3072 
C 762 3072 877 3155 877 3321 
C 877 3486 762 3569 627 3569 
C 602 3569 570 3569 544 3557 
C 730 3959 1235 4032 1459 4032 
C 1683 4032 2106 3925 2106 3320 
C 2106 3143 2080 2828 1862 2550 
C 1670 2304 1453 2304 1242 2284 
C 1210 2284 1062 2269 1037 2269 
C 992 2263 966 2257 966 2208 
C 966 2163 973 2157 1101 2157 
L 1414 2157 
z
" transform="scale(0.015625)"/>
       </defs>
       <use xlink:href="#CMR17-30" transform="scale(0.996264)"/>
       <use xlink:href="#CMMI12-3a" transform="translate(45.690477 0) scale(0.996264)"/>
       <use xlink:href="#CMR17-33" transform="translate(72.787654 0) scale(0.996264)"/>
       <use xlink:href="#CMR17-30" transform="translate(118.478131 0) scale(0.996264)"/>
      </g>
     </g>
    </g>
    <g id="ytick_7">
     <g id="line2d_13">
      <path d="M 99.405899 94.576298 
L 694.08 94.576298 
" clip-path="url(#pf8e69d65fe)" style="fill: none; stroke: #cccccc; stroke-linecap: round"/>
     </g>
     <g id="text_14">
      <!-- $\mathdefault{0.35}$ -->
      <g style="fill: #262626" transform="translate(53.788805 102.186645) scale(0.22 -0.22)">
       <use xlink:href="#CMR17-30" transform="scale(0.996264)"/>
       <use xlink:href="#CMMI12-3a" transform="translate(45.690477 0) scale(0.996264)"/>
       <use xlink:href="#CMR17-33" transform="translate(72.787654 0) scale(0.996264)"/>
       <use xlink:href="#CMR17-35" transform="translate(118.478131 0) scale(0.996264)"/>
      </g>
     </g>
    </g>
    <g id="text_15">
     <!-- Mean Squared Error (MSE) -->
     <g style="fill: #262626" transform="translate(43.831226 402.556914) rotate(-90) scale(0.24 -0.24)">
      <defs>
       <path id="CMSS17-4d" d="M 3194 2371 
L 2886 1473 
C 2835 1307 2662 791 2624 587 
L 2618 587 
C 2598 715 2560 849 2458 1174 
C 2400 1365 2336 1562 2272 1741 
L 1325 4416 
L 576 4416 
L 576 0 
L 1075 0 
L 1075 3900 
L 1082 3900 
C 1082 3894 1139 3613 1530 2499 
L 2374 96 
L 2848 96 
L 3610 2231 
C 3661 2378 3821 2843 3891 3066 
C 3955 3257 4115 3728 4154 3913 
L 4160 3913 
L 4160 0 
L 4666 0 
L 4666 4416 
L 3923 4416 
L 3194 2371 
z
" transform="scale(0.015625)"/>
       <path id="CMSS17-61" d="M 2406 1791 
C 2406 2392 1978 2808 1402 2808 
C 1120 2808 813 2757 461 2553 
L 499 2135 
C 659 2248 934 2432 1395 2432 
C 1722 2432 1920 2180 1920 1782 
L 1920 1536 
C 896 1536 256 1238 256 726 
C 256 461 416 -64 947 -64 
C 1043 -64 1562 -64 1933 217 
L 1933 -19 
L 2406 -19 
L 2406 1791 
z
M 1920 816 
C 1920 701 1920 548 1728 434 
C 1562 325 1350 325 1261 325 
C 941 325 723 511 723 744 
C 723 1211 1722 1211 1920 1211 
L 1920 816 
z
" transform="scale(0.015625)"/>
       <path id="CMSS17-6e" d="M 2618 1877 
C 2618 2283 2522 2816 1798 2816 
C 1389 2816 1120 2606 941 2389 
L 941 2758 
L 474 2758 
L 474 0 
L 960 0 
L 960 1559 
C 960 1964 1114 2428 1549 2428 
C 2112 2428 2131 2048 2131 1829 
L 2131 0 
L 2618 0 
L 2618 1877 
z
" transform="scale(0.015625)"/>
       <path id="CMSS17-71" d="M 2611 2816 
L 2138 2816 
L 2138 2428 
C 2112 2460 1818 2816 1318 2816 
C 736 2816 211 2228 211 1399 
C 211 633 653 -5 1229 -5 
C 1498 -5 1837 91 2125 365 
L 2125 -1216 
L 2611 -1216 
L 2611 2816 
z
M 2138 914 
C 2138 832 2138 718 1939 554 
C 1888 510 1747 384 1504 384 
C 1050 384 698 850 698 1399 
C 698 2011 1126 2415 1562 2415 
C 1926 2415 2138 2061 2138 1797 
L 2138 914 
z
" transform="scale(0.015625)"/>
       <path id="CMSS17-75" d="M 2618 2739 
L 2131 2739 
L 2131 972 
C 2131 498 1786 306 1421 306 
C 998 306 960 447 960 709 
L 960 2739 
L 474 2739 
L 474 678 
C 474 179 646 -64 1088 -64 
C 1306 -64 1798 -13 2144 306 
L 2144 0 
L 2618 0 
L 2618 2739 
z
" transform="scale(0.015625)"/>
       <path id="CMSS17-72" d="M 954 1363 
C 954 1965 1395 2368 1958 2368 
L 1958 2789 
C 1549 2789 1165 2585 934 2253 
L 934 2758 
L 480 2758 
L 480 0 
L 954 0 
L 954 1363 
z
" transform="scale(0.015625)"/>
       <path id="CMSS17-64" d="M 2611 4416 
L 2138 4416 
L 2138 2438 
C 1939 2603 1613 2756 1254 2756 
C 672 2756 211 2131 211 1347 
C 211 562 666 -64 1235 -64 
C 1677 -64 1971 172 2125 306 
L 2125 -13 
L 2611 -13 
L 2611 4416 
z
M 2125 836 
C 2125 747 2125 653 1926 482 
C 1798 375 1645 325 1498 325 
C 1152 325 698 576 698 1340 
C 698 2134 1210 2368 1562 2368 
C 1798 2368 1990 2254 2125 2065 
L 2125 836 
z
" transform="scale(0.015625)"/>
       <path id="CMSS17-45" d="M 1958 433 
C 1446 433 1216 433 1101 433 
L 1101 2107 
L 3085 2107 
L 3085 2496 
L 1101 2496 
L 1101 4009 
L 1926 4009 
C 2003 4009 2080 4009 2157 4009 
L 3251 4009 
L 3251 4416 
L 563 4416 
L 563 0 
L 3334 0 
L 3334 433 
L 1958 433 
z
" transform="scale(0.015625)"/>
       <path id="CMSS17-6f" d="M 2829 1356 
C 2829 2176 2221 2816 1504 2816 
C 768 2816 173 2157 173 1356 
C 173 544 787 -64 1498 -64 
C 2227 -64 2829 563 2829 1356 
z
M 1504 337 
C 1050 337 659 709 659 1408 
C 659 2151 1114 2427 1498 2427 
C 1914 2427 2342 2126 2342 1408 
C 2342 683 1926 337 1504 337 
z
" transform="scale(0.015625)"/>
       <path id="CMSS17-28" d="M 1613 4768 
C 1267 4417 474 3601 474 1588 
C 474 -433 1267 -1243 1613 -1600 
L 2003 -1600 
C 1216 -784 960 357 960 1581 
C 960 2798 1203 3946 2003 4768 
L 1613 4768 
z
" transform="scale(0.015625)"/>
       <path id="CMSS17-29" d="M 723 -1600 
C 1069 -1249 1862 -433 1862 1581 
C 1862 3601 1069 4411 723 4768 
L 333 4768 
C 1120 3952 1376 2811 1376 1588 
C 1376 370 1133 -778 333 -1600 
L 723 -1600 
z
" transform="scale(0.015625)"/>
      </defs>
      <use xlink:href="#CMSS17-4d" transform="scale(0.996264)"/>
      <use xlink:href="#CMSS17-65" transform="translate(81.67603 0) scale(0.996264)"/>
      <use xlink:href="#CMSS17-61" transform="translate(123.314852 0) scale(0.996264)"/>
      <use xlink:href="#CMSS17-6e" transform="translate(168.236773 0) scale(0.996264)"/>
      <use xlink:href="#CMSS17-53" transform="translate(247.670829 0) scale(0.996264)"/>
      <use xlink:href="#CMSS17-71" transform="translate(299.719345 0) scale(0.996264)"/>
      <use xlink:href="#CMSS17-75" transform="translate(347.924288 0) scale(0.996264)"/>
      <use xlink:href="#CMSS17-61" transform="translate(396.129231 0) scale(0.996264)"/>
      <use xlink:href="#CMSS17-72" transform="translate(438.448698 0) scale(0.996264)"/>
      <use xlink:href="#CMSS17-65" transform="translate(470.35847 0) scale(0.996264)"/>
      <use xlink:href="#CMSS17-64" transform="translate(511.997292 0) scale(0.996264)"/>
      <use xlink:href="#CMSS17-45" transform="translate(591.431348 0) scale(0.996264)"/>
      <use xlink:href="#CMSS17-72" transform="translate(647.323361 0) scale(0.996264)"/>
      <use xlink:href="#CMSS17-72" transform="translate(679.233134 0) scale(0.996264)"/>
      <use xlink:href="#CMSS17-6f" transform="translate(711.142906 0) scale(0.996264)"/>
      <use xlink:href="#CMSS17-72" transform="translate(755.384076 0) scale(0.996264)"/>
      <use xlink:href="#CMSS17-28" transform="translate(818.522961 0) scale(0.996264)"/>
      <use xlink:href="#CMSS17-4d" transform="translate(854.956876 0) scale(0.996264)"/>
      <use xlink:href="#CMSS17-53" transform="translate(936.632906 0) scale(0.996264)"/>
      <use xlink:href="#CMSS17-45" transform="translate(988.681422 0) scale(0.996264)"/>
      <use xlink:href="#CMSS17-29" transform="translate(1044.573435 0) scale(0.996264)"/>
     </g>
    </g>
   </g>
   <g id="PolyCollection_1">
    <defs>
     <path id="m1dd94812b8" d="M 126.43654 -190.742227 
L 126.43654 -183.164633 
L 131.897275 -157.202057 
L 137.358011 -154.7176 
L 142.818746 -144.903995 
L 148.279482 -137.077955 
L 153.740218 -145.773554 
L 159.200953 -143.289097 
L 164.661689 -139.562412 
L 170.122424 -130.742589 
L 175.58316 -139.313966 
L 181.043895 -134.841943 
L 186.504631 -135.463058 
L 191.965366 -147.636897 
L 197.426102 -146.518892 
L 202.886837 -139.810858 
L 208.347573 -136.456841 
L 213.808309 -132.978601 
L 219.269044 -130.494144 
L 224.72978 -129.624584 
L 230.190515 -130.866812 
L 235.651251 -132.978601 
L 241.111986 -131.363704 
L 246.572722 -144.407103 
L 252.033457 -139.686635 
L 257.494193 -141.922646 
L 262.954928 -141.053086 
L 268.415664 -133.102824 
L 273.8764 -124.158778 
L 279.337135 -119.065641 
L 284.797871 -117.947636 
L 290.258606 -124.779892 
L 295.719342 -126.270567 
L 301.180077 -150.245577 
L 306.640813 -153.351148 
L 312.101548 -162.667862 
L 317.562284 -153.599594 
L 323.02302 -151.363583 
L 328.483755 -148.506457 
L 333.944491 -146.643114 
L 339.405226 -147.76112 
L 344.865962 -149.251794 
L 350.326697 -152.10892 
L 355.787433 -155.338714 
L 361.248168 -153.102703 
L 366.708904 -150.494023 
L 372.169639 -150.990914 
L 377.630375 -155.959828 
L 383.091111 -152.481589 
L 388.551846 -152.481589 
L 394.012582 -148.133789 
L 399.473317 -434.71591 
L 404.934053 -373.846712 
L 410.394788 -364.529998 
L 415.855524 -337.573639 
L 421.316259 -331.362496 
L 426.776995 -332.85317 
L 432.23773 -324.654462 
L 437.698466 -312.107954 
L 443.159202 -313.474405 
L 448.619937 -314.840857 
L 454.080673 -312.853291 
L 459.541408 -310.120388 
L 465.002144 -326.890473 
L 470.462879 -332.85317 
L 475.923615 -334.59229 
L 481.38435 -342.915221 
L 486.845086 -346.393461 
L 492.305822 -351.486598 
L 497.766557 -344.902787 
L 503.227293 -338.567422 
L 508.688028 -341.176102 
L 514.148764 -314.592411 
L 519.609499 -330.120268 
L 525.070235 -297.57388 
L 530.53097 -283.660921 
L 535.991706 -281.797578 
L 541.452441 -312.232177 
L 546.913177 -336.704079 
L 552.373913 -327.387365 
L 557.834648 -326.393582 
L 563.295384 -323.660679 
L 568.756119 -328.008479 
L 574.216855 -287.139161 
L 579.67759 -292.729189 
L 585.138326 -324.033348 
L 590.599061 -313.722851 
L 596.059797 -320.927777 
L 601.520532 -323.412234 
L 606.981268 -329.747599 
L 612.442004 -323.288011 
L 617.902739 -335.834519 
L 623.363475 -341.300324 
L 628.82421 -343.412113 
L 634.284946 -344.654341 
L 639.745681 -338.443199 
L 645.206417 -346.517684 
L 650.667152 -344.530119 
L 656.127888 -355.46173 
L 661.588623 -361.672872 
L 667.049359 -339.312759 
L 667.049359 -469.746754 
L 667.049359 -469.746754 
L 661.588623 -470.367868 
L 656.127888 -469.9952 
L 650.667152 -472.976548 
L 645.206417 -473.721885 
L 639.745681 -476.454788 
L 634.284946 -480.554142 
L 628.82421 -478.193908 
L 623.363475 -478.815022 
L 617.902739 -465.398954 
L 612.442004 -459.436257 
L 606.981268 -458.442474 
L 601.520532 -457.076023 
L 596.059797 -457.200246 
L 590.599061 -459.684703 
L 585.138326 -460.554263 
L 579.67759 -460.678486 
L 574.216855 -487.88329 
L 568.756119 -485.647279 
L 563.295384 -468.007634 
L 557.834648 -480.802588 
L 552.373913 -464.032503 
L 546.913177 -463.784057 
L 541.452441 -463.411388 
L 535.991706 -461.423823 
L 530.53097 -469.12564 
L 525.070235 -475.461005 
L 519.609499 -476.082119 
L 514.148764 -476.082119 
L 508.688028 -483.535491 
L 503.227293 -483.783936 
L 497.766557 -480.305696 
L 492.305822 -476.206342 
L 486.845086 -475.585228 
L 481.38435 -476.827457 
L 475.923615 -480.802588 
L 470.462879 -483.659713 
L 465.002144 -463.659834 
L 459.541408 -454.094674 
L 454.080673 -441.175498 
L 448.619937 -434.964355 
L 443.159202 -434.467464 
L 437.698466 -433.101012 
L 432.23773 -406.889991 
L 426.776995 -406.889991 
L 421.316259 -408.132219 
L 415.855524 -416.579373 
L 410.394788 -450.740657 
L 404.934053 -491.734199 
L 399.473317 -505.895604 
L 394.012582 -183.661525 
L 388.551846 -185.64909 
L 383.091111 -188.381993 
L 377.630375 -183.04041 
L 372.169639 -185.276422 
L 366.708904 -183.413079 
L 361.248168 -183.288856 
L 355.787433 -183.164633 
L 350.326697 -184.158416 
L 344.865962 -184.158416 
L 339.405226 -184.034193 
L 333.944491 -190.121113 
L 328.483755 -190.121113 
L 323.02302 -185.276422 
L 317.562284 -187.512433 
L 312.101548 -186.642873 
L 306.640813 -186.767096 
L 301.180077 -201.052724 
L 295.719342 -195.338473 
L 290.258606 -191.860233 
L 284.797871 -188.133547 
L 279.337135 -188.878884 
L 273.8764 -188.25777 
L 268.415664 -187.885101 
L 262.954928 -187.885101 
L 257.494193 -187.38821 
L 252.033457 -187.636656 
L 246.572722 -187.512433 
L 241.111986 -187.760879 
L 235.651251 -187.263987 
L 230.190515 -186.021759 
L 224.72978 -186.021759 
L 219.269044 -185.400644 
L 213.808309 -185.276422 
L 208.347573 -185.276422 
L 202.886837 -185.276422 
L 197.426102 -185.773313 
L 191.965366 -186.642873 
L 186.504631 -186.145982 
L 181.043895 -186.145982 
L 175.58316 -186.145982 
L 170.122424 -185.64909 
L 164.661689 -186.270204 
L 159.200953 -186.270204 
L 153.740218 -186.891319 
L 148.279482 -186.891319 
L 142.818746 -187.139764 
L 137.358011 -187.139764 
L 131.897275 -187.263987 
L 126.43654 -190.742227 
z
" style="stroke: #ffffff; stroke-opacity: 0.2"/>
    </defs>
    <g clip-path="url(#pf8e69d65fe)">
     <use xlink:href="#m1dd94812b8" x="0" y="576" style="fill: #4c72b0; fill-opacity: 0.2; stroke: #ffffff; stroke-opacity: 0.2"/>
    </g>
   </g>
   <g id="PolyCollection_2">
    <defs>
     <path id="me5425a2ff5" d="M 126.43654 -197.201815 
L 126.43654 -188.009324 
L 131.897275 -185.276422 
L 137.358011 -182.916187 
L 142.818746 -184.406862 
L 148.279482 -180.059062 
L 153.740218 -177.574605 
L 159.200953 -177.450382 
L 164.661689 -177.326159 
L 170.122424 -176.083931 
L 175.58316 -174.096365 
L 181.043895 -174.096365 
L 186.504631 -174.965925 
L 191.965366 -171.115016 
L 197.426102 -152.605811 
L 202.886837 -159.686514 
L 208.347573 -160.556074 
L 213.808309 -143.289097 
L 219.269044 -141.301532 
L 224.72978 -141.301532 
L 230.190515 -141.053086 
L 235.651251 -140.928863 
L 241.111986 -141.177309 
L 246.572722 -137.823292 
L 252.033457 -133.723938 
L 257.494193 -131.860595 
L 262.954928 -131.115258 
L 268.415664 -128.630801 
L 273.8764 -129.251915 
L 279.337135 -129.624584 
L 284.797871 -126.270567 
L 290.258606 -111.239601 
L 295.719342 -109.624704 
L 301.180077 -109.500482 
L 306.640813 -106.146465 
L 312.101548 -108.879367 
L 317.562284 -109.87315 
L 323.02302 -109.500482 
L 328.483755 -112.48183 
L 333.944491 -116.084293 
L 339.405226 -117.69919 
L 344.865962 -122.171213 
L 350.326697 -121.798544 
L 355.787433 -129.376138 
L 361.248168 -125.152561 
L 366.708904 -122.171213 
L 372.169639 -122.668104 
L 377.630375 -124.158778 
L 383.091111 -126.394789 
L 388.551846 -135.835726 
L 394.012582 -138.071738 
L 399.473317 -431.734561 
L 404.934053 -414.219139 
L 410.394788 -357.573518 
L 415.855524 -353.72261 
L 421.316259 -353.72261 
L 426.776995 -353.598387 
L 432.23773 -351.610821 
L 437.698466 -335.586073 
L 443.159202 -321.797337 
L 448.619937 -304.406137 
L 454.080673 -309.74772 
L 459.541408 -271.983973 
L 465.002144 -271.735527 
L 470.462879 -271.362858 
L 475.923615 -266.393944 
L 481.38435 -266.021276 
L 486.845086 -267.387727 
L 492.305822 -263.909487 
L 497.766557 -251.984093 
L 503.227293 -253.474768 
L 508.688028 -255.213888 
L 514.148764 -258.071013 
L 519.609499 -257.449899 
L 525.070235 -254.46855 
L 530.53097 -252.977876 
L 535.991706 -254.965442 
L 541.452441 -250.617642 
L 546.913177 -250.866088 
L 552.373913 -239.934477 
L 557.834648 -199.934718 
L 563.295384 -202.419175 
L 568.756119 -193.226684 
L 574.216855 -203.909849 
L 579.67759 -212.108558 
L 585.138326 -212.729672 
L 590.599061 -214.593015 
L 596.059797 -215.959466 
L 601.520532 -218.940815 
L 606.981268 -219.065037 
L 612.442004 -233.97178 
L 617.902739 -235.214008 
L 623.363475 -215.71102 
L 628.82421 -213.723455 
L 634.284946 -200.555832 
L 639.745681 -195.338473 
L 645.206417 -173.723696 
L 650.667152 -175.711262 
L 656.127888 -182.295073 
L 661.588623 -183.90997 
L 667.049359 -187.760879 
L 667.049359 -344.778564 
L 667.049359 -344.778564 
L 661.588623 -345.275456 
L 656.127888 -359.064192 
L 650.667152 -395.461488 
L 645.206417 -388.256563 
L 639.745681 -375.461609 
L 634.284946 -346.020793 
L 628.82421 -337.946307 
L 623.363475 -339.064313 
L 617.902739 -337.946307 
L 612.442004 -337.449416 
L 606.981268 -336.33141 
L 601.520532 -337.573639 
L 596.059797 -344.281673 
L 590.599061 -341.54877 
L 585.138326 -348.132581 
L 579.67759 -344.654341 
L 574.216855 -347.387244 
L 568.756119 -362.293986 
L 563.295384 -352.604604 
L 557.834648 -354.59217 
L 552.373913 -355.46173 
L 546.913177 -356.828181 
L 541.452441 -356.828181 
L 535.991706 -359.685307 
L 530.53097 -358.691524 
L 525.070235 -353.225718 
L 519.609499 -353.101495 
L 514.148764 -329.996045 
L 508.688028 -325.896691 
L 503.227293 -379.312517 
L 497.766557 -378.442957 
L 492.305822 -393.225477 
L 486.845086 -393.722368 
L 481.38435 -396.579494 
L 475.923615 -410.865122 
L 470.462879 -420.430281 
L 465.002144 -422.293624 
L 459.541408 -425.399196 
L 454.080673 -438.318372 
L 448.619937 -439.684824 
L 443.159202 -446.268635 
L 437.698466 -446.268635 
L 432.23773 -453.47356 
L 426.776995 -460.926931 
L 421.316259 -469.9952 
L 415.855524 -467.013851 
L 410.394788 -466.889628 
L 404.934053 -474.218777 
L 399.473317 -498.193787 
L 394.012582 -184.034193 
L 388.551846 -184.034193 
L 383.091111 -183.785747 
L 377.630375 -182.667742 
L 372.169639 -182.667742 
L 366.708904 -181.798182 
L 361.248168 -179.56217 
L 355.787433 -179.810616 
L 350.326697 -180.059062 
L 344.865962 -180.059062 
L 339.405226 -181.922405 
L 333.944491 -183.785747 
L 328.483755 -184.034193 
L 323.02302 -183.90997 
L 317.562284 -184.406862 
L 312.101548 -184.406862 
L 306.640813 -184.406862 
L 301.180077 -184.406862 
L 295.719342 -184.406862 
L 290.258606 -184.406862 
L 284.797871 -184.406862 
L 279.337135 -184.406862 
L 273.8764 -187.760879 
L 268.415664 -185.276422 
L 262.954928 -185.400644 
L 257.494193 -185.027976 
L 252.033457 -185.027976 
L 246.572722 -185.027976 
L 241.111986 -184.282639 
L 235.651251 -184.655307 
L 230.190515 -184.655307 
L 224.72978 -184.655307 
L 219.269044 -184.655307 
L 213.808309 -184.655307 
L 208.347573 -184.655307 
L 202.886837 -184.531084 
L 197.426102 -184.531084 
L 191.965366 -184.531084 
L 186.504631 -196.829147 
L 181.043895 -184.903753 
L 175.58316 -185.152199 
L 170.122424 -185.400644 
L 164.661689 -184.531084 
L 159.200953 -185.276422 
L 153.740218 -187.512433 
L 148.279482 -187.512433 
L 142.818746 -186.145982 
L 137.358011 -186.394427 
L 131.897275 -189.003107 
L 126.43654 -197.201815 
z
" style="stroke: #ffffff; stroke-opacity: 0.2"/>
    </defs>
    <g clip-path="url(#pf8e69d65fe)">
     <use xlink:href="#me5425a2ff5" x="0" y="576" style="fill: #dd8452; fill-opacity: 0.2; stroke: #ffffff; stroke-opacity: 0.2"/>
    </g>
   </g>
   <g id="PolyCollection_3">
    <defs>
     <path id="m8223fe0ba0" d="M 126.43654 -195.586918 
L 126.43654 -178.444165 
L 131.897275 -183.413079 
L 137.358011 -161.301411 
L 142.818746 -159.810737 
L 148.279482 -154.841823 
L 153.740218 -154.7176 
L 159.200953 -154.7176 
L 164.661689 -154.344931 
L 170.122424 -154.344931 
L 175.58316 -154.7176 
L 181.043895 -150.121354 
L 186.504631 -144.407103 
L 191.965366 -141.177309 
L 197.426102 -140.80464 
L 202.886837 -139.562412 
L 208.347573 -139.313966 
L 213.808309 -138.320183 
L 219.269044 -138.568629 
L 224.72978 -137.326401 
L 230.190515 -130.742589 
L 235.651251 -138.444406 
L 241.111986 -116.581184 
L 246.572722 -109.87315 
L 252.033457 -109.500482 
L 257.494193 -108.755144 
L 262.954928 -106.891802 
L 268.415664 -101.17755 
L 273.8764 -100.929105 
L 279.337135 -100.929105 
L 284.797871 -101.053328 
L 290.258606 -103.78623 
L 295.719342 -100.432213 
L 301.180077 -100.680659 
L 306.640813 -102.171333 
L 312.101548 -103.040893 
L 317.562284 -106.39491 
L 323.02302 -106.519133 
L 328.483755 -107.26447 
L 333.944491 -106.519133 
L 339.405226 -106.767579 
L 344.865962 -107.512916 
L 350.326697 -107.512916 
L 355.787433 -117.947636 
L 361.248168 -109.00359 
L 366.708904 -109.500482 
L 372.169639 -106.022242 
L 377.630375 -106.643356 
L 383.091111 -107.512916 
L 388.551846 -107.512916 
L 394.012582 -107.512916 
L 399.473317 -436.455029 
L 404.934053 -426.392978 
L 410.394788 -420.554504 
L 415.855524 -408.753333 
L 421.316259 -404.032865 
L 426.776995 -389.374568 
L 432.23773 -386.144774 
L 437.698466 -383.536094 
L 443.159202 -387.014334 
L 448.619937 -370.865363 
L 454.080673 -371.238032 
L 459.541408 -371.734923 
L 465.002144 -363.287769 
L 470.462879 -320.058217 
L 475.923615 -312.3564 
L 481.38435 -308.505491 
L 486.845086 -296.331652 
L 492.305822 -287.139161 
L 497.766557 -293.350303 
L 503.227293 -297.822326 
L 508.688028 -292.232298 
L 514.148764 -289.375172 
L 519.609499 -281.549132 
L 525.070235 -276.580218 
L 530.53097 -274.841098 
L 535.991706 -273.226201 
L 541.452441 -276.331773 
L 546.913177 -274.095761 
L 552.373913 -274.841098 
L 557.834648 -273.474647 
L 563.295384 -276.455995 
L 568.756119 -277.325555 
L 574.216855 -273.847315 
L 579.67759 -274.46843 
L 585.138326 -271.487081 
L 590.599061 -255.835002 
L 596.059797 -252.729431 
L 601.520532 -243.288494 
L 606.981268 -225.648849 
L 612.442004 -225.773072 
L 617.902739 -225.773072 
L 623.363475 -226.394186 
L 628.82421 -242.170488 
L 634.284946 -256.20767 
L 639.745681 -257.201453 
L 645.206417 -256.456116 
L 650.667152 -250.244973 
L 656.127888 -249.499636 
L 661.588623 -249.872305 
L 667.049359 -251.114533 
L 667.049359 -397.324831 
L 667.049359 -397.324831 
L 661.588623 -396.952162 
L 656.127888 -396.952162 
L 650.667152 -396.952162 
L 645.206417 -396.455271 
L 639.745681 -396.455271 
L 634.284946 -397.573277 
L 628.82421 -397.324831 
L 623.363475 -412.355796 
L 617.902739 -400.306179 
L 612.442004 -401.175739 
L 606.981268 -400.430402 
L 601.520532 -400.554625 
L 596.059797 -400.430402 
L 590.599061 -410.616676 
L 585.138326 -398.691282 
L 579.67759 -401.299962 
L 574.216855 -405.771985 
L 568.756119 -405.771985 
L 563.295384 -402.666414 
L 557.834648 -399.933511 
L 552.373913 -395.95838 
L 546.913177 -395.461488 
L 541.452441 -395.213042 
L 535.991706 -394.716151 
L 530.53097 -394.716151 
L 525.070235 -394.716151 
L 519.609499 -394.716151 
L 514.148764 -394.716151 
L 508.688028 -416.703596 
L 503.227293 -426.144533 
L 497.766557 -436.455029 
L 492.305822 -436.455029 
L 486.845086 -438.566818 
L 481.38435 -438.069927 
L 475.923615 -447.013972 
L 470.462879 -447.510863 
L 465.002144 -471.73432 
L 459.541408 -471.73432 
L 454.080673 -471.73432 
L 448.619937 -471.610097 
L 443.159202 -471.610097 
L 437.698466 -471.73432 
L 432.23773 -471.73432 
L 426.776995 -471.858542 
L 421.316259 -472.106988 
L 415.855524 -472.106988 
L 410.394788 -472.60388 
L 404.934053 -477.075902 
L 399.473317 -479.187691 
L 394.012582 -175.959708 
L 388.551846 -175.959708 
L 383.091111 -176.083931 
L 377.630375 -175.835485 
L 372.169639 -174.965925 
L 366.708904 -173.972142 
L 361.248168 -175.462816 
L 355.787433 -175.587039 
L 350.326697 -175.090148 
L 344.865962 -175.090148 
L 339.405226 -174.965925 
L 333.944491 -175.090148 
L 328.483755 -175.090148 
L 323.02302 -175.090148 
L 317.562284 -175.587039 
L 312.101548 -175.462816 
L 306.640813 -177.201936 
L 301.180077 -175.587039 
L 295.719342 -175.587039 
L 290.258606 -175.711262 
L 284.797871 -174.717479 
L 279.337135 -179.189502 
L 273.8764 -175.214371 
L 268.415664 -175.338593 
L 262.954928 -175.338593 
L 257.494193 -175.338593 
L 252.033457 -177.201936 
L 246.572722 -177.201936 
L 241.111986 -177.201936 
L 235.651251 -177.201936 
L 230.190515 -177.698828 
L 224.72978 -177.82305 
L 219.269044 -177.82305 
L 213.808309 -177.82305 
L 208.347573 -177.82305 
L 202.886837 -177.82305 
L 197.426102 -179.065279 
L 191.965366 -182.916187 
L 186.504631 -183.164633 
L 181.043895 -185.64909 
L 175.58316 -187.885101 
L 170.122424 -189.748444 
L 164.661689 -191.487564 
L 159.200953 -191.611787 
L 153.740218 -191.487564 
L 148.279482 -190.618004 
L 142.818746 -189.12733 
L 137.358011 -188.878884 
L 131.897275 -190.245336 
L 126.43654 -195.586918 
z
" style="stroke: #ffffff; stroke-opacity: 0.2"/>
    </defs>
    <g clip-path="url(#pf8e69d65fe)">
     <use xlink:href="#m8223fe0ba0" x="0" y="576" style="fill: #55a868; fill-opacity: 0.2; stroke: #ffffff; stroke-opacity: 0.2"/>
    </g>
   </g>
   <g id="line2d_14">
    <path d="M 126.43654 387.121116 
L 131.897275 389.357127 
L 137.358011 390.475133 
L 142.818746 390.599356 
L 148.279482 390.723578 
L 153.740218 391.593138 
L 159.200953 391.593138 
L 164.661689 392.214253 
L 170.122424 391.965807 
L 175.58316 391.965807 
L 181.043895 392.95959 
L 186.504631 408.735892 
L 191.965366 403.145864 
L 197.426102 398.301172 
L 202.886837 400.661407 
L 208.347573 402.648972 
L 213.808309 409.853898 
L 219.269044 410.102343 
L 224.72978 414.574366 
L 230.190515 420.288617 
L 235.651251 425.009086 
L 241.111986 397.804281 
L 246.572722 400.909852 
L 252.033457 407.990555 
L 257.494193 408.984338 
L 262.954928 405.009206 
L 268.415664 404.139646 
L 273.8764 395.319824 
L 279.337135 397.680058 
L 284.797871 392.09003 
L 290.258606 391.468916 
L 295.719342 391.096247 
L 301.180077 391.344693 
L 306.640813 391.965807 
L 312.101548 393.580704 
L 317.562284 395.56827 
L 323.02302 394.574487 
L 328.483755 395.816715 
L 333.944491 395.940938 
L 339.405226 396.934721 
L 344.865962 400.909852 
L 350.326697 401.655189 
L 355.787433 394.822933 
L 361.248168 406.002989 
L 366.708904 404.636538 
L 372.169639 402.773195 
L 377.630375 399.543401 
L 383.091111 391.841584 
L 388.551846 393.82915 
L 394.012582 396.562052 
L 399.473317 102.899229 
L 404.934053 123.768668 
L 410.394788 140.911422 
L 415.855524 164.886432 
L 421.316259 183.022969 
L 426.776995 219.171819 
L 432.23773 219.917156 
L 437.698466 230.476099 
L 443.159202 227.246304 
L 448.619937 223.643842 
L 454.080673 223.768065 
L 459.541408 215.817802 
L 465.002144 190.227894 
L 470.462879 222.898505 
L 475.923615 213.457568 
L 481.38435 216.190471 
L 486.845086 209.233991 
L 492.305822 218.302259 
L 497.766557 222.401613 
L 503.227293 222.525836 
L 508.688028 221.532053 
L 514.148764 201.407951 
L 519.609499 188.488774 
L 525.070235 180.662735 
L 530.53097 174.948484 
L 535.991706 167.992004 
L 541.452441 192.588129 
L 546.913177 194.699917 
L 552.373913 191.594346 
L 557.834648 190.724786 
L 563.295384 169.979569 
L 568.756119 170.724907 
L 574.216855 168.985787 
L 579.67759 169.234232 
L 585.138326 174.948484 
L 590.599061 190.352117 
L 596.059797 195.569477 
L 601.520532 198.053934 
L 606.981268 198.178157 
L 612.442004 175.445375 
L 617.902739 175.818044 
L 623.363475 229.979207 
L 628.82421 220.53827 
L 634.284946 215.320911 
L 639.745681 228.36431 
L 645.206417 207.494871 
L 650.667152 175.818044 
L 656.127888 190.227894 
L 661.588623 195.569477 
L 667.049359 195.072586 
" clip-path="url(#pf8e69d65fe)" style="fill: none; stroke: #4c72b0; stroke-width: 1.5; stroke-linecap: round"/>
   </g>
   <g id="line2d_15">
    <path d="M 126.43654 386.624224 
L 131.897275 389.605573 
L 137.358011 390.102464 
L 142.818746 390.226687 
L 148.279482 391.22047 
L 153.740218 391.468916 
L 159.200953 392.338475 
L 164.661689 393.580704 
L 170.122424 393.580704 
L 175.58316 393.332258 
L 181.043895 392.586921 
L 186.504631 392.711144 
L 191.965366 399.667624 
L 197.426102 399.791847 
L 202.886837 399.667624 
L 208.347573 399.667624 
L 213.808309 399.667624 
L 219.269044 399.294955 
L 224.72978 399.791847 
L 230.190515 400.288738 
L 235.651251 400.412961 
L 241.111986 396.43783 
L 246.572722 397.680058 
L 252.033457 399.419178 
L 257.494193 398.922287 
L 262.954928 401.406744 
L 268.415664 400.164515 
L 273.8764 399.04651 
L 279.337135 397.928504 
L 284.797871 398.425395 
L 290.258606 398.922287 
L 295.719342 399.294955 
L 301.180077 400.288738 
L 306.640813 400.288738 
L 312.101548 403.518532 
L 317.562284 402.400527 
L 323.02302 403.518532 
L 328.483755 403.021641 
L 333.944491 402.276304 
L 339.405226 402.276304 
L 344.865962 402.276304 
L 350.326697 402.773195 
L 355.787433 401.034075 
L 361.248168 400.909852 
L 366.708904 400.909852 
L 372.169639 401.406744 
L 377.630375 401.406744 
L 383.091111 401.406744 
L 388.551846 401.655189 
L 394.012582 401.655189 
L 399.473317 94.327852 
L 404.934053 125.010897 
L 410.394788 157.929953 
L 415.855524 145.010776 
L 421.316259 151.967256 
L 426.776995 175.569598 
L 432.23773 202.153288 
L 437.698466 207.370648 
L 443.159202 205.383082 
L 448.619937 203.768185 
L 454.080673 202.898625 
L 459.541408 207.370648 
L 465.002144 222.27739 
L 470.462879 244.513281 
L 475.923615 248.985304 
L 481.38435 249.730641 
L 486.845086 255.569115 
L 492.305822 270.724303 
L 497.766557 263.767823 
L 503.227293 261.90448 
L 508.688028 256.811343 
L 514.148764 266.003834 
L 519.609499 277.059668 
L 525.070235 279.047234 
L 530.53097 289.233508 
L 535.991706 288.736616 
L 541.452441 293.829753 
L 546.913177 296.189988 
L 552.373913 299.419782 
L 557.834648 302.276907 
L 563.295384 294.450868 
L 568.756119 250.724424 
L 574.216855 263.767823 
L 579.67759 260.662252 
L 585.138326 267.12184 
L 590.599061 290.351514 
L 596.059797 288.736616 
L 601.520532 291.966411 
L 606.981268 290.351514 
L 612.442004 278.301897 
L 617.902739 278.177674 
L 623.363475 264.264715 
L 628.82421 258.798909 
L 634.284946 259.916915 
L 639.745681 262.152926 
L 645.206417 251.097092 
L 650.667152 231.221436 
L 656.127888 231.221436 
L 661.588623 232.339441 
L 667.049359 255.320669 
" clip-path="url(#pf8e69d65fe)" style="fill: none; stroke: #dd8452; stroke-width: 1.5; stroke-linecap: round"/>
   </g>
   <g id="line2d_16">
    <path d="M 126.43654 386.748447 
L 131.897275 389.605573 
L 137.358011 389.729796 
L 142.818746 391.841584 
L 148.279482 393.82915 
L 153.740218 392.09003 
L 159.200953 395.692493 
L 164.661689 397.30739 
L 170.122424 400.164515 
L 175.58316 399.294955 
L 181.043895 399.543401 
L 186.504631 399.543401 
L 191.965366 402.027858 
L 197.426102 402.027858 
L 202.886837 407.493663 
L 208.347573 407.617886 
L 213.808309 407.617886 
L 219.269044 414.201698 
L 224.72978 427.866211 
L 230.190515 427.866211 
L 235.651251 426.872428 
L 241.111986 424.512194 
L 246.572722 423.518411 
L 252.033457 423.145743 
L 257.494193 423.02152 
L 262.954928 423.394189 
L 268.415664 430.350668 
L 273.8764 430.474891 
L 279.337135 431.220228 
L 284.797871 430.599114 
L 290.258606 431.220228 
L 295.719342 431.344451 
L 301.180077 433.207794 
L 306.640813 433.207794 
L 312.101548 433.083571 
L 317.562284 432.959348 
L 323.02302 433.083571 
L 328.483755 433.083571 
L 333.944491 434.822691 
L 339.405226 436.06492 
L 344.865962 437.058702 
L 350.326697 431.592897 
L 355.787433 431.592897 
L 361.248168 428.735771 
L 366.708904 427.493543 
L 372.169639 427.741988 
L 377.630375 427.617766 
L 383.091111 427.617766 
L 388.551846 427.617766 
L 394.012582 428.984217 
L 399.473317 109.979932 
L 404.934053 110.228377 
L 410.394788 110.228377 
L 415.855524 110.104155 
L 421.316259 110.3526 
L 426.776995 111.719052 
L 432.23773 112.464389 
L 437.698466 112.464389 
L 443.159202 118.302863 
L 448.619937 130.725148 
L 454.080673 144.265439 
L 459.541408 145.383445 
L 465.002144 145.383445 
L 470.462879 147.495233 
L 475.923615 178.054055 
L 481.38435 181.78074 
L 486.845086 181.283849 
L 492.305822 181.283849 
L 497.766557 181.159626 
L 503.227293 198.178157 
L 508.688028 189.234112 
L 514.148764 204.513522 
L 519.609499 205.383082 
L 525.070235 206.625311 
L 530.53097 206.749534 
L 535.991706 206.873757 
L 541.452441 206.749534 
L 546.913177 212.588008 
L 552.373913 213.084899 
L 557.834648 214.078682 
L 563.295384 220.289825 
L 568.756119 220.662493 
L 574.216855 222.401613 
L 579.67759 220.910939 
L 585.138326 223.519619 
L 590.599061 196.935928 
L 596.059797 208.240208 
L 601.520532 222.153168 
L 606.981268 222.153168 
L 612.442004 239.047475 
L 617.902739 237.556801 
L 623.363475 222.028945 
L 628.82421 224.761847 
L 634.284946 224.389179 
L 639.745681 224.637625 
L 645.206417 224.140733 
L 650.667152 226.62519 
L 656.127888 234.078561 
L 661.588623 237.308356 
L 667.049359 241.780378 
" clip-path="url(#pf8e69d65fe)" style="fill: none; stroke: #55a868; stroke-width: 1.5; stroke-linecap: round"/>
   </g>
   <g id="patch_3">
    <path d="M 99.405899 495.840956 
L 99.405899 49.831226 
" style="fill: none; stroke: #cccccc; stroke-width: 1.25; stroke-linejoin: miter; stroke-linecap: square"/>
   </g>
   <g id="patch_4">
    <path d="M 694.08 495.840956 
L 694.08 49.831226 
" style="fill: none; stroke: #cccccc; stroke-width: 1.25; stroke-linejoin: miter; stroke-linecap: square"/>
   </g>
   <g id="patch_5">
    <path d="M 99.405899 495.840956 
L 694.08 495.840956 
" style="fill: none; stroke: #cccccc; stroke-width: 1.25; stroke-linejoin: miter; stroke-linecap: square"/>
   </g>
   <g id="patch_6">
    <path d="M 99.405899 49.831226 
L 694.08 49.831226 
" style="fill: none; stroke: #cccccc; stroke-width: 1.25; stroke-linejoin: miter; stroke-linecap: square"/>
   </g>
   <g id="text_16">
    <!-- Mean Squared Error (MSE) vs Step -->
    <g style="fill: #262626" transform="translate(228.970652 43.831226) scale(0.24 -0.24)">
     <defs>
      <path id="CMSS17-76" d="M 2675 2752 
L 2176 2752 
L 1747 1556 
C 1613 1165 1421 627 1389 352 
L 1382 352 
C 1370 468 1318 634 1286 749 
C 1248 890 1197 1056 1158 1172 
L 595 2752 
L 83 2752 
L 1094 0 
L 1664 0 
L 2675 2752 
z
" transform="scale(0.015625)"/>
      <path id="CMSS17-73" d="M 2061 2627 
C 1683 2807 1389 2807 1197 2807 
C 742 2807 198 2648 198 2003 
C 198 1359 902 1218 1094 1179 
C 1389 1122 1715 1058 1715 740 
C 1715 337 1254 337 1171 337 
C 915 337 563 407 243 638 
L 166 210 
C 531 0 883 -64 1178 -64 
C 1965 -64 2163 416 2163 781 
C 2163 1094 1984 1305 1862 1401 
C 1651 1568 1574 1587 1050 1696 
C 960 1709 646 1779 646 2066 
C 646 2432 1050 2432 1139 2432 
C 1555 2432 1811 2303 1984 2208 
L 2061 2627 
z
" transform="scale(0.015625)"/>
     </defs>
     <use xlink:href="#CMSS17-4d" transform="scale(0.996264)"/>
     <use xlink:href="#CMSS17-65" transform="translate(81.67603 0) scale(0.996264)"/>
     <use xlink:href="#CMSS17-61" transform="translate(123.314852 0) scale(0.996264)"/>
     <use xlink:href="#CMSS17-6e" transform="translate(168.236773 0) scale(0.996264)"/>
     <use xlink:href="#CMSS17-53" transform="translate(247.670829 0) scale(0.996264)"/>
     <use xlink:href="#CMSS17-71" transform="translate(299.719345 0) scale(0.996264)"/>
     <use xlink:href="#CMSS17-75" transform="translate(347.924288 0) scale(0.996264)"/>
     <use xlink:href="#CMSS17-61" transform="translate(396.129231 0) scale(0.996264)"/>
     <use xlink:href="#CMSS17-72" transform="translate(438.448698 0) scale(0.996264)"/>
     <use xlink:href="#CMSS17-65" transform="translate(470.35847 0) scale(0.996264)"/>
     <use xlink:href="#CMSS17-64" transform="translate(511.997292 0) scale(0.996264)"/>
     <use xlink:href="#CMSS17-45" transform="translate(591.431348 0) scale(0.996264)"/>
     <use xlink:href="#CMSS17-72" transform="translate(647.323361 0) scale(0.996264)"/>
     <use xlink:href="#CMSS17-72" transform="translate(679.233134 0) scale(0.996264)"/>
     <use xlink:href="#CMSS17-6f" transform="translate(711.142906 0) scale(0.996264)"/>
     <use xlink:href="#CMSS17-72" transform="translate(755.384076 0) scale(0.996264)"/>
     <use xlink:href="#CMSS17-28" transform="translate(818.522961 0) scale(0.996264)"/>
     <use xlink:href="#CMSS17-4d" transform="translate(854.956876 0) scale(0.996264)"/>
     <use xlink:href="#CMSS17-53" transform="translate(936.632906 0) scale(0.996264)"/>
     <use xlink:href="#CMSS17-45" transform="translate(988.681422 0) scale(0.996264)"/>
     <use xlink:href="#CMSS17-29" transform="translate(1044.573435 0) scale(0.996264)"/>
     <use xlink:href="#CMSS17-76" transform="translate(1112.236462 0) scale(0.996264)"/>
     <use xlink:href="#CMSS17-73" transform="translate(1155.236604 0) scale(0.996264)"/>
     <use xlink:href="#CMSS17-53" transform="translate(1222.379258 0) scale(0.996264)"/>
     <use xlink:href="#CMSS17-74" transform="translate(1274.427775 0) scale(0.996264)"/>
     <use xlink:href="#CMSS17-65" transform="translate(1308.259341 0) scale(0.996264)"/>
     <use xlink:href="#CMSS17-70" transform="translate(1349.898163 0) scale(0.996264)"/>
    </g>
   </g>
   <g id="legend_1">
    <g id="patch_7">
     <path d="M 114.805899 191.675953 
L 285.459139 191.675953 
Q 289.859139 191.675953 289.859139 187.275953 
L 289.859139 65.231226 
Q 289.859139 60.831226 285.459139 60.831226 
L 114.805899 60.831226 
Q 110.405899 60.831226 110.405899 65.231226 
L 110.405899 187.275953 
Q 110.405899 191.675953 114.805899 191.675953 
z
" style="fill: #ffffff; opacity: 0.8; stroke: #cccccc; stroke-linejoin: miter"/>
    </g>
    <g id="text_17">
     <!-- Confidence decay -->
     <g style="fill: #262626" transform="translate(119.205899 86.235632) scale(0.24 -0.24)">
      <defs>
       <path id="CMSS17-43" d="M 3501 714 
C 3072 427 2874 344 2355 344 
C 1459 344 934 1303 934 2179 
C 934 3112 1472 4032 2381 4032 
C 2790 4032 3059 3918 3386 3715 
L 3475 4217 
C 3168 4370 2778 4440 2387 4440 
C 1158 4440 397 3316 397 2179 
C 397 927 1299 -64 2323 -64 
C 2874 -64 3066 -19 3539 280 
L 3501 714 
z
" transform="scale(0.015625)"/>
       <path id="CMSS17-c" d="M 2752 4416 
L 2240 4416 
L 2240 3906 
L 2752 3906 
L 2752 4416 
z
M 2733 2737 
L 2259 2737 
L 2259 0 
L 2733 0 
L 2733 2737 
z
M 1075 2368 
L 1773 2368 
L 1773 2737 
L 1062 2737 
L 1062 3578 
C 1062 3919 1216 4092 1421 4092 
C 1542 4092 1664 4056 1773 3992 
L 1773 4410 
C 1722 4428 1574 4480 1421 4480 
C 941 4480 602 3993 602 3372 
L 602 2737 
L 160 2737 
L 160 2368 
L 602 2368 
L 602 0 
L 1075 0 
L 1075 2368 
z
" transform="scale(0.015625)"/>
       <path id="CMSS17-63" d="M 2464 2541 
C 2464 2585 2170 2714 2093 2739 
C 1882 2816 1613 2816 1542 2816 
C 710 2816 211 2093 211 1363 
C 211 595 768 -64 1517 -64 
C 1946 -64 2253 76 2502 242 
L 2464 664 
C 2189 453 1869 337 1523 337 
C 1024 337 698 774 698 1369 
C 698 1831 909 2414 1549 2414 
C 1901 2414 2099 2343 2394 2145 
L 2464 2541 
z
" transform="scale(0.015625)"/>
       <path id="CMSS17-79" d="M 2675 2752 
L 2176 2752 
C 1632 1294 1446 702 1434 383 
L 1427 383 
C 1408 696 1126 1460 902 2007 
L 602 2752 
L 83 2752 
L 1216 13 
C 1146 -178 1043 -465 1011 -529 
C 870 -885 774 -885 672 -885 
C 646 -885 442 -885 211 -809 
L 250 -1229 
C 410 -1261 570 -1280 685 -1280 
C 845 -1280 1165 -1280 1459 -497 
L 2675 2752 
z
" transform="scale(0.015625)"/>
      </defs>
      <use xlink:href="#CMSS17-43" transform="scale(0.996264)"/>
      <use xlink:href="#CMSS17-6f" transform="translate(59.855772 0) scale(0.996264)"/>
      <use xlink:href="#CMSS17-6e" transform="translate(106.699395 0) scale(0.996264)"/>
      <use xlink:href="#CMSS17-c" transform="translate(154.904338 0) scale(0.996264)"/>
      <use xlink:href="#CMSS17-64" transform="translate(205.031075 0) scale(0.996264)"/>
      <use xlink:href="#CMSS17-65" transform="translate(253.236019 0) scale(0.996264)"/>
      <use xlink:href="#CMSS17-6e" transform="translate(294.874841 0) scale(0.996264)"/>
      <use xlink:href="#CMSS17-63" transform="translate(343.079784 0) scale(0.996264)"/>
      <use xlink:href="#CMSS17-65" transform="translate(384.718606 0) scale(0.996264)"/>
      <use xlink:href="#CMSS17-64" transform="translate(457.586541 0) scale(0.996264)"/>
      <use xlink:href="#CMSS17-65" transform="translate(505.791484 0) scale(0.996264)"/>
      <use xlink:href="#CMSS17-63" transform="translate(547.430306 0) scale(0.996264)"/>
      <use xlink:href="#CMSS17-61" transform="translate(589.069128 0) scale(0.996264)"/>
      <use xlink:href="#CMSS17-79" transform="translate(631.388595 0) scale(0.996264)"/>
     </g>
    </g>
    <g id="line2d_17">
     <path d="M 145.858671 109.586389 
L 167.858671 109.586389 
L 189.858671 109.586389 
" style="fill: none; stroke: #4c72b0; stroke-width: 1.5; stroke-linecap: round"/>
    </g>
    <g id="text_18">
     <!-- 0.01 -->
     <g style="fill: #262626" transform="translate(207.458671 117.286389) scale(0.22 -0.22)">
      <defs>
       <path id="CMSS17-30" d="M 2758 2044 
C 2758 2405 2752 3077 2490 3596 
C 2227 4096 1805 4229 1504 4229 
C 1069 4229 698 3975 506 3570 
C 301 3146 243 2709 243 2044 
C 243 1589 262 1031 493 543 
C 755 5 1197 -128 1498 -128 
C 1894 -128 2278 81 2496 518 
C 2720 974 2758 1474 2758 2044 
z
M 1498 261 
C 1011 261 864 811 819 995 
C 742 1310 730 1614 730 2114 
C 730 2506 730 2948 851 3297 
C 998 3701 1254 3840 1498 3840 
C 1971 3840 2125 3372 2176 3208 
C 2272 2873 2272 2481 2272 2114 
C 2272 1526 2272 261 1498 261 
z
" transform="scale(0.015625)"/>
       <path id="CMSS17-2e" d="M 1088 510 
L 576 510 
L 576 0 
L 1088 0 
L 1088 510 
z
" transform="scale(0.015625)"/>
       <path id="CMSS17-31" d="M 1818 4288 
L 1696 4288 
C 1350 3940 947 3890 538 3890 
L 538 3520 
C 723 3520 1024 3520 1325 3667 
L 1325 369 
L 570 369 
L 570 0 
L 2573 0 
L 2573 369 
L 1818 369 
L 1818 4288 
z
" transform="scale(0.015625)"/>
      </defs>
      <use xlink:href="#CMSS17-30" transform="scale(0.996264)"/>
      <use xlink:href="#CMSS17-2e" transform="translate(46.843624 0) scale(0.996264)"/>
      <use xlink:href="#CMSS17-30" transform="translate(72.867828 0) scale(0.996264)"/>
      <use xlink:href="#CMSS17-31" transform="translate(119.711452 0) scale(0.996264)"/>
     </g>
    </g>
    <g id="line2d_18">
     <path d="M 145.858671 140.249577 
L 167.858671 140.249577 
L 189.858671 140.249577 
" style="fill: none; stroke: #dd8452; stroke-width: 1.5; stroke-linecap: round"/>
    </g>
    <g id="text_19">
     <!-- 0.004 -->
     <g style="fill: #262626" transform="translate(207.458671 147.949577) scale(0.22 -0.22)">
      <defs>
       <path id="CMSS17-34" d="M 2253 1088 
L 2835 1088 
L 2835 1477 
L 2253 1477 
L 2253 4192 
L 1690 4192 
L 166 1477 
L 166 1088 
L 1747 1088 
L 1747 0 
L 2253 0 
L 2253 1088 
z
M 659 1477 
C 1030 2127 1766 3439 1766 3885 
L 1766 1477 
L 659 1477 
z
" transform="scale(0.015625)"/>
      </defs>
      <use xlink:href="#CMSS17-30" transform="scale(0.996264)"/>
      <use xlink:href="#CMSS17-2e" transform="translate(46.843624 0) scale(0.996264)"/>
      <use xlink:href="#CMSS17-30" transform="translate(72.867828 0) scale(0.996264)"/>
      <use xlink:href="#CMSS17-30" transform="translate(119.711452 0) scale(0.996264)"/>
      <use xlink:href="#CMSS17-34" transform="translate(166.555075 0) scale(0.996264)"/>
     </g>
    </g>
    <g id="line2d_19">
     <path d="M 145.858671 170.912765 
L 167.858671 170.912765 
L 189.858671 170.912765 
" style="fill: none; stroke: #55a868; stroke-width: 1.5; stroke-linecap: round"/>
    </g>
    <g id="text_20">
     <!-- 0.002 -->
     <g style="fill: #262626" transform="translate(207.458671 178.612765) scale(0.22 -0.22)">
      <defs>
       <path id="CMSS17-32" d="M 1651 1357 
C 1830 1541 2099 1764 2285 1987 
C 2464 2204 2701 2511 2701 2957 
C 2701 3657 2227 4288 1421 4288 
C 787 4288 422 3893 250 3274 
L 499 2929 
C 640 3510 838 3880 1338 3880 
C 1888 3880 2195 3433 2195 2942 
C 2195 2355 1747 1901 1408 1563 
C 1030 1187 659 804 301 408 
L 301 0 
L 2701 0 
L 2701 433 
L 1613 433 
C 1536 433 1459 433 1382 433 
L 742 433 
L 742 439 
L 1651 1357 
z
" transform="scale(0.015625)"/>
      </defs>
      <use xlink:href="#CMSS17-30" transform="scale(0.996264)"/>
      <use xlink:href="#CMSS17-2e" transform="translate(46.843624 0) scale(0.996264)"/>
      <use xlink:href="#CMSS17-30" transform="translate(72.867828 0) scale(0.996264)"/>
      <use xlink:href="#CMSS17-30" transform="translate(119.711452 0) scale(0.996264)"/>
      <use xlink:href="#CMSS17-32" transform="translate(166.555075 0) scale(0.996264)"/>
     </g>
    </g>
   </g>
  </g>
 </g>
 <defs>
  <clipPath id="pf8e69d65fe">
   <rect x="99.405899" y="49.831226" width="594.674101" height="446.00973"/>
  </clipPath>
 </defs>
</svg>
