<?xml version="1.0" encoding="utf-8" standalone="no"?>
<!DOCTYPE svg PUBLIC "-//W3C//DTD SVG 1.1//EN"
  "http://www.w3.org/Graphics/SVG/1.1/DTD/svg11.dtd">
<svg xmlns:xlink="http://www.w3.org/1999/xlink" width="720pt" height="576pt" viewBox="0 0 720 576" xmlns="http://www.w3.org/2000/svg" version="1.1">
 <metadata>
  <rdf:RDF xmlns:dc="http://purl.org/dc/elements/1.1/" xmlns:cc="http://creativecommons.org/ns#" xmlns:rdf="http://www.w3.org/1999/02/22-rdf-syntax-ns#">
   <cc:Work>
    <dc:type rdf:resource="http://purl.org/dc/dcmitype/StillImage"/>
    <dc:date>2025-04-25T15:59:49.713529</dc:date>
    <dc:format>image/svg+xml</dc:format>
    <dc:creator>
     <cc:Agent>
      <dc:title>Matplotlib v3.9.2, https://matplotlib.org/</dc:title>
     </cc:Agent>
    </dc:creator>
   </cc:Work>
  </rdf:RDF>
 </metadata>
 <defs>
  <style type="text/css">*{stroke-linejoin: round; stroke-linecap: butt}</style>
 </defs>
 <g id="figure_1">
  <g id="patch_1">
   <path d="M 0 576 
L 720 576 
L 720 0 
L 0 0 
z
" style="fill: #ffffff"/>
  </g>
  <g id="axes_1">
   <g id="patch_2">
    <path d="M 66.27864 513.338305 
L 702.72 513.338305 
L 702.72 17.28 
L 66.27864 17.28 
z
" style="fill: #ffffff"/>
   </g>
   <g id="matplotlib.axis_1">
    <g id="xtick_1">
     <g id="line2d_1">
      <path d="M 95.207792 513.338305 
L 95.207792 17.28 
" clip-path="url(#p837b217d4b)" style="fill: none; stroke: #cccccc; stroke-linecap: round"/>
     </g>
     <g id="text_1">
      <!-- $\mathdefault{0}$ -->
      <g style="fill: #262626" transform="translate(91.305799 533.907893) scale(0.16 -0.16)">
       <defs>
        <path id="CMR17-30" d="M 2688 2025 
C 2688 2416 2682 3080 2413 3591 
C 2176 4039 1798 4198 1466 4198 
C 1158 4198 768 4058 525 3597 
C 269 3118 243 2524 243 2025 
C 243 1661 250 1106 448 619 
C 723 -39 1216 -128 1466 -128 
C 1760 -128 2208 -7 2470 600 
C 2662 1042 2688 1559 2688 2025 
z
M 1466 -26 
C 1056 -26 813 325 723 812 
C 653 1188 653 1738 653 2096 
C 653 2588 653 2997 736 3387 
C 858 3929 1216 4096 1466 4096 
C 1728 4096 2067 3923 2189 3400 
C 2272 3036 2278 2607 2278 2096 
C 2278 1680 2278 1169 2202 792 
C 2067 95 1690 -26 1466 -26 
z
" transform="scale(0.015625)"/>
       </defs>
       <use xlink:href="#CMR17-30" transform="scale(0.996264)"/>
      </g>
     </g>
    </g>
    <g id="xtick_2">
     <g id="line2d_2">
      <path d="M 212.093258 513.338305 
L 212.093258 17.28 
" clip-path="url(#p837b217d4b)" style="fill: none; stroke: #cccccc; stroke-linecap: round"/>
     </g>
     <g id="text_2">
      <!-- $\mathdefault{200}$ -->
      <g style="fill: #262626" transform="translate(200.387278 533.907893) scale(0.16 -0.16)">
       <defs>
        <path id="CMR17-32" d="M 2669 989 
L 2554 989 
C 2490 536 2438 459 2413 420 
C 2381 369 1920 369 1830 369 
L 602 369 
C 832 619 1280 1072 1824 1597 
C 2214 1967 2669 2402 2669 3035 
C 2669 3790 2067 4224 1395 4224 
C 691 4224 262 3604 262 3030 
C 262 2780 448 2748 525 2748 
C 589 2748 781 2787 781 3010 
C 781 3207 614 3264 525 3264 
C 486 3264 448 3258 422 3245 
C 544 3790 915 4058 1306 4058 
C 1862 4058 2227 3617 2227 3035 
C 2227 2479 1901 2000 1536 1584 
L 262 146 
L 262 0 
L 2515 0 
L 2669 989 
z
" transform="scale(0.015625)"/>
       </defs>
       <use xlink:href="#CMR17-32" transform="scale(0.996264)"/>
       <use xlink:href="#CMR17-30" transform="translate(45.690477 0) scale(0.996264)"/>
       <use xlink:href="#CMR17-30" transform="translate(91.380954 0) scale(0.996264)"/>
      </g>
     </g>
    </g>
    <g id="xtick_3">
     <g id="line2d_3">
      <path d="M 328.978724 513.338305 
L 328.978724 17.28 
" clip-path="url(#p837b217d4b)" style="fill: none; stroke: #cccccc; stroke-linecap: round"/>
     </g>
     <g id="text_3">
      <!-- $\mathdefault{400}$ -->
      <g style="fill: #262626" transform="translate(317.272743 533.907893) scale(0.16 -0.16)">
       <defs>
        <path id="CMR17-34" d="M 2150 4122 
C 2150 4256 2144 4256 2029 4256 
L 128 1254 
L 128 1088 
L 1779 1088 
L 1779 457 
C 1779 224 1766 160 1318 160 
L 1197 160 
L 1197 0 
C 1402 0 1747 0 1965 0 
C 2182 0 2528 0 2733 0 
L 2733 160 
L 2611 160 
C 2163 160 2150 224 2150 457 
L 2150 1088 
L 2803 1088 
L 2803 1254 
L 2150 1254 
L 2150 4122 
z
M 1798 3703 
L 1798 1254 
L 256 1254 
L 1798 3703 
z
" transform="scale(0.015625)"/>
       </defs>
       <use xlink:href="#CMR17-34" transform="scale(0.996264)"/>
       <use xlink:href="#CMR17-30" transform="translate(45.690477 0) scale(0.996264)"/>
       <use xlink:href="#CMR17-30" transform="translate(91.380954 0) scale(0.996264)"/>
      </g>
     </g>
    </g>
    <g id="xtick_4">
     <g id="line2d_4">
      <path d="M 445.864189 513.338305 
L 445.864189 17.28 
" clip-path="url(#p837b217d4b)" style="fill: none; stroke: #cccccc; stroke-linecap: round"/>
     </g>
     <g id="text_4">
      <!-- $\mathdefault{600}$ -->
      <g style="fill: #262626" transform="translate(434.158209 533.907893) scale(0.16 -0.16)">
       <defs>
        <path id="CMR17-36" d="M 678 2176 
C 678 3690 1395 4032 1811 4032 
C 1946 4032 2272 4009 2400 3776 
C 2298 3776 2106 3776 2106 3553 
C 2106 3381 2246 3323 2336 3323 
C 2394 3323 2566 3348 2566 3560 
C 2566 3954 2246 4179 1805 4179 
C 1043 4179 243 3390 243 1984 
C 243 253 966 -128 1478 -128 
C 2099 -128 2688 427 2688 1283 
C 2688 2081 2170 2662 1517 2662 
C 1126 2662 838 2407 678 1960 
L 678 2176 
z
M 1478 25 
C 691 25 691 1200 691 1436 
C 691 1896 909 2560 1504 2560 
C 1613 2560 1926 2560 2138 2120 
C 2253 1870 2253 1609 2253 1289 
C 2253 944 2253 690 2118 434 
C 1978 171 1773 25 1478 25 
z
" transform="scale(0.015625)"/>
       </defs>
       <use xlink:href="#CMR17-36" transform="scale(0.996264)"/>
       <use xlink:href="#CMR17-30" transform="translate(45.690477 0) scale(0.996264)"/>
       <use xlink:href="#CMR17-30" transform="translate(91.380954 0) scale(0.996264)"/>
      </g>
     </g>
    </g>
    <g id="xtick_5">
     <g id="line2d_5">
      <path d="M 562.749655 513.338305 
L 562.749655 17.28 
" clip-path="url(#p837b217d4b)" style="fill: none; stroke: #cccccc; stroke-linecap: round"/>
     </g>
     <g id="text_5">
      <!-- $\mathdefault{800}$ -->
      <g style="fill: #262626" transform="translate(551.043674 533.907893) scale(0.16 -0.16)">
       <defs>
        <path id="CMR17-38" d="M 1741 2264 
C 2144 2467 2554 2773 2554 3263 
C 2554 3841 1990 4179 1472 4179 
C 890 4179 378 3759 378 3180 
C 378 3021 416 2747 666 2505 
C 730 2442 998 2251 1171 2130 
C 883 1983 211 1634 211 934 
C 211 279 838 -128 1459 -128 
C 2144 -128 2720 362 2720 1010 
C 2720 1590 2330 1857 2074 2029 
L 1741 2264 
z
M 902 2822 
C 851 2854 595 3051 595 3351 
C 595 3739 998 4032 1459 4032 
C 1965 4032 2336 3676 2336 3262 
C 2336 2669 1670 2331 1638 2331 
C 1632 2331 1626 2331 1574 2370 
L 902 2822 
z
M 2080 1519 
C 2176 1449 2483 1240 2483 851 
C 2483 381 2010 25 1472 25 
C 890 25 448 438 448 940 
C 448 1443 838 1862 1280 2060 
L 2080 1519 
z
" transform="scale(0.015625)"/>
       </defs>
       <use xlink:href="#CMR17-38" transform="scale(0.996264)"/>
       <use xlink:href="#CMR17-30" transform="translate(45.690477 0) scale(0.996264)"/>
       <use xlink:href="#CMR17-30" transform="translate(91.380954 0) scale(0.996264)"/>
      </g>
     </g>
    </g>
    <g id="xtick_6">
     <g id="line2d_6">
      <path d="M 679.635121 513.338305 
L 679.635121 17.28 
" clip-path="url(#p837b217d4b)" style="fill: none; stroke: #cccccc; stroke-linecap: round"/>
     </g>
     <g id="text_6">
      <!-- $\mathdefault{1000}$ -->
      <g style="fill: #262626" transform="translate(664.027147 533.907893) scale(0.16 -0.16)">
       <defs>
        <path id="CMR17-31" d="M 1702 4058 
C 1702 4192 1696 4192 1606 4192 
C 1357 3916 979 3827 621 3827 
C 602 3827 570 3827 563 3808 
C 557 3795 557 3782 557 3648 
C 755 3648 1088 3686 1344 3839 
L 1344 461 
C 1344 236 1331 160 781 160 
L 589 160 
L 589 0 
C 896 0 1216 0 1523 0 
C 1830 0 2150 0 2458 0 
L 2458 160 
L 2266 160 
C 1715 160 1702 230 1702 458 
L 1702 4058 
z
" transform="scale(0.015625)"/>
       </defs>
       <use xlink:href="#CMR17-31" transform="scale(0.996264)"/>
       <use xlink:href="#CMR17-30" transform="translate(45.690477 0) scale(0.996264)"/>
       <use xlink:href="#CMR17-30" transform="translate(91.380954 0) scale(0.996264)"/>
       <use xlink:href="#CMR17-30" transform="translate(137.071431 0) scale(0.996264)"/>
      </g>
     </g>
    </g>
    <g id="text_7">
     <!-- Step -->
     <g style="fill: #262626" transform="translate(366.743615 554.844366) scale(0.2 -0.2)">
      <defs>
       <path id="CMR17-53" d="M 2803 4290 
C 2803 4404 2797 4411 2758 4411 
C 2720 4411 2707 4385 2682 4328 
L 2490 3907 
C 2246 4257 1875 4416 1472 4416 
C 819 4416 294 3901 294 3253 
C 294 3056 339 2776 557 2510 
C 794 2218 1018 2167 1530 2033 
C 1722 1982 2042 1899 2106 1874 
C 2470 1722 2662 1341 2662 985 
C 2662 527 2336 38 1779 38 
C 1094 38 454 419 410 1311 
C 403 1413 397 1419 352 1419 
C 301 1419 294 1413 294 1285 
L 294 -1 
C 294 -115 301 -122 339 -122 
C 384 -122 397 -90 486 108 
C 493 127 493 140 614 381 
C 934 -39 1472 -128 1779 -128 
C 2477 -128 2970 451 2970 1124 
C 2970 1454 2848 1708 2778 1823 
C 2509 2230 2221 2306 1914 2382 
C 1869 2402 1856 2402 1498 2490 
C 1152 2579 1005 2624 845 2796 
C 666 2992 602 3196 602 3399 
C 602 3812 934 4263 1478 4263 
C 2157 4263 2579 3786 2675 2993 
C 2694 2878 2701 2872 2746 2872 
C 2803 2872 2803 2891 2803 2999 
L 2803 4290 
z
" transform="scale(0.015625)"/>
       <path id="CMR17-74" d="M 966 2560 
L 1862 2560 
L 1862 2725 
L 966 2725 
L 966 3904 
L 851 3904 
C 838 3245 614 2668 70 2668 
L 70 2560 
L 627 2560 
L 627 771 
C 627 650 627 -64 1370 -64 
C 1747 -64 1965 306 1965 777 
L 1965 1140 
L 1850 1140 
L 1850 783 
C 1850 344 1677 51 1408 51 
C 1222 51 966 178 966 758 
L 966 2560 
z
" transform="scale(0.015625)"/>
       <path id="CMR17-65" d="M 2438 1472 
C 2464 1498 2464 1511 2464 1576 
C 2464 2238 2118 2816 1389 2816 
C 710 2816 173 2169 173 1383 
C 173 551 781 -64 1459 -64 
C 2176 -64 2458 607 2458 740 
C 2458 784 2419 784 2406 784 
C 2362 784 2355 771 2330 696 
C 2189 265 1837 51 1504 51 
C 1229 51 954 203 781 480 
C 582 803 582 1176 582 1472 
L 2438 1472 
z
M 589 1568 
C 634 2505 1126 2714 1382 2714 
C 1818 2714 2112 2297 2118 1568 
L 589 1568 
z
" transform="scale(0.015625)"/>
       <path id="CMR17-70" d="M 1408 -1063 
C 998 -1063 973 -1037 973 -789 
L 973 402 
C 1158 134 1427 -38 1766 -38 
C 2406 -38 3053 523 3053 1388 
C 3053 2191 2496 2802 1837 2802 
C 1453 2802 1139 2592 960 2338 
L 960 2802 
L 198 2732 
L 198 2567 
C 576 2567 634 2528 634 2223 
L 634 -789 
C 634 -1031 608 -1063 198 -1063 
L 198 -1228 
C 352 -1216 634 -1216 800 -1216 
C 966 -1216 1254 -1216 1408 -1228 
L 1408 -1063 
z
M 973 2012 
C 973 2102 973 2235 1222 2471 
C 1254 2497 1472 2688 1792 2688 
C 2259 2688 2643 2108 2643 1382 
C 2643 656 2234 64 1728 64 
C 1498 64 1248 172 1056 472 
C 973 612 973 650 973 752 
L 973 2012 
z
" transform="scale(0.015625)"/>
      </defs>
      <use xlink:href="#CMR17-53" transform="scale(0.996264)"/>
      <use xlink:href="#CMR17-74" transform="translate(50.89537 0) scale(0.996264)"/>
      <use xlink:href="#CMR17-65" transform="translate(86.176138 0) scale(0.996264)"/>
      <use xlink:href="#CMR17-70" transform="translate(126.661798 0) scale(0.996264)"/>
     </g>
    </g>
   </g>
   <g id="matplotlib.axis_2">
    <g id="ytick_1">
     <g id="line2d_7">
      <path d="M 66.27864 497.572626 
L 702.72 497.572626 
" clip-path="url(#p837b217d4b)" style="fill: none; stroke: #cccccc; stroke-linecap: round"/>
     </g>
     <g id="text_8">
      <!-- $\mathdefault{0}$ -->
      <g style="fill: #262626" transform="translate(48.974653 503.10742) scale(0.16 -0.16)">
       <use xlink:href="#CMR17-30" transform="scale(0.996264)"/>
      </g>
     </g>
    </g>
    <g id="ytick_2">
     <g id="line2d_8">
      <path d="M 66.27864 428.364201 
L 702.72 428.364201 
" clip-path="url(#p837b217d4b)" style="fill: none; stroke: #cccccc; stroke-linecap: round"/>
     </g>
     <g id="text_9">
      <!-- $\mathdefault{5}$ -->
      <g style="fill: #262626" transform="translate(48.974653 433.898995) scale(0.16 -0.16)">
       <defs>
        <path id="CMR17-35" d="M 730 3692 
C 794 3666 1056 3584 1325 3584 
C 1920 3584 2246 3911 2432 4100 
C 2432 4157 2432 4192 2394 4192 
C 2387 4192 2374 4192 2323 4163 
C 2099 4058 1837 3973 1517 3973 
C 1325 3973 1037 3999 723 4139 
C 653 4171 640 4171 634 4171 
C 602 4171 595 4164 595 4037 
L 595 2203 
C 595 2089 595 2057 659 2057 
C 691 2057 704 2070 736 2114 
C 941 2401 1222 2522 1542 2522 
C 1766 2522 2246 2382 2246 1289 
C 2246 1085 2246 715 2054 421 
C 1894 159 1645 25 1370 25 
C 947 25 518 320 403 814 
C 429 807 480 795 506 795 
C 589 795 749 840 749 1038 
C 749 1210 627 1280 506 1280 
C 358 1280 262 1190 262 1011 
C 262 454 704 -128 1382 -128 
C 2042 -128 2669 440 2669 1264 
C 2669 2030 2170 2624 1549 2624 
C 1222 2624 947 2503 730 2274 
L 730 3692 
z
" transform="scale(0.015625)"/>
       </defs>
       <use xlink:href="#CMR17-35" transform="scale(0.996264)"/>
      </g>
     </g>
    </g>
    <g id="ytick_3">
     <g id="line2d_9">
      <path d="M 66.27864 359.155777 
L 702.72 359.155777 
" clip-path="url(#p837b217d4b)" style="fill: none; stroke: #cccccc; stroke-linecap: round"/>
     </g>
     <g id="text_10">
      <!-- $\mathdefault{10}$ -->
      <g style="fill: #262626" transform="translate(41.170666 364.690571) scale(0.16 -0.16)">
       <use xlink:href="#CMR17-31" transform="scale(0.996264)"/>
       <use xlink:href="#CMR17-30" transform="translate(45.690477 0) scale(0.996264)"/>
      </g>
     </g>
    </g>
    <g id="ytick_4">
     <g id="line2d_10">
      <path d="M 66.27864 289.947352 
L 702.72 289.947352 
" clip-path="url(#p837b217d4b)" style="fill: none; stroke: #cccccc; stroke-linecap: round"/>
     </g>
     <g id="text_11">
      <!-- $\mathdefault{15}$ -->
      <g style="fill: #262626" transform="translate(41.170666 295.482146) scale(0.16 -0.16)">
       <use xlink:href="#CMR17-31" transform="scale(0.996264)"/>
       <use xlink:href="#CMR17-35" transform="translate(45.690477 0) scale(0.996264)"/>
      </g>
     </g>
    </g>
    <g id="ytick_5">
     <g id="line2d_11">
      <path d="M 66.27864 220.738927 
L 702.72 220.738927 
" clip-path="url(#p837b217d4b)" style="fill: none; stroke: #cccccc; stroke-linecap: round"/>
     </g>
     <g id="text_12">
      <!-- $\mathdefault{20}$ -->
      <g style="fill: #262626" transform="translate(41.170666 226.273721) scale(0.16 -0.16)">
       <use xlink:href="#CMR17-32" transform="scale(0.996264)"/>
       <use xlink:href="#CMR17-30" transform="translate(45.690477 0) scale(0.996264)"/>
      </g>
     </g>
    </g>
    <g id="ytick_6">
     <g id="line2d_12">
      <path d="M 66.27864 151.530502 
L 702.72 151.530502 
" clip-path="url(#p837b217d4b)" style="fill: none; stroke: #cccccc; stroke-linecap: round"/>
     </g>
     <g id="text_13">
      <!-- $\mathdefault{25}$ -->
      <g style="fill: #262626" transform="translate(41.170666 157.065296) scale(0.16 -0.16)">
       <use xlink:href="#CMR17-32" transform="scale(0.996264)"/>
       <use xlink:href="#CMR17-35" transform="translate(45.690477 0) scale(0.996264)"/>
      </g>
     </g>
    </g>
    <g id="ytick_7">
     <g id="line2d_13">
      <path d="M 66.27864 82.322078 
L 702.72 82.322078 
" clip-path="url(#p837b217d4b)" style="fill: none; stroke: #cccccc; stroke-linecap: round"/>
     </g>
     <g id="text_14">
      <!-- $\mathdefault{30}$ -->
      <g style="fill: #262626" transform="translate(41.170666 87.856872) scale(0.16 -0.16)">
       <defs>
        <path id="CMR17-33" d="M 1414 2157 
C 1984 2157 2234 1662 2234 1090 
C 2234 320 1824 25 1453 25 
C 1114 25 563 194 390 693 
C 422 680 454 680 486 680 
C 640 680 755 782 755 948 
C 755 1133 614 1216 486 1216 
C 378 1216 211 1165 211 926 
C 211 335 787 -128 1466 -128 
C 2176 -128 2720 430 2720 1085 
C 2720 1707 2208 2157 1600 2227 
C 2086 2328 2554 2756 2554 3329 
C 2554 3820 2048 4179 1472 4179 
C 890 4179 378 3829 378 3329 
C 378 3110 544 3072 627 3072 
C 762 3072 877 3155 877 3321 
C 877 3486 762 3569 627 3569 
C 602 3569 570 3569 544 3557 
C 730 3959 1235 4032 1459 4032 
C 1683 4032 2106 3925 2106 3320 
C 2106 3143 2080 2828 1862 2550 
C 1670 2304 1453 2304 1242 2284 
C 1210 2284 1062 2269 1037 2269 
C 992 2263 966 2257 966 2208 
C 966 2163 973 2157 1101 2157 
L 1414 2157 
z
" transform="scale(0.015625)"/>
       </defs>
       <use xlink:href="#CMR17-33" transform="scale(0.996264)"/>
       <use xlink:href="#CMR17-30" transform="translate(45.690477 0) scale(0.996264)"/>
      </g>
     </g>
    </g>
    <g id="text_15">
     <!-- Percentage Explored (\%) -->
     <g style="fill: #262626" transform="translate(32.206022 365.188382) rotate(-90) scale(0.2 -0.2)">
      <defs>
       <path id="CMR17-50" d="M 1267 2042 
L 2291 2042 
C 3117 2042 3718 2578 3718 3184 
C 3718 3791 3130 4352 2291 4352 
L 333 4352 
L 333 4186 
C 774 4186 845 4186 845 3899 
L 845 446 
C 845 160 774 160 333 160 
L 333 0 
C 518 0 858 0 1056 0 
C 1254 0 1594 0 1779 0 
L 1779 160 
C 1338 160 1267 160 1267 446 
L 1267 2042 
z
M 1254 2176 
L 1254 3938 
C 1254 4155 1267 4186 1523 4186 
L 2170 4186 
C 2995 4186 3232 3714 3232 3184 
C 3232 2604 2950 2176 2170 2176 
L 1254 2176 
z
" transform="scale(0.015625)"/>
       <path id="CMR17-72" d="M 960 1497 
C 960 2112 1222 2688 1702 2688 
C 1747 2688 1792 2682 1837 2662 
C 1837 2662 1696 2617 1696 2452 
C 1696 2298 1818 2234 1914 2234 
C 1990 2234 2131 2279 2131 2458 
C 2131 2663 1926 2790 1709 2790 
C 1222 2790 1011 2317 947 2093 
L 941 2093 
L 941 2790 
L 198 2720 
L 198 2554 
C 576 2554 634 2515 634 2208 
L 634 428 
C 634 184 608 153 198 153 
L 198 -13 
C 352 0 646 0 813 0 
C 998 0 1325 0 1498 -13 
L 1498 153 
C 1037 153 960 153 960 440 
L 960 1497 
z
" transform="scale(0.015625)"/>
       <path id="CMR17-63" d="M 2234 2240 
C 2112 2240 1933 2240 1933 2017 
C 1933 1838 2080 1787 2163 1787 
C 2208 1787 2394 1807 2394 2024 
C 2394 2467 1958 2803 1466 2803 
C 787 2803 211 2178 211 1363 
C 211 516 813 -64 1466 -64 
C 2259 -64 2458 677 2458 748 
C 2458 774 2451 793 2406 793 
C 2362 793 2355 787 2330 703 
C 2163 180 1798 51 1523 51 
C 1114 51 621 427 621 1369 
C 621 2338 1094 2688 1472 2688 
C 1722 2688 2093 2573 2234 2240 
z
" transform="scale(0.015625)"/>
       <path id="CMR17-6e" d="M 2656 1933 
C 2656 2259 2592 2790 1837 2790 
C 1331 2790 1069 2400 973 2144 
L 966 2144 
L 966 2790 
L 211 2720 
L 211 2554 
C 589 2554 646 2515 646 2208 
L 646 428 
C 646 184 621 153 211 153 
L 211 -13 
C 365 0 646 0 813 0 
C 979 0 1267 0 1421 -13 
L 1421 153 
C 1011 153 986 178 986 428 
L 986 1658 
C 986 2247 1344 2688 1792 2688 
C 2266 2688 2317 2266 2317 1958 
L 2317 428 
C 2317 184 2291 153 1882 153 
L 1882 -13 
C 2035 0 2317 0 2483 0 
C 2650 0 2938 0 3091 -13 
L 3091 153 
C 2682 153 2656 178 2656 428 
L 2656 1933 
z
" transform="scale(0.015625)"/>
       <path id="CMR17-61" d="M 2304 1653 
C 2304 2072 2304 2294 2035 2543 
C 1798 2752 1523 2816 1306 2816 
C 800 2816 435 2407 435 1971 
C 435 1728 627 1728 666 1728 
C 749 1728 896 1778 896 1954 
C 896 2112 774 2181 666 2181 
C 640 2181 608 2174 589 2168 
C 723 2592 1069 2714 1293 2714 
C 1613 2714 1965 2429 1965 1885 
L 1965 1600 
C 1587 1600 1133 1549 774 1357 
C 371 1133 256 813 256 570 
C 256 77 832 -64 1171 -64 
C 1523 -64 1850 139 1990 511 
C 2003 233 2182 -18 2464 -18 
C 2598 -18 2938 70 2938 567 
L 2938 920 
L 2822 920 
L 2822 562 
C 2822 178 2650 128 2566 128 
C 2304 128 2304 458 2304 738 
L 2304 1653 
z
M 1965 870 
C 1965 317 1568 38 1216 38 
C 896 38 646 275 646 570 
C 646 761 730 1100 1101 1305 
C 1408 1478 1760 1504 1965 1504 
L 1965 870 
z
" transform="scale(0.015625)"/>
       <path id="CMR17-67" d="M 710 1164 
C 832 1068 1043 960 1299 960 
C 1805 960 2240 1357 2240 1888 
C 2240 2054 2189 2310 1997 2509 
C 2176 2692 2438 2752 2586 2752 
C 2611 2752 2650 2752 2682 2734 
C 2656 2728 2598 2703 2598 2605 
C 2598 2527 2656 2471 2739 2471 
C 2835 2471 2886 2533 2886 2614 
C 2886 2731 2790 2854 2586 2854 
C 2330 2854 2106 2738 1926 2580 
C 1734 2753 1504 2816 1299 2816 
C 794 2816 358 2419 358 1888 
C 358 1522 570 1292 634 1228 
C 442 1004 442 743 442 711 
C 442 545 506 302 723 168 
C 390 85 128 -169 128 -486 
C 128 -943 736 -1280 1466 -1280 
C 2170 -1280 2803 -956 2803 -479 
C 2803 384 1856 384 1363 384 
C 1216 384 954 384 922 391 
C 723 423 589 602 589 826 
C 589 883 589 1024 710 1164 
z
M 1299 1068 
C 736 1068 736 1760 736 1889 
C 736 2016 736 2708 1299 2708 
C 1862 2708 1862 2016 1862 1889 
C 1862 1760 1862 1068 1299 1068 
z
M 1466 -1171 
C 826 -1171 384 -835 384 -486 
C 384 -289 493 -105 634 -4 
C 794 104 858 104 1293 104 
C 1818 104 2547 104 2547 -486 
C 2547 -835 2106 -1171 1466 -1171 
z
" transform="scale(0.015625)"/>
       <path id="CMR17-45" d="M 3885 1615 
L 3770 1615 
C 3629 676 3546 166 2419 166 
L 1530 166 
C 1274 166 1261 197 1261 414 
L 1261 2176 
L 1862 2176 
C 2464 2176 2522 1960 2522 1430 
L 2637 1430 
L 2637 3081 
L 2522 3081 
C 2522 2557 2464 2342 1862 2342 
L 1261 2342 
L 1261 3913 
C 1261 4128 1274 4160 1530 4160 
L 2406 4160 
C 3398 4160 3514 3769 3603 2929 
L 3718 2929 
L 3565 4325 
L 326 4325 
L 326 4160 
C 768 4160 838 4160 838 3874 
L 838 451 
C 838 166 768 166 326 166 
L 326 0 
L 3654 0 
L 3885 1615 
z
" transform="scale(0.015625)"/>
       <path id="CMR17-78" d="M 1664 1477 
C 1856 1726 2074 2006 2253 2216 
C 2464 2458 2707 2560 2989 2560 
L 2989 2726 
C 2880 2726 2656 2726 2541 2726 
C 2368 2726 2170 2726 2022 2732 
L 2022 2566 
C 2112 2553 2163 2489 2163 2400 
C 2163 2285 2099 2215 2067 2171 
L 1594 1573 
L 1030 2306 
C 973 2376 973 2388 973 2420 
C 973 2497 1037 2560 1146 2560 
L 1146 2732 
C 992 2726 717 2726 557 2726 
C 384 2726 179 2726 38 2732 
L 38 2560 
C 384 2560 461 2534 614 2343 
L 1350 1395 
C 1363 1382 1395 1344 1395 1325 
C 1395 1299 838 619 768 530 
C 480 185 179 160 6 160 
L 6 0 
C 115 0 339 0 454 0 
C 582 0 864 0 979 -6 
L 979 160 
C 941 166 838 179 838 325 
C 838 440 890 510 947 586 
L 1478 1236 
L 2035 512 
C 2086 442 2163 346 2163 301 
C 2163 211 2086 160 1984 160 
L 1984 -6 
C 2138 0 2413 0 2573 0 
C 2746 0 2950 0 3091 -6 
L 3091 160 
C 2771 160 2675 172 2522 370 
L 1664 1477 
z
" transform="scale(0.015625)"/>
       <path id="CMR17-6c" d="M 979 4396 
L 218 4326 
L 218 4160 
C 595 4160 653 4122 653 3817 
L 653 426 
C 653 184 627 153 218 153 
L 218 -13 
C 371 0 653 0 813 0 
C 979 0 1261 0 1414 -13 
L 1414 153 
C 1005 153 979 178 979 426 
L 979 4396 
z
" transform="scale(0.015625)"/>
       <path id="CMR17-6f" d="M 2758 1356 
C 2758 2176 2163 2816 1466 2816 
C 768 2816 173 2176 173 1356 
C 173 551 768 -64 1466 -64 
C 2163 -64 2758 551 2758 1356 
z
M 1466 51 
C 1165 51 909 230 762 480 
C 602 767 582 1126 582 1408 
C 582 1677 595 2010 762 2298 
C 890 2509 1139 2714 1466 2714 
C 1754 2714 1997 2554 2150 2330 
C 2349 2029 2349 1607 2349 1408 
C 2349 1158 2336 775 2163 467 
C 1984 173 1709 51 1466 51 
z
" transform="scale(0.015625)"/>
       <path id="CMR17-64" d="M 1869 4326 
L 1869 4160 
C 2246 4160 2304 4122 2304 3820 
L 2304 2345 
C 2278 2377 2016 2790 1498 2790 
C 845 2790 211 2208 211 1364 
C 211 525 806 -64 1434 -64 
C 1978 -64 2259 337 2291 380 
L 2291 -63 
L 3066 -63 
L 3066 128 
C 2688 128 2630 166 2630 473 
L 2630 4396 
L 1869 4326 
z
M 2291 755 
C 2291 563 2176 390 2029 262 
C 1811 70 1594 38 1472 38 
C 1286 38 621 134 621 1356 
C 621 2612 1363 2688 1530 2688 
C 1824 2688 2061 2522 2208 2291 
C 2291 2157 2291 2138 2291 2023 
L 2291 755 
z
" transform="scale(0.015625)"/>
       <path id="CMR17-28" d="M 1958 -1561 
C 1958 -1555 1958 -1542 1939 -1523 
C 1645 -1224 858 -407 858 1581 
C 858 3569 1632 4379 1946 4697 
C 1946 4704 1958 4717 1958 4736 
C 1958 4755 1939 4768 1914 4768 
C 1843 4768 1299 4296 986 3594 
C 666 2887 576 2199 576 1588 
C 576 1128 621 351 1005 -471 
C 1312 -1135 1837 -1600 1914 -1600 
C 1946 -1600 1958 -1587 1958 -1561 
z
" transform="scale(0.015625)"/>
       <path id="CMR17-25" d="M 4640 959 
C 4640 1698 4275 2240 3846 2240 
C 3411 2240 2970 1736 2970 959 
C 2970 183 3405 -320 3846 -320 
C 4275 -320 4640 215 4640 959 
z
M 3853 -218 
C 3686 -218 3270 -66 3270 959 
C 3270 1991 3686 2138 3853 2138 
C 4205 2138 4525 1634 4525 959 
C 4525 285 4205 -218 3853 -218 
z
M 4083 4577 
C 4128 4647 4134 4653 4134 4685 
C 4134 4761 4077 4800 4026 4800 
C 3962 4800 3936 4756 3891 4706 
C 3520 4190 3008 4134 2746 4134 
C 2106 4134 1715 4494 1594 4607 
C 1510 4682 1389 4800 1171 4800 
C 736 4800 294 4296 294 3519 
C 294 2743 730 2240 1171 2240 
C 1600 2240 1965 2778 1965 3527 
C 1965 3969 1830 4270 1811 4308 
C 2202 4064 2586 4032 2752 4032 
C 3162 4032 3456 4183 3616 4289 
L 3622 4283 
L 858 -84 
C 800 -174 800 -187 800 -206 
C 800 -276 858 -320 915 -320 
C 973 -320 992 -289 1037 -218 
L 4083 4577 
z
M 1178 2342 
C 1011 2342 595 2494 595 3519 
C 595 4551 1011 4698 1178 4698 
C 1530 4698 1850 4194 1850 3519 
C 1850 2845 1530 2342 1178 2342 
z
" transform="scale(0.015625)"/>
       <path id="CMR17-29" d="M 1683 1581 
C 1683 2040 1638 2817 1254 3639 
C 947 4303 422 4768 346 4768 
C 326 4768 301 4761 301 4729 
C 301 4717 307 4710 314 4697 
C 621 4378 1402 3568 1402 1584 
C 1402 -407 627 -1217 314 -1537 
C 307 -1549 301 -1556 301 -1568 
C 301 -1600 326 -1600 346 -1600 
C 416 -1600 960 -1128 1274 -426 
C 1594 281 1683 969 1683 1581 
z
" transform="scale(0.015625)"/>
      </defs>
      <use xlink:href="#CMR17-50" transform="scale(0.996264)"/>
      <use xlink:href="#CMR17-65" transform="translate(59.983847 0) scale(0.996264)"/>
      <use xlink:href="#CMR17-72" transform="translate(100.469507 0) scale(0.996264)"/>
      <use xlink:href="#CMR17-63" transform="translate(135.750275 0) scale(0.996264)"/>
      <use xlink:href="#CMR17-65" transform="translate(176.235935 0) scale(0.996264)"/>
      <use xlink:href="#CMR17-6e" transform="translate(216.721596 0) scale(0.996264)"/>
      <use xlink:href="#CMR17-74" transform="translate(265.014512 0) scale(0.996264)"/>
      <use xlink:href="#CMR17-61" transform="translate(300.295279 0) scale(0.996264)"/>
      <use xlink:href="#CMR17-67" transform="translate(345.985757 0) scale(0.996264)"/>
      <use xlink:href="#CMR17-65" transform="translate(391.676234 0) scale(0.996264)"/>
      <use xlink:href="#CMR17-45" transform="translate(462.23786 0) scale(0.996264)"/>
      <use xlink:href="#CMR17-78" transform="translate(524.824161 0) scale(0.996264)"/>
      <use xlink:href="#CMR17-70" transform="translate(573.117077 0) scale(0.996264)"/>
      <use xlink:href="#CMR17-6c" transform="translate(624.012447 0) scale(0.996264)"/>
      <use xlink:href="#CMR17-6f" transform="translate(648.883505 0) scale(0.996264)"/>
      <use xlink:href="#CMR17-72" transform="translate(694.573982 0) scale(0.996264)"/>
      <use xlink:href="#CMR17-65" transform="translate(729.85475 0) scale(0.996264)"/>
      <use xlink:href="#CMR17-64" transform="translate(770.34041 0) scale(0.996264)"/>
      <use xlink:href="#CMR17-28" transform="translate(851.311747 0) scale(0.996264)"/>
      <use xlink:href="#CMR17-25" transform="translate(886.592514 0) scale(0.996264)"/>
      <use xlink:href="#CMR17-29" transform="translate(963.512104 0) scale(0.996264)"/>
     </g>
    </g>
   </g>
   <g id="PolyCollection_1">
    <defs>
     <path id="m3647b3274f" d="M 95.207792 -89.639139 
L 95.207792 -85.2098 
L 101.052066 -98.082567 
L 106.896339 -105.003409 
L 112.740612 -115.246256 
L 118.584886 -116.768841 
L 124.429159 -129.364775 
L 130.273432 -132.133112 
L 136.117705 -136.008783 
L 141.961979 -138.915537 
L 147.806252 -139.884455 
L 153.650525 -137.669786 
L 159.494799 -140.161289 
L 165.339072 -134.486198 
L 171.183345 -148.4663 
L 177.027618 -140.576539 
L 182.871892 -130.333693 
L 188.716165 -122.859183 
L 194.560438 -125.489103 
L 200.404712 -129.226358 
L 206.248985 -136.1472 
L 212.093258 -124.520185 
L 217.937531 -118.014593 
L 223.781805 -125.489103 
L 229.626078 -138.36187 
L 235.470351 -125.489103 
L 241.314624 -118.429844 
L 247.158898 -118.429844 
L 253.003171 -114.415755 
L 258.847444 -112.754753 
L 264.691718 -120.090846 
L 270.535991 -120.367679 
L 276.380264 -123.274433 
L 282.224537 -131.441027 
L 288.068811 -126.596438 
L 293.913084 -135.178282 
L 299.757357 -137.808202 
L 305.601631 -141.545457 
L 311.445904 -142.237542 
L 317.290177 -148.88155 
L 323.13445 -154.418224 
L 328.978724 -156.771311 
L 334.822997 -151.926721 
L 340.66727 -148.743134 
L 346.511544 -132.963613 
L 352.355817 -141.268624 
L 358.20009 -156.632894 
L 364.044363 -160.923816 
L 369.888637 -159.954898 
L 375.73291 -142.237542 
L 381.577183 -135.593533 
L 387.421457 -138.77712 
L 393.26573 -142.099125 
L 399.110003 -143.62171 
L 404.954276 -139.330788 
L 410.79855 -135.316699 
L 416.642823 -140.714956 
L 422.487096 -146.805298 
L 428.331369 -152.203555 
L 434.175643 -140.438123 
L 440.019916 -139.053954 
L 445.864189 -138.085036 
L 451.708463 -134.486198 
L 457.552736 -137.392952 
L 463.397009 -140.299706 
L 469.241282 -144.729045 
L 475.085556 -140.438123 
L 480.929829 -139.053954 
L 486.774102 -137.392952 
L 492.618376 -130.748943 
L 498.462649 -123.966517 
L 504.306922 -124.381768 
L 510.151195 -149.712051 
L 515.995469 -150.265719 
L 521.839742 -147.774216 
L 527.684015 -142.099125 
L 533.528289 -139.053954 
L 539.372562 -142.929626 
L 545.216835 -148.327883 
L 551.061108 -146.805298 
L 556.905382 -142.929626 
L 562.749655 -140.438123 
L 568.593928 -142.099125 
L 574.438201 -140.576539 
L 580.282475 -130.195276 
L 586.126748 -128.534274 
L 591.971021 -120.367679 
L 597.815295 -120.367679 
L 603.659568 -123.966517 
L 609.503841 -124.243351 
L 615.348114 -121.890265 
L 621.192388 -133.51728 
L 627.036661 -126.596438 
L 632.880934 -140.022872 
L 638.725208 -141.683874 
L 644.569481 -138.500287 
L 650.413754 -138.638704 
L 656.258027 -137.946619 
L 662.102301 -134.070948 
L 667.946574 -131.164194 
L 673.790847 -145.282712 
L 673.790847 -214.075887 
L 673.790847 -214.075887 
L 667.946574 -213.106969 
L 662.102301 -218.782059 
L 656.258027 -209.784964 
L 650.413754 -209.923381 
L 644.569481 -217.813141 
L 638.725208 -223.626649 
L 632.880934 -215.321638 
L 627.036661 -225.841319 
L 621.192388 -225.979736 
L 615.348114 -204.386707 
L 609.503841 -201.756787 
L 603.659568 -207.431878 
L 597.815295 -235.668915 
L 591.971021 -243.558675 
L 586.126748 -247.019097 
L 580.282475 -263.075451 
L 574.438201 -258.784529 
L 568.593928 -235.668915 
L 562.749655 -225.564485 
L 556.905382 -228.748073 
L 551.061108 -239.267753 
L 545.216835 -226.533403 
L 539.372562 -214.767971 
L 533.528289 -229.163323 
L 527.684015 -229.163323 
L 521.839742 -219.335727 
L 515.995469 -224.0419 
L 510.151195 -239.129336 
L 504.306922 -234.284747 
L 498.462649 -214.767971 
L 492.618376 -220.996729 
L 486.774102 -228.748073 
L 480.929829 -225.841319 
L 475.085556 -226.256569 
L 469.241282 -220.858312 
L 463.397009 -220.996729 
L 457.552736 -224.318733 
L 451.708463 -231.239576 
L 445.864189 -238.437252 
L 440.019916 -228.055988 
L 434.175643 -233.731079 
L 428.331369 -224.0419 
L 422.487096 -234.699997 
L 416.642823 -233.869496 
L 410.79855 -234.423163 
L 404.954276 -234.284747 
L 399.110003 -228.471239 
L 393.26573 -217.536308 
L 387.421457 -216.152139 
L 381.577183 -230.547492 
L 375.73291 -245.496511 
L 369.888637 -250.202684 
L 364.044363 -245.496511 
L 358.20009 -223.349815 
L 352.355817 -231.654826 
L 346.511544 -254.77044 
L 340.66727 -233.869496 
L 334.822997 -239.267753 
L 328.978724 -227.08707 
L 323.13445 -217.397891 
L 317.290177 -218.782059 
L 311.445904 -235.668915 
L 305.601631 -241.759256 
L 299.757357 -241.897673 
L 293.913084 -239.959837 
L 288.068811 -239.40617 
L 282.224537 -241.897673 
L 276.380264 -240.375088 
L 270.535991 -235.530498 
L 264.691718 -250.617935 
L 258.847444 -248.680099 
L 253.003171 -250.341101 
L 247.158898 -239.821421 
L 241.314624 -236.499416 
L 235.470351 -220.858312 
L 229.626078 -231.101159 
L 223.781805 -230.270658 
L 217.937531 -222.657731 
L 212.093258 -222.380897 
L 206.248985 -230.409075 
L 200.404712 -233.592662 
L 194.560438 -224.0419 
L 188.716165 -223.072982 
L 182.871892 -212.553301 
L 177.027618 -212.553301 
L 171.183345 -210.200215 
L 165.339072 -216.705807 
L 159.494799 -243.420259 
L 153.650525 -237.468334 
L 147.806252 -246.465429 
L 141.961979 -247.019097 
L 136.117705 -239.683004 
L 130.273432 -231.93166 
L 124.429159 -212.414884 
L 118.584886 -198.850033 
L 112.740612 -181.547927 
L 106.896339 -161.892734 
L 101.052066 -131.994695 
L 95.207792 -89.639139 
z
" style="stroke: #ffffff; stroke-opacity: 0.2"/>
    </defs>
    <g clip-path="url(#p837b217d4b)">
     <use xlink:href="#m3647b3274f" x="0" y="576" style="fill: #4c72b0; fill-opacity: 0.2; stroke: #ffffff; stroke-opacity: 0.2"/>
    </g>
   </g>
   <g id="PolyCollection_2">
    <defs>
     <path id="med067934d4" d="M 95.207792 -89.639139 
L 95.207792 -85.2098 
L 101.052066 -93.653227 
L 106.896339 -103.757657 
L 112.740612 -116.768841 
L 118.584886 -119.675595 
L 124.429159 -120.644513 
L 130.273432 -136.562451 
L 136.117705 -137.116118 
L 141.961979 -137.116118 
L 147.806252 -137.116118 
L 153.650525 -135.455116 
L 159.494799 -134.486198 
L 165.339072 -138.36187 
L 171.183345 -153.034056 
L 177.027618 -162.446402 
L 182.871892 -175.319169 
L 188.716165 -187.084601 
L 194.560438 -182.932095 
L 200.404712 -179.333257 
L 206.248985 -176.703337 
L 212.093258 -177.118588 
L 217.937531 -172.689249 
L 223.781805 -171.858747 
L 229.626078 -170.336162 
L 235.470351 -182.655262 
L 241.314624 -185.146765 
L 247.158898 -183.62418 
L 253.003171 -180.440592 
L 258.847444 -187.223018 
L 264.691718 -178.502756 
L 270.535991 -176.841754 
L 276.380264 -177.533838 
L 282.224537 -182.655262 
L 288.068811 -190.406605 
L 293.913084 -192.482858 
L 299.757357 -188.191936 
L 305.601631 -196.081696 
L 311.445904 -191.929191 
L 317.290177 -194.697528 
L 323.13445 -192.206024 
L 328.978724 -190.683439 
L 334.822997 -190.683439 
L 340.66727 -188.745603 
L 346.511544 -192.482858 
L 352.355817 -190.406605 
L 358.20009 -178.225922 
L 364.044363 -178.225922 
L 369.888637 -171.720331 
L 375.73291 -164.384238 
L 381.577183 -167.429408 
L 387.421457 -164.661071 
L 393.26573 -160.923816 
L 399.110003 -159.954898 
L 404.954276 -153.864557 
L 410.79855 -153.034056 
L 416.642823 -151.649887 
L 422.487096 -153.587723 
L 428.331369 -153.587723 
L 434.175643 -153.587723 
L 440.019916 -153.864557 
L 445.864189 -163.276903 
L 451.708463 -182.793679 
L 457.552736 -186.392517 
L 463.397009 -180.440592 
L 469.241282 -178.77959 
L 475.085556 -177.395421 
L 480.929829 -180.717426 
L 486.774102 -195.112778 
L 492.618376 -180.302175 
L 498.462649 -173.658166 
L 504.306922 -161.754317 
L 510.151195 -159.816482 
L 515.995469 -194.282277 
L 521.839742 -201.064703 
L 527.684015 -198.711616 
L 533.528289 -185.838849 
L 539.372562 -175.596002 
L 545.216835 -170.889829 
L 551.061108 -167.983076 
L 556.905382 -166.875741 
L 562.749655 -165.906823 
L 568.593928 -165.076322 
L 574.438201 -171.028246 
L 580.282475 -170.889829 
L 586.126748 -170.059328 
L 591.971021 -166.322073 
L 597.815295 -169.782495 
L 603.659568 -174.211834 
L 609.503841 -159.816482 
L 615.348114 -152.895639 
L 621.192388 -152.895639 
L 627.036661 -154.971892 
L 632.880934 -152.341972 
L 638.725208 -152.341972 
L 644.569481 -151.511471 
L 650.413754 -154.279808 
L 656.258027 -156.632894 
L 662.102301 -152.065138 
L 667.946574 -152.065138 
L 673.790847 -151.373054 
L 673.790847 -352.76957 
L 673.790847 -352.76957 
L 667.946574 -322.041029 
L 662.102301 -326.885619 
L 656.258027 -331.314958 
L 650.413754 -332.699126 
L 644.569481 -315.39702 
L 638.725208 -307.784094 
L 632.880934 -317.61169 
L 627.036661 -314.151269 
L 621.192388 -308.060927 
L 615.348114 -317.058023 
L 609.503841 -332.56071 
L 603.659568 -343.910891 
L 597.815295 -345.848727 
L 591.971021 -349.862816 
L 586.126748 -355.122656 
L 580.282475 -356.091574 
L 574.438201 -376.992518 
L 568.593928 -381.837108 
L 562.749655 -362.874 
L 556.905382 -371.594261 
L 551.061108 -356.783658 
L 545.216835 -372.009512 
L 539.372562 -371.317428 
L 533.528289 -352.76957 
L 527.684015 -346.956062 
L 521.839742 -332.283876 
L 515.995469 -326.055118 
L 510.151195 -326.193535 
L 504.306922 -337.405299 
L 498.462649 -351.246984 
L 492.618376 -321.625779 
L 486.774102 -326.331951 
L 480.929829 -323.148364 
L 475.085556 -330.761291 
L 469.241282 -326.470368 
L 463.397009 -330.484457 
L 457.552736 -337.82055 
L 451.708463 -338.374217 
L 445.864189 -335.329047 
L 440.019916 -334.636962 
L 434.175643 -339.066302 
L 428.331369 -322.594696 
L 422.487096 -323.148364 
L 416.642823 -319.272692 
L 410.79855 -326.331951 
L 404.954276 -332.007042 
L 399.110003 -350.278066 
L 393.26573 -355.953157 
L 387.421457 -367.857006 
L 381.577183 -369.102758 
L 375.73291 -360.797747 
L 369.888637 -357.475743 
L 364.044363 -365.227086 
L 358.20009 -388.3427 
L 352.355817 -388.3427 
L 346.511544 -388.619534 
L 340.66727 -389.450035 
L 334.822997 -403.153303 
L 328.978724 -388.204283 
L 323.13445 -382.252359 
L 317.290177 -376.162017 
L 311.445904 -364.811836 
L 305.601631 -362.735583 
L 299.757357 -361.489831 
L 293.913084 -352.077485 
L 288.068811 -348.34023 
L 282.224537 -327.577703 
L 276.380264 -335.467463 
L 270.535991 -324.117282 
L 264.691718 -330.899707 
L 258.847444 -333.806461 
L 253.003171 -333.114377 
L 247.158898 -323.702031 
L 241.314624 -330.207623 
L 235.470351 -342.941973 
L 229.626078 -354.984239 
L 223.781805 -355.81474 
L 217.937531 -347.786563 
L 212.093258 -329.515539 
L 206.248985 -321.625779 
L 200.404712 -318.995858 
L 194.560438 -315.120187 
L 188.716165 -313.182351 
L 182.871892 -308.199344 
L 177.027618 -304.323672 
L 171.183345 -294.496076 
L 165.339072 -280.654391 
L 159.494799 -256.846693 
L 153.650525 -255.739358 
L 147.806252 -247.019097 
L 141.961979 -231.93166 
L 136.117705 -224.872401 
L 130.273432 -214.629554 
L 124.429159 -189.022437 
L 118.584886 -173.242916 
L 112.740612 -164.245821 
L 106.896339 -158.155479 
L 101.052066 -131.164194 
L 95.207792 -89.639139 
z
" style="stroke: #ffffff; stroke-opacity: 0.2"/>
    </defs>
    <g clip-path="url(#p837b217d4b)">
     <use xlink:href="#med067934d4" x="0" y="576" style="fill: #dd8452; fill-opacity: 0.2; stroke: #ffffff; stroke-opacity: 0.2"/>
    </g>
   </g>
   <g id="PolyCollection_3">
    <defs>
     <path id="ma9ff44b96d" d="M 95.207792 -89.639139 
L 95.207792 -86.593968 
L 101.052066 -107.218079 
L 106.896339 -115.799923 
L 112.740612 -118.983511 
L 118.584886 -129.226358 
L 124.429159 -138.223453 
L 130.273432 -142.099125 
L 136.117705 -144.313794 
L 141.961979 -154.279808 
L 147.806252 -154.418224 
L 153.650525 -156.494477 
L 159.494799 -165.768406 
L 165.339072 -167.844659 
L 171.183345 -168.813577 
L 177.027618 -168.813577 
L 182.871892 -168.813577 
L 188.716165 -170.612996 
L 194.560438 -181.824761 
L 200.404712 -190.129772 
L 206.248985 -199.818951 
L 212.093258 -203.002539 
L 217.937531 -198.573199 
L 223.781805 -202.864122 
L 229.626078 -202.864122 
L 235.470351 -202.864122 
L 241.314624 -202.864122 
L 247.158898 -202.864122 
L 253.003171 -201.61837 
L 258.847444 -201.479953 
L 264.691718 -201.479953 
L 270.535991 -202.033621 
L 276.380264 -214.906388 
L 282.224537 -227.640738 
L 288.068811 -228.471239 
L 293.913084 -237.468334 
L 299.757357 -251.033185 
L 305.601631 -255.185691 
L 311.445904 -255.324108 
L 317.290177 -259.891864 
L 323.13445 -261.552866 
L 328.978724 -264.321203 
L 334.822997 -265.151704 
L 340.66727 -264.87487 
L 346.511544 -264.736453 
L 352.355817 -256.846693 
L 358.20009 -251.586853 
L 364.044363 -250.064267 
L 369.888637 -254.216773 
L 375.73291 -280.515974 
L 381.577183 -288.820985 
L 387.421457 -288.820985 
L 393.26573 -287.436817 
L 399.110003 -282.730644 
L 404.954276 -282.176976 
L 410.79855 -282.176976 
L 416.642823 -283.699562 
L 422.487096 -278.578138 
L 428.331369 -257.261944 
L 434.175643 -246.465429 
L 440.019916 -241.344006 
L 445.864189 -244.942844 
L 451.708463 -248.818516 
L 457.552736 -248.264848 
L 463.397009 -257.123527 
L 469.241282 -269.857877 
L 475.085556 -273.456715 
L 480.929829 -278.024471 
L 486.774102 -281.484892 
L 492.618376 -285.498981 
L 498.462649 -284.806897 
L 504.306922 -283.007478 
L 510.151195 -284.806897 
L 515.995469 -283.561145 
L 521.839742 -287.436817 
L 527.684015 -287.436817 
L 533.528289 -287.575234 
L 539.372562 -286.744732 
L 545.216835 -282.176976 
L 551.061108 -281.761726 
L 556.905382 -279.408639 
L 562.749655 -273.456715 
L 568.593928 -269.857877 
L 574.438201 -269.857877 
L 580.282475 -267.643207 
L 586.126748 -266.397456 
L 591.971021 -256.569859 
L 597.815295 -243.697092 
L 603.659568 -244.66601 
L 609.503841 -244.527593 
L 615.348114 -244.527593 
L 621.192388 -243.973926 
L 627.036661 -241.205589 
L 632.880934 -241.205589 
L 638.725208 -241.205589 
L 644.569481 -246.188596 
L 650.413754 -249.649017 
L 656.258027 -250.756352 
L 662.102301 -247.019097 
L 667.946574 -250.202684 
L 673.790847 -248.541682 
L 673.790847 -499.353013 
L 673.790847 -499.353013 
L 667.946574 -497.415177 
L 662.102301 -491.324836 
L 656.258027 -505.166521 
L 650.413754 -511.533696 
L 644.569481 -509.457443 
L 638.725208 -509.319026 
L 632.880934 -497.138344 
L 627.036661 -490.355918 
L 621.192388 -493.954756 
L 615.348114 -482.050907 
L 609.503841 -493.677922 
L 603.659568 -501.567683 
L 597.815295 -497.276761 
L 591.971021 -508.073275 
L 586.126748 -498.107262 
L 580.282475 -493.816339 
L 574.438201 -473.053812 
L 568.593928 -465.856136 
L 562.749655 -462.395714 
L 556.905382 -467.378721 
L 551.061108 -467.793972 
L 545.216835 -469.870224 
L 539.372562 -478.590486 
L 533.528289 -497.276761 
L 527.684015 -521.499709 
L 521.839742 -520.253958 
L 515.995469 -519.28504 
L 510.151195 -505.443355 
L 504.306922 -500.183514 
L 498.462649 -495.477341 
L 492.618376 -502.536601 
L 486.774102 -510.287944 
L 480.929829 -515.270951 
L 475.085556 -525.929048 
L 469.241282 -535.06456 
L 463.397009 -535.202977 
L 457.552736 -535.202977 
L 451.708463 -526.897966 
L 445.864189 -529.251053 
L 440.019916 -534.372476 
L 434.175643 -513.609949 
L 428.331369 -505.166521 
L 422.487096 -505.581771 
L 416.642823 -510.703195 
L 410.79855 -503.090268 
L 404.954276 -505.858605 
L 399.110003 -510.287944 
L 393.26573 -500.183514 
L 387.421457 -499.768264 
L 381.577183 -494.785257 
L 375.73291 -488.556499 
L 369.888637 -479.974654 
L 364.044363 -483.988743 
L 358.20009 -499.49143 
L 352.355817 -496.031009 
L 346.511544 -497.692011 
L 340.66727 -498.799346 
L 334.822997 -506.689106 
L 328.978724 -528.835802 
L 323.13445 -535.341394 
L 317.290177 -536.171895 
L 311.445904 -532.43464 
L 305.601631 -526.067465 
L 299.757357 -525.929048 
L 293.913084 -517.07037 
L 288.068811 -506.273856 
L 282.224537 -488.694916 
L 276.380264 -479.28257 
L 270.535991 -477.621568 
L 264.691718 -475.268481 
L 258.847444 -460.181045 
L 253.003171 -441.771604 
L 247.158898 -423.223746 
L 241.314624 -401.215467 
L 235.470351 -391.526288 
L 229.626078 -385.159112 
L 223.781805 -384.743862 
L 217.937531 -388.481117 
L 212.093258 -398.585547 
L 206.248985 -398.585547 
L 200.404712 -396.094044 
L 194.560438 -385.574363 
L 188.716165 -383.221277 
L 182.871892 -381.698691 
L 177.027618 -368.272257 
L 171.183345 -343.218807 
L 165.339072 -316.781189 
L 159.494799 -304.323672 
L 153.650525 -292.419823 
L 147.806252 -288.820985 
L 141.961979 -284.806897 
L 136.117705 -276.778719 
L 130.273432 -259.753447 
L 124.429159 -221.688813 
L 118.584886 -198.850033 
L 112.740612 -180.855843 
L 106.896339 -162.446402 
L 101.052066 -129.780025 
L 95.207792 -89.639139 
z
" style="stroke: #ffffff; stroke-opacity: 0.2"/>
    </defs>
    <g clip-path="url(#p837b217d4b)">
     <use xlink:href="#ma9ff44b96d" x="0" y="576" style="fill: #55a868; fill-opacity: 0.2; stroke: #ffffff; stroke-opacity: 0.2"/>
    </g>
   </g>
   <g id="line2d_14">
    <path d="M 95.207792 486.360861 
L 101.052066 460.615327 
L 106.896339 450.580106 
L 112.740612 438.676257 
L 118.584886 430.025203 
L 124.429159 417.913729 
L 130.273432 408.293758 
L 136.117705 400.888457 
L 141.961979 390.161151 
L 147.806252 387.669648 
L 153.650525 392.721863 
L 159.494799 396.666743 
L 165.339072 397.981703 
L 171.183345 393.829197 
L 177.027618 390.576401 
L 182.871892 390.853235 
L 188.716165 392.652654 
L 194.560438 394.244448 
L 200.404712 392.860279 
L 206.248985 391.545319 
L 212.093258 395.697825 
L 217.937531 395.628616 
L 223.781805 401.580541 
L 229.626078 399.642705 
L 235.470351 400.196372 
L 241.314624 397.497244 
L 247.158898 396.735951 
L 253.003171 403.79521 
L 258.847444 394.313656 
L 264.691718 392.652654 
L 270.535991 392.237404 
L 276.380264 389.676692 
L 282.224537 387.046772 
L 288.068811 397.289619 
L 293.913084 401.649749 
L 299.757357 406.286714 
L 305.601631 394.313656 
L 311.445904 388.638565 
L 317.290177 391.683736 
L 323.13445 391.06086 
L 328.978724 391.476111 
L 334.822997 396.113075 
L 340.66727 390.437984 
L 346.511544 387.11598 
L 352.355817 390.091942 
L 358.20009 391.199277 
L 364.044363 389.33065 
L 369.888637 386.908355 
L 375.73291 393.137113 
L 381.577183 396.666743 
L 387.421457 399.296663 
L 393.26573 397.289619 
L 399.110003 393.552364 
L 404.954276 393.621572 
L 410.79855 393.206321 
L 416.642823 392.306612 
L 422.487096 393.483155 
L 428.331369 391.406902 
L 434.175643 386.354687 
L 440.019916 383.101891 
L 445.864189 380.748805 
L 451.708463 386.423896 
L 457.552736 394.659698 
L 463.397009 390.299568 
L 469.241282 399.504288 
L 475.085556 394.313656 
L 480.929829 396.251492 
L 486.774102 394.313656 
L 492.618376 395.005741 
L 498.462649 396.043867 
L 504.306922 400.680831 
L 510.151195 402.826293 
L 515.995469 405.248587 
L 521.839742 391.752945 
L 527.684015 394.452073 
L 533.528289 397.289619 
L 539.372562 392.168195 
L 545.216835 392.791071 
L 551.061108 389.953526 
L 556.905382 399.227454 
L 562.749655 405.525421 
L 568.593928 391.406902 
L 574.438201 393.413947 
L 580.282475 390.784027 
L 586.126748 391.614528 
L 591.971021 398.604579 
L 597.815295 400.403998 
L 603.659568 400.127164 
L 609.503841 403.241543 
L 615.348114 399.504288 
L 621.192388 402.549459 
L 627.036661 402.687876 
L 632.880934 403.933627 
L 638.725208 406.355922 
L 644.569481 401.372916 
L 650.413754 399.642705 
L 656.258027 392.791071 
L 662.102301 407.255632 
L 667.946574 409.124259 
L 673.790847 402.618667 
" clip-path="url(#p837b217d4b)" style="fill: none; stroke: #4c72b0; stroke-width: 2; stroke-linecap: round"/>
   </g>
   <g id="line2d_15">
    <path d="M 95.207792 486.360861 
L 101.052066 461.238203 
L 106.896339 447.258101 
L 112.740612 434.662168 
L 118.584886 422.343068 
L 124.429159 412.792306 
L 130.273432 404.072044 
L 136.117705 395.213366 
L 141.961979 391.130069 
L 147.806252 385.593395 
L 153.650525 377.91126 
L 159.494799 369.744665 
L 165.339072 361.993322 
L 171.183345 358.602109 
L 177.027618 359.224985 
L 182.871892 358.532901 
L 188.716165 355.48773 
L 194.560438 348.428471 
L 200.404712 344.48359 
L 206.248985 342.130504 
L 212.093258 335.970954 
L 217.937531 339.431375 
L 223.781805 335.209662 
L 229.626078 333.0642 
L 235.470351 332.233699 
L 241.314624 332.372116 
L 247.158898 332.233699 
L 253.003171 336.040163 
L 258.847444 336.801455 
L 264.691718 339.639001 
L 270.535991 342.199712 
L 276.380264 352.234934 
L 282.224537 342.891797 
L 288.068811 335.348078 
L 293.913084 339.569792 
L 299.757357 340.331085 
L 305.601631 343.16863 
L 311.445904 345.3833 
L 317.290177 349.466597 
L 323.13445 333.202617 
L 328.978724 331.264781 
L 334.822997 332.233699 
L 340.66727 332.372116 
L 346.511544 330.572697 
L 352.355817 325.520482 
L 358.20009 318.253597 
L 364.044363 325.451274 
L 369.888637 325.105232 
L 375.73291 332.302908 
L 381.577183 331.956866 
L 387.421457 330.01903 
L 393.26573 329.465362 
L 399.110003 332.233699 
L 404.954276 322.54452 
L 410.79855 321.852436 
L 416.642823 320.32985 
L 422.487096 314.585551 
L 428.331369 307.5955 
L 434.175643 301.159117 
L 440.019916 304.757955 
L 445.864189 315.000802 
L 451.708463 316.661804 
L 457.552736 306.626582 
L 463.397009 293.407773 
L 469.241282 293.061731 
L 475.085556 294.653525 
L 480.929829 303.096952 
L 486.774102 300.190199 
L 492.618376 310.502254 
L 498.462649 317.769139 
L 504.306922 329.11932 
L 510.151195 318.738056 
L 515.995469 317.423096 
L 521.839742 319.01489 
L 527.684015 312.578507 
L 533.528289 321.714019 
L 539.372562 322.821354 
L 545.216835 326.627817 
L 551.061108 322.060061 
L 556.905382 324.205522 
L 562.749655 323.790271 
L 568.593928 315.346844 
L 574.438201 313.824258 
L 580.282475 320.122225 
L 586.126748 332.64895 
L 591.971021 329.949821 
L 597.815295 322.613728 
L 603.659568 314.516343 
L 609.503841 323.305812 
L 615.348114 320.952726 
L 621.192388 319.9146 
L 627.036661 327.596735 
L 632.880934 324.205522 
L 638.725208 330.503489 
L 644.569481 333.479451 
L 650.413754 339.362167 
L 656.258027 338.462458 
L 662.102301 337.285914 
L 667.946574 339.708209 
L 673.790847 337.631956 
" clip-path="url(#p837b217d4b)" style="fill: none; stroke: #dd8452; stroke-width: 2; stroke-linecap: round"/>
   </g>
   <g id="line2d_16">
    <path d="M 95.207792 486.360861 
L 101.052066 456.601239 
L 106.896339 445.181848 
L 112.740612 430.786496 
L 118.584886 422.896736 
L 124.429159 414.384099 
L 130.273432 397.289619 
L 136.117705 385.039727 
L 141.961979 377.219175 
L 147.806252 367.114745 
L 153.650525 365.107701 
L 159.494799 357.010315 
L 165.339072 352.165726 
L 171.183345 350.573932 
L 177.027618 336.870664 
L 182.871892 329.672988 
L 188.716165 321.091143 
L 194.560438 312.85534 
L 200.404712 306.28054 
L 206.248985 296.452944 
L 212.093258 293.338565 
L 217.937531 289.808935 
L 223.781805 289.462893 
L 229.626078 287.732682 
L 235.470351 278.320336 
L 241.314624 276.866959 
L 247.158898 272.43762 
L 253.003171 264.755485 
L 258.847444 255.827598 
L 264.691718 249.045173 
L 270.535991 244.131375 
L 276.380264 241.363038 
L 282.224537 225.237475 
L 288.068811 219.077925 
L 293.913084 215.34067 
L 299.757357 210.219246 
L 305.601631 211.118956 
L 311.445904 215.479087 
L 317.290177 212.641541 
L 323.13445 209.527162 
L 328.978724 208.696661 
L 334.822997 203.367612 
L 340.66727 199.07669 
L 346.511544 197.484896 
L 352.355817 195.754686 
L 358.20009 199.491941 
L 364.044363 189.802761 
L 369.888637 186.34234 
L 375.73291 188.903052 
L 381.577183 190.356429 
L 387.421457 185.44263 
L 393.26573 182.881919 
L 399.110003 181.0825 
L 404.954276 184.819755 
L 410.79855 185.44263 
L 416.642823 187.172841 
L 422.487096 188.418593 
L 428.331369 191.671389 
L 434.175643 194.162892 
L 440.019916 195.477852 
L 445.864189 194.854976 
L 451.708463 196.44677 
L 457.552736 205.305448 
L 463.397009 202.537111 
L 469.241282 202.952362 
L 475.085556 202.813945 
L 480.929829 201.152943 
L 486.774102 197.554105 
L 492.618376 203.298404 
L 498.462649 190.28722 
L 504.306922 180.598041 
L 510.151195 178.037329 
L 515.995469 185.096588 
L 521.839742 184.681338 
L 527.684015 191.18693 
L 533.528289 183.435586 
L 539.372562 182.39746 
L 545.216835 180.874874 
L 551.061108 180.459624 
L 556.905382 180.528832 
L 562.749655 178.175746 
L 568.593928 180.113582 
L 574.438201 179.905956 
L 580.282475 181.843792 
L 586.126748 188.695426 
L 591.971021 189.802761 
L 597.815295 185.02738 
L 603.659568 184.266087 
L 609.503841 180.459624 
L 615.348114 180.321207 
L 621.192388 180.390415 
L 627.036661 188.210967 
L 632.880934 187.795717 
L 638.725208 201.914236 
L 644.569481 208.76587 
L 650.413754 211.880249 
L 656.258027 216.517213 
L 662.102301 223.853306 
L 667.946574 234.096153 
L 673.790847 225.237475 
" clip-path="url(#p837b217d4b)" style="fill: none; stroke: #55a868; stroke-width: 2; stroke-linecap: round"/>
   </g>
   <g id="patch_3">
    <path d="M 66.27864 513.338305 
L 66.27864 17.28 
" style="fill: none; stroke: #cccccc; stroke-width: 1.25; stroke-linejoin: miter; stroke-linecap: square"/>
   </g>
   <g id="patch_4">
    <path d="M 702.72 513.338305 
L 702.72 17.28 
" style="fill: none; stroke: #cccccc; stroke-width: 1.25; stroke-linejoin: miter; stroke-linecap: square"/>
   </g>
   <g id="patch_5">
    <path d="M 66.27864 513.338305 
L 702.72 513.338305 
" style="fill: none; stroke: #cccccc; stroke-width: 1.25; stroke-linejoin: miter; stroke-linecap: square"/>
   </g>
   <g id="patch_6">
    <path d="M 66.27864 17.28 
L 702.72 17.28 
" style="fill: none; stroke: #cccccc; stroke-width: 1.25; stroke-linejoin: miter; stroke-linecap: square"/>
   </g>
   <g id="legend_1">
    <g id="patch_7">
     <path d="M 80.27864 148.162063 
L 185.805227 148.162063 
Q 189.805227 148.162063 189.805227 144.162063 
L 189.805227 31.28 
Q 189.805227 27.28 185.805227 27.28 
L 80.27864 27.28 
Q 76.27864 27.28 76.27864 31.28 
L 76.27864 144.162063 
Q 76.27864 148.162063 80.27864 148.162063 
z
" style="fill: #ffffff; opacity: 0.8; stroke: #cccccc; stroke-linejoin: miter"/>
    </g>
    <g id="text_16">
     <!-- $\alpha$ -->
     <g style="fill: #262626" transform="translate(125.596328 51.884405) scale(0.24 -0.24)">
      <defs>
       <path id="CMMI12-b" d="M 2963 1616 
C 2963 2235 2611 2815 1933 2815 
C 1094 2815 256 1902 256 996 
C 256 441 602 -64 1254 -64 
C 1651 -64 2125 89 2579 472 
C 2669 115 2867 -64 3142 -64 
C 3488 -64 3661 294 3661 377 
C 3661 434 3616 434 3597 434 
C 3546 434 3539 415 3520 364 
C 3462 204 3315 64 3162 64 
C 2963 64 2963 472 2963 862 
C 3616 1641 3770 2446 3770 2452 
C 3770 2510 3718 2510 3699 2510 
C 3642 2510 3635 2491 3610 2376 
C 3526 2095 3360 1597 2963 1073 
L 2963 1616 
z
M 2560 626 
C 1997 121 1491 64 1267 64 
C 813 64 685 466 685 766 
C 685 1040 826 1692 1024 2044 
C 1286 2491 1645 2688 1933 2688 
C 2554 2688 2554 1877 2554 1341 
C 2554 1182 2547 1016 2547 856 
C 2547 728 2554 696 2560 626 
z
" transform="scale(0.015625)"/>
      </defs>
      <use xlink:href="#CMMI12-b" transform="scale(0.996264)"/>
     </g>
    </g>
    <g id="line2d_17">
     <path d="M 84.27864 73.535163 
L 104.27864 73.535163 
L 124.27864 73.535163 
" style="fill: none; stroke: #4c72b0; stroke-width: 2; stroke-linecap: round"/>
    </g>
    <g id="text_17">
     <!-- 0.01 -->
     <g style="fill: #262626" transform="translate(140.27864 80.535163) scale(0.2 -0.2)">
      <defs>
       <path id="CMR17-2e" d="M 1062 261 
C 1062 420 934 522 800 522 
C 672 522 538 420 538 261 
C 538 102 666 0 800 0 
C 928 0 1062 102 1062 261 
z
" transform="scale(0.015625)"/>
      </defs>
      <use xlink:href="#CMR17-30" transform="scale(0.996264)"/>
      <use xlink:href="#CMR17-2e" transform="translate(45.690477 0) scale(0.996264)"/>
      <use xlink:href="#CMR17-30" transform="translate(70.561536 0) scale(0.996264)"/>
      <use xlink:href="#CMR17-31" transform="translate(116.252013 0) scale(0.996264)"/>
     </g>
    </g>
    <g id="line2d_18">
     <path d="M 84.27864 101.410796 
L 104.27864 101.410796 
L 124.27864 101.410796 
" style="fill: none; stroke: #dd8452; stroke-width: 2; stroke-linecap: round"/>
    </g>
    <g id="text_18">
     <!-- 0.004 -->
     <g style="fill: #262626" transform="translate(140.27864 108.410796) scale(0.2 -0.2)">
      <use xlink:href="#CMR17-30" transform="scale(0.996264)"/>
      <use xlink:href="#CMR17-2e" transform="translate(45.690477 0) scale(0.996264)"/>
      <use xlink:href="#CMR17-30" transform="translate(70.561536 0) scale(0.996264)"/>
      <use xlink:href="#CMR17-30" transform="translate(116.252013 0) scale(0.996264)"/>
      <use xlink:href="#CMR17-34" transform="translate(161.94249 0) scale(0.996264)"/>
     </g>
    </g>
    <g id="line2d_19">
     <path d="M 84.27864 129.28643 
L 104.27864 129.28643 
L 124.27864 129.28643 
" style="fill: none; stroke: #55a868; stroke-width: 2; stroke-linecap: round"/>
    </g>
    <g id="text_19">
     <!-- 0.002 -->
     <g style="fill: #262626" transform="translate(140.27864 136.28643) scale(0.2 -0.2)">
      <use xlink:href="#CMR17-30" transform="scale(0.996264)"/>
      <use xlink:href="#CMR17-2e" transform="translate(45.690477 0) scale(0.996264)"/>
      <use xlink:href="#CMR17-30" transform="translate(70.561536 0) scale(0.996264)"/>
      <use xlink:href="#CMR17-30" transform="translate(116.252013 0) scale(0.996264)"/>
      <use xlink:href="#CMR17-32" transform="translate(161.94249 0) scale(0.996264)"/>
     </g>
    </g>
   </g>
  </g>
 </g>
 <defs>
  <clipPath id="p837b217d4b">
   <rect x="66.27864" y="17.28" width="636.44136" height="496.058305"/>
  </clipPath>
 </defs>
</svg>
