<?xml version="1.0" encoding="utf-8" standalone="no"?>
<!DOCTYPE svg PUBLIC "-//W3C//DTD SVG 1.1//EN"
  "http://www.w3.org/Graphics/SVG/1.1/DTD/svg11.dtd">
<svg xmlns:xlink="http://www.w3.org/1999/xlink" width="720pt" height="576pt" viewBox="0 0 720 576" xmlns="http://www.w3.org/2000/svg" version="1.1">
 <metadata>
  <rdf:RDF xmlns:dc="http://purl.org/dc/elements/1.1/" xmlns:cc="http://creativecommons.org/ns#" xmlns:rdf="http://www.w3.org/1999/02/22-rdf-syntax-ns#">
   <cc:Work>
    <dc:type rdf:resource="http://purl.org/dc/dcmitype/StillImage"/>
    <dc:date>2025-04-24T18:57:32.869050</dc:date>
    <dc:format>image/svg+xml</dc:format>
    <dc:creator>
     <cc:Agent>
      <dc:title>Matplotlib v3.9.2, https://matplotlib.org/</dc:title>
     </cc:Agent>
    </dc:creator>
   </cc:Work>
  </rdf:RDF>
 </metadata>
 <defs>
  <style type="text/css">*{stroke-linejoin: round; stroke-linecap: butt}</style>
 </defs>
 <g id="figure_1">
  <g id="patch_1">
   <path d="M 0 576 
L 720 576 
L 720 0 
L 0 0 
z
" style="fill: #ffffff"/>
  </g>
  <g id="axes_1">
   <g id="patch_2">
    <path d="M 83.392615 495.840956 
L 694.08 495.840956 
L 694.08 49.831226 
L 83.392615 49.831226 
z
" style="fill: #ffffff"/>
   </g>
   <g id="matplotlib.axis_1">
    <g id="xtick_1">
     <g id="line2d_1">
      <path d="M 111.151132 495.840956 
L 111.151132 49.831226 
" clip-path="url(#p4107748c61)" style="fill: none; stroke: #cccccc; stroke-linecap: round"/>
     </g>
     <g id="text_1">
      <!-- $\mathdefault{0}$ -->
      <g style="fill: #262626" transform="translate(106.12518 520.56165) scale(0.22 -0.22)">
       <defs>
        <path id="CMR17-30" d="M 2688 2025 
C 2688 2416 2682 3080 2413 3591 
C 2176 4039 1798 4198 1466 4198 
C 1158 4198 768 4058 525 3597 
C 269 3118 243 2524 243 2025 
C 243 1661 250 1106 448 619 
C 723 -39 1216 -128 1466 -128 
C 1760 -128 2208 -7 2470 600 
C 2662 1042 2688 1559 2688 2025 
z
M 1466 -26 
C 1056 -26 813 325 723 812 
C 653 1188 653 1738 653 2096 
C 653 2588 653 2997 736 3387 
C 858 3929 1216 4096 1466 4096 
C 1728 4096 2067 3923 2189 3400 
C 2272 3036 2278 2607 2278 2096 
C 2278 1680 2278 1169 2202 792 
C 2067 95 1690 -26 1466 -26 
z
" transform="scale(0.015625)"/>
       </defs>
       <use xlink:href="#CMR17-30" transform="scale(0.996264)"/>
      </g>
     </g>
    </g>
    <g id="xtick_2">
     <g id="line2d_2">
      <path d="M 223.306759 495.840956 
L 223.306759 49.831226 
" clip-path="url(#p4107748c61)" style="fill: none; stroke: #cccccc; stroke-linecap: round"/>
     </g>
     <g id="text_2">
      <!-- $\mathdefault{200}$ -->
      <g style="fill: #262626" transform="translate(208.228901 520.56165) scale(0.22 -0.22)">
       <defs>
        <path id="CMR17-32" d="M 2669 989 
L 2554 989 
C 2490 536 2438 459 2413 420 
C 2381 369 1920 369 1830 369 
L 602 369 
C 832 619 1280 1072 1824 1597 
C 2214 1967 2669 2402 2669 3035 
C 2669 3790 2067 4224 1395 4224 
C 691 4224 262 3604 262 3030 
C 262 2780 448 2748 525 2748 
C 589 2748 781 2787 781 3010 
C 781 3207 614 3264 525 3264 
C 486 3264 448 3258 422 3245 
C 544 3790 915 4058 1306 4058 
C 1862 4058 2227 3617 2227 3035 
C 2227 2479 1901 2000 1536 1584 
L 262 146 
L 262 0 
L 2515 0 
L 2669 989 
z
" transform="scale(0.015625)"/>
       </defs>
       <use xlink:href="#CMR17-32" transform="scale(0.996264)"/>
       <use xlink:href="#CMR17-30" transform="translate(45.690477 0) scale(0.996264)"/>
       <use xlink:href="#CMR17-30" transform="translate(91.380954 0) scale(0.996264)"/>
      </g>
     </g>
    </g>
    <g id="xtick_3">
     <g id="line2d_3">
      <path d="M 335.462385 495.840956 
L 335.462385 49.831226 
" clip-path="url(#p4107748c61)" style="fill: none; stroke: #cccccc; stroke-linecap: round"/>
     </g>
     <g id="text_3">
      <!-- $\mathdefault{400}$ -->
      <g style="fill: #262626" transform="translate(320.384528 520.56165) scale(0.22 -0.22)">
       <defs>
        <path id="CMR17-34" d="M 2150 4122 
C 2150 4256 2144 4256 2029 4256 
L 128 1254 
L 128 1088 
L 1779 1088 
L 1779 457 
C 1779 224 1766 160 1318 160 
L 1197 160 
L 1197 0 
C 1402 0 1747 0 1965 0 
C 2182 0 2528 0 2733 0 
L 2733 160 
L 2611 160 
C 2163 160 2150 224 2150 457 
L 2150 1088 
L 2803 1088 
L 2803 1254 
L 2150 1254 
L 2150 4122 
z
M 1798 3703 
L 1798 1254 
L 256 1254 
L 1798 3703 
z
" transform="scale(0.015625)"/>
       </defs>
       <use xlink:href="#CMR17-34" transform="scale(0.996264)"/>
       <use xlink:href="#CMR17-30" transform="translate(45.690477 0) scale(0.996264)"/>
       <use xlink:href="#CMR17-30" transform="translate(91.380954 0) scale(0.996264)"/>
      </g>
     </g>
    </g>
    <g id="xtick_4">
     <g id="line2d_4">
      <path d="M 447.618011 495.840956 
L 447.618011 49.831226 
" clip-path="url(#p4107748c61)" style="fill: none; stroke: #cccccc; stroke-linecap: round"/>
     </g>
     <g id="text_4">
      <!-- $\mathdefault{600}$ -->
      <g style="fill: #262626" transform="translate(432.540154 520.56165) scale(0.22 -0.22)">
       <defs>
        <path id="CMR17-36" d="M 678 2176 
C 678 3690 1395 4032 1811 4032 
C 1946 4032 2272 4009 2400 3776 
C 2298 3776 2106 3776 2106 3553 
C 2106 3381 2246 3323 2336 3323 
C 2394 3323 2566 3348 2566 3560 
C 2566 3954 2246 4179 1805 4179 
C 1043 4179 243 3390 243 1984 
C 243 253 966 -128 1478 -128 
C 2099 -128 2688 427 2688 1283 
C 2688 2081 2170 2662 1517 2662 
C 1126 2662 838 2407 678 1960 
L 678 2176 
z
M 1478 25 
C 691 25 691 1200 691 1436 
C 691 1896 909 2560 1504 2560 
C 1613 2560 1926 2560 2138 2120 
C 2253 1870 2253 1609 2253 1289 
C 2253 944 2253 690 2118 434 
C 1978 171 1773 25 1478 25 
z
" transform="scale(0.015625)"/>
       </defs>
       <use xlink:href="#CMR17-36" transform="scale(0.996264)"/>
       <use xlink:href="#CMR17-30" transform="translate(45.690477 0) scale(0.996264)"/>
       <use xlink:href="#CMR17-30" transform="translate(91.380954 0) scale(0.996264)"/>
      </g>
     </g>
    </g>
    <g id="xtick_5">
     <g id="line2d_5">
      <path d="M 559.773638 495.840956 
L 559.773638 49.831226 
" clip-path="url(#p4107748c61)" style="fill: none; stroke: #cccccc; stroke-linecap: round"/>
     </g>
     <g id="text_5">
      <!-- $\mathdefault{800}$ -->
      <g style="fill: #262626" transform="translate(544.69578 520.56165) scale(0.22 -0.22)">
       <defs>
        <path id="CMR17-38" d="M 1741 2264 
C 2144 2467 2554 2773 2554 3263 
C 2554 3841 1990 4179 1472 4179 
C 890 4179 378 3759 378 3180 
C 378 3021 416 2747 666 2505 
C 730 2442 998 2251 1171 2130 
C 883 1983 211 1634 211 934 
C 211 279 838 -128 1459 -128 
C 2144 -128 2720 362 2720 1010 
C 2720 1590 2330 1857 2074 2029 
L 1741 2264 
z
M 902 2822 
C 851 2854 595 3051 595 3351 
C 595 3739 998 4032 1459 4032 
C 1965 4032 2336 3676 2336 3262 
C 2336 2669 1670 2331 1638 2331 
C 1632 2331 1626 2331 1574 2370 
L 902 2822 
z
M 2080 1519 
C 2176 1449 2483 1240 2483 851 
C 2483 381 2010 25 1472 25 
C 890 25 448 438 448 940 
C 448 1443 838 1862 1280 2060 
L 2080 1519 
z
" transform="scale(0.015625)"/>
       </defs>
       <use xlink:href="#CMR17-38" transform="scale(0.996264)"/>
       <use xlink:href="#CMR17-30" transform="translate(45.690477 0) scale(0.996264)"/>
       <use xlink:href="#CMR17-30" transform="translate(91.380954 0) scale(0.996264)"/>
      </g>
     </g>
    </g>
    <g id="xtick_6">
     <g id="line2d_6">
      <path d="M 671.929264 495.840956 
L 671.929264 49.831226 
" clip-path="url(#p4107748c61)" style="fill: none; stroke: #cccccc; stroke-linecap: round"/>
     </g>
     <g id="text_6">
      <!-- $\mathdefault{1000}$ -->
      <g style="fill: #262626" transform="translate(651.825454 520.56165) scale(0.22 -0.22)">
       <defs>
        <path id="CMR17-31" d="M 1702 4058 
C 1702 4192 1696 4192 1606 4192 
C 1357 3916 979 3827 621 3827 
C 602 3827 570 3827 563 3808 
C 557 3795 557 3782 557 3648 
C 755 3648 1088 3686 1344 3839 
L 1344 461 
C 1344 236 1331 160 781 160 
L 589 160 
L 589 0 
C 896 0 1216 0 1523 0 
C 1830 0 2150 0 2458 0 
L 2458 160 
L 2266 160 
C 1715 160 1702 230 1702 458 
L 1702 4058 
z
" transform="scale(0.015625)"/>
       </defs>
       <use xlink:href="#CMR17-31" transform="scale(0.996264)"/>
       <use xlink:href="#CMR17-30" transform="translate(45.690477 0) scale(0.996264)"/>
       <use xlink:href="#CMR17-30" transform="translate(91.380954 0) scale(0.996264)"/>
       <use xlink:href="#CMR17-30" transform="translate(137.071431 0) scale(0.996264)"/>
      </g>
     </g>
    </g>
    <g id="text_7">
     <!-- Step -->
     <g style="fill: #262626" transform="translate(367.649451 545.429243) scale(0.24 -0.24)">
      <defs>
       <path id="CMSS17-53" d="M 2797 4169 
C 2515 4334 2208 4480 1690 4480 
C 864 4480 333 3879 333 3266 
C 333 3025 403 2753 653 2475 
C 902 2196 1184 2121 1542 2033 
C 1690 1994 1939 1924 1984 1906 
C 2342 1767 2515 1444 2515 1140 
C 2515 742 2202 318 1645 318 
C 1453 318 890 318 358 819 
L 269 318 
C 794 -64 1363 -128 1651 -128 
C 2438 -128 3002 488 3002 1186 
C 3002 1440 2925 1763 2656 2061 
C 2394 2347 2163 2410 1638 2549 
C 1338 2626 1146 2677 986 2873 
C 877 3013 819 3146 819 3317 
C 819 3673 1126 4060 1690 4060 
C 1971 4060 2336 4002 2707 3660 
L 2797 4169 
z
" transform="scale(0.015625)"/>
       <path id="CMSS17-74" d="M 1069 2368 
L 1901 2368 
L 1901 2737 
L 1069 2737 
L 1069 3520 
L 614 3520 
L 614 2737 
L 109 2737 
L 109 2368 
L 602 2368 
L 602 749 
C 602 384 685 -64 1107 -64 
C 1427 -64 1722 25 2003 172 
L 1901 548 
C 1747 414 1562 337 1363 337 
C 1082 337 1069 696 1069 856 
L 1069 2368 
z
" transform="scale(0.015625)"/>
       <path id="CMSS17-65" d="M 2502 1377 
C 2502 1590 2490 2003 2285 2345 
C 2061 2713 1696 2816 1421 2816 
C 755 2816 192 2188 192 1375 
C 192 582 774 -64 1510 -64 
C 1798 -64 2150 19 2470 248 
C 2470 274 2458 414 2451 420 
C 2451 433 2432 630 2432 656 
C 2125 407 1773 325 1517 325 
C 1107 325 666 667 646 1377 
L 2502 1377 
z
M 698 1728 
C 781 2084 1062 2421 1421 2421 
C 1517 2421 1965 2421 2080 1728 
L 698 1728 
z
" transform="scale(0.015625)"/>
       <path id="CMSS17-70" d="M 966 333 
C 1178 129 1466 -5 1773 -5 
C 2368 -5 2880 603 2880 1412 
C 2880 2159 2496 2816 1946 2816 
C 1626 2816 1242 2702 954 2472 
L 954 2765 
L 480 2765 
L 480 -1216 
L 966 -1216 
L 966 333 
z
M 966 2100 
C 1018 2176 1235 2415 1587 2415 
C 2035 2415 2394 1960 2394 1412 
C 2394 787 1958 384 1530 384 
C 1402 384 1267 415 1139 523 
C 966 674 966 768 966 857 
L 966 2100 
z
" transform="scale(0.015625)"/>
      </defs>
      <use xlink:href="#CMSS17-53" transform="scale(0.996264)"/>
      <use xlink:href="#CMSS17-74" transform="translate(52.048516 0) scale(0.996264)"/>
      <use xlink:href="#CMSS17-65" transform="translate(85.880083 0) scale(0.996264)"/>
      <use xlink:href="#CMSS17-70" transform="translate(127.518905 0) scale(0.996264)"/>
     </g>
    </g>
   </g>
   <g id="matplotlib.axis_2">
    <g id="ytick_1">
     <g id="line2d_7">
      <path d="M 83.392615 487.546135 
L 694.08 487.546135 
" clip-path="url(#p4107748c61)" style="fill: none; stroke: #cccccc; stroke-linecap: round"/>
     </g>
     <g id="text_8">
      <!-- $\mathdefault{10}$ -->
      <g style="fill: #262626" transform="translate(53.788805 495.156482) scale(0.22 -0.22)">
       <use xlink:href="#CMR17-31" transform="scale(0.996264)"/>
       <use xlink:href="#CMR17-30" transform="translate(45.690477 0) scale(0.996264)"/>
      </g>
     </g>
    </g>
    <g id="ytick_2">
     <g id="line2d_8">
      <path d="M 83.392615 400.144831 
L 694.08 400.144831 
" clip-path="url(#p4107748c61)" style="fill: none; stroke: #cccccc; stroke-linecap: round"/>
     </g>
     <g id="text_9">
      <!-- $\mathdefault{12}$ -->
      <g style="fill: #262626" transform="translate(53.788805 407.755178) scale(0.22 -0.22)">
       <use xlink:href="#CMR17-31" transform="scale(0.996264)"/>
       <use xlink:href="#CMR17-32" transform="translate(45.690477 0) scale(0.996264)"/>
      </g>
     </g>
    </g>
    <g id="ytick_3">
     <g id="line2d_9">
      <path d="M 83.392615 312.743527 
L 694.08 312.743527 
" clip-path="url(#p4107748c61)" style="fill: none; stroke: #cccccc; stroke-linecap: round"/>
     </g>
     <g id="text_10">
      <!-- $\mathdefault{14}$ -->
      <g style="fill: #262626" transform="translate(53.788805 320.353874) scale(0.22 -0.22)">
       <use xlink:href="#CMR17-31" transform="scale(0.996264)"/>
       <use xlink:href="#CMR17-34" transform="translate(45.690477 0) scale(0.996264)"/>
      </g>
     </g>
    </g>
    <g id="ytick_4">
     <g id="line2d_10">
      <path d="M 83.392615 225.342223 
L 694.08 225.342223 
" clip-path="url(#p4107748c61)" style="fill: none; stroke: #cccccc; stroke-linecap: round"/>
     </g>
     <g id="text_11">
      <!-- $\mathdefault{16}$ -->
      <g style="fill: #262626" transform="translate(53.788805 232.952569) scale(0.22 -0.22)">
       <use xlink:href="#CMR17-31" transform="scale(0.996264)"/>
       <use xlink:href="#CMR17-36" transform="translate(45.690477 0) scale(0.996264)"/>
      </g>
     </g>
    </g>
    <g id="ytick_5">
     <g id="line2d_11">
      <path d="M 83.392615 137.940918 
L 694.08 137.940918 
" clip-path="url(#p4107748c61)" style="fill: none; stroke: #cccccc; stroke-linecap: round"/>
     </g>
     <g id="text_12">
      <!-- $\mathdefault{18}$ -->
      <g style="fill: #262626" transform="translate(53.788805 145.551265) scale(0.22 -0.22)">
       <use xlink:href="#CMR17-31" transform="scale(0.996264)"/>
       <use xlink:href="#CMR17-38" transform="translate(45.690477 0) scale(0.996264)"/>
      </g>
     </g>
    </g>
    <g id="ytick_6">
     <g id="line2d_12">
      <path d="M 83.392615 50.539614 
L 694.08 50.539614 
" clip-path="url(#p4107748c61)" style="fill: none; stroke: #cccccc; stroke-linecap: round"/>
     </g>
     <g id="text_13">
      <!-- $\mathdefault{20}$ -->
      <g style="fill: #262626" transform="translate(53.788805 58.149961) scale(0.22 -0.22)">
       <use xlink:href="#CMR17-32" transform="scale(0.996264)"/>
       <use xlink:href="#CMR17-30" transform="translate(45.690477 0) scale(0.996264)"/>
      </g>
     </g>
    </g>
    <g id="text_14">
     <!-- Peak Signal-to-Noise Ratio (PSNR), dB -->
     <g style="fill: #262626" transform="translate(43.831226 460.306706) rotate(-90) scale(0.24 -0.24)">
      <defs>
       <path id="CMSS17-50" d="M 2106 1856 
C 2874 1856 3501 2453 3501 3158 
C 3501 3850 2899 4453 2067 4453 
L 570 4453 
L 570 0 
L 1107 0 
L 1107 1856 
L 2106 1856 
z
M 1926 4096 
C 2669 4096 2995 3627 2995 3157 
C 2995 2720 2694 2226 1926 2226 
L 1094 2226 
L 1094 4096 
L 1926 4096 
z
" transform="scale(0.015625)"/>
       <path id="CMSS17-61" d="M 2406 1791 
C 2406 2392 1978 2808 1402 2808 
C 1120 2808 813 2757 461 2553 
L 499 2135 
C 659 2248 934 2432 1395 2432 
C 1722 2432 1920 2180 1920 1782 
L 1920 1536 
C 896 1536 256 1238 256 726 
C 256 461 416 -64 947 -64 
C 1043 -64 1562 -64 1933 217 
L 1933 -19 
L 2406 -19 
L 2406 1791 
z
M 1920 816 
C 1920 701 1920 548 1728 434 
C 1562 325 1350 325 1261 325 
C 941 325 723 511 723 744 
C 723 1211 1722 1211 1920 1211 
L 1920 816 
z
" transform="scale(0.015625)"/>
       <path id="CMSS17-6b" d="M 1696 1688 
L 2688 2739 
L 2074 2739 
L 954 1554 
L 954 4416 
L 480 4416 
L 480 0 
L 947 0 
L 947 892 
L 1376 1344 
L 2278 0 
L 2822 0 
L 1696 1688 
z
" transform="scale(0.015625)"/>
       <path id="CMSS17-69" d="M 979 4183 
L 442 4183 
L 442 3648 
L 979 3648 
L 979 4183 
z
M 947 2739 
L 474 2739 
L 474 0 
L 947 0 
L 947 2739 
z
" transform="scale(0.015625)"/>
       <path id="CMSS17-67" d="M 2848 2808 
C 2483 2808 2170 2738 1914 2617 
C 1702 2777 1485 2808 1338 2808 
C 781 2808 358 2349 358 1814 
C 358 1468 550 1207 563 1195 
C 448 1035 384 863 384 672 
C 384 448 474 289 544 200 
C 211 -3 166 -314 166 -435 
C 166 -898 749 -1280 1498 -1280 
C 2253 -1280 2835 -898 2835 -428 
C 2835 448 1856 448 1587 448 
L 1069 448 
C 973 448 717 448 717 791 
C 717 921 774 1004 781 1010 
C 877 940 1075 832 1338 832 
C 1869 832 2310 1278 2310 1827 
C 2310 2132 2170 2355 2112 2432 
L 2131 2432 
C 2150 2432 2419 2432 2515 2432 
C 2720 2432 2739 2429 2918 2419 
L 2848 2808 
z
M 1338 1182 
C 1120 1182 813 1315 813 1823 
C 813 2375 1165 2464 1331 2464 
C 1549 2464 1856 2331 1856 1823 
C 1856 1271 1504 1182 1338 1182 
z
M 1581 -10 
C 1734 -10 2381 -10 2381 -442 
C 2381 -714 1984 -929 1504 -929 
C 1018 -929 621 -720 621 -435 
C 621 -403 621 -10 1062 -10 
L 1581 -10 
z
" transform="scale(0.015625)"/>
       <path id="CMSS17-6e" d="M 2618 1877 
C 2618 2283 2522 2816 1798 2816 
C 1389 2816 1120 2606 941 2389 
L 941 2758 
L 474 2758 
L 474 0 
L 960 0 
L 960 1559 
C 960 1964 1114 2428 1549 2428 
C 2112 2428 2131 2048 2131 1829 
L 2131 0 
L 2618 0 
L 2618 1877 
z
" transform="scale(0.015625)"/>
       <path id="CMSS17-6c" d="M 947 4416 
L 474 4416 
L 474 0 
L 947 0 
L 947 4416 
z
" transform="scale(0.015625)"/>
       <path id="CMSS17-2d" d="M 1664 1216 
L 1664 1585 
L 64 1585 
L 64 1216 
L 1664 1216 
z
" transform="scale(0.015625)"/>
       <path id="CMSS17-6f" d="M 2829 1356 
C 2829 2176 2221 2816 1504 2816 
C 768 2816 173 2157 173 1356 
C 173 544 787 -64 1498 -64 
C 2227 -64 2829 563 2829 1356 
z
M 1504 337 
C 1050 337 659 709 659 1408 
C 659 2151 1114 2427 1498 2427 
C 1914 2427 2342 2126 2342 1408 
C 2342 683 1926 337 1504 337 
z
" transform="scale(0.015625)"/>
       <path id="CMSS17-4e" d="M 1466 4180 
L 1350 4416 
L 563 4416 
L 563 0 
L 1062 0 
L 1062 3926 
L 1069 3932 
C 1114 3817 1139 3760 1402 3194 
L 2771 236 
L 2886 0 
L 3674 0 
L 3674 4416 
L 3174 4416 
L 3174 490 
L 3168 483 
C 3123 598 3098 655 2835 1221 
L 1466 4180 
z
" transform="scale(0.015625)"/>
       <path id="CMSS17-73" d="M 2061 2627 
C 1683 2807 1389 2807 1197 2807 
C 742 2807 198 2648 198 2003 
C 198 1359 902 1218 1094 1179 
C 1389 1122 1715 1058 1715 740 
C 1715 337 1254 337 1171 337 
C 915 337 563 407 243 638 
L 166 210 
C 531 0 883 -64 1178 -64 
C 1965 -64 2163 416 2163 781 
C 2163 1094 1984 1305 1862 1401 
C 1651 1568 1574 1587 1050 1696 
C 960 1709 646 1779 646 2066 
C 646 2432 1050 2432 1139 2432 
C 1555 2432 1811 2303 1984 2208 
L 2061 2627 
z
" transform="scale(0.015625)"/>
       <path id="CMSS17-52" d="M 2522 2109 
L 2534 2115 
C 3533 2459 3539 3147 3539 3268 
C 3539 3873 2925 4453 2003 4453 
L 570 4453 
L 570 32 
L 1094 32 
L 1094 2048 
L 2035 2048 
L 3168 32 
L 3706 32 
L 2522 2109 
z
M 1094 2437 
L 1094 4096 
L 1933 4096 
C 2746 4096 3034 3637 3034 3267 
C 3034 2922 2778 2437 1933 2437 
L 1094 2437 
z
" transform="scale(0.015625)"/>
       <path id="CMSS17-28" d="M 1613 4768 
C 1267 4417 474 3601 474 1588 
C 474 -433 1267 -1243 1613 -1600 
L 2003 -1600 
C 1216 -784 960 357 960 1581 
C 960 2798 1203 3946 2003 4768 
L 1613 4768 
z
" transform="scale(0.015625)"/>
       <path id="CMSS17-29" d="M 723 -1600 
C 1069 -1249 1862 -433 1862 1581 
C 1862 3601 1069 4411 723 4768 
L 333 4768 
C 1120 3952 1376 2811 1376 1588 
C 1376 370 1133 -778 333 -1600 
L 723 -1600 
z
" transform="scale(0.015625)"/>
       <path id="CMSS17-2c" d="M 1088 6 
L 1088 510 
L 576 510 
L 576 0 
L 736 0 
L 570 -800 
L 826 -800 
L 1088 6 
z
" transform="scale(0.015625)"/>
       <path id="CMSS17-64" d="M 2611 4416 
L 2138 4416 
L 2138 2438 
C 1939 2603 1613 2756 1254 2756 
C 672 2756 211 2131 211 1347 
C 211 562 666 -64 1235 -64 
C 1677 -64 1971 172 2125 306 
L 2125 -13 
L 2611 -13 
L 2611 4416 
z
M 2125 836 
C 2125 747 2125 653 1926 482 
C 1798 375 1645 325 1498 325 
C 1152 325 698 576 698 1340 
C 698 2134 1210 2368 1562 2368 
C 1798 2368 1990 2254 2125 2065 
L 2125 836 
z
" transform="scale(0.015625)"/>
       <path id="CMSS17-42" d="M 570 4416 
L 570 0 
L 2163 0 
C 3034 0 3667 574 3667 1200 
C 3667 1685 3251 2176 2502 2317 
C 3334 2558 3501 3040 3501 3313 
C 3501 3883 2874 4416 1997 4416 
L 570 4416 
z
M 1088 2496 
L 1088 4059 
L 1824 4059 
C 2483 4059 3002 3724 3002 3306 
C 3002 2926 2592 2496 1766 2496 
L 1088 2496 
z
M 1088 357 
L 1088 2107 
L 1939 2107 
C 2630 2107 3162 1679 3162 1206 
C 3162 772 2694 357 1984 357 
L 1088 357 
z
" transform="scale(0.015625)"/>
      </defs>
      <use xlink:href="#CMSS17-50" transform="scale(0.996264)"/>
      <use xlink:href="#CMSS17-65" transform="translate(57.133132 0) scale(0.996264)"/>
      <use xlink:href="#CMSS17-61" transform="translate(98.771954 0) scale(0.996264)"/>
      <use xlink:href="#CMSS17-6b" transform="translate(143.693875 0) scale(0.996264)"/>
      <use xlink:href="#CMSS17-53" transform="translate(220.525477 0) scale(0.996264)"/>
      <use xlink:href="#CMSS17-69" transform="translate(272.573993 0) scale(0.996264)"/>
      <use xlink:href="#CMSS17-67" transform="translate(294.754716 0) scale(0.996264)"/>
      <use xlink:href="#CMSS17-6e" transform="translate(341.59834 0) scale(0.996264)"/>
      <use xlink:href="#CMSS17-61" transform="translate(389.803283 0) scale(0.996264)"/>
      <use xlink:href="#CMSS17-6c" transform="translate(434.725203 0) scale(0.996264)"/>
      <use xlink:href="#CMSS17-2d" transform="translate(456.905927 0) scale(0.996264)"/>
      <use xlink:href="#CMSS17-74" transform="translate(488.135039 0) scale(0.996264)"/>
      <use xlink:href="#CMSS17-6f" transform="translate(521.966606 0) scale(0.996264)"/>
      <use xlink:href="#CMSS17-2d" transform="translate(568.810229 0) scale(0.996264)"/>
      <use xlink:href="#CMSS17-4e" transform="translate(600.039342 0) scale(0.996264)"/>
      <use xlink:href="#CMSS17-6f" transform="translate(666.100861 0) scale(0.996264)"/>
      <use xlink:href="#CMSS17-69" transform="translate(712.944485 0) scale(0.996264)"/>
      <use xlink:href="#CMSS17-73" transform="translate(735.125208 0) scale(0.996264)"/>
      <use xlink:href="#CMSS17-65" transform="translate(771.03875 0) scale(0.996264)"/>
      <use xlink:href="#CMSS17-52" transform="translate(843.906685 0) scale(0.996264)"/>
      <use xlink:href="#CMSS17-61" transform="translate(904.32284 0) scale(0.996264)"/>
      <use xlink:href="#CMSS17-74" transform="translate(949.24476 0) scale(0.996264)"/>
      <use xlink:href="#CMSS17-69" transform="translate(983.076327 0) scale(0.996264)"/>
      <use xlink:href="#CMSS17-6f" transform="translate(1005.25705 0) scale(0.996264)"/>
      <use xlink:href="#CMSS17-28" transform="translate(1083.329786 0) scale(0.996264)"/>
      <use xlink:href="#CMSS17-50" transform="translate(1119.7637 0) scale(0.996264)"/>
      <use xlink:href="#CMSS17-53" transform="translate(1179.499287 0) scale(0.996264)"/>
      <use xlink:href="#CMSS17-4e" transform="translate(1231.547803 0) scale(0.996264)"/>
      <use xlink:href="#CMSS17-52" transform="translate(1297.609322 0) scale(0.996264)"/>
      <use xlink:href="#CMSS17-29" transform="translate(1358.025477 0) scale(0.996264)"/>
      <use xlink:href="#CMSS17-2c" transform="translate(1394.459391 0) scale(0.996264)"/>
      <use xlink:href="#CMSS17-64" transform="translate(1451.712709 0) scale(0.996264)"/>
      <use xlink:href="#CMSS17-42" transform="translate(1499.917652 0) scale(0.996264)"/>
     </g>
    </g>
   </g>
   <g id="PolyCollection_1">
    <defs>
     <path id="mcb2fab9d92" d="M 111.151132 -329.192017 
L 111.151132 -318.843703 
L 116.758914 -323.515302 
L 122.366695 -323.781876 
L 127.974476 -323.703215 
L 133.582258 -324.03971 
L 139.190039 -323.956679 
L 144.79782 -324.795731 
L 150.405602 -324.804472 
L 156.013383 -325.778996 
L 161.621164 -325.127856 
L 167.228946 -325.062305 
L 172.836727 -325.097266 
L 178.444508 -324.415536 
L 184.052289 -325.630414 
L 189.660071 -326.220373 
L 195.267852 -326.246593 
L 200.875633 -326.264073 
L 206.483415 -325.993129 
L 212.091196 -325.280809 
L 217.698977 -325.149707 
L 223.306759 -323.471602 
L 228.91454 -322.846682 
L 234.522321 -323.274949 
L 240.130103 -322.951564 
L 245.737884 -323.410421 
L 251.345665 -322.650029 
L 256.953447 -322.650029 
L 262.561228 -322.151842 
L 268.169009 -321.448262 
L 273.776791 -322.418416 
L 279.384572 -317.480242 
L 284.992353 -312.900414 
L 290.600134 -305.742247 
L 296.207916 -324.197033 
L 301.815697 -324.358725 
L 307.423478 -323.270579 
L 313.03126 -326.290294 
L 318.639041 -319.687125 
L 324.246822 -319.634684 
L 329.854604 -327.902848 
L 335.462385 -327.841667 
L 341.070166 -327.797966 
L 346.677948 -329.157057 
L 352.285729 -328.899223 
L 357.89351 -328.833672 
L 363.501292 -326.237853 
L 369.109073 -329.288159 
L 374.716854 -322.081921 
L 380.324635 -325.674115 
L 385.932417 -328.532137 
L 391.540198 -100.432213 
L 397.147979 -106.384242 
L 402.755761 -124.672965 
L 408.363542 -141.458386 
L 413.971323 -145.872151 
L 419.579105 -146.523291 
L 425.186886 -146.514551 
L 430.794667 -133.146521 
L 436.402449 -132.508492 
L 442.01023 -132.276879 
L 447.618011 -129.274644 
L 453.225793 -123.156552 
L 458.833574 -118.738416 
L 464.441355 -109.854074 
L 470.049137 -111.073322 
L 475.656918 -112.816978 
L 481.264699 -113.363236 
L 486.87248 -113.105402 
L 492.480262 -111.278715 
L 498.088043 -109.788523 
L 503.695824 -109.875924 
L 509.303606 -113.149103 
L 514.911387 -113.135993 
L 520.519168 -113.402567 
L 526.12695 -116.243109 
L 531.734731 -119.726051 
L 537.342512 -118.860778 
L 542.950294 -118.659755 
L 548.558075 -118.550504 
L 554.165856 -111.073322 
L 559.773638 -116.736927 
L 565.381419 -108.988801 
L 570.9892 -108.014276 
L 576.596981 -120.088767 
L 582.204763 -120.167428 
L 587.812544 -120.547623 
L 593.420325 -121.67947 
L 599.028107 -121.758132 
L 604.635888 -121.141952 
L 610.243669 -120.665615 
L 615.851451 -117.929954 
L 621.459232 -111.964815 
L 627.067013 -112.213909 
L 632.674795 -111.169464 
L 638.282576 -112.991781 
L 643.890357 -114.184809 
L 649.498139 -114.530044 
L 655.10592 -115.889134 
L 660.713701 -115.723071 
L 666.321482 -115.959055 
L 666.321482 -185.923799 
L 666.321482 -185.923799 
L 660.713701 -171.948331 
L 655.10592 -175.732807 
L 649.498139 -182.60255 
L 643.890357 -181.31338 
L 638.282576 -186.452577 
L 632.674795 -182.475818 
L 627.067013 -183.258059 
L 621.459232 -184.62152 
L 615.851451 -188.231194 
L 610.243669 -196.647939 
L 604.635888 -192.225433 
L 599.028107 -196.499357 
L 593.420325 -198.208052 
L 587.812544 -203.294808 
L 582.204763 -196.079831 
L 576.596981 -218.79106 
L 570.9892 -223.161125 
L 565.381419 -193.405351 
L 559.773638 -196.368255 
L 554.165856 -194.471647 
L 548.558075 -193.833617 
L 542.950294 -187.636865 
L 537.342512 -204.343624 
L 531.734731 -227.478749 
L 526.12695 -225.957967 
L 520.519168 -215.168276 
L 514.911387 -191.976339 
L 509.303606 -202.652409 
L 503.695824 -184.704551 
L 498.088043 -186.435097 
L 492.480262 -182.335976 
L 486.87248 -178.193154 
L 481.264699 -181.374561 
L 475.656918 -183.616405 
L 470.049137 -188.978475 
L 464.441355 -190.140912 
L 458.833574 -194.170112 
L 453.225793 -205.842556 
L 447.618011 -203.876027 
L 442.01023 -202.538787 
L 436.402449 -203.42591 
L 430.794667 -204.413545 
L 425.186886 -195.669045 
L 419.579105 -190.167132 
L 413.971323 -191.119807 
L 408.363542 -187.042536 
L 402.755761 -170.239635 
L 397.147979 -164.746463 
L 391.540198 -132.37739 
L 385.932417 -385.351725 
L 380.324635 -377.507458 
L 374.716854 -377.551159 
L 369.109073 -371.232044 
L 363.501292 -380.077056 
L 357.89351 -380.98166 
L 352.285729 -376.26636 
L 346.677948 -372.311451 
L 341.070166 -378.106157 
L 335.462385 -383.262834 
L 329.854604 -386.090266 
L 324.246822 -388.174787 
L 318.639041 -384.787987 
L 313.03126 -379.570129 
L 307.423478 -375.562779 
L 301.815697 -359.957276 
L 296.207916 -375.864314 
L 290.600134 -381.541028 
L 284.992353 -431.381622 
L 279.384572 -434.930115 
L 273.776791 -452.419116 
L 268.169009 -449.565463 
L 262.561228 -436.669401 
L 256.953447 -415.929071 
L 251.345665 -399.025659 
L 245.737884 -397.399995 
L 240.130103 -401.971083 
L 234.522321 -392.435601 
L 228.91454 -419.709178 
L 223.306759 -416.060173 
L 217.698977 -420.709923 
L 212.091196 -423.506765 
L 206.483415 -421.645117 
L 200.875633 -416.116984 
L 195.267852 -408.596102 
L 189.660071 -401.555927 
L 184.052289 -388.502542 
L 178.444508 -386.247589 
L 172.836727 -410.719954 
L 167.228946 -412.004753 
L 161.621164 -402.805766 
L 156.013383 -421.098859 
L 150.405602 -402.106555 
L 144.79782 -394.703665 
L 139.190039 -389.979624 
L 133.582258 -407.258862 
L 127.974476 -391.530997 
L 122.366695 -373.59625 
L 116.758914 -369.282995 
L 111.151132 -329.192017 
z
" style="stroke: #ffffff; stroke-opacity: 0.2"/>
    </defs>
    <g clip-path="url(#p4107748c61)">
     <use xlink:href="#mcb2fab9d92" x="0" y="576" style="fill: #4c72b0; fill-opacity: 0.2; stroke: #ffffff; stroke-opacity: 0.2"/>
    </g>
   </g>
   <g id="PolyCollection_2">
    <defs>
     <path id="mfa5f5f41fa" d="M 111.151132 -322.584478 
L 111.151132 -310.64546 
L 116.758914 -321.168577 
L 122.366695 -324.73018 
L 127.974476 -325.005495 
L 133.582258 -323.253098 
L 139.190039 -323.187547 
L 144.79782 -326.176672 
L 150.405602 -327.216748 
L 156.013383 -326.06742 
L 161.621164 -326.399545 
L 167.228946 -326.73604 
L 172.836727 -310.990695 
L 178.444508 -327.304149 
L 184.052289 -327.304149 
L 189.660071 -327.299779 
L 195.267852 -327.085646 
L 200.875633 -327.085646 
L 206.483415 -327.081276 
L 212.091196 -327.133716 
L 217.698977 -327.103126 
L 223.306759 -327.103126 
L 228.91454 -327.548873 
L 234.522321 -326.600568 
L 240.130103 -326.596198 
L 245.737884 -326.596198 
L 251.345665 -326.132971 
L 256.953447 -326.185412 
L 262.561228 -322.789872 
L 268.169009 -327.430881 
L 273.776791 -327.430881 
L 279.384572 -327.430881 
L 284.992353 -327.457101 
L 290.600134 -327.483322 
L 296.207916 -327.483322 
L 301.815697 -327.487692 
L 307.423478 -327.505172 
L 313.03126 -328.04269 
L 318.639041 -328.012099 
L 324.246822 -328.226233 
L 329.854604 -330.926933 
L 335.462385 -333.496531 
L 341.070166 -333.496531 
L 346.677948 -333.815546 
L 352.285729 -334.213222 
L 357.89351 -331.119216 
L 363.501292 -329.790716 
L 369.109073 -329.908708 
L 374.716854 -328.348594 
L 380.324635 -327.968399 
L 385.932417 -327.972769 
L 391.540198 -103.604881 
L 397.147979 -113.979415 
L 402.755761 -117.265705 
L 408.363542 -117.191413 
L 413.971323 -115.836693 
L 419.579105 -119.970775 
L 425.186886 -123.388166 
L 430.794667 -126.788077 
L 436.402449 -126.788077 
L 442.01023 -129.991334 
L 447.618011 -130.633734 
L 453.225793 -136.965958 
L 458.833574 -138.534812 
L 464.441355 -139.513707 
L 470.049137 -144.44314 
L 475.656918 -151.985873 
L 481.264699 -153.594057 
L 486.87248 -153.856261 
L 492.480262 -162.111314 
L 498.088043 -161.591276 
L 503.695824 -194.812512 
L 509.303606 -192.02878 
L 514.911387 -177.205519 
L 520.519168 -177.109378 
L 526.12695 -173.744427 
L 531.734731 -173.136988 
L 537.342512 -174.885014 
L 542.950294 -174.876274 
L 548.558075 -175.710957 
L 554.165856 -176.279065 
L 559.773638 -177.467723 
L 565.381419 -171.568135 
L 570.9892 -180.767122 
L 576.596981 -182.453967 
L 582.204763 -180.264565 
L 587.812544 -184.459827 
L 593.420325 -182.759872 
L 599.028107 -187.099347 
L 604.635888 -187.881588 
L 610.243669 -187.156157 
L 615.851451 -186.832773 
L 621.459232 -186.059271 
L 627.067013 -186.815292 
L 632.674795 -181.645505 
L 638.282576 -163.802529 
L 643.890357 -156.583181 
L 649.498139 -152.641382 
L 655.10592 -173.508444 
L 660.713701 -182.113102 
L 666.321482 -182.432117 
L 666.321482 -324.406796 
L 666.321482 -324.406796 
L 660.713701 -329.668354 
L 655.10592 -331.910198 
L 649.498139 -341.279617 
L 643.890357 -344.220671 
L 638.282576 -314.473637 
L 632.674795 -307.95787 
L 627.067013 -292.256226 
L 621.459232 -290.101784 
L 615.851451 -269.326494 
L 610.243669 -270.659364 
L 604.635888 -286.330417 
L 599.028107 -286.422189 
L 593.420325 -289.85269 
L 587.812544 -291.325402 
L 582.204763 -293.488584 
L 576.596981 -294.218385 
L 570.9892 -303.780088 
L 565.381419 -317.082566 
L 559.773638 -305.654846 
L 554.165856 -308.678931 
L 548.558075 -264.641784 
L 542.950294 -254.210438 
L 537.342512 -254.477012 
L 531.734731 -250.399741 
L 526.12695 -252.252649 
L 520.519168 -250.941629 
L 514.911387 -248.157898 
L 509.303606 -247.6029 
L 503.695824 -250.194348 
L 498.088043 -251.859343 
L 492.480262 -253.196583 
L 486.87248 -242.494293 
L 481.264699 -239.413397 
L 475.656918 -240.628275 
L 470.049137 -240.27867 
L 464.441355 -236.048447 
L 458.833574 -235.773133 
L 453.225793 -235.57211 
L 447.618011 -206.1135 
L 442.01023 -209.989748 
L 436.402449 -197.604983 
L 430.794667 -188.353555 
L 425.186886 -178.092642 
L 419.579105 -176.864654 
L 413.971323 -176.825323 
L 408.363542 -176.777253 
L 402.755761 -174.469858 
L 397.147979 -142.699484 
L 391.540198 -133.836992 
L 385.932417 -405.152491 
L 380.324635 -409.83283 
L 374.716854 -431.189339 
L 369.109073 -436.62133 
L 363.501292 -440.296555 
L 357.89351 -441.397812 
L 352.285729 -434.182834 
L 346.677948 -424.258416 
L 341.070166 -442.311155 
L 335.462385 -441.502693 
L 329.854604 -453.030925 
L 324.246822 -457.484022 
L 318.639041 -467.465251 
L 313.03126 -476.463215 
L 307.423478 -475.178416 
L 301.815697 -478.425374 
L 296.207916 -486.706648 
L 290.600134 -476.284042 
L 284.992353 -475.816445 
L 279.384572 -471.254097 
L 273.776791 -431.364142 
L 268.169009 -423.511135 
L 262.561228 -424.507509 
L 256.953447 -425.9103 
L 251.345665 -420.277286 
L 245.737884 -418.690953 
L 240.130103 -414.386438 
L 234.522321 -405.821111 
L 228.91454 -398.890187 
L 223.306759 -399.362154 
L 217.698977 -399.178611 
L 212.091196 -398.693534 
L 206.483415 -398.702274 
L 200.875633 -394.620633 
L 195.267852 -363.5888 
L 189.660071 -364.869229 
L 184.052289 -377.319545 
L 178.444508 -346.615467 
L 172.836727 -340.912532 
L 167.228946 -342.158001 
L 161.621164 -342.162371 
L 156.013383 -339.199466 
L 150.405602 -337.372779 
L 144.79782 -337.285378 
L 139.190039 -336.996954 
L 133.582258 -333.570822 
L 127.974476 -327.35659 
L 122.366695 -329.572213 
L 116.758914 -326.220373 
L 111.151132 -322.584478 
z
" style="stroke: #ffffff; stroke-opacity: 0.2"/>
    </defs>
    <g clip-path="url(#p4107748c61)">
     <use xlink:href="#mfa5f5f41fa" x="0" y="576" style="fill: #dd8452; fill-opacity: 0.2; stroke: #ffffff; stroke-opacity: 0.2"/>
    </g>
   </g>
   <g id="PolyCollection_3">
    <defs>
     <path id="m181f30ed8b" d="M 111.151132 -335.742745 
L 111.151132 -312.546439 
L 116.758914 -319.507953 
L 122.366695 -321.382711 
L 127.974476 -320.998145 
L 133.582258 -319.101536 
L 139.190039 -317.956579 
L 144.79782 -317.790517 
L 150.405602 -317.960949 
L 156.013383 -320.163462 
L 161.621164 -322.615069 
L 167.228946 -325.656634 
L 172.836727 -329.174537 
L 178.444508 -329.493552 
L 184.052289 -334.943023 
L 189.660071 -336.682309 
L 195.267852 -336.656088 
L 200.875633 -336.660459 
L 206.483415 -336.664829 
L 212.091196 -336.682309 
L 217.698977 -336.830891 
L 223.306759 -337.617503 
L 228.91454 -337.648093 
L 234.522321 -337.656833 
L 240.130103 -337.661203 
L 245.737884 -340.309463 
L 251.345665 -340.405604 
L 256.953447 -340.383754 
L 262.561228 -340.580407 
L 268.169009 -334.820661 
L 273.776791 -341.310208 
L 279.384572 -339.820016 
L 284.992353 -340.029779 
L 290.600134 -339.955488 
L 296.207916 -337.683054 
L 301.815697 -340.07785 
L 307.423478 -340.051629 
L 313.03126 -340.78143 
L 318.639041 -340.79017 
L 324.246822 -340.79017 
L 329.854604 -340.825131 
L 335.462385 -340.80765 
L 341.070166 -340.80328 
L 346.677948 -340.064739 
L 352.285729 -340.156511 
L 357.89351 -342.411464 
L 363.501292 -340.943122 
L 369.109073 -339.645213 
L 374.716854 -339.313088 
L 380.324635 -339.518481 
L 385.932417 -339.514111 
L 391.540198 -111.794383 
L 397.147979 -112.733947 
L 402.755761 -114.726697 
L 408.363542 -114.92335 
L 413.971323 -114.93646 
L 419.579105 -115.006381 
L 425.186886 -115.058822 
L 430.794667 -115.098152 
L 436.402449 -115.163703 
L 442.01023 -115.163703 
L 447.618011 -115.106892 
L 453.225793 -115.106892 
L 458.833574 -115.106892 
L 464.441355 -126.202488 
L 470.049137 -126.473432 
L 475.656918 -130.734246 
L 481.264699 -130.493892 
L 486.87248 -131.560188 
L 492.480262 -131.555818 
L 498.088043 -136.629463 
L 503.695824 -141.414685 
L 509.303606 -153.039058 
L 514.911387 -153.039058 
L 520.519168 -153.043428 
L 526.12695 -153.047798 
L 531.734731 -153.047798 
L 537.342512 -152.741894 
L 542.950294 -152.597682 
L 548.558075 -152.366068 
L 554.165856 -150.229106 
L 559.773638 -148.756394 
L 565.381419 -147.056439 
L 570.9892 -147.056439 
L 576.596981 -149.494935 
L 582.204763 -150.893356 
L 587.812544 -144.569872 
L 593.420325 -149.905722 
L 599.028107 -149.883871 
L 604.635888 -149.962532 
L 610.243669 -149.556116 
L 615.851451 -149.966903 
L 621.459232 -143.660898 
L 627.067013 -151.636267 
L 632.674795 -151.452725 
L 638.282576 -152.060164 
L 643.890357 -152.051424 
L 649.498139 -151.81107 
L 655.10592 -151.78485 
L 660.713701 -151.80233 
L 666.321482 -151.583827 
L 666.321482 -254.031265 
L 666.321482 -254.031265 
L 660.713701 -255.163112 
L 655.10592 -255.508347 
L 649.498139 -254.839728 
L 643.890357 -249.128052 
L 638.282576 -248.372031 
L 632.674795 -249.302855 
L 627.067013 -262.426161 
L 621.459232 -278.407489 
L 615.851451 -279.049889 
L 610.243669 -279.084849 
L 604.635888 -279.215951 
L 599.028107 -261.359865 
L 593.420325 -252.466782 
L 587.812544 -249.66557 
L 582.204763 -235.996006 
L 576.596981 -233.422038 
L 570.9892 -233.946446 
L 565.381419 -231.075313 
L 559.773638 -231.787634 
L 554.165856 -234.317901 
L 548.558075 -233.172944 
L 542.950294 -233.754163 
L 537.342512 -231.896885 
L 531.734731 -234.492704 
L 526.12695 -233.146724 
L 520.519168 -231.700232 
L 514.911387 -227.649182 
L 509.303606 -221.456799 
L 503.695824 -219.179995 
L 498.088043 -214.945402 
L 492.480262 -218.310352 
L 486.87248 -223.196085 
L 481.264699 -216.068509 
L 475.656918 -207.057434 
L 470.049137 -204.251853 
L 464.441355 -198.815491 
L 458.833574 -170.982546 
L 453.225793 -165.952601 
L 447.618011 -166.293466 
L 442.01023 -166.485749 
L 436.402449 -157.273652 
L 430.794667 -159.19211 
L 425.186886 -157.754359 
L 419.579105 -155.958262 
L 413.971323 -147.982893 
L 408.363542 -145.544397 
L 402.755761 -139.439415 
L 397.147979 -136.476511 
L 391.540198 -131.503377 
L 385.932417 -482.271031 
L 380.324635 -482.397763 
L 374.716854 -482.406503 
L 369.109073 -485.356298 
L 363.501292 -487.182985 
L 357.89351 -476.367073 
L 352.285729 -478.005848 
L 346.677948 -452.414746 
L 341.070166 -482.349693 
L 335.462385 -482.467684 
L 329.854604 -484.709528 
L 324.246822 -485.758344 
L 318.639041 -483.350438 
L 313.03126 -485.618501 
L 307.423478 -485.797674 
L 301.815697 -496.993781 
L 296.207916 -499.886764 
L 290.600134 -505.139583 
L 284.992353 -505.895604 
L 279.384572 -494.642686 
L 273.776791 -503.815453 
L 268.169009 -504.28305 
L 262.561228 -504.178168 
L 256.953447 -503.269195 
L 251.345665 -484.552206 
L 245.737884 -478.779349 
L 240.130103 -476.279672 
L 234.522321 -475.095384 
L 228.91454 -456.02005 
L 223.306759 -404.405209 
L 217.698977 -420.989607 
L 212.091196 -406.891777 
L 206.483415 -404.317808 
L 200.875633 -404.820366 
L 195.267852 -402.622223 
L 189.660071 -402.246397 
L 184.052289 -399.75109 
L 178.444508 -398.925148 
L 172.836727 -392.544852 
L 167.228946 -381.755161 
L 161.621164 -373.478258 
L 156.013383 -374.199319 
L 150.405602 -374.059477 
L 144.79782 -373.578769 
L 139.190039 -373.513218 
L 133.582258 -373.312195 
L 127.974476 -364.821159 
L 122.366695 -362.2166 
L 116.758914 -328.829302 
L 111.151132 -335.742745 
z
" style="stroke: #ffffff; stroke-opacity: 0.2"/>
    </defs>
    <g clip-path="url(#p4107748c61)">
     <use xlink:href="#m181f30ed8b" x="0" y="576" style="fill: #55a868; fill-opacity: 0.2; stroke: #ffffff; stroke-opacity: 0.2"/>
    </g>
   </g>
   <g id="line2d_13">
    <path d="M 111.151132 254.586699 
L 116.758914 251.601944 
L 122.366695 250.164193 
L 127.974476 249.9588 
L 133.582258 249.783997 
L 139.190039 248.507938 
L 144.79782 248.547269 
L 150.405602 247.686366 
L 156.013383 247.987901 
L 161.621164 248.092782 
L 167.228946 246.729322 
L 172.836727 223.419394 
L 178.444508 231.88421 
L 184.052289 239.099188 
L 189.660071 235.673057 
L 195.267852 232.622751 
L 200.875633 221.557746 
L 206.483415 221.225621 
L 212.091196 213.840211 
L 217.698977 204.265398 
L 223.306759 195.944794 
L 228.91454 239.780918 
L 234.522321 235.20109 
L 240.130103 224.608052 
L 245.737884 222.890616 
L 251.345665 229.2141 
L 256.953447 230.50327 
L 262.561228 243.408072 
L 268.169009 240.060602 
L 273.776791 247.913609 
L 279.384572 248.669631 
L 284.992353 249.237739 
L 290.600134 248.953685 
L 296.207916 248.084042 
L 301.815697 245.872789 
L 307.423478 242.962326 
L 313.03126 244.452518 
L 318.639041 242.62146 
L 324.246822 242.416067 
L 329.854604 241.122528 
L 335.462385 235.2142 
L 341.070166 234.239675 
L 346.677948 244.059212 
L 352.285729 227.584066 
L 357.89351 229.655477 
L 363.501292 232.452319 
L 369.109073 237.22443 
L 374.716854 248.175813 
L 380.324635 245.453263 
L 385.932417 241.629456 
L 391.540198 461.535507 
L 397.147979 451.995655 
L 402.755761 443.779932 
L 408.363542 431.701072 
L 413.971323 422.030118 
L 419.579105 401.128096 
L 425.186886 400.669239 
L 430.794667 394.087921 
L 436.402449 396.106891 
L 442.01023 398.348734 
L 447.618011 398.235113 
L 453.225793 403.120846 
L 458.833574 418.044618 
L 464.441355 398.785741 
L 470.049137 404.589187 
L 475.656918 402.946043 
L 481.264699 407.093235 
L 486.87248 401.669984 
L 492.480262 399.157196 
L 498.088043 399.004244 
L 503.695824 399.651014 
L 509.303606 411.686173 
L 514.911387 418.992922 
L 520.519168 423.297437 
L 526.12695 426.408923 
L 531.734731 430.097258 
L 537.342512 416.694268 
L 542.950294 415.50561 
L 548.558075 417.297337 
L 554.165856 417.778044 
L 559.773638 429.052813 
L 565.381419 428.620176 
L 570.9892 429.56411 
L 576.596981 429.450488 
L 582.204763 426.413293 
L 587.812544 417.952847 
L 593.420325 415.055494 
L 599.028107 413.622112 
L 604.635888 413.517231 
L 610.243669 426.116129 
L 615.851451 425.941326 
L 621.459232 394.350125 
L 627.067013 400.267193 
L 632.674795 403.4486 
L 638.282576 395.39457 
L 643.890357 408.10272 
L 649.498139 425.967547 
L 655.10592 418.048988 
L 660.713701 414.998683 
L 666.321482 415.295847 
" clip-path="url(#p4107748c61)" style="fill: none; stroke: #4c72b0; stroke-width: 1.5; stroke-linecap: round"/>
   </g>
   <g id="line2d_14">
    <path d="M 111.151132 255.242209 
L 116.758914 251.331 
L 122.366695 250.60994 
L 127.974476 250.417657 
L 133.582258 249.071677 
L 139.190039 248.743922 
L 144.79782 247.572744 
L 150.405602 245.763537 
L 156.013383 245.763537 
L 161.621164 246.183064 
L 167.228946 247.231879 
L 172.836727 247.043966 
L 178.444508 237.150139 
L 184.052289 236.927265 
L 189.660071 237.080218 
L 195.267852 237.080218 
L 200.875633 237.132659 
L 206.483415 237.630846 
L 212.091196 236.883565 
L 217.698977 236.162504 
L 223.306759 235.930891 
L 228.91454 241.703747 
L 234.522321 240.078082 
L 240.130103 237.456043 
L 245.737884 238.251395 
L 251.345665 234.619871 
L 256.953447 236.433448 
L 262.561228 237.949861 
L 268.169009 239.676036 
L 273.776791 238.985566 
L 279.384572 238.255765 
L 284.992353 237.700767 
L 290.600134 236.232425 
L 296.207916 236.166874 
L 301.815697 231.316102 
L 307.423478 233.116569 
L 313.03126 231.329212 
L 318.639041 232.050273 
L 324.246822 233.273891 
L 329.854604 233.1996 
L 335.462385 233.20834 
L 341.070166 232.53098 
L 346.677948 235.052508 
L 352.285729 235.349672 
L 357.89351 235.319081 
L 363.501292 234.53247 
L 369.109073 234.54995 
L 374.716854 234.53247 
L 380.324635 234.174124 
L 385.932417 234.161014 
L 391.540198 465.289393 
L 397.147979 451.423176 
L 402.755761 435.306376 
L 408.363542 441.804663 
L 413.971323 438.334831 
L 419.579105 426.050578 
L 425.186886 411.266647 
L 430.794667 408.198861 
L 436.402449 409.370039 
L 442.01023 410.313973 
L 447.618011 410.79905 
L 453.225793 408.211972 
L 458.833574 399.222747 
L 464.441355 384.897674 
L 470.049137 381.899809 
L 475.656918 381.419102 
L 481.264699 377.376791 
L 486.87248 366.604581 
L 492.480262 371.686966 
L 498.088043 373.006726 
L 503.695824 376.511518 
L 509.303606 370.043822 
L 514.911387 361.8718 
L 520.519168 360.394718 
L 526.12695 352.49801 
L 531.734731 352.948127 
L 537.342512 348.822785 
L 542.950294 346.948027 
L 548.558075 344.286658 
L 554.165856 341.909342 
L 559.773638 348.342078 
L 565.381419 380.746112 
L 570.9892 371.625786 
L 576.596981 373.832669 
L 582.204763 369.24847 
L 587.812544 351.584667 
L 593.420325 352.948127 
L 599.028107 350.352308 
L 604.635888 351.667698 
L 610.243669 360.932236 
L 615.851451 361.089558 
L 621.459232 371.28055 
L 627.067013 375.200499 
L 632.674795 374.392037 
L 638.282576 372.801333 
L 643.890357 380.531978 
L 649.498139 393.602844 
L 655.10592 393.589733 
L 660.713701 392.908003 
L 666.321482 377.595295 
" clip-path="url(#p4107748c61)" style="fill: none; stroke: #dd8452; stroke-width: 1.5; stroke-linecap: round"/>
   </g>
   <g id="line2d_15">
    <path d="M 111.151132 255.159178 
L 116.758914 251.32663 
L 122.366695 251.099387 
L 127.974476 248.184553 
L 133.582258 245.400822 
L 139.190039 247.817468 
L 144.79782 242.879294 
L 150.405602 240.519459 
L 156.013383 236.424708 
L 161.621164 237.560925 
L 167.228946 237.316201 
L 172.836727 237.23317 
L 178.444508 233.632236 
L 184.052289 233.571055 
L 189.660071 225.359703 
L 195.267852 225.13683 
L 200.875633 225.13683 
L 206.483415 214.631193 
L 212.091196 190.648275 
L 217.698977 190.460362 
L 223.306759 192.440002 
L 228.91454 196.840657 
L 234.522321 198.518762 
L 240.130103 199.248563 
L 245.737884 199.314114 
L 251.345665 198.863997 
L 256.953447 185.950455 
L 262.561228 185.727581 
L 268.169009 184.101917 
L 273.776791 185.504708 
L 279.384572 184.167468 
L 284.992353 183.948965 
L 290.600134 180.361141 
L 296.207916 180.190709 
L 301.815697 180.649566 
L 307.423478 180.881179 
L 313.03126 180.505353 
L 318.639041 180.522834 
L 324.246822 177.205954 
L 329.854604 174.522734 
L 335.462385 172.682937 
L 341.070166 183.555659 
L 346.677948 183.407077 
L 352.285729 188.834698 
L 357.89351 191.356225 
L 363.501292 190.919219 
L 369.109073 190.936699 
L 374.716854 190.97603 
L 380.324635 191.124612 
L 385.932417 188.585604 
L 391.540198 458.34099 
L 397.147979 458.222998 
L 402.755761 458.214258 
L 408.363542 458.297289 
L 413.971323 458.170557 
L 419.579105 457.545638 
L 425.186886 457.222253 
L 430.794667 457.222253 
L 436.402449 454.539033 
L 442.01023 448.691886 
L 447.618011 442.158638 
L 453.225793 441.60801 
L 458.833574 441.62112 
L 464.441355 440.541714 
L 470.049137 424.704598 
L 475.656918 422.703108 
L 481.264699 423.009012 
L 486.87248 422.982792 
L 492.480262 423.052713 
L 498.088043 413.534711 
L 503.695824 418.612727 
L 509.303606 409.837636 
L 514.911387 409.391889 
L 520.519168 408.614018 
L 526.12695 408.548467 
L 531.734731 408.487286 
L 537.342512 408.526616 
L 542.950294 405.126706 
L 548.558075 404.7771 
L 554.165856 404.195882 
L 559.773638 400.441996 
L 565.381419 400.197272 
L 570.9892 399.096016 
L 576.596981 400.026839 
L 582.204763 398.436136 
L 587.812544 414.212071 
L 593.420325 407.705044 
L 599.028107 399.305779 
L 604.635888 399.297039 
L 610.243669 388.537938 
L 615.851451 389.468762 
L 621.459232 399.323259 
L 627.067013 397.627674 
L 632.674795 397.902988 
L 638.282576 397.697595 
L 643.890357 398.0472 
L 649.498139 396.491457 
L 655.10592 391.758676 
L 660.713701 389.691635 
L 666.321482 386.733101 
" clip-path="url(#p4107748c61)" style="fill: none; stroke: #55a868; stroke-width: 1.5; stroke-linecap: round"/>
   </g>
   <g id="patch_3">
    <path d="M 83.392615 495.840956 
L 83.392615 49.831226 
" style="fill: none; stroke: #cccccc; stroke-width: 1.25; stroke-linejoin: miter; stroke-linecap: square"/>
   </g>
   <g id="patch_4">
    <path d="M 694.08 495.840956 
L 694.08 49.831226 
" style="fill: none; stroke: #cccccc; stroke-width: 1.25; stroke-linejoin: miter; stroke-linecap: square"/>
   </g>
   <g id="patch_5">
    <path d="M 83.392615 495.840956 
L 694.08 495.840956 
" style="fill: none; stroke: #cccccc; stroke-width: 1.25; stroke-linejoin: miter; stroke-linecap: square"/>
   </g>
   <g id="patch_6">
    <path d="M 83.392615 49.831226 
L 694.08 49.831226 
" style="fill: none; stroke: #cccccc; stroke-width: 1.25; stroke-linejoin: miter; stroke-linecap: square"/>
   </g>
   <g id="text_15">
    <!-- Peak Signal-to-Noise Ratio (PSNR), dB vs Step -->
    <g style="fill: #262626" transform="translate(163.214217 43.831226) scale(0.24 -0.24)">
     <defs>
      <path id="CMSS17-76" d="M 2675 2752 
L 2176 2752 
L 1747 1556 
C 1613 1165 1421 627 1389 352 
L 1382 352 
C 1370 468 1318 634 1286 749 
C 1248 890 1197 1056 1158 1172 
L 595 2752 
L 83 2752 
L 1094 0 
L 1664 0 
L 2675 2752 
z
" transform="scale(0.015625)"/>
     </defs>
     <use xlink:href="#CMSS17-50" transform="scale(0.996264)"/>
     <use xlink:href="#CMSS17-65" transform="translate(57.133132 0) scale(0.996264)"/>
     <use xlink:href="#CMSS17-61" transform="translate(98.771954 0) scale(0.996264)"/>
     <use xlink:href="#CMSS17-6b" transform="translate(143.693875 0) scale(0.996264)"/>
     <use xlink:href="#CMSS17-53" transform="translate(220.525477 0) scale(0.996264)"/>
     <use xlink:href="#CMSS17-69" transform="translate(272.573993 0) scale(0.996264)"/>
     <use xlink:href="#CMSS17-67" transform="translate(294.754716 0) scale(0.996264)"/>
     <use xlink:href="#CMSS17-6e" transform="translate(341.59834 0) scale(0.996264)"/>
     <use xlink:href="#CMSS17-61" transform="translate(389.803283 0) scale(0.996264)"/>
     <use xlink:href="#CMSS17-6c" transform="translate(434.725203 0) scale(0.996264)"/>
     <use xlink:href="#CMSS17-2d" transform="translate(456.905927 0) scale(0.996264)"/>
     <use xlink:href="#CMSS17-74" transform="translate(488.135039 0) scale(0.996264)"/>
     <use xlink:href="#CMSS17-6f" transform="translate(521.966606 0) scale(0.996264)"/>
     <use xlink:href="#CMSS17-2d" transform="translate(568.810229 0) scale(0.996264)"/>
     <use xlink:href="#CMSS17-4e" transform="translate(600.039342 0) scale(0.996264)"/>
     <use xlink:href="#CMSS17-6f" transform="translate(666.100861 0) scale(0.996264)"/>
     <use xlink:href="#CMSS17-69" transform="translate(712.944485 0) scale(0.996264)"/>
     <use xlink:href="#CMSS17-73" transform="translate(735.125208 0) scale(0.996264)"/>
     <use xlink:href="#CMSS17-65" transform="translate(771.03875 0) scale(0.996264)"/>
     <use xlink:href="#CMSS17-52" transform="translate(843.906685 0) scale(0.996264)"/>
     <use xlink:href="#CMSS17-61" transform="translate(904.32284 0) scale(0.996264)"/>
     <use xlink:href="#CMSS17-74" transform="translate(949.24476 0) scale(0.996264)"/>
     <use xlink:href="#CMSS17-69" transform="translate(983.076327 0) scale(0.996264)"/>
     <use xlink:href="#CMSS17-6f" transform="translate(1005.25705 0) scale(0.996264)"/>
     <use xlink:href="#CMSS17-28" transform="translate(1083.329786 0) scale(0.996264)"/>
     <use xlink:href="#CMSS17-50" transform="translate(1119.7637 0) scale(0.996264)"/>
     <use xlink:href="#CMSS17-53" transform="translate(1179.499287 0) scale(0.996264)"/>
     <use xlink:href="#CMSS17-4e" transform="translate(1231.547803 0) scale(0.996264)"/>
     <use xlink:href="#CMSS17-52" transform="translate(1297.609322 0) scale(0.996264)"/>
     <use xlink:href="#CMSS17-29" transform="translate(1358.025477 0) scale(0.996264)"/>
     <use xlink:href="#CMSS17-2c" transform="translate(1394.459391 0) scale(0.996264)"/>
     <use xlink:href="#CMSS17-64" transform="translate(1451.712709 0) scale(0.996264)"/>
     <use xlink:href="#CMSS17-42" transform="translate(1499.917652 0) scale(0.996264)"/>
     <use xlink:href="#CMSS17-76" transform="translate(1593.484805 0) scale(0.996264)"/>
     <use xlink:href="#CMSS17-73" transform="translate(1636.484947 0) scale(0.996264)"/>
     <use xlink:href="#CMSS17-53" transform="translate(1703.627601 0) scale(0.996264)"/>
     <use xlink:href="#CMSS17-74" transform="translate(1755.676118 0) scale(0.996264)"/>
     <use xlink:href="#CMSS17-65" transform="translate(1789.507684 0) scale(0.996264)"/>
     <use xlink:href="#CMSS17-70" transform="translate(1831.146506 0) scale(0.996264)"/>
    </g>
   </g>
   <g id="legend_1">
    <g id="patch_7">
     <path d="M 508.02676 191.675953 
L 678.68 191.675953 
Q 683.08 191.675953 683.08 187.275953 
L 683.08 65.231226 
Q 683.08 60.831226 678.68 60.831226 
L 508.02676 60.831226 
Q 503.62676 60.831226 503.62676 65.231226 
L 503.62676 187.275953 
Q 503.62676 191.675953 508.02676 191.675953 
z
" style="fill: #ffffff; opacity: 0.8; stroke: #cccccc; stroke-linejoin: miter"/>
    </g>
    <g id="text_16">
     <!-- Confidence decay -->
     <g style="fill: #262626" transform="translate(512.42676 86.235632) scale(0.24 -0.24)">
      <defs>
       <path id="CMSS17-43" d="M 3501 714 
C 3072 427 2874 344 2355 344 
C 1459 344 934 1303 934 2179 
C 934 3112 1472 4032 2381 4032 
C 2790 4032 3059 3918 3386 3715 
L 3475 4217 
C 3168 4370 2778 4440 2387 4440 
C 1158 4440 397 3316 397 2179 
C 397 927 1299 -64 2323 -64 
C 2874 -64 3066 -19 3539 280 
L 3501 714 
z
" transform="scale(0.015625)"/>
       <path id="CMSS17-c" d="M 2752 4416 
L 2240 4416 
L 2240 3906 
L 2752 3906 
L 2752 4416 
z
M 2733 2737 
L 2259 2737 
L 2259 0 
L 2733 0 
L 2733 2737 
z
M 1075 2368 
L 1773 2368 
L 1773 2737 
L 1062 2737 
L 1062 3578 
C 1062 3919 1216 4092 1421 4092 
C 1542 4092 1664 4056 1773 3992 
L 1773 4410 
C 1722 4428 1574 4480 1421 4480 
C 941 4480 602 3993 602 3372 
L 602 2737 
L 160 2737 
L 160 2368 
L 602 2368 
L 602 0 
L 1075 0 
L 1075 2368 
z
" transform="scale(0.015625)"/>
       <path id="CMSS17-63" d="M 2464 2541 
C 2464 2585 2170 2714 2093 2739 
C 1882 2816 1613 2816 1542 2816 
C 710 2816 211 2093 211 1363 
C 211 595 768 -64 1517 -64 
C 1946 -64 2253 76 2502 242 
L 2464 664 
C 2189 453 1869 337 1523 337 
C 1024 337 698 774 698 1369 
C 698 1831 909 2414 1549 2414 
C 1901 2414 2099 2343 2394 2145 
L 2464 2541 
z
" transform="scale(0.015625)"/>
       <path id="CMSS17-79" d="M 2675 2752 
L 2176 2752 
C 1632 1294 1446 702 1434 383 
L 1427 383 
C 1408 696 1126 1460 902 2007 
L 602 2752 
L 83 2752 
L 1216 13 
C 1146 -178 1043 -465 1011 -529 
C 870 -885 774 -885 672 -885 
C 646 -885 442 -885 211 -809 
L 250 -1229 
C 410 -1261 570 -1280 685 -1280 
C 845 -1280 1165 -1280 1459 -497 
L 2675 2752 
z
" transform="scale(0.015625)"/>
      </defs>
      <use xlink:href="#CMSS17-43" transform="scale(0.996264)"/>
      <use xlink:href="#CMSS17-6f" transform="translate(59.855772 0) scale(0.996264)"/>
      <use xlink:href="#CMSS17-6e" transform="translate(106.699395 0) scale(0.996264)"/>
      <use xlink:href="#CMSS17-c" transform="translate(154.904338 0) scale(0.996264)"/>
      <use xlink:href="#CMSS17-64" transform="translate(205.031075 0) scale(0.996264)"/>
      <use xlink:href="#CMSS17-65" transform="translate(253.236019 0) scale(0.996264)"/>
      <use xlink:href="#CMSS17-6e" transform="translate(294.874841 0) scale(0.996264)"/>
      <use xlink:href="#CMSS17-63" transform="translate(343.079784 0) scale(0.996264)"/>
      <use xlink:href="#CMSS17-65" transform="translate(384.718606 0) scale(0.996264)"/>
      <use xlink:href="#CMSS17-64" transform="translate(457.586541 0) scale(0.996264)"/>
      <use xlink:href="#CMSS17-65" transform="translate(505.791484 0) scale(0.996264)"/>
      <use xlink:href="#CMSS17-63" transform="translate(547.430306 0) scale(0.996264)"/>
      <use xlink:href="#CMSS17-61" transform="translate(589.069128 0) scale(0.996264)"/>
      <use xlink:href="#CMSS17-79" transform="translate(631.388595 0) scale(0.996264)"/>
     </g>
    </g>
    <g id="line2d_16">
     <path d="M 539.079532 109.586389 
L 561.079532 109.586389 
L 583.079532 109.586389 
" style="fill: none; stroke: #4c72b0; stroke-width: 1.5; stroke-linecap: round"/>
    </g>
    <g id="text_17">
     <!-- 0.01 -->
     <g style="fill: #262626" transform="translate(600.679532 117.286389) scale(0.22 -0.22)">
      <defs>
       <path id="CMSS17-30" d="M 2758 2044 
C 2758 2405 2752 3077 2490 3596 
C 2227 4096 1805 4229 1504 4229 
C 1069 4229 698 3975 506 3570 
C 301 3146 243 2709 243 2044 
C 243 1589 262 1031 493 543 
C 755 5 1197 -128 1498 -128 
C 1894 -128 2278 81 2496 518 
C 2720 974 2758 1474 2758 2044 
z
M 1498 261 
C 1011 261 864 811 819 995 
C 742 1310 730 1614 730 2114 
C 730 2506 730 2948 851 3297 
C 998 3701 1254 3840 1498 3840 
C 1971 3840 2125 3372 2176 3208 
C 2272 2873 2272 2481 2272 2114 
C 2272 1526 2272 261 1498 261 
z
" transform="scale(0.015625)"/>
       <path id="CMSS17-2e" d="M 1088 510 
L 576 510 
L 576 0 
L 1088 0 
L 1088 510 
z
" transform="scale(0.015625)"/>
       <path id="CMSS17-31" d="M 1818 4288 
L 1696 4288 
C 1350 3940 947 3890 538 3890 
L 538 3520 
C 723 3520 1024 3520 1325 3667 
L 1325 369 
L 570 369 
L 570 0 
L 2573 0 
L 2573 369 
L 1818 369 
L 1818 4288 
z
" transform="scale(0.015625)"/>
      </defs>
      <use xlink:href="#CMSS17-30" transform="scale(0.996264)"/>
      <use xlink:href="#CMSS17-2e" transform="translate(46.843624 0) scale(0.996264)"/>
      <use xlink:href="#CMSS17-30" transform="translate(72.867828 0) scale(0.996264)"/>
      <use xlink:href="#CMSS17-31" transform="translate(119.711452 0) scale(0.996264)"/>
     </g>
    </g>
    <g id="line2d_17">
     <path d="M 539.079532 140.249577 
L 561.079532 140.249577 
L 583.079532 140.249577 
" style="fill: none; stroke: #dd8452; stroke-width: 1.5; stroke-linecap: round"/>
    </g>
    <g id="text_18">
     <!-- 0.004 -->
     <g style="fill: #262626" transform="translate(600.679532 147.949577) scale(0.22 -0.22)">
      <defs>
       <path id="CMSS17-34" d="M 2253 1088 
L 2835 1088 
L 2835 1477 
L 2253 1477 
L 2253 4192 
L 1690 4192 
L 166 1477 
L 166 1088 
L 1747 1088 
L 1747 0 
L 2253 0 
L 2253 1088 
z
M 659 1477 
C 1030 2127 1766 3439 1766 3885 
L 1766 1477 
L 659 1477 
z
" transform="scale(0.015625)"/>
      </defs>
      <use xlink:href="#CMSS17-30" transform="scale(0.996264)"/>
      <use xlink:href="#CMSS17-2e" transform="translate(46.843624 0) scale(0.996264)"/>
      <use xlink:href="#CMSS17-30" transform="translate(72.867828 0) scale(0.996264)"/>
      <use xlink:href="#CMSS17-30" transform="translate(119.711452 0) scale(0.996264)"/>
      <use xlink:href="#CMSS17-34" transform="translate(166.555075 0) scale(0.996264)"/>
     </g>
    </g>
    <g id="line2d_18">
     <path d="M 539.079532 170.912765 
L 561.079532 170.912765 
L 583.079532 170.912765 
" style="fill: none; stroke: #55a868; stroke-width: 1.5; stroke-linecap: round"/>
    </g>
    <g id="text_19">
     <!-- 0.002 -->
     <g style="fill: #262626" transform="translate(600.679532 178.612765) scale(0.22 -0.22)">
      <defs>
       <path id="CMSS17-32" d="M 1651 1357 
C 1830 1541 2099 1764 2285 1987 
C 2464 2204 2701 2511 2701 2957 
C 2701 3657 2227 4288 1421 4288 
C 787 4288 422 3893 250 3274 
L 499 2929 
C 640 3510 838 3880 1338 3880 
C 1888 3880 2195 3433 2195 2942 
C 2195 2355 1747 1901 1408 1563 
C 1030 1187 659 804 301 408 
L 301 0 
L 2701 0 
L 2701 433 
L 1613 433 
C 1536 433 1459 433 1382 433 
L 742 433 
L 742 439 
L 1651 1357 
z
" transform="scale(0.015625)"/>
      </defs>
      <use xlink:href="#CMSS17-30" transform="scale(0.996264)"/>
      <use xlink:href="#CMSS17-2e" transform="translate(46.843624 0) scale(0.996264)"/>
      <use xlink:href="#CMSS17-30" transform="translate(72.867828 0) scale(0.996264)"/>
      <use xlink:href="#CMSS17-30" transform="translate(119.711452 0) scale(0.996264)"/>
      <use xlink:href="#CMSS17-32" transform="translate(166.555075 0) scale(0.996264)"/>
     </g>
    </g>
   </g>
  </g>
 </g>
 <defs>
  <clipPath id="p4107748c61">
   <rect x="83.392615" y="49.831226" width="610.687385" height="446.00973"/>
  </clipPath>
 </defs>
</svg>
