<?xml version="1.0" encoding="utf-8" standalone="no"?>
<!DOCTYPE svg PUBLIC "-//W3C//DTD SVG 1.1//EN"
  "http://www.w3.org/Graphics/SVG/1.1/DTD/svg11.dtd">
<svg xmlns:xlink="http://www.w3.org/1999/xlink" width="720pt" height="576pt" viewBox="0 0 720 576" xmlns="http://www.w3.org/2000/svg" version="1.1">
 <metadata>
  <rdf:RDF xmlns:dc="http://purl.org/dc/elements/1.1/" xmlns:cc="http://creativecommons.org/ns#" xmlns:rdf="http://www.w3.org/1999/02/22-rdf-syntax-ns#">
   <cc:Work>
    <dc:type rdf:resource="http://purl.org/dc/dcmitype/StillImage"/>
    <dc:date>2025-04-25T15:59:33.503722</dc:date>
    <dc:format>image/svg+xml</dc:format>
    <dc:creator>
     <cc:Agent>
      <dc:title>Matplotlib v3.9.2, https://matplotlib.org/</dc:title>
     </cc:Agent>
    </dc:creator>
   </cc:Work>
  </rdf:RDF>
 </metadata>
 <defs>
  <style type="text/css">*{stroke-linejoin: round; stroke-linecap: butt}</style>
 </defs>
 <g id="figure_1">
  <g id="patch_1">
   <path d="M 0 576 
L 720 576 
L 720 0 
L 0 0 
z
" style="fill: #ffffff"/>
  </g>
  <g id="axes_1">
   <g id="patch_2">
    <path d="M 66.27864 513.338305 
L 702.72 513.338305 
L 702.72 17.28 
L 66.27864 17.28 
z
" style="fill: #ffffff"/>
   </g>
   <g id="matplotlib.axis_1">
    <g id="xtick_1">
     <g id="line2d_1">
      <path d="M 95.207792 513.338305 
L 95.207792 17.28 
" clip-path="url(#pa94ccff354)" style="fill: none; stroke: #cccccc; stroke-linecap: round"/>
     </g>
     <g id="text_1">
      <!-- $\mathdefault{0}$ -->
      <g style="fill: #262626" transform="translate(91.305799 533.907893) scale(0.16 -0.16)">
       <defs>
        <path id="CMR17-30" d="M 2688 2025 
C 2688 2416 2682 3080 2413 3591 
C 2176 4039 1798 4198 1466 4198 
C 1158 4198 768 4058 525 3597 
C 269 3118 243 2524 243 2025 
C 243 1661 250 1106 448 619 
C 723 -39 1216 -128 1466 -128 
C 1760 -128 2208 -7 2470 600 
C 2662 1042 2688 1559 2688 2025 
z
M 1466 -26 
C 1056 -26 813 325 723 812 
C 653 1188 653 1738 653 2096 
C 653 2588 653 2997 736 3387 
C 858 3929 1216 4096 1466 4096 
C 1728 4096 2067 3923 2189 3400 
C 2272 3036 2278 2607 2278 2096 
C 2278 1680 2278 1169 2202 792 
C 2067 95 1690 -26 1466 -26 
z
" transform="scale(0.015625)"/>
       </defs>
       <use xlink:href="#CMR17-30" transform="scale(0.996264)"/>
      </g>
     </g>
    </g>
    <g id="xtick_2">
     <g id="line2d_2">
      <path d="M 212.093258 513.338305 
L 212.093258 17.28 
" clip-path="url(#pa94ccff354)" style="fill: none; stroke: #cccccc; stroke-linecap: round"/>
     </g>
     <g id="text_2">
      <!-- $\mathdefault{200}$ -->
      <g style="fill: #262626" transform="translate(200.387278 533.907893) scale(0.16 -0.16)">
       <defs>
        <path id="CMR17-32" d="M 2669 989 
L 2554 989 
C 2490 536 2438 459 2413 420 
C 2381 369 1920 369 1830 369 
L 602 369 
C 832 619 1280 1072 1824 1597 
C 2214 1967 2669 2402 2669 3035 
C 2669 3790 2067 4224 1395 4224 
C 691 4224 262 3604 262 3030 
C 262 2780 448 2748 525 2748 
C 589 2748 781 2787 781 3010 
C 781 3207 614 3264 525 3264 
C 486 3264 448 3258 422 3245 
C 544 3790 915 4058 1306 4058 
C 1862 4058 2227 3617 2227 3035 
C 2227 2479 1901 2000 1536 1584 
L 262 146 
L 262 0 
L 2515 0 
L 2669 989 
z
" transform="scale(0.015625)"/>
       </defs>
       <use xlink:href="#CMR17-32" transform="scale(0.996264)"/>
       <use xlink:href="#CMR17-30" transform="translate(45.690477 0) scale(0.996264)"/>
       <use xlink:href="#CMR17-30" transform="translate(91.380954 0) scale(0.996264)"/>
      </g>
     </g>
    </g>
    <g id="xtick_3">
     <g id="line2d_3">
      <path d="M 328.978724 513.338305 
L 328.978724 17.28 
" clip-path="url(#pa94ccff354)" style="fill: none; stroke: #cccccc; stroke-linecap: round"/>
     </g>
     <g id="text_3">
      <!-- $\mathdefault{400}$ -->
      <g style="fill: #262626" transform="translate(317.272743 533.907893) scale(0.16 -0.16)">
       <defs>
        <path id="CMR17-34" d="M 2150 4122 
C 2150 4256 2144 4256 2029 4256 
L 128 1254 
L 128 1088 
L 1779 1088 
L 1779 457 
C 1779 224 1766 160 1318 160 
L 1197 160 
L 1197 0 
C 1402 0 1747 0 1965 0 
C 2182 0 2528 0 2733 0 
L 2733 160 
L 2611 160 
C 2163 160 2150 224 2150 457 
L 2150 1088 
L 2803 1088 
L 2803 1254 
L 2150 1254 
L 2150 4122 
z
M 1798 3703 
L 1798 1254 
L 256 1254 
L 1798 3703 
z
" transform="scale(0.015625)"/>
       </defs>
       <use xlink:href="#CMR17-34" transform="scale(0.996264)"/>
       <use xlink:href="#CMR17-30" transform="translate(45.690477 0) scale(0.996264)"/>
       <use xlink:href="#CMR17-30" transform="translate(91.380954 0) scale(0.996264)"/>
      </g>
     </g>
    </g>
    <g id="xtick_4">
     <g id="line2d_4">
      <path d="M 445.864189 513.338305 
L 445.864189 17.28 
" clip-path="url(#pa94ccff354)" style="fill: none; stroke: #cccccc; stroke-linecap: round"/>
     </g>
     <g id="text_4">
      <!-- $\mathdefault{600}$ -->
      <g style="fill: #262626" transform="translate(434.158209 533.907893) scale(0.16 -0.16)">
       <defs>
        <path id="CMR17-36" d="M 678 2176 
C 678 3690 1395 4032 1811 4032 
C 1946 4032 2272 4009 2400 3776 
C 2298 3776 2106 3776 2106 3553 
C 2106 3381 2246 3323 2336 3323 
C 2394 3323 2566 3348 2566 3560 
C 2566 3954 2246 4179 1805 4179 
C 1043 4179 243 3390 243 1984 
C 243 253 966 -128 1478 -128 
C 2099 -128 2688 427 2688 1283 
C 2688 2081 2170 2662 1517 2662 
C 1126 2662 838 2407 678 1960 
L 678 2176 
z
M 1478 25 
C 691 25 691 1200 691 1436 
C 691 1896 909 2560 1504 2560 
C 1613 2560 1926 2560 2138 2120 
C 2253 1870 2253 1609 2253 1289 
C 2253 944 2253 690 2118 434 
C 1978 171 1773 25 1478 25 
z
" transform="scale(0.015625)"/>
       </defs>
       <use xlink:href="#CMR17-36" transform="scale(0.996264)"/>
       <use xlink:href="#CMR17-30" transform="translate(45.690477 0) scale(0.996264)"/>
       <use xlink:href="#CMR17-30" transform="translate(91.380954 0) scale(0.996264)"/>
      </g>
     </g>
    </g>
    <g id="xtick_5">
     <g id="line2d_5">
      <path d="M 562.749655 513.338305 
L 562.749655 17.28 
" clip-path="url(#pa94ccff354)" style="fill: none; stroke: #cccccc; stroke-linecap: round"/>
     </g>
     <g id="text_5">
      <!-- $\mathdefault{800}$ -->
      <g style="fill: #262626" transform="translate(551.043674 533.907893) scale(0.16 -0.16)">
       <defs>
        <path id="CMR17-38" d="M 1741 2264 
C 2144 2467 2554 2773 2554 3263 
C 2554 3841 1990 4179 1472 4179 
C 890 4179 378 3759 378 3180 
C 378 3021 416 2747 666 2505 
C 730 2442 998 2251 1171 2130 
C 883 1983 211 1634 211 934 
C 211 279 838 -128 1459 -128 
C 2144 -128 2720 362 2720 1010 
C 2720 1590 2330 1857 2074 2029 
L 1741 2264 
z
M 902 2822 
C 851 2854 595 3051 595 3351 
C 595 3739 998 4032 1459 4032 
C 1965 4032 2336 3676 2336 3262 
C 2336 2669 1670 2331 1638 2331 
C 1632 2331 1626 2331 1574 2370 
L 902 2822 
z
M 2080 1519 
C 2176 1449 2483 1240 2483 851 
C 2483 381 2010 25 1472 25 
C 890 25 448 438 448 940 
C 448 1443 838 1862 1280 2060 
L 2080 1519 
z
" transform="scale(0.015625)"/>
       </defs>
       <use xlink:href="#CMR17-38" transform="scale(0.996264)"/>
       <use xlink:href="#CMR17-30" transform="translate(45.690477 0) scale(0.996264)"/>
       <use xlink:href="#CMR17-30" transform="translate(91.380954 0) scale(0.996264)"/>
      </g>
     </g>
    </g>
    <g id="xtick_6">
     <g id="line2d_6">
      <path d="M 679.635121 513.338305 
L 679.635121 17.28 
" clip-path="url(#pa94ccff354)" style="fill: none; stroke: #cccccc; stroke-linecap: round"/>
     </g>
     <g id="text_6">
      <!-- $\mathdefault{1000}$ -->
      <g style="fill: #262626" transform="translate(664.027147 533.907893) scale(0.16 -0.16)">
       <defs>
        <path id="CMR17-31" d="M 1702 4058 
C 1702 4192 1696 4192 1606 4192 
C 1357 3916 979 3827 621 3827 
C 602 3827 570 3827 563 3808 
C 557 3795 557 3782 557 3648 
C 755 3648 1088 3686 1344 3839 
L 1344 461 
C 1344 236 1331 160 781 160 
L 589 160 
L 589 0 
C 896 0 1216 0 1523 0 
C 1830 0 2150 0 2458 0 
L 2458 160 
L 2266 160 
C 1715 160 1702 230 1702 458 
L 1702 4058 
z
" transform="scale(0.015625)"/>
       </defs>
       <use xlink:href="#CMR17-31" transform="scale(0.996264)"/>
       <use xlink:href="#CMR17-30" transform="translate(45.690477 0) scale(0.996264)"/>
       <use xlink:href="#CMR17-30" transform="translate(91.380954 0) scale(0.996264)"/>
       <use xlink:href="#CMR17-30" transform="translate(137.071431 0) scale(0.996264)"/>
      </g>
     </g>
    </g>
    <g id="text_7">
     <!-- Step -->
     <g style="fill: #262626" transform="translate(366.743615 554.844366) scale(0.2 -0.2)">
      <defs>
       <path id="CMR17-53" d="M 2803 4290 
C 2803 4404 2797 4411 2758 4411 
C 2720 4411 2707 4385 2682 4328 
L 2490 3907 
C 2246 4257 1875 4416 1472 4416 
C 819 4416 294 3901 294 3253 
C 294 3056 339 2776 557 2510 
C 794 2218 1018 2167 1530 2033 
C 1722 1982 2042 1899 2106 1874 
C 2470 1722 2662 1341 2662 985 
C 2662 527 2336 38 1779 38 
C 1094 38 454 419 410 1311 
C 403 1413 397 1419 352 1419 
C 301 1419 294 1413 294 1285 
L 294 -1 
C 294 -115 301 -122 339 -122 
C 384 -122 397 -90 486 108 
C 493 127 493 140 614 381 
C 934 -39 1472 -128 1779 -128 
C 2477 -128 2970 451 2970 1124 
C 2970 1454 2848 1708 2778 1823 
C 2509 2230 2221 2306 1914 2382 
C 1869 2402 1856 2402 1498 2490 
C 1152 2579 1005 2624 845 2796 
C 666 2992 602 3196 602 3399 
C 602 3812 934 4263 1478 4263 
C 2157 4263 2579 3786 2675 2993 
C 2694 2878 2701 2872 2746 2872 
C 2803 2872 2803 2891 2803 2999 
L 2803 4290 
z
" transform="scale(0.015625)"/>
       <path id="CMR17-74" d="M 966 2560 
L 1862 2560 
L 1862 2725 
L 966 2725 
L 966 3904 
L 851 3904 
C 838 3245 614 2668 70 2668 
L 70 2560 
L 627 2560 
L 627 771 
C 627 650 627 -64 1370 -64 
C 1747 -64 1965 306 1965 777 
L 1965 1140 
L 1850 1140 
L 1850 783 
C 1850 344 1677 51 1408 51 
C 1222 51 966 178 966 758 
L 966 2560 
z
" transform="scale(0.015625)"/>
       <path id="CMR17-65" d="M 2438 1472 
C 2464 1498 2464 1511 2464 1576 
C 2464 2238 2118 2816 1389 2816 
C 710 2816 173 2169 173 1383 
C 173 551 781 -64 1459 -64 
C 2176 -64 2458 607 2458 740 
C 2458 784 2419 784 2406 784 
C 2362 784 2355 771 2330 696 
C 2189 265 1837 51 1504 51 
C 1229 51 954 203 781 480 
C 582 803 582 1176 582 1472 
L 2438 1472 
z
M 589 1568 
C 634 2505 1126 2714 1382 2714 
C 1818 2714 2112 2297 2118 1568 
L 589 1568 
z
" transform="scale(0.015625)"/>
       <path id="CMR17-70" d="M 1408 -1063 
C 998 -1063 973 -1037 973 -789 
L 973 402 
C 1158 134 1427 -38 1766 -38 
C 2406 -38 3053 523 3053 1388 
C 3053 2191 2496 2802 1837 2802 
C 1453 2802 1139 2592 960 2338 
L 960 2802 
L 198 2732 
L 198 2567 
C 576 2567 634 2528 634 2223 
L 634 -789 
C 634 -1031 608 -1063 198 -1063 
L 198 -1228 
C 352 -1216 634 -1216 800 -1216 
C 966 -1216 1254 -1216 1408 -1228 
L 1408 -1063 
z
M 973 2012 
C 973 2102 973 2235 1222 2471 
C 1254 2497 1472 2688 1792 2688 
C 2259 2688 2643 2108 2643 1382 
C 2643 656 2234 64 1728 64 
C 1498 64 1248 172 1056 472 
C 973 612 973 650 973 752 
L 973 2012 
z
" transform="scale(0.015625)"/>
      </defs>
      <use xlink:href="#CMR17-53" transform="scale(0.996264)"/>
      <use xlink:href="#CMR17-74" transform="translate(50.89537 0) scale(0.996264)"/>
      <use xlink:href="#CMR17-65" transform="translate(86.176138 0) scale(0.996264)"/>
      <use xlink:href="#CMR17-70" transform="translate(126.661798 0) scale(0.996264)"/>
     </g>
    </g>
   </g>
   <g id="matplotlib.axis_2">
    <g id="ytick_1">
     <g id="line2d_7">
      <path d="M 66.27864 502.75967 
L 702.72 502.75967 
" clip-path="url(#pa94ccff354)" style="fill: none; stroke: #cccccc; stroke-linecap: round"/>
     </g>
     <g id="text_8">
      <!-- $\mathdefault{10}$ -->
      <g style="fill: #262626" transform="translate(41.170666 508.294464) scale(0.16 -0.16)">
       <use xlink:href="#CMR17-31" transform="scale(0.996264)"/>
       <use xlink:href="#CMR17-30" transform="translate(45.690477 0) scale(0.996264)"/>
      </g>
     </g>
    </g>
    <g id="ytick_2">
     <g id="line2d_8">
      <path d="M 66.27864 415.423155 
L 702.72 415.423155 
" clip-path="url(#pa94ccff354)" style="fill: none; stroke: #cccccc; stroke-linecap: round"/>
     </g>
     <g id="text_9">
      <!-- $\mathdefault{12}$ -->
      <g style="fill: #262626" transform="translate(41.170666 420.957949) scale(0.16 -0.16)">
       <use xlink:href="#CMR17-31" transform="scale(0.996264)"/>
       <use xlink:href="#CMR17-32" transform="translate(45.690477 0) scale(0.996264)"/>
      </g>
     </g>
    </g>
    <g id="ytick_3">
     <g id="line2d_9">
      <path d="M 66.27864 328.08664 
L 702.72 328.08664 
" clip-path="url(#pa94ccff354)" style="fill: none; stroke: #cccccc; stroke-linecap: round"/>
     </g>
     <g id="text_10">
      <!-- $\mathdefault{14}$ -->
      <g style="fill: #262626" transform="translate(41.170666 333.621434) scale(0.16 -0.16)">
       <use xlink:href="#CMR17-31" transform="scale(0.996264)"/>
       <use xlink:href="#CMR17-34" transform="translate(45.690477 0) scale(0.996264)"/>
      </g>
     </g>
    </g>
    <g id="ytick_4">
     <g id="line2d_10">
      <path d="M 66.27864 240.750125 
L 702.72 240.750125 
" clip-path="url(#pa94ccff354)" style="fill: none; stroke: #cccccc; stroke-linecap: round"/>
     </g>
     <g id="text_11">
      <!-- $\mathdefault{16}$ -->
      <g style="fill: #262626" transform="translate(41.170666 246.284919) scale(0.16 -0.16)">
       <use xlink:href="#CMR17-31" transform="scale(0.996264)"/>
       <use xlink:href="#CMR17-36" transform="translate(45.690477 0) scale(0.996264)"/>
      </g>
     </g>
    </g>
    <g id="ytick_5">
     <g id="line2d_11">
      <path d="M 66.27864 153.413609 
L 702.72 153.413609 
" clip-path="url(#pa94ccff354)" style="fill: none; stroke: #cccccc; stroke-linecap: round"/>
     </g>
     <g id="text_12">
      <!-- $\mathdefault{18}$ -->
      <g style="fill: #262626" transform="translate(41.170666 158.948404) scale(0.16 -0.16)">
       <use xlink:href="#CMR17-31" transform="scale(0.996264)"/>
       <use xlink:href="#CMR17-38" transform="translate(45.690477 0) scale(0.996264)"/>
      </g>
     </g>
    </g>
    <g id="ytick_6">
     <g id="line2d_12">
      <path d="M 66.27864 66.077094 
L 702.72 66.077094 
" clip-path="url(#pa94ccff354)" style="fill: none; stroke: #cccccc; stroke-linecap: round"/>
     </g>
     <g id="text_13">
      <!-- $\mathdefault{20}$ -->
      <g style="fill: #262626" transform="translate(41.170666 71.611889) scale(0.16 -0.16)">
       <use xlink:href="#CMR17-32" transform="scale(0.996264)"/>
       <use xlink:href="#CMR17-30" transform="translate(45.690477 0) scale(0.996264)"/>
      </g>
     </g>
    </g>
    <g id="text_14">
     <!-- PSNR (dB) -->
     <g style="fill: #262626" transform="translate(32.206022 312.015816) rotate(-90) scale(0.2 -0.2)">
      <defs>
       <path id="CMR17-50" d="M 1267 2042 
L 2291 2042 
C 3117 2042 3718 2578 3718 3184 
C 3718 3791 3130 4352 2291 4352 
L 333 4352 
L 333 4186 
C 774 4186 845 4186 845 3899 
L 845 446 
C 845 160 774 160 333 160 
L 333 0 
C 518 0 858 0 1056 0 
C 1254 0 1594 0 1779 0 
L 1779 160 
C 1338 160 1267 160 1267 446 
L 1267 2042 
z
M 1254 2176 
L 1254 3938 
C 1254 4155 1267 4186 1523 4186 
L 2170 4186 
C 2995 4186 3232 3714 3232 3184 
C 3232 2604 2950 2176 2170 2176 
L 1254 2176 
z
" transform="scale(0.015625)"/>
       <path id="CMR17-4e" d="M 1312 4250 
C 1267 4320 1261 4320 1139 4320 
L 326 4320 
L 326 4160 
L 448 4160 
C 704 4160 819 4129 838 4122 
L 838 610 
C 838 451 838 153 326 153 
L 326 -13 
C 474 0 742 0 902 0 
C 1062 0 1331 0 1478 -13 
L 1478 153 
C 966 153 966 451 966 610 
L 966 4033 
C 1011 3995 1011 3982 1056 3919 
L 3430 76 
C 3475 0 3494 0 3526 0 
C 3590 0 3590 19 3590 139 
L 3590 3705 
C 3590 3863 3590 4160 4102 4160 
L 4102 4326 
C 3955 4320 3686 4320 3526 4320 
C 3366 4320 3098 4320 2950 4326 
L 2950 4160 
C 3462 4160 3462 3862 3462 3703 
L 3462 763 
L 1312 4250 
z
" transform="scale(0.015625)"/>
       <path id="CMR17-52" d="M 2509 2146 
C 3117 2268 3629 2676 3629 3186 
C 3629 3785 2950 4326 2054 4326 
L 333 4326 
L 333 4160 
C 774 4160 845 4160 845 3873 
L 845 415 
C 845 128 774 128 333 128 
L 333 -26 
C 518 -26 851 -26 1050 -26 
C 1248 -26 1581 -26 1766 -26 
L 1766 128 
C 1325 128 1254 128 1254 417 
L 1254 2112 
L 2003 2112 
C 2368 2112 2573 1964 2662 1881 
C 2918 1632 2918 1459 2918 1024 
C 2918 595 2918 377 3110 160 
C 3354 -102 3680 -128 3821 -128 
C 4294 -128 4365 396 4365 503 
C 4365 540 4365 585 4307 585 
C 4256 585 4250 547 4250 522 
C 4218 112 4032 -26 3834 -26 
C 3482 -26 3443 375 3405 764 
C 3386 898 3373 993 3360 1133 
C 3322 1452 3270 1917 2509 2146 
z
M 1984 2214 
L 1254 2214 
L 1254 3913 
C 1254 4129 1267 4160 1523 4160 
L 1990 4160 
C 2522 4160 3142 3977 3142 3190 
C 3142 2372 2464 2214 1984 2214 
z
" transform="scale(0.015625)"/>
       <path id="CMR17-28" d="M 1958 -1561 
C 1958 -1555 1958 -1542 1939 -1523 
C 1645 -1224 858 -407 858 1581 
C 858 3569 1632 4379 1946 4697 
C 1946 4704 1958 4717 1958 4736 
C 1958 4755 1939 4768 1914 4768 
C 1843 4768 1299 4296 986 3594 
C 666 2887 576 2199 576 1588 
C 576 1128 621 351 1005 -471 
C 1312 -1135 1837 -1600 1914 -1600 
C 1946 -1600 1958 -1587 1958 -1561 
z
" transform="scale(0.015625)"/>
       <path id="CMR17-64" d="M 1869 4326 
L 1869 4160 
C 2246 4160 2304 4122 2304 3820 
L 2304 2345 
C 2278 2377 2016 2790 1498 2790 
C 845 2790 211 2208 211 1364 
C 211 525 806 -64 1434 -64 
C 1978 -64 2259 337 2291 380 
L 2291 -63 
L 3066 -63 
L 3066 128 
C 2688 128 2630 166 2630 473 
L 2630 4396 
L 1869 4326 
z
M 2291 755 
C 2291 563 2176 390 2029 262 
C 1811 70 1594 38 1472 38 
C 1286 38 621 134 621 1356 
C 621 2612 1363 2688 1530 2688 
C 1824 2688 2061 2522 2208 2291 
C 2291 2157 2291 2138 2291 2023 
L 2291 755 
z
" transform="scale(0.015625)"/>
       <path id="CMR17-42" d="M 333 4352 
L 333 4186 
C 774 4186 845 4186 845 3900 
L 845 452 
C 845 166 774 166 333 166 
L 333 0 
L 2534 0 
C 3354 0 3885 583 3885 1164 
C 3885 1741 3360 2233 2675 2233 
C 3290 2356 3718 2771 3718 3264 
C 3718 3802 3194 4352 2368 4352 
L 333 4352 
z
M 1248 2304 
L 1248 3937 
C 1248 4155 1261 4186 1517 4186 
L 2336 4186 
C 2970 4186 3251 3674 3251 3277 
C 3251 2791 2861 2304 2170 2304 
L 1248 2304 
z
M 1517 166 
C 1261 166 1248 197 1248 413 
L 1248 2202 
L 2432 2202 
C 3091 2202 3411 1625 3411 1162 
C 3411 699 3046 166 2349 166 
L 1517 166 
z
" transform="scale(0.015625)"/>
       <path id="CMR17-29" d="M 1683 1581 
C 1683 2040 1638 2817 1254 3639 
C 947 4303 422 4768 346 4768 
C 326 4768 301 4761 301 4729 
C 301 4717 307 4710 314 4697 
C 621 4378 1402 3568 1402 1584 
C 1402 -407 627 -1217 314 -1537 
C 307 -1549 301 -1556 301 -1568 
C 301 -1600 326 -1600 346 -1600 
C 416 -1600 960 -1128 1274 -426 
C 1594 281 1683 969 1683 1581 
z
" transform="scale(0.015625)"/>
      </defs>
      <use xlink:href="#CMR17-50" transform="scale(0.996264)"/>
      <use xlink:href="#CMR17-53" transform="translate(62.586301 0) scale(0.996264)"/>
      <use xlink:href="#CMR17-4e" transform="translate(113.48167 0) scale(0.996264)"/>
      <use xlink:href="#CMR17-52" transform="translate(182.5541 0) scale(0.996264)"/>
      <use xlink:href="#CMR17-28" transform="translate(280.421168 0) scale(0.996264)"/>
      <use xlink:href="#CMR17-64" transform="translate(315.701936 0) scale(0.996264)"/>
      <use xlink:href="#CMR17-42" transform="translate(366.597306 0) scale(0.996264)"/>
      <use xlink:href="#CMR17-29" transform="translate(431.78606 0) scale(0.996264)"/>
     </g>
    </g>
   </g>
   <g id="PolyCollection_1">
    <defs>
     <path id="mfce352fed6" d="M 95.207792 -313.800027 
L 95.207792 -285.393826 
L 101.052066 -296.965914 
L 106.896339 -297.12312 
L 112.740612 -294.179879 
L 118.584886 -308.65154 
L 124.429159 -308.56857 
L 130.273432 -309.407001 
L 136.117705 -309.415734 
L 141.961979 -310.158095 
L 147.806252 -309.738879 
L 153.650525 -308.607872 
L 159.494799 -309.708312 
L 165.339072 -309.027087 
L 171.183345 -310.241064 
L 177.027618 -309.450669 
L 182.871892 -310.463772 
L 188.716165 -310.874254 
L 194.560438 -310.603511 
L 200.404712 -309.891718 
L 206.248985 -282.734429 
L 212.093258 -290.847991 
L 217.937531 -292.031401 
L 223.781805 -292.245375 
L 229.626078 -292.350179 
L 235.470351 -306.747604 
L 241.314624 -301.944095 
L 247.158898 -304.817467 
L 253.003171 -306.765071 
L 258.847444 -306.062012 
L 264.691718 -307.031447 
L 270.535991 -302.096934 
L 276.380264 -284.913475 
L 282.224537 -290.36764 
L 288.068811 -307.869878 
L 293.913084 -307.979049 
L 299.757357 -307.882978 
L 305.601631 -307.948481 
L 311.445904 -304.302181 
L 317.290177 -304.249779 
L 323.13445 -306.843674 
L 328.978724 -305.337119 
L 334.822997 -305.354586 
L 340.66727 -305.642797 
L 346.511544 -308.127521 
L 352.355817 -308.079486 
L 358.20009 -305.607862 
L 364.044363 -308.878615 
L 369.888637 -306.695202 
L 375.73291 -309.398267 
L 381.577183 -307.603502 
L 387.421457 -85.2098 
L 393.26573 -87.50675 
L 399.110003 -91.004577 
L 404.954276 -91.144316 
L 410.79855 -91.677069 
L 416.642823 -93.358297 
L 422.487096 -91.960912 
L 428.331369 -93.62904 
L 434.175643 -93.332096 
L 440.019916 -86.31024 
L 445.864189 -95.607212 
L 451.708463 -96.537346 
L 457.552736 -95.882322 
L 463.397009 -94.624676 
L 469.241282 -90.725101 
L 475.085556 -92.838644 
L 480.929829 -92.323359 
L 486.774102 -90.419423 
L 492.618376 -90.952176 
L 498.462649 -91.035145 
L 504.306922 -89.987107 
L 510.151195 -92.118118 
L 515.995469 -93.877949 
L 521.839742 -94.629043 
L 527.684015 -95.541709 
L 533.528289 -95.581011 
L 539.372562 -93.467467 
L 545.216835 -93.856115 
L 551.061108 -97.602851 
L 556.905382 -95.84302 
L 562.749655 -96.956561 
L 568.593928 -93.760044 
L 574.438201 -92.786242 
L 580.282475 -92.105018 
L 586.126748 -91.668335 
L 591.971021 -91.498029 
L 597.815295 -91.498029 
L 603.659568 -91.24912 
L 609.503841 -90.100644 
L 615.348114 -92.000214 
L 621.192388 -91.725104 
L 627.036661 -91.35829 
L 632.880934 -92.100651 
L 638.725208 -92.08755 
L 644.569481 -92.026415 
L 650.413754 -96.83429 
L 656.258027 -96.75132 
L 662.102301 -95.511142 
L 667.946574 -95.56791 
L 673.790847 -97.519881 
L 673.790847 -224.913289 
L 673.790847 -224.913289 
L 667.946574 -224.336868 
L 662.102301 -223.323765 
L 656.258027 -205.633753 
L 650.413754 -196.306214 
L 644.569481 -203.018025 
L 638.725208 -220.367424 
L 632.880934 -204.419776 
L 627.036661 -203.43724 
L 621.192388 -186.314916 
L 615.348114 -181.354202 
L 609.503841 -183.358575 
L 603.659568 -184.799628 
L 597.815295 -182.913159 
L 591.971021 -187.996144 
L 586.126748 -183.192636 
L 580.282475 -203.480908 
L 574.438201 -207.847734 
L 568.593928 -211.965651 
L 562.749655 -224.11416 
L 556.905382 -219.494058 
L 551.061108 -200.939416 
L 545.216835 -218.926371 
L 539.372562 -211.830279 
L 533.528289 -213.153427 
L 527.684015 -215.415443 
L 521.839742 -199.86081 
L 515.995469 -196.000536 
L 510.151195 -200.97435 
L 504.306922 -193.114064 
L 498.462649 -199.170851 
L 492.618376 -208.598828 
L 486.774102 -231.227719 
L 480.929829 -219.611963 
L 475.085556 -229.655662 
L 469.241282 -232.035582 
L 463.397009 -234.109824 
L 457.552736 -240.826002 
L 451.708463 -195.84333 
L 445.864189 -191.306198 
L 440.019916 -194.092233 
L 434.175643 -195.935033 
L 428.331369 -189.114052 
L 422.487096 -180.376033 
L 416.642823 -194.223238 
L 410.79855 -184.764693 
L 404.954276 -171.755919 
L 399.110003 -162.830127 
L 393.26573 -149.603012 
L 387.421457 -118.725187 
L 381.577183 -406.049221 
L 375.73291 -406.765381 
L 369.888637 -413.298152 
L 364.044363 -403.82214 
L 358.20009 -402.26755 
L 352.355817 -398.931295 
L 346.511544 -389.643057 
L 340.66727 -368.092772 
L 334.822997 -366.332941 
L 328.978724 -372.507633 
L 323.13445 -370.656099 
L 317.290177 -372.739075 
L 311.445904 -396.267532 
L 305.601631 -368.30238 
L 299.757357 -371.861343 
L 293.913084 -359.529427 
L 288.068811 -378.136471 
L 282.224537 -380.11901 
L 276.380264 -415.913881 
L 270.535991 -419.459743 
L 264.691718 -436.93578 
L 258.847444 -434.084243 
L 253.003171 -421.19774 
L 247.158898 -400.472785 
L 241.314624 -383.581903 
L 235.470351 -399.258807 
L 229.626078 -403.350523 
L 223.781805 -387.202001 
L 217.937531 -404.250089 
L 212.093258 -406.630009 
L 206.248985 -409.830893 
L 200.404712 -414.761039 
L 194.560438 -417.852751 
L 188.716165 -421.835297 
L 182.871892 -418.669348 
L 177.027618 -413.446624 
L 171.183345 -385.241297 
L 165.339072 -372.778376 
L 159.494799 -395.267529 
L 153.650525 -396.551375 
L 147.806252 -387.359207 
L 141.961979 -405.63874 
L 136.117705 -386.660515 
L 130.273432 -379.263112 
L 124.429159 -374.542574 
L 118.584886 -391.809003 
L 112.740612 -376.092797 
L 106.896339 -358.171344 
L 101.052066 -353.861287 
L 95.207792 -313.800027 
z
" style="stroke: #ffffff; stroke-opacity: 0.2"/>
    </defs>
    <g clip-path="url(#pa94ccff354)">
     <use xlink:href="#mfce352fed6" x="0" y="576" style="fill: #4c72b0; fill-opacity: 0.2; stroke: #ffffff; stroke-opacity: 0.2"/>
    </g>
   </g>
   <g id="PolyCollection_2">
    <defs>
     <path id="m089c52ed3f" d="M 95.207792 -317.433226 
L 95.207792 -287.594706 
L 101.052066 -302.227939 
L 106.896339 -307.66027 
L 112.740612 -308.027084 
L 118.584886 -307.865511 
L 124.429159 -307.800009 
L 130.273432 -310.786918 
L 136.117705 -311.629715 
L 141.961979 -308.882982 
L 147.806252 -305.529259 
L 153.650525 -311.345871 
L 159.494799 -295.612198 
L 165.339072 -306.72577 
L 171.183345 -306.223585 
L 177.027618 -307.310924 
L 182.871892 -307.310924 
L 188.716165 -307.808742 
L 194.560438 -311.690851 
L 200.404712 -311.743252 
L 206.248985 -311.712685 
L 212.093258 -300.258501 
L 217.937531 -294.765034 
L 223.781805 -311.2105 
L 229.626078 -311.206133 
L 235.470351 -311.206133 
L 241.314624 -310.743249 
L 247.158898 -310.795651 
L 253.003171 -307.402628 
L 258.847444 -312.040197 
L 264.691718 -312.040197 
L 270.535991 -312.040197 
L 276.380264 -312.066398 
L 282.224537 -312.092598 
L 288.068811 -312.092598 
L 293.913084 -312.096965 
L 299.757357 -312.114433 
L 305.601631 -312.651552 
L 311.445904 -312.620984 
L 317.290177 -312.834959 
L 323.13445 -315.533657 
L 328.978724 -318.101351 
L 334.822997 -318.101351 
L 340.66727 -307.341492 
L 346.511544 -311.258535 
L 352.355817 -311.048927 
L 358.20009 -310.511808 
L 364.044363 -310.511808 
L 369.888637 -311.236701 
L 375.73291 -311.437575 
L 381.577183 -311.695217 
L 387.421457 -88.380115 
L 393.26573 -91.44126 
L 399.110003 -90.056976 
L 404.954276 -91.297155 
L 410.79855 -91.26222 
L 416.642823 -91.284054 
L 422.487096 -91.563531 
L 428.331369 -91.567898 
L 434.175643 -91.567898 
L 440.019916 -94.506772 
L 445.864189 -95.532976 
L 451.708463 -95.532976 
L 457.552736 -95.489307 
L 463.397009 -92.44563 
L 469.241282 -92.89978 
L 475.085556 -96.166165 
L 480.929829 -94.773148 
L 486.774102 -101.030809 
L 492.618376 -98.85613 
L 498.462649 -103.790643 
L 504.306922 -105.572308 
L 510.151195 -105.581042 
L 515.995469 -105.926021 
L 521.839742 -107.349606 
L 527.684015 -110.402017 
L 533.528289 -105.493705 
L 539.372562 -104.209858 
L 545.216835 -104.222959 
L 551.061108 -103.751342 
L 556.905382 -102.987147 
L 562.749655 -99.908535 
L 568.593928 -101.000242 
L 574.438201 -98.637789 
L 580.282475 -98.253508 
L 586.126748 -93.891049 
L 591.971021 -95.921623 
L 597.815295 -94.64651 
L 603.659568 -95.56791 
L 609.503841 -94.899786 
L 615.348114 -94.690178 
L 621.192388 -94.690178 
L 627.036661 -94.755681 
L 632.880934 -94.484938 
L 638.725208 -94.484938 
L 644.569481 -94.620309 
L 650.413754 -94.847384 
L 656.258027 -94.043888 
L 662.102301 -93.974019 
L 667.946574 -93.974019 
L 673.790847 -93.960918 
L 673.790847 -309.018353 
L 673.790847 -309.018353 
L 667.946574 -314.276011 
L 662.102301 -316.516193 
L 656.258027 -325.878667 
L 650.413754 -328.817541 
L 644.569481 -299.092558 
L 638.725208 -292.581621 
L 632.880934 -283.192946 
L 627.036661 -283.03574 
L 621.192388 -276.341396 
L 615.348114 -279.502978 
L 609.503841 -290.328339 
L 603.659568 -288.603443 
L 597.815295 -274.489862 
L 591.971021 -275.961482 
L 586.126748 -278.123061 
L 580.282475 -278.852321 
L 574.438201 -288.406936 
L 568.593928 -301.699553 
L 562.749655 -290.280304 
L 556.905382 -293.302147 
L 551.061108 -253.227787 
L 545.216835 -247.271437 
L 539.372562 -239.140407 
L 533.528289 -235.066159 
L 527.684015 -236.917693 
L 521.839742 -235.607645 
L 515.995469 -232.825977 
L 510.151195 -232.271391 
L 504.306922 -234.860918 
L 498.462649 -236.524679 
L 492.618376 -237.860928 
L 486.774102 -227.166571 
L 480.929829 -224.087959 
L 475.085556 -225.301937 
L 469.241282 -224.952591 
L 463.397009 -220.725503 
L 457.552736 -220.450393 
L 451.708463 -220.249519 
L 445.864189 -190.812747 
L 440.019916 -194.686121 
L 434.175643 -182.310537 
L 428.331369 -173.065967 
L 422.487096 -162.81266 
L 416.642823 -163.851965 
L 410.79855 -161.546281 
L 404.954276 -161.498246 
L 399.110003 -159.192562 
L 393.26573 -129.655352 
L 387.421457 -118.589816 
L 381.577183 -467.935876 
L 375.73291 -466.302683 
L 369.888637 -468.49483 
L 364.044363 -451.289536 
L 358.20009 -446.726203 
L 352.355817 -433.787299 
L 346.511544 -438.734912 
L 340.66727 -432.494718 
L 334.822997 -435.058045 
L 328.978724 -426.359328 
L 323.13445 -437.547136 
L 317.290177 -441.996931 
L 311.445904 -451.970761 
L 305.601631 -460.962055 
L 299.757357 -459.678208 
L 293.913084 -462.92276 
L 288.068811 -471.197895 
L 282.224537 -460.783015 
L 276.380264 -460.315765 
L 270.535991 -455.756799 
L 264.691718 -437.56897 
L 258.847444 -452.346308 
L 253.003171 -454.202209 
L 247.158898 -456.15418 
L 241.314624 -456.25025 
L 235.470351 -454.442384 
L 229.626078 -436.451062 
L 223.781805 -444.582092 
L 217.937531 -442.197805 
L 212.093258 -441.665052 
L 206.248985 -440.503477 
L 200.404712 -443.813531 
L 194.560438 -443.577722 
L 188.716165 -443.835365 
L 182.871892 -444.437987 
L 177.027618 -444.682529 
L 171.183345 -444.962006 
L 165.339072 -443.355014 
L 159.494799 -443.848465 
L 153.650525 -443.651958 
L 147.806252 -439.835352 
L 141.961979 -433.145375 
L 136.117705 -412.088541 
L 130.273432 -399.149637 
L 124.429159 -388.153969 
L 118.584886 -398.756622 
L 112.740612 -368.594957 
L 106.896339 -350.520665 
L 101.052066 -354.935526 
L 95.207792 -317.433226 
z
" style="stroke: #ffffff; stroke-opacity: 0.2"/>
    </defs>
    <g clip-path="url(#pa94ccff354)">
     <use xlink:href="#m089c52ed3f" x="0" y="576" style="fill: #dd8452; fill-opacity: 0.2; stroke: #ffffff; stroke-opacity: 0.2"/>
    </g>
   </g>
   <g id="PolyCollection_3">
    <defs>
     <path id="md5d6bf1611" d="M 95.207792 -320.345899 
L 95.207792 -277.865418 
L 101.052066 -304.123141 
L 106.896339 -305.99651 
L 112.740612 -301.769422 
L 118.584886 -303.717027 
L 124.429159 -300.568545 
L 130.273432 -300.568545 
L 136.117705 -302.577285 
L 141.961979 -304.053272 
L 147.806252 -307.227955 
L 153.650525 -306.489961 
L 159.494799 -311.241067 
L 165.339072 -311.315304 
L 171.183345 -311.315304 
L 177.027618 -311.337138 
L 182.871892 -311.376439 
L 188.716165 -311.891725 
L 194.560438 -311.931026 
L 200.404712 -309.542372 
L 206.248985 -309.778181 
L 212.093258 -313.179938 
L 217.937531 -313.179938 
L 223.781805 -313.193039 
L 229.626078 -313.791294 
L 235.470351 -313.127536 
L 241.314624 -312.516181 
L 247.158898 -312.472512 
L 253.003171 -314.393916 
L 258.847444 -317.175584 
L 264.691718 -316.826238 
L 270.535991 -313.786927 
L 276.380264 -314.896101 
L 282.224537 -314.804397 
L 288.068811 -314.804397 
L 293.913084 -314.80003 
L 299.757357 -314.791297 
L 305.601631 -314.830598 
L 311.445904 -314.830598 
L 317.290177 -314.830598 
L 323.13445 -314.830598 
L 328.978724 -314.808764 
L 334.822997 -314.808764 
L 340.66727 -314.78693 
L 346.511544 -316.481258 
L 352.355817 -316.476892 
L 358.20009 -321.498741 
L 364.044363 -322.184333 
L 369.888637 -320.616642 
L 375.73291 -319.468167 
L 381.577183 -319.747644 
L 387.421457 -96.563547 
L 393.26573 -97.502414 
L 399.110003 -97.943464 
L 404.954276 -97.065732 
L 410.79855 -96.122497 
L 416.642823 -96.541712 
L 422.487096 -97.607218 
L 428.331369 -97.183636 
L 434.175643 -96.585381 
L 440.019916 -96.550446 
L 445.864189 -99.873601 
L 451.708463 -99.873601 
L 457.552736 -99.873601 
L 463.397009 -101.991511 
L 469.241282 -101.799371 
L 475.085556 -100.707664 
L 480.929829 -101.262251 
L 486.774102 -101.572296 
L 492.618376 -112.974078 
L 498.462649 -112.878008 
L 504.306922 -112.6815 
L 510.151195 -111.000273 
L 515.995469 -113.292856 
L 521.839742 -111.332151 
L 527.684015 -112.402024 
L 533.528289 -112.292853 
L 539.372562 -112.358355 
L 545.216835 -112.498094 
L 551.061108 -114.096352 
L 556.905382 -126.650976 
L 562.749655 -130.650988 
L 568.593928 -131.799464 
L 574.438201 -131.799464 
L 580.282475 -134.236152 
L 586.126748 -128.68155 
L 591.971021 -122.223015 
L 597.815295 -117.340904 
L 603.659568 -118.188068 
L 609.503841 -121.214278 
L 615.348114 -122.506858 
L 621.192388 -122.349653 
L 627.036661 -122.039608 
L 632.880934 -122.039608 
L 638.725208 -112.498094 
L 644.569481 -126.498137 
L 650.413754 -125.445732 
L 656.258027 -126.506871 
L 662.102301 -126.502504 
L 667.946574 -126.323464 
L 673.790847 -126.244861 
L 673.790847 -319.485635 
L 673.790847 -319.485635 
L 667.946574 -319.27166 
L 662.102301 -307.144985 
L 656.258027 -316.385188 
L 650.413754 -309.979055 
L 644.569481 -311.511811 
L 638.725208 -307.813109 
L 632.880934 -307.367693 
L 627.036661 -298.625308 
L 621.192388 -329.24549 
L 615.348114 -318.472531 
L 609.503841 -295.367656 
L 603.659568 -287.725711 
L 597.815295 -289.249733 
L 591.971021 -288.974623 
L 586.126748 -288.974623 
L 580.282475 -288.974623 
L 574.438201 -289.987727 
L 568.593928 -291.013931 
L 562.749655 -291.878562 
L 556.905382 -291.878562 
L 551.061108 -294.83927 
L 545.216835 -294.939707 
L 539.372562 -295.075079 
L 533.528289 -294.909139 
L 527.684015 -294.162412 
L 521.839742 -294.197347 
L 515.995469 -292.992103 
L 510.151195 -281.778094 
L 504.306922 -263.472361 
L 498.462649 -261.157943 
L 492.618376 -251.040008 
L 486.774102 -222.332495 
L 480.929829 -222.389264 
L 475.085556 -201.69051 
L 469.241282 -199.157751 
L 463.397009 -193.673018 
L 457.552736 -194.93503 
L 451.708463 -203.546411 
L 445.864189 -200.725441 
L 440.019916 -200.891381 
L 434.175643 -198.546395 
L 428.331369 -195.742893 
L 422.487096 -195.341145 
L 416.642823 -189.393528 
L 410.79855 -173.729724 
L 404.954276 -172.611817 
L 399.110003 -169.712245 
L 393.26573 -154.616128 
L 387.421457 -141.467616 
L 381.577183 -500.922878 
L 375.73291 -503.045155 
L 369.888637 -508.315914 
L 364.044363 -519.674028 
L 358.20009 -525.276665 
L 352.355817 -524.687143 
L 346.511544 -525.425137 
L 340.66727 -525.621644 
L 334.822997 -526.442607 
L 328.978724 -535.529972 
L 323.13445 -536.171895 
L 317.290177 -536.128227 
L 311.445904 -536.084559 
L 305.601631 -530.962272 
L 299.757357 -515.99716 
L 293.913084 -521.918576 
L 288.068811 -511.067014 
L 282.224537 -501.582268 
L 276.380264 -504.687082 
L 270.535991 -486.866066 
L 264.691718 -495.660853 
L 258.847444 -488.761268 
L 253.003171 -488.656464 
L 247.158898 -487.748164 
L 241.314624 -476.870401 
L 235.470351 -476.8311 
L 229.626078 -476.547256 
L 223.781805 -475.403148 
L 217.937531 -475.900966 
L 212.093258 -477.28525 
L 206.248985 -477.162979 
L 200.404712 -477.119311 
L 194.560438 -476.74813 
L 188.716165 -470.132389 
L 182.871892 -476.54289 
L 177.027618 -470.346364 
L 171.183345 -477.957741 
L 165.339072 -447.739307 
L 159.494799 -454.285179 
L 153.650525 -434.525292 
L 147.806252 -434.092976 
L 141.961979 -434.154112 
L 136.117705 -416.900783 
L 130.273432 -405.909483 
L 124.429159 -377.538216 
L 118.584886 -363.966122 
L 112.740612 -349.402758 
L 106.896339 -347.140742 
L 101.052066 -345.503182 
L 95.207792 -320.345899 
z
" style="stroke: #ffffff; stroke-opacity: 0.2"/>
    </defs>
    <g clip-path="url(#pa94ccff354)">
     <use xlink:href="#md5d6bf1611" x="0" y="576" style="fill: #55a868; fill-opacity: 0.2; stroke: #ffffff; stroke-opacity: 0.2"/>
    </g>
   </g>
   <g id="line2d_13">
    <path d="M 95.207792 272.132318 
L 101.052066 266.577715 
L 106.896339 261.566783 
L 112.740612 258.394284 
L 118.584886 257.693408 
L 124.429159 256.686855 
L 130.273432 252.317846 
L 136.117705 251.265441 
L 141.961979 250.263254 
L 147.806252 251.199939 
L 153.650525 252.110422 
L 159.494799 251.889897 
L 165.339072 252.271994 
L 171.183345 252.313479 
L 177.027618 257.17594 
L 182.871892 253.073307 
L 188.716165 253.616977 
L 194.560438 253.464138 
L 200.404712 252.870249 
L 206.248985 252.123522 
L 212.093258 256.180303 
L 217.937531 255.507812 
L 223.781805 256.582051 
L 229.626078 254.582045 
L 235.470351 254.741434 
L 241.314624 252.592956 
L 247.158898 252.509986 
L 253.003171 252.468501 
L 258.847444 253.396452 
L 264.691718 253.505623 
L 270.535991 253.885536 
L 276.380264 257.702142 
L 282.224537 257.896466 
L 288.068811 262.248008 
L 293.913084 261.75674 
L 299.757357 259.65848 
L 305.601631 260.420491 
L 311.445904 258.510005 
L 317.290177 257.477251 
L 323.13445 256.675938 
L 328.978724 256.258906 
L 334.822997 256.73489 
L 340.66727 259.992542 
L 346.511544 245.531799 
L 352.355817 248.514341 
L 358.20009 250.839675 
L 364.044363 253.35715 
L 369.888637 256.036198 
L 375.73291 258.706512 
L 381.577183 256.234889 
L 387.421457 480.530343 
L 393.26573 472.796695 
L 399.110003 467.285761 
L 404.954276 462.709327 
L 410.79855 451.07392 
L 416.642823 442.233281 
L 422.487096 437.449424 
L 428.331369 433.126266 
L 434.175643 430.340231 
L 440.019916 430.689578 
L 445.864189 431.969057 
L 451.708463 436.683046 
L 457.552736 437.451607 
L 463.397009 437.814054 
L 469.241282 444.497481 
L 475.085556 444.034597 
L 480.929829 441.980005 
L 486.774102 440.744194 
L 492.618376 441.868651 
L 498.462649 440.46035 
L 504.306922 431.22888 
L 510.151195 436.440687 
L 515.995469 440.049869 
L 521.839742 440.54332 
L 527.684015 443.495294 
L 533.528289 445.078268 
L 539.372562 438.102264 
L 545.216835 431.790018 
L 551.061108 439.235456 
L 556.905382 439.466897 
L 562.749655 447.506223 
L 568.593928 443.28132 
L 574.438201 444.001846 
L 580.282475 445.224557 
L 586.126748 443.722369 
L 591.971021 434.814044 
L 597.815295 428.272539 
L 603.659568 427.113147 
L 609.503841 427.09568 
L 615.348114 435.770379 
L 621.192388 433.080415 
L 627.036661 420.023606 
L 632.880934 431.414471 
L 638.725208 428.940664 
L 644.569481 432.440675 
L 650.413754 432.191766 
L 656.258027 434.390462 
L 662.102301 434.621904 
L 667.946574 429.951584 
L 673.790847 429.316211 
" clip-path="url(#pa94ccff354)" style="fill: none; stroke: #4c72b0; stroke-width: 2; stroke-linecap: round"/>
   </g>
   <g id="line2d_14">
    <path d="M 95.207792 272.149785 
L 101.052066 264.350634 
L 106.896339 262.455432 
L 112.740612 263.117006 
L 118.584886 260.715252 
L 124.429159 259.003456 
L 130.273432 259.641013 
L 136.117705 257.850614 
L 141.961979 257.298211 
L 147.806252 257.435766 
L 153.650525 255.175933 
L 159.494799 253.686846 
L 165.339072 251.737058 
L 171.183345 250.802557 
L 177.027618 249.983778 
L 182.871892 248.927006 
L 188.716165 249.097312 
L 194.560438 248.717398 
L 200.404712 249.171548 
L 206.248985 246.333111 
L 212.093258 246.001232 
L 217.937531 242.112574 
L 223.781805 243.182446 
L 229.626078 241.234842 
L 235.470351 240.806893 
L 241.314624 241.658424 
L 247.158898 240.029598 
L 253.003171 239.514313 
L 258.847444 236.138757 
L 264.691718 236.171508 
L 270.535991 228.26537 
L 276.380264 227.042658 
L 282.224537 229.793759 
L 288.068811 228.440043 
L 293.913084 228.937861 
L 299.757357 233.695518 
L 305.601631 236.383299 
L 311.445904 238.994661 
L 317.290177 240.378944 
L 323.13445 241.370214 
L 328.978724 243.612579 
L 334.822997 246.189006 
L 340.66727 247.02307 
L 346.511544 247.405167 
L 352.355817 247.656259 
L 358.20009 248.20648 
L 364.044363 243.354936 
L 369.888637 247.678094 
L 375.73291 243.791619 
L 381.577183 243.573277 
L 387.421457 478.729028 
L 393.26573 473.239928 
L 399.110003 467.90585 
L 404.954276 457.145991 
L 410.79855 458.294467 
L 416.642823 444.678704 
L 422.487096 440.864282 
L 428.331369 436.580425 
L 434.175643 432.49526 
L 440.019916 427.093497 
L 445.864189 422.268154 
L 451.708463 421.907891 
L 457.552736 420.744132 
L 463.397009 418.31181 
L 469.241282 416.530145 
L 475.085556 415.761584 
L 480.929829 418.012682 
L 486.774102 416.645866 
L 492.618376 415.630579 
L 498.462649 415.444989 
L 504.306922 410.16768 
L 510.151195 408.768112 
L 515.995469 409.506106 
L 521.839742 411.765938 
L 527.684015 405.062861 
L 533.528289 409.798683 
L 539.372562 405.910025 
L 545.216835 405.944959 
L 551.061108 406.820508 
L 556.905382 411.521396 
L 562.749655 410.292134 
L 568.593928 415.486474 
L 574.438201 410.390388 
L 580.282475 411.765938 
L 586.126748 412.859828 
L 591.971021 412.174236 
L 597.815295 405.58688 
L 603.659568 403.455869 
L 609.503841 403.008269 
L 615.348114 404.14146 
L 621.192388 404.713515 
L 627.036661 405.816138 
L 632.880934 405.468975 
L 638.725208 408.868549 
L 644.569481 407.929682 
L 650.413754 408.189508 
L 656.258027 407.903481 
L 662.102301 409.268114 
L 667.946574 408.449334 
L 673.790847 404.626178 
" clip-path="url(#pa94ccff354)" style="fill: none; stroke: #dd8452; stroke-width: 2; stroke-linecap: round"/>
   </g>
   <g id="line2d_15">
    <path d="M 95.207792 271.675985 
L 101.052066 264.953256 
L 106.896339 264.542775 
L 112.740612 263.014386 
L 118.584886 260.154115 
L 124.429159 261.1301 
L 130.273432 258.075506 
L 136.117705 256.544933 
L 141.961979 255.89646 
L 147.806252 254.505626 
L 153.650525 255.165016 
L 159.494799 253.341867 
L 165.339072 252.4292 
L 171.183345 252.223959 
L 177.027618 251.704307 
L 182.871892 251.413913 
L 188.716165 250.064564 
L 194.560438 243.060175 
L 200.404712 242.90952 
L 206.248985 241.481568 
L 212.093258 239.795973 
L 217.937531 239.191168 
L 223.781805 236.095088 
L 229.626078 234.830892 
L 235.470351 233.586347 
L 241.314624 232.734816 
L 247.158898 231.704245 
L 253.003171 231.830883 
L 258.847444 231.671494 
L 264.691718 231.667127 
L 270.535991 231.643109 
L 276.380264 230.83088 
L 282.224537 218.883245 
L 288.068811 215.440002 
L 293.913084 214.601572 
L 299.757357 213.44218 
L 305.601631 213.974932 
L 311.445904 213.568818 
L 317.290177 212.136499 
L 323.13445 213.878862 
L 328.978724 205.566609 
L 334.822997 200.7369 
L 340.66727 198.920301 
L 346.511544 201.232535 
L 352.355817 202.398477 
L 358.20009 206.516394 
L 364.044363 194.494523 
L 369.888637 192.568753 
L 375.73291 191.535998 
L 381.577183 187.529436 
L 387.421457 467.128555 
L 393.26573 460.68312 
L 399.110003 460.619801 
L 404.954276 459.75517 
L 410.79855 459.694034 
L 416.642823 457.252979 
L 422.487096 455.346859 
L 428.331369 450.842478 
L 434.175643 452.252963 
L 440.019916 446.017136 
L 445.864189 446.006219 
L 451.708463 436.379551 
L 457.552736 439.143752 
L 463.397009 437.117545 
L 469.241282 435.696143 
L 475.085556 430.648093 
L 480.929829 433.656836 
L 486.774102 433.309673 
L 492.618376 437.100078 
L 498.462649 426.080393 
L 504.306922 420.307449 
L 510.151195 415.47774 
L 515.995469 419.914435 
L 521.839742 414.47992 
L 527.684015 399.143628 
L 533.528289 402.20914 
L 539.372562 402.698224 
L 545.216835 403.599974 
L 551.061108 400.608698 
L 556.905382 392.187275 
L 562.749655 391.379412 
L 568.593928 393.427453 
L 574.438201 392.342297 
L 580.282475 393.868503 
L 586.126748 391.060634 
L 591.971021 392.464568 
L 597.815295 391.778977 
L 603.659568 378.853172 
L 609.503841 381.510386 
L 615.348114 379.754922 
L 621.192388 369.252706 
L 627.036661 373.593331 
L 632.880934 373.833506 
L 638.725208 379.88811 
L 644.569481 391.69819 
L 650.413754 392.741862 
L 656.258027 392.674176 
L 662.102301 393.191645 
L 667.946574 397.307378 
L 673.790847 397.222225 
" clip-path="url(#pa94ccff354)" style="fill: none; stroke: #55a868; stroke-width: 2; stroke-linecap: round"/>
   </g>
   <g id="patch_3">
    <path d="M 66.27864 513.338305 
L 66.27864 17.28 
" style="fill: none; stroke: #cccccc; stroke-width: 1.25; stroke-linejoin: miter; stroke-linecap: square"/>
   </g>
   <g id="patch_4">
    <path d="M 702.72 513.338305 
L 702.72 17.28 
" style="fill: none; stroke: #cccccc; stroke-width: 1.25; stroke-linejoin: miter; stroke-linecap: square"/>
   </g>
   <g id="patch_5">
    <path d="M 66.27864 513.338305 
L 702.72 513.338305 
" style="fill: none; stroke: #cccccc; stroke-width: 1.25; stroke-linejoin: miter; stroke-linecap: square"/>
   </g>
   <g id="patch_6">
    <path d="M 66.27864 17.28 
L 702.72 17.28 
" style="fill: none; stroke: #cccccc; stroke-width: 1.25; stroke-linejoin: miter; stroke-linecap: square"/>
   </g>
   <g id="legend_1">
    <g id="patch_7">
     <path d="M 583.193413 148.162063 
L 688.72 148.162063 
Q 692.72 148.162063 692.72 144.162063 
L 692.72 31.28 
Q 692.72 27.28 688.72 27.28 
L 583.193413 27.28 
Q 579.193413 27.28 579.193413 31.28 
L 579.193413 144.162063 
Q 579.193413 148.162063 583.193413 148.162063 
z
" style="fill: #ffffff; opacity: 0.8; stroke: #cccccc; stroke-linejoin: miter"/>
    </g>
    <g id="text_15">
     <!-- $\alpha$ -->
     <g style="fill: #262626" transform="translate(628.511101 51.884405) scale(0.24 -0.24)">
      <defs>
       <path id="CMMI12-b" d="M 2963 1616 
C 2963 2235 2611 2815 1933 2815 
C 1094 2815 256 1902 256 996 
C 256 441 602 -64 1254 -64 
C 1651 -64 2125 89 2579 472 
C 2669 115 2867 -64 3142 -64 
C 3488 -64 3661 294 3661 377 
C 3661 434 3616 434 3597 434 
C 3546 434 3539 415 3520 364 
C 3462 204 3315 64 3162 64 
C 2963 64 2963 472 2963 862 
C 3616 1641 3770 2446 3770 2452 
C 3770 2510 3718 2510 3699 2510 
C 3642 2510 3635 2491 3610 2376 
C 3526 2095 3360 1597 2963 1073 
L 2963 1616 
z
M 2560 626 
C 1997 121 1491 64 1267 64 
C 813 64 685 466 685 766 
C 685 1040 826 1692 1024 2044 
C 1286 2491 1645 2688 1933 2688 
C 2554 2688 2554 1877 2554 1341 
C 2554 1182 2547 1016 2547 856 
C 2547 728 2554 696 2560 626 
z
" transform="scale(0.015625)"/>
      </defs>
      <use xlink:href="#CMMI12-b" transform="scale(0.996264)"/>
     </g>
    </g>
    <g id="line2d_16">
     <path d="M 587.193413 73.535163 
L 607.193413 73.535163 
L 627.193413 73.535163 
" style="fill: none; stroke: #4c72b0; stroke-width: 2; stroke-linecap: round"/>
    </g>
    <g id="text_16">
     <!-- 0.01 -->
     <g style="fill: #262626" transform="translate(643.193413 80.535163) scale(0.2 -0.2)">
      <defs>
       <path id="CMR17-2e" d="M 1062 261 
C 1062 420 934 522 800 522 
C 672 522 538 420 538 261 
C 538 102 666 0 800 0 
C 928 0 1062 102 1062 261 
z
" transform="scale(0.015625)"/>
      </defs>
      <use xlink:href="#CMR17-30" transform="scale(0.996264)"/>
      <use xlink:href="#CMR17-2e" transform="translate(45.690477 0) scale(0.996264)"/>
      <use xlink:href="#CMR17-30" transform="translate(70.561536 0) scale(0.996264)"/>
      <use xlink:href="#CMR17-31" transform="translate(116.252013 0) scale(0.996264)"/>
     </g>
    </g>
    <g id="line2d_17">
     <path d="M 587.193413 101.410796 
L 607.193413 101.410796 
L 627.193413 101.410796 
" style="fill: none; stroke: #dd8452; stroke-width: 2; stroke-linecap: round"/>
    </g>
    <g id="text_17">
     <!-- 0.004 -->
     <g style="fill: #262626" transform="translate(643.193413 108.410796) scale(0.2 -0.2)">
      <use xlink:href="#CMR17-30" transform="scale(0.996264)"/>
      <use xlink:href="#CMR17-2e" transform="translate(45.690477 0) scale(0.996264)"/>
      <use xlink:href="#CMR17-30" transform="translate(70.561536 0) scale(0.996264)"/>
      <use xlink:href="#CMR17-30" transform="translate(116.252013 0) scale(0.996264)"/>
      <use xlink:href="#CMR17-34" transform="translate(161.94249 0) scale(0.996264)"/>
     </g>
    </g>
    <g id="line2d_18">
     <path d="M 587.193413 129.28643 
L 607.193413 129.28643 
L 627.193413 129.28643 
" style="fill: none; stroke: #55a868; stroke-width: 2; stroke-linecap: round"/>
    </g>
    <g id="text_18">
     <!-- 0.002 -->
     <g style="fill: #262626" transform="translate(643.193413 136.28643) scale(0.2 -0.2)">
      <use xlink:href="#CMR17-30" transform="scale(0.996264)"/>
      <use xlink:href="#CMR17-2e" transform="translate(45.690477 0) scale(0.996264)"/>
      <use xlink:href="#CMR17-30" transform="translate(70.561536 0) scale(0.996264)"/>
      <use xlink:href="#CMR17-30" transform="translate(116.252013 0) scale(0.996264)"/>
      <use xlink:href="#CMR17-32" transform="translate(161.94249 0) scale(0.996264)"/>
     </g>
    </g>
   </g>
  </g>
 </g>
 <defs>
  <clipPath id="pa94ccff354">
   <rect x="66.27864" y="17.28" width="636.44136" height="496.058305"/>
  </clipPath>
 </defs>
</svg>
