<?xml version="1.0" encoding="utf-8" standalone="no"?>
<!DOCTYPE svg PUBLIC "-//W3C//DTD SVG 1.1//EN"
  "http://www.w3.org/Graphics/SVG/1.1/DTD/svg11.dtd">
<svg xmlns:xlink="http://www.w3.org/1999/xlink" width="720pt" height="576pt" viewBox="0 0 720 576" xmlns="http://www.w3.org/2000/svg" version="1.1">
 <metadata>
  <rdf:RDF xmlns:dc="http://purl.org/dc/elements/1.1/" xmlns:cc="http://creativecommons.org/ns#" xmlns:rdf="http://www.w3.org/1999/02/22-rdf-syntax-ns#">
   <cc:Work>
    <dc:type rdf:resource="http://purl.org/dc/dcmitype/StillImage"/>
    <dc:date>2025-04-25T15:59:42.695670</dc:date>
    <dc:format>image/svg+xml</dc:format>
    <dc:creator>
     <cc:Agent>
      <dc:title>Matplotlib v3.9.2, https://matplotlib.org/</dc:title>
     </cc:Agent>
    </dc:creator>
   </cc:Work>
  </rdf:RDF>
 </metadata>
 <defs>
  <style type="text/css">*{stroke-linejoin: round; stroke-linecap: butt}</style>
 </defs>
 <g id="figure_1">
  <g id="patch_1">
   <path d="M 0 576 
L 720 576 
L 720 0 
L 0 0 
z
" style="fill: #ffffff"/>
  </g>
  <g id="axes_1">
   <g id="patch_2">
    <path d="M 68.436153 513.338305 
L 702.72 513.338305 
L 702.72 17.28 
L 68.436153 17.28 
z
" style="fill: #ffffff"/>
   </g>
   <g id="matplotlib.axis_1">
    <g id="xtick_1">
     <g id="line2d_1">
      <path d="M 97.267237 513.338305 
L 97.267237 17.28 
" clip-path="url(#p22b9fe0ecf)" style="fill: none; stroke: #cccccc; stroke-linecap: round"/>
     </g>
     <g id="text_1">
      <!-- $\mathdefault{0}$ -->
      <g style="fill: #262626" transform="translate(93.365243 533.907893) scale(0.16 -0.16)">
       <defs>
        <path id="CMR17-30" d="M 2688 2025 
C 2688 2416 2682 3080 2413 3591 
C 2176 4039 1798 4198 1466 4198 
C 1158 4198 768 4058 525 3597 
C 269 3118 243 2524 243 2025 
C 243 1661 250 1106 448 619 
C 723 -39 1216 -128 1466 -128 
C 1760 -128 2208 -7 2470 600 
C 2662 1042 2688 1559 2688 2025 
z
M 1466 -26 
C 1056 -26 813 325 723 812 
C 653 1188 653 1738 653 2096 
C 653 2588 653 2997 736 3387 
C 858 3929 1216 4096 1466 4096 
C 1728 4096 2067 3923 2189 3400 
C 2272 3036 2278 2607 2278 2096 
C 2278 1680 2278 1169 2202 792 
C 2067 95 1690 -26 1466 -26 
z
" transform="scale(0.015625)"/>
       </defs>
       <use xlink:href="#CMR17-30" transform="scale(0.996264)"/>
      </g>
     </g>
    </g>
    <g id="xtick_2">
     <g id="line2d_2">
      <path d="M 213.756465 513.338305 
L 213.756465 17.28 
" clip-path="url(#p22b9fe0ecf)" style="fill: none; stroke: #cccccc; stroke-linecap: round"/>
     </g>
     <g id="text_2">
      <!-- $\mathdefault{200}$ -->
      <g style="fill: #262626" transform="translate(202.050484 533.907893) scale(0.16 -0.16)">
       <defs>
        <path id="CMR17-32" d="M 2669 989 
L 2554 989 
C 2490 536 2438 459 2413 420 
C 2381 369 1920 369 1830 369 
L 602 369 
C 832 619 1280 1072 1824 1597 
C 2214 1967 2669 2402 2669 3035 
C 2669 3790 2067 4224 1395 4224 
C 691 4224 262 3604 262 3030 
C 262 2780 448 2748 525 2748 
C 589 2748 781 2787 781 3010 
C 781 3207 614 3264 525 3264 
C 486 3264 448 3258 422 3245 
C 544 3790 915 4058 1306 4058 
C 1862 4058 2227 3617 2227 3035 
C 2227 2479 1901 2000 1536 1584 
L 262 146 
L 262 0 
L 2515 0 
L 2669 989 
z
" transform="scale(0.015625)"/>
       </defs>
       <use xlink:href="#CMR17-32" transform="scale(0.996264)"/>
       <use xlink:href="#CMR17-30" transform="translate(45.690477 0) scale(0.996264)"/>
       <use xlink:href="#CMR17-30" transform="translate(91.380954 0) scale(0.996264)"/>
      </g>
     </g>
    </g>
    <g id="xtick_3">
     <g id="line2d_3">
      <path d="M 330.245693 513.338305 
L 330.245693 17.28 
" clip-path="url(#p22b9fe0ecf)" style="fill: none; stroke: #cccccc; stroke-linecap: round"/>
     </g>
     <g id="text_3">
      <!-- $\mathdefault{400}$ -->
      <g style="fill: #262626" transform="translate(318.539712 533.907893) scale(0.16 -0.16)">
       <defs>
        <path id="CMR17-34" d="M 2150 4122 
C 2150 4256 2144 4256 2029 4256 
L 128 1254 
L 128 1088 
L 1779 1088 
L 1779 457 
C 1779 224 1766 160 1318 160 
L 1197 160 
L 1197 0 
C 1402 0 1747 0 1965 0 
C 2182 0 2528 0 2733 0 
L 2733 160 
L 2611 160 
C 2163 160 2150 224 2150 457 
L 2150 1088 
L 2803 1088 
L 2803 1254 
L 2150 1254 
L 2150 4122 
z
M 1798 3703 
L 1798 1254 
L 256 1254 
L 1798 3703 
z
" transform="scale(0.015625)"/>
       </defs>
       <use xlink:href="#CMR17-34" transform="scale(0.996264)"/>
       <use xlink:href="#CMR17-30" transform="translate(45.690477 0) scale(0.996264)"/>
       <use xlink:href="#CMR17-30" transform="translate(91.380954 0) scale(0.996264)"/>
      </g>
     </g>
    </g>
    <g id="xtick_4">
     <g id="line2d_4">
      <path d="M 446.734921 513.338305 
L 446.734921 17.28 
" clip-path="url(#p22b9fe0ecf)" style="fill: none; stroke: #cccccc; stroke-linecap: round"/>
     </g>
     <g id="text_4">
      <!-- $\mathdefault{600}$ -->
      <g style="fill: #262626" transform="translate(435.028941 533.907893) scale(0.16 -0.16)">
       <defs>
        <path id="CMR17-36" d="M 678 2176 
C 678 3690 1395 4032 1811 4032 
C 1946 4032 2272 4009 2400 3776 
C 2298 3776 2106 3776 2106 3553 
C 2106 3381 2246 3323 2336 3323 
C 2394 3323 2566 3348 2566 3560 
C 2566 3954 2246 4179 1805 4179 
C 1043 4179 243 3390 243 1984 
C 243 253 966 -128 1478 -128 
C 2099 -128 2688 427 2688 1283 
C 2688 2081 2170 2662 1517 2662 
C 1126 2662 838 2407 678 1960 
L 678 2176 
z
M 1478 25 
C 691 25 691 1200 691 1436 
C 691 1896 909 2560 1504 2560 
C 1613 2560 1926 2560 2138 2120 
C 2253 1870 2253 1609 2253 1289 
C 2253 944 2253 690 2118 434 
C 1978 171 1773 25 1478 25 
z
" transform="scale(0.015625)"/>
       </defs>
       <use xlink:href="#CMR17-36" transform="scale(0.996264)"/>
       <use xlink:href="#CMR17-30" transform="translate(45.690477 0) scale(0.996264)"/>
       <use xlink:href="#CMR17-30" transform="translate(91.380954 0) scale(0.996264)"/>
      </g>
     </g>
    </g>
    <g id="xtick_5">
     <g id="line2d_5">
      <path d="M 563.224149 513.338305 
L 563.224149 17.28 
" clip-path="url(#p22b9fe0ecf)" style="fill: none; stroke: #cccccc; stroke-linecap: round"/>
     </g>
     <g id="text_5">
      <!-- $\mathdefault{800}$ -->
      <g style="fill: #262626" transform="translate(551.518169 533.907893) scale(0.16 -0.16)">
       <defs>
        <path id="CMR17-38" d="M 1741 2264 
C 2144 2467 2554 2773 2554 3263 
C 2554 3841 1990 4179 1472 4179 
C 890 4179 378 3759 378 3180 
C 378 3021 416 2747 666 2505 
C 730 2442 998 2251 1171 2130 
C 883 1983 211 1634 211 934 
C 211 279 838 -128 1459 -128 
C 2144 -128 2720 362 2720 1010 
C 2720 1590 2330 1857 2074 2029 
L 1741 2264 
z
M 902 2822 
C 851 2854 595 3051 595 3351 
C 595 3739 998 4032 1459 4032 
C 1965 4032 2336 3676 2336 3262 
C 2336 2669 1670 2331 1638 2331 
C 1632 2331 1626 2331 1574 2370 
L 902 2822 
z
M 2080 1519 
C 2176 1449 2483 1240 2483 851 
C 2483 381 2010 25 1472 25 
C 890 25 448 438 448 940 
C 448 1443 838 1862 1280 2060 
L 2080 1519 
z
" transform="scale(0.015625)"/>
       </defs>
       <use xlink:href="#CMR17-38" transform="scale(0.996264)"/>
       <use xlink:href="#CMR17-30" transform="translate(45.690477 0) scale(0.996264)"/>
       <use xlink:href="#CMR17-30" transform="translate(91.380954 0) scale(0.996264)"/>
      </g>
     </g>
    </g>
    <g id="xtick_6">
     <g id="line2d_6">
      <path d="M 679.713377 513.338305 
L 679.713377 17.28 
" clip-path="url(#p22b9fe0ecf)" style="fill: none; stroke: #cccccc; stroke-linecap: round"/>
     </g>
     <g id="text_6">
      <!-- $\mathdefault{1000}$ -->
      <g style="fill: #262626" transform="translate(664.105403 533.907893) scale(0.16 -0.16)">
       <defs>
        <path id="CMR17-31" d="M 1702 4058 
C 1702 4192 1696 4192 1606 4192 
C 1357 3916 979 3827 621 3827 
C 602 3827 570 3827 563 3808 
C 557 3795 557 3782 557 3648 
C 755 3648 1088 3686 1344 3839 
L 1344 461 
C 1344 236 1331 160 781 160 
L 589 160 
L 589 0 
C 896 0 1216 0 1523 0 
C 1830 0 2150 0 2458 0 
L 2458 160 
L 2266 160 
C 1715 160 1702 230 1702 458 
L 1702 4058 
z
" transform="scale(0.015625)"/>
       </defs>
       <use xlink:href="#CMR17-31" transform="scale(0.996264)"/>
       <use xlink:href="#CMR17-30" transform="translate(45.690477 0) scale(0.996264)"/>
       <use xlink:href="#CMR17-30" transform="translate(91.380954 0) scale(0.996264)"/>
       <use xlink:href="#CMR17-30" transform="translate(137.071431 0) scale(0.996264)"/>
      </g>
     </g>
    </g>
    <g id="text_7">
     <!-- Step -->
     <g style="fill: #262626" transform="translate(367.822372 554.844366) scale(0.2 -0.2)">
      <defs>
       <path id="CMR17-53" d="M 2803 4290 
C 2803 4404 2797 4411 2758 4411 
C 2720 4411 2707 4385 2682 4328 
L 2490 3907 
C 2246 4257 1875 4416 1472 4416 
C 819 4416 294 3901 294 3253 
C 294 3056 339 2776 557 2510 
C 794 2218 1018 2167 1530 2033 
C 1722 1982 2042 1899 2106 1874 
C 2470 1722 2662 1341 2662 985 
C 2662 527 2336 38 1779 38 
C 1094 38 454 419 410 1311 
C 403 1413 397 1419 352 1419 
C 301 1419 294 1413 294 1285 
L 294 -1 
C 294 -115 301 -122 339 -122 
C 384 -122 397 -90 486 108 
C 493 127 493 140 614 381 
C 934 -39 1472 -128 1779 -128 
C 2477 -128 2970 451 2970 1124 
C 2970 1454 2848 1708 2778 1823 
C 2509 2230 2221 2306 1914 2382 
C 1869 2402 1856 2402 1498 2490 
C 1152 2579 1005 2624 845 2796 
C 666 2992 602 3196 602 3399 
C 602 3812 934 4263 1478 4263 
C 2157 4263 2579 3786 2675 2993 
C 2694 2878 2701 2872 2746 2872 
C 2803 2872 2803 2891 2803 2999 
L 2803 4290 
z
" transform="scale(0.015625)"/>
       <path id="CMR17-74" d="M 966 2560 
L 1862 2560 
L 1862 2725 
L 966 2725 
L 966 3904 
L 851 3904 
C 838 3245 614 2668 70 2668 
L 70 2560 
L 627 2560 
L 627 771 
C 627 650 627 -64 1370 -64 
C 1747 -64 1965 306 1965 777 
L 1965 1140 
L 1850 1140 
L 1850 783 
C 1850 344 1677 51 1408 51 
C 1222 51 966 178 966 758 
L 966 2560 
z
" transform="scale(0.015625)"/>
       <path id="CMR17-65" d="M 2438 1472 
C 2464 1498 2464 1511 2464 1576 
C 2464 2238 2118 2816 1389 2816 
C 710 2816 173 2169 173 1383 
C 173 551 781 -64 1459 -64 
C 2176 -64 2458 607 2458 740 
C 2458 784 2419 784 2406 784 
C 2362 784 2355 771 2330 696 
C 2189 265 1837 51 1504 51 
C 1229 51 954 203 781 480 
C 582 803 582 1176 582 1472 
L 2438 1472 
z
M 589 1568 
C 634 2505 1126 2714 1382 2714 
C 1818 2714 2112 2297 2118 1568 
L 589 1568 
z
" transform="scale(0.015625)"/>
       <path id="CMR17-70" d="M 1408 -1063 
C 998 -1063 973 -1037 973 -789 
L 973 402 
C 1158 134 1427 -38 1766 -38 
C 2406 -38 3053 523 3053 1388 
C 3053 2191 2496 2802 1837 2802 
C 1453 2802 1139 2592 960 2338 
L 960 2802 
L 198 2732 
L 198 2567 
C 576 2567 634 2528 634 2223 
L 634 -789 
C 634 -1031 608 -1063 198 -1063 
L 198 -1228 
C 352 -1216 634 -1216 800 -1216 
C 966 -1216 1254 -1216 1408 -1228 
L 1408 -1063 
z
M 973 2012 
C 973 2102 973 2235 1222 2471 
C 1254 2497 1472 2688 1792 2688 
C 2259 2688 2643 2108 2643 1382 
C 2643 656 2234 64 1728 64 
C 1498 64 1248 172 1056 472 
C 973 612 973 650 973 752 
L 973 2012 
z
" transform="scale(0.015625)"/>
      </defs>
      <use xlink:href="#CMR17-53" transform="scale(0.996264)"/>
      <use xlink:href="#CMR17-74" transform="translate(50.89537 0) scale(0.996264)"/>
      <use xlink:href="#CMR17-65" transform="translate(86.176138 0) scale(0.996264)"/>
      <use xlink:href="#CMR17-70" transform="translate(126.661798 0) scale(0.996264)"/>
     </g>
    </g>
   </g>
   <g id="matplotlib.axis_2">
    <g id="ytick_1">
     <g id="line2d_7">
      <path d="M 68.436153 480.13365 
L 702.72 480.13365 
" clip-path="url(#p22b9fe0ecf)" style="fill: none; stroke: #cccccc; stroke-linecap: round"/>
     </g>
     <g id="text_8">
      <!-- $\mathdefault{0.2}$ -->
      <g style="fill: #262626" transform="translate(38.99263 485.668444) scale(0.16 -0.16)">
       <defs>
        <path id="CMMI12-3a" d="M 1178 307 
C 1178 492 1024 619 870 619 
C 685 619 557 466 557 313 
C 557 128 710 0 864 0 
C 1050 0 1178 153 1178 307 
z
" transform="scale(0.015625)"/>
       </defs>
       <use xlink:href="#CMR17-30" transform="scale(0.996264)"/>
       <use xlink:href="#CMMI12-3a" transform="translate(45.690477 0) scale(0.996264)"/>
       <use xlink:href="#CMR17-32" transform="translate(72.787654 0) scale(0.996264)"/>
      </g>
     </g>
    </g>
    <g id="ytick_2">
     <g id="line2d_8">
      <path d="M 68.436153 397.524729 
L 702.72 397.524729 
" clip-path="url(#p22b9fe0ecf)" style="fill: none; stroke: #cccccc; stroke-linecap: round"/>
     </g>
     <g id="text_9">
      <!-- $\mathdefault{0.3}$ -->
      <g style="fill: #262626" transform="translate(38.99263 403.059524) scale(0.16 -0.16)">
       <defs>
        <path id="CMR17-33" d="M 1414 2157 
C 1984 2157 2234 1662 2234 1090 
C 2234 320 1824 25 1453 25 
C 1114 25 563 194 390 693 
C 422 680 454 680 486 680 
C 640 680 755 782 755 948 
C 755 1133 614 1216 486 1216 
C 378 1216 211 1165 211 926 
C 211 335 787 -128 1466 -128 
C 2176 -128 2720 430 2720 1085 
C 2720 1707 2208 2157 1600 2227 
C 2086 2328 2554 2756 2554 3329 
C 2554 3820 2048 4179 1472 4179 
C 890 4179 378 3829 378 3329 
C 378 3110 544 3072 627 3072 
C 762 3072 877 3155 877 3321 
C 877 3486 762 3569 627 3569 
C 602 3569 570 3569 544 3557 
C 730 3959 1235 4032 1459 4032 
C 1683 4032 2106 3925 2106 3320 
C 2106 3143 2080 2828 1862 2550 
C 1670 2304 1453 2304 1242 2284 
C 1210 2284 1062 2269 1037 2269 
C 992 2263 966 2257 966 2208 
C 966 2163 973 2157 1101 2157 
L 1414 2157 
z
" transform="scale(0.015625)"/>
       </defs>
       <use xlink:href="#CMR17-30" transform="scale(0.996264)"/>
       <use xlink:href="#CMMI12-3a" transform="translate(45.690477 0) scale(0.996264)"/>
       <use xlink:href="#CMR17-33" transform="translate(72.787654 0) scale(0.996264)"/>
      </g>
     </g>
    </g>
    <g id="ytick_3">
     <g id="line2d_9">
      <path d="M 68.436153 314.915809 
L 702.72 314.915809 
" clip-path="url(#p22b9fe0ecf)" style="fill: none; stroke: #cccccc; stroke-linecap: round"/>
     </g>
     <g id="text_10">
      <!-- $\mathdefault{0.4}$ -->
      <g style="fill: #262626" transform="translate(38.99263 320.450603) scale(0.16 -0.16)">
       <use xlink:href="#CMR17-30" transform="scale(0.996264)"/>
       <use xlink:href="#CMMI12-3a" transform="translate(45.690477 0) scale(0.996264)"/>
       <use xlink:href="#CMR17-34" transform="translate(72.787654 0) scale(0.996264)"/>
      </g>
     </g>
    </g>
    <g id="ytick_4">
     <g id="line2d_10">
      <path d="M 68.436153 232.306889 
L 702.72 232.306889 
" clip-path="url(#p22b9fe0ecf)" style="fill: none; stroke: #cccccc; stroke-linecap: round"/>
     </g>
     <g id="text_11">
      <!-- $\mathdefault{0.5}$ -->
      <g style="fill: #262626" transform="translate(38.99263 237.841683) scale(0.16 -0.16)">
       <defs>
        <path id="CMR17-35" d="M 730 3692 
C 794 3666 1056 3584 1325 3584 
C 1920 3584 2246 3911 2432 4100 
C 2432 4157 2432 4192 2394 4192 
C 2387 4192 2374 4192 2323 4163 
C 2099 4058 1837 3973 1517 3973 
C 1325 3973 1037 3999 723 4139 
C 653 4171 640 4171 634 4171 
C 602 4171 595 4164 595 4037 
L 595 2203 
C 595 2089 595 2057 659 2057 
C 691 2057 704 2070 736 2114 
C 941 2401 1222 2522 1542 2522 
C 1766 2522 2246 2382 2246 1289 
C 2246 1085 2246 715 2054 421 
C 1894 159 1645 25 1370 25 
C 947 25 518 320 403 814 
C 429 807 480 795 506 795 
C 589 795 749 840 749 1038 
C 749 1210 627 1280 506 1280 
C 358 1280 262 1190 262 1011 
C 262 454 704 -128 1382 -128 
C 2042 -128 2669 440 2669 1264 
C 2669 2030 2170 2624 1549 2624 
C 1222 2624 947 2503 730 2274 
L 730 3692 
z
" transform="scale(0.015625)"/>
       </defs>
       <use xlink:href="#CMR17-30" transform="scale(0.996264)"/>
       <use xlink:href="#CMMI12-3a" transform="translate(45.690477 0) scale(0.996264)"/>
       <use xlink:href="#CMR17-35" transform="translate(72.787654 0) scale(0.996264)"/>
      </g>
     </g>
    </g>
    <g id="ytick_5">
     <g id="line2d_11">
      <path d="M 68.436153 149.697969 
L 702.72 149.697969 
" clip-path="url(#p22b9fe0ecf)" style="fill: none; stroke: #cccccc; stroke-linecap: round"/>
     </g>
     <g id="text_12">
      <!-- $\mathdefault{0.6}$ -->
      <g style="fill: #262626" transform="translate(38.99263 155.232763) scale(0.16 -0.16)">
       <use xlink:href="#CMR17-30" transform="scale(0.996264)"/>
       <use xlink:href="#CMMI12-3a" transform="translate(45.690477 0) scale(0.996264)"/>
       <use xlink:href="#CMR17-36" transform="translate(72.787654 0) scale(0.996264)"/>
      </g>
     </g>
    </g>
    <g id="ytick_6">
     <g id="line2d_12">
      <path d="M 68.436153 67.089048 
L 702.72 67.089048 
" clip-path="url(#p22b9fe0ecf)" style="fill: none; stroke: #cccccc; stroke-linecap: round"/>
     </g>
     <g id="text_13">
      <!-- $\mathdefault{0.7}$ -->
      <g style="fill: #262626" transform="translate(38.99263 72.623843) scale(0.16 -0.16)">
       <defs>
        <path id="CMR17-37" d="M 2886 3941 
L 2886 4081 
L 1382 4081 
C 634 4081 621 4165 595 4288 
L 480 4288 
L 294 3094 
L 410 3094 
C 429 3215 474 3540 550 3661 
C 589 3712 1062 3712 1171 3712 
L 2579 3712 
L 1869 2661 
C 1395 1954 1069 999 1069 165 
C 1069 89 1069 -128 1299 -128 
C 1530 -128 1530 89 1530 171 
L 1530 465 
C 1530 1508 1709 2196 2003 2636 
L 2886 3941 
z
" transform="scale(0.015625)"/>
       </defs>
       <use xlink:href="#CMR17-30" transform="scale(0.996264)"/>
       <use xlink:href="#CMMI12-3a" transform="translate(45.690477 0) scale(0.996264)"/>
       <use xlink:href="#CMR17-37" transform="translate(72.787654 0) scale(0.996264)"/>
      </g>
     </g>
    </g>
    <g id="text_14">
     <!-- SSIM -->
     <g style="fill: #262626" transform="translate(31.116997 287.220751) rotate(-90) scale(0.2 -0.2)">
      <defs>
       <path id="CMR17-49" d="M 1261 3905 
C 1261 4192 1338 4192 1798 4192 
L 1798 4352 
C 1594 4352 1267 4352 1050 4352 
C 832 4352 506 4352 301 4352 
L 301 4192 
C 762 4192 838 4192 838 3905 
L 838 447 
C 838 160 762 160 301 160 
L 301 0 
C 506 0 832 0 1050 0 
C 1267 0 1594 0 1798 0 
L 1798 160 
C 1338 160 1261 160 1261 447 
L 1261 3905 
z
" transform="scale(0.015625)"/>
       <path id="CMR17-4d" d="M 1338 4224 
C 1299 4320 1293 4320 1158 4320 
L 339 4320 
L 339 4160 
C 781 4160 851 4160 851 3875 
L 851 610 
C 851 451 851 153 339 153 
L 339 -13 
C 486 0 755 0 915 0 
C 1075 0 1344 0 1491 -13 
L 1491 153 
C 979 153 979 451 979 610 
L 979 4135 
L 986 4135 
L 2490 89 
C 2515 25 2528 -13 2579 -13 
C 2630 -13 2643 25 2669 89 
L 4186 4166 
L 4192 4166 
L 4192 438 
C 4192 153 4122 153 3680 153 
L 3680 -13 
C 3853 0 4198 0 4384 0 
C 4570 0 4922 0 5094 -13 
L 5094 153 
C 4653 153 4582 153 4582 438 
L 4582 3875 
C 4582 4160 4653 4160 5094 4160 
L 5094 4320 
L 4282 4320 
C 4147 4320 4141 4314 4102 4218 
L 2720 502 
L 1338 4224 
z
" transform="scale(0.015625)"/>
      </defs>
      <use xlink:href="#CMR17-53" transform="scale(0.996264)"/>
      <use xlink:href="#CMR17-53" transform="translate(50.89537 0) scale(0.996264)"/>
      <use xlink:href="#CMR17-49" transform="translate(101.79074 0) scale(0.996264)"/>
      <use xlink:href="#CMR17-4d" transform="translate(134.429149 0) scale(0.996264)"/>
     </g>
    </g>
   </g>
   <g id="PolyCollection_1">
    <defs>
     <path id="m516511ec0b" d="M 97.267237 -319.075653 
L 97.267237 -250.097204 
L 103.091698 -275.375534 
L 108.916159 -288.179917 
L 114.740621 -293.879932 
L 120.565082 -307.262577 
L 126.389544 -307.097359 
L 132.214005 -309.575627 
L 138.038467 -299.332121 
L 143.862928 -297.10168 
L 149.687389 -300.323428 
L 155.511851 -310.401716 
L 161.336312 -303.545176 
L 167.160774 -298.919076 
L 172.985235 -295.201675 
L 178.809696 -294.540804 
L 184.634158 -308.832147 
L 190.458619 -315.027816 
L 196.283081 -314.366944 
L 202.107542 -311.806068 
L 207.932003 -306.766924 
L 213.756465 -313.045202 
L 219.580926 -314.036509 
L 225.405388 -307.179968 
L 231.229849 -313.540855 
L 237.05431 -313.375637 
L 242.878772 -308.419102 
L 248.703233 -313.210419 
L 254.527695 -311.062588 
L 260.352156 -308.749538 
L 266.176617 -312.797375 
L 272.001079 -313.045202 
L 277.82554 -313.788682 
L 283.650002 -310.649543 
L 289.474463 -319.488697 
L 295.298925 -315.275643 
L 301.123386 -311.062588 
L 306.947847 -303.95822 
L 312.772309 -302.636478 
L 318.59677 -310.649543 
L 324.421232 -323.206099 
L 330.245693 -306.601706 
L 336.070154 -318.084346 
L 341.894616 -332.788734 
L 347.719077 -327.914807 
L 353.543539 -331.219164 
L 359.368 -331.880035 
L 365.192461 -322.875663 
L 371.016923 -327.171327 
L 376.841384 -314.366944 
L 382.665846 -317.340866 
L 388.490307 -85.2098 
L 394.314768 -108.340297 
L 400.13923 -109.909867 
L 405.963691 -110.570738 
L 411.788153 -109.66204 
L 417.612614 -114.618575 
L 423.437076 -118.08815 
L 429.261537 -117.179452 
L 435.085998 -115.444664 
L 440.91046 -111.479436 
L 446.734921 -109.166387 
L 452.559383 -108.175079 
L 458.383844 -105.944639 
L 464.208305 -106.192465 
L 470.032767 -112.470743 
L 475.857228 -107.266381 
L 481.68169 -106.853337 
L 487.506151 -105.531594 
L 493.330612 -105.614203 
L 499.155074 -105.118549 
L 504.979535 -105.201158 
L 510.803997 -106.935946 
L 516.628458 -113.214224 
L 522.452919 -110.901174 
L 528.277381 -109.248995 
L 534.101842 -108.753342 
L 539.926304 -109.744649 
L 545.750765 -110.735956 
L 551.575226 -111.562045 
L 557.399688 -108.91856 
L 563.224149 -116.270754 
L 569.048611 -111.809872 
L 574.873072 -112.470743 
L 580.697534 -105.944639 
L 586.521995 -106.027248 
L 592.346456 -103.466371 
L 598.170918 -104.127242 
L 603.995379 -103.466371 
L 609.819841 -105.944639 
L 615.644302 -108.91856 
L 621.468763 -109.827258 
L 627.293225 -110.488129 
L 633.117686 -114.370748 
L 638.942148 -112.388134 
L 644.766609 -107.762035 
L 650.59107 -103.714198 
L 656.415532 -101.401148 
L 662.239993 -102.144628 
L 668.064455 -101.401148 
L 673.888916 -106.770728 
L 673.888916 -174.262216 
L 673.888916 -174.262216 
L 668.064455 -164.927408 
L 662.239993 -165.753497 
L 656.415532 -169.057854 
L 650.59107 -171.205686 
L 644.766609 -170.462205 
L 638.942148 -174.510042 
L 633.117686 -164.101318 
L 627.293225 -167.901329 
L 621.468763 -170.87525 
L 615.644302 -168.149156 
L 609.819841 -170.049161 
L 603.995379 -179.136142 
L 598.170918 -175.666567 
L 592.346456 -193.344876 
L 586.521995 -195.905753 
L 580.697534 -202.349249 
L 574.873072 -196.401406 
L 569.048611 -186.818772 
L 563.224149 -185.744856 
L 557.399688 -179.466578 
L 551.575226 -179.797013 
L 545.750765 -192.684005 
L 539.926304 -195.244881 
L 534.101842 -201.853595 
L 528.277381 -200.944897 
L 522.452919 -180.705711 
L 516.628458 -198.136194 
L 510.803997 -205.653605 
L 504.979535 -196.15358 
L 499.155074 -182.770934 
L 493.330612 -179.631795 
L 487.506151 -191.362262 
L 481.68169 -177.318746 
L 475.857228 -175.914394 
L 470.032767 -178.310053 
L 464.208305 -185.992682 
L 458.383844 -191.279653 
L 452.559383 -194.914446 
L 446.734921 -188.140514 
L 440.91046 -188.636168 
L 435.085998 -185.497029 
L 429.261537 -180.292667 
L 423.437076 -177.73179 
L 417.612614 -182.853543 
L 411.788153 -172.196993 
L 405.963691 -162.366531 
L 400.13923 -159.310001 
L 394.314768 -139.070816 
L 388.490307 -128.414265 
L 382.665846 -391.358458 
L 376.841384 -398.710652 
L 371.016923 -403.171534 
L 365.192461 -395.075859 
L 359.368 -397.719345 
L 353.543539 -398.214998 
L 347.719077 -407.219371 
L 341.894616 -417.132441 
L 336.070154 -421.758541 
L 330.245693 -398.628043 
L 324.421232 -394.332379 
L 318.59677 -402.67588 
L 312.772309 -410.854163 
L 306.947847 -405.815019 
L 301.123386 -401.9324 
L 295.298925 -407.549806 
L 289.474463 -401.271528 
L 283.650002 -409.367203 
L 277.82554 -389.128017 
L 272.001079 -386.814967 
L 266.176617 -406.641108 
L 260.352156 -404.906321 
L 254.527695 -397.471518 
L 248.703233 -387.558448 
L 242.878772 -386.401923 
L 237.05431 -389.871497 
L 231.229849 -394.580206 
L 225.405388 -402.345444 
L 219.580926 -398.628043 
L 213.756465 -395.075859 
L 207.932003 -426.632467 
L 202.107542 -426.632467 
L 196.283081 -408.871549 
L 190.458619 -409.780247 
L 184.634158 -387.888883 
L 178.809696 -377.232333 
L 172.985235 -367.071435 
L 167.160774 -382.519304 
L 161.336312 -388.301928 
L 155.511851 -384.419309 
L 149.687389 -390.367151 
L 143.862928 -382.188868 
L 138.038467 -387.310621 
L 132.214005 -380.867125 
L 126.389544 -367.649698 
L 120.565082 -361.784465 
L 114.740621 -356.662712 
L 108.916159 -356.74532 
L 103.091698 -340.388754 
L 97.267237 -319.075653 
z
" style="stroke: #ffffff; stroke-opacity: 0.2"/>
    </defs>
    <g clip-path="url(#p22b9fe0ecf)">
     <use xlink:href="#m516511ec0b" x="0" y="576" style="fill: #4c72b0; fill-opacity: 0.2; stroke: #ffffff; stroke-opacity: 0.2"/>
    </g>
   </g>
   <g id="PolyCollection_2">
    <defs>
     <path id="m5d34e5814e" d="M 97.267237 -323.619143 
L 97.267237 -271.988568 
L 103.091698 -289.41905 
L 108.916159 -293.136452 
L 114.740621 -296.440809 
L 120.565082 -295.532111 
L 126.389544 -299.910383 
L 132.214005 -309.740845 
L 138.038467 -321.55392 
L 143.862928 -320.81044 
L 149.687389 -320.81044 
L 155.511851 -321.140876 
L 161.336312 -320.727831 
L 167.160774 -324.940886 
L 172.985235 -314.119118 
L 178.809696 -329.566986 
L 184.634158 -322.049574 
L 190.458619 -329.566986 
L 196.283081 -329.814812 
L 202.107542 -338.323531 
L 207.932003 -336.175699 
L 213.756465 -341.875715 
L 219.580926 -341.627888 
L 225.405388 -338.901794 
L 231.229849 -338.819185 
L 237.05431 -338.819185 
L 242.878772 -337.249615 
L 248.703233 -337.332224 
L 254.527695 -325.932193 
L 260.352156 -339.645274 
L 266.176617 -339.480056 
L 272.001079 -336.588744 
L 277.82554 -335.845264 
L 283.650002 -341.627888 
L 289.474463 -342.206151 
L 295.298925 -328.245243 
L 301.123386 -327.832198 
L 306.947847 -337.66266 
L 312.772309 -314.036509 
L 318.59677 -323.12349 
L 324.421232 -335.514828 
L 330.245693 -338.736576 
L 336.070154 -339.232229 
L 341.894616 -339.232229 
L 347.719077 -341.297452 
L 353.543539 -343.03224 
L 359.368 -342.453977 
L 365.192461 -340.388754 
L 371.016923 -343.362675 
L 376.841384 -339.232229 
L 382.665846 -339.480056 
L 388.490307 -101.153321 
L 394.314768 -106.770728 
L 400.13923 -114.453357 
L 405.963691 -113.46205 
L 411.788153 -114.040313 
L 417.612614 -117.427279 
L 423.437076 -119.905546 
L 429.261537 -120.070764 
L 435.085998 -120.070764 
L 440.91046 -118.335977 
L 446.734921 -114.205531 
L 452.559383 -114.205531 
L 458.383844 -114.701184 
L 464.208305 -109.331604 
L 470.032767 -108.422906 
L 475.857228 -110.570738 
L 481.68169 -111.066392 
L 487.506151 -113.131615 
L 493.330612 -111.644654 
L 499.155074 -113.792486 
L 504.979535 -123.044685 
L 510.803997 -117.675105 
L 516.628458 -136.014286 
L 522.452919 -137.914291 
L 528.277381 -144.85344 
L 534.101842 -132.131666 
L 539.926304 -129.405572 
L 545.750765 -129.488181 
L 551.575226 -128.744701 
L 557.399688 -127.918611 
L 563.224149 -130.066443 
L 569.048611 -132.709929 
L 574.873072 -136.675157 
L 580.697534 -136.675157 
L 586.521995 -127.092522 
L 592.346456 -127.092522 
L 598.170918 -123.45773 
L 603.995379 -124.20121 
L 609.819841 -116.51858 
L 615.644302 -114.453357 
L 621.468763 -114.453357 
L 627.293225 -114.618575 
L 633.117686 -113.131615 
L 638.942148 -113.131615 
L 644.766609 -113.379441 
L 650.59107 -114.618575 
L 656.415532 -115.196838 
L 662.239993 -113.709877 
L 668.064455 -113.709877 
L 673.888916 -113.792486 
L 673.888916 -269.923345 
L 673.888916 -269.923345 
L 668.064455 -253.814606 
L 662.239993 -255.962438 
L 656.415532 -261.1668 
L 650.59107 -260.588537 
L 644.766609 -253.814606 
L 638.942148 -259.184186 
L 633.117686 -265.049419 
L 627.293225 -263.232023 
L 621.468763 -254.558086 
L 615.644302 -257.28418 
L 609.819841 -256.953745 
L 603.995379 -248.775462 
L 598.170918 -249.601551 
L 592.346456 -252.162427 
L 586.521995 -260.175493 
L 580.697534 -262.075498 
L 574.873072 -278.019019 
L 569.048611 -293.879932 
L 563.224149 -277.110321 
L 557.399688 -279.836416 
L 551.575226 -264.801592 
L 545.750765 -257.201572 
L 539.926304 -255.136349 
L 534.101842 -252.988517 
L 528.277381 -259.101577 
L 522.452919 -230.601499 
L 516.628458 -230.436281 
L 510.803997 -221.514518 
L 504.979535 -231.014544 
L 499.155074 -243.818927 
L 493.330612 -228.453667 
L 487.506151 -229.444974 
L 481.68169 -223.331914 
L 475.857228 -219.449295 
L 470.032767 -217.797117 
L 464.208305 -211.931883 
L 458.383844 -215.484067 
L 452.559383 -211.931883 
L 446.734921 -202.927511 
L 440.91046 -203.175338 
L 435.085998 -194.418792 
L 429.261537 -187.149207 
L 423.437076 -182.440499 
L 417.612614 -178.392662 
L 411.788153 -175.005696 
L 405.963691 -171.701339 
L 400.13923 -161.375224 
L 394.314768 -145.514311 
L 388.490307 -132.049057 
L 382.665846 -467.606491 
L 376.841384 -464.715179 
L 371.016923 -473.306507 
L 365.192461 -456.784723 
L 359.368 -459.923862 
L 353.543539 -466.697793 
L 347.719077 -469.836932 
L 341.894616 -483.302186 
L 336.070154 -490.076118 
L 330.245693 -479.089131 
L 324.421232 -479.17174 
L 318.59677 -460.997778 
L 312.772309 -465.706486 
L 306.947847 -458.023857 
L 301.123386 -465.871704 
L 295.298925 -461.906476 
L 289.474463 -440.758592 
L 283.650002 -444.641212 
L 277.82554 -445.219474 
L 272.001079 -441.66729 
L 266.176617 -436.462928 
L 260.352156 -446.458608 
L 254.527695 -445.962954 
L 248.703233 -451.828188 
L 242.878772 -454.141237 
L 237.05431 -457.941248 
L 231.229849 -450.176009 
L 225.405388 -452.40645 
L 219.580926 -450.176009 
L 213.756465 -451.580361 
L 207.932003 -441.171637 
L 202.107542 -441.089028 
L 196.283081 -443.154251 
L 190.458619 -443.154251 
L 184.634158 -449.267311 
L 178.809696 -448.358613 
L 172.985235 -441.997726 
L 167.160774 -431.671611 
L 161.336312 -410.936772 
L 155.511851 -411.762861 
L 149.687389 -403.749796 
L 143.862928 -394.497597 
L 138.038467 -391.93672 
L 132.214005 -388.88019 
L 126.389544 -372.606233 
L 120.565082 -355.836622 
L 114.740621 -357.158365 
L 108.916159 -353.606181 
L 103.091698 -338.901794 
L 97.267237 -323.619143 
z
" style="stroke: #ffffff; stroke-opacity: 0.2"/>
    </defs>
    <g clip-path="url(#p22b9fe0ecf)">
     <use xlink:href="#m5d34e5814e" x="0" y="576" style="fill: #dd8452; fill-opacity: 0.2; stroke: #ffffff; stroke-opacity: 0.2"/>
    </g>
   </g>
   <g id="PolyCollection_3">
    <defs>
     <path id="ma43ca01a98" d="M 97.267237 -322.462619 
L 97.267237 -276.119014 
L 103.091698 -294.540804 
L 108.916159 -299.910383 
L 114.740621 -304.288656 
L 120.565082 -290.162531 
L 126.389544 -316.26695 
L 132.214005 -320.975658 
L 138.038467 -324.940886 
L 143.862928 -326.18002 
L 149.687389 -332.953951 
L 155.511851 -333.366996 
L 161.336312 -333.945258 
L 167.160774 -332.375689 
L 172.985235 -335.845264 
L 178.809696 -335.845264 
L 184.634158 -335.845264 
L 190.458619 -333.780041 
L 196.283081 -342.123542 
L 202.107542 -350.136607 
L 207.932003 -350.467043 
L 213.756465 -353.193137 
L 219.580926 -352.94531 
L 225.405388 -353.854008 
L 231.229849 -354.019226 
L 237.05431 -347.327904 
L 242.878772 -346.667032 
L 248.703233 -352.862701 
L 254.527695 -360.710549 
L 260.352156 -353.68879 
L 266.176617 -359.884459 
L 272.001079 -361.37142 
L 277.82554 -361.701856 
L 283.650002 -361.206202 
L 289.474463 -361.206202 
L 295.298925 -362.197509 
L 301.123386 -361.619247 
L 306.947847 -362.032291 
L 312.772309 -362.032291 
L 318.59677 -362.032291 
L 324.421232 -362.032291 
L 330.245693 -361.867074 
L 336.070154 -361.867074 
L 341.894616 -356.993147 
L 347.719077 -362.362727 
L 353.543539 -357.488801 
L 359.368 -368.22796 
L 365.192461 -369.880139 
L 371.016923 -361.619247 
L 376.841384 -363.68447 
L 382.665846 -363.68447 
L 388.490307 -115.527273 
L 394.314768 -121.14468 
L 400.13923 -121.970769 
L 405.963691 -122.879467 
L 411.788153 -122.714249 
L 417.612614 -121.722942 
L 423.437076 -124.283819 
L 429.261537 -128.00122 
L 435.085998 -127.25774 
L 440.91046 -127.009913 
L 446.734921 -132.131666 
L 452.559383 -132.62732 
L 458.383844 -132.296884 
L 464.208305 -139.070816 
L 470.032767 -144.357787 
L 475.857228 -134.857761 
L 481.68169 -142.54039 
L 487.506151 -148.405624 
L 493.330612 -155.014337 
L 499.155074 -159.062174 
L 504.979535 -159.310001 
L 510.803997 -159.310001 
L 516.628458 -161.788269 
L 522.452919 -170.544814 
L 528.277381 -170.627423 
L 534.101842 -170.792641 
L 539.926304 -169.388289 
L 545.750765 -167.405675 
L 551.575226 -166.910022 
L 557.399688 -166.331759 
L 563.224149 -163.275229 
L 569.048611 -161.540442 
L 574.873072 -161.540442 
L 580.697534 -161.623051 
L 586.521995 -162.201313 
L 592.346456 -162.944794 
L 598.170918 -165.092626 
L 603.995379 -168.231764 
L 609.819841 -168.231764 
L 615.644302 -168.231764 
L 621.468763 -167.901329 
L 627.293225 -167.570893 
L 633.117686 -167.570893 
L 638.942148 -167.570893 
L 644.766609 -167.240457 
L 650.59107 -168.066547 
L 656.415532 -168.644809 
L 662.239993 -169.30568 
L 668.064455 -171.866557 
L 673.888916 -172.692646 
L 673.888916 -337.66266 
L 673.888916 -337.66266 
L 668.064455 -338.736576 
L 662.239993 -330.971337 
L 656.415532 -333.201778 
L 650.59107 -323.371317 
L 644.766609 -320.06696 
L 638.942148 -318.249564 
L 633.117686 -317.258257 
L 627.293225 -315.523469 
L 621.468763 -320.06696 
L 615.644302 -306.188661 
L 609.819841 -293.384279 
L 603.995379 -285.453822 
L 598.170918 -284.049471 
L 592.346456 -283.30599 
L 586.521995 -281.488594 
L 580.697534 -280.332069 
L 574.873072 -277.027712 
L 569.048611 -277.936411 
L 563.224149 -279.175544 
L 557.399688 -283.223381 
L 551.575226 -289.171224 
L 545.750765 -289.41905 
L 539.926304 -291.484273 
L 534.101842 -291.319056 
L 528.277381 -294.127759 
L 522.452919 -294.458195 
L 516.628458 -290.492966 
L 510.803997 -288.345135 
L 504.979535 -284.627733 
L 499.155074 -284.710342 
L 493.330612 -285.123387 
L 487.506151 -265.379855 
L 481.68169 -251.584165 
L 475.857228 -248.94068 
L 470.032767 -246.62763 
L 464.208305 -234.071074 
L 458.383844 -228.866712 
L 452.559383 -229.114539 
L 446.734921 -228.040623 
L 440.91046 -225.397137 
L 435.085998 -209.205789 
L 429.261537 -205.075343 
L 423.437076 -201.44055 
L 417.612614 -198.053585 
L 411.788153 -183.927459 
L 405.963691 -180.04484 
L 400.13923 -176.492657 
L 394.314768 -162.201313 
L 388.490307 -152.701287 
L 382.665846 -536.171895 
L 376.841384 -528.489266 
L 371.016923 -518.824022 
L 365.192461 -518.906631 
L 359.368 -523.615339 
L 353.543539 -518.493586 
L 347.719077 -517.337061 
L 341.894616 -517.171844 
L 336.070154 -518.906631 
L 330.245693 -528.406657 
L 324.421232 -527.993612 
L 318.59677 -527.911003 
L 312.772309 -527.332741 
L 306.947847 -525.1023 
L 301.123386 -523.367513 
L 295.298925 -519.567502 
L 289.474463 -514.776185 
L 283.650002 -508.497907 
L 277.82554 -509.571823 
L 272.001079 -497.676138 
L 266.176617 -498.915272 
L 260.352156 -497.923965 
L 254.527695 -491.893514 
L 248.703233 -496.189178 
L 242.878772 -485.119583 
L 237.05431 -485.2848 
L 231.229849 -485.2848 
L 225.405388 -484.954365 
L 219.580926 -486.689152 
L 213.756465 -489.250029 
L 207.932003 -488.919593 
L 202.107542 -488.506548 
L 196.283081 -487.763068 
L 190.458619 -476.032601 
L 184.634158 -486.028281 
L 178.809696 -479.997829 
L 172.985235 -474.463032 
L 167.160774 -459.841253 
L 161.336312 -458.684728 
L 155.511851 -435.058577 
L 149.687389 -435.636839 
L 143.862928 -432.993354 
L 138.038467 -426.880294 
L 132.214005 -414.902 
L 126.389544 -389.623671 
L 120.565082 -373.349713 
L 114.740621 -367.48448 
L 108.916159 -354.019226 
L 103.091698 -350.962696 
L 97.267237 -322.462619 
z
" style="stroke: #ffffff; stroke-opacity: 0.2"/>
    </defs>
    <g clip-path="url(#p22b9fe0ecf)">
     <use xlink:href="#ma43ca01a98" x="0" y="576" style="fill: #55a868; fill-opacity: 0.2; stroke: #ffffff; stroke-opacity: 0.2"/>
    </g>
   </g>
   <g id="line2d_13">
    <path d="M 97.267237 289.885306 
L 103.091698 270.10047 
L 108.916159 254.156948 
L 114.740621 248.167802 
L 120.565082 245.069967 
L 126.389544 238.254731 
L 132.214005 236.643857 
L 138.038467 228.961228 
L 143.862928 232.59602 
L 149.687389 230.365579 
L 155.511851 226.028611 
L 161.336312 229.498186 
L 167.160774 223.839475 
L 172.985235 221.278598 
L 178.809696 223.880779 
L 184.634158 222.765559 
L 190.458619 219.461202 
L 196.283081 228.878619 
L 202.107542 222.352514 
L 207.932003 219.543811 
L 213.756465 232.843847 
L 219.580926 232.22428 
L 225.405388 233.752545 
L 231.229849 233.959067 
L 237.05431 233.463414 
L 242.878772 229.291663 
L 248.703233 230.035144 
L 254.527695 230.241666 
L 260.352156 231.893844 
L 266.176617 228.011225 
L 272.001079 227.22644 
L 277.82554 233.917763 
L 283.650002 231.728626 
L 289.474463 235.446028 
L 295.298925 234.661243 
L 301.123386 233.587327 
L 306.947847 233.959067 
L 312.772309 233.835154 
L 318.59677 228.135138 
L 324.421232 231.85254 
L 330.245693 228.754705 
L 336.070154 228.135138 
L 341.894616 228.506879 
L 347.719077 223.42643 
L 353.543539 223.219908 
L 359.368 223.674257 
L 365.192461 223.261212 
L 371.016923 225.285131 
L 376.841384 222.476427 
L 382.665846 222.393819 
L 388.490307 470.179275 
L 394.314768 461.050989 
L 400.13923 451.964008 
L 405.963691 447.131386 
L 411.788153 437.672665 
L 417.612614 438.457449 
L 423.437076 433.542219 
L 429.261537 424.826978 
L 435.085998 427.470463 
L 440.91046 427.222636 
L 446.734921 425.363936 
L 452.559383 428.255248 
L 458.383844 430.650906 
L 464.208305 428.007421 
L 470.032767 432.179171 
L 475.857228 431.435691 
L 481.68169 424.455237 
L 487.506151 425.77698 
L 493.330612 425.281327 
L 499.155074 428.131334 
L 504.979535 434.285699 
L 510.803997 440.977021 
L 516.628458 435.937877 
L 522.452919 435.111788 
L 528.277381 434.533526 
L 534.101842 432.179171 
L 539.926304 431.89004 
L 545.750765 437.796578 
L 551.575226 435.937877 
L 557.399688 437.548751 
L 563.224149 437.342229 
L 569.048611 433.583523 
L 574.873072 437.342229 
L 580.697534 432.550912 
L 586.521995 432.013954 
L 592.346456 425.116109 
L 598.170918 428.09003 
L 603.995379 430.155253 
L 609.819841 433.253087 
L 615.644302 430.568298 
L 621.468763 437.094402 
L 627.293225 435.153093 
L 633.117686 436.1444 
L 638.942148 435.442224 
L 644.766609 432.840043 
L 650.59107 433.790045 
L 656.415532 436.309617 
L 662.239993 438.581363 
L 668.064455 435.690051 
L 673.888916 432.592216 
" clip-path="url(#p22b9fe0ecf)" style="fill: none; stroke: #4c72b0; stroke-width: 2; stroke-linecap: round"/>
   </g>
   <g id="line2d_14">
    <path d="M 97.267237 277.452664 
L 103.091698 260.228704 
L 108.916159 248.787369 
L 114.740621 245.111272 
L 120.565082 237.759078 
L 126.389544 234.372112 
L 132.214005 233.298196 
L 138.038467 229.415577 
L 143.862928 227.350354 
L 149.687389 227.102527 
L 155.511851 222.104687 
L 161.336312 220.328595 
L 167.160774 216.528585 
L 172.985235 217.272065 
L 178.809696 216.404672 
L 184.634158 216.528585 
L 190.458619 215.578583 
L 196.283081 210.952483 
L 202.107542 212.935097 
L 207.932003 205.045945 
L 213.756465 196.206791 
L 219.580926 197.693751 
L 225.405388 202.40246 
L 231.229849 195.504615 
L 237.05431 196.330704 
L 242.878772 203.88942 
L 248.703233 199.924192 
L 254.527695 198.97419 
L 260.352156 196.454618 
L 266.176617 191.29156 
L 272.001079 193.315479 
L 277.82554 194.595917 
L 283.650002 196.950271 
L 289.474463 201.824197 
L 295.298925 202.815504 
L 301.123386 204.674205 
L 306.947847 202.278546 
L 312.772309 203.435071 
L 318.59677 202.03072 
L 324.421232 199.593757 
L 330.245693 198.850276 
L 336.070154 201.287239 
L 341.894616 197.77636 
L 347.719077 202.072024 
L 353.543539 194.554612 
L 359.368 185.715458 
L 365.192461 189.35025 
L 371.016923 192.117649 
L 376.841384 204.261161 
L 382.665846 205.83073 
L 388.490307 460.183595 
L 394.314768 455.185756 
L 400.13923 451.79879 
L 405.963691 443.248767 
L 411.788153 432.716129 
L 417.612614 421.729143 
L 423.437076 417.805219 
L 429.261537 415.574778 
L 435.085998 411.444332 
L 440.91046 414.583471 
L 446.734921 413.881296 
L 452.559383 406.446493 
L 458.383844 403.266049 
L 464.208305 397.318207 
L 470.032767 391.700801 
L 475.857228 390.626885 
L 481.68169 395.21168 
L 487.506151 395.170375 
L 493.330612 395.252984 
L 499.155074 391.618192 
L 504.979535 396.409509 
L 510.803997 393.146457 
L 516.628458 390.255144 
L 522.452919 391.907323 
L 528.277381 389.305142 
L 534.101842 393.435588 
L 539.926304 394.426895 
L 545.750765 395.789942 
L 551.575226 396.202987 
L 557.399688 395.831247 
L 563.224149 390.792102 
L 569.048611 393.311674 
L 574.873072 393.64211 
L 580.697534 389.305142 
L 586.521995 393.848632 
L 592.346456 389.181228 
L 598.170918 387.90079 
L 603.995379 381.705121 
L 609.819841 380.465987 
L 615.644302 379.84642 
L 621.468763 382.737733 
L 627.293225 387.652963 
L 633.117686 389.057315 
L 638.942148 392.692108 
L 644.766609 394.220373 
L 650.59107 399.548648 
L 656.415532 399.920388 
L 662.239993 402.729091 
L 668.064455 398.63995 
L 673.888916 394.881244 
" clip-path="url(#p22b9fe0ecf)" style="fill: none; stroke: #dd8452; stroke-width: 2; stroke-linecap: round"/>
   </g>
   <g id="line2d_15">
    <path d="M 97.267237 277.411359 
L 103.091698 258.906961 
L 108.916159 246.433014 
L 114.740621 245.524316 
L 120.565082 239.246038 
L 126.389544 238.667776 
L 132.214005 237.9656 
L 138.038467 233.009065 
L 143.862928 225.285131 
L 149.687389 223.095994 
L 155.511851 222.724254 
L 161.336312 218.759026 
L 167.160774 212.356835 
L 172.985235 213.100315 
L 178.809696 208.928565 
L 184.634158 205.582903 
L 190.458619 200.791586 
L 196.283081 197.900274 
L 202.107542 183.278495 
L 207.932003 180.015442 
L 213.756465 176.587172 
L 219.580926 176.669781 
L 225.405388 176.793695 
L 231.229849 171.38281 
L 237.05431 166.756711 
L 242.878772 165.765404 
L 248.703233 156.10016 
L 254.527695 156.389291 
L 260.352156 155.563202 
L 266.176617 154.530591 
L 272.001079 152.134932 
L 277.82554 152.465368 
L 283.650002 152.424063 
L 289.474463 151.267538 
L 295.298925 153.704501 
L 301.123386 157.876252 
L 306.947847 157.339294 
L 312.772309 151.184929 
L 318.59677 150.317536 
L 324.421232 149.24362 
L 330.245693 143.626213 
L 336.070154 143.956649 
L 341.894616 144.534911 
L 347.719077 143.460995 
L 353.543539 140.569683 
L 359.368 137.678371 
L 365.192461 139.165331 
L 371.016923 136.108801 
L 376.841384 138.215329 
L 382.665846 137.884893 
L 388.490307 444.900945 
L 394.314768 437.590056 
L 400.13923 433.08787 
L 405.963691 431.270473 
L 411.788153 427.635681 
L 417.612614 423.133495 
L 423.437076 419.581311 
L 429.261537 415.822605 
L 435.085998 414.005209 
L 440.91046 411.155201 
L 446.734921 403.307354 
L 452.559383 395.58342 
L 458.383844 389.09862 
L 464.208305 387.694268 
L 470.032767 385.505132 
L 475.857228 383.439909 
L 481.68169 377.698589 
L 487.506151 376.170324 
L 493.330612 372.535531 
L 499.155074 371.007266 
L 504.979535 367.455082 
L 510.803997 359.607235 
L 516.628458 354.526786 
L 522.452919 350.478949 
L 528.277381 346.926766 
L 534.101842 345.357196 
L 539.926304 344.159367 
L 545.750765 339.078918 
L 551.575226 337.674567 
L 557.399688 336.807173 
L 563.224149 335.361517 
L 569.048611 335.278908 
L 574.873072 334.37021 
L 580.697534 332.924554 
L 586.521995 331.189766 
L 592.346456 330.446286 
L 598.170918 331.396289 
L 603.995379 333.833252 
L 609.819841 332.470205 
L 615.644302 327.637583 
L 621.468763 326.852798 
L 627.293225 327.88541 
L 633.117686 329.454979 
L 638.942148 330.652808 
L 644.766609 334.452819 
L 650.59107 338.294134 
L 656.415532 334.576732 
L 662.239993 340.689792 
L 668.064455 349.818078 
L 673.888916 352.874608 
" clip-path="url(#p22b9fe0ecf)" style="fill: none; stroke: #55a868; stroke-width: 2; stroke-linecap: round"/>
   </g>
   <g id="patch_3">
    <path d="M 68.436153 513.338305 
L 68.436153 17.28 
" style="fill: none; stroke: #cccccc; stroke-width: 1.25; stroke-linejoin: miter; stroke-linecap: square"/>
   </g>
   <g id="patch_4">
    <path d="M 702.72 513.338305 
L 702.72 17.28 
" style="fill: none; stroke: #cccccc; stroke-width: 1.25; stroke-linejoin: miter; stroke-linecap: square"/>
   </g>
   <g id="patch_5">
    <path d="M 68.436153 513.338305 
L 702.72 513.338305 
" style="fill: none; stroke: #cccccc; stroke-width: 1.25; stroke-linejoin: miter; stroke-linecap: square"/>
   </g>
   <g id="patch_6">
    <path d="M 68.436153 17.28 
L 702.72 17.28 
" style="fill: none; stroke: #cccccc; stroke-width: 1.25; stroke-linejoin: miter; stroke-linecap: square"/>
   </g>
   <g id="legend_1">
    <g id="patch_7">
     <path d="M 583.193413 148.162063 
L 688.72 148.162063 
Q 692.72 148.162063 692.72 144.162063 
L 692.72 31.28 
Q 692.72 27.28 688.72 27.28 
L 583.193413 27.28 
Q 579.193413 27.28 579.193413 31.28 
L 579.193413 144.162063 
Q 579.193413 148.162063 583.193413 148.162063 
z
" style="fill: #ffffff; opacity: 0.8; stroke: #cccccc; stroke-linejoin: miter"/>
    </g>
    <g id="text_15">
     <!-- $\alpha$ -->
     <g style="fill: #262626" transform="translate(628.511101 51.884405) scale(0.24 -0.24)">
      <defs>
       <path id="CMMI12-b" d="M 2963 1616 
C 2963 2235 2611 2815 1933 2815 
C 1094 2815 256 1902 256 996 
C 256 441 602 -64 1254 -64 
C 1651 -64 2125 89 2579 472 
C 2669 115 2867 -64 3142 -64 
C 3488 -64 3661 294 3661 377 
C 3661 434 3616 434 3597 434 
C 3546 434 3539 415 3520 364 
C 3462 204 3315 64 3162 64 
C 2963 64 2963 472 2963 862 
C 3616 1641 3770 2446 3770 2452 
C 3770 2510 3718 2510 3699 2510 
C 3642 2510 3635 2491 3610 2376 
C 3526 2095 3360 1597 2963 1073 
L 2963 1616 
z
M 2560 626 
C 1997 121 1491 64 1267 64 
C 813 64 685 466 685 766 
C 685 1040 826 1692 1024 2044 
C 1286 2491 1645 2688 1933 2688 
C 2554 2688 2554 1877 2554 1341 
C 2554 1182 2547 1016 2547 856 
C 2547 728 2554 696 2560 626 
z
" transform="scale(0.015625)"/>
      </defs>
      <use xlink:href="#CMMI12-b" transform="scale(0.996264)"/>
     </g>
    </g>
    <g id="line2d_16">
     <path d="M 587.193413 73.535163 
L 607.193413 73.535163 
L 627.193413 73.535163 
" style="fill: none; stroke: #4c72b0; stroke-width: 2; stroke-linecap: round"/>
    </g>
    <g id="text_16">
     <!-- 0.01 -->
     <g style="fill: #262626" transform="translate(643.193413 80.535163) scale(0.2 -0.2)">
      <defs>
       <path id="CMR17-2e" d="M 1062 261 
C 1062 420 934 522 800 522 
C 672 522 538 420 538 261 
C 538 102 666 0 800 0 
C 928 0 1062 102 1062 261 
z
" transform="scale(0.015625)"/>
      </defs>
      <use xlink:href="#CMR17-30" transform="scale(0.996264)"/>
      <use xlink:href="#CMR17-2e" transform="translate(45.690477 0) scale(0.996264)"/>
      <use xlink:href="#CMR17-30" transform="translate(70.561536 0) scale(0.996264)"/>
      <use xlink:href="#CMR17-31" transform="translate(116.252013 0) scale(0.996264)"/>
     </g>
    </g>
    <g id="line2d_17">
     <path d="M 587.193413 101.410796 
L 607.193413 101.410796 
L 627.193413 101.410796 
" style="fill: none; stroke: #dd8452; stroke-width: 2; stroke-linecap: round"/>
    </g>
    <g id="text_17">
     <!-- 0.004 -->
     <g style="fill: #262626" transform="translate(643.193413 108.410796) scale(0.2 -0.2)">
      <use xlink:href="#CMR17-30" transform="scale(0.996264)"/>
      <use xlink:href="#CMR17-2e" transform="translate(45.690477 0) scale(0.996264)"/>
      <use xlink:href="#CMR17-30" transform="translate(70.561536 0) scale(0.996264)"/>
      <use xlink:href="#CMR17-30" transform="translate(116.252013 0) scale(0.996264)"/>
      <use xlink:href="#CMR17-34" transform="translate(161.94249 0) scale(0.996264)"/>
     </g>
    </g>
    <g id="line2d_18">
     <path d="M 587.193413 129.28643 
L 607.193413 129.28643 
L 627.193413 129.28643 
" style="fill: none; stroke: #55a868; stroke-width: 2; stroke-linecap: round"/>
    </g>
    <g id="text_18">
     <!-- 0.002 -->
     <g style="fill: #262626" transform="translate(643.193413 136.28643) scale(0.2 -0.2)">
      <use xlink:href="#CMR17-30" transform="scale(0.996264)"/>
      <use xlink:href="#CMR17-2e" transform="translate(45.690477 0) scale(0.996264)"/>
      <use xlink:href="#CMR17-30" transform="translate(70.561536 0) scale(0.996264)"/>
      <use xlink:href="#CMR17-30" transform="translate(116.252013 0) scale(0.996264)"/>
      <use xlink:href="#CMR17-32" transform="translate(161.94249 0) scale(0.996264)"/>
     </g>
    </g>
   </g>
  </g>
 </g>
 <defs>
  <clipPath id="p22b9fe0ecf">
   <rect x="68.436153" y="17.28" width="634.283847" height="496.058305"/>
  </clipPath>
 </defs>
</svg>
