<?xml version="1.0" encoding="utf-8" standalone="no"?>
<!DOCTYPE svg PUBLIC "-//W3C//DTD SVG 1.1//EN"
  "http://www.w3.org/Graphics/SVG/1.1/DTD/svg11.dtd">
<svg xmlns:xlink="http://www.w3.org/1999/xlink" width="720pt" height="576pt" viewBox="0 0 720 576" xmlns="http://www.w3.org/2000/svg" version="1.1">
 <metadata>
  <rdf:RDF xmlns:dc="http://purl.org/dc/elements/1.1/" xmlns:cc="http://creativecommons.org/ns#" xmlns:rdf="http://www.w3.org/1999/02/22-rdf-syntax-ns#">
   <cc:Work>
    <dc:type rdf:resource="http://purl.org/dc/dcmitype/StillImage"/>
    <dc:date>2025-04-24T19:33:26.755789</dc:date>
    <dc:format>image/svg+xml</dc:format>
    <dc:creator>
     <cc:Agent>
      <dc:title>Matplotlib v3.9.2, https://matplotlib.org/</dc:title>
     </cc:Agent>
    </dc:creator>
   </cc:Work>
  </rdf:RDF>
 </metadata>
 <defs>
  <style type="text/css">*{stroke-linejoin: round; stroke-linecap: butt}</style>
 </defs>
 <g id="figure_1">
  <g id="patch_1">
   <path d="M 0 576 
L 720 576 
L 720 0 
L 0 0 
z
" style="fill: #ffffff"/>
  </g>
  <g id="axes_1">
   <g id="patch_2">
    <path d="M 83.392615 495.840956 
L 694.08 495.840956 
L 694.08 49.831226 
L 83.392615 49.831226 
z
" style="fill: #ffffff"/>
   </g>
   <g id="matplotlib.axis_1">
    <g id="xtick_1">
     <g id="line2d_1">
      <path d="M 111.151132 495.840956 
L 111.151132 49.831226 
" clip-path="url(#pca49ab709a)" style="fill: none; stroke: #cccccc; stroke-linecap: round"/>
     </g>
     <g id="text_1">
      <!-- $\mathdefault{0}$ -->
      <g style="fill: #262626" transform="translate(106.12518 520.56165) scale(0.22 -0.22)">
       <defs>
        <path id="CMR17-30" d="M 2688 2025 
C 2688 2416 2682 3080 2413 3591 
C 2176 4039 1798 4198 1466 4198 
C 1158 4198 768 4058 525 3597 
C 269 3118 243 2524 243 2025 
C 243 1661 250 1106 448 619 
C 723 -39 1216 -128 1466 -128 
C 1760 -128 2208 -7 2470 600 
C 2662 1042 2688 1559 2688 2025 
z
M 1466 -26 
C 1056 -26 813 325 723 812 
C 653 1188 653 1738 653 2096 
C 653 2588 653 2997 736 3387 
C 858 3929 1216 4096 1466 4096 
C 1728 4096 2067 3923 2189 3400 
C 2272 3036 2278 2607 2278 2096 
C 2278 1680 2278 1169 2202 792 
C 2067 95 1690 -26 1466 -26 
z
" transform="scale(0.015625)"/>
       </defs>
       <use xlink:href="#CMR17-30" transform="scale(0.996264)"/>
      </g>
     </g>
    </g>
    <g id="xtick_2">
     <g id="line2d_2">
      <path d="M 223.306759 495.840956 
L 223.306759 49.831226 
" clip-path="url(#pca49ab709a)" style="fill: none; stroke: #cccccc; stroke-linecap: round"/>
     </g>
     <g id="text_2">
      <!-- $\mathdefault{200}$ -->
      <g style="fill: #262626" transform="translate(208.228901 520.56165) scale(0.22 -0.22)">
       <defs>
        <path id="CMR17-32" d="M 2669 989 
L 2554 989 
C 2490 536 2438 459 2413 420 
C 2381 369 1920 369 1830 369 
L 602 369 
C 832 619 1280 1072 1824 1597 
C 2214 1967 2669 2402 2669 3035 
C 2669 3790 2067 4224 1395 4224 
C 691 4224 262 3604 262 3030 
C 262 2780 448 2748 525 2748 
C 589 2748 781 2787 781 3010 
C 781 3207 614 3264 525 3264 
C 486 3264 448 3258 422 3245 
C 544 3790 915 4058 1306 4058 
C 1862 4058 2227 3617 2227 3035 
C 2227 2479 1901 2000 1536 1584 
L 262 146 
L 262 0 
L 2515 0 
L 2669 989 
z
" transform="scale(0.015625)"/>
       </defs>
       <use xlink:href="#CMR17-32" transform="scale(0.996264)"/>
       <use xlink:href="#CMR17-30" transform="translate(45.690477 0) scale(0.996264)"/>
       <use xlink:href="#CMR17-30" transform="translate(91.380954 0) scale(0.996264)"/>
      </g>
     </g>
    </g>
    <g id="xtick_3">
     <g id="line2d_3">
      <path d="M 335.462385 495.840956 
L 335.462385 49.831226 
" clip-path="url(#pca49ab709a)" style="fill: none; stroke: #cccccc; stroke-linecap: round"/>
     </g>
     <g id="text_3">
      <!-- $\mathdefault{400}$ -->
      <g style="fill: #262626" transform="translate(320.384528 520.56165) scale(0.22 -0.22)">
       <defs>
        <path id="CMR17-34" d="M 2150 4122 
C 2150 4256 2144 4256 2029 4256 
L 128 1254 
L 128 1088 
L 1779 1088 
L 1779 457 
C 1779 224 1766 160 1318 160 
L 1197 160 
L 1197 0 
C 1402 0 1747 0 1965 0 
C 2182 0 2528 0 2733 0 
L 2733 160 
L 2611 160 
C 2163 160 2150 224 2150 457 
L 2150 1088 
L 2803 1088 
L 2803 1254 
L 2150 1254 
L 2150 4122 
z
M 1798 3703 
L 1798 1254 
L 256 1254 
L 1798 3703 
z
" transform="scale(0.015625)"/>
       </defs>
       <use xlink:href="#CMR17-34" transform="scale(0.996264)"/>
       <use xlink:href="#CMR17-30" transform="translate(45.690477 0) scale(0.996264)"/>
       <use xlink:href="#CMR17-30" transform="translate(91.380954 0) scale(0.996264)"/>
      </g>
     </g>
    </g>
    <g id="xtick_4">
     <g id="line2d_4">
      <path d="M 447.618011 495.840956 
L 447.618011 49.831226 
" clip-path="url(#pca49ab709a)" style="fill: none; stroke: #cccccc; stroke-linecap: round"/>
     </g>
     <g id="text_4">
      <!-- $\mathdefault{600}$ -->
      <g style="fill: #262626" transform="translate(432.540154 520.56165) scale(0.22 -0.22)">
       <defs>
        <path id="CMR17-36" d="M 678 2176 
C 678 3690 1395 4032 1811 4032 
C 1946 4032 2272 4009 2400 3776 
C 2298 3776 2106 3776 2106 3553 
C 2106 3381 2246 3323 2336 3323 
C 2394 3323 2566 3348 2566 3560 
C 2566 3954 2246 4179 1805 4179 
C 1043 4179 243 3390 243 1984 
C 243 253 966 -128 1478 -128 
C 2099 -128 2688 427 2688 1283 
C 2688 2081 2170 2662 1517 2662 
C 1126 2662 838 2407 678 1960 
L 678 2176 
z
M 1478 25 
C 691 25 691 1200 691 1436 
C 691 1896 909 2560 1504 2560 
C 1613 2560 1926 2560 2138 2120 
C 2253 1870 2253 1609 2253 1289 
C 2253 944 2253 690 2118 434 
C 1978 171 1773 25 1478 25 
z
" transform="scale(0.015625)"/>
       </defs>
       <use xlink:href="#CMR17-36" transform="scale(0.996264)"/>
       <use xlink:href="#CMR17-30" transform="translate(45.690477 0) scale(0.996264)"/>
       <use xlink:href="#CMR17-30" transform="translate(91.380954 0) scale(0.996264)"/>
      </g>
     </g>
    </g>
    <g id="xtick_5">
     <g id="line2d_5">
      <path d="M 559.773638 495.840956 
L 559.773638 49.831226 
" clip-path="url(#pca49ab709a)" style="fill: none; stroke: #cccccc; stroke-linecap: round"/>
     </g>
     <g id="text_5">
      <!-- $\mathdefault{800}$ -->
      <g style="fill: #262626" transform="translate(544.69578 520.56165) scale(0.22 -0.22)">
       <defs>
        <path id="CMR17-38" d="M 1741 2264 
C 2144 2467 2554 2773 2554 3263 
C 2554 3841 1990 4179 1472 4179 
C 890 4179 378 3759 378 3180 
C 378 3021 416 2747 666 2505 
C 730 2442 998 2251 1171 2130 
C 883 1983 211 1634 211 934 
C 211 279 838 -128 1459 -128 
C 2144 -128 2720 362 2720 1010 
C 2720 1590 2330 1857 2074 2029 
L 1741 2264 
z
M 902 2822 
C 851 2854 595 3051 595 3351 
C 595 3739 998 4032 1459 4032 
C 1965 4032 2336 3676 2336 3262 
C 2336 2669 1670 2331 1638 2331 
C 1632 2331 1626 2331 1574 2370 
L 902 2822 
z
M 2080 1519 
C 2176 1449 2483 1240 2483 851 
C 2483 381 2010 25 1472 25 
C 890 25 448 438 448 940 
C 448 1443 838 1862 1280 2060 
L 2080 1519 
z
" transform="scale(0.015625)"/>
       </defs>
       <use xlink:href="#CMR17-38" transform="scale(0.996264)"/>
       <use xlink:href="#CMR17-30" transform="translate(45.690477 0) scale(0.996264)"/>
       <use xlink:href="#CMR17-30" transform="translate(91.380954 0) scale(0.996264)"/>
      </g>
     </g>
    </g>
    <g id="xtick_6">
     <g id="line2d_6">
      <path d="M 671.929264 495.840956 
L 671.929264 49.831226 
" clip-path="url(#pca49ab709a)" style="fill: none; stroke: #cccccc; stroke-linecap: round"/>
     </g>
     <g id="text_6">
      <!-- $\mathdefault{1000}$ -->
      <g style="fill: #262626" transform="translate(651.825454 520.56165) scale(0.22 -0.22)">
       <defs>
        <path id="CMR17-31" d="M 1702 4058 
C 1702 4192 1696 4192 1606 4192 
C 1357 3916 979 3827 621 3827 
C 602 3827 570 3827 563 3808 
C 557 3795 557 3782 557 3648 
C 755 3648 1088 3686 1344 3839 
L 1344 461 
C 1344 236 1331 160 781 160 
L 589 160 
L 589 0 
C 896 0 1216 0 1523 0 
C 1830 0 2150 0 2458 0 
L 2458 160 
L 2266 160 
C 1715 160 1702 230 1702 458 
L 1702 4058 
z
" transform="scale(0.015625)"/>
       </defs>
       <use xlink:href="#CMR17-31" transform="scale(0.996264)"/>
       <use xlink:href="#CMR17-30" transform="translate(45.690477 0) scale(0.996264)"/>
       <use xlink:href="#CMR17-30" transform="translate(91.380954 0) scale(0.996264)"/>
       <use xlink:href="#CMR17-30" transform="translate(137.071431 0) scale(0.996264)"/>
      </g>
     </g>
    </g>
    <g id="text_7">
     <!-- Step -->
     <g style="fill: #262626" transform="translate(367.649451 545.429243) scale(0.24 -0.24)">
      <defs>
       <path id="CMSS17-53" d="M 2797 4169 
C 2515 4334 2208 4480 1690 4480 
C 864 4480 333 3879 333 3266 
C 333 3025 403 2753 653 2475 
C 902 2196 1184 2121 1542 2033 
C 1690 1994 1939 1924 1984 1906 
C 2342 1767 2515 1444 2515 1140 
C 2515 742 2202 318 1645 318 
C 1453 318 890 318 358 819 
L 269 318 
C 794 -64 1363 -128 1651 -128 
C 2438 -128 3002 488 3002 1186 
C 3002 1440 2925 1763 2656 2061 
C 2394 2347 2163 2410 1638 2549 
C 1338 2626 1146 2677 986 2873 
C 877 3013 819 3146 819 3317 
C 819 3673 1126 4060 1690 4060 
C 1971 4060 2336 4002 2707 3660 
L 2797 4169 
z
" transform="scale(0.015625)"/>
       <path id="CMSS17-74" d="M 1069 2368 
L 1901 2368 
L 1901 2737 
L 1069 2737 
L 1069 3520 
L 614 3520 
L 614 2737 
L 109 2737 
L 109 2368 
L 602 2368 
L 602 749 
C 602 384 685 -64 1107 -64 
C 1427 -64 1722 25 2003 172 
L 1901 548 
C 1747 414 1562 337 1363 337 
C 1082 337 1069 696 1069 856 
L 1069 2368 
z
" transform="scale(0.015625)"/>
       <path id="CMSS17-65" d="M 2502 1377 
C 2502 1590 2490 2003 2285 2345 
C 2061 2713 1696 2816 1421 2816 
C 755 2816 192 2188 192 1375 
C 192 582 774 -64 1510 -64 
C 1798 -64 2150 19 2470 248 
C 2470 274 2458 414 2451 420 
C 2451 433 2432 630 2432 656 
C 2125 407 1773 325 1517 325 
C 1107 325 666 667 646 1377 
L 2502 1377 
z
M 698 1728 
C 781 2084 1062 2421 1421 2421 
C 1517 2421 1965 2421 2080 1728 
L 698 1728 
z
" transform="scale(0.015625)"/>
       <path id="CMSS17-70" d="M 966 333 
C 1178 129 1466 -5 1773 -5 
C 2368 -5 2880 603 2880 1412 
C 2880 2159 2496 2816 1946 2816 
C 1626 2816 1242 2702 954 2472 
L 954 2765 
L 480 2765 
L 480 -1216 
L 966 -1216 
L 966 333 
z
M 966 2100 
C 1018 2176 1235 2415 1587 2415 
C 2035 2415 2394 1960 2394 1412 
C 2394 787 1958 384 1530 384 
C 1402 384 1267 415 1139 523 
C 966 674 966 768 966 857 
L 966 2100 
z
" transform="scale(0.015625)"/>
      </defs>
      <use xlink:href="#CMSS17-53" transform="scale(0.996264)"/>
      <use xlink:href="#CMSS17-74" transform="translate(52.048516 0) scale(0.996264)"/>
      <use xlink:href="#CMSS17-65" transform="translate(85.880083 0) scale(0.996264)"/>
      <use xlink:href="#CMSS17-70" transform="translate(127.518905 0) scale(0.996264)"/>
     </g>
    </g>
   </g>
   <g id="matplotlib.axis_2">
    <g id="ytick_1">
     <g id="line2d_7">
      <path d="M 83.392615 483.543582 
L 694.08 483.543582 
" clip-path="url(#pca49ab709a)" style="fill: none; stroke: #cccccc; stroke-linecap: round"/>
     </g>
     <g id="text_8">
      <!-- $\mathdefault{0}$ -->
      <g style="fill: #262626" transform="translate(63.84071 491.153929) scale(0.22 -0.22)">
       <use xlink:href="#CMR17-30" transform="scale(0.996264)"/>
      </g>
     </g>
    </g>
    <g id="ytick_2">
     <g id="line2d_8">
      <path d="M 83.392615 402.157915 
L 694.08 402.157915 
" clip-path="url(#pca49ab709a)" style="fill: none; stroke: #cccccc; stroke-linecap: round"/>
     </g>
     <g id="text_9">
      <!-- $\mathdefault{5}$ -->
      <g style="fill: #262626" transform="translate(63.84071 409.768262) scale(0.22 -0.22)">
       <defs>
        <path id="CMR17-35" d="M 730 3692 
C 794 3666 1056 3584 1325 3584 
C 1920 3584 2246 3911 2432 4100 
C 2432 4157 2432 4192 2394 4192 
C 2387 4192 2374 4192 2323 4163 
C 2099 4058 1837 3973 1517 3973 
C 1325 3973 1037 3999 723 4139 
C 653 4171 640 4171 634 4171 
C 602 4171 595 4164 595 4037 
L 595 2203 
C 595 2089 595 2057 659 2057 
C 691 2057 704 2070 736 2114 
C 941 2401 1222 2522 1542 2522 
C 1766 2522 2246 2382 2246 1289 
C 2246 1085 2246 715 2054 421 
C 1894 159 1645 25 1370 25 
C 947 25 518 320 403 814 
C 429 807 480 795 506 795 
C 589 795 749 840 749 1038 
C 749 1210 627 1280 506 1280 
C 358 1280 262 1190 262 1011 
C 262 454 704 -128 1382 -128 
C 2042 -128 2669 440 2669 1264 
C 2669 2030 2170 2624 1549 2624 
C 1222 2624 947 2503 730 2274 
L 730 3692 
z
" transform="scale(0.015625)"/>
       </defs>
       <use xlink:href="#CMR17-35" transform="scale(0.996264)"/>
      </g>
     </g>
    </g>
    <g id="ytick_3">
     <g id="line2d_9">
      <path d="M 83.392615 320.772249 
L 694.08 320.772249 
" clip-path="url(#pca49ab709a)" style="fill: none; stroke: #cccccc; stroke-linecap: round"/>
     </g>
     <g id="text_10">
      <!-- $\mathdefault{10}$ -->
      <g style="fill: #262626" transform="translate(53.788805 328.382596) scale(0.22 -0.22)">
       <use xlink:href="#CMR17-31" transform="scale(0.996264)"/>
       <use xlink:href="#CMR17-30" transform="translate(45.690477 0) scale(0.996264)"/>
      </g>
     </g>
    </g>
    <g id="ytick_4">
     <g id="line2d_10">
      <path d="M 83.392615 239.386582 
L 694.08 239.386582 
" clip-path="url(#pca49ab709a)" style="fill: none; stroke: #cccccc; stroke-linecap: round"/>
     </g>
     <g id="text_11">
      <!-- $\mathdefault{15}$ -->
      <g style="fill: #262626" transform="translate(53.788805 246.996929) scale(0.22 -0.22)">
       <use xlink:href="#CMR17-31" transform="scale(0.996264)"/>
       <use xlink:href="#CMR17-35" transform="translate(45.690477 0) scale(0.996264)"/>
      </g>
     </g>
    </g>
    <g id="ytick_5">
     <g id="line2d_11">
      <path d="M 83.392615 158.000916 
L 694.08 158.000916 
" clip-path="url(#pca49ab709a)" style="fill: none; stroke: #cccccc; stroke-linecap: round"/>
     </g>
     <g id="text_12">
      <!-- $\mathdefault{20}$ -->
      <g style="fill: #262626" transform="translate(53.788805 165.611263) scale(0.22 -0.22)">
       <use xlink:href="#CMR17-32" transform="scale(0.996264)"/>
       <use xlink:href="#CMR17-30" transform="translate(45.690477 0) scale(0.996264)"/>
      </g>
     </g>
    </g>
    <g id="ytick_6">
     <g id="line2d_12">
      <path d="M 83.392615 76.615249 
L 694.08 76.615249 
" clip-path="url(#pca49ab709a)" style="fill: none; stroke: #cccccc; stroke-linecap: round"/>
     </g>
     <g id="text_13">
      <!-- $\mathdefault{25}$ -->
      <g style="fill: #262626" transform="translate(53.788805 84.225596) scale(0.22 -0.22)">
       <use xlink:href="#CMR17-32" transform="scale(0.996264)"/>
       <use xlink:href="#CMR17-35" transform="translate(45.690477 0) scale(0.996264)"/>
      </g>
     </g>
    </g>
    <g id="text_14">
     <!-- Percentage Explored (\%) -->
     <g style="fill: #262626" transform="translate(43.831226 390.204645) rotate(-90) scale(0.24 -0.24)">
      <defs>
       <path id="CMSS17-50" d="M 2106 1856 
C 2874 1856 3501 2453 3501 3158 
C 3501 3850 2899 4453 2067 4453 
L 570 4453 
L 570 0 
L 1107 0 
L 1107 1856 
L 2106 1856 
z
M 1926 4096 
C 2669 4096 2995 3627 2995 3157 
C 2995 2720 2694 2226 1926 2226 
L 1094 2226 
L 1094 4096 
L 1926 4096 
z
" transform="scale(0.015625)"/>
       <path id="CMSS17-72" d="M 954 1363 
C 954 1965 1395 2368 1958 2368 
L 1958 2789 
C 1549 2789 1165 2585 934 2253 
L 934 2758 
L 480 2758 
L 480 0 
L 954 0 
L 954 1363 
z
" transform="scale(0.015625)"/>
       <path id="CMSS17-63" d="M 2464 2541 
C 2464 2585 2170 2714 2093 2739 
C 1882 2816 1613 2816 1542 2816 
C 710 2816 211 2093 211 1363 
C 211 595 768 -64 1517 -64 
C 1946 -64 2253 76 2502 242 
L 2464 664 
C 2189 453 1869 337 1523 337 
C 1024 337 698 774 698 1369 
C 698 1831 909 2414 1549 2414 
C 1901 2414 2099 2343 2394 2145 
L 2464 2541 
z
" transform="scale(0.015625)"/>
       <path id="CMSS17-6e" d="M 2618 1877 
C 2618 2283 2522 2816 1798 2816 
C 1389 2816 1120 2606 941 2389 
L 941 2758 
L 474 2758 
L 474 0 
L 960 0 
L 960 1559 
C 960 1964 1114 2428 1549 2428 
C 2112 2428 2131 2048 2131 1829 
L 2131 0 
L 2618 0 
L 2618 1877 
z
" transform="scale(0.015625)"/>
       <path id="CMSS17-61" d="M 2406 1791 
C 2406 2392 1978 2808 1402 2808 
C 1120 2808 813 2757 461 2553 
L 499 2135 
C 659 2248 934 2432 1395 2432 
C 1722 2432 1920 2180 1920 1782 
L 1920 1536 
C 896 1536 256 1238 256 726 
C 256 461 416 -64 947 -64 
C 1043 -64 1562 -64 1933 217 
L 1933 -19 
L 2406 -19 
L 2406 1791 
z
M 1920 816 
C 1920 701 1920 548 1728 434 
C 1562 325 1350 325 1261 325 
C 941 325 723 511 723 744 
C 723 1211 1722 1211 1920 1211 
L 1920 816 
z
" transform="scale(0.015625)"/>
       <path id="CMSS17-67" d="M 2848 2808 
C 2483 2808 2170 2738 1914 2617 
C 1702 2777 1485 2808 1338 2808 
C 781 2808 358 2349 358 1814 
C 358 1468 550 1207 563 1195 
C 448 1035 384 863 384 672 
C 384 448 474 289 544 200 
C 211 -3 166 -314 166 -435 
C 166 -898 749 -1280 1498 -1280 
C 2253 -1280 2835 -898 2835 -428 
C 2835 448 1856 448 1587 448 
L 1069 448 
C 973 448 717 448 717 791 
C 717 921 774 1004 781 1010 
C 877 940 1075 832 1338 832 
C 1869 832 2310 1278 2310 1827 
C 2310 2132 2170 2355 2112 2432 
L 2131 2432 
C 2150 2432 2419 2432 2515 2432 
C 2720 2432 2739 2429 2918 2419 
L 2848 2808 
z
M 1338 1182 
C 1120 1182 813 1315 813 1823 
C 813 2375 1165 2464 1331 2464 
C 1549 2464 1856 2331 1856 1823 
C 1856 1271 1504 1182 1338 1182 
z
M 1581 -10 
C 1734 -10 2381 -10 2381 -442 
C 2381 -714 1984 -929 1504 -929 
C 1018 -929 621 -720 621 -435 
C 621 -403 621 -10 1062 -10 
L 1581 -10 
z
" transform="scale(0.015625)"/>
       <path id="CMSS17-45" d="M 1958 433 
C 1446 433 1216 433 1101 433 
L 1101 2107 
L 3085 2107 
L 3085 2496 
L 1101 2496 
L 1101 4009 
L 1926 4009 
C 2003 4009 2080 4009 2157 4009 
L 3251 4009 
L 3251 4416 
L 563 4416 
L 563 0 
L 3334 0 
L 3334 433 
L 1958 433 
z
" transform="scale(0.015625)"/>
       <path id="CMSS17-78" d="M 1587 1414 
L 2656 2739 
L 2099 2739 
L 1363 1777 
L 602 2739 
L 32 2739 
L 1139 1414 
L 0 0 
L 563 0 
L 1363 1121 
L 2195 0 
L 2758 0 
L 1587 1414 
z
" transform="scale(0.015625)"/>
       <path id="CMSS17-6c" d="M 947 4416 
L 474 4416 
L 474 0 
L 947 0 
L 947 4416 
z
" transform="scale(0.015625)"/>
       <path id="CMSS17-6f" d="M 2829 1356 
C 2829 2176 2221 2816 1504 2816 
C 768 2816 173 2157 173 1356 
C 173 544 787 -64 1498 -64 
C 2227 -64 2829 563 2829 1356 
z
M 1504 337 
C 1050 337 659 709 659 1408 
C 659 2151 1114 2427 1498 2427 
C 1914 2427 2342 2126 2342 1408 
C 2342 683 1926 337 1504 337 
z
" transform="scale(0.015625)"/>
       <path id="CMSS17-64" d="M 2611 4416 
L 2138 4416 
L 2138 2438 
C 1939 2603 1613 2756 1254 2756 
C 672 2756 211 2131 211 1347 
C 211 562 666 -64 1235 -64 
C 1677 -64 1971 172 2125 306 
L 2125 -13 
L 2611 -13 
L 2611 4416 
z
M 2125 836 
C 2125 747 2125 653 1926 482 
C 1798 375 1645 325 1498 325 
C 1152 325 698 576 698 1340 
C 698 2134 1210 2368 1562 2368 
C 1798 2368 1990 2254 2125 2065 
L 2125 836 
z
" transform="scale(0.015625)"/>
       <path id="CMSS17-28" d="M 1613 4768 
C 1267 4417 474 3601 474 1588 
C 474 -433 1267 -1243 1613 -1600 
L 2003 -1600 
C 1216 -784 960 357 960 1581 
C 960 2798 1203 3946 2003 4768 
L 1613 4768 
z
" transform="scale(0.015625)"/>
       <path id="CMSS17-25" d="M 3923 4583 
C 3962 4647 3962 4679 3962 4685 
C 3962 4755 3904 4800 3853 4800 
C 3782 4800 3750 4749 3718 4685 
L 1101 -104 
C 1088 -129 1062 -167 1062 -206 
C 1062 -276 1120 -320 1178 -320 
C 1235 -320 1248 -295 1299 -206 
L 3923 4583 
z
M 4678 959 
C 4678 1698 4282 2240 3846 2240 
C 3418 2240 3008 1711 3008 959 
C 3008 208 3418 -320 3846 -320 
C 4288 -320 4678 221 4678 959 
z
M 3846 68 
C 3712 68 3494 189 3494 959 
C 3494 1724 3712 1851 3846 1851 
C 4083 1851 4211 1386 4211 959 
C 4211 533 4083 68 3846 68 
z
M 2003 3519 
C 2003 4258 1606 4800 1171 4800 
C 742 4800 333 4271 333 3519 
C 333 2768 742 2240 1171 2240 
C 1613 2240 2003 2781 2003 3519 
z
M 1171 2628 
C 1037 2628 819 2749 819 3519 
C 819 4284 1037 4411 1171 4411 
C 1408 4411 1536 3946 1536 3519 
C 1536 3093 1408 2628 1171 2628 
z
" transform="scale(0.015625)"/>
       <path id="CMSS17-29" d="M 723 -1600 
C 1069 -1249 1862 -433 1862 1581 
C 1862 3601 1069 4411 723 4768 
L 333 4768 
C 1120 3952 1376 2811 1376 1588 
C 1376 370 1133 -778 333 -1600 
L 723 -1600 
z
" transform="scale(0.015625)"/>
      </defs>
      <use xlink:href="#CMSS17-50" transform="scale(0.996264)"/>
      <use xlink:href="#CMSS17-65" transform="translate(57.133132 0) scale(0.996264)"/>
      <use xlink:href="#CMSS17-72" transform="translate(98.771954 0) scale(0.996264)"/>
      <use xlink:href="#CMSS17-63" transform="translate(130.681727 0) scale(0.996264)"/>
      <use xlink:href="#CMSS17-65" transform="translate(172.320549 0) scale(0.996264)"/>
      <use xlink:href="#CMSS17-6e" transform="translate(213.959371 0) scale(0.996264)"/>
      <use xlink:href="#CMSS17-74" transform="translate(262.164314 0) scale(0.996264)"/>
      <use xlink:href="#CMSS17-61" transform="translate(295.995881 0) scale(0.996264)"/>
      <use xlink:href="#CMSS17-67" transform="translate(340.917802 0) scale(0.996264)"/>
      <use xlink:href="#CMSS17-65" transform="translate(387.761425 0) scale(0.996264)"/>
      <use xlink:href="#CMSS17-45" transform="translate(460.62936 0) scale(0.996264)"/>
      <use xlink:href="#CMSS17-78" transform="translate(516.521373 0) scale(0.996264)"/>
      <use xlink:href="#CMSS17-70" transform="translate(559.521515 0) scale(0.996264)"/>
      <use xlink:href="#CMSS17-6c" transform="translate(607.726458 0) scale(0.996264)"/>
      <use xlink:href="#CMSS17-6f" transform="translate(629.907181 0) scale(0.996264)"/>
      <use xlink:href="#CMSS17-72" transform="translate(674.148351 0) scale(0.996264)"/>
      <use xlink:href="#CMSS17-65" transform="translate(706.058123 0) scale(0.996264)"/>
      <use xlink:href="#CMSS17-64" transform="translate(747.696945 0) scale(0.996264)"/>
      <use xlink:href="#CMSS17-28" transform="translate(827.131001 0) scale(0.996264)"/>
      <use xlink:href="#CMSS17-25" transform="translate(863.564915 0) scale(0.996264)"/>
      <use xlink:href="#CMSS17-29" transform="translate(941.637652 0) scale(0.996264)"/>
     </g>
    </g>
   </g>
   <g id="PolyCollection_1">
    <defs>
     <path id="m053805197e" d="M 111.151132 -105.640896 
L 111.151132 -100.432213 
L 116.758914 -114.756091 
L 122.366695 -123.871285 
L 127.974476 -136.892992 
L 133.582258 -137.706849 
L 139.190039 -140.31119 
L 144.79782 -143.566617 
L 150.405602 -156.262781 
L 156.013383 -178.562453 
L 161.621164 -185.561621 
L 167.228946 -185.561621 
L 172.836727 -185.561621 
L 178.444508 -185.561621 
L 184.052289 -185.561621 
L 189.660071 -185.561621 
L 195.267852 -185.561621 
L 200.875633 -185.561621 
L 206.483415 -185.561621 
L 212.091196 -185.561621 
L 217.698977 -185.561621 
L 223.306759 -186.049935 
L 228.91454 -178.887996 
L 234.522321 -182.794508 
L 240.130103 -209.651778 
L 245.737884 -213.883832 
L 251.345665 -213.883832 
L 256.953447 -213.883832 
L 262.561228 -213.883832 
L 268.169009 -235.369648 
L 273.776791 -249.04244 
L 279.384572 -248.391355 
L 284.992353 -250.019068 
L 290.600134 -252.135096 
L 296.207916 -254.576666 
L 301.815697 -254.413894 
L 307.423478 -258.157635 
L 313.03126 -254.902208 
L 318.639041 -254.902208 
L 324.246822 -254.902208 
L 329.854604 -234.555792 
L 335.462385 -224.789512 
L 341.070166 -212.41889 
L 346.677948 -204.117552 
L 352.285729 -196.955614 
L 357.89351 -190.281989 
L 363.501292 -184.584993 
L 369.109073 -190.607532 
L 374.716854 -190.607532 
L 380.324635 -190.607532 
L 385.932417 -197.606699 
L 391.540198 -205.09418 
L 397.147979 -215.023232 
L 402.755761 -232.439764 
L 408.363542 -233.741935 
L 413.971323 -238.787846 
L 419.579105 -239.601703 
L 425.186886 -242.85713 
L 430.794667 -247.577498 
L 436.402449 -253.92558 
L 442.01023 -277.852966 
L 447.618011 -274.760311 
L 453.225793 -272.969826 
L 458.833574 -249.367983 
L 464.441355 -242.043273 
L 470.049137 -259.785348 
L 475.656918 -270.202714 
L 481.264699 -268.737772 
L 486.87248 -251.646782 
L 492.480262 -247.089184 
L 498.088043 -232.602536 
L 503.695824 -247.089184 
L 509.303606 -245.461471 
L 514.911387 -246.926413 
L 520.519168 -247.251956 
L 526.12695 -246.438099 
L 531.734731 -253.762809 
L 537.342512 -252.62341 
L 542.950294 -257.669321 
L 548.558075 -255.227751 
L 554.165856 -251.972324 
L 559.773638 -259.134263 
L 565.381419 -259.622577 
L 570.9892 -259.785348 
L 576.596981 -281.108393 
L 582.204763 -282.085021 
L 587.812544 -285.503219 
L 593.420325 -301.780352 
L 599.028107 -307.965663 
L 604.635888 -301.780352 
L 610.243669 -299.338782 
L 615.851451 -304.221922 
L 621.459232 -303.408066 
L 627.067013 -308.128434 
L 632.674795 -296.734441 
L 638.282576 -292.9907 
L 643.890357 -287.619246 
L 649.498139 -288.270332 
L 655.10592 -288.921417 
L 660.713701 -290.54913 
L 666.321482 -279.317908 
L 666.321482 -369.167684 
L 666.321482 -369.167684 
L 660.713701 -386.421446 
L 655.10592 -412.62763 
L 649.498139 -422.39391 
L 643.890357 -434.113446 
L 638.282576 -436.880559 
L 632.674795 -464.388914 
L 627.067013 -456.901433 
L 621.459232 -465.202771 
L 615.851451 -481.642675 
L 610.243669 -468.458197 
L 604.635888 -445.181897 
L 599.028107 -421.417282 
L 593.420325 -422.068367 
L 587.812544 -405.791234 
L 582.204763 -412.790401 
L 576.596981 -404.977377 
L 570.9892 -378.771193 
L 565.381419 -384.142647 
L 559.773638 -383.003248 
L 554.165856 -379.747821 
L 548.558075 -385.119275 
L 542.950294 -382.514934 
L 537.342512 -367.865514 
L 531.734731 -350.937295 
L 526.12695 -340.845472 
L 520.519168 -337.752817 
L 514.911387 -326.196052 
L 509.303606 -326.847138 
L 503.695824 -331.567506 
L 498.088043 -332.218592 
L 492.480262 -333.846305 
L 486.87248 -336.287875 
L 481.264699 -335.311247 
L 475.656918 -330.75365 
L 470.049137 -339.38053 
L 464.441355 -343.124271 
L 458.833574 -328.149308 
L 453.225793 -341.8221 
L 447.618011 -347.356326 
L 442.01023 -346.216926 
L 436.402449 -348.821268 
L 430.794667 -376.00408 
L 425.186886 -407.907261 
L 419.579105 -411.976545 
L 413.971323 -420.928968 
L 408.363542 -431.020791 
L 402.755761 -462.272887 
L 397.147979 -472.201938 
L 391.540198 -494.989925 
L 385.932417 -505.895604 
L 380.324635 -501.175235 
L 374.716854 -497.431495 
L 369.109073 -464.551685 
L 363.501292 -480.014962 
L 357.89351 -467.318798 
L 352.285729 -457.715289 
L 346.677948 -461.621801 
L 341.070166 -467.481569 
L 335.462385 -459.831317 
L 329.854604 -454.297091 
L 324.246822 -452.018293 
L 318.639041 -435.903931 
L 313.03126 -395.373869 
L 307.423478 -374.539138 
L 301.815697 -361.842974 
L 296.207916 -361.35466 
L 290.600134 -379.58505 
L 284.992353 -385.77036 
L 279.384572 -407.418947 
L 273.776791 -407.093405 
L 268.169009 -407.74449 
L 262.561228 -402.698579 
L 256.953447 -428.579221 
L 251.345665 -424.021623 
L 245.737884 -416.371371 
L 240.130103 -425.974879 
L 234.522321 -432.322961 
L 228.91454 -426.300422 
L 223.306759 -407.093405 
L 217.698977 -376.817937 
L 212.091196 -369.167684 
L 206.483415 -368.842142 
L 200.875633 -366.2378 
L 195.267852 -368.191056 
L 189.660071 -365.261172 
L 184.052289 -363.959002 
L 178.444508 -341.333786 
L 172.836727 -329.777022 
L 167.228946 -300.152639 
L 161.621164 -299.01324 
L 156.013383 -292.339615 
L 150.405602 -250.18184 
L 144.79782 -227.882167 
L 139.190039 -209.326235 
L 133.582258 -202.815382 
L 127.974476 -189.630904 
L 122.366695 -170.912201 
L 116.758914 -148.612528 
L 111.151132 -105.640896 
z
" style="stroke: #ffffff; stroke-opacity: 0.2"/>
    </defs>
    <g clip-path="url(#pca49ab709a)">
     <use xlink:href="#m053805197e" x="0" y="576" style="fill: #4c72b0; fill-opacity: 0.2; stroke: #ffffff; stroke-opacity: 0.2"/>
    </g>
   </g>
   <g id="PolyCollection_2">
    <defs>
     <path id="mb829cdf140" d="M 111.151132 -105.640896 
L 111.151132 -103.036555 
L 116.758914 -117.197661 
L 122.366695 -128.428883 
L 127.974476 -143.892159 
L 133.582258 -148.775299 
L 139.190039 -164.889661 
L 144.79782 -171.237743 
L 150.405602 -172.702685 
L 156.013383 -176.120883 
L 161.621164 -197.606699 
L 167.228946 -209.97732 
L 172.836727 -209.489006 
L 178.444508 -212.41889 
L 184.052289 -217.464802 
L 189.660071 -220.069143 
L 195.267852 -226.579996 
L 200.875633 -227.556624 
L 206.483415 -227.556624 
L 212.091196 -234.230249 
L 217.698977 -242.531587 
L 223.306759 -242.694358 
L 228.91454 -244.484843 
L 234.522321 -246.438099 
L 240.130103 -246.275328 
L 245.737884 -248.391355 
L 251.345665 -249.856297 
L 256.953447 -247.74027 
L 262.561228 -243.833758 
L 268.169009 -243.182672 
L 273.776791 -231.463136 
L 279.384572 -208.349607 
L 284.992353 -195.3279 
L 290.600134 -181.655109 
L 296.207916 -183.445593 
L 301.815697 -195.002358 
L 307.423478 -216.488174 
L 313.03126 -219.255286 
L 318.639041 -234.881334 
L 324.246822 -244.484843 
L 329.854604 -260.436434 
L 335.462385 -294.292871 
L 341.070166 -299.01324 
L 346.677948 -299.338782 
L 352.285729 -296.57167 
L 357.89351 -287.944789 
L 363.501292 -283.875506 
L 369.109073 -283.549963 
L 374.716854 -293.479014 
L 380.324635 -254.902208 
L 385.932417 -253.274495 
L 391.540198 -242.694358 
L 397.147979 -241.554959 
L 402.755761 -235.206877 
L 408.363542 -231.300365 
L 413.971323 -230.812051 
L 419.579105 -230.64928 
L 425.186886 -242.043273 
L 430.794667 -244.973157 
L 436.402449 -246.60087 
L 442.01023 -246.438099 
L 447.618011 -244.973157 
L 453.225793 -236.020734 
L 458.833574 -230.812051 
L 464.441355 -235.369648 
L 470.049137 -251.158468 
L 475.656918 -257.181007 
L 481.264699 -259.94812 
L 486.87248 -260.110891 
L 492.480262 -279.317908 
L 498.088043 -277.527424 
L 503.695824 -261.087519 
L 509.303606 -240.41556 
L 514.911387 -241.71773 
L 520.519168 -240.903874 
L 526.12695 -253.92558 
L 531.734731 -238.950618 
L 537.342512 -222.022399 
L 542.950294 -199.885498 
L 548.558075 -189.305361 
L 554.165856 -189.468133 
L 559.773638 -183.608365 
L 565.381419 -181.492337 
L 570.9892 -181.492337 
L 576.596981 -184.422221 
L 582.204763 -198.257784 
L 587.812544 -208.349607 
L 593.420325 -213.883832 
L 599.028107 -213.721061 
L 604.635888 -216.488174 
L 610.243669 -208.67515 
L 615.851451 -208.186836 
L 621.459232 -205.256952 
L 627.067013 -202.978153 
L 632.674795 -190.933074 
L 638.282576 -190.933074 
L 643.890357 -205.908037 
L 649.498139 -218.44143 
L 655.10592 -218.115887 
L 660.713701 -217.953116 
L 666.321482 -222.18517 
L 666.321482 -354.355493 
L 666.321482 -354.355493 
L 660.713701 -354.843807 
L 655.10592 -360.540804 
L 649.498139 -372.097568 
L 643.890357 -394.071698 
L 638.282576 -389.025787 
L 632.674795 -395.862183 
L 627.067013 -415.231971 
L 621.459232 -411.162688 
L 615.851451 -401.884722 
L 610.243669 -381.863848 
L 604.635888 -372.585882 
L 599.028107 -353.216094 
L 593.420325 -363.79623 
L 587.812544 -360.05249 
L 582.204763 -355.16935 
L 576.596981 -352.72778 
L 570.9892 -350.937295 
L 565.381419 -355.006578 
L 559.773638 -363.307916 
L 554.165856 -339.054988 
L 548.558075 -330.916421 
L 542.950294 -324.73111 
L 537.342512 -310.244462 
L 531.734731 -311.383861 
L 526.12695 -313.337117 
L 520.519168 -327.009909 
L 514.911387 -336.125104 
L 509.303606 -340.682701 
L 503.695824 -338.892216 
L 498.088043 -330.428107 
L 492.480262 -328.637622 
L 486.87248 -325.219424 
L 481.264699 -350.774524 
L 475.656918 -370.144312 
L 470.049137 -381.049992 
L 464.441355 -387.072531 
L 458.833574 -391.304586 
L 453.225793 -391.7929 
L 447.618011 -403.837978 
L 442.01023 -399.605924 
L 436.402449 -401.233637 
L 430.794667 -380.236135 
L 425.186886 -374.70191 
L 419.579105 -367.051657 
L 413.971323 -353.541636 
L 408.363542 -354.192722 
L 402.755761 -360.540804 
L 397.147979 -355.16935 
L 391.540198 -358.262005 
L 385.932417 -349.960667 
L 380.324635 -345.077527 
L 374.716854 -347.030783 
L 369.109073 -353.704408 
L 363.501292 -355.006578 
L 357.89351 -346.054155 
L 352.285729 -347.519097 
L 346.677948 -347.681868 
L 341.070166 -354.192722 
L 335.462385 -355.820435 
L 329.854604 -355.332121 
L 324.246822 -347.193554 
L 318.639041 -354.681036 
L 313.03126 -348.007411 
L 307.423478 -358.750319 
L 301.815697 -356.145978 
L 296.207916 -348.495725 
L 290.600134 -335.962332 
L 284.992353 -324.242796 
L 279.384572 -307.965663 
L 273.776791 -305.19855 
L 268.169009 -301.45481 
L 262.561228 -315.290373 
L 256.953447 -331.893049 
L 251.345665 -347.193554 
L 245.737884 -349.14681 
L 240.130103 -350.937295 
L 234.522321 -343.449814 
L 228.91454 -349.960667 
L 223.306759 -361.517432 
L 217.698977 -376.817937 
L 212.091196 -364.284544 
L 206.483415 -363.145145 
L 200.875633 -354.518264 
L 195.267852 -347.519097 
L 189.660071 -339.868844 
L 184.052289 -318.057486 
L 178.444508 -311.546632 
L 172.836727 -309.430605 
L 167.228946 -301.129267 
L 161.621164 -271.01657 
L 156.013383 -243.508215 
L 150.405602 -231.788679 
L 144.79782 -227.556624 
L 139.190039 -212.744433 
L 133.582258 -202.978153 
L 127.974476 -190.933074 
L 122.366695 -181.492337 
L 116.758914 -150.891327 
L 111.151132 -105.640896 
z
" style="stroke: #ffffff; stroke-opacity: 0.2"/>
    </defs>
    <g clip-path="url(#pca49ab709a)">
     <use xlink:href="#mb829cdf140" x="0" y="576" style="fill: #dd8452; fill-opacity: 0.2; stroke: #ffffff; stroke-opacity: 0.2"/>
    </g>
   </g>
   <g id="PolyCollection_3">
    <defs>
     <path id="m889cd3bf7c" d="M 111.151132 -105.640896 
L 111.151132 -100.432213 
L 116.758914 -120.615859 
L 122.366695 -129.079968 
L 127.974476 -138.357934 
L 133.582258 -139.497333 
L 139.190039 -143.241074 
L 144.79782 -153.658439 
L 150.405602 -154.797839 
L 156.013383 -157.727723 
L 161.621164 -158.053265 
L 167.228946 -165.703518 
L 172.836727 -166.191832 
L 178.444508 -166.191832 
L 184.052289 -169.447259 
L 189.660071 -169.447259 
L 195.267852 -176.771969 
L 200.875633 -176.771969 
L 206.483415 -182.468965 
L 212.091196 -196.792842 
L 217.698977 -198.90887 
L 223.306759 -212.744433 
L 228.91454 -225.928911 
L 234.522321 -226.742768 
L 240.130103 -224.138426 
L 245.737884 -238.462304 
L 251.345665 -237.322904 
L 256.953447 -219.092515 
L 262.561228 -210.140092 
L 268.169009 -205.09418 
L 273.776791 -196.630071 
L 279.384572 -197.281156 
L 284.992353 -204.280324 
L 290.600134 -205.256952 
L 296.207916 -221.371314 
L 301.815697 -226.579996 
L 307.423478 -227.231082 
L 313.03126 -214.372146 
L 318.639041 -207.53575 
L 324.246822 -204.280324 
L 329.854604 -211.442262 
L 335.462385 -214.372146 
L 341.070166 -214.209375 
L 346.677948 -213.883832 
L 352.285729 -226.091682 
L 357.89351 -232.765307 
L 363.501292 -237.160133 
L 369.109073 -238.950618 
L 374.716854 -228.533252 
L 380.324635 -231.463136 
L 385.932417 -260.436434 
L 391.540198 -256.041608 
L 397.147979 -274.434768 
L 402.755761 -267.110058 
L 408.363542 -251.321239 
L 413.971323 -242.85713 
L 419.579105 -240.578331 
L 425.186886 -237.160133 
L 430.794667 -236.671819 
L 436.402449 -236.346276 
L 442.01023 -226.254454 
L 447.618011 -231.463136 
L 453.225793 -218.115887 
L 458.833574 -211.605034 
L 464.441355 -205.256952 
L 470.049137 -209.651778 
L 475.656918 -209.651778 
L 481.264699 -209.651778 
L 486.87248 -208.024064 
L 492.480262 -199.071641 
L 498.088043 -189.305361 
L 503.695824 -199.234412 
L 509.303606 -195.816214 
L 514.911387 -200.373812 
L 520.519168 -212.41889 
L 526.12695 -222.836256 
L 531.734731 -228.533252 
L 537.342512 -230.64928 
L 542.950294 -233.579164 
L 548.558075 -230.160966 
L 554.165856 -230.812051 
L 559.773638 -225.76614 
L 565.381419 -224.952283 
L 570.9892 -224.789512 
L 576.596981 -220.394686 
L 582.204763 -213.55829 
L 587.812544 -211.930576 
L 593.420325 -218.929744 
L 599.028107 -221.371314 
L 604.635888 -219.418058 
L 610.243669 -214.372146 
L 615.851451 -209.489006 
L 621.459232 -215.348774 
L 627.067013 -221.208542 
L 632.674795 -249.367983 
L 638.282576 -270.528256 
L 643.890357 -284.852134 
L 649.498139 -281.108393 
L 655.10592 -296.57167 
L 660.713701 -278.504052 
L 666.321482 -281.433936 
L 666.321482 -376.817937 
L 666.321482 -376.817937 
L 660.713701 -372.585882 
L 655.10592 -373.725282 
L 649.498139 -362.168517 
L 643.890357 -351.751152 
L 638.282576 -331.730278 
L 632.674795 -338.892216 
L 627.067013 -348.332954 
L 621.459232 -345.728612 
L 615.851451 -356.634292 
L 610.243669 -348.495725 
L 604.635888 -356.634292 
L 599.028107 -342.147643 
L 593.420325 -327.009909 
L 587.812544 -312.848803 
L 582.204763 -294.781185 
L 576.596981 -284.852134 
L 570.9892 -290.223588 
L 565.381419 -282.573335 
L 559.773638 -282.247792 
L 554.165856 -284.201048 
L 548.558075 -288.595874 
L 542.950294 -303.245294 
L 537.342512 -338.07836 
L 531.734731 -328.637622 
L 526.12695 -314.313745 
L 520.519168 -314.313745 
L 514.911387 -336.776189 
L 509.303606 -360.703575 
L 503.695824 -360.05249 
L 498.088043 -359.238633 
L 492.480262 -364.121773 
L 486.87248 -375.841309 
L 481.264699 -374.864681 
L 475.656918 -388.374702 
L 470.049137 -380.236135 
L 464.441355 -365.586715 
L 458.833574 -362.331288 
L 453.225793 -346.868012 
L 447.618011 -324.568339 
L 442.01023 -301.129267 
L 436.402449 -312.848803 
L 430.794667 -316.10423 
L 425.186886 -309.267834 
L 419.579105 -312.360489 
L 413.971323 -338.566674 
L 408.363542 -348.821268 
L 402.755761 -349.309582 
L 397.147979 -366.726114 
L 391.540198 -347.193554 
L 385.932417 -341.333786 
L 380.324635 -332.05582 
L 374.716854 -332.381363 
L 369.109073 -342.473186 
L 363.501292 -335.63679 
L 357.89351 -320.499056 
L 352.285729 -325.544967 
L 346.677948 -335.799561 
L 341.070166 -341.659329 
L 335.462385 -344.26367 
L 329.854604 -349.635124 
L 324.246822 -342.798728 
L 318.639041 -346.542469 
L 313.03126 -346.70524 
L 307.423478 -348.821268 
L 301.815697 -331.567506 
L 296.207916 -330.102564 
L 290.600134 -327.335452 
L 284.992353 -323.42894 
L 279.384572 -309.430605 
L 273.776791 -311.058318 
L 268.169009 -301.780352 
L 262.561228 -274.923082 
L 256.953447 -270.853799 
L 251.345665 -255.553294 
L 245.737884 -259.459806 
L 240.130103 -272.481512 
L 234.522321 -296.408898 
L 228.91454 -308.453977 
L 223.306759 -313.174346 
L 217.698977 -322.28954 
L 212.091196 -343.612585 
L 206.483415 -352.076694 
L 200.875633 -355.657664 
L 195.267852 -356.308749 
L 189.660071 -355.820435 
L 184.052289 -355.657664 
L 178.444508 -356.47152 
L 172.836727 -342.147643 
L 167.228946 -312.197718 
L 161.621164 -300.152639 
L 156.013383 -289.898045 
L 150.405602 -272.318741 
L 144.79782 -253.111724 
L 139.190039 -215.511546 
L 133.582258 -200.699354 
L 127.974476 -196.141757 
L 122.366695 -188.491505 
L 116.758914 -156.588323 
L 111.151132 -105.640896 
z
" style="stroke: #ffffff; stroke-opacity: 0.2"/>
    </defs>
    <g clip-path="url(#pca49ab709a)">
     <use xlink:href="#m889cd3bf7c" x="0" y="576" style="fill: #55a868; fill-opacity: 0.2; stroke: #ffffff; stroke-opacity: 0.2"/>
    </g>
   </g>
   <g id="line2d_13">
    <path d="M 111.151132 472.442577 
L 116.758914 445.45509 
L 122.366695 428.59198 
L 127.974476 416.937553 
L 133.582258 409.905831 
L 139.190039 404.013509 
L 144.79782 394.898314 
L 150.405602 378.197975 
L 156.013383 357.493462 
L 161.621164 345.057732 
L 167.228946 337.830685 
L 172.836727 326.664571 
L 178.444508 323.995121 
L 184.052289 314.196287 
L 189.660071 307.587771 
L 195.267852 302.704631 
L 200.875633 301.532677 
L 206.483415 302.867402 
L 212.091196 304.625333 
L 217.698977 302.053546 
L 223.306759 290.496781 
L 228.91454 286.069401 
L 234.522321 283.367397 
L 240.130103 275.91247 
L 245.737884 278.809799 
L 251.345665 283.692939 
L 256.953447 282.813974 
L 262.561228 291.994277 
L 268.169009 288.673742 
L 273.776791 281.64202 
L 279.384572 272.689597 
L 284.992353 263.867391 
L 290.600134 255.956704 
L 296.207916 250.58525 
L 301.815697 246.646184 
L 307.423478 247.069389 
L 313.03126 242.967552 
L 318.639041 239.093594 
L 324.246822 235.024311 
L 329.854604 236.521807 
L 335.462385 228.708783 
L 341.070166 224.899934 
L 346.677948 221.677061 
L 352.285729 218.128646 
L 357.89351 214.026809 
L 363.501292 218.682069 
L 369.109073 211.162033 
L 374.716854 201.330645 
L 380.324635 201.591079 
L 385.932417 197.456687 
L 391.540198 204.65118 
L 397.147979 212.496758 
L 402.755761 213.115289 
L 408.363542 228.839 
L 413.971323 232.289752 
L 419.579105 241.144513 
L 425.186886 245.116133 
L 430.794667 254.003448 
L 436.402449 264.323151 
L 442.01023 263.932499 
L 447.618011 267.546023 
L 453.225793 274.284756 
L 458.833574 280.404958 
L 464.441355 282.879083 
L 470.049137 281.739683 
L 475.656918 285.776412 
L 481.264699 284.930001 
L 486.87248 291.017649 
L 492.480262 296.779754 
L 498.088043 299.286433 
L 503.695824 296.812309 
L 509.303606 288.836513 
L 514.911387 282.293106 
L 520.519168 276.303121 
L 526.12695 276.140349 
L 531.734731 273.926659 
L 537.342512 267.839011 
L 542.950294 261.002615 
L 548.558075 257.942514 
L 554.165856 248.631994 
L 559.773638 239.809788 
L 565.381419 235.805613 
L 570.9892 237.92164 
L 576.596981 231.573558 
L 582.204763 231.606113 
L 587.812544 229.229651 
L 593.420325 224.899934 
L 599.028107 227.048515 
L 604.635888 223.858197 
L 610.243669 222.621135 
L 615.851451 218.84484 
L 621.459232 217.803104 
L 627.067013 218.714623 
L 632.674795 215.784739 
L 638.282576 221.937495 
L 643.890357 226.429984 
L 649.498139 229.034326 
L 655.10592 232.940838 
L 660.713701 241.014296 
L 666.321482 244.139505 
" clip-path="url(#pca49ab709a)" style="fill: none; stroke: #4c72b0; stroke-width: 1.5; stroke-linecap: round"/>
   </g>
   <g id="line2d_14">
    <path d="M 111.151132 471.303178 
L 116.758914 442.78564 
L 122.366695 425.238891 
L 127.974476 410.589471 
L 133.582258 403.264761 
L 139.190039 390.829031 
L 144.79782 372.761413 
L 150.405602 370.026854 
L 156.013383 362.278939 
L 161.621164 348.24805 
L 167.228946 333.37075 
L 172.836727 322.627842 
L 178.444508 316.833183 
L 184.052289 313.740527 
L 189.660071 307.294783 
L 195.267852 299.839856 
L 200.875633 300.067735 
L 206.483415 295.900789 
L 212.091196 293.556882 
L 217.698977 286.134509 
L 223.306759 286.069401 
L 228.91454 281.316478 
L 234.522321 281.479249 
L 240.130103 276.856543 
L 245.737884 279.395776 
L 251.345665 284.604459 
L 256.953447 290.236347 
L 262.561228 293.296448 
L 268.169009 294.793944 
L 273.776791 291.798952 
L 279.384572 300.002627 
L 284.992353 299.091107 
L 290.600134 297.170406 
L 296.207916 291.798952 
L 301.815697 278.647028 
L 307.423478 270.703787 
L 313.03126 271.289764 
L 318.639041 266.960046 
L 324.246822 273.601117 
L 329.854604 269.499279 
L 335.462385 257.942514 
L 341.070166 252.147855 
L 346.677948 253.352363 
L 352.285729 259.147022 
L 357.89351 264.681248 
L 363.501292 265.299779 
L 369.109073 263.053534 
L 374.716854 259.602782 
L 380.324635 264.844019 
L 385.932417 259.570228 
L 391.540198 260.188759 
L 397.147979 258.36572 
L 402.755761 259.049359 
L 408.363542 267.871566 
L 413.971323 271.02933 
L 419.579105 269.987593 
L 425.186886 264.518476 
L 430.794667 261.588592 
L 436.402449 248.631994 
L 442.01023 245.669556 
L 447.618011 242.80478 
L 453.225793 248.469223 
L 458.833574 249.543514 
L 464.441355 252.505952 
L 470.049137 253.2547 
L 475.656918 263.313968 
L 481.264699 268.164554 
L 486.87248 274.382419 
L 492.480262 273.308128 
L 498.088043 271.647861 
L 503.695824 270.638678 
L 509.303606 278.549365 
L 514.911387 278.809799 
L 520.519168 284.637013 
L 526.12695 287.371571 
L 531.734731 286.167064 
L 537.342512 290.952541 
L 542.950294 291.701289 
L 548.558075 291.115312 
L 554.165856 291.538518 
L 559.773638 284.702122 
L 565.381419 288.250537 
L 570.9892 289.65037 
L 576.596981 287.273909 
L 582.204763 288.087765 
L 587.812544 291.375746 
L 593.420325 290.041021 
L 599.028107 294.793944 
L 604.635888 291.082758 
L 610.243669 292.189603 
L 615.851451 290.822324 
L 621.459232 285.67875 
L 627.067013 282.162889 
L 632.674795 288.348199 
L 638.282576 284.116145 
L 643.890357 276.531001 
L 649.498139 278.842354 
L 655.10592 277.768063 
L 660.713701 276.238012 
L 666.321482 276.238012 
" clip-path="url(#pca49ab709a)" style="fill: none; stroke: #dd8452; stroke-width: 1.5; stroke-linecap: round"/>
   </g>
   <g id="line2d_15">
    <path d="M 111.151132 471.400841 
L 116.758914 439.562768 
L 122.366695 420.909173 
L 127.974476 408.245563 
L 133.582258 404.957582 
L 139.190039 393.661252 
L 144.79782 380.183786 
L 150.405602 371.784785 
L 156.013383 368.529358 
L 161.621164 369.473432 
L 167.228946 360.748888 
L 172.836727 350.429186 
L 178.444508 339.490952 
L 184.052289 328.71549 
L 189.660071 324.353218 
L 195.267852 321.293117 
L 200.875633 315.661229 
L 206.483415 314.554384 
L 212.091196 315.140361 
L 217.698977 319.40497 
L 223.306759 321.488443 
L 228.91454 317.972582 
L 234.522321 313.447539 
L 240.130103 321.879094 
L 245.737884 327.641199 
L 251.345665 330.505975 
L 256.953447 334.086944 
L 262.561228 337.440033 
L 268.169009 331.091951 
L 273.776791 325.134521 
L 279.384572 322.920831 
L 284.992353 312.829008 
L 290.600134 302.118654 
L 296.207916 287.371571 
L 301.815697 279.265559 
L 307.423478 271.517644 
L 313.03126 275.22883 
L 318.639041 281.544358 
L 324.246822 283.334842 
L 329.854604 277.019315 
L 335.462385 280.177078 
L 341.070166 285.255544 
L 346.677948 288.413308 
L 352.285729 285.22299 
L 357.89351 287.762223 
L 363.501292 283.758048 
L 369.109073 279.688764 
L 374.716854 286.101955 
L 380.324635 283.334842 
L 385.932417 270.182919 
L 391.540198 265.00679 
L 397.147979 261.556038 
L 402.755761 269.108628 
L 408.363542 275.652035 
L 413.971323 277.702954 
L 419.579105 288.380754 
L 425.186886 293.00346 
L 430.794667 291.961723 
L 436.402449 297.040189 
L 442.01023 302.997619 
L 447.618011 297.756382 
L 453.225793 295.314812 
L 458.833574 290.822324 
L 464.441355 286.948366 
L 470.049137 283.139517 
L 475.656918 282.32566 
L 481.264699 284.799784 
L 486.87248 286.915812 
L 492.480262 291.994277 
L 498.088043 297.951708 
L 503.695824 296.29144 
L 509.303606 299.546867 
L 514.911387 304.918321 
L 520.519168 309.996787 
L 526.12695 313.38243 
L 531.734731 304.98343 
L 537.342512 299.546867 
L 542.950294 305.634515 
L 548.558075 308.694616 
L 554.165856 312.30814 
L 559.773638 314.033516 
L 565.381419 314.52183 
L 570.9892 314.29395 
L 576.596981 314.06607 
L 582.204763 313.121996 
L 587.812544 306.806469 
L 593.420325 297.105297 
L 599.028107 295.021824 
L 604.635888 298.179588 
L 610.243669 297.919154 
L 615.851451 300.914146 
L 621.459232 298.277251 
L 627.067013 291.147866 
L 632.674795 282.846528 
L 638.282576 271.647861 
L 643.890357 263.70462 
L 649.498139 264.258042 
L 655.10592 258.463383 
L 660.713701 265.625321 
L 666.321482 261.816472 
" clip-path="url(#pca49ab709a)" style="fill: none; stroke: #55a868; stroke-width: 1.5; stroke-linecap: round"/>
   </g>
   <g id="patch_3">
    <path d="M 83.392615 495.840956 
L 83.392615 49.831226 
" style="fill: none; stroke: #cccccc; stroke-width: 1.25; stroke-linejoin: miter; stroke-linecap: square"/>
   </g>
   <g id="patch_4">
    <path d="M 694.08 495.840956 
L 694.08 49.831226 
" style="fill: none; stroke: #cccccc; stroke-width: 1.25; stroke-linejoin: miter; stroke-linecap: square"/>
   </g>
   <g id="patch_5">
    <path d="M 83.392615 495.840956 
L 694.08 495.840956 
" style="fill: none; stroke: #cccccc; stroke-width: 1.25; stroke-linejoin: miter; stroke-linecap: square"/>
   </g>
   <g id="patch_6">
    <path d="M 83.392615 49.831226 
L 694.08 49.831226 
" style="fill: none; stroke: #cccccc; stroke-width: 1.25; stroke-linejoin: miter; stroke-linecap: square"/>
   </g>
   <g id="text_15">
    <!-- Percentage Explored (\%) over Step (Mean) -->
    <g style="fill: #262626" transform="translate(184.714212 43.831226) scale(0.24 -0.24)">
     <defs>
      <path id="CMSS17-76" d="M 2675 2752 
L 2176 2752 
L 1747 1556 
C 1613 1165 1421 627 1389 352 
L 1382 352 
C 1370 468 1318 634 1286 749 
C 1248 890 1197 1056 1158 1172 
L 595 2752 
L 83 2752 
L 1094 0 
L 1664 0 
L 2675 2752 
z
" transform="scale(0.015625)"/>
      <path id="CMSS17-4d" d="M 3194 2371 
L 2886 1473 
C 2835 1307 2662 791 2624 587 
L 2618 587 
C 2598 715 2560 849 2458 1174 
C 2400 1365 2336 1562 2272 1741 
L 1325 4416 
L 576 4416 
L 576 0 
L 1075 0 
L 1075 3900 
L 1082 3900 
C 1082 3894 1139 3613 1530 2499 
L 2374 96 
L 2848 96 
L 3610 2231 
C 3661 2378 3821 2843 3891 3066 
C 3955 3257 4115 3728 4154 3913 
L 4160 3913 
L 4160 0 
L 4666 0 
L 4666 4416 
L 3923 4416 
L 3194 2371 
z
" transform="scale(0.015625)"/>
     </defs>
     <use xlink:href="#CMSS17-50" transform="scale(0.996264)"/>
     <use xlink:href="#CMSS17-65" transform="translate(57.133132 0) scale(0.996264)"/>
     <use xlink:href="#CMSS17-72" transform="translate(98.771954 0) scale(0.996264)"/>
     <use xlink:href="#CMSS17-63" transform="translate(130.681727 0) scale(0.996264)"/>
     <use xlink:href="#CMSS17-65" transform="translate(172.320549 0) scale(0.996264)"/>
     <use xlink:href="#CMSS17-6e" transform="translate(213.959371 0) scale(0.996264)"/>
     <use xlink:href="#CMSS17-74" transform="translate(262.164314 0) scale(0.996264)"/>
     <use xlink:href="#CMSS17-61" transform="translate(295.995881 0) scale(0.996264)"/>
     <use xlink:href="#CMSS17-67" transform="translate(340.917802 0) scale(0.996264)"/>
     <use xlink:href="#CMSS17-65" transform="translate(387.761425 0) scale(0.996264)"/>
     <use xlink:href="#CMSS17-45" transform="translate(460.62936 0) scale(0.996264)"/>
     <use xlink:href="#CMSS17-78" transform="translate(516.521373 0) scale(0.996264)"/>
     <use xlink:href="#CMSS17-70" transform="translate(559.521515 0) scale(0.996264)"/>
     <use xlink:href="#CMSS17-6c" transform="translate(607.726458 0) scale(0.996264)"/>
     <use xlink:href="#CMSS17-6f" transform="translate(629.907181 0) scale(0.996264)"/>
     <use xlink:href="#CMSS17-72" transform="translate(674.148351 0) scale(0.996264)"/>
     <use xlink:href="#CMSS17-65" transform="translate(706.058123 0) scale(0.996264)"/>
     <use xlink:href="#CMSS17-64" transform="translate(747.696945 0) scale(0.996264)"/>
     <use xlink:href="#CMSS17-28" transform="translate(827.131001 0) scale(0.996264)"/>
     <use xlink:href="#CMSS17-25" transform="translate(863.564915 0) scale(0.996264)"/>
     <use xlink:href="#CMSS17-29" transform="translate(941.637652 0) scale(0.996264)"/>
     <use xlink:href="#CMSS17-6f" transform="translate(1009.300678 0) scale(0.996264)"/>
     <use xlink:href="#CMSS17-76" transform="translate(1056.144302 0) scale(0.996264)"/>
     <use xlink:href="#CMSS17-65" transform="translate(1099.144444 0) scale(0.996264)"/>
     <use xlink:href="#CMSS17-72" transform="translate(1140.783266 0) scale(0.996264)"/>
     <use xlink:href="#CMSS17-53" transform="translate(1203.922151 0) scale(0.996264)"/>
     <use xlink:href="#CMSS17-74" transform="translate(1255.970667 0) scale(0.996264)"/>
     <use xlink:href="#CMSS17-65" transform="translate(1289.802234 0) scale(0.996264)"/>
     <use xlink:href="#CMSS17-70" transform="translate(1331.441056 0) scale(0.996264)"/>
     <use xlink:href="#CMSS17-28" transform="translate(1410.875112 0) scale(0.996264)"/>
     <use xlink:href="#CMSS17-4d" transform="translate(1447.309026 0) scale(0.996264)"/>
     <use xlink:href="#CMSS17-65" transform="translate(1528.985056 0) scale(0.996264)"/>
     <use xlink:href="#CMSS17-61" transform="translate(1570.623878 0) scale(0.996264)"/>
     <use xlink:href="#CMSS17-6e" transform="translate(1615.545799 0) scale(0.996264)"/>
     <use xlink:href="#CMSS17-29" transform="translate(1663.750742 0) scale(0.996264)"/>
    </g>
   </g>
   <g id="legend_1">
    <g id="patch_7">
     <path d="M 98.792615 191.675953 
L 352.149875 191.675953 
Q 356.549875 191.675953 356.549875 187.275953 
L 356.549875 65.231226 
Q 356.549875 60.831226 352.149875 60.831226 
L 98.792615 60.831226 
Q 94.392615 60.831226 94.392615 65.231226 
L 94.392615 187.275953 
Q 94.392615 191.675953 98.792615 191.675953 
z
" style="fill: #ffffff; opacity: 0.8; stroke: #cccccc; stroke-linejoin: miter"/>
    </g>
    <g id="text_16">
     <!-- Minimum Confidence $\theta_{\mathrm{min}}$ -->
     <g style="fill: #262626" transform="translate(103.192615 86.235632) scale(0.24 -0.24)">
      <defs>
       <path id="CMSS17-69" d="M 979 4183 
L 442 4183 
L 442 3648 
L 979 3648 
L 979 4183 
z
M 947 2739 
L 474 2739 
L 474 0 
L 947 0 
L 947 2739 
z
" transform="scale(0.015625)"/>
       <path id="CMSS17-6d" d="M 4288 1877 
C 4288 2308 4179 2816 3462 2816 
C 2982 2816 2694 2516 2566 2331 
C 2451 2670 2182 2816 1798 2816 
C 1363 2816 1088 2568 941 2389 
L 941 2758 
L 474 2758 
L 474 0 
L 960 0 
L 960 1559 
C 960 1939 1101 2428 1555 2428 
C 2138 2428 2138 2016 2138 1829 
L 2138 0 
L 2624 0 
L 2624 1559 
C 2624 1939 2765 2428 3219 2428 
C 3802 2428 3802 2016 3802 1829 
L 3802 0 
L 4288 0 
L 4288 1877 
z
" transform="scale(0.015625)"/>
       <path id="CMSS17-75" d="M 2618 2739 
L 2131 2739 
L 2131 972 
C 2131 498 1786 306 1421 306 
C 998 306 960 447 960 709 
L 960 2739 
L 474 2739 
L 474 678 
C 474 179 646 -64 1088 -64 
C 1306 -64 1798 -13 2144 306 
L 2144 0 
L 2618 0 
L 2618 2739 
z
" transform="scale(0.015625)"/>
       <path id="CMSS17-43" d="M 3501 714 
C 3072 427 2874 344 2355 344 
C 1459 344 934 1303 934 2179 
C 934 3112 1472 4032 2381 4032 
C 2790 4032 3059 3918 3386 3715 
L 3475 4217 
C 3168 4370 2778 4440 2387 4440 
C 1158 4440 397 3316 397 2179 
C 397 927 1299 -64 2323 -64 
C 2874 -64 3066 -19 3539 280 
L 3501 714 
z
" transform="scale(0.015625)"/>
       <path id="CMSS17-c" d="M 2752 4416 
L 2240 4416 
L 2240 3906 
L 2752 3906 
L 2752 4416 
z
M 2733 2737 
L 2259 2737 
L 2259 0 
L 2733 0 
L 2733 2737 
z
M 1075 2368 
L 1773 2368 
L 1773 2737 
L 1062 2737 
L 1062 3578 
C 1062 3919 1216 4092 1421 4092 
C 1542 4092 1664 4056 1773 3992 
L 1773 4410 
C 1722 4428 1574 4480 1421 4480 
C 941 4480 602 3993 602 3372 
L 602 2737 
L 160 2737 
L 160 2368 
L 602 2368 
L 602 0 
L 1075 0 
L 1075 2368 
z
" transform="scale(0.015625)"/>
       <path id="CMMI12-12" d="M 2835 3200 
C 2835 3850 2630 4480 2106 4480 
C 1210 4480 256 2615 256 1216 
C 256 923 320 -64 992 -64 
C 1862 -64 2835 1756 2835 3200 
z
M 896 2304 
C 992 2679 1126 3214 1382 3665 
C 1594 4047 1818 4352 2099 4352 
C 2310 4352 2451 4174 2451 3564 
C 2451 3334 2432 3017 2246 2304 
L 896 2304 
z
M 2202 2113 
C 2042 1490 1907 1088 1677 687 
C 1491 363 1267 64 998 64 
C 800 64 640 217 640 846 
C 640 1260 742 1693 845 2113 
L 2202 2113 
z
" transform="scale(0.015625)"/>
       <path id="CMR17-6d" d="M 4326 1933 
C 4326 2252 4269 2790 3507 2790 
C 3072 2790 2771 2496 2656 2151 
L 2650 2151 
C 2573 2676 2195 2790 1837 2790 
C 1331 2790 1069 2400 973 2144 
L 966 2144 
L 966 2790 
L 211 2720 
L 211 2554 
C 589 2554 646 2515 646 2208 
L 646 428 
C 646 184 621 153 211 153 
L 211 -13 
C 365 0 646 0 813 0 
C 979 0 1267 0 1421 -13 
L 1421 153 
C 1011 153 986 178 986 428 
L 986 1658 
C 986 2247 1344 2688 1792 2688 
C 2266 2688 2317 2266 2317 1958 
L 2317 428 
C 2317 184 2291 153 1882 153 
L 1882 -13 
C 2035 0 2317 0 2483 0 
C 2650 0 2938 0 3091 -13 
L 3091 153 
C 2682 153 2656 178 2656 428 
L 2656 1658 
C 2656 2247 3014 2688 3462 2688 
C 3936 2688 3987 2266 3987 1958 
L 3987 428 
C 3987 184 3962 153 3552 153 
L 3552 -13 
C 3706 0 3987 0 4154 0 
C 4320 0 4608 0 4762 -13 
L 4762 153 
C 4352 153 4326 178 4326 428 
L 4326 1933 
z
" transform="scale(0.015625)"/>
       <path id="CMR17-69" d="M 992 3909 
C 992 4049 877 4170 730 4170 
C 589 4170 467 4056 467 3909 
C 467 3769 582 3648 730 3648 
C 870 3648 992 3763 992 3909 
z
M 243 2706 
L 243 2541 
C 602 2541 653 2502 653 2197 
L 653 427 
C 653 184 627 153 218 153 
L 218 -13 
C 371 0 646 0 806 0 
C 960 0 1222 0 1370 -13 
L 1370 153 
C 992 153 979 191 979 420 
L 979 2776 
L 243 2706 
z
" transform="scale(0.015625)"/>
       <path id="CMR17-6e" d="M 2656 1933 
C 2656 2259 2592 2790 1837 2790 
C 1331 2790 1069 2400 973 2144 
L 966 2144 
L 966 2790 
L 211 2720 
L 211 2554 
C 589 2554 646 2515 646 2208 
L 646 428 
C 646 184 621 153 211 153 
L 211 -13 
C 365 0 646 0 813 0 
C 979 0 1267 0 1421 -13 
L 1421 153 
C 1011 153 986 178 986 428 
L 986 1658 
C 986 2247 1344 2688 1792 2688 
C 2266 2688 2317 2266 2317 1958 
L 2317 428 
C 2317 184 2291 153 1882 153 
L 1882 -13 
C 2035 0 2317 0 2483 0 
C 2650 0 2938 0 3091 -13 
L 3091 153 
C 2682 153 2656 178 2656 428 
L 2656 1933 
z
" transform="scale(0.015625)"/>
      </defs>
      <use xlink:href="#CMSS17-4d" transform="scale(0.996264)"/>
      <use xlink:href="#CMSS17-69" transform="translate(81.67603 0) scale(0.996264)"/>
      <use xlink:href="#CMSS17-6e" transform="translate(103.856753 0) scale(0.996264)"/>
      <use xlink:href="#CMSS17-69" transform="translate(152.061696 0) scale(0.996264)"/>
      <use xlink:href="#CMSS17-6d" transform="translate(174.242419 0) scale(0.996264)"/>
      <use xlink:href="#CMSS17-75" transform="translate(248.471674 0) scale(0.996264)"/>
      <use xlink:href="#CMSS17-6d" transform="translate(296.676617 0) scale(0.996264)"/>
      <use xlink:href="#CMSS17-43" transform="translate(402.134984 0) scale(0.996264)"/>
      <use xlink:href="#CMSS17-6f" transform="translate(461.990755 0) scale(0.996264)"/>
      <use xlink:href="#CMSS17-6e" transform="translate(508.834379 0) scale(0.996264)"/>
      <use xlink:href="#CMSS17-c" transform="translate(557.039322 0) scale(0.996264)"/>
      <use xlink:href="#CMSS17-64" transform="translate(607.166059 0) scale(0.996264)"/>
      <use xlink:href="#CMSS17-65" transform="translate(655.371003 0) scale(0.996264)"/>
      <use xlink:href="#CMSS17-6e" transform="translate(697.009825 0) scale(0.996264)"/>
      <use xlink:href="#CMSS17-63" transform="translate(745.214768 0) scale(0.996264)"/>
      <use xlink:href="#CMSS17-65" transform="translate(786.85359 0) scale(0.996264)"/>
      <use xlink:href="#CMMI12-12" transform="translate(859.721525 0) scale(0.996264)"/>
      <use xlink:href="#CMR17-6d" transform="translate(905.181315 -14.943915) scale(0.697382)"/>
      <use xlink:href="#CMR17-69" transform="translate(959.024781 -14.943915) scale(0.697382)"/>
      <use xlink:href="#CMR17-6e" transform="translate(976.43444 -14.943915) scale(0.697382)"/>
     </g>
    </g>
    <g id="line2d_16">
     <path d="M 181.50299 109.586389 
L 203.50299 109.586389 
L 225.50299 109.586389 
" style="fill: none; stroke: #4c72b0; stroke-width: 1.5; stroke-linecap: round"/>
    </g>
    <g id="text_17">
     <!-- 0.1 -->
     <g style="fill: #262626" transform="translate(243.10299 117.286389) scale(0.22 -0.22)">
      <defs>
       <path id="CMSS17-30" d="M 2758 2044 
C 2758 2405 2752 3077 2490 3596 
C 2227 4096 1805 4229 1504 4229 
C 1069 4229 698 3975 506 3570 
C 301 3146 243 2709 243 2044 
C 243 1589 262 1031 493 543 
C 755 5 1197 -128 1498 -128 
C 1894 -128 2278 81 2496 518 
C 2720 974 2758 1474 2758 2044 
z
M 1498 261 
C 1011 261 864 811 819 995 
C 742 1310 730 1614 730 2114 
C 730 2506 730 2948 851 3297 
C 998 3701 1254 3840 1498 3840 
C 1971 3840 2125 3372 2176 3208 
C 2272 2873 2272 2481 2272 2114 
C 2272 1526 2272 261 1498 261 
z
" transform="scale(0.015625)"/>
       <path id="CMSS17-2e" d="M 1088 510 
L 576 510 
L 576 0 
L 1088 0 
L 1088 510 
z
" transform="scale(0.015625)"/>
       <path id="CMSS17-31" d="M 1818 4288 
L 1696 4288 
C 1350 3940 947 3890 538 3890 
L 538 3520 
C 723 3520 1024 3520 1325 3667 
L 1325 369 
L 570 369 
L 570 0 
L 2573 0 
L 2573 369 
L 1818 369 
L 1818 4288 
z
" transform="scale(0.015625)"/>
      </defs>
      <use xlink:href="#CMSS17-30" transform="scale(0.996264)"/>
      <use xlink:href="#CMSS17-2e" transform="translate(46.843624 0) scale(0.996264)"/>
      <use xlink:href="#CMSS17-31" transform="translate(72.867828 0) scale(0.996264)"/>
     </g>
    </g>
    <g id="line2d_17">
     <path d="M 181.50299 140.249577 
L 203.50299 140.249577 
L 225.50299 140.249577 
" style="fill: none; stroke: #dd8452; stroke-width: 1.5; stroke-linecap: round"/>
    </g>
    <g id="text_18">
     <!-- 0.2 -->
     <g style="fill: #262626" transform="translate(243.10299 147.949577) scale(0.22 -0.22)">
      <defs>
       <path id="CMSS17-32" d="M 1651 1357 
C 1830 1541 2099 1764 2285 1987 
C 2464 2204 2701 2511 2701 2957 
C 2701 3657 2227 4288 1421 4288 
C 787 4288 422 3893 250 3274 
L 499 2929 
C 640 3510 838 3880 1338 3880 
C 1888 3880 2195 3433 2195 2942 
C 2195 2355 1747 1901 1408 1563 
C 1030 1187 659 804 301 408 
L 301 0 
L 2701 0 
L 2701 433 
L 1613 433 
C 1536 433 1459 433 1382 433 
L 742 433 
L 742 439 
L 1651 1357 
z
" transform="scale(0.015625)"/>
      </defs>
      <use xlink:href="#CMSS17-30" transform="scale(0.996264)"/>
      <use xlink:href="#CMSS17-2e" transform="translate(46.843624 0) scale(0.996264)"/>
      <use xlink:href="#CMSS17-32" transform="translate(72.867828 0) scale(0.996264)"/>
     </g>
    </g>
    <g id="line2d_18">
     <path d="M 181.50299 170.912765 
L 203.50299 170.912765 
L 225.50299 170.912765 
" style="fill: none; stroke: #55a868; stroke-width: 1.5; stroke-linecap: round"/>
    </g>
    <g id="text_19">
     <!-- 0.3 -->
     <g style="fill: #262626" transform="translate(243.10299 178.612765) scale(0.22 -0.22)">
      <defs>
       <path id="CMSS17-33" d="M 1005 2025 
L 1440 2025 
C 2042 2025 2214 1507 2214 1146 
C 2214 653 1933 267 1472 267 
C 1114 267 608 444 320 912 
C 275 691 275 678 250 526 
C 550 88 1037 -128 1485 -128 
C 2214 -128 2752 473 2752 1138 
C 2752 1638 2400 2057 1920 2215 
C 2304 2424 2586 2816 2586 3273 
C 2586 3805 2093 4229 1491 4229 
C 941 4229 512 3892 333 3530 
C 378 3468 493 3284 550 3189 
C 691 3562 1056 3840 1485 3840 
C 1843 3840 2080 3607 2080 3271 
C 2080 2923 1856 2543 1478 2455 
C 1453 2455 1056 2417 1005 2411 
L 1005 2025 
z
" transform="scale(0.015625)"/>
      </defs>
      <use xlink:href="#CMSS17-30" transform="scale(0.996264)"/>
      <use xlink:href="#CMSS17-2e" transform="translate(46.843624 0) scale(0.996264)"/>
      <use xlink:href="#CMSS17-33" transform="translate(72.867828 0) scale(0.996264)"/>
     </g>
    </g>
   </g>
  </g>
 </g>
 <defs>
  <clipPath id="pca49ab709a">
   <rect x="83.392615" y="49.831226" width="610.687385" height="446.00973"/>
  </clipPath>
 </defs>
</svg>
