<?xml version="1.0" encoding="utf-8" standalone="no"?>
<!DOCTYPE svg PUBLIC "-//W3C//DTD SVG 1.1//EN"
  "http://www.w3.org/Graphics/SVG/1.1/DTD/svg11.dtd">
<svg xmlns:xlink="http://www.w3.org/1999/xlink" width="720pt" height="576pt" viewBox="0 0 720 576" xmlns="http://www.w3.org/2000/svg" version="1.1">
 <metadata>
  <rdf:RDF xmlns:dc="http://purl.org/dc/elements/1.1/" xmlns:cc="http://creativecommons.org/ns#" xmlns:rdf="http://www.w3.org/1999/02/22-rdf-syntax-ns#">
   <cc:Work>
    <dc:type rdf:resource="http://purl.org/dc/dcmitype/StillImage"/>
    <dc:date>2025-04-24T19:33:24.639923</dc:date>
    <dc:format>image/svg+xml</dc:format>
    <dc:creator>
     <cc:Agent>
      <dc:title>Matplotlib v3.9.2, https://matplotlib.org/</dc:title>
     </cc:Agent>
    </dc:creator>
   </cc:Work>
  </rdf:RDF>
 </metadata>
 <defs>
  <style type="text/css">*{stroke-linejoin: round; stroke-linecap: butt}</style>
 </defs>
 <g id="figure_1">
  <g id="patch_1">
   <path d="M 0 576 
L 720 576 
L 720 0 
L 0 0 
z
" style="fill: #ffffff"/>
  </g>
  <g id="axes_1">
   <g id="patch_2">
    <path d="M 83.392615 495.840956 
L 694.08 495.840956 
L 694.08 49.831226 
L 83.392615 49.831226 
z
" style="fill: #ffffff"/>
   </g>
   <g id="matplotlib.axis_1">
    <g id="xtick_1">
     <g id="line2d_1">
      <path d="M 111.151132 495.840956 
L 111.151132 49.831226 
" clip-path="url(#pe81b10f849)" style="fill: none; stroke: #cccccc; stroke-linecap: round"/>
     </g>
     <g id="text_1">
      <!-- $\mathdefault{0}$ -->
      <g style="fill: #262626" transform="translate(106.12518 520.56165) scale(0.22 -0.22)">
       <defs>
        <path id="CMR17-30" d="M 2688 2025 
C 2688 2416 2682 3080 2413 3591 
C 2176 4039 1798 4198 1466 4198 
C 1158 4198 768 4058 525 3597 
C 269 3118 243 2524 243 2025 
C 243 1661 250 1106 448 619 
C 723 -39 1216 -128 1466 -128 
C 1760 -128 2208 -7 2470 600 
C 2662 1042 2688 1559 2688 2025 
z
M 1466 -26 
C 1056 -26 813 325 723 812 
C 653 1188 653 1738 653 2096 
C 653 2588 653 2997 736 3387 
C 858 3929 1216 4096 1466 4096 
C 1728 4096 2067 3923 2189 3400 
C 2272 3036 2278 2607 2278 2096 
C 2278 1680 2278 1169 2202 792 
C 2067 95 1690 -26 1466 -26 
z
" transform="scale(0.015625)"/>
       </defs>
       <use xlink:href="#CMR17-30" transform="scale(0.996264)"/>
      </g>
     </g>
    </g>
    <g id="xtick_2">
     <g id="line2d_2">
      <path d="M 223.306759 495.840956 
L 223.306759 49.831226 
" clip-path="url(#pe81b10f849)" style="fill: none; stroke: #cccccc; stroke-linecap: round"/>
     </g>
     <g id="text_2">
      <!-- $\mathdefault{200}$ -->
      <g style="fill: #262626" transform="translate(208.228901 520.56165) scale(0.22 -0.22)">
       <defs>
        <path id="CMR17-32" d="M 2669 989 
L 2554 989 
C 2490 536 2438 459 2413 420 
C 2381 369 1920 369 1830 369 
L 602 369 
C 832 619 1280 1072 1824 1597 
C 2214 1967 2669 2402 2669 3035 
C 2669 3790 2067 4224 1395 4224 
C 691 4224 262 3604 262 3030 
C 262 2780 448 2748 525 2748 
C 589 2748 781 2787 781 3010 
C 781 3207 614 3264 525 3264 
C 486 3264 448 3258 422 3245 
C 544 3790 915 4058 1306 4058 
C 1862 4058 2227 3617 2227 3035 
C 2227 2479 1901 2000 1536 1584 
L 262 146 
L 262 0 
L 2515 0 
L 2669 989 
z
" transform="scale(0.015625)"/>
       </defs>
       <use xlink:href="#CMR17-32" transform="scale(0.996264)"/>
       <use xlink:href="#CMR17-30" transform="translate(45.690477 0) scale(0.996264)"/>
       <use xlink:href="#CMR17-30" transform="translate(91.380954 0) scale(0.996264)"/>
      </g>
     </g>
    </g>
    <g id="xtick_3">
     <g id="line2d_3">
      <path d="M 335.462385 495.840956 
L 335.462385 49.831226 
" clip-path="url(#pe81b10f849)" style="fill: none; stroke: #cccccc; stroke-linecap: round"/>
     </g>
     <g id="text_3">
      <!-- $\mathdefault{400}$ -->
      <g style="fill: #262626" transform="translate(320.384528 520.56165) scale(0.22 -0.22)">
       <defs>
        <path id="CMR17-34" d="M 2150 4122 
C 2150 4256 2144 4256 2029 4256 
L 128 1254 
L 128 1088 
L 1779 1088 
L 1779 457 
C 1779 224 1766 160 1318 160 
L 1197 160 
L 1197 0 
C 1402 0 1747 0 1965 0 
C 2182 0 2528 0 2733 0 
L 2733 160 
L 2611 160 
C 2163 160 2150 224 2150 457 
L 2150 1088 
L 2803 1088 
L 2803 1254 
L 2150 1254 
L 2150 4122 
z
M 1798 3703 
L 1798 1254 
L 256 1254 
L 1798 3703 
z
" transform="scale(0.015625)"/>
       </defs>
       <use xlink:href="#CMR17-34" transform="scale(0.996264)"/>
       <use xlink:href="#CMR17-30" transform="translate(45.690477 0) scale(0.996264)"/>
       <use xlink:href="#CMR17-30" transform="translate(91.380954 0) scale(0.996264)"/>
      </g>
     </g>
    </g>
    <g id="xtick_4">
     <g id="line2d_4">
      <path d="M 447.618011 495.840956 
L 447.618011 49.831226 
" clip-path="url(#pe81b10f849)" style="fill: none; stroke: #cccccc; stroke-linecap: round"/>
     </g>
     <g id="text_4">
      <!-- $\mathdefault{600}$ -->
      <g style="fill: #262626" transform="translate(432.540154 520.56165) scale(0.22 -0.22)">
       <defs>
        <path id="CMR17-36" d="M 678 2176 
C 678 3690 1395 4032 1811 4032 
C 1946 4032 2272 4009 2400 3776 
C 2298 3776 2106 3776 2106 3553 
C 2106 3381 2246 3323 2336 3323 
C 2394 3323 2566 3348 2566 3560 
C 2566 3954 2246 4179 1805 4179 
C 1043 4179 243 3390 243 1984 
C 243 253 966 -128 1478 -128 
C 2099 -128 2688 427 2688 1283 
C 2688 2081 2170 2662 1517 2662 
C 1126 2662 838 2407 678 1960 
L 678 2176 
z
M 1478 25 
C 691 25 691 1200 691 1436 
C 691 1896 909 2560 1504 2560 
C 1613 2560 1926 2560 2138 2120 
C 2253 1870 2253 1609 2253 1289 
C 2253 944 2253 690 2118 434 
C 1978 171 1773 25 1478 25 
z
" transform="scale(0.015625)"/>
       </defs>
       <use xlink:href="#CMR17-36" transform="scale(0.996264)"/>
       <use xlink:href="#CMR17-30" transform="translate(45.690477 0) scale(0.996264)"/>
       <use xlink:href="#CMR17-30" transform="translate(91.380954 0) scale(0.996264)"/>
      </g>
     </g>
    </g>
    <g id="xtick_5">
     <g id="line2d_5">
      <path d="M 559.773638 495.840956 
L 559.773638 49.831226 
" clip-path="url(#pe81b10f849)" style="fill: none; stroke: #cccccc; stroke-linecap: round"/>
     </g>
     <g id="text_5">
      <!-- $\mathdefault{800}$ -->
      <g style="fill: #262626" transform="translate(544.69578 520.56165) scale(0.22 -0.22)">
       <defs>
        <path id="CMR17-38" d="M 1741 2264 
C 2144 2467 2554 2773 2554 3263 
C 2554 3841 1990 4179 1472 4179 
C 890 4179 378 3759 378 3180 
C 378 3021 416 2747 666 2505 
C 730 2442 998 2251 1171 2130 
C 883 1983 211 1634 211 934 
C 211 279 838 -128 1459 -128 
C 2144 -128 2720 362 2720 1010 
C 2720 1590 2330 1857 2074 2029 
L 1741 2264 
z
M 902 2822 
C 851 2854 595 3051 595 3351 
C 595 3739 998 4032 1459 4032 
C 1965 4032 2336 3676 2336 3262 
C 2336 2669 1670 2331 1638 2331 
C 1632 2331 1626 2331 1574 2370 
L 902 2822 
z
M 2080 1519 
C 2176 1449 2483 1240 2483 851 
C 2483 381 2010 25 1472 25 
C 890 25 448 438 448 940 
C 448 1443 838 1862 1280 2060 
L 2080 1519 
z
" transform="scale(0.015625)"/>
       </defs>
       <use xlink:href="#CMR17-38" transform="scale(0.996264)"/>
       <use xlink:href="#CMR17-30" transform="translate(45.690477 0) scale(0.996264)"/>
       <use xlink:href="#CMR17-30" transform="translate(91.380954 0) scale(0.996264)"/>
      </g>
     </g>
    </g>
    <g id="xtick_6">
     <g id="line2d_6">
      <path d="M 671.929264 495.840956 
L 671.929264 49.831226 
" clip-path="url(#pe81b10f849)" style="fill: none; stroke: #cccccc; stroke-linecap: round"/>
     </g>
     <g id="text_6">
      <!-- $\mathdefault{1000}$ -->
      <g style="fill: #262626" transform="translate(651.825454 520.56165) scale(0.22 -0.22)">
       <defs>
        <path id="CMR17-31" d="M 1702 4058 
C 1702 4192 1696 4192 1606 4192 
C 1357 3916 979 3827 621 3827 
C 602 3827 570 3827 563 3808 
C 557 3795 557 3782 557 3648 
C 755 3648 1088 3686 1344 3839 
L 1344 461 
C 1344 236 1331 160 781 160 
L 589 160 
L 589 0 
C 896 0 1216 0 1523 0 
C 1830 0 2150 0 2458 0 
L 2458 160 
L 2266 160 
C 1715 160 1702 230 1702 458 
L 1702 4058 
z
" transform="scale(0.015625)"/>
       </defs>
       <use xlink:href="#CMR17-31" transform="scale(0.996264)"/>
       <use xlink:href="#CMR17-30" transform="translate(45.690477 0) scale(0.996264)"/>
       <use xlink:href="#CMR17-30" transform="translate(91.380954 0) scale(0.996264)"/>
       <use xlink:href="#CMR17-30" transform="translate(137.071431 0) scale(0.996264)"/>
      </g>
     </g>
    </g>
    <g id="text_7">
     <!-- Step -->
     <g style="fill: #262626" transform="translate(367.649451 545.429243) scale(0.24 -0.24)">
      <defs>
       <path id="CMSS17-53" d="M 2797 4169 
C 2515 4334 2208 4480 1690 4480 
C 864 4480 333 3879 333 3266 
C 333 3025 403 2753 653 2475 
C 902 2196 1184 2121 1542 2033 
C 1690 1994 1939 1924 1984 1906 
C 2342 1767 2515 1444 2515 1140 
C 2515 742 2202 318 1645 318 
C 1453 318 890 318 358 819 
L 269 318 
C 794 -64 1363 -128 1651 -128 
C 2438 -128 3002 488 3002 1186 
C 3002 1440 2925 1763 2656 2061 
C 2394 2347 2163 2410 1638 2549 
C 1338 2626 1146 2677 986 2873 
C 877 3013 819 3146 819 3317 
C 819 3673 1126 4060 1690 4060 
C 1971 4060 2336 4002 2707 3660 
L 2797 4169 
z
" transform="scale(0.015625)"/>
       <path id="CMSS17-74" d="M 1069 2368 
L 1901 2368 
L 1901 2737 
L 1069 2737 
L 1069 3520 
L 614 3520 
L 614 2737 
L 109 2737 
L 109 2368 
L 602 2368 
L 602 749 
C 602 384 685 -64 1107 -64 
C 1427 -64 1722 25 2003 172 
L 1901 548 
C 1747 414 1562 337 1363 337 
C 1082 337 1069 696 1069 856 
L 1069 2368 
z
" transform="scale(0.015625)"/>
       <path id="CMSS17-65" d="M 2502 1377 
C 2502 1590 2490 2003 2285 2345 
C 2061 2713 1696 2816 1421 2816 
C 755 2816 192 2188 192 1375 
C 192 582 774 -64 1510 -64 
C 1798 -64 2150 19 2470 248 
C 2470 274 2458 414 2451 420 
C 2451 433 2432 630 2432 656 
C 2125 407 1773 325 1517 325 
C 1107 325 666 667 646 1377 
L 2502 1377 
z
M 698 1728 
C 781 2084 1062 2421 1421 2421 
C 1517 2421 1965 2421 2080 1728 
L 698 1728 
z
" transform="scale(0.015625)"/>
       <path id="CMSS17-70" d="M 966 333 
C 1178 129 1466 -5 1773 -5 
C 2368 -5 2880 603 2880 1412 
C 2880 2159 2496 2816 1946 2816 
C 1626 2816 1242 2702 954 2472 
L 954 2765 
L 480 2765 
L 480 -1216 
L 966 -1216 
L 966 333 
z
M 966 2100 
C 1018 2176 1235 2415 1587 2415 
C 2035 2415 2394 1960 2394 1412 
C 2394 787 1958 384 1530 384 
C 1402 384 1267 415 1139 523 
C 966 674 966 768 966 857 
L 966 2100 
z
" transform="scale(0.015625)"/>
      </defs>
      <use xlink:href="#CMSS17-53" transform="scale(0.996264)"/>
      <use xlink:href="#CMSS17-74" transform="translate(52.048516 0) scale(0.996264)"/>
      <use xlink:href="#CMSS17-65" transform="translate(85.880083 0) scale(0.996264)"/>
      <use xlink:href="#CMSS17-70" transform="translate(127.518905 0) scale(0.996264)"/>
     </g>
    </g>
   </g>
   <g id="matplotlib.axis_2">
    <g id="ytick_1">
     <g id="line2d_7">
      <path d="M 83.392615 495.037283 
L 694.08 495.037283 
" clip-path="url(#pe81b10f849)" style="fill: none; stroke: #cccccc; stroke-linecap: round"/>
     </g>
     <g id="text_8">
      <!-- $\mathdefault{10}$ -->
      <g style="fill: #262626" transform="translate(53.788805 502.64763) scale(0.22 -0.22)">
       <use xlink:href="#CMR17-31" transform="scale(0.996264)"/>
       <use xlink:href="#CMR17-30" transform="translate(45.690477 0) scale(0.996264)"/>
      </g>
     </g>
    </g>
    <g id="ytick_2">
     <g id="line2d_8">
      <path d="M 83.392615 411.080851 
L 694.08 411.080851 
" clip-path="url(#pe81b10f849)" style="fill: none; stroke: #cccccc; stroke-linecap: round"/>
     </g>
     <g id="text_9">
      <!-- $\mathdefault{12}$ -->
      <g style="fill: #262626" transform="translate(53.788805 418.691198) scale(0.22 -0.22)">
       <use xlink:href="#CMR17-31" transform="scale(0.996264)"/>
       <use xlink:href="#CMR17-32" transform="translate(45.690477 0) scale(0.996264)"/>
      </g>
     </g>
    </g>
    <g id="ytick_3">
     <g id="line2d_9">
      <path d="M 83.392615 327.124419 
L 694.08 327.124419 
" clip-path="url(#pe81b10f849)" style="fill: none; stroke: #cccccc; stroke-linecap: round"/>
     </g>
     <g id="text_10">
      <!-- $\mathdefault{14}$ -->
      <g style="fill: #262626" transform="translate(53.788805 334.734766) scale(0.22 -0.22)">
       <use xlink:href="#CMR17-31" transform="scale(0.996264)"/>
       <use xlink:href="#CMR17-34" transform="translate(45.690477 0) scale(0.996264)"/>
      </g>
     </g>
    </g>
    <g id="ytick_4">
     <g id="line2d_10">
      <path d="M 83.392615 243.167987 
L 694.08 243.167987 
" clip-path="url(#pe81b10f849)" style="fill: none; stroke: #cccccc; stroke-linecap: round"/>
     </g>
     <g id="text_11">
      <!-- $\mathdefault{16}$ -->
      <g style="fill: #262626" transform="translate(53.788805 250.778334) scale(0.22 -0.22)">
       <use xlink:href="#CMR17-31" transform="scale(0.996264)"/>
       <use xlink:href="#CMR17-36" transform="translate(45.690477 0) scale(0.996264)"/>
      </g>
     </g>
    </g>
    <g id="ytick_5">
     <g id="line2d_11">
      <path d="M 83.392615 159.211555 
L 694.08 159.211555 
" clip-path="url(#pe81b10f849)" style="fill: none; stroke: #cccccc; stroke-linecap: round"/>
     </g>
     <g id="text_12">
      <!-- $\mathdefault{18}$ -->
      <g style="fill: #262626" transform="translate(53.788805 166.821902) scale(0.22 -0.22)">
       <use xlink:href="#CMR17-31" transform="scale(0.996264)"/>
       <use xlink:href="#CMR17-38" transform="translate(45.690477 0) scale(0.996264)"/>
      </g>
     </g>
    </g>
    <g id="ytick_6">
     <g id="line2d_12">
      <path d="M 83.392615 75.255123 
L 694.08 75.255123 
" clip-path="url(#pe81b10f849)" style="fill: none; stroke: #cccccc; stroke-linecap: round"/>
     </g>
     <g id="text_13">
      <!-- $\mathdefault{20}$ -->
      <g style="fill: #262626" transform="translate(53.788805 82.86547) scale(0.22 -0.22)">
       <use xlink:href="#CMR17-32" transform="scale(0.996264)"/>
       <use xlink:href="#CMR17-30" transform="translate(45.690477 0) scale(0.996264)"/>
      </g>
     </g>
    </g>
    <g id="text_14">
     <!-- Peak Signal-to-Noise Ratio (PSNR), dB -->
     <g style="fill: #262626" transform="translate(43.831226 460.306706) rotate(-90) scale(0.24 -0.24)">
      <defs>
       <path id="CMSS17-50" d="M 2106 1856 
C 2874 1856 3501 2453 3501 3158 
C 3501 3850 2899 4453 2067 4453 
L 570 4453 
L 570 0 
L 1107 0 
L 1107 1856 
L 2106 1856 
z
M 1926 4096 
C 2669 4096 2995 3627 2995 3157 
C 2995 2720 2694 2226 1926 2226 
L 1094 2226 
L 1094 4096 
L 1926 4096 
z
" transform="scale(0.015625)"/>
       <path id="CMSS17-61" d="M 2406 1791 
C 2406 2392 1978 2808 1402 2808 
C 1120 2808 813 2757 461 2553 
L 499 2135 
C 659 2248 934 2432 1395 2432 
C 1722 2432 1920 2180 1920 1782 
L 1920 1536 
C 896 1536 256 1238 256 726 
C 256 461 416 -64 947 -64 
C 1043 -64 1562 -64 1933 217 
L 1933 -19 
L 2406 -19 
L 2406 1791 
z
M 1920 816 
C 1920 701 1920 548 1728 434 
C 1562 325 1350 325 1261 325 
C 941 325 723 511 723 744 
C 723 1211 1722 1211 1920 1211 
L 1920 816 
z
" transform="scale(0.015625)"/>
       <path id="CMSS17-6b" d="M 1696 1688 
L 2688 2739 
L 2074 2739 
L 954 1554 
L 954 4416 
L 480 4416 
L 480 0 
L 947 0 
L 947 892 
L 1376 1344 
L 2278 0 
L 2822 0 
L 1696 1688 
z
" transform="scale(0.015625)"/>
       <path id="CMSS17-69" d="M 979 4183 
L 442 4183 
L 442 3648 
L 979 3648 
L 979 4183 
z
M 947 2739 
L 474 2739 
L 474 0 
L 947 0 
L 947 2739 
z
" transform="scale(0.015625)"/>
       <path id="CMSS17-67" d="M 2848 2808 
C 2483 2808 2170 2738 1914 2617 
C 1702 2777 1485 2808 1338 2808 
C 781 2808 358 2349 358 1814 
C 358 1468 550 1207 563 1195 
C 448 1035 384 863 384 672 
C 384 448 474 289 544 200 
C 211 -3 166 -314 166 -435 
C 166 -898 749 -1280 1498 -1280 
C 2253 -1280 2835 -898 2835 -428 
C 2835 448 1856 448 1587 448 
L 1069 448 
C 973 448 717 448 717 791 
C 717 921 774 1004 781 1010 
C 877 940 1075 832 1338 832 
C 1869 832 2310 1278 2310 1827 
C 2310 2132 2170 2355 2112 2432 
L 2131 2432 
C 2150 2432 2419 2432 2515 2432 
C 2720 2432 2739 2429 2918 2419 
L 2848 2808 
z
M 1338 1182 
C 1120 1182 813 1315 813 1823 
C 813 2375 1165 2464 1331 2464 
C 1549 2464 1856 2331 1856 1823 
C 1856 1271 1504 1182 1338 1182 
z
M 1581 -10 
C 1734 -10 2381 -10 2381 -442 
C 2381 -714 1984 -929 1504 -929 
C 1018 -929 621 -720 621 -435 
C 621 -403 621 -10 1062 -10 
L 1581 -10 
z
" transform="scale(0.015625)"/>
       <path id="CMSS17-6e" d="M 2618 1877 
C 2618 2283 2522 2816 1798 2816 
C 1389 2816 1120 2606 941 2389 
L 941 2758 
L 474 2758 
L 474 0 
L 960 0 
L 960 1559 
C 960 1964 1114 2428 1549 2428 
C 2112 2428 2131 2048 2131 1829 
L 2131 0 
L 2618 0 
L 2618 1877 
z
" transform="scale(0.015625)"/>
       <path id="CMSS17-6c" d="M 947 4416 
L 474 4416 
L 474 0 
L 947 0 
L 947 4416 
z
" transform="scale(0.015625)"/>
       <path id="CMSS17-2d" d="M 1664 1216 
L 1664 1585 
L 64 1585 
L 64 1216 
L 1664 1216 
z
" transform="scale(0.015625)"/>
       <path id="CMSS17-6f" d="M 2829 1356 
C 2829 2176 2221 2816 1504 2816 
C 768 2816 173 2157 173 1356 
C 173 544 787 -64 1498 -64 
C 2227 -64 2829 563 2829 1356 
z
M 1504 337 
C 1050 337 659 709 659 1408 
C 659 2151 1114 2427 1498 2427 
C 1914 2427 2342 2126 2342 1408 
C 2342 683 1926 337 1504 337 
z
" transform="scale(0.015625)"/>
       <path id="CMSS17-4e" d="M 1466 4180 
L 1350 4416 
L 563 4416 
L 563 0 
L 1062 0 
L 1062 3926 
L 1069 3932 
C 1114 3817 1139 3760 1402 3194 
L 2771 236 
L 2886 0 
L 3674 0 
L 3674 4416 
L 3174 4416 
L 3174 490 
L 3168 483 
C 3123 598 3098 655 2835 1221 
L 1466 4180 
z
" transform="scale(0.015625)"/>
       <path id="CMSS17-73" d="M 2061 2627 
C 1683 2807 1389 2807 1197 2807 
C 742 2807 198 2648 198 2003 
C 198 1359 902 1218 1094 1179 
C 1389 1122 1715 1058 1715 740 
C 1715 337 1254 337 1171 337 
C 915 337 563 407 243 638 
L 166 210 
C 531 0 883 -64 1178 -64 
C 1965 -64 2163 416 2163 781 
C 2163 1094 1984 1305 1862 1401 
C 1651 1568 1574 1587 1050 1696 
C 960 1709 646 1779 646 2066 
C 646 2432 1050 2432 1139 2432 
C 1555 2432 1811 2303 1984 2208 
L 2061 2627 
z
" transform="scale(0.015625)"/>
       <path id="CMSS17-52" d="M 2522 2109 
L 2534 2115 
C 3533 2459 3539 3147 3539 3268 
C 3539 3873 2925 4453 2003 4453 
L 570 4453 
L 570 32 
L 1094 32 
L 1094 2048 
L 2035 2048 
L 3168 32 
L 3706 32 
L 2522 2109 
z
M 1094 2437 
L 1094 4096 
L 1933 4096 
C 2746 4096 3034 3637 3034 3267 
C 3034 2922 2778 2437 1933 2437 
L 1094 2437 
z
" transform="scale(0.015625)"/>
       <path id="CMSS17-28" d="M 1613 4768 
C 1267 4417 474 3601 474 1588 
C 474 -433 1267 -1243 1613 -1600 
L 2003 -1600 
C 1216 -784 960 357 960 1581 
C 960 2798 1203 3946 2003 4768 
L 1613 4768 
z
" transform="scale(0.015625)"/>
       <path id="CMSS17-29" d="M 723 -1600 
C 1069 -1249 1862 -433 1862 1581 
C 1862 3601 1069 4411 723 4768 
L 333 4768 
C 1120 3952 1376 2811 1376 1588 
C 1376 370 1133 -778 333 -1600 
L 723 -1600 
z
" transform="scale(0.015625)"/>
       <path id="CMSS17-2c" d="M 1088 6 
L 1088 510 
L 576 510 
L 576 0 
L 736 0 
L 570 -800 
L 826 -800 
L 1088 6 
z
" transform="scale(0.015625)"/>
       <path id="CMSS17-64" d="M 2611 4416 
L 2138 4416 
L 2138 2438 
C 1939 2603 1613 2756 1254 2756 
C 672 2756 211 2131 211 1347 
C 211 562 666 -64 1235 -64 
C 1677 -64 1971 172 2125 306 
L 2125 -13 
L 2611 -13 
L 2611 4416 
z
M 2125 836 
C 2125 747 2125 653 1926 482 
C 1798 375 1645 325 1498 325 
C 1152 325 698 576 698 1340 
C 698 2134 1210 2368 1562 2368 
C 1798 2368 1990 2254 2125 2065 
L 2125 836 
z
" transform="scale(0.015625)"/>
       <path id="CMSS17-42" d="M 570 4416 
L 570 0 
L 2163 0 
C 3034 0 3667 574 3667 1200 
C 3667 1685 3251 2176 2502 2317 
C 3334 2558 3501 3040 3501 3313 
C 3501 3883 2874 4416 1997 4416 
L 570 4416 
z
M 1088 2496 
L 1088 4059 
L 1824 4059 
C 2483 4059 3002 3724 3002 3306 
C 3002 2926 2592 2496 1766 2496 
L 1088 2496 
z
M 1088 357 
L 1088 2107 
L 1939 2107 
C 2630 2107 3162 1679 3162 1206 
C 3162 772 2694 357 1984 357 
L 1088 357 
z
" transform="scale(0.015625)"/>
      </defs>
      <use xlink:href="#CMSS17-50" transform="scale(0.996264)"/>
      <use xlink:href="#CMSS17-65" transform="translate(57.133132 0) scale(0.996264)"/>
      <use xlink:href="#CMSS17-61" transform="translate(98.771954 0) scale(0.996264)"/>
      <use xlink:href="#CMSS17-6b" transform="translate(143.693875 0) scale(0.996264)"/>
      <use xlink:href="#CMSS17-53" transform="translate(220.525477 0) scale(0.996264)"/>
      <use xlink:href="#CMSS17-69" transform="translate(272.573993 0) scale(0.996264)"/>
      <use xlink:href="#CMSS17-67" transform="translate(294.754716 0) scale(0.996264)"/>
      <use xlink:href="#CMSS17-6e" transform="translate(341.59834 0) scale(0.996264)"/>
      <use xlink:href="#CMSS17-61" transform="translate(389.803283 0) scale(0.996264)"/>
      <use xlink:href="#CMSS17-6c" transform="translate(434.725203 0) scale(0.996264)"/>
      <use xlink:href="#CMSS17-2d" transform="translate(456.905927 0) scale(0.996264)"/>
      <use xlink:href="#CMSS17-74" transform="translate(488.135039 0) scale(0.996264)"/>
      <use xlink:href="#CMSS17-6f" transform="translate(521.966606 0) scale(0.996264)"/>
      <use xlink:href="#CMSS17-2d" transform="translate(568.810229 0) scale(0.996264)"/>
      <use xlink:href="#CMSS17-4e" transform="translate(600.039342 0) scale(0.996264)"/>
      <use xlink:href="#CMSS17-6f" transform="translate(666.100861 0) scale(0.996264)"/>
      <use xlink:href="#CMSS17-69" transform="translate(712.944485 0) scale(0.996264)"/>
      <use xlink:href="#CMSS17-73" transform="translate(735.125208 0) scale(0.996264)"/>
      <use xlink:href="#CMSS17-65" transform="translate(771.03875 0) scale(0.996264)"/>
      <use xlink:href="#CMSS17-52" transform="translate(843.906685 0) scale(0.996264)"/>
      <use xlink:href="#CMSS17-61" transform="translate(904.32284 0) scale(0.996264)"/>
      <use xlink:href="#CMSS17-74" transform="translate(949.24476 0) scale(0.996264)"/>
      <use xlink:href="#CMSS17-69" transform="translate(983.076327 0) scale(0.996264)"/>
      <use xlink:href="#CMSS17-6f" transform="translate(1005.25705 0) scale(0.996264)"/>
      <use xlink:href="#CMSS17-28" transform="translate(1083.329786 0) scale(0.996264)"/>
      <use xlink:href="#CMSS17-50" transform="translate(1119.7637 0) scale(0.996264)"/>
      <use xlink:href="#CMSS17-53" transform="translate(1179.499287 0) scale(0.996264)"/>
      <use xlink:href="#CMSS17-4e" transform="translate(1231.547803 0) scale(0.996264)"/>
      <use xlink:href="#CMSS17-52" transform="translate(1297.609322 0) scale(0.996264)"/>
      <use xlink:href="#CMSS17-29" transform="translate(1358.025477 0) scale(0.996264)"/>
      <use xlink:href="#CMSS17-2c" transform="translate(1394.459391 0) scale(0.996264)"/>
      <use xlink:href="#CMSS17-64" transform="translate(1451.712709 0) scale(0.996264)"/>
      <use xlink:href="#CMSS17-42" transform="translate(1499.917652 0) scale(0.996264)"/>
     </g>
    </g>
   </g>
   <g id="PolyCollection_1">
    <defs>
     <path id="mb21446f955" d="M 111.151132 -305.462216 
L 111.151132 -290.958742 
L 116.758914 -304.773773 
L 122.366695 -304.950082 
L 127.974476 -305.411842 
L 133.582258 -305.390853 
L 139.190039 -305.428633 
L 144.79782 -289.699396 
L 150.405602 -306.608221 
L 156.013383 -305.890394 
L 161.621164 -307.758424 
L 167.228946 -307.758424 
L 172.836727 -307.758424 
L 178.444508 -307.758424 
L 184.052289 -307.758424 
L 189.660071 -307.758424 
L 195.267852 -307.758424 
L 200.875633 -307.758424 
L 206.483415 -307.758424 
L 212.091196 -307.758424 
L 217.698977 -307.758424 
L 223.306759 -307.754227 
L 228.91454 -307.771018 
L 234.522321 -307.783611 
L 240.130103 -309.487927 
L 245.737884 -309.487927 
L 251.345665 -309.487927 
L 256.953447 -309.487927 
L 262.561228 -309.492125 
L 268.169009 -311.162858 
L 273.776791 -311.628816 
L 279.384572 -311.616222 
L 284.992353 -312.128357 
L 290.600134 -314.227267 
L 296.207916 -315.662922 
L 301.815697 -301.961233 
L 307.423478 -309.69362 
L 313.03126 -311.645607 
L 318.639041 -311.645607 
L 324.246822 -320.322504 
L 329.854604 -312.611106 
L 335.462385 -311.649805 
L 341.070166 -309.69362 
L 346.677948 -309.450147 
L 352.285729 -309.626455 
L 357.89351 -308.736517 
L 363.501292 -308.568604 
L 369.109073 -309.017771 
L 374.716854 -309.017771 
L 380.324635 -307.082575 
L 385.932417 -310.000061 
L 391.540198 -102.392596 
L 397.147979 -103.546997 
L 402.755761 -104.865113 
L 408.363542 -105.15896 
L 413.971323 -106.405713 
L 419.579105 -107.232684 
L 425.186886 -107.354421 
L 430.794667 -107.228486 
L 436.402449 -107.194904 
L 442.01023 -107.459367 
L 447.618011 -107.618884 
L 453.225793 -107.921127 
L 458.833574 -109.642234 
L 464.441355 -114.612455 
L 470.049137 -114.709005 
L 475.656918 -123.587397 
L 481.264699 -123.071065 
L 486.87248 -121.102287 
L 492.480262 -122.48337 
L 498.088043 -134.728416 
L 503.695824 -134.690635 
L 509.303606 -134.165908 
L 514.911387 -133.909841 
L 520.519168 -130.253538 
L 526.12695 -149.655869 
L 531.734731 -164.772225 
L 537.342512 -167.219555 
L 542.950294 -169.864183 
L 548.558075 -169.864183 
L 554.165856 -169.679478 
L 559.773638 -177.735098 
L 565.381419 -177.7309 
L 570.9892 -177.735098 
L 576.596981 -179.300886 
L 582.204763 -181.105949 
L 587.812544 -181.479555 
L 593.420325 -181.311642 
L 599.028107 -180.98841 
L 604.635888 -180.971619 
L 610.243669 -180.598012 
L 615.851451 -177.428657 
L 621.459232 -184.55236 
L 627.067013 -186.424589 
L 632.674795 -183.813544 
L 638.282576 -182.235163 
L 643.890357 -175.711748 
L 649.498139 -186.420391 
L 655.10592 -186.710041 
L 660.713701 -186.777206 
L 666.321482 -186.336435 
L 666.321482 -259.8235 
L 666.321482 -259.8235 
L 660.713701 -269.335763 
L 655.10592 -309.42496 
L 649.498139 -310.709493 
L 643.890357 -308.975793 
L 638.282576 -315.986155 
L 632.674795 -322.648098 
L 627.067013 -322.341657 
L 621.459232 -322.400426 
L 615.851451 -320.906002 
L 610.243669 -314.206278 
L 604.635888 -310.222546 
L 599.028107 -301.768133 
L 593.420325 -289.565066 
L 587.812544 -297.423388 
L 582.204763 -298.934603 
L 576.596981 -293.41027 
L 570.9892 -273.5042 
L 565.381419 -268.261121 
L 559.773638 -274.146467 
L 554.165856 -278.973962 
L 548.558075 -276.018695 
L 542.950294 -276.522434 
L 537.342512 -281.933426 
L 531.734731 -280.867179 
L 526.12695 -279.695987 
L 520.519168 -270.590912 
L 514.911387 -245.105937 
L 509.303606 -264.327762 
L 503.695824 -255.71803 
L 498.088043 -257.267026 
L 492.480262 -256.267945 
L 486.87248 -255.172313 
L 481.264699 -237.04612 
L 475.656918 -248.552349 
L 470.049137 -224.889228 
L 464.441355 -213.26546 
L 458.833574 -183.347586 
L 453.225793 -178.889499 
L 447.618011 -181.685248 
L 442.01023 -182.755693 
L 436.402449 -167.887009 
L 430.794667 -166.652849 
L 425.186886 -164.621103 
L 419.579105 -165.427085 
L 413.971323 -165.481657 
L 408.363542 -163.378548 
L 402.755761 -155.671348 
L 397.147979 -143.85448 
L 391.540198 -120.19136 
L 385.932417 -505.895604 
L 380.324635 -503.007503 
L 374.716854 -503.036887 
L 369.109073 -496.131471 
L 363.501292 -482.383605 
L 357.89351 -486.925648 
L 352.285729 -477.606484 
L 346.677948 -441.75289 
L 341.070166 -427.715374 
L 335.462385 -404.224365 
L 329.854604 -381.963317 
L 324.246822 -402.150641 
L 318.639041 -407.994009 
L 313.03126 -405.026149 
L 307.423478 -425.734003 
L 301.815697 -425.750794 
L 296.207916 -424.369711 
L 290.600134 -423.719048 
L 284.992353 -423.903752 
L 279.384572 -409.098036 
L 273.776791 -407.225807 
L 268.169009 -406.084 
L 262.561228 -405.382964 
L 256.953447 -417.808516 
L 251.345665 -415.163888 
L 245.737884 -416.347674 
L 240.130103 -414.781886 
L 234.522321 -386.232501 
L 228.91454 -386.077182 
L 223.306759 -379.003853 
L 217.698977 -377.664748 
L 212.091196 -377.610176 
L 206.483415 -376.913337 
L 200.875633 -376.913337 
L 195.267852 -374.831218 
L 189.660071 -372.224371 
L 184.052289 -355.663965 
L 178.444508 -345.45906 
L 172.836727 -345.068663 
L 167.228946 -340.249564 
L 161.621164 -342.927774 
L 156.013383 -338.788722 
L 150.405602 -342.466013 
L 144.79782 -316.762752 
L 139.190039 -315.923187 
L 133.582258 -313.731925 
L 127.974476 -313.731925 
L 122.366695 -312.896558 
L 116.758914 -309.55929 
L 111.151132 -305.462216 
z
" style="stroke: #ffffff; stroke-opacity: 0.2"/>
    </defs>
    <g clip-path="url(#pe81b10f849)">
     <use xlink:href="#mb21446f955" x="0" y="576" style="fill: #4c72b0; fill-opacity: 0.2; stroke: #ffffff; stroke-opacity: 0.2"/>
    </g>
   </g>
   <g id="PolyCollection_2">
    <defs>
     <path id="mf7335d15be" d="M 111.151132 -309.236058 
L 111.151132 -292.75541 
L 116.758914 -293.385083 
L 122.366695 -301.667385 
L 127.974476 -309.248651 
L 133.582258 -309.370388 
L 139.190039 -310.415645 
L 144.79782 -301.957035 
L 150.405602 -303.434668 
L 156.013383 -311.586838 
L 161.621164 -311.674992 
L 167.228946 -298.972384 
L 172.836727 -310.894197 
L 178.444508 -310.730482 
L 184.052289 -310.755669 
L 189.660071 -310.96556 
L 195.267852 -310.986549 
L 200.875633 -310.827032 
L 206.483415 -310.44503 
L 212.091196 -310.889999 
L 217.698977 -310.889999 
L 223.306759 -310.889999 
L 228.91454 -310.889999 
L 234.522321 -310.906791 
L 240.130103 -310.793449 
L 245.737884 -310.814439 
L 251.345665 -310.722086 
L 256.953447 -310.856417 
L 262.561228 -310.848021 
L 268.169009 -310.860615 
L 273.776791 -310.818636 
L 279.384572 -309.265442 
L 284.992353 -308.97999 
L 290.600134 -308.908628 
L 296.207916 -309.702016 
L 301.815697 -310.835428 
L 307.423478 -311.108286 
L 313.03126 -310.793449 
L 318.639041 -314.533708 
L 324.246822 -366.813379 
L 329.854604 -360.067479 
L 335.462385 -366.632872 
L 341.070166 -364.294686 
L 346.677948 -363.690199 
L 352.285729 -366.582499 
L 357.89351 -364.735457 
L 363.501292 -363.492902 
L 369.109073 -336.005566 
L 374.716854 -331.652425 
L 380.324635 -320.074833 
L 385.932417 -319.90692 
L 391.540198 -100.432213 
L 397.147979 -100.872985 
L 402.755761 -102.80818 
L 408.363542 -103.870229 
L 413.971323 -105.033026 
L 419.579105 -104.953267 
L 425.186886 -106.821298 
L 430.794667 -106.728946 
L 436.402449 -109.26443 
L 442.01023 -113.092843 
L 447.618011 -114.633444 
L 453.225793 -118.084053 
L 458.833574 -118.529022 
L 464.441355 -107.921127 
L 470.049137 -125.619143 
L 475.656918 -123.675552 
L 481.264699 -123.637771 
L 486.87248 -125.51 
L 492.480262 -125.438637 
L 498.088043 -126.152266 
L 503.695824 -126.933061 
L 509.303606 -121.69418 
L 514.911387 -122.21471 
L 520.519168 -118.033679 
L 526.12695 -118.113438 
L 531.734731 -118.734715 
L 537.342512 -118.755705 
L 542.950294 -117.32005 
L 548.558075 -121.03932 
L 554.165856 -122.697459 
L 559.773638 -129.69103 
L 565.381419 -130.711101 
L 570.9892 -129.665843 
L 576.596981 -127.827197 
L 582.204763 -127.663482 
L 587.812544 -121.622817 
L 593.420325 -121.761345 
L 599.028107 -121.748751 
L 604.635888 -127.684471 
L 610.243669 -130.169582 
L 615.851451 -130.278725 
L 621.459232 -124.473138 
L 627.067013 -121.517871 
L 632.674795 -119.725401 
L 638.282576 -119.507115 
L 643.890357 -128.855663 
L 649.498139 -133.028298 
L 655.10592 -133.028298 
L 660.713701 -132.243305 
L 666.321482 -132.453196 
L 666.321482 -188.275828 
L 666.321482 -188.275828 
L 660.713701 -189.052425 
L 655.10592 -189.367262 
L 649.498139 -190.139661 
L 643.890357 -190.895269 
L 638.282576 -191.189116 
L 632.674795 -195.227421 
L 627.067013 -198.463941 
L 621.459232 -210.175863 
L 615.851451 -210.322787 
L 610.243669 -204.454233 
L 604.635888 -205.973844 
L 599.028107 -202.712137 
L 593.420325 -202.611389 
L 587.812544 -202.770906 
L 582.204763 -202.661763 
L 576.596981 -201.662681 
L 570.9892 -196.843582 
L 565.381419 -192.465254 
L 559.773638 -189.631725 
L 554.165856 -176.954303 
L 548.558075 -183.523894 
L 542.950294 -203.425766 
L 537.342512 -201.620703 
L 531.734731 -201.095975 
L 526.12695 -196.919143 
L 520.519168 -192.595387 
L 514.911387 -193.279631 
L 509.303606 -193.115916 
L 503.695824 -204.252737 
L 498.088043 -202.279761 
L 492.480262 -196.302063 
L 486.87248 -189.17836 
L 481.264699 -191.604701 
L 475.656918 -192.729717 
L 470.049137 -176.408586 
L 464.441355 -174.842799 
L 458.833574 -169.40662 
L 453.225793 -168.0969 
L 447.618011 -174.788227 
L 442.01023 -172.911801 
L 436.402449 -161.909311 
L 430.794667 -163.764748 
L 425.186886 -154.810794 
L 419.579105 -151.141898 
L 413.971323 -148.270588 
L 408.363542 -130.753079 
L 402.755761 -139.48035 
L 397.147979 -127.965725 
L 391.540198 -127.47458 
L 385.932417 -457.448545 
L 380.324635 -459.786732 
L 374.716854 -460.185525 
L 369.109073 -449.703564 
L 363.501292 -444.053296 
L 357.89351 -424.587997 
L 352.285729 -430.712619 
L 346.677948 -427.62722 
L 341.070166 -413.623287 
L 335.462385 -411.82662 
L 329.854604 -409.710918 
L 324.246822 -408.988892 
L 318.639041 -424.176611 
L 313.03126 -415.369581 
L 307.423478 -420.726002 
L 301.815697 -423.828192 
L 296.207916 -430.540508 
L 290.600134 -432.727573 
L 284.992353 -426.556776 
L 279.384572 -421.636929 
L 273.776791 -422.808121 
L 268.169009 -406.369452 
L 262.561228 -409.072849 
L 256.953447 -415.222657 
L 251.345665 -415.587868 
L 245.737884 -421.594951 
L 240.130103 -397.302157 
L 234.522321 -397.902445 
L 228.91454 -402.440291 
L 223.306759 -399.728498 
L 217.698977 -374.310688 
L 212.091196 -369.302687 
L 206.483415 -368.458925 
L 200.875633 -368.723388 
L 195.267852 -365.566626 
L 189.660071 -363.706991 
L 184.052289 -362.157995 
L 178.444508 -362.678524 
L 172.836727 -363.442528 
L 167.228946 -349.291671 
L 161.621164 -347.373267 
L 156.013383 -347.322893 
L 150.405602 -338.07929 
L 144.79782 -336.866119 
L 139.190039 -334.972902 
L 133.582258 -325.271736 
L 127.974476 -316.620026 
L 122.366695 -309.945489 
L 116.758914 -309.538301 
L 111.151132 -309.236058 
z
" style="stroke: #ffffff; stroke-opacity: 0.2"/>
    </defs>
    <g clip-path="url(#pe81b10f849)">
     <use xlink:href="#mf7335d15be" x="0" y="576" style="fill: #dd8452; fill-opacity: 0.2; stroke: #ffffff; stroke-opacity: 0.2"/>
    </g>
   </g>
   <g id="PolyCollection_3">
    <defs>
     <path id="mabb56035d1" d="M 111.151132 -306.499078 
L 111.151132 -290.014232 
L 116.758914 -301.071295 
L 122.366695 -307.972513 
L 127.974476 -306.595628 
L 133.582258 -306.041515 
L 139.190039 -307.460379 
L 144.79782 -312.002422 
L 150.405602 -312.010818 
L 156.013383 -311.842905 
L 161.621164 -311.847103 
L 167.228946 -312.829393 
L 172.836727 -312.841986 
L 178.444508 -310.071424 
L 184.052289 -312.816799 
L 189.660071 -312.816799 
L 195.267852 -312.841986 
L 200.875633 -312.841986 
L 206.483415 -313.904035 
L 212.091196 -315.020656 
L 217.698977 -315.037447 
L 223.306759 -316.41853 
L 228.91454 -315.830835 
L 234.522321 -318.945619 
L 240.130103 -318.572013 
L 245.737884 -316.351365 
L 251.345665 -318.983399 
L 256.953447 -311.162858 
L 262.561228 -312.963723 
L 268.169009 -316.775345 
L 273.776791 -316.133078 
L 279.384572 -316.120485 
L 284.992353 -316.099496 
L 290.600134 -316.082705 
L 296.207916 -317.564536 
L 301.815697 -319.336016 
L 307.423478 -319.499731 
L 313.03126 -319.394786 
L 318.639041 -319.432566 
L 324.246822 -317.59392 
L 329.854604 -319.184895 
L 335.462385 -319.466149 
L 341.070166 -319.457753 
L 346.677948 -319.44516 
L 352.285729 -321.350971 
L 357.89351 -322.228315 
L 363.501292 -316.212837 
L 369.109073 -325.653738 
L 374.716854 -324.24327 
L 380.324635 -324.10894 
L 385.932417 -324.092148 
L 391.540198 -102.014792 
L 397.147979 -102.258266 
L 402.755761 -106.262988 
L 408.363542 -105.864194 
L 413.971323 -106.808704 
L 419.579105 -107.610488 
L 425.186886 -108.970582 
L 430.794667 -109.428145 
L 436.402449 -109.138495 
L 442.01023 -108.412272 
L 447.618011 -107.597895 
L 453.225793 -106.283977 
L 458.833574 -106.519055 
L 464.441355 -107.492949 
L 470.049137 -108.588581 
L 475.656918 -108.588581 
L 481.264699 -108.588581 
L 486.87248 -110.24672 
L 492.480262 -114.373179 
L 498.088043 -111.258395 
L 503.695824 -124.023971 
L 509.303606 -125.472219 
L 514.911387 -125.493208 
L 520.519168 -125.493208 
L 526.12695 -124.888722 
L 531.734731 -125.371471 
L 537.342512 -122.529546 
L 542.950294 -126.765148 
L 548.558075 -133.036694 
L 554.165856 -133.481663 
L 559.773638 -118.470253 
L 565.381419 -118.499637 
L 570.9892 -118.508033 
L 576.596981 -117.987503 
L 582.204763 -117.651678 
L 587.812544 -117.580315 
L 593.420325 -118.113438 
L 599.028107 -117.383017 
L 604.635888 -117.307456 
L 610.243669 -117.051389 
L 615.851451 -112.064377 
L 621.459232 -117.286467 
L 627.067013 -118.382098 
L 632.674795 -118.344318 
L 638.282576 -125.165778 
L 643.890357 -125.392461 
L 649.498139 -141.184665 
L 655.10592 -143.061092 
L 660.713701 -141.453326 
L 666.321482 -143.291972 
L 666.321482 -218.500144 
L 666.321482 -218.500144 
L 660.713701 -219.293532 
L 655.10592 -225.989057 
L 649.498139 -228.377618 
L 643.890357 -228.906543 
L 638.282576 -227.33236 
L 632.674795 -227.269393 
L 627.067013 -236.668316 
L 621.459232 -232.865089 
L 615.851451 -232.793726 
L 610.243669 -230.959278 
L 604.635888 -237.306384 
L 599.028107 -230.938289 
L 593.420325 -211.43521 
L 587.812544 -211.506573 
L 582.204763 -205.163664 
L 576.596981 -201.293273 
L 570.9892 -201.969122 
L 565.381419 -201.922946 
L 559.773638 -205.041928 
L 554.165856 -205.193049 
L 548.558075 -202.065672 
L 542.950294 -190.773532 
L 537.342512 -190.836499 
L 531.734731 -190.282387 
L 526.12695 -165.305348 
L 520.519168 -173.062923 
L 514.911387 -207.342334 
L 509.303606 -211.775233 
L 503.695824 -220.107909 
L 498.088043 -220.103712 
L 492.480262 -218.600891 
L 486.87248 -221.97594 
L 481.264699 -204.38287 
L 475.656918 -198.887921 
L 470.049137 -199.345484 
L 464.441355 -199.370671 
L 458.833574 -200.193444 
L 453.225793 -195.315575 
L 447.618011 -163.903276 
L 442.01023 -163.004942 
L 436.402449 -154.462375 
L 430.794667 -143.174433 
L 425.186886 -139.744813 
L 419.579105 -123.012296 
L 413.971323 -119.389576 
L 408.363542 -119.406367 
L 402.755761 -118.99498 
L 397.147979 -117.475369 
L 391.540198 -116.577035 
L 385.932417 -405.147886 
L 380.324635 -388.839349 
L 374.716854 -412.506667 
L 369.109073 -421.586555 
L 363.501292 -433.075993 
L 357.89351 -419.328127 
L 352.285729 -419.143423 
L 346.677948 -428.777423 
L 341.070166 -426.18317 
L 335.462385 -429.352525 
L 329.854604 -430.297035 
L 324.246822 -424.168215 
L 318.639041 -413.430188 
L 313.03126 -403.699637 
L 307.423478 -413.745024 
L 301.815697 -406.566749 
L 296.207916 -409.421268 
L 290.600134 -378.017365 
L 284.992353 -409.064453 
L 279.384572 -388.621062 
L 273.776791 -383.063146 
L 268.169009 -382.320132 
L 262.561228 -365.931836 
L 256.953447 -346.907309 
L 251.345665 -355.428887 
L 245.737884 -360.671966 
L 240.130103 -374.931966 
L 234.522321 -393.88513 
L 228.91454 -411.230529 
L 223.306759 -418.270276 
L 217.698977 -415.214262 
L 212.091196 -427.62722 
L 206.483415 -428.886567 
L 200.875633 -424.936417 
L 195.267852 -424.94901 
L 189.660071 -422.287591 
L 184.052289 -423.790411 
L 178.444508 -419.731118 
L 172.836727 -411.30609 
L 167.228946 -387.416287 
L 161.621164 -387.382705 
L 156.013383 -386.786614 
L 150.405602 -382.530023 
L 144.79782 -381.119555 
L 139.190039 -377.689934 
L 133.582258 -356.688233 
L 127.974476 -354.26609 
L 122.366695 -342.310694 
L 116.758914 -332.424824 
L 111.151132 -306.499078 
z
" style="stroke: #ffffff; stroke-opacity: 0.2"/>
    </defs>
    <g clip-path="url(#pe81b10f849)">
     <use xlink:href="#mabb56035d1" x="0" y="576" style="fill: #55a868; fill-opacity: 0.2; stroke: #ffffff; stroke-opacity: 0.2"/>
    </g>
   </g>
   <g id="line2d_13">
    <path d="M 111.151132 276.350088 
L 116.758914 269.15838 
L 122.366695 267.061988 
L 127.974476 266.362631 
L 133.582258 266.373545 
L 139.190039 265.822791 
L 144.79782 271.506641 
L 150.405602 254.982336 
L 156.013383 254.333353 
L 161.621164 251.02547 
L 167.228946 253.139493 
L 172.836727 249.089434 
L 178.444508 248.912286 
L 184.052289 245.55235 
L 189.660071 238.630142 
L 195.267852 237.309507 
L 200.875633 234.772344 
L 206.483415 234.782419 
L 212.091196 234.542303 
L 217.698977 238.221274 
L 223.306759 237.542067 
L 228.91454 233.294711 
L 234.522321 233.240139 
L 240.130103 227.352275 
L 245.737884 226.84014 
L 251.345665 227.531941 
L 256.953447 227.381659 
L 262.561228 231.463621 
L 268.169009 231.682747 
L 273.776791 231.52323 
L 279.384572 229.86593 
L 284.992353 227.461418 
L 290.600134 226.390973 
L 296.207916 225.614376 
L 301.815697 227.912264 
L 307.423478 227.123073 
L 313.03126 235.347446 
L 318.639041 230.879284 
L 324.246822 228.161615 
L 329.854604 238.693949 
L 335.462385 229.739995 
L 341.070166 226.748628 
L 346.677948 226.422877 
L 352.285729 211.138608 
L 357.89351 208.682043 
L 363.501292 208.582975 
L 369.109073 199.428365 
L 374.716854 198.852424 
L 380.324635 192.580039 
L 385.932417 190.585234 
L 391.540198 465.266332 
L 397.147979 456.046237 
L 402.755761 452.470533 
L 408.363542 448.54389 
L 413.971323 447.979703 
L 419.579105 449.188676 
L 425.186886 447.592664 
L 430.794667 444.822941 
L 436.402449 440.245637 
L 442.01023 436.633831 
L 447.618011 435.136048 
L 453.225793 437.044378 
L 458.833574 431.321907 
L 464.441355 424.566773 
L 470.049137 420.000383 
L 475.656918 414.288827 
L 481.264699 416.559848 
L 486.87248 412.50979 
L 492.480262 408.890428 
L 498.088043 401.495545 
L 503.695824 401.554315 
L 509.303606 399.628354 
L 514.911387 397.792227 
L 520.519168 391.912758 
L 526.12695 385.255853 
L 531.734731 383.766466 
L 537.342512 380.422481 
L 542.950294 376.625132 
L 548.558075 375.888834 
L 554.165856 366.889544 
L 559.773638 353.814169 
L 565.381419 349.18649 
L 570.9892 344.25489 
L 576.596981 339.53318 
L 582.204763 342.553932 
L 587.812544 339.393812 
L 593.420325 342.200476 
L 599.028107 340.424797 
L 604.635888 342.459901 
L 610.243669 343.922422 
L 615.851451 345.407611 
L 621.459232 343.662157 
L 627.067013 345.585599 
L 632.674795 345.998665 
L 638.282576 346.042322 
L 643.890357 348.938819 
L 649.498139 346.294191 
L 655.10592 347.1262 
L 660.713701 355.958416 
L 666.321482 358.381399 
" clip-path="url(#pe81b10f849)" style="fill: none; stroke: #4c72b0; stroke-width: 1.5; stroke-linecap: round"/>
   </g>
   <g id="line2d_14">
    <path d="M 111.151132 272.564492 
L 116.758914 270.654483 
L 122.366695 268.453985 
L 127.974476 264.116796 
L 133.582258 262.388973 
L 139.190039 260.018043 
L 144.79782 261.575435 
L 150.405602 260.818148 
L 156.013383 255.869756 
L 161.621164 254.876551 
L 167.228946 251.839007 
L 172.836727 245.66821 
L 178.444508 246.096388 
L 184.052289 245.742931 
L 189.660071 241.738209 
L 195.267852 239.829879 
L 200.875633 240.033894 
L 206.483415 237.517719 
L 212.091196 236.665562 
L 217.698977 235.106491 
L 223.306759 230.295787 
L 228.91454 230.326011 
L 234.522321 228.956682 
L 240.130103 224.062861 
L 245.737884 218.099436 
L 251.345665 219.872596 
L 256.953447 220.062338 
L 262.561228 224.141781 
L 268.169009 218.460449 
L 273.776791 213.476795 
L 279.384572 214.149286 
L 284.992353 210.006876 
L 290.600134 211.691042 
L 296.207916 210.36537 
L 301.815697 206.745168 
L 307.423478 204.595044 
L 313.03126 199.393943 
L 318.639041 195.594915 
L 324.246822 187.942286 
L 329.854604 190.633929 
L 335.462385 181.462528 
L 341.070166 176.377287 
L 346.677948 173.971935 
L 352.285729 173.411106 
L 357.89351 175.907971 
L 363.501292 178.463605 
L 369.109073 183.113951 
L 374.716854 179.132737 
L 380.324635 177.664339 
L 385.932417 178.837211 
L 391.540198 464.913715 
L 397.147979 461.176815 
L 402.755761 456.749792 
L 408.363542 457.819397 
L 413.971323 451.398409 
L 419.579105 448.298738 
L 425.186886 441.430262 
L 430.794667 435.757326 
L 436.402449 435.031103 
L 442.01023 429.747724 
L 447.618011 427.563178 
L 453.225793 428.027457 
L 458.833574 427.03845 
L 464.441355 427.082947 
L 470.049137 422.693705 
L 475.656918 417.466577 
L 481.264699 420.73668 
L 486.87248 421.432679 
L 492.480262 415.448265 
L 498.088043 412.35447 
L 503.695824 408.852648 
L 509.303606 415.038557 
L 514.911387 418.402692 
L 520.519168 420.798808 
L 526.12695 420.869332 
L 531.734731 420.781177 
L 537.342512 421.352081 
L 542.950294 422.518236 
L 548.558075 426.110732 
L 554.165856 427.229031 
L 559.773638 423.888405 
L 565.381419 423.408174 
L 570.9892 423.18401 
L 576.596981 422.816281 
L 582.204763 425.325739 
L 587.812544 427.993874 
L 593.420325 427.27017 
L 599.028107 425.405498 
L 604.635888 424.020217 
L 610.243669 422.132036 
L 615.851451 421.658522 
L 621.459232 428.471587 
L 627.067013 430.562941 
L 632.674795 429.459754 
L 638.282576 427.707583 
L 643.890357 424.570971 
L 649.498139 424.272925 
L 655.10592 424.383748 
L 660.713701 424.607912 
L 666.321482 425.781622 
" clip-path="url(#pe81b10f849)" style="fill: none; stroke: #dd8452; stroke-width: 1.5; stroke-linecap: round"/>
   </g>
   <g id="line2d_15">
    <path d="M 111.151132 277.034333 
L 116.758914 260.598182 
L 122.366695 256.226571 
L 127.974476 253.64491 
L 133.582258 253.257871 
L 139.190039 248.771239 
L 144.79782 246.16859 
L 150.405602 245.82185 
L 156.013383 245.241711 
L 161.621164 244.852993 
L 167.228946 244.192256 
L 172.836727 239.101138 
L 178.444508 238.205322 
L 184.052289 237.152509 
L 189.660071 236.906516 
L 195.267852 236.733566 
L 200.875633 235.915831 
L 206.483415 234.724489 
L 212.091196 234.724489 
L 217.698977 237.203722 
L 223.306759 236.403617 
L 228.91454 237.274246 
L 234.522321 236.925826 
L 240.130103 238.856824 
L 245.737884 243.76072 
L 251.345665 244.410542 
L 256.953447 248.169272 
L 262.561228 242.976567 
L 268.169009 236.6303 
L 273.776791 233.936138 
L 279.384572 230.659318 
L 284.992353 226.577357 
L 290.600134 233.23762 
L 296.207916 224.356709 
L 301.815697 223.23757 
L 307.423478 219.007845 
L 313.03126 221.336796 
L 318.639041 219.954873 
L 324.246822 217.961748 
L 329.854604 217.468923 
L 335.462385 226.332204 
L 341.070166 225.647119 
L 346.677948 224.314731 
L 352.285729 226.068581 
L 357.89351 226.007292 
L 363.501292 225.797401 
L 369.109073 223.799238 
L 374.716854 226.354872 
L 380.324635 231.284794 
L 385.932417 226.947605 
L 391.540198 466.923632 
L 397.147979 465.477903 
L 402.755761 463.841592 
L 408.363542 464.340293 
L 413.971323 464.320983 
L 419.579105 463.246341 
L 425.186886 459.422965 
L 430.794667 458.598513 
L 436.402449 453.572881 
L 442.01023 453.071661 
L 447.618011 448.951919 
L 453.225793 437.573303 
L 458.833574 431.928073 
L 464.441355 431.079273 
L 470.049137 428.402742 
L 475.656918 428.500971 
L 481.264699 426.089743 
L 486.87248 421.358798 
L 492.480262 419.607466 
L 498.088043 419.613343 
L 503.695824 414.747229 
L 509.303606 416.991384 
L 514.911387 418.050075 
L 520.519168 424.461827 
L 526.12695 425.842911 
L 531.734731 419.546178 
L 537.342512 418.750271 
L 542.950294 416.703413 
L 548.558075 415.828587 
L 554.165856 412.584511 
L 559.773638 415.624573 
L 565.381419 414.837902 
L 570.9892 412.04635 
L 576.596981 412.265477 
L 582.204763 408.335476 
L 587.812544 407.600857 
L 593.420325 406.734427 
L 599.028107 402.916088 
L 604.635888 402.06393 
L 610.243669 402.350222 
L 615.851451 408.461411 
L 621.459232 398.792988 
L 627.067013 398.282533 
L 632.674795 401.494706 
L 638.282576 398.375724 
L 643.890357 397.264141 
L 649.498139 393.976407 
L 655.10592 391.184016 
L 660.713701 392.595324 
L 666.321482 389.999391 
" clip-path="url(#pe81b10f849)" style="fill: none; stroke: #55a868; stroke-width: 1.5; stroke-linecap: round"/>
   </g>
   <g id="patch_3">
    <path d="M 83.392615 495.840956 
L 83.392615 49.831226 
" style="fill: none; stroke: #cccccc; stroke-width: 1.25; stroke-linejoin: miter; stroke-linecap: square"/>
   </g>
   <g id="patch_4">
    <path d="M 694.08 495.840956 
L 694.08 49.831226 
" style="fill: none; stroke: #cccccc; stroke-width: 1.25; stroke-linejoin: miter; stroke-linecap: square"/>
   </g>
   <g id="patch_5">
    <path d="M 83.392615 495.840956 
L 694.08 495.840956 
" style="fill: none; stroke: #cccccc; stroke-width: 1.25; stroke-linejoin: miter; stroke-linecap: square"/>
   </g>
   <g id="patch_6">
    <path d="M 83.392615 49.831226 
L 694.08 49.831226 
" style="fill: none; stroke: #cccccc; stroke-width: 1.25; stroke-linejoin: miter; stroke-linecap: square"/>
   </g>
   <g id="text_15">
    <!-- Peak Signal-to-Noise Ratio (PSNR), dB over Step (Mean) -->
    <g style="fill: #262626" transform="translate(114.612151 43.831226) scale(0.24 -0.24)">
     <defs>
      <path id="CMSS17-76" d="M 2675 2752 
L 2176 2752 
L 1747 1556 
C 1613 1165 1421 627 1389 352 
L 1382 352 
C 1370 468 1318 634 1286 749 
C 1248 890 1197 1056 1158 1172 
L 595 2752 
L 83 2752 
L 1094 0 
L 1664 0 
L 2675 2752 
z
" transform="scale(0.015625)"/>
      <path id="CMSS17-72" d="M 954 1363 
C 954 1965 1395 2368 1958 2368 
L 1958 2789 
C 1549 2789 1165 2585 934 2253 
L 934 2758 
L 480 2758 
L 480 0 
L 954 0 
L 954 1363 
z
" transform="scale(0.015625)"/>
      <path id="CMSS17-4d" d="M 3194 2371 
L 2886 1473 
C 2835 1307 2662 791 2624 587 
L 2618 587 
C 2598 715 2560 849 2458 1174 
C 2400 1365 2336 1562 2272 1741 
L 1325 4416 
L 576 4416 
L 576 0 
L 1075 0 
L 1075 3900 
L 1082 3900 
C 1082 3894 1139 3613 1530 2499 
L 2374 96 
L 2848 96 
L 3610 2231 
C 3661 2378 3821 2843 3891 3066 
C 3955 3257 4115 3728 4154 3913 
L 4160 3913 
L 4160 0 
L 4666 0 
L 4666 4416 
L 3923 4416 
L 3194 2371 
z
" transform="scale(0.015625)"/>
     </defs>
     <use xlink:href="#CMSS17-50" transform="scale(0.996264)"/>
     <use xlink:href="#CMSS17-65" transform="translate(57.133132 0) scale(0.996264)"/>
     <use xlink:href="#CMSS17-61" transform="translate(98.771954 0) scale(0.996264)"/>
     <use xlink:href="#CMSS17-6b" transform="translate(143.693875 0) scale(0.996264)"/>
     <use xlink:href="#CMSS17-53" transform="translate(220.525477 0) scale(0.996264)"/>
     <use xlink:href="#CMSS17-69" transform="translate(272.573993 0) scale(0.996264)"/>
     <use xlink:href="#CMSS17-67" transform="translate(294.754716 0) scale(0.996264)"/>
     <use xlink:href="#CMSS17-6e" transform="translate(341.59834 0) scale(0.996264)"/>
     <use xlink:href="#CMSS17-61" transform="translate(389.803283 0) scale(0.996264)"/>
     <use xlink:href="#CMSS17-6c" transform="translate(434.725203 0) scale(0.996264)"/>
     <use xlink:href="#CMSS17-2d" transform="translate(456.905927 0) scale(0.996264)"/>
     <use xlink:href="#CMSS17-74" transform="translate(488.135039 0) scale(0.996264)"/>
     <use xlink:href="#CMSS17-6f" transform="translate(521.966606 0) scale(0.996264)"/>
     <use xlink:href="#CMSS17-2d" transform="translate(568.810229 0) scale(0.996264)"/>
     <use xlink:href="#CMSS17-4e" transform="translate(600.039342 0) scale(0.996264)"/>
     <use xlink:href="#CMSS17-6f" transform="translate(666.100861 0) scale(0.996264)"/>
     <use xlink:href="#CMSS17-69" transform="translate(712.944485 0) scale(0.996264)"/>
     <use xlink:href="#CMSS17-73" transform="translate(735.125208 0) scale(0.996264)"/>
     <use xlink:href="#CMSS17-65" transform="translate(771.03875 0) scale(0.996264)"/>
     <use xlink:href="#CMSS17-52" transform="translate(843.906685 0) scale(0.996264)"/>
     <use xlink:href="#CMSS17-61" transform="translate(904.32284 0) scale(0.996264)"/>
     <use xlink:href="#CMSS17-74" transform="translate(949.24476 0) scale(0.996264)"/>
     <use xlink:href="#CMSS17-69" transform="translate(983.076327 0) scale(0.996264)"/>
     <use xlink:href="#CMSS17-6f" transform="translate(1005.25705 0) scale(0.996264)"/>
     <use xlink:href="#CMSS17-28" transform="translate(1083.329786 0) scale(0.996264)"/>
     <use xlink:href="#CMSS17-50" transform="translate(1119.7637 0) scale(0.996264)"/>
     <use xlink:href="#CMSS17-53" transform="translate(1179.499287 0) scale(0.996264)"/>
     <use xlink:href="#CMSS17-4e" transform="translate(1231.547803 0) scale(0.996264)"/>
     <use xlink:href="#CMSS17-52" transform="translate(1297.609322 0) scale(0.996264)"/>
     <use xlink:href="#CMSS17-29" transform="translate(1358.025477 0) scale(0.996264)"/>
     <use xlink:href="#CMSS17-2c" transform="translate(1394.459391 0) scale(0.996264)"/>
     <use xlink:href="#CMSS17-64" transform="translate(1451.712709 0) scale(0.996264)"/>
     <use xlink:href="#CMSS17-42" transform="translate(1499.917652 0) scale(0.996264)"/>
     <use xlink:href="#CMSS17-6f" transform="translate(1593.484805 0) scale(0.996264)"/>
     <use xlink:href="#CMSS17-76" transform="translate(1640.328428 0) scale(0.996264)"/>
     <use xlink:href="#CMSS17-65" transform="translate(1683.32857 0) scale(0.996264)"/>
     <use xlink:href="#CMSS17-72" transform="translate(1724.967392 0) scale(0.996264)"/>
     <use xlink:href="#CMSS17-53" transform="translate(1788.106277 0) scale(0.996264)"/>
     <use xlink:href="#CMSS17-74" transform="translate(1840.154794 0) scale(0.996264)"/>
     <use xlink:href="#CMSS17-65" transform="translate(1873.98636 0) scale(0.996264)"/>
     <use xlink:href="#CMSS17-70" transform="translate(1915.625182 0) scale(0.996264)"/>
     <use xlink:href="#CMSS17-28" transform="translate(1995.059238 0) scale(0.996264)"/>
     <use xlink:href="#CMSS17-4d" transform="translate(2031.493153 0) scale(0.996264)"/>
     <use xlink:href="#CMSS17-65" transform="translate(2113.169182 0) scale(0.996264)"/>
     <use xlink:href="#CMSS17-61" transform="translate(2154.808005 0) scale(0.996264)"/>
     <use xlink:href="#CMSS17-6e" transform="translate(2199.729925 0) scale(0.996264)"/>
     <use xlink:href="#CMSS17-29" transform="translate(2247.934868 0) scale(0.996264)"/>
    </g>
   </g>
   <g id="legend_1">
    <g id="patch_7">
     <path d="M 425.32274 191.675953 
L 678.68 191.675953 
Q 683.08 191.675953 683.08 187.275953 
L 683.08 65.231226 
Q 683.08 60.831226 678.68 60.831226 
L 425.32274 60.831226 
Q 420.92274 60.831226 420.92274 65.231226 
L 420.92274 187.275953 
Q 420.92274 191.675953 425.32274 191.675953 
z
" style="fill: #ffffff; opacity: 0.8; stroke: #cccccc; stroke-linejoin: miter"/>
    </g>
    <g id="text_16">
     <!-- Minimum Confidence $\theta_{\mathrm{min}}$ -->
     <g style="fill: #262626" transform="translate(429.72274 86.235632) scale(0.24 -0.24)">
      <defs>
       <path id="CMSS17-6d" d="M 4288 1877 
C 4288 2308 4179 2816 3462 2816 
C 2982 2816 2694 2516 2566 2331 
C 2451 2670 2182 2816 1798 2816 
C 1363 2816 1088 2568 941 2389 
L 941 2758 
L 474 2758 
L 474 0 
L 960 0 
L 960 1559 
C 960 1939 1101 2428 1555 2428 
C 2138 2428 2138 2016 2138 1829 
L 2138 0 
L 2624 0 
L 2624 1559 
C 2624 1939 2765 2428 3219 2428 
C 3802 2428 3802 2016 3802 1829 
L 3802 0 
L 4288 0 
L 4288 1877 
z
" transform="scale(0.015625)"/>
       <path id="CMSS17-75" d="M 2618 2739 
L 2131 2739 
L 2131 972 
C 2131 498 1786 306 1421 306 
C 998 306 960 447 960 709 
L 960 2739 
L 474 2739 
L 474 678 
C 474 179 646 -64 1088 -64 
C 1306 -64 1798 -13 2144 306 
L 2144 0 
L 2618 0 
L 2618 2739 
z
" transform="scale(0.015625)"/>
       <path id="CMSS17-43" d="M 3501 714 
C 3072 427 2874 344 2355 344 
C 1459 344 934 1303 934 2179 
C 934 3112 1472 4032 2381 4032 
C 2790 4032 3059 3918 3386 3715 
L 3475 4217 
C 3168 4370 2778 4440 2387 4440 
C 1158 4440 397 3316 397 2179 
C 397 927 1299 -64 2323 -64 
C 2874 -64 3066 -19 3539 280 
L 3501 714 
z
" transform="scale(0.015625)"/>
       <path id="CMSS17-c" d="M 2752 4416 
L 2240 4416 
L 2240 3906 
L 2752 3906 
L 2752 4416 
z
M 2733 2737 
L 2259 2737 
L 2259 0 
L 2733 0 
L 2733 2737 
z
M 1075 2368 
L 1773 2368 
L 1773 2737 
L 1062 2737 
L 1062 3578 
C 1062 3919 1216 4092 1421 4092 
C 1542 4092 1664 4056 1773 3992 
L 1773 4410 
C 1722 4428 1574 4480 1421 4480 
C 941 4480 602 3993 602 3372 
L 602 2737 
L 160 2737 
L 160 2368 
L 602 2368 
L 602 0 
L 1075 0 
L 1075 2368 
z
" transform="scale(0.015625)"/>
       <path id="CMSS17-63" d="M 2464 2541 
C 2464 2585 2170 2714 2093 2739 
C 1882 2816 1613 2816 1542 2816 
C 710 2816 211 2093 211 1363 
C 211 595 768 -64 1517 -64 
C 1946 -64 2253 76 2502 242 
L 2464 664 
C 2189 453 1869 337 1523 337 
C 1024 337 698 774 698 1369 
C 698 1831 909 2414 1549 2414 
C 1901 2414 2099 2343 2394 2145 
L 2464 2541 
z
" transform="scale(0.015625)"/>
       <path id="CMMI12-12" d="M 2835 3200 
C 2835 3850 2630 4480 2106 4480 
C 1210 4480 256 2615 256 1216 
C 256 923 320 -64 992 -64 
C 1862 -64 2835 1756 2835 3200 
z
M 896 2304 
C 992 2679 1126 3214 1382 3665 
C 1594 4047 1818 4352 2099 4352 
C 2310 4352 2451 4174 2451 3564 
C 2451 3334 2432 3017 2246 2304 
L 896 2304 
z
M 2202 2113 
C 2042 1490 1907 1088 1677 687 
C 1491 363 1267 64 998 64 
C 800 64 640 217 640 846 
C 640 1260 742 1693 845 2113 
L 2202 2113 
z
" transform="scale(0.015625)"/>
       <path id="CMR17-6d" d="M 4326 1933 
C 4326 2252 4269 2790 3507 2790 
C 3072 2790 2771 2496 2656 2151 
L 2650 2151 
C 2573 2676 2195 2790 1837 2790 
C 1331 2790 1069 2400 973 2144 
L 966 2144 
L 966 2790 
L 211 2720 
L 211 2554 
C 589 2554 646 2515 646 2208 
L 646 428 
C 646 184 621 153 211 153 
L 211 -13 
C 365 0 646 0 813 0 
C 979 0 1267 0 1421 -13 
L 1421 153 
C 1011 153 986 178 986 428 
L 986 1658 
C 986 2247 1344 2688 1792 2688 
C 2266 2688 2317 2266 2317 1958 
L 2317 428 
C 2317 184 2291 153 1882 153 
L 1882 -13 
C 2035 0 2317 0 2483 0 
C 2650 0 2938 0 3091 -13 
L 3091 153 
C 2682 153 2656 178 2656 428 
L 2656 1658 
C 2656 2247 3014 2688 3462 2688 
C 3936 2688 3987 2266 3987 1958 
L 3987 428 
C 3987 184 3962 153 3552 153 
L 3552 -13 
C 3706 0 3987 0 4154 0 
C 4320 0 4608 0 4762 -13 
L 4762 153 
C 4352 153 4326 178 4326 428 
L 4326 1933 
z
" transform="scale(0.015625)"/>
       <path id="CMR17-69" d="M 992 3909 
C 992 4049 877 4170 730 4170 
C 589 4170 467 4056 467 3909 
C 467 3769 582 3648 730 3648 
C 870 3648 992 3763 992 3909 
z
M 243 2706 
L 243 2541 
C 602 2541 653 2502 653 2197 
L 653 427 
C 653 184 627 153 218 153 
L 218 -13 
C 371 0 646 0 806 0 
C 960 0 1222 0 1370 -13 
L 1370 153 
C 992 153 979 191 979 420 
L 979 2776 
L 243 2706 
z
" transform="scale(0.015625)"/>
       <path id="CMR17-6e" d="M 2656 1933 
C 2656 2259 2592 2790 1837 2790 
C 1331 2790 1069 2400 973 2144 
L 966 2144 
L 966 2790 
L 211 2720 
L 211 2554 
C 589 2554 646 2515 646 2208 
L 646 428 
C 646 184 621 153 211 153 
L 211 -13 
C 365 0 646 0 813 0 
C 979 0 1267 0 1421 -13 
L 1421 153 
C 1011 153 986 178 986 428 
L 986 1658 
C 986 2247 1344 2688 1792 2688 
C 2266 2688 2317 2266 2317 1958 
L 2317 428 
C 2317 184 2291 153 1882 153 
L 1882 -13 
C 2035 0 2317 0 2483 0 
C 2650 0 2938 0 3091 -13 
L 3091 153 
C 2682 153 2656 178 2656 428 
L 2656 1933 
z
" transform="scale(0.015625)"/>
      </defs>
      <use xlink:href="#CMSS17-4d" transform="scale(0.996264)"/>
      <use xlink:href="#CMSS17-69" transform="translate(81.67603 0) scale(0.996264)"/>
      <use xlink:href="#CMSS17-6e" transform="translate(103.856753 0) scale(0.996264)"/>
      <use xlink:href="#CMSS17-69" transform="translate(152.061696 0) scale(0.996264)"/>
      <use xlink:href="#CMSS17-6d" transform="translate(174.242419 0) scale(0.996264)"/>
      <use xlink:href="#CMSS17-75" transform="translate(248.471674 0) scale(0.996264)"/>
      <use xlink:href="#CMSS17-6d" transform="translate(296.676617 0) scale(0.996264)"/>
      <use xlink:href="#CMSS17-43" transform="translate(402.134984 0) scale(0.996264)"/>
      <use xlink:href="#CMSS17-6f" transform="translate(461.990755 0) scale(0.996264)"/>
      <use xlink:href="#CMSS17-6e" transform="translate(508.834379 0) scale(0.996264)"/>
      <use xlink:href="#CMSS17-c" transform="translate(557.039322 0) scale(0.996264)"/>
      <use xlink:href="#CMSS17-64" transform="translate(607.166059 0) scale(0.996264)"/>
      <use xlink:href="#CMSS17-65" transform="translate(655.371003 0) scale(0.996264)"/>
      <use xlink:href="#CMSS17-6e" transform="translate(697.009825 0) scale(0.996264)"/>
      <use xlink:href="#CMSS17-63" transform="translate(745.214768 0) scale(0.996264)"/>
      <use xlink:href="#CMSS17-65" transform="translate(786.85359 0) scale(0.996264)"/>
      <use xlink:href="#CMMI12-12" transform="translate(859.721525 0) scale(0.996264)"/>
      <use xlink:href="#CMR17-6d" transform="translate(905.181315 -14.943915) scale(0.697382)"/>
      <use xlink:href="#CMR17-69" transform="translate(959.024781 -14.943915) scale(0.697382)"/>
      <use xlink:href="#CMR17-6e" transform="translate(976.43444 -14.943915) scale(0.697382)"/>
     </g>
    </g>
    <g id="line2d_16">
     <path d="M 508.033115 109.586389 
L 530.033115 109.586389 
L 552.033115 109.586389 
" style="fill: none; stroke: #4c72b0; stroke-width: 1.5; stroke-linecap: round"/>
    </g>
    <g id="text_17">
     <!-- 0.1 -->
     <g style="fill: #262626" transform="translate(569.633115 117.286389) scale(0.22 -0.22)">
      <defs>
       <path id="CMSS17-30" d="M 2758 2044 
C 2758 2405 2752 3077 2490 3596 
C 2227 4096 1805 4229 1504 4229 
C 1069 4229 698 3975 506 3570 
C 301 3146 243 2709 243 2044 
C 243 1589 262 1031 493 543 
C 755 5 1197 -128 1498 -128 
C 1894 -128 2278 81 2496 518 
C 2720 974 2758 1474 2758 2044 
z
M 1498 261 
C 1011 261 864 811 819 995 
C 742 1310 730 1614 730 2114 
C 730 2506 730 2948 851 3297 
C 998 3701 1254 3840 1498 3840 
C 1971 3840 2125 3372 2176 3208 
C 2272 2873 2272 2481 2272 2114 
C 2272 1526 2272 261 1498 261 
z
" transform="scale(0.015625)"/>
       <path id="CMSS17-2e" d="M 1088 510 
L 576 510 
L 576 0 
L 1088 0 
L 1088 510 
z
" transform="scale(0.015625)"/>
       <path id="CMSS17-31" d="M 1818 4288 
L 1696 4288 
C 1350 3940 947 3890 538 3890 
L 538 3520 
C 723 3520 1024 3520 1325 3667 
L 1325 369 
L 570 369 
L 570 0 
L 2573 0 
L 2573 369 
L 1818 369 
L 1818 4288 
z
" transform="scale(0.015625)"/>
      </defs>
      <use xlink:href="#CMSS17-30" transform="scale(0.996264)"/>
      <use xlink:href="#CMSS17-2e" transform="translate(46.843624 0) scale(0.996264)"/>
      <use xlink:href="#CMSS17-31" transform="translate(72.867828 0) scale(0.996264)"/>
     </g>
    </g>
    <g id="line2d_17">
     <path d="M 508.033115 140.249577 
L 530.033115 140.249577 
L 552.033115 140.249577 
" style="fill: none; stroke: #dd8452; stroke-width: 1.5; stroke-linecap: round"/>
    </g>
    <g id="text_18">
     <!-- 0.2 -->
     <g style="fill: #262626" transform="translate(569.633115 147.949577) scale(0.22 -0.22)">
      <defs>
       <path id="CMSS17-32" d="M 1651 1357 
C 1830 1541 2099 1764 2285 1987 
C 2464 2204 2701 2511 2701 2957 
C 2701 3657 2227 4288 1421 4288 
C 787 4288 422 3893 250 3274 
L 499 2929 
C 640 3510 838 3880 1338 3880 
C 1888 3880 2195 3433 2195 2942 
C 2195 2355 1747 1901 1408 1563 
C 1030 1187 659 804 301 408 
L 301 0 
L 2701 0 
L 2701 433 
L 1613 433 
C 1536 433 1459 433 1382 433 
L 742 433 
L 742 439 
L 1651 1357 
z
" transform="scale(0.015625)"/>
      </defs>
      <use xlink:href="#CMSS17-30" transform="scale(0.996264)"/>
      <use xlink:href="#CMSS17-2e" transform="translate(46.843624 0) scale(0.996264)"/>
      <use xlink:href="#CMSS17-32" transform="translate(72.867828 0) scale(0.996264)"/>
     </g>
    </g>
    <g id="line2d_18">
     <path d="M 508.033115 170.912765 
L 530.033115 170.912765 
L 552.033115 170.912765 
" style="fill: none; stroke: #55a868; stroke-width: 1.5; stroke-linecap: round"/>
    </g>
    <g id="text_19">
     <!-- 0.3 -->
     <g style="fill: #262626" transform="translate(569.633115 178.612765) scale(0.22 -0.22)">
      <defs>
       <path id="CMSS17-33" d="M 1005 2025 
L 1440 2025 
C 2042 2025 2214 1507 2214 1146 
C 2214 653 1933 267 1472 267 
C 1114 267 608 444 320 912 
C 275 691 275 678 250 526 
C 550 88 1037 -128 1485 -128 
C 2214 -128 2752 473 2752 1138 
C 2752 1638 2400 2057 1920 2215 
C 2304 2424 2586 2816 2586 3273 
C 2586 3805 2093 4229 1491 4229 
C 941 4229 512 3892 333 3530 
C 378 3468 493 3284 550 3189 
C 691 3562 1056 3840 1485 3840 
C 1843 3840 2080 3607 2080 3271 
C 2080 2923 1856 2543 1478 2455 
C 1453 2455 1056 2417 1005 2411 
L 1005 2025 
z
" transform="scale(0.015625)"/>
      </defs>
      <use xlink:href="#CMSS17-30" transform="scale(0.996264)"/>
      <use xlink:href="#CMSS17-2e" transform="translate(46.843624 0) scale(0.996264)"/>
      <use xlink:href="#CMSS17-33" transform="translate(72.867828 0) scale(0.996264)"/>
     </g>
    </g>
   </g>
  </g>
 </g>
 <defs>
  <clipPath id="pe81b10f849">
   <rect x="83.392615" y="49.831226" width="610.687385" height="446.00973"/>
  </clipPath>
 </defs>
</svg>
