<?xml version="1.0" encoding="utf-8" standalone="no"?>
<!DOCTYPE svg PUBLIC "-//W3C//DTD SVG 1.1//EN"
  "http://www.w3.org/Graphics/SVG/1.1/DTD/svg11.dtd">
<svg xmlns:xlink="http://www.w3.org/1999/xlink" width="720pt" height="576pt" viewBox="0 0 720 576" xmlns="http://www.w3.org/2000/svg" version="1.1">
 <metadata>
  <rdf:RDF xmlns:dc="http://purl.org/dc/elements/1.1/" xmlns:cc="http://creativecommons.org/ns#" xmlns:rdf="http://www.w3.org/1999/02/22-rdf-syntax-ns#">
   <cc:Work>
    <dc:type rdf:resource="http://purl.org/dc/dcmitype/StillImage"/>
    <dc:date>2025-04-24T19:33:25.699337</dc:date>
    <dc:format>image/svg+xml</dc:format>
    <dc:creator>
     <cc:Agent>
      <dc:title>Matplotlib v3.9.2, https://matplotlib.org/</dc:title>
     </cc:Agent>
    </dc:creator>
   </cc:Work>
  </rdf:RDF>
 </metadata>
 <defs>
  <style type="text/css">*{stroke-linejoin: round; stroke-linecap: butt}</style>
 </defs>
 <g id="figure_1">
  <g id="patch_1">
   <path d="M 0 576 
L 720 576 
L 720 0 
L 0 0 
z
" style="fill: #ffffff"/>
  </g>
  <g id="axes_1">
   <g id="patch_2">
    <path d="M 89.353994 495.840956 
L 694.08 495.840956 
L 694.08 49.831226 
L 89.353994 49.831226 
z
" style="fill: #ffffff"/>
   </g>
   <g id="matplotlib.axis_1">
    <g id="xtick_1">
     <g id="line2d_1">
      <path d="M 116.84154 495.840956 
L 116.84154 49.831226 
" clip-path="url(#p22e3f65112)" style="fill: none; stroke: #cccccc; stroke-linecap: round"/>
     </g>
     <g id="text_1">
      <!-- $\mathdefault{0}$ -->
      <g style="fill: #262626" transform="translate(111.815587 520.56165) scale(0.22 -0.22)">
       <defs>
        <path id="CMR17-30" d="M 2688 2025 
C 2688 2416 2682 3080 2413 3591 
C 2176 4039 1798 4198 1466 4198 
C 1158 4198 768 4058 525 3597 
C 269 3118 243 2524 243 2025 
C 243 1661 250 1106 448 619 
C 723 -39 1216 -128 1466 -128 
C 1760 -128 2208 -7 2470 600 
C 2662 1042 2688 1559 2688 2025 
z
M 1466 -26 
C 1056 -26 813 325 723 812 
C 653 1188 653 1738 653 2096 
C 653 2588 653 2997 736 3387 
C 858 3929 1216 4096 1466 4096 
C 1728 4096 2067 3923 2189 3400 
C 2272 3036 2278 2607 2278 2096 
C 2278 1680 2278 1169 2202 792 
C 2067 95 1690 -26 1466 -26 
z
" transform="scale(0.015625)"/>
       </defs>
       <use xlink:href="#CMR17-30" transform="scale(0.996264)"/>
      </g>
     </g>
    </g>
    <g id="xtick_2">
     <g id="line2d_2">
      <path d="M 227.90233 495.840956 
L 227.90233 49.831226 
" clip-path="url(#p22e3f65112)" style="fill: none; stroke: #cccccc; stroke-linecap: round"/>
     </g>
     <g id="text_2">
      <!-- $\mathdefault{200}$ -->
      <g style="fill: #262626" transform="translate(212.824473 520.56165) scale(0.22 -0.22)">
       <defs>
        <path id="CMR17-32" d="M 2669 989 
L 2554 989 
C 2490 536 2438 459 2413 420 
C 2381 369 1920 369 1830 369 
L 602 369 
C 832 619 1280 1072 1824 1597 
C 2214 1967 2669 2402 2669 3035 
C 2669 3790 2067 4224 1395 4224 
C 691 4224 262 3604 262 3030 
C 262 2780 448 2748 525 2748 
C 589 2748 781 2787 781 3010 
C 781 3207 614 3264 525 3264 
C 486 3264 448 3258 422 3245 
C 544 3790 915 4058 1306 4058 
C 1862 4058 2227 3617 2227 3035 
C 2227 2479 1901 2000 1536 1584 
L 262 146 
L 262 0 
L 2515 0 
L 2669 989 
z
" transform="scale(0.015625)"/>
       </defs>
       <use xlink:href="#CMR17-32" transform="scale(0.996264)"/>
       <use xlink:href="#CMR17-30" transform="translate(45.690477 0) scale(0.996264)"/>
       <use xlink:href="#CMR17-30" transform="translate(91.380954 0) scale(0.996264)"/>
      </g>
     </g>
    </g>
    <g id="xtick_3">
     <g id="line2d_3">
      <path d="M 338.963121 495.840956 
L 338.963121 49.831226 
" clip-path="url(#p22e3f65112)" style="fill: none; stroke: #cccccc; stroke-linecap: round"/>
     </g>
     <g id="text_3">
      <!-- $\mathdefault{400}$ -->
      <g style="fill: #262626" transform="translate(323.885264 520.56165) scale(0.22 -0.22)">
       <defs>
        <path id="CMR17-34" d="M 2150 4122 
C 2150 4256 2144 4256 2029 4256 
L 128 1254 
L 128 1088 
L 1779 1088 
L 1779 457 
C 1779 224 1766 160 1318 160 
L 1197 160 
L 1197 0 
C 1402 0 1747 0 1965 0 
C 2182 0 2528 0 2733 0 
L 2733 160 
L 2611 160 
C 2163 160 2150 224 2150 457 
L 2150 1088 
L 2803 1088 
L 2803 1254 
L 2150 1254 
L 2150 4122 
z
M 1798 3703 
L 1798 1254 
L 256 1254 
L 1798 3703 
z
" transform="scale(0.015625)"/>
       </defs>
       <use xlink:href="#CMR17-34" transform="scale(0.996264)"/>
       <use xlink:href="#CMR17-30" transform="translate(45.690477 0) scale(0.996264)"/>
       <use xlink:href="#CMR17-30" transform="translate(91.380954 0) scale(0.996264)"/>
      </g>
     </g>
    </g>
    <g id="xtick_4">
     <g id="line2d_4">
      <path d="M 450.023912 495.840956 
L 450.023912 49.831226 
" clip-path="url(#p22e3f65112)" style="fill: none; stroke: #cccccc; stroke-linecap: round"/>
     </g>
     <g id="text_4">
      <!-- $\mathdefault{600}$ -->
      <g style="fill: #262626" transform="translate(434.946055 520.56165) scale(0.22 -0.22)">
       <defs>
        <path id="CMR17-36" d="M 678 2176 
C 678 3690 1395 4032 1811 4032 
C 1946 4032 2272 4009 2400 3776 
C 2298 3776 2106 3776 2106 3553 
C 2106 3381 2246 3323 2336 3323 
C 2394 3323 2566 3348 2566 3560 
C 2566 3954 2246 4179 1805 4179 
C 1043 4179 243 3390 243 1984 
C 243 253 966 -128 1478 -128 
C 2099 -128 2688 427 2688 1283 
C 2688 2081 2170 2662 1517 2662 
C 1126 2662 838 2407 678 1960 
L 678 2176 
z
M 1478 25 
C 691 25 691 1200 691 1436 
C 691 1896 909 2560 1504 2560 
C 1613 2560 1926 2560 2138 2120 
C 2253 1870 2253 1609 2253 1289 
C 2253 944 2253 690 2118 434 
C 1978 171 1773 25 1478 25 
z
" transform="scale(0.015625)"/>
       </defs>
       <use xlink:href="#CMR17-36" transform="scale(0.996264)"/>
       <use xlink:href="#CMR17-30" transform="translate(45.690477 0) scale(0.996264)"/>
       <use xlink:href="#CMR17-30" transform="translate(91.380954 0) scale(0.996264)"/>
      </g>
     </g>
    </g>
    <g id="xtick_5">
     <g id="line2d_5">
      <path d="M 561.084703 495.840956 
L 561.084703 49.831226 
" clip-path="url(#p22e3f65112)" style="fill: none; stroke: #cccccc; stroke-linecap: round"/>
     </g>
     <g id="text_5">
      <!-- $\mathdefault{800}$ -->
      <g style="fill: #262626" transform="translate(546.006846 520.56165) scale(0.22 -0.22)">
       <defs>
        <path id="CMR17-38" d="M 1741 2264 
C 2144 2467 2554 2773 2554 3263 
C 2554 3841 1990 4179 1472 4179 
C 890 4179 378 3759 378 3180 
C 378 3021 416 2747 666 2505 
C 730 2442 998 2251 1171 2130 
C 883 1983 211 1634 211 934 
C 211 279 838 -128 1459 -128 
C 2144 -128 2720 362 2720 1010 
C 2720 1590 2330 1857 2074 2029 
L 1741 2264 
z
M 902 2822 
C 851 2854 595 3051 595 3351 
C 595 3739 998 4032 1459 4032 
C 1965 4032 2336 3676 2336 3262 
C 2336 2669 1670 2331 1638 2331 
C 1632 2331 1626 2331 1574 2370 
L 902 2822 
z
M 2080 1519 
C 2176 1449 2483 1240 2483 851 
C 2483 381 2010 25 1472 25 
C 890 25 448 438 448 940 
C 448 1443 838 1862 1280 2060 
L 2080 1519 
z
" transform="scale(0.015625)"/>
       </defs>
       <use xlink:href="#CMR17-38" transform="scale(0.996264)"/>
       <use xlink:href="#CMR17-30" transform="translate(45.690477 0) scale(0.996264)"/>
       <use xlink:href="#CMR17-30" transform="translate(91.380954 0) scale(0.996264)"/>
      </g>
     </g>
    </g>
    <g id="xtick_6">
     <g id="line2d_6">
      <path d="M 672.145494 495.840956 
L 672.145494 49.831226 
" clip-path="url(#p22e3f65112)" style="fill: none; stroke: #cccccc; stroke-linecap: round"/>
     </g>
     <g id="text_6">
      <!-- $\mathdefault{1000}$ -->
      <g style="fill: #262626" transform="translate(652.041684 520.56165) scale(0.22 -0.22)">
       <defs>
        <path id="CMR17-31" d="M 1702 4058 
C 1702 4192 1696 4192 1606 4192 
C 1357 3916 979 3827 621 3827 
C 602 3827 570 3827 563 3808 
C 557 3795 557 3782 557 3648 
C 755 3648 1088 3686 1344 3839 
L 1344 461 
C 1344 236 1331 160 781 160 
L 589 160 
L 589 0 
C 896 0 1216 0 1523 0 
C 1830 0 2150 0 2458 0 
L 2458 160 
L 2266 160 
C 1715 160 1702 230 1702 458 
L 1702 4058 
z
" transform="scale(0.015625)"/>
       </defs>
       <use xlink:href="#CMR17-31" transform="scale(0.996264)"/>
       <use xlink:href="#CMR17-30" transform="translate(45.690477 0) scale(0.996264)"/>
       <use xlink:href="#CMR17-30" transform="translate(91.380954 0) scale(0.996264)"/>
       <use xlink:href="#CMR17-30" transform="translate(137.071431 0) scale(0.996264)"/>
      </g>
     </g>
    </g>
    <g id="text_7">
     <!-- Step -->
     <g style="fill: #262626" transform="translate(370.630141 545.429243) scale(0.24 -0.24)">
      <defs>
       <path id="CMSS17-53" d="M 2797 4169 
C 2515 4334 2208 4480 1690 4480 
C 864 4480 333 3879 333 3266 
C 333 3025 403 2753 653 2475 
C 902 2196 1184 2121 1542 2033 
C 1690 1994 1939 1924 1984 1906 
C 2342 1767 2515 1444 2515 1140 
C 2515 742 2202 318 1645 318 
C 1453 318 890 318 358 819 
L 269 318 
C 794 -64 1363 -128 1651 -128 
C 2438 -128 3002 488 3002 1186 
C 3002 1440 2925 1763 2656 2061 
C 2394 2347 2163 2410 1638 2549 
C 1338 2626 1146 2677 986 2873 
C 877 3013 819 3146 819 3317 
C 819 3673 1126 4060 1690 4060 
C 1971 4060 2336 4002 2707 3660 
L 2797 4169 
z
" transform="scale(0.015625)"/>
       <path id="CMSS17-74" d="M 1069 2368 
L 1901 2368 
L 1901 2737 
L 1069 2737 
L 1069 3520 
L 614 3520 
L 614 2737 
L 109 2737 
L 109 2368 
L 602 2368 
L 602 749 
C 602 384 685 -64 1107 -64 
C 1427 -64 1722 25 2003 172 
L 1901 548 
C 1747 414 1562 337 1363 337 
C 1082 337 1069 696 1069 856 
L 1069 2368 
z
" transform="scale(0.015625)"/>
       <path id="CMSS17-65" d="M 2502 1377 
C 2502 1590 2490 2003 2285 2345 
C 2061 2713 1696 2816 1421 2816 
C 755 2816 192 2188 192 1375 
C 192 582 774 -64 1510 -64 
C 1798 -64 2150 19 2470 248 
C 2470 274 2458 414 2451 420 
C 2451 433 2432 630 2432 656 
C 2125 407 1773 325 1517 325 
C 1107 325 666 667 646 1377 
L 2502 1377 
z
M 698 1728 
C 781 2084 1062 2421 1421 2421 
C 1517 2421 1965 2421 2080 1728 
L 698 1728 
z
" transform="scale(0.015625)"/>
       <path id="CMSS17-70" d="M 966 333 
C 1178 129 1466 -5 1773 -5 
C 2368 -5 2880 603 2880 1412 
C 2880 2159 2496 2816 1946 2816 
C 1626 2816 1242 2702 954 2472 
L 954 2765 
L 480 2765 
L 480 -1216 
L 966 -1216 
L 966 333 
z
M 966 2100 
C 1018 2176 1235 2415 1587 2415 
C 2035 2415 2394 1960 2394 1412 
C 2394 787 1958 384 1530 384 
C 1402 384 1267 415 1139 523 
C 966 674 966 768 966 857 
L 966 2100 
z
" transform="scale(0.015625)"/>
      </defs>
      <use xlink:href="#CMSS17-53" transform="scale(0.996264)"/>
      <use xlink:href="#CMSS17-74" transform="translate(52.048516 0) scale(0.996264)"/>
      <use xlink:href="#CMSS17-65" transform="translate(85.880083 0) scale(0.996264)"/>
      <use xlink:href="#CMSS17-70" transform="translate(127.518905 0) scale(0.996264)"/>
     </g>
    </g>
   </g>
   <g id="matplotlib.axis_2">
    <g id="ytick_1">
     <g id="line2d_7">
      <path d="M 89.353994 483.809244 
L 694.08 483.809244 
" clip-path="url(#p22e3f65112)" style="fill: none; stroke: #cccccc; stroke-linecap: round"/>
     </g>
     <g id="text_8">
      <!-- $\mathdefault{0.2}$ -->
      <g style="fill: #262626" transform="translate(53.788805 491.419591) scale(0.22 -0.22)">
       <defs>
        <path id="CMMI12-3a" d="M 1178 307 
C 1178 492 1024 619 870 619 
C 685 619 557 466 557 313 
C 557 128 710 0 864 0 
C 1050 0 1178 153 1178 307 
z
" transform="scale(0.015625)"/>
       </defs>
       <use xlink:href="#CMR17-30" transform="scale(0.996264)"/>
       <use xlink:href="#CMMI12-3a" transform="translate(45.690477 0) scale(0.996264)"/>
       <use xlink:href="#CMR17-32" transform="translate(72.787654 0) scale(0.996264)"/>
      </g>
     </g>
    </g>
    <g id="ytick_2">
     <g id="line2d_8">
      <path d="M 89.353994 402.210655 
L 694.08 402.210655 
" clip-path="url(#p22e3f65112)" style="fill: none; stroke: #cccccc; stroke-linecap: round"/>
     </g>
     <g id="text_9">
      <!-- $\mathdefault{0.3}$ -->
      <g style="fill: #262626" transform="translate(53.788805 409.821002) scale(0.22 -0.22)">
       <defs>
        <path id="CMR17-33" d="M 1414 2157 
C 1984 2157 2234 1662 2234 1090 
C 2234 320 1824 25 1453 25 
C 1114 25 563 194 390 693 
C 422 680 454 680 486 680 
C 640 680 755 782 755 948 
C 755 1133 614 1216 486 1216 
C 378 1216 211 1165 211 926 
C 211 335 787 -128 1466 -128 
C 2176 -128 2720 430 2720 1085 
C 2720 1707 2208 2157 1600 2227 
C 2086 2328 2554 2756 2554 3329 
C 2554 3820 2048 4179 1472 4179 
C 890 4179 378 3829 378 3329 
C 378 3110 544 3072 627 3072 
C 762 3072 877 3155 877 3321 
C 877 3486 762 3569 627 3569 
C 602 3569 570 3569 544 3557 
C 730 3959 1235 4032 1459 4032 
C 1683 4032 2106 3925 2106 3320 
C 2106 3143 2080 2828 1862 2550 
C 1670 2304 1453 2304 1242 2284 
C 1210 2284 1062 2269 1037 2269 
C 992 2263 966 2257 966 2208 
C 966 2163 973 2157 1101 2157 
L 1414 2157 
z
" transform="scale(0.015625)"/>
       </defs>
       <use xlink:href="#CMR17-30" transform="scale(0.996264)"/>
       <use xlink:href="#CMMI12-3a" transform="translate(45.690477 0) scale(0.996264)"/>
       <use xlink:href="#CMR17-33" transform="translate(72.787654 0) scale(0.996264)"/>
      </g>
     </g>
    </g>
    <g id="ytick_3">
     <g id="line2d_9">
      <path d="M 89.353994 320.612065 
L 694.08 320.612065 
" clip-path="url(#p22e3f65112)" style="fill: none; stroke: #cccccc; stroke-linecap: round"/>
     </g>
     <g id="text_10">
      <!-- $\mathdefault{0.4}$ -->
      <g style="fill: #262626" transform="translate(53.788805 328.222412) scale(0.22 -0.22)">
       <use xlink:href="#CMR17-30" transform="scale(0.996264)"/>
       <use xlink:href="#CMMI12-3a" transform="translate(45.690477 0) scale(0.996264)"/>
       <use xlink:href="#CMR17-34" transform="translate(72.787654 0) scale(0.996264)"/>
      </g>
     </g>
    </g>
    <g id="ytick_4">
     <g id="line2d_10">
      <path d="M 89.353994 239.013476 
L 694.08 239.013476 
" clip-path="url(#p22e3f65112)" style="fill: none; stroke: #cccccc; stroke-linecap: round"/>
     </g>
     <g id="text_11">
      <!-- $\mathdefault{0.5}$ -->
      <g style="fill: #262626" transform="translate(53.788805 246.623823) scale(0.22 -0.22)">
       <defs>
        <path id="CMR17-35" d="M 730 3692 
C 794 3666 1056 3584 1325 3584 
C 1920 3584 2246 3911 2432 4100 
C 2432 4157 2432 4192 2394 4192 
C 2387 4192 2374 4192 2323 4163 
C 2099 4058 1837 3973 1517 3973 
C 1325 3973 1037 3999 723 4139 
C 653 4171 640 4171 634 4171 
C 602 4171 595 4164 595 4037 
L 595 2203 
C 595 2089 595 2057 659 2057 
C 691 2057 704 2070 736 2114 
C 941 2401 1222 2522 1542 2522 
C 1766 2522 2246 2382 2246 1289 
C 2246 1085 2246 715 2054 421 
C 1894 159 1645 25 1370 25 
C 947 25 518 320 403 814 
C 429 807 480 795 506 795 
C 589 795 749 840 749 1038 
C 749 1210 627 1280 506 1280 
C 358 1280 262 1190 262 1011 
C 262 454 704 -128 1382 -128 
C 2042 -128 2669 440 2669 1264 
C 2669 2030 2170 2624 1549 2624 
C 1222 2624 947 2503 730 2274 
L 730 3692 
z
" transform="scale(0.015625)"/>
       </defs>
       <use xlink:href="#CMR17-30" transform="scale(0.996264)"/>
       <use xlink:href="#CMMI12-3a" transform="translate(45.690477 0) scale(0.996264)"/>
       <use xlink:href="#CMR17-35" transform="translate(72.787654 0) scale(0.996264)"/>
      </g>
     </g>
    </g>
    <g id="ytick_5">
     <g id="line2d_11">
      <path d="M 89.353994 157.414887 
L 694.08 157.414887 
" clip-path="url(#p22e3f65112)" style="fill: none; stroke: #cccccc; stroke-linecap: round"/>
     </g>
     <g id="text_12">
      <!-- $\mathdefault{0.6}$ -->
      <g style="fill: #262626" transform="translate(53.788805 165.025233) scale(0.22 -0.22)">
       <use xlink:href="#CMR17-30" transform="scale(0.996264)"/>
       <use xlink:href="#CMMI12-3a" transform="translate(45.690477 0) scale(0.996264)"/>
       <use xlink:href="#CMR17-36" transform="translate(72.787654 0) scale(0.996264)"/>
      </g>
     </g>
    </g>
    <g id="ytick_6">
     <g id="line2d_12">
      <path d="M 89.353994 75.816297 
L 694.08 75.816297 
" clip-path="url(#p22e3f65112)" style="fill: none; stroke: #cccccc; stroke-linecap: round"/>
     </g>
     <g id="text_13">
      <!-- $\mathdefault{0.7}$ -->
      <g style="fill: #262626" transform="translate(53.788805 83.426644) scale(0.22 -0.22)">
       <defs>
        <path id="CMR17-37" d="M 2886 3941 
L 2886 4081 
L 1382 4081 
C 634 4081 621 4165 595 4288 
L 480 4288 
L 294 3094 
L 410 3094 
C 429 3215 474 3540 550 3661 
C 589 3712 1062 3712 1171 3712 
L 2579 3712 
L 1869 2661 
C 1395 1954 1069 999 1069 165 
C 1069 89 1069 -128 1299 -128 
C 1530 -128 1530 89 1530 171 
L 1530 465 
C 1530 1508 1709 2196 2003 2636 
L 2886 3941 
z
" transform="scale(0.015625)"/>
       </defs>
       <use xlink:href="#CMR17-30" transform="scale(0.996264)"/>
       <use xlink:href="#CMMI12-3a" transform="translate(45.690477 0) scale(0.996264)"/>
       <use xlink:href="#CMR17-37" transform="translate(72.787654 0) scale(0.996264)"/>
      </g>
     </g>
    </g>
    <g id="text_14">
     <!-- Structural Similarity Index Measure (SSIM) -->
     <g style="fill: #262626" transform="translate(43.831226 476.142373) rotate(-90) scale(0.24 -0.24)">
      <defs>
       <path id="CMSS17-72" d="M 954 1363 
C 954 1965 1395 2368 1958 2368 
L 1958 2789 
C 1549 2789 1165 2585 934 2253 
L 934 2758 
L 480 2758 
L 480 0 
L 954 0 
L 954 1363 
z
" transform="scale(0.015625)"/>
       <path id="CMSS17-75" d="M 2618 2739 
L 2131 2739 
L 2131 972 
C 2131 498 1786 306 1421 306 
C 998 306 960 447 960 709 
L 960 2739 
L 474 2739 
L 474 678 
C 474 179 646 -64 1088 -64 
C 1306 -64 1798 -13 2144 306 
L 2144 0 
L 2618 0 
L 2618 2739 
z
" transform="scale(0.015625)"/>
       <path id="CMSS17-63" d="M 2464 2541 
C 2464 2585 2170 2714 2093 2739 
C 1882 2816 1613 2816 1542 2816 
C 710 2816 211 2093 211 1363 
C 211 595 768 -64 1517 -64 
C 1946 -64 2253 76 2502 242 
L 2464 664 
C 2189 453 1869 337 1523 337 
C 1024 337 698 774 698 1369 
C 698 1831 909 2414 1549 2414 
C 1901 2414 2099 2343 2394 2145 
L 2464 2541 
z
" transform="scale(0.015625)"/>
       <path id="CMSS17-61" d="M 2406 1791 
C 2406 2392 1978 2808 1402 2808 
C 1120 2808 813 2757 461 2553 
L 499 2135 
C 659 2248 934 2432 1395 2432 
C 1722 2432 1920 2180 1920 1782 
L 1920 1536 
C 896 1536 256 1238 256 726 
C 256 461 416 -64 947 -64 
C 1043 -64 1562 -64 1933 217 
L 1933 -19 
L 2406 -19 
L 2406 1791 
z
M 1920 816 
C 1920 701 1920 548 1728 434 
C 1562 325 1350 325 1261 325 
C 941 325 723 511 723 744 
C 723 1211 1722 1211 1920 1211 
L 1920 816 
z
" transform="scale(0.015625)"/>
       <path id="CMSS17-6c" d="M 947 4416 
L 474 4416 
L 474 0 
L 947 0 
L 947 4416 
z
" transform="scale(0.015625)"/>
       <path id="CMSS17-69" d="M 979 4183 
L 442 4183 
L 442 3648 
L 979 3648 
L 979 4183 
z
M 947 2739 
L 474 2739 
L 474 0 
L 947 0 
L 947 2739 
z
" transform="scale(0.015625)"/>
       <path id="CMSS17-6d" d="M 4288 1877 
C 4288 2308 4179 2816 3462 2816 
C 2982 2816 2694 2516 2566 2331 
C 2451 2670 2182 2816 1798 2816 
C 1363 2816 1088 2568 941 2389 
L 941 2758 
L 474 2758 
L 474 0 
L 960 0 
L 960 1559 
C 960 1939 1101 2428 1555 2428 
C 2138 2428 2138 2016 2138 1829 
L 2138 0 
L 2624 0 
L 2624 1559 
C 2624 1939 2765 2428 3219 2428 
C 3802 2428 3802 2016 3802 1829 
L 3802 0 
L 4288 0 
L 4288 1877 
z
" transform="scale(0.015625)"/>
       <path id="CMSS17-79" d="M 2675 2752 
L 2176 2752 
C 1632 1294 1446 702 1434 383 
L 1427 383 
C 1408 696 1126 1460 902 2007 
L 602 2752 
L 83 2752 
L 1216 13 
C 1146 -178 1043 -465 1011 -529 
C 870 -885 774 -885 672 -885 
C 646 -885 442 -885 211 -809 
L 250 -1229 
C 410 -1261 570 -1280 685 -1280 
C 845 -1280 1165 -1280 1459 -497 
L 2675 2752 
z
" transform="scale(0.015625)"/>
       <path id="CMSS17-49" d="M 1094 4416 
L 557 4416 
L 557 0 
L 1094 0 
L 1094 4416 
z
" transform="scale(0.015625)"/>
       <path id="CMSS17-6e" d="M 2618 1877 
C 2618 2283 2522 2816 1798 2816 
C 1389 2816 1120 2606 941 2389 
L 941 2758 
L 474 2758 
L 474 0 
L 960 0 
L 960 1559 
C 960 1964 1114 2428 1549 2428 
C 2112 2428 2131 2048 2131 1829 
L 2131 0 
L 2618 0 
L 2618 1877 
z
" transform="scale(0.015625)"/>
       <path id="CMSS17-64" d="M 2611 4416 
L 2138 4416 
L 2138 2438 
C 1939 2603 1613 2756 1254 2756 
C 672 2756 211 2131 211 1347 
C 211 562 666 -64 1235 -64 
C 1677 -64 1971 172 2125 306 
L 2125 -13 
L 2611 -13 
L 2611 4416 
z
M 2125 836 
C 2125 747 2125 653 1926 482 
C 1798 375 1645 325 1498 325 
C 1152 325 698 576 698 1340 
C 698 2134 1210 2368 1562 2368 
C 1798 2368 1990 2254 2125 2065 
L 2125 836 
z
" transform="scale(0.015625)"/>
       <path id="CMSS17-78" d="M 1587 1414 
L 2656 2739 
L 2099 2739 
L 1363 1777 
L 602 2739 
L 32 2739 
L 1139 1414 
L 0 0 
L 563 0 
L 1363 1121 
L 2195 0 
L 2758 0 
L 1587 1414 
z
" transform="scale(0.015625)"/>
       <path id="CMSS17-4d" d="M 3194 2371 
L 2886 1473 
C 2835 1307 2662 791 2624 587 
L 2618 587 
C 2598 715 2560 849 2458 1174 
C 2400 1365 2336 1562 2272 1741 
L 1325 4416 
L 576 4416 
L 576 0 
L 1075 0 
L 1075 3900 
L 1082 3900 
C 1082 3894 1139 3613 1530 2499 
L 2374 96 
L 2848 96 
L 3610 2231 
C 3661 2378 3821 2843 3891 3066 
C 3955 3257 4115 3728 4154 3913 
L 4160 3913 
L 4160 0 
L 4666 0 
L 4666 4416 
L 3923 4416 
L 3194 2371 
z
" transform="scale(0.015625)"/>
       <path id="CMSS17-73" d="M 2061 2627 
C 1683 2807 1389 2807 1197 2807 
C 742 2807 198 2648 198 2003 
C 198 1359 902 1218 1094 1179 
C 1389 1122 1715 1058 1715 740 
C 1715 337 1254 337 1171 337 
C 915 337 563 407 243 638 
L 166 210 
C 531 0 883 -64 1178 -64 
C 1965 -64 2163 416 2163 781 
C 2163 1094 1984 1305 1862 1401 
C 1651 1568 1574 1587 1050 1696 
C 960 1709 646 1779 646 2066 
C 646 2432 1050 2432 1139 2432 
C 1555 2432 1811 2303 1984 2208 
L 2061 2627 
z
" transform="scale(0.015625)"/>
       <path id="CMSS17-28" d="M 1613 4768 
C 1267 4417 474 3601 474 1588 
C 474 -433 1267 -1243 1613 -1600 
L 2003 -1600 
C 1216 -784 960 357 960 1581 
C 960 2798 1203 3946 2003 4768 
L 1613 4768 
z
" transform="scale(0.015625)"/>
       <path id="CMSS17-29" d="M 723 -1600 
C 1069 -1249 1862 -433 1862 1581 
C 1862 3601 1069 4411 723 4768 
L 333 4768 
C 1120 3952 1376 2811 1376 1588 
C 1376 370 1133 -778 333 -1600 
L 723 -1600 
z
" transform="scale(0.015625)"/>
      </defs>
      <use xlink:href="#CMSS17-53" transform="scale(0.996264)"/>
      <use xlink:href="#CMSS17-74" transform="translate(52.048516 0) scale(0.996264)"/>
      <use xlink:href="#CMSS17-72" transform="translate(85.880083 0) scale(0.996264)"/>
      <use xlink:href="#CMSS17-75" transform="translate(117.789855 0) scale(0.996264)"/>
      <use xlink:href="#CMSS17-63" transform="translate(165.994799 0) scale(0.996264)"/>
      <use xlink:href="#CMSS17-74" transform="translate(207.633621 0) scale(0.996264)"/>
      <use xlink:href="#CMSS17-75" transform="translate(241.465187 0) scale(0.996264)"/>
      <use xlink:href="#CMSS17-72" transform="translate(289.67013 0) scale(0.996264)"/>
      <use xlink:href="#CMSS17-61" transform="translate(321.579903 0) scale(0.996264)"/>
      <use xlink:href="#CMSS17-6c" transform="translate(366.501824 0) scale(0.996264)"/>
      <use xlink:href="#CMSS17-53" transform="translate(419.911659 0) scale(0.996264)"/>
      <use xlink:href="#CMSS17-69" transform="translate(471.960176 0) scale(0.996264)"/>
      <use xlink:href="#CMSS17-6d" transform="translate(494.140899 0) scale(0.996264)"/>
      <use xlink:href="#CMSS17-69" transform="translate(568.370153 0) scale(0.996264)"/>
      <use xlink:href="#CMSS17-6c" transform="translate(590.550876 0) scale(0.996264)"/>
      <use xlink:href="#CMSS17-61" transform="translate(612.731599 0) scale(0.996264)"/>
      <use xlink:href="#CMSS17-72" transform="translate(655.051066 0) scale(0.996264)"/>
      <use xlink:href="#CMSS17-69" transform="translate(686.960838 0) scale(0.996264)"/>
      <use xlink:href="#CMSS17-74" transform="translate(709.141561 0) scale(0.996264)"/>
      <use xlink:href="#CMSS17-79" transform="translate(740.370674 0) scale(0.996264)"/>
      <use xlink:href="#CMSS17-49" transform="translate(814.599929 0) scale(0.996264)"/>
      <use xlink:href="#CMSS17-6e" transform="translate(840.383854 0) scale(0.996264)"/>
      <use xlink:href="#CMSS17-64" transform="translate(888.588797 0) scale(0.996264)"/>
      <use xlink:href="#CMSS17-65" transform="translate(936.79374 0) scale(0.996264)"/>
      <use xlink:href="#CMSS17-78" transform="translate(978.432562 0) scale(0.996264)"/>
      <use xlink:href="#CMSS17-4d" transform="translate(1052.661817 0) scale(0.996264)"/>
      <use xlink:href="#CMSS17-65" transform="translate(1134.337847 0) scale(0.996264)"/>
      <use xlink:href="#CMSS17-61" transform="translate(1175.976669 0) scale(0.996264)"/>
      <use xlink:href="#CMSS17-73" transform="translate(1220.89859 0) scale(0.996264)"/>
      <use xlink:href="#CMSS17-75" transform="translate(1256.812132 0) scale(0.996264)"/>
      <use xlink:href="#CMSS17-72" transform="translate(1305.017075 0) scale(0.996264)"/>
      <use xlink:href="#CMSS17-65" transform="translate(1336.926847 0) scale(0.996264)"/>
      <use xlink:href="#CMSS17-28" transform="translate(1409.794782 0) scale(0.996264)"/>
      <use xlink:href="#CMSS17-53" transform="translate(1446.228696 0) scale(0.996264)"/>
      <use xlink:href="#CMSS17-53" transform="translate(1498.277212 0) scale(0.996264)"/>
      <use xlink:href="#CMSS17-49" transform="translate(1550.325729 0) scale(0.996264)"/>
      <use xlink:href="#CMSS17-4d" transform="translate(1576.109654 0) scale(0.996264)"/>
      <use xlink:href="#CMSS17-29" transform="translate(1657.785684 0) scale(0.996264)"/>
     </g>
    </g>
   </g>
   <g id="PolyCollection_1">
    <defs>
     <path id="maf45cd4c6e" d="M 116.84154 -307.12144 
L 116.84154 -274.074012 
L 122.394579 -302.470321 
L 127.947619 -304.591884 
L 133.500658 -310.303785 
L 139.053698 -310.711778 
L 144.606737 -310.711778 
L 150.159777 -304.183891 
L 155.712816 -313.567729 
L 161.265856 -304.918278 
L 166.818895 -311.282968 
L 172.371935 -312.588546 
L 177.924975 -320.177215 
L 183.478014 -320.585207 
L 189.031054 -323.604355 
L 194.584093 -323.604355 
L 200.137133 -323.604355 
L 205.690172 -323.604355 
L 211.243212 -323.604355 
L 216.796251 -323.604355 
L 222.349291 -323.604355 
L 227.90233 -323.604355 
L 233.45537 -320.748405 
L 239.00841 -322.135581 
L 244.561449 -332.498602 
L 250.114489 -332.906594 
L 255.667528 -332.906594 
L 261.220568 -332.906594 
L 266.773607 -332.906594 
L 272.326647 -339.51608 
L 277.879686 -342.372031 
L 283.432726 -342.208834 
L 288.985765 -343.677608 
L 294.538805 -352.490256 
L 300.091844 -359.670932 
L 305.644884 -337.476115 
L 311.197924 -351.511073 
L 316.750963 -350.53189 
L 322.304003 -338.536897 
L 327.857042 -341.229651 
L 333.410082 -341.556045 
L 338.963121 -337.476115 
L 344.516161 -330.948228 
L 350.0692 -328.173876 
L 355.62224 -328.581869 
L 361.175279 -324.420341 
L 366.728319 -320.666806 
L 372.281359 -326.052313 
L 377.834398 -326.052313 
L 383.387438 -316.505278 
L 388.940477 -330.050644 
L 394.493517 -110.142445 
L 400.046556 -118.302304 
L 405.599596 -121.974241 
L 411.152635 -125.074987 
L 416.705675 -122.137438 
L 422.258714 -124.830192 
L 427.811754 -129.726107 
L 433.364793 -126.543762 
L 438.917833 -126.217368 
L 444.470873 -128.665325 
L 450.023912 -131.684473 
L 455.576952 -134.948417 
L 461.129991 -133.887635 
L 466.683031 -134.050832 
L 472.23607 -134.948417 
L 477.78911 -133.153248 
L 483.342149 -132.99005 
L 488.895189 -132.908452 
L 494.448228 -133.479642 
L 500.001268 -133.071649 
L 505.554308 -139.436339 
L 511.107347 -147.514599 
L 516.660387 -150.452149 
L 522.213426 -151.757726 
L 527.766466 -159.917585 
L 533.319505 -172.075775 
L 538.872545 -169.872613 
L 544.425584 -172.157373 
L 549.978624 -172.075775 
L 555.531663 -171.994176 
L 561.084703 -175.910908 
L 566.637743 -175.992507 
L 572.190782 -174.360535 
L 577.743822 -173.462951 
L 583.296861 -175.421317 
L 588.849901 -176.645296 
L 594.40294 -175.666113 
L 599.95598 -175.82931 
L 605.509019 -174.034141 
L 611.062059 -173.218155 
L 616.615098 -181.786007 
L 622.168138 -188.313894 
L 627.721177 -191.169845 
L 633.274217 -183.173183 
L 638.827257 -174.931725 
L 644.380296 -178.032472 
L 649.933336 -182.520394 
L 655.486375 -182.357197 
L 661.039415 -183.173183 
L 666.592454 -193.046612 
L 666.592454 -217.44459 
L 666.592454 -217.44459 
L 661.039415 -226.094041 
L 655.486375 -254.735146 
L 649.933336 -266.566941 
L 644.380296 -261.507829 
L 638.827257 -270.157279 
L 633.274217 -289.169751 
L 627.721177 -287.048187 
L 622.168138 -291.699307 
L 616.615098 -293.494476 
L 611.062059 -283.784244 
L 605.509019 -273.339624 
L 599.95598 -257.835892 
L 594.40294 -256.040723 
L 588.849901 -251.389604 
L 583.296861 -254.327153 
L 577.743822 -250.084026 
L 572.190782 -244.616921 
L 566.637743 -248.044062 
L 561.084703 -248.533653 
L 555.531663 -251.308005 
L 549.978624 -253.184773 
L 544.425584 -254.979942 
L 538.872545 -256.611913 
L 533.319505 -251.960794 
L 527.766466 -240.61859 
L 522.213426 -233.927506 
L 516.660387 -225.033259 
L 511.107347 -226.094041 
L 505.554308 -219.239759 
L 500.001268 -218.586971 
L 494.448228 -216.710203 
L 488.895189 -214.996633 
L 483.342149 -205.612795 
L 477.78911 -205.857591 
L 472.23607 -189.374676 
L 466.683031 -174.605331 
L 461.129991 -167.424655 
L 455.576952 -160.488775 
L 450.023912 -162.202345 
L 444.470873 -165.955881 
L 438.917833 -157.551226 
L 433.364793 -151.920923 
L 427.811754 -149.962557 
L 422.258714 -146.127423 
L 416.705675 -151.186536 
L 411.152635 -154.205684 
L 405.599596 -149.22817 
L 400.046556 -142.781881 
L 394.493517 -128.665325 
L 388.940477 -499.122921 
L 383.387438 -505.895604 
L 377.834398 -505.487611 
L 372.281359 -492.513435 
L 366.728319 -477.988886 
L 361.175279 -486.556738 
L 355.62224 -476.438513 
L 350.0692 -432.783268 
L 344.516161 -430.008916 
L 338.963121 -423.725824 
L 333.410082 -422.82824 
L 327.857042 -432.701669 
L 322.304003 -426.908169 
L 316.750963 -408.140494 
L 311.197924 -413.689198 
L 305.644884 -411.81243 
L 300.091844 -409.282874 
L 294.538805 -408.711684 
L 288.985765 -407.732501 
L 283.432726 -410.09886 
L 277.879686 -409.935663 
L 272.326647 -409.772466 
L 266.773607 -408.38529 
L 261.220568 -425.276198 
L 255.667528 -424.705008 
L 250.114489 -424.786606 
L 244.561449 -426.908169 
L 239.00841 -433.028064 
L 233.45537 -433.354458 
L 227.90233 -422.82824 
L 222.349291 -413.281205 
L 216.796251 -416.137156 
L 211.243212 -420.951472 
L 205.690172 -420.461881 
L 200.137133 -420.461881 
L 194.584093 -415.973958 
L 189.031054 -418.095522 
L 183.478014 -412.138825 
L 177.924975 -406.834916 
L 172.371935 -387.251255 
L 166.818895 -386.353671 
L 161.265856 -383.905713 
L 155.712816 -366.362016 
L 150.159777 -363.424467 
L 144.606737 -354.938214 
L 139.053698 -343.432813 
L 133.500658 -343.677608 
L 127.947619 -342.861622 
L 122.394579 -325.807517 
L 116.84154 -307.12144 
z
" style="stroke: #ffffff; stroke-opacity: 0.2"/>
    </defs>
    <g clip-path="url(#p22e3f65112)">
     <use xlink:href="#maf45cd4c6e" x="0" y="576" style="fill: #4c72b0; fill-opacity: 0.2; stroke: #ffffff; stroke-opacity: 0.2"/>
    </g>
   </g>
   <g id="PolyCollection_2">
    <defs>
     <path id="m32e7bb8737" d="M 116.84154 -310.222187 
L 116.84154 -287.619377 
L 122.394579 -279.704314 
L 127.947619 -299.61437 
L 133.500658 -316.586877 
L 139.053698 -316.913271 
L 144.606737 -324.175545 
L 150.159777 -320.585207 
L 155.712816 -320.014017 
L 161.265856 -318.871637 
L 166.818895 -327.031496 
L 172.371935 -329.234658 
L 177.924975 -336.252137 
L 183.478014 -332.498602 
L 189.031054 -336.496932 
L 194.584093 -336.741728 
L 200.137133 -335.925742 
L 205.690172 -336.741728 
L 211.243212 -336.741728 
L 216.796251 -339.597679 
L 222.349291 -339.597679 
L 227.90233 -339.597679 
L 233.45537 -339.352883 
L 239.00841 -339.924073 
L 244.561449 -338.128904 
L 250.114489 -338.455299 
L 255.667528 -337.884108 
L 261.220568 -339.108087 
L 266.773607 -338.700094 
L 272.326647 -338.536897 
L 277.879686 -338.3737 
L 283.432726 -333.15139 
L 288.985765 -328.255475 
L 294.538805 -328.173876 
L 300.091844 -331.193024 
L 305.644884 -337.884108 
L 311.197924 -343.59601 
L 316.750963 -343.514411 
L 322.304003 -345.227981 
L 327.857042 -349.634305 
L 333.410082 -342.861622 
L 338.963121 -378.357009 
L 344.516161 -376.480241 
L 350.0692 -373.950685 
L 355.62224 -369.299565 
L 361.175279 -370.19715 
L 366.728319 -368.973171 
L 372.281359 -377.377826 
L 377.834398 -365.54603 
L 383.387438 -362.934875 
L 388.940477 -362.037291 
L 394.493517 -100.432213 
L 400.046556 -105.81772 
L 405.599596 -118.465502 
L 411.152635 -123.851008 
L 416.705675 -127.196551 
L 422.258714 -128.502128 
L 427.811754 -132.010867 
L 433.364793 -132.092466 
L 438.917833 -144.985043 
L 444.470873 -147.922592 
L 450.023912 -149.554564 
L 455.576952 -148.493782 
L 461.129991 -145.882628 
L 466.683031 -145.71943 
L 472.23607 -154.776874 
L 477.78911 -160.080782 
L 483.342149 -160.570374 
L 488.895189 -160.651972 
L 494.448228 -169.872613 
L 500.001268 -173.544549 
L 505.554308 -176.318901 
L 511.107347 -175.013324 
L 516.660387 -178.11407 
L 522.213426 -168.975028 
L 527.766466 -163.507923 
L 533.319505 -154.776874 
L 538.872545 -148.983374 
L 544.425584 -135.9276 
L 549.978624 -131.929269 
L 555.531663 -132.500459 
L 561.084703 -128.012537 
L 566.637743 -129.970903 
L 572.190782 -130.052501 
L 577.743822 -130.378896 
L 583.296861 -130.786889 
L 588.849901 -126.706959 
L 594.40294 -126.380565 
L 599.95598 -126.870156 
L 605.509019 -130.297297 
L 611.062059 -131.766072 
L 616.615098 -132.010867 
L 622.168138 -129.644508 
L 627.721177 -127.849339 
L 633.274217 -125.48298 
L 638.827257 -124.666994 
L 644.380296 -132.500459 
L 649.933336 -135.846001 
L 655.486375 -135.764403 
L 661.039415 -137.477973 
L 666.592454 -138.701952 
L 666.592454 -200.635281 
L 666.592454 -200.635281 
L 661.039415 -206.591978 
L 655.486375 -207.815957 
L 649.933336 -214.996633 
L 644.380296 -220.95333 
L 638.827257 -219.729351 
L 633.274217 -229.847576 
L 627.721177 -236.375463 
L 622.168138 -237.273048 
L 616.615098 -236.049069 
L 611.062059 -216.791802 
L 605.509019 -214.01745 
L 599.95598 -201.206471 
L 594.40294 -200.961675 
L 588.849901 -201.940859 
L 583.296861 -202.756844 
L 577.743822 -203.491232 
L 572.190782 -190.27226 
L 566.637743 -186.355528 
L 561.084703 -192.149028 
L 555.531663 -184.152366 
L 549.978624 -183.581176 
L 544.425584 -194.841781 
L 538.872545 -188.803486 
L 533.319505 -188.232295 
L 527.766466 -177.869275 
L 522.213426 -186.192331 
L 516.660387 -188.55869 
L 511.107347 -200.635281 
L 505.554308 -201.777661 
L 500.001268 -200.71688 
L 494.448228 -200.472084 
L 488.895189 -193.128211 
L 483.342149 -198.921711 
L 477.78911 -198.921711 
L 472.23607 -198.595316 
L 466.683031 -197.77933 
L 461.129991 -197.452936 
L 455.576952 -196.881746 
L 450.023912 -201.940859 
L 444.470873 -196.310556 
L 438.917833 -196.718549 
L 433.364793 -176.808493 
L 427.811754 -169.056627 
L 422.258714 -167.098261 
L 416.705675 -149.064973 
L 411.152635 -135.519607 
L 405.599596 -127.849339 
L 400.046556 -124.095804 
L 394.493517 -121.566248 
L 388.940477 -423.481029 
L 383.387438 -427.316162 
L 377.834398 -428.295345 
L 372.281359 -425.765789 
L 366.728319 -419.809092 
L 361.175279 -421.277867 
L 355.62224 -423.725824 
L 350.0692 -425.520993 
L 344.516161 -426.744972 
L 338.963121 -427.152965 
L 333.410082 -427.071367 
L 327.857042 -427.805754 
L 322.304003 -435.312824 
L 316.750963 -421.359465 
L 311.197924 -435.476021 
L 305.644884 -427.560958 
L 300.091844 -422.746641 
L 294.538805 -428.784937 
L 288.985765 -419.156303 
L 283.432726 -412.465219 
L 277.879686 -412.383621 
L 272.326647 -411.404437 
L 266.773607 -394.350332 
L 261.220568 -394.431931 
L 255.667528 -392.14717 
L 250.114489 -389.86241 
L 244.561449 -393.126353 
L 239.00841 -394.350332 
L 233.45537 -403.407776 
L 227.90233 -398.022269 
L 222.349291 -387.659248 
L 216.796251 -387.577649 
L 211.243212 -381.376157 
L 205.690172 -381.702551 
L 200.137133 -392.636762 
L 194.584093 -391.331184 
L 189.031054 -395.411114 
L 183.478014 -393.942339 
L 177.924975 -393.860741 
L 172.371935 -389.046424 
L 166.818895 -387.577649 
L 161.265856 -387.414452 
L 155.712816 -378.27541 
L 150.159777 -375.011467 
L 144.606737 -368.401981 
L 139.053698 -363.179671 
L 133.500658 -344.248798 
L 127.947619 -329.234658 
L 122.394579 -327.276292 
L 116.84154 -310.222187 
z
" style="stroke: #ffffff; stroke-opacity: 0.2"/>
    </defs>
    <g clip-path="url(#p22e3f65112)">
     <use xlink:href="#m32e7bb8737" x="0" y="576" style="fill: #dd8452; fill-opacity: 0.2; stroke: #ffffff; stroke-opacity: 0.2"/>
    </g>
   </g>
   <g id="PolyCollection_3">
    <defs>
     <path id="m49342bb6f4" d="M 116.84154 -295.044849 
L 116.84154 -267.954117 
L 122.394579 -285.008223 
L 127.947619 -307.203039 
L 133.500658 -309.814194 
L 139.053698 -306.631849 
L 144.606737 -309.732595 
L 150.159777 -314.873306 
L 155.712816 -314.954905 
L 161.265856 -314.954905 
L 166.818895 -314.954905 
L 172.371935 -317.239665 
L 177.924975 -317.402863 
L 183.478014 -314.465313 
L 189.031054 -319.524426 
L 194.584093 -319.524426 
L 200.137133 -321.645989 
L 205.690172 -321.645989 
L 211.243212 -326.052313 
L 216.796251 -330.377038 
L 222.349291 -330.540235 
L 227.90233 -336.66013 
L 233.45537 -338.781693 
L 239.00841 -347.104749 
L 244.561449 -335.762545 
L 250.114489 -337.394517 
L 255.667528 -331.519418 
L 261.220568 -325.889116 
L 266.773607 -317.647658 
L 272.326647 -334.456968 
L 277.879686 -332.498602 
L 283.432726 -332.743397 
L 288.985765 -332.743397 
L 294.538805 -332.5802 
L 300.091844 -335.272954 
L 305.644884 -342.861622 
L 311.197924 -345.391179 
L 316.750963 -342.453629 
L 322.304003 -341.474446 
L 327.857042 -331.845813 
L 333.410082 -340.740059 
L 338.963121 -344.656791 
L 344.516161 -344.575193 
L 350.0692 -344.575193 
L 355.62224 -351.10308 
L 361.175279 -352.735052 
L 366.728319 -353.469439 
L 372.281359 -367.585995 
L 377.834398 -358.283756 
L 383.387438 -352.408657 
L 388.940477 -372.318713 
L 394.493517 -105.409727 
L 400.046556 -111.529621 
L 405.599596 -117.812713 
L 411.152635 -119.199889 
L 416.705675 -121.158255 
L 422.258714 -120.587065 
L 427.811754 -122.055839 
L 433.364793 -123.687811 
L 438.917833 -130.052501 
L 444.470873 -128.094135 
L 450.023912 -125.401382 
L 455.576952 -125.156586 
L 461.129991 -128.502128 
L 466.683031 -131.521276 
L 472.23607 -133.806036 
L 477.78911 -133.806036 
L 483.342149 -133.806036 
L 488.895189 -134.295628 
L 494.448228 -129.889304 
L 500.001268 -126.788558 
L 505.554308 -135.111614 
L 511.107347 -129.807705 
L 516.660387 -130.950086 
L 522.213426 -137.314776 
L 527.766466 -141.639501 
L 533.319505 -142.537085 
L 538.872545 -146.617015 
L 544.425584 -148.575381 
L 549.978624 -147.025008 
L 555.531663 -147.025008 
L 561.084703 -142.373888 
L 566.637743 -142.700283 
L 572.190782 -142.618684 
L 577.743822 -138.865149 
L 583.296861 -134.703621 
L 588.849901 -133.398043 
L 594.40294 -138.946748 
L 599.95598 -139.191543 
L 605.509019 -138.457156 
L 611.062059 -136.825184 
L 616.615098 -134.703621 
L 622.168138 -151.839325 
L 627.721177 -153.879289 
L 633.274217 -163.018331 
L 638.827257 -165.303092 
L 644.380296 -159.101599 
L 649.933336 -167.587852 
L 655.486375 -168.730233 
L 661.039415 -160.162381 
L 666.592454 -161.467958 
L 666.592454 -216.057414 
L 666.592454 -216.057414 
L 661.039415 -207.734358 
L 655.486375 -209.774323 
L 649.933336 -199.900894 
L 644.380296 -205.367999 
L 638.827257 -201.043274 
L 633.274217 -202.267253 
L 627.721177 -215.404626 
L 622.168138 -212.711872 
L 616.615098 -218.423774 
L 611.062059 -212.303879 
L 605.509019 -217.852583 
L 599.95598 -208.22395 
L 594.40294 -190.109063 
L 588.849901 -187.742704 
L 583.296861 -189.12988 
L 577.743822 -182.275598 
L 572.190782 -180.398831 
L 566.637743 -184.968352 
L 561.084703 -195.412971 
L 555.531663 -200.798478 
L 549.978624 -202.756844 
L 544.425584 -206.755175 
L 538.872545 -205.694394 
L 533.319505 -200.71688 
L 527.766466 -199.166506 
L 522.213426 -201.940859 
L 516.660387 -204.307218 
L 511.107347 -206.755175 
L 505.554308 -212.793471 
L 500.001268 -215.894217 
L 494.448228 -225.196456 
L 488.895189 -221.198126 
L 483.342149 -216.954999 
L 477.78911 -216.383809 
L 472.23607 -210.100717 
L 466.683031 -191.333042 
L 461.129991 -187.661105 
L 455.576952 -184.560359 
L 450.023912 -171.586183 
L 444.470873 -165.874282 
L 438.917833 -162.936733 
L 433.364793 -152.818508 
L 427.811754 -145.882628 
L 422.258714 -141.231508 
L 416.705675 -141.149909 
L 411.152635 -139.191543 
L 405.599596 -135.438008 
L 400.046556 -124.830192 
L 394.493517 -115.038361 
L 388.940477 -428.213747 
L 383.387438 -410.588452 
L 377.834398 -416.300353 
L 372.281359 -419.972289 
L 366.728319 -407.079712 
L 361.175279 -406.998114 
L 355.62224 -397.859072 
L 350.0692 -402.346994 
L 344.516161 -401.775804 
L 338.963121 -404.468557 
L 333.410082 -413.362804 
L 327.857042 -415.402768 
L 322.304003 -412.791614 
L 316.750963 -421.033071 
L 311.197924 -417.197937 
L 305.644884 -417.60593 
L 300.091844 -418.013923 
L 294.538805 -412.954811 
L 288.985765 -409.364473 
L 283.432726 -409.772466 
L 277.879686 -409.038078 
L 272.326647 -395.247917 
L 266.773607 -380.233776 
L 261.220568 -358.528552 
L 255.667528 -365.790826 
L 250.114489 -367.585995 
L 244.561449 -361.384502 
L 239.00841 -369.870755 
L 233.45537 -382.518537 
L 227.90233 -389.29122 
L 222.349291 -396.471896 
L 216.796251 -408.630085 
L 211.243212 -414.74998 
L 205.690172 -414.831578 
L 200.137133 -414.913177 
L 194.584093 -413.362804 
L 189.031054 -414.505184 
L 183.478014 -413.199606 
L 177.924975 -409.038078 
L 172.371935 -400.796621 
L 166.818895 -398.185466 
L 161.265856 -394.431931 
L 155.712816 -384.313706 
L 150.159777 -376.235445 
L 144.606737 -366.443615 
L 139.053698 -366.606812 
L 133.500658 -366.11722 
L 127.947619 -365.872425 
L 122.394579 -345.146383 
L 116.84154 -295.044849 
z
" style="stroke: #ffffff; stroke-opacity: 0.2"/>
    </defs>
    <g clip-path="url(#p22e3f65112)">
     <use xlink:href="#m49342bb6f4" x="0" y="576" style="fill: #55a868; fill-opacity: 0.2; stroke: #ffffff; stroke-opacity: 0.2"/>
    </g>
   </g>
   <g id="line2d_13">
    <path d="M 116.84154 287.140324 
L 122.394579 263.362495 
L 127.947619 254.337691 
L 133.500658 249.637612 
L 139.053698 250.110884 
L 144.606737 247.679246 
L 150.159777 253.342188 
L 155.712816 243.240283 
L 161.265856 238.491245 
L 166.818895 230.445624 
L 172.371935 229.564359 
L 177.924975 222.971193 
L 183.478014 221.714575 
L 189.031054 216.116912 
L 194.584093 214.207505 
L 200.137133 210.861963 
L 205.690172 208.332406 
L 211.243212 208.740399 
L 216.796251 209.931739 
L 222.349291 211.449473 
L 227.90233 206.488278 
L 233.45537 203.224335 
L 239.00841 203.175376 
L 244.561449 200.564221 
L 250.114489 199.193364 
L 255.667528 201.576043 
L 261.220568 202.604185 
L 266.773607 210.43765 
L 272.326647 210.209174 
L 277.879686 208.903597 
L 283.432726 202.179873 
L 288.985765 198.181542 
L 294.538805 194.868639 
L 300.091844 191.261982 
L 305.644884 196.157897 
L 311.197924 196.272135 
L 316.750963 201.331247 
L 322.304003 200.433663 
L 327.857042 192.632838 
L 333.410082 197.904107 
L 338.963121 190.086962 
L 344.516161 186.839338 
L 350.0692 189.075139 
L 355.62224 174.844345 
L 361.175279 170.715457 
L 366.728319 172.983897 
L 372.281359 163.697978 
L 377.834398 160.172919 
L 383.387438 155.831874 
L 388.940477 152.682168 
L 394.493517 457.485539 
L 400.046556 447.514192 
L 405.599596 442.438759 
L 411.152635 436.449423 
L 416.705675 436.449423 
L 422.258714 438.799462 
L 427.811754 437.591803 
L 433.364793 435.894553 
L 438.917833 433.462915 
L 444.470873 426.037443 
L 450.023912 424.45443 
L 455.576952 423.769002 
L 461.129991 421.908554 
L 466.683031 416.653605 
L 472.23607 411.578173 
L 477.78911 407.7104 
L 483.342149 407.008652 
L 488.895189 405.996829 
L 494.448228 404.152701 
L 500.001268 402.50441 
L 505.554308 401.851621 
L 511.107347 396.955706 
L 516.660387 392.141389 
L 522.213426 388.60001 
L 527.766466 385.009672 
L 533.319505 380.472791 
L 538.872545 379.95056 
L 544.425584 378.18803 
L 549.978624 376.768215 
L 555.531663 372.100775 
L 561.084703 362.798536 
L 566.637743 360.399538 
L 572.190782 360.317939 
L 577.743822 357.918941 
L 583.296861 360.25266 
L 588.849901 359.012362 
L 594.40294 359.420355 
L 599.95598 358.751246 
L 605.509019 359.893626 
L 611.062059 360.530095 
L 616.615098 357.36407 
L 622.168138 354.720276 
L 627.721177 355.291466 
L 633.274217 355.666819 
L 638.827257 361.133925 
L 644.380296 362.341584 
L 649.933336 361.868312 
L 655.486375 365.638167 
L 661.039415 372.312932 
L 666.592454 373.732747 
" clip-path="url(#p22e3f65112)" style="fill: none; stroke: #4c72b0; stroke-width: 1.5; stroke-linecap: round"/>
   </g>
   <g id="line2d_14">
    <path d="M 116.84154 277.838085 
L 122.394579 266.218446 
L 127.947619 257.86275 
L 133.500658 246.145193 
L 139.053698 238.882918 
L 144.606737 234.199159 
L 150.159777 237.299906 
L 155.712816 235.472097 
L 161.265856 233.105738 
L 166.818895 226.463613 
L 172.371935 225.223314 
L 177.924975 217.797843 
L 183.478014 219.11974 
L 189.031054 219.005502 
L 194.584093 218.042639 
L 200.137133 215.888436 
L 205.690172 217.520408 
L 211.243212 218.287434 
L 216.796251 215.023491 
L 222.349291 213.864791 
L 227.90233 210.209174 
L 233.45537 209.409508 
L 239.00841 208.397685 
L 244.561449 208.658801 
L 250.114489 210.600847 
L 255.667528 209.523746 
L 261.220568 207.810175 
L 266.773607 209.099433 
L 272.326647 206.471959 
L 277.879686 199.682956 
L 283.432726 202.35939 
L 288.985765 203.828164 
L 294.538805 202.653145 
L 300.091844 199.128086 
L 305.644884 192.110607 
L 311.197924 185.321604 
L 316.750963 188.569228 
L 322.304003 185.125768 
L 327.857042 189.368894 
L 333.410082 191.196703 
L 338.963121 183.102123 
L 344.516161 180.539927 
L 350.0692 179.462825 
L 355.62224 182.726769 
L 361.175279 183.901789 
L 366.728319 186.969896 
L 372.281359 181.992382 
L 377.834398 186.676141 
L 383.387438 181.976062 
L 388.940477 183.591714 
L 394.493517 466.004432 
L 400.046556 459.427586 
L 405.599596 451.479883 
L 411.152635 448.591293 
L 416.705675 441.426937 
L 422.258714 435.062247 
L 427.811754 427.865251 
L 433.364793 424.340192 
L 438.917833 415.168511 
L 444.470873 408.656943 
L 450.023912 401.655784 
L 455.576952 400.513404 
L 461.129991 398.293923 
L 466.683031 397.233141 
L 472.23607 394.589347 
L 477.78911 394.165034 
L 483.342149 394.866782 
L 488.895189 396.857787 
L 494.448228 391.586518 
L 500.001268 390.068785 
L 505.554308 386.87012 
L 511.107347 392.108749 
L 516.660387 395.601169 
L 522.213426 399.077269 
L 527.766466 402.749206 
L 533.319505 401.998498 
L 538.872545 405.262442 
L 544.425584 409.244453 
L 549.978624 410.56635 
L 555.531663 411.284418 
L 561.084703 408.607984 
L 566.637743 409.521888 
L 572.190782 411.006983 
L 577.743822 408.444787 
L 583.296861 410.174677 
L 588.849901 412.279921 
L 594.40294 412.508397 
L 599.95598 413.748695 
L 605.509019 413.210145 
L 611.062059 412.32888 
L 616.615098 409.195494 
L 622.168138 409.864603 
L 627.721177 409.179174 
L 633.274217 410.403153 
L 638.827257 407.302407 
L 644.380296 404.446456 
L 649.933336 406.274265 
L 655.486375 406.372183 
L 661.039415 404.593334 
L 666.592454 405.36036 
" clip-path="url(#p22e3f65112)" style="fill: none; stroke: #dd8452; stroke-width: 1.5; stroke-linecap: round"/>
   </g>
   <g id="line2d_15">
    <path d="M 116.84154 294.467877 
L 122.394579 260.19647 
L 127.947619 249.099062 
L 133.500658 244.627459 
L 139.053698 244.953853 
L 144.606737 239.274592 
L 150.159777 226.006661 
L 155.712816 223.248629 
L 161.265856 223.526064 
L 166.818895 222.791676 
L 172.371935 220.751712 
L 177.924975 217.830482 
L 183.478014 219.005502 
L 189.031054 215.64364 
L 194.584093 215.007171 
L 200.137133 216.280109 
L 205.690172 212.77137 
L 211.243212 210.861963 
L 216.796251 211.873785 
L 222.349291 214.648137 
L 227.90233 216.312748 
L 233.45537 216.671782 
L 239.00841 217.063455 
L 244.561449 223.75454 
L 250.114489 227.720231 
L 255.667528 227.965027 
L 261.220568 231.930718 
L 266.773607 233.57901 
L 272.326647 221.632976 
L 277.879686 215.203008 
L 283.432726 213.489437 
L 288.985765 213.93007 
L 294.538805 212.510254 
L 300.091844 199.927752 
L 305.644884 194.591204 
L 311.197924 187.100453 
L 316.750963 187.85116 
L 322.304003 189.63001 
L 327.857042 190.494955 
L 333.410082 188.014358 
L 338.963121 189.352575 
L 344.516161 195.211353 
L 350.0692 194.558565 
L 355.62224 191.800532 
L 361.175279 190.086962 
L 366.728319 193.612021 
L 372.281359 182.449334 
L 377.834398 192.388042 
L 383.387438 194.068973 
L 388.940477 183.689632 
L 394.493517 465.645398 
L 400.046556 458.105689 
L 405.599596 451.365645 
L 411.152635 448.297538 
L 416.705675 445.621104 
L 422.258714 444.72352 
L 427.811754 441.916528 
L 433.364793 438.195633 
L 438.917833 434.654254 
L 444.470873 434.588975 
L 450.023912 429.219788 
L 455.576952 423.589485 
L 461.129991 418.938366 
L 466.683031 416.147694 
L 472.23607 408.656943 
L 477.78911 407.596162 
L 483.342149 405.229803 
L 488.895189 402.031138 
L 494.448228 401.9169 
L 500.001268 403.597831 
L 505.554308 401.476268 
L 511.107347 405.213483 
L 516.660387 407.10657 
L 522.213426 409.962521 
L 527.766466 412.018805 
L 533.319505 403.09192 
L 538.872545 400.301248 
L 544.425584 402.275934 
L 549.978624 403.973184 
L 555.531663 403.940545 
L 561.084703 407.041291 
L 566.637743 407.808318 
L 572.190782 408.216311 
L 577.743822 408.918059 
L 583.296861 406.894414 
L 588.849901 405.066605 
L 594.40294 400.7582 
L 599.95598 398.718235 
L 605.509019 399.04463 
L 611.062059 399.175187 
L 616.615098 401.655784 
L 622.168138 400.464445 
L 627.721177 398.669276 
L 633.274217 398.244963 
L 638.827257 393.022654 
L 644.380296 388.910085 
L 649.933336 387.963541 
L 655.486375 385.907257 
L 661.039415 389.432316 
L 666.592454 385.287107 
" clip-path="url(#p22e3f65112)" style="fill: none; stroke: #55a868; stroke-width: 1.5; stroke-linecap: round"/>
   </g>
   <g id="patch_3">
    <path d="M 89.353994 495.840956 
L 89.353994 49.831226 
" style="fill: none; stroke: #cccccc; stroke-width: 1.25; stroke-linejoin: miter; stroke-linecap: square"/>
   </g>
   <g id="patch_4">
    <path d="M 694.08 495.840956 
L 694.08 49.831226 
" style="fill: none; stroke: #cccccc; stroke-width: 1.25; stroke-linejoin: miter; stroke-linecap: square"/>
   </g>
   <g id="patch_5">
    <path d="M 89.353994 495.840956 
L 694.08 495.840956 
" style="fill: none; stroke: #cccccc; stroke-width: 1.25; stroke-linejoin: miter; stroke-linecap: square"/>
   </g>
   <g id="patch_6">
    <path d="M 89.353994 49.831226 
L 694.08 49.831226 
" style="fill: none; stroke: #cccccc; stroke-width: 1.25; stroke-linejoin: miter; stroke-linecap: square"/>
   </g>
   <g id="text_15">
    <!-- Structural Similarity Index Measure (SSIM) over Step (Mean) -->
    <g style="fill: #262626" transform="translate(101.757174 43.831226) scale(0.24 -0.24)">
     <defs>
      <path id="CMSS17-6f" d="M 2829 1356 
C 2829 2176 2221 2816 1504 2816 
C 768 2816 173 2157 173 1356 
C 173 544 787 -64 1498 -64 
C 2227 -64 2829 563 2829 1356 
z
M 1504 337 
C 1050 337 659 709 659 1408 
C 659 2151 1114 2427 1498 2427 
C 1914 2427 2342 2126 2342 1408 
C 2342 683 1926 337 1504 337 
z
" transform="scale(0.015625)"/>
      <path id="CMSS17-76" d="M 2675 2752 
L 2176 2752 
L 1747 1556 
C 1613 1165 1421 627 1389 352 
L 1382 352 
C 1370 468 1318 634 1286 749 
C 1248 890 1197 1056 1158 1172 
L 595 2752 
L 83 2752 
L 1094 0 
L 1664 0 
L 2675 2752 
z
" transform="scale(0.015625)"/>
     </defs>
     <use xlink:href="#CMSS17-53" transform="scale(0.996264)"/>
     <use xlink:href="#CMSS17-74" transform="translate(52.048516 0) scale(0.996264)"/>
     <use xlink:href="#CMSS17-72" transform="translate(85.880083 0) scale(0.996264)"/>
     <use xlink:href="#CMSS17-75" transform="translate(117.789855 0) scale(0.996264)"/>
     <use xlink:href="#CMSS17-63" transform="translate(165.994799 0) scale(0.996264)"/>
     <use xlink:href="#CMSS17-74" transform="translate(207.633621 0) scale(0.996264)"/>
     <use xlink:href="#CMSS17-75" transform="translate(241.465187 0) scale(0.996264)"/>
     <use xlink:href="#CMSS17-72" transform="translate(289.67013 0) scale(0.996264)"/>
     <use xlink:href="#CMSS17-61" transform="translate(321.579903 0) scale(0.996264)"/>
     <use xlink:href="#CMSS17-6c" transform="translate(366.501824 0) scale(0.996264)"/>
     <use xlink:href="#CMSS17-53" transform="translate(419.911659 0) scale(0.996264)"/>
     <use xlink:href="#CMSS17-69" transform="translate(471.960176 0) scale(0.996264)"/>
     <use xlink:href="#CMSS17-6d" transform="translate(494.140899 0) scale(0.996264)"/>
     <use xlink:href="#CMSS17-69" transform="translate(568.370153 0) scale(0.996264)"/>
     <use xlink:href="#CMSS17-6c" transform="translate(590.550876 0) scale(0.996264)"/>
     <use xlink:href="#CMSS17-61" transform="translate(612.731599 0) scale(0.996264)"/>
     <use xlink:href="#CMSS17-72" transform="translate(655.051066 0) scale(0.996264)"/>
     <use xlink:href="#CMSS17-69" transform="translate(686.960838 0) scale(0.996264)"/>
     <use xlink:href="#CMSS17-74" transform="translate(709.141561 0) scale(0.996264)"/>
     <use xlink:href="#CMSS17-79" transform="translate(740.370674 0) scale(0.996264)"/>
     <use xlink:href="#CMSS17-49" transform="translate(814.599929 0) scale(0.996264)"/>
     <use xlink:href="#CMSS17-6e" transform="translate(840.383854 0) scale(0.996264)"/>
     <use xlink:href="#CMSS17-64" transform="translate(888.588797 0) scale(0.996264)"/>
     <use xlink:href="#CMSS17-65" transform="translate(936.79374 0) scale(0.996264)"/>
     <use xlink:href="#CMSS17-78" transform="translate(978.432562 0) scale(0.996264)"/>
     <use xlink:href="#CMSS17-4d" transform="translate(1052.661817 0) scale(0.996264)"/>
     <use xlink:href="#CMSS17-65" transform="translate(1134.337847 0) scale(0.996264)"/>
     <use xlink:href="#CMSS17-61" transform="translate(1175.976669 0) scale(0.996264)"/>
     <use xlink:href="#CMSS17-73" transform="translate(1220.89859 0) scale(0.996264)"/>
     <use xlink:href="#CMSS17-75" transform="translate(1256.812132 0) scale(0.996264)"/>
     <use xlink:href="#CMSS17-72" transform="translate(1305.017075 0) scale(0.996264)"/>
     <use xlink:href="#CMSS17-65" transform="translate(1336.926847 0) scale(0.996264)"/>
     <use xlink:href="#CMSS17-28" transform="translate(1409.794782 0) scale(0.996264)"/>
     <use xlink:href="#CMSS17-53" transform="translate(1446.228696 0) scale(0.996264)"/>
     <use xlink:href="#CMSS17-53" transform="translate(1498.277212 0) scale(0.996264)"/>
     <use xlink:href="#CMSS17-49" transform="translate(1550.325729 0) scale(0.996264)"/>
     <use xlink:href="#CMSS17-4d" transform="translate(1576.109654 0) scale(0.996264)"/>
     <use xlink:href="#CMSS17-29" transform="translate(1657.785684 0) scale(0.996264)"/>
     <use xlink:href="#CMSS17-6f" transform="translate(1725.448711 0) scale(0.996264)"/>
     <use xlink:href="#CMSS17-76" transform="translate(1772.292335 0) scale(0.996264)"/>
     <use xlink:href="#CMSS17-65" transform="translate(1815.292476 0) scale(0.996264)"/>
     <use xlink:href="#CMSS17-72" transform="translate(1856.931298 0) scale(0.996264)"/>
     <use xlink:href="#CMSS17-53" transform="translate(1920.070184 0) scale(0.996264)"/>
     <use xlink:href="#CMSS17-74" transform="translate(1972.1187 0) scale(0.996264)"/>
     <use xlink:href="#CMSS17-65" transform="translate(2005.950266 0) scale(0.996264)"/>
     <use xlink:href="#CMSS17-70" transform="translate(2047.589089 0) scale(0.996264)"/>
     <use xlink:href="#CMSS17-28" transform="translate(2127.023144 0) scale(0.996264)"/>
     <use xlink:href="#CMSS17-4d" transform="translate(2163.457059 0) scale(0.996264)"/>
     <use xlink:href="#CMSS17-65" transform="translate(2245.133089 0) scale(0.996264)"/>
     <use xlink:href="#CMSS17-61" transform="translate(2286.771911 0) scale(0.996264)"/>
     <use xlink:href="#CMSS17-6e" transform="translate(2331.693831 0) scale(0.996264)"/>
     <use xlink:href="#CMSS17-29" transform="translate(2379.898774 0) scale(0.996264)"/>
    </g>
   </g>
   <g id="legend_1">
    <g id="patch_7">
     <path d="M 425.32274 191.675953 
L 678.68 191.675953 
Q 683.08 191.675953 683.08 187.275953 
L 683.08 65.231226 
Q 683.08 60.831226 678.68 60.831226 
L 425.32274 60.831226 
Q 420.92274 60.831226 420.92274 65.231226 
L 420.92274 187.275953 
Q 420.92274 191.675953 425.32274 191.675953 
z
" style="fill: #ffffff; opacity: 0.8; stroke: #cccccc; stroke-linejoin: miter"/>
    </g>
    <g id="text_16">
     <!-- Minimum Confidence $\theta_{\mathrm{min}}$ -->
     <g style="fill: #262626" transform="translate(429.72274 86.235632) scale(0.24 -0.24)">
      <defs>
       <path id="CMSS17-43" d="M 3501 714 
C 3072 427 2874 344 2355 344 
C 1459 344 934 1303 934 2179 
C 934 3112 1472 4032 2381 4032 
C 2790 4032 3059 3918 3386 3715 
L 3475 4217 
C 3168 4370 2778 4440 2387 4440 
C 1158 4440 397 3316 397 2179 
C 397 927 1299 -64 2323 -64 
C 2874 -64 3066 -19 3539 280 
L 3501 714 
z
" transform="scale(0.015625)"/>
       <path id="CMSS17-c" d="M 2752 4416 
L 2240 4416 
L 2240 3906 
L 2752 3906 
L 2752 4416 
z
M 2733 2737 
L 2259 2737 
L 2259 0 
L 2733 0 
L 2733 2737 
z
M 1075 2368 
L 1773 2368 
L 1773 2737 
L 1062 2737 
L 1062 3578 
C 1062 3919 1216 4092 1421 4092 
C 1542 4092 1664 4056 1773 3992 
L 1773 4410 
C 1722 4428 1574 4480 1421 4480 
C 941 4480 602 3993 602 3372 
L 602 2737 
L 160 2737 
L 160 2368 
L 602 2368 
L 602 0 
L 1075 0 
L 1075 2368 
z
" transform="scale(0.015625)"/>
       <path id="CMMI12-12" d="M 2835 3200 
C 2835 3850 2630 4480 2106 4480 
C 1210 4480 256 2615 256 1216 
C 256 923 320 -64 992 -64 
C 1862 -64 2835 1756 2835 3200 
z
M 896 2304 
C 992 2679 1126 3214 1382 3665 
C 1594 4047 1818 4352 2099 4352 
C 2310 4352 2451 4174 2451 3564 
C 2451 3334 2432 3017 2246 2304 
L 896 2304 
z
M 2202 2113 
C 2042 1490 1907 1088 1677 687 
C 1491 363 1267 64 998 64 
C 800 64 640 217 640 846 
C 640 1260 742 1693 845 2113 
L 2202 2113 
z
" transform="scale(0.015625)"/>
       <path id="CMR17-6d" d="M 4326 1933 
C 4326 2252 4269 2790 3507 2790 
C 3072 2790 2771 2496 2656 2151 
L 2650 2151 
C 2573 2676 2195 2790 1837 2790 
C 1331 2790 1069 2400 973 2144 
L 966 2144 
L 966 2790 
L 211 2720 
L 211 2554 
C 589 2554 646 2515 646 2208 
L 646 428 
C 646 184 621 153 211 153 
L 211 -13 
C 365 0 646 0 813 0 
C 979 0 1267 0 1421 -13 
L 1421 153 
C 1011 153 986 178 986 428 
L 986 1658 
C 986 2247 1344 2688 1792 2688 
C 2266 2688 2317 2266 2317 1958 
L 2317 428 
C 2317 184 2291 153 1882 153 
L 1882 -13 
C 2035 0 2317 0 2483 0 
C 2650 0 2938 0 3091 -13 
L 3091 153 
C 2682 153 2656 178 2656 428 
L 2656 1658 
C 2656 2247 3014 2688 3462 2688 
C 3936 2688 3987 2266 3987 1958 
L 3987 428 
C 3987 184 3962 153 3552 153 
L 3552 -13 
C 3706 0 3987 0 4154 0 
C 4320 0 4608 0 4762 -13 
L 4762 153 
C 4352 153 4326 178 4326 428 
L 4326 1933 
z
" transform="scale(0.015625)"/>
       <path id="CMR17-69" d="M 992 3909 
C 992 4049 877 4170 730 4170 
C 589 4170 467 4056 467 3909 
C 467 3769 582 3648 730 3648 
C 870 3648 992 3763 992 3909 
z
M 243 2706 
L 243 2541 
C 602 2541 653 2502 653 2197 
L 653 427 
C 653 184 627 153 218 153 
L 218 -13 
C 371 0 646 0 806 0 
C 960 0 1222 0 1370 -13 
L 1370 153 
C 992 153 979 191 979 420 
L 979 2776 
L 243 2706 
z
" transform="scale(0.015625)"/>
       <path id="CMR17-6e" d="M 2656 1933 
C 2656 2259 2592 2790 1837 2790 
C 1331 2790 1069 2400 973 2144 
L 966 2144 
L 966 2790 
L 211 2720 
L 211 2554 
C 589 2554 646 2515 646 2208 
L 646 428 
C 646 184 621 153 211 153 
L 211 -13 
C 365 0 646 0 813 0 
C 979 0 1267 0 1421 -13 
L 1421 153 
C 1011 153 986 178 986 428 
L 986 1658 
C 986 2247 1344 2688 1792 2688 
C 2266 2688 2317 2266 2317 1958 
L 2317 428 
C 2317 184 2291 153 1882 153 
L 1882 -13 
C 2035 0 2317 0 2483 0 
C 2650 0 2938 0 3091 -13 
L 3091 153 
C 2682 153 2656 178 2656 428 
L 2656 1933 
z
" transform="scale(0.015625)"/>
      </defs>
      <use xlink:href="#CMSS17-4d" transform="scale(0.996264)"/>
      <use xlink:href="#CMSS17-69" transform="translate(81.67603 0) scale(0.996264)"/>
      <use xlink:href="#CMSS17-6e" transform="translate(103.856753 0) scale(0.996264)"/>
      <use xlink:href="#CMSS17-69" transform="translate(152.061696 0) scale(0.996264)"/>
      <use xlink:href="#CMSS17-6d" transform="translate(174.242419 0) scale(0.996264)"/>
      <use xlink:href="#CMSS17-75" transform="translate(248.471674 0) scale(0.996264)"/>
      <use xlink:href="#CMSS17-6d" transform="translate(296.676617 0) scale(0.996264)"/>
      <use xlink:href="#CMSS17-43" transform="translate(402.134984 0) scale(0.996264)"/>
      <use xlink:href="#CMSS17-6f" transform="translate(461.990755 0) scale(0.996264)"/>
      <use xlink:href="#CMSS17-6e" transform="translate(508.834379 0) scale(0.996264)"/>
      <use xlink:href="#CMSS17-c" transform="translate(557.039322 0) scale(0.996264)"/>
      <use xlink:href="#CMSS17-64" transform="translate(607.166059 0) scale(0.996264)"/>
      <use xlink:href="#CMSS17-65" transform="translate(655.371003 0) scale(0.996264)"/>
      <use xlink:href="#CMSS17-6e" transform="translate(697.009825 0) scale(0.996264)"/>
      <use xlink:href="#CMSS17-63" transform="translate(745.214768 0) scale(0.996264)"/>
      <use xlink:href="#CMSS17-65" transform="translate(786.85359 0) scale(0.996264)"/>
      <use xlink:href="#CMMI12-12" transform="translate(859.721525 0) scale(0.996264)"/>
      <use xlink:href="#CMR17-6d" transform="translate(905.181315 -14.943915) scale(0.697382)"/>
      <use xlink:href="#CMR17-69" transform="translate(959.024781 -14.943915) scale(0.697382)"/>
      <use xlink:href="#CMR17-6e" transform="translate(976.43444 -14.943915) scale(0.697382)"/>
     </g>
    </g>
    <g id="line2d_16">
     <path d="M 508.033115 109.586389 
L 530.033115 109.586389 
L 552.033115 109.586389 
" style="fill: none; stroke: #4c72b0; stroke-width: 1.5; stroke-linecap: round"/>
    </g>
    <g id="text_17">
     <!-- 0.1 -->
     <g style="fill: #262626" transform="translate(569.633115 117.286389) scale(0.22 -0.22)">
      <defs>
       <path id="CMSS17-30" d="M 2758 2044 
C 2758 2405 2752 3077 2490 3596 
C 2227 4096 1805 4229 1504 4229 
C 1069 4229 698 3975 506 3570 
C 301 3146 243 2709 243 2044 
C 243 1589 262 1031 493 543 
C 755 5 1197 -128 1498 -128 
C 1894 -128 2278 81 2496 518 
C 2720 974 2758 1474 2758 2044 
z
M 1498 261 
C 1011 261 864 811 819 995 
C 742 1310 730 1614 730 2114 
C 730 2506 730 2948 851 3297 
C 998 3701 1254 3840 1498 3840 
C 1971 3840 2125 3372 2176 3208 
C 2272 2873 2272 2481 2272 2114 
C 2272 1526 2272 261 1498 261 
z
" transform="scale(0.015625)"/>
       <path id="CMSS17-2e" d="M 1088 510 
L 576 510 
L 576 0 
L 1088 0 
L 1088 510 
z
" transform="scale(0.015625)"/>
       <path id="CMSS17-31" d="M 1818 4288 
L 1696 4288 
C 1350 3940 947 3890 538 3890 
L 538 3520 
C 723 3520 1024 3520 1325 3667 
L 1325 369 
L 570 369 
L 570 0 
L 2573 0 
L 2573 369 
L 1818 369 
L 1818 4288 
z
" transform="scale(0.015625)"/>
      </defs>
      <use xlink:href="#CMSS17-30" transform="scale(0.996264)"/>
      <use xlink:href="#CMSS17-2e" transform="translate(46.843624 0) scale(0.996264)"/>
      <use xlink:href="#CMSS17-31" transform="translate(72.867828 0) scale(0.996264)"/>
     </g>
    </g>
    <g id="line2d_17">
     <path d="M 508.033115 140.249577 
L 530.033115 140.249577 
L 552.033115 140.249577 
" style="fill: none; stroke: #dd8452; stroke-width: 1.5; stroke-linecap: round"/>
    </g>
    <g id="text_18">
     <!-- 0.2 -->
     <g style="fill: #262626" transform="translate(569.633115 147.949577) scale(0.22 -0.22)">
      <defs>
       <path id="CMSS17-32" d="M 1651 1357 
C 1830 1541 2099 1764 2285 1987 
C 2464 2204 2701 2511 2701 2957 
C 2701 3657 2227 4288 1421 4288 
C 787 4288 422 3893 250 3274 
L 499 2929 
C 640 3510 838 3880 1338 3880 
C 1888 3880 2195 3433 2195 2942 
C 2195 2355 1747 1901 1408 1563 
C 1030 1187 659 804 301 408 
L 301 0 
L 2701 0 
L 2701 433 
L 1613 433 
C 1536 433 1459 433 1382 433 
L 742 433 
L 742 439 
L 1651 1357 
z
" transform="scale(0.015625)"/>
      </defs>
      <use xlink:href="#CMSS17-30" transform="scale(0.996264)"/>
      <use xlink:href="#CMSS17-2e" transform="translate(46.843624 0) scale(0.996264)"/>
      <use xlink:href="#CMSS17-32" transform="translate(72.867828 0) scale(0.996264)"/>
     </g>
    </g>
    <g id="line2d_18">
     <path d="M 508.033115 170.912765 
L 530.033115 170.912765 
L 552.033115 170.912765 
" style="fill: none; stroke: #55a868; stroke-width: 1.5; stroke-linecap: round"/>
    </g>
    <g id="text_19">
     <!-- 0.3 -->
     <g style="fill: #262626" transform="translate(569.633115 178.612765) scale(0.22 -0.22)">
      <defs>
       <path id="CMSS17-33" d="M 1005 2025 
L 1440 2025 
C 2042 2025 2214 1507 2214 1146 
C 2214 653 1933 267 1472 267 
C 1114 267 608 444 320 912 
C 275 691 275 678 250 526 
C 550 88 1037 -128 1485 -128 
C 2214 -128 2752 473 2752 1138 
C 2752 1638 2400 2057 1920 2215 
C 2304 2424 2586 2816 2586 3273 
C 2586 3805 2093 4229 1491 4229 
C 941 4229 512 3892 333 3530 
C 378 3468 493 3284 550 3189 
C 691 3562 1056 3840 1485 3840 
C 1843 3840 2080 3607 2080 3271 
C 2080 2923 1856 2543 1478 2455 
C 1453 2455 1056 2417 1005 2411 
L 1005 2025 
z
" transform="scale(0.015625)"/>
      </defs>
      <use xlink:href="#CMSS17-30" transform="scale(0.996264)"/>
      <use xlink:href="#CMSS17-2e" transform="translate(46.843624 0) scale(0.996264)"/>
      <use xlink:href="#CMSS17-33" transform="translate(72.867828 0) scale(0.996264)"/>
     </g>
    </g>
   </g>
  </g>
 </g>
 <defs>
  <clipPath id="p22e3f65112">
   <rect x="89.353994" y="49.831226" width="604.726006" height="446.00973"/>
  </clipPath>
 </defs>
</svg>
