<?xml version="1.0" encoding="utf-8" standalone="no"?>
<!DOCTYPE svg PUBLIC "-//W3C//DTD SVG 1.1//EN"
  "http://www.w3.org/Graphics/SVG/1.1/DTD/svg11.dtd">
<svg xmlns:xlink="http://www.w3.org/1999/xlink" width="720pt" height="360pt" viewBox="0 0 720 360" xmlns="http://www.w3.org/2000/svg" version="1.1">
 <metadata>
  <rdf:RDF xmlns:dc="http://purl.org/dc/elements/1.1/" xmlns:cc="http://creativecommons.org/ns#" xmlns:rdf="http://www.w3.org/1999/02/22-rdf-syntax-ns#">
   <cc:Work>
    <dc:type rdf:resource="http://purl.org/dc/dcmitype/StillImage"/>
    <dc:date>2025-04-17T09:50:32.133988</dc:date>
    <dc:format>image/svg+xml</dc:format>
    <dc:creator>
     <cc:Agent>
      <dc:title>Matplotlib v3.9.2, https://matplotlib.org/</dc:title>
     </cc:Agent>
    </dc:creator>
   </cc:Work>
  </rdf:RDF>
 </metadata>
 <defs>
  <style type="text/css">*{stroke-linejoin: round; stroke-linecap: butt}</style>
 </defs>
 <g id="figure_1">
  <g id="patch_1">
   <path d="M 0 360 
L 720 360 
L 720 0 
L 0 0 
z
" style="fill: #ffffff"/>
  </g>
  <g id="axes_1">
   <g id="patch_2">
    <path d="M 75.672 304.308 
L 704.448 304.308 
L 704.448 32.352 
L 75.672 32.352 
z
" style="fill: #ffffff"/>
   </g>
   <g id="matplotlib.axis_1">
    <g id="xtick_1">
     <g id="line2d_1">
      <path d="M 101.380292 304.308 
L 101.380292 32.352 
" clip-path="url(#pf6e23daffb)" style="fill: none; stroke: #cccccc; stroke-linecap: round"/>
     </g>
     <g id="text_1">
      <!-- 0 -->
      <g style="fill: #262626" transform="translate(97.710074 323.256313) scale(0.132 -0.132)">
       <defs>
        <path id="ArialMT-30" d="M 266 2259 
Q 266 3072 433 3567 
Q 600 4063 929 4331 
Q 1259 4600 1759 4600 
Q 2128 4600 2406 4451 
Q 2684 4303 2865 4023 
Q 3047 3744 3150 3342 
Q 3253 2941 3253 2259 
Q 3253 1453 3087 958 
Q 2922 463 2592 192 
Q 2263 -78 1759 -78 
Q 1097 -78 719 397 
Q 266 969 266 2259 
z
M 844 2259 
Q 844 1131 1108 757 
Q 1372 384 1759 384 
Q 2147 384 2411 759 
Q 2675 1134 2675 2259 
Q 2675 3391 2411 3762 
Q 2147 4134 1753 4134 
Q 1366 4134 1134 3806 
Q 844 3388 844 2259 
z
" transform="scale(0.015625)"/>
       </defs>
       <use xlink:href="#ArialMT-30"/>
      </g>
     </g>
    </g>
    <g id="xtick_2">
     <g id="line2d_2">
      <path d="M 173.191165 304.308 
L 173.191165 32.352 
" clip-path="url(#pf6e23daffb)" style="fill: none; stroke: #cccccc; stroke-linecap: round"/>
     </g>
     <g id="text_2">
      <!-- 25 -->
      <g style="fill: #262626" transform="translate(165.850727 323.256313) scale(0.132 -0.132)">
       <defs>
        <path id="ArialMT-32" d="M 3222 541 
L 3222 0 
L 194 0 
Q 188 203 259 391 
Q 375 700 629 1000 
Q 884 1300 1366 1694 
Q 2113 2306 2375 2664 
Q 2638 3022 2638 3341 
Q 2638 3675 2398 3904 
Q 2159 4134 1775 4134 
Q 1369 4134 1125 3890 
Q 881 3647 878 3216 
L 300 3275 
Q 359 3922 746 4261 
Q 1134 4600 1788 4600 
Q 2447 4600 2831 4234 
Q 3216 3869 3216 3328 
Q 3216 3053 3103 2787 
Q 2991 2522 2730 2228 
Q 2469 1934 1863 1422 
Q 1356 997 1212 845 
Q 1069 694 975 541 
L 3222 541 
z
" transform="scale(0.015625)"/>
        <path id="ArialMT-35" d="M 266 1200 
L 856 1250 
Q 922 819 1161 601 
Q 1400 384 1738 384 
Q 2144 384 2425 690 
Q 2706 997 2706 1503 
Q 2706 1984 2436 2262 
Q 2166 2541 1728 2541 
Q 1456 2541 1237 2417 
Q 1019 2294 894 2097 
L 366 2166 
L 809 4519 
L 3088 4519 
L 3088 3981 
L 1259 3981 
L 1013 2750 
Q 1425 3038 1878 3038 
Q 2478 3038 2890 2622 
Q 3303 2206 3303 1553 
Q 3303 931 2941 478 
Q 2500 -78 1738 -78 
Q 1113 -78 717 272 
Q 322 622 266 1200 
z
" transform="scale(0.015625)"/>
       </defs>
       <use xlink:href="#ArialMT-32"/>
       <use xlink:href="#ArialMT-35" x="55.615234"/>
      </g>
     </g>
    </g>
    <g id="xtick_3">
     <g id="line2d_3">
      <path d="M 245.002037 304.308 
L 245.002037 32.352 
" clip-path="url(#pf6e23daffb)" style="fill: none; stroke: #cccccc; stroke-linecap: round"/>
     </g>
     <g id="text_3">
      <!-- 50 -->
      <g style="fill: #262626" transform="translate(237.6616 323.256313) scale(0.132 -0.132)">
       <use xlink:href="#ArialMT-35"/>
       <use xlink:href="#ArialMT-30" x="55.615234"/>
      </g>
     </g>
    </g>
    <g id="xtick_4">
     <g id="line2d_4">
      <path d="M 316.81291 304.308 
L 316.81291 32.352 
" clip-path="url(#pf6e23daffb)" style="fill: none; stroke: #cccccc; stroke-linecap: round"/>
     </g>
     <g id="text_4">
      <!-- 75 -->
      <g style="fill: #262626" transform="translate(309.472473 323.256313) scale(0.132 -0.132)">
       <defs>
        <path id="ArialMT-37" d="M 303 3981 
L 303 4522 
L 3269 4522 
L 3269 4084 
Q 2831 3619 2401 2847 
Q 1972 2075 1738 1259 
Q 1569 684 1522 0 
L 944 0 
Q 953 541 1156 1306 
Q 1359 2072 1739 2783 
Q 2119 3494 2547 3981 
L 303 3981 
z
" transform="scale(0.015625)"/>
       </defs>
       <use xlink:href="#ArialMT-37"/>
       <use xlink:href="#ArialMT-35" x="55.615234"/>
      </g>
     </g>
    </g>
    <g id="xtick_5">
     <g id="line2d_5">
      <path d="M 388.623783 304.308 
L 388.623783 32.352 
" clip-path="url(#pf6e23daffb)" style="fill: none; stroke: #cccccc; stroke-linecap: round"/>
     </g>
     <g id="text_5">
      <!-- 100 -->
      <g style="fill: #262626" transform="translate(377.613126 323.256313) scale(0.132 -0.132)">
       <defs>
        <path id="ArialMT-31" d="M 2384 0 
L 1822 0 
L 1822 3584 
Q 1619 3391 1289 3197 
Q 959 3003 697 2906 
L 697 3450 
Q 1169 3672 1522 3987 
Q 1875 4303 2022 4600 
L 2384 4600 
L 2384 0 
z
" transform="scale(0.015625)"/>
       </defs>
       <use xlink:href="#ArialMT-31"/>
       <use xlink:href="#ArialMT-30" x="55.615234"/>
       <use xlink:href="#ArialMT-30" x="111.230469"/>
      </g>
     </g>
    </g>
    <g id="xtick_6">
     <g id="line2d_6">
      <path d="M 460.434655 304.308 
L 460.434655 32.352 
" clip-path="url(#pf6e23daffb)" style="fill: none; stroke: #cccccc; stroke-linecap: round"/>
     </g>
     <g id="text_6">
      <!-- 125 -->
      <g style="fill: #262626" transform="translate(449.423999 323.256313) scale(0.132 -0.132)">
       <use xlink:href="#ArialMT-31"/>
       <use xlink:href="#ArialMT-32" x="55.615234"/>
       <use xlink:href="#ArialMT-35" x="111.230469"/>
      </g>
     </g>
    </g>
    <g id="xtick_7">
     <g id="line2d_7">
      <path d="M 532.245528 304.308 
L 532.245528 32.352 
" clip-path="url(#pf6e23daffb)" style="fill: none; stroke: #cccccc; stroke-linecap: round"/>
     </g>
     <g id="text_7">
      <!-- 150 -->
      <g style="fill: #262626" transform="translate(521.234871 323.256313) scale(0.132 -0.132)">
       <use xlink:href="#ArialMT-31"/>
       <use xlink:href="#ArialMT-35" x="55.615234"/>
       <use xlink:href="#ArialMT-30" x="111.230469"/>
      </g>
     </g>
    </g>
    <g id="xtick_8">
     <g id="line2d_8">
      <path d="M 604.0564 304.308 
L 604.0564 32.352 
" clip-path="url(#pf6e23daffb)" style="fill: none; stroke: #cccccc; stroke-linecap: round"/>
     </g>
     <g id="text_8">
      <!-- 175 -->
      <g style="fill: #262626" transform="translate(593.045744 323.256313) scale(0.132 -0.132)">
       <use xlink:href="#ArialMT-31"/>
       <use xlink:href="#ArialMT-37" x="55.615234"/>
       <use xlink:href="#ArialMT-35" x="111.230469"/>
      </g>
     </g>
    </g>
    <g id="xtick_9">
     <g id="line2d_9">
      <path d="M 675.867273 304.308 
L 675.867273 32.352 
" clip-path="url(#pf6e23daffb)" style="fill: none; stroke: #cccccc; stroke-linecap: round"/>
     </g>
     <g id="text_9">
      <!-- 200 -->
      <g style="fill: #262626" transform="translate(664.856616 323.256313) scale(0.132 -0.132)">
       <use xlink:href="#ArialMT-32"/>
       <use xlink:href="#ArialMT-30" x="55.615234"/>
       <use xlink:href="#ArialMT-30" x="111.230469"/>
      </g>
     </g>
    </g>
    <g id="text_10">
     <!-- Epoch -->
     <g style="fill: #262626" transform="translate(369.64575 340.187063) scale(0.144 -0.144)">
      <defs>
       <path id="ArialMT-45" d="M 506 0 
L 506 4581 
L 3819 4581 
L 3819 4041 
L 1113 4041 
L 1113 2638 
L 3647 2638 
L 3647 2100 
L 1113 2100 
L 1113 541 
L 3925 541 
L 3925 0 
L 506 0 
z
" transform="scale(0.015625)"/>
       <path id="ArialMT-70" d="M 422 -1272 
L 422 3319 
L 934 3319 
L 934 2888 
Q 1116 3141 1344 3267 
Q 1572 3394 1897 3394 
Q 2322 3394 2647 3175 
Q 2972 2956 3137 2557 
Q 3303 2159 3303 1684 
Q 3303 1175 3120 767 
Q 2938 359 2589 142 
Q 2241 -75 1856 -75 
Q 1575 -75 1351 44 
Q 1128 163 984 344 
L 984 -1272 
L 422 -1272 
z
M 931 1641 
Q 931 1000 1190 694 
Q 1450 388 1819 388 
Q 2194 388 2461 705 
Q 2728 1022 2728 1688 
Q 2728 2322 2467 2637 
Q 2206 2953 1844 2953 
Q 1484 2953 1207 2617 
Q 931 2281 931 1641 
z
" transform="scale(0.015625)"/>
       <path id="ArialMT-6f" d="M 213 1659 
Q 213 2581 725 3025 
Q 1153 3394 1769 3394 
Q 2453 3394 2887 2945 
Q 3322 2497 3322 1706 
Q 3322 1066 3130 698 
Q 2938 331 2570 128 
Q 2203 -75 1769 -75 
Q 1072 -75 642 372 
Q 213 819 213 1659 
z
M 791 1659 
Q 791 1022 1069 705 
Q 1347 388 1769 388 
Q 2188 388 2466 706 
Q 2744 1025 2744 1678 
Q 2744 2294 2464 2611 
Q 2184 2928 1769 2928 
Q 1347 2928 1069 2612 
Q 791 2297 791 1659 
z
" transform="scale(0.015625)"/>
       <path id="ArialMT-63" d="M 2588 1216 
L 3141 1144 
Q 3050 572 2676 248 
Q 2303 -75 1759 -75 
Q 1078 -75 664 370 
Q 250 816 250 1647 
Q 250 2184 428 2587 
Q 606 2991 970 3192 
Q 1334 3394 1763 3394 
Q 2303 3394 2647 3120 
Q 2991 2847 3088 2344 
L 2541 2259 
Q 2463 2594 2264 2762 
Q 2066 2931 1784 2931 
Q 1359 2931 1093 2626 
Q 828 2322 828 1663 
Q 828 994 1084 691 
Q 1341 388 1753 388 
Q 2084 388 2306 591 
Q 2528 794 2588 1216 
z
" transform="scale(0.015625)"/>
       <path id="ArialMT-68" d="M 422 0 
L 422 4581 
L 984 4581 
L 984 2938 
Q 1378 3394 1978 3394 
Q 2347 3394 2619 3248 
Q 2891 3103 3008 2847 
Q 3125 2591 3125 2103 
L 3125 0 
L 2563 0 
L 2563 2103 
Q 2563 2525 2380 2717 
Q 2197 2909 1863 2909 
Q 1613 2909 1392 2779 
Q 1172 2650 1078 2428 
Q 984 2206 984 1816 
L 984 0 
L 422 0 
z
" transform="scale(0.015625)"/>
      </defs>
      <use xlink:href="#ArialMT-45"/>
      <use xlink:href="#ArialMT-70" x="66.699219"/>
      <use xlink:href="#ArialMT-6f" x="122.314453"/>
      <use xlink:href="#ArialMT-63" x="177.929688"/>
      <use xlink:href="#ArialMT-68" x="227.929688"/>
     </g>
    </g>
   </g>
   <g id="matplotlib.axis_2">
    <g id="ytick_1">
     <g id="line2d_10">
      <path d="M 75.672 253.632128 
L 704.448 253.632128 
" clip-path="url(#pf6e23daffb)" style="fill: none; stroke: #cccccc; stroke-linecap: round"/>
     </g>
     <g id="text_11">
      <!-- 0.020 -->
      <g style="fill: #262626" transform="translate(33.143125 258.356285) scale(0.132 -0.132)">
       <defs>
        <path id="ArialMT-2e" d="M 581 0 
L 581 641 
L 1222 641 
L 1222 0 
L 581 0 
z
" transform="scale(0.015625)"/>
       </defs>
       <use xlink:href="#ArialMT-30"/>
       <use xlink:href="#ArialMT-2e" x="55.615234"/>
       <use xlink:href="#ArialMT-30" x="83.398438"/>
       <use xlink:href="#ArialMT-32" x="139.013672"/>
       <use xlink:href="#ArialMT-30" x="194.628906"/>
      </g>
     </g>
    </g>
    <g id="ytick_2">
     <g id="line2d_11">
      <path d="M 75.672 200.060573 
L 704.448 200.060573 
" clip-path="url(#pf6e23daffb)" style="fill: none; stroke: #cccccc; stroke-linecap: round"/>
     </g>
     <g id="text_12">
      <!-- 0.025 -->
      <g style="fill: #262626" transform="translate(33.143125 204.784729) scale(0.132 -0.132)">
       <use xlink:href="#ArialMT-30"/>
       <use xlink:href="#ArialMT-2e" x="55.615234"/>
       <use xlink:href="#ArialMT-30" x="83.398438"/>
       <use xlink:href="#ArialMT-32" x="139.013672"/>
       <use xlink:href="#ArialMT-35" x="194.628906"/>
      </g>
     </g>
    </g>
    <g id="ytick_3">
     <g id="line2d_12">
      <path d="M 75.672 146.489018 
L 704.448 146.489018 
" clip-path="url(#pf6e23daffb)" style="fill: none; stroke: #cccccc; stroke-linecap: round"/>
     </g>
     <g id="text_13">
      <!-- 0.030 -->
      <g style="fill: #262626" transform="translate(33.143125 151.213174) scale(0.132 -0.132)">
       <defs>
        <path id="ArialMT-33" d="M 269 1209 
L 831 1284 
Q 928 806 1161 595 
Q 1394 384 1728 384 
Q 2125 384 2398 659 
Q 2672 934 2672 1341 
Q 2672 1728 2419 1979 
Q 2166 2231 1775 2231 
Q 1616 2231 1378 2169 
L 1441 2663 
Q 1497 2656 1531 2656 
Q 1891 2656 2178 2843 
Q 2466 3031 2466 3422 
Q 2466 3731 2256 3934 
Q 2047 4138 1716 4138 
Q 1388 4138 1169 3931 
Q 950 3725 888 3313 
L 325 3413 
Q 428 3978 793 4289 
Q 1159 4600 1703 4600 
Q 2078 4600 2393 4439 
Q 2709 4278 2876 4000 
Q 3044 3722 3044 3409 
Q 3044 3113 2884 2869 
Q 2725 2625 2413 2481 
Q 2819 2388 3044 2092 
Q 3269 1797 3269 1353 
Q 3269 753 2831 336 
Q 2394 -81 1725 -81 
Q 1122 -81 723 278 
Q 325 638 269 1209 
z
" transform="scale(0.015625)"/>
       </defs>
       <use xlink:href="#ArialMT-30"/>
       <use xlink:href="#ArialMT-2e" x="55.615234"/>
       <use xlink:href="#ArialMT-30" x="83.398438"/>
       <use xlink:href="#ArialMT-33" x="139.013672"/>
       <use xlink:href="#ArialMT-30" x="194.628906"/>
      </g>
     </g>
    </g>
    <g id="ytick_4">
     <g id="line2d_13">
      <path d="M 75.672 92.917463 
L 704.448 92.917463 
" clip-path="url(#pf6e23daffb)" style="fill: none; stroke: #cccccc; stroke-linecap: round"/>
     </g>
     <g id="text_14">
      <!-- 0.035 -->
      <g style="fill: #262626" transform="translate(33.143125 97.641619) scale(0.132 -0.132)">
       <use xlink:href="#ArialMT-30"/>
       <use xlink:href="#ArialMT-2e" x="55.615234"/>
       <use xlink:href="#ArialMT-30" x="83.398438"/>
       <use xlink:href="#ArialMT-33" x="139.013672"/>
       <use xlink:href="#ArialMT-35" x="194.628906"/>
      </g>
     </g>
    </g>
    <g id="ytick_5">
     <g id="line2d_14">
      <path d="M 75.672 39.345908 
L 704.448 39.345908 
" clip-path="url(#pf6e23daffb)" style="fill: none; stroke: #cccccc; stroke-linecap: round"/>
     </g>
     <g id="text_15">
      <!-- 0.040 -->
      <g style="fill: #262626" transform="translate(33.143125 44.070064) scale(0.132 -0.132)">
       <defs>
        <path id="ArialMT-34" d="M 2069 0 
L 2069 1097 
L 81 1097 
L 81 1613 
L 2172 4581 
L 2631 4581 
L 2631 1613 
L 3250 1613 
L 3250 1097 
L 2631 1097 
L 2631 0 
L 2069 0 
z
M 2069 1613 
L 2069 3678 
L 634 1613 
L 2069 1613 
z
" transform="scale(0.015625)"/>
       </defs>
       <use xlink:href="#ArialMT-30"/>
       <use xlink:href="#ArialMT-2e" x="55.615234"/>
       <use xlink:href="#ArialMT-30" x="83.398438"/>
       <use xlink:href="#ArialMT-34" x="139.013672"/>
       <use xlink:href="#ArialMT-30" x="194.628906"/>
      </g>
     </g>
    </g>
    <g id="text_16">
     <!-- Reconstruction Loss (LossG_recon) -->
     <g style="fill: #262626" transform="translate(26.112375 283.1745) rotate(-90) scale(0.144 -0.144)">
      <defs>
       <path id="ArialMT-52" d="M 503 0 
L 503 4581 
L 2534 4581 
Q 3147 4581 3465 4457 
Q 3784 4334 3975 4021 
Q 4166 3709 4166 3331 
Q 4166 2844 3850 2509 
Q 3534 2175 2875 2084 
Q 3116 1969 3241 1856 
Q 3506 1613 3744 1247 
L 4541 0 
L 3778 0 
L 3172 953 
Q 2906 1366 2734 1584 
Q 2563 1803 2427 1890 
Q 2291 1978 2150 2013 
Q 2047 2034 1813 2034 
L 1109 2034 
L 1109 0 
L 503 0 
z
M 1109 2559 
L 2413 2559 
Q 2828 2559 3062 2645 
Q 3297 2731 3419 2920 
Q 3541 3109 3541 3331 
Q 3541 3656 3305 3865 
Q 3069 4075 2559 4075 
L 1109 4075 
L 1109 2559 
z
" transform="scale(0.015625)"/>
       <path id="ArialMT-65" d="M 2694 1069 
L 3275 997 
Q 3138 488 2766 206 
Q 2394 -75 1816 -75 
Q 1088 -75 661 373 
Q 234 822 234 1631 
Q 234 2469 665 2931 
Q 1097 3394 1784 3394 
Q 2450 3394 2872 2941 
Q 3294 2488 3294 1666 
Q 3294 1616 3291 1516 
L 816 1516 
Q 847 969 1125 678 
Q 1403 388 1819 388 
Q 2128 388 2347 550 
Q 2566 713 2694 1069 
z
M 847 1978 
L 2700 1978 
Q 2663 2397 2488 2606 
Q 2219 2931 1791 2931 
Q 1403 2931 1139 2672 
Q 875 2413 847 1978 
z
" transform="scale(0.015625)"/>
       <path id="ArialMT-6e" d="M 422 0 
L 422 3319 
L 928 3319 
L 928 2847 
Q 1294 3394 1984 3394 
Q 2284 3394 2536 3286 
Q 2788 3178 2913 3003 
Q 3038 2828 3088 2588 
Q 3119 2431 3119 2041 
L 3119 0 
L 2556 0 
L 2556 2019 
Q 2556 2363 2490 2533 
Q 2425 2703 2258 2804 
Q 2091 2906 1866 2906 
Q 1506 2906 1245 2678 
Q 984 2450 984 1813 
L 984 0 
L 422 0 
z
" transform="scale(0.015625)"/>
       <path id="ArialMT-73" d="M 197 991 
L 753 1078 
Q 800 744 1014 566 
Q 1228 388 1613 388 
Q 2000 388 2187 545 
Q 2375 703 2375 916 
Q 2375 1106 2209 1216 
Q 2094 1291 1634 1406 
Q 1016 1563 777 1677 
Q 538 1791 414 1992 
Q 291 2194 291 2438 
Q 291 2659 392 2848 
Q 494 3038 669 3163 
Q 800 3259 1026 3326 
Q 1253 3394 1513 3394 
Q 1903 3394 2198 3281 
Q 2494 3169 2634 2976 
Q 2775 2784 2828 2463 
L 2278 2388 
Q 2241 2644 2061 2787 
Q 1881 2931 1553 2931 
Q 1166 2931 1000 2803 
Q 834 2675 834 2503 
Q 834 2394 903 2306 
Q 972 2216 1119 2156 
Q 1203 2125 1616 2013 
Q 2213 1853 2448 1751 
Q 2684 1650 2818 1456 
Q 2953 1263 2953 975 
Q 2953 694 2789 445 
Q 2625 197 2315 61 
Q 2006 -75 1616 -75 
Q 969 -75 630 194 
Q 291 463 197 991 
z
" transform="scale(0.015625)"/>
       <path id="ArialMT-74" d="M 1650 503 
L 1731 6 
Q 1494 -44 1306 -44 
Q 1000 -44 831 53 
Q 663 150 594 308 
Q 525 466 525 972 
L 525 2881 
L 113 2881 
L 113 3319 
L 525 3319 
L 525 4141 
L 1084 4478 
L 1084 3319 
L 1650 3319 
L 1650 2881 
L 1084 2881 
L 1084 941 
Q 1084 700 1114 631 
Q 1144 563 1211 522 
Q 1278 481 1403 481 
Q 1497 481 1650 503 
z
" transform="scale(0.015625)"/>
       <path id="ArialMT-72" d="M 416 0 
L 416 3319 
L 922 3319 
L 922 2816 
Q 1116 3169 1280 3281 
Q 1444 3394 1641 3394 
Q 1925 3394 2219 3213 
L 2025 2691 
Q 1819 2813 1613 2813 
Q 1428 2813 1281 2702 
Q 1134 2591 1072 2394 
Q 978 2094 978 1738 
L 978 0 
L 416 0 
z
" transform="scale(0.015625)"/>
       <path id="ArialMT-75" d="M 2597 0 
L 2597 488 
Q 2209 -75 1544 -75 
Q 1250 -75 995 37 
Q 741 150 617 320 
Q 494 491 444 738 
Q 409 903 409 1263 
L 409 3319 
L 972 3319 
L 972 1478 
Q 972 1038 1006 884 
Q 1059 663 1231 536 
Q 1403 409 1656 409 
Q 1909 409 2131 539 
Q 2353 669 2445 892 
Q 2538 1116 2538 1541 
L 2538 3319 
L 3100 3319 
L 3100 0 
L 2597 0 
z
" transform="scale(0.015625)"/>
       <path id="ArialMT-69" d="M 425 3934 
L 425 4581 
L 988 4581 
L 988 3934 
L 425 3934 
z
M 425 0 
L 425 3319 
L 988 3319 
L 988 0 
L 425 0 
z
" transform="scale(0.015625)"/>
       <path id="ArialMT-20" transform="scale(0.015625)"/>
       <path id="ArialMT-4c" d="M 469 0 
L 469 4581 
L 1075 4581 
L 1075 541 
L 3331 541 
L 3331 0 
L 469 0 
z
" transform="scale(0.015625)"/>
       <path id="ArialMT-28" d="M 1497 -1347 
Q 1031 -759 709 28 
Q 388 816 388 1659 
Q 388 2403 628 3084 
Q 909 3875 1497 4659 
L 1900 4659 
Q 1522 4009 1400 3731 
Q 1209 3300 1100 2831 
Q 966 2247 966 1656 
Q 966 153 1900 -1347 
L 1497 -1347 
z
" transform="scale(0.015625)"/>
       <path id="ArialMT-47" d="M 2638 1797 
L 2638 2334 
L 4578 2338 
L 4578 638 
Q 4131 281 3656 101 
Q 3181 -78 2681 -78 
Q 2006 -78 1454 211 
Q 903 500 622 1047 
Q 341 1594 341 2269 
Q 341 2938 620 3517 
Q 900 4097 1425 4378 
Q 1950 4659 2634 4659 
Q 3131 4659 3532 4498 
Q 3934 4338 4162 4050 
Q 4391 3763 4509 3300 
L 3963 3150 
Q 3859 3500 3706 3700 
Q 3553 3900 3268 4020 
Q 2984 4141 2638 4141 
Q 2222 4141 1919 4014 
Q 1616 3888 1430 3681 
Q 1244 3475 1141 3228 
Q 966 2803 966 2306 
Q 966 1694 1177 1281 
Q 1388 869 1791 669 
Q 2194 469 2647 469 
Q 3041 469 3416 620 
Q 3791 772 3984 944 
L 3984 1797 
L 2638 1797 
z
" transform="scale(0.015625)"/>
       <path id="ArialMT-5f" d="M -97 -1272 
L -97 -866 
L 3631 -866 
L 3631 -1272 
L -97 -1272 
z
" transform="scale(0.015625)"/>
       <path id="ArialMT-29" d="M 791 -1347 
L 388 -1347 
Q 1322 153 1322 1656 
Q 1322 2244 1188 2822 
Q 1081 3291 891 3722 
Q 769 4003 388 4659 
L 791 4659 
Q 1378 3875 1659 3084 
Q 1900 2403 1900 1659 
Q 1900 816 1576 28 
Q 1253 -759 791 -1347 
z
" transform="scale(0.015625)"/>
      </defs>
      <use xlink:href="#ArialMT-52"/>
      <use xlink:href="#ArialMT-65" x="72.216797"/>
      <use xlink:href="#ArialMT-63" x="127.832031"/>
      <use xlink:href="#ArialMT-6f" x="177.832031"/>
      <use xlink:href="#ArialMT-6e" x="233.447266"/>
      <use xlink:href="#ArialMT-73" x="289.0625"/>
      <use xlink:href="#ArialMT-74" x="339.0625"/>
      <use xlink:href="#ArialMT-72" x="366.845703"/>
      <use xlink:href="#ArialMT-75" x="400.146484"/>
      <use xlink:href="#ArialMT-63" x="455.761719"/>
      <use xlink:href="#ArialMT-74" x="505.761719"/>
      <use xlink:href="#ArialMT-69" x="533.544922"/>
      <use xlink:href="#ArialMT-6f" x="555.761719"/>
      <use xlink:href="#ArialMT-6e" x="611.376953"/>
      <use xlink:href="#ArialMT-20" x="666.992188"/>
      <use xlink:href="#ArialMT-4c" x="694.775391"/>
      <use xlink:href="#ArialMT-6f" x="750.390625"/>
      <use xlink:href="#ArialMT-73" x="806.005859"/>
      <use xlink:href="#ArialMT-73" x="856.005859"/>
      <use xlink:href="#ArialMT-20" x="906.005859"/>
      <use xlink:href="#ArialMT-28" x="933.789062"/>
      <use xlink:href="#ArialMT-4c" x="967.089844"/>
      <use xlink:href="#ArialMT-6f" x="1022.705078"/>
      <use xlink:href="#ArialMT-73" x="1078.320312"/>
      <use xlink:href="#ArialMT-73" x="1128.320312"/>
      <use xlink:href="#ArialMT-47" x="1178.320312"/>
      <use xlink:href="#ArialMT-5f" x="1256.103516"/>
      <use xlink:href="#ArialMT-72" x="1311.71875"/>
      <use xlink:href="#ArialMT-65" x="1345.019531"/>
      <use xlink:href="#ArialMT-63" x="1400.634766"/>
      <use xlink:href="#ArialMT-6f" x="1450.634766"/>
      <use xlink:href="#ArialMT-6e" x="1506.25"/>
      <use xlink:href="#ArialMT-29" x="1561.865234"/>
     </g>
    </g>
   </g>
   <g id="PolyCollection_1"/>
   <g id="line2d_15">
    <path d="M 104.252727 44.713636 
L 107.125162 130.619854 
L 109.997597 148.945556 
L 112.870032 161.247276 
L 115.742467 170.148613 
L 118.614902 163.721436 
L 121.487337 168.917877 
L 124.359772 160.239285 
L 127.232206 166.018669 
L 130.104641 173.576488 
L 132.977076 166.42821 
L 135.849511 181.166027 
L 138.721946 194.575833 
L 147.339251 207.452743 
L 150.211686 208.363459 
L 153.084121 205.257014 
L 155.956556 212.184662 
L 158.82899 212.284051 
L 161.701425 213.491526 
L 164.57386 216.392849 
L 167.446295 202.072326 
L 170.31873 212.92832 
L 173.191165 219.107376 
L 176.0636 213.956048 
L 178.936035 224.351749 
L 181.80847 222.327308 
L 184.680905 218.217101 
L 187.553339 228.038318 
L 190.425774 222.796059 
L 193.298209 219.066492 
L 196.170644 220.410669 
L 199.043079 228.774222 
L 201.915514 229.298659 
L 204.787949 228.535969 
L 207.660384 229.518584 
L 210.532819 230.140296 
L 213.405254 232.436824 
L 216.277688 227.83672 
L 219.150123 232.268356 
L 222.022558 227.126626 
L 224.894993 231.789032 
L 227.767428 233.896509 
L 230.639863 228.380189 
L 233.512298 233.6732 
L 236.384733 236.248864 
L 239.257168 235.262019 
L 242.129603 233.089552 
L 245.002037 236.215734 
L 250.746907 236.088854 
L 253.619342 233.865634 
L 256.491777 237.129975 
L 259.364212 237.930024 
L 262.236647 241.28177 
L 265.109082 239.040928 
L 267.981517 239.605544 
L 270.853952 245.567303 
L 273.726386 244.106965 
L 276.598821 238.71104 
L 282.343691 245.97492 
L 285.216126 244.609964 
L 288.088561 239.661231 
L 290.960996 243.615657 
L 293.833431 243.673458 
L 296.705866 244.159832 
L 299.578301 248.746543 
L 302.450735 243.435911 
L 305.32317 247.928872 
L 308.195605 249.051055 
L 311.06804 245.127644 
L 313.940475 248.658545 
L 316.81291 246.623418 
L 319.685345 245.31162 
L 322.55778 244.516505 
L 325.430215 251.449087 
L 328.30265 247.084336 
L 331.175085 251.098053 
L 334.047519 250.255711 
L 336.919954 251.518358 
L 339.792389 254.771677 
L 342.664824 249.297062 
L 345.537259 246.970223 
L 348.409694 252.773564 
L 351.282129 256.407915 
L 354.154564 254.438185 
L 357.026999 250.150332 
L 359.899434 256.738574 
L 362.771868 256.547549 
L 365.644303 254.599255 
L 368.516738 253.838661 
L 371.389173 259.985997 
L 374.261608 254.414555 
L 377.134043 256.894354 
L 380.006478 260.277839 
L 382.878913 257.547081 
L 385.751348 257.277109 
L 388.623783 260.815684 
L 391.496217 257.279961 
L 394.368652 256.802014 
L 397.241087 259.209914 
L 400.113522 259.262463 
L 402.985957 261.172325 
L 405.858392 258.470486 
L 408.730827 261.660108 
L 411.603262 261.552965 
L 414.475697 263.213986 
L 417.348132 263.466033 
L 420.220566 262.503155 
L 423.093001 265.999404 
L 425.965436 265.319186 
L 428.837871 266.073501 
L 431.710306 266.954061 
L 434.582741 269.043593 
L 437.455176 269.081178 
L 440.327611 267.779953 
L 443.200046 263.776889 
L 446.072481 267.397198 
L 448.944915 263.857246 
L 451.81735 265.249402 
L 454.689785 266.30885 
L 457.56222 269.660312 
L 460.434655 270.754584 
L 463.30709 269.085407 
L 466.179525 265.922571 
L 469.05196 266.922808 
L 471.924395 270.05463 
L 474.79683 270.993542 
L 477.669265 267.295694 
L 480.541699 272.931986 
L 483.414134 269.69508 
L 486.286569 268.311439 
L 489.159004 268.070367 
L 492.031439 269.93491 
L 494.903874 274.486266 
L 497.776309 270.986493 
L 500.648744 265.853492 
L 503.521179 270.395413 
L 506.393614 276.512822 
L 509.266048 273.752477 
L 512.138483 269.986255 
L 515.010918 268.369945 
L 520.755788 275.753656 
L 523.628223 272.236966 
L 526.500658 269.664121 
L 529.373093 272.817794 
L 532.245528 276.470528 
L 535.117963 277.334017 
L 537.990397 278.621144 
L 540.862832 262.613822 
L 543.735267 272.873186 
L 546.607702 270.926577 
L 549.480137 275.518928 
L 552.352572 276.158967 
L 555.225007 275.855865 
L 558.097442 273.501536 
L 560.969877 275.993318 
L 563.842312 275.869963 
L 566.714746 275.928469 
L 569.587181 277.388294 
L 572.459616 278.13759 
L 575.332051 278.754368 
L 578.204486 274.39604 
L 581.076921 280.048544 
L 583.949356 280.317812 
L 586.821791 279.311935 
L 589.694226 279.62984 
L 592.566661 278.715599 
L 595.439095 279.539614 
L 598.31153 280.079559 
L 601.183965 281.183415 
L 604.0564 283.790799 
L 606.928835 281.431536 
L 609.80127 282.162506 
L 612.673705 281.165088 
L 615.54614 281.686706 
L 618.418575 282.049724 
L 621.29101 285.376094 
L 624.163444 284.069935 
L 627.035879 285.05396 
L 629.908314 283.701983 
L 632.780749 282.053953 
L 635.653184 280.816873 
L 638.525619 283.932482 
L 641.398054 282.583325 
L 644.270489 284.275058 
L 647.142924 291.946364 
L 650.015359 291.36624 
L 652.887794 289.258622 
L 655.760228 287.772012 
L 658.632663 284.085443 
L 661.505098 281.492885 
L 664.377533 278.597178 
L 667.249968 271.040064 
L 670.122403 280.116213 
L 672.994838 287.404765 
L 675.867273 275.042302 
L 675.867273 275.042302 
" clip-path="url(#pf6e23daffb)" style="fill: none; stroke: #4c72b0; stroke-width: 2; stroke-linecap: round"/>
   </g>
   <g id="patch_3">
    <path d="M 75.672 304.308 
L 75.672 32.352 
" style="fill: none; stroke: #cccccc; stroke-width: 1.25; stroke-linejoin: miter; stroke-linecap: square"/>
   </g>
   <g id="patch_4">
    <path d="M 704.448 304.308 
L 704.448 32.352 
" style="fill: none; stroke: #cccccc; stroke-width: 1.25; stroke-linejoin: miter; stroke-linecap: square"/>
   </g>
   <g id="patch_5">
    <path d="M 75.672 304.308 
L 704.448 304.308 
" style="fill: none; stroke: #cccccc; stroke-width: 1.25; stroke-linejoin: miter; stroke-linecap: square"/>
   </g>
   <g id="patch_6">
    <path d="M 75.672 32.352 
L 704.448 32.352 
" style="fill: none; stroke: #cccccc; stroke-width: 1.25; stroke-linejoin: miter; stroke-linecap: square"/>
   </g>
   <g id="text_17">
    <!-- Reconstruction Loss (LossG_recon) vs Epoch -->
    <g style="fill: #262626" transform="translate(243.60075 26.352) scale(0.144 -0.144)">
     <defs>
      <path id="ArialMT-76" d="M 1344 0 
L 81 3319 
L 675 3319 
L 1388 1331 
Q 1503 1009 1600 663 
Q 1675 925 1809 1294 
L 2547 3319 
L 3125 3319 
L 1869 0 
L 1344 0 
z
" transform="scale(0.015625)"/>
     </defs>
     <use xlink:href="#ArialMT-52"/>
     <use xlink:href="#ArialMT-65" x="72.216797"/>
     <use xlink:href="#ArialMT-63" x="127.832031"/>
     <use xlink:href="#ArialMT-6f" x="177.832031"/>
     <use xlink:href="#ArialMT-6e" x="233.447266"/>
     <use xlink:href="#ArialMT-73" x="289.0625"/>
     <use xlink:href="#ArialMT-74" x="339.0625"/>
     <use xlink:href="#ArialMT-72" x="366.845703"/>
     <use xlink:href="#ArialMT-75" x="400.146484"/>
     <use xlink:href="#ArialMT-63" x="455.761719"/>
     <use xlink:href="#ArialMT-74" x="505.761719"/>
     <use xlink:href="#ArialMT-69" x="533.544922"/>
     <use xlink:href="#ArialMT-6f" x="555.761719"/>
     <use xlink:href="#ArialMT-6e" x="611.376953"/>
     <use xlink:href="#ArialMT-20" x="666.992188"/>
     <use xlink:href="#ArialMT-4c" x="694.775391"/>
     <use xlink:href="#ArialMT-6f" x="750.390625"/>
     <use xlink:href="#ArialMT-73" x="806.005859"/>
     <use xlink:href="#ArialMT-73" x="856.005859"/>
     <use xlink:href="#ArialMT-20" x="906.005859"/>
     <use xlink:href="#ArialMT-28" x="933.789062"/>
     <use xlink:href="#ArialMT-4c" x="967.089844"/>
     <use xlink:href="#ArialMT-6f" x="1022.705078"/>
     <use xlink:href="#ArialMT-73" x="1078.320312"/>
     <use xlink:href="#ArialMT-73" x="1128.320312"/>
     <use xlink:href="#ArialMT-47" x="1178.320312"/>
     <use xlink:href="#ArialMT-5f" x="1256.103516"/>
     <use xlink:href="#ArialMT-72" x="1311.71875"/>
     <use xlink:href="#ArialMT-65" x="1345.019531"/>
     <use xlink:href="#ArialMT-63" x="1400.634766"/>
     <use xlink:href="#ArialMT-6f" x="1450.634766"/>
     <use xlink:href="#ArialMT-6e" x="1506.25"/>
     <use xlink:href="#ArialMT-29" x="1561.865234"/>
     <use xlink:href="#ArialMT-20" x="1595.166016"/>
     <use xlink:href="#ArialMT-76" x="1622.949219"/>
     <use xlink:href="#ArialMT-73" x="1672.949219"/>
     <use xlink:href="#ArialMT-20" x="1722.949219"/>
     <use xlink:href="#ArialMT-45" x="1750.732422"/>
     <use xlink:href="#ArialMT-70" x="1817.431641"/>
     <use xlink:href="#ArialMT-6f" x="1873.046875"/>
     <use xlink:href="#ArialMT-63" x="1928.662109"/>
     <use xlink:href="#ArialMT-68" x="1978.662109"/>
    </g>
   </g>
  </g>
 </g>
 <defs>
  <clipPath id="pf6e23daffb">
   <rect x="75.672" y="32.352" width="628.776" height="271.956"/>
  </clipPath>
 </defs>
</svg>
