<?xml version="1.0" encoding="utf-8" standalone="no"?>
<!DOCTYPE svg PUBLIC "-//W3C//DTD SVG 1.1//EN"
  "http://www.w3.org/Graphics/SVG/1.1/DTD/svg11.dtd">
<svg xmlns:xlink="http://www.w3.org/1999/xlink" width="720pt" height="576pt" viewBox="0 0 720 576" xmlns="http://www.w3.org/2000/svg" version="1.1">
 <metadata>
  <rdf:RDF xmlns:dc="http://purl.org/dc/elements/1.1/" xmlns:cc="http://creativecommons.org/ns#" xmlns:rdf="http://www.w3.org/1999/02/22-rdf-syntax-ns#">
   <cc:Work>
    <dc:type rdf:resource="http://purl.org/dc/dcmitype/StillImage"/>
    <dc:date>2025-04-24T19:34:03.154279</dc:date>
    <dc:format>image/svg+xml</dc:format>
    <dc:creator>
     <cc:Agent>
      <dc:title>Matplotlib v3.9.2, https://matplotlib.org/</dc:title>
     </cc:Agent>
    </dc:creator>
   </cc:Work>
  </rdf:RDF>
 </metadata>
 <defs>
  <style type="text/css">*{stroke-linejoin: round; stroke-linecap: butt}</style>
 </defs>
 <g id="figure_1">
  <g id="patch_1">
   <path d="M 0 576 
L 720 576 
L 720 0 
L 0 0 
z
" style="fill: #ffffff"/>
  </g>
  <g id="axes_1">
   <g id="patch_2">
    <path d="M 83.392615 495.840956 
L 694.08 495.840956 
L 694.08 49.831226 
L 83.392615 49.831226 
z
" style="fill: #ffffff"/>
   </g>
   <g id="matplotlib.axis_1">
    <g id="xtick_1">
     <g id="line2d_1">
      <path d="M 111.151132 495.840956 
L 111.151132 49.831226 
" clip-path="url(#pb1af46fc93)" style="fill: none; stroke: #cccccc; stroke-linecap: round"/>
     </g>
     <g id="text_1">
      <!-- $\mathdefault{0}$ -->
      <g style="fill: #262626" transform="translate(106.12518 520.56165) scale(0.22 -0.22)">
       <defs>
        <path id="CMR17-30" d="M 2688 2025 
C 2688 2416 2682 3080 2413 3591 
C 2176 4039 1798 4198 1466 4198 
C 1158 4198 768 4058 525 3597 
C 269 3118 243 2524 243 2025 
C 243 1661 250 1106 448 619 
C 723 -39 1216 -128 1466 -128 
C 1760 -128 2208 -7 2470 600 
C 2662 1042 2688 1559 2688 2025 
z
M 1466 -26 
C 1056 -26 813 325 723 812 
C 653 1188 653 1738 653 2096 
C 653 2588 653 2997 736 3387 
C 858 3929 1216 4096 1466 4096 
C 1728 4096 2067 3923 2189 3400 
C 2272 3036 2278 2607 2278 2096 
C 2278 1680 2278 1169 2202 792 
C 2067 95 1690 -26 1466 -26 
z
" transform="scale(0.015625)"/>
       </defs>
       <use xlink:href="#CMR17-30" transform="scale(0.996264)"/>
      </g>
     </g>
    </g>
    <g id="xtick_2">
     <g id="line2d_2">
      <path d="M 223.306759 495.840956 
L 223.306759 49.831226 
" clip-path="url(#pb1af46fc93)" style="fill: none; stroke: #cccccc; stroke-linecap: round"/>
     </g>
     <g id="text_2">
      <!-- $\mathdefault{200}$ -->
      <g style="fill: #262626" transform="translate(208.228901 520.56165) scale(0.22 -0.22)">
       <defs>
        <path id="CMR17-32" d="M 2669 989 
L 2554 989 
C 2490 536 2438 459 2413 420 
C 2381 369 1920 369 1830 369 
L 602 369 
C 832 619 1280 1072 1824 1597 
C 2214 1967 2669 2402 2669 3035 
C 2669 3790 2067 4224 1395 4224 
C 691 4224 262 3604 262 3030 
C 262 2780 448 2748 525 2748 
C 589 2748 781 2787 781 3010 
C 781 3207 614 3264 525 3264 
C 486 3264 448 3258 422 3245 
C 544 3790 915 4058 1306 4058 
C 1862 4058 2227 3617 2227 3035 
C 2227 2479 1901 2000 1536 1584 
L 262 146 
L 262 0 
L 2515 0 
L 2669 989 
z
" transform="scale(0.015625)"/>
       </defs>
       <use xlink:href="#CMR17-32" transform="scale(0.996264)"/>
       <use xlink:href="#CMR17-30" transform="translate(45.690477 0) scale(0.996264)"/>
       <use xlink:href="#CMR17-30" transform="translate(91.380954 0) scale(0.996264)"/>
      </g>
     </g>
    </g>
    <g id="xtick_3">
     <g id="line2d_3">
      <path d="M 335.462385 495.840956 
L 335.462385 49.831226 
" clip-path="url(#pb1af46fc93)" style="fill: none; stroke: #cccccc; stroke-linecap: round"/>
     </g>
     <g id="text_3">
      <!-- $\mathdefault{400}$ -->
      <g style="fill: #262626" transform="translate(320.384528 520.56165) scale(0.22 -0.22)">
       <defs>
        <path id="CMR17-34" d="M 2150 4122 
C 2150 4256 2144 4256 2029 4256 
L 128 1254 
L 128 1088 
L 1779 1088 
L 1779 457 
C 1779 224 1766 160 1318 160 
L 1197 160 
L 1197 0 
C 1402 0 1747 0 1965 0 
C 2182 0 2528 0 2733 0 
L 2733 160 
L 2611 160 
C 2163 160 2150 224 2150 457 
L 2150 1088 
L 2803 1088 
L 2803 1254 
L 2150 1254 
L 2150 4122 
z
M 1798 3703 
L 1798 1254 
L 256 1254 
L 1798 3703 
z
" transform="scale(0.015625)"/>
       </defs>
       <use xlink:href="#CMR17-34" transform="scale(0.996264)"/>
       <use xlink:href="#CMR17-30" transform="translate(45.690477 0) scale(0.996264)"/>
       <use xlink:href="#CMR17-30" transform="translate(91.380954 0) scale(0.996264)"/>
      </g>
     </g>
    </g>
    <g id="xtick_4">
     <g id="line2d_4">
      <path d="M 447.618011 495.840956 
L 447.618011 49.831226 
" clip-path="url(#pb1af46fc93)" style="fill: none; stroke: #cccccc; stroke-linecap: round"/>
     </g>
     <g id="text_4">
      <!-- $\mathdefault{600}$ -->
      <g style="fill: #262626" transform="translate(432.540154 520.56165) scale(0.22 -0.22)">
       <defs>
        <path id="CMR17-36" d="M 678 2176 
C 678 3690 1395 4032 1811 4032 
C 1946 4032 2272 4009 2400 3776 
C 2298 3776 2106 3776 2106 3553 
C 2106 3381 2246 3323 2336 3323 
C 2394 3323 2566 3348 2566 3560 
C 2566 3954 2246 4179 1805 4179 
C 1043 4179 243 3390 243 1984 
C 243 253 966 -128 1478 -128 
C 2099 -128 2688 427 2688 1283 
C 2688 2081 2170 2662 1517 2662 
C 1126 2662 838 2407 678 1960 
L 678 2176 
z
M 1478 25 
C 691 25 691 1200 691 1436 
C 691 1896 909 2560 1504 2560 
C 1613 2560 1926 2560 2138 2120 
C 2253 1870 2253 1609 2253 1289 
C 2253 944 2253 690 2118 434 
C 1978 171 1773 25 1478 25 
z
" transform="scale(0.015625)"/>
       </defs>
       <use xlink:href="#CMR17-36" transform="scale(0.996264)"/>
       <use xlink:href="#CMR17-30" transform="translate(45.690477 0) scale(0.996264)"/>
       <use xlink:href="#CMR17-30" transform="translate(91.380954 0) scale(0.996264)"/>
      </g>
     </g>
    </g>
    <g id="xtick_5">
     <g id="line2d_5">
      <path d="M 559.773638 495.840956 
L 559.773638 49.831226 
" clip-path="url(#pb1af46fc93)" style="fill: none; stroke: #cccccc; stroke-linecap: round"/>
     </g>
     <g id="text_5">
      <!-- $\mathdefault{800}$ -->
      <g style="fill: #262626" transform="translate(544.69578 520.56165) scale(0.22 -0.22)">
       <defs>
        <path id="CMR17-38" d="M 1741 2264 
C 2144 2467 2554 2773 2554 3263 
C 2554 3841 1990 4179 1472 4179 
C 890 4179 378 3759 378 3180 
C 378 3021 416 2747 666 2505 
C 730 2442 998 2251 1171 2130 
C 883 1983 211 1634 211 934 
C 211 279 838 -128 1459 -128 
C 2144 -128 2720 362 2720 1010 
C 2720 1590 2330 1857 2074 2029 
L 1741 2264 
z
M 902 2822 
C 851 2854 595 3051 595 3351 
C 595 3739 998 4032 1459 4032 
C 1965 4032 2336 3676 2336 3262 
C 2336 2669 1670 2331 1638 2331 
C 1632 2331 1626 2331 1574 2370 
L 902 2822 
z
M 2080 1519 
C 2176 1449 2483 1240 2483 851 
C 2483 381 2010 25 1472 25 
C 890 25 448 438 448 940 
C 448 1443 838 1862 1280 2060 
L 2080 1519 
z
" transform="scale(0.015625)"/>
       </defs>
       <use xlink:href="#CMR17-38" transform="scale(0.996264)"/>
       <use xlink:href="#CMR17-30" transform="translate(45.690477 0) scale(0.996264)"/>
       <use xlink:href="#CMR17-30" transform="translate(91.380954 0) scale(0.996264)"/>
      </g>
     </g>
    </g>
    <g id="xtick_6">
     <g id="line2d_6">
      <path d="M 671.929264 495.840956 
L 671.929264 49.831226 
" clip-path="url(#pb1af46fc93)" style="fill: none; stroke: #cccccc; stroke-linecap: round"/>
     </g>
     <g id="text_6">
      <!-- $\mathdefault{1000}$ -->
      <g style="fill: #262626" transform="translate(651.825454 520.56165) scale(0.22 -0.22)">
       <defs>
        <path id="CMR17-31" d="M 1702 4058 
C 1702 4192 1696 4192 1606 4192 
C 1357 3916 979 3827 621 3827 
C 602 3827 570 3827 563 3808 
C 557 3795 557 3782 557 3648 
C 755 3648 1088 3686 1344 3839 
L 1344 461 
C 1344 236 1331 160 781 160 
L 589 160 
L 589 0 
C 896 0 1216 0 1523 0 
C 1830 0 2150 0 2458 0 
L 2458 160 
L 2266 160 
C 1715 160 1702 230 1702 458 
L 1702 4058 
z
" transform="scale(0.015625)"/>
       </defs>
       <use xlink:href="#CMR17-31" transform="scale(0.996264)"/>
       <use xlink:href="#CMR17-30" transform="translate(45.690477 0) scale(0.996264)"/>
       <use xlink:href="#CMR17-30" transform="translate(91.380954 0) scale(0.996264)"/>
       <use xlink:href="#CMR17-30" transform="translate(137.071431 0) scale(0.996264)"/>
      </g>
     </g>
    </g>
    <g id="text_7">
     <!-- Step -->
     <g style="fill: #262626" transform="translate(367.649451 545.429243) scale(0.24 -0.24)">
      <defs>
       <path id="CMSS17-53" d="M 2797 4169 
C 2515 4334 2208 4480 1690 4480 
C 864 4480 333 3879 333 3266 
C 333 3025 403 2753 653 2475 
C 902 2196 1184 2121 1542 2033 
C 1690 1994 1939 1924 1984 1906 
C 2342 1767 2515 1444 2515 1140 
C 2515 742 2202 318 1645 318 
C 1453 318 890 318 358 819 
L 269 318 
C 794 -64 1363 -128 1651 -128 
C 2438 -128 3002 488 3002 1186 
C 3002 1440 2925 1763 2656 2061 
C 2394 2347 2163 2410 1638 2549 
C 1338 2626 1146 2677 986 2873 
C 877 3013 819 3146 819 3317 
C 819 3673 1126 4060 1690 4060 
C 1971 4060 2336 4002 2707 3660 
L 2797 4169 
z
" transform="scale(0.015625)"/>
       <path id="CMSS17-74" d="M 1069 2368 
L 1901 2368 
L 1901 2737 
L 1069 2737 
L 1069 3520 
L 614 3520 
L 614 2737 
L 109 2737 
L 109 2368 
L 602 2368 
L 602 749 
C 602 384 685 -64 1107 -64 
C 1427 -64 1722 25 2003 172 
L 1901 548 
C 1747 414 1562 337 1363 337 
C 1082 337 1069 696 1069 856 
L 1069 2368 
z
" transform="scale(0.015625)"/>
       <path id="CMSS17-65" d="M 2502 1377 
C 2502 1590 2490 2003 2285 2345 
C 2061 2713 1696 2816 1421 2816 
C 755 2816 192 2188 192 1375 
C 192 582 774 -64 1510 -64 
C 1798 -64 2150 19 2470 248 
C 2470 274 2458 414 2451 420 
C 2451 433 2432 630 2432 656 
C 2125 407 1773 325 1517 325 
C 1107 325 666 667 646 1377 
L 2502 1377 
z
M 698 1728 
C 781 2084 1062 2421 1421 2421 
C 1517 2421 1965 2421 2080 1728 
L 698 1728 
z
" transform="scale(0.015625)"/>
       <path id="CMSS17-70" d="M 966 333 
C 1178 129 1466 -5 1773 -5 
C 2368 -5 2880 603 2880 1412 
C 2880 2159 2496 2816 1946 2816 
C 1626 2816 1242 2702 954 2472 
L 954 2765 
L 480 2765 
L 480 -1216 
L 966 -1216 
L 966 333 
z
M 966 2100 
C 1018 2176 1235 2415 1587 2415 
C 2035 2415 2394 1960 2394 1412 
C 2394 787 1958 384 1530 384 
C 1402 384 1267 415 1139 523 
C 966 674 966 768 966 857 
L 966 2100 
z
" transform="scale(0.015625)"/>
      </defs>
      <use xlink:href="#CMSS17-53" transform="scale(0.996264)"/>
      <use xlink:href="#CMSS17-74" transform="translate(52.048516 0) scale(0.996264)"/>
      <use xlink:href="#CMSS17-65" transform="translate(85.880083 0) scale(0.996264)"/>
      <use xlink:href="#CMSS17-70" transform="translate(127.518905 0) scale(0.996264)"/>
     </g>
    </g>
   </g>
   <g id="matplotlib.axis_2">
    <g id="ytick_1">
     <g id="line2d_7">
      <path d="M 83.392615 486.599878 
L 694.08 486.599878 
" clip-path="url(#pb1af46fc93)" style="fill: none; stroke: #cccccc; stroke-linecap: round"/>
     </g>
     <g id="text_8">
      <!-- $\mathdefault{0}$ -->
      <g style="fill: #262626" transform="translate(63.84071 494.210224) scale(0.22 -0.22)">
       <use xlink:href="#CMR17-30" transform="scale(0.996264)"/>
      </g>
     </g>
    </g>
    <g id="ytick_2">
     <g id="line2d_8">
      <path d="M 83.392615 418.500551 
L 694.08 418.500551 
" clip-path="url(#pb1af46fc93)" style="fill: none; stroke: #cccccc; stroke-linecap: round"/>
     </g>
     <g id="text_9">
      <!-- $\mathdefault{5}$ -->
      <g style="fill: #262626" transform="translate(63.84071 426.110898) scale(0.22 -0.22)">
       <defs>
        <path id="CMR17-35" d="M 730 3692 
C 794 3666 1056 3584 1325 3584 
C 1920 3584 2246 3911 2432 4100 
C 2432 4157 2432 4192 2394 4192 
C 2387 4192 2374 4192 2323 4163 
C 2099 4058 1837 3973 1517 3973 
C 1325 3973 1037 3999 723 4139 
C 653 4171 640 4171 634 4171 
C 602 4171 595 4164 595 4037 
L 595 2203 
C 595 2089 595 2057 659 2057 
C 691 2057 704 2070 736 2114 
C 941 2401 1222 2522 1542 2522 
C 1766 2522 2246 2382 2246 1289 
C 2246 1085 2246 715 2054 421 
C 1894 159 1645 25 1370 25 
C 947 25 518 320 403 814 
C 429 807 480 795 506 795 
C 589 795 749 840 749 1038 
C 749 1210 627 1280 506 1280 
C 358 1280 262 1190 262 1011 
C 262 454 704 -128 1382 -128 
C 2042 -128 2669 440 2669 1264 
C 2669 2030 2170 2624 1549 2624 
C 1222 2624 947 2503 730 2274 
L 730 3692 
z
" transform="scale(0.015625)"/>
       </defs>
       <use xlink:href="#CMR17-35" transform="scale(0.996264)"/>
      </g>
     </g>
    </g>
    <g id="ytick_3">
     <g id="line2d_9">
      <path d="M 83.392615 350.401224 
L 694.08 350.401224 
" clip-path="url(#pb1af46fc93)" style="fill: none; stroke: #cccccc; stroke-linecap: round"/>
     </g>
     <g id="text_10">
      <!-- $\mathdefault{10}$ -->
      <g style="fill: #262626" transform="translate(53.788805 358.011571) scale(0.22 -0.22)">
       <use xlink:href="#CMR17-31" transform="scale(0.996264)"/>
       <use xlink:href="#CMR17-30" transform="translate(45.690477 0) scale(0.996264)"/>
      </g>
     </g>
    </g>
    <g id="ytick_4">
     <g id="line2d_10">
      <path d="M 83.392615 282.301898 
L 694.08 282.301898 
" clip-path="url(#pb1af46fc93)" style="fill: none; stroke: #cccccc; stroke-linecap: round"/>
     </g>
     <g id="text_11">
      <!-- $\mathdefault{15}$ -->
      <g style="fill: #262626" transform="translate(53.788805 289.912244) scale(0.22 -0.22)">
       <use xlink:href="#CMR17-31" transform="scale(0.996264)"/>
       <use xlink:href="#CMR17-35" transform="translate(45.690477 0) scale(0.996264)"/>
      </g>
     </g>
    </g>
    <g id="ytick_5">
     <g id="line2d_11">
      <path d="M 83.392615 214.202571 
L 694.08 214.202571 
" clip-path="url(#pb1af46fc93)" style="fill: none; stroke: #cccccc; stroke-linecap: round"/>
     </g>
     <g id="text_12">
      <!-- $\mathdefault{20}$ -->
      <g style="fill: #262626" transform="translate(53.788805 221.812918) scale(0.22 -0.22)">
       <use xlink:href="#CMR17-32" transform="scale(0.996264)"/>
       <use xlink:href="#CMR17-30" transform="translate(45.690477 0) scale(0.996264)"/>
      </g>
     </g>
    </g>
    <g id="ytick_6">
     <g id="line2d_12">
      <path d="M 83.392615 146.103244 
L 694.08 146.103244 
" clip-path="url(#pb1af46fc93)" style="fill: none; stroke: #cccccc; stroke-linecap: round"/>
     </g>
     <g id="text_13">
      <!-- $\mathdefault{25}$ -->
      <g style="fill: #262626" transform="translate(53.788805 153.713591) scale(0.22 -0.22)">
       <use xlink:href="#CMR17-32" transform="scale(0.996264)"/>
       <use xlink:href="#CMR17-35" transform="translate(45.690477 0) scale(0.996264)"/>
      </g>
     </g>
    </g>
    <g id="ytick_7">
     <g id="line2d_13">
      <path d="M 83.392615 78.003918 
L 694.08 78.003918 
" clip-path="url(#pb1af46fc93)" style="fill: none; stroke: #cccccc; stroke-linecap: round"/>
     </g>
     <g id="text_14">
      <!-- $\mathdefault{30}$ -->
      <g style="fill: #262626" transform="translate(53.788805 85.614265) scale(0.22 -0.22)">
       <defs>
        <path id="CMR17-33" d="M 1414 2157 
C 1984 2157 2234 1662 2234 1090 
C 2234 320 1824 25 1453 25 
C 1114 25 563 194 390 693 
C 422 680 454 680 486 680 
C 640 680 755 782 755 948 
C 755 1133 614 1216 486 1216 
C 378 1216 211 1165 211 926 
C 211 335 787 -128 1466 -128 
C 2176 -128 2720 430 2720 1085 
C 2720 1707 2208 2157 1600 2227 
C 2086 2328 2554 2756 2554 3329 
C 2554 3820 2048 4179 1472 4179 
C 890 4179 378 3829 378 3329 
C 378 3110 544 3072 627 3072 
C 762 3072 877 3155 877 3321 
C 877 3486 762 3569 627 3569 
C 602 3569 570 3569 544 3557 
C 730 3959 1235 4032 1459 4032 
C 1683 4032 2106 3925 2106 3320 
C 2106 3143 2080 2828 1862 2550 
C 1670 2304 1453 2304 1242 2284 
C 1210 2284 1062 2269 1037 2269 
C 992 2263 966 2257 966 2208 
C 966 2163 973 2157 1101 2157 
L 1414 2157 
z
" transform="scale(0.015625)"/>
       </defs>
       <use xlink:href="#CMR17-33" transform="scale(0.996264)"/>
       <use xlink:href="#CMR17-30" transform="translate(45.690477 0) scale(0.996264)"/>
      </g>
     </g>
    </g>
    <g id="text_15">
     <!-- Percentage Explored (\%) -->
     <g style="fill: #262626" transform="translate(43.831226 390.204645) rotate(-90) scale(0.24 -0.24)">
      <defs>
       <path id="CMSS17-50" d="M 2106 1856 
C 2874 1856 3501 2453 3501 3158 
C 3501 3850 2899 4453 2067 4453 
L 570 4453 
L 570 0 
L 1107 0 
L 1107 1856 
L 2106 1856 
z
M 1926 4096 
C 2669 4096 2995 3627 2995 3157 
C 2995 2720 2694 2226 1926 2226 
L 1094 2226 
L 1094 4096 
L 1926 4096 
z
" transform="scale(0.015625)"/>
       <path id="CMSS17-72" d="M 954 1363 
C 954 1965 1395 2368 1958 2368 
L 1958 2789 
C 1549 2789 1165 2585 934 2253 
L 934 2758 
L 480 2758 
L 480 0 
L 954 0 
L 954 1363 
z
" transform="scale(0.015625)"/>
       <path id="CMSS17-63" d="M 2464 2541 
C 2464 2585 2170 2714 2093 2739 
C 1882 2816 1613 2816 1542 2816 
C 710 2816 211 2093 211 1363 
C 211 595 768 -64 1517 -64 
C 1946 -64 2253 76 2502 242 
L 2464 664 
C 2189 453 1869 337 1523 337 
C 1024 337 698 774 698 1369 
C 698 1831 909 2414 1549 2414 
C 1901 2414 2099 2343 2394 2145 
L 2464 2541 
z
" transform="scale(0.015625)"/>
       <path id="CMSS17-6e" d="M 2618 1877 
C 2618 2283 2522 2816 1798 2816 
C 1389 2816 1120 2606 941 2389 
L 941 2758 
L 474 2758 
L 474 0 
L 960 0 
L 960 1559 
C 960 1964 1114 2428 1549 2428 
C 2112 2428 2131 2048 2131 1829 
L 2131 0 
L 2618 0 
L 2618 1877 
z
" transform="scale(0.015625)"/>
       <path id="CMSS17-61" d="M 2406 1791 
C 2406 2392 1978 2808 1402 2808 
C 1120 2808 813 2757 461 2553 
L 499 2135 
C 659 2248 934 2432 1395 2432 
C 1722 2432 1920 2180 1920 1782 
L 1920 1536 
C 896 1536 256 1238 256 726 
C 256 461 416 -64 947 -64 
C 1043 -64 1562 -64 1933 217 
L 1933 -19 
L 2406 -19 
L 2406 1791 
z
M 1920 816 
C 1920 701 1920 548 1728 434 
C 1562 325 1350 325 1261 325 
C 941 325 723 511 723 744 
C 723 1211 1722 1211 1920 1211 
L 1920 816 
z
" transform="scale(0.015625)"/>
       <path id="CMSS17-67" d="M 2848 2808 
C 2483 2808 2170 2738 1914 2617 
C 1702 2777 1485 2808 1338 2808 
C 781 2808 358 2349 358 1814 
C 358 1468 550 1207 563 1195 
C 448 1035 384 863 384 672 
C 384 448 474 289 544 200 
C 211 -3 166 -314 166 -435 
C 166 -898 749 -1280 1498 -1280 
C 2253 -1280 2835 -898 2835 -428 
C 2835 448 1856 448 1587 448 
L 1069 448 
C 973 448 717 448 717 791 
C 717 921 774 1004 781 1010 
C 877 940 1075 832 1338 832 
C 1869 832 2310 1278 2310 1827 
C 2310 2132 2170 2355 2112 2432 
L 2131 2432 
C 2150 2432 2419 2432 2515 2432 
C 2720 2432 2739 2429 2918 2419 
L 2848 2808 
z
M 1338 1182 
C 1120 1182 813 1315 813 1823 
C 813 2375 1165 2464 1331 2464 
C 1549 2464 1856 2331 1856 1823 
C 1856 1271 1504 1182 1338 1182 
z
M 1581 -10 
C 1734 -10 2381 -10 2381 -442 
C 2381 -714 1984 -929 1504 -929 
C 1018 -929 621 -720 621 -435 
C 621 -403 621 -10 1062 -10 
L 1581 -10 
z
" transform="scale(0.015625)"/>
       <path id="CMSS17-45" d="M 1958 433 
C 1446 433 1216 433 1101 433 
L 1101 2107 
L 3085 2107 
L 3085 2496 
L 1101 2496 
L 1101 4009 
L 1926 4009 
C 2003 4009 2080 4009 2157 4009 
L 3251 4009 
L 3251 4416 
L 563 4416 
L 563 0 
L 3334 0 
L 3334 433 
L 1958 433 
z
" transform="scale(0.015625)"/>
       <path id="CMSS17-78" d="M 1587 1414 
L 2656 2739 
L 2099 2739 
L 1363 1777 
L 602 2739 
L 32 2739 
L 1139 1414 
L 0 0 
L 563 0 
L 1363 1121 
L 2195 0 
L 2758 0 
L 1587 1414 
z
" transform="scale(0.015625)"/>
       <path id="CMSS17-6c" d="M 947 4416 
L 474 4416 
L 474 0 
L 947 0 
L 947 4416 
z
" transform="scale(0.015625)"/>
       <path id="CMSS17-6f" d="M 2829 1356 
C 2829 2176 2221 2816 1504 2816 
C 768 2816 173 2157 173 1356 
C 173 544 787 -64 1498 -64 
C 2227 -64 2829 563 2829 1356 
z
M 1504 337 
C 1050 337 659 709 659 1408 
C 659 2151 1114 2427 1498 2427 
C 1914 2427 2342 2126 2342 1408 
C 2342 683 1926 337 1504 337 
z
" transform="scale(0.015625)"/>
       <path id="CMSS17-64" d="M 2611 4416 
L 2138 4416 
L 2138 2438 
C 1939 2603 1613 2756 1254 2756 
C 672 2756 211 2131 211 1347 
C 211 562 666 -64 1235 -64 
C 1677 -64 1971 172 2125 306 
L 2125 -13 
L 2611 -13 
L 2611 4416 
z
M 2125 836 
C 2125 747 2125 653 1926 482 
C 1798 375 1645 325 1498 325 
C 1152 325 698 576 698 1340 
C 698 2134 1210 2368 1562 2368 
C 1798 2368 1990 2254 2125 2065 
L 2125 836 
z
" transform="scale(0.015625)"/>
       <path id="CMSS17-28" d="M 1613 4768 
C 1267 4417 474 3601 474 1588 
C 474 -433 1267 -1243 1613 -1600 
L 2003 -1600 
C 1216 -784 960 357 960 1581 
C 960 2798 1203 3946 2003 4768 
L 1613 4768 
z
" transform="scale(0.015625)"/>
       <path id="CMSS17-25" d="M 3923 4583 
C 3962 4647 3962 4679 3962 4685 
C 3962 4755 3904 4800 3853 4800 
C 3782 4800 3750 4749 3718 4685 
L 1101 -104 
C 1088 -129 1062 -167 1062 -206 
C 1062 -276 1120 -320 1178 -320 
C 1235 -320 1248 -295 1299 -206 
L 3923 4583 
z
M 4678 959 
C 4678 1698 4282 2240 3846 2240 
C 3418 2240 3008 1711 3008 959 
C 3008 208 3418 -320 3846 -320 
C 4288 -320 4678 221 4678 959 
z
M 3846 68 
C 3712 68 3494 189 3494 959 
C 3494 1724 3712 1851 3846 1851 
C 4083 1851 4211 1386 4211 959 
C 4211 533 4083 68 3846 68 
z
M 2003 3519 
C 2003 4258 1606 4800 1171 4800 
C 742 4800 333 4271 333 3519 
C 333 2768 742 2240 1171 2240 
C 1613 2240 2003 2781 2003 3519 
z
M 1171 2628 
C 1037 2628 819 2749 819 3519 
C 819 4284 1037 4411 1171 4411 
C 1408 4411 1536 3946 1536 3519 
C 1536 3093 1408 2628 1171 2628 
z
" transform="scale(0.015625)"/>
       <path id="CMSS17-29" d="M 723 -1600 
C 1069 -1249 1862 -433 1862 1581 
C 1862 3601 1069 4411 723 4768 
L 333 4768 
C 1120 3952 1376 2811 1376 1588 
C 1376 370 1133 -778 333 -1600 
L 723 -1600 
z
" transform="scale(0.015625)"/>
      </defs>
      <use xlink:href="#CMSS17-50" transform="scale(0.996264)"/>
      <use xlink:href="#CMSS17-65" transform="translate(57.133132 0) scale(0.996264)"/>
      <use xlink:href="#CMSS17-72" transform="translate(98.771954 0) scale(0.996264)"/>
      <use xlink:href="#CMSS17-63" transform="translate(130.681727 0) scale(0.996264)"/>
      <use xlink:href="#CMSS17-65" transform="translate(172.320549 0) scale(0.996264)"/>
      <use xlink:href="#CMSS17-6e" transform="translate(213.959371 0) scale(0.996264)"/>
      <use xlink:href="#CMSS17-74" transform="translate(262.164314 0) scale(0.996264)"/>
      <use xlink:href="#CMSS17-61" transform="translate(295.995881 0) scale(0.996264)"/>
      <use xlink:href="#CMSS17-67" transform="translate(340.917802 0) scale(0.996264)"/>
      <use xlink:href="#CMSS17-65" transform="translate(387.761425 0) scale(0.996264)"/>
      <use xlink:href="#CMSS17-45" transform="translate(460.62936 0) scale(0.996264)"/>
      <use xlink:href="#CMSS17-78" transform="translate(516.521373 0) scale(0.996264)"/>
      <use xlink:href="#CMSS17-70" transform="translate(559.521515 0) scale(0.996264)"/>
      <use xlink:href="#CMSS17-6c" transform="translate(607.726458 0) scale(0.996264)"/>
      <use xlink:href="#CMSS17-6f" transform="translate(629.907181 0) scale(0.996264)"/>
      <use xlink:href="#CMSS17-72" transform="translate(674.148351 0) scale(0.996264)"/>
      <use xlink:href="#CMSS17-65" transform="translate(706.058123 0) scale(0.996264)"/>
      <use xlink:href="#CMSS17-64" transform="translate(747.696945 0) scale(0.996264)"/>
      <use xlink:href="#CMSS17-28" transform="translate(827.131001 0) scale(0.996264)"/>
      <use xlink:href="#CMSS17-25" transform="translate(863.564915 0) scale(0.996264)"/>
      <use xlink:href="#CMSS17-29" transform="translate(941.637652 0) scale(0.996264)"/>
     </g>
    </g>
   </g>
   <g id="PolyCollection_1">
    <defs>
     <path id="mabf5b3fafa" d="M 111.151132 -100.432213 
L 111.151132 -100.432213 
L 116.758914 -123.722183 
L 122.366695 -133.392287 
L 127.974476 -138.567836 
L 133.582258 -141.291809 
L 139.190039 -147.148351 
L 144.79782 -149.055133 
L 150.405602 -149.32753 
L 156.013383 -152.187702 
L 161.621164 -153.549688 
L 167.228946 -153.685887 
L 172.836727 -150.144722 
L 178.444508 -144.560577 
L 184.052289 -158.316641 
L 189.660071 -151.234311 
L 195.267852 -163.49219 
L 200.875633 -160.495819 
L 206.483415 -159.678627 
L 212.091196 -147.556947 
L 217.698977 -146.194961 
L 223.306759 -134.754274 
L 228.91454 -128.352937 
L 234.522321 -135.707664 
L 240.130103 -148.374139 
L 245.737884 -135.707664 
L 251.345665 -128.761533 
L 256.953447 -128.761533 
L 262.561228 -124.811772 
L 268.169009 -123.177388 
L 273.776791 -130.395917 
L 279.384572 -130.668314 
L 284.992353 -133.528486 
L 290.600134 -141.564207 
L 296.207916 -136.797254 
L 301.815697 -145.24157 
L 307.423478 -157.908045 
L 313.03126 -169.757328 
L 318.639041 -175.069075 
L 324.246822 -181.470412 
L 329.854604 -187.463153 
L 335.462385 -188.144146 
L 341.070166 -180.380823 
L 346.677948 -185.556372 
L 352.285729 -172.208904 
L 357.89351 -172.208904 
L 363.501292 -175.61387 
L 369.109073 -173.026095 
L 374.716854 -169.621129 
L 380.324635 -173.162294 
L 385.932417 -170.165924 
L 391.540198 -165.53517 
L 397.147979 -175.341473 
L 402.755761 -183.921988 
L 408.363542 -187.326954 
L 413.971323 -190.595722 
L 419.579105 -188.961338 
L 425.186886 -188.280345 
L 430.794667 -191.412914 
L 436.402449 -199.584833 
L 442.01023 -197.541853 
L 447.618011 -176.294863 
L 453.225793 -170.710718 
L 458.833574 -167.169553 
L 464.441355 -161.44921 
L 470.049137 -160.768217 
L 475.656918 -151.506708 
L 481.264699 -152.868695 
L 486.87248 -150.144722 
L 492.480262 -141.700405 
L 498.088043 -134.209479 
L 503.695824 -134.618075 
L 509.303606 -164.036984 
L 514.911387 -173.979486 
L 520.519168 -170.438321 
L 526.12695 -157.771846 
L 531.734731 -162.947395 
L 537.342512 -168.122944 
L 542.950294 -166.079964 
L 548.558075 -159.951025 
L 554.165856 -152.868695 
L 559.773638 -150.417119 
L 565.381419 -152.051503 
L 570.9892 -150.553318 
L 576.596981 -151.642907 
L 582.204763 -144.015782 
L 587.812544 -151.506708 
L 593.420325 -150.553318 
L 599.028107 -156.137462 
L 604.635888 -159.133833 
L 610.243669 -156.546058 
L 615.851451 -161.44921 
L 621.459232 -166.079964 
L 627.067013 -156.137462 
L 632.674795 -153.004893 
L 638.282576 -159.270032 
L 643.890357 -157.227052 
L 649.498139 -147.965543 
L 655.10592 -153.004893 
L 660.713701 -162.538799 
L 666.321482 -168.667739 
L 666.321482 -183.64959 
L 666.321482 -183.64959 
L 660.713701 -179.563631 
L 655.10592 -193.047298 
L 649.498139 -208.301547 
L 643.890357 -218.788843 
L 638.282576 -226.552166 
L 632.674795 -216.473466 
L 627.067013 -221.785213 
L 621.459232 -234.451688 
L 615.851451 -234.587887 
L 610.243669 -209.527335 
L 604.635888 -210.753122 
L 599.028107 -216.337267 
L 593.420325 -212.932301 
L 587.812544 -212.115109 
L 582.204763 -200.674422 
L 576.596981 -225.598776 
L 570.9892 -230.638126 
L 565.381419 -233.362099 
L 559.773638 -234.179291 
L 554.165856 -237.31186 
L 548.558075 -241.942614 
L 542.950294 -221.10422 
L 537.342512 -210.753122 
L 531.734731 -237.720456 
L 526.12695 -231.591516 
L 520.519168 -218.516446 
L 514.911387 -208.165348 
L 509.303606 -208.437745 
L 503.695824 -196.86086 
L 498.088043 -202.717402 
L 492.480262 -188.961338 
L 486.87248 -199.176237 
L 481.264699 -203.262197 
L 475.656918 -205.441375 
L 470.049137 -221.240419 
L 464.441355 -220.968021 
L 458.833574 -232.953503 
L 453.225793 -239.763436 
L 447.618011 -225.734974 
L 442.01023 -218.10785 
L 436.402449 -224.509186 
L 430.794667 -219.333638 
L 425.186886 -217.01826 
L 419.579105 -214.702883 
L 413.971323 -212.796102 
L 408.363542 -213.340897 
L 402.755761 -216.337267 
L 397.147979 -209.935931 
L 391.540198 -201.219217 
L 385.932417 -201.627813 
L 380.324635 -206.93956 
L 374.716854 -195.090277 
L 369.109073 -196.316065 
L 363.501292 -210.480725 
L 357.89351 -217.835452 
L 352.285729 -219.606035 
L 346.677948 -214.294287 
L 341.070166 -225.053981 
L 335.462385 -221.240419 
L 329.854604 -213.477095 
L 324.246822 -226.552166 
L 318.639041 -244.121792 
L 313.03126 -235.677476 
L 307.423478 -208.029149 
L 301.815697 -200.129627 
L 296.207916 -191.957708 
L 290.600134 -201.764011 
L 284.992353 -224.645385 
L 279.384572 -243.985594 
L 273.776791 -258.831247 
L 268.169009 -256.924466 
L 262.561228 -258.55885 
L 256.953447 -248.207752 
L 251.345665 -244.938984 
L 245.737884 -229.548537 
L 240.130103 -216.882062 
L 234.522321 -211.570314 
L 228.91454 -217.426856 
L 223.306759 -211.97891 
L 217.698977 -196.588462 
L 212.091196 -202.717402 
L 206.483415 -225.462577 
L 200.875633 -219.878432 
L 195.267852 -219.06124 
L 189.660071 -198.359045 
L 184.052289 -191.412914 
L 178.444508 -183.785789 
L 172.836727 -183.377193 
L 167.228946 -195.498873 
L 161.621164 -199.176237 
L 156.013383 -205.305176 
L 150.405602 -194.81788 
L 144.79782 -189.369934 
L 139.190039 -181.334213 
L 133.582258 -180.517021 
L 127.974476 -163.900786 
L 122.366695 -146.603557 
L 116.758914 -131.485506 
L 111.151132 -100.432213 
z
" style="stroke: #ffffff; stroke-opacity: 0.2"/>
    </defs>
    <g clip-path="url(#pb1af46fc93)">
     <use xlink:href="#mabf5b3fafa" x="0" y="576" style="fill: #4c72b0; fill-opacity: 0.2; stroke: #ffffff; stroke-opacity: 0.2"/>
    </g>
   </g>
   <g id="PolyCollection_2">
    <defs>
     <path id="m38068f10a9" d="M 111.151132 -100.432213 
L 111.151132 -100.432213 
L 116.758914 -118.274237 
L 122.366695 -131.07691 
L 127.974476 -139.929823 
L 133.582258 -147.28455 
L 139.190039 -154.503079 
L 144.79782 -161.44921 
L 150.405602 -161.994005 
L 156.013383 -161.994005 
L 161.621164 -162.538799 
L 167.228946 -165.126574 
L 172.836727 -164.036984 
L 178.444508 -185.011577 
L 184.052289 -199.721032 
L 189.660071 -201.219217 
L 195.267852 -196.316065 
L 200.875633 -196.316065 
L 206.483415 -192.230106 
L 212.091196 -188.688941 
L 217.698977 -186.101166 
L 223.306759 -186.509762 
L 228.91454 -183.240994 
L 234.522321 -183.240994 
L 240.130103 -192.502503 
L 245.737884 -192.7749 
L 251.345665 -202.308806 
L 256.953447 -202.036409 
L 262.561228 -202.172607 
L 268.169009 -207.756752 
L 273.776791 -208.029149 
L 279.384572 -208.029149 
L 284.992353 -209.118739 
L 290.600134 -206.394766 
L 296.207916 -208.846341 
L 301.815697 -207.620553 
L 307.423478 -210.753122 
L 313.03126 -209.254937 
L 318.639041 -209.254937 
L 324.246822 -211.570314 
L 329.854604 -215.520075 
L 335.462385 -220.559425 
L 341.070166 -220.559425 
L 346.677948 -223.419597 
L 352.285729 -221.649015 
L 357.89351 -218.10785 
L 363.501292 -204.89658 
L 369.109073 -196.997058 
L 374.716854 -184.058186 
L 380.324635 -179.563631 
L 385.932417 -180.108425 
L 391.540198 -183.104796 
L 397.147979 -207.211957 
L 402.755761 -201.764011 
L 408.363542 -200.402025 
L 413.971323 -207.211957 
L 419.579105 -210.344526 
L 425.186886 -208.437745 
L 430.794667 -206.93956 
L 436.402449 -206.93956 
L 442.01023 -208.98254 
L 447.618011 -207.620553 
L 453.225793 -206.667163 
L 458.833574 -204.487984 
L 464.441355 -197.133257 
L 470.049137 -194.273085 
L 475.656918 -198.631442 
L 481.264699 -217.699254 
L 486.87248 -215.520075 
L 492.480262 -223.555796 
L 498.088043 -217.01826 
L 503.695824 -241.806415 
L 509.303606 -262.644809 
L 514.911387 -261.827617 
L 520.519168 -261.010425 
L 526.12695 -253.383301 
L 531.734731 -245.075183 
L 537.342512 -252.838506 
L 542.950294 -252.974705 
L 548.558075 -254.200493 
L 554.165856 -257.877856 
L 559.773638 -251.612718 
L 565.381419 -245.619978 
L 570.9892 -240.853025 
L 576.596981 -240.580627 
L 582.204763 -242.896005 
L 587.812544 -250.250732 
L 593.420325 -263.870597 
L 599.028107 -267.411762 
L 604.635888 -267.411762 
L 610.243669 -267.684159 
L 615.851451 -261.419021 
L 621.459232 -250.386931 
L 627.067013 -234.860284 
L 632.674795 -229.139941 
L 638.282576 -236.494668 
L 643.890357 -222.057611 
L 649.498139 -210.889321 
L 655.10592 -210.208328 
L 660.713701 -208.710143 
L 666.321482 -224.645385 
L 666.321482 -314.264099 
L 666.321482 -314.264099 
L 660.713701 -325.704786 
L 655.10592 -329.654547 
L 649.498139 -338.235062 
L 643.890357 -339.597048 
L 638.282576 -322.572217 
L 632.674795 -305.683584 
L 627.067013 -303.095809 
L 621.459232 -315.898483 
L 615.851451 -314.536496 
L 610.243669 -324.206601 
L 604.635888 -339.46085 
L 599.028107 -350.629139 
L 593.420325 -352.53592 
L 587.812544 -356.485681 
L 582.204763 -361.66123 
L 576.596981 -362.614621 
L 570.9892 -383.180617 
L 565.381419 -387.94757 
L 559.773638 -369.288355 
L 554.165856 -377.86887 
L 548.558075 -363.295614 
L 542.950294 -359.482052 
L 537.342512 -354.170304 
L 531.734731 -344.908796 
L 526.12695 -348.313762 
L 520.519168 -339.188452 
L 514.911387 -333.059513 
L 509.303606 -322.163621 
L 503.695824 -344.227803 
L 498.088043 -357.847668 
L 492.480262 -328.701156 
L 486.87248 -333.33191 
L 481.264699 -323.525607 
L 475.656918 -327.33917 
L 470.049137 -316.988072 
L 464.441355 -310.041941 
L 458.833574 -315.217489 
L 453.225793 -322.163621 
L 447.618011 -310.041941 
L 442.01023 -302.959611 
L 436.402449 -293.834301 
L 430.794667 -300.780432 
L 425.186886 -299.146048 
L 419.579105 -298.737452 
L 413.971323 -310.041941 
L 408.363542 -335.37489 
L 402.755761 -349.130954 
L 397.147979 -329.654547 
L 391.540198 -317.124271 
L 385.932417 -322.027422 
L 380.324635 -313.855503 
L 374.716854 -298.601254 
L 369.109073 -297.375466 
L 363.501292 -306.909372 
L 357.89351 -312.493516 
L 352.285729 -313.310708 
L 346.677948 -304.593995 
L 341.070166 -297.511665 
L 335.462385 -302.687213 
L 329.854604 -308.407557 
L 324.246822 -317.260469 
L 318.639041 -326.113382 
L 313.03126 -337.554069 
L 307.423478 -342.048624 
L 301.815697 -328.837355 
L 296.207916 -315.353688 
L 290.600134 -328.020163 
L 284.992353 -333.059513 
L 279.384572 -328.837355 
L 273.776791 -313.991702 
L 268.169009 -301.189028 
L 262.561228 -274.902688 
L 256.953447 -267.411762 
L 251.345665 -258.150254 
L 245.737884 -264.006796 
L 240.130103 -274.357893 
L 234.522321 -278.988648 
L 228.91454 -273.132106 
L 223.306759 -255.834877 
L 217.698977 -256.51587 
L 212.091196 -264.960186 
L 206.483415 -264.006796 
L 200.875633 -264.415392 
L 195.267852 -266.049776 
L 189.660071 -246.709567 
L 184.052289 -238.401449 
L 178.444508 -237.992853 
L 172.836727 -237.175661 
L 167.228946 -223.964392 
L 161.621164 -219.469836 
L 156.013383 -214.294287 
L 150.405602 -202.853601 
L 144.79782 -199.040038 
L 139.190039 -196.86086 
L 133.582258 -181.742809 
L 127.974476 -152.460099 
L 122.366695 -140.610816 
L 116.758914 -127.535745 
L 111.151132 -100.432213 
z
" style="stroke: #ffffff; stroke-opacity: 0.2"/>
    </defs>
    <g clip-path="url(#pb1af46fc93)">
     <use xlink:href="#m38068f10a9" x="0" y="576" style="fill: #dd8452; fill-opacity: 0.2; stroke: #ffffff; stroke-opacity: 0.2"/>
    </g>
   </g>
   <g id="PolyCollection_3">
    <defs>
     <path id="mb840e85176" d="M 111.151132 -100.432213 
L 111.151132 -100.432213 
L 116.758914 -122.632594 
L 122.366695 -133.256089 
L 127.974476 -137.750644 
L 133.582258 -148.374139 
L 139.190039 -164.990375 
L 144.79782 -165.671368 
L 150.405602 -168.122944 
L 156.013383 -184.330584 
L 161.621164 -184.602981 
L 167.228946 -198.90384 
L 172.836727 -207.484355 
L 178.444508 -212.251308 
L 184.052289 -212.251308 
L 189.660071 -213.0685 
L 195.267852 -214.839082 
L 200.875633 -215.247678 
L 206.483415 -215.383877 
L 212.091196 -215.792473 
L 217.698977 -216.473466 
L 223.306759 -217.835452 
L 228.91454 -216.337267 
L 234.522321 -218.380247 
L 240.130103 -219.06124 
L 245.737884 -233.906893 
L 251.345665 -236.086072 
L 256.953447 -237.448058 
L 262.561228 -246.43717 
L 268.169009 -278.71625 
L 273.776791 -295.604883 
L 279.384572 -292.88091 
L 284.992353 -295.332486 
L 290.600134 -289.748341 
L 296.207916 -295.468685 
L 301.815697 -318.350058 
L 307.423478 -321.891223 
L 313.03126 -319.712045 
L 318.639041 -337.690267 
L 324.246822 -337.690267 
L 329.854604 -343.410611 
L 335.462385 -345.45359 
L 341.070166 -345.45359 
L 346.677948 -336.600678 
L 352.285729 -336.055883 
L 357.89351 -330.880335 
L 363.501292 -316.715675 
L 369.109073 -314.808894 
L 374.716854 -310.450537 
L 380.324635 -308.543755 
L 385.932417 -308.271358 
L 391.540198 -308.271358 
L 397.147979 -313.17451 
L 402.755761 -313.17451 
L 408.363542 -313.17451 
L 413.971323 -312.629715 
L 419.579105 -312.357318 
L 425.186886 -309.224749 
L 430.794667 -309.224749 
L 436.402449 -305.683584 
L 442.01023 -306.636974 
L 447.618011 -300.508035 
L 453.225793 -309.360947 
L 458.833574 -311.812523 
L 464.441355 -298.601254 
L 470.049137 -294.92389 
L 475.656918 -293.289506 
L 481.264699 -291.791321 
L 486.87248 -294.787691 
L 492.480262 -293.153308 
L 498.088043 -293.9705 
L 503.695824 -294.515294 
L 509.303606 -294.379096 
L 514.911387 -294.379096 
L 520.519168 -295.060089 
L 526.12695 -295.060089 
L 531.734731 -295.196287 
L 537.342512 -294.379096 
L 542.950294 -289.88454 
L 548.558075 -289.475944 
L 554.165856 -287.160567 
L 559.773638 -281.304025 
L 565.381419 -277.76286 
L 570.9892 -277.76286 
L 576.596981 -275.583681 
L 582.204763 -274.357893 
L 587.812544 -264.687789 
L 593.420325 -252.021314 
L 599.028107 -252.974705 
L 604.635888 -252.838506 
L 610.243669 -252.838506 
L 615.851451 -252.293712 
L 621.459232 -249.569739 
L 627.067013 -249.569739 
L 632.674795 -249.569739 
L 638.282576 -254.47289 
L 643.890357 -257.877856 
L 649.498139 -258.967446 
L 655.10592 -255.290082 
L 660.713701 -258.422651 
L 666.321482 -256.788267 
L 666.321482 -424.993604 
L 666.321482 -424.993604 
L 660.713701 -425.266001 
L 655.10592 -427.581378 
L 649.498139 -425.4022 
L 643.890357 -395.166099 
L 638.282576 -388.219968 
L 632.674795 -390.535345 
L 627.067013 -393.531715 
L 621.459232 -412.327129 
L 615.851451 -412.735725 
L 610.243669 -413.552917 
L 604.635888 -414.097712 
L 599.028107 -428.807166 
L 593.420325 -430.577749 
L 587.812544 -436.706688 
L 582.204763 -440.247853 
L 576.596981 -455.7745 
L 570.9892 -461.222446 
L 565.381419 -464.899809 
L 559.773638 -467.215186 
L 554.165856 -472.118338 
L 548.558075 -472.526934 
L 542.950294 -474.569914 
L 537.342512 -466.942789 
L 531.734731 -472.254537 
L 526.12695 -469.802961 
L 520.519168 -445.968197 
L 514.911387 -433.846516 
L 509.303606 -424.721207 
L 503.695824 -433.574119 
L 498.088043 -437.932476 
L 492.480262 -422.542028 
L 486.87248 -410.284149 
L 481.264699 -396.391887 
L 475.656918 -396.255688 
L 470.049137 -396.936681 
L 464.441355 -397.345277 
L 458.833574 -398.571065 
L 453.225793 -396.528085 
L 447.618011 -408.513567 
L 442.01023 -416.821685 
L 436.402449 -418.864665 
L 430.794667 -428.262372 
L 425.186886 -433.574119 
L 419.579105 -423.35922 
L 413.971323 -427.172782 
L 408.363542 -425.810796 
L 402.755761 -433.43792 
L 397.147979 -433.43792 
L 391.540198 -434.255112 
L 385.932417 -438.204873 
L 380.324635 -439.294463 
L 374.716854 -442.018436 
L 369.109073 -457.681281 
L 363.501292 -492.003341 
L 357.89351 -483.559025 
L 352.285729 -480.426456 
L 346.677948 -489.006971 
L 341.070166 -501.401048 
L 335.462385 -505.078412 
L 329.854604 -505.895604 
L 324.246822 -492.13954 
L 318.639041 -492.13954 
L 313.03126 -485.05721 
L 307.423478 -468.440974 
L 301.815697 -465.172207 
L 296.207916 -463.401624 
L 290.600134 -455.7745 
L 284.992353 -445.968197 
L 279.384572 -413.689116 
L 273.776791 -405.789594 
L 268.169009 -404.836203 
L 262.561228 -404.836203 
L 256.953447 -400.477846 
L 251.345665 -382.90822 
L 245.737884 -383.453015 
L 240.130103 -384.134008 
L 234.522321 -385.223597 
L 228.91454 -394.485106 
L 223.306759 -404.427607 
L 217.698977 -404.427607 
L 212.091196 -401.976032 
L 206.483415 -391.624934 
L 200.875633 -384.9512 
L 195.267852 -360.163045 
L 189.660071 -343.683008 
L 184.052289 -326.521978 
L 178.444508 -303.776803 
L 172.836727 -295.468685 
L 167.228946 -269.182345 
L 161.621164 -260.465631 
L 156.013383 -241.397819 
L 150.405602 -230.365728 
L 144.79782 -203.670792 
L 139.190039 -202.581203 
L 133.582258 -195.907469 
L 127.974476 -184.466782 
L 122.366695 -172.072705 
L 116.758914 -136.797254 
L 111.151132 -100.432213 
z
" style="stroke: #ffffff; stroke-opacity: 0.2"/>
    </defs>
    <g clip-path="url(#pb1af46fc93)">
     <use xlink:href="#mb840e85176" x="0" y="576" style="fill: #55a868; fill-opacity: 0.2; stroke: #ffffff; stroke-opacity: 0.2"/>
    </g>
   </g>
   <g id="line2d_14">
    <path d="M 111.151132 475.567787 
L 116.758914 447.102268 
L 122.366695 435.389184 
L 127.974476 428.170655 
L 133.582258 417.002366 
L 139.190039 410.056234 
L 144.79782 412.099214 
L 150.405602 412.50781 
L 156.013383 415.367982 
L 161.621164 414.686989 
L 167.228946 402.020514 
L 172.836727 396.163972 
L 178.444508 396.163972 
L 184.052289 392.486608 
L 189.660071 386.22147 
L 195.267852 379.13914 
L 200.875633 377.913352 
L 206.483415 385.949073 
L 212.091196 391.669416 
L 217.698977 388.128251 
L 223.306759 398.615548 
L 228.91454 404.335891 
L 234.522321 407.059864 
L 240.130103 391.941814 
L 245.737884 386.493867 
L 251.345665 386.085272 
L 256.953447 377.232359 
L 262.561228 382.271709 
L 268.169009 385.26808 
L 273.776791 383.361298 
L 279.384572 402.701507 
L 284.992353 406.378871 
L 290.600134 403.3825 
L 296.207916 401.748117 
L 301.815697 407.059864 
L 307.423478 399.977534 
L 313.03126 386.357669 
L 318.639041 375.597975 
L 324.246822 373.418797 
L 329.854604 380.364928 
L 335.462385 375.189379 
L 341.070166 386.357669 
L 346.677948 388.809245 
L 352.285729 381.045921 
L 357.89351 380.909723 
L 363.501292 392.214211 
L 369.109073 399.841335 
L 374.716854 400.249931 
L 380.324635 396.027773 
L 385.932417 395.891575 
L 391.540198 395.074383 
L 397.147979 390.852224 
L 402.755761 383.497497 
L 408.363542 367.698453 
L 413.971323 369.196639 
L 419.579105 375.325578 
L 425.186886 375.325578 
L 430.794667 367.426056 
L 436.402449 369.06044 
L 442.01023 367.153659 
L 447.618011 363.340096 
L 453.225793 372.193009 
L 458.833574 389.217841 
L 464.441355 398.34315 
L 470.049137 397.525958 
L 475.656918 400.794726 
L 481.264699 399.296541 
L 486.87248 401.203322 
L 492.480262 401.748117 
L 498.088043 392.759006 
L 503.695824 387.992053 
L 509.303606 391.941814 
L 514.911387 398.34315 
L 520.519168 392.895204 
L 526.12695 390.443628 
L 531.734731 394.938184 
L 537.342512 385.131881 
L 542.950294 374.780783 
L 548.558075 377.09616 
L 554.165856 379.820133 
L 559.773638 405.016884 
L 565.381419 411.418221 
L 570.9892 392.622807 
L 576.596981 379.411538 
L 582.204763 380.228729 
L 587.812544 392.622807 
L 593.420325 396.981164 
L 599.028107 392.759006 
L 604.635888 392.078012 
L 610.243669 384.314689 
L 615.851451 390.852224 
L 621.459232 401.611918 
L 627.067013 397.525958 
L 632.674795 396.300171 
L 638.282576 396.436369 
L 643.890357 391.124622 
L 649.498139 399.568938 
L 655.10592 398.751746 
L 660.713701 403.110103 
L 666.321482 398.34315 
" clip-path="url(#pb1af46fc93)" style="fill: none; stroke: #4c72b0; stroke-width: 1.5; stroke-linecap: round"/>
   </g>
   <g id="line2d_15">
    <path d="M 111.151132 475.567787 
L 116.758914 455.137989 
L 122.366695 440.973329 
L 127.974476 428.579251 
L 133.582258 415.776578 
L 139.190039 411.145824 
L 144.79782 388.945443 
L 150.405602 386.357669 
L 156.013383 374.09979 
L 161.621164 372.329208 
L 167.228946 366.745063 
L 172.836727 372.193009 
L 178.444508 373.282598 
L 184.052289 373.282598 
L 189.660071 368.651844 
L 195.267852 357.347356 
L 200.875633 360.207527 
L 206.483415 344.680881 
L 212.091196 342.365504 
L 217.698977 340.322524 
L 223.306759 350.946019 
L 228.91454 354.487184 
L 234.522321 359.93513 
L 240.130103 358.98174 
L 245.737884 362.114309 
L 251.345665 365.383076 
L 256.953447 357.211157 
L 262.561228 356.530164 
L 268.169009 360.752322 
L 273.776791 360.343726 
L 279.384572 354.487184 
L 284.992353 350.265026 
L 290.600134 345.361874 
L 296.207916 343.72749 
L 301.815697 352.444204 
L 307.423478 363.476295 
L 313.03126 353.397595 
L 318.639041 348.358245 
L 324.246822 344.544682 
L 329.854604 343.046497 
L 335.462385 341.820709 
L 341.070166 329.971426 
L 346.677948 323.025295 
L 352.285729 318.803137 
L 357.89351 319.48413 
L 363.501292 315.125773 
L 369.109073 316.079164 
L 374.716854 316.079164 
L 380.324635 330.516221 
L 385.932417 339.641531 
L 391.540198 355.84917 
L 397.147979 355.576773 
L 402.755761 348.766841 
L 408.363542 342.7741 
L 413.971323 352.580403 
L 419.579105 349.584032 
L 425.186886 343.863689 
L 430.794667 342.093107 
L 436.402449 339.232935 
L 442.01023 341.003517 
L 447.618011 326.838857 
L 453.225793 311.720807 
L 458.833574 291.018612 
L 464.441355 279.850322 
L 470.049137 268.818231 
L 475.656918 269.771622 
L 481.264699 266.639053 
L 486.87248 260.101517 
L 492.480262 259.148127 
L 498.088043 269.090628 
L 503.695824 268.545834 
L 509.303606 257.513743 
L 514.911387 265.821861 
L 520.519168 269.90782 
L 526.12695 272.904191 
L 531.734731 284.344878 
L 537.342512 273.448985 
L 542.950294 272.086999 
L 548.558075 273.448985 
L 554.165856 267.047649 
L 559.773638 271.678403 
L 565.381419 286.796453 
L 570.9892 288.430837 
L 576.596981 302.3231 
L 582.204763 304.36608 
L 587.812544 295.513167 
L 593.420325 284.753474 
L 599.028107 286.11546 
L 604.635888 289.248029 
L 610.243669 294.968372 
L 615.851451 294.695975 
L 621.459232 283.936282 
L 627.067013 298.23714 
L 632.674795 315.806766 
L 638.282576 323.706288 
L 643.890357 336.64516 
L 649.498139 329.154234 
L 655.10592 328.473241 
L 660.713701 331.061016 
L 666.321482 328.60944 
" clip-path="url(#pb1af46fc93)" style="fill: none; stroke: #dd8452; stroke-width: 1.5; stroke-linecap: round"/>
   </g>
   <g id="line2d_16">
    <path d="M 111.151132 475.567787 
L 116.758914 447.238467 
L 122.366695 435.389184 
L 127.974476 426.944867 
L 133.582258 409.783837 
L 139.190039 402.701507 
L 144.79782 387.038662 
L 150.405602 376.415167 
L 156.013383 360.616123 
L 161.621164 358.436945 
L 167.228946 355.576773 
L 172.836727 346.723861 
L 178.444508 320.982315 
L 184.052289 291.972002 
L 189.660071 288.839433 
L 195.267852 279.169329 
L 200.875633 279.03313 
L 206.483415 278.896931 
L 212.091196 278.760733 
L 217.698977 275.900561 
L 223.306759 274.94717 
L 228.91454 254.78977 
L 234.522321 242.66809 
L 240.130103 231.227403 
L 245.737884 223.46408 
L 251.345665 212.704386 
L 256.953447 207.120241 
L 262.561228 210.661406 
L 268.169009 211.614797 
L 273.776791 203.306679 
L 279.384572 198.948322 
L 284.992353 185.737053 
L 290.600134 189.414416 
L 296.207916 190.776403 
L 301.815697 191.457396 
L 307.423478 190.231608 
L 313.03126 185.600854 
L 318.639041 186.145649 
L 324.246822 177.701332 
L 329.854604 165.443453 
L 335.462385 154.275164 
L 341.070166 168.984618 
L 346.677948 169.257016 
L 352.285729 157.135335 
L 357.89351 157.271534 
L 363.501292 152.776979 
L 369.109073 165.988248 
L 374.716854 150.870197 
L 380.324635 176.339346 
L 385.932417 186.00945 
L 391.540198 170.074207 
L 397.147979 160.948898 
L 402.755761 160.131706 
L 408.363542 167.350234 
L 413.971323 172.661982 
L 419.579105 187.371436 
L 425.186886 192.955581 
L 430.794667 192.546985 
L 436.402449 189.823012 
L 442.01023 189.823012 
L 447.618011 191.0488 
L 453.225793 191.0488 
L 458.833574 200.582706 
L 464.441355 209.29942 
L 470.049137 230.955005 
L 475.656918 231.772197 
L 481.264699 221.557298 
L 486.87248 220.740106 
L 492.480262 220.467709 
L 498.088043 217.062743 
L 503.695824 227.686238 
L 509.303606 226.188053 
L 514.911387 219.922915 
L 520.519168 219.37812 
L 526.12695 221.557298 
L 531.734731 222.510689 
L 537.342512 202.625686 
L 542.950294 215.29216 
L 548.558075 234.359972 
L 554.165856 236.947746 
L 559.773638 238.173534 
L 565.381419 238.173534 
L 570.9892 238.173534 
L 576.596981 233.815177 
L 582.204763 233.54278 
L 587.812544 238.445931 
L 593.420325 238.990726 
L 599.028107 241.169904 
L 604.635888 245.936857 
L 610.243669 250.295214 
L 615.851451 255.198366 
L 621.459232 258.875729 
L 627.067013 261.191106 
L 632.674795 260.373915 
L 638.282576 253.427783 
L 643.890357 253.427783 
L 649.498139 251.384803 
L 655.10592 249.341824 
L 660.713701 246.617851 
L 666.321482 246.617851 
" clip-path="url(#pb1af46fc93)" style="fill: none; stroke: #55a868; stroke-width: 1.5; stroke-linecap: round"/>
   </g>
   <g id="patch_3">
    <path d="M 83.392615 495.840956 
L 83.392615 49.831226 
" style="fill: none; stroke: #cccccc; stroke-width: 1.25; stroke-linejoin: miter; stroke-linecap: square"/>
   </g>
   <g id="patch_4">
    <path d="M 694.08 495.840956 
L 694.08 49.831226 
" style="fill: none; stroke: #cccccc; stroke-width: 1.25; stroke-linejoin: miter; stroke-linecap: square"/>
   </g>
   <g id="patch_5">
    <path d="M 83.392615 495.840956 
L 694.08 495.840956 
" style="fill: none; stroke: #cccccc; stroke-width: 1.25; stroke-linejoin: miter; stroke-linecap: square"/>
   </g>
   <g id="patch_6">
    <path d="M 83.392615 49.831226 
L 694.08 49.831226 
" style="fill: none; stroke: #cccccc; stroke-width: 1.25; stroke-linejoin: miter; stroke-linecap: square"/>
   </g>
   <g id="text_16">
    <!-- Percentage Explored (\%) over Step (Median) -->
    <g style="fill: #262626" transform="translate(176.267935 43.831226) scale(0.24 -0.24)">
     <defs>
      <path id="CMSS17-76" d="M 2675 2752 
L 2176 2752 
L 1747 1556 
C 1613 1165 1421 627 1389 352 
L 1382 352 
C 1370 468 1318 634 1286 749 
C 1248 890 1197 1056 1158 1172 
L 595 2752 
L 83 2752 
L 1094 0 
L 1664 0 
L 2675 2752 
z
" transform="scale(0.015625)"/>
      <path id="CMSS17-4d" d="M 3194 2371 
L 2886 1473 
C 2835 1307 2662 791 2624 587 
L 2618 587 
C 2598 715 2560 849 2458 1174 
C 2400 1365 2336 1562 2272 1741 
L 1325 4416 
L 576 4416 
L 576 0 
L 1075 0 
L 1075 3900 
L 1082 3900 
C 1082 3894 1139 3613 1530 2499 
L 2374 96 
L 2848 96 
L 3610 2231 
C 3661 2378 3821 2843 3891 3066 
C 3955 3257 4115 3728 4154 3913 
L 4160 3913 
L 4160 0 
L 4666 0 
L 4666 4416 
L 3923 4416 
L 3194 2371 
z
" transform="scale(0.015625)"/>
      <path id="CMSS17-69" d="M 979 4183 
L 442 4183 
L 442 3648 
L 979 3648 
L 979 4183 
z
M 947 2739 
L 474 2739 
L 474 0 
L 947 0 
L 947 2739 
z
" transform="scale(0.015625)"/>
     </defs>
     <use xlink:href="#CMSS17-50" transform="scale(0.996264)"/>
     <use xlink:href="#CMSS17-65" transform="translate(57.133132 0) scale(0.996264)"/>
     <use xlink:href="#CMSS17-72" transform="translate(98.771954 0) scale(0.996264)"/>
     <use xlink:href="#CMSS17-63" transform="translate(130.681727 0) scale(0.996264)"/>
     <use xlink:href="#CMSS17-65" transform="translate(172.320549 0) scale(0.996264)"/>
     <use xlink:href="#CMSS17-6e" transform="translate(213.959371 0) scale(0.996264)"/>
     <use xlink:href="#CMSS17-74" transform="translate(262.164314 0) scale(0.996264)"/>
     <use xlink:href="#CMSS17-61" transform="translate(295.995881 0) scale(0.996264)"/>
     <use xlink:href="#CMSS17-67" transform="translate(340.917802 0) scale(0.996264)"/>
     <use xlink:href="#CMSS17-65" transform="translate(387.761425 0) scale(0.996264)"/>
     <use xlink:href="#CMSS17-45" transform="translate(460.62936 0) scale(0.996264)"/>
     <use xlink:href="#CMSS17-78" transform="translate(516.521373 0) scale(0.996264)"/>
     <use xlink:href="#CMSS17-70" transform="translate(559.521515 0) scale(0.996264)"/>
     <use xlink:href="#CMSS17-6c" transform="translate(607.726458 0) scale(0.996264)"/>
     <use xlink:href="#CMSS17-6f" transform="translate(629.907181 0) scale(0.996264)"/>
     <use xlink:href="#CMSS17-72" transform="translate(674.148351 0) scale(0.996264)"/>
     <use xlink:href="#CMSS17-65" transform="translate(706.058123 0) scale(0.996264)"/>
     <use xlink:href="#CMSS17-64" transform="translate(747.696945 0) scale(0.996264)"/>
     <use xlink:href="#CMSS17-28" transform="translate(827.131001 0) scale(0.996264)"/>
     <use xlink:href="#CMSS17-25" transform="translate(863.564915 0) scale(0.996264)"/>
     <use xlink:href="#CMSS17-29" transform="translate(941.637652 0) scale(0.996264)"/>
     <use xlink:href="#CMSS17-6f" transform="translate(1009.300678 0) scale(0.996264)"/>
     <use xlink:href="#CMSS17-76" transform="translate(1056.144302 0) scale(0.996264)"/>
     <use xlink:href="#CMSS17-65" transform="translate(1099.144444 0) scale(0.996264)"/>
     <use xlink:href="#CMSS17-72" transform="translate(1140.783266 0) scale(0.996264)"/>
     <use xlink:href="#CMSS17-53" transform="translate(1203.922151 0) scale(0.996264)"/>
     <use xlink:href="#CMSS17-74" transform="translate(1255.970667 0) scale(0.996264)"/>
     <use xlink:href="#CMSS17-65" transform="translate(1289.802234 0) scale(0.996264)"/>
     <use xlink:href="#CMSS17-70" transform="translate(1331.441056 0) scale(0.996264)"/>
     <use xlink:href="#CMSS17-28" transform="translate(1410.875112 0) scale(0.996264)"/>
     <use xlink:href="#CMSS17-4d" transform="translate(1447.309026 0) scale(0.996264)"/>
     <use xlink:href="#CMSS17-65" transform="translate(1528.985056 0) scale(0.996264)"/>
     <use xlink:href="#CMSS17-64" transform="translate(1570.623878 0) scale(0.996264)"/>
     <use xlink:href="#CMSS17-69" transform="translate(1618.828821 0) scale(0.996264)"/>
     <use xlink:href="#CMSS17-61" transform="translate(1641.009544 0) scale(0.996264)"/>
     <use xlink:href="#CMSS17-6e" transform="translate(1685.931465 0) scale(0.996264)"/>
     <use xlink:href="#CMSS17-29" transform="translate(1734.136408 0) scale(0.996264)"/>
    </g>
   </g>
   <g id="legend_1">
    <g id="patch_7">
     <path d="M 98.792615 191.675953 
L 296.47315 191.675953 
Q 300.87315 191.675953 300.87315 187.275953 
L 300.87315 65.231226 
Q 300.87315 60.831226 296.47315 60.831226 
L 98.792615 60.831226 
Q 94.392615 60.831226 94.392615 65.231226 
L 94.392615 187.275953 
Q 94.392615 191.675953 98.792615 191.675953 
z
" style="fill: #ffffff; opacity: 0.8; stroke: #cccccc; stroke-linejoin: miter"/>
    </g>
    <g id="text_17">
     <!-- Confidence Decay $\alpha$ -->
     <g style="fill: #262626" transform="translate(103.192615 86.235632) scale(0.24 -0.24)">
      <defs>
       <path id="CMSS17-43" d="M 3501 714 
C 3072 427 2874 344 2355 344 
C 1459 344 934 1303 934 2179 
C 934 3112 1472 4032 2381 4032 
C 2790 4032 3059 3918 3386 3715 
L 3475 4217 
C 3168 4370 2778 4440 2387 4440 
C 1158 4440 397 3316 397 2179 
C 397 927 1299 -64 2323 -64 
C 2874 -64 3066 -19 3539 280 
L 3501 714 
z
" transform="scale(0.015625)"/>
       <path id="CMSS17-c" d="M 2752 4416 
L 2240 4416 
L 2240 3906 
L 2752 3906 
L 2752 4416 
z
M 2733 2737 
L 2259 2737 
L 2259 0 
L 2733 0 
L 2733 2737 
z
M 1075 2368 
L 1773 2368 
L 1773 2737 
L 1062 2737 
L 1062 3578 
C 1062 3919 1216 4092 1421 4092 
C 1542 4092 1664 4056 1773 3992 
L 1773 4410 
C 1722 4428 1574 4480 1421 4480 
C 941 4480 602 3993 602 3372 
L 602 2737 
L 160 2737 
L 160 2368 
L 602 2368 
L 602 0 
L 1075 0 
L 1075 2368 
z
" transform="scale(0.015625)"/>
       <path id="CMSS17-44" d="M 570 4416 
L 570 0 
L 2144 0 
C 3194 0 4000 980 4000 2170 
C 4000 3398 3194 4416 2144 4416 
L 570 4416 
z
M 1094 357 
L 1094 4059 
L 2003 4059 
C 2861 4059 3475 3277 3475 2170 
C 3475 1107 2867 357 2003 357 
L 1094 357 
z
" transform="scale(0.015625)"/>
       <path id="CMSS17-79" d="M 2675 2752 
L 2176 2752 
C 1632 1294 1446 702 1434 383 
L 1427 383 
C 1408 696 1126 1460 902 2007 
L 602 2752 
L 83 2752 
L 1216 13 
C 1146 -178 1043 -465 1011 -529 
C 870 -885 774 -885 672 -885 
C 646 -885 442 -885 211 -809 
L 250 -1229 
C 410 -1261 570 -1280 685 -1280 
C 845 -1280 1165 -1280 1459 -497 
L 2675 2752 
z
" transform="scale(0.015625)"/>
       <path id="CMMI12-b" d="M 2963 1616 
C 2963 2235 2611 2815 1933 2815 
C 1094 2815 256 1902 256 996 
C 256 441 602 -64 1254 -64 
C 1651 -64 2125 89 2579 472 
C 2669 115 2867 -64 3142 -64 
C 3488 -64 3661 294 3661 377 
C 3661 434 3616 434 3597 434 
C 3546 434 3539 415 3520 364 
C 3462 204 3315 64 3162 64 
C 2963 64 2963 472 2963 862 
C 3616 1641 3770 2446 3770 2452 
C 3770 2510 3718 2510 3699 2510 
C 3642 2510 3635 2491 3610 2376 
C 3526 2095 3360 1597 2963 1073 
L 2963 1616 
z
M 2560 626 
C 1997 121 1491 64 1267 64 
C 813 64 685 466 685 766 
C 685 1040 826 1692 1024 2044 
C 1286 2491 1645 2688 1933 2688 
C 2554 2688 2554 1877 2554 1341 
C 2554 1182 2547 1016 2547 856 
C 2547 728 2554 696 2560 626 
z
" transform="scale(0.015625)"/>
      </defs>
      <use xlink:href="#CMSS17-43" transform="scale(0.996264)"/>
      <use xlink:href="#CMSS17-6f" transform="translate(59.855772 0) scale(0.996264)"/>
      <use xlink:href="#CMSS17-6e" transform="translate(106.699395 0) scale(0.996264)"/>
      <use xlink:href="#CMSS17-c" transform="translate(154.904338 0) scale(0.996264)"/>
      <use xlink:href="#CMSS17-64" transform="translate(205.031075 0) scale(0.996264)"/>
      <use xlink:href="#CMSS17-65" transform="translate(253.236019 0) scale(0.996264)"/>
      <use xlink:href="#CMSS17-6e" transform="translate(294.874841 0) scale(0.996264)"/>
      <use xlink:href="#CMSS17-63" transform="translate(343.079784 0) scale(0.996264)"/>
      <use xlink:href="#CMSS17-65" transform="translate(384.718606 0) scale(0.996264)"/>
      <use xlink:href="#CMSS17-44" transform="translate(457.586541 0) scale(0.996264)"/>
      <use xlink:href="#CMSS17-65" transform="translate(525.129382 0) scale(0.996264)"/>
      <use xlink:href="#CMSS17-63" transform="translate(566.768204 0) scale(0.996264)"/>
      <use xlink:href="#CMSS17-61" transform="translate(608.407027 0) scale(0.996264)"/>
      <use xlink:href="#CMSS17-79" transform="translate(650.726493 0) scale(0.996264)"/>
      <use xlink:href="#CMMI12-b" transform="translate(724.955748 0) scale(0.996264)"/>
     </g>
    </g>
    <g id="line2d_17">
     <path d="M 143.359035 109.586389 
L 165.359035 109.586389 
L 187.359035 109.586389 
" style="fill: none; stroke: #4c72b0; stroke-width: 1.5; stroke-linecap: round"/>
    </g>
    <g id="text_18">
     <!-- 0.01 -->
     <g style="fill: #262626" transform="translate(204.959035 117.286389) scale(0.22 -0.22)">
      <defs>
       <path id="CMSS17-30" d="M 2758 2044 
C 2758 2405 2752 3077 2490 3596 
C 2227 4096 1805 4229 1504 4229 
C 1069 4229 698 3975 506 3570 
C 301 3146 243 2709 243 2044 
C 243 1589 262 1031 493 543 
C 755 5 1197 -128 1498 -128 
C 1894 -128 2278 81 2496 518 
C 2720 974 2758 1474 2758 2044 
z
M 1498 261 
C 1011 261 864 811 819 995 
C 742 1310 730 1614 730 2114 
C 730 2506 730 2948 851 3297 
C 998 3701 1254 3840 1498 3840 
C 1971 3840 2125 3372 2176 3208 
C 2272 2873 2272 2481 2272 2114 
C 2272 1526 2272 261 1498 261 
z
" transform="scale(0.015625)"/>
       <path id="CMSS17-2e" d="M 1088 510 
L 576 510 
L 576 0 
L 1088 0 
L 1088 510 
z
" transform="scale(0.015625)"/>
       <path id="CMSS17-31" d="M 1818 4288 
L 1696 4288 
C 1350 3940 947 3890 538 3890 
L 538 3520 
C 723 3520 1024 3520 1325 3667 
L 1325 369 
L 570 369 
L 570 0 
L 2573 0 
L 2573 369 
L 1818 369 
L 1818 4288 
z
" transform="scale(0.015625)"/>
      </defs>
      <use xlink:href="#CMSS17-30" transform="scale(0.996264)"/>
      <use xlink:href="#CMSS17-2e" transform="translate(46.843624 0) scale(0.996264)"/>
      <use xlink:href="#CMSS17-30" transform="translate(72.867828 0) scale(0.996264)"/>
      <use xlink:href="#CMSS17-31" transform="translate(119.711452 0) scale(0.996264)"/>
     </g>
    </g>
    <g id="line2d_18">
     <path d="M 143.359035 140.249577 
L 165.359035 140.249577 
L 187.359035 140.249577 
" style="fill: none; stroke: #dd8452; stroke-width: 1.5; stroke-linecap: round"/>
    </g>
    <g id="text_19">
     <!-- 0.004 -->
     <g style="fill: #262626" transform="translate(204.959035 147.949577) scale(0.22 -0.22)">
      <defs>
       <path id="CMSS17-34" d="M 2253 1088 
L 2835 1088 
L 2835 1477 
L 2253 1477 
L 2253 4192 
L 1690 4192 
L 166 1477 
L 166 1088 
L 1747 1088 
L 1747 0 
L 2253 0 
L 2253 1088 
z
M 659 1477 
C 1030 2127 1766 3439 1766 3885 
L 1766 1477 
L 659 1477 
z
" transform="scale(0.015625)"/>
      </defs>
      <use xlink:href="#CMSS17-30" transform="scale(0.996264)"/>
      <use xlink:href="#CMSS17-2e" transform="translate(46.843624 0) scale(0.996264)"/>
      <use xlink:href="#CMSS17-30" transform="translate(72.867828 0) scale(0.996264)"/>
      <use xlink:href="#CMSS17-30" transform="translate(119.711452 0) scale(0.996264)"/>
      <use xlink:href="#CMSS17-34" transform="translate(166.555075 0) scale(0.996264)"/>
     </g>
    </g>
    <g id="line2d_19">
     <path d="M 143.359035 170.912765 
L 165.359035 170.912765 
L 187.359035 170.912765 
" style="fill: none; stroke: #55a868; stroke-width: 1.5; stroke-linecap: round"/>
    </g>
    <g id="text_20">
     <!-- 0.002 -->
     <g style="fill: #262626" transform="translate(204.959035 178.612765) scale(0.22 -0.22)">
      <defs>
       <path id="CMSS17-32" d="M 1651 1357 
C 1830 1541 2099 1764 2285 1987 
C 2464 2204 2701 2511 2701 2957 
C 2701 3657 2227 4288 1421 4288 
C 787 4288 422 3893 250 3274 
L 499 2929 
C 640 3510 838 3880 1338 3880 
C 1888 3880 2195 3433 2195 2942 
C 2195 2355 1747 1901 1408 1563 
C 1030 1187 659 804 301 408 
L 301 0 
L 2701 0 
L 2701 433 
L 1613 433 
C 1536 433 1459 433 1382 433 
L 742 433 
L 742 439 
L 1651 1357 
z
" transform="scale(0.015625)"/>
      </defs>
      <use xlink:href="#CMSS17-30" transform="scale(0.996264)"/>
      <use xlink:href="#CMSS17-2e" transform="translate(46.843624 0) scale(0.996264)"/>
      <use xlink:href="#CMSS17-30" transform="translate(72.867828 0) scale(0.996264)"/>
      <use xlink:href="#CMSS17-30" transform="translate(119.711452 0) scale(0.996264)"/>
      <use xlink:href="#CMSS17-32" transform="translate(166.555075 0) scale(0.996264)"/>
     </g>
    </g>
   </g>
  </g>
 </g>
 <defs>
  <clipPath id="pb1af46fc93">
   <rect x="83.392615" y="49.831226" width="610.687385" height="446.00973"/>
  </clipPath>
 </defs>
</svg>
