<?xml version="1.0" encoding="utf-8" standalone="no"?>
<!DOCTYPE svg PUBLIC "-//W3C//DTD SVG 1.1//EN"
  "http://www.w3.org/Graphics/SVG/1.1/DTD/svg11.dtd">
<svg xmlns:xlink="http://www.w3.org/1999/xlink" width="720pt" height="576pt" viewBox="0 0 720 576" xmlns="http://www.w3.org/2000/svg" version="1.1">
 <metadata>
  <rdf:RDF xmlns:dc="http://purl.org/dc/elements/1.1/" xmlns:cc="http://creativecommons.org/ns#" xmlns:rdf="http://www.w3.org/1999/02/22-rdf-syntax-ns#">
   <cc:Work>
    <dc:type rdf:resource="http://purl.org/dc/dcmitype/StillImage"/>
    <dc:date>2025-04-24T19:34:00.827999</dc:date>
    <dc:format>image/svg+xml</dc:format>
    <dc:creator>
     <cc:Agent>
      <dc:title>Matplotlib v3.9.2, https://matplotlib.org/</dc:title>
     </cc:Agent>
    </dc:creator>
   </cc:Work>
  </rdf:RDF>
 </metadata>
 <defs>
  <style type="text/css">*{stroke-linejoin: round; stroke-linecap: butt}</style>
 </defs>
 <g id="figure_1">
  <g id="patch_1">
   <path d="M 0 576 
L 720 576 
L 720 0 
L 0 0 
z
" style="fill: #ffffff"/>
  </g>
  <g id="axes_1">
   <g id="patch_2">
    <path d="M 89.353994 495.840956 
L 694.08 495.840956 
L 694.08 49.831226 
L 89.353994 49.831226 
z
" style="fill: #ffffff"/>
   </g>
   <g id="matplotlib.axis_1">
    <g id="xtick_1">
     <g id="line2d_1">
      <path d="M 116.84154 495.840956 
L 116.84154 49.831226 
" clip-path="url(#p9264da0dad)" style="fill: none; stroke: #cccccc; stroke-linecap: round"/>
     </g>
     <g id="text_1">
      <!-- $\mathdefault{0}$ -->
      <g style="fill: #262626" transform="translate(111.815587 520.56165) scale(0.22 -0.22)">
       <defs>
        <path id="CMR17-30" d="M 2688 2025 
C 2688 2416 2682 3080 2413 3591 
C 2176 4039 1798 4198 1466 4198 
C 1158 4198 768 4058 525 3597 
C 269 3118 243 2524 243 2025 
C 243 1661 250 1106 448 619 
C 723 -39 1216 -128 1466 -128 
C 1760 -128 2208 -7 2470 600 
C 2662 1042 2688 1559 2688 2025 
z
M 1466 -26 
C 1056 -26 813 325 723 812 
C 653 1188 653 1738 653 2096 
C 653 2588 653 2997 736 3387 
C 858 3929 1216 4096 1466 4096 
C 1728 4096 2067 3923 2189 3400 
C 2272 3036 2278 2607 2278 2096 
C 2278 1680 2278 1169 2202 792 
C 2067 95 1690 -26 1466 -26 
z
" transform="scale(0.015625)"/>
       </defs>
       <use xlink:href="#CMR17-30" transform="scale(0.996264)"/>
      </g>
     </g>
    </g>
    <g id="xtick_2">
     <g id="line2d_2">
      <path d="M 227.90233 495.840956 
L 227.90233 49.831226 
" clip-path="url(#p9264da0dad)" style="fill: none; stroke: #cccccc; stroke-linecap: round"/>
     </g>
     <g id="text_2">
      <!-- $\mathdefault{200}$ -->
      <g style="fill: #262626" transform="translate(212.824473 520.56165) scale(0.22 -0.22)">
       <defs>
        <path id="CMR17-32" d="M 2669 989 
L 2554 989 
C 2490 536 2438 459 2413 420 
C 2381 369 1920 369 1830 369 
L 602 369 
C 832 619 1280 1072 1824 1597 
C 2214 1967 2669 2402 2669 3035 
C 2669 3790 2067 4224 1395 4224 
C 691 4224 262 3604 262 3030 
C 262 2780 448 2748 525 2748 
C 589 2748 781 2787 781 3010 
C 781 3207 614 3264 525 3264 
C 486 3264 448 3258 422 3245 
C 544 3790 915 4058 1306 4058 
C 1862 4058 2227 3617 2227 3035 
C 2227 2479 1901 2000 1536 1584 
L 262 146 
L 262 0 
L 2515 0 
L 2669 989 
z
" transform="scale(0.015625)"/>
       </defs>
       <use xlink:href="#CMR17-32" transform="scale(0.996264)"/>
       <use xlink:href="#CMR17-30" transform="translate(45.690477 0) scale(0.996264)"/>
       <use xlink:href="#CMR17-30" transform="translate(91.380954 0) scale(0.996264)"/>
      </g>
     </g>
    </g>
    <g id="xtick_3">
     <g id="line2d_3">
      <path d="M 338.963121 495.840956 
L 338.963121 49.831226 
" clip-path="url(#p9264da0dad)" style="fill: none; stroke: #cccccc; stroke-linecap: round"/>
     </g>
     <g id="text_3">
      <!-- $\mathdefault{400}$ -->
      <g style="fill: #262626" transform="translate(323.885264 520.56165) scale(0.22 -0.22)">
       <defs>
        <path id="CMR17-34" d="M 2150 4122 
C 2150 4256 2144 4256 2029 4256 
L 128 1254 
L 128 1088 
L 1779 1088 
L 1779 457 
C 1779 224 1766 160 1318 160 
L 1197 160 
L 1197 0 
C 1402 0 1747 0 1965 0 
C 2182 0 2528 0 2733 0 
L 2733 160 
L 2611 160 
C 2163 160 2150 224 2150 457 
L 2150 1088 
L 2803 1088 
L 2803 1254 
L 2150 1254 
L 2150 4122 
z
M 1798 3703 
L 1798 1254 
L 256 1254 
L 1798 3703 
z
" transform="scale(0.015625)"/>
       </defs>
       <use xlink:href="#CMR17-34" transform="scale(0.996264)"/>
       <use xlink:href="#CMR17-30" transform="translate(45.690477 0) scale(0.996264)"/>
       <use xlink:href="#CMR17-30" transform="translate(91.380954 0) scale(0.996264)"/>
      </g>
     </g>
    </g>
    <g id="xtick_4">
     <g id="line2d_4">
      <path d="M 450.023912 495.840956 
L 450.023912 49.831226 
" clip-path="url(#p9264da0dad)" style="fill: none; stroke: #cccccc; stroke-linecap: round"/>
     </g>
     <g id="text_4">
      <!-- $\mathdefault{600}$ -->
      <g style="fill: #262626" transform="translate(434.946055 520.56165) scale(0.22 -0.22)">
       <defs>
        <path id="CMR17-36" d="M 678 2176 
C 678 3690 1395 4032 1811 4032 
C 1946 4032 2272 4009 2400 3776 
C 2298 3776 2106 3776 2106 3553 
C 2106 3381 2246 3323 2336 3323 
C 2394 3323 2566 3348 2566 3560 
C 2566 3954 2246 4179 1805 4179 
C 1043 4179 243 3390 243 1984 
C 243 253 966 -128 1478 -128 
C 2099 -128 2688 427 2688 1283 
C 2688 2081 2170 2662 1517 2662 
C 1126 2662 838 2407 678 1960 
L 678 2176 
z
M 1478 25 
C 691 25 691 1200 691 1436 
C 691 1896 909 2560 1504 2560 
C 1613 2560 1926 2560 2138 2120 
C 2253 1870 2253 1609 2253 1289 
C 2253 944 2253 690 2118 434 
C 1978 171 1773 25 1478 25 
z
" transform="scale(0.015625)"/>
       </defs>
       <use xlink:href="#CMR17-36" transform="scale(0.996264)"/>
       <use xlink:href="#CMR17-30" transform="translate(45.690477 0) scale(0.996264)"/>
       <use xlink:href="#CMR17-30" transform="translate(91.380954 0) scale(0.996264)"/>
      </g>
     </g>
    </g>
    <g id="xtick_5">
     <g id="line2d_5">
      <path d="M 561.084703 495.840956 
L 561.084703 49.831226 
" clip-path="url(#p9264da0dad)" style="fill: none; stroke: #cccccc; stroke-linecap: round"/>
     </g>
     <g id="text_5">
      <!-- $\mathdefault{800}$ -->
      <g style="fill: #262626" transform="translate(546.006846 520.56165) scale(0.22 -0.22)">
       <defs>
        <path id="CMR17-38" d="M 1741 2264 
C 2144 2467 2554 2773 2554 3263 
C 2554 3841 1990 4179 1472 4179 
C 890 4179 378 3759 378 3180 
C 378 3021 416 2747 666 2505 
C 730 2442 998 2251 1171 2130 
C 883 1983 211 1634 211 934 
C 211 279 838 -128 1459 -128 
C 2144 -128 2720 362 2720 1010 
C 2720 1590 2330 1857 2074 2029 
L 1741 2264 
z
M 902 2822 
C 851 2854 595 3051 595 3351 
C 595 3739 998 4032 1459 4032 
C 1965 4032 2336 3676 2336 3262 
C 2336 2669 1670 2331 1638 2331 
C 1632 2331 1626 2331 1574 2370 
L 902 2822 
z
M 2080 1519 
C 2176 1449 2483 1240 2483 851 
C 2483 381 2010 25 1472 25 
C 890 25 448 438 448 940 
C 448 1443 838 1862 1280 2060 
L 2080 1519 
z
" transform="scale(0.015625)"/>
       </defs>
       <use xlink:href="#CMR17-38" transform="scale(0.996264)"/>
       <use xlink:href="#CMR17-30" transform="translate(45.690477 0) scale(0.996264)"/>
       <use xlink:href="#CMR17-30" transform="translate(91.380954 0) scale(0.996264)"/>
      </g>
     </g>
    </g>
    <g id="xtick_6">
     <g id="line2d_6">
      <path d="M 672.145494 495.840956 
L 672.145494 49.831226 
" clip-path="url(#p9264da0dad)" style="fill: none; stroke: #cccccc; stroke-linecap: round"/>
     </g>
     <g id="text_6">
      <!-- $\mathdefault{1000}$ -->
      <g style="fill: #262626" transform="translate(652.041684 520.56165) scale(0.22 -0.22)">
       <defs>
        <path id="CMR17-31" d="M 1702 4058 
C 1702 4192 1696 4192 1606 4192 
C 1357 3916 979 3827 621 3827 
C 602 3827 570 3827 563 3808 
C 557 3795 557 3782 557 3648 
C 755 3648 1088 3686 1344 3839 
L 1344 461 
C 1344 236 1331 160 781 160 
L 589 160 
L 589 0 
C 896 0 1216 0 1523 0 
C 1830 0 2150 0 2458 0 
L 2458 160 
L 2266 160 
C 1715 160 1702 230 1702 458 
L 1702 4058 
z
" transform="scale(0.015625)"/>
       </defs>
       <use xlink:href="#CMR17-31" transform="scale(0.996264)"/>
       <use xlink:href="#CMR17-30" transform="translate(45.690477 0) scale(0.996264)"/>
       <use xlink:href="#CMR17-30" transform="translate(91.380954 0) scale(0.996264)"/>
       <use xlink:href="#CMR17-30" transform="translate(137.071431 0) scale(0.996264)"/>
      </g>
     </g>
    </g>
    <g id="text_7">
     <!-- Step -->
     <g style="fill: #262626" transform="translate(370.630141 545.429243) scale(0.24 -0.24)">
      <defs>
       <path id="CMSS17-53" d="M 2797 4169 
C 2515 4334 2208 4480 1690 4480 
C 864 4480 333 3879 333 3266 
C 333 3025 403 2753 653 2475 
C 902 2196 1184 2121 1542 2033 
C 1690 1994 1939 1924 1984 1906 
C 2342 1767 2515 1444 2515 1140 
C 2515 742 2202 318 1645 318 
C 1453 318 890 318 358 819 
L 269 318 
C 794 -64 1363 -128 1651 -128 
C 2438 -128 3002 488 3002 1186 
C 3002 1440 2925 1763 2656 2061 
C 2394 2347 2163 2410 1638 2549 
C 1338 2626 1146 2677 986 2873 
C 877 3013 819 3146 819 3317 
C 819 3673 1126 4060 1690 4060 
C 1971 4060 2336 4002 2707 3660 
L 2797 4169 
z
" transform="scale(0.015625)"/>
       <path id="CMSS17-74" d="M 1069 2368 
L 1901 2368 
L 1901 2737 
L 1069 2737 
L 1069 3520 
L 614 3520 
L 614 2737 
L 109 2737 
L 109 2368 
L 602 2368 
L 602 749 
C 602 384 685 -64 1107 -64 
C 1427 -64 1722 25 2003 172 
L 1901 548 
C 1747 414 1562 337 1363 337 
C 1082 337 1069 696 1069 856 
L 1069 2368 
z
" transform="scale(0.015625)"/>
       <path id="CMSS17-65" d="M 2502 1377 
C 2502 1590 2490 2003 2285 2345 
C 2061 2713 1696 2816 1421 2816 
C 755 2816 192 2188 192 1375 
C 192 582 774 -64 1510 -64 
C 1798 -64 2150 19 2470 248 
C 2470 274 2458 414 2451 420 
C 2451 433 2432 630 2432 656 
C 2125 407 1773 325 1517 325 
C 1107 325 666 667 646 1377 
L 2502 1377 
z
M 698 1728 
C 781 2084 1062 2421 1421 2421 
C 1517 2421 1965 2421 2080 1728 
L 698 1728 
z
" transform="scale(0.015625)"/>
       <path id="CMSS17-70" d="M 966 333 
C 1178 129 1466 -5 1773 -5 
C 2368 -5 2880 603 2880 1412 
C 2880 2159 2496 2816 1946 2816 
C 1626 2816 1242 2702 954 2472 
L 954 2765 
L 480 2765 
L 480 -1216 
L 966 -1216 
L 966 333 
z
M 966 2100 
C 1018 2176 1235 2415 1587 2415 
C 2035 2415 2394 1960 2394 1412 
C 2394 787 1958 384 1530 384 
C 1402 384 1267 415 1139 523 
C 966 674 966 768 966 857 
L 966 2100 
z
" transform="scale(0.015625)"/>
      </defs>
      <use xlink:href="#CMSS17-53" transform="scale(0.996264)"/>
      <use xlink:href="#CMSS17-74" transform="translate(52.048516 0) scale(0.996264)"/>
      <use xlink:href="#CMSS17-65" transform="translate(85.880083 0) scale(0.996264)"/>
      <use xlink:href="#CMSS17-70" transform="translate(127.518905 0) scale(0.996264)"/>
     </g>
    </g>
   </g>
   <g id="matplotlib.axis_2">
    <g id="ytick_1">
     <g id="line2d_7">
      <path d="M 89.353994 478.093277 
L 694.08 478.093277 
" clip-path="url(#p9264da0dad)" style="fill: none; stroke: #cccccc; stroke-linecap: round"/>
     </g>
     <g id="text_8">
      <!-- $\mathdefault{0.2}$ -->
      <g style="fill: #262626" transform="translate(53.788805 485.703624) scale(0.22 -0.22)">
       <defs>
        <path id="CMMI12-3a" d="M 1178 307 
C 1178 492 1024 619 870 619 
C 685 619 557 466 557 313 
C 557 128 710 0 864 0 
C 1050 0 1178 153 1178 307 
z
" transform="scale(0.015625)"/>
       </defs>
       <use xlink:href="#CMR17-30" transform="scale(0.996264)"/>
       <use xlink:href="#CMMI12-3a" transform="translate(45.690477 0) scale(0.996264)"/>
       <use xlink:href="#CMR17-32" transform="translate(72.787654 0) scale(0.996264)"/>
      </g>
     </g>
    </g>
    <g id="ytick_2">
     <g id="line2d_8">
      <path d="M 89.353994 396.625849 
L 694.08 396.625849 
" clip-path="url(#p9264da0dad)" style="fill: none; stroke: #cccccc; stroke-linecap: round"/>
     </g>
     <g id="text_9">
      <!-- $\mathdefault{0.3}$ -->
      <g style="fill: #262626" transform="translate(53.788805 404.236195) scale(0.22 -0.22)">
       <defs>
        <path id="CMR17-33" d="M 1414 2157 
C 1984 2157 2234 1662 2234 1090 
C 2234 320 1824 25 1453 25 
C 1114 25 563 194 390 693 
C 422 680 454 680 486 680 
C 640 680 755 782 755 948 
C 755 1133 614 1216 486 1216 
C 378 1216 211 1165 211 926 
C 211 335 787 -128 1466 -128 
C 2176 -128 2720 430 2720 1085 
C 2720 1707 2208 2157 1600 2227 
C 2086 2328 2554 2756 2554 3329 
C 2554 3820 2048 4179 1472 4179 
C 890 4179 378 3829 378 3329 
C 378 3110 544 3072 627 3072 
C 762 3072 877 3155 877 3321 
C 877 3486 762 3569 627 3569 
C 602 3569 570 3569 544 3557 
C 730 3959 1235 4032 1459 4032 
C 1683 4032 2106 3925 2106 3320 
C 2106 3143 2080 2828 1862 2550 
C 1670 2304 1453 2304 1242 2284 
C 1210 2284 1062 2269 1037 2269 
C 992 2263 966 2257 966 2208 
C 966 2163 973 2157 1101 2157 
L 1414 2157 
z
" transform="scale(0.015625)"/>
       </defs>
       <use xlink:href="#CMR17-30" transform="scale(0.996264)"/>
       <use xlink:href="#CMMI12-3a" transform="translate(45.690477 0) scale(0.996264)"/>
       <use xlink:href="#CMR17-33" transform="translate(72.787654 0) scale(0.996264)"/>
      </g>
     </g>
    </g>
    <g id="ytick_3">
     <g id="line2d_9">
      <path d="M 89.353994 315.15842 
L 694.08 315.15842 
" clip-path="url(#p9264da0dad)" style="fill: none; stroke: #cccccc; stroke-linecap: round"/>
     </g>
     <g id="text_10">
      <!-- $\mathdefault{0.4}$ -->
      <g style="fill: #262626" transform="translate(53.788805 322.768767) scale(0.22 -0.22)">
       <use xlink:href="#CMR17-30" transform="scale(0.996264)"/>
       <use xlink:href="#CMMI12-3a" transform="translate(45.690477 0) scale(0.996264)"/>
       <use xlink:href="#CMR17-34" transform="translate(72.787654 0) scale(0.996264)"/>
      </g>
     </g>
    </g>
    <g id="ytick_4">
     <g id="line2d_10">
      <path d="M 89.353994 233.690992 
L 694.08 233.690992 
" clip-path="url(#p9264da0dad)" style="fill: none; stroke: #cccccc; stroke-linecap: round"/>
     </g>
     <g id="text_11">
      <!-- $\mathdefault{0.5}$ -->
      <g style="fill: #262626" transform="translate(53.788805 241.301339) scale(0.22 -0.22)">
       <defs>
        <path id="CMR17-35" d="M 730 3692 
C 794 3666 1056 3584 1325 3584 
C 1920 3584 2246 3911 2432 4100 
C 2432 4157 2432 4192 2394 4192 
C 2387 4192 2374 4192 2323 4163 
C 2099 4058 1837 3973 1517 3973 
C 1325 3973 1037 3999 723 4139 
C 653 4171 640 4171 634 4171 
C 602 4171 595 4164 595 4037 
L 595 2203 
C 595 2089 595 2057 659 2057 
C 691 2057 704 2070 736 2114 
C 941 2401 1222 2522 1542 2522 
C 1766 2522 2246 2382 2246 1289 
C 2246 1085 2246 715 2054 421 
C 1894 159 1645 25 1370 25 
C 947 25 518 320 403 814 
C 429 807 480 795 506 795 
C 589 795 749 840 749 1038 
C 749 1210 627 1280 506 1280 
C 358 1280 262 1190 262 1011 
C 262 454 704 -128 1382 -128 
C 2042 -128 2669 440 2669 1264 
C 2669 2030 2170 2624 1549 2624 
C 1222 2624 947 2503 730 2274 
L 730 3692 
z
" transform="scale(0.015625)"/>
       </defs>
       <use xlink:href="#CMR17-30" transform="scale(0.996264)"/>
       <use xlink:href="#CMMI12-3a" transform="translate(45.690477 0) scale(0.996264)"/>
       <use xlink:href="#CMR17-35" transform="translate(72.787654 0) scale(0.996264)"/>
      </g>
     </g>
    </g>
    <g id="ytick_5">
     <g id="line2d_11">
      <path d="M 89.353994 152.223564 
L 694.08 152.223564 
" clip-path="url(#p9264da0dad)" style="fill: none; stroke: #cccccc; stroke-linecap: round"/>
     </g>
     <g id="text_12">
      <!-- $\mathdefault{0.6}$ -->
      <g style="fill: #262626" transform="translate(53.788805 159.83391) scale(0.22 -0.22)">
       <use xlink:href="#CMR17-30" transform="scale(0.996264)"/>
       <use xlink:href="#CMMI12-3a" transform="translate(45.690477 0) scale(0.996264)"/>
       <use xlink:href="#CMR17-36" transform="translate(72.787654 0) scale(0.996264)"/>
      </g>
     </g>
    </g>
    <g id="ytick_6">
     <g id="line2d_12">
      <path d="M 89.353994 70.756135 
L 694.08 70.756135 
" clip-path="url(#p9264da0dad)" style="fill: none; stroke: #cccccc; stroke-linecap: round"/>
     </g>
     <g id="text_13">
      <!-- $\mathdefault{0.7}$ -->
      <g style="fill: #262626" transform="translate(53.788805 78.366482) scale(0.22 -0.22)">
       <defs>
        <path id="CMR17-37" d="M 2886 3941 
L 2886 4081 
L 1382 4081 
C 634 4081 621 4165 595 4288 
L 480 4288 
L 294 3094 
L 410 3094 
C 429 3215 474 3540 550 3661 
C 589 3712 1062 3712 1171 3712 
L 2579 3712 
L 1869 2661 
C 1395 1954 1069 999 1069 165 
C 1069 89 1069 -128 1299 -128 
C 1530 -128 1530 89 1530 171 
L 1530 465 
C 1530 1508 1709 2196 2003 2636 
L 2886 3941 
z
" transform="scale(0.015625)"/>
       </defs>
       <use xlink:href="#CMR17-30" transform="scale(0.996264)"/>
       <use xlink:href="#CMMI12-3a" transform="translate(45.690477 0) scale(0.996264)"/>
       <use xlink:href="#CMR17-37" transform="translate(72.787654 0) scale(0.996264)"/>
      </g>
     </g>
    </g>
    <g id="text_14">
     <!-- Structural Similarity Index Measure (SSIM) -->
     <g style="fill: #262626" transform="translate(43.831226 476.142373) rotate(-90) scale(0.24 -0.24)">
      <defs>
       <path id="CMSS17-72" d="M 954 1363 
C 954 1965 1395 2368 1958 2368 
L 1958 2789 
C 1549 2789 1165 2585 934 2253 
L 934 2758 
L 480 2758 
L 480 0 
L 954 0 
L 954 1363 
z
" transform="scale(0.015625)"/>
       <path id="CMSS17-75" d="M 2618 2739 
L 2131 2739 
L 2131 972 
C 2131 498 1786 306 1421 306 
C 998 306 960 447 960 709 
L 960 2739 
L 474 2739 
L 474 678 
C 474 179 646 -64 1088 -64 
C 1306 -64 1798 -13 2144 306 
L 2144 0 
L 2618 0 
L 2618 2739 
z
" transform="scale(0.015625)"/>
       <path id="CMSS17-63" d="M 2464 2541 
C 2464 2585 2170 2714 2093 2739 
C 1882 2816 1613 2816 1542 2816 
C 710 2816 211 2093 211 1363 
C 211 595 768 -64 1517 -64 
C 1946 -64 2253 76 2502 242 
L 2464 664 
C 2189 453 1869 337 1523 337 
C 1024 337 698 774 698 1369 
C 698 1831 909 2414 1549 2414 
C 1901 2414 2099 2343 2394 2145 
L 2464 2541 
z
" transform="scale(0.015625)"/>
       <path id="CMSS17-61" d="M 2406 1791 
C 2406 2392 1978 2808 1402 2808 
C 1120 2808 813 2757 461 2553 
L 499 2135 
C 659 2248 934 2432 1395 2432 
C 1722 2432 1920 2180 1920 1782 
L 1920 1536 
C 896 1536 256 1238 256 726 
C 256 461 416 -64 947 -64 
C 1043 -64 1562 -64 1933 217 
L 1933 -19 
L 2406 -19 
L 2406 1791 
z
M 1920 816 
C 1920 701 1920 548 1728 434 
C 1562 325 1350 325 1261 325 
C 941 325 723 511 723 744 
C 723 1211 1722 1211 1920 1211 
L 1920 816 
z
" transform="scale(0.015625)"/>
       <path id="CMSS17-6c" d="M 947 4416 
L 474 4416 
L 474 0 
L 947 0 
L 947 4416 
z
" transform="scale(0.015625)"/>
       <path id="CMSS17-69" d="M 979 4183 
L 442 4183 
L 442 3648 
L 979 3648 
L 979 4183 
z
M 947 2739 
L 474 2739 
L 474 0 
L 947 0 
L 947 2739 
z
" transform="scale(0.015625)"/>
       <path id="CMSS17-6d" d="M 4288 1877 
C 4288 2308 4179 2816 3462 2816 
C 2982 2816 2694 2516 2566 2331 
C 2451 2670 2182 2816 1798 2816 
C 1363 2816 1088 2568 941 2389 
L 941 2758 
L 474 2758 
L 474 0 
L 960 0 
L 960 1559 
C 960 1939 1101 2428 1555 2428 
C 2138 2428 2138 2016 2138 1829 
L 2138 0 
L 2624 0 
L 2624 1559 
C 2624 1939 2765 2428 3219 2428 
C 3802 2428 3802 2016 3802 1829 
L 3802 0 
L 4288 0 
L 4288 1877 
z
" transform="scale(0.015625)"/>
       <path id="CMSS17-79" d="M 2675 2752 
L 2176 2752 
C 1632 1294 1446 702 1434 383 
L 1427 383 
C 1408 696 1126 1460 902 2007 
L 602 2752 
L 83 2752 
L 1216 13 
C 1146 -178 1043 -465 1011 -529 
C 870 -885 774 -885 672 -885 
C 646 -885 442 -885 211 -809 
L 250 -1229 
C 410 -1261 570 -1280 685 -1280 
C 845 -1280 1165 -1280 1459 -497 
L 2675 2752 
z
" transform="scale(0.015625)"/>
       <path id="CMSS17-49" d="M 1094 4416 
L 557 4416 
L 557 0 
L 1094 0 
L 1094 4416 
z
" transform="scale(0.015625)"/>
       <path id="CMSS17-6e" d="M 2618 1877 
C 2618 2283 2522 2816 1798 2816 
C 1389 2816 1120 2606 941 2389 
L 941 2758 
L 474 2758 
L 474 0 
L 960 0 
L 960 1559 
C 960 1964 1114 2428 1549 2428 
C 2112 2428 2131 2048 2131 1829 
L 2131 0 
L 2618 0 
L 2618 1877 
z
" transform="scale(0.015625)"/>
       <path id="CMSS17-64" d="M 2611 4416 
L 2138 4416 
L 2138 2438 
C 1939 2603 1613 2756 1254 2756 
C 672 2756 211 2131 211 1347 
C 211 562 666 -64 1235 -64 
C 1677 -64 1971 172 2125 306 
L 2125 -13 
L 2611 -13 
L 2611 4416 
z
M 2125 836 
C 2125 747 2125 653 1926 482 
C 1798 375 1645 325 1498 325 
C 1152 325 698 576 698 1340 
C 698 2134 1210 2368 1562 2368 
C 1798 2368 1990 2254 2125 2065 
L 2125 836 
z
" transform="scale(0.015625)"/>
       <path id="CMSS17-78" d="M 1587 1414 
L 2656 2739 
L 2099 2739 
L 1363 1777 
L 602 2739 
L 32 2739 
L 1139 1414 
L 0 0 
L 563 0 
L 1363 1121 
L 2195 0 
L 2758 0 
L 1587 1414 
z
" transform="scale(0.015625)"/>
       <path id="CMSS17-4d" d="M 3194 2371 
L 2886 1473 
C 2835 1307 2662 791 2624 587 
L 2618 587 
C 2598 715 2560 849 2458 1174 
C 2400 1365 2336 1562 2272 1741 
L 1325 4416 
L 576 4416 
L 576 0 
L 1075 0 
L 1075 3900 
L 1082 3900 
C 1082 3894 1139 3613 1530 2499 
L 2374 96 
L 2848 96 
L 3610 2231 
C 3661 2378 3821 2843 3891 3066 
C 3955 3257 4115 3728 4154 3913 
L 4160 3913 
L 4160 0 
L 4666 0 
L 4666 4416 
L 3923 4416 
L 3194 2371 
z
" transform="scale(0.015625)"/>
       <path id="CMSS17-73" d="M 2061 2627 
C 1683 2807 1389 2807 1197 2807 
C 742 2807 198 2648 198 2003 
C 198 1359 902 1218 1094 1179 
C 1389 1122 1715 1058 1715 740 
C 1715 337 1254 337 1171 337 
C 915 337 563 407 243 638 
L 166 210 
C 531 0 883 -64 1178 -64 
C 1965 -64 2163 416 2163 781 
C 2163 1094 1984 1305 1862 1401 
C 1651 1568 1574 1587 1050 1696 
C 960 1709 646 1779 646 2066 
C 646 2432 1050 2432 1139 2432 
C 1555 2432 1811 2303 1984 2208 
L 2061 2627 
z
" transform="scale(0.015625)"/>
       <path id="CMSS17-28" d="M 1613 4768 
C 1267 4417 474 3601 474 1588 
C 474 -433 1267 -1243 1613 -1600 
L 2003 -1600 
C 1216 -784 960 357 960 1581 
C 960 2798 1203 3946 2003 4768 
L 1613 4768 
z
" transform="scale(0.015625)"/>
       <path id="CMSS17-29" d="M 723 -1600 
C 1069 -1249 1862 -433 1862 1581 
C 1862 3601 1069 4411 723 4768 
L 333 4768 
C 1120 3952 1376 2811 1376 1588 
C 1376 370 1133 -778 333 -1600 
L 723 -1600 
z
" transform="scale(0.015625)"/>
      </defs>
      <use xlink:href="#CMSS17-53" transform="scale(0.996264)"/>
      <use xlink:href="#CMSS17-74" transform="translate(52.048516 0) scale(0.996264)"/>
      <use xlink:href="#CMSS17-72" transform="translate(85.880083 0) scale(0.996264)"/>
      <use xlink:href="#CMSS17-75" transform="translate(117.789855 0) scale(0.996264)"/>
      <use xlink:href="#CMSS17-63" transform="translate(165.994799 0) scale(0.996264)"/>
      <use xlink:href="#CMSS17-74" transform="translate(207.633621 0) scale(0.996264)"/>
      <use xlink:href="#CMSS17-75" transform="translate(241.465187 0) scale(0.996264)"/>
      <use xlink:href="#CMSS17-72" transform="translate(289.67013 0) scale(0.996264)"/>
      <use xlink:href="#CMSS17-61" transform="translate(321.579903 0) scale(0.996264)"/>
      <use xlink:href="#CMSS17-6c" transform="translate(366.501824 0) scale(0.996264)"/>
      <use xlink:href="#CMSS17-53" transform="translate(419.911659 0) scale(0.996264)"/>
      <use xlink:href="#CMSS17-69" transform="translate(471.960176 0) scale(0.996264)"/>
      <use xlink:href="#CMSS17-6d" transform="translate(494.140899 0) scale(0.996264)"/>
      <use xlink:href="#CMSS17-69" transform="translate(568.370153 0) scale(0.996264)"/>
      <use xlink:href="#CMSS17-6c" transform="translate(590.550876 0) scale(0.996264)"/>
      <use xlink:href="#CMSS17-61" transform="translate(612.731599 0) scale(0.996264)"/>
      <use xlink:href="#CMSS17-72" transform="translate(655.051066 0) scale(0.996264)"/>
      <use xlink:href="#CMSS17-69" transform="translate(686.960838 0) scale(0.996264)"/>
      <use xlink:href="#CMSS17-74" transform="translate(709.141561 0) scale(0.996264)"/>
      <use xlink:href="#CMSS17-79" transform="translate(740.370674 0) scale(0.996264)"/>
      <use xlink:href="#CMSS17-49" transform="translate(814.599929 0) scale(0.996264)"/>
      <use xlink:href="#CMSS17-6e" transform="translate(840.383854 0) scale(0.996264)"/>
      <use xlink:href="#CMSS17-64" transform="translate(888.588797 0) scale(0.996264)"/>
      <use xlink:href="#CMSS17-65" transform="translate(936.79374 0) scale(0.996264)"/>
      <use xlink:href="#CMSS17-78" transform="translate(978.432562 0) scale(0.996264)"/>
      <use xlink:href="#CMSS17-4d" transform="translate(1052.661817 0) scale(0.996264)"/>
      <use xlink:href="#CMSS17-65" transform="translate(1134.337847 0) scale(0.996264)"/>
      <use xlink:href="#CMSS17-61" transform="translate(1175.976669 0) scale(0.996264)"/>
      <use xlink:href="#CMSS17-73" transform="translate(1220.89859 0) scale(0.996264)"/>
      <use xlink:href="#CMSS17-75" transform="translate(1256.812132 0) scale(0.996264)"/>
      <use xlink:href="#CMSS17-72" transform="translate(1305.017075 0) scale(0.996264)"/>
      <use xlink:href="#CMSS17-65" transform="translate(1336.926847 0) scale(0.996264)"/>
      <use xlink:href="#CMSS17-28" transform="translate(1409.794782 0) scale(0.996264)"/>
      <use xlink:href="#CMSS17-53" transform="translate(1446.228696 0) scale(0.996264)"/>
      <use xlink:href="#CMSS17-53" transform="translate(1498.277212 0) scale(0.996264)"/>
      <use xlink:href="#CMSS17-49" transform="translate(1550.325729 0) scale(0.996264)"/>
      <use xlink:href="#CMSS17-4d" transform="translate(1576.109654 0) scale(0.996264)"/>
      <use xlink:href="#CMSS17-29" transform="translate(1657.785684 0) scale(0.996264)"/>
     </g>
    </g>
   </g>
   <g id="PolyCollection_1">
    <defs>
     <path id="mcf7066a14a" d="M 116.84154 -312.899266 
L 116.84154 -263.937342 
L 122.394579 -298.723934 
L 127.947619 -301.167957 
L 133.500658 -308.825895 
L 139.053698 -311.51432 
L 144.606737 -312.328994 
L 150.159777 -311.677255 
L 155.712816 -311.677255 
L 161.265856 -310.129374 
L 166.818895 -307.522416 
L 172.371935 -309.477634 
L 177.924975 -302.715838 
L 183.478014 -298.153662 
L 189.031054 -294.487628 
L 194.584093 -293.835888 
L 200.137133 -307.929753 
L 205.690172 -314.03981 
L 211.243212 -313.388071 
L 216.796251 -310.862581 
L 222.349291 -306.218937 
L 227.90233 -312.573397 
L 233.45537 -313.062201 
L 239.00841 -317.705845 
L 244.561449 -319.823998 
L 250.114489 -318.276117 
L 255.667528 -314.935952 
L 261.220568 -314.935952 
L 266.773607 -310.129374 
L 272.326647 -307.848286 
L 277.879686 -311.84019 
L 283.432726 -312.084592 
L 288.985765 -312.817799 
L 294.538805 -309.722037 
L 300.091844 -318.439051 
L 305.644884 -320.231335 
L 311.197924 -319.74253 
L 316.750963 -320.557205 
L 322.304003 -323.164162 
L 327.857042 -317.54291 
L 333.410082 -329.844491 
L 338.963121 -325.363783 
L 344.516161 -317.054105 
L 350.0692 -335.873081 
L 355.62224 -342.797813 
L 361.175279 -341.575801 
L 366.728319 -334.406667 
L 372.281359 -321.779216 
L 377.834398 -326.015522 
L 383.387438 -325.608185 
L 388.940477 -325.282315 
L 394.493517 -100.432213 
L 400.046556 -111.104446 
L 405.599596 -115.911025 
L 411.152635 -130.412227 
L 416.705675 -140.025383 
L 422.258714 -137.90723 
L 427.811754 -139.455111 
L 433.364793 -144.669027 
L 438.917833 -147.11305 
L 444.470873 -147.438919 
L 450.023912 -135.218805 
L 455.576952 -139.210709 
L 461.129991 -132.85625 
L 466.683031 -124.057768 
L 472.23607 -124.872442 
L 477.78911 -115.42222 
L 483.342149 -115.585155 
L 488.895189 -114.118741 
L 494.448228 -110.37124 
L 500.001268 -110.208305 
L 505.554308 -109.638033 
L 511.107347 -128.131139 
L 516.660387 -129.35315 
L 522.213426 -128.049672 
L 527.766466 -127.560867 
L 533.319505 -131.226901 
L 538.872545 -124.546572 
L 544.425584 -122.509886 
L 549.978624 -121.369342 
L 555.531663 -114.851948 
L 561.084703 -118.029178 
L 566.637743 -119.984396 
L 572.190782 -120.147331 
L 577.743822 -136.522284 
L 583.296861 -131.552771 
L 588.849901 -136.114947 
L 594.40294 -131.878641 
L 599.95598 -136.440817 
L 605.509019 -136.603751 
L 611.062059 -130.819564 
L 616.615098 -136.929621 
L 622.168138 -123.243093 
L 627.721177 -123.243093 
L 633.274217 -121.77668 
L 638.827257 -128.782878 
L 644.380296 -129.923422 
L 649.933336 -129.67902 
L 655.486375 -132.611847 
L 661.039415 -130.167825 
L 666.592454 -130.249292 
L 666.592454 -159.333164 
L 666.592454 -159.333164 
L 661.039415 -152.734302 
L 655.486375 -161.777187 
L 649.933336 -170.086865 
L 644.380296 -172.205018 
L 638.827257 -171.471811 
L 633.274217 -175.463715 
L 627.721177 -165.198819 
L 622.168138 -168.946321 
L 616.615098 -171.879148 
L 611.062059 -161.695719 
L 605.509019 -160.555175 
L 599.95598 -162.591861 
L 594.40294 -162.265991 
L 588.849901 -160.229306 
L 583.296861 -161.777187 
L 577.743822 -190.209319 
L 572.190782 -196.971116 
L 566.637743 -185.810078 
L 561.084703 -186.543285 
L 555.531663 -180.35176 
L 549.978624 -180.67763 
L 544.425584 -174.567573 
L 538.872545 -181.32937 
L 533.319505 -202.429434 
L 527.766466 -199.007802 
L 522.213426 -181.573772 
L 516.660387 -174.404638 
L 511.107347 -179.537086 
L 505.554308 -161.36985 
L 500.001268 -163.732405 
L 494.448228 -158.844359 
L 488.895189 -166.583765 
L 483.342149 -169.353658 
L 477.78911 -168.376049 
L 472.23607 -178.15214 
L 466.683031 -175.545182 
L 461.129991 -182.062576 
L 455.576952 -195.58617 
L 450.023912 -180.433228 
L 444.470873 -176.930128 
L 438.917833 -174.893443 
L 433.364793 -174.567573 
L 427.811754 -167.154037 
L 422.258714 -167.561374 
L 416.705675 -166.7467 
L 411.152635 -162.754796 
L 405.599596 -144.587559 
L 400.046556 -132.611847 
L 394.493517 -121.12494 
L 388.940477 -364.060811 
L 383.387438 -356.647275 
L 377.834398 -344.508629 
L 372.281359 -367.075106 
L 366.728319 -384.590603 
L 361.175279 -396.077511 
L 355.62224 -399.417675 
L 350.0692 -389.885986 
L 344.516161 -373.91837 
L 338.963121 -370.578206 
L 333.410082 -368.052715 
L 327.857042 -365.527225 
L 322.304003 -364.631083 
L 316.750963 -340.679659 
L 311.197924 -333.347591 
L 305.644884 -333.103189 
L 300.091844 -333.103189 
L 294.538805 -337.828299 
L 288.985765 -371.229945 
L 283.432726 -382.79832 
L 277.879686 -404.387188 
L 272.326647 -402.676372 
L 266.773607 -395.344304 
L 261.220568 -378.317611 
L 255.667528 -384.427668 
L 250.114489 -387.8493 
L 244.561449 -369.111792 
L 239.00841 -349.559609 
L 233.45537 -377.502937 
L 227.90233 -363.734942 
L 222.349291 -362.757332 
L 216.796251 -359.417168 
L 211.243212 -356.973145 
L 205.690172 -355.343796 
L 200.137133 -354.854992 
L 194.584093 -352.818306 
L 189.031054 -341.005529 
L 183.478014 -344.834498 
L 177.924975 -345.649173 
L 172.371935 -351.351893 
L 166.818895 -353.714448 
L 161.265856 -359.417168 
L 155.712816 -351.514827 
L 150.159777 -347.278521 
L 144.606737 -344.590096 
L 139.053698 -348.582 
L 133.500658 -328.62248 
L 127.947619 -327.970741 
L 122.394579 -327.481936 
L 116.84154 -312.899266 
z
" style="stroke: #ffffff; stroke-opacity: 0.2"/>
    </defs>
    <g clip-path="url(#p9264da0dad)">
     <use xlink:href="#mcf7066a14a" x="0" y="576" style="fill: #4c72b0; fill-opacity: 0.2; stroke: #ffffff; stroke-opacity: 0.2"/>
    </g>
   </g>
   <g id="PolyCollection_2">
    <defs>
     <path id="me69c2e7b97" d="M 116.84154 -315.995029 
L 116.84154 -294.976432 
L 122.394579 -296.850183 
L 127.947619 -316.320898 
L 133.500658 -310.455243 
L 139.053698 -318.357584 
L 144.606737 -319.253726 
L 150.159777 -321.942151 
L 155.712816 -334.814005 
L 161.265856 -336.361886 
L 166.818895 -336.280418 
L 172.371935 -335.954549 
L 177.924975 -329.274219 
L 183.478014 -332.614384 
L 189.031054 -336.361886 
L 194.584093 -336.932158 
L 200.137133 -332.451449 
L 205.690172 -339.539115 
L 211.243212 -339.213246 
L 216.796251 -337.013625 
L 222.349291 -334.895472 
L 227.90233 -340.516725 
L 233.45537 -340.272322 
L 239.00841 -337.583897 
L 244.561449 -337.50243 
L 250.114489 -337.50243 
L 255.667528 -335.954549 
L 261.220568 -336.036016 
L 266.773607 -324.793511 
L 272.326647 -341.005529 
L 277.879686 -341.005529 
L 283.432726 -341.005529 
L 288.985765 -341.331399 
L 294.538805 -341.657269 
L 300.091844 -341.657269 
L 305.644884 -341.738736 
L 311.197924 -341.657269 
L 316.750963 -344.264226 
L 322.304003 -344.427161 
L 327.857042 -345.73064 
L 333.410082 -346.05651 
L 338.963121 -353.714448 
L 344.516161 -353.714448 
L 350.0692 -354.773524 
L 355.62224 -354.773524 
L 361.175279 -349.070805 
L 366.728319 -348.337598 
L 372.281359 -347.441456 
L 377.834398 -341.983138 
L 383.387438 -337.909767 
L 388.940477 -338.154169 
L 394.493517 -106.949608 
L 400.046556 -111.837653 
L 405.599596 -119.006787 
L 411.152635 -119.006787 
L 416.705675 -123.406028 
L 422.258714 -121.858147 
L 427.811754 -124.465105 
L 433.364793 -126.990595 
L 438.917833 -126.990595 
L 444.470873 -130.819564 
L 450.023912 -132.85625 
L 455.576952 -135.463207 
L 461.129991 -135.70761 
L 466.683031 -134.811468 
L 472.23607 -147.683322 
L 477.78911 -151.919628 
L 483.342149 -159.333164 
L 488.895189 -160.310773 
L 494.448228 -163.325068 
L 500.001268 -155.911532 
L 505.554308 -171.390343 
L 511.107347 -178.233607 
L 516.660387 -174.323171 
L 522.213426 -175.62665 
L 527.766466 -174.730508 
L 533.319505 -173.997301 
L 538.872545 -179.455619 
L 544.425584 -179.374151 
L 549.978624 -179.618554 
L 555.531663 -182.306979 
L 561.084703 -185.484208 
L 566.637743 -187.357959 
L 572.190782 -184.262197 
L 577.743822 -187.276492 
L 583.296861 -185.810078 
L 588.849901 -190.453722 
L 594.40294 -188.417036 
L 599.95598 -196.237909 
L 605.509019 -195.830572 
L 611.062059 -196.563779 
L 616.615098 -190.372254 
L 622.168138 -187.683829 
L 627.721177 -184.18073 
L 633.274217 -184.262197 
L 638.827257 -176.441324 
L 644.380296 -151.675226 
L 649.933336 -143.528483 
L 655.486375 -156.318869 
L 661.039415 -167.561374 
L 666.592454 -168.050179 
L 666.592454 -235.097872 
L 666.592454 -235.097872 
L 661.039415 -247.480921 
L 655.486375 -247.725324 
L 649.933336 -260.026905 
L 644.380296 -258.397557 
L 638.827257 -244.222224 
L 633.274217 -224.670041 
L 627.721177 -216.523299 
L 622.168138 -216.930636 
L 616.615098 -226.951129 
L 611.062059 -234.772003 
L 605.509019 -243.244615 
L 599.95598 -247.562389 
L 594.40294 -249.517607 
L 588.849901 -252.043097 
L 583.296861 -259.945438 
L 577.743822 -261.819189 
L 572.190782 -277.542402 
L 566.637743 -293.184149 
L 561.084703 -276.646261 
L 555.531663 -279.334686 
L 549.978624 -264.507614 
L 544.425584 -257.012611 
L 538.872545 -254.48712 
L 533.319505 -252.857772 
L 527.766466 -258.886361 
L 522.213426 -230.780099 
L 516.660387 -230.617164 
L 511.107347 -221.818681 
L 505.554308 -231.187436 
L 500.001268 -243.814887 
L 494.448228 -228.661945 
L 488.895189 -229.639555 
L 483.342149 -223.610965 
L 477.78911 -217.908245 
L 472.23607 -218.152647 
L 466.683031 -212.36846 
L 461.129991 -210.576176 
L 455.576952 -212.36846 
L 450.023912 -203.48851 
L 444.470873 -203.732912 
L 438.917833 -195.097365 
L 433.364793 -186.38035 
L 427.811754 -180.67763 
L 422.258714 -175.382247 
L 416.705675 -164.954417 
L 411.152635 -161.451317 
L 405.599596 -158.681425 
L 400.046556 -143.365548 
L 394.493517 -125.442714 
L 388.940477 -391.67827 
L 383.387438 -400.884089 
L 377.834398 -383.694462 
L 372.281359 -408.786429 
L 366.728319 -409.845506 
L 361.175279 -412.289529 
L 355.62224 -408.786429 
L 350.0692 -383.12419 
L 344.516161 -405.364797 
L 338.963121 -402.187568 
L 333.410082 -422.228555 
L 327.857042 -424.754045 
L 322.304003 -431.352907 
L 316.750963 -443.247152 
L 311.197924 -441.047531 
L 305.644884 -431.923179 
L 300.091844 -438.033236 
L 294.538805 -441.862205 
L 288.985765 -442.432477 
L 283.432726 -438.929378 
L 277.879686 -416.607303 
L 272.326647 -396.40338 
L 266.773607 -378.399079 
L 261.220568 -375.140382 
L 255.667528 -376.362393 
L 250.114489 -380.109895 
L 244.561449 -381.006036 
L 239.00841 -380.680167 
L 233.45537 -376.362393 
L 227.90233 -377.828807 
L 222.349291 -379.132286 
L 216.796251 -381.494841 
L 211.243212 -373.91837 
L 205.690172 -374.407175 
L 200.137133 -373.022228 
L 194.584093 -364.468148 
L 189.031054 -360.231842 
L 183.478014 -360.231842 
L 177.924975 -359.3357 
L 172.371935 -355.099394 
L 166.818895 -354.936459 
L 161.265856 -353.551513 
L 155.712816 -353.63298 
L 150.159777 -352.573904 
L 144.606737 -351.10749 
L 139.053698 -337.339495 
L 133.500658 -329.029817 
L 127.947619 -330.414763 
L 122.394579 -327.807806 
L 116.84154 -315.995029 
z
" style="stroke: #ffffff; stroke-opacity: 0.2"/>
    </defs>
    <g clip-path="url(#p9264da0dad)">
     <use xlink:href="#me69c2e7b97" x="0" y="576" style="fill: #dd8452; fill-opacity: 0.2; stroke: #ffffff; stroke-opacity: 0.2"/>
    </g>
   </g>
   <g id="PolyCollection_3">
    <defs>
     <path id="m159de101dd" d="M 116.84154 -304.100784 
L 116.84154 -279.334686 
L 122.394579 -294.243225 
L 127.947619 -299.131271 
L 133.500658 -303.449045 
L 139.053698 -289.518114 
L 144.606737 -323.897369 
L 150.159777 -323.408565 
L 155.712816 -323.815902 
L 161.265856 -325.037913 
L 166.818895 -332.451449 
L 172.371935 -337.50243 
L 177.924975 -341.983138 
L 183.478014 -348.663467 
L 189.031054 -348.663467 
L 194.584093 -348.744935 
L 200.137133 -348.744935 
L 205.690172 -348.826402 
L 211.243212 -348.826402 
L 216.796251 -348.989337 
L 222.349291 -348.989337 
L 227.90233 -351.677762 
L 233.45537 -351.922165 
L 239.00841 -352.329502 
L 244.561449 -352.492437 
L 250.114489 -363.409072 
L 255.667528 -364.386681 
L 261.220568 -363.979344 
L 266.773607 -367.156574 
L 272.326647 -352.166567 
L 277.879686 -384.020331 
L 283.432726 -379.94696 
L 288.985765 -369.356194 
L 294.538805 -375.140382 
L 300.091844 -377.502937 
L 305.644884 -391.3524 
L 311.197924 -389.234247 
L 316.750963 -392.411476 
L 322.304003 -392.411476 
L 327.857042 -392.411476 
L 333.410082 -392.900281 
L 338.963121 -392.737346 
L 344.516161 -392.411476 
L 350.0692 -386.301419 
L 355.62224 -386.627289 
L 361.175279 -389.315714 
L 366.728319 -388.419572 
L 372.281359 -385.97555 
L 377.834398 -384.916473 
L 383.387438 -385.894082 
L 388.940477 -385.64968 
L 394.493517 -117.295971 
L 400.046556 -127.642334 
L 405.599596 -127.886737 
L 411.152635 -128.131139 
L 416.705675 -127.968204 
L 422.258714 -123.406028 
L 427.811754 -125.931518 
L 433.364793 -130.167825 
L 438.917833 -132.285978 
L 444.470873 -138.803372 
L 450.023912 -144.506092 
L 455.576952 -150.045877 
L 461.129991 -150.045877 
L 466.683031 -152.001095 
L 472.23607 -154.770988 
L 477.78911 -155.992999 
L 483.342149 -156.155934 
L 488.895189 -155.422727 
L 494.448228 -156.237402 
L 500.001268 -165.769091 
L 505.554308 -163.89534 
L 511.107347 -171.227409 
L 516.660387 -171.227409 
L 522.213426 -171.553278 
L 527.766466 -171.634746 
L 533.319505 -171.797681 
L 538.872545 -170.412734 
L 544.425584 -168.457516 
L 549.978624 -167.968711 
L 555.531663 -167.398439 
L 561.084703 -164.384145 
L 566.637743 -162.673329 
L 572.190782 -162.673329 
L 577.743822 -162.754796 
L 583.296861 -163.325068 
L 588.849901 -164.058275 
L 594.40294 -166.176428 
L 599.95598 -169.27219 
L 605.509019 -169.27219 
L 611.062059 -169.27219 
L 616.615098 -168.946321 
L 622.168138 -168.620451 
L 627.721177 -168.620451 
L 633.274217 -168.620451 
L 638.827257 -168.294581 
L 644.380296 -169.109255 
L 649.933336 -169.679527 
L 655.486375 -170.331267 
L 661.039415 -172.856757 
L 666.592454 -173.671431 
L 666.592454 -283.082188 
L 666.592454 -283.082188 
L 661.039415 -283.896862 
L 655.486375 -284.059797 
L 649.933336 -281.778709 
L 644.380296 -260.51571 
L 638.827257 -257.012611 
L 633.274217 -258.316089 
L 627.721177 -263.122668 
L 622.168138 -270.780606 
L 616.615098 -271.432345 
L 611.062059 -271.676748 
L 605.509019 -271.758215 
L 599.95598 -265.89256 
L 594.40294 -263.448537 
L 588.849901 -268.173648 
L 583.296861 -268.74392 
L 577.743822 -273.713433 
L 572.190782 -270.454736 
L 566.637743 -266.299897 
L 561.084703 -269.884464 
L 555.531663 -276.238924 
L 549.978624 -275.261314 
L 544.425584 -276.890663 
L 538.872545 -274.039303 
L 533.319505 -279.82349 
L 527.766466 -274.365173 
L 522.213426 -259.538101 
L 516.660387 -247.806791 
L 511.107347 -237.37896 
L 505.554308 -222.796291 
L 500.001268 -213.753406 
L 494.448228 -214.160743 
L 488.895189 -211.961123 
L 483.342149 -206.66574 
L 477.78911 -206.584272 
L 472.23607 -200.31128 
L 466.683031 -196.808181 
L 461.129991 -189.23171 
L 455.576952 -188.335568 
L 450.023912 -189.55758 
L 444.470873 -190.209319 
L 438.917833 -186.461818 
L 433.364793 -179.374151 
L 427.811754 -175.137845 
L 422.258714 -169.027788 
L 416.705675 -157.86675 
L 411.152635 -147.846257 
L 405.599596 -143.691418 
L 400.046556 -145.972506 
L 394.493517 -136.440817 
L 388.940477 -468.827924 
L 383.387438 -471.516349 
L 377.834398 -471.516349 
L 372.281359 -472.656893 
L 366.728319 -481.455376 
L 361.175279 -481.455376 
L 355.62224 -476.8932 
L 350.0692 -480.314832 
L 344.516161 -495.304838 
L 338.963121 -497.260057 
L 333.410082 -499.296742 
L 327.857042 -493.34962 
L 322.304003 -493.34962 
L 316.750963 -486.424889 
L 311.197924 -484.551138 
L 305.644884 -496.52685 
L 300.091844 -497.422991 
L 294.538805 -504.836527 
L 288.985765 -505.895604 
L 283.432726 -484.714073 
L 277.879686 -488.624509 
L 272.326647 -485.854617 
L 266.773607 -485.773149 
L 261.220568 -481.94418 
L 255.667528 -458.318626 
L 250.114489 -454.489657 
L 244.561449 -447.076121 
L 239.00841 -444.061826 
L 233.45537 -456.770745 
L 227.90233 -460.599714 
L 222.349291 -460.355312 
L 216.796251 -460.355312 
L 211.243212 -460.355312 
L 205.690172 -460.844116 
L 200.137133 -455.95607 
L 194.584093 -453.43058 
L 189.031054 -442.758347 
L 183.478014 -441.780738 
L 177.924975 -417.992249 
L 172.371935 -402.839307 
L 166.818895 -390.537726 
L 161.265856 -389.967454 
L 155.712816 -390.782128 
L 150.159777 -373.836903 
L 144.606737 -372.940761 
L 139.053698 -371.555815 
L 133.500658 -358.113689 
L 127.947619 -345.40477 
L 122.394579 -317.950247 
L 116.84154 -304.100784 
z
" style="stroke: #ffffff; stroke-opacity: 0.2"/>
    </defs>
    <g clip-path="url(#p9264da0dad)">
     <use xlink:href="#m159de101dd" x="0" y="576" style="fill: #55a868; fill-opacity: 0.2; stroke: #ffffff; stroke-opacity: 0.2"/>
    </g>
   </g>
   <g id="line2d_13">
    <path d="M 116.84154 271.166009 
L 122.394579 259.190297 
L 127.947619 250.799152 
L 133.500658 249.821543 
L 139.053698 247.70339 
L 144.606737 243.141214 
L 150.159777 241.756267 
L 155.712816 241.6748 
L 161.265856 237.194091 
L 166.818895 239.14931 
L 172.371935 233.365122 
L 177.924975 232.631915 
L 183.478014 250.065945 
L 189.031054 246.970183 
L 194.584093 244.52616 
L 200.137133 244.689095 
L 205.690172 245.096432 
L 211.243212 231.898709 
L 216.796251 231.572839 
L 222.349291 234.424199 
L 227.90233 237.927298 
L 233.45537 242.978279 
L 239.00841 246.236976 
L 244.561449 241.185995 
L 250.114489 238.904907 
L 255.667528 238.741973 
L 261.220568 237.438494 
L 266.773607 237.194091 
L 272.326647 235.564743 
L 277.879686 236.053547 
L 283.432726 237.682896 
L 288.985765 253.650512 
L 294.538805 257.398014 
L 300.091844 251.776761 
L 305.644884 249.740075 
L 311.197924 244.363225 
L 316.750963 237.927298 
L 322.304003 236.949689 
L 327.857042 232.143111 
L 333.410082 231.898709 
L 338.963121 223.263161 
L 344.516161 227.580935 
L 350.0692 227.74387 
L 355.62224 222.937292 
L 361.175279 228.151207 
L 366.728319 231.817241 
L 372.281359 227.580935 
L 377.834398 240.126919 
L 383.387438 239.556647 
L 388.940477 240.615723 
L 394.493517 469.213327 
L 400.046556 457.807887 
L 405.599596 447.542991 
L 411.152635 442.492011 
L 416.705675 435.811682 
L 422.258714 417.80738 
L 427.811754 416.666836 
L 433.364793 415.770694 
L 438.917833 413.652541 
L 444.470873 409.171833 
L 450.023912 419.681131 
L 455.576952 426.442927 
L 461.129991 429.620157 
L 466.683031 427.746406 
L 472.23607 429.294287 
L 477.78911 428.479613 
L 483.342149 423.754502 
L 488.895189 423.591567 
L 494.448228 421.066077 
L 500.001268 415.037487 
L 505.554308 416.748303 
L 511.107347 423.265698 
L 516.660387 427.339069 
L 522.213426 433.367659 
L 527.766466 439.640651 
L 533.319505 432.634452 
L 538.872545 429.21282 
L 544.425584 420.740207 
L 549.978624 427.909341 
L 555.531663 427.176134 
L 561.084703 439.640651 
L 566.637743 441.188532 
L 572.190782 438.663042 
L 577.743822 427.990809 
L 583.296861 425.546786 
L 588.849901 425.872655 
L 594.40294 424.161839 
L 599.95598 423.917437 
L 605.509019 421.880751 
L 611.062059 420.98461 
L 616.615098 430.108962 
L 622.168138 424.487709 
L 627.721177 423.18423 
L 633.274217 422.369556 
L 638.827257 424.406242 
L 644.380296 429.53869 
L 649.933336 437.359563 
L 655.486375 438.337172 
L 661.039415 432.06418 
L 666.592454 429.701625 
" clip-path="url(#p9264da0dad)" style="fill: none; stroke: #4c72b0; stroke-width: 1.5; stroke-linecap: round"/>
   </g>
   <g id="line2d_14">
    <path d="M 116.84154 277.276066 
L 122.394579 263.589538 
L 127.947619 257.479481 
L 133.500658 257.723883 
L 139.053698 246.562846 
L 144.606737 239.882517 
L 150.159777 241.511865 
L 155.712816 236.29795 
L 161.265856 231.735774 
L 166.818895 225.788651 
L 172.371935 224.729575 
L 177.924975 226.766261 
L 183.478014 232.876318 
L 189.031054 232.631915 
L 194.584093 233.690992 
L 200.137133 233.690992 
L 205.690172 225.218379 
L 211.243212 218.86392 
L 216.796251 218.049246 
L 222.349291 218.456583 
L 227.90233 220.737671 
L 233.45537 221.38941 
L 239.00841 220.167399 
L 244.561449 213.405602 
L 250.114489 208.273154 
L 255.667528 214.790549 
L 261.220568 222.855824 
L 266.773607 226.929195 
L 272.326647 232.468981 
L 277.879686 226.114521 
L 283.432726 223.426096 
L 288.985765 218.049246 
L 294.538805 217.071637 
L 300.091844 211.857721 
L 305.644884 210.798645 
L 311.197924 210.146905 
L 316.750963 211.613319 
L 322.304003 212.83533 
L 327.857042 211.287449 
L 333.410082 212.102124 
L 338.963121 212.183591 
L 344.516161 210.391308 
L 350.0692 217.478974 
L 355.62224 218.53805 
L 361.175279 220.167399 
L 366.728319 220.493269 
L 372.281359 221.063541 
L 377.834398 221.063541 
L 383.387438 222.774357 
L 388.940477 224.24077 
L 394.493517 455.526799 
L 400.046556 444.039892 
L 405.599596 429.294287 
L 411.152635 418.296185 
L 416.705675 416.096564 
L 422.258714 413.163737 
L 427.811754 408.92743 
L 433.364793 405.668733 
L 438.917833 406.564875 
L 444.470873 412.10466 
L 450.023912 411.77879 
L 455.576952 404.283787 
L 461.129991 399.232806 
L 466.683031 380.332363 
L 472.23607 375.281382 
L 477.78911 369.00839 
L 483.342149 367.786379 
L 488.895189 364.690617 
L 494.448228 352.063165 
L 500.001268 348.641533 
L 505.554308 349.70061 
L 511.107347 359.150832 
L 516.660387 362.165126 
L 522.213426 359.558169 
L 527.766466 354.425721 
L 533.319505 354.425721 
L 538.872545 346.930717 
L 544.425584 347.419522 
L 549.978624 352.307568 
L 555.531663 351.655828 
L 561.084703 354.181319 
L 566.637743 363.713008 
L 572.190782 369.33426 
L 577.743822 378.458612 
L 583.296861 382.531984 
L 588.849901 373.733501 
L 594.40294 365.179421 
L 599.95598 360.046973 
L 605.509019 359.232299 
L 611.062059 361.43192 
L 616.615098 373.163229 
L 622.168138 360.943115 
L 627.721177 368.193716 
L 633.274217 381.06557 
L 638.827257 387.257094 
L 644.380296 391.737803 
L 649.933336 390.841661 
L 655.486375 390.678726 
L 661.039415 392.389542 
L 666.592454 391.411933 
" clip-path="url(#p9264da0dad)" style="fill: none; stroke: #dd8452; stroke-width: 1.5; stroke-linecap: round"/>
   </g>
   <g id="line2d_15">
    <path d="M 116.84154 286.156016 
L 122.394579 271.084542 
L 127.947619 248.680999 
L 133.500658 252.591435 
L 139.053698 243.467083 
L 144.606737 246.970183 
L 150.159777 239.556647 
L 155.712816 238.008766 
L 161.265856 234.261264 
L 166.818895 237.764363 
L 172.371935 234.016862 
L 177.924975 219.760062 
L 183.478014 210.717177 
L 189.031054 195.401301 
L 194.584093 180.411294 
L 200.137133 179.678087 
L 205.690172 179.678087 
L 211.243212 179.59662 
L 216.796251 163.221667 
L 222.349291 159.229763 
L 227.90233 166.317429 
L 233.45537 146.683779 
L 239.00841 150.512748 
L 244.561449 151.490357 
L 250.114489 150.920085 
L 255.667528 151.490357 
L 261.220568 128.353607 
L 266.773607 127.375998 
L 272.326647 127.050128 
L 277.879686 128.760944 
L 283.432726 124.035834 
L 288.985765 118.333114 
L 294.538805 122.56942 
L 300.091844 122.162083 
L 305.644884 123.302627 
L 311.197924 126.642791 
L 316.750963 123.384094 
L 322.304003 123.872899 
L 327.857042 114.01534 
L 333.410082 106.031532 
L 338.963121 101.469356 
L 344.516161 104.972455 
L 350.0692 106.194467 
L 355.62224 104.239248 
L 361.175279 107.497946 
L 366.728319 113.200666 
L 372.281359 127.538933 
L 377.834398 129.738554 
L 383.387438 130.227358 
L 388.940477 129.249749 
L 394.493517 450.149949 
L 400.046556 442.817881 
L 405.599596 435.893149 
L 411.152635 431.493908 
L 416.705675 428.316678 
L 422.258714 425.465318 
L 427.811754 419.681131 
L 433.364793 422.043686 
L 438.917833 419.192326 
L 444.470873 418.703522 
L 450.023912 420.903142 
L 455.576952 419.925533 
L 461.129991 412.186127 
L 466.683031 406.483407 
L 472.23607 406.40194 
L 477.78911 406.972212 
L 483.342149 406.890745 
L 488.895189 405.342863 
L 494.448228 396.462914 
L 500.001268 373.081762 
L 505.554308 369.741597 
L 511.107347 367.053172 
L 516.660387 366.645835 
L 522.213426 357.765885 
L 527.766466 356.706809 
L 533.319505 356.543874 
L 538.872545 355.07746 
L 544.425584 358.010288 
L 549.978624 357.114146 
L 555.531663 355.647732 
L 561.084703 351.574361 
L 566.637743 349.70061 
L 572.190782 349.70061 
L 577.743822 350.107947 
L 583.296861 350.270882 
L 588.849901 351.492893 
L 594.40294 350.922621 
L 599.95598 354.995993 
L 605.509019 356.299472 
L 611.062059 350.678219 
L 616.615098 352.144633 
L 622.168138 350.759687 
L 627.721177 350.841154 
L 633.274217 357.277081 
L 638.827257 361.676322 
L 644.380296 365.749693 
L 649.933336 360.209908 
L 655.486375 363.794475 
L 661.039415 359.150832 
L 666.592454 353.122242 
" clip-path="url(#p9264da0dad)" style="fill: none; stroke: #55a868; stroke-width: 1.5; stroke-linecap: round"/>
   </g>
   <g id="patch_3">
    <path d="M 89.353994 495.840956 
L 89.353994 49.831226 
" style="fill: none; stroke: #cccccc; stroke-width: 1.25; stroke-linejoin: miter; stroke-linecap: square"/>
   </g>
   <g id="patch_4">
    <path d="M 694.08 495.840956 
L 694.08 49.831226 
" style="fill: none; stroke: #cccccc; stroke-width: 1.25; stroke-linejoin: miter; stroke-linecap: square"/>
   </g>
   <g id="patch_5">
    <path d="M 89.353994 495.840956 
L 694.08 495.840956 
" style="fill: none; stroke: #cccccc; stroke-width: 1.25; stroke-linejoin: miter; stroke-linecap: square"/>
   </g>
   <g id="patch_6">
    <path d="M 89.353994 49.831226 
L 694.08 49.831226 
" style="fill: none; stroke: #cccccc; stroke-width: 1.25; stroke-linejoin: miter; stroke-linecap: square"/>
   </g>
   <g id="text_15">
    <!-- Structural Similarity Index Measure (SSIM) over Step (Median) -->
    <g style="fill: #262626" transform="translate(93.310896 43.831226) scale(0.24 -0.24)">
     <defs>
      <path id="CMSS17-6f" d="M 2829 1356 
C 2829 2176 2221 2816 1504 2816 
C 768 2816 173 2157 173 1356 
C 173 544 787 -64 1498 -64 
C 2227 -64 2829 563 2829 1356 
z
M 1504 337 
C 1050 337 659 709 659 1408 
C 659 2151 1114 2427 1498 2427 
C 1914 2427 2342 2126 2342 1408 
C 2342 683 1926 337 1504 337 
z
" transform="scale(0.015625)"/>
      <path id="CMSS17-76" d="M 2675 2752 
L 2176 2752 
L 1747 1556 
C 1613 1165 1421 627 1389 352 
L 1382 352 
C 1370 468 1318 634 1286 749 
C 1248 890 1197 1056 1158 1172 
L 595 2752 
L 83 2752 
L 1094 0 
L 1664 0 
L 2675 2752 
z
" transform="scale(0.015625)"/>
     </defs>
     <use xlink:href="#CMSS17-53" transform="scale(0.996264)"/>
     <use xlink:href="#CMSS17-74" transform="translate(52.048516 0) scale(0.996264)"/>
     <use xlink:href="#CMSS17-72" transform="translate(85.880083 0) scale(0.996264)"/>
     <use xlink:href="#CMSS17-75" transform="translate(117.789855 0) scale(0.996264)"/>
     <use xlink:href="#CMSS17-63" transform="translate(165.994799 0) scale(0.996264)"/>
     <use xlink:href="#CMSS17-74" transform="translate(207.633621 0) scale(0.996264)"/>
     <use xlink:href="#CMSS17-75" transform="translate(241.465187 0) scale(0.996264)"/>
     <use xlink:href="#CMSS17-72" transform="translate(289.67013 0) scale(0.996264)"/>
     <use xlink:href="#CMSS17-61" transform="translate(321.579903 0) scale(0.996264)"/>
     <use xlink:href="#CMSS17-6c" transform="translate(366.501824 0) scale(0.996264)"/>
     <use xlink:href="#CMSS17-53" transform="translate(419.911659 0) scale(0.996264)"/>
     <use xlink:href="#CMSS17-69" transform="translate(471.960176 0) scale(0.996264)"/>
     <use xlink:href="#CMSS17-6d" transform="translate(494.140899 0) scale(0.996264)"/>
     <use xlink:href="#CMSS17-69" transform="translate(568.370153 0) scale(0.996264)"/>
     <use xlink:href="#CMSS17-6c" transform="translate(590.550876 0) scale(0.996264)"/>
     <use xlink:href="#CMSS17-61" transform="translate(612.731599 0) scale(0.996264)"/>
     <use xlink:href="#CMSS17-72" transform="translate(655.051066 0) scale(0.996264)"/>
     <use xlink:href="#CMSS17-69" transform="translate(686.960838 0) scale(0.996264)"/>
     <use xlink:href="#CMSS17-74" transform="translate(709.141561 0) scale(0.996264)"/>
     <use xlink:href="#CMSS17-79" transform="translate(740.370674 0) scale(0.996264)"/>
     <use xlink:href="#CMSS17-49" transform="translate(814.599929 0) scale(0.996264)"/>
     <use xlink:href="#CMSS17-6e" transform="translate(840.383854 0) scale(0.996264)"/>
     <use xlink:href="#CMSS17-64" transform="translate(888.588797 0) scale(0.996264)"/>
     <use xlink:href="#CMSS17-65" transform="translate(936.79374 0) scale(0.996264)"/>
     <use xlink:href="#CMSS17-78" transform="translate(978.432562 0) scale(0.996264)"/>
     <use xlink:href="#CMSS17-4d" transform="translate(1052.661817 0) scale(0.996264)"/>
     <use xlink:href="#CMSS17-65" transform="translate(1134.337847 0) scale(0.996264)"/>
     <use xlink:href="#CMSS17-61" transform="translate(1175.976669 0) scale(0.996264)"/>
     <use xlink:href="#CMSS17-73" transform="translate(1220.89859 0) scale(0.996264)"/>
     <use xlink:href="#CMSS17-75" transform="translate(1256.812132 0) scale(0.996264)"/>
     <use xlink:href="#CMSS17-72" transform="translate(1305.017075 0) scale(0.996264)"/>
     <use xlink:href="#CMSS17-65" transform="translate(1336.926847 0) scale(0.996264)"/>
     <use xlink:href="#CMSS17-28" transform="translate(1409.794782 0) scale(0.996264)"/>
     <use xlink:href="#CMSS17-53" transform="translate(1446.228696 0) scale(0.996264)"/>
     <use xlink:href="#CMSS17-53" transform="translate(1498.277212 0) scale(0.996264)"/>
     <use xlink:href="#CMSS17-49" transform="translate(1550.325729 0) scale(0.996264)"/>
     <use xlink:href="#CMSS17-4d" transform="translate(1576.109654 0) scale(0.996264)"/>
     <use xlink:href="#CMSS17-29" transform="translate(1657.785684 0) scale(0.996264)"/>
     <use xlink:href="#CMSS17-6f" transform="translate(1725.448711 0) scale(0.996264)"/>
     <use xlink:href="#CMSS17-76" transform="translate(1772.292335 0) scale(0.996264)"/>
     <use xlink:href="#CMSS17-65" transform="translate(1815.292476 0) scale(0.996264)"/>
     <use xlink:href="#CMSS17-72" transform="translate(1856.931298 0) scale(0.996264)"/>
     <use xlink:href="#CMSS17-53" transform="translate(1920.070184 0) scale(0.996264)"/>
     <use xlink:href="#CMSS17-74" transform="translate(1972.1187 0) scale(0.996264)"/>
     <use xlink:href="#CMSS17-65" transform="translate(2005.950266 0) scale(0.996264)"/>
     <use xlink:href="#CMSS17-70" transform="translate(2047.589089 0) scale(0.996264)"/>
     <use xlink:href="#CMSS17-28" transform="translate(2127.023144 0) scale(0.996264)"/>
     <use xlink:href="#CMSS17-4d" transform="translate(2163.457059 0) scale(0.996264)"/>
     <use xlink:href="#CMSS17-65" transform="translate(2245.133089 0) scale(0.996264)"/>
     <use xlink:href="#CMSS17-64" transform="translate(2286.771911 0) scale(0.996264)"/>
     <use xlink:href="#CMSS17-69" transform="translate(2334.976854 0) scale(0.996264)"/>
     <use xlink:href="#CMSS17-61" transform="translate(2357.157577 0) scale(0.996264)"/>
     <use xlink:href="#CMSS17-6e" transform="translate(2402.079497 0) scale(0.996264)"/>
     <use xlink:href="#CMSS17-29" transform="translate(2450.284441 0) scale(0.996264)"/>
    </g>
   </g>
   <g id="legend_1">
    <g id="patch_7">
     <path d="M 480.999465 191.675953 
L 678.68 191.675953 
Q 683.08 191.675953 683.08 187.275953 
L 683.08 65.231226 
Q 683.08 60.831226 678.68 60.831226 
L 480.999465 60.831226 
Q 476.599465 60.831226 476.599465 65.231226 
L 476.599465 187.275953 
Q 476.599465 191.675953 480.999465 191.675953 
z
" style="fill: #ffffff; opacity: 0.8; stroke: #cccccc; stroke-linejoin: miter"/>
    </g>
    <g id="text_16">
     <!-- Confidence Decay $\alpha$ -->
     <g style="fill: #262626" transform="translate(485.399465 86.235632) scale(0.24 -0.24)">
      <defs>
       <path id="CMSS17-43" d="M 3501 714 
C 3072 427 2874 344 2355 344 
C 1459 344 934 1303 934 2179 
C 934 3112 1472 4032 2381 4032 
C 2790 4032 3059 3918 3386 3715 
L 3475 4217 
C 3168 4370 2778 4440 2387 4440 
C 1158 4440 397 3316 397 2179 
C 397 927 1299 -64 2323 -64 
C 2874 -64 3066 -19 3539 280 
L 3501 714 
z
" transform="scale(0.015625)"/>
       <path id="CMSS17-c" d="M 2752 4416 
L 2240 4416 
L 2240 3906 
L 2752 3906 
L 2752 4416 
z
M 2733 2737 
L 2259 2737 
L 2259 0 
L 2733 0 
L 2733 2737 
z
M 1075 2368 
L 1773 2368 
L 1773 2737 
L 1062 2737 
L 1062 3578 
C 1062 3919 1216 4092 1421 4092 
C 1542 4092 1664 4056 1773 3992 
L 1773 4410 
C 1722 4428 1574 4480 1421 4480 
C 941 4480 602 3993 602 3372 
L 602 2737 
L 160 2737 
L 160 2368 
L 602 2368 
L 602 0 
L 1075 0 
L 1075 2368 
z
" transform="scale(0.015625)"/>
       <path id="CMSS17-44" d="M 570 4416 
L 570 0 
L 2144 0 
C 3194 0 4000 980 4000 2170 
C 4000 3398 3194 4416 2144 4416 
L 570 4416 
z
M 1094 357 
L 1094 4059 
L 2003 4059 
C 2861 4059 3475 3277 3475 2170 
C 3475 1107 2867 357 2003 357 
L 1094 357 
z
" transform="scale(0.015625)"/>
       <path id="CMMI12-b" d="M 2963 1616 
C 2963 2235 2611 2815 1933 2815 
C 1094 2815 256 1902 256 996 
C 256 441 602 -64 1254 -64 
C 1651 -64 2125 89 2579 472 
C 2669 115 2867 -64 3142 -64 
C 3488 -64 3661 294 3661 377 
C 3661 434 3616 434 3597 434 
C 3546 434 3539 415 3520 364 
C 3462 204 3315 64 3162 64 
C 2963 64 2963 472 2963 862 
C 3616 1641 3770 2446 3770 2452 
C 3770 2510 3718 2510 3699 2510 
C 3642 2510 3635 2491 3610 2376 
C 3526 2095 3360 1597 2963 1073 
L 2963 1616 
z
M 2560 626 
C 1997 121 1491 64 1267 64 
C 813 64 685 466 685 766 
C 685 1040 826 1692 1024 2044 
C 1286 2491 1645 2688 1933 2688 
C 2554 2688 2554 1877 2554 1341 
C 2554 1182 2547 1016 2547 856 
C 2547 728 2554 696 2560 626 
z
" transform="scale(0.015625)"/>
      </defs>
      <use xlink:href="#CMSS17-43" transform="scale(0.996264)"/>
      <use xlink:href="#CMSS17-6f" transform="translate(59.855772 0) scale(0.996264)"/>
      <use xlink:href="#CMSS17-6e" transform="translate(106.699395 0) scale(0.996264)"/>
      <use xlink:href="#CMSS17-c" transform="translate(154.904338 0) scale(0.996264)"/>
      <use xlink:href="#CMSS17-64" transform="translate(205.031075 0) scale(0.996264)"/>
      <use xlink:href="#CMSS17-65" transform="translate(253.236019 0) scale(0.996264)"/>
      <use xlink:href="#CMSS17-6e" transform="translate(294.874841 0) scale(0.996264)"/>
      <use xlink:href="#CMSS17-63" transform="translate(343.079784 0) scale(0.996264)"/>
      <use xlink:href="#CMSS17-65" transform="translate(384.718606 0) scale(0.996264)"/>
      <use xlink:href="#CMSS17-44" transform="translate(457.586541 0) scale(0.996264)"/>
      <use xlink:href="#CMSS17-65" transform="translate(525.129382 0) scale(0.996264)"/>
      <use xlink:href="#CMSS17-63" transform="translate(566.768204 0) scale(0.996264)"/>
      <use xlink:href="#CMSS17-61" transform="translate(608.407027 0) scale(0.996264)"/>
      <use xlink:href="#CMSS17-79" transform="translate(650.726493 0) scale(0.996264)"/>
      <use xlink:href="#CMMI12-b" transform="translate(724.955748 0) scale(0.996264)"/>
     </g>
    </g>
    <g id="line2d_16">
     <path d="M 525.565885 109.586389 
L 547.565885 109.586389 
L 569.565885 109.586389 
" style="fill: none; stroke: #4c72b0; stroke-width: 1.5; stroke-linecap: round"/>
    </g>
    <g id="text_17">
     <!-- 0.01 -->
     <g style="fill: #262626" transform="translate(587.165885 117.286389) scale(0.22 -0.22)">
      <defs>
       <path id="CMSS17-30" d="M 2758 2044 
C 2758 2405 2752 3077 2490 3596 
C 2227 4096 1805 4229 1504 4229 
C 1069 4229 698 3975 506 3570 
C 301 3146 243 2709 243 2044 
C 243 1589 262 1031 493 543 
C 755 5 1197 -128 1498 -128 
C 1894 -128 2278 81 2496 518 
C 2720 974 2758 1474 2758 2044 
z
M 1498 261 
C 1011 261 864 811 819 995 
C 742 1310 730 1614 730 2114 
C 730 2506 730 2948 851 3297 
C 998 3701 1254 3840 1498 3840 
C 1971 3840 2125 3372 2176 3208 
C 2272 2873 2272 2481 2272 2114 
C 2272 1526 2272 261 1498 261 
z
" transform="scale(0.015625)"/>
       <path id="CMSS17-2e" d="M 1088 510 
L 576 510 
L 576 0 
L 1088 0 
L 1088 510 
z
" transform="scale(0.015625)"/>
       <path id="CMSS17-31" d="M 1818 4288 
L 1696 4288 
C 1350 3940 947 3890 538 3890 
L 538 3520 
C 723 3520 1024 3520 1325 3667 
L 1325 369 
L 570 369 
L 570 0 
L 2573 0 
L 2573 369 
L 1818 369 
L 1818 4288 
z
" transform="scale(0.015625)"/>
      </defs>
      <use xlink:href="#CMSS17-30" transform="scale(0.996264)"/>
      <use xlink:href="#CMSS17-2e" transform="translate(46.843624 0) scale(0.996264)"/>
      <use xlink:href="#CMSS17-30" transform="translate(72.867828 0) scale(0.996264)"/>
      <use xlink:href="#CMSS17-31" transform="translate(119.711452 0) scale(0.996264)"/>
     </g>
    </g>
    <g id="line2d_17">
     <path d="M 525.565885 140.249577 
L 547.565885 140.249577 
L 569.565885 140.249577 
" style="fill: none; stroke: #dd8452; stroke-width: 1.5; stroke-linecap: round"/>
    </g>
    <g id="text_18">
     <!-- 0.004 -->
     <g style="fill: #262626" transform="translate(587.165885 147.949577) scale(0.22 -0.22)">
      <defs>
       <path id="CMSS17-34" d="M 2253 1088 
L 2835 1088 
L 2835 1477 
L 2253 1477 
L 2253 4192 
L 1690 4192 
L 166 1477 
L 166 1088 
L 1747 1088 
L 1747 0 
L 2253 0 
L 2253 1088 
z
M 659 1477 
C 1030 2127 1766 3439 1766 3885 
L 1766 1477 
L 659 1477 
z
" transform="scale(0.015625)"/>
      </defs>
      <use xlink:href="#CMSS17-30" transform="scale(0.996264)"/>
      <use xlink:href="#CMSS17-2e" transform="translate(46.843624 0) scale(0.996264)"/>
      <use xlink:href="#CMSS17-30" transform="translate(72.867828 0) scale(0.996264)"/>
      <use xlink:href="#CMSS17-30" transform="translate(119.711452 0) scale(0.996264)"/>
      <use xlink:href="#CMSS17-34" transform="translate(166.555075 0) scale(0.996264)"/>
     </g>
    </g>
    <g id="line2d_18">
     <path d="M 525.565885 170.912765 
L 547.565885 170.912765 
L 569.565885 170.912765 
" style="fill: none; stroke: #55a868; stroke-width: 1.5; stroke-linecap: round"/>
    </g>
    <g id="text_19">
     <!-- 0.002 -->
     <g style="fill: #262626" transform="translate(587.165885 178.612765) scale(0.22 -0.22)">
      <defs>
       <path id="CMSS17-32" d="M 1651 1357 
C 1830 1541 2099 1764 2285 1987 
C 2464 2204 2701 2511 2701 2957 
C 2701 3657 2227 4288 1421 4288 
C 787 4288 422 3893 250 3274 
L 499 2929 
C 640 3510 838 3880 1338 3880 
C 1888 3880 2195 3433 2195 2942 
C 2195 2355 1747 1901 1408 1563 
C 1030 1187 659 804 301 408 
L 301 0 
L 2701 0 
L 2701 433 
L 1613 433 
C 1536 433 1459 433 1382 433 
L 742 433 
L 742 439 
L 1651 1357 
z
" transform="scale(0.015625)"/>
      </defs>
      <use xlink:href="#CMSS17-30" transform="scale(0.996264)"/>
      <use xlink:href="#CMSS17-2e" transform="translate(46.843624 0) scale(0.996264)"/>
      <use xlink:href="#CMSS17-30" transform="translate(72.867828 0) scale(0.996264)"/>
      <use xlink:href="#CMSS17-30" transform="translate(119.711452 0) scale(0.996264)"/>
      <use xlink:href="#CMSS17-32" transform="translate(166.555075 0) scale(0.996264)"/>
     </g>
    </g>
   </g>
  </g>
 </g>
 <defs>
  <clipPath id="p9264da0dad">
   <rect x="89.353994" y="49.831226" width="604.726006" height="446.00973"/>
  </clipPath>
 </defs>
</svg>
