<?xml version="1.0" encoding="utf-8" standalone="no"?>
<!DOCTYPE svg PUBLIC "-//W3C//DTD SVG 1.1//EN"
  "http://www.w3.org/Graphics/SVG/1.1/DTD/svg11.dtd">
<svg xmlns:xlink="http://www.w3.org/1999/xlink" width="1008pt" height="504pt" viewBox="0 0 1008 504" xmlns="http://www.w3.org/2000/svg" version="1.1">
 <metadata>
  <rdf:RDF xmlns:dc="http://purl.org/dc/elements/1.1/" xmlns:cc="http://creativecommons.org/ns#" xmlns:rdf="http://www.w3.org/1999/02/22-rdf-syntax-ns#">
   <cc:Work>
    <dc:type rdf:resource="http://purl.org/dc/dcmitype/StillImage"/>
    <dc:date>2025-04-25T13:46:10.229222</dc:date>
    <dc:format>image/svg+xml</dc:format>
    <dc:creator>
     <cc:Agent>
      <dc:title>Matplotlib v3.9.2, https://matplotlib.org/</dc:title>
     </cc:Agent>
    </dc:creator>
   </cc:Work>
  </rdf:RDF>
 </metadata>
 <defs>
  <style type="text/css">*{stroke-linejoin: round; stroke-linecap: butt}</style>
 </defs>
 <g id="figure_1">
  <g id="patch_1">
   <path d="M 0 504 
L 1008 504 
L 1008 0 
L 0 0 
z
" style="fill: #ffffff"/>
  </g>
  <g id="axes_1">
   <g id="patch_2">
    <path d="M 96.497804 436.800956 
L 995.04 436.800956 
L 995.04 36.871226 
L 96.497804 36.871226 
z
" style="fill: #ffffff"/>
   </g>
   <g id="matplotlib.axis_1">
    <g id="xtick_1">
     <g id="line2d_1">
      <path d="M 133.235824 436.800956 
L 133.235824 36.871226 
" clip-path="url(#pb6b0af92e2)" style="fill: none; stroke: #cccccc; stroke-linecap: round"/>
     </g>
     <g id="text_1">
      <!-- $\mathdefault{0}$ -->
      <g style="fill: #262626" transform="translate(128.209872 461.52165) scale(0.22 -0.22)">
       <defs>
        <path id="CMR17-30" d="M 2688 2025 
C 2688 2416 2682 3080 2413 3591 
C 2176 4039 1798 4198 1466 4198 
C 1158 4198 768 4058 525 3597 
C 269 3118 243 2524 243 2025 
C 243 1661 250 1106 448 619 
C 723 -39 1216 -128 1466 -128 
C 1760 -128 2208 -7 2470 600 
C 2662 1042 2688 1559 2688 2025 
z
M 1466 -26 
C 1056 -26 813 325 723 812 
C 653 1188 653 1738 653 2096 
C 653 2588 653 2997 736 3387 
C 858 3929 1216 4096 1466 4096 
C 1728 4096 2067 3923 2189 3400 
C 2272 3036 2278 2607 2278 2096 
C 2278 1680 2278 1169 2202 792 
C 2067 95 1690 -26 1466 -26 
z
" transform="scale(0.015625)"/>
       </defs>
       <use xlink:href="#CMR17-30" transform="scale(0.996264)"/>
      </g>
     </g>
    </g>
    <g id="xtick_2">
     <g id="line2d_2">
      <path d="M 235.855993 436.800956 
L 235.855993 36.871226 
" clip-path="url(#pb6b0af92e2)" style="fill: none; stroke: #cccccc; stroke-linecap: round"/>
     </g>
     <g id="text_2">
      <!-- $\mathdefault{25}$ -->
      <g style="fill: #262626" transform="translate(225.804088 461.52165) scale(0.22 -0.22)">
       <defs>
        <path id="CMR17-32" d="M 2669 989 
L 2554 989 
C 2490 536 2438 459 2413 420 
C 2381 369 1920 369 1830 369 
L 602 369 
C 832 619 1280 1072 1824 1597 
C 2214 1967 2669 2402 2669 3035 
C 2669 3790 2067 4224 1395 4224 
C 691 4224 262 3604 262 3030 
C 262 2780 448 2748 525 2748 
C 589 2748 781 2787 781 3010 
C 781 3207 614 3264 525 3264 
C 486 3264 448 3258 422 3245 
C 544 3790 915 4058 1306 4058 
C 1862 4058 2227 3617 2227 3035 
C 2227 2479 1901 2000 1536 1584 
L 262 146 
L 262 0 
L 2515 0 
L 2669 989 
z
" transform="scale(0.015625)"/>
        <path id="CMR17-35" d="M 730 3692 
C 794 3666 1056 3584 1325 3584 
C 1920 3584 2246 3911 2432 4100 
C 2432 4157 2432 4192 2394 4192 
C 2387 4192 2374 4192 2323 4163 
C 2099 4058 1837 3973 1517 3973 
C 1325 3973 1037 3999 723 4139 
C 653 4171 640 4171 634 4171 
C 602 4171 595 4164 595 4037 
L 595 2203 
C 595 2089 595 2057 659 2057 
C 691 2057 704 2070 736 2114 
C 941 2401 1222 2522 1542 2522 
C 1766 2522 2246 2382 2246 1289 
C 2246 1085 2246 715 2054 421 
C 1894 159 1645 25 1370 25 
C 947 25 518 320 403 814 
C 429 807 480 795 506 795 
C 589 795 749 840 749 1038 
C 749 1210 627 1280 506 1280 
C 358 1280 262 1190 262 1011 
C 262 454 704 -128 1382 -128 
C 2042 -128 2669 440 2669 1264 
C 2669 2030 2170 2624 1549 2624 
C 1222 2624 947 2503 730 2274 
L 730 3692 
z
" transform="scale(0.015625)"/>
       </defs>
       <use xlink:href="#CMR17-32" transform="scale(0.996264)"/>
       <use xlink:href="#CMR17-35" transform="translate(45.690477 0) scale(0.996264)"/>
      </g>
     </g>
    </g>
    <g id="xtick_3">
     <g id="line2d_3">
      <path d="M 338.476161 436.800956 
L 338.476161 36.871226 
" clip-path="url(#pb6b0af92e2)" style="fill: none; stroke: #cccccc; stroke-linecap: round"/>
     </g>
     <g id="text_3">
      <!-- $\mathdefault{50}$ -->
      <g style="fill: #262626" transform="translate(328.424256 461.52165) scale(0.22 -0.22)">
       <use xlink:href="#CMR17-35" transform="scale(0.996264)"/>
       <use xlink:href="#CMR17-30" transform="translate(45.690477 0) scale(0.996264)"/>
      </g>
     </g>
    </g>
    <g id="xtick_4">
     <g id="line2d_4">
      <path d="M 441.09633 436.800956 
L 441.09633 36.871226 
" clip-path="url(#pb6b0af92e2)" style="fill: none; stroke: #cccccc; stroke-linecap: round"/>
     </g>
     <g id="text_4">
      <!-- $\mathdefault{75}$ -->
      <g style="fill: #262626" transform="translate(431.044425 461.52165) scale(0.22 -0.22)">
       <defs>
        <path id="CMR17-37" d="M 2886 3941 
L 2886 4081 
L 1382 4081 
C 634 4081 621 4165 595 4288 
L 480 4288 
L 294 3094 
L 410 3094 
C 429 3215 474 3540 550 3661 
C 589 3712 1062 3712 1171 3712 
L 2579 3712 
L 1869 2661 
C 1395 1954 1069 999 1069 165 
C 1069 89 1069 -128 1299 -128 
C 1530 -128 1530 89 1530 171 
L 1530 465 
C 1530 1508 1709 2196 2003 2636 
L 2886 3941 
z
" transform="scale(0.015625)"/>
       </defs>
       <use xlink:href="#CMR17-37" transform="scale(0.996264)"/>
       <use xlink:href="#CMR17-35" transform="translate(45.690477 0) scale(0.996264)"/>
      </g>
     </g>
    </g>
    <g id="xtick_5">
     <g id="line2d_5">
      <path d="M 543.716499 436.800956 
L 543.716499 36.871226 
" clip-path="url(#pb6b0af92e2)" style="fill: none; stroke: #cccccc; stroke-linecap: round"/>
     </g>
     <g id="text_5">
      <!-- $\mathdefault{100}$ -->
      <g style="fill: #262626" transform="translate(528.638641 461.52165) scale(0.22 -0.22)">
       <defs>
        <path id="CMR17-31" d="M 1702 4058 
C 1702 4192 1696 4192 1606 4192 
C 1357 3916 979 3827 621 3827 
C 602 3827 570 3827 563 3808 
C 557 3795 557 3782 557 3648 
C 755 3648 1088 3686 1344 3839 
L 1344 461 
C 1344 236 1331 160 781 160 
L 589 160 
L 589 0 
C 896 0 1216 0 1523 0 
C 1830 0 2150 0 2458 0 
L 2458 160 
L 2266 160 
C 1715 160 1702 230 1702 458 
L 1702 4058 
z
" transform="scale(0.015625)"/>
       </defs>
       <use xlink:href="#CMR17-31" transform="scale(0.996264)"/>
       <use xlink:href="#CMR17-30" transform="translate(45.690477 0) scale(0.996264)"/>
       <use xlink:href="#CMR17-30" transform="translate(91.380954 0) scale(0.996264)"/>
      </g>
     </g>
    </g>
    <g id="xtick_6">
     <g id="line2d_6">
      <path d="M 646.336667 436.800956 
L 646.336667 36.871226 
" clip-path="url(#pb6b0af92e2)" style="fill: none; stroke: #cccccc; stroke-linecap: round"/>
     </g>
     <g id="text_6">
      <!-- $\mathdefault{125}$ -->
      <g style="fill: #262626" transform="translate(631.25881 461.52165) scale(0.22 -0.22)">
       <use xlink:href="#CMR17-31" transform="scale(0.996264)"/>
       <use xlink:href="#CMR17-32" transform="translate(45.690477 0) scale(0.996264)"/>
       <use xlink:href="#CMR17-35" transform="translate(91.380954 0) scale(0.996264)"/>
      </g>
     </g>
    </g>
    <g id="xtick_7">
     <g id="line2d_7">
      <path d="M 748.956836 436.800956 
L 748.956836 36.871226 
" clip-path="url(#pb6b0af92e2)" style="fill: none; stroke: #cccccc; stroke-linecap: round"/>
     </g>
     <g id="text_7">
      <!-- $\mathdefault{150}$ -->
      <g style="fill: #262626" transform="translate(733.878978 461.52165) scale(0.22 -0.22)">
       <use xlink:href="#CMR17-31" transform="scale(0.996264)"/>
       <use xlink:href="#CMR17-35" transform="translate(45.690477 0) scale(0.996264)"/>
       <use xlink:href="#CMR17-30" transform="translate(91.380954 0) scale(0.996264)"/>
      </g>
     </g>
    </g>
    <g id="xtick_8">
     <g id="line2d_8">
      <path d="M 851.577004 436.800956 
L 851.577004 36.871226 
" clip-path="url(#pb6b0af92e2)" style="fill: none; stroke: #cccccc; stroke-linecap: round"/>
     </g>
     <g id="text_8">
      <!-- $\mathdefault{175}$ -->
      <g style="fill: #262626" transform="translate(836.499147 461.52165) scale(0.22 -0.22)">
       <use xlink:href="#CMR17-31" transform="scale(0.996264)"/>
       <use xlink:href="#CMR17-37" transform="translate(45.690477 0) scale(0.996264)"/>
       <use xlink:href="#CMR17-35" transform="translate(91.380954 0) scale(0.996264)"/>
      </g>
     </g>
    </g>
    <g id="xtick_9">
     <g id="line2d_9">
      <path d="M 954.197173 436.800956 
L 954.197173 36.871226 
" clip-path="url(#pb6b0af92e2)" style="fill: none; stroke: #cccccc; stroke-linecap: round"/>
     </g>
     <g id="text_9">
      <!-- $\mathdefault{200}$ -->
      <g style="fill: #262626" transform="translate(939.119315 461.52165) scale(0.22 -0.22)">
       <use xlink:href="#CMR17-32" transform="scale(0.996264)"/>
       <use xlink:href="#CMR17-30" transform="translate(45.690477 0) scale(0.996264)"/>
       <use xlink:href="#CMR17-30" transform="translate(91.380954 0) scale(0.996264)"/>
      </g>
     </g>
    </g>
    <g id="text_10">
     <!-- Epoch -->
     <g style="fill: #262626" transform="translate(515.390238 486.389243) scale(0.24 -0.24)">
      <defs>
       <path id="CMR17-45" d="M 3885 1615 
L 3770 1615 
C 3629 676 3546 166 2419 166 
L 1530 166 
C 1274 166 1261 197 1261 414 
L 1261 2176 
L 1862 2176 
C 2464 2176 2522 1960 2522 1430 
L 2637 1430 
L 2637 3081 
L 2522 3081 
C 2522 2557 2464 2342 1862 2342 
L 1261 2342 
L 1261 3913 
C 1261 4128 1274 4160 1530 4160 
L 2406 4160 
C 3398 4160 3514 3769 3603 2929 
L 3718 2929 
L 3565 4325 
L 326 4325 
L 326 4160 
C 768 4160 838 4160 838 3874 
L 838 451 
C 838 166 768 166 326 166 
L 326 0 
L 3654 0 
L 3885 1615 
z
" transform="scale(0.015625)"/>
       <path id="CMR17-70" d="M 1408 -1063 
C 998 -1063 973 -1037 973 -789 
L 973 402 
C 1158 134 1427 -38 1766 -38 
C 2406 -38 3053 523 3053 1388 
C 3053 2191 2496 2802 1837 2802 
C 1453 2802 1139 2592 960 2338 
L 960 2802 
L 198 2732 
L 198 2567 
C 576 2567 634 2528 634 2223 
L 634 -789 
C 634 -1031 608 -1063 198 -1063 
L 198 -1228 
C 352 -1216 634 -1216 800 -1216 
C 966 -1216 1254 -1216 1408 -1228 
L 1408 -1063 
z
M 973 2012 
C 973 2102 973 2235 1222 2471 
C 1254 2497 1472 2688 1792 2688 
C 2259 2688 2643 2108 2643 1382 
C 2643 656 2234 64 1728 64 
C 1498 64 1248 172 1056 472 
C 973 612 973 650 973 752 
L 973 2012 
z
" transform="scale(0.015625)"/>
       <path id="CMR17-6f" d="M 2758 1356 
C 2758 2176 2163 2816 1466 2816 
C 768 2816 173 2176 173 1356 
C 173 551 768 -64 1466 -64 
C 2163 -64 2758 551 2758 1356 
z
M 1466 51 
C 1165 51 909 230 762 480 
C 602 767 582 1126 582 1408 
C 582 1677 595 2010 762 2298 
C 890 2509 1139 2714 1466 2714 
C 1754 2714 1997 2554 2150 2330 
C 2349 2029 2349 1607 2349 1408 
C 2349 1158 2336 775 2163 467 
C 1984 173 1709 51 1466 51 
z
" transform="scale(0.015625)"/>
       <path id="CMR17-63" d="M 2234 2240 
C 2112 2240 1933 2240 1933 2017 
C 1933 1838 2080 1787 2163 1787 
C 2208 1787 2394 1807 2394 2024 
C 2394 2467 1958 2803 1466 2803 
C 787 2803 211 2178 211 1363 
C 211 516 813 -64 1466 -64 
C 2259 -64 2458 677 2458 748 
C 2458 774 2451 793 2406 793 
C 2362 793 2355 787 2330 703 
C 2163 180 1798 51 1523 51 
C 1114 51 621 427 621 1369 
C 621 2338 1094 2688 1472 2688 
C 1722 2688 2093 2573 2234 2240 
z
" transform="scale(0.015625)"/>
       <path id="CMR17-68" d="M 2656 1933 
C 2656 2259 2592 2790 1837 2790 
C 1312 2790 1056 2368 979 2157 
L 973 2157 
L 973 4396 
L 211 4326 
L 211 4160 
C 589 4160 646 4122 646 3817 
L 646 426 
C 646 184 621 153 211 153 
L 211 -13 
C 365 0 646 0 813 0 
C 979 0 1267 0 1421 -13 
L 1421 153 
C 1011 153 986 178 986 428 
L 986 1658 
C 986 2247 1344 2688 1792 2688 
C 2266 2688 2317 2266 2317 1958 
L 2317 428 
C 2317 184 2291 153 1882 153 
L 1882 -13 
C 2035 0 2317 0 2483 0 
C 2650 0 2938 0 3091 -13 
L 3091 153 
C 2682 153 2656 178 2656 428 
L 2656 1933 
z
" transform="scale(0.015625)"/>
      </defs>
      <use xlink:href="#CMR17-45" transform="scale(0.996264)"/>
      <use xlink:href="#CMR17-70" transform="translate(62.586301 0) scale(0.996264)"/>
      <use xlink:href="#CMR17-6f" transform="translate(116.084109 0) scale(0.996264)"/>
      <use xlink:href="#CMR17-63" transform="translate(164.377025 0) scale(0.996264)"/>
      <use xlink:href="#CMR17-68" transform="translate(202.260231 0) scale(0.996264)"/>
     </g>
    </g>
   </g>
   <g id="matplotlib.axis_2">
    <g id="ytick_1">
     <g id="line2d_10">
      <path d="M 96.497804 434.16984 
L 995.04 434.16984 
" clip-path="url(#pb6b0af92e2)" style="fill: none; stroke: #cccccc; stroke-linecap: round"/>
     </g>
     <g id="text_11">
      <!-- $\mathdefault{0.015}$ -->
      <g style="fill: #262626" transform="translate(40.828805 441.780186) scale(0.22 -0.22)">
       <defs>
        <path id="CMMI12-3a" d="M 1178 307 
C 1178 492 1024 619 870 619 
C 685 619 557 466 557 313 
C 557 128 710 0 864 0 
C 1050 0 1178 153 1178 307 
z
" transform="scale(0.015625)"/>
       </defs>
       <use xlink:href="#CMR17-30" transform="scale(0.996264)"/>
       <use xlink:href="#CMMI12-3a" transform="translate(45.690477 0) scale(0.996264)"/>
       <use xlink:href="#CMR17-30" transform="translate(72.787654 0) scale(0.996264)"/>
       <use xlink:href="#CMR17-31" transform="translate(118.478131 0) scale(0.996264)"/>
       <use xlink:href="#CMR17-35" transform="translate(164.168608 0) scale(0.996264)"/>
      </g>
     </g>
    </g>
    <g id="ytick_2">
     <g id="line2d_11">
      <path d="M 96.497804 360.333024 
L 995.04 360.333024 
" clip-path="url(#pb6b0af92e2)" style="fill: none; stroke: #cccccc; stroke-linecap: round"/>
     </g>
     <g id="text_12">
      <!-- $\mathdefault{0.020}$ -->
      <g style="fill: #262626" transform="translate(40.828805 367.94337) scale(0.22 -0.22)">
       <use xlink:href="#CMR17-30" transform="scale(0.996264)"/>
       <use xlink:href="#CMMI12-3a" transform="translate(45.690477 0) scale(0.996264)"/>
       <use xlink:href="#CMR17-30" transform="translate(72.787654 0) scale(0.996264)"/>
       <use xlink:href="#CMR17-32" transform="translate(118.478131 0) scale(0.996264)"/>
       <use xlink:href="#CMR17-30" transform="translate(164.168608 0) scale(0.996264)"/>
      </g>
     </g>
    </g>
    <g id="ytick_3">
     <g id="line2d_12">
      <path d="M 96.497804 286.496208 
L 995.04 286.496208 
" clip-path="url(#pb6b0af92e2)" style="fill: none; stroke: #cccccc; stroke-linecap: round"/>
     </g>
     <g id="text_13">
      <!-- $\mathdefault{0.025}$ -->
      <g style="fill: #262626" transform="translate(40.828805 294.106554) scale(0.22 -0.22)">
       <use xlink:href="#CMR17-30" transform="scale(0.996264)"/>
       <use xlink:href="#CMMI12-3a" transform="translate(45.690477 0) scale(0.996264)"/>
       <use xlink:href="#CMR17-30" transform="translate(72.787654 0) scale(0.996264)"/>
       <use xlink:href="#CMR17-32" transform="translate(118.478131 0) scale(0.996264)"/>
       <use xlink:href="#CMR17-35" transform="translate(164.168608 0) scale(0.996264)"/>
      </g>
     </g>
    </g>
    <g id="ytick_4">
     <g id="line2d_13">
      <path d="M 96.497804 212.659392 
L 995.04 212.659392 
" clip-path="url(#pb6b0af92e2)" style="fill: none; stroke: #cccccc; stroke-linecap: round"/>
     </g>
     <g id="text_14">
      <!-- $\mathdefault{0.030}$ -->
      <g style="fill: #262626" transform="translate(40.828805 220.269739) scale(0.22 -0.22)">
       <defs>
        <path id="CMR17-33" d="M 1414 2157 
C 1984 2157 2234 1662 2234 1090 
C 2234 320 1824 25 1453 25 
C 1114 25 563 194 390 693 
C 422 680 454 680 486 680 
C 640 680 755 782 755 948 
C 755 1133 614 1216 486 1216 
C 378 1216 211 1165 211 926 
C 211 335 787 -128 1466 -128 
C 2176 -128 2720 430 2720 1085 
C 2720 1707 2208 2157 1600 2227 
C 2086 2328 2554 2756 2554 3329 
C 2554 3820 2048 4179 1472 4179 
C 890 4179 378 3829 378 3329 
C 378 3110 544 3072 627 3072 
C 762 3072 877 3155 877 3321 
C 877 3486 762 3569 627 3569 
C 602 3569 570 3569 544 3557 
C 730 3959 1235 4032 1459 4032 
C 1683 4032 2106 3925 2106 3320 
C 2106 3143 2080 2828 1862 2550 
C 1670 2304 1453 2304 1242 2284 
C 1210 2284 1062 2269 1037 2269 
C 992 2263 966 2257 966 2208 
C 966 2163 973 2157 1101 2157 
L 1414 2157 
z
" transform="scale(0.015625)"/>
       </defs>
       <use xlink:href="#CMR17-30" transform="scale(0.996264)"/>
       <use xlink:href="#CMMI12-3a" transform="translate(45.690477 0) scale(0.996264)"/>
       <use xlink:href="#CMR17-30" transform="translate(72.787654 0) scale(0.996264)"/>
       <use xlink:href="#CMR17-33" transform="translate(118.478131 0) scale(0.996264)"/>
       <use xlink:href="#CMR17-30" transform="translate(164.168608 0) scale(0.996264)"/>
      </g>
     </g>
    </g>
    <g id="ytick_5">
     <g id="line2d_14">
      <path d="M 96.497804 138.822576 
L 995.04 138.822576 
" clip-path="url(#pb6b0af92e2)" style="fill: none; stroke: #cccccc; stroke-linecap: round"/>
     </g>
     <g id="text_15">
      <!-- $\mathdefault{0.035}$ -->
      <g style="fill: #262626" transform="translate(40.828805 146.432923) scale(0.22 -0.22)">
       <use xlink:href="#CMR17-30" transform="scale(0.996264)"/>
       <use xlink:href="#CMMI12-3a" transform="translate(45.690477 0) scale(0.996264)"/>
       <use xlink:href="#CMR17-30" transform="translate(72.787654 0) scale(0.996264)"/>
       <use xlink:href="#CMR17-33" transform="translate(118.478131 0) scale(0.996264)"/>
       <use xlink:href="#CMR17-35" transform="translate(164.168608 0) scale(0.996264)"/>
      </g>
     </g>
    </g>
    <g id="ytick_6">
     <g id="line2d_15">
      <path d="M 96.497804 64.98576 
L 995.04 64.98576 
" clip-path="url(#pb6b0af92e2)" style="fill: none; stroke: #cccccc; stroke-linecap: round"/>
     </g>
     <g id="text_16">
      <!-- $\mathdefault{0.040}$ -->
      <g style="fill: #262626" transform="translate(40.828805 72.596107) scale(0.22 -0.22)">
       <defs>
        <path id="CMR17-34" d="M 2150 4122 
C 2150 4256 2144 4256 2029 4256 
L 128 1254 
L 128 1088 
L 1779 1088 
L 1779 457 
C 1779 224 1766 160 1318 160 
L 1197 160 
L 1197 0 
C 1402 0 1747 0 1965 0 
C 2182 0 2528 0 2733 0 
L 2733 160 
L 2611 160 
C 2163 160 2150 224 2150 457 
L 2150 1088 
L 2803 1088 
L 2803 1254 
L 2150 1254 
L 2150 4122 
z
M 1798 3703 
L 1798 1254 
L 256 1254 
L 1798 3703 
z
" transform="scale(0.015625)"/>
       </defs>
       <use xlink:href="#CMR17-30" transform="scale(0.996264)"/>
       <use xlink:href="#CMMI12-3a" transform="translate(45.690477 0) scale(0.996264)"/>
       <use xlink:href="#CMR17-30" transform="translate(72.787654 0) scale(0.996264)"/>
       <use xlink:href="#CMR17-34" transform="translate(118.478131 0) scale(0.996264)"/>
       <use xlink:href="#CMR17-30" transform="translate(164.168608 0) scale(0.996264)"/>
      </g>
     </g>
    </g>
    <g id="text_17">
     <!-- Reconstruction Loss (LossG_recon) -->
     <g style="fill: #262626" transform="translate(30.871226 404.594008) rotate(-90) scale(0.24 -0.24)">
      <defs>
       <path id="CMR17-52" d="M 2509 2146 
C 3117 2268 3629 2676 3629 3186 
C 3629 3785 2950 4326 2054 4326 
L 333 4326 
L 333 4160 
C 774 4160 845 4160 845 3873 
L 845 415 
C 845 128 774 128 333 128 
L 333 -26 
C 518 -26 851 -26 1050 -26 
C 1248 -26 1581 -26 1766 -26 
L 1766 128 
C 1325 128 1254 128 1254 417 
L 1254 2112 
L 2003 2112 
C 2368 2112 2573 1964 2662 1881 
C 2918 1632 2918 1459 2918 1024 
C 2918 595 2918 377 3110 160 
C 3354 -102 3680 -128 3821 -128 
C 4294 -128 4365 396 4365 503 
C 4365 540 4365 585 4307 585 
C 4256 585 4250 547 4250 522 
C 4218 112 4032 -26 3834 -26 
C 3482 -26 3443 375 3405 764 
C 3386 898 3373 993 3360 1133 
C 3322 1452 3270 1917 2509 2146 
z
M 1984 2214 
L 1254 2214 
L 1254 3913 
C 1254 4129 1267 4160 1523 4160 
L 1990 4160 
C 2522 4160 3142 3977 3142 3190 
C 3142 2372 2464 2214 1984 2214 
z
" transform="scale(0.015625)"/>
       <path id="CMR17-65" d="M 2438 1472 
C 2464 1498 2464 1511 2464 1576 
C 2464 2238 2118 2816 1389 2816 
C 710 2816 173 2169 173 1383 
C 173 551 781 -64 1459 -64 
C 2176 -64 2458 607 2458 740 
C 2458 784 2419 784 2406 784 
C 2362 784 2355 771 2330 696 
C 2189 265 1837 51 1504 51 
C 1229 51 954 203 781 480 
C 582 803 582 1176 582 1472 
L 2438 1472 
z
M 589 1568 
C 634 2505 1126 2714 1382 2714 
C 1818 2714 2112 2297 2118 1568 
L 589 1568 
z
" transform="scale(0.015625)"/>
       <path id="CMR17-6e" d="M 2656 1933 
C 2656 2259 2592 2790 1837 2790 
C 1331 2790 1069 2400 973 2144 
L 966 2144 
L 966 2790 
L 211 2720 
L 211 2554 
C 589 2554 646 2515 646 2208 
L 646 428 
C 646 184 621 153 211 153 
L 211 -13 
C 365 0 646 0 813 0 
C 979 0 1267 0 1421 -13 
L 1421 153 
C 1011 153 986 178 986 428 
L 986 1658 
C 986 2247 1344 2688 1792 2688 
C 2266 2688 2317 2266 2317 1958 
L 2317 428 
C 2317 184 2291 153 1882 153 
L 1882 -13 
C 2035 0 2317 0 2483 0 
C 2650 0 2938 0 3091 -13 
L 3091 153 
C 2682 153 2656 178 2656 428 
L 2656 1933 
z
" transform="scale(0.015625)"/>
       <path id="CMR17-73" d="M 1978 2697 
C 1978 2813 1971 2819 1933 2819 
C 1907 2819 1901 2813 1824 2717 
C 1805 2691 1747 2626 1728 2601 
C 1523 2819 1235 2819 1126 2819 
C 416 2819 160 2447 160 2076 
C 160 1498 813 1365 998 1325 
C 1402 1243 1542 1217 1677 1101 
C 1760 1025 1901 884 1901 654 
C 1901 384 1747 38 1158 38 
C 602 38 403 460 288 1021 
C 269 1110 269 1117 218 1117 
C 166 1117 160 1110 160 983 
L 160 63 
C 160 -51 166 -58 205 -58 
C 237 -58 243 -51 275 0 
C 314 57 410 211 448 276 
C 576 103 800 -64 1158 -64 
C 1792 -64 2131 283 2131 784 
C 2131 1112 1958 1285 1875 1362 
C 1683 1561 1459 1606 1190 1657 
C 838 1735 390 1825 390 2217 
C 390 2383 480 2737 1126 2737 
C 1811 2737 1850 2094 1862 1888 
C 1869 1856 1901 1849 1920 1849 
C 1978 1849 1978 1869 1978 1978 
L 1978 2697 
z
" transform="scale(0.015625)"/>
       <path id="CMR17-74" d="M 966 2560 
L 1862 2560 
L 1862 2725 
L 966 2725 
L 966 3904 
L 851 3904 
C 838 3245 614 2668 70 2668 
L 70 2560 
L 627 2560 
L 627 771 
C 627 650 627 -64 1370 -64 
C 1747 -64 1965 306 1965 777 
L 1965 1140 
L 1850 1140 
L 1850 783 
C 1850 344 1677 51 1408 51 
C 1222 51 966 178 966 758 
L 966 2560 
z
" transform="scale(0.015625)"/>
       <path id="CMR17-72" d="M 960 1497 
C 960 2112 1222 2688 1702 2688 
C 1747 2688 1792 2682 1837 2662 
C 1837 2662 1696 2617 1696 2452 
C 1696 2298 1818 2234 1914 2234 
C 1990 2234 2131 2279 2131 2458 
C 2131 2663 1926 2790 1709 2790 
C 1222 2790 1011 2317 947 2093 
L 941 2093 
L 941 2790 
L 198 2720 
L 198 2554 
C 576 2554 634 2515 634 2208 
L 634 428 
C 634 184 608 153 198 153 
L 198 -13 
C 352 0 646 0 813 0 
C 998 0 1325 0 1498 -13 
L 1498 153 
C 1037 153 960 153 960 440 
L 960 1497 
z
" transform="scale(0.015625)"/>
       <path id="CMR17-75" d="M 1882 2693 
L 1882 2528 
C 2259 2528 2317 2489 2317 2186 
L 2317 1032 
C 2317 500 2029 38 1555 38 
C 1030 38 986 348 986 678 
L 986 2763 
L 211 2693 
L 211 2528 
C 467 2528 640 2528 646 2274 
L 646 1058 
C 646 633 646 361 813 183 
C 896 101 1056 -64 1517 -64 
C 2061 -64 2272 377 2323 506 
L 2330 506 
L 2330 -63 
L 3091 -63 
L 3091 128 
C 2714 128 2656 166 2656 473 
L 2656 2763 
L 1882 2693 
z
" transform="scale(0.015625)"/>
       <path id="CMR17-69" d="M 992 3909 
C 992 4049 877 4170 730 4170 
C 589 4170 467 4056 467 3909 
C 467 3769 582 3648 730 3648 
C 870 3648 992 3763 992 3909 
z
M 243 2706 
L 243 2541 
C 602 2541 653 2502 653 2197 
L 653 427 
C 653 184 627 153 218 153 
L 218 -13 
C 371 0 646 0 806 0 
C 960 0 1222 0 1370 -13 
L 1370 153 
C 992 153 979 191 979 420 
L 979 2776 
L 243 2706 
z
" transform="scale(0.015625)"/>
       <path id="CMR17-4c" d="M 3469 1615 
L 3354 1615 
C 3302 983 3219 166 2125 166 
L 1530 166 
C 1274 166 1261 197 1261 414 
L 1261 3898 
C 1261 4129 1274 4192 1760 4192 
L 1901 4192 
L 1901 4352 
C 1638 4352 1331 4352 1069 4352 
C 870 4352 512 4352 326 4352 
L 326 4192 
C 768 4192 838 4192 838 3905 
L 838 452 
C 838 166 768 166 326 166 
L 326 0 
L 3315 0 
L 3469 1615 
z
" transform="scale(0.015625)"/>
       <path id="CMR17-28" d="M 1958 -1561 
C 1958 -1555 1958 -1542 1939 -1523 
C 1645 -1224 858 -407 858 1581 
C 858 3569 1632 4379 1946 4697 
C 1946 4704 1958 4717 1958 4736 
C 1958 4755 1939 4768 1914 4768 
C 1843 4768 1299 4296 986 3594 
C 666 2887 576 2199 576 1588 
C 576 1128 621 351 1005 -471 
C 1312 -1135 1837 -1600 1914 -1600 
C 1946 -1600 1958 -1587 1958 -1561 
z
" transform="scale(0.015625)"/>
       <path id="CMR17-47" d="M 3974 1233 
C 3974 1473 3994 1505 4390 1505 
L 4390 1670 
C 4237 1664 3891 1664 3718 1664 
C 3539 1664 3040 1664 2797 1664 
L 2797 1505 
L 2989 1505 
C 3539 1505 3552 1434 3552 1201 
L 3552 774 
C 3552 63 2720 63 2522 63 
C 1862 63 781 511 781 2160 
C 781 3808 1843 4250 2464 4250 
C 3187 4250 3712 3626 3834 2741 
C 3846 2664 3846 2651 3904 2651 
C 3974 2651 3974 2664 3974 2779 
L 3974 4288 
C 3974 4402 3968 4409 3930 4409 
C 3904 4409 3898 4402 3853 4326 
L 3571 3791 
C 3258 4187 2874 4416 2381 4416 
C 1286 4416 294 3456 294 2148 
C 294 845 1267 -128 2394 -128 
C 2912 -128 3418 56 3616 417 
C 3725 158 3904 -20 3936 -20 
C 3968 -20 3974 -13 3974 100 
L 3974 1233 
z
" transform="scale(0.015625)"/>
       <path id="CMR17-29" d="M 1683 1581 
C 1683 2040 1638 2817 1254 3639 
C 947 4303 422 4768 346 4768 
C 326 4768 301 4761 301 4729 
C 301 4717 307 4710 314 4697 
C 621 4378 1402 3568 1402 1584 
C 1402 -407 627 -1217 314 -1537 
C 307 -1549 301 -1556 301 -1568 
C 301 -1600 326 -1600 346 -1600 
C 416 -1600 960 -1128 1274 -426 
C 1594 281 1683 969 1683 1581 
z
" transform="scale(0.015625)"/>
      </defs>
      <use xlink:href="#CMR17-52" transform="scale(0.996264)"/>
      <use xlink:href="#CMR17-65" transform="translate(67.791102 0) scale(0.996264)"/>
      <use xlink:href="#CMR17-63" transform="translate(108.276762 0) scale(0.996264)"/>
      <use xlink:href="#CMR17-6f" transform="translate(148.762423 0) scale(0.996264)"/>
      <use xlink:href="#CMR17-6e" transform="translate(194.4529 0) scale(0.996264)"/>
      <use xlink:href="#CMR17-73" transform="translate(245.34827 0) scale(0.996264)"/>
      <use xlink:href="#CMR17-74" transform="translate(281.149607 0) scale(0.996264)"/>
      <use xlink:href="#CMR17-72" transform="translate(316.430375 0) scale(0.996264)"/>
      <use xlink:href="#CMR17-75" transform="translate(351.711143 0) scale(0.996264)"/>
      <use xlink:href="#CMR17-63" transform="translate(402.606513 0) scale(0.996264)"/>
      <use xlink:href="#CMR17-74" transform="translate(443.092173 0) scale(0.996264)"/>
      <use xlink:href="#CMR17-69" transform="translate(478.372941 0) scale(0.996264)"/>
      <use xlink:href="#CMR17-6f" transform="translate(503.244 0) scale(0.996264)"/>
      <use xlink:href="#CMR17-6e" transform="translate(548.934477 0) scale(0.996264)"/>
      <use xlink:href="#CMR17-4c" transform="translate(629.905813 0) scale(0.996264)"/>
      <use xlink:href="#CMR17-6f" transform="translate(687.287221 0) scale(0.996264)"/>
      <use xlink:href="#CMR17-73" transform="translate(732.977698 0) scale(0.996264)"/>
      <use xlink:href="#CMR17-73" transform="translate(768.779035 0) scale(0.996264)"/>
      <use xlink:href="#CMR17-28" transform="translate(834.656339 0) scale(0.996264)"/>
      <use xlink:href="#CMR17-4c" transform="translate(869.937107 0) scale(0.996264)"/>
      <use xlink:href="#CMR17-6f" transform="translate(927.318515 0) scale(0.996264)"/>
      <use xlink:href="#CMR17-73" transform="translate(973.008992 0) scale(0.996264)"/>
      <use xlink:href="#CMR17-73" transform="translate(1008.81033 0) scale(0.996264)"/>
      <use xlink:href="#CMR17-47" transform="translate(1044.611667 0) scale(0.996264)"/>
      <use xlink:href="#CMR17-72" transform="translate(1149.864233 0) scale(0.996264)"/>
      <use xlink:href="#CMR17-65" transform="translate(1185.145001 0) scale(0.996264)"/>
      <use xlink:href="#CMR17-63" transform="translate(1225.630661 0) scale(0.996264)"/>
      <use xlink:href="#CMR17-6f" transform="translate(1266.116322 0) scale(0.996264)"/>
      <use xlink:href="#CMR17-6e" transform="translate(1311.806799 0) scale(0.996264)"/>
      <use xlink:href="#CMR17-29" transform="translate(1362.702169 0) scale(0.996264)"/>
      <path d="M 1122.449643 0 
L 1149.864233 0 
L 1149.864233 0.3985 
L 1122.449643 0.3985 
L 1122.449643 0 
z
"/>
     </g>
    </g>
   </g>
   <g id="PolyCollection_1">
    <defs>
     <path id="m28f9e42866" d="M 137.340631 -448.950149 
L 137.340631 -397.179855 
L 141.445438 -273.205898 
L 145.550244 -258.636728 
L 149.655051 -241.035391 
L 153.759858 -229.583884 
L 157.864665 -216.676043 
L 161.969471 -214.831094 
L 166.074278 -208.806593 
L 170.179085 -201.171283 
L 174.283892 -200.272611 
L 178.388698 -193.095867 
L 182.493505 -193.610782 
L 186.598312 -187.849567 
L 190.703119 -184.331631 
L 194.807925 -186.737157 
L 198.912732 -178.199289 
L 203.017539 -182.507085 
L 207.122346 -180.447426 
L 211.227152 -186.258189 
L 215.331959 -182.910272 
L 219.436766 -183.763282 
L 223.541573 -177.041217 
L 227.646379 -177.579449 
L 231.751186 -172.862636 
L 235.855993 -168.799668 
L 239.960799 -171.528716 
L 244.065606 -169.171767 
L 248.170413 -166.337793 
L 252.27522 -163.843858 
L 256.380026 -167.848534 
L 260.484833 -173.957559 
L 264.58964 -165.580966 
L 268.694447 -166.829391 
L 272.799253 -165.77333 
L 276.90406 -162.875235 
L 281.008867 -163.136579 
L 285.113674 -163.205558 
L 289.21848 -160.951592 
L 293.323287 -162.049429 
L 297.428094 -150.695654 
L 301.532901 -157.660996 
L 305.637707 -154.632715 
L 309.742514 -157.664882 
L 313.847321 -159.38936 
L 317.952128 -151.629694 
L 322.056934 -151.869664 
L 326.161741 -146.828358 
L 330.266548 -142.678923 
L 334.371355 -153.369717 
L 338.476161 -148.765603 
L 342.580968 -152.343774 
L 346.685775 -148.821952 
L 350.790582 -152.333087 
L 354.895388 -145.031014 
L 359.000195 -146.593246 
L 363.105002 -141.72876 
L 367.209809 -146.624335 
L 371.314615 -142.235902 
L 375.419422 -128.392471 
L 379.524229 -136.717572 
L 383.629036 -139.695333 
L 387.733842 -139.208593 
L 391.838649 -144.286817 
L 395.943456 -140.149041 
L 400.048262 -139.422331 
L 404.153069 -140.224821 
L 408.257876 -142.330141 
L 412.362683 -137.20334 
L 416.467489 -139.846893 
L 420.572296 -139.555586 
L 424.677103 -137.694507 
L 428.78191 -139.234811 
L 432.886716 -135.325861 
L 436.991523 -138.60624 
L 441.09633 -134.836676 
L 445.201137 -135.733405 
L 449.305943 -131.118604 
L 453.41075 -132.504415 
L 457.515557 -133.01893 
L 461.620364 -133.428919 
L 465.72517 -122.645488 
L 469.829977 -131.636433 
L 473.934784 -129.939196 
L 478.039591 -123.808759 
L 482.144397 -116.043263 
L 486.249204 -121.31288 
L 490.354011 -124.48592 
L 494.458818 -127.494771 
L 498.563624 -127.558892 
L 502.668431 -122.853738 
L 506.773238 -111.232566 
L 510.878045 -119.181328 
L 514.982851 -127.351955 
L 519.087658 -123.67492 
L 523.192465 -123.664091 
L 527.297272 -123.890368 
L 531.402078 -127.674215 
L 535.506885 -125.633306 
L 539.611692 -125.077586 
L 543.716499 -124.935742 
L 547.821305 -119.312641 
L 551.926112 -122.506899 
L 556.030919 -122.838148 
L 560.135725 -115.465251 
L 564.240532 -108.678041 
L 568.345339 -115.347643 
L 572.450146 -104.419794 
L 576.554952 -110.877562 
L 580.659759 -107.485959 
L 584.764566 -110.680379 
L 588.869373 -110.026534 
L 592.974179 -113.346939 
L 597.078986 -112.341707 
L 601.183793 -111.649973 
L 605.2886 -113.26479 
L 609.393406 -113.237464 
L 613.498213 -116.086983 
L 617.60302 -110.84554 
L 621.707827 -113.087848 
L 625.812633 -118.549829 
L 629.91744 -118.541085 
L 634.022247 -114.241783 
L 638.127054 -100.780416 
L 642.23186 -98.941297 
L 646.336667 -114.269166 
L 650.441474 -110.361715 
L 654.546281 -113.694119 
L 658.651087 -111.94532 
L 662.755894 -105.792576 
L 666.860701 -107.12261 
L 670.965508 -107.05946 
L 675.070314 -113.162656 
L 679.175121 -109.864288 
L 683.279928 -108.096213 
L 687.384735 -103.658109 
L 691.489541 -112.411999 
L 695.594348 -110.124525 
L 699.699155 -104.754974 
L 703.803962 -110.653607 
L 707.908768 -111.866626 
L 712.013575 -110.624509 
L 716.118382 -101.950642 
L 720.223189 -108.005737 
L 724.327995 -108.218504 
L 728.432802 -107.204219 
L 732.537609 -111.553791 
L 736.642415 -105.583695 
L 740.747222 -107.64928 
L 744.852029 -103.752348 
L 748.956836 -103.218003 
L 753.061642 -107.331491 
L 757.166449 -108.541054 
L 761.271256 -106.985237 
L 765.376063 -107.995481 
L 769.480869 -101.360424 
L 773.585676 -107.179931 
L 777.690483 -92.592302 
L 781.79529 -93.708302 
L 785.900096 -96.450276 
L 790.004903 -103.967058 
L 794.10971 -103.362762 
L 798.214517 -99.186124 
L 802.319323 -104.875445 
L 806.42413 -103.200515 
L 810.528937 -102.648682 
L 814.633744 -102.352363 
L 818.73855 -103.575528 
L 822.843357 -103.655194 
L 826.948164 -100.982496 
L 831.052971 -94.330382 
L 835.157777 -94.888044 
L 839.262584 -101.282701 
L 843.367391 -100.375131 
L 847.472198 -99.972097 
L 851.577004 -96.941873 
L 855.681811 -100.993183 
L 859.786618 -102.808323 
L 863.891425 -103.550268 
L 867.996231 -101.49061 
L 872.101038 -103.961229 
L 876.205845 -99.914777 
L 880.310652 -101.152515 
L 884.415458 -100.358769 
L 888.520265 -102.222177 
L 892.625072 -101.095896 
L 896.729878 -102.522382 
L 900.834685 -94.638359 
L 904.939492 -87.486875 
L 909.044299 -91.698488 
L 913.149105 -88.723641 
L 917.253912 -91.658655 
L 921.358719 -91.414799 
L 925.463526 -96.612522 
L 929.568332 -93.192712 
L 933.673139 -100.948492 
L 937.777946 -95.389357 
L 941.882753 -99.431923 
L 945.987559 -96.899126 
L 950.092366 -94.960909 
L 954.197173 -85.377668 
L 954.197173 -117.008971 
L 954.197173 -117.008971 
L 950.092366 -116.495028 
L 945.987559 -111.47121 
L 941.882753 -119.673897 
L 937.777946 -113.36765 
L 933.673139 -116.317037 
L 929.568332 -115.387476 
L 925.463526 -115.161108 
L 921.358719 -120.28888 
L 917.253912 -115.243688 
L 913.149105 -116.588296 
L 909.044299 -115.226201 
L 904.939492 -120.311226 
L 900.834685 -120.890262 
L 896.729878 -122.227895 
L 892.625072 -120.850429 
L 888.520265 -126.866186 
L 884.415458 -124.430285 
L 880.310652 -120.077085 
L 876.205845 -124.51701 
L 872.101038 -119.670011 
L 867.996231 -116.938049 
L 863.891425 -119.514565 
L 859.786618 -116.931248 
L 855.681811 -117.041032 
L 851.577004 -116.271575 
L 847.472198 -119.025882 
L 843.367391 -125.932449 
L 839.262584 -122.087195 
L 835.157777 -115.463269 
L 831.052971 -124.251317 
L 826.948164 -125.115476 
L 822.843357 -122.981009 
L 818.73855 -118.686816 
L 814.633744 -120.204357 
L 810.528937 -122.455408 
L 806.42413 -120.413237 
L 802.319323 -125.258292 
L 798.214517 -116.954565 
L 794.10971 -121.109829 
L 790.004903 -128.983165 
L 785.900096 -124.240121 
L 781.79529 -121.364372 
L 777.690483 -123.288987 
L 773.585676 -118.492508 
L 769.480869 -121.62742 
L 765.376063 -133.882376 
L 761.271256 -155.243812 
L 757.166449 -189.888823 
L 753.061642 -125.337843 
L 748.956836 -121.174922 
L 744.852029 -123.437632 
L 740.747222 -132.089169 
L 736.642415 -131.094315 
L 732.537609 -124.987233 
L 728.432802 -127.249943 
L 724.327995 -123.35408 
L 720.223189 -124.013753 
L 716.118382 -128.950133 
L 712.013575 -129.859492 
L 707.908768 -129.892524 
L 703.803962 -126.822467 
L 699.699155 -135.614877 
L 695.594348 -131.090429 
L 691.489541 -126.599013 
L 687.384735 -123.766983 
L 683.279928 -129.848245 
L 679.175121 -129.374695 
L 675.070314 -129.526255 
L 670.965508 -128.422588 
L 666.860701 -128.619913 
L 662.755894 -129.330976 
L 658.651087 -125.348645 
L 654.546281 -131.24467 
L 650.441474 -136.553382 
L 646.336667 -136.524854 
L 642.23186 -135.169913 
L 638.127054 -136.699113 
L 634.022247 -127.655074 
L 629.91744 -138.82775 
L 625.812633 -132.256274 
L 621.707827 -135.713002 
L 617.60302 -135.631393 
L 613.498213 -137.734771 
L 609.393406 -135.892737 
L 605.2886 -134.454862 
L 601.183793 -132.441837 
L 597.078986 -135.190316 
L 592.974179 -134.019613 
L 588.869373 -131.440183 
L 584.764566 -130.113063 
L 580.659759 -130.551226 
L 576.554952 -137.21597 
L 572.450146 -140.447303 
L 568.345339 -139.013314 
L 564.240532 -133.274444 
L 560.135725 -140.122809 
L 556.030919 -138.955993 
L 551.926112 -139.297974 
L 547.821305 -138.639227 
L 543.716499 -142.292251 
L 539.611692 -149.363098 
L 535.506885 -141.619105 
L 531.402078 -146.145367 
L 527.297272 -143.564965 
L 523.192465 -144.959121 
L 519.087658 -141.520851 
L 514.982851 -143.382316 
L 510.878045 -145.57891 
L 506.773238 -147.549238 
L 502.668431 -144.651143 
L 498.563624 -148.46588 
L 494.458818 -142.699325 
L 490.354011 -147.665823 
L 486.249204 -148.01169 
L 482.144397 -152.848973 
L 478.039591 -149.641929 
L 473.934784 -142.642005 
L 469.829977 -154.452981 
L 465.72517 -160.561034 
L 461.620364 -155.229528 
L 457.515557 -158.3401 
L 453.41075 -153.405664 
L 449.305943 -157.784381 
L 445.201137 -156.201747 
L 441.09633 -153.670893 
L 436.991523 -151.126438 
L 432.886716 -160.74174 
L 428.78191 -160.818633 
L 424.677103 -157.66974 
L 420.572296 -157.72026 
L 416.467489 -162.705216 
L 412.362683 -158.188541 
L 408.257876 -163.122977 
L 404.153069 -158.277922 
L 400.048262 -163.321171 
L 395.943456 -158.076814 
L 391.838649 -160.436677 
L 387.733842 -164.266476 
L 383.629036 -164.232473 
L 379.524229 -157.118878 
L 375.419422 -170.609642 
L 371.314615 -167.022727 
L 367.209809 -170.830181 
L 363.105002 -177.685346 
L 359.000195 -170.938021 
L 354.895388 -176.892566 
L 350.790582 -176.592367 
L 346.685775 -167.84659 
L 342.580968 -175.461498 
L 338.476161 -177.868967 
L 334.371355 -177.761126 
L 330.266548 -184.787282 
L 326.161741 -181.397589 
L 322.056934 -177.688261 
L 317.952128 -181.125559 
L 313.847321 -176.685635 
L 309.742514 -173.772966 
L 305.637707 -180.199086 
L 301.532901 -177.745581 
L 297.428094 -179.220375 
L 293.323287 -187.083024 
L 289.21848 -188.354766 
L 285.113674 -191.900876 
L 281.008867 -190.186113 
L 276.90406 -188.481066 
L 272.799253 -195.438243 
L 268.694447 -193.640899 
L 264.58964 -191.308239 
L 260.484833 -198.064307 
L 256.380026 -195.275025 
L 252.27522 -196.585628 
L 248.170413 -215.935731 
L 244.065606 -213.053181 
L 239.960799 -209.493469 
L 235.855993 -215.854122 
L 231.751186 -215.741424 
L 227.646379 -215.614153 
L 223.541573 -222.79284 
L 219.436766 -213.456369 
L 215.331959 -204.056748 
L 211.227152 -208.959124 
L 207.122346 -210.341621 
L 203.017539 -218.653121 
L 198.912732 -243.376795 
L 194.807925 -228.037197 
L 190.703119 -232.702518 
L 186.598312 -225.063322 
L 182.493505 -243.545843 
L 178.388698 -263.85874 
L 174.283892 -274.664175 
L 170.179085 -264.423203 
L 166.074278 -272.388835 
L 161.969471 -260.427271 
L 157.864665 -278.778634 
L 153.759858 -293.168069 
L 149.655051 -298.182172 
L 145.550244 -290.257344 
L 141.445438 -320.893794 
L 137.340631 -448.950149 
z
" style="stroke: #ffffff; stroke-opacity: 0.3"/>
    </defs>
    <g clip-path="url(#pb6b0af92e2)">
     <use xlink:href="#m28f9e42866" x="0" y="504" style="fill: #4c72b0; fill-opacity: 0.3; stroke: #ffffff; stroke-opacity: 0.3"/>
    </g>
   </g>
   <g id="line2d_16">
    <path d="M 137.340631 72.384015 
L 141.445438 194.286655 
L 145.550244 216.045198 
L 149.655051 233.000463 
L 153.759858 245.269033 
L 157.864665 236.410558 
L 161.969471 260.562969 
L 166.074278 260.495933 
L 170.179085 256.213398 
L 174.283892 260.835971 
L 178.388698 272.550765 
L 182.493505 284.725096 
L 186.598312 289.158219 
L 190.703119 285.838477 
L 194.807925 290.950705 
L 198.912732 298.205172 
L 203.017539 298.828899 
L 207.122346 298.718144 
L 211.227152 303.206645 
L 215.331959 303.343632 
L 219.436766 305.249787 
L 223.541573 309.006721 
L 227.646379 291.509339 
L 231.751186 313.27274 
L 235.855993 317.496984 
L 239.960799 316.822737 
L 244.065606 319.976346 
L 248.170413 317.186092 
L 252.27522 311.521059 
L 256.380026 325.057485 
L 260.484833 317.832164 
L 264.58964 314.797082 
L 268.694447 320.243519 
L 272.799253 326.814024 
L 276.90406 326.794593 
L 281.008867 325.912437 
L 285.113674 328.017758 
L 289.21848 327.954608 
L 293.323287 331.119876 
L 297.428094 333.064893 
L 301.532901 330.887679 
L 305.637707 335.117996 
L 309.742514 330.701144 
L 313.847321 333.131736 
L 317.952128 336.751876 
L 322.056934 332.823952 
L 326.161741 337.286222 
L 330.266548 335.013797 
L 334.371355 332.191481 
L 338.476161 337.901205 
L 342.580968 345.621038 
L 346.685775 345.375239 
L 350.790582 341.240378 
L 354.895388 338.843596 
L 359.000195 350.902449 
L 363.105002 343.310723 
L 367.209809 346.782996 
L 371.314615 349.374086 
L 375.419422 349.217404 
L 379.524229 353.172319 
L 383.629036 357.745312 
L 387.733842 348.796993 
L 391.838649 349.779217 
L 395.943456 347.897919 
L 400.048262 346.228249 
L 404.153069 353.770291 
L 412.362683 348.439467 
L 416.467489 353.5993 
L 420.572296 350.793501 
L 424.677103 352.472317 
L 428.78191 359.318868 
L 432.886716 348.611429 
L 436.991523 353.735316 
L 441.09633 355.099354 
L 445.201137 348.865 
L 449.305943 351.994842 
L 453.41075 357.324173 
L 457.515557 352.601532 
L 461.620364 364.860052 
L 465.72517 369.377786 
L 469.829977 366.973479 
L 473.934784 362.021002 
L 478.039591 365.944622 
L 482.144397 358.038704 
L 486.249204 359.843369 
L 490.354011 364.158846 
L 494.458818 366.132128 
L 498.563624 364.071498 
L 506.773238 365.174193 
L 510.878045 367.501996 
L 514.982851 369.152637 
L 519.087658 369.090459 
L 523.192465 365.845847 
L 527.297272 364.829297 
L 531.402078 369.492701 
L 535.506885 372.620053 
L 539.611692 365.356842 
L 543.716499 370.234003 
L 547.821305 369.180728 
L 551.926112 369.235218 
L 556.030919 375.238345 
L 560.135725 371.67669 
L 564.240532 373.233093 
L 568.345339 370.483643 
L 572.450146 372.209093 
L 576.554952 371.250186 
L 580.659759 378.549343 
L 584.764566 378.333662 
L 588.869373 375.956112 
L 592.974179 377.378641 
L 597.078986 373.140533 
L 601.183793 377.480768 
L 605.2886 378.694431 
L 609.393406 381.574399 
L 613.498213 381.626201 
L 617.60302 379.832744 
L 621.707827 382.77553 
L 625.812633 378.008197 
L 629.91744 375.36173 
L 634.022247 380.166277 
L 638.127054 378.07329 
L 642.23186 382.424412 
L 646.336667 382.144712 
L 650.441474 381.63203 
L 654.546281 380.81565 
L 658.651087 384.895423 
L 662.755894 376.441108 
L 666.860701 384.892509 
L 670.965508 381.235643 
L 675.070314 382.861128 
L 679.175121 377.542831 
L 683.279928 382.262558 
L 687.384735 385.763006 
L 691.489541 380.618717 
L 695.594348 382.846452 
L 699.699155 387.460281 
L 703.803962 385.729974 
L 707.908768 382.932957 
L 712.013575 387.245572 
L 716.118382 385.583272 
L 720.223189 382.873655 
L 724.327995 386.780205 
L 728.432802 385.982573 
L 732.537609 388.16756 
L 736.642415 385.975773 
L 740.747222 388.700934 
L 744.852029 386.776319 
L 748.956836 386.298323 
L 753.061642 391.649549 
L 757.166449 386.251689 
L 761.271256 379.332713 
L 765.376063 384.127909 
L 769.480869 385.363704 
L 773.585676 385.926224 
L 777.690483 391.27065 
L 781.79529 387.224198 
L 785.900096 387.71871 
L 790.004903 389.053602 
L 794.10971 390.983075 
L 798.214517 390.959758 
L 802.319323 387.762429 
L 806.42413 394.108509 
L 810.528937 392.443726 
L 814.633744 391.904092 
L 818.73855 392.020676 
L 822.843357 390.603204 
L 826.948164 390.523538 
L 831.052971 391.009306 
L 835.157777 390.511879 
L 839.262584 391.855515 
L 843.367391 390.326316 
L 847.472198 395.123367 
L 851.577004 393.35071 
L 855.681811 397.273777 
L 859.786618 392.970839 
L 863.891425 386.810323 
L 867.996231 392.928532 
L 872.101038 394.287272 
L 876.205845 390.646923 
L 880.310652 391.539765 
L 884.415458 397.664335 
L 888.520265 391.695211 
L 892.625072 391.336714 
L 896.729878 390.230133 
L 900.834685 391.338657 
L 909.044299 396.4538 
L 913.149105 398.704851 
L 917.253912 395.360821 
L 921.358719 394.926543 
L 925.463526 401.486362 
L 929.568332 400.212677 
L 933.673139 398.733058 
L 937.777946 394.777898 
L 941.882753 392.408319 
L 945.987559 396.835614 
L 950.092366 402.024593 
L 954.197173 395.450202 
L 954.197173 395.450202 
" clip-path="url(#pb6b0af92e2)" style="fill: none; stroke: #000000; stroke-width: 2; stroke-linecap: round"/>
   </g>
   <g id="patch_3">
    <path d="M 96.497804 436.800956 
L 96.497804 36.871226 
" style="fill: none; stroke: #cccccc; stroke-width: 1.25; stroke-linejoin: miter; stroke-linecap: square"/>
   </g>
   <g id="patch_4">
    <path d="M 995.04 436.800956 
L 995.04 36.871226 
" style="fill: none; stroke: #cccccc; stroke-width: 1.25; stroke-linejoin: miter; stroke-linecap: square"/>
   </g>
   <g id="patch_5">
    <path d="M 96.497804 436.800956 
L 995.04 436.800956 
" style="fill: none; stroke: #cccccc; stroke-width: 1.25; stroke-linejoin: miter; stroke-linecap: square"/>
   </g>
   <g id="patch_6">
    <path d="M 96.497804 36.871226 
L 995.04 36.871226 
" style="fill: none; stroke: #cccccc; stroke-width: 1.25; stroke-linejoin: miter; stroke-linecap: square"/>
   </g>
   <g id="text_18">
    <!-- Reconstruction Loss (LossG_recon) vs Epoch -->
    <g style="fill: #262626" transform="translate(330.322781 30.871226) scale(0.24 -0.24)">
     <defs>
      <path id="CMR17-76" d="M 2502 2163 
C 2560 2304 2662 2560 3034 2560 
L 3034 2726 
C 2912 2726 2752 2726 2630 2726 
C 2496 2726 2285 2726 2157 2732 
L 2157 2566 
C 2317 2553 2406 2477 2406 2311 
C 2406 2253 2406 2240 2368 2151 
L 1664 377 
L 902 2286 
C 864 2369 864 2381 864 2407 
C 864 2560 1075 2560 1171 2560 
L 1171 2732 
C 1018 2726 736 2726 576 2726 
C 403 2726 205 2726 64 2732 
L 64 2560 
C 307 2560 442 2560 518 2362 
L 1446 44 
C 1485 -51 1491 -64 1549 -64 
C 1606 -64 1613 -51 1651 44 
L 2502 2163 
z
" transform="scale(0.015625)"/>
     </defs>
     <use xlink:href="#CMR17-52" transform="scale(0.996264)"/>
     <use xlink:href="#CMR17-65" transform="translate(67.791102 0) scale(0.996264)"/>
     <use xlink:href="#CMR17-63" transform="translate(108.276762 0) scale(0.996264)"/>
     <use xlink:href="#CMR17-6f" transform="translate(148.762423 0) scale(0.996264)"/>
     <use xlink:href="#CMR17-6e" transform="translate(194.4529 0) scale(0.996264)"/>
     <use xlink:href="#CMR17-73" transform="translate(245.34827 0) scale(0.996264)"/>
     <use xlink:href="#CMR17-74" transform="translate(281.149607 0) scale(0.996264)"/>
     <use xlink:href="#CMR17-72" transform="translate(316.430375 0) scale(0.996264)"/>
     <use xlink:href="#CMR17-75" transform="translate(351.711143 0) scale(0.996264)"/>
     <use xlink:href="#CMR17-63" transform="translate(402.606513 0) scale(0.996264)"/>
     <use xlink:href="#CMR17-74" transform="translate(443.092173 0) scale(0.996264)"/>
     <use xlink:href="#CMR17-69" transform="translate(478.372941 0) scale(0.996264)"/>
     <use xlink:href="#CMR17-6f" transform="translate(503.244 0) scale(0.996264)"/>
     <use xlink:href="#CMR17-6e" transform="translate(548.934477 0) scale(0.996264)"/>
     <use xlink:href="#CMR17-4c" transform="translate(629.905813 0) scale(0.996264)"/>
     <use xlink:href="#CMR17-6f" transform="translate(687.287221 0) scale(0.996264)"/>
     <use xlink:href="#CMR17-73" transform="translate(732.977698 0) scale(0.996264)"/>
     <use xlink:href="#CMR17-73" transform="translate(768.779035 0) scale(0.996264)"/>
     <use xlink:href="#CMR17-28" transform="translate(834.656339 0) scale(0.996264)"/>
     <use xlink:href="#CMR17-4c" transform="translate(869.937107 0) scale(0.996264)"/>
     <use xlink:href="#CMR17-6f" transform="translate(927.318515 0) scale(0.996264)"/>
     <use xlink:href="#CMR17-73" transform="translate(973.008992 0) scale(0.996264)"/>
     <use xlink:href="#CMR17-73" transform="translate(1008.81033 0) scale(0.996264)"/>
     <use xlink:href="#CMR17-47" transform="translate(1044.611667 0) scale(0.996264)"/>
     <use xlink:href="#CMR17-72" transform="translate(1149.864233 0) scale(0.996264)"/>
     <use xlink:href="#CMR17-65" transform="translate(1185.145001 0) scale(0.996264)"/>
     <use xlink:href="#CMR17-63" transform="translate(1225.630661 0) scale(0.996264)"/>
     <use xlink:href="#CMR17-6f" transform="translate(1266.116322 0) scale(0.996264)"/>
     <use xlink:href="#CMR17-6e" transform="translate(1311.806799 0) scale(0.996264)"/>
     <use xlink:href="#CMR17-29" transform="translate(1362.702169 0) scale(0.996264)"/>
     <use xlink:href="#CMR17-76" transform="translate(1428.058903 0) scale(0.996264)"/>
     <use xlink:href="#CMR17-73" transform="translate(1476.351818 0) scale(0.996264)"/>
     <use xlink:href="#CMR17-45" transform="translate(1542.229122 0) scale(0.996264)"/>
     <use xlink:href="#CMR17-70" transform="translate(1604.815423 0) scale(0.996264)"/>
     <use xlink:href="#CMR17-6f" transform="translate(1658.313232 0) scale(0.996264)"/>
     <use xlink:href="#CMR17-63" transform="translate(1706.606147 0) scale(0.996264)"/>
     <use xlink:href="#CMR17-68" transform="translate(1744.489354 0) scale(0.996264)"/>
     <path d="M 1122.449643 0 
L 1149.864233 0 
L 1149.864233 0.3985 
L 1122.449643 0.3985 
L 1122.449643 0 
z
"/>
    </g>
   </g>
   <g id="legend_1">
    <g id="patch_7">
     <path d="M 762.842518 115.797602 
L 979.64 115.797602 
Q 984.04 115.797602 984.04 111.397602 
L 984.04 52.271226 
Q 984.04 47.871226 979.64 47.871226 
L 762.842518 47.871226 
Q 758.442518 47.871226 758.442518 52.271226 
L 758.442518 111.397602 
Q 758.442518 115.797602 762.842518 115.797602 
z
" style="fill: #ffffff; opacity: 0.8; stroke: #cccccc; stroke-linejoin: miter"/>
    </g>
    <g id="line2d_17">
     <path d="M 767.242518 64.371226 
L 789.242518 64.371226 
L 811.242518 64.371226 
" style="fill: none; stroke: #000000; stroke-width: 2; stroke-linecap: round"/>
    </g>
    <g id="text_19">
     <!-- Median -->
     <g style="fill: #262626" transform="translate(828.842518 72.071226) scale(0.22 -0.22)">
      <defs>
       <path id="CMR17-4d" d="M 1338 4224 
C 1299 4320 1293 4320 1158 4320 
L 339 4320 
L 339 4160 
C 781 4160 851 4160 851 3875 
L 851 610 
C 851 451 851 153 339 153 
L 339 -13 
C 486 0 755 0 915 0 
C 1075 0 1344 0 1491 -13 
L 1491 153 
C 979 153 979 451 979 610 
L 979 4135 
L 986 4135 
L 2490 89 
C 2515 25 2528 -13 2579 -13 
C 2630 -13 2643 25 2669 89 
L 4186 4166 
L 4192 4166 
L 4192 438 
C 4192 153 4122 153 3680 153 
L 3680 -13 
C 3853 0 4198 0 4384 0 
C 4570 0 4922 0 5094 -13 
L 5094 153 
C 4653 153 4582 153 4582 438 
L 4582 3875 
C 4582 4160 4653 4160 5094 4160 
L 5094 4320 
L 4282 4320 
C 4147 4320 4141 4314 4102 4218 
L 2720 502 
L 1338 4224 
z
" transform="scale(0.015625)"/>
       <path id="CMR17-64" d="M 1869 4326 
L 1869 4160 
C 2246 4160 2304 4122 2304 3820 
L 2304 2345 
C 2278 2377 2016 2790 1498 2790 
C 845 2790 211 2208 211 1364 
C 211 525 806 -64 1434 -64 
C 1978 -64 2259 337 2291 380 
L 2291 -63 
L 3066 -63 
L 3066 128 
C 2688 128 2630 166 2630 473 
L 2630 4396 
L 1869 4326 
z
M 2291 755 
C 2291 563 2176 390 2029 262 
C 1811 70 1594 38 1472 38 
C 1286 38 621 134 621 1356 
C 621 2612 1363 2688 1530 2688 
C 1824 2688 2061 2522 2208 2291 
C 2291 2157 2291 2138 2291 2023 
L 2291 755 
z
" transform="scale(0.015625)"/>
       <path id="CMR17-61" d="M 2304 1653 
C 2304 2072 2304 2294 2035 2543 
C 1798 2752 1523 2816 1306 2816 
C 800 2816 435 2407 435 1971 
C 435 1728 627 1728 666 1728 
C 749 1728 896 1778 896 1954 
C 896 2112 774 2181 666 2181 
C 640 2181 608 2174 589 2168 
C 723 2592 1069 2714 1293 2714 
C 1613 2714 1965 2429 1965 1885 
L 1965 1600 
C 1587 1600 1133 1549 774 1357 
C 371 1133 256 813 256 570 
C 256 77 832 -64 1171 -64 
C 1523 -64 1850 139 1990 511 
C 2003 233 2182 -18 2464 -18 
C 2598 -18 2938 70 2938 567 
L 2938 920 
L 2822 920 
L 2822 562 
C 2822 178 2650 128 2566 128 
C 2304 128 2304 458 2304 738 
L 2304 1653 
z
M 1965 870 
C 1965 317 1568 38 1216 38 
C 896 38 646 275 646 570 
C 646 761 730 1100 1101 1305 
C 1408 1478 1760 1504 1965 1504 
L 1965 870 
z
" transform="scale(0.015625)"/>
      </defs>
      <use xlink:href="#CMR17-4d" transform="scale(0.996264)"/>
      <use xlink:href="#CMR17-65" transform="translate(84.686941 0) scale(0.996264)"/>
      <use xlink:href="#CMR17-64" transform="translate(125.172601 0) scale(0.996264)"/>
      <use xlink:href="#CMR17-69" transform="translate(176.067971 0) scale(0.996264)"/>
      <use xlink:href="#CMR17-61" transform="translate(200.939029 0) scale(0.996264)"/>
      <use xlink:href="#CMR17-6e" transform="translate(246.629506 0) scale(0.996264)"/>
     </g>
    </g>
    <g id="patch_8">
     <path d="M 767.242518 102.734414 
L 811.242518 102.734414 
L 811.242518 87.334414 
L 767.242518 87.334414 
z
" style="fill: #4c72b0; fill-opacity: 0.3; stroke: #ffffff; stroke-opacity: 0.3; stroke-linejoin: miter"/>
    </g>
    <g id="text_20">
     <!-- MinMax Range -->
     <g style="fill: #262626" transform="translate(828.842518 102.734414) scale(0.22 -0.22)">
      <defs>
       <path id="CMR17-7b" d="M 2970 1664 
L 2970 1766 
L -38 1766 
L -38 1664 
L 2970 1664 
z
" transform="scale(0.015625)"/>
       <path id="CMR17-78" d="M 1664 1477 
C 1856 1726 2074 2006 2253 2216 
C 2464 2458 2707 2560 2989 2560 
L 2989 2726 
C 2880 2726 2656 2726 2541 2726 
C 2368 2726 2170 2726 2022 2732 
L 2022 2566 
C 2112 2553 2163 2489 2163 2400 
C 2163 2285 2099 2215 2067 2171 
L 1594 1573 
L 1030 2306 
C 973 2376 973 2388 973 2420 
C 973 2497 1037 2560 1146 2560 
L 1146 2732 
C 992 2726 717 2726 557 2726 
C 384 2726 179 2726 38 2732 
L 38 2560 
C 384 2560 461 2534 614 2343 
L 1350 1395 
C 1363 1382 1395 1344 1395 1325 
C 1395 1299 838 619 768 530 
C 480 185 179 160 6 160 
L 6 0 
C 115 0 339 0 454 0 
C 582 0 864 0 979 -6 
L 979 160 
C 941 166 838 179 838 325 
C 838 440 890 510 947 586 
L 1478 1236 
L 2035 512 
C 2086 442 2163 346 2163 301 
C 2163 211 2086 160 1984 160 
L 1984 -6 
C 2138 0 2413 0 2573 0 
C 2746 0 2950 0 3091 -6 
L 3091 160 
C 2771 160 2675 172 2522 370 
L 1664 1477 
z
" transform="scale(0.015625)"/>
       <path id="CMR17-67" d="M 710 1164 
C 832 1068 1043 960 1299 960 
C 1805 960 2240 1357 2240 1888 
C 2240 2054 2189 2310 1997 2509 
C 2176 2692 2438 2752 2586 2752 
C 2611 2752 2650 2752 2682 2734 
C 2656 2728 2598 2703 2598 2605 
C 2598 2527 2656 2471 2739 2471 
C 2835 2471 2886 2533 2886 2614 
C 2886 2731 2790 2854 2586 2854 
C 2330 2854 2106 2738 1926 2580 
C 1734 2753 1504 2816 1299 2816 
C 794 2816 358 2419 358 1888 
C 358 1522 570 1292 634 1228 
C 442 1004 442 743 442 711 
C 442 545 506 302 723 168 
C 390 85 128 -169 128 -486 
C 128 -943 736 -1280 1466 -1280 
C 2170 -1280 2803 -956 2803 -479 
C 2803 384 1856 384 1363 384 
C 1216 384 954 384 922 391 
C 723 423 589 602 589 826 
C 589 883 589 1024 710 1164 
z
M 1299 1068 
C 736 1068 736 1760 736 1889 
C 736 2016 736 2708 1299 2708 
C 1862 2708 1862 2016 1862 1889 
C 1862 1760 1862 1068 1299 1068 
z
M 1466 -1171 
C 826 -1171 384 -835 384 -486 
C 384 -289 493 -105 634 -4 
C 794 104 858 104 1293 104 
C 1818 104 2547 104 2547 -486 
C 2547 -835 2106 -1171 1466 -1171 
z
" transform="scale(0.015625)"/>
      </defs>
      <use xlink:href="#CMR17-4d" transform="scale(0.996264)"/>
      <use xlink:href="#CMR17-69" transform="translate(84.686941 0) scale(0.996264)"/>
      <use xlink:href="#CMR17-6e" transform="translate(109.557999 0) scale(0.996264)"/>
      <use xlink:href="#CMR17-7b" transform="translate(160.453369 0) scale(0.996264)"/>
      <use xlink:href="#CMR17-4d" transform="translate(206.143846 0) scale(0.996264)"/>
      <use xlink:href="#CMR17-61" transform="translate(290.830787 0) scale(0.996264)"/>
      <use xlink:href="#CMR17-78" transform="translate(336.521264 0) scale(0.996264)"/>
      <use xlink:href="#CMR17-52" transform="translate(414.890146 0) scale(0.996264)"/>
      <use xlink:href="#CMR17-61" transform="translate(482.681248 0) scale(0.996264)"/>
      <use xlink:href="#CMR17-6e" transform="translate(528.371725 0) scale(0.996264)"/>
      <use xlink:href="#CMR17-67" transform="translate(579.267095 0) scale(0.996264)"/>
      <use xlink:href="#CMR17-65" transform="translate(624.957572 0) scale(0.996264)"/>
     </g>
    </g>
   </g>
  </g>
 </g>
 <defs>
  <clipPath id="pb6b0af92e2">
   <rect x="96.497804" y="36.871226" width="898.542196" height="399.92973"/>
  </clipPath>
 </defs>
</svg>
