<?xml version="1.0" encoding="utf-8" standalone="no"?>
<!DOCTYPE svg PUBLIC "-//W3C//DTD SVG 1.1//EN"
  "http://www.w3.org/Graphics/SVG/1.1/DTD/svg11.dtd">
<svg xmlns:xlink="http://www.w3.org/1999/xlink" width="1008pt" height="504pt" viewBox="0 0 1008 504" xmlns="http://www.w3.org/2000/svg" version="1.1">
 <metadata>
  <rdf:RDF xmlns:dc="http://purl.org/dc/elements/1.1/" xmlns:cc="http://creativecommons.org/ns#" xmlns:rdf="http://www.w3.org/1999/02/22-rdf-syntax-ns#">
   <cc:Work>
    <dc:type rdf:resource="http://purl.org/dc/dcmitype/StillImage"/>
    <dc:date>2025-04-25T13:49:09.512968</dc:date>
    <dc:format>image/svg+xml</dc:format>
    <dc:creator>
     <cc:Agent>
      <dc:title>Matplotlib v3.9.2, https://matplotlib.org/</dc:title>
     </cc:Agent>
    </dc:creator>
   </cc:Work>
  </rdf:RDF>
 </metadata>
 <defs>
  <style type="text/css">*{stroke-linejoin: round; stroke-linecap: butt}</style>
 </defs>
 <g id="figure_1">
  <g id="patch_1">
   <path d="M 0 504 
L 1008 504 
L 1008 0 
L 0 0 
z
" style="fill: #ffffff"/>
  </g>
  <g id="axes_1">
   <g id="patch_2">
    <path d="M 73.780351 436.800956 
L 995.04 436.800956 
L 995.04 12.96 
L 73.780351 12.96 
z
" style="fill: #ffffff"/>
   </g>
   <g id="matplotlib.axis_1">
    <g id="xtick_1">
     <g id="line2d_1">
      <path d="M 111.447203 436.800956 
L 111.447203 12.96 
" clip-path="url(#peb12363b81)" style="fill: none; stroke: #cccccc; stroke-linecap: round"/>
     </g>
     <g id="text_1">
      <!-- $\mathdefault{0}$ -->
      <g style="fill: #262626" transform="translate(106.421251 461.52165) scale(0.22 -0.22)">
       <defs>
        <path id="CMR17-30" d="M 2688 2025 
C 2688 2416 2682 3080 2413 3591 
C 2176 4039 1798 4198 1466 4198 
C 1158 4198 768 4058 525 3597 
C 269 3118 243 2524 243 2025 
C 243 1661 250 1106 448 619 
C 723 -39 1216 -128 1466 -128 
C 1760 -128 2208 -7 2470 600 
C 2662 1042 2688 1559 2688 2025 
z
M 1466 -26 
C 1056 -26 813 325 723 812 
C 653 1188 653 1738 653 2096 
C 653 2588 653 2997 736 3387 
C 858 3929 1216 4096 1466 4096 
C 1728 4096 2067 3923 2189 3400 
C 2272 3036 2278 2607 2278 2096 
C 2278 1680 2278 1169 2202 792 
C 2067 95 1690 -26 1466 -26 
z
" transform="scale(0.015625)"/>
       </defs>
       <use xlink:href="#CMR17-30" transform="scale(0.996264)"/>
      </g>
     </g>
    </g>
    <g id="xtick_2">
     <g id="line2d_2">
      <path d="M 216.661873 436.800956 
L 216.661873 12.96 
" clip-path="url(#peb12363b81)" style="fill: none; stroke: #cccccc; stroke-linecap: round"/>
     </g>
     <g id="text_2">
      <!-- $\mathdefault{25}$ -->
      <g style="fill: #262626" transform="translate(206.609968 461.52165) scale(0.22 -0.22)">
       <defs>
        <path id="CMR17-32" d="M 2669 989 
L 2554 989 
C 2490 536 2438 459 2413 420 
C 2381 369 1920 369 1830 369 
L 602 369 
C 832 619 1280 1072 1824 1597 
C 2214 1967 2669 2402 2669 3035 
C 2669 3790 2067 4224 1395 4224 
C 691 4224 262 3604 262 3030 
C 262 2780 448 2748 525 2748 
C 589 2748 781 2787 781 3010 
C 781 3207 614 3264 525 3264 
C 486 3264 448 3258 422 3245 
C 544 3790 915 4058 1306 4058 
C 1862 4058 2227 3617 2227 3035 
C 2227 2479 1901 2000 1536 1584 
L 262 146 
L 262 0 
L 2515 0 
L 2669 989 
z
" transform="scale(0.015625)"/>
        <path id="CMR17-35" d="M 730 3692 
C 794 3666 1056 3584 1325 3584 
C 1920 3584 2246 3911 2432 4100 
C 2432 4157 2432 4192 2394 4192 
C 2387 4192 2374 4192 2323 4163 
C 2099 4058 1837 3973 1517 3973 
C 1325 3973 1037 3999 723 4139 
C 653 4171 640 4171 634 4171 
C 602 4171 595 4164 595 4037 
L 595 2203 
C 595 2089 595 2057 659 2057 
C 691 2057 704 2070 736 2114 
C 941 2401 1222 2522 1542 2522 
C 1766 2522 2246 2382 2246 1289 
C 2246 1085 2246 715 2054 421 
C 1894 159 1645 25 1370 25 
C 947 25 518 320 403 814 
C 429 807 480 795 506 795 
C 589 795 749 840 749 1038 
C 749 1210 627 1280 506 1280 
C 358 1280 262 1190 262 1011 
C 262 454 704 -128 1382 -128 
C 2042 -128 2669 440 2669 1264 
C 2669 2030 2170 2624 1549 2624 
C 1222 2624 947 2503 730 2274 
L 730 3692 
z
" transform="scale(0.015625)"/>
       </defs>
       <use xlink:href="#CMR17-32" transform="scale(0.996264)"/>
       <use xlink:href="#CMR17-35" transform="translate(45.690477 0) scale(0.996264)"/>
      </g>
     </g>
    </g>
    <g id="xtick_3">
     <g id="line2d_3">
      <path d="M 321.876543 436.800956 
L 321.876543 12.96 
" clip-path="url(#peb12363b81)" style="fill: none; stroke: #cccccc; stroke-linecap: round"/>
     </g>
     <g id="text_3">
      <!-- $\mathdefault{50}$ -->
      <g style="fill: #262626" transform="translate(311.824638 461.52165) scale(0.22 -0.22)">
       <use xlink:href="#CMR17-35" transform="scale(0.996264)"/>
       <use xlink:href="#CMR17-30" transform="translate(45.690477 0) scale(0.996264)"/>
      </g>
     </g>
    </g>
    <g id="xtick_4">
     <g id="line2d_4">
      <path d="M 427.091213 436.800956 
L 427.091213 12.96 
" clip-path="url(#peb12363b81)" style="fill: none; stroke: #cccccc; stroke-linecap: round"/>
     </g>
     <g id="text_4">
      <!-- $\mathdefault{75}$ -->
      <g style="fill: #262626" transform="translate(417.039308 461.52165) scale(0.22 -0.22)">
       <defs>
        <path id="CMR17-37" d="M 2886 3941 
L 2886 4081 
L 1382 4081 
C 634 4081 621 4165 595 4288 
L 480 4288 
L 294 3094 
L 410 3094 
C 429 3215 474 3540 550 3661 
C 589 3712 1062 3712 1171 3712 
L 2579 3712 
L 1869 2661 
C 1395 1954 1069 999 1069 165 
C 1069 89 1069 -128 1299 -128 
C 1530 -128 1530 89 1530 171 
L 1530 465 
C 1530 1508 1709 2196 2003 2636 
L 2886 3941 
z
" transform="scale(0.015625)"/>
       </defs>
       <use xlink:href="#CMR17-37" transform="scale(0.996264)"/>
       <use xlink:href="#CMR17-35" transform="translate(45.690477 0) scale(0.996264)"/>
      </g>
     </g>
    </g>
    <g id="xtick_5">
     <g id="line2d_5">
      <path d="M 532.305882 436.800956 
L 532.305882 12.96 
" clip-path="url(#peb12363b81)" style="fill: none; stroke: #cccccc; stroke-linecap: round"/>
     </g>
     <g id="text_5">
      <!-- $\mathdefault{100}$ -->
      <g style="fill: #262626" transform="translate(517.228025 461.52165) scale(0.22 -0.22)">
       <defs>
        <path id="CMR17-31" d="M 1702 4058 
C 1702 4192 1696 4192 1606 4192 
C 1357 3916 979 3827 621 3827 
C 602 3827 570 3827 563 3808 
C 557 3795 557 3782 557 3648 
C 755 3648 1088 3686 1344 3839 
L 1344 461 
C 1344 236 1331 160 781 160 
L 589 160 
L 589 0 
C 896 0 1216 0 1523 0 
C 1830 0 2150 0 2458 0 
L 2458 160 
L 2266 160 
C 1715 160 1702 230 1702 458 
L 1702 4058 
z
" transform="scale(0.015625)"/>
       </defs>
       <use xlink:href="#CMR17-31" transform="scale(0.996264)"/>
       <use xlink:href="#CMR17-30" transform="translate(45.690477 0) scale(0.996264)"/>
       <use xlink:href="#CMR17-30" transform="translate(91.380954 0) scale(0.996264)"/>
      </g>
     </g>
    </g>
    <g id="xtick_6">
     <g id="line2d_6">
      <path d="M 637.520552 436.800956 
L 637.520552 12.96 
" clip-path="url(#peb12363b81)" style="fill: none; stroke: #cccccc; stroke-linecap: round"/>
     </g>
     <g id="text_6">
      <!-- $\mathdefault{125}$ -->
      <g style="fill: #262626" transform="translate(622.442695 461.52165) scale(0.22 -0.22)">
       <use xlink:href="#CMR17-31" transform="scale(0.996264)"/>
       <use xlink:href="#CMR17-32" transform="translate(45.690477 0) scale(0.996264)"/>
       <use xlink:href="#CMR17-35" transform="translate(91.380954 0) scale(0.996264)"/>
      </g>
     </g>
    </g>
    <g id="xtick_7">
     <g id="line2d_7">
      <path d="M 742.735222 436.800956 
L 742.735222 12.96 
" clip-path="url(#peb12363b81)" style="fill: none; stroke: #cccccc; stroke-linecap: round"/>
     </g>
     <g id="text_7">
      <!-- $\mathdefault{150}$ -->
      <g style="fill: #262626" transform="translate(727.657364 461.52165) scale(0.22 -0.22)">
       <use xlink:href="#CMR17-31" transform="scale(0.996264)"/>
       <use xlink:href="#CMR17-35" transform="translate(45.690477 0) scale(0.996264)"/>
       <use xlink:href="#CMR17-30" transform="translate(91.380954 0) scale(0.996264)"/>
      </g>
     </g>
    </g>
    <g id="xtick_8">
     <g id="line2d_8">
      <path d="M 847.949892 436.800956 
L 847.949892 12.96 
" clip-path="url(#peb12363b81)" style="fill: none; stroke: #cccccc; stroke-linecap: round"/>
     </g>
     <g id="text_8">
      <!-- $\mathdefault{175}$ -->
      <g style="fill: #262626" transform="translate(832.872034 461.52165) scale(0.22 -0.22)">
       <use xlink:href="#CMR17-31" transform="scale(0.996264)"/>
       <use xlink:href="#CMR17-37" transform="translate(45.690477 0) scale(0.996264)"/>
       <use xlink:href="#CMR17-35" transform="translate(91.380954 0) scale(0.996264)"/>
      </g>
     </g>
    </g>
    <g id="xtick_9">
     <g id="line2d_9">
      <path d="M 953.164561 436.800956 
L 953.164561 12.96 
" clip-path="url(#peb12363b81)" style="fill: none; stroke: #cccccc; stroke-linecap: round"/>
     </g>
     <g id="text_9">
      <!-- $\mathdefault{200}$ -->
      <g style="fill: #262626" transform="translate(938.086704 461.52165) scale(0.22 -0.22)">
       <use xlink:href="#CMR17-32" transform="scale(0.996264)"/>
       <use xlink:href="#CMR17-30" transform="translate(45.690477 0) scale(0.996264)"/>
       <use xlink:href="#CMR17-30" transform="translate(91.380954 0) scale(0.996264)"/>
      </g>
     </g>
    </g>
    <g id="text_10">
     <!-- Epoch -->
     <g style="fill: #262626" transform="translate(504.031511 486.389243) scale(0.24 -0.24)">
      <defs>
       <path id="CMR17-45" d="M 3885 1615 
L 3770 1615 
C 3629 676 3546 166 2419 166 
L 1530 166 
C 1274 166 1261 197 1261 414 
L 1261 2176 
L 1862 2176 
C 2464 2176 2522 1960 2522 1430 
L 2637 1430 
L 2637 3081 
L 2522 3081 
C 2522 2557 2464 2342 1862 2342 
L 1261 2342 
L 1261 3913 
C 1261 4128 1274 4160 1530 4160 
L 2406 4160 
C 3398 4160 3514 3769 3603 2929 
L 3718 2929 
L 3565 4325 
L 326 4325 
L 326 4160 
C 768 4160 838 4160 838 3874 
L 838 451 
C 838 166 768 166 326 166 
L 326 0 
L 3654 0 
L 3885 1615 
z
" transform="scale(0.015625)"/>
       <path id="CMR17-70" d="M 1408 -1063 
C 998 -1063 973 -1037 973 -789 
L 973 402 
C 1158 134 1427 -38 1766 -38 
C 2406 -38 3053 523 3053 1388 
C 3053 2191 2496 2802 1837 2802 
C 1453 2802 1139 2592 960 2338 
L 960 2802 
L 198 2732 
L 198 2567 
C 576 2567 634 2528 634 2223 
L 634 -789 
C 634 -1031 608 -1063 198 -1063 
L 198 -1228 
C 352 -1216 634 -1216 800 -1216 
C 966 -1216 1254 -1216 1408 -1228 
L 1408 -1063 
z
M 973 2012 
C 973 2102 973 2235 1222 2471 
C 1254 2497 1472 2688 1792 2688 
C 2259 2688 2643 2108 2643 1382 
C 2643 656 2234 64 1728 64 
C 1498 64 1248 172 1056 472 
C 973 612 973 650 973 752 
L 973 2012 
z
" transform="scale(0.015625)"/>
       <path id="CMR17-6f" d="M 2758 1356 
C 2758 2176 2163 2816 1466 2816 
C 768 2816 173 2176 173 1356 
C 173 551 768 -64 1466 -64 
C 2163 -64 2758 551 2758 1356 
z
M 1466 51 
C 1165 51 909 230 762 480 
C 602 767 582 1126 582 1408 
C 582 1677 595 2010 762 2298 
C 890 2509 1139 2714 1466 2714 
C 1754 2714 1997 2554 2150 2330 
C 2349 2029 2349 1607 2349 1408 
C 2349 1158 2336 775 2163 467 
C 1984 173 1709 51 1466 51 
z
" transform="scale(0.015625)"/>
       <path id="CMR17-63" d="M 2234 2240 
C 2112 2240 1933 2240 1933 2017 
C 1933 1838 2080 1787 2163 1787 
C 2208 1787 2394 1807 2394 2024 
C 2394 2467 1958 2803 1466 2803 
C 787 2803 211 2178 211 1363 
C 211 516 813 -64 1466 -64 
C 2259 -64 2458 677 2458 748 
C 2458 774 2451 793 2406 793 
C 2362 793 2355 787 2330 703 
C 2163 180 1798 51 1523 51 
C 1114 51 621 427 621 1369 
C 621 2338 1094 2688 1472 2688 
C 1722 2688 2093 2573 2234 2240 
z
" transform="scale(0.015625)"/>
       <path id="CMR17-68" d="M 2656 1933 
C 2656 2259 2592 2790 1837 2790 
C 1312 2790 1056 2368 979 2157 
L 973 2157 
L 973 4396 
L 211 4326 
L 211 4160 
C 589 4160 646 4122 646 3817 
L 646 426 
C 646 184 621 153 211 153 
L 211 -13 
C 365 0 646 0 813 0 
C 979 0 1267 0 1421 -13 
L 1421 153 
C 1011 153 986 178 986 428 
L 986 1658 
C 986 2247 1344 2688 1792 2688 
C 2266 2688 2317 2266 2317 1958 
L 2317 428 
C 2317 184 2291 153 1882 153 
L 1882 -13 
C 2035 0 2317 0 2483 0 
C 2650 0 2938 0 3091 -13 
L 3091 153 
C 2682 153 2656 178 2656 428 
L 2656 1933 
z
" transform="scale(0.015625)"/>
      </defs>
      <use xlink:href="#CMR17-45" transform="scale(0.996264)"/>
      <use xlink:href="#CMR17-70" transform="translate(62.586301 0) scale(0.996264)"/>
      <use xlink:href="#CMR17-6f" transform="translate(116.084109 0) scale(0.996264)"/>
      <use xlink:href="#CMR17-63" transform="translate(164.377025 0) scale(0.996264)"/>
      <use xlink:href="#CMR17-68" transform="translate(202.260231 0) scale(0.996264)"/>
     </g>
    </g>
   </g>
   <g id="matplotlib.axis_2">
    <g id="ytick_1">
     <g id="line2d_10">
      <path d="M 73.780351 390.178433 
L 995.04 390.178433 
" clip-path="url(#peb12363b81)" style="fill: none; stroke: #cccccc; stroke-linecap: round"/>
     </g>
     <g id="text_11">
      <!-- $\mathdefault{0.9}$ -->
      <g style="fill: #262626" transform="translate(38.215163 397.78878) scale(0.22 -0.22)">
       <defs>
        <path id="CMMI12-3a" d="M 1178 307 
C 1178 492 1024 619 870 619 
C 685 619 557 466 557 313 
C 557 128 710 0 864 0 
C 1050 0 1178 153 1178 307 
z
" transform="scale(0.015625)"/>
        <path id="CMR17-39" d="M 2253 1864 
C 2253 464 1670 31 1190 31 
C 1043 31 685 31 538 294 
C 704 268 826 357 826 518 
C 826 692 685 749 595 749 
C 538 749 365 723 365 506 
C 365 71 742 -128 1203 -128 
C 1939 -128 2688 674 2688 2073 
C 2688 3817 1971 4179 1485 4179 
C 851 4179 243 3628 243 2778 
C 243 1991 762 1408 1414 1408 
C 1952 1408 2189 1903 2253 2112 
L 2253 1864 
z
M 1427 1510 
C 1254 1510 1011 1542 813 1922 
C 678 2169 678 2461 678 2771 
C 678 3146 678 3405 858 3684 
C 947 3817 1114 4032 1485 4032 
C 2240 4032 2240 2885 2240 2632 
C 2240 2182 2035 1510 1427 1510 
z
" transform="scale(0.015625)"/>
       </defs>
       <use xlink:href="#CMR17-30" transform="scale(0.996264)"/>
       <use xlink:href="#CMMI12-3a" transform="translate(45.690477 0) scale(0.996264)"/>
       <use xlink:href="#CMR17-39" transform="translate(72.787654 0) scale(0.996264)"/>
      </g>
     </g>
    </g>
    <g id="ytick_2">
     <g id="line2d_11">
      <path d="M 73.780351 321.277957 
L 995.04 321.277957 
" clip-path="url(#peb12363b81)" style="fill: none; stroke: #cccccc; stroke-linecap: round"/>
     </g>
     <g id="text_12">
      <!-- $\mathdefault{1.0}$ -->
      <g style="fill: #262626" transform="translate(38.215163 328.888303) scale(0.22 -0.22)">
       <use xlink:href="#CMR17-31" transform="scale(0.996264)"/>
       <use xlink:href="#CMMI12-3a" transform="translate(45.690477 0) scale(0.996264)"/>
       <use xlink:href="#CMR17-30" transform="translate(72.787654 0) scale(0.996264)"/>
      </g>
     </g>
    </g>
    <g id="ytick_3">
     <g id="line2d_12">
      <path d="M 73.780351 252.37748 
L 995.04 252.37748 
" clip-path="url(#peb12363b81)" style="fill: none; stroke: #cccccc; stroke-linecap: round"/>
     </g>
     <g id="text_13">
      <!-- $\mathdefault{1.1}$ -->
      <g style="fill: #262626" transform="translate(38.215163 259.987827) scale(0.22 -0.22)">
       <use xlink:href="#CMR17-31" transform="scale(0.996264)"/>
       <use xlink:href="#CMMI12-3a" transform="translate(45.690477 0) scale(0.996264)"/>
       <use xlink:href="#CMR17-31" transform="translate(72.787654 0) scale(0.996264)"/>
      </g>
     </g>
    </g>
    <g id="ytick_4">
     <g id="line2d_13">
      <path d="M 73.780351 183.477003 
L 995.04 183.477003 
" clip-path="url(#peb12363b81)" style="fill: none; stroke: #cccccc; stroke-linecap: round"/>
     </g>
     <g id="text_14">
      <!-- $\mathdefault{1.2}$ -->
      <g style="fill: #262626" transform="translate(38.215163 191.08735) scale(0.22 -0.22)">
       <use xlink:href="#CMR17-31" transform="scale(0.996264)"/>
       <use xlink:href="#CMMI12-3a" transform="translate(45.690477 0) scale(0.996264)"/>
       <use xlink:href="#CMR17-32" transform="translate(72.787654 0) scale(0.996264)"/>
      </g>
     </g>
    </g>
    <g id="ytick_5">
     <g id="line2d_14">
      <path d="M 73.780351 114.576526 
L 995.04 114.576526 
" clip-path="url(#peb12363b81)" style="fill: none; stroke: #cccccc; stroke-linecap: round"/>
     </g>
     <g id="text_15">
      <!-- $\mathdefault{1.3}$ -->
      <g style="fill: #262626" transform="translate(38.215163 122.186873) scale(0.22 -0.22)">
       <defs>
        <path id="CMR17-33" d="M 1414 2157 
C 1984 2157 2234 1662 2234 1090 
C 2234 320 1824 25 1453 25 
C 1114 25 563 194 390 693 
C 422 680 454 680 486 680 
C 640 680 755 782 755 948 
C 755 1133 614 1216 486 1216 
C 378 1216 211 1165 211 926 
C 211 335 787 -128 1466 -128 
C 2176 -128 2720 430 2720 1085 
C 2720 1707 2208 2157 1600 2227 
C 2086 2328 2554 2756 2554 3329 
C 2554 3820 2048 4179 1472 4179 
C 890 4179 378 3829 378 3329 
C 378 3110 544 3072 627 3072 
C 762 3072 877 3155 877 3321 
C 877 3486 762 3569 627 3569 
C 602 3569 570 3569 544 3557 
C 730 3959 1235 4032 1459 4032 
C 1683 4032 2106 3925 2106 3320 
C 2106 3143 2080 2828 1862 2550 
C 1670 2304 1453 2304 1242 2284 
C 1210 2284 1062 2269 1037 2269 
C 992 2263 966 2257 966 2208 
C 966 2163 973 2157 1101 2157 
L 1414 2157 
z
" transform="scale(0.015625)"/>
       </defs>
       <use xlink:href="#CMR17-31" transform="scale(0.996264)"/>
       <use xlink:href="#CMMI12-3a" transform="translate(45.690477 0) scale(0.996264)"/>
       <use xlink:href="#CMR17-33" transform="translate(72.787654 0) scale(0.996264)"/>
      </g>
     </g>
    </g>
    <g id="ytick_6">
     <g id="line2d_15">
      <path d="M 73.780351 45.67605 
L 995.04 45.67605 
" clip-path="url(#peb12363b81)" style="fill: none; stroke: #cccccc; stroke-linecap: round"/>
     </g>
     <g id="text_16">
      <!-- $\mathdefault{1.4}$ -->
      <g style="fill: #262626" transform="translate(38.215163 53.286396) scale(0.22 -0.22)">
       <defs>
        <path id="CMR17-34" d="M 2150 4122 
C 2150 4256 2144 4256 2029 4256 
L 128 1254 
L 128 1088 
L 1779 1088 
L 1779 457 
C 1779 224 1766 160 1318 160 
L 1197 160 
L 1197 0 
C 1402 0 1747 0 1965 0 
C 2182 0 2528 0 2733 0 
L 2733 160 
L 2611 160 
C 2163 160 2150 224 2150 457 
L 2150 1088 
L 2803 1088 
L 2803 1254 
L 2150 1254 
L 2150 4122 
z
M 1798 3703 
L 1798 1254 
L 256 1254 
L 1798 3703 
z
" transform="scale(0.015625)"/>
       </defs>
       <use xlink:href="#CMR17-31" transform="scale(0.996264)"/>
       <use xlink:href="#CMMI12-3a" transform="translate(45.690477 0) scale(0.996264)"/>
       <use xlink:href="#CMR17-34" transform="translate(72.787654 0) scale(0.996264)"/>
      </g>
     </g>
    </g>
    <g id="text_17">
     <!-- Loss -->
     <g style="fill: #262626" transform="translate(29.564405 245.841425) rotate(-90) scale(0.24 -0.24)">
      <defs>
       <path id="CMR17-4c" d="M 3469 1615 
L 3354 1615 
C 3302 983 3219 166 2125 166 
L 1530 166 
C 1274 166 1261 197 1261 414 
L 1261 3898 
C 1261 4129 1274 4192 1760 4192 
L 1901 4192 
L 1901 4352 
C 1638 4352 1331 4352 1069 4352 
C 870 4352 512 4352 326 4352 
L 326 4192 
C 768 4192 838 4192 838 3905 
L 838 452 
C 838 166 768 166 326 166 
L 326 0 
L 3315 0 
L 3469 1615 
z
" transform="scale(0.015625)"/>
       <path id="CMR17-73" d="M 1978 2697 
C 1978 2813 1971 2819 1933 2819 
C 1907 2819 1901 2813 1824 2717 
C 1805 2691 1747 2626 1728 2601 
C 1523 2819 1235 2819 1126 2819 
C 416 2819 160 2447 160 2076 
C 160 1498 813 1365 998 1325 
C 1402 1243 1542 1217 1677 1101 
C 1760 1025 1901 884 1901 654 
C 1901 384 1747 38 1158 38 
C 602 38 403 460 288 1021 
C 269 1110 269 1117 218 1117 
C 166 1117 160 1110 160 983 
L 160 63 
C 160 -51 166 -58 205 -58 
C 237 -58 243 -51 275 0 
C 314 57 410 211 448 276 
C 576 103 800 -64 1158 -64 
C 1792 -64 2131 283 2131 784 
C 2131 1112 1958 1285 1875 1362 
C 1683 1561 1459 1606 1190 1657 
C 838 1735 390 1825 390 2217 
C 390 2383 480 2737 1126 2737 
C 1811 2737 1850 2094 1862 1888 
C 1869 1856 1901 1849 1920 1849 
C 1978 1849 1978 1869 1978 1978 
L 1978 2697 
z
" transform="scale(0.015625)"/>
      </defs>
      <use xlink:href="#CMR17-4c" transform="scale(0.996264)"/>
      <use xlink:href="#CMR17-6f" transform="translate(57.381408 0) scale(0.996264)"/>
      <use xlink:href="#CMR17-73" transform="translate(103.071885 0) scale(0.996264)"/>
      <use xlink:href="#CMR17-73" transform="translate(138.873223 0) scale(0.996264)"/>
     </g>
    </g>
   </g>
   <g id="PolyCollection_1">
    <defs>
     <path id="m1c2e78fdde" d="M 115.65579 -449.798332 
L 115.65579 -414.387114 
L 119.864377 -360.764411 
L 124.072964 -346.121428 
L 128.28155 -359.742417 
L 132.490137 -353.767568 
L 136.698724 -358.208793 
L 140.907311 -358.587179 
L 145.115898 -325.803403 
L 149.324484 -333.753294 
L 153.533071 -358.309514 
L 157.741658 -318.955148 
L 161.950245 -398.568153 
L 166.158831 -433.174732 
L 170.367418 -388.670373 
L 174.576005 -406.109084 
L 178.784592 -387.655859 
L 182.993179 -441.858051 
L 187.201765 -440.510639 
L 191.410352 -441.133281 
L 195.618939 -439.861388 
L 199.827526 -435.098914 
L 204.036113 -402.932953 
L 208.244699 -403.272107 
L 212.453286 -396.325896 
L 216.661873 -405.209933 
L 220.87046 -397.30324 
L 225.079047 -381.089281 
L 229.287633 -397.822442 
L 233.49622 -443.872121 
L 237.704807 -441.250866 
L 241.913394 -441.73122 
L 246.121981 -442.817671 
L 250.330567 -442.012578 
L 254.539154 -441.771064 
L 258.747741 -443.389183 
L 262.956328 -442.76586 
L 267.164914 -442.486813 
L 271.373501 -441.682808 
L 275.582088 -444.638095 
L 279.790675 -444.411176 
L 283.999262 -444.753294 
L 288.207848 -444.08861 
L 292.416435 -445.288932 
L 296.625022 -444.653552 
L 300.833609 -445.195735 
L 305.042196 -444.825803 
L 309.250782 -445.099682 
L 313.459369 -444.877796 
L 317.667956 -445.048152 
L 321.876543 -445.058251 
L 326.08513 -444.877252 
L 330.293716 -444.194956 
L 334.502303 -444.533747 
L 338.71089 -444.255705 
L 342.919477 -444.371559 
L 347.128064 -444.469243 
L 351.33665 -444.212181 
L 355.545237 -445.308106 
L 359.753824 -444.650379 
L 363.962411 -444.980874 
L 368.170997 -444.642945 
L 372.379584 -444.753322 
L 376.588171 -443.550192 
L 380.796758 -444.380239 
L 385.005345 -444.317889 
L 389.213931 -444.231536 
L 393.422518 -443.873345 
L 397.631105 -444.164132 
L 401.839692 -444.31739 
L 406.048279 -444.433844 
L 410.256865 -444.481343 
L 414.465452 -444.672119 
L 418.674039 -444.470286 
L 422.882626 -444.197177 
L 427.091213 -444.309503 
L 431.299799 -444.198899 
L 435.508386 -443.952761 
L 439.716973 -443.710205 
L 443.92556 -444.032246 
L 448.134146 -443.732189 
L 452.342733 -443.169291 
L 456.55132 -443.631694 
L 460.759907 -443.212353 
L 464.968494 -446.84942 
L 469.17708 -444.281075 
L 473.385667 -443.590762 
L 477.594254 -443.911705 
L 481.802841 -443.783003 
L 486.011428 -443.335724 
L 490.220014 -443.477529 
L 494.428601 -443.074416 
L 498.637188 -443.606038 
L 502.845775 -443.357498 
L 507.054362 -443.513702 
L 511.262948 -442.121615 
L 515.471535 -442.41066 
L 519.680122 -443.617805 
L 523.888709 -442.603264 
L 528.097296 -442.691973 
L 532.305882 -442.347562 
L 536.514469 -441.801027 
L 540.723056 -442.498055 
L 544.931643 -442.088641 
L 549.140229 -443.36917 
L 553.348816 -442.90833 
L 557.557403 -442.790269 
L 561.76599 -445.67218 
L 565.974577 -443.833002 
L 570.183163 -442.585903 
L 574.39175 -441.970171 
L 578.600337 -442.191357 
L 582.808924 -441.147968 
L 587.017511 -445.208926 
L 591.226097 -443.678202 
L 595.434684 -443.297213 
L 599.643271 -442.217648 
L 603.851858 -438.191004 
L 608.060445 -442.63303 
L 612.269031 -440.244601 
L 616.477618 -430.081964 
L 620.686205 -436.268001 
L 624.894792 -436.629593 
L 629.103379 -432.604536 
L 633.311965 -438.067437 
L 637.520552 -429.797929 
L 641.729139 -433.461349 
L 645.937726 -424.114362 
L 650.146312 -442.345613 
L 654.354899 -428.595842 
L 658.563486 -432.858697 
L 662.772073 -424.380765 
L 666.98066 -432.558801 
L 671.189246 -430.147372 
L 675.397833 -440.683329 
L 679.60642 -437.560541 
L 683.815007 -432.109993 
L 688.023594 -429.643402 
L 692.23218 -437.053376 
L 696.440767 -433.023786 
L 700.649354 -440.56449 
L 704.857941 -438.496796 
L 709.066528 -432.568862 
L 713.275114 -434.408686 
L 717.483701 -433.866654 
L 721.692288 -438.094816 
L 725.900875 -424.160918 
L 730.109461 -428.52746 
L 734.318048 -439.044365 
L 738.526635 -427.949447 
L 742.735222 -423.257823 
L 746.943809 -431.093349 
L 751.152395 -426.603631 
L 755.360982 -435.118904 
L 759.569569 -436.526695 
L 763.778156 -424.804827 
L 767.986743 -430.068545 
L 772.195329 -436.871379 
L 776.403916 -432.419094 
L 780.612503 -442.547464 
L 784.82109 -433.349386 
L 789.029677 -435.99666 
L 793.238263 -435.231185 
L 797.44685 -438.797283 
L 801.655437 -438.423997 
L 805.864024 -437.648504 
L 810.072611 -436.493832 
L 814.281197 -434.737504 
L 818.489784 -426.554394 
L 822.698371 -421.805564 
L 826.906958 -427.175495 
L 831.115544 -424.356061 
L 835.324131 -432.303277 
L 839.532718 -434.531156 
L 843.741305 -431.57878 
L 847.949892 -433.995555 
L 852.158478 -431.530595 
L 856.367065 -435.570611 
L 860.575652 -434.522167 
L 864.784239 -426.3976 
L 868.992826 -435.76258 
L 873.201412 -428.353286 
L 877.409999 -417.17441 
L 881.618586 -409.595389 
L 885.827173 -415.853289 
L 890.03576 -435.731849 
L 894.244346 -434.608678 
L 898.452933 -431.856739 
L 902.66152 -433.766954 
L 906.870107 -430.522019 
L 911.078694 -442.026631 
L 915.28728 -435.297864 
L 919.495867 -428.411579 
L 923.704454 -430.141208 
L 927.913041 -436.874144 
L 932.121627 -435.672737 
L 936.330214 -435.705329 
L 940.538801 -436.217731 
L 944.747388 -434.832741 
L 948.955975 -426.0948 
L 953.164561 -440.726084 
L 953.164561 -446.18346 
L 953.164561 -446.18346 
L 948.955975 -463.695241 
L 944.747388 -457.619488 
L 940.538801 -443.199842 
L 936.330214 -453.486684 
L 932.121627 -445.929165 
L 927.913041 -446.246014 
L 923.704454 -456.458833 
L 919.495867 -455.334486 
L 915.28728 -447.36678 
L 911.078694 -448.425128 
L 906.870107 -454.046953 
L 902.66152 -447.594922 
L 898.452933 -470.63429 
L 894.244346 -446.048061 
L 890.03576 -444.661348 
L 885.827173 -446.709596 
L 881.618586 -471.774502 
L 877.409999 -445.201129 
L 873.201412 -445.769241 
L 868.992826 -445.901874 
L 864.784239 -446.199416 
L 860.575652 -446.095612 
L 856.367065 -445.980475 
L 852.158478 -446.070726 
L 847.949892 -446.466178 
L 843.741305 -447.260166 
L 839.532718 -447.37843 
L 835.324131 -446.831034 
L 831.115544 -446.398502 
L 826.906958 -465.322335 
L 822.698371 -445.897568 
L 818.489784 -446.685164 
L 814.281197 -446.440023 
L 810.072611 -446.358159 
L 805.864024 -449.328948 
L 801.655437 -445.922454 
L 797.44685 -464.23203 
L 793.238263 -446.589157 
L 789.029677 -444.797382 
L 784.82109 -446.103454 
L 780.612503 -446.291615 
L 776.403916 -446.399468 
L 772.195329 -466.192883 
L 767.986743 -445.397178 
L 763.778156 -445.557513 
L 759.569569 -445.979266 
L 755.360982 -438.648256 
L 751.152395 -446.20753 
L 746.943809 -447.441891 
L 742.735222 -447.375121 
L 738.526635 -445.681212 
L 734.318048 -446.586392 
L 730.109461 -446.396145 
L 725.900875 -447.141358 
L 721.692288 -446.411965 
L 717.483701 -446.21238 
L 713.275114 -446.209011 
L 709.066528 -446.70937 
L 704.857941 -446.914938 
L 700.649354 -445.834895 
L 696.440767 -445.29759 
L 692.23218 -446.738879 
L 688.023594 -451.10934 
L 683.815007 -446.869406 
L 679.60642 -446.942589 
L 675.397833 -446.98615 
L 671.189246 -446.360272 
L 666.98066 -448.706214 
L 662.772073 -448.793791 
L 658.563486 -446.633081 
L 654.354899 -446.683124 
L 650.146312 -447.82728 
L 645.937726 -448.012903 
L 641.729139 -446.777318 
L 637.520552 -446.62057 
L 633.311965 -449.613151 
L 629.103379 -460.841764 
L 624.894792 -447.108857 
L 620.686205 -447.119464 
L 616.477618 -446.760139 
L 612.269031 -446.835521 
L 608.060445 -450.011153 
L 603.851858 -447.009132 
L 599.643271 -454.62992 
L 595.434684 -448.118067 
L 591.226097 -447.00634 
L 587.017511 -450.815578 
L 582.808924 -447.19471 
L 578.600337 -449.969088 
L 574.39175 -447.54982 
L 570.183163 -448.372682 
L 565.974577 -447.619309 
L 561.76599 -471.477686 
L 557.557403 -446.502623 
L 553.348816 -447.203277 
L 549.140229 -466.202904 
L 544.931643 -448.689171 
L 540.723056 -448.041008 
L 536.514469 -447.469935 
L 532.305882 -447.210893 
L 528.097296 -447.018243 
L 523.888709 -446.811451 
L 519.680122 -447.203322 
L 515.471535 -447.028578 
L 511.262948 -446.963395 
L 507.054362 -452.728912 
L 502.845775 -447.297653 
L 498.637188 -446.699573 
L 494.428601 -447.100743 
L 490.220014 -457.810325 
L 486.011428 -446.869771 
L 481.802841 -449.636552 
L 477.594254 -446.880676 
L 473.385667 -449.27458 
L 469.17708 -448.725978 
L 464.968494 -462.411018 
L 460.759907 -461.053733 
L 456.55132 -446.777645 
L 452.342733 -447.079483 
L 448.134146 -466.949971 
L 443.92556 -447.980301 
L 439.716973 -447.362021 
L 435.508386 -447.011761 
L 431.299799 -446.697086 
L 427.091213 -447.823518 
L 422.882626 -447.036904 
L 418.674039 -446.068958 
L 414.465452 -447.313517 
L 410.256865 -451.65239 
L 406.048279 -446.636254 
L 401.839692 -446.36727 
L 397.631105 -446.694366 
L 393.422518 -446.538705 
L 389.213931 -448.956976 
L 385.005345 -448.480928 
L 380.796758 -446.736839 
L 376.588171 -447.044534 
L 372.379584 -446.525696 
L 368.170997 -446.58153 
L 363.962411 -467.451393 
L 359.753824 -452.565285 
L 355.545237 -461.068818 
L 351.33665 -445.9618 
L 347.128064 -446.484627 
L 342.919477 -446.338461 
L 338.71089 -455.873858 
L 334.502303 -446.527418 
L 330.293716 -446.113426 
L 326.08513 -445.51508 
L 321.876543 -456.277788 
L 317.667956 -445.514083 
L 313.459369 -445.707774 
L 309.250782 -454.543218 
L 305.042196 -446.064334 
L 300.833609 -447.181655 
L 296.625022 -445.946687 
L 292.416435 -446.62755 
L 288.207848 -449.656088 
L 283.999262 -448.517282 
L 279.790675 -448.426967 
L 275.582088 -468.024544 
L 271.373501 -447.354994 
L 267.164914 -445.649164 
L 262.956328 -446.23237 
L 258.747741 -449.2673 
L 254.539154 -447.026629 
L 250.330567 -446.6356 
L 246.121981 -446.007945 
L 241.913394 -447.418093 
L 237.704807 -446.224165 
L 233.49622 -451.715896 
L 229.287633 -446.324298 
L 225.079047 -446.240983 
L 220.87046 -445.850335 
L 216.661873 -446.008534 
L 212.453286 -445.991626 
L 208.244699 -450.030554 
L 204.036113 -445.915428 
L 199.827526 -446.936515 
L 195.618939 -446.54147 
L 191.410352 -446.196243 
L 187.201765 -446.045523 
L 182.993179 -445.739596 
L 178.784592 -445.868693 
L 174.576005 -445.760311 
L 170.367418 -445.814616 
L 166.158831 -446.146698 
L 161.950245 -446.581541 
L 157.741658 -445.673868 
L 153.533071 -445.997111 
L 149.324484 -445.87028 
L 145.115898 -445.709633 
L 140.907311 -445.388792 
L 136.698724 -445.398946 
L 132.490137 -445.189888 
L 128.28155 -442.662645 
L 124.072964 -443.077771 
L 119.864377 -440.029015 
L 115.65579 -449.798332 
z
" style="stroke: #0000ff; stroke-opacity: 0.2"/>
    </defs>
    <g clip-path="url(#peb12363b81)">
     <use xlink:href="#m1c2e78fdde" x="0" y="504" style="fill: #0000ff; fill-opacity: 0.2; stroke: #0000ff; stroke-opacity: 0.2"/>
    </g>
   </g>
   <g id="PolyCollection_2">
    <defs>
     <path id="mcc452ed37d" d="M 115.65579 -315.367972 
L 115.65579 -248.113673 
L 119.864377 -186.264525 
L 124.072964 -175.423443 
L 128.28155 -169.266143 
L 132.490137 -160.172867 
L 136.698724 -152.883015 
L 140.907311 -152.451752 
L 145.115898 -148.715851 
L 149.324484 -145.0537 
L 153.533071 -144.114477 
L 157.741658 -140.718998 
L 161.950245 -141.327952 
L 166.158831 -138.734257 
L 170.367418 -135.969852 
L 174.576005 -137.415356 
L 178.784592 -133.840419 
L 182.993179 -135.404913 
L 187.201765 -134.588488 
L 191.410352 -137.450396 
L 195.618939 -135.336964 
L 199.827526 -135.02043 
L 204.036113 -133.601987 
L 208.244699 -132.919192 
L 212.453286 -131.168168 
L 216.661873 -129.854118 
L 220.87046 -130.234204 
L 225.079047 -128.464142 
L 229.287633 -127.412911 
L 233.49622 -126.764521 
L 237.704807 -128.124852 
L 241.913394 -131.042742 
L 246.121981 -126.787594 
L 250.330567 -127.58489 
L 254.539154 -127.458376 
L 258.747741 -126.271022 
L 262.956328 -126.094056 
L 267.164914 -126.549026 
L 271.373501 -125.143411 
L 275.582088 -125.294629 
L 279.790675 -121.806448 
L 283.999262 -123.399965 
L 288.207848 -121.821909 
L 292.416435 -123.938469 
L 296.625022 -123.537984 
L 300.833609 -121.671869 
L 305.042196 -120.833187 
L 309.250782 -121.997334 
L 313.459369 -115.296717 
L 317.667956 -120.06803 
L 321.876543 -118.832127 
L 326.08513 -119.292083 
L 330.293716 -117.51087 
L 334.502303 -119.497787 
L 338.71089 -115.970174 
L 342.919477 -119.377529 
L 347.128064 -114.797415 
L 351.33665 -117.976447 
L 355.545237 -118.187092 
L 359.753824 -108.570489 
L 363.962411 -113.065021 
L 368.170997 -113.824105 
L 372.379584 -112.587478 
L 376.588171 -115.905987 
L 380.796758 -114.312256 
L 385.005345 -113.489258 
L 389.213931 -115.074603 
L 393.422518 -115.931236 
L 397.631105 -114.454001 
L 401.839692 -115.82793 
L 406.048279 -115.351112 
L 410.256865 -114.791603 
L 414.465452 -116.40173 
L 418.674039 -113.915974 
L 422.882626 -114.974018 
L 427.091213 -114.064214 
L 431.299799 -114.251515 
L 435.508386 -112.673558 
L 439.716973 -112.718247 
L 443.92556 -113.582482 
L 448.134146 -113.870477 
L 452.342733 -105.495925 
L 456.55132 -111.378728 
L 460.759907 -111.812456 
L 464.968494 -110.756266 
L 469.17708 -102.179426 
L 473.385667 -104.924974 
L 477.594254 -104.731735 
L 481.802841 -106.823998 
L 486.011428 -108.383143 
L 490.220014 -107.026892 
L 494.428601 -99.285209 
L 498.637188 -102.002279 
L 502.845775 -106.858584 
L 507.054362 -105.686717 
L 511.262948 -106.595698 
L 515.471535 -107.454029 
L 519.680122 -110.574529 
L 523.888709 -109.16122 
L 528.097296 -109.9315 
L 532.305882 -110.342914 
L 536.514469 -107.664528 
L 540.723056 -108.938563 
L 544.931643 -109.572415 
L 549.140229 -108.687121 
L 553.348816 -98.017747 
L 557.557403 -100.374732 
L 561.76599 -100.132183 
L 565.974577 -98.448 
L 570.183163 -97.007888 
L 574.39175 -97.834027 
L 578.600337 -97.426925 
L 582.808924 -99.49839 
L 587.017511 -99.868268 
L 591.226097 -99.635457 
L 595.434684 -102.656404 
L 599.643271 -103.928637 
L 603.851858 -104.7049 
L 608.060445 -105.186343 
L 612.269031 -103.269096 
L 616.477618 -105.642899 
L 620.686205 -108.231381 
L 624.894792 -107.191333 
L 629.103379 -104.262532 
L 633.311965 -92.563549 
L 637.520552 -100.827211 
L 641.729139 -100.742307 
L 645.937726 -103.62854 
L 650.146312 -103.901349 
L 654.354899 -101.435029 
L 658.563486 -102.106491 
L 662.772073 -103.086736 
L 666.98066 -104.973559 
L 671.189246 -102.745838 
L 675.397833 -103.86368 
L 679.60642 -101.403978 
L 683.815007 -103.727373 
L 688.023594 -101.304027 
L 692.23218 -100.385747 
L 696.440767 -104.176135 
L 700.649354 -107.673831 
L 704.857941 -99.01975 
L 709.066528 -100.570373 
L 713.275114 -101.174223 
L 717.483701 -101.261644 
L 721.692288 -103.260166 
L 725.900875 -101.360326 
L 730.109461 -102.438891 
L 734.318048 -102.491609 
L 738.526635 -105.200168 
L 742.735222 -97.978491 
L 746.943809 -98.128395 
L 751.152395 -102.387669 
L 755.360982 -107.498693 
L 759.569569 -103.126524 
L 763.778156 -103.137795 
L 767.986743 -103.794326 
L 772.195329 -99.656399 
L 776.403916 -89.799119 
L 780.612503 -92.269407 
L 784.82109 -100.005888 
L 789.029677 -102.954874 
L 793.238263 -99.512116 
L 797.44685 -98.75267 
L 801.655437 -98.90969 
L 805.864024 -101.427776 
L 810.072611 -100.718192 
L 814.281197 -97.376156 
L 818.489784 -97.611642 
L 822.698371 -98.675655 
L 826.906958 -98.588805 
L 831.115544 -90.786143 
L 835.324131 -95.11264 
L 839.532718 -95.109693 
L 843.741305 -95.082904 
L 847.949892 -94.486733 
L 852.158478 -97.757919 
L 856.367065 -97.191575 
L 860.575652 -97.745363 
L 864.784239 -97.658875 
L 868.992826 -96.839911 
L 873.201412 -95.468066 
L 877.409999 -97.607698 
L 881.618586 -107.541107 
L 885.827173 -94.928421 
L 890.03576 -100.366573 
L 894.244346 -97.146382 
L 898.452933 -95.415439 
L 902.66152 -87.033651 
L 906.870107 -88.869123 
L 911.078694 -87.874282 
L 915.28728 -88.312162 
L 919.495867 -89.79597 
L 923.704454 -91.524013 
L 927.913041 -95.830655 
L 932.121627 -97.886073 
L 936.330214 -102.005316 
L 940.538801 -100.549658 
L 944.747388 -98.36864 
L 948.955975 -93.840836 
L 953.164561 -86.464542 
L 953.164561 -126.231948 
L 953.164561 -126.231948 
L 948.955975 -133.626918 
L 944.747388 -111.46449 
L 940.538801 -115.51398 
L 936.330214 -121.116359 
L 932.121627 -111.742223 
L 927.913041 -122.640374 
L 923.704454 -126.799243 
L 919.495867 -133.823783 
L 915.28728 -113.114884 
L 911.078694 -116.189885 
L 906.870107 -125.305146 
L 902.66152 -120.922605 
L 898.452933 -132.456879 
L 894.244346 -116.809173 
L 890.03576 -119.891608 
L 885.827173 -157.068311 
L 881.618586 -152.40807 
L 877.409999 -150.861239 
L 873.201412 -127.276833 
L 868.992826 -119.451642 
L 864.784239 -132.15612 
L 860.575652 -124.442416 
L 856.367065 -115.704091 
L 852.158478 -132.240205 
L 847.949892 -118.37344 
L 843.741305 -130.568961 
L 839.532718 -129.294378 
L 835.324131 -131.00326 
L 831.115544 -136.952091 
L 826.906958 -139.538398 
L 822.698371 -145.524036 
L 818.489784 -135.93114 
L 814.281197 -122.595091 
L 810.072611 -116.178326 
L 805.864024 -109.338865 
L 801.655437 -108.317416 
L 797.44685 -132.654197 
L 793.238263 -117.796263 
L 789.029677 -116.738187 
L 784.82109 -132.074436 
L 780.612503 -123.108807 
L 776.403916 -125.521865 
L 772.195329 -122.643865 
L 767.986743 -130.774166 
L 763.778156 -135.131115 
L 759.569569 -127.583912 
L 755.360982 -135.654632 
L 751.152395 -176.432343 
L 746.943809 -127.47125 
L 742.735222 -142.692272 
L 738.526635 -134.809559 
L 734.318048 -117.332318 
L 730.109461 -143.132605 
L 725.900875 -141.35048 
L 721.692288 -114.460936 
L 717.483701 -127.042975 
L 713.275114 -124.726155 
L 709.066528 -132.133228 
L 704.857941 -110.49313 
L 700.649354 -127.992174 
L 696.440767 -121.771005 
L 692.23218 -130.196898 
L 688.023594 -136.547936 
L 683.815007 -131.530304 
L 679.60642 -112.510998 
L 675.397833 -119.496365 
L 671.189246 -135.7418 
L 666.98066 -131.523982 
L 662.772073 -139.619718 
L 658.563486 -126.809851 
L 654.354899 -137.0476 
L 650.146312 -108.040091 
L 645.937726 -144.331565 
L 641.729139 -127.168269 
L 637.520552 -133.911948 
L 633.311965 -138.680451 
L 629.103379 -128.99531 
L 624.894792 -130.472319 
L 620.686205 -124.072462 
L 616.477618 -141.077318 
L 612.269031 -121.233671 
L 608.060445 -120.062771 
L 603.851858 -126.131045 
L 599.643271 -115.410779 
L 595.434684 -118.185959 
L 591.226097 -110.274915 
L 587.017511 -128.134797 
L 582.808924 -111.317624 
L 578.600337 -115.74797 
L 574.39175 -109.805847 
L 570.183163 -111.004897 
L 565.974577 -111.972496 
L 561.76599 -114.206956 
L 557.557403 -120.025964 
L 553.348816 -109.702225 
L 549.140229 -123.903988 
L 544.931643 -114.918988 
L 540.723056 -117.218859 
L 536.514469 -113.877412 
L 532.305882 -119.970436 
L 528.097296 -118.783942 
L 523.888709 -114.902209 
L 519.680122 -117.056148 
L 515.471535 -114.537539 
L 511.262948 -115.202387 
L 507.054362 -117.502404 
L 502.845775 -115.864511 
L 498.637188 -118.460257 
L 494.428601 -117.57628 
L 490.220014 -117.93216 
L 486.011428 -116.513796 
L 481.802841 -115.135934 
L 477.594254 -116.872226 
L 473.385667 -121.998776 
L 469.17708 -134.194576 
L 464.968494 -121.968957 
L 460.759907 -125.427008 
L 456.55132 -122.875815 
L 452.342733 -126.352025 
L 448.134146 -123.896459 
L 443.92556 -124.426619 
L 439.716973 -128.579278 
L 435.508386 -124.476028 
L 431.299799 -123.417953 
L 427.091213 -121.896476 
L 422.882626 -129.049858 
L 418.674039 -125.954578 
L 414.465452 -125.257175 
L 410.256865 -132.822369 
L 406.048279 -124.004196 
L 401.839692 -123.806334 
L 397.631105 -124.076405 
L 393.422518 -126.820548 
L 389.213931 -129.834128 
L 385.005345 -134.352186 
L 380.796758 -124.506836 
L 376.588171 -123.485131 
L 372.379584 -127.460688 
L 368.170997 -126.9006 
L 363.962411 -132.760802 
L 359.753824 -132.088262 
L 355.545237 -131.198358 
L 351.33665 -132.940361 
L 347.128064 -134.757566 
L 342.919477 -132.921549 
L 338.71089 -138.801344 
L 334.502303 -135.379529 
L 330.293716 -131.052896 
L 326.08513 -133.647996 
L 321.876543 -138.53168 
L 317.667956 -135.934676 
L 313.459369 -137.622194 
L 309.250782 -135.433153 
L 305.042196 -133.998255 
L 300.833609 -159.482502 
L 296.625022 -133.214286 
L 292.416435 -138.572794 
L 288.207848 -138.349817 
L 283.999262 -141.764835 
L 279.790675 -136.666744 
L 275.582088 -161.750335 
L 271.373501 -145.110814 
L 267.164914 -147.309238 
L 262.956328 -146.032086 
L 258.747741 -146.683332 
L 254.539154 -147.6454 
L 250.330567 -148.098641 
L 246.121981 -146.036801 
L 241.913394 -149.825284 
L 237.704807 -148.640241 
L 233.49622 -154.319227 
L 229.287633 -244.372468 
L 225.079047 -250.801199 
L 220.87046 -218.767645 
L 216.661873 -228.545892 
L 212.453286 -224.744807 
L 208.244699 -219.08776 
L 204.036113 -227.733592 
L 199.827526 -182.100217 
L 195.618939 -162.659992 
L 191.410352 -155.867221 
L 187.201765 -157.168579 
L 182.993179 -161.208504 
L 178.784592 -258.353507 
L 174.576005 -216.579964 
L 170.367418 -255.163642 
L 166.158831 -185.003556 
L 161.950245 -254.927975 
L 157.741658 -392.484423 
L 153.533071 -331.379899 
L 149.324484 -349.466183 
L 145.115898 -370.419453 
L 140.907311 -308.794128 
L 136.698724 -334.957103 
L 132.490137 -343.113877 
L 128.28155 -331.247447 
L 124.072964 -353.562317 
L 119.864377 -335.014036 
L 115.65579 -315.367972 
z
" style="stroke: #ff0000; stroke-opacity: 0.2"/>
    </defs>
    <g clip-path="url(#peb12363b81)">
     <use xlink:href="#mcc452ed37d" x="0" y="504" style="fill: #ff0000; fill-opacity: 0.2; stroke: #ff0000; stroke-opacity: 0.2"/>
    </g>
   </g>
   <g id="line2d_16">
    <path d="M 115.65579 84.799236 
L 119.864377 121.267579 
L 124.072964 135.574581 
L 128.28155 121.561131 
L 132.490137 86.71331 
L 136.698724 116.018042 
L 140.907311 82.788204 
L 145.115898 123.847539 
L 149.324484 117.290389 
L 153.533071 129.738167 
L 157.741658 87.095254 
L 161.950245 65.457739 
L 166.158831 63.891613 
L 170.367418 63.981501 
L 174.576005 62.149927 
L 182.993179 61.605976 
L 187.201765 62.603854 
L 191.410352 61.28092 
L 195.618939 59.392457 
L 199.827526 58.43252 
L 204.036113 60.954685 
L 208.244699 58.26054 
L 216.661873 58.428712 
L 220.87046 60.311145 
L 225.079047 58.811563 
L 229.287633 61.332414 
L 233.49622 58.61846 
L 237.704807 58.90059 
L 241.913394 58.515789 
L 246.121981 58.837899 
L 250.330567 58.558762 
L 254.539154 58.686953 
L 258.747741 59.394407 
L 262.956328 59.358823 
L 267.164914 58.558943 
L 271.373501 58.723352 
L 275.582088 58.2915 
L 279.790675 58.253424 
L 283.999262 57.889974 
L 288.207848 58.63981 
L 292.416435 58.031356 
L 296.625022 58.467559 
L 300.833609 58.341816 
L 305.042196 58.336059 
L 309.250782 58.149348 
L 313.459369 58.897779 
L 317.667956 58.813421 
L 321.876543 58.583421 
L 326.08513 58.796242 
L 330.293716 58.597563 
L 334.502303 58.852677 
L 338.71089 58.245718 
L 342.919477 58.079722 
L 347.128064 59.209826 
L 351.33665 58.590265 
L 359.753824 58.099078 
L 368.170997 57.991511 
L 372.379584 58.171423 
L 376.588171 58.174007 
L 380.796758 58.830647 
L 385.005345 57.423808 
L 389.213931 58.878887 
L 393.422518 58.893926 
L 397.631105 58.411351 
L 401.839692 58.566649 
L 406.048279 57.729689 
L 410.256865 57.771846 
L 414.465452 58.770177 
L 418.674039 58.57023 
L 422.882626 57.803032 
L 427.091213 58.142231 
L 431.299799 58.079314 
L 435.508386 58.220469 
L 439.716973 57.877825 
L 452.342733 58.860772 
L 456.55132 59.322877 
L 460.759907 57.090094 
L 464.968494 56.804474 
L 473.385667 57.749045 
L 477.594254 57.849404 
L 481.802841 57.711104 
L 486.011428 58.29337 
L 490.220014 56.975365 
L 494.428601 57.917081 
L 502.845775 58.086521 
L 507.054362 57.146755 
L 511.262948 57.876012 
L 515.471535 57.740614 
L 519.680122 57.895368 
L 523.888709 58.294784 
L 528.097296 58.393038 
L 532.305882 57.450685 
L 536.514469 57.967215 
L 540.723056 57.984063 
L 544.931643 58.40369 
L 549.140229 57.393573 
L 553.348816 57.527702 
L 557.557403 57.887163 
L 561.76599 56.993542 
L 565.974577 57.823706 
L 570.183163 57.204788 
L 574.39175 57.36905 
L 582.808924 57.3905 
L 587.017511 57.918078 
L 591.226097 58.223416 
L 595.434684 57.979862 
L 599.643271 58.579522 
L 603.851858 58.441857 
L 608.060445 59.741221 
L 612.269031 59.679845 
L 616.477618 62.142357 
L 620.686205 60.0282 
L 624.894792 59.41736 
L 629.103379 57.593974 
L 633.311965 59.285299 
L 637.520552 59.213807 
L 641.729139 58.060157 
L 645.937726 61.339318 
L 650.146312 57.847364 
L 654.354899 58.975292 
L 666.98066 58.788354 
L 671.189246 61.100722 
L 675.397833 60.902918 
L 683.815007 58.063086 
L 688.023594 59.879339 
L 692.23218 62.797909 
L 696.440767 60.454386 
L 700.649354 59.474503 
L 704.857941 58.93164 
L 709.066528 57.75734 
L 713.275114 59.393863 
L 717.483701 63.029224 
L 721.692288 59.477495 
L 725.900875 59.667787 
L 730.109461 59.066857 
L 734.318048 61.148513 
L 738.526635 61.146292 
L 742.735222 60.043703 
L 746.943809 59.794396 
L 751.152395 65.589738 
L 755.360982 67.249202 
L 759.569569 64.574994 
L 763.778156 63.423861 
L 767.986743 60.76675 
L 772.195329 58.790847 
L 776.403916 58.636093 
L 780.612503 59.328543 
L 784.82109 62.808289 
L 789.029677 62.317645 
L 793.238263 60.260603 
L 797.44685 57.771166 
L 801.655437 60.365994 
L 805.864024 58.9888 
L 810.072611 62.902211 
L 814.281197 58.778835 
L 818.489784 61.431458 
L 822.698371 60.266707 
L 826.906958 58.082532 
L 831.115544 65.435155 
L 835.324131 64.334525 
L 839.532718 64.591558 
L 843.741305 60.41844 
L 847.949892 60.897117 
L 852.158478 61.077029 
L 856.367065 60.2684 
L 860.575652 63.35088 
L 864.784239 67.17114 
L 868.992826 60.778354 
L 873.201412 67.086465 
L 877.409999 67.714094 
L 881.618586 65.17833 
L 885.827173 62.004375 
L 890.03576 66.740693 
L 894.244346 61.282144 
L 898.452933 60.621742 
L 902.66152 60.488694 
L 906.870107 60.83973 
L 911.078694 59.179772 
L 915.28728 60.983922 
L 919.495867 62.622031 
L 923.704454 57.717315 
L 927.913041 58.171423 
L 932.121627 60.621152 
L 936.330214 60.299496 
L 940.538801 61.334454 
L 944.747388 59.791672 
L 948.955975 58.799868 
L 953.164561 60.319894 
L 953.164561 60.319894 
" clip-path="url(#peb12363b81)" style="fill: none; stroke: #0000ff; stroke-width: 2; stroke-linecap: round"/>
   </g>
   <g id="line2d_17">
    <path d="M 115.65579 199.106714 
L 119.864377 206.510251 
L 124.072964 177.868051 
L 128.28155 213.513305 
L 132.490137 273.443755 
L 136.698724 233.110413 
L 140.907311 276.705694 
L 145.115898 234.718152 
L 149.324484 233.576353 
L 153.533071 226.05845 
L 157.741658 300.83795 
L 161.950245 336.066855 
L 166.158831 345.076317 
L 170.367418 344.57493 
L 174.576005 348.194336 
L 178.784592 351.42391 
L 182.993179 352.767106 
L 187.201765 351.86664 
L 191.410352 353.306842 
L 195.618939 348.651345 
L 199.827526 351.301339 
L 204.036113 358.429184 
L 208.244699 336.594487 
L 212.453286 361.197805 
L 216.661873 362.568607 
L 220.87046 361.313122 
L 225.079047 361.404733 
L 229.287633 364.629185 
L 233.49622 360.636447 
L 237.704807 369.91639 
L 241.913394 359.283006 
L 246.121981 362.711848 
L 250.330567 365.573484 
L 254.539154 370.29362 
L 258.747741 369.976088 
L 262.956328 368.119719 
L 267.164914 368.356338 
L 271.373501 368.82953 
L 275.582088 372.188247 
L 279.790675 374.853925 
L 283.999262 372.095277 
L 288.207848 372.81166 
L 292.416435 373.279775 
L 296.625022 372.784303 
L 300.833609 375.633905 
L 305.042196 374.165101 
L 309.250782 375.973467 
L 313.459369 374.299638 
L 317.667956 373.139119 
L 321.876543 374.218907 
L 326.08513 381.378936 
L 330.293716 378.447266 
L 334.502303 379.631402 
L 338.71089 377.65491 
L 342.919477 383.070186 
L 347.128064 379.149461 
L 351.33665 381.258541 
L 355.545237 378.574641 
L 359.753824 381.217654 
L 363.962411 381.537815 
L 368.170997 386.309762 
L 372.379584 383.277733 
L 376.588171 381.558077 
L 380.796758 381.268695 
L 385.005345 379.30621 
L 389.213931 381.151292 
L 393.422518 384.159206 
L 397.631105 382.617649 
L 401.839692 382.077958 
L 406.048279 382.593261 
L 410.256865 383.73855 
L 414.465452 386.621754 
L 418.674039 382.755812 
L 422.882626 384.295738 
L 427.091213 384.653794 
L 431.299799 383.855092 
L 435.508386 382.937449 
L 439.716973 383.162688 
L 443.92556 385.709667 
L 448.134146 387.109624 
L 452.342733 390.001558 
L 456.55132 387.990163 
L 460.759907 390.068603 
L 464.968494 390.692312 
L 469.17708 388.658972 
L 473.385667 389.643865 
L 477.594254 391.158052 
L 481.802841 390.392207 
L 486.011428 391.356858 
L 490.220014 388.921317 
L 494.428601 391.541665 
L 498.637188 390.723926 
L 502.845775 390.385089 
L 507.054362 391.251196 
L 511.262948 392.680889 
L 515.471535 390.458069 
L 519.680122 391.725022 
L 523.888709 391.726065 
L 528.097296 390.824783 
L 532.305882 392.227089 
L 536.514469 391.904824 
L 540.723056 390.011712 
L 544.931643 391.348925 
L 549.140229 388.279031 
L 553.348816 394.638787 
L 557.557403 392.592534 
L 561.76599 393.409412 
L 565.974577 395.03705 
L 570.183163 395.702153 
L 574.39175 396.938711 
L 578.600337 395.081654 
L 582.808924 394.775783 
L 587.017511 393.962203 
L 591.226097 396.303047 
L 595.434684 396.201795 
L 599.643271 393.203708 
L 603.851858 397.731965 
L 608.060445 396.500143 
L 612.269031 396.133066 
L 616.477618 396.493933 
L 620.686205 395.564728 
L 629.103379 396.181886 
L 633.311965 395.675094 
L 637.520552 400.014775 
L 641.729139 398.612947 
L 645.937726 389.806915 
L 650.146312 398.370927 
L 654.354899 393.902549 
L 658.563486 400.653119 
L 662.772073 392.551601 
L 666.98066 395.893275 
L 671.189246 393.9433 
L 675.397833 397.681285 
L 679.60642 398.902458 
L 683.815007 396.693817 
L 688.023594 394.104537 
L 692.23218 397.188513 
L 696.440767 389.515894 
L 700.649354 396.053956 
L 704.857941 398.21526 
L 709.066528 394.876086 
L 713.275114 397.515971 
L 717.483701 398.168849 
L 721.692288 396.306859 
L 725.900875 398.14147 
L 730.109461 395.388261 
L 734.318048 398.013558 
L 738.526635 395.985021 
L 742.735222 399.525554 
L 751.152395 394.823051 
L 755.360982 376.114422 
L 759.569569 392.431162 
L 763.778156 395.48445 
L 767.986743 395.331917 
L 772.195329 402.089422 
L 776.403916 400.39719 
L 780.612503 399.061382 
L 784.82109 401.963633 
L 789.029677 395.246789 
L 793.238263 400.841054 
L 797.44685 394.761045 
L 801.655437 398.043513 
L 805.864024 397.718321 
L 810.072611 397.753542 
L 814.281197 396.757658 
L 818.489784 395.119867 
L 822.698371 398.897698 
L 826.906958 398.05412 
L 831.115544 390.288629 
L 835.324131 392.261132 
L 839.532718 394.78298 
L 843.741305 400.378786 
L 847.949892 401.326938 
L 852.158478 398.639457 
L 856.367065 396.48593 
L 860.575652 387.407773 
L 864.784239 397.540993 
L 868.992826 395.027803 
L 873.201412 380.491389 
L 877.409999 396.014893 
L 881.618586 390.259165 
L 885.827173 395.499137 
L 890.03576 395.09548 
L 894.244346 394.147101 
L 898.452933 392.902541 
L 902.66152 400.023079 
L 906.870107 399.937914 
L 911.078694 402.91387 
L 915.28728 400.18999 
L 919.495867 392.474859 
L 923.704454 399.93329 
L 927.913041 402.71619 
L 936.330214 398.102124 
L 940.538801 395.871516 
L 944.747388 397.238783 
L 948.955975 399.214776 
L 953.164561 400.666128 
L 953.164561 400.666128 
" clip-path="url(#peb12363b81)" style="fill: none; stroke: #ff0000; stroke-width: 2; stroke-linecap: round"/>
   </g>
   <g id="patch_3">
    <path d="M 73.780351 436.800956 
L 73.780351 12.96 
" style="fill: none; stroke: #cccccc; stroke-width: 1.25; stroke-linejoin: miter; stroke-linecap: square"/>
   </g>
   <g id="patch_4">
    <path d="M 995.04 436.800956 
L 995.04 12.96 
" style="fill: none; stroke: #cccccc; stroke-width: 1.25; stroke-linejoin: miter; stroke-linecap: square"/>
   </g>
   <g id="patch_5">
    <path d="M 73.780351 436.800956 
L 995.04 436.800956 
" style="fill: none; stroke: #cccccc; stroke-width: 1.25; stroke-linejoin: miter; stroke-linecap: square"/>
   </g>
   <g id="patch_6">
    <path d="M 73.780351 12.96 
L 995.04 12.96 
" style="fill: none; stroke: #cccccc; stroke-width: 1.25; stroke-linejoin: miter; stroke-linecap: square"/>
   </g>
   <g id="legend_1">
    <g id="patch_7">
     <path d="M 793.138607 261.060221 
L 979.64 261.060221 
Q 984.04 261.060221 984.04 256.660221 
L 984.04 193.100735 
Q 984.04 188.700735 979.64 188.700735 
L 793.138607 188.700735 
Q 788.738607 188.700735 788.738607 193.100735 
L 788.738607 256.660221 
Q 788.738607 261.060221 793.138607 261.060221 
z
" style="fill: #ffffff; opacity: 0.8; stroke: #cccccc; stroke-linejoin: miter"/>
    </g>
    <g id="line2d_18">
     <path d="M 797.538607 206.219359 
L 819.538607 206.219359 
L 841.538607 206.219359 
" style="fill: none; stroke: #0000ff; stroke-width: 2; stroke-linecap: round"/>
    </g>
    <g id="text_18">
     <!-- $\mathcal{L}_{D}$ (Median) -->
     <g style="fill: #262626" transform="translate(859.138607 213.919359) scale(0.22 -0.22)">
      <defs>
       <path id="CMSY10-4c" d="M 1152 610 
C 1498 1151 1606 1562 1690 1903 
C 1914 2790 2157 3562 2554 4005 
C 2630 4090 2682 4147 2886 4147 
C 3328 4147 3341 3704 3341 3613 
C 3341 3498 3309 3407 3309 3375 
C 3309 3330 3347 3330 3354 3330 
C 3456 3330 3629 3401 3789 3517 
C 3904 3607 3962 3671 3962 3934 
C 3962 4281 3782 4544 3424 4544 
C 3219 4544 2656 4493 2029 3856 
C 1517 3329 1216 2172 1094 1690 
C 979 1248 928 1048 736 662 
C 691 586 525 303 435 219 
C 262 59 198 -57 198 -89 
C 198 -102 211 -128 256 -128 
C 282 -128 416 -102 582 5 
C 691 68 704 80 851 231 
C 1171 231 1395 173 1798 58 
C 2125 -32 2451 -128 2778 -128 
C 3296 -128 3821 264 4026 546 
C 4154 719 4192 880 4192 899 
C 4192 944 4154 944 4147 944 
C 4045 944 3891 874 3782 796 
C 3610 687 3597 649 3558 539 
C 3526 436 3488 385 3462 346 
C 3411 269 3405 269 3309 269 
C 3002 269 2682 366 2259 481 
C 2080 532 1728 636 1408 636 
C 1325 636 1235 629 1152 610 
z
" transform="scale(0.015625)"/>
       <path id="CMMI12-44" d="M 1005 472 
C 947 249 934 185 486 185 
C 365 185 301 185 301 70 
C 301 0 339 0 467 0 
L 2496 0 
C 3789 0 5050 1332 5050 2753 
C 5050 3671 4499 4352 3584 4352 
L 1530 4352 
C 1408 4352 1350 4352 1350 4231 
C 1350 4167 1408 4167 1504 4167 
C 1894 4167 1894 4116 1894 4046 
C 1894 4034 1894 3995 1869 3899 
L 1005 472 
z
M 2355 3931 
C 2413 4167 2438 4167 2688 4167 
L 3392 4167 
C 3994 4167 4544 3842 4544 2963 
C 4544 2644 4416 1536 3795 835 
C 3616 625 3130 185 2394 185 
L 1664 185 
C 1574 185 1562 185 1523 192 
C 1453 198 1446 211 1446 262 
C 1446 307 1459 345 1472 402 
L 2355 3931 
z
" transform="scale(0.015625)"/>
       <path id="CMR17-28" d="M 1958 -1561 
C 1958 -1555 1958 -1542 1939 -1523 
C 1645 -1224 858 -407 858 1581 
C 858 3569 1632 4379 1946 4697 
C 1946 4704 1958 4717 1958 4736 
C 1958 4755 1939 4768 1914 4768 
C 1843 4768 1299 4296 986 3594 
C 666 2887 576 2199 576 1588 
C 576 1128 621 351 1005 -471 
C 1312 -1135 1837 -1600 1914 -1600 
C 1946 -1600 1958 -1587 1958 -1561 
z
" transform="scale(0.015625)"/>
       <path id="CMR17-4d" d="M 1338 4224 
C 1299 4320 1293 4320 1158 4320 
L 339 4320 
L 339 4160 
C 781 4160 851 4160 851 3875 
L 851 610 
C 851 451 851 153 339 153 
L 339 -13 
C 486 0 755 0 915 0 
C 1075 0 1344 0 1491 -13 
L 1491 153 
C 979 153 979 451 979 610 
L 979 4135 
L 986 4135 
L 2490 89 
C 2515 25 2528 -13 2579 -13 
C 2630 -13 2643 25 2669 89 
L 4186 4166 
L 4192 4166 
L 4192 438 
C 4192 153 4122 153 3680 153 
L 3680 -13 
C 3853 0 4198 0 4384 0 
C 4570 0 4922 0 5094 -13 
L 5094 153 
C 4653 153 4582 153 4582 438 
L 4582 3875 
C 4582 4160 4653 4160 5094 4160 
L 5094 4320 
L 4282 4320 
C 4147 4320 4141 4314 4102 4218 
L 2720 502 
L 1338 4224 
z
" transform="scale(0.015625)"/>
       <path id="CMR17-65" d="M 2438 1472 
C 2464 1498 2464 1511 2464 1576 
C 2464 2238 2118 2816 1389 2816 
C 710 2816 173 2169 173 1383 
C 173 551 781 -64 1459 -64 
C 2176 -64 2458 607 2458 740 
C 2458 784 2419 784 2406 784 
C 2362 784 2355 771 2330 696 
C 2189 265 1837 51 1504 51 
C 1229 51 954 203 781 480 
C 582 803 582 1176 582 1472 
L 2438 1472 
z
M 589 1568 
C 634 2505 1126 2714 1382 2714 
C 1818 2714 2112 2297 2118 1568 
L 589 1568 
z
" transform="scale(0.015625)"/>
       <path id="CMR17-64" d="M 1869 4326 
L 1869 4160 
C 2246 4160 2304 4122 2304 3820 
L 2304 2345 
C 2278 2377 2016 2790 1498 2790 
C 845 2790 211 2208 211 1364 
C 211 525 806 -64 1434 -64 
C 1978 -64 2259 337 2291 380 
L 2291 -63 
L 3066 -63 
L 3066 128 
C 2688 128 2630 166 2630 473 
L 2630 4396 
L 1869 4326 
z
M 2291 755 
C 2291 563 2176 390 2029 262 
C 1811 70 1594 38 1472 38 
C 1286 38 621 134 621 1356 
C 621 2612 1363 2688 1530 2688 
C 1824 2688 2061 2522 2208 2291 
C 2291 2157 2291 2138 2291 2023 
L 2291 755 
z
" transform="scale(0.015625)"/>
       <path id="CMR17-69" d="M 992 3909 
C 992 4049 877 4170 730 4170 
C 589 4170 467 4056 467 3909 
C 467 3769 582 3648 730 3648 
C 870 3648 992 3763 992 3909 
z
M 243 2706 
L 243 2541 
C 602 2541 653 2502 653 2197 
L 653 427 
C 653 184 627 153 218 153 
L 218 -13 
C 371 0 646 0 806 0 
C 960 0 1222 0 1370 -13 
L 1370 153 
C 992 153 979 191 979 420 
L 979 2776 
L 243 2706 
z
" transform="scale(0.015625)"/>
       <path id="CMR17-61" d="M 2304 1653 
C 2304 2072 2304 2294 2035 2543 
C 1798 2752 1523 2816 1306 2816 
C 800 2816 435 2407 435 1971 
C 435 1728 627 1728 666 1728 
C 749 1728 896 1778 896 1954 
C 896 2112 774 2181 666 2181 
C 640 2181 608 2174 589 2168 
C 723 2592 1069 2714 1293 2714 
C 1613 2714 1965 2429 1965 1885 
L 1965 1600 
C 1587 1600 1133 1549 774 1357 
C 371 1133 256 813 256 570 
C 256 77 832 -64 1171 -64 
C 1523 -64 1850 139 1990 511 
C 2003 233 2182 -18 2464 -18 
C 2598 -18 2938 70 2938 567 
L 2938 920 
L 2822 920 
L 2822 562 
C 2822 178 2650 128 2566 128 
C 2304 128 2304 458 2304 738 
L 2304 1653 
z
M 1965 870 
C 1965 317 1568 38 1216 38 
C 896 38 646 275 646 570 
C 646 761 730 1100 1101 1305 
C 1408 1478 1760 1504 1965 1504 
L 1965 870 
z
" transform="scale(0.015625)"/>
       <path id="CMR17-6e" d="M 2656 1933 
C 2656 2259 2592 2790 1837 2790 
C 1331 2790 1069 2400 973 2144 
L 966 2144 
L 966 2790 
L 211 2720 
L 211 2554 
C 589 2554 646 2515 646 2208 
L 646 428 
C 646 184 621 153 211 153 
L 211 -13 
C 365 0 646 0 813 0 
C 979 0 1267 0 1421 -13 
L 1421 153 
C 1011 153 986 178 986 428 
L 986 1658 
C 986 2247 1344 2688 1792 2688 
C 2266 2688 2317 2266 2317 1958 
L 2317 428 
C 2317 184 2291 153 1882 153 
L 1882 -13 
C 2035 0 2317 0 2483 0 
C 2650 0 2938 0 3091 -13 
L 3091 153 
C 2682 153 2656 178 2656 428 
L 2656 1933 
z
" transform="scale(0.015625)"/>
       <path id="CMR17-29" d="M 1683 1581 
C 1683 2040 1638 2817 1254 3639 
C 947 4303 422 4768 346 4768 
C 326 4768 301 4761 301 4729 
C 301 4717 307 4710 314 4697 
C 621 4378 1402 3568 1402 1584 
C 1402 -407 627 -1217 314 -1537 
C 307 -1549 301 -1556 301 -1568 
C 301 -1600 326 -1600 346 -1600 
C 416 -1600 960 -1128 1274 -426 
C 1594 281 1683 969 1683 1581 
z
" transform="scale(0.015625)"/>
      </defs>
      <use xlink:href="#CMSY10-4c" transform="scale(0.996264)"/>
      <use xlink:href="#CMMI12-44" transform="translate(68.714808 -14.943915) scale(0.697382)"/>
      <use xlink:href="#CMR17-28" transform="translate(157.88141 0) scale(0.996264)"/>
      <use xlink:href="#CMR17-4d" transform="translate(193.162177 0) scale(0.996264)"/>
      <use xlink:href="#CMR17-65" transform="translate(277.849118 0) scale(0.996264)"/>
      <use xlink:href="#CMR17-64" transform="translate(318.334779 0) scale(0.996264)"/>
      <use xlink:href="#CMR17-69" transform="translate(369.230148 0) scale(0.996264)"/>
      <use xlink:href="#CMR17-61" transform="translate(394.101207 0) scale(0.996264)"/>
      <use xlink:href="#CMR17-6e" transform="translate(439.791684 0) scale(0.996264)"/>
      <use xlink:href="#CMR17-29" transform="translate(490.687054 0) scale(0.996264)"/>
     </g>
    </g>
    <g id="line2d_19">
     <path d="M 797.538607 239.099102 
L 819.538607 239.099102 
L 841.538607 239.099102 
" style="fill: none; stroke: #ff0000; stroke-width: 2; stroke-linecap: round"/>
    </g>
    <g id="text_19">
     <!-- $\mathcal{L}_{G}$ (Median) -->
     <g style="fill: #262626" transform="translate(859.138607 246.799102) scale(0.22 -0.22)">
      <defs>
       <path id="CMMI12-47" d="M 4774 4423 
C 4774 4480 4730 4480 4717 4480 
C 4704 4480 4678 4480 4627 4416 
L 4186 3889 
C 4154 3940 4026 4163 3776 4309 
C 3501 4480 3226 4480 3130 4480 
C 1760 4480 320 3095 320 1595 
C 320 546 1050 -128 2010 -128 
C 2470 -128 3053 25 3373 427 
C 3443 185 3584 12 3629 12 
C 3661 12 3667 32 3674 32 
C 3680 44 3731 270 3763 385 
L 3866 797 
C 3917 1009 3942 1099 3987 1291 
C 4051 1536 4064 1536 4416 1536 
C 4442 1536 4518 1536 4518 1666 
C 4518 1734 4454 1734 4435 1734 
C 4326 1734 4205 1734 4090 1734 
L 3744 1734 
C 3475 1734 3194 1734 2931 1734 
C 2874 1734 2797 1734 2797 1611 
C 2797 1542 2848 1542 2848 1536 
L 3008 1536 
C 3514 1536 3514 1489 3514 1402 
C 3514 1395 3392 751 3270 561 
C 3027 204 2522 57 2144 57 
C 1651 57 851 312 851 1410 
C 851 1836 1005 2808 1626 3526 
C 2029 3984 2624 4295 3187 4295 
C 3942 4295 4211 3655 4211 3071 
C 4211 2970 4186 2831 4186 2742 
C 4186 2685 4250 2685 4269 2685 
C 4339 2685 4346 2691 4371 2805 
L 4774 4423 
z
" transform="scale(0.015625)"/>
      </defs>
      <use xlink:href="#CMSY10-4c" transform="scale(0.996264)"/>
      <use xlink:href="#CMMI12-47" transform="translate(68.714808 -14.943915) scale(0.697382)"/>
      <use xlink:href="#CMR17-28" transform="translate(153.151466 0) scale(0.996264)"/>
      <use xlink:href="#CMR17-4d" transform="translate(188.432234 0) scale(0.996264)"/>
      <use xlink:href="#CMR17-65" transform="translate(273.119175 0) scale(0.996264)"/>
      <use xlink:href="#CMR17-64" transform="translate(313.604835 0) scale(0.996264)"/>
      <use xlink:href="#CMR17-69" transform="translate(364.500205 0) scale(0.996264)"/>
      <use xlink:href="#CMR17-61" transform="translate(389.371263 0) scale(0.996264)"/>
      <use xlink:href="#CMR17-6e" transform="translate(435.061741 0) scale(0.996264)"/>
      <use xlink:href="#CMR17-29" transform="translate(485.95711 0) scale(0.996264)"/>
     </g>
    </g>
   </g>
  </g>
 </g>
 <defs>
  <clipPath id="peb12363b81">
   <rect x="73.780351" y="12.96" width="921.259649" height="423.840956"/>
  </clipPath>
 </defs>
</svg>
