<?xml version="1.0" encoding="utf-8" standalone="no"?>
<!DOCTYPE svg PUBLIC "-//W3C//DTD SVG 1.1//EN"
  "http://www.w3.org/Graphics/SVG/1.1/DTD/svg11.dtd">
<svg xmlns:xlink="http://www.w3.org/1999/xlink" width="1008pt" height="504pt" viewBox="0 0 1008 504" xmlns="http://www.w3.org/2000/svg" version="1.1">
 <metadata>
  <rdf:RDF xmlns:dc="http://purl.org/dc/elements/1.1/" xmlns:cc="http://creativecommons.org/ns#" xmlns:rdf="http://www.w3.org/1999/02/22-rdf-syntax-ns#">
   <cc:Work>
    <dc:type rdf:resource="http://purl.org/dc/dcmitype/StillImage"/>
    <dc:date>2025-04-25T13:46:26.794925</dc:date>
    <dc:format>image/svg+xml</dc:format>
    <dc:creator>
     <cc:Agent>
      <dc:title>Matplotlib v3.9.2, https://matplotlib.org/</dc:title>
     </cc:Agent>
    </dc:creator>
   </cc:Work>
  </rdf:RDF>
 </metadata>
 <defs>
  <style type="text/css">*{stroke-linejoin: round; stroke-linecap: butt}</style>
 </defs>
 <g id="figure_1">
  <g id="patch_1">
   <path d="M 0 504 
L 1008 504 
L 1008 0 
L 0 0 
z
" style="fill: #ffffff"/>
  </g>
  <g id="axes_1">
   <g id="patch_2">
    <path d="M 96.497804 436.800956 
L 995.04 436.800956 
L 995.04 36.871226 
L 96.497804 36.871226 
z
" style="fill: #ffffff"/>
   </g>
   <g id="matplotlib.axis_1">
    <g id="xtick_1">
     <g id="line2d_1">
      <path d="M 133.235824 436.800956 
L 133.235824 36.871226 
" clip-path="url(#pf6ee48395b)" style="fill: none; stroke: #cccccc; stroke-linecap: round"/>
     </g>
     <g id="text_1">
      <!-- $\mathdefault{0}$ -->
      <g style="fill: #262626" transform="translate(128.209872 461.52165) scale(0.22 -0.22)">
       <defs>
        <path id="CMR17-30" d="M 2688 2025 
C 2688 2416 2682 3080 2413 3591 
C 2176 4039 1798 4198 1466 4198 
C 1158 4198 768 4058 525 3597 
C 269 3118 243 2524 243 2025 
C 243 1661 250 1106 448 619 
C 723 -39 1216 -128 1466 -128 
C 1760 -128 2208 -7 2470 600 
C 2662 1042 2688 1559 2688 2025 
z
M 1466 -26 
C 1056 -26 813 325 723 812 
C 653 1188 653 1738 653 2096 
C 653 2588 653 2997 736 3387 
C 858 3929 1216 4096 1466 4096 
C 1728 4096 2067 3923 2189 3400 
C 2272 3036 2278 2607 2278 2096 
C 2278 1680 2278 1169 2202 792 
C 2067 95 1690 -26 1466 -26 
z
" transform="scale(0.015625)"/>
       </defs>
       <use xlink:href="#CMR17-30" transform="scale(0.996264)"/>
      </g>
     </g>
    </g>
    <g id="xtick_2">
     <g id="line2d_2">
      <path d="M 235.855993 436.800956 
L 235.855993 36.871226 
" clip-path="url(#pf6ee48395b)" style="fill: none; stroke: #cccccc; stroke-linecap: round"/>
     </g>
     <g id="text_2">
      <!-- $\mathdefault{25}$ -->
      <g style="fill: #262626" transform="translate(225.804088 461.52165) scale(0.22 -0.22)">
       <defs>
        <path id="CMR17-32" d="M 2669 989 
L 2554 989 
C 2490 536 2438 459 2413 420 
C 2381 369 1920 369 1830 369 
L 602 369 
C 832 619 1280 1072 1824 1597 
C 2214 1967 2669 2402 2669 3035 
C 2669 3790 2067 4224 1395 4224 
C 691 4224 262 3604 262 3030 
C 262 2780 448 2748 525 2748 
C 589 2748 781 2787 781 3010 
C 781 3207 614 3264 525 3264 
C 486 3264 448 3258 422 3245 
C 544 3790 915 4058 1306 4058 
C 1862 4058 2227 3617 2227 3035 
C 2227 2479 1901 2000 1536 1584 
L 262 146 
L 262 0 
L 2515 0 
L 2669 989 
z
" transform="scale(0.015625)"/>
        <path id="CMR17-35" d="M 730 3692 
C 794 3666 1056 3584 1325 3584 
C 1920 3584 2246 3911 2432 4100 
C 2432 4157 2432 4192 2394 4192 
C 2387 4192 2374 4192 2323 4163 
C 2099 4058 1837 3973 1517 3973 
C 1325 3973 1037 3999 723 4139 
C 653 4171 640 4171 634 4171 
C 602 4171 595 4164 595 4037 
L 595 2203 
C 595 2089 595 2057 659 2057 
C 691 2057 704 2070 736 2114 
C 941 2401 1222 2522 1542 2522 
C 1766 2522 2246 2382 2246 1289 
C 2246 1085 2246 715 2054 421 
C 1894 159 1645 25 1370 25 
C 947 25 518 320 403 814 
C 429 807 480 795 506 795 
C 589 795 749 840 749 1038 
C 749 1210 627 1280 506 1280 
C 358 1280 262 1190 262 1011 
C 262 454 704 -128 1382 -128 
C 2042 -128 2669 440 2669 1264 
C 2669 2030 2170 2624 1549 2624 
C 1222 2624 947 2503 730 2274 
L 730 3692 
z
" transform="scale(0.015625)"/>
       </defs>
       <use xlink:href="#CMR17-32" transform="scale(0.996264)"/>
       <use xlink:href="#CMR17-35" transform="translate(45.690477 0) scale(0.996264)"/>
      </g>
     </g>
    </g>
    <g id="xtick_3">
     <g id="line2d_3">
      <path d="M 338.476161 436.800956 
L 338.476161 36.871226 
" clip-path="url(#pf6ee48395b)" style="fill: none; stroke: #cccccc; stroke-linecap: round"/>
     </g>
     <g id="text_3">
      <!-- $\mathdefault{50}$ -->
      <g style="fill: #262626" transform="translate(328.424256 461.52165) scale(0.22 -0.22)">
       <use xlink:href="#CMR17-35" transform="scale(0.996264)"/>
       <use xlink:href="#CMR17-30" transform="translate(45.690477 0) scale(0.996264)"/>
      </g>
     </g>
    </g>
    <g id="xtick_4">
     <g id="line2d_4">
      <path d="M 441.09633 436.800956 
L 441.09633 36.871226 
" clip-path="url(#pf6ee48395b)" style="fill: none; stroke: #cccccc; stroke-linecap: round"/>
     </g>
     <g id="text_4">
      <!-- $\mathdefault{75}$ -->
      <g style="fill: #262626" transform="translate(431.044425 461.52165) scale(0.22 -0.22)">
       <defs>
        <path id="CMR17-37" d="M 2886 3941 
L 2886 4081 
L 1382 4081 
C 634 4081 621 4165 595 4288 
L 480 4288 
L 294 3094 
L 410 3094 
C 429 3215 474 3540 550 3661 
C 589 3712 1062 3712 1171 3712 
L 2579 3712 
L 1869 2661 
C 1395 1954 1069 999 1069 165 
C 1069 89 1069 -128 1299 -128 
C 1530 -128 1530 89 1530 171 
L 1530 465 
C 1530 1508 1709 2196 2003 2636 
L 2886 3941 
z
" transform="scale(0.015625)"/>
       </defs>
       <use xlink:href="#CMR17-37" transform="scale(0.996264)"/>
       <use xlink:href="#CMR17-35" transform="translate(45.690477 0) scale(0.996264)"/>
      </g>
     </g>
    </g>
    <g id="xtick_5">
     <g id="line2d_5">
      <path d="M 543.716499 436.800956 
L 543.716499 36.871226 
" clip-path="url(#pf6ee48395b)" style="fill: none; stroke: #cccccc; stroke-linecap: round"/>
     </g>
     <g id="text_5">
      <!-- $\mathdefault{100}$ -->
      <g style="fill: #262626" transform="translate(528.638641 461.52165) scale(0.22 -0.22)">
       <defs>
        <path id="CMR17-31" d="M 1702 4058 
C 1702 4192 1696 4192 1606 4192 
C 1357 3916 979 3827 621 3827 
C 602 3827 570 3827 563 3808 
C 557 3795 557 3782 557 3648 
C 755 3648 1088 3686 1344 3839 
L 1344 461 
C 1344 236 1331 160 781 160 
L 589 160 
L 589 0 
C 896 0 1216 0 1523 0 
C 1830 0 2150 0 2458 0 
L 2458 160 
L 2266 160 
C 1715 160 1702 230 1702 458 
L 1702 4058 
z
" transform="scale(0.015625)"/>
       </defs>
       <use xlink:href="#CMR17-31" transform="scale(0.996264)"/>
       <use xlink:href="#CMR17-30" transform="translate(45.690477 0) scale(0.996264)"/>
       <use xlink:href="#CMR17-30" transform="translate(91.380954 0) scale(0.996264)"/>
      </g>
     </g>
    </g>
    <g id="xtick_6">
     <g id="line2d_6">
      <path d="M 646.336667 436.800956 
L 646.336667 36.871226 
" clip-path="url(#pf6ee48395b)" style="fill: none; stroke: #cccccc; stroke-linecap: round"/>
     </g>
     <g id="text_6">
      <!-- $\mathdefault{125}$ -->
      <g style="fill: #262626" transform="translate(631.25881 461.52165) scale(0.22 -0.22)">
       <use xlink:href="#CMR17-31" transform="scale(0.996264)"/>
       <use xlink:href="#CMR17-32" transform="translate(45.690477 0) scale(0.996264)"/>
       <use xlink:href="#CMR17-35" transform="translate(91.380954 0) scale(0.996264)"/>
      </g>
     </g>
    </g>
    <g id="xtick_7">
     <g id="line2d_7">
      <path d="M 748.956836 436.800956 
L 748.956836 36.871226 
" clip-path="url(#pf6ee48395b)" style="fill: none; stroke: #cccccc; stroke-linecap: round"/>
     </g>
     <g id="text_7">
      <!-- $\mathdefault{150}$ -->
      <g style="fill: #262626" transform="translate(733.878978 461.52165) scale(0.22 -0.22)">
       <use xlink:href="#CMR17-31" transform="scale(0.996264)"/>
       <use xlink:href="#CMR17-35" transform="translate(45.690477 0) scale(0.996264)"/>
       <use xlink:href="#CMR17-30" transform="translate(91.380954 0) scale(0.996264)"/>
      </g>
     </g>
    </g>
    <g id="xtick_8">
     <g id="line2d_8">
      <path d="M 851.577004 436.800956 
L 851.577004 36.871226 
" clip-path="url(#pf6ee48395b)" style="fill: none; stroke: #cccccc; stroke-linecap: round"/>
     </g>
     <g id="text_8">
      <!-- $\mathdefault{175}$ -->
      <g style="fill: #262626" transform="translate(836.499147 461.52165) scale(0.22 -0.22)">
       <use xlink:href="#CMR17-31" transform="scale(0.996264)"/>
       <use xlink:href="#CMR17-37" transform="translate(45.690477 0) scale(0.996264)"/>
       <use xlink:href="#CMR17-35" transform="translate(91.380954 0) scale(0.996264)"/>
      </g>
     </g>
    </g>
    <g id="xtick_9">
     <g id="line2d_9">
      <path d="M 954.197173 436.800956 
L 954.197173 36.871226 
" clip-path="url(#pf6ee48395b)" style="fill: none; stroke: #cccccc; stroke-linecap: round"/>
     </g>
     <g id="text_9">
      <!-- $\mathdefault{200}$ -->
      <g style="fill: #262626" transform="translate(939.119315 461.52165) scale(0.22 -0.22)">
       <use xlink:href="#CMR17-32" transform="scale(0.996264)"/>
       <use xlink:href="#CMR17-30" transform="translate(45.690477 0) scale(0.996264)"/>
       <use xlink:href="#CMR17-30" transform="translate(91.380954 0) scale(0.996264)"/>
      </g>
     </g>
    </g>
    <g id="text_10">
     <!-- Epoch -->
     <g style="fill: #262626" transform="translate(515.390238 486.389243) scale(0.24 -0.24)">
      <defs>
       <path id="CMR17-45" d="M 3885 1615 
L 3770 1615 
C 3629 676 3546 166 2419 166 
L 1530 166 
C 1274 166 1261 197 1261 414 
L 1261 2176 
L 1862 2176 
C 2464 2176 2522 1960 2522 1430 
L 2637 1430 
L 2637 3081 
L 2522 3081 
C 2522 2557 2464 2342 1862 2342 
L 1261 2342 
L 1261 3913 
C 1261 4128 1274 4160 1530 4160 
L 2406 4160 
C 3398 4160 3514 3769 3603 2929 
L 3718 2929 
L 3565 4325 
L 326 4325 
L 326 4160 
C 768 4160 838 4160 838 3874 
L 838 451 
C 838 166 768 166 326 166 
L 326 0 
L 3654 0 
L 3885 1615 
z
" transform="scale(0.015625)"/>
       <path id="CMR17-70" d="M 1408 -1063 
C 998 -1063 973 -1037 973 -789 
L 973 402 
C 1158 134 1427 -38 1766 -38 
C 2406 -38 3053 523 3053 1388 
C 3053 2191 2496 2802 1837 2802 
C 1453 2802 1139 2592 960 2338 
L 960 2802 
L 198 2732 
L 198 2567 
C 576 2567 634 2528 634 2223 
L 634 -789 
C 634 -1031 608 -1063 198 -1063 
L 198 -1228 
C 352 -1216 634 -1216 800 -1216 
C 966 -1216 1254 -1216 1408 -1228 
L 1408 -1063 
z
M 973 2012 
C 973 2102 973 2235 1222 2471 
C 1254 2497 1472 2688 1792 2688 
C 2259 2688 2643 2108 2643 1382 
C 2643 656 2234 64 1728 64 
C 1498 64 1248 172 1056 472 
C 973 612 973 650 973 752 
L 973 2012 
z
" transform="scale(0.015625)"/>
       <path id="CMR17-6f" d="M 2758 1356 
C 2758 2176 2163 2816 1466 2816 
C 768 2816 173 2176 173 1356 
C 173 551 768 -64 1466 -64 
C 2163 -64 2758 551 2758 1356 
z
M 1466 51 
C 1165 51 909 230 762 480 
C 602 767 582 1126 582 1408 
C 582 1677 595 2010 762 2298 
C 890 2509 1139 2714 1466 2714 
C 1754 2714 1997 2554 2150 2330 
C 2349 2029 2349 1607 2349 1408 
C 2349 1158 2336 775 2163 467 
C 1984 173 1709 51 1466 51 
z
" transform="scale(0.015625)"/>
       <path id="CMR17-63" d="M 2234 2240 
C 2112 2240 1933 2240 1933 2017 
C 1933 1838 2080 1787 2163 1787 
C 2208 1787 2394 1807 2394 2024 
C 2394 2467 1958 2803 1466 2803 
C 787 2803 211 2178 211 1363 
C 211 516 813 -64 1466 -64 
C 2259 -64 2458 677 2458 748 
C 2458 774 2451 793 2406 793 
C 2362 793 2355 787 2330 703 
C 2163 180 1798 51 1523 51 
C 1114 51 621 427 621 1369 
C 621 2338 1094 2688 1472 2688 
C 1722 2688 2093 2573 2234 2240 
z
" transform="scale(0.015625)"/>
       <path id="CMR17-68" d="M 2656 1933 
C 2656 2259 2592 2790 1837 2790 
C 1312 2790 1056 2368 979 2157 
L 973 2157 
L 973 4396 
L 211 4326 
L 211 4160 
C 589 4160 646 4122 646 3817 
L 646 426 
C 646 184 621 153 211 153 
L 211 -13 
C 365 0 646 0 813 0 
C 979 0 1267 0 1421 -13 
L 1421 153 
C 1011 153 986 178 986 428 
L 986 1658 
C 986 2247 1344 2688 1792 2688 
C 2266 2688 2317 2266 2317 1958 
L 2317 428 
C 2317 184 2291 153 1882 153 
L 1882 -13 
C 2035 0 2317 0 2483 0 
C 2650 0 2938 0 3091 -13 
L 3091 153 
C 2682 153 2656 178 2656 428 
L 2656 1933 
z
" transform="scale(0.015625)"/>
      </defs>
      <use xlink:href="#CMR17-45" transform="scale(0.996264)"/>
      <use xlink:href="#CMR17-70" transform="translate(62.586301 0) scale(0.996264)"/>
      <use xlink:href="#CMR17-6f" transform="translate(116.084109 0) scale(0.996264)"/>
      <use xlink:href="#CMR17-63" transform="translate(164.377025 0) scale(0.996264)"/>
      <use xlink:href="#CMR17-68" transform="translate(202.260231 0) scale(0.996264)"/>
     </g>
    </g>
   </g>
   <g id="matplotlib.axis_2">
    <g id="ytick_1">
     <g id="line2d_10">
      <path d="M 96.497804 387.456728 
L 995.04 387.456728 
" clip-path="url(#pf6ee48395b)" style="fill: none; stroke: #cccccc; stroke-linecap: round"/>
     </g>
     <g id="text_11">
      <!-- $\mathdefault{0.0100}$ -->
      <g style="fill: #262626" transform="translate(30.7769 395.067075) scale(0.22 -0.22)">
       <defs>
        <path id="CMMI12-3a" d="M 1178 307 
C 1178 492 1024 619 870 619 
C 685 619 557 466 557 313 
C 557 128 710 0 864 0 
C 1050 0 1178 153 1178 307 
z
" transform="scale(0.015625)"/>
       </defs>
       <use xlink:href="#CMR17-30" transform="scale(0.996264)"/>
       <use xlink:href="#CMMI12-3a" transform="translate(45.690477 0) scale(0.996264)"/>
       <use xlink:href="#CMR17-30" transform="translate(72.787654 0) scale(0.996264)"/>
       <use xlink:href="#CMR17-31" transform="translate(118.478131 0) scale(0.996264)"/>
       <use xlink:href="#CMR17-30" transform="translate(164.168608 0) scale(0.996264)"/>
       <use xlink:href="#CMR17-30" transform="translate(209.859086 0) scale(0.996264)"/>
      </g>
     </g>
    </g>
    <g id="ytick_2">
     <g id="line2d_11">
      <path d="M 96.497804 337.612748 
L 995.04 337.612748 
" clip-path="url(#pf6ee48395b)" style="fill: none; stroke: #cccccc; stroke-linecap: round"/>
     </g>
     <g id="text_12">
      <!-- $\mathdefault{0.0125}$ -->
      <g style="fill: #262626" transform="translate(30.7769 345.223095) scale(0.22 -0.22)">
       <use xlink:href="#CMR17-30" transform="scale(0.996264)"/>
       <use xlink:href="#CMMI12-3a" transform="translate(45.690477 0) scale(0.996264)"/>
       <use xlink:href="#CMR17-30" transform="translate(72.787654 0) scale(0.996264)"/>
       <use xlink:href="#CMR17-31" transform="translate(118.478131 0) scale(0.996264)"/>
       <use xlink:href="#CMR17-32" transform="translate(164.168608 0) scale(0.996264)"/>
       <use xlink:href="#CMR17-35" transform="translate(209.859086 0) scale(0.996264)"/>
      </g>
     </g>
    </g>
    <g id="ytick_3">
     <g id="line2d_12">
      <path d="M 96.497804 287.768769 
L 995.04 287.768769 
" clip-path="url(#pf6ee48395b)" style="fill: none; stroke: #cccccc; stroke-linecap: round"/>
     </g>
     <g id="text_13">
      <!-- $\mathdefault{0.0150}$ -->
      <g style="fill: #262626" transform="translate(30.7769 295.379115) scale(0.22 -0.22)">
       <use xlink:href="#CMR17-30" transform="scale(0.996264)"/>
       <use xlink:href="#CMMI12-3a" transform="translate(45.690477 0) scale(0.996264)"/>
       <use xlink:href="#CMR17-30" transform="translate(72.787654 0) scale(0.996264)"/>
       <use xlink:href="#CMR17-31" transform="translate(118.478131 0) scale(0.996264)"/>
       <use xlink:href="#CMR17-35" transform="translate(164.168608 0) scale(0.996264)"/>
       <use xlink:href="#CMR17-30" transform="translate(209.859086 0) scale(0.996264)"/>
      </g>
     </g>
    </g>
    <g id="ytick_4">
     <g id="line2d_13">
      <path d="M 96.497804 237.924789 
L 995.04 237.924789 
" clip-path="url(#pf6ee48395b)" style="fill: none; stroke: #cccccc; stroke-linecap: round"/>
     </g>
     <g id="text_14">
      <!-- $\mathdefault{0.0175}$ -->
      <g style="fill: #262626" transform="translate(30.7769 245.535135) scale(0.22 -0.22)">
       <use xlink:href="#CMR17-30" transform="scale(0.996264)"/>
       <use xlink:href="#CMMI12-3a" transform="translate(45.690477 0) scale(0.996264)"/>
       <use xlink:href="#CMR17-30" transform="translate(72.787654 0) scale(0.996264)"/>
       <use xlink:href="#CMR17-31" transform="translate(118.478131 0) scale(0.996264)"/>
       <use xlink:href="#CMR17-37" transform="translate(164.168608 0) scale(0.996264)"/>
       <use xlink:href="#CMR17-35" transform="translate(209.859086 0) scale(0.996264)"/>
      </g>
     </g>
    </g>
    <g id="ytick_5">
     <g id="line2d_14">
      <path d="M 96.497804 188.080809 
L 995.04 188.080809 
" clip-path="url(#pf6ee48395b)" style="fill: none; stroke: #cccccc; stroke-linecap: round"/>
     </g>
     <g id="text_15">
      <!-- $\mathdefault{0.0200}$ -->
      <g style="fill: #262626" transform="translate(30.7769 195.691156) scale(0.22 -0.22)">
       <use xlink:href="#CMR17-30" transform="scale(0.996264)"/>
       <use xlink:href="#CMMI12-3a" transform="translate(45.690477 0) scale(0.996264)"/>
       <use xlink:href="#CMR17-30" transform="translate(72.787654 0) scale(0.996264)"/>
       <use xlink:href="#CMR17-32" transform="translate(118.478131 0) scale(0.996264)"/>
       <use xlink:href="#CMR17-30" transform="translate(164.168608 0) scale(0.996264)"/>
       <use xlink:href="#CMR17-30" transform="translate(209.859086 0) scale(0.996264)"/>
      </g>
     </g>
    </g>
    <g id="ytick_6">
     <g id="line2d_15">
      <path d="M 96.497804 138.236829 
L 995.04 138.236829 
" clip-path="url(#pf6ee48395b)" style="fill: none; stroke: #cccccc; stroke-linecap: round"/>
     </g>
     <g id="text_16">
      <!-- $\mathdefault{0.0225}$ -->
      <g style="fill: #262626" transform="translate(30.7769 145.847176) scale(0.22 -0.22)">
       <use xlink:href="#CMR17-30" transform="scale(0.996264)"/>
       <use xlink:href="#CMMI12-3a" transform="translate(45.690477 0) scale(0.996264)"/>
       <use xlink:href="#CMR17-30" transform="translate(72.787654 0) scale(0.996264)"/>
       <use xlink:href="#CMR17-32" transform="translate(118.478131 0) scale(0.996264)"/>
       <use xlink:href="#CMR17-32" transform="translate(164.168608 0) scale(0.996264)"/>
       <use xlink:href="#CMR17-35" transform="translate(209.859086 0) scale(0.996264)"/>
      </g>
     </g>
    </g>
    <g id="ytick_7">
     <g id="line2d_16">
      <path d="M 96.497804 88.39285 
L 995.04 88.39285 
" clip-path="url(#pf6ee48395b)" style="fill: none; stroke: #cccccc; stroke-linecap: round"/>
     </g>
     <g id="text_17">
      <!-- $\mathdefault{0.0250}$ -->
      <g style="fill: #262626" transform="translate(30.7769 96.003196) scale(0.22 -0.22)">
       <use xlink:href="#CMR17-30" transform="scale(0.996264)"/>
       <use xlink:href="#CMMI12-3a" transform="translate(45.690477 0) scale(0.996264)"/>
       <use xlink:href="#CMR17-30" transform="translate(72.787654 0) scale(0.996264)"/>
       <use xlink:href="#CMR17-32" transform="translate(118.478131 0) scale(0.996264)"/>
       <use xlink:href="#CMR17-35" transform="translate(164.168608 0) scale(0.996264)"/>
       <use xlink:href="#CMR17-30" transform="translate(209.859086 0) scale(0.996264)"/>
      </g>
     </g>
    </g>
    <g id="ytick_8">
     <g id="line2d_17">
      <path d="M 96.497804 38.54887 
L 995.04 38.54887 
" clip-path="url(#pf6ee48395b)" style="fill: none; stroke: #cccccc; stroke-linecap: round"/>
     </g>
     <g id="text_18">
      <!-- $\mathdefault{0.0275}$ -->
      <g style="fill: #262626" transform="translate(30.7769 46.159217) scale(0.22 -0.22)">
       <use xlink:href="#CMR17-30" transform="scale(0.996264)"/>
       <use xlink:href="#CMMI12-3a" transform="translate(45.690477 0) scale(0.996264)"/>
       <use xlink:href="#CMR17-30" transform="translate(72.787654 0) scale(0.996264)"/>
       <use xlink:href="#CMR17-32" transform="translate(118.478131 0) scale(0.996264)"/>
       <use xlink:href="#CMR17-37" transform="translate(164.168608 0) scale(0.996264)"/>
       <use xlink:href="#CMR17-35" transform="translate(209.859086 0) scale(0.996264)"/>
      </g>
     </g>
    </g>
    <g id="text_19">
     <!-- Mean Squared Error (MSE) -->
     <g style="fill: #262626" transform="translate(20.819321 370.908644) rotate(-90) scale(0.24 -0.24)">
      <defs>
       <path id="CMR17-4d" d="M 1338 4224 
C 1299 4320 1293 4320 1158 4320 
L 339 4320 
L 339 4160 
C 781 4160 851 4160 851 3875 
L 851 610 
C 851 451 851 153 339 153 
L 339 -13 
C 486 0 755 0 915 0 
C 1075 0 1344 0 1491 -13 
L 1491 153 
C 979 153 979 451 979 610 
L 979 4135 
L 986 4135 
L 2490 89 
C 2515 25 2528 -13 2579 -13 
C 2630 -13 2643 25 2669 89 
L 4186 4166 
L 4192 4166 
L 4192 438 
C 4192 153 4122 153 3680 153 
L 3680 -13 
C 3853 0 4198 0 4384 0 
C 4570 0 4922 0 5094 -13 
L 5094 153 
C 4653 153 4582 153 4582 438 
L 4582 3875 
C 4582 4160 4653 4160 5094 4160 
L 5094 4320 
L 4282 4320 
C 4147 4320 4141 4314 4102 4218 
L 2720 502 
L 1338 4224 
z
" transform="scale(0.015625)"/>
       <path id="CMR17-65" d="M 2438 1472 
C 2464 1498 2464 1511 2464 1576 
C 2464 2238 2118 2816 1389 2816 
C 710 2816 173 2169 173 1383 
C 173 551 781 -64 1459 -64 
C 2176 -64 2458 607 2458 740 
C 2458 784 2419 784 2406 784 
C 2362 784 2355 771 2330 696 
C 2189 265 1837 51 1504 51 
C 1229 51 954 203 781 480 
C 582 803 582 1176 582 1472 
L 2438 1472 
z
M 589 1568 
C 634 2505 1126 2714 1382 2714 
C 1818 2714 2112 2297 2118 1568 
L 589 1568 
z
" transform="scale(0.015625)"/>
       <path id="CMR17-61" d="M 2304 1653 
C 2304 2072 2304 2294 2035 2543 
C 1798 2752 1523 2816 1306 2816 
C 800 2816 435 2407 435 1971 
C 435 1728 627 1728 666 1728 
C 749 1728 896 1778 896 1954 
C 896 2112 774 2181 666 2181 
C 640 2181 608 2174 589 2168 
C 723 2592 1069 2714 1293 2714 
C 1613 2714 1965 2429 1965 1885 
L 1965 1600 
C 1587 1600 1133 1549 774 1357 
C 371 1133 256 813 256 570 
C 256 77 832 -64 1171 -64 
C 1523 -64 1850 139 1990 511 
C 2003 233 2182 -18 2464 -18 
C 2598 -18 2938 70 2938 567 
L 2938 920 
L 2822 920 
L 2822 562 
C 2822 178 2650 128 2566 128 
C 2304 128 2304 458 2304 738 
L 2304 1653 
z
M 1965 870 
C 1965 317 1568 38 1216 38 
C 896 38 646 275 646 570 
C 646 761 730 1100 1101 1305 
C 1408 1478 1760 1504 1965 1504 
L 1965 870 
z
" transform="scale(0.015625)"/>
       <path id="CMR17-6e" d="M 2656 1933 
C 2656 2259 2592 2790 1837 2790 
C 1331 2790 1069 2400 973 2144 
L 966 2144 
L 966 2790 
L 211 2720 
L 211 2554 
C 589 2554 646 2515 646 2208 
L 646 428 
C 646 184 621 153 211 153 
L 211 -13 
C 365 0 646 0 813 0 
C 979 0 1267 0 1421 -13 
L 1421 153 
C 1011 153 986 178 986 428 
L 986 1658 
C 986 2247 1344 2688 1792 2688 
C 2266 2688 2317 2266 2317 1958 
L 2317 428 
C 2317 184 2291 153 1882 153 
L 1882 -13 
C 2035 0 2317 0 2483 0 
C 2650 0 2938 0 3091 -13 
L 3091 153 
C 2682 153 2656 178 2656 428 
L 2656 1933 
z
" transform="scale(0.015625)"/>
       <path id="CMR17-53" d="M 2803 4290 
C 2803 4404 2797 4411 2758 4411 
C 2720 4411 2707 4385 2682 4328 
L 2490 3907 
C 2246 4257 1875 4416 1472 4416 
C 819 4416 294 3901 294 3253 
C 294 3056 339 2776 557 2510 
C 794 2218 1018 2167 1530 2033 
C 1722 1982 2042 1899 2106 1874 
C 2470 1722 2662 1341 2662 985 
C 2662 527 2336 38 1779 38 
C 1094 38 454 419 410 1311 
C 403 1413 397 1419 352 1419 
C 301 1419 294 1413 294 1285 
L 294 -1 
C 294 -115 301 -122 339 -122 
C 384 -122 397 -90 486 108 
C 493 127 493 140 614 381 
C 934 -39 1472 -128 1779 -128 
C 2477 -128 2970 451 2970 1124 
C 2970 1454 2848 1708 2778 1823 
C 2509 2230 2221 2306 1914 2382 
C 1869 2402 1856 2402 1498 2490 
C 1152 2579 1005 2624 845 2796 
C 666 2992 602 3196 602 3399 
C 602 3812 934 4263 1478 4263 
C 2157 4263 2579 3786 2675 2993 
C 2694 2878 2701 2872 2746 2872 
C 2803 2872 2803 2891 2803 2999 
L 2803 4290 
z
" transform="scale(0.015625)"/>
       <path id="CMR17-71" d="M 2630 2802 
L 2528 2802 
L 2336 2172 
C 2189 2509 1920 2802 1491 2802 
C 838 2802 211 2223 211 1383 
C 211 548 800 -38 1440 -38 
C 1933 -38 2208 338 2291 478 
L 2291 -789 
C 2291 -1031 2266 -1063 1856 -1063 
L 1856 -1228 
C 2010 -1216 2291 -1216 2458 -1216 
C 2624 -1216 2912 -1216 3066 -1228 
L 3066 -1063 
C 2656 -1063 2630 -1037 2630 -789 
L 2630 2802 
z
M 2304 886 
C 2304 612 2074 357 2054 338 
C 1856 115 1626 64 1472 64 
C 992 64 621 669 621 1375 
C 621 2121 1043 2688 1536 2688 
C 2048 2688 2304 2108 2304 1777 
L 2304 886 
z
" transform="scale(0.015625)"/>
       <path id="CMR17-75" d="M 1882 2693 
L 1882 2528 
C 2259 2528 2317 2489 2317 2186 
L 2317 1032 
C 2317 500 2029 38 1555 38 
C 1030 38 986 348 986 678 
L 986 2763 
L 211 2693 
L 211 2528 
C 467 2528 640 2528 646 2274 
L 646 1058 
C 646 633 646 361 813 183 
C 896 101 1056 -64 1517 -64 
C 2061 -64 2272 377 2323 506 
L 2330 506 
L 2330 -63 
L 3091 -63 
L 3091 128 
C 2714 128 2656 166 2656 473 
L 2656 2763 
L 1882 2693 
z
" transform="scale(0.015625)"/>
       <path id="CMR17-72" d="M 960 1497 
C 960 2112 1222 2688 1702 2688 
C 1747 2688 1792 2682 1837 2662 
C 1837 2662 1696 2617 1696 2452 
C 1696 2298 1818 2234 1914 2234 
C 1990 2234 2131 2279 2131 2458 
C 2131 2663 1926 2790 1709 2790 
C 1222 2790 1011 2317 947 2093 
L 941 2093 
L 941 2790 
L 198 2720 
L 198 2554 
C 576 2554 634 2515 634 2208 
L 634 428 
C 634 184 608 153 198 153 
L 198 -13 
C 352 0 646 0 813 0 
C 998 0 1325 0 1498 -13 
L 1498 153 
C 1037 153 960 153 960 440 
L 960 1497 
z
" transform="scale(0.015625)"/>
       <path id="CMR17-64" d="M 1869 4326 
L 1869 4160 
C 2246 4160 2304 4122 2304 3820 
L 2304 2345 
C 2278 2377 2016 2790 1498 2790 
C 845 2790 211 2208 211 1364 
C 211 525 806 -64 1434 -64 
C 1978 -64 2259 337 2291 380 
L 2291 -63 
L 3066 -63 
L 3066 128 
C 2688 128 2630 166 2630 473 
L 2630 4396 
L 1869 4326 
z
M 2291 755 
C 2291 563 2176 390 2029 262 
C 1811 70 1594 38 1472 38 
C 1286 38 621 134 621 1356 
C 621 2612 1363 2688 1530 2688 
C 1824 2688 2061 2522 2208 2291 
C 2291 2157 2291 2138 2291 2023 
L 2291 755 
z
" transform="scale(0.015625)"/>
       <path id="CMR17-28" d="M 1958 -1561 
C 1958 -1555 1958 -1542 1939 -1523 
C 1645 -1224 858 -407 858 1581 
C 858 3569 1632 4379 1946 4697 
C 1946 4704 1958 4717 1958 4736 
C 1958 4755 1939 4768 1914 4768 
C 1843 4768 1299 4296 986 3594 
C 666 2887 576 2199 576 1588 
C 576 1128 621 351 1005 -471 
C 1312 -1135 1837 -1600 1914 -1600 
C 1946 -1600 1958 -1587 1958 -1561 
z
" transform="scale(0.015625)"/>
       <path id="CMR17-29" d="M 1683 1581 
C 1683 2040 1638 2817 1254 3639 
C 947 4303 422 4768 346 4768 
C 326 4768 301 4761 301 4729 
C 301 4717 307 4710 314 4697 
C 621 4378 1402 3568 1402 1584 
C 1402 -407 627 -1217 314 -1537 
C 307 -1549 301 -1556 301 -1568 
C 301 -1600 326 -1600 346 -1600 
C 416 -1600 960 -1128 1274 -426 
C 1594 281 1683 969 1683 1581 
z
" transform="scale(0.015625)"/>
      </defs>
      <use xlink:href="#CMR17-4d" transform="scale(0.996264)"/>
      <use xlink:href="#CMR17-65" transform="translate(84.686941 0) scale(0.996264)"/>
      <use xlink:href="#CMR17-61" transform="translate(125.172601 0) scale(0.996264)"/>
      <use xlink:href="#CMR17-6e" transform="translate(170.863078 0) scale(0.996264)"/>
      <use xlink:href="#CMR17-53" transform="translate(251.834414 0) scale(0.996264)"/>
      <use xlink:href="#CMR17-71" transform="translate(302.729784 0) scale(0.996264)"/>
      <use xlink:href="#CMR17-75" transform="translate(351.0227 0) scale(0.996264)"/>
      <use xlink:href="#CMR17-61" transform="translate(401.91807 0) scale(0.996264)"/>
      <use xlink:href="#CMR17-72" transform="translate(447.608547 0) scale(0.996264)"/>
      <use xlink:href="#CMR17-65" transform="translate(482.889315 0) scale(0.996264)"/>
      <use xlink:href="#CMR17-64" transform="translate(523.374975 0) scale(0.996264)"/>
      <use xlink:href="#CMR17-45" transform="translate(604.346311 0) scale(0.996264)"/>
      <use xlink:href="#CMR17-72" transform="translate(666.932612 0) scale(0.996264)"/>
      <use xlink:href="#CMR17-72" transform="translate(702.21338 0) scale(0.996264)"/>
      <use xlink:href="#CMR17-6f" transform="translate(737.494147 0) scale(0.996264)"/>
      <use xlink:href="#CMR17-72" transform="translate(783.184624 0) scale(0.996264)"/>
      <use xlink:href="#CMR17-28" transform="translate(848.541359 0) scale(0.996264)"/>
      <use xlink:href="#CMR17-4d" transform="translate(883.822126 0) scale(0.996264)"/>
      <use xlink:href="#CMR17-53" transform="translate(968.509067 0) scale(0.996264)"/>
      <use xlink:href="#CMR17-45" transform="translate(1019.404437 0) scale(0.996264)"/>
      <use xlink:href="#CMR17-29" transform="translate(1081.990737 0) scale(0.996264)"/>
     </g>
    </g>
   </g>
   <g id="PolyCollection_1">
    <defs>
     <path id="mfeaec850ee" d="M 137.340631 -448.950149 
L 137.340631 -372.242888 
L 141.445438 -266.74417 
L 145.550244 -263.687947 
L 149.655051 -252.787856 
L 153.759858 -246.098269 
L 157.864665 -236.39181 
L 161.969471 -236.011421 
L 166.074278 -229.859625 
L 170.179085 -222.619131 
L 174.283892 -222.29121 
L 178.388698 -213.896435 
L 182.493505 -212.519167 
L 186.598312 -206.393604 
L 190.703119 -202.340501 
L 194.807925 -204.308027 
L 198.912732 -194.076894 
L 203.017539 -199.992588 
L 207.122346 -199.231811 
L 211.227152 -204.058807 
L 215.331959 -201.146869 
L 219.436766 -198.694021 
L 223.541573 -191.781448 
L 227.646379 -193.198066 
L 231.751186 -187.426658 
L 235.855993 -182.861999 
L 239.960799 -186.469129 
L 244.065606 -182.573428 
L 248.170413 -179.044999 
L 252.27522 -178.139937 
L 256.380026 -179.189284 
L 260.484833 -188.856393 
L 264.58964 -177.916951 
L 268.694447 -181.327329 
L 272.799253 -181.878236 
L 276.90406 -176.867604 
L 281.008867 -178.572793 
L 285.113674 -178.061236 
L 289.21848 -174.152419 
L 293.323287 -174.559041 
L 297.428094 -162.558178 
L 301.532901 -170.755158 
L 305.637707 -165.469073 
L 309.742514 -169.482825 
L 313.847321 -169.745162 
L 317.952128 -162.399733 
L 322.056934 -163.094926 
L 326.161741 -157.76949 
L 330.266548 -154.923136 
L 334.371355 -164.931283 
L 338.476161 -159.435328 
L 342.580968 -162.885056 
L 346.685775 -158.451566 
L 350.790582 -163.462197 
L 354.895388 -153.178597 
L 359.000195 -156.051184 
L 363.105002 -151.525876 
L 367.209809 -155.893782 
L 371.314615 -151.158604 
L 375.419422 -139.196049 
L 379.524229 -149.125495 
L 383.629036 -150.909384 
L 387.733842 -148.194199 
L 391.838649 -153.021195 
L 395.943456 -147.564591 
L 400.048262 -145.439663 
L 404.153069 -148.48277 
L 408.257876 -149.741986 
L 412.362683 -144.639536 
L 416.467489 -147.23667 
L 420.572296 -146.898586 
L 424.677103 -143.742901 
L 428.78191 -146.515678 
L 432.886716 -141.445456 
L 436.991523 -146.108622 
L 441.09633 -139.615788 
L 445.201137 -141.478379 
L 449.305943 -136.113592 
L 453.41075 -137.64279 
L 457.515557 -138.382805 
L 461.620364 -139.405919 
L 465.72517 -134.473901 
L 469.829977 -136.91372 
L 473.934784 -132.995086 
L 478.039591 -129.122318 
L 482.144397 -123.259092 
L 486.249204 -127.233494 
L 490.354011 -128.072972 
L 494.458818 -131.81127 
L 498.563624 -132.506462 
L 502.668431 -127.128559 
L 506.773238 -118.193735 
L 510.878045 -123.84935 
L 514.982851 -131.627634 
L 519.087658 -126.91082 
L 523.192465 -125.368979 
L 527.297272 -126.564535 
L 531.402078 -130.314734 
L 535.506885 -128.715697 
L 539.611692 -125.502072 
L 543.716499 -128.046738 
L 547.821305 -120.464332 
L 551.926112 -124.59701 
L 556.030919 -123.792105 
L 560.135725 -118.443989 
L 564.240532 -113.893671 
L 568.345339 -119.192873 
L 572.450146 -105.984218 
L 576.554952 -116.371624 
L 580.659759 -111.93518 
L 584.764566 -114.497045 
L 588.869373 -112.896791 
L 592.974179 -115.486976 
L 597.078986 -112.962376 
L 601.183793 -114.35276 
L 605.2886 -113.215939 
L 609.393406 -112.24095 
L 613.498213 -115.402107 
L 617.60302 -113.264063 
L 621.707827 -114.169125 
L 625.812633 -117.4221 
L 629.91744 -118.681316 
L 634.022247 -113.202735 
L 638.127054 -102.914879 
L 642.23186 -100.580082 
L 646.336667 -115.830272 
L 650.441474 -110.561994 
L 654.546281 -112.608568 
L 658.651087 -110.483293 
L 662.755894 -103.793707 
L 666.860701 -105.472662 
L 670.965508 -105.498895 
L 675.070314 -112.660688 
L 679.175121 -108.869923 
L 683.279928 -107.696791 
L 687.384735 -100.816185 
L 691.489541 -110.707235 
L 695.594348 -112.410513 
L 699.699155 -103.085397 
L 703.803962 -109.782976 
L 707.908768 -111.152252 
L 712.013575 -108.980279 
L 716.118382 -101.834347 
L 720.223189 -106.744995 
L 724.327995 -107.204084 
L 728.432802 -107.059799 
L 732.537609 -109.945503 
L 736.642415 -102.521374 
L 740.747222 -106.402828 
L 744.852029 -101.813064 
L 748.956836 -100.816185 
L 753.061642 -104.305263 
L 757.166449 -107.282785 
L 761.271256 -105.069254 
L 765.376063 -106.019921 
L 769.480869 -99.058529 
L 773.585676 -104.961105 
L 777.690483 -93.851144 
L 781.79529 -93.872514 
L 785.900096 -94.82179 
L 790.004903 -101.760597 
L 794.10971 -101.065405 
L 798.214517 -96.841783 
L 802.319323 -103.019813 
L 806.42413 -100.409563 
L 810.528937 -99.465151 
L 814.633744 -99.373333 
L 818.73855 -100.42268 
L 822.843357 -100.750601 
L 826.948164 -97.366457 
L 831.052971 -96.789316 
L 835.157777 -94.861141 
L 839.262584 -99.202814 
L 843.367391 -98.38818 
L 847.472198 -96.56633 
L 851.577004 -94.152832 
L 855.681811 -99.110996 
L 859.786618 -99.695347 
L 863.891425 -101.891765 
L 867.996231 -98.035415 
L 872.101038 -100.986704 
L 876.205845 -97.366457 
L 880.310652 -97.432041 
L 884.415458 -97.012302 
L 888.520265 -100.370212 
L 892.625072 -98.242939 
L 896.729878 -98.914243 
L 900.834685 -94.638155 
L 904.939492 -87.659997 
L 909.044299 -90.991674 
L 913.149105 -86.361431 
L 917.253912 -91.135959 
L 921.358719 -88.368307 
L 925.463526 -95.687502 
L 929.568332 -89.115966 
L 933.673139 -97.589443 
L 937.777946 -92.316475 
L 941.882753 -96.172825 
L 945.987559 -92.946083 
L 950.092366 -94.480753 
L 954.197173 -85.377668 
L 954.197173 -112.765623 
L 954.197173 -112.765623 
L 950.092366 -111.676926 
L 945.987559 -111.519524 
L 941.882753 -117.881189 
L 937.777946 -114.260942 
L 933.673139 -118.180531 
L 929.568332 -117.828722 
L 925.463526 -116.307169 
L 921.358719 -117.553268 
L 917.253912 -117.185997 
L 913.149105 -117.540152 
L 909.044299 -115.625093 
L 904.939492 -121.448969 
L 900.834685 -120.49144 
L 896.729878 -122.366105 
L 892.625072 -120.359142 
L 888.520265 -119.993 
L 884.415458 -118.077942 
L 880.310652 -120.438973 
L 876.205845 -124.898697 
L 872.101038 -120.124168 
L 867.996231 -115.83881 
L 863.891425 -118.49742 
L 859.786618 -115.88743 
L 855.681811 -116.989244 
L 851.577004 -117.684437 
L 847.472198 -119.24534 
L 843.367391 -126.525272 
L 839.262584 -119.24534 
L 835.157777 -115.526587 
L 831.052971 -127.05342 
L 826.948164 -121.160399 
L 822.843357 -122.249096 
L 818.73855 -120.019234 
L 814.633744 -121.081698 
L 810.528937 -123.442728 
L 806.42413 -122.800003 
L 802.319323 -127.928686 
L 798.214517 -119.612612 
L 794.10971 -124.59701 
L 790.004903 -124.426491 
L 785.900096 -126.197264 
L 781.79529 -123.928051 
L 777.690483 -126.630119 
L 773.585676 -122.06546 
L 769.480869 -120.557024 
L 765.376063 -130.037457 
L 761.271256 -164.970633 
L 757.166449 -195.567436 
L 753.061642 -128.941549 
L 748.956836 -124.859347 
L 744.852029 -126.813755 
L 740.747222 -135.588919 
L 736.642415 -134.841259 
L 732.537609 -130.381535 
L 728.432802 -130.709456 
L 724.327995 -119.993 
L 720.223189 -128.138556 
L 716.118382 -130.23725 
L 712.013575 -133.044253 
L 707.908768 -136.113592 
L 703.803962 -130.922105 
L 699.699155 -138.356572 
L 695.594348 -134.605156 
L 691.489541 -130.683222 
L 687.384735 -130.233752 
L 683.279928 -134.196623 
L 679.175121 -137.149823 
L 675.070314 -137.333458 
L 670.965508 -134.736325 
L 666.860701 -133.36479 
L 662.755894 -136.520214 
L 658.651087 -131.207896 
L 654.546281 -134.540272 
L 650.441474 -143.682007 
L 646.336667 -141.656716 
L 642.23186 -138.684492 
L 638.127054 -144.114863 
L 634.022247 -133.945753 
L 629.91744 -144.088629 
L 625.812633 -135.615153 
L 621.707827 -140.258513 
L 617.60302 -141.399678 
L 613.498213 -143.642657 
L 609.393406 -144.41655 
L 605.2886 -143.078633 
L 601.183793 -140.324097 
L 597.078986 -143.314736 
L 592.974179 -143.721358 
L 588.869373 -140.297863 
L 584.764566 -137.648262 
L 580.659759 -141.583313 
L 576.554952 -148.102381 
L 572.450146 -149.860037 
L 568.345339 -149.414065 
L 564.240532 -141.885001 
L 560.135725 -148.548354 
L 556.030919 -148.417185 
L 551.926112 -148.629503 
L 547.821305 -149.519 
L 543.716499 -150.201075 
L 539.611692 -162.452201 
L 535.506885 -152.193271 
L 531.402078 -157.598971 
L 527.297272 -153.856937 
L 523.192465 -156.287287 
L 519.087658 -151.38159 
L 514.982851 -153.139247 
L 510.878045 -157.857659 
L 506.773238 -159.05494 
L 502.668431 -158.176112 
L 498.563624 -161.066159 
L 494.458818 -154.529631 
L 490.354011 -161.022466 
L 486.249204 -161.757008 
L 482.144397 -161.5679 
L 478.039591 -160.904414 
L 473.934784 -156.088363 
L 469.829977 -167.646468 
L 465.72517 -174.218003 
L 461.620364 -169.569344 
L 457.515557 -173.365409 
L 453.41075 -164.44596 
L 449.305943 -173.260474 
L 445.201137 -169.771396 
L 441.09633 -168.997502 
L 436.991523 -165.259204 
L 432.886716 -175.411635 
L 428.78191 -175.814696 
L 424.677103 -173.745797 
L 420.572296 -170.37477 
L 416.467489 -175.883842 
L 412.362683 -173.876966 
L 408.257876 -179.766425 
L 404.153069 -174.349172 
L 400.048262 -182.19304 
L 395.943456 -173.457227 
L 391.838649 -177.470979 
L 387.733842 -178.376041 
L 383.629036 -178.861364 
L 379.524229 -173.011254 
L 375.419422 -187.58406 
L 371.314615 -181.720834 
L 367.209809 -187.04627 
L 363.105002 -196.595327 
L 359.000195 -188.86951 
L 354.895388 -196.861399 
L 350.790582 -193.670272 
L 346.685775 -183.386672 
L 342.580968 -192.752094 
L 338.476161 -196.923248 
L 334.371355 -196.634677 
L 330.266548 -203.219329 
L 326.161741 -201.028818 
L 322.056934 -196.634677 
L 317.952128 -201.199337 
L 313.847321 -196.897014 
L 309.742514 -192.76521 
L 305.637707 -197.825269 
L 301.532901 -198.248048 
L 297.428094 -196.805196 
L 293.323287 -203.502862 
L 289.21848 -206.091917 
L 285.113674 -212.702802 
L 281.008867 -211.46982 
L 276.90406 -208.662817 
L 272.799253 -217.228111 
L 268.694447 -212.702802 
L 264.58964 -211.928909 
L 260.484833 -216.191881 
L 256.380026 -213.857084 
L 252.27522 -214.473575 
L 248.170413 -230.515467 
L 244.065606 -221.622251 
L 239.960799 -220.874592 
L 235.855993 -226.960804 
L 231.751186 -222.409262 
L 227.646379 -233.847143 
L 223.541573 -234.175064 
L 219.436766 -231.709099 
L 215.331959 -225.780289 
L 211.227152 -226.803402 
L 207.122346 -233.991428 
L 203.017539 -234.660387 
L 198.912732 -251.85656 
L 194.807925 -244.6423 
L 190.703119 -243.002695 
L 186.598312 -241.809063 
L 182.493505 -256.552388 
L 178.388698 -277.893481 
L 174.283892 -288.84604 
L 170.179085 -266.665469 
L 166.074278 -276.463746 
L 161.969471 -263.474082 
L 157.864665 -288.964091 
L 153.759858 -318.831129 
L 149.655051 -308.114673 
L 145.550244 -286.432542 
L 141.445438 -293.804204 
L 137.340631 -448.950149 
z
" style="stroke: #ffffff; stroke-opacity: 0.3"/>
    </defs>
    <g clip-path="url(#pf6ee48395b)">
     <use xlink:href="#mfeaec850ee" x="0" y="504" style="fill: #4c72b0; fill-opacity: 0.3; stroke: #ffffff; stroke-opacity: 0.3"/>
    </g>
   </g>
   <g id="line2d_18">
    <path d="M 137.340631 86.792596 
L 141.445438 212.779813 
L 145.550244 228.624952 
L 149.655051 229.372611 
L 153.759858 242.082826 
L 157.864665 238.331411 
L 161.969471 249.36267 
L 166.074278 250.503835 
L 170.179085 243.39451 
L 174.283892 251.212144 
L 178.388698 260.944837 
L 182.493505 265.089758 
L 186.598312 277.498285 
L 190.703119 270.336492 
L 194.807925 270.520128 
L 198.912732 278.049192 
L 203.017539 278.154127 
L 207.122346 277.668804 
L 211.227152 282.954889 
L 215.331959 285.040466 
L 219.436766 293.251606 
L 223.541573 290.300318 
L 227.646379 275.793097 
L 231.751186 294.589524 
L 235.855993 298.878729 
L 239.960799 296.360297 
L 244.065606 304.269749 
L 248.170413 297.212891 
L 252.27522 293.409008 
L 256.380026 308.099866 
L 260.484833 297.409644 
L 264.58964 295.494585 
L 268.694447 299.626389 
L 272.799253 308.860642 
L 276.90406 307.116103 
L 281.008867 309.857522 
L 285.113674 309.909989 
L 289.21848 308.152333 
L 293.323287 313.687638 
L 297.428094 313.687638 
L 301.532901 313.333483 
L 305.637707 317.120601 
L 309.742514 313.385951 
L 313.847321 316.15673 
L 317.952128 320.928132 
L 322.056934 315.169841 
L 326.161741 321.177352 
L 330.266548 318.029311 
L 334.371355 315.248542 
L 338.476161 324.482795 
L 342.580968 326.004348 
L 346.685775 329.873815 
L 350.790582 327.250447 
L 354.895388 322.607087 
L 359.000195 337.177026 
L 363.105002 326.673306 
L 367.209809 331.80199 
L 371.314615 335.291068 
L 375.419422 335.156859 
L 379.524229 339.012341 
L 383.629036 340.108248 
L 387.733842 331.290433 
L 391.838649 337.966903 
L 395.943456 335.527171 
L 400.048262 333.310426 
L 404.153069 346.670489 
L 408.257876 337.704566 
L 412.362683 336.786388 
L 416.467489 344.485971 
L 420.572296 336.064962 
L 424.677103 350.204912 
L 428.78191 347.581544 
L 432.886716 336.956906 
L 436.991523 344.47128 
L 441.09633 344.341686 
L 445.201137 335.579378 
L 449.305943 340.517563 
L 453.41075 350.939454 
L 457.515557 341.416631 
L 461.620364 358.633044 
L 465.72517 364.602092 
L 469.829977 353.392303 
L 473.934784 349.9186 
L 478.039591 355.910736 
L 482.144397 346.591266 
L 490.354011 351.516248 
L 494.458818 357.76021 
L 498.563624 353.484121 
L 502.668431 354.887622 
L 506.773238 356.120605 
L 510.878045 359.740852 
L 514.982851 360.068773 
L 519.087658 358.79644 
L 523.192465 357.259859 
L 527.297272 357.104368 
L 531.402078 360.811655 
L 535.506885 366.351738 
L 539.611692 357.248653 
L 543.716499 361.800195 
L 547.821305 361.326599 
L 551.926112 362.65279 
L 556.030919 367.387968 
L 560.135725 364.620315 
L 564.240532 366.377971 
L 568.345339 364.082525 
L 572.450146 369.184974 
L 576.554952 361.590326 
L 580.659759 372.359249 
L 584.764566 372.451067 
L 588.869373 370.925692 
L 592.974179 372.162496 
L 597.078986 370.522892 
L 601.183793 371.401025 
L 605.2886 372.945858 
L 609.393406 376.371427 
L 613.498213 375.664692 
L 617.60302 375.743393 
L 621.707827 378.261825 
L 625.812633 374.930149 
L 629.91744 370.549125 
L 634.022247 377.316284 
L 638.127054 373.710283 
L 642.23186 375.73184 
L 646.336667 378.799616 
L 650.441474 377.146894 
L 658.651087 382.209993 
L 662.755894 378.694681 
L 666.860701 381.606619 
L 670.965508 379.429224 
L 675.070314 382.944536 
L 679.175121 377.157839 
L 683.279928 378.707798 
L 687.384735 382.511681 
L 691.489541 378.742284 
L 695.594348 384.79401 
L 699.699155 385.935175 
L 703.803962 387.194391 
L 707.908768 381.963987 
L 712.013575 388.165037 
L 716.118382 383.495443 
L 720.223189 384.282453 
L 724.327995 385.804007 
L 732.537609 385.069464 
L 736.642415 385.725306 
L 740.747222 391.208143 
L 744.852029 385.54167 
L 748.956836 386.315563 
L 753.061642 389.542305 
L 757.166449 384.644339 
L 761.271256 378.143774 
L 765.376063 383.46921 
L 769.480869 385.819469 
L 773.585676 388.571659 
L 777.690483 390.289965 
L 781.79529 388.584776 
L 785.900096 385.738422 
L 790.004903 387.391144 
L 794.10971 394.211899 
L 798.214517 390.408016 
L 802.319323 388.296206 
L 806.42413 395.300596 
L 810.528937 392.870246 
L 814.633744 391.378662 
L 818.73855 391.982037 
L 822.843357 389.870226 
L 826.948164 388.781528 
L 831.052971 394.434885 
L 835.157777 393.687225 
L 839.262584 394.172548 
L 843.367391 393.621641 
L 847.472198 395.643024 
L 851.577004 392.178789 
L 855.681811 398.251885 
L 859.786618 393.936445 
L 863.891425 390.106329 
L 867.996231 392.201875 
L 872.101038 396.454878 
L 876.205845 394.697222 
L 880.310652 393.411772 
L 884.415458 393.621641 
L 888.520265 391.890219 
L 892.625072 390.814638 
L 896.729878 391.680349 
L 900.834685 393.346188 
L 904.939492 395.722246 
L 909.044299 397.60916 
L 913.149105 398.999544 
L 917.253912 397.635393 
L 921.358719 394.238133 
L 925.463526 400.980187 
L 929.568332 400.114475 
L 933.673139 399.075987 
L 937.777946 398.619156 
L 941.882753 392.060738 
L 950.092366 403.564204 
L 954.197173 393.962679 
L 954.197173 393.962679 
" clip-path="url(#pf6ee48395b)" style="fill: none; stroke: #000000; stroke-width: 2; stroke-linecap: round"/>
   </g>
   <g id="patch_3">
    <path d="M 96.497804 436.800956 
L 96.497804 36.871226 
" style="fill: none; stroke: #cccccc; stroke-width: 1.25; stroke-linejoin: miter; stroke-linecap: square"/>
   </g>
   <g id="patch_4">
    <path d="M 995.04 436.800956 
L 995.04 36.871226 
" style="fill: none; stroke: #cccccc; stroke-width: 1.25; stroke-linejoin: miter; stroke-linecap: square"/>
   </g>
   <g id="patch_5">
    <path d="M 96.497804 436.800956 
L 995.04 436.800956 
" style="fill: none; stroke: #cccccc; stroke-width: 1.25; stroke-linejoin: miter; stroke-linecap: square"/>
   </g>
   <g id="patch_6">
    <path d="M 96.497804 36.871226 
L 995.04 36.871226 
" style="fill: none; stroke: #cccccc; stroke-width: 1.25; stroke-linejoin: miter; stroke-linecap: square"/>
   </g>
   <g id="text_20">
    <!-- Mean Squared Error (MSE) vs Epoch -->
    <g style="fill: #262626" transform="translate(364.008145 30.871226) scale(0.24 -0.24)">
     <defs>
      <path id="CMR17-76" d="M 2502 2163 
C 2560 2304 2662 2560 3034 2560 
L 3034 2726 
C 2912 2726 2752 2726 2630 2726 
C 2496 2726 2285 2726 2157 2732 
L 2157 2566 
C 2317 2553 2406 2477 2406 2311 
C 2406 2253 2406 2240 2368 2151 
L 1664 377 
L 902 2286 
C 864 2369 864 2381 864 2407 
C 864 2560 1075 2560 1171 2560 
L 1171 2732 
C 1018 2726 736 2726 576 2726 
C 403 2726 205 2726 64 2732 
L 64 2560 
C 307 2560 442 2560 518 2362 
L 1446 44 
C 1485 -51 1491 -64 1549 -64 
C 1606 -64 1613 -51 1651 44 
L 2502 2163 
z
" transform="scale(0.015625)"/>
      <path id="CMR17-73" d="M 1978 2697 
C 1978 2813 1971 2819 1933 2819 
C 1907 2819 1901 2813 1824 2717 
C 1805 2691 1747 2626 1728 2601 
C 1523 2819 1235 2819 1126 2819 
C 416 2819 160 2447 160 2076 
C 160 1498 813 1365 998 1325 
C 1402 1243 1542 1217 1677 1101 
C 1760 1025 1901 884 1901 654 
C 1901 384 1747 38 1158 38 
C 602 38 403 460 288 1021 
C 269 1110 269 1117 218 1117 
C 166 1117 160 1110 160 983 
L 160 63 
C 160 -51 166 -58 205 -58 
C 237 -58 243 -51 275 0 
C 314 57 410 211 448 276 
C 576 103 800 -64 1158 -64 
C 1792 -64 2131 283 2131 784 
C 2131 1112 1958 1285 1875 1362 
C 1683 1561 1459 1606 1190 1657 
C 838 1735 390 1825 390 2217 
C 390 2383 480 2737 1126 2737 
C 1811 2737 1850 2094 1862 1888 
C 1869 1856 1901 1849 1920 1849 
C 1978 1849 1978 1869 1978 1978 
L 1978 2697 
z
" transform="scale(0.015625)"/>
     </defs>
     <use xlink:href="#CMR17-4d" transform="scale(0.996264)"/>
     <use xlink:href="#CMR17-65" transform="translate(84.686941 0) scale(0.996264)"/>
     <use xlink:href="#CMR17-61" transform="translate(125.172601 0) scale(0.996264)"/>
     <use xlink:href="#CMR17-6e" transform="translate(170.863078 0) scale(0.996264)"/>
     <use xlink:href="#CMR17-53" transform="translate(251.834414 0) scale(0.996264)"/>
     <use xlink:href="#CMR17-71" transform="translate(302.729784 0) scale(0.996264)"/>
     <use xlink:href="#CMR17-75" transform="translate(351.0227 0) scale(0.996264)"/>
     <use xlink:href="#CMR17-61" transform="translate(401.91807 0) scale(0.996264)"/>
     <use xlink:href="#CMR17-72" transform="translate(447.608547 0) scale(0.996264)"/>
     <use xlink:href="#CMR17-65" transform="translate(482.889315 0) scale(0.996264)"/>
     <use xlink:href="#CMR17-64" transform="translate(523.374975 0) scale(0.996264)"/>
     <use xlink:href="#CMR17-45" transform="translate(604.346311 0) scale(0.996264)"/>
     <use xlink:href="#CMR17-72" transform="translate(666.932612 0) scale(0.996264)"/>
     <use xlink:href="#CMR17-72" transform="translate(702.21338 0) scale(0.996264)"/>
     <use xlink:href="#CMR17-6f" transform="translate(737.494147 0) scale(0.996264)"/>
     <use xlink:href="#CMR17-72" transform="translate(783.184624 0) scale(0.996264)"/>
     <use xlink:href="#CMR17-28" transform="translate(848.541359 0) scale(0.996264)"/>
     <use xlink:href="#CMR17-4d" transform="translate(883.822126 0) scale(0.996264)"/>
     <use xlink:href="#CMR17-53" transform="translate(968.509067 0) scale(0.996264)"/>
     <use xlink:href="#CMR17-45" transform="translate(1019.404437 0) scale(0.996264)"/>
     <use xlink:href="#CMR17-29" transform="translate(1081.990737 0) scale(0.996264)"/>
     <use xlink:href="#CMR17-76" transform="translate(1147.347471 0) scale(0.996264)"/>
     <use xlink:href="#CMR17-73" transform="translate(1195.640387 0) scale(0.996264)"/>
     <use xlink:href="#CMR17-45" transform="translate(1261.517691 0) scale(0.996264)"/>
     <use xlink:href="#CMR17-70" transform="translate(1324.103992 0) scale(0.996264)"/>
     <use xlink:href="#CMR17-6f" transform="translate(1377.6018 0) scale(0.996264)"/>
     <use xlink:href="#CMR17-63" transform="translate(1425.894716 0) scale(0.996264)"/>
     <use xlink:href="#CMR17-68" transform="translate(1463.777923 0) scale(0.996264)"/>
    </g>
   </g>
   <g id="legend_1">
    <g id="patch_7">
     <path d="M 762.842518 115.797602 
L 979.64 115.797602 
Q 984.04 115.797602 984.04 111.397602 
L 984.04 52.271226 
Q 984.04 47.871226 979.64 47.871226 
L 762.842518 47.871226 
Q 758.442518 47.871226 758.442518 52.271226 
L 758.442518 111.397602 
Q 758.442518 115.797602 762.842518 115.797602 
z
" style="fill: #ffffff; opacity: 0.8; stroke: #cccccc; stroke-linejoin: miter"/>
    </g>
    <g id="line2d_19">
     <path d="M 767.242518 64.371226 
L 789.242518 64.371226 
L 811.242518 64.371226 
" style="fill: none; stroke: #000000; stroke-width: 2; stroke-linecap: round"/>
    </g>
    <g id="text_21">
     <!-- Median -->
     <g style="fill: #262626" transform="translate(828.842518 72.071226) scale(0.22 -0.22)">
      <defs>
       <path id="CMR17-69" d="M 992 3909 
C 992 4049 877 4170 730 4170 
C 589 4170 467 4056 467 3909 
C 467 3769 582 3648 730 3648 
C 870 3648 992 3763 992 3909 
z
M 243 2706 
L 243 2541 
C 602 2541 653 2502 653 2197 
L 653 427 
C 653 184 627 153 218 153 
L 218 -13 
C 371 0 646 0 806 0 
C 960 0 1222 0 1370 -13 
L 1370 153 
C 992 153 979 191 979 420 
L 979 2776 
L 243 2706 
z
" transform="scale(0.015625)"/>
      </defs>
      <use xlink:href="#CMR17-4d" transform="scale(0.996264)"/>
      <use xlink:href="#CMR17-65" transform="translate(84.686941 0) scale(0.996264)"/>
      <use xlink:href="#CMR17-64" transform="translate(125.172601 0) scale(0.996264)"/>
      <use xlink:href="#CMR17-69" transform="translate(176.067971 0) scale(0.996264)"/>
      <use xlink:href="#CMR17-61" transform="translate(200.939029 0) scale(0.996264)"/>
      <use xlink:href="#CMR17-6e" transform="translate(246.629506 0) scale(0.996264)"/>
     </g>
    </g>
    <g id="patch_8">
     <path d="M 767.242518 102.734414 
L 811.242518 102.734414 
L 811.242518 87.334414 
L 767.242518 87.334414 
z
" style="fill: #4c72b0; fill-opacity: 0.3; stroke: #ffffff; stroke-opacity: 0.3; stroke-linejoin: miter"/>
    </g>
    <g id="text_22">
     <!-- MinMax Range -->
     <g style="fill: #262626" transform="translate(828.842518 102.734414) scale(0.22 -0.22)">
      <defs>
       <path id="CMR17-7b" d="M 2970 1664 
L 2970 1766 
L -38 1766 
L -38 1664 
L 2970 1664 
z
" transform="scale(0.015625)"/>
       <path id="CMR17-78" d="M 1664 1477 
C 1856 1726 2074 2006 2253 2216 
C 2464 2458 2707 2560 2989 2560 
L 2989 2726 
C 2880 2726 2656 2726 2541 2726 
C 2368 2726 2170 2726 2022 2732 
L 2022 2566 
C 2112 2553 2163 2489 2163 2400 
C 2163 2285 2099 2215 2067 2171 
L 1594 1573 
L 1030 2306 
C 973 2376 973 2388 973 2420 
C 973 2497 1037 2560 1146 2560 
L 1146 2732 
C 992 2726 717 2726 557 2726 
C 384 2726 179 2726 38 2732 
L 38 2560 
C 384 2560 461 2534 614 2343 
L 1350 1395 
C 1363 1382 1395 1344 1395 1325 
C 1395 1299 838 619 768 530 
C 480 185 179 160 6 160 
L 6 0 
C 115 0 339 0 454 0 
C 582 0 864 0 979 -6 
L 979 160 
C 941 166 838 179 838 325 
C 838 440 890 510 947 586 
L 1478 1236 
L 2035 512 
C 2086 442 2163 346 2163 301 
C 2163 211 2086 160 1984 160 
L 1984 -6 
C 2138 0 2413 0 2573 0 
C 2746 0 2950 0 3091 -6 
L 3091 160 
C 2771 160 2675 172 2522 370 
L 1664 1477 
z
" transform="scale(0.015625)"/>
       <path id="CMR17-52" d="M 2509 2146 
C 3117 2268 3629 2676 3629 3186 
C 3629 3785 2950 4326 2054 4326 
L 333 4326 
L 333 4160 
C 774 4160 845 4160 845 3873 
L 845 415 
C 845 128 774 128 333 128 
L 333 -26 
C 518 -26 851 -26 1050 -26 
C 1248 -26 1581 -26 1766 -26 
L 1766 128 
C 1325 128 1254 128 1254 417 
L 1254 2112 
L 2003 2112 
C 2368 2112 2573 1964 2662 1881 
C 2918 1632 2918 1459 2918 1024 
C 2918 595 2918 377 3110 160 
C 3354 -102 3680 -128 3821 -128 
C 4294 -128 4365 396 4365 503 
C 4365 540 4365 585 4307 585 
C 4256 585 4250 547 4250 522 
C 4218 112 4032 -26 3834 -26 
C 3482 -26 3443 375 3405 764 
C 3386 898 3373 993 3360 1133 
C 3322 1452 3270 1917 2509 2146 
z
M 1984 2214 
L 1254 2214 
L 1254 3913 
C 1254 4129 1267 4160 1523 4160 
L 1990 4160 
C 2522 4160 3142 3977 3142 3190 
C 3142 2372 2464 2214 1984 2214 
z
" transform="scale(0.015625)"/>
       <path id="CMR17-67" d="M 710 1164 
C 832 1068 1043 960 1299 960 
C 1805 960 2240 1357 2240 1888 
C 2240 2054 2189 2310 1997 2509 
C 2176 2692 2438 2752 2586 2752 
C 2611 2752 2650 2752 2682 2734 
C 2656 2728 2598 2703 2598 2605 
C 2598 2527 2656 2471 2739 2471 
C 2835 2471 2886 2533 2886 2614 
C 2886 2731 2790 2854 2586 2854 
C 2330 2854 2106 2738 1926 2580 
C 1734 2753 1504 2816 1299 2816 
C 794 2816 358 2419 358 1888 
C 358 1522 570 1292 634 1228 
C 442 1004 442 743 442 711 
C 442 545 506 302 723 168 
C 390 85 128 -169 128 -486 
C 128 -943 736 -1280 1466 -1280 
C 2170 -1280 2803 -956 2803 -479 
C 2803 384 1856 384 1363 384 
C 1216 384 954 384 922 391 
C 723 423 589 602 589 826 
C 589 883 589 1024 710 1164 
z
M 1299 1068 
C 736 1068 736 1760 736 1889 
C 736 2016 736 2708 1299 2708 
C 1862 2708 1862 2016 1862 1889 
C 1862 1760 1862 1068 1299 1068 
z
M 1466 -1171 
C 826 -1171 384 -835 384 -486 
C 384 -289 493 -105 634 -4 
C 794 104 858 104 1293 104 
C 1818 104 2547 104 2547 -486 
C 2547 -835 2106 -1171 1466 -1171 
z
" transform="scale(0.015625)"/>
      </defs>
      <use xlink:href="#CMR17-4d" transform="scale(0.996264)"/>
      <use xlink:href="#CMR17-69" transform="translate(84.686941 0) scale(0.996264)"/>
      <use xlink:href="#CMR17-6e" transform="translate(109.557999 0) scale(0.996264)"/>
      <use xlink:href="#CMR17-7b" transform="translate(160.453369 0) scale(0.996264)"/>
      <use xlink:href="#CMR17-4d" transform="translate(206.143846 0) scale(0.996264)"/>
      <use xlink:href="#CMR17-61" transform="translate(290.830787 0) scale(0.996264)"/>
      <use xlink:href="#CMR17-78" transform="translate(336.521264 0) scale(0.996264)"/>
      <use xlink:href="#CMR17-52" transform="translate(414.890146 0) scale(0.996264)"/>
      <use xlink:href="#CMR17-61" transform="translate(482.681248 0) scale(0.996264)"/>
      <use xlink:href="#CMR17-6e" transform="translate(528.371725 0) scale(0.996264)"/>
      <use xlink:href="#CMR17-67" transform="translate(579.267095 0) scale(0.996264)"/>
      <use xlink:href="#CMR17-65" transform="translate(624.957572 0) scale(0.996264)"/>
     </g>
    </g>
   </g>
  </g>
 </g>
 <defs>
  <clipPath id="pf6ee48395b">
   <rect x="96.497804" y="36.871226" width="898.542196" height="399.92973"/>
  </clipPath>
 </defs>
</svg>
