<?xml version="1.0" encoding="utf-8" standalone="no"?>
<!DOCTYPE svg PUBLIC "-//W3C//DTD SVG 1.1//EN"
  "http://www.w3.org/Graphics/SVG/1.1/DTD/svg11.dtd">
<svg xmlns:xlink="http://www.w3.org/1999/xlink" width="1008pt" height="504pt" viewBox="0 0 1008 504" xmlns="http://www.w3.org/2000/svg" version="1.1">
 <metadata>
  <rdf:RDF xmlns:dc="http://purl.org/dc/elements/1.1/" xmlns:cc="http://creativecommons.org/ns#" xmlns:rdf="http://www.w3.org/1999/02/22-rdf-syntax-ns#">
   <cc:Work>
    <dc:type rdf:resource="http://purl.org/dc/dcmitype/StillImage"/>
    <dc:date>2025-04-25T13:46:40.634788</dc:date>
    <dc:format>image/svg+xml</dc:format>
    <dc:creator>
     <cc:Agent>
      <dc:title>Matplotlib v3.9.2, https://matplotlib.org/</dc:title>
     </cc:Agent>
    </dc:creator>
   </cc:Work>
  </rdf:RDF>
 </metadata>
 <defs>
  <style type="text/css">*{stroke-linejoin: round; stroke-linecap: butt}</style>
 </defs>
 <g id="figure_1">
  <g id="patch_1">
   <path d="M 0 504 
L 1008 504 
L 1008 0 
L 0 0 
z
" style="fill: #ffffff"/>
  </g>
  <g id="axes_1">
   <g id="patch_2">
    <path d="M 70.432615 436.800956 
L 995.04 436.800956 
L 995.04 36.871226 
L 70.432615 36.871226 
z
" style="fill: #ffffff"/>
   </g>
   <g id="matplotlib.axis_1">
    <g id="xtick_1">
     <g id="line2d_1">
      <path d="M 108.236343 436.800956 
L 108.236343 36.871226 
" clip-path="url(#p9a9cd1e6e1)" style="fill: none; stroke: #cccccc; stroke-linecap: round"/>
     </g>
     <g id="text_1">
      <!-- $\mathdefault{0}$ -->
      <g style="fill: #262626" transform="translate(103.210391 461.52165) scale(0.22 -0.22)">
       <defs>
        <path id="CMR17-30" d="M 2688 2025 
C 2688 2416 2682 3080 2413 3591 
C 2176 4039 1798 4198 1466 4198 
C 1158 4198 768 4058 525 3597 
C 269 3118 243 2524 243 2025 
C 243 1661 250 1106 448 619 
C 723 -39 1216 -128 1466 -128 
C 1760 -128 2208 -7 2470 600 
C 2662 1042 2688 1559 2688 2025 
z
M 1466 -26 
C 1056 -26 813 325 723 812 
C 653 1188 653 1738 653 2096 
C 653 2588 653 2997 736 3387 
C 858 3929 1216 4096 1466 4096 
C 1728 4096 2067 3923 2189 3400 
C 2272 3036 2278 2607 2278 2096 
C 2278 1680 2278 1169 2202 792 
C 2067 95 1690 -26 1466 -26 
z
" transform="scale(0.015625)"/>
       </defs>
       <use xlink:href="#CMR17-30" transform="scale(0.996264)"/>
      </g>
     </g>
    </g>
    <g id="xtick_2">
     <g id="line2d_2">
      <path d="M 213.833349 436.800956 
L 213.833349 36.871226 
" clip-path="url(#p9a9cd1e6e1)" style="fill: none; stroke: #cccccc; stroke-linecap: round"/>
     </g>
     <g id="text_2">
      <!-- $\mathdefault{25}$ -->
      <g style="fill: #262626" transform="translate(203.781444 461.52165) scale(0.22 -0.22)">
       <defs>
        <path id="CMR17-32" d="M 2669 989 
L 2554 989 
C 2490 536 2438 459 2413 420 
C 2381 369 1920 369 1830 369 
L 602 369 
C 832 619 1280 1072 1824 1597 
C 2214 1967 2669 2402 2669 3035 
C 2669 3790 2067 4224 1395 4224 
C 691 4224 262 3604 262 3030 
C 262 2780 448 2748 525 2748 
C 589 2748 781 2787 781 3010 
C 781 3207 614 3264 525 3264 
C 486 3264 448 3258 422 3245 
C 544 3790 915 4058 1306 4058 
C 1862 4058 2227 3617 2227 3035 
C 2227 2479 1901 2000 1536 1584 
L 262 146 
L 262 0 
L 2515 0 
L 2669 989 
z
" transform="scale(0.015625)"/>
        <path id="CMR17-35" d="M 730 3692 
C 794 3666 1056 3584 1325 3584 
C 1920 3584 2246 3911 2432 4100 
C 2432 4157 2432 4192 2394 4192 
C 2387 4192 2374 4192 2323 4163 
C 2099 4058 1837 3973 1517 3973 
C 1325 3973 1037 3999 723 4139 
C 653 4171 640 4171 634 4171 
C 602 4171 595 4164 595 4037 
L 595 2203 
C 595 2089 595 2057 659 2057 
C 691 2057 704 2070 736 2114 
C 941 2401 1222 2522 1542 2522 
C 1766 2522 2246 2382 2246 1289 
C 2246 1085 2246 715 2054 421 
C 1894 159 1645 25 1370 25 
C 947 25 518 320 403 814 
C 429 807 480 795 506 795 
C 589 795 749 840 749 1038 
C 749 1210 627 1280 506 1280 
C 358 1280 262 1190 262 1011 
C 262 454 704 -128 1382 -128 
C 2042 -128 2669 440 2669 1264 
C 2669 2030 2170 2624 1549 2624 
C 1222 2624 947 2503 730 2274 
L 730 3692 
z
" transform="scale(0.015625)"/>
       </defs>
       <use xlink:href="#CMR17-32" transform="scale(0.996264)"/>
       <use xlink:href="#CMR17-35" transform="translate(45.690477 0) scale(0.996264)"/>
      </g>
     </g>
    </g>
    <g id="xtick_3">
     <g id="line2d_3">
      <path d="M 319.430355 436.800956 
L 319.430355 36.871226 
" clip-path="url(#p9a9cd1e6e1)" style="fill: none; stroke: #cccccc; stroke-linecap: round"/>
     </g>
     <g id="text_3">
      <!-- $\mathdefault{50}$ -->
      <g style="fill: #262626" transform="translate(309.37845 461.52165) scale(0.22 -0.22)">
       <use xlink:href="#CMR17-35" transform="scale(0.996264)"/>
       <use xlink:href="#CMR17-30" transform="translate(45.690477 0) scale(0.996264)"/>
      </g>
     </g>
    </g>
    <g id="xtick_4">
     <g id="line2d_4">
      <path d="M 425.027361 436.800956 
L 425.027361 36.871226 
" clip-path="url(#p9a9cd1e6e1)" style="fill: none; stroke: #cccccc; stroke-linecap: round"/>
     </g>
     <g id="text_4">
      <!-- $\mathdefault{75}$ -->
      <g style="fill: #262626" transform="translate(414.975456 461.52165) scale(0.22 -0.22)">
       <defs>
        <path id="CMR17-37" d="M 2886 3941 
L 2886 4081 
L 1382 4081 
C 634 4081 621 4165 595 4288 
L 480 4288 
L 294 3094 
L 410 3094 
C 429 3215 474 3540 550 3661 
C 589 3712 1062 3712 1171 3712 
L 2579 3712 
L 1869 2661 
C 1395 1954 1069 999 1069 165 
C 1069 89 1069 -128 1299 -128 
C 1530 -128 1530 89 1530 171 
L 1530 465 
C 1530 1508 1709 2196 2003 2636 
L 2886 3941 
z
" transform="scale(0.015625)"/>
       </defs>
       <use xlink:href="#CMR17-37" transform="scale(0.996264)"/>
       <use xlink:href="#CMR17-35" transform="translate(45.690477 0) scale(0.996264)"/>
      </g>
     </g>
    </g>
    <g id="xtick_5">
     <g id="line2d_5">
      <path d="M 530.624367 436.800956 
L 530.624367 36.871226 
" clip-path="url(#p9a9cd1e6e1)" style="fill: none; stroke: #cccccc; stroke-linecap: round"/>
     </g>
     <g id="text_5">
      <!-- $\mathdefault{100}$ -->
      <g style="fill: #262626" transform="translate(515.54651 461.52165) scale(0.22 -0.22)">
       <defs>
        <path id="CMR17-31" d="M 1702 4058 
C 1702 4192 1696 4192 1606 4192 
C 1357 3916 979 3827 621 3827 
C 602 3827 570 3827 563 3808 
C 557 3795 557 3782 557 3648 
C 755 3648 1088 3686 1344 3839 
L 1344 461 
C 1344 236 1331 160 781 160 
L 589 160 
L 589 0 
C 896 0 1216 0 1523 0 
C 1830 0 2150 0 2458 0 
L 2458 160 
L 2266 160 
C 1715 160 1702 230 1702 458 
L 1702 4058 
z
" transform="scale(0.015625)"/>
       </defs>
       <use xlink:href="#CMR17-31" transform="scale(0.996264)"/>
       <use xlink:href="#CMR17-30" transform="translate(45.690477 0) scale(0.996264)"/>
       <use xlink:href="#CMR17-30" transform="translate(91.380954 0) scale(0.996264)"/>
      </g>
     </g>
    </g>
    <g id="xtick_6">
     <g id="line2d_6">
      <path d="M 636.221373 436.800956 
L 636.221373 36.871226 
" clip-path="url(#p9a9cd1e6e1)" style="fill: none; stroke: #cccccc; stroke-linecap: round"/>
     </g>
     <g id="text_6">
      <!-- $\mathdefault{125}$ -->
      <g style="fill: #262626" transform="translate(621.143516 461.52165) scale(0.22 -0.22)">
       <use xlink:href="#CMR17-31" transform="scale(0.996264)"/>
       <use xlink:href="#CMR17-32" transform="translate(45.690477 0) scale(0.996264)"/>
       <use xlink:href="#CMR17-35" transform="translate(91.380954 0) scale(0.996264)"/>
      </g>
     </g>
    </g>
    <g id="xtick_7">
     <g id="line2d_7">
      <path d="M 741.818379 436.800956 
L 741.818379 36.871226 
" clip-path="url(#p9a9cd1e6e1)" style="fill: none; stroke: #cccccc; stroke-linecap: round"/>
     </g>
     <g id="text_7">
      <!-- $\mathdefault{150}$ -->
      <g style="fill: #262626" transform="translate(726.740522 461.52165) scale(0.22 -0.22)">
       <use xlink:href="#CMR17-31" transform="scale(0.996264)"/>
       <use xlink:href="#CMR17-35" transform="translate(45.690477 0) scale(0.996264)"/>
       <use xlink:href="#CMR17-30" transform="translate(91.380954 0) scale(0.996264)"/>
      </g>
     </g>
    </g>
    <g id="xtick_8">
     <g id="line2d_8">
      <path d="M 847.415386 436.800956 
L 847.415386 36.871226 
" clip-path="url(#p9a9cd1e6e1)" style="fill: none; stroke: #cccccc; stroke-linecap: round"/>
     </g>
     <g id="text_8">
      <!-- $\mathdefault{175}$ -->
      <g style="fill: #262626" transform="translate(832.337528 461.52165) scale(0.22 -0.22)">
       <use xlink:href="#CMR17-31" transform="scale(0.996264)"/>
       <use xlink:href="#CMR17-37" transform="translate(45.690477 0) scale(0.996264)"/>
       <use xlink:href="#CMR17-35" transform="translate(91.380954 0) scale(0.996264)"/>
      </g>
     </g>
    </g>
    <g id="xtick_9">
     <g id="line2d_9">
      <path d="M 953.012392 436.800956 
L 953.012392 36.871226 
" clip-path="url(#p9a9cd1e6e1)" style="fill: none; stroke: #cccccc; stroke-linecap: round"/>
     </g>
     <g id="text_9">
      <!-- $\mathdefault{200}$ -->
      <g style="fill: #262626" transform="translate(937.934534 461.52165) scale(0.22 -0.22)">
       <use xlink:href="#CMR17-32" transform="scale(0.996264)"/>
       <use xlink:href="#CMR17-30" transform="translate(45.690477 0) scale(0.996264)"/>
       <use xlink:href="#CMR17-30" transform="translate(91.380954 0) scale(0.996264)"/>
      </g>
     </g>
    </g>
    <g id="text_10">
     <!-- Epoch -->
     <g style="fill: #262626" transform="translate(502.357643 486.389243) scale(0.24 -0.24)">
      <defs>
       <path id="CMR17-45" d="M 3885 1615 
L 3770 1615 
C 3629 676 3546 166 2419 166 
L 1530 166 
C 1274 166 1261 197 1261 414 
L 1261 2176 
L 1862 2176 
C 2464 2176 2522 1960 2522 1430 
L 2637 1430 
L 2637 3081 
L 2522 3081 
C 2522 2557 2464 2342 1862 2342 
L 1261 2342 
L 1261 3913 
C 1261 4128 1274 4160 1530 4160 
L 2406 4160 
C 3398 4160 3514 3769 3603 2929 
L 3718 2929 
L 3565 4325 
L 326 4325 
L 326 4160 
C 768 4160 838 4160 838 3874 
L 838 451 
C 838 166 768 166 326 166 
L 326 0 
L 3654 0 
L 3885 1615 
z
" transform="scale(0.015625)"/>
       <path id="CMR17-70" d="M 1408 -1063 
C 998 -1063 973 -1037 973 -789 
L 973 402 
C 1158 134 1427 -38 1766 -38 
C 2406 -38 3053 523 3053 1388 
C 3053 2191 2496 2802 1837 2802 
C 1453 2802 1139 2592 960 2338 
L 960 2802 
L 198 2732 
L 198 2567 
C 576 2567 634 2528 634 2223 
L 634 -789 
C 634 -1031 608 -1063 198 -1063 
L 198 -1228 
C 352 -1216 634 -1216 800 -1216 
C 966 -1216 1254 -1216 1408 -1228 
L 1408 -1063 
z
M 973 2012 
C 973 2102 973 2235 1222 2471 
C 1254 2497 1472 2688 1792 2688 
C 2259 2688 2643 2108 2643 1382 
C 2643 656 2234 64 1728 64 
C 1498 64 1248 172 1056 472 
C 973 612 973 650 973 752 
L 973 2012 
z
" transform="scale(0.015625)"/>
       <path id="CMR17-6f" d="M 2758 1356 
C 2758 2176 2163 2816 1466 2816 
C 768 2816 173 2176 173 1356 
C 173 551 768 -64 1466 -64 
C 2163 -64 2758 551 2758 1356 
z
M 1466 51 
C 1165 51 909 230 762 480 
C 602 767 582 1126 582 1408 
C 582 1677 595 2010 762 2298 
C 890 2509 1139 2714 1466 2714 
C 1754 2714 1997 2554 2150 2330 
C 2349 2029 2349 1607 2349 1408 
C 2349 1158 2336 775 2163 467 
C 1984 173 1709 51 1466 51 
z
" transform="scale(0.015625)"/>
       <path id="CMR17-63" d="M 2234 2240 
C 2112 2240 1933 2240 1933 2017 
C 1933 1838 2080 1787 2163 1787 
C 2208 1787 2394 1807 2394 2024 
C 2394 2467 1958 2803 1466 2803 
C 787 2803 211 2178 211 1363 
C 211 516 813 -64 1466 -64 
C 2259 -64 2458 677 2458 748 
C 2458 774 2451 793 2406 793 
C 2362 793 2355 787 2330 703 
C 2163 180 1798 51 1523 51 
C 1114 51 621 427 621 1369 
C 621 2338 1094 2688 1472 2688 
C 1722 2688 2093 2573 2234 2240 
z
" transform="scale(0.015625)"/>
       <path id="CMR17-68" d="M 2656 1933 
C 2656 2259 2592 2790 1837 2790 
C 1312 2790 1056 2368 979 2157 
L 973 2157 
L 973 4396 
L 211 4326 
L 211 4160 
C 589 4160 646 4122 646 3817 
L 646 426 
C 646 184 621 153 211 153 
L 211 -13 
C 365 0 646 0 813 0 
C 979 0 1267 0 1421 -13 
L 1421 153 
C 1011 153 986 178 986 428 
L 986 1658 
C 986 2247 1344 2688 1792 2688 
C 2266 2688 2317 2266 2317 1958 
L 2317 428 
C 2317 184 2291 153 1882 153 
L 1882 -13 
C 2035 0 2317 0 2483 0 
C 2650 0 2938 0 3091 -13 
L 3091 153 
C 2682 153 2656 178 2656 428 
L 2656 1933 
z
" transform="scale(0.015625)"/>
      </defs>
      <use xlink:href="#CMR17-45" transform="scale(0.996264)"/>
      <use xlink:href="#CMR17-70" transform="translate(62.586301 0) scale(0.996264)"/>
      <use xlink:href="#CMR17-6f" transform="translate(116.084109 0) scale(0.996264)"/>
      <use xlink:href="#CMR17-63" transform="translate(164.377025 0) scale(0.996264)"/>
      <use xlink:href="#CMR17-68" transform="translate(202.260231 0) scale(0.996264)"/>
     </g>
    </g>
   </g>
   <g id="matplotlib.axis_2">
    <g id="ytick_1">
     <g id="line2d_10">
      <path d="M 70.432615 419.60148 
L 995.04 419.60148 
" clip-path="url(#p9a9cd1e6e1)" style="fill: none; stroke: #cccccc; stroke-linecap: round"/>
     </g>
     <g id="text_11">
      <!-- $\mathdefault{24}$ -->
      <g style="fill: #262626" transform="translate(40.828805 427.211827) scale(0.22 -0.22)">
       <defs>
        <path id="CMR17-34" d="M 2150 4122 
C 2150 4256 2144 4256 2029 4256 
L 128 1254 
L 128 1088 
L 1779 1088 
L 1779 457 
C 1779 224 1766 160 1318 160 
L 1197 160 
L 1197 0 
C 1402 0 1747 0 1965 0 
C 2182 0 2528 0 2733 0 
L 2733 160 
L 2611 160 
C 2163 160 2150 224 2150 457 
L 2150 1088 
L 2803 1088 
L 2803 1254 
L 2150 1254 
L 2150 4122 
z
M 1798 3703 
L 1798 1254 
L 256 1254 
L 1798 3703 
z
" transform="scale(0.015625)"/>
       </defs>
       <use xlink:href="#CMR17-32" transform="scale(0.996264)"/>
       <use xlink:href="#CMR17-34" transform="translate(45.690477 0) scale(0.996264)"/>
      </g>
     </g>
    </g>
    <g id="ytick_2">
     <g id="line2d_11">
      <path d="M 70.432615 357.065051 
L 995.04 357.065051 
" clip-path="url(#p9a9cd1e6e1)" style="fill: none; stroke: #cccccc; stroke-linecap: round"/>
     </g>
     <g id="text_12">
      <!-- $\mathdefault{25}$ -->
      <g style="fill: #262626" transform="translate(40.828805 364.675397) scale(0.22 -0.22)">
       <use xlink:href="#CMR17-32" transform="scale(0.996264)"/>
       <use xlink:href="#CMR17-35" transform="translate(45.690477 0) scale(0.996264)"/>
      </g>
     </g>
    </g>
    <g id="ytick_3">
     <g id="line2d_12">
      <path d="M 70.432615 294.528622 
L 995.04 294.528622 
" clip-path="url(#p9a9cd1e6e1)" style="fill: none; stroke: #cccccc; stroke-linecap: round"/>
     </g>
     <g id="text_13">
      <!-- $\mathdefault{26}$ -->
      <g style="fill: #262626" transform="translate(40.828805 302.138968) scale(0.22 -0.22)">
       <defs>
        <path id="CMR17-36" d="M 678 2176 
C 678 3690 1395 4032 1811 4032 
C 1946 4032 2272 4009 2400 3776 
C 2298 3776 2106 3776 2106 3553 
C 2106 3381 2246 3323 2336 3323 
C 2394 3323 2566 3348 2566 3560 
C 2566 3954 2246 4179 1805 4179 
C 1043 4179 243 3390 243 1984 
C 243 253 966 -128 1478 -128 
C 2099 -128 2688 427 2688 1283 
C 2688 2081 2170 2662 1517 2662 
C 1126 2662 838 2407 678 1960 
L 678 2176 
z
M 1478 25 
C 691 25 691 1200 691 1436 
C 691 1896 909 2560 1504 2560 
C 1613 2560 1926 2560 2138 2120 
C 2253 1870 2253 1609 2253 1289 
C 2253 944 2253 690 2118 434 
C 1978 171 1773 25 1478 25 
z
" transform="scale(0.015625)"/>
       </defs>
       <use xlink:href="#CMR17-32" transform="scale(0.996264)"/>
       <use xlink:href="#CMR17-36" transform="translate(45.690477 0) scale(0.996264)"/>
      </g>
     </g>
    </g>
    <g id="ytick_4">
     <g id="line2d_13">
      <path d="M 70.432615 231.992192 
L 995.04 231.992192 
" clip-path="url(#p9a9cd1e6e1)" style="fill: none; stroke: #cccccc; stroke-linecap: round"/>
     </g>
     <g id="text_14">
      <!-- $\mathdefault{27}$ -->
      <g style="fill: #262626" transform="translate(40.828805 239.602539) scale(0.22 -0.22)">
       <use xlink:href="#CMR17-32" transform="scale(0.996264)"/>
       <use xlink:href="#CMR17-37" transform="translate(45.690477 0) scale(0.996264)"/>
      </g>
     </g>
    </g>
    <g id="ytick_5">
     <g id="line2d_14">
      <path d="M 70.432615 169.455763 
L 995.04 169.455763 
" clip-path="url(#p9a9cd1e6e1)" style="fill: none; stroke: #cccccc; stroke-linecap: round"/>
     </g>
     <g id="text_15">
      <!-- $\mathdefault{28}$ -->
      <g style="fill: #262626" transform="translate(40.828805 177.06611) scale(0.22 -0.22)">
       <defs>
        <path id="CMR17-38" d="M 1741 2264 
C 2144 2467 2554 2773 2554 3263 
C 2554 3841 1990 4179 1472 4179 
C 890 4179 378 3759 378 3180 
C 378 3021 416 2747 666 2505 
C 730 2442 998 2251 1171 2130 
C 883 1983 211 1634 211 934 
C 211 279 838 -128 1459 -128 
C 2144 -128 2720 362 2720 1010 
C 2720 1590 2330 1857 2074 2029 
L 1741 2264 
z
M 902 2822 
C 851 2854 595 3051 595 3351 
C 595 3739 998 4032 1459 4032 
C 1965 4032 2336 3676 2336 3262 
C 2336 2669 1670 2331 1638 2331 
C 1632 2331 1626 2331 1574 2370 
L 902 2822 
z
M 2080 1519 
C 2176 1449 2483 1240 2483 851 
C 2483 381 2010 25 1472 25 
C 890 25 448 438 448 940 
C 448 1443 838 1862 1280 2060 
L 2080 1519 
z
" transform="scale(0.015625)"/>
       </defs>
       <use xlink:href="#CMR17-32" transform="scale(0.996264)"/>
       <use xlink:href="#CMR17-38" transform="translate(45.690477 0) scale(0.996264)"/>
      </g>
     </g>
    </g>
    <g id="ytick_6">
     <g id="line2d_15">
      <path d="M 70.432615 106.919334 
L 995.04 106.919334 
" clip-path="url(#p9a9cd1e6e1)" style="fill: none; stroke: #cccccc; stroke-linecap: round"/>
     </g>
     <g id="text_16">
      <!-- $\mathdefault{29}$ -->
      <g style="fill: #262626" transform="translate(40.828805 114.529681) scale(0.22 -0.22)">
       <defs>
        <path id="CMR17-39" d="M 2253 1864 
C 2253 464 1670 31 1190 31 
C 1043 31 685 31 538 294 
C 704 268 826 357 826 518 
C 826 692 685 749 595 749 
C 538 749 365 723 365 506 
C 365 71 742 -128 1203 -128 
C 1939 -128 2688 674 2688 2073 
C 2688 3817 1971 4179 1485 4179 
C 851 4179 243 3628 243 2778 
C 243 1991 762 1408 1414 1408 
C 1952 1408 2189 1903 2253 2112 
L 2253 1864 
z
M 1427 1510 
C 1254 1510 1011 1542 813 1922 
C 678 2169 678 2461 678 2771 
C 678 3146 678 3405 858 3684 
C 947 3817 1114 4032 1485 4032 
C 2240 4032 2240 2885 2240 2632 
C 2240 2182 2035 1510 1427 1510 
z
" transform="scale(0.015625)"/>
       </defs>
       <use xlink:href="#CMR17-32" transform="scale(0.996264)"/>
       <use xlink:href="#CMR17-39" transform="translate(45.690477 0) scale(0.996264)"/>
      </g>
     </g>
    </g>
    <g id="ytick_7">
     <g id="line2d_16">
      <path d="M 70.432615 44.382905 
L 995.04 44.382905 
" clip-path="url(#p9a9cd1e6e1)" style="fill: none; stroke: #cccccc; stroke-linecap: round"/>
     </g>
     <g id="text_17">
      <!-- $\mathdefault{30}$ -->
      <g style="fill: #262626" transform="translate(40.828805 51.993252) scale(0.22 -0.22)">
       <defs>
        <path id="CMR17-33" d="M 1414 2157 
C 1984 2157 2234 1662 2234 1090 
C 2234 320 1824 25 1453 25 
C 1114 25 563 194 390 693 
C 422 680 454 680 486 680 
C 640 680 755 782 755 948 
C 755 1133 614 1216 486 1216 
C 378 1216 211 1165 211 926 
C 211 335 787 -128 1466 -128 
C 2176 -128 2720 430 2720 1085 
C 2720 1707 2208 2157 1600 2227 
C 2086 2328 2554 2756 2554 3329 
C 2554 3820 2048 4179 1472 4179 
C 890 4179 378 3829 378 3329 
C 378 3110 544 3072 627 3072 
C 762 3072 877 3155 877 3321 
C 877 3486 762 3569 627 3569 
C 602 3569 570 3569 544 3557 
C 730 3959 1235 4032 1459 4032 
C 1683 4032 2106 3925 2106 3320 
C 2106 3143 2080 2828 1862 2550 
C 1670 2304 1453 2304 1242 2284 
C 1210 2284 1062 2269 1037 2269 
C 992 2263 966 2257 966 2208 
C 966 2163 973 2157 1101 2157 
L 1414 2157 
z
" transform="scale(0.015625)"/>
       </defs>
       <use xlink:href="#CMR17-33" transform="scale(0.996264)"/>
       <use xlink:href="#CMR17-30" transform="translate(45.690477 0) scale(0.996264)"/>
      </g>
     </g>
    </g>
    <g id="text_18">
     <!-- Peak Signal-to-Noise Ratio (PSNR), dB -->
     <g style="fill: #262626" transform="translate(30.871226 428.344125) rotate(-90) scale(0.24 -0.24)">
      <defs>
       <path id="CMR17-50" d="M 1267 2042 
L 2291 2042 
C 3117 2042 3718 2578 3718 3184 
C 3718 3791 3130 4352 2291 4352 
L 333 4352 
L 333 4186 
C 774 4186 845 4186 845 3899 
L 845 446 
C 845 160 774 160 333 160 
L 333 0 
C 518 0 858 0 1056 0 
C 1254 0 1594 0 1779 0 
L 1779 160 
C 1338 160 1267 160 1267 446 
L 1267 2042 
z
M 1254 2176 
L 1254 3938 
C 1254 4155 1267 4186 1523 4186 
L 2170 4186 
C 2995 4186 3232 3714 3232 3184 
C 3232 2604 2950 2176 2170 2176 
L 1254 2176 
z
" transform="scale(0.015625)"/>
       <path id="CMR17-65" d="M 2438 1472 
C 2464 1498 2464 1511 2464 1576 
C 2464 2238 2118 2816 1389 2816 
C 710 2816 173 2169 173 1383 
C 173 551 781 -64 1459 -64 
C 2176 -64 2458 607 2458 740 
C 2458 784 2419 784 2406 784 
C 2362 784 2355 771 2330 696 
C 2189 265 1837 51 1504 51 
C 1229 51 954 203 781 480 
C 582 803 582 1176 582 1472 
L 2438 1472 
z
M 589 1568 
C 634 2505 1126 2714 1382 2714 
C 1818 2714 2112 2297 2118 1568 
L 589 1568 
z
" transform="scale(0.015625)"/>
       <path id="CMR17-61" d="M 2304 1653 
C 2304 2072 2304 2294 2035 2543 
C 1798 2752 1523 2816 1306 2816 
C 800 2816 435 2407 435 1971 
C 435 1728 627 1728 666 1728 
C 749 1728 896 1778 896 1954 
C 896 2112 774 2181 666 2181 
C 640 2181 608 2174 589 2168 
C 723 2592 1069 2714 1293 2714 
C 1613 2714 1965 2429 1965 1885 
L 1965 1600 
C 1587 1600 1133 1549 774 1357 
C 371 1133 256 813 256 570 
C 256 77 832 -64 1171 -64 
C 1523 -64 1850 139 1990 511 
C 2003 233 2182 -18 2464 -18 
C 2598 -18 2938 70 2938 567 
L 2938 920 
L 2822 920 
L 2822 562 
C 2822 178 2650 128 2566 128 
C 2304 128 2304 458 2304 738 
L 2304 1653 
z
M 1965 870 
C 1965 317 1568 38 1216 38 
C 896 38 646 275 646 570 
C 646 761 730 1100 1101 1305 
C 1408 1478 1760 1504 1965 1504 
L 1965 870 
z
" transform="scale(0.015625)"/>
       <path id="CMR17-6b" d="M 1670 1673 
C 1664 1686 1632 1724 1632 1743 
C 1632 1756 2086 2171 2144 2222 
C 2509 2528 2739 2560 2906 2560 
L 2906 2733 
C 2867 2733 2854 2733 2848 2720 
L 2534 2720 
C 2355 2720 2080 2720 1907 2733 
L 1907 2566 
C 1997 2559 2061 2508 2061 2419 
C 2061 2291 1933 2170 1926 2170 
L 960 1289 
L 960 4396 
L 198 4326 
L 198 4160 
C 576 4160 634 4122 634 3817 
L 634 426 
C 634 184 608 153 198 153 
L 198 -13 
C 352 0 634 0 794 0 
C 954 0 1235 0 1389 -13 
L 1389 153 
C 979 153 954 178 954 428 
L 954 1130 
L 1395 1532 
L 2042 574 
C 2118 459 2182 369 2182 286 
C 2182 172 2067 153 1990 153 
L 1990 -13 
C 2144 0 2419 0 2579 0 
C 2694 0 2931 0 3040 0 
L 3040 153 
C 2739 153 2669 210 2477 491 
L 1670 1673 
z
" transform="scale(0.015625)"/>
       <path id="CMR17-53" d="M 2803 4290 
C 2803 4404 2797 4411 2758 4411 
C 2720 4411 2707 4385 2682 4328 
L 2490 3907 
C 2246 4257 1875 4416 1472 4416 
C 819 4416 294 3901 294 3253 
C 294 3056 339 2776 557 2510 
C 794 2218 1018 2167 1530 2033 
C 1722 1982 2042 1899 2106 1874 
C 2470 1722 2662 1341 2662 985 
C 2662 527 2336 38 1779 38 
C 1094 38 454 419 410 1311 
C 403 1413 397 1419 352 1419 
C 301 1419 294 1413 294 1285 
L 294 -1 
C 294 -115 301 -122 339 -122 
C 384 -122 397 -90 486 108 
C 493 127 493 140 614 381 
C 934 -39 1472 -128 1779 -128 
C 2477 -128 2970 451 2970 1124 
C 2970 1454 2848 1708 2778 1823 
C 2509 2230 2221 2306 1914 2382 
C 1869 2402 1856 2402 1498 2490 
C 1152 2579 1005 2624 845 2796 
C 666 2992 602 3196 602 3399 
C 602 3812 934 4263 1478 4263 
C 2157 4263 2579 3786 2675 2993 
C 2694 2878 2701 2872 2746 2872 
C 2803 2872 2803 2891 2803 2999 
L 2803 4290 
z
" transform="scale(0.015625)"/>
       <path id="CMR17-69" d="M 992 3909 
C 992 4049 877 4170 730 4170 
C 589 4170 467 4056 467 3909 
C 467 3769 582 3648 730 3648 
C 870 3648 992 3763 992 3909 
z
M 243 2706 
L 243 2541 
C 602 2541 653 2502 653 2197 
L 653 427 
C 653 184 627 153 218 153 
L 218 -13 
C 371 0 646 0 806 0 
C 960 0 1222 0 1370 -13 
L 1370 153 
C 992 153 979 191 979 420 
L 979 2776 
L 243 2706 
z
" transform="scale(0.015625)"/>
       <path id="CMR17-67" d="M 710 1164 
C 832 1068 1043 960 1299 960 
C 1805 960 2240 1357 2240 1888 
C 2240 2054 2189 2310 1997 2509 
C 2176 2692 2438 2752 2586 2752 
C 2611 2752 2650 2752 2682 2734 
C 2656 2728 2598 2703 2598 2605 
C 2598 2527 2656 2471 2739 2471 
C 2835 2471 2886 2533 2886 2614 
C 2886 2731 2790 2854 2586 2854 
C 2330 2854 2106 2738 1926 2580 
C 1734 2753 1504 2816 1299 2816 
C 794 2816 358 2419 358 1888 
C 358 1522 570 1292 634 1228 
C 442 1004 442 743 442 711 
C 442 545 506 302 723 168 
C 390 85 128 -169 128 -486 
C 128 -943 736 -1280 1466 -1280 
C 2170 -1280 2803 -956 2803 -479 
C 2803 384 1856 384 1363 384 
C 1216 384 954 384 922 391 
C 723 423 589 602 589 826 
C 589 883 589 1024 710 1164 
z
M 1299 1068 
C 736 1068 736 1760 736 1889 
C 736 2016 736 2708 1299 2708 
C 1862 2708 1862 2016 1862 1889 
C 1862 1760 1862 1068 1299 1068 
z
M 1466 -1171 
C 826 -1171 384 -835 384 -486 
C 384 -289 493 -105 634 -4 
C 794 104 858 104 1293 104 
C 1818 104 2547 104 2547 -486 
C 2547 -835 2106 -1171 1466 -1171 
z
" transform="scale(0.015625)"/>
       <path id="CMR17-6e" d="M 2656 1933 
C 2656 2259 2592 2790 1837 2790 
C 1331 2790 1069 2400 973 2144 
L 966 2144 
L 966 2790 
L 211 2720 
L 211 2554 
C 589 2554 646 2515 646 2208 
L 646 428 
C 646 184 621 153 211 153 
L 211 -13 
C 365 0 646 0 813 0 
C 979 0 1267 0 1421 -13 
L 1421 153 
C 1011 153 986 178 986 428 
L 986 1658 
C 986 2247 1344 2688 1792 2688 
C 2266 2688 2317 2266 2317 1958 
L 2317 428 
C 2317 184 2291 153 1882 153 
L 1882 -13 
C 2035 0 2317 0 2483 0 
C 2650 0 2938 0 3091 -13 
L 3091 153 
C 2682 153 2656 178 2656 428 
L 2656 1933 
z
" transform="scale(0.015625)"/>
       <path id="CMR17-6c" d="M 979 4396 
L 218 4326 
L 218 4160 
C 595 4160 653 4122 653 3817 
L 653 426 
C 653 184 627 153 218 153 
L 218 -13 
C 371 0 653 0 813 0 
C 979 0 1261 0 1414 -13 
L 1414 153 
C 1005 153 979 178 979 426 
L 979 4396 
z
" transform="scale(0.015625)"/>
       <path id="CMR17-2d" d="M 1632 1216 
L 1632 1496 
L 26 1496 
L 26 1216 
L 1632 1216 
z
" transform="scale(0.015625)"/>
       <path id="CMR17-74" d="M 966 2560 
L 1862 2560 
L 1862 2725 
L 966 2725 
L 966 3904 
L 851 3904 
C 838 3245 614 2668 70 2668 
L 70 2560 
L 627 2560 
L 627 771 
C 627 650 627 -64 1370 -64 
C 1747 -64 1965 306 1965 777 
L 1965 1140 
L 1850 1140 
L 1850 783 
C 1850 344 1677 51 1408 51 
C 1222 51 966 178 966 758 
L 966 2560 
z
" transform="scale(0.015625)"/>
       <path id="CMR17-4e" d="M 1312 4250 
C 1267 4320 1261 4320 1139 4320 
L 326 4320 
L 326 4160 
L 448 4160 
C 704 4160 819 4129 838 4122 
L 838 610 
C 838 451 838 153 326 153 
L 326 -13 
C 474 0 742 0 902 0 
C 1062 0 1331 0 1478 -13 
L 1478 153 
C 966 153 966 451 966 610 
L 966 4033 
C 1011 3995 1011 3982 1056 3919 
L 3430 76 
C 3475 0 3494 0 3526 0 
C 3590 0 3590 19 3590 139 
L 3590 3705 
C 3590 3863 3590 4160 4102 4160 
L 4102 4326 
C 3955 4320 3686 4320 3526 4320 
C 3366 4320 3098 4320 2950 4326 
L 2950 4160 
C 3462 4160 3462 3862 3462 3703 
L 3462 763 
L 1312 4250 
z
" transform="scale(0.015625)"/>
       <path id="CMR17-73" d="M 1978 2697 
C 1978 2813 1971 2819 1933 2819 
C 1907 2819 1901 2813 1824 2717 
C 1805 2691 1747 2626 1728 2601 
C 1523 2819 1235 2819 1126 2819 
C 416 2819 160 2447 160 2076 
C 160 1498 813 1365 998 1325 
C 1402 1243 1542 1217 1677 1101 
C 1760 1025 1901 884 1901 654 
C 1901 384 1747 38 1158 38 
C 602 38 403 460 288 1021 
C 269 1110 269 1117 218 1117 
C 166 1117 160 1110 160 983 
L 160 63 
C 160 -51 166 -58 205 -58 
C 237 -58 243 -51 275 0 
C 314 57 410 211 448 276 
C 576 103 800 -64 1158 -64 
C 1792 -64 2131 283 2131 784 
C 2131 1112 1958 1285 1875 1362 
C 1683 1561 1459 1606 1190 1657 
C 838 1735 390 1825 390 2217 
C 390 2383 480 2737 1126 2737 
C 1811 2737 1850 2094 1862 1888 
C 1869 1856 1901 1849 1920 1849 
C 1978 1849 1978 1869 1978 1978 
L 1978 2697 
z
" transform="scale(0.015625)"/>
       <path id="CMR17-52" d="M 2509 2146 
C 3117 2268 3629 2676 3629 3186 
C 3629 3785 2950 4326 2054 4326 
L 333 4326 
L 333 4160 
C 774 4160 845 4160 845 3873 
L 845 415 
C 845 128 774 128 333 128 
L 333 -26 
C 518 -26 851 -26 1050 -26 
C 1248 -26 1581 -26 1766 -26 
L 1766 128 
C 1325 128 1254 128 1254 417 
L 1254 2112 
L 2003 2112 
C 2368 2112 2573 1964 2662 1881 
C 2918 1632 2918 1459 2918 1024 
C 2918 595 2918 377 3110 160 
C 3354 -102 3680 -128 3821 -128 
C 4294 -128 4365 396 4365 503 
C 4365 540 4365 585 4307 585 
C 4256 585 4250 547 4250 522 
C 4218 112 4032 -26 3834 -26 
C 3482 -26 3443 375 3405 764 
C 3386 898 3373 993 3360 1133 
C 3322 1452 3270 1917 2509 2146 
z
M 1984 2214 
L 1254 2214 
L 1254 3913 
C 1254 4129 1267 4160 1523 4160 
L 1990 4160 
C 2522 4160 3142 3977 3142 3190 
C 3142 2372 2464 2214 1984 2214 
z
" transform="scale(0.015625)"/>
       <path id="CMR17-28" d="M 1958 -1561 
C 1958 -1555 1958 -1542 1939 -1523 
C 1645 -1224 858 -407 858 1581 
C 858 3569 1632 4379 1946 4697 
C 1946 4704 1958 4717 1958 4736 
C 1958 4755 1939 4768 1914 4768 
C 1843 4768 1299 4296 986 3594 
C 666 2887 576 2199 576 1588 
C 576 1128 621 351 1005 -471 
C 1312 -1135 1837 -1600 1914 -1600 
C 1946 -1600 1958 -1587 1958 -1561 
z
" transform="scale(0.015625)"/>
       <path id="CMR17-29" d="M 1683 1581 
C 1683 2040 1638 2817 1254 3639 
C 947 4303 422 4768 346 4768 
C 326 4768 301 4761 301 4729 
C 301 4717 307 4710 314 4697 
C 621 4378 1402 3568 1402 1584 
C 1402 -407 627 -1217 314 -1537 
C 307 -1549 301 -1556 301 -1568 
C 301 -1600 326 -1600 346 -1600 
C 416 -1600 960 -1128 1274 -426 
C 1594 281 1683 969 1683 1581 
z
" transform="scale(0.015625)"/>
       <path id="CMR17-2c" d="M 1011 102 
C 1024 45 1024 25 1024 -77 
C 1024 -463 896 -817 627 -1139 
C 595 -1170 595 -1183 595 -1197 
C 595 -1222 621 -1248 646 -1248 
C 685 -1248 1126 -799 1126 -87 
C 1126 124 1101 522 800 522 
C 659 522 538 427 538 261 
C 538 96 659 0 800 0 
C 877 0 960 32 1011 102 
z
" transform="scale(0.015625)"/>
       <path id="CMR17-64" d="M 1869 4326 
L 1869 4160 
C 2246 4160 2304 4122 2304 3820 
L 2304 2345 
C 2278 2377 2016 2790 1498 2790 
C 845 2790 211 2208 211 1364 
C 211 525 806 -64 1434 -64 
C 1978 -64 2259 337 2291 380 
L 2291 -63 
L 3066 -63 
L 3066 128 
C 2688 128 2630 166 2630 473 
L 2630 4396 
L 1869 4326 
z
M 2291 755 
C 2291 563 2176 390 2029 262 
C 1811 70 1594 38 1472 38 
C 1286 38 621 134 621 1356 
C 621 2612 1363 2688 1530 2688 
C 1824 2688 2061 2522 2208 2291 
C 2291 2157 2291 2138 2291 2023 
L 2291 755 
z
" transform="scale(0.015625)"/>
       <path id="CMR17-42" d="M 333 4352 
L 333 4186 
C 774 4186 845 4186 845 3900 
L 845 452 
C 845 166 774 166 333 166 
L 333 0 
L 2534 0 
C 3354 0 3885 583 3885 1164 
C 3885 1741 3360 2233 2675 2233 
C 3290 2356 3718 2771 3718 3264 
C 3718 3802 3194 4352 2368 4352 
L 333 4352 
z
M 1248 2304 
L 1248 3937 
C 1248 4155 1261 4186 1517 4186 
L 2336 4186 
C 2970 4186 3251 3674 3251 3277 
C 3251 2791 2861 2304 2170 2304 
L 1248 2304 
z
M 1517 166 
C 1261 166 1248 197 1248 413 
L 1248 2202 
L 2432 2202 
C 3091 2202 3411 1625 3411 1162 
C 3411 699 3046 166 2349 166 
L 1517 166 
z
" transform="scale(0.015625)"/>
      </defs>
      <use xlink:href="#CMR17-50" transform="scale(0.996264)"/>
      <use xlink:href="#CMR17-65" transform="translate(59.983847 0) scale(0.996264)"/>
      <use xlink:href="#CMR17-61" transform="translate(100.469507 0) scale(0.996264)"/>
      <use xlink:href="#CMR17-6b" transform="translate(146.159984 0) scale(0.996264)"/>
      <use xlink:href="#CMR17-53" transform="translate(224.528866 0) scale(0.996264)"/>
      <use xlink:href="#CMR17-69" transform="translate(275.424236 0) scale(0.996264)"/>
      <use xlink:href="#CMR17-67" transform="translate(300.295295 0) scale(0.996264)"/>
      <use xlink:href="#CMR17-6e" transform="translate(345.985772 0) scale(0.996264)"/>
      <use xlink:href="#CMR17-61" transform="translate(396.881142 0) scale(0.996264)"/>
      <use xlink:href="#CMR17-6c" transform="translate(442.571619 0) scale(0.996264)"/>
      <use xlink:href="#CMR17-2d" transform="translate(467.442677 0) scale(0.996264)"/>
      <use xlink:href="#CMR17-74" transform="translate(497.518643 0) scale(0.996264)"/>
      <use xlink:href="#CMR17-6f" transform="translate(532.799411 0) scale(0.996264)"/>
      <use xlink:href="#CMR17-2d" transform="translate(578.489888 0) scale(0.996264)"/>
      <use xlink:href="#CMR17-4e" transform="translate(608.565855 0) scale(0.996264)"/>
      <use xlink:href="#CMR17-6f" transform="translate(677.638285 0) scale(0.996264)"/>
      <use xlink:href="#CMR17-69" transform="translate(723.328762 0) scale(0.996264)"/>
      <use xlink:href="#CMR17-73" transform="translate(748.19982 0) scale(0.996264)"/>
      <use xlink:href="#CMR17-65" transform="translate(784.001158 0) scale(0.996264)"/>
      <use xlink:href="#CMR17-52" transform="translate(854.562785 0) scale(0.996264)"/>
      <use xlink:href="#CMR17-61" transform="translate(922.353887 0) scale(0.996264)"/>
      <use xlink:href="#CMR17-74" transform="translate(968.044364 0) scale(0.996264)"/>
      <use xlink:href="#CMR17-69" transform="translate(1003.325131 0) scale(0.996264)"/>
      <use xlink:href="#CMR17-6f" transform="translate(1028.19619 0) scale(0.996264)"/>
      <use xlink:href="#CMR17-28" transform="translate(1103.962633 0) scale(0.996264)"/>
      <use xlink:href="#CMR17-50" transform="translate(1139.243401 0) scale(0.996264)"/>
      <use xlink:href="#CMR17-53" transform="translate(1201.829702 0) scale(0.996264)"/>
      <use xlink:href="#CMR17-4e" transform="translate(1252.725072 0) scale(0.996264)"/>
      <use xlink:href="#CMR17-52" transform="translate(1321.797501 0) scale(0.996264)"/>
      <use xlink:href="#CMR17-29" transform="translate(1389.588603 0) scale(0.996264)"/>
      <use xlink:href="#CMR17-2c" transform="translate(1424.869371 0) scale(0.996264)"/>
      <use xlink:href="#CMR17-64" transform="translate(1479.816396 0) scale(0.996264)"/>
      <use xlink:href="#CMR17-42" transform="translate(1530.711766 0) scale(0.996264)"/>
     </g>
    </g>
   </g>
   <g id="PolyCollection_1">
    <defs>
     <path id="mc1de0ec8dc" d="M 112.460223 -131.898682 
L 112.460223 -85.377668 
L 116.684104 -178.645157 
L 120.907984 -197.170216 
L 125.131864 -194.561583 
L 129.355744 -203.597192 
L 133.579625 -202.151531 
L 137.803505 -231.313831 
L 142.027385 -213.174029 
L 146.251265 -224.795766 
L 150.475145 -217.757167 
L 154.699026 -224.999873 
L 158.922906 -249.313667 
L 163.146786 -266.570759 
L 167.370666 -242.306665 
L 171.594547 -252.122663 
L 175.818427 -240.220952 
L 180.042307 -265.964238 
L 184.266187 -267.811284 
L 188.490068 -272.92627 
L 192.713948 -269.399257 
L 196.937828 -268.825156 
L 201.161708 -254.284984 
L 205.385589 -266.965479 
L 209.609469 -258.504588 
L 213.833349 -254.092437 
L 218.057229 -267.324899 
L 222.28111 -260.905123 
L 226.50499 -258.597488 
L 230.72887 -281.876015 
L 234.95275 -284.901009 
L 239.176631 -279.980421 
L 243.400511 -280.024813 
L 247.624391 -279.868596 
L 251.848271 -274.438253 
L 256.072152 -285.022832 
L 260.296032 -282.770492 
L 264.519912 -278.776471 
L 268.743792 -284.031712 
L 272.967673 -288.439979 
L 277.191553 -294.194622 
L 281.415433 -292.306145 
L 285.639313 -293.637875 
L 289.863194 -300.939135 
L 294.087074 -290.825101 
L 298.310954 -287.835819 
L 302.534834 -296.754254 
L 306.758714 -283.36467 
L 310.982595 -282.362647 
L 315.206475 -289.120819 
L 319.430355 -295.608027 
L 323.654235 -305.089949 
L 327.878116 -308.539409 
L 332.101996 -291.280918 
L 336.325876 -291.446325 
L 340.549756 -303.414178 
L 344.773637 -299.020007 
L 348.997517 -300.967811 
L 353.221397 -304.460676 
L 357.445277 -314.835429 
L 361.669158 -329.893748 
L 365.893038 -314.484484 
L 370.116918 -312.946828 
L 374.340798 -318.746547 
L 378.564679 -321.043998 
L 382.788559 -315.445817 
L 387.012439 -328.236821 
L 391.236319 -317.608055 
L 395.4602 -323.700132 
L 399.68408 -317.473931 
L 403.90796 -325.018416 
L 408.13184 -331.508093 
L 412.355721 -326.453514 
L 416.579601 -325.967324 
L 420.803481 -335.648334 
L 425.027361 -327.820748 
L 429.251242 -326.222531 
L 433.475122 -325.942927 
L 437.699002 -329.349846 
L 441.922882 -326.901915 
L 446.146762 -334.299351 
L 450.370643 -330.381285 
L 454.594523 -340.245214 
L 458.818403 -345.748955 
L 463.042283 -341.936536 
L 467.266164 -338.281282 
L 471.490044 -346.16548 
L 475.713924 -344.717104 
L 479.937804 -346.741408 
L 484.161685 -349.513387 
L 488.385565 -336.258352 
L 492.609445 -335.069502 
L 496.833325 -342.156991 
L 501.057206 -349.206684 
L 505.281086 -351.893447 
L 509.504966 -348.839077 
L 513.728846 -344.879645 
L 517.952727 -343.098356 
L 522.176607 -344.81744 
L 526.400487 -336.261726 
L 530.624367 -348.509115 
L 534.848248 -347.897338 
L 539.072128 -350.885417 
L 543.296008 -354.272505 
L 547.519888 -354.041902 
L 551.743769 -360.560091 
L 555.967649 -353.086617 
L 560.191529 -347.76271 
L 564.415409 -356.797331 
L 568.63929 -366.533184 
L 572.86317 -365.007994 
L 577.08705 -361.541625 
L 581.31093 -362.621695 
L 585.53481 -357.788287 
L 589.758691 -369.404305 
L 593.982571 -362.620625 
L 598.206451 -358.516631 
L 602.430331 -362.303911 
L 606.654212 -363.838028 
L 610.878092 -356.425692 
L 615.101972 -361.711214 
L 619.325852 -347.460725 
L 623.549733 -367.523522 
L 627.773613 -361.701504 
L 631.997493 -361.957739 
L 636.221373 -354.659183 
L 640.445254 -361.403139 
L 644.669134 -364.191966 
L 648.893014 -378.540507 
L 653.116894 -364.780724 
L 657.340775 -363.480961 
L 661.564655 -363.447752 
L 665.788535 -364.756902 
L 670.012415 -366.88096 
L 674.236296 -364.334107 
L 678.460176 -378.213178 
L 682.684056 -371.006349 
L 686.907936 -360.281721 
L 691.131817 -357.428949 
L 695.355697 -374.779558 
L 699.579577 -359.814632 
L 703.803457 -358.069948 
L 708.027338 -364.197695 
L 712.251218 -376.479438 
L 716.475098 -377.146206 
L 720.698978 -373.780744 
L 724.922858 -366.422716 
L 729.146739 -364.709465 
L 733.370619 -365.210333 
L 737.594499 -371.541405 
L 741.818379 -376.95632 
L 746.04226 -373.985507 
L 750.26614 -311.282093 
L 754.49002 -309.284498 
L 758.7139 -349.414696 
L 762.937781 -375.808118 
L 767.161661 -373.658757 
L 771.385541 -374.043891 
L 775.609421 -380.608241 
L 779.833302 -375.787629 
L 784.057182 -372.533184 
L 788.281062 -382.761552 
L 792.504942 -384.037542 
L 796.728823 -382.08178 
L 800.952703 -381.628943 
L 805.176583 -376.372921 
L 809.400463 -376.705516 
L 813.624344 -385.06425 
L 817.848224 -373.326944 
L 822.072104 -368.675509 
L 826.295984 -375.263818 
L 830.519865 -387.714987 
L 834.743745 -382.121623 
L 838.967625 -382.264378 
L 843.191505 -383.461301 
L 847.415386 -396.028861 
L 851.639266 -381.868021 
L 855.863146 -387.110878 
L 860.087026 -372.446744 
L 864.310906 -384.895109 
L 868.534787 -380.864024 
L 872.758667 -376.9441 
L 876.982547 -387.077018 
L 881.206427 -386.893979 
L 885.430308 -372.995089 
L 889.654188 -379.488961 
L 893.878068 -381.519987 
L 898.101948 -384.812171 
L 902.325829 -389.77024 
L 906.549709 -385.67867 
L 910.773589 -382.760564 
L 914.997469 -383.825165 
L 919.22135 -382.62282 
L 923.44523 -389.236212 
L 927.66911 -394.351362 
L 931.89299 -385.554585 
L 936.116871 -393.613803 
L 940.340751 -386.005218 
L 944.564631 -385.741248 
L 948.788511 -390.863887 
L 953.012392 -380.447498 
L 953.012392 -448.950149 
L 953.012392 -448.950149 
L 948.788511 -443.270484 
L 944.564631 -420.717544 
L 940.340751 -411.478239 
L 936.116871 -439.275311 
L 931.89299 -418.669229 
L 927.66911 -432.392108 
L 923.44523 -420.519484 
L 919.22135 -433.487853 
L 914.997469 -429.769157 
L 910.773589 -438.818302 
L 906.549709 -436.188851 
L 902.325829 -439.240875 
L 898.101948 -436.266692 
L 893.878068 -412.978949 
L 889.654188 -415.677385 
L 885.430308 -420.069551 
L 881.206427 -422.621696 
L 876.982547 -419.277149 
L 872.758667 -416.608201 
L 868.534787 -412.245421 
L 864.310906 -416.288977 
L 860.087026 -411.136058 
L 855.863146 -414.024477 
L 851.639266 -420.236754 
L 847.415386 -420.119621 
L 843.191505 -414.126163 
L 838.967625 -416.954578 
L 834.743745 -415.126087 
L 830.519865 -426.125052 
L 826.295984 -435.278945 
L 822.072104 -417.229574 
L 817.848224 -411.877937 
L 813.624344 -409.961237 
L 809.400463 -412.751966 
L 805.176583 -401.949209 
L 800.952703 -414.567415 
L 796.728823 -400.662851 
L 792.504942 -414.141139 
L 788.281062 -408.070415 
L 784.057182 -404.726279 
L 779.833302 -422.175342 
L 775.609421 -428.292722 
L 771.385541 -431.529599 
L 767.161661 -408.53952 
L 762.937781 -424.090397 
L 758.7139 -402.479879 
L 754.49002 -402.128143 
L 750.26614 -402.962999 
L 746.04226 -404.10326 
L 741.818379 -404.121733 
L 737.594499 -412.325278 
L 733.370619 -402.608431 
L 729.146739 -405.138567 
L 724.922858 -397.768567 
L 720.698978 -406.703459 
L 716.475098 -408.181746 
L 712.251218 -399.709994 
L 708.027338 -413.632609 
L 703.803457 -395.429287 
L 699.579577 -391.32427 
L 695.355697 -402.877006 
L 691.131817 -407.684993 
L 686.907936 -401.735613 
L 682.684056 -395.904111 
L 678.460176 -411.557561 
L 674.236296 -409.066829 
L 670.012415 -396.158953 
L 665.788535 -394.342393 
L 661.564655 -408.664264 
L 657.340775 -399.486632 
L 653.116894 -411.083478 
L 648.893014 -394.27204 
L 644.669134 -389.189024 
L 640.445254 -395.200171 
L 636.221373 -398.847714 
L 631.997493 -416.801652 
L 627.773613 -428.118483 
L 623.549733 -389.614355 
L 619.325852 -390.196475 
L 615.101972 -378.837638 
L 610.878092 -389.711818 
L 606.654212 -399.11598 
L 602.430331 -386.277292 
L 598.206451 -389.902142 
L 593.982571 -391.671182 
L 589.758691 -394.707779 
L 585.53481 -397.427661 
L 581.31093 -391.74664 
L 577.08705 -393.882421 
L 572.86317 -402.528659 
L 568.63929 -401.907029 
L 564.415409 -400.990352 
L 560.191529 -414.095224 
L 555.967649 -397.49102 
L 551.743769 -406.02498 
L 547.519888 -391.093845 
L 543.296008 -379.439429 
L 539.072128 -386.411992 
L 534.848248 -387.602311 
L 530.624367 -378.468632 
L 526.400487 -375.668481 
L 522.176607 -371.446161 
L 517.952727 -370.895835 
L 513.728846 -380.717598 
L 509.504966 -375.254201 
L 505.281086 -378.578638 
L 501.057206 -374.420509 
L 496.833325 -373.829128 
L 492.609445 -402.635268 
L 488.385565 -383.562183 
L 484.161685 -366.042055 
L 479.937804 -366.089134 
L 475.713924 -372.594157 
L 471.490044 -373.469667 
L 467.266164 -391.65415 
L 463.042283 -385.449836 
L 458.818403 -365.010991 
L 454.594523 -366.702526 
L 450.370643 -388.001909 
L 446.146762 -365.105913 
L 441.922882 -358.283149 
L 437.699002 -361.042744 
L 433.475122 -365.802865 
L 429.251242 -354.646284 
L 425.027361 -356.054629 
L 420.803481 -362.119017 
L 416.579601 -353.96888 
L 412.355721 -359.00737 
L 408.13184 -356.033535 
L 403.90796 -350.679588 
L 399.68408 -357.210977 
L 395.4602 -360.251235 
L 391.236319 -345.237349 
L 387.012439 -352.860293 
L 382.788559 -345.750806 
L 378.564679 -347.308457 
L 374.340798 -347.704946 
L 370.116918 -348.833399 
L 365.893038 -359.206865 
L 361.669158 -359.619247 
L 357.445277 -382.129975 
L 353.221397 -355.126621 
L 348.997517 -340.150751 
L 344.773637 -351.156093 
L 340.549756 -337.965555 
L 336.325876 -338.86032 
L 332.101996 -332.662137 
L 327.878116 -339.473506 
L 323.654235 -334.437884 
L 319.430355 -342.057701 
L 315.206475 -326.574569 
L 310.982595 -346.564068 
L 306.758714 -344.333903 
L 302.534834 -339.437507 
L 298.310954 -338.151931 
L 294.087074 -319.734047 
L 289.863194 -326.100009 
L 285.639313 -327.91303 
L 281.415433 -327.63787 
L 277.191553 -329.491211 
L 272.967673 -317.236087 
L 268.743792 -317.323062 
L 264.519912 -307.773996 
L 260.296032 -317.813109 
L 256.072152 -321.299515 
L 251.848271 -312.349564 
L 247.624391 -314.356737 
L 243.400511 -309.542872 
L 239.176631 -298.652893 
L 234.95275 -306.03717 
L 230.72887 -310.845728 
L 226.50499 -307.296909 
L 222.28111 -306.124063 
L 218.057229 -297.03139 
L 213.833349 -306.58206 
L 209.609469 -301.137729 
L 205.385589 -301.726527 
L 201.161708 -303.302024 
L 196.937828 -294.408727 
L 192.713948 -296.229812 
L 188.490068 -285.143173 
L 184.266187 -294.824841 
L 180.042307 -296.745656 
L 175.818427 -300.271106 
L 171.594547 -282.657762 
L 167.370666 -290.80235 
L 163.146786 -287.987429 
L 158.922906 -281.124014 
L 154.699026 -282.097896 
L 150.475145 -271.38664 
L 146.251265 -273.979351 
L 142.027385 -262.797837 
L 137.803505 -257.170464 
L 133.579625 -256.23937 
L 129.355744 -253.523232 
L 125.131864 -243.612895 
L 120.907984 -229.549604 
L 116.684104 -212.014636 
L 112.460223 -131.898682 
z
" style="stroke: #ffffff; stroke-opacity: 0.3"/>
    </defs>
    <g clip-path="url(#p9a9cd1e6e1)">
     <use xlink:href="#mc1de0ec8dc" x="0" y="504" style="fill: #4c72b0; fill-opacity: 0.3; stroke: #ffffff; stroke-opacity: 0.3"/>
    </g>
   </g>
   <g id="line2d_17">
    <path d="M 112.460223 396.287693 
L 116.684104 318.635962 
L 120.907984 298.013999 
L 125.131864 284.703202 
L 129.355744 274.577279 
L 133.579625 277.371094 
L 137.803505 258.702612 
L 142.027385 252.672208 
L 146.251265 260.433843 
L 150.475145 258.332989 
L 154.699026 247.628069 
L 158.922906 231.141409 
L 163.146786 222.544872 
L 167.370666 227.500308 
L 171.594547 237.772739 
L 175.818427 232.4304 
L 180.042307 235.353896 
L 184.266187 220.616651 
L 188.490068 225.591013 
L 192.713948 224.932117 
L 196.937828 219.65503 
L 201.161708 218.115894 
L 205.385589 232.217611 
L 209.609469 215.855366 
L 213.833349 209.732803 
L 218.057229 213.456148 
L 222.28111 210.693478 
L 226.50499 217.216151 
L 230.72887 214.132529 
L 234.95275 207.156014 
L 239.176631 219.075375 
L 243.400511 209.543054 
L 247.624391 211.88817 
L 251.848271 197.902351 
L 256.072152 199.415197 
L 260.296032 207.663053 
L 264.519912 209.935429 
L 268.743792 200.155349 
L 272.967673 198.980981 
L 277.191553 198.116538 
L 281.415433 201.451581 
L 285.639313 187.371539 
L 289.863194 200.300664 
L 294.087074 197.579017 
L 298.310954 197.172361 
L 302.534834 190.88169 
L 306.758714 189.761342 
L 310.982595 197.938926 
L 315.206475 195.314412 
L 319.430355 171.77352 
L 323.654235 173.426826 
L 327.878116 185.405556 
L 332.101996 189.869793 
L 336.325876 180.943294 
L 340.549756 171.507786 
L 344.773637 182.279845 
L 348.997517 178.495281 
L 353.221397 177.358311 
L 357.445277 165.207593 
L 361.669158 163.339289 
L 365.893038 165.245951 
L 370.116918 166.697372 
L 374.340798 176.765655 
L 378.564679 175.004308 
L 382.788559 178.240239 
L 387.012439 173.495699 
L 391.236319 172.456113 
L 395.4602 175.079598 
L 399.68408 173.583908 
L 403.90796 171.615862 
L 408.13184 162.007098 
L 412.355721 155.337357 
L 416.579601 173.979904 
L 420.803481 161.814687 
L 425.027361 163.655715 
L 429.251242 167.164652 
L 433.475122 161.911923 
L 437.699002 156.037889 
L 441.922882 172.343372 
L 446.146762 148.865458 
L 450.370643 146.656874 
L 458.818403 150.623 
L 463.042283 151.349231 
L 467.266164 158.042989 
L 471.490044 145.282907 
L 475.713924 156.84142 
L 479.937804 153.855228 
L 484.161685 146.162877 
L 488.385565 144.148546 
L 492.609445 150.910914 
L 496.833325 149.12229 
L 501.057206 145.310201 
L 505.281086 147.705262 
L 509.504966 147.979677 
L 513.728846 153.341565 
L 517.952727 153.274193 
L 522.176607 146.576728 
L 526.400487 152.737883 
L 530.624367 141.88486 
L 534.848248 144.448688 
L 539.072128 140.447788 
L 543.296008 134.713197 
L 547.519888 138.494681 
L 551.743769 135.925581 
L 555.967649 140.058293 
L 560.191529 130.502562 
L 564.415409 137.758145 
L 568.63929 129.92842 
L 572.86317 136.27846 
L 577.08705 131.041404 
L 581.31093 127.58783 
L 585.53481 139.175336 
L 589.758691 131.558523 
L 593.982571 127.275149 
L 598.206451 117.412124 
L 602.430331 127.514514 
L 606.654212 123.647212 
L 610.878092 118.246121 
L 615.101972 134.620792 
L 619.325852 133.019653 
L 623.549733 126.107732 
L 627.773613 137.63731 
L 631.997493 117.751306 
L 636.221373 124.616485 
L 640.445254 130.853959 
L 644.669134 131.816691 
L 648.893014 118.038147 
L 653.116894 130.446855 
L 657.340775 125.871246 
L 661.564655 129.454665 
L 665.788535 115.657716 
L 670.012415 128.33363 
L 674.236296 124.429616 
L 678.460176 122.589071 
L 682.684056 125.614188 
L 686.907936 123.36769 
L 691.131817 114.053712 
L 695.355697 121.555656 
L 699.579577 123.713968 
L 703.803457 119.679563 
L 708.027338 124.198849 
L 712.251218 122.617953 
L 716.475098 115.30407 
L 720.698978 121.805349 
L 724.922858 114.951192 
L 729.146739 122.155924 
L 733.370619 113.862852 
L 737.594499 114.318751 
L 741.818379 120.446334 
L 746.04226 113.953325 
L 750.26614 125.754689 
L 754.49002 128.200106 
L 758.7139 125.02566 
L 762.937781 118.180033 
L 767.161661 114.903878 
L 771.385541 118.017164 
L 775.609421 115.71389 
L 779.833302 118.175233 
L 784.057182 116.045045 
L 788.281062 107.349149 
L 792.504942 111.390401 
L 796.728823 117.365427 
L 800.952703 106.093565 
L 805.176583 117.105276 
L 809.400463 114.059061 
L 813.624344 111.908836 
L 817.848224 108.058526 
L 822.072104 110.494854 
L 826.295984 111.725217 
L 830.519865 108.893963 
L 834.743745 104.709453 
L 838.967625 106.837502 
L 843.191505 106.291236 
L 847.415386 102.763377 
L 851.639266 103.747462 
L 855.863146 108.926342 
L 860.087026 116.890233 
L 864.310906 104.926438 
L 868.534787 103.100786 
L 872.758667 108.414654 
L 876.982547 114.064779 
L 881.206427 92.134687 
L 885.430308 112.561601 
L 889.654188 113.333473 
L 893.878068 112.073858 
L 898.101948 101.832489 
L 902.325829 106.139948 
L 906.549709 112.540495 
L 910.773589 101.035109 
L 914.997469 106.604348 
L 919.22135 110.685385 
L 923.44523 92.836254 
L 927.66911 103.280578 
L 931.89299 96.735753 
L 936.116871 104.312758 
L 940.340751 112.928097 
L 944.564631 106.780437 
L 948.788511 96.243131 
L 953.012392 100.215182 
L 953.012392 100.215182 
" clip-path="url(#p9a9cd1e6e1)" style="fill: none; stroke: #000000; stroke-width: 2; stroke-linecap: round"/>
   </g>
   <g id="patch_3">
    <path d="M 70.432615 436.800956 
L 70.432615 36.871226 
" style="fill: none; stroke: #cccccc; stroke-width: 1.25; stroke-linejoin: miter; stroke-linecap: square"/>
   </g>
   <g id="patch_4">
    <path d="M 995.04 436.800956 
L 995.04 36.871226 
" style="fill: none; stroke: #cccccc; stroke-width: 1.25; stroke-linejoin: miter; stroke-linecap: square"/>
   </g>
   <g id="patch_5">
    <path d="M 70.432615 436.800956 
L 995.04 436.800956 
" style="fill: none; stroke: #cccccc; stroke-width: 1.25; stroke-linejoin: miter; stroke-linecap: square"/>
   </g>
   <g id="patch_6">
    <path d="M 70.432615 36.871226 
L 995.04 36.871226 
" style="fill: none; stroke: #cccccc; stroke-width: 1.25; stroke-linejoin: miter; stroke-linecap: square"/>
   </g>
   <g id="text_19">
    <!-- Peak Signal-to-Noise Ratio (PSNR), dB vs Epoch -->
    <g style="fill: #262626" transform="translate(293.54007 30.871226) scale(0.24 -0.24)">
     <defs>
      <path id="CMR17-76" d="M 2502 2163 
C 2560 2304 2662 2560 3034 2560 
L 3034 2726 
C 2912 2726 2752 2726 2630 2726 
C 2496 2726 2285 2726 2157 2732 
L 2157 2566 
C 2317 2553 2406 2477 2406 2311 
C 2406 2253 2406 2240 2368 2151 
L 1664 377 
L 902 2286 
C 864 2369 864 2381 864 2407 
C 864 2560 1075 2560 1171 2560 
L 1171 2732 
C 1018 2726 736 2726 576 2726 
C 403 2726 205 2726 64 2732 
L 64 2560 
C 307 2560 442 2560 518 2362 
L 1446 44 
C 1485 -51 1491 -64 1549 -64 
C 1606 -64 1613 -51 1651 44 
L 2502 2163 
z
" transform="scale(0.015625)"/>
     </defs>
     <use xlink:href="#CMR17-50" transform="scale(0.996264)"/>
     <use xlink:href="#CMR17-65" transform="translate(59.983847 0) scale(0.996264)"/>
     <use xlink:href="#CMR17-61" transform="translate(100.469507 0) scale(0.996264)"/>
     <use xlink:href="#CMR17-6b" transform="translate(146.159984 0) scale(0.996264)"/>
     <use xlink:href="#CMR17-53" transform="translate(224.528866 0) scale(0.996264)"/>
     <use xlink:href="#CMR17-69" transform="translate(275.424236 0) scale(0.996264)"/>
     <use xlink:href="#CMR17-67" transform="translate(300.295295 0) scale(0.996264)"/>
     <use xlink:href="#CMR17-6e" transform="translate(345.985772 0) scale(0.996264)"/>
     <use xlink:href="#CMR17-61" transform="translate(396.881142 0) scale(0.996264)"/>
     <use xlink:href="#CMR17-6c" transform="translate(442.571619 0) scale(0.996264)"/>
     <use xlink:href="#CMR17-2d" transform="translate(467.442677 0) scale(0.996264)"/>
     <use xlink:href="#CMR17-74" transform="translate(497.518643 0) scale(0.996264)"/>
     <use xlink:href="#CMR17-6f" transform="translate(532.799411 0) scale(0.996264)"/>
     <use xlink:href="#CMR17-2d" transform="translate(578.489888 0) scale(0.996264)"/>
     <use xlink:href="#CMR17-4e" transform="translate(608.565855 0) scale(0.996264)"/>
     <use xlink:href="#CMR17-6f" transform="translate(677.638285 0) scale(0.996264)"/>
     <use xlink:href="#CMR17-69" transform="translate(723.328762 0) scale(0.996264)"/>
     <use xlink:href="#CMR17-73" transform="translate(748.19982 0) scale(0.996264)"/>
     <use xlink:href="#CMR17-65" transform="translate(784.001158 0) scale(0.996264)"/>
     <use xlink:href="#CMR17-52" transform="translate(854.562785 0) scale(0.996264)"/>
     <use xlink:href="#CMR17-61" transform="translate(922.353887 0) scale(0.996264)"/>
     <use xlink:href="#CMR17-74" transform="translate(968.044364 0) scale(0.996264)"/>
     <use xlink:href="#CMR17-69" transform="translate(1003.325131 0) scale(0.996264)"/>
     <use xlink:href="#CMR17-6f" transform="translate(1028.19619 0) scale(0.996264)"/>
     <use xlink:href="#CMR17-28" transform="translate(1103.962633 0) scale(0.996264)"/>
     <use xlink:href="#CMR17-50" transform="translate(1139.243401 0) scale(0.996264)"/>
     <use xlink:href="#CMR17-53" transform="translate(1201.829702 0) scale(0.996264)"/>
     <use xlink:href="#CMR17-4e" transform="translate(1252.725072 0) scale(0.996264)"/>
     <use xlink:href="#CMR17-52" transform="translate(1321.797501 0) scale(0.996264)"/>
     <use xlink:href="#CMR17-29" transform="translate(1389.588603 0) scale(0.996264)"/>
     <use xlink:href="#CMR17-2c" transform="translate(1424.869371 0) scale(0.996264)"/>
     <use xlink:href="#CMR17-64" transform="translate(1479.816396 0) scale(0.996264)"/>
     <use xlink:href="#CMR17-42" transform="translate(1530.711766 0) scale(0.996264)"/>
     <use xlink:href="#CMR17-76" transform="translate(1625.976486 0) scale(0.996264)"/>
     <use xlink:href="#CMR17-73" transform="translate(1674.269402 0) scale(0.996264)"/>
     <use xlink:href="#CMR17-45" transform="translate(1740.146706 0) scale(0.996264)"/>
     <use xlink:href="#CMR17-70" transform="translate(1802.733007 0) scale(0.996264)"/>
     <use xlink:href="#CMR17-6f" transform="translate(1856.230815 0) scale(0.996264)"/>
     <use xlink:href="#CMR17-63" transform="translate(1904.523731 0) scale(0.996264)"/>
     <use xlink:href="#CMR17-68" transform="translate(1942.406938 0) scale(0.996264)"/>
    </g>
   </g>
   <g id="legend_1">
    <g id="patch_7">
     <path d="M 85.832615 115.797602 
L 302.630097 115.797602 
Q 307.030097 115.797602 307.030097 111.397602 
L 307.030097 52.271226 
Q 307.030097 47.871226 302.630097 47.871226 
L 85.832615 47.871226 
Q 81.432615 47.871226 81.432615 52.271226 
L 81.432615 111.397602 
Q 81.432615 115.797602 85.832615 115.797602 
z
" style="fill: #ffffff; opacity: 0.8; stroke: #cccccc; stroke-linejoin: miter"/>
    </g>
    <g id="line2d_18">
     <path d="M 90.232615 64.371226 
L 112.232615 64.371226 
L 134.232615 64.371226 
" style="fill: none; stroke: #000000; stroke-width: 2; stroke-linecap: round"/>
    </g>
    <g id="text_20">
     <!-- Median -->
     <g style="fill: #262626" transform="translate(151.832615 72.071226) scale(0.22 -0.22)">
      <defs>
       <path id="CMR17-4d" d="M 1338 4224 
C 1299 4320 1293 4320 1158 4320 
L 339 4320 
L 339 4160 
C 781 4160 851 4160 851 3875 
L 851 610 
C 851 451 851 153 339 153 
L 339 -13 
C 486 0 755 0 915 0 
C 1075 0 1344 0 1491 -13 
L 1491 153 
C 979 153 979 451 979 610 
L 979 4135 
L 986 4135 
L 2490 89 
C 2515 25 2528 -13 2579 -13 
C 2630 -13 2643 25 2669 89 
L 4186 4166 
L 4192 4166 
L 4192 438 
C 4192 153 4122 153 3680 153 
L 3680 -13 
C 3853 0 4198 0 4384 0 
C 4570 0 4922 0 5094 -13 
L 5094 153 
C 4653 153 4582 153 4582 438 
L 4582 3875 
C 4582 4160 4653 4160 5094 4160 
L 5094 4320 
L 4282 4320 
C 4147 4320 4141 4314 4102 4218 
L 2720 502 
L 1338 4224 
z
" transform="scale(0.015625)"/>
      </defs>
      <use xlink:href="#CMR17-4d" transform="scale(0.996264)"/>
      <use xlink:href="#CMR17-65" transform="translate(84.686941 0) scale(0.996264)"/>
      <use xlink:href="#CMR17-64" transform="translate(125.172601 0) scale(0.996264)"/>
      <use xlink:href="#CMR17-69" transform="translate(176.067971 0) scale(0.996264)"/>
      <use xlink:href="#CMR17-61" transform="translate(200.939029 0) scale(0.996264)"/>
      <use xlink:href="#CMR17-6e" transform="translate(246.629506 0) scale(0.996264)"/>
     </g>
    </g>
    <g id="patch_8">
     <path d="M 90.232615 102.734414 
L 134.232615 102.734414 
L 134.232615 87.334414 
L 90.232615 87.334414 
z
" style="fill: #4c72b0; fill-opacity: 0.3; stroke: #ffffff; stroke-opacity: 0.3; stroke-linejoin: miter"/>
    </g>
    <g id="text_21">
     <!-- MinMax Range -->
     <g style="fill: #262626" transform="translate(151.832615 102.734414) scale(0.22 -0.22)">
      <defs>
       <path id="CMR17-7b" d="M 2970 1664 
L 2970 1766 
L -38 1766 
L -38 1664 
L 2970 1664 
z
" transform="scale(0.015625)"/>
       <path id="CMR17-78" d="M 1664 1477 
C 1856 1726 2074 2006 2253 2216 
C 2464 2458 2707 2560 2989 2560 
L 2989 2726 
C 2880 2726 2656 2726 2541 2726 
C 2368 2726 2170 2726 2022 2732 
L 2022 2566 
C 2112 2553 2163 2489 2163 2400 
C 2163 2285 2099 2215 2067 2171 
L 1594 1573 
L 1030 2306 
C 973 2376 973 2388 973 2420 
C 973 2497 1037 2560 1146 2560 
L 1146 2732 
C 992 2726 717 2726 557 2726 
C 384 2726 179 2726 38 2732 
L 38 2560 
C 384 2560 461 2534 614 2343 
L 1350 1395 
C 1363 1382 1395 1344 1395 1325 
C 1395 1299 838 619 768 530 
C 480 185 179 160 6 160 
L 6 0 
C 115 0 339 0 454 0 
C 582 0 864 0 979 -6 
L 979 160 
C 941 166 838 179 838 325 
C 838 440 890 510 947 586 
L 1478 1236 
L 2035 512 
C 2086 442 2163 346 2163 301 
C 2163 211 2086 160 1984 160 
L 1984 -6 
C 2138 0 2413 0 2573 0 
C 2746 0 2950 0 3091 -6 
L 3091 160 
C 2771 160 2675 172 2522 370 
L 1664 1477 
z
" transform="scale(0.015625)"/>
      </defs>
      <use xlink:href="#CMR17-4d" transform="scale(0.996264)"/>
      <use xlink:href="#CMR17-69" transform="translate(84.686941 0) scale(0.996264)"/>
      <use xlink:href="#CMR17-6e" transform="translate(109.557999 0) scale(0.996264)"/>
      <use xlink:href="#CMR17-7b" transform="translate(160.453369 0) scale(0.996264)"/>
      <use xlink:href="#CMR17-4d" transform="translate(206.143846 0) scale(0.996264)"/>
      <use xlink:href="#CMR17-61" transform="translate(290.830787 0) scale(0.996264)"/>
      <use xlink:href="#CMR17-78" transform="translate(336.521264 0) scale(0.996264)"/>
      <use xlink:href="#CMR17-52" transform="translate(414.890146 0) scale(0.996264)"/>
      <use xlink:href="#CMR17-61" transform="translate(482.681248 0) scale(0.996264)"/>
      <use xlink:href="#CMR17-6e" transform="translate(528.371725 0) scale(0.996264)"/>
      <use xlink:href="#CMR17-67" transform="translate(579.267095 0) scale(0.996264)"/>
      <use xlink:href="#CMR17-65" transform="translate(624.957572 0) scale(0.996264)"/>
     </g>
    </g>
   </g>
  </g>
 </g>
 <defs>
  <clipPath id="p9a9cd1e6e1">
   <rect x="70.432615" y="36.871226" width="924.607385" height="399.92973"/>
  </clipPath>
 </defs>
</svg>
