<?xml version="1.0" encoding="utf-8" standalone="no"?>
<!DOCTYPE svg PUBLIC "-//W3C//DTD SVG 1.1//EN"
  "http://www.w3.org/Graphics/SVG/1.1/DTD/svg11.dtd">
<svg xmlns:xlink="http://www.w3.org/1999/xlink" width="720pt" height="360pt" viewBox="0 0 720 360" xmlns="http://www.w3.org/2000/svg" version="1.1">
 <metadata>
  <rdf:RDF xmlns:dc="http://purl.org/dc/elements/1.1/" xmlns:cc="http://creativecommons.org/ns#" xmlns:rdf="http://www.w3.org/1999/02/22-rdf-syntax-ns#">
   <cc:Work>
    <dc:type rdf:resource="http://purl.org/dc/dcmitype/StillImage"/>
    <dc:date>2025-04-19T08:10:22.319454</dc:date>
    <dc:format>image/svg+xml</dc:format>
    <dc:creator>
     <cc:Agent>
      <dc:title>Matplotlib v3.9.2, https://matplotlib.org/</dc:title>
     </cc:Agent>
    </dc:creator>
   </cc:Work>
  </rdf:RDF>
 </metadata>
 <defs>
  <style type="text/css">*{stroke-linejoin: round; stroke-linecap: butt}</style>
 </defs>
 <g id="figure_1">
  <g id="patch_1">
   <path d="M 0 360 
L 720 360 
L 720 0 
L 0 0 
z
" style="fill: #ffffff"/>
  </g>
  <g id="axes_1">
   <g id="patch_2">
    <path d="M 61.182 304.308 
L 704.448 304.308 
L 704.448 32.352 
L 61.182 32.352 
z
" style="fill: #ffffff"/>
   </g>
   <g id="matplotlib.axis_1">
    <g id="xtick_1">
     <g id="line2d_1">
      <path d="M 87.482734 304.308 
L 87.482734 32.352 
" clip-path="url(#p1e7855bb1a)" style="fill: none; stroke: #cccccc; stroke-linecap: round"/>
     </g>
     <g id="text_1">
      <!-- 0 -->
      <g style="fill: #262626" transform="translate(83.812515 323.256313) scale(0.132 -0.132)">
       <defs>
        <path id="ArialMT-30" d="M 266 2259 
Q 266 3072 433 3567 
Q 600 4063 929 4331 
Q 1259 4600 1759 4600 
Q 2128 4600 2406 4451 
Q 2684 4303 2865 4023 
Q 3047 3744 3150 3342 
Q 3253 2941 3253 2259 
Q 3253 1453 3087 958 
Q 2922 463 2592 192 
Q 2263 -78 1759 -78 
Q 1097 -78 719 397 
Q 266 969 266 2259 
z
M 844 2259 
Q 844 1131 1108 757 
Q 1372 384 1759 384 
Q 2147 384 2411 759 
Q 2675 1134 2675 2259 
Q 2675 3391 2411 3762 
Q 2147 4134 1753 4134 
Q 1366 4134 1134 3806 
Q 844 3388 844 2259 
z
" transform="scale(0.015625)"/>
       </defs>
       <use xlink:href="#ArialMT-30"/>
      </g>
     </g>
    </g>
    <g id="xtick_2">
     <g id="line2d_2">
      <path d="M 160.948472 304.308 
L 160.948472 32.352 
" clip-path="url(#p1e7855bb1a)" style="fill: none; stroke: #cccccc; stroke-linecap: round"/>
     </g>
     <g id="text_2">
      <!-- 25 -->
      <g style="fill: #262626" transform="translate(153.608034 323.256313) scale(0.132 -0.132)">
       <defs>
        <path id="ArialMT-32" d="M 3222 541 
L 3222 0 
L 194 0 
Q 188 203 259 391 
Q 375 700 629 1000 
Q 884 1300 1366 1694 
Q 2113 2306 2375 2664 
Q 2638 3022 2638 3341 
Q 2638 3675 2398 3904 
Q 2159 4134 1775 4134 
Q 1369 4134 1125 3890 
Q 881 3647 878 3216 
L 300 3275 
Q 359 3922 746 4261 
Q 1134 4600 1788 4600 
Q 2447 4600 2831 4234 
Q 3216 3869 3216 3328 
Q 3216 3053 3103 2787 
Q 2991 2522 2730 2228 
Q 2469 1934 1863 1422 
Q 1356 997 1212 845 
Q 1069 694 975 541 
L 3222 541 
z
" transform="scale(0.015625)"/>
        <path id="ArialMT-35" d="M 266 1200 
L 856 1250 
Q 922 819 1161 601 
Q 1400 384 1738 384 
Q 2144 384 2425 690 
Q 2706 997 2706 1503 
Q 2706 1984 2436 2262 
Q 2166 2541 1728 2541 
Q 1456 2541 1237 2417 
Q 1019 2294 894 2097 
L 366 2166 
L 809 4519 
L 3088 4519 
L 3088 3981 
L 1259 3981 
L 1013 2750 
Q 1425 3038 1878 3038 
Q 2478 3038 2890 2622 
Q 3303 2206 3303 1553 
Q 3303 931 2941 478 
Q 2500 -78 1738 -78 
Q 1113 -78 717 272 
Q 322 622 266 1200 
z
" transform="scale(0.015625)"/>
       </defs>
       <use xlink:href="#ArialMT-32"/>
       <use xlink:href="#ArialMT-35" x="55.615234"/>
      </g>
     </g>
    </g>
    <g id="xtick_3">
     <g id="line2d_3">
      <path d="M 234.41421 304.308 
L 234.41421 32.352 
" clip-path="url(#p1e7855bb1a)" style="fill: none; stroke: #cccccc; stroke-linecap: round"/>
     </g>
     <g id="text_3">
      <!-- 50 -->
      <g style="fill: #262626" transform="translate(227.073772 323.256313) scale(0.132 -0.132)">
       <use xlink:href="#ArialMT-35"/>
       <use xlink:href="#ArialMT-30" x="55.615234"/>
      </g>
     </g>
    </g>
    <g id="xtick_4">
     <g id="line2d_4">
      <path d="M 307.879947 304.308 
L 307.879947 32.352 
" clip-path="url(#p1e7855bb1a)" style="fill: none; stroke: #cccccc; stroke-linecap: round"/>
     </g>
     <g id="text_4">
      <!-- 75 -->
      <g style="fill: #262626" transform="translate(300.53951 323.256313) scale(0.132 -0.132)">
       <defs>
        <path id="ArialMT-37" d="M 303 3981 
L 303 4522 
L 3269 4522 
L 3269 4084 
Q 2831 3619 2401 2847 
Q 1972 2075 1738 1259 
Q 1569 684 1522 0 
L 944 0 
Q 953 541 1156 1306 
Q 1359 2072 1739 2783 
Q 2119 3494 2547 3981 
L 303 3981 
z
" transform="scale(0.015625)"/>
       </defs>
       <use xlink:href="#ArialMT-37"/>
       <use xlink:href="#ArialMT-35" x="55.615234"/>
      </g>
     </g>
    </g>
    <g id="xtick_5">
     <g id="line2d_5">
      <path d="M 381.345685 304.308 
L 381.345685 32.352 
" clip-path="url(#p1e7855bb1a)" style="fill: none; stroke: #cccccc; stroke-linecap: round"/>
     </g>
     <g id="text_5">
      <!-- 100 -->
      <g style="fill: #262626" transform="translate(370.335029 323.256313) scale(0.132 -0.132)">
       <defs>
        <path id="ArialMT-31" d="M 2384 0 
L 1822 0 
L 1822 3584 
Q 1619 3391 1289 3197 
Q 959 3003 697 2906 
L 697 3450 
Q 1169 3672 1522 3987 
Q 1875 4303 2022 4600 
L 2384 4600 
L 2384 0 
z
" transform="scale(0.015625)"/>
       </defs>
       <use xlink:href="#ArialMT-31"/>
       <use xlink:href="#ArialMT-30" x="55.615234"/>
       <use xlink:href="#ArialMT-30" x="111.230469"/>
      </g>
     </g>
    </g>
    <g id="xtick_6">
     <g id="line2d_6">
      <path d="M 454.811423 304.308 
L 454.811423 32.352 
" clip-path="url(#p1e7855bb1a)" style="fill: none; stroke: #cccccc; stroke-linecap: round"/>
     </g>
     <g id="text_6">
      <!-- 125 -->
      <g style="fill: #262626" transform="translate(443.800767 323.256313) scale(0.132 -0.132)">
       <use xlink:href="#ArialMT-31"/>
       <use xlink:href="#ArialMT-32" x="55.615234"/>
       <use xlink:href="#ArialMT-35" x="111.230469"/>
      </g>
     </g>
    </g>
    <g id="xtick_7">
     <g id="line2d_7">
      <path d="M 528.277161 304.308 
L 528.277161 32.352 
" clip-path="url(#p1e7855bb1a)" style="fill: none; stroke: #cccccc; stroke-linecap: round"/>
     </g>
     <g id="text_7">
      <!-- 150 -->
      <g style="fill: #262626" transform="translate(517.266505 323.256313) scale(0.132 -0.132)">
       <use xlink:href="#ArialMT-31"/>
       <use xlink:href="#ArialMT-35" x="55.615234"/>
       <use xlink:href="#ArialMT-30" x="111.230469"/>
      </g>
     </g>
    </g>
    <g id="xtick_8">
     <g id="line2d_8">
      <path d="M 601.742899 304.308 
L 601.742899 32.352 
" clip-path="url(#p1e7855bb1a)" style="fill: none; stroke: #cccccc; stroke-linecap: round"/>
     </g>
     <g id="text_8">
      <!-- 175 -->
      <g style="fill: #262626" transform="translate(590.732242 323.256313) scale(0.132 -0.132)">
       <use xlink:href="#ArialMT-31"/>
       <use xlink:href="#ArialMT-37" x="55.615234"/>
       <use xlink:href="#ArialMT-35" x="111.230469"/>
      </g>
     </g>
    </g>
    <g id="xtick_9">
     <g id="line2d_9">
      <path d="M 675.208636 304.308 
L 675.208636 32.352 
" clip-path="url(#p1e7855bb1a)" style="fill: none; stroke: #cccccc; stroke-linecap: round"/>
     </g>
     <g id="text_9">
      <!-- 200 -->
      <g style="fill: #262626" transform="translate(664.19798 323.256313) scale(0.132 -0.132)">
       <use xlink:href="#ArialMT-32"/>
       <use xlink:href="#ArialMT-30" x="55.615234"/>
       <use xlink:href="#ArialMT-30" x="111.230469"/>
      </g>
     </g>
    </g>
    <g id="text_10">
     <!-- Epoch -->
     <g style="fill: #262626" transform="translate(362.40075 340.187063) scale(0.144 -0.144)">
      <defs>
       <path id="ArialMT-45" d="M 506 0 
L 506 4581 
L 3819 4581 
L 3819 4041 
L 1113 4041 
L 1113 2638 
L 3647 2638 
L 3647 2100 
L 1113 2100 
L 1113 541 
L 3925 541 
L 3925 0 
L 506 0 
z
" transform="scale(0.015625)"/>
       <path id="ArialMT-70" d="M 422 -1272 
L 422 3319 
L 934 3319 
L 934 2888 
Q 1116 3141 1344 3267 
Q 1572 3394 1897 3394 
Q 2322 3394 2647 3175 
Q 2972 2956 3137 2557 
Q 3303 2159 3303 1684 
Q 3303 1175 3120 767 
Q 2938 359 2589 142 
Q 2241 -75 1856 -75 
Q 1575 -75 1351 44 
Q 1128 163 984 344 
L 984 -1272 
L 422 -1272 
z
M 931 1641 
Q 931 1000 1190 694 
Q 1450 388 1819 388 
Q 2194 388 2461 705 
Q 2728 1022 2728 1688 
Q 2728 2322 2467 2637 
Q 2206 2953 1844 2953 
Q 1484 2953 1207 2617 
Q 931 2281 931 1641 
z
" transform="scale(0.015625)"/>
       <path id="ArialMT-6f" d="M 213 1659 
Q 213 2581 725 3025 
Q 1153 3394 1769 3394 
Q 2453 3394 2887 2945 
Q 3322 2497 3322 1706 
Q 3322 1066 3130 698 
Q 2938 331 2570 128 
Q 2203 -75 1769 -75 
Q 1072 -75 642 372 
Q 213 819 213 1659 
z
M 791 1659 
Q 791 1022 1069 705 
Q 1347 388 1769 388 
Q 2188 388 2466 706 
Q 2744 1025 2744 1678 
Q 2744 2294 2464 2611 
Q 2184 2928 1769 2928 
Q 1347 2928 1069 2612 
Q 791 2297 791 1659 
z
" transform="scale(0.015625)"/>
       <path id="ArialMT-63" d="M 2588 1216 
L 3141 1144 
Q 3050 572 2676 248 
Q 2303 -75 1759 -75 
Q 1078 -75 664 370 
Q 250 816 250 1647 
Q 250 2184 428 2587 
Q 606 2991 970 3192 
Q 1334 3394 1763 3394 
Q 2303 3394 2647 3120 
Q 2991 2847 3088 2344 
L 2541 2259 
Q 2463 2594 2264 2762 
Q 2066 2931 1784 2931 
Q 1359 2931 1093 2626 
Q 828 2322 828 1663 
Q 828 994 1084 691 
Q 1341 388 1753 388 
Q 2084 388 2306 591 
Q 2528 794 2588 1216 
z
" transform="scale(0.015625)"/>
       <path id="ArialMT-68" d="M 422 0 
L 422 4581 
L 984 4581 
L 984 2938 
Q 1378 3394 1978 3394 
Q 2347 3394 2619 3248 
Q 2891 3103 3008 2847 
Q 3125 2591 3125 2103 
L 3125 0 
L 2563 0 
L 2563 2103 
Q 2563 2525 2380 2717 
Q 2197 2909 1863 2909 
Q 1613 2909 1392 2779 
Q 1172 2650 1078 2428 
Q 984 2206 984 1816 
L 984 0 
L 422 0 
z
" transform="scale(0.015625)"/>
      </defs>
      <use xlink:href="#ArialMT-45"/>
      <use xlink:href="#ArialMT-70" x="66.699219"/>
      <use xlink:href="#ArialMT-6f" x="122.314453"/>
      <use xlink:href="#ArialMT-63" x="177.929688"/>
      <use xlink:href="#ArialMT-68" x="227.929688"/>
     </g>
    </g>
   </g>
   <g id="matplotlib.axis_2">
    <g id="ytick_1">
     <g id="line2d_10">
      <path d="M 61.182 283.494225 
L 704.448 283.494225 
" clip-path="url(#p1e7855bb1a)" style="fill: none; stroke: #cccccc; stroke-linecap: round"/>
     </g>
     <g id="text_11">
      <!-- 0.9 -->
      <g style="fill: #262626" transform="translate(33.334 288.218381) scale(0.132 -0.132)">
       <defs>
        <path id="ArialMT-2e" d="M 581 0 
L 581 641 
L 1222 641 
L 1222 0 
L 581 0 
z
" transform="scale(0.015625)"/>
        <path id="ArialMT-39" d="M 350 1059 
L 891 1109 
Q 959 728 1153 556 
Q 1347 384 1650 384 
Q 1909 384 2104 503 
Q 2300 622 2425 820 
Q 2550 1019 2634 1356 
Q 2719 1694 2719 2044 
Q 2719 2081 2716 2156 
Q 2547 1888 2255 1720 
Q 1963 1553 1622 1553 
Q 1053 1553 659 1965 
Q 266 2378 266 3053 
Q 266 3750 677 4175 
Q 1088 4600 1706 4600 
Q 2153 4600 2523 4359 
Q 2894 4119 3086 3673 
Q 3278 3228 3278 2384 
Q 3278 1506 3087 986 
Q 2897 466 2520 194 
Q 2144 -78 1638 -78 
Q 1100 -78 759 220 
Q 419 519 350 1059 
z
M 2653 3081 
Q 2653 3566 2395 3850 
Q 2138 4134 1775 4134 
Q 1400 4134 1122 3828 
Q 844 3522 844 3034 
Q 844 2597 1108 2323 
Q 1372 2050 1759 2050 
Q 2150 2050 2401 2323 
Q 2653 2597 2653 3081 
z
" transform="scale(0.015625)"/>
       </defs>
       <use xlink:href="#ArialMT-30"/>
       <use xlink:href="#ArialMT-2e" x="55.615234"/>
       <use xlink:href="#ArialMT-39" x="83.398438"/>
      </g>
     </g>
    </g>
    <g id="ytick_2">
     <g id="line2d_11">
      <path d="M 61.182 237.046009 
L 704.448 237.046009 
" clip-path="url(#p1e7855bb1a)" style="fill: none; stroke: #cccccc; stroke-linecap: round"/>
     </g>
     <g id="text_12">
      <!-- 1.0 -->
      <g style="fill: #262626" transform="translate(33.334 241.770165) scale(0.132 -0.132)">
       <use xlink:href="#ArialMT-31"/>
       <use xlink:href="#ArialMT-2e" x="55.615234"/>
       <use xlink:href="#ArialMT-30" x="83.398438"/>
      </g>
     </g>
    </g>
    <g id="ytick_3">
     <g id="line2d_12">
      <path d="M 61.182 190.597793 
L 704.448 190.597793 
" clip-path="url(#p1e7855bb1a)" style="fill: none; stroke: #cccccc; stroke-linecap: round"/>
     </g>
     <g id="text_13">
      <!-- 1.1 -->
      <g style="fill: #262626" transform="translate(33.334 195.321949) scale(0.132 -0.132)">
       <use xlink:href="#ArialMT-31"/>
       <use xlink:href="#ArialMT-2e" x="55.615234"/>
       <use xlink:href="#ArialMT-31" x="83.398438"/>
      </g>
     </g>
    </g>
    <g id="ytick_4">
     <g id="line2d_13">
      <path d="M 61.182 144.149577 
L 704.448 144.149577 
" clip-path="url(#p1e7855bb1a)" style="fill: none; stroke: #cccccc; stroke-linecap: round"/>
     </g>
     <g id="text_14">
      <!-- 1.2 -->
      <g style="fill: #262626" transform="translate(33.334 148.873733) scale(0.132 -0.132)">
       <use xlink:href="#ArialMT-31"/>
       <use xlink:href="#ArialMT-2e" x="55.615234"/>
       <use xlink:href="#ArialMT-32" x="83.398438"/>
      </g>
     </g>
    </g>
    <g id="ytick_5">
     <g id="line2d_14">
      <path d="M 61.182 97.701361 
L 704.448 97.701361 
" clip-path="url(#p1e7855bb1a)" style="fill: none; stroke: #cccccc; stroke-linecap: round"/>
     </g>
     <g id="text_15">
      <!-- 1.3 -->
      <g style="fill: #262626" transform="translate(33.334 102.425517) scale(0.132 -0.132)">
       <defs>
        <path id="ArialMT-33" d="M 269 1209 
L 831 1284 
Q 928 806 1161 595 
Q 1394 384 1728 384 
Q 2125 384 2398 659 
Q 2672 934 2672 1341 
Q 2672 1728 2419 1979 
Q 2166 2231 1775 2231 
Q 1616 2231 1378 2169 
L 1441 2663 
Q 1497 2656 1531 2656 
Q 1891 2656 2178 2843 
Q 2466 3031 2466 3422 
Q 2466 3731 2256 3934 
Q 2047 4138 1716 4138 
Q 1388 4138 1169 3931 
Q 950 3725 888 3313 
L 325 3413 
Q 428 3978 793 4289 
Q 1159 4600 1703 4600 
Q 2078 4600 2393 4439 
Q 2709 4278 2876 4000 
Q 3044 3722 3044 3409 
Q 3044 3113 2884 2869 
Q 2725 2625 2413 2481 
Q 2819 2388 3044 2092 
Q 3269 1797 3269 1353 
Q 3269 753 2831 336 
Q 2394 -81 1725 -81 
Q 1122 -81 723 278 
Q 325 638 269 1209 
z
" transform="scale(0.015625)"/>
       </defs>
       <use xlink:href="#ArialMT-31"/>
       <use xlink:href="#ArialMT-2e" x="55.615234"/>
       <use xlink:href="#ArialMT-33" x="83.398438"/>
      </g>
     </g>
    </g>
    <g id="ytick_6">
     <g id="line2d_15">
      <path d="M 61.182 51.253145 
L 704.448 51.253145 
" clip-path="url(#p1e7855bb1a)" style="fill: none; stroke: #cccccc; stroke-linecap: round"/>
     </g>
     <g id="text_16">
      <!-- 1.4 -->
      <g style="fill: #262626" transform="translate(33.334 55.977302) scale(0.132 -0.132)">
       <defs>
        <path id="ArialMT-34" d="M 2069 0 
L 2069 1097 
L 81 1097 
L 81 1613 
L 2172 4581 
L 2631 4581 
L 2631 1613 
L 3250 1613 
L 3250 1097 
L 2631 1097 
L 2631 0 
L 2069 0 
z
M 2069 1613 
L 2069 3678 
L 634 1613 
L 2069 1613 
z
" transform="scale(0.015625)"/>
       </defs>
       <use xlink:href="#ArialMT-31"/>
       <use xlink:href="#ArialMT-2e" x="55.615234"/>
       <use xlink:href="#ArialMT-34" x="83.398438"/>
      </g>
     </g>
    </g>
    <g id="text_17">
     <!-- Loss -->
     <g style="fill: #262626" transform="translate(26.472 183.53775) rotate(-90) scale(0.144 -0.144)">
      <defs>
       <path id="ArialMT-4c" d="M 469 0 
L 469 4581 
L 1075 4581 
L 1075 541 
L 3331 541 
L 3331 0 
L 469 0 
z
" transform="scale(0.015625)"/>
       <path id="ArialMT-73" d="M 197 991 
L 753 1078 
Q 800 744 1014 566 
Q 1228 388 1613 388 
Q 2000 388 2187 545 
Q 2375 703 2375 916 
Q 2375 1106 2209 1216 
Q 2094 1291 1634 1406 
Q 1016 1563 777 1677 
Q 538 1791 414 1992 
Q 291 2194 291 2438 
Q 291 2659 392 2848 
Q 494 3038 669 3163 
Q 800 3259 1026 3326 
Q 1253 3394 1513 3394 
Q 1903 3394 2198 3281 
Q 2494 3169 2634 2976 
Q 2775 2784 2828 2463 
L 2278 2388 
Q 2241 2644 2061 2787 
Q 1881 2931 1553 2931 
Q 1166 2931 1000 2803 
Q 834 2675 834 2503 
Q 834 2394 903 2306 
Q 972 2216 1119 2156 
Q 1203 2125 1616 2013 
Q 2213 1853 2448 1751 
Q 2684 1650 2818 1456 
Q 2953 1263 2953 975 
Q 2953 694 2789 445 
Q 2625 197 2315 61 
Q 2006 -75 1616 -75 
Q 969 -75 630 194 
Q 291 463 197 991 
z
" transform="scale(0.015625)"/>
      </defs>
      <use xlink:href="#ArialMT-4c"/>
      <use xlink:href="#ArialMT-6f" x="55.615234"/>
      <use xlink:href="#ArialMT-73" x="111.230469"/>
      <use xlink:href="#ArialMT-73" x="161.230469"/>
     </g>
    </g>
   </g>
   <g id="PolyCollection_1"/>
   <g id="PolyCollection_2"/>
   <g id="line2d_16">
    <path d="M 90.421364 80.8725 
L 93.359993 108.739749 
L 96.298623 111.856883 
L 99.237252 102.409927 
L 102.175882 121.738252 
L 105.114511 112.719353 
L 108.053141 76.271743 
L 110.99177 107.115742 
L 113.9304 99.530871 
L 116.869029 107.922352 
L 119.807659 79.175276 
L 122.746288 64.588673 
L 125.684918 68.207111 
L 128.623547 98.209052 
L 131.562177 86.453009 
L 134.500806 98.892972 
L 137.439436 61.992064 
L 140.378065 63.26172 
L 143.316695 62.841975 
L 146.255324 60.499854 
L 149.193954 66.909953 
L 152.132583 88.594149 
L 155.071213 88.365514 
L 158.009842 93.048197 
L 160.948472 87.059158 
L 163.887101 92.389335 
L 166.825731 103.319731 
L 169.76436 92.039324 
L 172.70299 60.780224 
L 175.641619 62.762708 
L 178.580249 62.438884 
L 181.518878 61.706469 
L 184.457508 62.24921 
L 187.396138 62.412024 
L 190.334767 61.321193 
L 193.273397 61.741397 
L 196.212026 61.929512 
L 199.150656 62.47152 
L 202.089285 44.713636 
L 205.027915 58.257567 
L 207.966544 59.486978 
L 210.905174 59.956441 
L 213.843803 59.582288 
L 216.782433 59.978687 
L 219.721062 60.103333 
L 222.659692 59.787699 
L 225.598321 60.168086 
L 228.536951 59.880535 
L 231.47558 59.888724 
L 237.352839 60.097925 
L 240.291469 59.963989 
L 246.168728 60.290553 
L 249.107357 59.382775 
L 252.045987 60.528885 
L 254.984616 59.959069 
L 257.923246 59.970895 
L 260.861875 60.470977 
L 263.800505 45.100018 
L 266.739134 59.169121 
L 269.677764 59.206761 
L 272.616393 58.856993 
L 278.493652 59.172719 
L 281.432282 59.882124 
L 284.370911 59.19799 
L 287.309541 59.595337 
L 290.24817 59.344761 
L 296.125429 59.407343 
L 299.064059 59.644246 
L 304.941318 59.428367 
L 307.879947 59.644382 
L 310.818577 59.614619 
L 313.757206 59.709776 
L 316.695836 59.478788 
L 322.573095 59.892114 
L 325.511725 59.644199 
L 328.450354 60.512567 
L 331.388984 49.412904 
L 334.327613 58.988527 
L 337.266243 58.873298 
L 340.204872 58.997652 
L 343.143502 59.459628 
L 346.082131 59.366396 
L 349.020761 59.758921 
L 351.95939 59.70834 
L 354.89802 59.451622 
L 357.836649 59.413236 
L 360.775279 59.619477 
L 363.713908 55.024956 
L 366.652538 59.477566 
L 369.591167 59.386289 
L 372.529797 59.490614 
L 375.468426 59.759875 
L 378.407056 59.826111 
L 381.345685 58.744845 
L 384.284315 59.539049 
L 387.222944 59.550407 
L 390.161574 59.833292 
L 393.100203 54.901194 
L 396.038833 59.163551 
L 398.977462 59.485083 
L 404.854721 59.599126 
L 407.793351 59.547758 
L 410.73198 60.165091 
L 413.67061 56.88545 
L 416.609239 59.09941 
L 419.547869 59.505924 
L 422.486498 59.711763 
L 425.425128 59.547574 
L 428.363757 59.951827 
L 431.302387 59.859022 
L 434.241016 61.586743 
L 437.179646 60.693592 
L 440.118275 62.353658 
L 443.056905 60.928431 
L 445.995534 59.929487 
L 448.934164 60.498602 
L 451.872794 60.427615 
L 454.811423 62.184748 
L 457.750053 59.544916 
L 460.688682 62.903411 
L 463.627312 58.993129 
L 466.565941 60.218629 
L 469.504571 60.156592 
L 472.4432 57.677759 
L 475.38183 60.092607 
L 478.320459 60.461749 
L 481.259089 62.383368 
L 484.197718 60.551273 
L 487.136348 59.59662 
L 490.074977 63.335762 
L 493.013607 65.592382 
L 495.952236 60.981678 
L 501.829495 60.189201 
L 504.768125 60.107459 
L 507.706754 60.184373 
L 513.584013 60.664043 
L 516.522643 60.685464 
L 519.461272 60.280356 
L 522.399902 61.683673 
L 525.338531 60.695456 
L 528.277161 60.938882 
L 531.21579 60.770815 
L 534.15442 60.231891 
L 537.093049 65.79636 
L 540.031679 60.461932 
L 542.970308 63.217564 
L 545.908938 60.50291 
L 548.847567 60.868537 
L 551.786197 60.582789 
L 554.724826 61.225333 
L 557.663456 60.475683 
L 563.540715 61.085102 
L 566.479344 60.84296 
L 569.417974 60.787283 
L 572.356603 60.227735 
L 575.295233 62.865902 
L 578.233862 59.264515 
L 581.172492 61.874416 
L 584.111122 61.089216 
L 587.049751 61.116931 
L 589.988381 64.573448 
L 592.92701 68.794589 
L 595.86564 67.292699 
L 598.804269 61.191505 
L 601.742899 61.514198 
L 604.681528 61.635483 
L 607.620158 61.090358 
L 610.558787 67.298758 
L 613.497417 72.775812 
L 616.436046 61.434136 
L 619.374676 62.848453 
L 622.313305 62.224031 
L 625.251935 64.400313 
L 628.190564 62.260639 
L 631.129194 66.245307 
L 634.067823 61.773758 
L 637.006453 69.095616 
L 639.945082 64.490551 
L 642.883712 62.989265 
L 645.822341 62.239737 
L 648.760971 61.988856 
L 651.6996 62.677023 
L 654.63823 52.510486 
L 657.576859 59.395304 
L 660.515489 60.543434 
L 663.454118 61.111321 
L 666.392748 61.448834 
L 669.331377 60.768979 
L 675.208636 61.125072 
L 675.208636 61.125072 
" clip-path="url(#p1e7855bb1a)" style="fill: none; stroke: #4c72b0; stroke-width: 2; stroke-linecap: round"/>
   </g>
   <g id="line2d_17">
    <path d="M 90.421364 147.624759 
L 93.359993 142.371283 
L 96.298623 140.368387 
L 99.237252 164.398096 
L 102.175882 128.920277 
L 105.114511 152.394258 
L 108.053141 206.998291 
L 110.99177 172.784321 
L 113.9304 177.923297 
L 116.869029 172.855216 
L 119.807659 223.266687 
L 122.746288 247.015721 
L 125.684918 235.507962 
L 128.623547 188.210599 
L 131.562177 214.221203 
L 134.500806 186.060199 
L 137.439436 251.549036 
L 140.378065 254.272491 
L 143.316695 255.149781 
L 146.255324 250.570537 
L 149.193954 237.465204 
L 152.132583 206.702153 
L 155.071213 212.53061 
L 158.009842 208.716997 
L 160.948472 206.154553 
L 163.887101 212.746411 
L 166.825731 191.151474 
L 169.76436 195.485306 
L 172.70299 260.231094 
L 175.641619 260.021741 
L 178.580249 259.222862 
L 181.518878 261.776811 
L 187.396138 260.692398 
L 190.334767 261.340962 
L 193.273397 261.779989 
L 196.212026 260.919017 
L 199.150656 262.401051 
L 202.089285 251.183769 
L 205.027915 273.163439 
L 207.966544 271.303738 
L 210.905174 271.786677 
L 213.843803 272.10225 
L 216.782433 270.420916 
L 219.721062 269.030403 
L 222.659692 269.892415 
L 225.598321 268.9251 
L 228.536951 267.449391 
L 231.47558 268.587006 
L 234.41421 268.809866 
L 237.352839 270.128537 
L 240.291469 273.804607 
L 243.230098 268.96125 
L 246.168728 268.880139 
L 249.107357 270.61826 
L 252.045987 269.380537 
L 257.923246 271.779923 
L 260.861875 271.180008 
L 263.800505 270.726625 
L 266.739134 281.917938 
L 269.677764 278.842222 
L 272.616393 277.682942 
L 275.555023 277.487859 
L 278.493652 275.66822 
L 281.432282 277.408714 
L 284.370911 274.731157 
L 287.309541 276.782396 
L 290.24817 277.885969 
L 293.1868 278.380795 
L 296.125429 276.81381 
L 299.064059 275.785082 
L 302.002688 275.314938 
L 304.941318 278.179968 
L 307.879947 278.050646 
L 310.818577 277.024966 
L 313.757206 276.31168 
L 316.695836 278.677881 
L 319.634466 276.344989 
L 322.573095 276.702388 
L 325.511725 275.047005 
L 328.450354 277.39044 
L 331.388984 275.670592 
L 334.327613 283.840648 
L 337.266243 281.627652 
L 340.204872 281.317545 
L 343.143502 281.437669 
L 346.082131 282.608164 
L 349.020761 282.303581 
L 351.95939 281.371755 
L 354.89802 280.963041 
L 357.836649 280.367122 
L 360.775279 282.117004 
L 363.713908 281.012844 
L 366.652538 282.933576 
L 369.591167 283.011563 
L 372.529797 281.807207 
L 375.468426 282.765726 
L 378.407056 280.148914 
L 381.345685 279.349057 
L 384.284315 283.456577 
L 387.222944 283.201353 
L 390.161574 282.754415 
L 393.100203 277.98241 
L 396.038833 286.434397 
L 398.977462 284.41885 
L 401.916092 283.841028 
L 404.854721 284.740748 
L 407.793351 285.39304 
L 410.73198 286.201361 
L 413.67061 282.195569 
L 416.609239 286.389935 
L 419.547869 286.044996 
L 422.486498 285.885146 
L 425.425128 284.933508 
L 428.363757 284.429851 
L 431.302387 275.195976 
L 434.241016 279.286811 
L 437.179646 278.497466 
L 440.118275 278.517176 
L 443.056905 276.583738 
L 445.995534 287.335338 
L 454.811423 276.296381 
L 457.750053 283.02357 
L 460.688682 280.863676 
L 463.627312 287.391719 
L 466.565941 286.004781 
L 469.504571 285.945183 
L 472.4432 284.785607 
L 478.320459 286.032253 
L 481.259089 279.668645 
L 484.197718 287.950621 
L 487.136348 283.616793 
L 490.074977 280.681755 
L 493.013607 272.455042 
L 495.952236 283.047583 
L 498.890866 286.756937 
L 501.829495 285.73804 
L 504.768125 286.661076 
L 507.706754 287.277737 
L 510.645384 288.880843 
L 513.584013 285.46042 
L 516.522643 285.938715 
L 519.461272 280.702412 
L 522.399902 281.127505 
L 525.338531 287.408648 
L 528.277161 287.541912 
L 531.21579 281.613595 
L 534.15442 288.362273 
L 537.093049 274.013184 
L 540.031679 285.012867 
L 542.970308 283.084044 
L 545.908938 289.332429 
L 548.847567 287.260625 
L 551.786197 287.368953 
L 554.724826 277.233372 
L 557.663456 291.439039 
L 560.602085 288.287467 
L 563.540715 289.384378 
L 566.479344 286.3015 
L 569.417974 287.242198 
L 572.356603 287.293628 
L 575.295233 281.905451 
L 578.233862 286.812094 
L 581.172492 286.500188 
L 584.111122 287.611075 
L 587.049751 281.24124 
L 589.988381 282.574488 
L 592.92701 271.911445 
L 595.86564 273.063463 
L 598.804269 288.139168 
L 601.742899 288.745165 
L 604.681528 288.255839 
L 607.620158 284.540012 
L 610.558787 276.33434 
L 613.497417 271.134263 
L 616.436046 285.791517 
L 619.374676 276.96385 
L 622.313305 287.428786 
L 625.251935 280.491134 
L 628.190564 287.081096 
L 631.129194 280.362692 
L 634.067823 284.722949 
L 637.006453 270.93151 
L 639.945082 281.898423 
L 642.883712 285.871365 
L 645.822341 286.719198 
L 648.760971 287.111379 
L 651.6996 285.042325 
L 654.63823 280.002449 
L 657.576859 291.946364 
L 660.515489 290.372929 
L 663.454118 290.639763 
L 666.392748 290.57278 
L 669.331377 289.427281 
L 672.270007 289.585939 
L 675.208636 290.564346 
L 675.208636 290.564346 
" clip-path="url(#p1e7855bb1a)" style="fill: none; stroke: #dd8452; stroke-width: 2; stroke-linecap: round"/>
   </g>
   <g id="line2d_18"/>
   <g id="line2d_19"/>
   <g id="patch_3">
    <path d="M 61.182 304.308 
L 61.182 32.352 
" style="fill: none; stroke: #cccccc; stroke-width: 1.25; stroke-linejoin: miter; stroke-linecap: square"/>
   </g>
   <g id="patch_4">
    <path d="M 704.448 304.308 
L 704.448 32.352 
" style="fill: none; stroke: #cccccc; stroke-width: 1.25; stroke-linejoin: miter; stroke-linecap: square"/>
   </g>
   <g id="patch_5">
    <path d="M 61.182 304.308 
L 704.448 304.308 
" style="fill: none; stroke: #cccccc; stroke-width: 1.25; stroke-linejoin: miter; stroke-linecap: square"/>
   </g>
   <g id="patch_6">
    <path d="M 61.182 32.352 
L 704.448 32.352 
" style="fill: none; stroke: #cccccc; stroke-width: 1.25; stroke-linejoin: miter; stroke-linecap: square"/>
   </g>
   <g id="text_18">
    <!-- Adversarial Losses: Discriminator Loss (LossD) and Generator Loss (LossG) vs Epoch -->
    <g style="fill: #262626" transform="translate(106.72425 26.352) scale(0.144 -0.144)">
     <defs>
      <path id="ArialMT-41" d="M -9 0 
L 1750 4581 
L 2403 4581 
L 4278 0 
L 3588 0 
L 3053 1388 
L 1138 1388 
L 634 0 
L -9 0 
z
M 1313 1881 
L 2866 1881 
L 2388 3150 
Q 2169 3728 2063 4100 
Q 1975 3659 1816 3225 
L 1313 1881 
z
" transform="scale(0.015625)"/>
      <path id="ArialMT-64" d="M 2575 0 
L 2575 419 
Q 2259 -75 1647 -75 
Q 1250 -75 917 144 
Q 584 363 401 755 
Q 219 1147 219 1656 
Q 219 2153 384 2558 
Q 550 2963 881 3178 
Q 1213 3394 1622 3394 
Q 1922 3394 2156 3267 
Q 2391 3141 2538 2938 
L 2538 4581 
L 3097 4581 
L 3097 0 
L 2575 0 
z
M 797 1656 
Q 797 1019 1065 703 
Q 1334 388 1700 388 
Q 2069 388 2326 689 
Q 2584 991 2584 1609 
Q 2584 2291 2321 2609 
Q 2059 2928 1675 2928 
Q 1300 2928 1048 2622 
Q 797 2316 797 1656 
z
" transform="scale(0.015625)"/>
      <path id="ArialMT-76" d="M 1344 0 
L 81 3319 
L 675 3319 
L 1388 1331 
Q 1503 1009 1600 663 
Q 1675 925 1809 1294 
L 2547 3319 
L 3125 3319 
L 1869 0 
L 1344 0 
z
" transform="scale(0.015625)"/>
      <path id="ArialMT-65" d="M 2694 1069 
L 3275 997 
Q 3138 488 2766 206 
Q 2394 -75 1816 -75 
Q 1088 -75 661 373 
Q 234 822 234 1631 
Q 234 2469 665 2931 
Q 1097 3394 1784 3394 
Q 2450 3394 2872 2941 
Q 3294 2488 3294 1666 
Q 3294 1616 3291 1516 
L 816 1516 
Q 847 969 1125 678 
Q 1403 388 1819 388 
Q 2128 388 2347 550 
Q 2566 713 2694 1069 
z
M 847 1978 
L 2700 1978 
Q 2663 2397 2488 2606 
Q 2219 2931 1791 2931 
Q 1403 2931 1139 2672 
Q 875 2413 847 1978 
z
" transform="scale(0.015625)"/>
      <path id="ArialMT-72" d="M 416 0 
L 416 3319 
L 922 3319 
L 922 2816 
Q 1116 3169 1280 3281 
Q 1444 3394 1641 3394 
Q 1925 3394 2219 3213 
L 2025 2691 
Q 1819 2813 1613 2813 
Q 1428 2813 1281 2702 
Q 1134 2591 1072 2394 
Q 978 2094 978 1738 
L 978 0 
L 416 0 
z
" transform="scale(0.015625)"/>
      <path id="ArialMT-61" d="M 2588 409 
Q 2275 144 1986 34 
Q 1697 -75 1366 -75 
Q 819 -75 525 192 
Q 231 459 231 875 
Q 231 1119 342 1320 
Q 453 1522 633 1644 
Q 813 1766 1038 1828 
Q 1203 1872 1538 1913 
Q 2219 1994 2541 2106 
Q 2544 2222 2544 2253 
Q 2544 2597 2384 2738 
Q 2169 2928 1744 2928 
Q 1347 2928 1158 2789 
Q 969 2650 878 2297 
L 328 2372 
Q 403 2725 575 2942 
Q 747 3159 1072 3276 
Q 1397 3394 1825 3394 
Q 2250 3394 2515 3294 
Q 2781 3194 2906 3042 
Q 3031 2891 3081 2659 
Q 3109 2516 3109 2141 
L 3109 1391 
Q 3109 606 3145 398 
Q 3181 191 3288 0 
L 2700 0 
Q 2613 175 2588 409 
z
M 2541 1666 
Q 2234 1541 1622 1453 
Q 1275 1403 1131 1340 
Q 988 1278 909 1158 
Q 831 1038 831 891 
Q 831 666 1001 516 
Q 1172 366 1500 366 
Q 1825 366 2078 508 
Q 2331 650 2450 897 
Q 2541 1088 2541 1459 
L 2541 1666 
z
" transform="scale(0.015625)"/>
      <path id="ArialMT-69" d="M 425 3934 
L 425 4581 
L 988 4581 
L 988 3934 
L 425 3934 
z
M 425 0 
L 425 3319 
L 988 3319 
L 988 0 
L 425 0 
z
" transform="scale(0.015625)"/>
      <path id="ArialMT-6c" d="M 409 0 
L 409 4581 
L 972 4581 
L 972 0 
L 409 0 
z
" transform="scale(0.015625)"/>
      <path id="ArialMT-20" transform="scale(0.015625)"/>
      <path id="ArialMT-3a" d="M 578 2678 
L 578 3319 
L 1219 3319 
L 1219 2678 
L 578 2678 
z
M 578 0 
L 578 641 
L 1219 641 
L 1219 0 
L 578 0 
z
" transform="scale(0.015625)"/>
      <path id="ArialMT-44" d="M 494 0 
L 494 4581 
L 2072 4581 
Q 2606 4581 2888 4516 
Q 3281 4425 3559 4188 
Q 3922 3881 4101 3404 
Q 4281 2928 4281 2316 
Q 4281 1794 4159 1391 
Q 4038 988 3847 723 
Q 3656 459 3429 307 
Q 3203 156 2883 78 
Q 2563 0 2147 0 
L 494 0 
z
M 1100 541 
L 2078 541 
Q 2531 541 2789 625 
Q 3047 709 3200 863 
Q 3416 1078 3536 1442 
Q 3656 1806 3656 2325 
Q 3656 3044 3420 3430 
Q 3184 3816 2847 3947 
Q 2603 4041 2063 4041 
L 1100 4041 
L 1100 541 
z
" transform="scale(0.015625)"/>
      <path id="ArialMT-6d" d="M 422 0 
L 422 3319 
L 925 3319 
L 925 2853 
Q 1081 3097 1340 3245 
Q 1600 3394 1931 3394 
Q 2300 3394 2536 3241 
Q 2772 3088 2869 2813 
Q 3263 3394 3894 3394 
Q 4388 3394 4653 3120 
Q 4919 2847 4919 2278 
L 4919 0 
L 4359 0 
L 4359 2091 
Q 4359 2428 4304 2576 
Q 4250 2725 4106 2815 
Q 3963 2906 3769 2906 
Q 3419 2906 3187 2673 
Q 2956 2441 2956 1928 
L 2956 0 
L 2394 0 
L 2394 2156 
Q 2394 2531 2256 2718 
Q 2119 2906 1806 2906 
Q 1569 2906 1367 2781 
Q 1166 2656 1075 2415 
Q 984 2175 984 1722 
L 984 0 
L 422 0 
z
" transform="scale(0.015625)"/>
      <path id="ArialMT-6e" d="M 422 0 
L 422 3319 
L 928 3319 
L 928 2847 
Q 1294 3394 1984 3394 
Q 2284 3394 2536 3286 
Q 2788 3178 2913 3003 
Q 3038 2828 3088 2588 
Q 3119 2431 3119 2041 
L 3119 0 
L 2556 0 
L 2556 2019 
Q 2556 2363 2490 2533 
Q 2425 2703 2258 2804 
Q 2091 2906 1866 2906 
Q 1506 2906 1245 2678 
Q 984 2450 984 1813 
L 984 0 
L 422 0 
z
" transform="scale(0.015625)"/>
      <path id="ArialMT-74" d="M 1650 503 
L 1731 6 
Q 1494 -44 1306 -44 
Q 1000 -44 831 53 
Q 663 150 594 308 
Q 525 466 525 972 
L 525 2881 
L 113 2881 
L 113 3319 
L 525 3319 
L 525 4141 
L 1084 4478 
L 1084 3319 
L 1650 3319 
L 1650 2881 
L 1084 2881 
L 1084 941 
Q 1084 700 1114 631 
Q 1144 563 1211 522 
Q 1278 481 1403 481 
Q 1497 481 1650 503 
z
" transform="scale(0.015625)"/>
      <path id="ArialMT-28" d="M 1497 -1347 
Q 1031 -759 709 28 
Q 388 816 388 1659 
Q 388 2403 628 3084 
Q 909 3875 1497 4659 
L 1900 4659 
Q 1522 4009 1400 3731 
Q 1209 3300 1100 2831 
Q 966 2247 966 1656 
Q 966 153 1900 -1347 
L 1497 -1347 
z
" transform="scale(0.015625)"/>
      <path id="ArialMT-29" d="M 791 -1347 
L 388 -1347 
Q 1322 153 1322 1656 
Q 1322 2244 1188 2822 
Q 1081 3291 891 3722 
Q 769 4003 388 4659 
L 791 4659 
Q 1378 3875 1659 3084 
Q 1900 2403 1900 1659 
Q 1900 816 1576 28 
Q 1253 -759 791 -1347 
z
" transform="scale(0.015625)"/>
      <path id="ArialMT-47" d="M 2638 1797 
L 2638 2334 
L 4578 2338 
L 4578 638 
Q 4131 281 3656 101 
Q 3181 -78 2681 -78 
Q 2006 -78 1454 211 
Q 903 500 622 1047 
Q 341 1594 341 2269 
Q 341 2938 620 3517 
Q 900 4097 1425 4378 
Q 1950 4659 2634 4659 
Q 3131 4659 3532 4498 
Q 3934 4338 4162 4050 
Q 4391 3763 4509 3300 
L 3963 3150 
Q 3859 3500 3706 3700 
Q 3553 3900 3268 4020 
Q 2984 4141 2638 4141 
Q 2222 4141 1919 4014 
Q 1616 3888 1430 3681 
Q 1244 3475 1141 3228 
Q 966 2803 966 2306 
Q 966 1694 1177 1281 
Q 1388 869 1791 669 
Q 2194 469 2647 469 
Q 3041 469 3416 620 
Q 3791 772 3984 944 
L 3984 1797 
L 2638 1797 
z
" transform="scale(0.015625)"/>
     </defs>
     <use xlink:href="#ArialMT-41"/>
     <use xlink:href="#ArialMT-64" x="66.699219"/>
     <use xlink:href="#ArialMT-76" x="122.314453"/>
     <use xlink:href="#ArialMT-65" x="172.314453"/>
     <use xlink:href="#ArialMT-72" x="227.929688"/>
     <use xlink:href="#ArialMT-73" x="261.230469"/>
     <use xlink:href="#ArialMT-61" x="311.230469"/>
     <use xlink:href="#ArialMT-72" x="366.845703"/>
     <use xlink:href="#ArialMT-69" x="400.146484"/>
     <use xlink:href="#ArialMT-61" x="422.363281"/>
     <use xlink:href="#ArialMT-6c" x="477.978516"/>
     <use xlink:href="#ArialMT-20" x="500.195312"/>
     <use xlink:href="#ArialMT-4c" x="527.978516"/>
     <use xlink:href="#ArialMT-6f" x="583.59375"/>
     <use xlink:href="#ArialMT-73" x="639.208984"/>
     <use xlink:href="#ArialMT-73" x="689.208984"/>
     <use xlink:href="#ArialMT-65" x="739.208984"/>
     <use xlink:href="#ArialMT-73" x="794.824219"/>
     <use xlink:href="#ArialMT-3a" x="844.824219"/>
     <use xlink:href="#ArialMT-20" x="872.607422"/>
     <use xlink:href="#ArialMT-44" x="900.390625"/>
     <use xlink:href="#ArialMT-69" x="972.607422"/>
     <use xlink:href="#ArialMT-73" x="994.824219"/>
     <use xlink:href="#ArialMT-63" x="1044.824219"/>
     <use xlink:href="#ArialMT-72" x="1094.824219"/>
     <use xlink:href="#ArialMT-69" x="1128.125"/>
     <use xlink:href="#ArialMT-6d" x="1150.341797"/>
     <use xlink:href="#ArialMT-69" x="1233.642578"/>
     <use xlink:href="#ArialMT-6e" x="1255.859375"/>
     <use xlink:href="#ArialMT-61" x="1311.474609"/>
     <use xlink:href="#ArialMT-74" x="1367.089844"/>
     <use xlink:href="#ArialMT-6f" x="1394.873047"/>
     <use xlink:href="#ArialMT-72" x="1450.488281"/>
     <use xlink:href="#ArialMT-20" x="1483.789062"/>
     <use xlink:href="#ArialMT-4c" x="1511.572266"/>
     <use xlink:href="#ArialMT-6f" x="1567.1875"/>
     <use xlink:href="#ArialMT-73" x="1622.802734"/>
     <use xlink:href="#ArialMT-73" x="1672.802734"/>
     <use xlink:href="#ArialMT-20" x="1722.802734"/>
     <use xlink:href="#ArialMT-28" x="1750.585938"/>
     <use xlink:href="#ArialMT-4c" x="1783.886719"/>
     <use xlink:href="#ArialMT-6f" x="1839.501953"/>
     <use xlink:href="#ArialMT-73" x="1895.117188"/>
     <use xlink:href="#ArialMT-73" x="1945.117188"/>
     <use xlink:href="#ArialMT-44" x="1995.117188"/>
     <use xlink:href="#ArialMT-29" x="2067.333984"/>
     <use xlink:href="#ArialMT-20" x="2100.634766"/>
     <use xlink:href="#ArialMT-61" x="2128.417969"/>
     <use xlink:href="#ArialMT-6e" x="2184.033203"/>
     <use xlink:href="#ArialMT-64" x="2239.648438"/>
     <use xlink:href="#ArialMT-20" x="2295.263672"/>
     <use xlink:href="#ArialMT-47" x="2323.046875"/>
     <use xlink:href="#ArialMT-65" x="2400.830078"/>
     <use xlink:href="#ArialMT-6e" x="2456.445312"/>
     <use xlink:href="#ArialMT-65" x="2512.060547"/>
     <use xlink:href="#ArialMT-72" x="2567.675781"/>
     <use xlink:href="#ArialMT-61" x="2600.976562"/>
     <use xlink:href="#ArialMT-74" x="2656.591797"/>
     <use xlink:href="#ArialMT-6f" x="2684.375"/>
     <use xlink:href="#ArialMT-72" x="2739.990234"/>
     <use xlink:href="#ArialMT-20" x="2773.291016"/>
     <use xlink:href="#ArialMT-4c" x="2801.074219"/>
     <use xlink:href="#ArialMT-6f" x="2856.689453"/>
     <use xlink:href="#ArialMT-73" x="2912.304688"/>
     <use xlink:href="#ArialMT-73" x="2962.304688"/>
     <use xlink:href="#ArialMT-20" x="3012.304688"/>
     <use xlink:href="#ArialMT-28" x="3040.087891"/>
     <use xlink:href="#ArialMT-4c" x="3073.388672"/>
     <use xlink:href="#ArialMT-6f" x="3129.003906"/>
     <use xlink:href="#ArialMT-73" x="3184.619141"/>
     <use xlink:href="#ArialMT-73" x="3234.619141"/>
     <use xlink:href="#ArialMT-47" x="3284.619141"/>
     <use xlink:href="#ArialMT-29" x="3362.402344"/>
     <use xlink:href="#ArialMT-20" x="3395.703125"/>
     <use xlink:href="#ArialMT-76" x="3423.486328"/>
     <use xlink:href="#ArialMT-73" x="3473.486328"/>
     <use xlink:href="#ArialMT-20" x="3523.486328"/>
     <use xlink:href="#ArialMT-45" x="3551.269531"/>
     <use xlink:href="#ArialMT-70" x="3617.96875"/>
     <use xlink:href="#ArialMT-6f" x="3673.583984"/>
     <use xlink:href="#ArialMT-63" x="3729.199219"/>
     <use xlink:href="#ArialMT-68" x="3779.199219"/>
    </g>
   </g>
   <g id="legend_1">
    <g id="patch_7">
     <path d="M 614.82 198.950813 
L 695.208 198.950813 
Q 697.848 198.950813 697.848 196.310813 
L 697.848 140.349187 
Q 697.848 137.709188 695.208 137.709188 
L 614.82 137.709188 
Q 612.18 137.709188 612.18 140.349187 
L 612.18 196.310813 
Q 612.18 198.950813 614.82 198.950813 
z
" style="fill: #ffffff; opacity: 0.8; stroke: #cccccc; stroke-linejoin: miter"/>
    </g>
    <g id="text_19">
     <!-- Loss Type -->
     <g style="fill: #262626" transform="translate(622.322625 153.296438) scale(0.144 -0.144)">
      <defs>
       <path id="ArialMT-54" d="M 1659 0 
L 1659 4041 
L 150 4041 
L 150 4581 
L 3781 4581 
L 3781 4041 
L 2266 4041 
L 2266 0 
L 1659 0 
z
" transform="scale(0.015625)"/>
       <path id="ArialMT-79" d="M 397 -1278 
L 334 -750 
Q 519 -800 656 -800 
Q 844 -800 956 -737 
Q 1069 -675 1141 -563 
Q 1194 -478 1313 -144 
Q 1328 -97 1363 -6 
L 103 3319 
L 709 3319 
L 1400 1397 
Q 1534 1031 1641 628 
Q 1738 1016 1872 1384 
L 2581 3319 
L 3144 3319 
L 1881 -56 
Q 1678 -603 1566 -809 
Q 1416 -1088 1222 -1217 
Q 1028 -1347 759 -1347 
Q 597 -1347 397 -1278 
z
" transform="scale(0.015625)"/>
      </defs>
      <use xlink:href="#ArialMT-4c"/>
      <use xlink:href="#ArialMT-6f" x="55.615234"/>
      <use xlink:href="#ArialMT-73" x="111.230469"/>
      <use xlink:href="#ArialMT-73" x="161.230469"/>
      <use xlink:href="#ArialMT-20" x="211.230469"/>
      <use xlink:href="#ArialMT-54" x="237.263672"/>
      <use xlink:href="#ArialMT-79" x="292.847656"/>
      <use xlink:href="#ArialMT-70" x="342.847656"/>
      <use xlink:href="#ArialMT-65" x="398.462891"/>
     </g>
    </g>
    <g id="line2d_20">
     <path d="M 617.46 167.7555 
L 630.66 167.7555 
L 643.86 167.7555 
" style="fill: none; stroke: #4c72b0; stroke-width: 2; stroke-linecap: round"/>
    </g>
    <g id="text_20">
     <!-- LossD -->
     <g style="fill: #262626" transform="translate(654.42 172.3755) scale(0.132 -0.132)">
      <use xlink:href="#ArialMT-4c"/>
      <use xlink:href="#ArialMT-6f" x="55.615234"/>
      <use xlink:href="#ArialMT-73" x="111.230469"/>
      <use xlink:href="#ArialMT-73" x="161.230469"/>
      <use xlink:href="#ArialMT-44" x="211.230469"/>
     </g>
    </g>
    <g id="line2d_21">
     <path d="M 617.46 186.427313 
L 630.66 186.427313 
L 643.86 186.427313 
" style="fill: none; stroke: #dd8452; stroke-width: 2; stroke-linecap: round"/>
    </g>
    <g id="text_21">
     <!-- LossG -->
     <g style="fill: #262626" transform="translate(654.42 191.047313) scale(0.132 -0.132)">
      <use xlink:href="#ArialMT-4c"/>
      <use xlink:href="#ArialMT-6f" x="55.615234"/>
      <use xlink:href="#ArialMT-73" x="111.230469"/>
      <use xlink:href="#ArialMT-73" x="161.230469"/>
      <use xlink:href="#ArialMT-47" x="211.230469"/>
     </g>
    </g>
   </g>
  </g>
 </g>
 <defs>
  <clipPath id="p1e7855bb1a">
   <rect x="61.182" y="32.352" width="643.266" height="271.956"/>
  </clipPath>
 </defs>
</svg>
