<?xml version="1.0" encoding="utf-8" standalone="no"?>
<!DOCTYPE svg PUBLIC "-//W3C//DTD SVG 1.1//EN"
  "http://www.w3.org/Graphics/SVG/1.1/DTD/svg11.dtd">
<svg xmlns:xlink="http://www.w3.org/1999/xlink" width="576pt" height="360pt" viewBox="0 0 576 360" xmlns="http://www.w3.org/2000/svg" version="1.1">
 <metadata>
  <rdf:RDF xmlns:dc="http://purl.org/dc/elements/1.1/" xmlns:cc="http://creativecommons.org/ns#" xmlns:rdf="http://www.w3.org/1999/02/22-rdf-syntax-ns#">
   <cc:Work>
    <dc:type rdf:resource="http://purl.org/dc/dcmitype/StillImage"/>
    <dc:date>2025-04-13T11:39:14.325834</dc:date>
    <dc:format>image/svg+xml</dc:format>
    <dc:creator>
     <cc:Agent>
      <dc:title>Matplotlib v3.9.2, https://matplotlib.org/</dc:title>
     </cc:Agent>
    </dc:creator>
   </cc:Work>
  </rdf:RDF>
 </metadata>
 <defs>
  <style type="text/css">*{stroke-linejoin: round; stroke-linecap: butt}</style>
 </defs>
 <g id="figure_1">
  <g id="patch_1">
   <path d="M 0 360 
L 576 360 
L 576 0 
L 0 0 
z
" style="fill: #ffffff"/>
  </g>
  <g id="axes_1">
   <g id="patch_2">
    <path d="M 75.762 304.308 
L 560.448 304.308 
L 560.448 32.352 
L 75.762 32.352 
z
" style="fill: #ffffff"/>
   </g>
   <g id="matplotlib.axis_1">
    <g id="xtick_1">
     <g id="line2d_1">
      <path d="M 97.793182 304.308 
L 97.793182 32.352 
" clip-path="url(#p02d8795c29)" style="fill: none; stroke: #cccccc; stroke-linecap: round"/>
     </g>
     <g id="text_1">
      <!-- 0 -->
      <g style="fill: #262626" transform="translate(94.122963 323.256313) scale(0.132 -0.132)">
       <defs>
        <path id="ArialMT-30" d="M 266 2259 
Q 266 3072 433 3567 
Q 600 4063 929 4331 
Q 1259 4600 1759 4600 
Q 2128 4600 2406 4451 
Q 2684 4303 2865 4023 
Q 3047 3744 3150 3342 
Q 3253 2941 3253 2259 
Q 3253 1453 3087 958 
Q 2922 463 2592 192 
Q 2263 -78 1759 -78 
Q 1097 -78 719 397 
Q 266 969 266 2259 
z
M 844 2259 
Q 844 1131 1108 757 
Q 1372 384 1759 384 
Q 2147 384 2411 759 
Q 2675 1134 2675 2259 
Q 2675 3391 2411 3762 
Q 2147 4134 1753 4134 
Q 1366 4134 1134 3806 
Q 844 3388 844 2259 
z
" transform="scale(0.015625)"/>
       </defs>
       <use xlink:href="#ArialMT-30"/>
      </g>
     </g>
    </g>
    <g id="xtick_2">
     <g id="line2d_2">
      <path d="M 186.808058 304.308 
L 186.808058 32.352 
" clip-path="url(#p02d8795c29)" style="fill: none; stroke: #cccccc; stroke-linecap: round"/>
     </g>
     <g id="text_2">
      <!-- 200 -->
      <g style="fill: #262626" transform="translate(175.797402 323.256313) scale(0.132 -0.132)">
       <defs>
        <path id="ArialMT-32" d="M 3222 541 
L 3222 0 
L 194 0 
Q 188 203 259 391 
Q 375 700 629 1000 
Q 884 1300 1366 1694 
Q 2113 2306 2375 2664 
Q 2638 3022 2638 3341 
Q 2638 3675 2398 3904 
Q 2159 4134 1775 4134 
Q 1369 4134 1125 3890 
Q 881 3647 878 3216 
L 300 3275 
Q 359 3922 746 4261 
Q 1134 4600 1788 4600 
Q 2447 4600 2831 4234 
Q 3216 3869 3216 3328 
Q 3216 3053 3103 2787 
Q 2991 2522 2730 2228 
Q 2469 1934 1863 1422 
Q 1356 997 1212 845 
Q 1069 694 975 541 
L 3222 541 
z
" transform="scale(0.015625)"/>
       </defs>
       <use xlink:href="#ArialMT-32"/>
       <use xlink:href="#ArialMT-30" x="55.615234"/>
       <use xlink:href="#ArialMT-30" x="111.230469"/>
      </g>
     </g>
    </g>
    <g id="xtick_3">
     <g id="line2d_3">
      <path d="M 275.822934 304.308 
L 275.822934 32.352 
" clip-path="url(#p02d8795c29)" style="fill: none; stroke: #cccccc; stroke-linecap: round"/>
     </g>
     <g id="text_3">
      <!-- 400 -->
      <g style="fill: #262626" transform="translate(264.812278 323.256313) scale(0.132 -0.132)">
       <defs>
        <path id="ArialMT-34" d="M 2069 0 
L 2069 1097 
L 81 1097 
L 81 1613 
L 2172 4581 
L 2631 4581 
L 2631 1613 
L 3250 1613 
L 3250 1097 
L 2631 1097 
L 2631 0 
L 2069 0 
z
M 2069 1613 
L 2069 3678 
L 634 1613 
L 2069 1613 
z
" transform="scale(0.015625)"/>
       </defs>
       <use xlink:href="#ArialMT-34"/>
       <use xlink:href="#ArialMT-30" x="55.615234"/>
       <use xlink:href="#ArialMT-30" x="111.230469"/>
      </g>
     </g>
    </g>
    <g id="xtick_4">
     <g id="line2d_4">
      <path d="M 364.83781 304.308 
L 364.83781 32.352 
" clip-path="url(#p02d8795c29)" style="fill: none; stroke: #cccccc; stroke-linecap: round"/>
     </g>
     <g id="text_4">
      <!-- 600 -->
      <g style="fill: #262626" transform="translate(353.827154 323.256313) scale(0.132 -0.132)">
       <defs>
        <path id="ArialMT-36" d="M 3184 3459 
L 2625 3416 
Q 2550 3747 2413 3897 
Q 2184 4138 1850 4138 
Q 1581 4138 1378 3988 
Q 1113 3794 959 3422 
Q 806 3050 800 2363 
Q 1003 2672 1297 2822 
Q 1591 2972 1913 2972 
Q 2475 2972 2870 2558 
Q 3266 2144 3266 1488 
Q 3266 1056 3080 686 
Q 2894 316 2569 119 
Q 2244 -78 1831 -78 
Q 1128 -78 684 439 
Q 241 956 241 2144 
Q 241 3472 731 4075 
Q 1159 4600 1884 4600 
Q 2425 4600 2770 4297 
Q 3116 3994 3184 3459 
z
M 888 1484 
Q 888 1194 1011 928 
Q 1134 663 1356 523 
Q 1578 384 1822 384 
Q 2178 384 2434 671 
Q 2691 959 2691 1453 
Q 2691 1928 2437 2201 
Q 2184 2475 1800 2475 
Q 1419 2475 1153 2201 
Q 888 1928 888 1484 
z
" transform="scale(0.015625)"/>
       </defs>
       <use xlink:href="#ArialMT-36"/>
       <use xlink:href="#ArialMT-30" x="55.615234"/>
       <use xlink:href="#ArialMT-30" x="111.230469"/>
      </g>
     </g>
    </g>
    <g id="xtick_5">
     <g id="line2d_5">
      <path d="M 453.852686 304.308 
L 453.852686 32.352 
" clip-path="url(#p02d8795c29)" style="fill: none; stroke: #cccccc; stroke-linecap: round"/>
     </g>
     <g id="text_5">
      <!-- 800 -->
      <g style="fill: #262626" transform="translate(442.84203 323.256313) scale(0.132 -0.132)">
       <defs>
        <path id="ArialMT-38" d="M 1131 2484 
Q 781 2613 612 2850 
Q 444 3088 444 3419 
Q 444 3919 803 4259 
Q 1163 4600 1759 4600 
Q 2359 4600 2725 4251 
Q 3091 3903 3091 3403 
Q 3091 3084 2923 2848 
Q 2756 2613 2416 2484 
Q 2838 2347 3058 2040 
Q 3278 1734 3278 1309 
Q 3278 722 2862 322 
Q 2447 -78 1769 -78 
Q 1091 -78 675 323 
Q 259 725 259 1325 
Q 259 1772 486 2073 
Q 713 2375 1131 2484 
z
M 1019 3438 
Q 1019 3113 1228 2906 
Q 1438 2700 1772 2700 
Q 2097 2700 2305 2904 
Q 2513 3109 2513 3406 
Q 2513 3716 2298 3927 
Q 2084 4138 1766 4138 
Q 1444 4138 1231 3931 
Q 1019 3725 1019 3438 
z
M 838 1322 
Q 838 1081 952 856 
Q 1066 631 1291 507 
Q 1516 384 1775 384 
Q 2178 384 2440 643 
Q 2703 903 2703 1303 
Q 2703 1709 2433 1975 
Q 2163 2241 1756 2241 
Q 1359 2241 1098 1978 
Q 838 1716 838 1322 
z
" transform="scale(0.015625)"/>
       </defs>
       <use xlink:href="#ArialMT-38"/>
       <use xlink:href="#ArialMT-30" x="55.615234"/>
       <use xlink:href="#ArialMT-30" x="111.230469"/>
      </g>
     </g>
    </g>
    <g id="xtick_6">
     <g id="line2d_6">
      <path d="M 542.867562 304.308 
L 542.867562 32.352 
" clip-path="url(#p02d8795c29)" style="fill: none; stroke: #cccccc; stroke-linecap: round"/>
     </g>
     <g id="text_6">
      <!-- 1000 -->
      <g style="fill: #262626" transform="translate(528.186687 323.256313) scale(0.132 -0.132)">
       <defs>
        <path id="ArialMT-31" d="M 2384 0 
L 1822 0 
L 1822 3584 
Q 1619 3391 1289 3197 
Q 959 3003 697 2906 
L 697 3450 
Q 1169 3672 1522 3987 
Q 1875 4303 2022 4600 
L 2384 4600 
L 2384 0 
z
" transform="scale(0.015625)"/>
       </defs>
       <use xlink:href="#ArialMT-31"/>
       <use xlink:href="#ArialMT-30" x="55.615234"/>
       <use xlink:href="#ArialMT-30" x="111.230469"/>
       <use xlink:href="#ArialMT-30" x="166.845703"/>
      </g>
     </g>
    </g>
    <g id="text_7">
     <!-- Step -->
     <g style="fill: #262626" transform="translate(303.294375 340.362563) scale(0.144 -0.144)">
      <defs>
       <path id="ArialMT-53" d="M 288 1472 
L 859 1522 
Q 900 1178 1048 958 
Q 1197 738 1509 602 
Q 1822 466 2213 466 
Q 2559 466 2825 569 
Q 3091 672 3220 851 
Q 3350 1031 3350 1244 
Q 3350 1459 3225 1620 
Q 3100 1781 2813 1891 
Q 2628 1963 1997 2114 
Q 1366 2266 1113 2400 
Q 784 2572 623 2826 
Q 463 3081 463 3397 
Q 463 3744 659 4045 
Q 856 4347 1234 4503 
Q 1613 4659 2075 4659 
Q 2584 4659 2973 4495 
Q 3363 4331 3572 4012 
Q 3781 3694 3797 3291 
L 3216 3247 
Q 3169 3681 2898 3903 
Q 2628 4125 2100 4125 
Q 1550 4125 1298 3923 
Q 1047 3722 1047 3438 
Q 1047 3191 1225 3031 
Q 1400 2872 2139 2705 
Q 2878 2538 3153 2413 
Q 3553 2228 3743 1945 
Q 3934 1663 3934 1294 
Q 3934 928 3725 604 
Q 3516 281 3123 101 
Q 2731 -78 2241 -78 
Q 1619 -78 1198 103 
Q 778 284 539 648 
Q 300 1013 288 1472 
z
" transform="scale(0.015625)"/>
       <path id="ArialMT-74" d="M 1650 503 
L 1731 6 
Q 1494 -44 1306 -44 
Q 1000 -44 831 53 
Q 663 150 594 308 
Q 525 466 525 972 
L 525 2881 
L 113 2881 
L 113 3319 
L 525 3319 
L 525 4141 
L 1084 4478 
L 1084 3319 
L 1650 3319 
L 1650 2881 
L 1084 2881 
L 1084 941 
Q 1084 700 1114 631 
Q 1144 563 1211 522 
Q 1278 481 1403 481 
Q 1497 481 1650 503 
z
" transform="scale(0.015625)"/>
       <path id="ArialMT-65" d="M 2694 1069 
L 3275 997 
Q 3138 488 2766 206 
Q 2394 -75 1816 -75 
Q 1088 -75 661 373 
Q 234 822 234 1631 
Q 234 2469 665 2931 
Q 1097 3394 1784 3394 
Q 2450 3394 2872 2941 
Q 3294 2488 3294 1666 
Q 3294 1616 3291 1516 
L 816 1516 
Q 847 969 1125 678 
Q 1403 388 1819 388 
Q 2128 388 2347 550 
Q 2566 713 2694 1069 
z
M 847 1978 
L 2700 1978 
Q 2663 2397 2488 2606 
Q 2219 2931 1791 2931 
Q 1403 2931 1139 2672 
Q 875 2413 847 1978 
z
" transform="scale(0.015625)"/>
       <path id="ArialMT-70" d="M 422 -1272 
L 422 3319 
L 934 3319 
L 934 2888 
Q 1116 3141 1344 3267 
Q 1572 3394 1897 3394 
Q 2322 3394 2647 3175 
Q 2972 2956 3137 2557 
Q 3303 2159 3303 1684 
Q 3303 1175 3120 767 
Q 2938 359 2589 142 
Q 2241 -75 1856 -75 
Q 1575 -75 1351 44 
Q 1128 163 984 344 
L 984 -1272 
L 422 -1272 
z
M 931 1641 
Q 931 1000 1190 694 
Q 1450 388 1819 388 
Q 2194 388 2461 705 
Q 2728 1022 2728 1688 
Q 2728 2322 2467 2637 
Q 2206 2953 1844 2953 
Q 1484 2953 1207 2617 
Q 931 2281 931 1641 
z
" transform="scale(0.015625)"/>
      </defs>
      <use xlink:href="#ArialMT-53"/>
      <use xlink:href="#ArialMT-74" x="66.699219"/>
      <use xlink:href="#ArialMT-65" x="94.482422"/>
      <use xlink:href="#ArialMT-70" x="150.097656"/>
     </g>
    </g>
   </g>
   <g id="matplotlib.axis_2">
    <g id="ytick_1">
     <g id="line2d_7">
      <path d="M 75.762 287.922935 
L 560.448 287.922935 
" clip-path="url(#p02d8795c29)" style="fill: none; stroke: #cccccc; stroke-linecap: round"/>
     </g>
     <g id="text_8">
      <!-- 0.425 -->
      <g style="fill: #262626" transform="translate(33.233125 292.647092) scale(0.132 -0.132)">
       <defs>
        <path id="ArialMT-2e" d="M 581 0 
L 581 641 
L 1222 641 
L 1222 0 
L 581 0 
z
" transform="scale(0.015625)"/>
        <path id="ArialMT-35" d="M 266 1200 
L 856 1250 
Q 922 819 1161 601 
Q 1400 384 1738 384 
Q 2144 384 2425 690 
Q 2706 997 2706 1503 
Q 2706 1984 2436 2262 
Q 2166 2541 1728 2541 
Q 1456 2541 1237 2417 
Q 1019 2294 894 2097 
L 366 2166 
L 809 4519 
L 3088 4519 
L 3088 3981 
L 1259 3981 
L 1013 2750 
Q 1425 3038 1878 3038 
Q 2478 3038 2890 2622 
Q 3303 2206 3303 1553 
Q 3303 931 2941 478 
Q 2500 -78 1738 -78 
Q 1113 -78 717 272 
Q 322 622 266 1200 
z
" transform="scale(0.015625)"/>
       </defs>
       <use xlink:href="#ArialMT-30"/>
       <use xlink:href="#ArialMT-2e" x="55.615234"/>
       <use xlink:href="#ArialMT-34" x="83.398438"/>
       <use xlink:href="#ArialMT-32" x="139.013672"/>
       <use xlink:href="#ArialMT-35" x="194.628906"/>
      </g>
     </g>
    </g>
    <g id="ytick_2">
     <g id="line2d_8">
      <path d="M 75.762 253.238209 
L 560.448 253.238209 
" clip-path="url(#p02d8795c29)" style="fill: none; stroke: #cccccc; stroke-linecap: round"/>
     </g>
     <g id="text_9">
      <!-- 0.450 -->
      <g style="fill: #262626" transform="translate(33.233125 257.962366) scale(0.132 -0.132)">
       <use xlink:href="#ArialMT-30"/>
       <use xlink:href="#ArialMT-2e" x="55.615234"/>
       <use xlink:href="#ArialMT-34" x="83.398438"/>
       <use xlink:href="#ArialMT-35" x="139.013672"/>
       <use xlink:href="#ArialMT-30" x="194.628906"/>
      </g>
     </g>
    </g>
    <g id="ytick_3">
     <g id="line2d_9">
      <path d="M 75.762 218.553483 
L 560.448 218.553483 
" clip-path="url(#p02d8795c29)" style="fill: none; stroke: #cccccc; stroke-linecap: round"/>
     </g>
     <g id="text_10">
      <!-- 0.475 -->
      <g style="fill: #262626" transform="translate(33.233125 223.27764) scale(0.132 -0.132)">
       <defs>
        <path id="ArialMT-37" d="M 303 3981 
L 303 4522 
L 3269 4522 
L 3269 4084 
Q 2831 3619 2401 2847 
Q 1972 2075 1738 1259 
Q 1569 684 1522 0 
L 944 0 
Q 953 541 1156 1306 
Q 1359 2072 1739 2783 
Q 2119 3494 2547 3981 
L 303 3981 
z
" transform="scale(0.015625)"/>
       </defs>
       <use xlink:href="#ArialMT-30"/>
       <use xlink:href="#ArialMT-2e" x="55.615234"/>
       <use xlink:href="#ArialMT-34" x="83.398438"/>
       <use xlink:href="#ArialMT-37" x="139.013672"/>
       <use xlink:href="#ArialMT-35" x="194.628906"/>
      </g>
     </g>
    </g>
    <g id="ytick_4">
     <g id="line2d_10">
      <path d="M 75.762 183.868757 
L 560.448 183.868757 
" clip-path="url(#p02d8795c29)" style="fill: none; stroke: #cccccc; stroke-linecap: round"/>
     </g>
     <g id="text_11">
      <!-- 0.500 -->
      <g style="fill: #262626" transform="translate(33.233125 188.592914) scale(0.132 -0.132)">
       <use xlink:href="#ArialMT-30"/>
       <use xlink:href="#ArialMT-2e" x="55.615234"/>
       <use xlink:href="#ArialMT-35" x="83.398438"/>
       <use xlink:href="#ArialMT-30" x="139.013672"/>
       <use xlink:href="#ArialMT-30" x="194.628906"/>
      </g>
     </g>
    </g>
    <g id="ytick_5">
     <g id="line2d_11">
      <path d="M 75.762 149.184031 
L 560.448 149.184031 
" clip-path="url(#p02d8795c29)" style="fill: none; stroke: #cccccc; stroke-linecap: round"/>
     </g>
     <g id="text_12">
      <!-- 0.525 -->
      <g style="fill: #262626" transform="translate(33.233125 153.908187) scale(0.132 -0.132)">
       <use xlink:href="#ArialMT-30"/>
       <use xlink:href="#ArialMT-2e" x="55.615234"/>
       <use xlink:href="#ArialMT-35" x="83.398438"/>
       <use xlink:href="#ArialMT-32" x="139.013672"/>
       <use xlink:href="#ArialMT-35" x="194.628906"/>
      </g>
     </g>
    </g>
    <g id="ytick_6">
     <g id="line2d_12">
      <path d="M 75.762 114.499305 
L 560.448 114.499305 
" clip-path="url(#p02d8795c29)" style="fill: none; stroke: #cccccc; stroke-linecap: round"/>
     </g>
     <g id="text_13">
      <!-- 0.550 -->
      <g style="fill: #262626" transform="translate(33.233125 119.223461) scale(0.132 -0.132)">
       <use xlink:href="#ArialMT-30"/>
       <use xlink:href="#ArialMT-2e" x="55.615234"/>
       <use xlink:href="#ArialMT-35" x="83.398438"/>
       <use xlink:href="#ArialMT-35" x="139.013672"/>
       <use xlink:href="#ArialMT-30" x="194.628906"/>
      </g>
     </g>
    </g>
    <g id="ytick_7">
     <g id="line2d_13">
      <path d="M 75.762 79.814579 
L 560.448 79.814579 
" clip-path="url(#p02d8795c29)" style="fill: none; stroke: #cccccc; stroke-linecap: round"/>
     </g>
     <g id="text_14">
      <!-- 0.575 -->
      <g style="fill: #262626" transform="translate(33.233125 84.538735) scale(0.132 -0.132)">
       <use xlink:href="#ArialMT-30"/>
       <use xlink:href="#ArialMT-2e" x="55.615234"/>
       <use xlink:href="#ArialMT-35" x="83.398438"/>
       <use xlink:href="#ArialMT-37" x="139.013672"/>
       <use xlink:href="#ArialMT-35" x="194.628906"/>
      </g>
     </g>
    </g>
    <g id="ytick_8">
     <g id="line2d_14">
      <path d="M 75.762 45.129853 
L 560.448 45.129853 
" clip-path="url(#p02d8795c29)" style="fill: none; stroke: #cccccc; stroke-linecap: round"/>
     </g>
     <g id="text_15">
      <!-- 0.600 -->
      <g style="fill: #262626" transform="translate(33.233125 49.854009) scale(0.132 -0.132)">
       <use xlink:href="#ArialMT-30"/>
       <use xlink:href="#ArialMT-2e" x="55.615234"/>
       <use xlink:href="#ArialMT-36" x="83.398438"/>
       <use xlink:href="#ArialMT-30" x="139.013672"/>
       <use xlink:href="#ArialMT-30" x="194.628906"/>
      </g>
     </g>
    </g>
    <g id="text_16">
     <!-- Structural Similarity Index (SSIM) -->
     <g style="fill: #262626" transform="translate(26.202375 274.35) rotate(-90) scale(0.144 -0.144)">
      <defs>
       <path id="ArialMT-72" d="M 416 0 
L 416 3319 
L 922 3319 
L 922 2816 
Q 1116 3169 1280 3281 
Q 1444 3394 1641 3394 
Q 1925 3394 2219 3213 
L 2025 2691 
Q 1819 2813 1613 2813 
Q 1428 2813 1281 2702 
Q 1134 2591 1072 2394 
Q 978 2094 978 1738 
L 978 0 
L 416 0 
z
" transform="scale(0.015625)"/>
       <path id="ArialMT-75" d="M 2597 0 
L 2597 488 
Q 2209 -75 1544 -75 
Q 1250 -75 995 37 
Q 741 150 617 320 
Q 494 491 444 738 
Q 409 903 409 1263 
L 409 3319 
L 972 3319 
L 972 1478 
Q 972 1038 1006 884 
Q 1059 663 1231 536 
Q 1403 409 1656 409 
Q 1909 409 2131 539 
Q 2353 669 2445 892 
Q 2538 1116 2538 1541 
L 2538 3319 
L 3100 3319 
L 3100 0 
L 2597 0 
z
" transform="scale(0.015625)"/>
       <path id="ArialMT-63" d="M 2588 1216 
L 3141 1144 
Q 3050 572 2676 248 
Q 2303 -75 1759 -75 
Q 1078 -75 664 370 
Q 250 816 250 1647 
Q 250 2184 428 2587 
Q 606 2991 970 3192 
Q 1334 3394 1763 3394 
Q 2303 3394 2647 3120 
Q 2991 2847 3088 2344 
L 2541 2259 
Q 2463 2594 2264 2762 
Q 2066 2931 1784 2931 
Q 1359 2931 1093 2626 
Q 828 2322 828 1663 
Q 828 994 1084 691 
Q 1341 388 1753 388 
Q 2084 388 2306 591 
Q 2528 794 2588 1216 
z
" transform="scale(0.015625)"/>
       <path id="ArialMT-61" d="M 2588 409 
Q 2275 144 1986 34 
Q 1697 -75 1366 -75 
Q 819 -75 525 192 
Q 231 459 231 875 
Q 231 1119 342 1320 
Q 453 1522 633 1644 
Q 813 1766 1038 1828 
Q 1203 1872 1538 1913 
Q 2219 1994 2541 2106 
Q 2544 2222 2544 2253 
Q 2544 2597 2384 2738 
Q 2169 2928 1744 2928 
Q 1347 2928 1158 2789 
Q 969 2650 878 2297 
L 328 2372 
Q 403 2725 575 2942 
Q 747 3159 1072 3276 
Q 1397 3394 1825 3394 
Q 2250 3394 2515 3294 
Q 2781 3194 2906 3042 
Q 3031 2891 3081 2659 
Q 3109 2516 3109 2141 
L 3109 1391 
Q 3109 606 3145 398 
Q 3181 191 3288 0 
L 2700 0 
Q 2613 175 2588 409 
z
M 2541 1666 
Q 2234 1541 1622 1453 
Q 1275 1403 1131 1340 
Q 988 1278 909 1158 
Q 831 1038 831 891 
Q 831 666 1001 516 
Q 1172 366 1500 366 
Q 1825 366 2078 508 
Q 2331 650 2450 897 
Q 2541 1088 2541 1459 
L 2541 1666 
z
" transform="scale(0.015625)"/>
       <path id="ArialMT-6c" d="M 409 0 
L 409 4581 
L 972 4581 
L 972 0 
L 409 0 
z
" transform="scale(0.015625)"/>
       <path id="ArialMT-20" transform="scale(0.015625)"/>
       <path id="ArialMT-69" d="M 425 3934 
L 425 4581 
L 988 4581 
L 988 3934 
L 425 3934 
z
M 425 0 
L 425 3319 
L 988 3319 
L 988 0 
L 425 0 
z
" transform="scale(0.015625)"/>
       <path id="ArialMT-6d" d="M 422 0 
L 422 3319 
L 925 3319 
L 925 2853 
Q 1081 3097 1340 3245 
Q 1600 3394 1931 3394 
Q 2300 3394 2536 3241 
Q 2772 3088 2869 2813 
Q 3263 3394 3894 3394 
Q 4388 3394 4653 3120 
Q 4919 2847 4919 2278 
L 4919 0 
L 4359 0 
L 4359 2091 
Q 4359 2428 4304 2576 
Q 4250 2725 4106 2815 
Q 3963 2906 3769 2906 
Q 3419 2906 3187 2673 
Q 2956 2441 2956 1928 
L 2956 0 
L 2394 0 
L 2394 2156 
Q 2394 2531 2256 2718 
Q 2119 2906 1806 2906 
Q 1569 2906 1367 2781 
Q 1166 2656 1075 2415 
Q 984 2175 984 1722 
L 984 0 
L 422 0 
z
" transform="scale(0.015625)"/>
       <path id="ArialMT-79" d="M 397 -1278 
L 334 -750 
Q 519 -800 656 -800 
Q 844 -800 956 -737 
Q 1069 -675 1141 -563 
Q 1194 -478 1313 -144 
Q 1328 -97 1363 -6 
L 103 3319 
L 709 3319 
L 1400 1397 
Q 1534 1031 1641 628 
Q 1738 1016 1872 1384 
L 2581 3319 
L 3144 3319 
L 1881 -56 
Q 1678 -603 1566 -809 
Q 1416 -1088 1222 -1217 
Q 1028 -1347 759 -1347 
Q 597 -1347 397 -1278 
z
" transform="scale(0.015625)"/>
       <path id="ArialMT-49" d="M 597 0 
L 597 4581 
L 1203 4581 
L 1203 0 
L 597 0 
z
" transform="scale(0.015625)"/>
       <path id="ArialMT-6e" d="M 422 0 
L 422 3319 
L 928 3319 
L 928 2847 
Q 1294 3394 1984 3394 
Q 2284 3394 2536 3286 
Q 2788 3178 2913 3003 
Q 3038 2828 3088 2588 
Q 3119 2431 3119 2041 
L 3119 0 
L 2556 0 
L 2556 2019 
Q 2556 2363 2490 2533 
Q 2425 2703 2258 2804 
Q 2091 2906 1866 2906 
Q 1506 2906 1245 2678 
Q 984 2450 984 1813 
L 984 0 
L 422 0 
z
" transform="scale(0.015625)"/>
       <path id="ArialMT-64" d="M 2575 0 
L 2575 419 
Q 2259 -75 1647 -75 
Q 1250 -75 917 144 
Q 584 363 401 755 
Q 219 1147 219 1656 
Q 219 2153 384 2558 
Q 550 2963 881 3178 
Q 1213 3394 1622 3394 
Q 1922 3394 2156 3267 
Q 2391 3141 2538 2938 
L 2538 4581 
L 3097 4581 
L 3097 0 
L 2575 0 
z
M 797 1656 
Q 797 1019 1065 703 
Q 1334 388 1700 388 
Q 2069 388 2326 689 
Q 2584 991 2584 1609 
Q 2584 2291 2321 2609 
Q 2059 2928 1675 2928 
Q 1300 2928 1048 2622 
Q 797 2316 797 1656 
z
" transform="scale(0.015625)"/>
       <path id="ArialMT-78" d="M 47 0 
L 1259 1725 
L 138 3319 
L 841 3319 
L 1350 2541 
Q 1494 2319 1581 2169 
Q 1719 2375 1834 2534 
L 2394 3319 
L 3066 3319 
L 1919 1756 
L 3153 0 
L 2463 0 
L 1781 1031 
L 1600 1309 
L 728 0 
L 47 0 
z
" transform="scale(0.015625)"/>
       <path id="ArialMT-28" d="M 1497 -1347 
Q 1031 -759 709 28 
Q 388 816 388 1659 
Q 388 2403 628 3084 
Q 909 3875 1497 4659 
L 1900 4659 
Q 1522 4009 1400 3731 
Q 1209 3300 1100 2831 
Q 966 2247 966 1656 
Q 966 153 1900 -1347 
L 1497 -1347 
z
" transform="scale(0.015625)"/>
       <path id="ArialMT-4d" d="M 475 0 
L 475 4581 
L 1388 4581 
L 2472 1338 
Q 2622 884 2691 659 
Q 2769 909 2934 1394 
L 4031 4581 
L 4847 4581 
L 4847 0 
L 4263 0 
L 4263 3834 
L 2931 0 
L 2384 0 
L 1059 3900 
L 1059 0 
L 475 0 
z
" transform="scale(0.015625)"/>
       <path id="ArialMT-29" d="M 791 -1347 
L 388 -1347 
Q 1322 153 1322 1656 
Q 1322 2244 1188 2822 
Q 1081 3291 891 3722 
Q 769 4003 388 4659 
L 791 4659 
Q 1378 3875 1659 3084 
Q 1900 2403 1900 1659 
Q 1900 816 1576 28 
Q 1253 -759 791 -1347 
z
" transform="scale(0.015625)"/>
      </defs>
      <use xlink:href="#ArialMT-53"/>
      <use xlink:href="#ArialMT-74" x="66.699219"/>
      <use xlink:href="#ArialMT-72" x="94.482422"/>
      <use xlink:href="#ArialMT-75" x="127.783203"/>
      <use xlink:href="#ArialMT-63" x="183.398438"/>
      <use xlink:href="#ArialMT-74" x="233.398438"/>
      <use xlink:href="#ArialMT-75" x="261.181641"/>
      <use xlink:href="#ArialMT-72" x="316.796875"/>
      <use xlink:href="#ArialMT-61" x="350.097656"/>
      <use xlink:href="#ArialMT-6c" x="405.712891"/>
      <use xlink:href="#ArialMT-20" x="427.929688"/>
      <use xlink:href="#ArialMT-53" x="455.712891"/>
      <use xlink:href="#ArialMT-69" x="522.412109"/>
      <use xlink:href="#ArialMT-6d" x="544.628906"/>
      <use xlink:href="#ArialMT-69" x="627.929688"/>
      <use xlink:href="#ArialMT-6c" x="650.146484"/>
      <use xlink:href="#ArialMT-61" x="672.363281"/>
      <use xlink:href="#ArialMT-72" x="727.978516"/>
      <use xlink:href="#ArialMT-69" x="761.279297"/>
      <use xlink:href="#ArialMT-74" x="783.496094"/>
      <use xlink:href="#ArialMT-79" x="811.279297"/>
      <use xlink:href="#ArialMT-20" x="861.279297"/>
      <use xlink:href="#ArialMT-49" x="889.0625"/>
      <use xlink:href="#ArialMT-6e" x="916.845703"/>
      <use xlink:href="#ArialMT-64" x="972.460938"/>
      <use xlink:href="#ArialMT-65" x="1028.076172"/>
      <use xlink:href="#ArialMT-78" x="1083.691406"/>
      <use xlink:href="#ArialMT-20" x="1133.691406"/>
      <use xlink:href="#ArialMT-28" x="1161.474609"/>
      <use xlink:href="#ArialMT-53" x="1194.775391"/>
      <use xlink:href="#ArialMT-53" x="1261.474609"/>
      <use xlink:href="#ArialMT-49" x="1328.173828"/>
      <use xlink:href="#ArialMT-4d" x="1355.957031"/>
      <use xlink:href="#ArialMT-29" x="1439.257812"/>
     </g>
    </g>
   </g>
   <g id="PolyCollection_1"/>
   <g id="line2d_15">
    <path d="M 97.793182 291.946364 
L 102.243926 238.670624 
L 106.694669 217.027355 
L 111.145413 209.951671 
L 115.596157 200.794904 
L 120.046901 191.638136 
L 124.497645 187.753447 
L 128.948388 164.58405 
L 133.399132 163.335399 
L 137.849876 177.070551 
L 142.30062 172.630906 
L 146.751364 187.198491 
L 151.202107 189.695791 
L 155.652851 179.151635 
L 160.103595 185.117407 
L 164.554339 183.730018 
L 169.005083 184.146235 
L 173.455826 185.811102 
L 177.90657 186.504796 
L 182.357314 182.065152 
L 186.808058 167.220089 
L 191.258802 169.57865 
L 195.709545 174.850728 
L 200.160289 179.567851 
L 204.611033 179.151635 
L 209.061777 192.609308 
L 213.512521 200.794904 
L 217.963264 210.09041 
L 222.414008 222.854389 
L 226.864752 223.409345 
L 231.315496 248.937303 
L 235.76624 219.524656 
L 240.216983 211.33906 
L 244.667727 199.96247 
L 249.118471 196.493998 
L 253.569215 196.771475 
L 258.019959 200.794904 
L 262.470702 218.414744 
L 266.921446 230.34629 
L 271.37219 232.288635 
L 275.822934 248.521087 
L 280.273678 250.047215 
L 284.724421 232.427374 
L 289.175165 206.621938 
L 293.625909 192.470569 
L 298.076653 178.041723 
L 302.527397 150.432681 
L 306.97814 147.380425 
L 311.428884 143.356997 
L 315.879628 132.396624 
L 320.330372 219.524656 
L 324.781116 212.448972 
L 329.23186 189.279575 
L 333.682603 209.396716 
L 338.133347 228.126468 
L 342.584091 196.493998 
L 347.034835 130.454279 
L 351.485579 112.834438 
L 355.936322 108.117316 
L 360.387066 96.740725 
L 364.83781 118.93895 
L 369.288554 88.138913 
L 373.739298 88.832608 
L 378.190041 79.953318 
L 382.640785 85.364135 
L 387.091529 86.751524 
L 391.542273 96.740725 
L 395.993017 137.391224 
L 400.44376 136.281313 
L 404.894504 143.773214 
L 409.345248 120.742556 
L 413.795992 117.412822 
L 418.246736 102.012804 
L 422.697479 120.1876 
L 427.148223 108.256054 
L 431.598967 110.892094 
L 436.049711 128.789412 
L 440.500455 128.234457 
L 444.951198 117.967778 
L 449.401942 133.229057 
L 453.852686 131.425451 
L 458.30343 144.189431 
L 462.754174 115.470478 
L 467.204917 126.153373 
L 471.655661 131.286713 
L 476.106405 129.899324 
L 480.557149 132.951579 
L 485.007893 140.720958 
L 489.458636 144.605647 
L 493.90938 107.56236 
L 498.360124 83.976746 
L 502.810868 68.992945 
L 507.261612 65.80195 
L 511.712355 45.962287 
L 516.163099 44.713636 
L 520.613843 59.003743 
L 525.064587 68.437989 
L 529.515331 99.515504 
L 533.966074 121.297511 
L 538.416818 113.389394 
" clip-path="url(#p02d8795c29)" style="fill: none; stroke: #4c72b0; stroke-width: 2; stroke-linecap: round"/>
   </g>
   <g id="patch_3">
    <path d="M 75.762 304.308 
L 75.762 32.352 
" style="fill: none; stroke: #cccccc; stroke-width: 1.25; stroke-linejoin: miter; stroke-linecap: square"/>
   </g>
   <g id="patch_4">
    <path d="M 560.448 304.308 
L 560.448 32.352 
" style="fill: none; stroke: #cccccc; stroke-width: 1.25; stroke-linejoin: miter; stroke-linecap: square"/>
   </g>
   <g id="patch_5">
    <path d="M 75.762 304.308 
L 560.448 304.308 
" style="fill: none; stroke: #cccccc; stroke-width: 1.25; stroke-linejoin: miter; stroke-linecap: square"/>
   </g>
   <g id="patch_6">
    <path d="M 75.762 32.352 
L 560.448 32.352 
" style="fill: none; stroke: #cccccc; stroke-width: 1.25; stroke-linejoin: miter; stroke-linecap: square"/>
   </g>
   <g id="text_17">
    <!-- Structural Similarity Index (SSIM) vs Step -->
    <g style="fill: #262626" transform="translate(186.073875 26.352) scale(0.144 -0.144)">
     <defs>
      <path id="ArialMT-76" d="M 1344 0 
L 81 3319 
L 675 3319 
L 1388 1331 
Q 1503 1009 1600 663 
Q 1675 925 1809 1294 
L 2547 3319 
L 3125 3319 
L 1869 0 
L 1344 0 
z
" transform="scale(0.015625)"/>
      <path id="ArialMT-73" d="M 197 991 
L 753 1078 
Q 800 744 1014 566 
Q 1228 388 1613 388 
Q 2000 388 2187 545 
Q 2375 703 2375 916 
Q 2375 1106 2209 1216 
Q 2094 1291 1634 1406 
Q 1016 1563 777 1677 
Q 538 1791 414 1992 
Q 291 2194 291 2438 
Q 291 2659 392 2848 
Q 494 3038 669 3163 
Q 800 3259 1026 3326 
Q 1253 3394 1513 3394 
Q 1903 3394 2198 3281 
Q 2494 3169 2634 2976 
Q 2775 2784 2828 2463 
L 2278 2388 
Q 2241 2644 2061 2787 
Q 1881 2931 1553 2931 
Q 1166 2931 1000 2803 
Q 834 2675 834 2503 
Q 834 2394 903 2306 
Q 972 2216 1119 2156 
Q 1203 2125 1616 2013 
Q 2213 1853 2448 1751 
Q 2684 1650 2818 1456 
Q 2953 1263 2953 975 
Q 2953 694 2789 445 
Q 2625 197 2315 61 
Q 2006 -75 1616 -75 
Q 969 -75 630 194 
Q 291 463 197 991 
z
" transform="scale(0.015625)"/>
     </defs>
     <use xlink:href="#ArialMT-53"/>
     <use xlink:href="#ArialMT-74" x="66.699219"/>
     <use xlink:href="#ArialMT-72" x="94.482422"/>
     <use xlink:href="#ArialMT-75" x="127.783203"/>
     <use xlink:href="#ArialMT-63" x="183.398438"/>
     <use xlink:href="#ArialMT-74" x="233.398438"/>
     <use xlink:href="#ArialMT-75" x="261.181641"/>
     <use xlink:href="#ArialMT-72" x="316.796875"/>
     <use xlink:href="#ArialMT-61" x="350.097656"/>
     <use xlink:href="#ArialMT-6c" x="405.712891"/>
     <use xlink:href="#ArialMT-20" x="427.929688"/>
     <use xlink:href="#ArialMT-53" x="455.712891"/>
     <use xlink:href="#ArialMT-69" x="522.412109"/>
     <use xlink:href="#ArialMT-6d" x="544.628906"/>
     <use xlink:href="#ArialMT-69" x="627.929688"/>
     <use xlink:href="#ArialMT-6c" x="650.146484"/>
     <use xlink:href="#ArialMT-61" x="672.363281"/>
     <use xlink:href="#ArialMT-72" x="727.978516"/>
     <use xlink:href="#ArialMT-69" x="761.279297"/>
     <use xlink:href="#ArialMT-74" x="783.496094"/>
     <use xlink:href="#ArialMT-79" x="811.279297"/>
     <use xlink:href="#ArialMT-20" x="861.279297"/>
     <use xlink:href="#ArialMT-49" x="889.0625"/>
     <use xlink:href="#ArialMT-6e" x="916.845703"/>
     <use xlink:href="#ArialMT-64" x="972.460938"/>
     <use xlink:href="#ArialMT-65" x="1028.076172"/>
     <use xlink:href="#ArialMT-78" x="1083.691406"/>
     <use xlink:href="#ArialMT-20" x="1133.691406"/>
     <use xlink:href="#ArialMT-28" x="1161.474609"/>
     <use xlink:href="#ArialMT-53" x="1194.775391"/>
     <use xlink:href="#ArialMT-53" x="1261.474609"/>
     <use xlink:href="#ArialMT-49" x="1328.173828"/>
     <use xlink:href="#ArialMT-4d" x="1355.957031"/>
     <use xlink:href="#ArialMT-29" x="1439.257812"/>
     <use xlink:href="#ArialMT-20" x="1472.558594"/>
     <use xlink:href="#ArialMT-76" x="1500.341797"/>
     <use xlink:href="#ArialMT-73" x="1550.341797"/>
     <use xlink:href="#ArialMT-20" x="1600.341797"/>
     <use xlink:href="#ArialMT-53" x="1628.125"/>
     <use xlink:href="#ArialMT-74" x="1694.824219"/>
     <use xlink:href="#ArialMT-65" x="1722.607422"/>
     <use xlink:href="#ArialMT-70" x="1778.222656"/>
    </g>
   </g>
  </g>
 </g>
 <defs>
  <clipPath id="p02d8795c29">
   <rect x="75.762" y="32.352" width="484.686" height="271.956"/>
  </clipPath>
 </defs>
</svg>
