<?xml version="1.0" encoding="utf-8" standalone="no"?>
<!DOCTYPE svg PUBLIC "-//W3C//DTD SVG 1.1//EN"
  "http://www.w3.org/Graphics/SVG/1.1/DTD/svg11.dtd">
<svg xmlns:xlink="http://www.w3.org/1999/xlink" width="720pt" height="576pt" viewBox="0 0 720 576" xmlns="http://www.w3.org/2000/svg" version="1.1">
 <metadata>
  <rdf:RDF xmlns:dc="http://purl.org/dc/elements/1.1/" xmlns:cc="http://creativecommons.org/ns#" xmlns:rdf="http://www.w3.org/1999/02/22-rdf-syntax-ns#">
   <cc:Work>
    <dc:type rdf:resource="http://purl.org/dc/dcmitype/StillImage"/>
    <dc:date>2025-04-24T19:34:16.653411</dc:date>
    <dc:format>image/svg+xml</dc:format>
    <dc:creator>
     <cc:Agent>
      <dc:title>Matplotlib v3.9.2, https://matplotlib.org/</dc:title>
     </cc:Agent>
    </dc:creator>
   </cc:Work>
  </rdf:RDF>
 </metadata>
 <defs>
  <style type="text/css">*{stroke-linejoin: round; stroke-linecap: butt}</style>
 </defs>
 <g id="figure_1">
  <g id="patch_1">
   <path d="M 0 576 
L 720 576 
L 720 0 
L 0 0 
z
" style="fill: #ffffff"/>
  </g>
  <g id="axes_1">
   <g id="patch_2">
    <path d="M 99.405899 495.840956 
L 694.08 495.840956 
L 694.08 49.831226 
L 99.405899 49.831226 
z
" style="fill: #ffffff"/>
   </g>
   <g id="matplotlib.axis_1">
    <g id="xtick_1">
     <g id="line2d_1">
      <path d="M 126.43654 495.840956 
L 126.43654 49.831226 
" clip-path="url(#p30db72b827)" style="fill: none; stroke: #cccccc; stroke-linecap: round"/>
     </g>
     <g id="text_1">
      <!-- $\mathdefault{0}$ -->
      <g style="fill: #262626" transform="translate(121.410587 520.56165) scale(0.22 -0.22)">
       <defs>
        <path id="CMR17-30" d="M 2688 2025 
C 2688 2416 2682 3080 2413 3591 
C 2176 4039 1798 4198 1466 4198 
C 1158 4198 768 4058 525 3597 
C 269 3118 243 2524 243 2025 
C 243 1661 250 1106 448 619 
C 723 -39 1216 -128 1466 -128 
C 1760 -128 2208 -7 2470 600 
C 2662 1042 2688 1559 2688 2025 
z
M 1466 -26 
C 1056 -26 813 325 723 812 
C 653 1188 653 1738 653 2096 
C 653 2588 653 2997 736 3387 
C 858 3929 1216 4096 1466 4096 
C 1728 4096 2067 3923 2189 3400 
C 2272 3036 2278 2607 2278 2096 
C 2278 1680 2278 1169 2202 792 
C 2067 95 1690 -26 1466 -26 
z
" transform="scale(0.015625)"/>
       </defs>
       <use xlink:href="#CMR17-30" transform="scale(0.996264)"/>
      </g>
     </g>
    </g>
    <g id="xtick_2">
     <g id="line2d_2">
      <path d="M 235.651251 495.840956 
L 235.651251 49.831226 
" clip-path="url(#p30db72b827)" style="fill: none; stroke: #cccccc; stroke-linecap: round"/>
     </g>
     <g id="text_2">
      <!-- $\mathdefault{200}$ -->
      <g style="fill: #262626" transform="translate(220.573393 520.56165) scale(0.22 -0.22)">
       <defs>
        <path id="CMR17-32" d="M 2669 989 
L 2554 989 
C 2490 536 2438 459 2413 420 
C 2381 369 1920 369 1830 369 
L 602 369 
C 832 619 1280 1072 1824 1597 
C 2214 1967 2669 2402 2669 3035 
C 2669 3790 2067 4224 1395 4224 
C 691 4224 262 3604 262 3030 
C 262 2780 448 2748 525 2748 
C 589 2748 781 2787 781 3010 
C 781 3207 614 3264 525 3264 
C 486 3264 448 3258 422 3245 
C 544 3790 915 4058 1306 4058 
C 1862 4058 2227 3617 2227 3035 
C 2227 2479 1901 2000 1536 1584 
L 262 146 
L 262 0 
L 2515 0 
L 2669 989 
z
" transform="scale(0.015625)"/>
       </defs>
       <use xlink:href="#CMR17-32" transform="scale(0.996264)"/>
       <use xlink:href="#CMR17-30" transform="translate(45.690477 0) scale(0.996264)"/>
       <use xlink:href="#CMR17-30" transform="translate(91.380954 0) scale(0.996264)"/>
      </g>
     </g>
    </g>
    <g id="xtick_3">
     <g id="line2d_3">
      <path d="M 344.865962 495.840956 
L 344.865962 49.831226 
" clip-path="url(#p30db72b827)" style="fill: none; stroke: #cccccc; stroke-linecap: round"/>
     </g>
     <g id="text_3">
      <!-- $\mathdefault{400}$ -->
      <g style="fill: #262626" transform="translate(329.788104 520.56165) scale(0.22 -0.22)">
       <defs>
        <path id="CMR17-34" d="M 2150 4122 
C 2150 4256 2144 4256 2029 4256 
L 128 1254 
L 128 1088 
L 1779 1088 
L 1779 457 
C 1779 224 1766 160 1318 160 
L 1197 160 
L 1197 0 
C 1402 0 1747 0 1965 0 
C 2182 0 2528 0 2733 0 
L 2733 160 
L 2611 160 
C 2163 160 2150 224 2150 457 
L 2150 1088 
L 2803 1088 
L 2803 1254 
L 2150 1254 
L 2150 4122 
z
M 1798 3703 
L 1798 1254 
L 256 1254 
L 1798 3703 
z
" transform="scale(0.015625)"/>
       </defs>
       <use xlink:href="#CMR17-34" transform="scale(0.996264)"/>
       <use xlink:href="#CMR17-30" transform="translate(45.690477 0) scale(0.996264)"/>
       <use xlink:href="#CMR17-30" transform="translate(91.380954 0) scale(0.996264)"/>
      </g>
     </g>
    </g>
    <g id="xtick_4">
     <g id="line2d_4">
      <path d="M 454.080673 495.840956 
L 454.080673 49.831226 
" clip-path="url(#p30db72b827)" style="fill: none; stroke: #cccccc; stroke-linecap: round"/>
     </g>
     <g id="text_4">
      <!-- $\mathdefault{600}$ -->
      <g style="fill: #262626" transform="translate(439.002815 520.56165) scale(0.22 -0.22)">
       <defs>
        <path id="CMR17-36" d="M 678 2176 
C 678 3690 1395 4032 1811 4032 
C 1946 4032 2272 4009 2400 3776 
C 2298 3776 2106 3776 2106 3553 
C 2106 3381 2246 3323 2336 3323 
C 2394 3323 2566 3348 2566 3560 
C 2566 3954 2246 4179 1805 4179 
C 1043 4179 243 3390 243 1984 
C 243 253 966 -128 1478 -128 
C 2099 -128 2688 427 2688 1283 
C 2688 2081 2170 2662 1517 2662 
C 1126 2662 838 2407 678 1960 
L 678 2176 
z
M 1478 25 
C 691 25 691 1200 691 1436 
C 691 1896 909 2560 1504 2560 
C 1613 2560 1926 2560 2138 2120 
C 2253 1870 2253 1609 2253 1289 
C 2253 944 2253 690 2118 434 
C 1978 171 1773 25 1478 25 
z
" transform="scale(0.015625)"/>
       </defs>
       <use xlink:href="#CMR17-36" transform="scale(0.996264)"/>
       <use xlink:href="#CMR17-30" transform="translate(45.690477 0) scale(0.996264)"/>
       <use xlink:href="#CMR17-30" transform="translate(91.380954 0) scale(0.996264)"/>
      </g>
     </g>
    </g>
    <g id="xtick_5">
     <g id="line2d_5">
      <path d="M 563.295384 495.840956 
L 563.295384 49.831226 
" clip-path="url(#p30db72b827)" style="fill: none; stroke: #cccccc; stroke-linecap: round"/>
     </g>
     <g id="text_5">
      <!-- $\mathdefault{800}$ -->
      <g style="fill: #262626" transform="translate(548.217526 520.56165) scale(0.22 -0.22)">
       <defs>
        <path id="CMR17-38" d="M 1741 2264 
C 2144 2467 2554 2773 2554 3263 
C 2554 3841 1990 4179 1472 4179 
C 890 4179 378 3759 378 3180 
C 378 3021 416 2747 666 2505 
C 730 2442 998 2251 1171 2130 
C 883 1983 211 1634 211 934 
C 211 279 838 -128 1459 -128 
C 2144 -128 2720 362 2720 1010 
C 2720 1590 2330 1857 2074 2029 
L 1741 2264 
z
M 902 2822 
C 851 2854 595 3051 595 3351 
C 595 3739 998 4032 1459 4032 
C 1965 4032 2336 3676 2336 3262 
C 2336 2669 1670 2331 1638 2331 
C 1632 2331 1626 2331 1574 2370 
L 902 2822 
z
M 2080 1519 
C 2176 1449 2483 1240 2483 851 
C 2483 381 2010 25 1472 25 
C 890 25 448 438 448 940 
C 448 1443 838 1862 1280 2060 
L 2080 1519 
z
" transform="scale(0.015625)"/>
       </defs>
       <use xlink:href="#CMR17-38" transform="scale(0.996264)"/>
       <use xlink:href="#CMR17-30" transform="translate(45.690477 0) scale(0.996264)"/>
       <use xlink:href="#CMR17-30" transform="translate(91.380954 0) scale(0.996264)"/>
      </g>
     </g>
    </g>
    <g id="xtick_6">
     <g id="line2d_6">
      <path d="M 672.510095 495.840956 
L 672.510095 49.831226 
" clip-path="url(#p30db72b827)" style="fill: none; stroke: #cccccc; stroke-linecap: round"/>
     </g>
     <g id="text_6">
      <!-- $\mathdefault{1000}$ -->
      <g style="fill: #262626" transform="translate(652.406285 520.56165) scale(0.22 -0.22)">
       <defs>
        <path id="CMR17-31" d="M 1702 4058 
C 1702 4192 1696 4192 1606 4192 
C 1357 3916 979 3827 621 3827 
C 602 3827 570 3827 563 3808 
C 557 3795 557 3782 557 3648 
C 755 3648 1088 3686 1344 3839 
L 1344 461 
C 1344 236 1331 160 781 160 
L 589 160 
L 589 0 
C 896 0 1216 0 1523 0 
C 1830 0 2150 0 2458 0 
L 2458 160 
L 2266 160 
C 1715 160 1702 230 1702 458 
L 1702 4058 
z
" transform="scale(0.015625)"/>
       </defs>
       <use xlink:href="#CMR17-31" transform="scale(0.996264)"/>
       <use xlink:href="#CMR17-30" transform="translate(45.690477 0) scale(0.996264)"/>
       <use xlink:href="#CMR17-30" transform="translate(91.380954 0) scale(0.996264)"/>
       <use xlink:href="#CMR17-30" transform="translate(137.071431 0) scale(0.996264)"/>
      </g>
     </g>
    </g>
    <g id="text_7">
     <!-- Step -->
     <g style="fill: #262626" transform="translate(375.656093 545.429243) scale(0.24 -0.24)">
      <defs>
       <path id="CMSS17-53" d="M 2797 4169 
C 2515 4334 2208 4480 1690 4480 
C 864 4480 333 3879 333 3266 
C 333 3025 403 2753 653 2475 
C 902 2196 1184 2121 1542 2033 
C 1690 1994 1939 1924 1984 1906 
C 2342 1767 2515 1444 2515 1140 
C 2515 742 2202 318 1645 318 
C 1453 318 890 318 358 819 
L 269 318 
C 794 -64 1363 -128 1651 -128 
C 2438 -128 3002 488 3002 1186 
C 3002 1440 2925 1763 2656 2061 
C 2394 2347 2163 2410 1638 2549 
C 1338 2626 1146 2677 986 2873 
C 877 3013 819 3146 819 3317 
C 819 3673 1126 4060 1690 4060 
C 1971 4060 2336 4002 2707 3660 
L 2797 4169 
z
" transform="scale(0.015625)"/>
       <path id="CMSS17-74" d="M 1069 2368 
L 1901 2368 
L 1901 2737 
L 1069 2737 
L 1069 3520 
L 614 3520 
L 614 2737 
L 109 2737 
L 109 2368 
L 602 2368 
L 602 749 
C 602 384 685 -64 1107 -64 
C 1427 -64 1722 25 2003 172 
L 1901 548 
C 1747 414 1562 337 1363 337 
C 1082 337 1069 696 1069 856 
L 1069 2368 
z
" transform="scale(0.015625)"/>
       <path id="CMSS17-65" d="M 2502 1377 
C 2502 1590 2490 2003 2285 2345 
C 2061 2713 1696 2816 1421 2816 
C 755 2816 192 2188 192 1375 
C 192 582 774 -64 1510 -64 
C 1798 -64 2150 19 2470 248 
C 2470 274 2458 414 2451 420 
C 2451 433 2432 630 2432 656 
C 2125 407 1773 325 1517 325 
C 1107 325 666 667 646 1377 
L 2502 1377 
z
M 698 1728 
C 781 2084 1062 2421 1421 2421 
C 1517 2421 1965 2421 2080 1728 
L 698 1728 
z
" transform="scale(0.015625)"/>
       <path id="CMSS17-70" d="M 966 333 
C 1178 129 1466 -5 1773 -5 
C 2368 -5 2880 603 2880 1412 
C 2880 2159 2496 2816 1946 2816 
C 1626 2816 1242 2702 954 2472 
L 954 2765 
L 480 2765 
L 480 -1216 
L 966 -1216 
L 966 333 
z
M 966 2100 
C 1018 2176 1235 2415 1587 2415 
C 2035 2415 2394 1960 2394 1412 
C 2394 787 1958 384 1530 384 
C 1402 384 1267 415 1139 523 
C 966 674 966 768 966 857 
L 966 2100 
z
" transform="scale(0.015625)"/>
      </defs>
      <use xlink:href="#CMSS17-53" transform="scale(0.996264)"/>
      <use xlink:href="#CMSS17-74" transform="translate(52.048516 0) scale(0.996264)"/>
      <use xlink:href="#CMSS17-65" transform="translate(85.880083 0) scale(0.996264)"/>
      <use xlink:href="#CMSS17-70" transform="translate(127.518905 0) scale(0.996264)"/>
     </g>
    </g>
   </g>
   <g id="matplotlib.axis_2">
    <g id="ytick_1">
     <g id="line2d_7">
      <path d="M 99.405899 483.294641 
L 694.08 483.294641 
" clip-path="url(#p30db72b827)" style="fill: none; stroke: #cccccc; stroke-linecap: round"/>
     </g>
     <g id="text_8">
      <!-- $\mathdefault{0.05}$ -->
      <g style="fill: #262626" transform="translate(53.788805 490.904987) scale(0.22 -0.22)">
       <defs>
        <path id="CMMI12-3a" d="M 1178 307 
C 1178 492 1024 619 870 619 
C 685 619 557 466 557 313 
C 557 128 710 0 864 0 
C 1050 0 1178 153 1178 307 
z
" transform="scale(0.015625)"/>
        <path id="CMR17-35" d="M 730 3692 
C 794 3666 1056 3584 1325 3584 
C 1920 3584 2246 3911 2432 4100 
C 2432 4157 2432 4192 2394 4192 
C 2387 4192 2374 4192 2323 4163 
C 2099 4058 1837 3973 1517 3973 
C 1325 3973 1037 3999 723 4139 
C 653 4171 640 4171 634 4171 
C 602 4171 595 4164 595 4037 
L 595 2203 
C 595 2089 595 2057 659 2057 
C 691 2057 704 2070 736 2114 
C 941 2401 1222 2522 1542 2522 
C 1766 2522 2246 2382 2246 1289 
C 2246 1085 2246 715 2054 421 
C 1894 159 1645 25 1370 25 
C 947 25 518 320 403 814 
C 429 807 480 795 506 795 
C 589 795 749 840 749 1038 
C 749 1210 627 1280 506 1280 
C 358 1280 262 1190 262 1011 
C 262 454 704 -128 1382 -128 
C 2042 -128 2669 440 2669 1264 
C 2669 2030 2170 2624 1549 2624 
C 1222 2624 947 2503 730 2274 
L 730 3692 
z
" transform="scale(0.015625)"/>
       </defs>
       <use xlink:href="#CMR17-30" transform="scale(0.996264)"/>
       <use xlink:href="#CMMI12-3a" transform="translate(45.690477 0) scale(0.996264)"/>
       <use xlink:href="#CMR17-30" transform="translate(72.787654 0) scale(0.996264)"/>
       <use xlink:href="#CMR17-35" transform="translate(118.478131 0) scale(0.996264)"/>
      </g>
     </g>
    </g>
    <g id="ytick_2">
     <g id="line2d_8">
      <path d="M 99.405899 417.812827 
L 694.08 417.812827 
" clip-path="url(#p30db72b827)" style="fill: none; stroke: #cccccc; stroke-linecap: round"/>
     </g>
     <g id="text_9">
      <!-- $\mathdefault{0.10}$ -->
      <g style="fill: #262626" transform="translate(53.788805 425.423174) scale(0.22 -0.22)">
       <use xlink:href="#CMR17-30" transform="scale(0.996264)"/>
       <use xlink:href="#CMMI12-3a" transform="translate(45.690477 0) scale(0.996264)"/>
       <use xlink:href="#CMR17-31" transform="translate(72.787654 0) scale(0.996264)"/>
       <use xlink:href="#CMR17-30" transform="translate(118.478131 0) scale(0.996264)"/>
      </g>
     </g>
    </g>
    <g id="ytick_3">
     <g id="line2d_9">
      <path d="M 99.405899 352.331013 
L 694.08 352.331013 
" clip-path="url(#p30db72b827)" style="fill: none; stroke: #cccccc; stroke-linecap: round"/>
     </g>
     <g id="text_10">
      <!-- $\mathdefault{0.15}$ -->
      <g style="fill: #262626" transform="translate(53.788805 359.94136) scale(0.22 -0.22)">
       <use xlink:href="#CMR17-30" transform="scale(0.996264)"/>
       <use xlink:href="#CMMI12-3a" transform="translate(45.690477 0) scale(0.996264)"/>
       <use xlink:href="#CMR17-31" transform="translate(72.787654 0) scale(0.996264)"/>
       <use xlink:href="#CMR17-35" transform="translate(118.478131 0) scale(0.996264)"/>
      </g>
     </g>
    </g>
    <g id="ytick_4">
     <g id="line2d_10">
      <path d="M 99.405899 286.849199 
L 694.08 286.849199 
" clip-path="url(#p30db72b827)" style="fill: none; stroke: #cccccc; stroke-linecap: round"/>
     </g>
     <g id="text_11">
      <!-- $\mathdefault{0.20}$ -->
      <g style="fill: #262626" transform="translate(53.788805 294.459546) scale(0.22 -0.22)">
       <use xlink:href="#CMR17-30" transform="scale(0.996264)"/>
       <use xlink:href="#CMMI12-3a" transform="translate(45.690477 0) scale(0.996264)"/>
       <use xlink:href="#CMR17-32" transform="translate(72.787654 0) scale(0.996264)"/>
       <use xlink:href="#CMR17-30" transform="translate(118.478131 0) scale(0.996264)"/>
      </g>
     </g>
    </g>
    <g id="ytick_5">
     <g id="line2d_11">
      <path d="M 99.405899 221.367386 
L 694.08 221.367386 
" clip-path="url(#p30db72b827)" style="fill: none; stroke: #cccccc; stroke-linecap: round"/>
     </g>
     <g id="text_12">
      <!-- $\mathdefault{0.25}$ -->
      <g style="fill: #262626" transform="translate(53.788805 228.977732) scale(0.22 -0.22)">
       <use xlink:href="#CMR17-30" transform="scale(0.996264)"/>
       <use xlink:href="#CMMI12-3a" transform="translate(45.690477 0) scale(0.996264)"/>
       <use xlink:href="#CMR17-32" transform="translate(72.787654 0) scale(0.996264)"/>
       <use xlink:href="#CMR17-35" transform="translate(118.478131 0) scale(0.996264)"/>
      </g>
     </g>
    </g>
    <g id="ytick_6">
     <g id="line2d_12">
      <path d="M 99.405899 155.885572 
L 694.08 155.885572 
" clip-path="url(#p30db72b827)" style="fill: none; stroke: #cccccc; stroke-linecap: round"/>
     </g>
     <g id="text_13">
      <!-- $\mathdefault{0.30}$ -->
      <g style="fill: #262626" transform="translate(53.788805 163.495919) scale(0.22 -0.22)">
       <defs>
        <path id="CMR17-33" d="M 1414 2157 
C 1984 2157 2234 1662 2234 1090 
C 2234 320 1824 25 1453 25 
C 1114 25 563 194 390 693 
C 422 680 454 680 486 680 
C 640 680 755 782 755 948 
C 755 1133 614 1216 486 1216 
C 378 1216 211 1165 211 926 
C 211 335 787 -128 1466 -128 
C 2176 -128 2720 430 2720 1085 
C 2720 1707 2208 2157 1600 2227 
C 2086 2328 2554 2756 2554 3329 
C 2554 3820 2048 4179 1472 4179 
C 890 4179 378 3829 378 3329 
C 378 3110 544 3072 627 3072 
C 762 3072 877 3155 877 3321 
C 877 3486 762 3569 627 3569 
C 602 3569 570 3569 544 3557 
C 730 3959 1235 4032 1459 4032 
C 1683 4032 2106 3925 2106 3320 
C 2106 3143 2080 2828 1862 2550 
C 1670 2304 1453 2304 1242 2284 
C 1210 2284 1062 2269 1037 2269 
C 992 2263 966 2257 966 2208 
C 966 2163 973 2157 1101 2157 
L 1414 2157 
z
" transform="scale(0.015625)"/>
       </defs>
       <use xlink:href="#CMR17-30" transform="scale(0.996264)"/>
       <use xlink:href="#CMMI12-3a" transform="translate(45.690477 0) scale(0.996264)"/>
       <use xlink:href="#CMR17-33" transform="translate(72.787654 0) scale(0.996264)"/>
       <use xlink:href="#CMR17-30" transform="translate(118.478131 0) scale(0.996264)"/>
      </g>
     </g>
    </g>
    <g id="ytick_7">
     <g id="line2d_13">
      <path d="M 99.405899 90.403758 
L 694.08 90.403758 
" clip-path="url(#p30db72b827)" style="fill: none; stroke: #cccccc; stroke-linecap: round"/>
     </g>
     <g id="text_14">
      <!-- $\mathdefault{0.35}$ -->
      <g style="fill: #262626" transform="translate(53.788805 98.014105) scale(0.22 -0.22)">
       <use xlink:href="#CMR17-30" transform="scale(0.996264)"/>
       <use xlink:href="#CMMI12-3a" transform="translate(45.690477 0) scale(0.996264)"/>
       <use xlink:href="#CMR17-33" transform="translate(72.787654 0) scale(0.996264)"/>
       <use xlink:href="#CMR17-35" transform="translate(118.478131 0) scale(0.996264)"/>
      </g>
     </g>
    </g>
    <g id="text_15">
     <!-- Mean Squared Error (MSE) -->
     <g style="fill: #262626" transform="translate(43.831226 402.556914) rotate(-90) scale(0.24 -0.24)">
      <defs>
       <path id="CMSS17-4d" d="M 3194 2371 
L 2886 1473 
C 2835 1307 2662 791 2624 587 
L 2618 587 
C 2598 715 2560 849 2458 1174 
C 2400 1365 2336 1562 2272 1741 
L 1325 4416 
L 576 4416 
L 576 0 
L 1075 0 
L 1075 3900 
L 1082 3900 
C 1082 3894 1139 3613 1530 2499 
L 2374 96 
L 2848 96 
L 3610 2231 
C 3661 2378 3821 2843 3891 3066 
C 3955 3257 4115 3728 4154 3913 
L 4160 3913 
L 4160 0 
L 4666 0 
L 4666 4416 
L 3923 4416 
L 3194 2371 
z
" transform="scale(0.015625)"/>
       <path id="CMSS17-61" d="M 2406 1791 
C 2406 2392 1978 2808 1402 2808 
C 1120 2808 813 2757 461 2553 
L 499 2135 
C 659 2248 934 2432 1395 2432 
C 1722 2432 1920 2180 1920 1782 
L 1920 1536 
C 896 1536 256 1238 256 726 
C 256 461 416 -64 947 -64 
C 1043 -64 1562 -64 1933 217 
L 1933 -19 
L 2406 -19 
L 2406 1791 
z
M 1920 816 
C 1920 701 1920 548 1728 434 
C 1562 325 1350 325 1261 325 
C 941 325 723 511 723 744 
C 723 1211 1722 1211 1920 1211 
L 1920 816 
z
" transform="scale(0.015625)"/>
       <path id="CMSS17-6e" d="M 2618 1877 
C 2618 2283 2522 2816 1798 2816 
C 1389 2816 1120 2606 941 2389 
L 941 2758 
L 474 2758 
L 474 0 
L 960 0 
L 960 1559 
C 960 1964 1114 2428 1549 2428 
C 2112 2428 2131 2048 2131 1829 
L 2131 0 
L 2618 0 
L 2618 1877 
z
" transform="scale(0.015625)"/>
       <path id="CMSS17-71" d="M 2611 2816 
L 2138 2816 
L 2138 2428 
C 2112 2460 1818 2816 1318 2816 
C 736 2816 211 2228 211 1399 
C 211 633 653 -5 1229 -5 
C 1498 -5 1837 91 2125 365 
L 2125 -1216 
L 2611 -1216 
L 2611 2816 
z
M 2138 914 
C 2138 832 2138 718 1939 554 
C 1888 510 1747 384 1504 384 
C 1050 384 698 850 698 1399 
C 698 2011 1126 2415 1562 2415 
C 1926 2415 2138 2061 2138 1797 
L 2138 914 
z
" transform="scale(0.015625)"/>
       <path id="CMSS17-75" d="M 2618 2739 
L 2131 2739 
L 2131 972 
C 2131 498 1786 306 1421 306 
C 998 306 960 447 960 709 
L 960 2739 
L 474 2739 
L 474 678 
C 474 179 646 -64 1088 -64 
C 1306 -64 1798 -13 2144 306 
L 2144 0 
L 2618 0 
L 2618 2739 
z
" transform="scale(0.015625)"/>
       <path id="CMSS17-72" d="M 954 1363 
C 954 1965 1395 2368 1958 2368 
L 1958 2789 
C 1549 2789 1165 2585 934 2253 
L 934 2758 
L 480 2758 
L 480 0 
L 954 0 
L 954 1363 
z
" transform="scale(0.015625)"/>
       <path id="CMSS17-64" d="M 2611 4416 
L 2138 4416 
L 2138 2438 
C 1939 2603 1613 2756 1254 2756 
C 672 2756 211 2131 211 1347 
C 211 562 666 -64 1235 -64 
C 1677 -64 1971 172 2125 306 
L 2125 -13 
L 2611 -13 
L 2611 4416 
z
M 2125 836 
C 2125 747 2125 653 1926 482 
C 1798 375 1645 325 1498 325 
C 1152 325 698 576 698 1340 
C 698 2134 1210 2368 1562 2368 
C 1798 2368 1990 2254 2125 2065 
L 2125 836 
z
" transform="scale(0.015625)"/>
       <path id="CMSS17-45" d="M 1958 433 
C 1446 433 1216 433 1101 433 
L 1101 2107 
L 3085 2107 
L 3085 2496 
L 1101 2496 
L 1101 4009 
L 1926 4009 
C 2003 4009 2080 4009 2157 4009 
L 3251 4009 
L 3251 4416 
L 563 4416 
L 563 0 
L 3334 0 
L 3334 433 
L 1958 433 
z
" transform="scale(0.015625)"/>
       <path id="CMSS17-6f" d="M 2829 1356 
C 2829 2176 2221 2816 1504 2816 
C 768 2816 173 2157 173 1356 
C 173 544 787 -64 1498 -64 
C 2227 -64 2829 563 2829 1356 
z
M 1504 337 
C 1050 337 659 709 659 1408 
C 659 2151 1114 2427 1498 2427 
C 1914 2427 2342 2126 2342 1408 
C 2342 683 1926 337 1504 337 
z
" transform="scale(0.015625)"/>
       <path id="CMSS17-28" d="M 1613 4768 
C 1267 4417 474 3601 474 1588 
C 474 -433 1267 -1243 1613 -1600 
L 2003 -1600 
C 1216 -784 960 357 960 1581 
C 960 2798 1203 3946 2003 4768 
L 1613 4768 
z
" transform="scale(0.015625)"/>
       <path id="CMSS17-29" d="M 723 -1600 
C 1069 -1249 1862 -433 1862 1581 
C 1862 3601 1069 4411 723 4768 
L 333 4768 
C 1120 3952 1376 2811 1376 1588 
C 1376 370 1133 -778 333 -1600 
L 723 -1600 
z
" transform="scale(0.015625)"/>
      </defs>
      <use xlink:href="#CMSS17-4d" transform="scale(0.996264)"/>
      <use xlink:href="#CMSS17-65" transform="translate(81.67603 0) scale(0.996264)"/>
      <use xlink:href="#CMSS17-61" transform="translate(123.314852 0) scale(0.996264)"/>
      <use xlink:href="#CMSS17-6e" transform="translate(168.236773 0) scale(0.996264)"/>
      <use xlink:href="#CMSS17-53" transform="translate(247.670829 0) scale(0.996264)"/>
      <use xlink:href="#CMSS17-71" transform="translate(299.719345 0) scale(0.996264)"/>
      <use xlink:href="#CMSS17-75" transform="translate(347.924288 0) scale(0.996264)"/>
      <use xlink:href="#CMSS17-61" transform="translate(396.129231 0) scale(0.996264)"/>
      <use xlink:href="#CMSS17-72" transform="translate(438.448698 0) scale(0.996264)"/>
      <use xlink:href="#CMSS17-65" transform="translate(470.35847 0) scale(0.996264)"/>
      <use xlink:href="#CMSS17-64" transform="translate(511.997292 0) scale(0.996264)"/>
      <use xlink:href="#CMSS17-45" transform="translate(591.431348 0) scale(0.996264)"/>
      <use xlink:href="#CMSS17-72" transform="translate(647.323361 0) scale(0.996264)"/>
      <use xlink:href="#CMSS17-72" transform="translate(679.233134 0) scale(0.996264)"/>
      <use xlink:href="#CMSS17-6f" transform="translate(711.142906 0) scale(0.996264)"/>
      <use xlink:href="#CMSS17-72" transform="translate(755.384076 0) scale(0.996264)"/>
      <use xlink:href="#CMSS17-28" transform="translate(818.522961 0) scale(0.996264)"/>
      <use xlink:href="#CMSS17-4d" transform="translate(854.956876 0) scale(0.996264)"/>
      <use xlink:href="#CMSS17-53" transform="translate(936.632906 0) scale(0.996264)"/>
      <use xlink:href="#CMSS17-45" transform="translate(988.681422 0) scale(0.996264)"/>
      <use xlink:href="#CMSS17-29" transform="translate(1044.573435 0) scale(0.996264)"/>
     </g>
    </g>
   </g>
   <g id="PolyCollection_1">
    <defs>
     <path id="ma362916f31" d="M 126.43654 -182.415444 
L 126.43654 -173.117027 
L 131.897275 -168.795227 
L 137.358011 -168.140409 
L 142.818746 -166.830772 
L 148.279482 -164.342464 
L 153.740218 -164.473427 
L 159.200953 -162.508973 
L 164.661689 -162.247045 
L 170.122424 -162.508973 
L 175.58316 -161.985118 
L 181.043895 -161.985118 
L 186.504631 -161.723191 
L 191.965366 -161.592227 
L 197.426102 -161.3303 
L 202.886837 -160.544518 
L 208.347573 -160.544518 
L 213.808309 -159.103918 
L 219.269044 -148.888755 
L 224.72978 -150.198392 
L 230.190515 -148.888755 
L 235.651251 -148.495865 
L 241.111986 -148.495865 
L 246.572722 -152.29381 
L 252.033457 -149.936464 
L 257.494193 -151.508028 
L 262.954928 -155.436937 
L 268.415664 -162.508973 
L 273.8764 -164.342464 
L 279.337135 -161.592227 
L 284.797871 -160.675482 
L 290.258606 -160.282591 
L 295.719342 -160.151627 
L 301.180077 -160.151627 
L 306.640813 -160.151627 
L 312.101548 -160.282591 
L 317.562284 -160.282591 
L 323.02302 -160.151627 
L 328.483755 -160.151627 
L 333.944491 -160.413555 
L 339.405226 -160.413555 
L 344.865962 -160.151627 
L 350.326697 -161.461264 
L 355.787433 -162.901864 
L 361.248168 -155.436937 
L 366.708904 -150.329355 
L 372.169639 -150.067428 
L 377.630375 -147.841046 
L 383.091111 -147.841046 
L 388.551846 -147.97201 
L 394.012582 -151.900919 
L 399.473317 -466.475552 
L 404.934053 -462.153752 
L 410.394788 -462.546643 
L 415.855524 -459.010625 
L 421.316259 -432.032118 
L 426.776995 -426.531646 
L 432.23773 -422.34081 
L 437.698466 -422.733701 
L 443.159202 -422.34081 
L 448.619937 -417.888046 
L 454.080673 -390.385685 
L 459.541408 -391.040503 
L 465.002144 -401.124702 
L 470.462879 -380.039558 
L 475.923615 -393.266884 
L 481.38435 -393.135921 
L 486.845086 -388.814121 
L 492.305822 -388.290267 
L 497.766557 -388.42123 
L 503.227293 -377.551249 
L 508.688028 -365.240668 
L 514.148764 -367.46705 
L 519.609499 -355.156469 
L 525.070235 -337.345415 
L 530.53097 -334.857107 
L 535.991706 -333.285543 
L 541.452441 -332.761688 
L 546.913177 -332.10687 
L 552.373913 -331.975907 
L 557.834648 -331.059161 
L 563.295384 -331.190125 
L 568.756119 -341.929142 
L 574.216855 -352.013342 
L 579.67759 -335.511925 
L 585.138326 -300.544636 
L 590.599061 -299.496927 
L 596.059797 -263.089039 
L 601.520532 -255.100257 
L 606.981268 -254.445439 
L 612.442004 -251.302312 
L 617.902739 -248.159185 
L 623.363475 -249.599785 
L 628.82421 -251.171349 
L 634.284946 -259.945912 
L 639.745681 -264.660602 
L 645.206417 -246.718585 
L 650.667152 -249.206894 
L 656.127888 -250.254603 
L 661.588623 -279.852383 
L 667.049359 -285.090928 
L 667.049359 -398.243502 
L 667.049359 -398.243502 
L 661.588623 -389.86183 
L 656.127888 -390.254721 
L 650.667152 -391.433394 
L 645.206417 -389.992794 
L 639.745681 -388.42123 
L 634.284946 -407.54192 
L 628.82421 -405.446502 
L 623.363475 -412.911428 
L 617.902739 -413.435283 
L 612.442004 -430.853445 
L 606.981268 -411.077938 
L 601.520532 -407.934811 
L 596.059797 -412.649501 
L 590.599061 -415.268774 
L 585.138326 -415.923592 
L 579.67759 -416.185519 
L 574.216855 -413.435283 
L 568.756119 -413.435283 
L 563.295384 -437.925481 
L 557.834648 -496.597186 
L 552.373913 -473.154697 
L 546.913177 -474.464333 
L 541.452441 -475.77397 
L 535.991706 -474.33337 
L 530.53097 -490.310932 
L 525.070235 -505.895604 
L 519.609499 -478.393242 
L 514.148764 -478.393242 
L 508.688028 -478.393242 
L 503.227293 -478.393242 
L 497.766557 -478.393242 
L 492.305822 -478.393242 
L 486.845086 -478.262279 
L 481.38435 -478.262279 
L 475.923615 -479.440951 
L 470.462879 -485.072387 
L 465.002144 -485.727205 
L 459.541408 -485.727205 
L 454.080673 -485.858169 
L 448.619937 -487.822623 
L 443.159202 -487.429733 
L 437.698466 -487.953587 
L 432.23773 -487.69166 
L 426.776995 -487.822623 
L 421.316259 -488.608405 
L 415.855524 -488.215514 
L 410.394788 -488.870332 
L 404.934053 -490.179969 
L 399.473317 -490.57286 
L 394.012582 -165.783063 
L 388.551846 -166.830772 
L 383.091111 -178.486535 
L 377.630375 -179.01039 
L 372.169639 -179.01039 
L 366.708904 -178.879426 
L 361.248168 -178.617499 
L 355.787433 -178.617499 
L 350.326697 -173.24799 
L 344.865962 -181.498699 
L 339.405226 -181.760626 
L 333.944491 -176.653045 
L 328.483755 -170.497754 
L 323.02302 -170.36679 
L 317.562284 -170.628718 
L 312.101548 -170.628718 
L 306.640813 -170.759681 
L 301.180077 -171.283536 
L 295.719342 -172.855099 
L 290.258606 -172.593172 
L 284.797871 -172.986063 
L 279.337135 -171.283536 
L 273.8764 -175.474372 
L 268.415664 -170.235827 
L 262.954928 -169.9739 
L 257.494193 -169.711972 
L 252.033457 -169.057154 
L 246.572722 -169.057154 
L 241.111986 -169.057154 
L 235.651251 -169.057154 
L 230.190515 -169.057154 
L 224.72978 -169.188118 
L 219.269044 -169.057154 
L 213.808309 -171.152572 
L 208.347573 -171.021609 
L 202.886837 -171.021609 
L 197.426102 -170.890645 
L 191.965366 -171.283536 
L 186.504631 -171.152572 
L 181.043895 -171.283536 
L 175.58316 -173.640881 
L 170.122424 -172.593172 
L 164.661689 -172.724136 
L 159.200953 -172.855099 
L 153.740218 -173.24799 
L 148.279482 -173.24799 
L 142.818746 -173.902808 
L 137.358011 -173.640881 
L 131.897275 -174.68859 
L 126.43654 -182.415444 
z
" style="stroke: #ffffff; stroke-opacity: 0.2"/>
    </defs>
    <g clip-path="url(#p30db72b827)">
     <use xlink:href="#ma362916f31" x="0" y="576" style="fill: #4c72b0; fill-opacity: 0.2; stroke: #ffffff; stroke-opacity: 0.2"/>
    </g>
   </g>
   <g id="PolyCollection_2">
    <defs>
     <path id="m8857bc08ce" d="M 126.43654 -189.356516 
L 126.43654 -173.902808 
L 131.897275 -166.699809 
L 137.358011 -146.138519 
L 142.818746 -143.912138 
L 148.279482 -142.733465 
L 153.740218 -134.089866 
L 159.200953 -138.542629 
L 164.661689 -138.804556 
L 170.122424 -134.875647 
L 175.58316 -133.566011 
L 181.043895 -132.911193 
L 186.504631 -125.184339 
L 191.965366 -126.232048 
L 197.426102 -124.398557 
L 202.886837 -124.529521 
L 208.347573 -120.993503 
L 213.808309 -119.81483 
L 219.269044 -120.207721 
L 224.72978 -115.623994 
L 230.190515 -116.540739 
L 235.651251 -111.564122 
L 241.111986 -107.373286 
L 246.572722 -115.49303 
L 252.033457 -129.768066 
L 257.494193 -134.875647 
L 262.954928 -134.744684 
L 268.415664 -134.744684 
L 273.8764 -135.006611 
L 279.337135 -135.399502 
L 284.797871 -136.185284 
L 290.258606 -137.625884 
L 295.719342 -138.804556 
L 301.180077 -137.102029 
L 306.640813 -137.102029 
L 312.101548 -137.102029 
L 317.562284 -132.780229 
L 323.02302 -151.900919 
L 328.483755 -153.603446 
L 333.944491 -151.769955 
L 339.405226 -151.508028 
L 344.865962 -151.900919 
L 350.326697 -151.769955 
L 355.787433 -159.496809 
L 361.248168 -153.996337 
L 366.708904 -159.496809 
L 372.169639 -144.566956 
L 377.630375 -131.863484 
L 383.091111 -134.61372 
L 388.551846 -134.351793 
L 394.012582 -134.744684 
L 399.473317 -443.687881 
L 404.934053 -384.492321 
L 410.394788 -363.931032 
L 415.855524 -361.180796 
L 421.316259 -360.525977 
L 426.776995 -341.012397 
L 432.23773 -320.713035 
L 437.698466 -333.416507 
L 443.159202 -325.034834 
L 448.619937 -301.985236 
L 454.080673 -300.544636 
L 459.541408 -294.520309 
L 465.002144 -306.961854 
L 470.462879 -305.521254 
L 475.923615 -305.914145 
L 481.38435 -304.997399 
L 486.845086 -305.652218 
L 492.305822 -287.055382 
L 497.766557 -284.305146 
L 503.227293 -290.460437 
L 508.688028 -288.888873 
L 514.148764 -288.365019 
L 519.609499 -265.708311 
L 525.070235 -239.777513 
L 530.53097 -245.408949 
L 535.991706 -221.96646 
L 541.452441 -219.478151 
L 546.913177 -217.64466 
L 552.373913 -217.513696 
L 557.834648 -221.704532 
L 563.295384 -217.120805 
L 568.756119 -221.442605 
L 574.216855 -220.002005 
L 579.67759 -220.132969 
L 585.138326 -218.037551 
L 590.599061 -208.346242 
L 596.059797 -216.073096 
L 601.520532 -217.64466 
L 606.981268 -213.715751 
L 612.442004 -223.014169 
L 617.902739 -216.727915 
L 623.363475 -205.988897 
L 628.82421 -210.703588 
L 634.284946 -218.692369 
L 639.745681 -216.335024 
L 645.206417 -220.52586 
L 650.667152 -260.207839 
L 656.127888 -258.112421 
L 661.588623 -246.587622 
L 667.049359 -246.718585 
L 667.049359 -417.888046 
L 667.049359 -417.888046 
L 661.588623 -490.441896 
L 656.127888 -474.071443 
L 650.667152 -479.179024 
L 645.206417 -479.440951 
L 639.745681 -477.738424 
L 634.284946 -477.21457 
L 628.82421 -477.083606 
L 623.363475 -477.083606 
L 617.902739 -476.035897 
L 612.442004 -474.595297 
L 606.981268 -472.630843 
L 601.520532 -470.142534 
L 596.059797 -470.535425 
L 590.599061 -468.57097 
L 585.138326 -479.702879 
L 579.67759 -469.618679 
L 574.216855 -470.01157 
L 568.756119 -466.999407 
L 563.295384 -465.034952 
L 557.834648 -460.582189 
L 552.373913 -459.272553 
L 546.913177 -454.688826 
L 541.452441 -454.557862 
L 535.991706 -455.867498 
L 530.53097 -457.177135 
L 525.070235 -457.700989 
L 519.609499 -459.010625 
L 514.148764 -458.748698 
L 508.688028 -458.486771 
L 503.227293 -458.617734 
L 497.766557 -454.688826 
L 492.305822 -459.141589 
L 486.845086 -460.451225 
L 481.38435 -460.189298 
L 475.923615 -467.785188 
L 470.462879 -466.606516 
L 465.002144 -465.296879 
L 459.541408 -470.535425 
L 454.080673 -470.666388 
L 448.619937 -475.119152 
L 443.159202 -480.48866 
L 437.698466 -482.715042 
L 432.23773 -482.453115 
L 426.776995 -479.964806 
L 421.316259 -479.833842 
L 415.855524 -480.095769 
L 410.394788 -480.226733 
L 404.934053 -484.155642 
L 399.473317 -484.548533 
L 394.012582 -169.581009 
L 388.551846 -173.24799 
L 383.091111 -171.152572 
L 377.630375 -170.104863 
L 372.169639 -168.402336 
L 366.708904 -171.021609 
L 361.248168 -163.949573 
L 355.787433 -166.699809 
L 350.326697 -164.997282 
L 344.865962 -162.247045 
L 339.405226 -161.985118 
L 333.944491 -163.032827 
L 328.483755 -161.723191 
L 323.02302 -161.461264 
L 317.562284 -172.331245 
L 312.101548 -164.997282 
L 306.640813 -164.735354 
L 301.180077 -166.699809 
L 295.719342 -172.069318 
L 290.258606 -165.390173 
L 284.797871 -164.342464 
L 279.337135 -164.342464 
L 273.8764 -164.342464 
L 268.415664 -178.748463 
L 262.954928 -179.141353 
L 257.494193 -180.058099 
L 252.033457 -180.974844 
L 246.572722 -164.997282 
L 241.111986 -166.961736 
L 235.651251 -166.306918 
L 230.190515 -166.306918 
L 224.72978 -166.961736 
L 219.269044 -166.306918 
L 213.808309 -166.306918 
L 208.347573 -166.306918 
L 202.886837 -166.306918 
L 197.426102 -167.485591 
L 191.965366 -167.878481 
L 186.504631 -170.104863 
L 181.043895 -170.890645 
L 175.58316 -171.676427 
L 170.122424 -171.021609 
L 164.661689 -171.283536 
L 159.200953 -170.890645 
L 153.740218 -171.545463 
L 148.279482 -171.545463 
L 142.818746 -171.676427 
L 137.358011 -181.367735 
L 131.897275 -189.356516 
L 126.43654 -189.356516 
z
" style="stroke: #ffffff; stroke-opacity: 0.2"/>
    </defs>
    <g clip-path="url(#p30db72b827)">
     <use xlink:href="#m8857bc08ce" x="0" y="576" style="fill: #dd8452; fill-opacity: 0.2; stroke: #ffffff; stroke-opacity: 0.2"/>
    </g>
   </g>
   <g id="PolyCollection_3">
    <defs>
     <path id="m9d799ab14b" d="M 126.43654 -183.987008 
L 126.43654 -175.081481 
L 131.897275 -170.104863 
L 137.358011 -145.745628 
L 142.818746 -143.519247 
L 148.279482 -149.150683 
L 153.740218 -148.495865 
L 159.200953 -149.674537 
L 164.661689 -149.543574 
L 170.122424 -141.030938 
L 175.58316 -134.61372 
L 181.043895 -122.565066 
L 186.504631 -122.434103 
L 191.965366 -121.910248 
L 197.426102 -123.088921 
L 202.886837 -116.93363 
L 208.347573 -115.362067 
L 213.808309 -116.278812 
L 219.269044 -120.600612 
L 224.72978 -118.112303 
L 230.190515 -115.49303 
L 235.651251 -117.719412 
L 241.111986 -120.731576 
L 246.572722 -120.338685 
L 252.033457 -116.278812 
L 257.494193 -122.303139 
L 262.954928 -119.945794 
L 268.415664 -121.779285 
L 273.8764 -114.576285 
L 279.337135 -103.57534 
L 284.797871 -102.920522 
L 290.258606 -105.01594 
L 295.719342 -107.766176 
L 301.180077 -109.861594 
L 306.640813 -110.647376 
L 312.101548 -109.861594 
L 317.562284 -107.504249 
L 323.02302 -100.825104 
L 328.483755 -100.432213 
L 333.944491 -112.349903 
L 339.405226 -108.290031 
L 344.865962 -108.420995 
L 350.326697 -108.944849 
L 355.787433 -107.766176 
L 361.248168 -118.37423 
L 366.708904 -112.480867 
L 372.169639 -120.993503 
L 377.630375 -122.172175 
L 383.091111 -124.529521 
L 388.551846 -122.826994 
L 394.012582 -112.611831 
L 399.473317 -439.628009 
L 404.934053 -421.162137 
L 410.394788 -406.494211 
L 415.855524 -401.648557 
L 421.316259 -386.849667 
L 426.776995 -388.683157 
L 432.23773 -369.038613 
L 437.698466 -367.728977 
L 443.159202 -359.478268 
L 448.619937 -357.906705 
L 454.080673 -357.251887 
L 459.541408 -355.811287 
L 465.002144 -353.846832 
L 470.462879 -349.525033 
L 475.923615 -347.953469 
L 481.38435 -343.893597 
L 486.845086 -336.559634 
L 492.305822 -335.119034 
L 497.766557 -342.322033 
L 503.227293 -321.760744 
L 508.688028 -319.927253 
L 514.148764 -318.74858 
L 519.609499 -321.498817 
L 525.070235 -321.105926 
L 530.53097 -325.427725 
L 535.991706 -333.940361 
L 541.452441 -333.154579 
L 546.913177 -333.54747 
L 552.373913 -326.082543 
L 557.834648 -320.320144 
L 563.295384 -281.55491 
L 568.756119 -283.650328 
L 574.216855 -274.351911 
L 579.67759 -270.423002 
L 585.138326 -269.899147 
L 590.599061 -264.922529 
L 596.059797 -265.970238 
L 601.520532 -260.207839 
L 606.981268 -266.232166 
L 612.442004 -269.506256 
L 617.902739 -262.04133 
L 623.363475 -264.922529 
L 628.82421 -266.101202 
L 634.284946 -273.435165 
L 639.745681 -265.577348 
L 645.206417 -266.494093 
L 650.667152 -250.909421 
L 656.127888 -245.016058 
L 661.588623 -247.635331 
L 667.049359 -247.24244 
L 667.049359 -457.308098 
L 667.049359 -457.308098 
L 661.588623 -449.319317 
L 656.127888 -421.293101 
L 650.667152 -422.995628 
L 645.206417 -420.638283 
L 639.745681 -431.115373 
L 634.284946 -440.151863 
L 628.82421 -432.948863 
L 623.363475 -400.862775 
L 617.902739 -374.146195 
L 612.442004 -382.658831 
L 606.981268 -373.098486 
L 601.520532 -370.34825 
L 596.059797 -373.884268 
L 590.599061 -371.003068 
L 585.138326 -374.539086 
L 579.67759 -375.324867 
L 574.216855 -383.444612 
L 568.756119 -378.337031 
L 563.295384 -380.956303 
L 557.834648 -378.075104 
L 552.373913 -384.230394 
L 546.913177 -427.841282 
L 541.452441 -416.185519 
L 535.991706 -353.584905 
L 530.53097 -369.824395 
L 525.070235 -398.243502 
L 519.609499 -441.461499 
L 514.148764 -445.259444 
L 508.688028 -434.520427 
L 503.227293 -463.463389 
L 497.766557 -459.796407 
L 492.305822 -475.119152 
L 486.845086 -474.202406 
L 481.38435 -473.678552 
L 475.923615 -485.727205 
L 470.462879 -484.548533 
L 465.002144 -484.941424 
L 459.541408 -487.429733 
L 454.080673 -487.036842 
L 448.619937 -487.167805 
L 443.159202 -487.822623 
L 437.698466 -485.334314 
L 432.23773 -486.25106 
L 426.776995 -484.81046 
L 421.316259 -489.394187 
L 415.855524 -483.631787 
L 410.394788 -480.881551 
L 404.934053 -482.976969 
L 399.473317 -484.679496 
L 394.012582 -184.641826 
L 388.551846 -169.711972 
L 383.091111 -169.319081 
L 377.630375 -169.581009 
L 372.169639 -167.747518 
L 366.708904 -168.795227 
L 361.248168 -169.057154 
L 355.787433 -166.175954 
L 350.326697 -168.402336 
L 344.865962 -170.628718 
L 339.405226 -168.271372 
L 333.944491 -174.164736 
L 328.483755 -174.426663 
L 323.02302 -173.378954 
L 317.562284 -173.24799 
L 312.101548 -174.426663 
L 306.640813 -179.796172 
L 301.180077 -177.176899 
L 295.719342 -176.914972 
L 290.258606 -185.427608 
L 284.797871 -175.605335 
L 279.337135 -178.617499 
L 273.8764 -183.594117 
L 268.415664 -177.045935 
L 262.954928 -179.403281 
L 257.494193 -175.736299 
L 252.033457 -178.224608 
L 246.572722 -175.998226 
L 241.111986 -178.617499 
L 235.651251 -180.45099 
L 230.190515 -179.272317 
L 224.72978 -180.974844 
L 219.269044 -177.438826 
L 213.808309 -176.260154 
L 208.347573 -176.784008 
L 202.886837 -180.058099 
L 197.426102 -180.45099 
L 191.965366 -176.391117 
L 186.504631 -174.950517 
L 181.043895 -176.12919 
L 175.58316 -176.522081 
L 170.122424 -178.748463 
L 164.661689 -178.093644 
L 159.200953 -178.093644 
L 153.740218 -180.581953 
L 148.279482 -179.403281 
L 142.818746 -180.581953 
L 137.358011 -180.058099 
L 131.897275 -180.189062 
L 126.43654 -183.987008 
z
" style="stroke: #ffffff; stroke-opacity: 0.2"/>
    </defs>
    <g clip-path="url(#p30db72b827)">
     <use xlink:href="#m9d799ab14b" x="0" y="576" style="fill: #55a868; fill-opacity: 0.2; stroke: #ffffff; stroke-opacity: 0.2"/>
    </g>
   </g>
   <g id="line2d_14">
    <path d="M 126.43654 397.382501 
L 131.897275 405.63321 
L 137.358011 406.942846 
L 142.818746 407.728628 
L 148.279482 409.562118 
L 153.740218 409.693082 
L 159.200953 410.216937 
L 164.661689 410.216937 
L 170.122424 410.216937 
L 175.58316 410.216937 
L 181.043895 411.395609 
L 186.504631 412.705245 
L 191.965366 413.621991 
L 197.426102 413.621991 
L 202.886837 412.050427 
L 208.347573 408.252482 
L 213.808309 414.276809 
L 219.269044 414.276809 
L 224.72978 414.276809 
L 230.190515 414.276809 
L 235.651251 414.276809 
L 241.111986 414.276809 
L 246.572722 413.752955 
L 252.033457 413.360064 
L 257.494193 412.967173 
L 262.954928 413.098136 
L 268.415664 411.526573 
L 273.8764 410.478864 
L 279.337135 411.526573 
L 284.797871 411.526573 
L 290.258606 410.871755 
L 295.719342 411.657536 
L 301.180077 413.752955 
L 306.640813 413.752955 
L 312.101548 413.098136 
L 317.562284 413.098136 
L 323.02302 412.050427 
L 328.483755 412.443318 
L 333.944491 412.574282 
L 339.405226 413.098136 
L 344.865962 413.098136 
L 350.326697 412.443318 
L 355.787433 411.7885 
L 361.248168 411.657536 
L 366.708904 411.526573 
L 372.169639 411.526573 
L 377.630375 411.526573 
L 383.091111 412.050427 
L 388.551846 413.360064 
L 394.012582 413.360064 
L 399.473317 93.939776 
L 404.934053 105.071685 
L 410.394788 105.726503 
L 415.855524 104.54783 
L 421.316259 105.464575 
L 426.776995 106.250357 
L 432.23773 107.036139 
L 437.698466 104.809757 
L 443.159202 104.678794 
L 448.619937 106.512284 
L 454.080673 100.487958 
L 459.541408 115.155884 
L 465.002144 115.941666 
L 470.462879 118.691902 
L 475.923615 110.179266 
L 481.38435 120.132502 
L 486.845086 136.633919 
L 492.305822 145.932336 
L 497.766557 142.396318 
L 503.227293 152.742445 
L 508.688028 153.135336 
L 514.148764 145.277518 
L 519.609499 143.836918 
L 525.070235 141.7415 
L 530.53097 140.824755 
L 535.991706 183.911788 
L 541.452441 176.446862 
L 546.913177 174.482407 
L 552.373913 171.863135 
L 557.834648 170.291571 
L 563.295384 178.280352 
L 568.756119 199.365496 
L 574.216855 194.257915 
L 579.67759 201.984769 
L 585.138326 197.270078 
L 590.599061 181.030588 
L 596.059797 177.494571 
L 601.520532 192.424424 
L 606.981268 192.031533 
L 612.442004 187.447806 
L 617.902739 217.045586 
L 623.363475 216.259804 
L 628.82421 215.866913 
L 634.284946 215.474023 
L 639.745681 215.212095 
L 645.206417 227.129785 
L 650.667152 238.392657 
L 656.127888 243.631202 
L 661.588623 246.119511 
L 667.049359 246.512402 
" clip-path="url(#p30db72b827)" style="fill: none; stroke: #4c72b0; stroke-width: 1.5; stroke-linecap: round"/>
   </g>
   <g id="line2d_15">
    <path d="M 126.43654 391.620101 
L 131.897275 401.442374 
L 137.358011 419.777281 
L 142.818746 418.336681 
L 148.279482 421.348845 
L 153.740218 421.872699 
L 159.200953 422.789445 
L 164.661689 422.26559 
L 170.122424 422.26559 
L 175.58316 421.872699 
L 181.043895 423.051372 
L 186.504631 423.444263 
L 191.965366 422.920408 
L 197.426102 432.087862 
L 202.886837 432.34979 
L 208.347573 432.480753 
L 213.808309 438.243153 
L 219.269044 439.683753 
L 224.72978 441.517244 
L 230.190515 443.219771 
L 235.651251 443.350734 
L 241.111986 417.027045 
L 246.572722 417.419936 
L 252.033457 417.027045 
L 257.494193 417.027045 
L 262.954928 417.419936 
L 268.415664 411.7885 
L 273.8764 417.812827 
L 279.337135 416.1103 
L 284.797871 414.931627 
L 290.258606 414.407773 
L 295.719342 410.740791 
L 301.180077 411.657536 
L 306.640813 412.705245 
L 312.101548 413.491027 
L 317.562284 414.6697 
L 323.02302 416.1103 
L 328.483755 418.074754 
L 333.944491 414.6697 
L 339.405226 416.372227 
L 344.865962 415.193554 
L 350.326697 415.979336 
L 355.787433 414.276809 
L 361.248168 415.455482 
L 366.708904 415.455482 
L 372.169639 416.372227 
L 377.630375 415.979336 
L 383.091111 413.883918 
L 388.551846 412.312355 
L 394.012582 412.181391 
L 399.473317 93.415922 
L 404.934053 100.749885 
L 410.394788 106.250357 
L 415.855524 107.036139 
L 421.316259 112.405648 
L 426.776995 112.667575 
L 432.23773 130.740556 
L 437.698466 131.526337 
L 443.159202 135.979101 
L 448.619937 172.517953 
L 454.080673 171.470244 
L 459.541408 174.875298 
L 465.002144 176.315898 
L 470.462879 176.577825 
L 475.923615 176.708789 
L 481.38435 122.489847 
L 486.845086 184.042752 
L 492.305822 189.936115 
L 497.766557 238.392657 
L 503.227293 255.286965 
L 508.688028 255.81082 
L 514.148764 254.108293 
L 519.609499 235.380494 
L 525.070235 237.083021 
L 530.53097 205.65175 
L 535.991706 203.949223 
L 541.452441 203.032478 
L 546.913177 209.449696 
L 552.373913 160.731226 
L 557.834648 148.551609 
L 563.295384 153.397263 
L 568.756119 151.170881 
L 574.216855 150.777991 
L 579.67759 182.209261 
L 585.138326 200.413205 
L 590.599061 230.141949 
L 596.059797 234.725676 
L 601.520532 236.69013 
L 606.981268 236.166276 
L 612.442004 242.845421 
L 617.902739 244.547948 
L 623.363475 244.809875 
L 628.82421 249.524566 
L 634.284946 242.845421 
L 639.745681 197.401042 
L 645.206417 180.113843 
L 650.667152 179.066134 
L 656.127888 179.328061 
L 661.588623 178.149389 
L 667.049359 178.018425 
" clip-path="url(#p30db72b827)" style="fill: none; stroke: #dd8452; stroke-width: 1.5; stroke-linecap: round"/>
   </g>
   <g id="line2d_16">
    <path d="M 126.43654 395.941901 
L 131.897275 399.87081 
L 137.358011 399.477919 
L 142.818746 399.477919 
L 148.279482 398.561174 
L 153.740218 397.906356 
L 159.200953 401.704301 
L 164.661689 403.144901 
L 170.122424 401.180446 
L 175.58316 402.228155 
L 181.043895 401.835264 
L 186.504631 402.097192 
L 191.965366 403.013937 
L 197.426102 402.621046 
L 202.886837 403.799719 
L 208.347573 401.573337 
L 213.808309 406.157064 
L 219.269044 404.847428 
L 224.72978 405.371282 
L 230.190515 404.847428 
L 235.651251 404.454537 
L 241.111986 400.263701 
L 246.572722 407.597664 
L 252.033457 411.919464 
L 257.494193 431.302081 
L 262.954928 428.420881 
L 268.415664 429.992444 
L 273.8764 429.730517 
L 279.337135 428.944735 
L 284.797871 430.254372 
L 290.258606 429.599553 
L 295.719342 425.670645 
L 301.180077 416.1103 
L 306.640813 401.704301 
L 312.101548 430.516299 
L 317.562284 429.730517 
L 323.02302 447.410607 
L 328.483755 440.469535 
L 333.944491 454.613606 
L 339.405226 456.970952 
L 344.865962 453.565897 
L 350.326697 454.482643 
L 355.787433 448.720243 
L 361.248168 443.874589 
L 366.708904 439.290862 
L 372.169639 438.897971 
L 377.630375 435.230989 
L 383.091111 440.469535 
L 388.551846 446.100971 
L 394.012582 428.682808 
L 399.473317 120.78732 
L 404.934053 141.217646 
L 410.394788 146.456191 
L 415.855524 154.314008 
L 421.316259 92.499176 
L 426.776995 93.546885 
L 432.23773 101.273739 
L 437.698466 99.571212 
L 443.159202 102.976266 
L 448.619937 103.238194 
L 454.080673 104.809757 
L 459.541408 101.535667 
L 465.002144 112.405648 
L 470.462879 110.572157 
L 475.923615 101.273739 
L 481.38435 192.686351 
L 486.845086 209.056805 
L 492.305822 212.985714 
L 497.766557 225.034367 
L 503.227293 235.642421 
L 508.688028 233.547003 
L 514.148764 235.904348 
L 519.609499 228.046531 
L 525.070235 237.083021 
L 530.53097 242.190603 
L 535.991706 230.010985 
L 541.452441 233.939894 
L 546.913177 241.404821 
L 552.373913 234.987603 
L 557.834648 222.153168 
L 563.295384 224.903404 
L 568.756119 222.284131 
L 574.216855 227.522676 
L 579.67759 240.226148 
L 585.138326 240.488075 
L 590.599061 250.04842 
L 596.059797 250.310347 
L 601.520532 257.513347 
L 606.981268 253.584438 
L 612.442004 254.37022 
L 617.902739 254.894074 
L 623.363475 249.917457 
L 628.82421 249.917457 
L 634.284946 250.179384 
L 639.745681 247.560111 
L 645.206417 242.976384 
L 650.667152 279.777164 
L 656.127888 308.196271 
L 661.588623 283.575109 
L 667.049359 289.599436 
" clip-path="url(#p30db72b827)" style="fill: none; stroke: #55a868; stroke-width: 1.5; stroke-linecap: round"/>
   </g>
   <g id="patch_3">
    <path d="M 99.405899 495.840956 
L 99.405899 49.831226 
" style="fill: none; stroke: #cccccc; stroke-width: 1.25; stroke-linejoin: miter; stroke-linecap: square"/>
   </g>
   <g id="patch_4">
    <path d="M 694.08 495.840956 
L 694.08 49.831226 
" style="fill: none; stroke: #cccccc; stroke-width: 1.25; stroke-linejoin: miter; stroke-linecap: square"/>
   </g>
   <g id="patch_5">
    <path d="M 99.405899 495.840956 
L 694.08 495.840956 
" style="fill: none; stroke: #cccccc; stroke-width: 1.25; stroke-linejoin: miter; stroke-linecap: square"/>
   </g>
   <g id="patch_6">
    <path d="M 99.405899 49.831226 
L 694.08 49.831226 
" style="fill: none; stroke: #cccccc; stroke-width: 1.25; stroke-linejoin: miter; stroke-linecap: square"/>
   </g>
   <g id="text_16">
    <!-- Mean Squared Error (MSE) over Step (Median) -->
    <g style="fill: #262626" transform="translate(171.922308 43.831226) scale(0.24 -0.24)">
     <defs>
      <path id="CMSS17-76" d="M 2675 2752 
L 2176 2752 
L 1747 1556 
C 1613 1165 1421 627 1389 352 
L 1382 352 
C 1370 468 1318 634 1286 749 
C 1248 890 1197 1056 1158 1172 
L 595 2752 
L 83 2752 
L 1094 0 
L 1664 0 
L 2675 2752 
z
" transform="scale(0.015625)"/>
      <path id="CMSS17-69" d="M 979 4183 
L 442 4183 
L 442 3648 
L 979 3648 
L 979 4183 
z
M 947 2739 
L 474 2739 
L 474 0 
L 947 0 
L 947 2739 
z
" transform="scale(0.015625)"/>
     </defs>
     <use xlink:href="#CMSS17-4d" transform="scale(0.996264)"/>
     <use xlink:href="#CMSS17-65" transform="translate(81.67603 0) scale(0.996264)"/>
     <use xlink:href="#CMSS17-61" transform="translate(123.314852 0) scale(0.996264)"/>
     <use xlink:href="#CMSS17-6e" transform="translate(168.236773 0) scale(0.996264)"/>
     <use xlink:href="#CMSS17-53" transform="translate(247.670829 0) scale(0.996264)"/>
     <use xlink:href="#CMSS17-71" transform="translate(299.719345 0) scale(0.996264)"/>
     <use xlink:href="#CMSS17-75" transform="translate(347.924288 0) scale(0.996264)"/>
     <use xlink:href="#CMSS17-61" transform="translate(396.129231 0) scale(0.996264)"/>
     <use xlink:href="#CMSS17-72" transform="translate(438.448698 0) scale(0.996264)"/>
     <use xlink:href="#CMSS17-65" transform="translate(470.35847 0) scale(0.996264)"/>
     <use xlink:href="#CMSS17-64" transform="translate(511.997292 0) scale(0.996264)"/>
     <use xlink:href="#CMSS17-45" transform="translate(591.431348 0) scale(0.996264)"/>
     <use xlink:href="#CMSS17-72" transform="translate(647.323361 0) scale(0.996264)"/>
     <use xlink:href="#CMSS17-72" transform="translate(679.233134 0) scale(0.996264)"/>
     <use xlink:href="#CMSS17-6f" transform="translate(711.142906 0) scale(0.996264)"/>
     <use xlink:href="#CMSS17-72" transform="translate(755.384076 0) scale(0.996264)"/>
     <use xlink:href="#CMSS17-28" transform="translate(818.522961 0) scale(0.996264)"/>
     <use xlink:href="#CMSS17-4d" transform="translate(854.956876 0) scale(0.996264)"/>
     <use xlink:href="#CMSS17-53" transform="translate(936.632906 0) scale(0.996264)"/>
     <use xlink:href="#CMSS17-45" transform="translate(988.681422 0) scale(0.996264)"/>
     <use xlink:href="#CMSS17-29" transform="translate(1044.573435 0) scale(0.996264)"/>
     <use xlink:href="#CMSS17-6f" transform="translate(1112.236462 0) scale(0.996264)"/>
     <use xlink:href="#CMSS17-76" transform="translate(1159.080085 0) scale(0.996264)"/>
     <use xlink:href="#CMSS17-65" transform="translate(1202.080227 0) scale(0.996264)"/>
     <use xlink:href="#CMSS17-72" transform="translate(1243.719049 0) scale(0.996264)"/>
     <use xlink:href="#CMSS17-53" transform="translate(1306.857934 0) scale(0.996264)"/>
     <use xlink:href="#CMSS17-74" transform="translate(1358.906451 0) scale(0.996264)"/>
     <use xlink:href="#CMSS17-65" transform="translate(1392.738017 0) scale(0.996264)"/>
     <use xlink:href="#CMSS17-70" transform="translate(1434.376839 0) scale(0.996264)"/>
     <use xlink:href="#CMSS17-28" transform="translate(1513.810895 0) scale(0.996264)"/>
     <use xlink:href="#CMSS17-4d" transform="translate(1550.24481 0) scale(0.996264)"/>
     <use xlink:href="#CMSS17-65" transform="translate(1631.920839 0) scale(0.996264)"/>
     <use xlink:href="#CMSS17-64" transform="translate(1673.559662 0) scale(0.996264)"/>
     <use xlink:href="#CMSS17-69" transform="translate(1721.764605 0) scale(0.996264)"/>
     <use xlink:href="#CMSS17-61" transform="translate(1743.945328 0) scale(0.996264)"/>
     <use xlink:href="#CMSS17-6e" transform="translate(1788.867248 0) scale(0.996264)"/>
     <use xlink:href="#CMSS17-29" transform="translate(1837.072191 0) scale(0.996264)"/>
    </g>
   </g>
   <g id="legend_1">
    <g id="patch_7">
     <path d="M 114.805899 191.675953 
L 321.997374 191.675953 
Q 326.397374 191.675953 326.397374 187.275953 
L 326.397374 65.231226 
Q 326.397374 60.831226 321.997374 60.831226 
L 114.805899 60.831226 
Q 110.405899 60.831226 110.405899 65.231226 
L 110.405899 187.275953 
Q 110.405899 191.675953 114.805899 191.675953 
z
" style="fill: #ffffff; opacity: 0.8; stroke: #cccccc; stroke-linejoin: miter"/>
    </g>
    <g id="text_17">
     <!-- Noise Type -->
     <g style="fill: #262626" transform="translate(166.162551 86.235632) scale(0.24 -0.24)">
      <defs>
       <path id="CMSS17-4e" d="M 1466 4180 
L 1350 4416 
L 563 4416 
L 563 0 
L 1062 0 
L 1062 3926 
L 1069 3932 
C 1114 3817 1139 3760 1402 3194 
L 2771 236 
L 2886 0 
L 3674 0 
L 3674 4416 
L 3174 4416 
L 3174 490 
L 3168 483 
C 3123 598 3098 655 2835 1221 
L 1466 4180 
z
" transform="scale(0.015625)"/>
       <path id="CMSS17-73" d="M 2061 2627 
C 1683 2807 1389 2807 1197 2807 
C 742 2807 198 2648 198 2003 
C 198 1359 902 1218 1094 1179 
C 1389 1122 1715 1058 1715 740 
C 1715 337 1254 337 1171 337 
C 915 337 563 407 243 638 
L 166 210 
C 531 0 883 -64 1178 -64 
C 1965 -64 2163 416 2163 781 
C 2163 1094 1984 1305 1862 1401 
C 1651 1568 1574 1587 1050 1696 
C 960 1709 646 1779 646 2066 
C 646 2432 1050 2432 1139 2432 
C 1555 2432 1811 2303 1984 2208 
L 2061 2627 
z
" transform="scale(0.015625)"/>
       <path id="CMSS17-54" d="M 2317 3968 
L 2848 3968 
C 2925 3968 3002 3968 3078 3968 
L 3878 3968 
L 3878 4376 
L 218 4376 
L 218 3968 
L 1018 3968 
C 1094 3968 1171 3968 1248 3968 
L 1779 3968 
L 1779 -32 
L 2317 -32 
L 2317 3968 
z
" transform="scale(0.015625)"/>
       <path id="CMSS17-79" d="M 2675 2752 
L 2176 2752 
C 1632 1294 1446 702 1434 383 
L 1427 383 
C 1408 696 1126 1460 902 2007 
L 602 2752 
L 83 2752 
L 1216 13 
C 1146 -178 1043 -465 1011 -529 
C 870 -885 774 -885 672 -885 
C 646 -885 442 -885 211 -809 
L 250 -1229 
C 410 -1261 570 -1280 685 -1280 
C 845 -1280 1165 -1280 1459 -497 
L 2675 2752 
z
" transform="scale(0.015625)"/>
      </defs>
      <use xlink:href="#CMSS17-4e" transform="scale(0.996264)"/>
      <use xlink:href="#CMSS17-6f" transform="translate(66.061519 0) scale(0.996264)"/>
      <use xlink:href="#CMSS17-69" transform="translate(112.905143 0) scale(0.996264)"/>
      <use xlink:href="#CMSS17-73" transform="translate(135.085866 0) scale(0.996264)"/>
      <use xlink:href="#CMSS17-65" transform="translate(170.999408 0) scale(0.996264)"/>
      <use xlink:href="#CMSS17-54" transform="translate(243.867343 0) scale(0.996264)"/>
      <use xlink:href="#CMSS17-79" transform="translate(299.879541 0) scale(0.996264)"/>
      <use xlink:href="#CMSS17-70" transform="translate(342.879683 0) scale(0.996264)"/>
      <use xlink:href="#CMSS17-65" transform="translate(393.687065 0) scale(0.996264)"/>
     </g>
    </g>
    <g id="line2d_17">
     <path d="M 119.205899 109.586389 
L 141.205899 109.586389 
L 163.205899 109.586389 
" style="fill: none; stroke: #4c72b0; stroke-width: 1.5; stroke-linecap: round"/>
    </g>
    <g id="text_18">
     <!-- None -->
     <g style="fill: #262626" transform="translate(180.805899 117.286389) scale(0.22 -0.22)">
      <use xlink:href="#CMSS17-4e" transform="scale(0.996264)"/>
      <use xlink:href="#CMSS17-6f" transform="translate(66.061519 0) scale(0.996264)"/>
      <use xlink:href="#CMSS17-6e" transform="translate(112.905143 0) scale(0.996264)"/>
      <use xlink:href="#CMSS17-65" transform="translate(161.110086 0) scale(0.996264)"/>
     </g>
    </g>
    <g id="line2d_18">
     <path d="M 119.205899 140.249577 
L 141.205899 140.249577 
L 163.205899 140.249577 
" style="fill: none; stroke: #dd8452; stroke-width: 1.5; stroke-linecap: round"/>
    </g>
    <g id="text_19">
     <!-- Gaussian -->
     <g style="fill: #262626" transform="translate(180.805899 147.949577) scale(0.22 -0.22)">
      <defs>
       <path id="CMSS17-47" d="M 3610 1856 
L 2336 1856 
L 2336 1461 
L 3123 1461 
L 3123 471 
C 2874 401 2618 350 2362 350 
C 1466 350 934 1301 934 2200 
C 934 3095 1491 4032 2362 4032 
C 2854 4032 3130 3881 3469 3627 
L 3552 4134 
C 3130 4351 2867 4440 2387 4440 
C 1146 4440 397 3324 397 2182 
C 397 1090 1152 -64 2349 -64 
C 2797 -64 3213 51 3610 248 
L 3610 1856 
z
" transform="scale(0.015625)"/>
      </defs>
      <use xlink:href="#CMSS17-47" transform="scale(0.996264)"/>
      <use xlink:href="#CMSS17-61" transform="translate(62.458226 0) scale(0.996264)"/>
      <use xlink:href="#CMSS17-75" transform="translate(107.380146 0) scale(0.996264)"/>
      <use xlink:href="#CMSS17-73" transform="translate(155.585089 0) scale(0.996264)"/>
      <use xlink:href="#CMSS17-73" transform="translate(191.498631 0) scale(0.996264)"/>
      <use xlink:href="#CMSS17-69" transform="translate(227.412173 0) scale(0.996264)"/>
      <use xlink:href="#CMSS17-61" transform="translate(249.592896 0) scale(0.996264)"/>
      <use xlink:href="#CMSS17-6e" transform="translate(294.514817 0) scale(0.996264)"/>
     </g>
    </g>
    <g id="line2d_19">
     <path d="M 119.205899 170.912765 
L 141.205899 170.912765 
L 163.205899 170.912765 
" style="fill: none; stroke: #55a868; stroke-width: 1.5; stroke-linecap: round"/>
    </g>
    <g id="text_20">
     <!-- Salt-and-pepper -->
     <g style="fill: #262626" transform="translate(180.805899 178.612765) scale(0.22 -0.22)">
      <defs>
       <path id="CMSS17-6c" d="M 947 4416 
L 474 4416 
L 474 0 
L 947 0 
L 947 4416 
z
" transform="scale(0.015625)"/>
       <path id="CMSS17-2d" d="M 1664 1216 
L 1664 1585 
L 64 1585 
L 64 1216 
L 1664 1216 
z
" transform="scale(0.015625)"/>
      </defs>
      <use xlink:href="#CMSS17-53" transform="scale(0.996264)"/>
      <use xlink:href="#CMSS17-61" transform="translate(52.048516 0) scale(0.996264)"/>
      <use xlink:href="#CMSS17-6c" transform="translate(96.970437 0) scale(0.996264)"/>
      <use xlink:href="#CMSS17-74" transform="translate(119.15116 0) scale(0.996264)"/>
      <use xlink:href="#CMSS17-2d" transform="translate(152.982727 0) scale(0.996264)"/>
      <use xlink:href="#CMSS17-61" transform="translate(184.211839 0) scale(0.996264)"/>
      <use xlink:href="#CMSS17-6e" transform="translate(229.13376 0) scale(0.996264)"/>
      <use xlink:href="#CMSS17-64" transform="translate(277.338703 0) scale(0.996264)"/>
      <use xlink:href="#CMSS17-2d" transform="translate(325.543646 0) scale(0.996264)"/>
      <use xlink:href="#CMSS17-70" transform="translate(356.772759 0) scale(0.996264)"/>
      <use xlink:href="#CMSS17-65" transform="translate(407.580141 0) scale(0.996264)"/>
      <use xlink:href="#CMSS17-70" transform="translate(449.218963 0) scale(0.996264)"/>
      <use xlink:href="#CMSS17-70" transform="translate(497.423906 0) scale(0.996264)"/>
      <use xlink:href="#CMSS17-65" transform="translate(548.231288 0) scale(0.996264)"/>
      <use xlink:href="#CMSS17-72" transform="translate(589.87011 0) scale(0.996264)"/>
     </g>
    </g>
   </g>
  </g>
 </g>
 <defs>
  <clipPath id="p30db72b827">
   <rect x="99.405899" y="49.831226" width="594.674101" height="446.00973"/>
  </clipPath>
 </defs>
</svg>
