<?xml version="1.0" encoding="utf-8" standalone="no"?>
<!DOCTYPE svg PUBLIC "-//W3C//DTD SVG 1.1//EN"
  "http://www.w3.org/Graphics/SVG/1.1/DTD/svg11.dtd">
<svg xmlns:xlink="http://www.w3.org/1999/xlink" width="720pt" height="576pt" viewBox="0 0 720 576" xmlns="http://www.w3.org/2000/svg" version="1.1">
 <metadata>
  <rdf:RDF xmlns:dc="http://purl.org/dc/elements/1.1/" xmlns:cc="http://creativecommons.org/ns#" xmlns:rdf="http://www.w3.org/1999/02/22-rdf-syntax-ns#">
   <cc:Work>
    <dc:type rdf:resource="http://purl.org/dc/dcmitype/StillImage"/>
    <dc:date>2025-04-24T19:34:17.610793</dc:date>
    <dc:format>image/svg+xml</dc:format>
    <dc:creator>
     <cc:Agent>
      <dc:title>Matplotlib v3.9.2, https://matplotlib.org/</dc:title>
     </cc:Agent>
    </dc:creator>
   </cc:Work>
  </rdf:RDF>
 </metadata>
 <defs>
  <style type="text/css">*{stroke-linejoin: round; stroke-linecap: butt}</style>
 </defs>
 <g id="figure_1">
  <g id="patch_1">
   <path d="M 0 576 
L 720 576 
L 720 0 
L 0 0 
z
" style="fill: #ffffff"/>
  </g>
  <g id="axes_1">
   <g id="patch_2">
    <path d="M 83.392615 495.840956 
L 694.08 495.840956 
L 694.08 49.831226 
L 83.392615 49.831226 
z
" style="fill: #ffffff"/>
   </g>
   <g id="matplotlib.axis_1">
    <g id="xtick_1">
     <g id="line2d_1">
      <path d="M 111.151132 495.840956 
L 111.151132 49.831226 
" clip-path="url(#pbb12b223ed)" style="fill: none; stroke: #cccccc; stroke-linecap: round"/>
     </g>
     <g id="text_1">
      <!-- $\mathdefault{0}$ -->
      <g style="fill: #262626" transform="translate(106.12518 520.56165) scale(0.22 -0.22)">
       <defs>
        <path id="CMR17-30" d="M 2688 2025 
C 2688 2416 2682 3080 2413 3591 
C 2176 4039 1798 4198 1466 4198 
C 1158 4198 768 4058 525 3597 
C 269 3118 243 2524 243 2025 
C 243 1661 250 1106 448 619 
C 723 -39 1216 -128 1466 -128 
C 1760 -128 2208 -7 2470 600 
C 2662 1042 2688 1559 2688 2025 
z
M 1466 -26 
C 1056 -26 813 325 723 812 
C 653 1188 653 1738 653 2096 
C 653 2588 653 2997 736 3387 
C 858 3929 1216 4096 1466 4096 
C 1728 4096 2067 3923 2189 3400 
C 2272 3036 2278 2607 2278 2096 
C 2278 1680 2278 1169 2202 792 
C 2067 95 1690 -26 1466 -26 
z
" transform="scale(0.015625)"/>
       </defs>
       <use xlink:href="#CMR17-30" transform="scale(0.996264)"/>
      </g>
     </g>
    </g>
    <g id="xtick_2">
     <g id="line2d_2">
      <path d="M 223.306759 495.840956 
L 223.306759 49.831226 
" clip-path="url(#pbb12b223ed)" style="fill: none; stroke: #cccccc; stroke-linecap: round"/>
     </g>
     <g id="text_2">
      <!-- $\mathdefault{200}$ -->
      <g style="fill: #262626" transform="translate(208.228901 520.56165) scale(0.22 -0.22)">
       <defs>
        <path id="CMR17-32" d="M 2669 989 
L 2554 989 
C 2490 536 2438 459 2413 420 
C 2381 369 1920 369 1830 369 
L 602 369 
C 832 619 1280 1072 1824 1597 
C 2214 1967 2669 2402 2669 3035 
C 2669 3790 2067 4224 1395 4224 
C 691 4224 262 3604 262 3030 
C 262 2780 448 2748 525 2748 
C 589 2748 781 2787 781 3010 
C 781 3207 614 3264 525 3264 
C 486 3264 448 3258 422 3245 
C 544 3790 915 4058 1306 4058 
C 1862 4058 2227 3617 2227 3035 
C 2227 2479 1901 2000 1536 1584 
L 262 146 
L 262 0 
L 2515 0 
L 2669 989 
z
" transform="scale(0.015625)"/>
       </defs>
       <use xlink:href="#CMR17-32" transform="scale(0.996264)"/>
       <use xlink:href="#CMR17-30" transform="translate(45.690477 0) scale(0.996264)"/>
       <use xlink:href="#CMR17-30" transform="translate(91.380954 0) scale(0.996264)"/>
      </g>
     </g>
    </g>
    <g id="xtick_3">
     <g id="line2d_3">
      <path d="M 335.462385 495.840956 
L 335.462385 49.831226 
" clip-path="url(#pbb12b223ed)" style="fill: none; stroke: #cccccc; stroke-linecap: round"/>
     </g>
     <g id="text_3">
      <!-- $\mathdefault{400}$ -->
      <g style="fill: #262626" transform="translate(320.384528 520.56165) scale(0.22 -0.22)">
       <defs>
        <path id="CMR17-34" d="M 2150 4122 
C 2150 4256 2144 4256 2029 4256 
L 128 1254 
L 128 1088 
L 1779 1088 
L 1779 457 
C 1779 224 1766 160 1318 160 
L 1197 160 
L 1197 0 
C 1402 0 1747 0 1965 0 
C 2182 0 2528 0 2733 0 
L 2733 160 
L 2611 160 
C 2163 160 2150 224 2150 457 
L 2150 1088 
L 2803 1088 
L 2803 1254 
L 2150 1254 
L 2150 4122 
z
M 1798 3703 
L 1798 1254 
L 256 1254 
L 1798 3703 
z
" transform="scale(0.015625)"/>
       </defs>
       <use xlink:href="#CMR17-34" transform="scale(0.996264)"/>
       <use xlink:href="#CMR17-30" transform="translate(45.690477 0) scale(0.996264)"/>
       <use xlink:href="#CMR17-30" transform="translate(91.380954 0) scale(0.996264)"/>
      </g>
     </g>
    </g>
    <g id="xtick_4">
     <g id="line2d_4">
      <path d="M 447.618011 495.840956 
L 447.618011 49.831226 
" clip-path="url(#pbb12b223ed)" style="fill: none; stroke: #cccccc; stroke-linecap: round"/>
     </g>
     <g id="text_4">
      <!-- $\mathdefault{600}$ -->
      <g style="fill: #262626" transform="translate(432.540154 520.56165) scale(0.22 -0.22)">
       <defs>
        <path id="CMR17-36" d="M 678 2176 
C 678 3690 1395 4032 1811 4032 
C 1946 4032 2272 4009 2400 3776 
C 2298 3776 2106 3776 2106 3553 
C 2106 3381 2246 3323 2336 3323 
C 2394 3323 2566 3348 2566 3560 
C 2566 3954 2246 4179 1805 4179 
C 1043 4179 243 3390 243 1984 
C 243 253 966 -128 1478 -128 
C 2099 -128 2688 427 2688 1283 
C 2688 2081 2170 2662 1517 2662 
C 1126 2662 838 2407 678 1960 
L 678 2176 
z
M 1478 25 
C 691 25 691 1200 691 1436 
C 691 1896 909 2560 1504 2560 
C 1613 2560 1926 2560 2138 2120 
C 2253 1870 2253 1609 2253 1289 
C 2253 944 2253 690 2118 434 
C 1978 171 1773 25 1478 25 
z
" transform="scale(0.015625)"/>
       </defs>
       <use xlink:href="#CMR17-36" transform="scale(0.996264)"/>
       <use xlink:href="#CMR17-30" transform="translate(45.690477 0) scale(0.996264)"/>
       <use xlink:href="#CMR17-30" transform="translate(91.380954 0) scale(0.996264)"/>
      </g>
     </g>
    </g>
    <g id="xtick_5">
     <g id="line2d_5">
      <path d="M 559.773638 495.840956 
L 559.773638 49.831226 
" clip-path="url(#pbb12b223ed)" style="fill: none; stroke: #cccccc; stroke-linecap: round"/>
     </g>
     <g id="text_5">
      <!-- $\mathdefault{800}$ -->
      <g style="fill: #262626" transform="translate(544.69578 520.56165) scale(0.22 -0.22)">
       <defs>
        <path id="CMR17-38" d="M 1741 2264 
C 2144 2467 2554 2773 2554 3263 
C 2554 3841 1990 4179 1472 4179 
C 890 4179 378 3759 378 3180 
C 378 3021 416 2747 666 2505 
C 730 2442 998 2251 1171 2130 
C 883 1983 211 1634 211 934 
C 211 279 838 -128 1459 -128 
C 2144 -128 2720 362 2720 1010 
C 2720 1590 2330 1857 2074 2029 
L 1741 2264 
z
M 902 2822 
C 851 2854 595 3051 595 3351 
C 595 3739 998 4032 1459 4032 
C 1965 4032 2336 3676 2336 3262 
C 2336 2669 1670 2331 1638 2331 
C 1632 2331 1626 2331 1574 2370 
L 902 2822 
z
M 2080 1519 
C 2176 1449 2483 1240 2483 851 
C 2483 381 2010 25 1472 25 
C 890 25 448 438 448 940 
C 448 1443 838 1862 1280 2060 
L 2080 1519 
z
" transform="scale(0.015625)"/>
       </defs>
       <use xlink:href="#CMR17-38" transform="scale(0.996264)"/>
       <use xlink:href="#CMR17-30" transform="translate(45.690477 0) scale(0.996264)"/>
       <use xlink:href="#CMR17-30" transform="translate(91.380954 0) scale(0.996264)"/>
      </g>
     </g>
    </g>
    <g id="xtick_6">
     <g id="line2d_6">
      <path d="M 671.929264 495.840956 
L 671.929264 49.831226 
" clip-path="url(#pbb12b223ed)" style="fill: none; stroke: #cccccc; stroke-linecap: round"/>
     </g>
     <g id="text_6">
      <!-- $\mathdefault{1000}$ -->
      <g style="fill: #262626" transform="translate(651.825454 520.56165) scale(0.22 -0.22)">
       <defs>
        <path id="CMR17-31" d="M 1702 4058 
C 1702 4192 1696 4192 1606 4192 
C 1357 3916 979 3827 621 3827 
C 602 3827 570 3827 563 3808 
C 557 3795 557 3782 557 3648 
C 755 3648 1088 3686 1344 3839 
L 1344 461 
C 1344 236 1331 160 781 160 
L 589 160 
L 589 0 
C 896 0 1216 0 1523 0 
C 1830 0 2150 0 2458 0 
L 2458 160 
L 2266 160 
C 1715 160 1702 230 1702 458 
L 1702 4058 
z
" transform="scale(0.015625)"/>
       </defs>
       <use xlink:href="#CMR17-31" transform="scale(0.996264)"/>
       <use xlink:href="#CMR17-30" transform="translate(45.690477 0) scale(0.996264)"/>
       <use xlink:href="#CMR17-30" transform="translate(91.380954 0) scale(0.996264)"/>
       <use xlink:href="#CMR17-30" transform="translate(137.071431 0) scale(0.996264)"/>
      </g>
     </g>
    </g>
    <g id="text_7">
     <!-- Step -->
     <g style="fill: #262626" transform="translate(367.649451 545.429243) scale(0.24 -0.24)">
      <defs>
       <path id="CMSS17-53" d="M 2797 4169 
C 2515 4334 2208 4480 1690 4480 
C 864 4480 333 3879 333 3266 
C 333 3025 403 2753 653 2475 
C 902 2196 1184 2121 1542 2033 
C 1690 1994 1939 1924 1984 1906 
C 2342 1767 2515 1444 2515 1140 
C 2515 742 2202 318 1645 318 
C 1453 318 890 318 358 819 
L 269 318 
C 794 -64 1363 -128 1651 -128 
C 2438 -128 3002 488 3002 1186 
C 3002 1440 2925 1763 2656 2061 
C 2394 2347 2163 2410 1638 2549 
C 1338 2626 1146 2677 986 2873 
C 877 3013 819 3146 819 3317 
C 819 3673 1126 4060 1690 4060 
C 1971 4060 2336 4002 2707 3660 
L 2797 4169 
z
" transform="scale(0.015625)"/>
       <path id="CMSS17-74" d="M 1069 2368 
L 1901 2368 
L 1901 2737 
L 1069 2737 
L 1069 3520 
L 614 3520 
L 614 2737 
L 109 2737 
L 109 2368 
L 602 2368 
L 602 749 
C 602 384 685 -64 1107 -64 
C 1427 -64 1722 25 2003 172 
L 1901 548 
C 1747 414 1562 337 1363 337 
C 1082 337 1069 696 1069 856 
L 1069 2368 
z
" transform="scale(0.015625)"/>
       <path id="CMSS17-65" d="M 2502 1377 
C 2502 1590 2490 2003 2285 2345 
C 2061 2713 1696 2816 1421 2816 
C 755 2816 192 2188 192 1375 
C 192 582 774 -64 1510 -64 
C 1798 -64 2150 19 2470 248 
C 2470 274 2458 414 2451 420 
C 2451 433 2432 630 2432 656 
C 2125 407 1773 325 1517 325 
C 1107 325 666 667 646 1377 
L 2502 1377 
z
M 698 1728 
C 781 2084 1062 2421 1421 2421 
C 1517 2421 1965 2421 2080 1728 
L 698 1728 
z
" transform="scale(0.015625)"/>
       <path id="CMSS17-70" d="M 966 333 
C 1178 129 1466 -5 1773 -5 
C 2368 -5 2880 603 2880 1412 
C 2880 2159 2496 2816 1946 2816 
C 1626 2816 1242 2702 954 2472 
L 954 2765 
L 480 2765 
L 480 -1216 
L 966 -1216 
L 966 333 
z
M 966 2100 
C 1018 2176 1235 2415 1587 2415 
C 2035 2415 2394 1960 2394 1412 
C 2394 787 1958 384 1530 384 
C 1402 384 1267 415 1139 523 
C 966 674 966 768 966 857 
L 966 2100 
z
" transform="scale(0.015625)"/>
      </defs>
      <use xlink:href="#CMSS17-53" transform="scale(0.996264)"/>
      <use xlink:href="#CMSS17-74" transform="translate(52.048516 0) scale(0.996264)"/>
      <use xlink:href="#CMSS17-65" transform="translate(85.880083 0) scale(0.996264)"/>
      <use xlink:href="#CMSS17-70" transform="translate(127.518905 0) scale(0.996264)"/>
     </g>
    </g>
   </g>
   <g id="matplotlib.axis_2">
    <g id="ytick_1">
     <g id="line2d_7">
      <path d="M 83.392615 491.727777 
L 694.08 491.727777 
" clip-path="url(#pbb12b223ed)" style="fill: none; stroke: #cccccc; stroke-linecap: round"/>
     </g>
     <g id="text_8">
      <!-- $\mathdefault{10}$ -->
      <g style="fill: #262626" transform="translate(53.788805 499.338123) scale(0.22 -0.22)">
       <use xlink:href="#CMR17-31" transform="scale(0.996264)"/>
       <use xlink:href="#CMR17-30" transform="translate(45.690477 0) scale(0.996264)"/>
      </g>
     </g>
    </g>
    <g id="ytick_2">
     <g id="line2d_8">
      <path d="M 83.392615 441.774175 
L 694.08 441.774175 
" clip-path="url(#pbb12b223ed)" style="fill: none; stroke: #cccccc; stroke-linecap: round"/>
     </g>
     <g id="text_9">
      <!-- $\mathdefault{11}$ -->
      <g style="fill: #262626" transform="translate(53.788805 449.384522) scale(0.22 -0.22)">
       <use xlink:href="#CMR17-31" transform="scale(0.996264)"/>
       <use xlink:href="#CMR17-31" transform="translate(45.690477 0) scale(0.996264)"/>
      </g>
     </g>
    </g>
    <g id="ytick_3">
     <g id="line2d_9">
      <path d="M 83.392615 391.820574 
L 694.08 391.820574 
" clip-path="url(#pbb12b223ed)" style="fill: none; stroke: #cccccc; stroke-linecap: round"/>
     </g>
     <g id="text_10">
      <!-- $\mathdefault{12}$ -->
      <g style="fill: #262626" transform="translate(53.788805 399.430921) scale(0.22 -0.22)">
       <use xlink:href="#CMR17-31" transform="scale(0.996264)"/>
       <use xlink:href="#CMR17-32" transform="translate(45.690477 0) scale(0.996264)"/>
      </g>
     </g>
    </g>
    <g id="ytick_4">
     <g id="line2d_10">
      <path d="M 83.392615 341.866973 
L 694.08 341.866973 
" clip-path="url(#pbb12b223ed)" style="fill: none; stroke: #cccccc; stroke-linecap: round"/>
     </g>
     <g id="text_11">
      <!-- $\mathdefault{13}$ -->
      <g style="fill: #262626" transform="translate(53.788805 349.47732) scale(0.22 -0.22)">
       <defs>
        <path id="CMR17-33" d="M 1414 2157 
C 1984 2157 2234 1662 2234 1090 
C 2234 320 1824 25 1453 25 
C 1114 25 563 194 390 693 
C 422 680 454 680 486 680 
C 640 680 755 782 755 948 
C 755 1133 614 1216 486 1216 
C 378 1216 211 1165 211 926 
C 211 335 787 -128 1466 -128 
C 2176 -128 2720 430 2720 1085 
C 2720 1707 2208 2157 1600 2227 
C 2086 2328 2554 2756 2554 3329 
C 2554 3820 2048 4179 1472 4179 
C 890 4179 378 3829 378 3329 
C 378 3110 544 3072 627 3072 
C 762 3072 877 3155 877 3321 
C 877 3486 762 3569 627 3569 
C 602 3569 570 3569 544 3557 
C 730 3959 1235 4032 1459 4032 
C 1683 4032 2106 3925 2106 3320 
C 2106 3143 2080 2828 1862 2550 
C 1670 2304 1453 2304 1242 2284 
C 1210 2284 1062 2269 1037 2269 
C 992 2263 966 2257 966 2208 
C 966 2163 973 2157 1101 2157 
L 1414 2157 
z
" transform="scale(0.015625)"/>
       </defs>
       <use xlink:href="#CMR17-31" transform="scale(0.996264)"/>
       <use xlink:href="#CMR17-33" transform="translate(45.690477 0) scale(0.996264)"/>
      </g>
     </g>
    </g>
    <g id="ytick_5">
     <g id="line2d_11">
      <path d="M 83.392615 291.913372 
L 694.08 291.913372 
" clip-path="url(#pbb12b223ed)" style="fill: none; stroke: #cccccc; stroke-linecap: round"/>
     </g>
     <g id="text_12">
      <!-- $\mathdefault{14}$ -->
      <g style="fill: #262626" transform="translate(53.788805 299.523718) scale(0.22 -0.22)">
       <use xlink:href="#CMR17-31" transform="scale(0.996264)"/>
       <use xlink:href="#CMR17-34" transform="translate(45.690477 0) scale(0.996264)"/>
      </g>
     </g>
    </g>
    <g id="ytick_6">
     <g id="line2d_12">
      <path d="M 83.392615 241.95977 
L 694.08 241.95977 
" clip-path="url(#pbb12b223ed)" style="fill: none; stroke: #cccccc; stroke-linecap: round"/>
     </g>
     <g id="text_13">
      <!-- $\mathdefault{15}$ -->
      <g style="fill: #262626" transform="translate(53.788805 249.570117) scale(0.22 -0.22)">
       <defs>
        <path id="CMR17-35" d="M 730 3692 
C 794 3666 1056 3584 1325 3584 
C 1920 3584 2246 3911 2432 4100 
C 2432 4157 2432 4192 2394 4192 
C 2387 4192 2374 4192 2323 4163 
C 2099 4058 1837 3973 1517 3973 
C 1325 3973 1037 3999 723 4139 
C 653 4171 640 4171 634 4171 
C 602 4171 595 4164 595 4037 
L 595 2203 
C 595 2089 595 2057 659 2057 
C 691 2057 704 2070 736 2114 
C 941 2401 1222 2522 1542 2522 
C 1766 2522 2246 2382 2246 1289 
C 2246 1085 2246 715 2054 421 
C 1894 159 1645 25 1370 25 
C 947 25 518 320 403 814 
C 429 807 480 795 506 795 
C 589 795 749 840 749 1038 
C 749 1210 627 1280 506 1280 
C 358 1280 262 1190 262 1011 
C 262 454 704 -128 1382 -128 
C 2042 -128 2669 440 2669 1264 
C 2669 2030 2170 2624 1549 2624 
C 1222 2624 947 2503 730 2274 
L 730 3692 
z
" transform="scale(0.015625)"/>
       </defs>
       <use xlink:href="#CMR17-31" transform="scale(0.996264)"/>
       <use xlink:href="#CMR17-35" transform="translate(45.690477 0) scale(0.996264)"/>
      </g>
     </g>
    </g>
    <g id="ytick_7">
     <g id="line2d_13">
      <path d="M 83.392615 192.006169 
L 694.08 192.006169 
" clip-path="url(#pbb12b223ed)" style="fill: none; stroke: #cccccc; stroke-linecap: round"/>
     </g>
     <g id="text_14">
      <!-- $\mathdefault{16}$ -->
      <g style="fill: #262626" transform="translate(53.788805 199.616516) scale(0.22 -0.22)">
       <use xlink:href="#CMR17-31" transform="scale(0.996264)"/>
       <use xlink:href="#CMR17-36" transform="translate(45.690477 0) scale(0.996264)"/>
      </g>
     </g>
    </g>
    <g id="ytick_8">
     <g id="line2d_14">
      <path d="M 83.392615 142.052568 
L 694.08 142.052568 
" clip-path="url(#pbb12b223ed)" style="fill: none; stroke: #cccccc; stroke-linecap: round"/>
     </g>
     <g id="text_15">
      <!-- $\mathdefault{17}$ -->
      <g style="fill: #262626" transform="translate(53.788805 149.662915) scale(0.22 -0.22)">
       <defs>
        <path id="CMR17-37" d="M 2886 3941 
L 2886 4081 
L 1382 4081 
C 634 4081 621 4165 595 4288 
L 480 4288 
L 294 3094 
L 410 3094 
C 429 3215 474 3540 550 3661 
C 589 3712 1062 3712 1171 3712 
L 2579 3712 
L 1869 2661 
C 1395 1954 1069 999 1069 165 
C 1069 89 1069 -128 1299 -128 
C 1530 -128 1530 89 1530 171 
L 1530 465 
C 1530 1508 1709 2196 2003 2636 
L 2886 3941 
z
" transform="scale(0.015625)"/>
       </defs>
       <use xlink:href="#CMR17-31" transform="scale(0.996264)"/>
       <use xlink:href="#CMR17-37" transform="translate(45.690477 0) scale(0.996264)"/>
      </g>
     </g>
    </g>
    <g id="ytick_9">
     <g id="line2d_15">
      <path d="M 83.392615 92.098967 
L 694.08 92.098967 
" clip-path="url(#pbb12b223ed)" style="fill: none; stroke: #cccccc; stroke-linecap: round"/>
     </g>
     <g id="text_16">
      <!-- $\mathdefault{18}$ -->
      <g style="fill: #262626" transform="translate(53.788805 99.709313) scale(0.22 -0.22)">
       <use xlink:href="#CMR17-31" transform="scale(0.996264)"/>
       <use xlink:href="#CMR17-38" transform="translate(45.690477 0) scale(0.996264)"/>
      </g>
     </g>
    </g>
    <g id="text_17">
     <!-- Peak Signal-to-Noise Ratio (PSNR), dB -->
     <g style="fill: #262626" transform="translate(43.831226 460.306706) rotate(-90) scale(0.24 -0.24)">
      <defs>
       <path id="CMSS17-50" d="M 2106 1856 
C 2874 1856 3501 2453 3501 3158 
C 3501 3850 2899 4453 2067 4453 
L 570 4453 
L 570 0 
L 1107 0 
L 1107 1856 
L 2106 1856 
z
M 1926 4096 
C 2669 4096 2995 3627 2995 3157 
C 2995 2720 2694 2226 1926 2226 
L 1094 2226 
L 1094 4096 
L 1926 4096 
z
" transform="scale(0.015625)"/>
       <path id="CMSS17-61" d="M 2406 1791 
C 2406 2392 1978 2808 1402 2808 
C 1120 2808 813 2757 461 2553 
L 499 2135 
C 659 2248 934 2432 1395 2432 
C 1722 2432 1920 2180 1920 1782 
L 1920 1536 
C 896 1536 256 1238 256 726 
C 256 461 416 -64 947 -64 
C 1043 -64 1562 -64 1933 217 
L 1933 -19 
L 2406 -19 
L 2406 1791 
z
M 1920 816 
C 1920 701 1920 548 1728 434 
C 1562 325 1350 325 1261 325 
C 941 325 723 511 723 744 
C 723 1211 1722 1211 1920 1211 
L 1920 816 
z
" transform="scale(0.015625)"/>
       <path id="CMSS17-6b" d="M 1696 1688 
L 2688 2739 
L 2074 2739 
L 954 1554 
L 954 4416 
L 480 4416 
L 480 0 
L 947 0 
L 947 892 
L 1376 1344 
L 2278 0 
L 2822 0 
L 1696 1688 
z
" transform="scale(0.015625)"/>
       <path id="CMSS17-69" d="M 979 4183 
L 442 4183 
L 442 3648 
L 979 3648 
L 979 4183 
z
M 947 2739 
L 474 2739 
L 474 0 
L 947 0 
L 947 2739 
z
" transform="scale(0.015625)"/>
       <path id="CMSS17-67" d="M 2848 2808 
C 2483 2808 2170 2738 1914 2617 
C 1702 2777 1485 2808 1338 2808 
C 781 2808 358 2349 358 1814 
C 358 1468 550 1207 563 1195 
C 448 1035 384 863 384 672 
C 384 448 474 289 544 200 
C 211 -3 166 -314 166 -435 
C 166 -898 749 -1280 1498 -1280 
C 2253 -1280 2835 -898 2835 -428 
C 2835 448 1856 448 1587 448 
L 1069 448 
C 973 448 717 448 717 791 
C 717 921 774 1004 781 1010 
C 877 940 1075 832 1338 832 
C 1869 832 2310 1278 2310 1827 
C 2310 2132 2170 2355 2112 2432 
L 2131 2432 
C 2150 2432 2419 2432 2515 2432 
C 2720 2432 2739 2429 2918 2419 
L 2848 2808 
z
M 1338 1182 
C 1120 1182 813 1315 813 1823 
C 813 2375 1165 2464 1331 2464 
C 1549 2464 1856 2331 1856 1823 
C 1856 1271 1504 1182 1338 1182 
z
M 1581 -10 
C 1734 -10 2381 -10 2381 -442 
C 2381 -714 1984 -929 1504 -929 
C 1018 -929 621 -720 621 -435 
C 621 -403 621 -10 1062 -10 
L 1581 -10 
z
" transform="scale(0.015625)"/>
       <path id="CMSS17-6e" d="M 2618 1877 
C 2618 2283 2522 2816 1798 2816 
C 1389 2816 1120 2606 941 2389 
L 941 2758 
L 474 2758 
L 474 0 
L 960 0 
L 960 1559 
C 960 1964 1114 2428 1549 2428 
C 2112 2428 2131 2048 2131 1829 
L 2131 0 
L 2618 0 
L 2618 1877 
z
" transform="scale(0.015625)"/>
       <path id="CMSS17-6c" d="M 947 4416 
L 474 4416 
L 474 0 
L 947 0 
L 947 4416 
z
" transform="scale(0.015625)"/>
       <path id="CMSS17-2d" d="M 1664 1216 
L 1664 1585 
L 64 1585 
L 64 1216 
L 1664 1216 
z
" transform="scale(0.015625)"/>
       <path id="CMSS17-6f" d="M 2829 1356 
C 2829 2176 2221 2816 1504 2816 
C 768 2816 173 2157 173 1356 
C 173 544 787 -64 1498 -64 
C 2227 -64 2829 563 2829 1356 
z
M 1504 337 
C 1050 337 659 709 659 1408 
C 659 2151 1114 2427 1498 2427 
C 1914 2427 2342 2126 2342 1408 
C 2342 683 1926 337 1504 337 
z
" transform="scale(0.015625)"/>
       <path id="CMSS17-4e" d="M 1466 4180 
L 1350 4416 
L 563 4416 
L 563 0 
L 1062 0 
L 1062 3926 
L 1069 3932 
C 1114 3817 1139 3760 1402 3194 
L 2771 236 
L 2886 0 
L 3674 0 
L 3674 4416 
L 3174 4416 
L 3174 490 
L 3168 483 
C 3123 598 3098 655 2835 1221 
L 1466 4180 
z
" transform="scale(0.015625)"/>
       <path id="CMSS17-73" d="M 2061 2627 
C 1683 2807 1389 2807 1197 2807 
C 742 2807 198 2648 198 2003 
C 198 1359 902 1218 1094 1179 
C 1389 1122 1715 1058 1715 740 
C 1715 337 1254 337 1171 337 
C 915 337 563 407 243 638 
L 166 210 
C 531 0 883 -64 1178 -64 
C 1965 -64 2163 416 2163 781 
C 2163 1094 1984 1305 1862 1401 
C 1651 1568 1574 1587 1050 1696 
C 960 1709 646 1779 646 2066 
C 646 2432 1050 2432 1139 2432 
C 1555 2432 1811 2303 1984 2208 
L 2061 2627 
z
" transform="scale(0.015625)"/>
       <path id="CMSS17-52" d="M 2522 2109 
L 2534 2115 
C 3533 2459 3539 3147 3539 3268 
C 3539 3873 2925 4453 2003 4453 
L 570 4453 
L 570 32 
L 1094 32 
L 1094 2048 
L 2035 2048 
L 3168 32 
L 3706 32 
L 2522 2109 
z
M 1094 2437 
L 1094 4096 
L 1933 4096 
C 2746 4096 3034 3637 3034 3267 
C 3034 2922 2778 2437 1933 2437 
L 1094 2437 
z
" transform="scale(0.015625)"/>
       <path id="CMSS17-28" d="M 1613 4768 
C 1267 4417 474 3601 474 1588 
C 474 -433 1267 -1243 1613 -1600 
L 2003 -1600 
C 1216 -784 960 357 960 1581 
C 960 2798 1203 3946 2003 4768 
L 1613 4768 
z
" transform="scale(0.015625)"/>
       <path id="CMSS17-29" d="M 723 -1600 
C 1069 -1249 1862 -433 1862 1581 
C 1862 3601 1069 4411 723 4768 
L 333 4768 
C 1120 3952 1376 2811 1376 1588 
C 1376 370 1133 -778 333 -1600 
L 723 -1600 
z
" transform="scale(0.015625)"/>
       <path id="CMSS17-2c" d="M 1088 6 
L 1088 510 
L 576 510 
L 576 0 
L 736 0 
L 570 -800 
L 826 -800 
L 1088 6 
z
" transform="scale(0.015625)"/>
       <path id="CMSS17-64" d="M 2611 4416 
L 2138 4416 
L 2138 2438 
C 1939 2603 1613 2756 1254 2756 
C 672 2756 211 2131 211 1347 
C 211 562 666 -64 1235 -64 
C 1677 -64 1971 172 2125 306 
L 2125 -13 
L 2611 -13 
L 2611 4416 
z
M 2125 836 
C 2125 747 2125 653 1926 482 
C 1798 375 1645 325 1498 325 
C 1152 325 698 576 698 1340 
C 698 2134 1210 2368 1562 2368 
C 1798 2368 1990 2254 2125 2065 
L 2125 836 
z
" transform="scale(0.015625)"/>
       <path id="CMSS17-42" d="M 570 4416 
L 570 0 
L 2163 0 
C 3034 0 3667 574 3667 1200 
C 3667 1685 3251 2176 2502 2317 
C 3334 2558 3501 3040 3501 3313 
C 3501 3883 2874 4416 1997 4416 
L 570 4416 
z
M 1088 2496 
L 1088 4059 
L 1824 4059 
C 2483 4059 3002 3724 3002 3306 
C 3002 2926 2592 2496 1766 2496 
L 1088 2496 
z
M 1088 357 
L 1088 2107 
L 1939 2107 
C 2630 2107 3162 1679 3162 1206 
C 3162 772 2694 357 1984 357 
L 1088 357 
z
" transform="scale(0.015625)"/>
      </defs>
      <use xlink:href="#CMSS17-50" transform="scale(0.996264)"/>
      <use xlink:href="#CMSS17-65" transform="translate(57.133132 0) scale(0.996264)"/>
      <use xlink:href="#CMSS17-61" transform="translate(98.771954 0) scale(0.996264)"/>
      <use xlink:href="#CMSS17-6b" transform="translate(143.693875 0) scale(0.996264)"/>
      <use xlink:href="#CMSS17-53" transform="translate(220.525477 0) scale(0.996264)"/>
      <use xlink:href="#CMSS17-69" transform="translate(272.573993 0) scale(0.996264)"/>
      <use xlink:href="#CMSS17-67" transform="translate(294.754716 0) scale(0.996264)"/>
      <use xlink:href="#CMSS17-6e" transform="translate(341.59834 0) scale(0.996264)"/>
      <use xlink:href="#CMSS17-61" transform="translate(389.803283 0) scale(0.996264)"/>
      <use xlink:href="#CMSS17-6c" transform="translate(434.725203 0) scale(0.996264)"/>
      <use xlink:href="#CMSS17-2d" transform="translate(456.905927 0) scale(0.996264)"/>
      <use xlink:href="#CMSS17-74" transform="translate(488.135039 0) scale(0.996264)"/>
      <use xlink:href="#CMSS17-6f" transform="translate(521.966606 0) scale(0.996264)"/>
      <use xlink:href="#CMSS17-2d" transform="translate(568.810229 0) scale(0.996264)"/>
      <use xlink:href="#CMSS17-4e" transform="translate(600.039342 0) scale(0.996264)"/>
      <use xlink:href="#CMSS17-6f" transform="translate(666.100861 0) scale(0.996264)"/>
      <use xlink:href="#CMSS17-69" transform="translate(712.944485 0) scale(0.996264)"/>
      <use xlink:href="#CMSS17-73" transform="translate(735.125208 0) scale(0.996264)"/>
      <use xlink:href="#CMSS17-65" transform="translate(771.03875 0) scale(0.996264)"/>
      <use xlink:href="#CMSS17-52" transform="translate(843.906685 0) scale(0.996264)"/>
      <use xlink:href="#CMSS17-61" transform="translate(904.32284 0) scale(0.996264)"/>
      <use xlink:href="#CMSS17-74" transform="translate(949.24476 0) scale(0.996264)"/>
      <use xlink:href="#CMSS17-69" transform="translate(983.076327 0) scale(0.996264)"/>
      <use xlink:href="#CMSS17-6f" transform="translate(1005.25705 0) scale(0.996264)"/>
      <use xlink:href="#CMSS17-28" transform="translate(1083.329786 0) scale(0.996264)"/>
      <use xlink:href="#CMSS17-50" transform="translate(1119.7637 0) scale(0.996264)"/>
      <use xlink:href="#CMSS17-53" transform="translate(1179.499287 0) scale(0.996264)"/>
      <use xlink:href="#CMSS17-4e" transform="translate(1231.547803 0) scale(0.996264)"/>
      <use xlink:href="#CMSS17-52" transform="translate(1297.609322 0) scale(0.996264)"/>
      <use xlink:href="#CMSS17-29" transform="translate(1358.025477 0) scale(0.996264)"/>
      <use xlink:href="#CMSS17-2c" transform="translate(1394.459391 0) scale(0.996264)"/>
      <use xlink:href="#CMSS17-64" transform="translate(1451.712709 0) scale(0.996264)"/>
      <use xlink:href="#CMSS17-42" transform="translate(1499.917652 0) scale(0.996264)"/>
     </g>
    </g>
   </g>
   <g id="PolyCollection_1">
    <defs>
     <path id="me3aeeffb0e" d="M 111.151132 -356.404457 
L 111.151132 -343.086827 
L 116.758914 -354.221485 
L 122.366695 -355.750065 
L 127.974476 -355.365422 
L 133.582258 -356.344513 
L 139.190039 -356.269582 
L 144.79782 -356.92897 
L 150.405602 -357.033872 
L 156.013383 -357.163752 
L 161.621164 -355.640167 
L 167.228946 -359.28678 
L 172.836727 -359.401673 
L 178.444508 -359.201859 
L 184.052289 -359.886223 
L 189.660071 -359.651441 
L 195.267852 -359.676418 
L 200.875633 -359.411664 
L 206.483415 -362.62368 
L 212.091196 -362.368917 
L 217.698977 -362.573727 
L 223.306759 -362.563736 
L 228.91454 -362.588713 
L 234.522321 -362.583717 
L 240.130103 -362.593708 
L 245.737884 -361.609622 
L 251.345665 -361.190012 
L 256.953447 -360.765406 
L 262.561228 -353.012607 
L 268.169009 -359.136919 
L 273.776791 -356.654225 
L 279.384572 -357.168747 
L 284.992353 -356.809081 
L 290.600134 -359.171886 
L 296.207916 -360.026093 
L 301.815697 -360.111014 
L 307.423478 -360.185944 
L 313.03126 -360.625536 
L 318.639041 -360.325815 
L 324.246822 -351.284213 
L 329.854604 -343.990987 
L 335.462385 -344.260736 
L 341.070166 -356.369489 
L 346.677948 -348.46683 
L 352.285729 -348.491806 
L 357.89351 -348.152122 
L 363.501292 -347.967294 
L 369.109073 -347.807442 
L 374.716854 -348.531769 
L 380.324635 -366.000544 
L 385.932417 -367.728938 
L 391.540198 -107.505643 
L 397.147979 -107.640518 
L 402.755761 -108.289915 
L 408.363542 -108.579646 
L 413.971323 -108.394817 
L 419.579105 -108.744493 
L 425.186886 -108.829414 
L 430.794667 -108.724511 
L 436.402449 -108.969284 
L 442.01023 -108.749488 
L 447.618011 -109.713592 
L 453.225793 -109.743565 
L 458.833574 -109.758551 
L 464.441355 -110.053277 
L 470.049137 -112.750771 
L 475.656918 -113.300261 
L 481.264699 -113.330233 
L 486.87248 -113.245312 
L 492.480262 -113.245312 
L 498.088043 -113.245312 
L 503.695824 -113.260298 
L 509.303606 -113.265293 
L 514.911387 -113.260298 
L 520.519168 -100.432213 
L 526.12695 -107.59556 
L 531.734731 -115.213484 
L 537.342512 -114.53911 
L 542.950294 -115.178516 
L 548.558075 -115.77796 
L 554.165856 -104.663283 
L 559.773638 -133.651358 
L 565.381419 -147.023937 
L 570.9892 -147.013946 
L 576.596981 -145.455394 
L 582.204763 -145.615246 
L 587.812544 -145.924958 
L 593.420325 -147.453538 
L 599.028107 -150.061116 
L 604.635888 -148.332722 
L 610.243669 -137.402874 
L 615.851451 -146.98897 
L 621.459232 -147.303677 
L 627.067013 -151.554729 
L 632.674795 -150.320875 
L 638.282576 -161.540454 
L 643.890357 -160.556368 
L 649.498139 -159.752115 
L 655.10592 -160.376535 
L 660.713701 -160.636294 
L 666.321482 -155.660915 
L 666.321482 -234.642554 
L 666.321482 -234.642554 
L 660.713701 -239.023485 
L 655.10592 -266.108327 
L 649.498139 -267.132376 
L 643.890357 -269.620065 
L 638.282576 -252.480985 
L 632.674795 -256.84693 
L 627.067013 -265.194176 
L 621.459232 -266.70777 
L 615.851451 -268.146434 
L 610.243669 -265.109255 
L 604.635888 -262.062086 
L 599.028107 -261.402698 
L 593.420325 -253.914653 
L 587.812544 -222.823532 
L 582.204763 -222.029269 
L 576.596981 -195.918522 
L 570.9892 -184.549082 
L 565.381419 -191.422698 
L 559.773638 -198.920734 
L 554.165856 -199.055608 
L 548.558075 -198.406211 
L 542.950294 -198.241365 
L 537.342512 -197.781791 
L 531.734731 -197.492061 
L 526.12695 -196.328142 
L 520.519168 -194.614733 
L 514.911387 -182.471013 
L 509.303606 -174.458455 
L 503.695824 -175.892123 
L 498.088043 -168.149315 
L 492.480262 -161.550444 
L 486.87248 -161.55544 
L 481.264699 -161.310667 
L 475.656918 -158.678112 
L 470.049137 -158.663126 
L 464.441355 -166.635721 
L 458.833574 -154.052409 
L 453.225793 -159.916962 
L 447.618011 -160.341567 
L 442.01023 -144.471308 
L 436.402449 -142.008596 
L 430.794667 -141.818772 
L 425.186886 -142.063545 
L 419.579105 -139.770674 
L 413.971323 -136.808426 
L 408.363542 -122.766468 
L 402.755761 -121.018092 
L 397.147979 -121.227898 
L 391.540198 -119.044925 
L 385.932417 -390.547743 
L 380.324635 -397.586206 
L 374.716854 -397.741062 
L 369.109073 -397.835974 
L 363.501292 -393.83469 
L 357.89351 -393.425071 
L 352.285729 -384.508353 
L 346.677948 -372.11986 
L 341.070166 -374.597558 
L 335.462385 -376.575721 
L 329.854604 -376.261013 
L 324.246822 -376.246027 
L 318.639041 -376.580716 
L 313.03126 -376.595703 
L 307.423478 -376.455832 
L 301.815697 -376.4908 
L 296.207916 -376.605693 
L 290.600134 -376.675628 
L 284.992353 -376.710596 
L 279.384572 -376.470819 
L 273.776791 -375.846398 
L 268.169009 -374.422721 
L 262.561228 -369.986841 
L 256.953447 -372.924113 
L 251.345665 -384.46839 
L 245.737884 -391.19714 
L 240.130103 -394.084458 
L 234.522321 -389.80843 
L 228.91454 -396.477236 
L 223.306759 -396.467245 
L 217.698977 -395.902769 
L 212.091196 -393.579927 
L 206.483415 -395.792871 
L 200.875633 -378.329092 
L 195.267852 -376.116148 
L 189.660071 -376.116148 
L 184.052289 -374.762405 
L 178.444508 -374.377763 
L 172.836727 -374.073046 
L 167.228946 -373.623463 
L 161.621164 -373.623463 
L 156.013383 -372.854178 
L 150.405602 -373.323742 
L 144.79782 -372.74428 
L 139.190039 -369.777036 
L 133.582258 -369.946878 
L 127.974476 -366.110442 
L 122.366695 -364.052353 
L 116.758914 -363.078258 
L 111.151132 -356.404457 
z
" style="stroke: #ffffff; stroke-opacity: 0.2"/>
    </defs>
    <g clip-path="url(#pbb12b223ed)">
     <use xlink:href="#me3aeeffb0e" x="0" y="576" style="fill: #4c72b0; fill-opacity: 0.2; stroke: #ffffff; stroke-opacity: 0.2"/>
    </g>
   </g>
   <g id="PolyCollection_2">
    <defs>
     <path id="m128b35d072" d="M 111.151132 -355.385403 
L 111.151132 -333.505726 
L 116.758914 -333.635605 
L 122.366695 -344.585435 
L 127.974476 -358.697327 
L 133.582258 -358.727299 
L 139.190039 -358.757271 
L 144.79782 -359.756344 
L 150.405602 -359.276789 
L 156.013383 -359.701395 
L 161.621164 -358.697327 
L 167.228946 -359.84626 
L 172.836727 -361.010179 
L 178.444508 -364.49694 
L 184.052289 -364.986486 
L 189.660071 -366.904704 
L 195.267852 -366.819783 
L 200.875633 -366.879727 
L 206.483415 -366.849755 
L 212.091196 -365.900636 
L 217.698977 -366.894713 
L 223.306759 -366.834769 
L 228.91454 -365.780748 
L 234.522321 -368.902848 
L 240.130103 -345.045008 
L 245.737884 -346.313829 
L 251.345665 -347.657581 
L 256.953447 -348.252029 
L 262.561228 -369.846971 
L 268.169009 -369.831985 
L 273.776791 -369.851966 
L 279.384572 -368.203497 
L 284.992353 -357.938032 
L 290.600134 -366.210349 
L 296.207916 -369.377407 
L 301.815697 -368.817927 
L 307.423478 -357.62832 
L 313.03126 -374.607549 
L 318.639041 -374.177948 
L 324.246822 -372.049925 
L 329.854604 -373.653435 
L 335.462385 -373.308756 
L 341.070166 -368.86788 
L 346.677948 -366.325242 
L 352.285729 -370.536331 
L 357.89351 -359.616473 
L 363.501292 -363.542827 
L 369.109073 -361.02017 
L 374.716854 -359.471608 
L 380.324635 -356.309545 
L 385.932417 -361.839409 
L 391.540198 -110.343008 
L 397.147979 -110.487873 
L 402.755761 -112.391105 
L 408.363542 -112.431068 
L 413.971323 -112.580929 
L 419.579105 -112.515989 
L 425.186886 -111.317103 
L 430.794667 -111.182228 
L 436.402449 -112.226259 
L 442.01023 -114.843827 
L 447.618011 -117.001823 
L 453.225793 -117.076753 
L 458.833574 -119.624387 
L 464.441355 -119.009958 
L 470.049137 -118.450477 
L 475.656918 -122.182011 
L 481.264699 -122.052132 
L 486.87248 -122.736496 
L 492.480262 -124.984408 
L 498.088043 -123.00125 
L 503.695824 -123.076181 
L 509.303606 -122.921325 
L 514.911387 -122.801436 
L 520.519168 -123.440842 
L 526.12695 -123.680619 
L 531.734731 -124.374974 
L 537.342512 -125.039357 
L 542.950294 -124.974418 
L 548.558075 -122.656571 
L 554.165856 -122.012169 
L 559.773638 -119.80422 
L 565.381419 -118.800152 
L 570.9892 -117.341507 
L 576.596981 -117.526336 
L 582.204763 -112.610901 
L 587.812544 -118.045853 
L 593.420325 -117.056772 
L 599.028107 -117.261582 
L 604.635888 -116.077681 
L 610.243669 -115.0886 
L 615.851451 -114.404236 
L 621.459232 -113.894709 
L 627.067013 -113.909695 
L 632.674795 -113.799797 
L 638.282576 -113.604978 
L 643.890357 -112.740781 
L 649.498139 -112.855674 
L 655.10592 -115.373335 
L 660.713701 -107.565588 
L 666.321482 -144.486294 
L 666.321482 -269.565116 
L 666.321482 -269.565116 
L 660.713701 -269.719973 
L 655.10592 -258.610292 
L 649.498139 -256.662101 
L 643.890357 -297.149495 
L 638.282576 -301.880101 
L 632.674795 -299.227565 
L 627.067013 -308.394051 
L 621.459232 -314.103747 
L 615.851451 -301.510444 
L 610.243669 -294.362084 
L 604.635888 -304.907289 
L 599.028107 -300.436442 
L 593.420325 -302.224781 
L 587.812544 -311.221425 
L 582.204763 -299.976869 
L 576.596981 -297.569105 
L 570.9892 -297.733952 
L 565.381419 -296.095474 
L 559.773638 -300.920992 
L 554.165856 -295.820729 
L 548.558075 -300.606284 
L 542.950294 -300.401475 
L 537.342512 -298.293433 
L 531.734731 -295.511017 
L 526.12695 -270.93884 
L 520.519168 -276.573607 
L 514.911387 -251.611792 
L 509.303606 -231.895106 
L 503.695824 -231.40556 
L 498.088043 -230.141734 
L 492.480262 -235.306937 
L 486.87248 -232.969108 
L 481.264699 -217.993019 
L 475.656918 -218.527522 
L 470.049137 -217.728264 
L 464.441355 -218.027986 
L 458.833574 -216.96897 
L 453.225793 -226.814824 
L 447.618011 -222.004293 
L 442.01023 -220.895323 
L 436.402449 -203.356613 
L 430.794667 -197.397149 
L 425.186886 -206.56863 
L 419.579105 -192.007155 
L 413.971323 -178.914316 
L 408.363542 -178.564641 
L 402.755761 -176.716358 
L 397.147979 -163.868292 
L 391.540198 -130.609184 
L 385.932417 -422.647928 
L 380.324635 -423.567074 
L 374.716854 -423.002598 
L 369.109073 -428.692313 
L 363.501292 -403.770462 
L 357.89351 -377.789594 
L 352.285729 -386.886144 
L 346.677948 -377.754626 
L 341.070166 -390.797511 
L 335.462385 -390.592702 
L 329.854604 -391.217122 
L 324.246822 -390.677623 
L 318.639041 -387.615467 
L 313.03126 -390.612683 
L 307.423478 -426.739127 
L 301.815697 -418.052196 
L 296.207916 -418.092159 
L 290.600134 -418.072178 
L 284.992353 -414.57043 
L 279.384572 -417.043133 
L 273.776791 -419.870507 
L 268.169009 -421.384101 
L 262.561228 -422.153387 
L 256.953447 -422.702876 
L 251.345665 -422.582988 
L 245.737884 -422.388169 
L 240.130103 -432.983328 
L 234.522321 -465.61302 
L 228.91454 -486.473644 
L 223.306759 -475.483852 
L 217.698977 -463.035414 
L 212.091196 -465.278331 
L 206.483415 -454.333497 
L 200.875633 -455.022856 
L 195.267852 -452.450246 
L 189.660071 -444.362758 
L 184.052289 -444.59754 
L 178.444508 -440.57128 
L 172.836727 -442.944076 
L 167.228946 -426.28455 
L 161.621164 -424.960779 
L 156.013383 -422.298252 
L 150.405602 -414.655351 
L 144.79782 -415.214832 
L 139.190039 -424.096582 
L 133.582258 -407.232246 
L 127.974476 -404.954362 
L 122.366695 -400.718297 
L 116.758914 -366.320247 
L 111.151132 -355.385403 
z
" style="stroke: #ffffff; stroke-opacity: 0.2"/>
    </defs>
    <g clip-path="url(#pbb12b223ed)">
     <use xlink:href="#m128b35d072" x="0" y="576" style="fill: #dd8452; fill-opacity: 0.2; stroke: #ffffff; stroke-opacity: 0.2"/>
    </g>
   </g>
   <g id="PolyCollection_3">
    <defs>
     <path id="ma4fdc6457b" d="M 111.151132 -353.522134 
L 111.151132 -340.958803 
L 116.758914 -346.263876 
L 122.366695 -346.303839 
L 127.974476 -345.569521 
L 133.582258 -347.36785 
L 139.190039 -345.719382 
L 144.79782 -349.126217 
L 150.405602 -349.106236 
L 156.013383 -348.316969 
L 161.621164 -351.404101 
L 167.228946 -351.968577 
L 172.836727 -353.776897 
L 178.444508 -351.59892 
L 184.052289 -345.864247 
L 189.660071 -346.38876 
L 195.267852 -351.069412 
L 200.875633 -351.903637 
L 206.483415 -350.195224 
L 212.091196 -345.005045 
L 217.698977 -347.477748 
L 223.306759 -345.784321 
L 228.91454 -348.406885 
L 234.522321 -352.263303 
L 240.130103 -348.941389 
L 245.737884 -352.627965 
L 251.345665 -347.247962 
L 256.953447 -350.7597 
L 262.561228 -341.483316 
L 268.169009 -348.346941 
L 273.776791 -352.70789 
L 279.384572 -338.855757 
L 284.992353 -350.804658 
L 290.600134 -350.439997 
L 296.207916 -346.738435 
L 301.815697 -354.556174 
L 307.423478 -356.30455 
L 313.03126 -356.014819 
L 318.639041 -354.606127 
L 324.246822 -354.995765 
L 329.854604 -363.882511 
L 335.462385 -360.205926 
L 341.070166 -363.662715 
L 346.677948 -367.13449 
L 352.285729 -362.488806 
L 357.89351 -363.058277 
L 363.501292 -364.686764 
L 369.109073 -361.759483 
L 374.716854 -362.254024 
L 380.324635 -361.634599 
L 385.932417 -339.979713 
L 391.540198 -110.283063 
L 397.147979 -111.07233 
L 402.755761 -112.061412 
L 408.363542 -110.752627 
L 413.971323 -108.010175 
L 419.579105 -110.173166 
L 425.186886 -109.513778 
L 430.794667 -109.918402 
L 436.402449 -108.789451 
L 442.01023 -109.114149 
L 447.618011 -109.149117 
L 453.225793 -108.964288 
L 458.833574 -110.108226 
L 464.441355 -110.318031 
L 470.049137 -109.768541 
L 475.656918 -115.563159 
L 481.264699 -115.313391 
L 486.87248 -114.813855 
L 492.480262 -122.36684 
L 498.088043 -120.588491 
L 503.695824 -135.459679 
L 509.303606 -129.839898 
L 514.911387 -131.788089 
L 520.519168 -155.700878 
L 526.12695 -172.989819 
L 531.734731 -183.47508 
L 537.342512 -145.435413 
L 542.950294 -139.02137 
L 548.558075 -164.078097 
L 554.165856 -167.844598 
L 559.773638 -166.046269 
L 565.381419 -167.689742 
L 570.9892 -164.557651 
L 576.596981 -169.567997 
L 582.204763 -170.022575 
L 587.812544 -172.23552 
L 593.420325 -170.407218 
L 599.028107 -172.675111 
L 604.635888 -170.916745 
L 610.243669 -164.982257 
L 615.851451 -170.22239 
L 621.459232 -154.167302 
L 627.067013 -136.278918 
L 632.674795 -132.482444 
L 638.282576 -137.28798 
L 643.890357 -142.942728 
L 649.498139 -141.64893 
L 655.10592 -142.603043 
L 660.713701 -127.70688 
L 666.321482 -123.620675 
L 666.321482 -269.105543 
L 666.321482 -269.105543 
L 660.713701 -268.640975 
L 655.10592 -271.293511 
L 649.498139 -265.513879 
L 643.890357 -250.872479 
L 638.282576 -251.731681 
L 632.674795 -244.608297 
L 627.067013 -251.207168 
L 621.459232 -252.27118 
L 615.851451 -254.90873 
L 610.243669 -248.130026 
L 604.635888 -251.152219 
L 599.028107 -256.682083 
L 593.420325 -251.327057 
L 587.812544 -252.296156 
L 582.204763 -247.77036 
L 576.596981 -247.365736 
L 570.9892 -243.868984 
L 565.381419 -235.846436 
L 559.773638 -237.63977 
L 554.165856 -206.798416 
L 548.558075 -202.602314 
L 542.950294 -197.257279 
L 537.342512 -197.542014 
L 531.734731 -196.957557 
L 526.12695 -203.046901 
L 520.519168 -206.218955 
L 514.911387 -205.929224 
L 509.303606 -207.95734 
L 503.695824 -207.143096 
L 498.088043 -205.809335 
L 492.480262 -191.10799 
L 486.87248 -196.173285 
L 481.264699 -195.154232 
L 475.656918 -190.023997 
L 470.049137 -187.266558 
L 464.441355 -186.247505 
L 458.833574 -183.320224 
L 453.225793 -182.02143 
L 447.618011 -181.087298 
L 442.01023 -180.642711 
L 436.402449 -179.638643 
L 430.794667 -174.353552 
L 425.186886 -173.489355 
L 419.579105 -161.335644 
L 413.971323 -162.464595 
L 408.363542 -153.722715 
L 402.755761 -150.895341 
L 397.147979 -142.707946 
L 391.540198 -132.782165 
L 385.932417 -472.811334 
L 380.324635 -448.26913 
L 374.716854 -444.272841 
L 369.109073 -449.647849 
L 363.501292 -452.215464 
L 357.89351 -473.081083 
L 352.285729 -458.444678 
L 346.677948 -485.329706 
L 341.070166 -482.232583 
L 335.462385 -483.636279 
L 329.854604 -483.965973 
L 324.246822 -473.285893 
L 318.639041 -505.895604 
L 313.03126 -505.091351 
L 307.423478 -486.223876 
L 301.815697 -479.864782 
L 296.207916 -477.586898 
L 290.600134 -479.864782 
L 284.992353 -485.434609 
L 279.384572 -492.992589 
L 273.776791 -498.692295 
L 268.169009 -497.033835 
L 262.561228 -467.771016 
L 256.953447 -450.671898 
L 251.345665 -454.753107 
L 245.737884 -449.288183 
L 240.130103 -463.465015 
L 234.522321 -453.978826 
L 228.91454 -452.894833 
L 223.306759 -460.203045 
L 217.698977 -465.518108 
L 212.091196 -459.243936 
L 206.483415 -453.224527 
L 200.875633 -463.604885 
L 195.267852 -465.777867 
L 189.660071 -462.0813 
L 184.052289 -447.634719 
L 178.444508 -450.137394 
L 172.836727 -449.063392 
L 167.228946 -448.778656 
L 161.621164 -422.81777 
L 156.013383 -410.259434 
L 150.405602 -394.678906 
L 144.79782 -394.464106 
L 139.190039 -396.532185 
L 133.582258 -395.398238 
L 127.974476 -405.643722 
L 122.366695 -401.452614 
L 116.758914 -361.015174 
L 111.151132 -353.522134 
z
" style="stroke: #ffffff; stroke-opacity: 0.2"/>
    </defs>
    <g clip-path="url(#pbb12b223ed)">
     <use xlink:href="#ma4fdc6457b" x="0" y="576" style="fill: #55a868; fill-opacity: 0.2; stroke: #ffffff; stroke-opacity: 0.2"/>
    </g>
   </g>
   <g id="line2d_16">
    <path d="M 111.151132 227.593115 
L 116.758914 215.309524 
L 122.366695 213.38631 
L 127.974476 212.207405 
L 133.582258 209.335073 
L 139.190039 209.255148 
L 144.79782 208.395946 
L 150.405602 208.395946 
L 156.013383 208.370969 
L 161.621164 208.440904 
L 167.228946 206.407792 
L 172.836727 204.499565 
L 178.444508 202.951003 
L 184.052289 202.970985 
L 189.660071 205.438693 
L 195.267852 211.403153 
L 200.875633 201.891987 
L 206.483415 201.886991 
L 212.091196 201.886991 
L 217.698977 201.901978 
L 223.306759 201.901978 
L 228.91454 201.881996 
L 234.522321 202.661272 
L 240.130103 203.415572 
L 245.737884 204.01002 
L 251.345665 203.860159 
L 256.953447 206.327867 
L 262.561228 207.946363 
L 268.169009 206.202983 
L 273.776791 206.297894 
L 279.384572 207.266994 
L 284.992353 206.168015 
L 290.600134 202.811133 
L 296.207916 202.721217 
L 301.815697 203.850168 
L 307.423478 203.745265 
L 313.03126 205.498637 
L 318.639041 204.749333 
L 324.246822 204.574495 
L 329.854604 203.825191 
L 335.462385 203.790224 
L 341.070166 204.84924 
L 346.677948 205.903261 
L 352.285729 206.078099 
L 357.89351 206.217969 
L 363.501292 206.277913 
L 369.109073 206.277913 
L 374.716854 205.54859 
L 380.324635 203.415572 
L 385.932417 203.39559 
L 391.540198 464.473092 
L 397.147979 459.123061 
L 402.755761 458.808353 
L 408.363542 459.397806 
L 413.971323 458.918251 
L 419.579105 458.558585 
L 425.186886 458.123989 
L 430.794667 459.272922 
L 436.402449 459.322876 
L 442.01023 458.408725 
L 447.618011 461.365978 
L 453.225793 454.142687 
L 458.833574 453.723077 
L 464.441355 452.37433 
L 470.049137 456.600404 
L 475.656918 451.605044 
L 481.264699 443.112932 
L 486.87248 438.157535 
L 492.480262 440.075753 
L 498.088043 434.455973 
L 503.695824 434.261154 
L 509.303606 438.50721 
L 514.911387 439.286486 
L 520.519168 440.435419 
L 526.12695 440.889997 
L 531.734731 416.657505 
L 537.342512 421.058417 
L 542.950294 422.247313 
L 548.558075 423.750916 
L 554.165856 424.600127 
L 559.773638 419.979419 
L 565.381419 407.271223 
L 570.9892 410.413305 
L 576.596981 405.642736 
L 582.204763 408.575012 
L 587.812544 418.400885 
L 593.420325 420.443988 
L 599.028107 411.542256 
L 604.635888 411.787029 
L 610.243669 414.594421 
L 615.851451 396.061635 
L 621.459232 396.516213 
L 627.067013 396.765981 
L 632.674795 397.080688 
L 638.282576 397.210568 
L 643.890357 389.367852 
L 649.498139 381.610058 
L 655.10592 377.888515 
L 660.713701 376.145134 
L 666.321482 375.81544 
" clip-path="url(#pbb12b223ed)" style="fill: none; stroke: #4c72b0; stroke-width: 1.5; stroke-linecap: round"/>
   </g>
   <g id="line2d_17">
    <path d="M 111.151132 235.735552 
L 116.758914 221.688599 
L 122.366695 192.735492 
L 127.974476 195.168232 
L 133.582258 190.257793 
L 139.190039 189.23874 
L 144.79782 187.775099 
L 150.405602 188.61432 
L 156.013383 188.699241 
L 161.621164 189.1738 
L 167.228946 187.260577 
L 172.836727 186.516268 
L 178.444508 187.490364 
L 184.052289 171.14055 
L 189.660071 170.471172 
L 195.267852 170.24638 
L 200.875633 159.366486 
L 206.483415 156.564089 
L 212.091196 152.712666 
L 217.698977 149.385757 
L 223.306759 148.946165 
L 228.91454 197.42114 
L 234.522321 196.726784 
L 240.130103 197.49607 
L 245.737884 197.481084 
L 251.345665 196.856664 
L 256.953447 205.778377 
L 262.561228 196.10736 
L 268.169009 198.914752 
L 273.776791 200.728068 
L 279.384572 201.702163 
L 284.992353 207.481795 
L 290.600134 205.988182 
L 296.207916 204.354699 
L 301.815697 203.170799 
L 307.423478 201.222609 
L 313.03126 198.919748 
L 318.639041 195.712726 
L 324.246822 201.302534 
L 329.854604 198.565077 
L 335.462385 200.348421 
L 341.070166 199.08959 
L 346.677948 201.881996 
L 352.285729 200.043704 
L 357.89351 199.978764 
L 363.501292 198.495142 
L 369.109073 199.16452 
L 374.716854 202.461458 
L 380.324635 205.009092 
L 385.932417 205.298822 
L 391.540198 464.72286 
L 397.147979 461.211122 
L 402.755761 458.513627 
L 408.363542 458.173943 
L 413.971323 455.50642 
L 419.579105 455.406513 
L 425.186886 446.215051 
L 430.794667 445.79544 
L 436.402449 443.432635 
L 442.01023 423.361278 
L 447.618011 423.955726 
L 453.225793 421.982559 
L 458.833574 421.128352 
L 464.441355 420.978491 
L 470.049137 420.888575 
L 475.656918 450.421144 
L 481.264699 416.607551 
L 486.87248 413.070836 
L 492.480262 381.580086 
L 498.088043 369.416384 
L 503.695824 369.021751 
L 509.303606 370.305558 
L 514.911387 383.668146 
L 520.519168 382.499232 
L 526.12695 403.379838 
L 531.734731 404.3889 
L 537.342512 405.023311 
L 542.950294 400.957088 
L 548.558075 430.005107 
L 554.165856 436.763829 
L 559.773638 434.091312 
L 565.381419 435.310179 
L 570.9892 435.509994 
L 576.596981 417.676558 
L 582.204763 406.626822 
L 587.812544 387.329745 
L 593.420325 384.177673 
L 599.028107 382.744005 
L 604.635888 383.103671 
L 610.243669 378.487958 
L 615.851451 377.294067 
L 621.459232 377.024317 
L 627.067013 373.707398 
L 632.674795 378.467977 
L 638.282576 408.525058 
L 643.890357 418.94538 
L 649.498139 419.554814 
L 655.10592 419.374981 
L 660.713701 420.079326 
L 666.321482 420.159252 
" clip-path="url(#pbb12b223ed)" style="fill: none; stroke: #dd8452; stroke-width: 1.5; stroke-linecap: round"/>
   </g>
   <g id="line2d_18">
    <path d="M 111.151132 229.5463 
L 116.758914 223.966483 
L 122.366695 224.530959 
L 127.974476 224.515973 
L 133.582258 225.899688 
L 139.190039 226.788862 
L 144.79782 221.189063 
L 150.405602 219.2109 
L 156.013383 222.143177 
L 161.621164 220.529675 
L 167.228946 221.00923 
L 172.836727 220.704513 
L 178.444508 219.380743 
L 184.052289 219.935228 
L 189.660071 218.251791 
L 195.267852 221.503771 
L 200.875633 214.70009 
L 206.483415 216.518401 
L 212.091196 215.888986 
L 217.698977 216.673257 
L 223.306759 217.127835 
L 228.91454 223.322082 
L 234.522321 212.487146 
L 240.130103 205.608535 
L 245.737884 172.469316 
L 251.345665 177.709448 
L 256.953447 174.832121 
L 262.561228 175.501499 
L 268.169009 176.895205 
L 273.776791 174.537395 
L 279.384572 175.761258 
L 284.992353 182.779739 
L 290.600134 198.984687 
L 296.207916 221.358905 
L 301.815697 173.98291 
L 307.423478 175.376615 
L 313.03126 140.583932 
L 318.639041 154.865667 
L 324.246822 124.463905 
L 329.854604 118.939037 
L 335.462385 126.906636 
L 341.070166 124.828566 
L 346.677948 137.696614 
L 352.285729 147.892144 
L 357.89351 157.228472 
L 363.501292 158.122641 
L 369.109073 165.24103 
L 374.716854 154.825704 
L 380.324635 143.451269 
L 385.932417 177.259866 
L 391.540198 451.26536 
L 397.147979 440.665205 
L 402.755761 437.867804 
L 408.363542 433.591776 
L 413.971323 465.152461 
L 419.579105 464.662916 
L 425.186886 460.966349 
L 430.794667 461.780593 
L 436.402449 460.167091 
L 442.01023 460.012235 
L 447.618011 459.232959 
L 453.225793 460.826479 
L 458.833574 455.526402 
L 464.441355 456.385604 
L 470.049137 460.981335 
L 475.656918 411.432358 
L 481.264699 401.216847 
L 486.87248 398.62925 
L 492.480262 390.721595 
L 498.088043 383.523281 
L 503.695824 384.941963 
L 509.303606 383.313476 
L 514.911387 388.718456 
L 520.519168 382.499232 
L 526.12695 378.912564 
L 531.734731 387.339736 
L 537.342512 384.657228 
L 542.950294 379.447067 
L 548.558075 383.917914 
L 554.165856 392.614836 
L 559.773638 390.861465 
L 565.381419 392.544901 
L 570.9892 389.043154 
L 576.596981 380.351227 
L 582.204763 380.116445 
L 587.812544 373.322756 
L 593.420325 373.137927 
L 599.028107 367.767915 
L 604.635888 370.720173 
L 610.243669 370.090758 
L 615.851451 369.746078 
L 621.459232 373.367714 
L 627.067013 373.392691 
L 632.674795 373.207862 
L 638.282576 375.046155 
L 643.890357 378.413028 
L 649.498139 350.523932 
L 655.10592 326.36637 
L 660.713701 347.436799 
L 666.321482 342.511374 
" clip-path="url(#pbb12b223ed)" style="fill: none; stroke: #55a868; stroke-width: 1.5; stroke-linecap: round"/>
   </g>
   <g id="patch_3">
    <path d="M 83.392615 495.840956 
L 83.392615 49.831226 
" style="fill: none; stroke: #cccccc; stroke-width: 1.25; stroke-linejoin: miter; stroke-linecap: square"/>
   </g>
   <g id="patch_4">
    <path d="M 694.08 495.840956 
L 694.08 49.831226 
" style="fill: none; stroke: #cccccc; stroke-width: 1.25; stroke-linejoin: miter; stroke-linecap: square"/>
   </g>
   <g id="patch_5">
    <path d="M 83.392615 495.840956 
L 694.08 495.840956 
" style="fill: none; stroke: #cccccc; stroke-width: 1.25; stroke-linejoin: miter; stroke-linecap: square"/>
   </g>
   <g id="patch_6">
    <path d="M 83.392615 49.831226 
L 694.08 49.831226 
" style="fill: none; stroke: #cccccc; stroke-width: 1.25; stroke-linejoin: miter; stroke-linecap: square"/>
   </g>
   <g id="text_18">
    <!-- Peak Signal-to-Noise Ratio (PSNR), dB over Step (Median) -->
    <g style="fill: #262626" transform="translate(106.165873 43.831226) scale(0.24 -0.24)">
     <defs>
      <path id="CMSS17-76" d="M 2675 2752 
L 2176 2752 
L 1747 1556 
C 1613 1165 1421 627 1389 352 
L 1382 352 
C 1370 468 1318 634 1286 749 
C 1248 890 1197 1056 1158 1172 
L 595 2752 
L 83 2752 
L 1094 0 
L 1664 0 
L 2675 2752 
z
" transform="scale(0.015625)"/>
      <path id="CMSS17-72" d="M 954 1363 
C 954 1965 1395 2368 1958 2368 
L 1958 2789 
C 1549 2789 1165 2585 934 2253 
L 934 2758 
L 480 2758 
L 480 0 
L 954 0 
L 954 1363 
z
" transform="scale(0.015625)"/>
      <path id="CMSS17-4d" d="M 3194 2371 
L 2886 1473 
C 2835 1307 2662 791 2624 587 
L 2618 587 
C 2598 715 2560 849 2458 1174 
C 2400 1365 2336 1562 2272 1741 
L 1325 4416 
L 576 4416 
L 576 0 
L 1075 0 
L 1075 3900 
L 1082 3900 
C 1082 3894 1139 3613 1530 2499 
L 2374 96 
L 2848 96 
L 3610 2231 
C 3661 2378 3821 2843 3891 3066 
C 3955 3257 4115 3728 4154 3913 
L 4160 3913 
L 4160 0 
L 4666 0 
L 4666 4416 
L 3923 4416 
L 3194 2371 
z
" transform="scale(0.015625)"/>
     </defs>
     <use xlink:href="#CMSS17-50" transform="scale(0.996264)"/>
     <use xlink:href="#CMSS17-65" transform="translate(57.133132 0) scale(0.996264)"/>
     <use xlink:href="#CMSS17-61" transform="translate(98.771954 0) scale(0.996264)"/>
     <use xlink:href="#CMSS17-6b" transform="translate(143.693875 0) scale(0.996264)"/>
     <use xlink:href="#CMSS17-53" transform="translate(220.525477 0) scale(0.996264)"/>
     <use xlink:href="#CMSS17-69" transform="translate(272.573993 0) scale(0.996264)"/>
     <use xlink:href="#CMSS17-67" transform="translate(294.754716 0) scale(0.996264)"/>
     <use xlink:href="#CMSS17-6e" transform="translate(341.59834 0) scale(0.996264)"/>
     <use xlink:href="#CMSS17-61" transform="translate(389.803283 0) scale(0.996264)"/>
     <use xlink:href="#CMSS17-6c" transform="translate(434.725203 0) scale(0.996264)"/>
     <use xlink:href="#CMSS17-2d" transform="translate(456.905927 0) scale(0.996264)"/>
     <use xlink:href="#CMSS17-74" transform="translate(488.135039 0) scale(0.996264)"/>
     <use xlink:href="#CMSS17-6f" transform="translate(521.966606 0) scale(0.996264)"/>
     <use xlink:href="#CMSS17-2d" transform="translate(568.810229 0) scale(0.996264)"/>
     <use xlink:href="#CMSS17-4e" transform="translate(600.039342 0) scale(0.996264)"/>
     <use xlink:href="#CMSS17-6f" transform="translate(666.100861 0) scale(0.996264)"/>
     <use xlink:href="#CMSS17-69" transform="translate(712.944485 0) scale(0.996264)"/>
     <use xlink:href="#CMSS17-73" transform="translate(735.125208 0) scale(0.996264)"/>
     <use xlink:href="#CMSS17-65" transform="translate(771.03875 0) scale(0.996264)"/>
     <use xlink:href="#CMSS17-52" transform="translate(843.906685 0) scale(0.996264)"/>
     <use xlink:href="#CMSS17-61" transform="translate(904.32284 0) scale(0.996264)"/>
     <use xlink:href="#CMSS17-74" transform="translate(949.24476 0) scale(0.996264)"/>
     <use xlink:href="#CMSS17-69" transform="translate(983.076327 0) scale(0.996264)"/>
     <use xlink:href="#CMSS17-6f" transform="translate(1005.25705 0) scale(0.996264)"/>
     <use xlink:href="#CMSS17-28" transform="translate(1083.329786 0) scale(0.996264)"/>
     <use xlink:href="#CMSS17-50" transform="translate(1119.7637 0) scale(0.996264)"/>
     <use xlink:href="#CMSS17-53" transform="translate(1179.499287 0) scale(0.996264)"/>
     <use xlink:href="#CMSS17-4e" transform="translate(1231.547803 0) scale(0.996264)"/>
     <use xlink:href="#CMSS17-52" transform="translate(1297.609322 0) scale(0.996264)"/>
     <use xlink:href="#CMSS17-29" transform="translate(1358.025477 0) scale(0.996264)"/>
     <use xlink:href="#CMSS17-2c" transform="translate(1394.459391 0) scale(0.996264)"/>
     <use xlink:href="#CMSS17-64" transform="translate(1451.712709 0) scale(0.996264)"/>
     <use xlink:href="#CMSS17-42" transform="translate(1499.917652 0) scale(0.996264)"/>
     <use xlink:href="#CMSS17-6f" transform="translate(1593.484805 0) scale(0.996264)"/>
     <use xlink:href="#CMSS17-76" transform="translate(1640.328428 0) scale(0.996264)"/>
     <use xlink:href="#CMSS17-65" transform="translate(1683.32857 0) scale(0.996264)"/>
     <use xlink:href="#CMSS17-72" transform="translate(1724.967392 0) scale(0.996264)"/>
     <use xlink:href="#CMSS17-53" transform="translate(1788.106277 0) scale(0.996264)"/>
     <use xlink:href="#CMSS17-74" transform="translate(1840.154794 0) scale(0.996264)"/>
     <use xlink:href="#CMSS17-65" transform="translate(1873.98636 0) scale(0.996264)"/>
     <use xlink:href="#CMSS17-70" transform="translate(1915.625182 0) scale(0.996264)"/>
     <use xlink:href="#CMSS17-28" transform="translate(1995.059238 0) scale(0.996264)"/>
     <use xlink:href="#CMSS17-4d" transform="translate(2031.493153 0) scale(0.996264)"/>
     <use xlink:href="#CMSS17-65" transform="translate(2113.169182 0) scale(0.996264)"/>
     <use xlink:href="#CMSS17-64" transform="translate(2154.808005 0) scale(0.996264)"/>
     <use xlink:href="#CMSS17-69" transform="translate(2203.012948 0) scale(0.996264)"/>
     <use xlink:href="#CMSS17-61" transform="translate(2225.193671 0) scale(0.996264)"/>
     <use xlink:href="#CMSS17-6e" transform="translate(2270.115591 0) scale(0.996264)"/>
     <use xlink:href="#CMSS17-29" transform="translate(2318.320534 0) scale(0.996264)"/>
    </g>
   </g>
   <g id="legend_1">
    <g id="patch_7">
     <path d="M 471.488525 191.675953 
L 678.68 191.675953 
Q 683.08 191.675953 683.08 187.275953 
L 683.08 65.231226 
Q 683.08 60.831226 678.68 60.831226 
L 471.488525 60.831226 
Q 467.088525 60.831226 467.088525 65.231226 
L 467.088525 187.275953 
Q 467.088525 191.675953 471.488525 191.675953 
z
" style="fill: #ffffff; opacity: 0.8; stroke: #cccccc; stroke-linejoin: miter"/>
    </g>
    <g id="text_19">
     <!-- Noise Type -->
     <g style="fill: #262626" transform="translate(522.845177 86.235632) scale(0.24 -0.24)">
      <defs>
       <path id="CMSS17-54" d="M 2317 3968 
L 2848 3968 
C 2925 3968 3002 3968 3078 3968 
L 3878 3968 
L 3878 4376 
L 218 4376 
L 218 3968 
L 1018 3968 
C 1094 3968 1171 3968 1248 3968 
L 1779 3968 
L 1779 -32 
L 2317 -32 
L 2317 3968 
z
" transform="scale(0.015625)"/>
       <path id="CMSS17-79" d="M 2675 2752 
L 2176 2752 
C 1632 1294 1446 702 1434 383 
L 1427 383 
C 1408 696 1126 1460 902 2007 
L 602 2752 
L 83 2752 
L 1216 13 
C 1146 -178 1043 -465 1011 -529 
C 870 -885 774 -885 672 -885 
C 646 -885 442 -885 211 -809 
L 250 -1229 
C 410 -1261 570 -1280 685 -1280 
C 845 -1280 1165 -1280 1459 -497 
L 2675 2752 
z
" transform="scale(0.015625)"/>
      </defs>
      <use xlink:href="#CMSS17-4e" transform="scale(0.996264)"/>
      <use xlink:href="#CMSS17-6f" transform="translate(66.061519 0) scale(0.996264)"/>
      <use xlink:href="#CMSS17-69" transform="translate(112.905143 0) scale(0.996264)"/>
      <use xlink:href="#CMSS17-73" transform="translate(135.085866 0) scale(0.996264)"/>
      <use xlink:href="#CMSS17-65" transform="translate(170.999408 0) scale(0.996264)"/>
      <use xlink:href="#CMSS17-54" transform="translate(243.867343 0) scale(0.996264)"/>
      <use xlink:href="#CMSS17-79" transform="translate(299.879541 0) scale(0.996264)"/>
      <use xlink:href="#CMSS17-70" transform="translate(342.879683 0) scale(0.996264)"/>
      <use xlink:href="#CMSS17-65" transform="translate(393.687065 0) scale(0.996264)"/>
     </g>
    </g>
    <g id="line2d_19">
     <path d="M 475.888525 109.586389 
L 497.888525 109.586389 
L 519.888525 109.586389 
" style="fill: none; stroke: #4c72b0; stroke-width: 1.5; stroke-linecap: round"/>
    </g>
    <g id="text_20">
     <!-- None -->
     <g style="fill: #262626" transform="translate(537.488525 117.286389) scale(0.22 -0.22)">
      <use xlink:href="#CMSS17-4e" transform="scale(0.996264)"/>
      <use xlink:href="#CMSS17-6f" transform="translate(66.061519 0) scale(0.996264)"/>
      <use xlink:href="#CMSS17-6e" transform="translate(112.905143 0) scale(0.996264)"/>
      <use xlink:href="#CMSS17-65" transform="translate(161.110086 0) scale(0.996264)"/>
     </g>
    </g>
    <g id="line2d_20">
     <path d="M 475.888525 140.249577 
L 497.888525 140.249577 
L 519.888525 140.249577 
" style="fill: none; stroke: #dd8452; stroke-width: 1.5; stroke-linecap: round"/>
    </g>
    <g id="text_21">
     <!-- Gaussian -->
     <g style="fill: #262626" transform="translate(537.488525 147.949577) scale(0.22 -0.22)">
      <defs>
       <path id="CMSS17-47" d="M 3610 1856 
L 2336 1856 
L 2336 1461 
L 3123 1461 
L 3123 471 
C 2874 401 2618 350 2362 350 
C 1466 350 934 1301 934 2200 
C 934 3095 1491 4032 2362 4032 
C 2854 4032 3130 3881 3469 3627 
L 3552 4134 
C 3130 4351 2867 4440 2387 4440 
C 1146 4440 397 3324 397 2182 
C 397 1090 1152 -64 2349 -64 
C 2797 -64 3213 51 3610 248 
L 3610 1856 
z
" transform="scale(0.015625)"/>
       <path id="CMSS17-75" d="M 2618 2739 
L 2131 2739 
L 2131 972 
C 2131 498 1786 306 1421 306 
C 998 306 960 447 960 709 
L 960 2739 
L 474 2739 
L 474 678 
C 474 179 646 -64 1088 -64 
C 1306 -64 1798 -13 2144 306 
L 2144 0 
L 2618 0 
L 2618 2739 
z
" transform="scale(0.015625)"/>
      </defs>
      <use xlink:href="#CMSS17-47" transform="scale(0.996264)"/>
      <use xlink:href="#CMSS17-61" transform="translate(62.458226 0) scale(0.996264)"/>
      <use xlink:href="#CMSS17-75" transform="translate(107.380146 0) scale(0.996264)"/>
      <use xlink:href="#CMSS17-73" transform="translate(155.585089 0) scale(0.996264)"/>
      <use xlink:href="#CMSS17-73" transform="translate(191.498631 0) scale(0.996264)"/>
      <use xlink:href="#CMSS17-69" transform="translate(227.412173 0) scale(0.996264)"/>
      <use xlink:href="#CMSS17-61" transform="translate(249.592896 0) scale(0.996264)"/>
      <use xlink:href="#CMSS17-6e" transform="translate(294.514817 0) scale(0.996264)"/>
     </g>
    </g>
    <g id="line2d_21">
     <path d="M 475.888525 170.912765 
L 497.888525 170.912765 
L 519.888525 170.912765 
" style="fill: none; stroke: #55a868; stroke-width: 1.5; stroke-linecap: round"/>
    </g>
    <g id="text_22">
     <!-- Salt-and-pepper -->
     <g style="fill: #262626" transform="translate(537.488525 178.612765) scale(0.22 -0.22)">
      <use xlink:href="#CMSS17-53" transform="scale(0.996264)"/>
      <use xlink:href="#CMSS17-61" transform="translate(52.048516 0) scale(0.996264)"/>
      <use xlink:href="#CMSS17-6c" transform="translate(96.970437 0) scale(0.996264)"/>
      <use xlink:href="#CMSS17-74" transform="translate(119.15116 0) scale(0.996264)"/>
      <use xlink:href="#CMSS17-2d" transform="translate(152.982727 0) scale(0.996264)"/>
      <use xlink:href="#CMSS17-61" transform="translate(184.211839 0) scale(0.996264)"/>
      <use xlink:href="#CMSS17-6e" transform="translate(229.13376 0) scale(0.996264)"/>
      <use xlink:href="#CMSS17-64" transform="translate(277.338703 0) scale(0.996264)"/>
      <use xlink:href="#CMSS17-2d" transform="translate(325.543646 0) scale(0.996264)"/>
      <use xlink:href="#CMSS17-70" transform="translate(356.772759 0) scale(0.996264)"/>
      <use xlink:href="#CMSS17-65" transform="translate(407.580141 0) scale(0.996264)"/>
      <use xlink:href="#CMSS17-70" transform="translate(449.218963 0) scale(0.996264)"/>
      <use xlink:href="#CMSS17-70" transform="translate(497.423906 0) scale(0.996264)"/>
      <use xlink:href="#CMSS17-65" transform="translate(548.231288 0) scale(0.996264)"/>
      <use xlink:href="#CMSS17-72" transform="translate(589.87011 0) scale(0.996264)"/>
     </g>
    </g>
   </g>
  </g>
 </g>
 <defs>
  <clipPath id="pbb12b223ed">
   <rect x="83.392615" y="49.831226" width="610.687385" height="446.00973"/>
  </clipPath>
 </defs>
</svg>
