<?xml version="1.0" encoding="utf-8" standalone="no"?>
<!DOCTYPE svg PUBLIC "-//W3C//DTD SVG 1.1//EN"
  "http://www.w3.org/Graphics/SVG/1.1/DTD/svg11.dtd">
<svg xmlns:xlink="http://www.w3.org/1999/xlink" width="720pt" height="576pt" viewBox="0 0 720 576" xmlns="http://www.w3.org/2000/svg" version="1.1">
 <metadata>
  <rdf:RDF xmlns:dc="http://purl.org/dc/elements/1.1/" xmlns:cc="http://creativecommons.org/ns#" xmlns:rdf="http://www.w3.org/1999/02/22-rdf-syntax-ns#">
   <cc:Work>
    <dc:type rdf:resource="http://purl.org/dc/dcmitype/StillImage"/>
    <dc:date>2025-04-24T19:34:18.526786</dc:date>
    <dc:format>image/svg+xml</dc:format>
    <dc:creator>
     <cc:Agent>
      <dc:title>Matplotlib v3.9.2, https://matplotlib.org/</dc:title>
     </cc:Agent>
    </dc:creator>
   </cc:Work>
  </rdf:RDF>
 </metadata>
 <defs>
  <style type="text/css">*{stroke-linejoin: round; stroke-linecap: butt}</style>
 </defs>
 <g id="figure_1">
  <g id="patch_1">
   <path d="M 0 576 
L 720 576 
L 720 0 
L 0 0 
z
" style="fill: #ffffff"/>
  </g>
  <g id="axes_1">
   <g id="patch_2">
    <path d="M 89.353994 495.840956 
L 694.08 495.840956 
L 694.08 49.831226 
L 89.353994 49.831226 
z
" style="fill: #ffffff"/>
   </g>
   <g id="matplotlib.axis_1">
    <g id="xtick_1">
     <g id="line2d_1">
      <path d="M 116.84154 495.840956 
L 116.84154 49.831226 
" clip-path="url(#p13903546fb)" style="fill: none; stroke: #cccccc; stroke-linecap: round"/>
     </g>
     <g id="text_1">
      <!-- $\mathdefault{0}$ -->
      <g style="fill: #262626" transform="translate(111.815587 520.56165) scale(0.22 -0.22)">
       <defs>
        <path id="CMR17-30" d="M 2688 2025 
C 2688 2416 2682 3080 2413 3591 
C 2176 4039 1798 4198 1466 4198 
C 1158 4198 768 4058 525 3597 
C 269 3118 243 2524 243 2025 
C 243 1661 250 1106 448 619 
C 723 -39 1216 -128 1466 -128 
C 1760 -128 2208 -7 2470 600 
C 2662 1042 2688 1559 2688 2025 
z
M 1466 -26 
C 1056 -26 813 325 723 812 
C 653 1188 653 1738 653 2096 
C 653 2588 653 2997 736 3387 
C 858 3929 1216 4096 1466 4096 
C 1728 4096 2067 3923 2189 3400 
C 2272 3036 2278 2607 2278 2096 
C 2278 1680 2278 1169 2202 792 
C 2067 95 1690 -26 1466 -26 
z
" transform="scale(0.015625)"/>
       </defs>
       <use xlink:href="#CMR17-30" transform="scale(0.996264)"/>
      </g>
     </g>
    </g>
    <g id="xtick_2">
     <g id="line2d_2">
      <path d="M 227.90233 495.840956 
L 227.90233 49.831226 
" clip-path="url(#p13903546fb)" style="fill: none; stroke: #cccccc; stroke-linecap: round"/>
     </g>
     <g id="text_2">
      <!-- $\mathdefault{200}$ -->
      <g style="fill: #262626" transform="translate(212.824473 520.56165) scale(0.22 -0.22)">
       <defs>
        <path id="CMR17-32" d="M 2669 989 
L 2554 989 
C 2490 536 2438 459 2413 420 
C 2381 369 1920 369 1830 369 
L 602 369 
C 832 619 1280 1072 1824 1597 
C 2214 1967 2669 2402 2669 3035 
C 2669 3790 2067 4224 1395 4224 
C 691 4224 262 3604 262 3030 
C 262 2780 448 2748 525 2748 
C 589 2748 781 2787 781 3010 
C 781 3207 614 3264 525 3264 
C 486 3264 448 3258 422 3245 
C 544 3790 915 4058 1306 4058 
C 1862 4058 2227 3617 2227 3035 
C 2227 2479 1901 2000 1536 1584 
L 262 146 
L 262 0 
L 2515 0 
L 2669 989 
z
" transform="scale(0.015625)"/>
       </defs>
       <use xlink:href="#CMR17-32" transform="scale(0.996264)"/>
       <use xlink:href="#CMR17-30" transform="translate(45.690477 0) scale(0.996264)"/>
       <use xlink:href="#CMR17-30" transform="translate(91.380954 0) scale(0.996264)"/>
      </g>
     </g>
    </g>
    <g id="xtick_3">
     <g id="line2d_3">
      <path d="M 338.963121 495.840956 
L 338.963121 49.831226 
" clip-path="url(#p13903546fb)" style="fill: none; stroke: #cccccc; stroke-linecap: round"/>
     </g>
     <g id="text_3">
      <!-- $\mathdefault{400}$ -->
      <g style="fill: #262626" transform="translate(323.885264 520.56165) scale(0.22 -0.22)">
       <defs>
        <path id="CMR17-34" d="M 2150 4122 
C 2150 4256 2144 4256 2029 4256 
L 128 1254 
L 128 1088 
L 1779 1088 
L 1779 457 
C 1779 224 1766 160 1318 160 
L 1197 160 
L 1197 0 
C 1402 0 1747 0 1965 0 
C 2182 0 2528 0 2733 0 
L 2733 160 
L 2611 160 
C 2163 160 2150 224 2150 457 
L 2150 1088 
L 2803 1088 
L 2803 1254 
L 2150 1254 
L 2150 4122 
z
M 1798 3703 
L 1798 1254 
L 256 1254 
L 1798 3703 
z
" transform="scale(0.015625)"/>
       </defs>
       <use xlink:href="#CMR17-34" transform="scale(0.996264)"/>
       <use xlink:href="#CMR17-30" transform="translate(45.690477 0) scale(0.996264)"/>
       <use xlink:href="#CMR17-30" transform="translate(91.380954 0) scale(0.996264)"/>
      </g>
     </g>
    </g>
    <g id="xtick_4">
     <g id="line2d_4">
      <path d="M 450.023912 495.840956 
L 450.023912 49.831226 
" clip-path="url(#p13903546fb)" style="fill: none; stroke: #cccccc; stroke-linecap: round"/>
     </g>
     <g id="text_4">
      <!-- $\mathdefault{600}$ -->
      <g style="fill: #262626" transform="translate(434.946055 520.56165) scale(0.22 -0.22)">
       <defs>
        <path id="CMR17-36" d="M 678 2176 
C 678 3690 1395 4032 1811 4032 
C 1946 4032 2272 4009 2400 3776 
C 2298 3776 2106 3776 2106 3553 
C 2106 3381 2246 3323 2336 3323 
C 2394 3323 2566 3348 2566 3560 
C 2566 3954 2246 4179 1805 4179 
C 1043 4179 243 3390 243 1984 
C 243 253 966 -128 1478 -128 
C 2099 -128 2688 427 2688 1283 
C 2688 2081 2170 2662 1517 2662 
C 1126 2662 838 2407 678 1960 
L 678 2176 
z
M 1478 25 
C 691 25 691 1200 691 1436 
C 691 1896 909 2560 1504 2560 
C 1613 2560 1926 2560 2138 2120 
C 2253 1870 2253 1609 2253 1289 
C 2253 944 2253 690 2118 434 
C 1978 171 1773 25 1478 25 
z
" transform="scale(0.015625)"/>
       </defs>
       <use xlink:href="#CMR17-36" transform="scale(0.996264)"/>
       <use xlink:href="#CMR17-30" transform="translate(45.690477 0) scale(0.996264)"/>
       <use xlink:href="#CMR17-30" transform="translate(91.380954 0) scale(0.996264)"/>
      </g>
     </g>
    </g>
    <g id="xtick_5">
     <g id="line2d_5">
      <path d="M 561.084703 495.840956 
L 561.084703 49.831226 
" clip-path="url(#p13903546fb)" style="fill: none; stroke: #cccccc; stroke-linecap: round"/>
     </g>
     <g id="text_5">
      <!-- $\mathdefault{800}$ -->
      <g style="fill: #262626" transform="translate(546.006846 520.56165) scale(0.22 -0.22)">
       <defs>
        <path id="CMR17-38" d="M 1741 2264 
C 2144 2467 2554 2773 2554 3263 
C 2554 3841 1990 4179 1472 4179 
C 890 4179 378 3759 378 3180 
C 378 3021 416 2747 666 2505 
C 730 2442 998 2251 1171 2130 
C 883 1983 211 1634 211 934 
C 211 279 838 -128 1459 -128 
C 2144 -128 2720 362 2720 1010 
C 2720 1590 2330 1857 2074 2029 
L 1741 2264 
z
M 902 2822 
C 851 2854 595 3051 595 3351 
C 595 3739 998 4032 1459 4032 
C 1965 4032 2336 3676 2336 3262 
C 2336 2669 1670 2331 1638 2331 
C 1632 2331 1626 2331 1574 2370 
L 902 2822 
z
M 2080 1519 
C 2176 1449 2483 1240 2483 851 
C 2483 381 2010 25 1472 25 
C 890 25 448 438 448 940 
C 448 1443 838 1862 1280 2060 
L 2080 1519 
z
" transform="scale(0.015625)"/>
       </defs>
       <use xlink:href="#CMR17-38" transform="scale(0.996264)"/>
       <use xlink:href="#CMR17-30" transform="translate(45.690477 0) scale(0.996264)"/>
       <use xlink:href="#CMR17-30" transform="translate(91.380954 0) scale(0.996264)"/>
      </g>
     </g>
    </g>
    <g id="xtick_6">
     <g id="line2d_6">
      <path d="M 672.145494 495.840956 
L 672.145494 49.831226 
" clip-path="url(#p13903546fb)" style="fill: none; stroke: #cccccc; stroke-linecap: round"/>
     </g>
     <g id="text_6">
      <!-- $\mathdefault{1000}$ -->
      <g style="fill: #262626" transform="translate(652.041684 520.56165) scale(0.22 -0.22)">
       <defs>
        <path id="CMR17-31" d="M 1702 4058 
C 1702 4192 1696 4192 1606 4192 
C 1357 3916 979 3827 621 3827 
C 602 3827 570 3827 563 3808 
C 557 3795 557 3782 557 3648 
C 755 3648 1088 3686 1344 3839 
L 1344 461 
C 1344 236 1331 160 781 160 
L 589 160 
L 589 0 
C 896 0 1216 0 1523 0 
C 1830 0 2150 0 2458 0 
L 2458 160 
L 2266 160 
C 1715 160 1702 230 1702 458 
L 1702 4058 
z
" transform="scale(0.015625)"/>
       </defs>
       <use xlink:href="#CMR17-31" transform="scale(0.996264)"/>
       <use xlink:href="#CMR17-30" transform="translate(45.690477 0) scale(0.996264)"/>
       <use xlink:href="#CMR17-30" transform="translate(91.380954 0) scale(0.996264)"/>
       <use xlink:href="#CMR17-30" transform="translate(137.071431 0) scale(0.996264)"/>
      </g>
     </g>
    </g>
    <g id="text_7">
     <!-- Step -->
     <g style="fill: #262626" transform="translate(370.630141 545.429243) scale(0.24 -0.24)">
      <defs>
       <path id="CMSS17-53" d="M 2797 4169 
C 2515 4334 2208 4480 1690 4480 
C 864 4480 333 3879 333 3266 
C 333 3025 403 2753 653 2475 
C 902 2196 1184 2121 1542 2033 
C 1690 1994 1939 1924 1984 1906 
C 2342 1767 2515 1444 2515 1140 
C 2515 742 2202 318 1645 318 
C 1453 318 890 318 358 819 
L 269 318 
C 794 -64 1363 -128 1651 -128 
C 2438 -128 3002 488 3002 1186 
C 3002 1440 2925 1763 2656 2061 
C 2394 2347 2163 2410 1638 2549 
C 1338 2626 1146 2677 986 2873 
C 877 3013 819 3146 819 3317 
C 819 3673 1126 4060 1690 4060 
C 1971 4060 2336 4002 2707 3660 
L 2797 4169 
z
" transform="scale(0.015625)"/>
       <path id="CMSS17-74" d="M 1069 2368 
L 1901 2368 
L 1901 2737 
L 1069 2737 
L 1069 3520 
L 614 3520 
L 614 2737 
L 109 2737 
L 109 2368 
L 602 2368 
L 602 749 
C 602 384 685 -64 1107 -64 
C 1427 -64 1722 25 2003 172 
L 1901 548 
C 1747 414 1562 337 1363 337 
C 1082 337 1069 696 1069 856 
L 1069 2368 
z
" transform="scale(0.015625)"/>
       <path id="CMSS17-65" d="M 2502 1377 
C 2502 1590 2490 2003 2285 2345 
C 2061 2713 1696 2816 1421 2816 
C 755 2816 192 2188 192 1375 
C 192 582 774 -64 1510 -64 
C 1798 -64 2150 19 2470 248 
C 2470 274 2458 414 2451 420 
C 2451 433 2432 630 2432 656 
C 2125 407 1773 325 1517 325 
C 1107 325 666 667 646 1377 
L 2502 1377 
z
M 698 1728 
C 781 2084 1062 2421 1421 2421 
C 1517 2421 1965 2421 2080 1728 
L 698 1728 
z
" transform="scale(0.015625)"/>
       <path id="CMSS17-70" d="M 966 333 
C 1178 129 1466 -5 1773 -5 
C 2368 -5 2880 603 2880 1412 
C 2880 2159 2496 2816 1946 2816 
C 1626 2816 1242 2702 954 2472 
L 954 2765 
L 480 2765 
L 480 -1216 
L 966 -1216 
L 966 333 
z
M 966 2100 
C 1018 2176 1235 2415 1587 2415 
C 2035 2415 2394 1960 2394 1412 
C 2394 787 1958 384 1530 384 
C 1402 384 1267 415 1139 523 
C 966 674 966 768 966 857 
L 966 2100 
z
" transform="scale(0.015625)"/>
      </defs>
      <use xlink:href="#CMSS17-53" transform="scale(0.996264)"/>
      <use xlink:href="#CMSS17-74" transform="translate(52.048516 0) scale(0.996264)"/>
      <use xlink:href="#CMSS17-65" transform="translate(85.880083 0) scale(0.996264)"/>
      <use xlink:href="#CMSS17-70" transform="translate(127.518905 0) scale(0.996264)"/>
     </g>
    </g>
   </g>
   <g id="matplotlib.axis_2">
    <g id="ytick_1">
     <g id="line2d_7">
      <path d="M 89.353994 455.591821 
L 694.08 455.591821 
" clip-path="url(#p13903546fb)" style="fill: none; stroke: #cccccc; stroke-linecap: round"/>
     </g>
     <g id="text_8">
      <!-- $\mathdefault{0.2}$ -->
      <g style="fill: #262626" transform="translate(53.788805 463.202167) scale(0.22 -0.22)">
       <defs>
        <path id="CMMI12-3a" d="M 1178 307 
C 1178 492 1024 619 870 619 
C 685 619 557 466 557 313 
C 557 128 710 0 864 0 
C 1050 0 1178 153 1178 307 
z
" transform="scale(0.015625)"/>
       </defs>
       <use xlink:href="#CMR17-30" transform="scale(0.996264)"/>
       <use xlink:href="#CMMI12-3a" transform="translate(45.690477 0) scale(0.996264)"/>
       <use xlink:href="#CMR17-32" transform="translate(72.787654 0) scale(0.996264)"/>
      </g>
     </g>
    </g>
    <g id="ytick_2">
     <g id="line2d_8">
      <path d="M 89.353994 358.148083 
L 694.08 358.148083 
" clip-path="url(#p13903546fb)" style="fill: none; stroke: #cccccc; stroke-linecap: round"/>
     </g>
     <g id="text_9">
      <!-- $\mathdefault{0.3}$ -->
      <g style="fill: #262626" transform="translate(53.788805 365.75843) scale(0.22 -0.22)">
       <defs>
        <path id="CMR17-33" d="M 1414 2157 
C 1984 2157 2234 1662 2234 1090 
C 2234 320 1824 25 1453 25 
C 1114 25 563 194 390 693 
C 422 680 454 680 486 680 
C 640 680 755 782 755 948 
C 755 1133 614 1216 486 1216 
C 378 1216 211 1165 211 926 
C 211 335 787 -128 1466 -128 
C 2176 -128 2720 430 2720 1085 
C 2720 1707 2208 2157 1600 2227 
C 2086 2328 2554 2756 2554 3329 
C 2554 3820 2048 4179 1472 4179 
C 890 4179 378 3829 378 3329 
C 378 3110 544 3072 627 3072 
C 762 3072 877 3155 877 3321 
C 877 3486 762 3569 627 3569 
C 602 3569 570 3569 544 3557 
C 730 3959 1235 4032 1459 4032 
C 1683 4032 2106 3925 2106 3320 
C 2106 3143 2080 2828 1862 2550 
C 1670 2304 1453 2304 1242 2284 
C 1210 2284 1062 2269 1037 2269 
C 992 2263 966 2257 966 2208 
C 966 2163 973 2157 1101 2157 
L 1414 2157 
z
" transform="scale(0.015625)"/>
       </defs>
       <use xlink:href="#CMR17-30" transform="scale(0.996264)"/>
       <use xlink:href="#CMMI12-3a" transform="translate(45.690477 0) scale(0.996264)"/>
       <use xlink:href="#CMR17-33" transform="translate(72.787654 0) scale(0.996264)"/>
      </g>
     </g>
    </g>
    <g id="ytick_3">
     <g id="line2d_9">
      <path d="M 89.353994 260.704346 
L 694.08 260.704346 
" clip-path="url(#p13903546fb)" style="fill: none; stroke: #cccccc; stroke-linecap: round"/>
     </g>
     <g id="text_10">
      <!-- $\mathdefault{0.4}$ -->
      <g style="fill: #262626" transform="translate(53.788805 268.314693) scale(0.22 -0.22)">
       <use xlink:href="#CMR17-30" transform="scale(0.996264)"/>
       <use xlink:href="#CMMI12-3a" transform="translate(45.690477 0) scale(0.996264)"/>
       <use xlink:href="#CMR17-34" transform="translate(72.787654 0) scale(0.996264)"/>
      </g>
     </g>
    </g>
    <g id="ytick_4">
     <g id="line2d_10">
      <path d="M 89.353994 163.260609 
L 694.08 163.260609 
" clip-path="url(#p13903546fb)" style="fill: none; stroke: #cccccc; stroke-linecap: round"/>
     </g>
     <g id="text_11">
      <!-- $\mathdefault{0.5}$ -->
      <g style="fill: #262626" transform="translate(53.788805 170.870956) scale(0.22 -0.22)">
       <defs>
        <path id="CMR17-35" d="M 730 3692 
C 794 3666 1056 3584 1325 3584 
C 1920 3584 2246 3911 2432 4100 
C 2432 4157 2432 4192 2394 4192 
C 2387 4192 2374 4192 2323 4163 
C 2099 4058 1837 3973 1517 3973 
C 1325 3973 1037 3999 723 4139 
C 653 4171 640 4171 634 4171 
C 602 4171 595 4164 595 4037 
L 595 2203 
C 595 2089 595 2057 659 2057 
C 691 2057 704 2070 736 2114 
C 941 2401 1222 2522 1542 2522 
C 1766 2522 2246 2382 2246 1289 
C 2246 1085 2246 715 2054 421 
C 1894 159 1645 25 1370 25 
C 947 25 518 320 403 814 
C 429 807 480 795 506 795 
C 589 795 749 840 749 1038 
C 749 1210 627 1280 506 1280 
C 358 1280 262 1190 262 1011 
C 262 454 704 -128 1382 -128 
C 2042 -128 2669 440 2669 1264 
C 2669 2030 2170 2624 1549 2624 
C 1222 2624 947 2503 730 2274 
L 730 3692 
z
" transform="scale(0.015625)"/>
       </defs>
       <use xlink:href="#CMR17-30" transform="scale(0.996264)"/>
       <use xlink:href="#CMMI12-3a" transform="translate(45.690477 0) scale(0.996264)"/>
       <use xlink:href="#CMR17-35" transform="translate(72.787654 0) scale(0.996264)"/>
      </g>
     </g>
    </g>
    <g id="ytick_5">
     <g id="line2d_11">
      <path d="M 89.353994 65.816872 
L 694.08 65.816872 
" clip-path="url(#p13903546fb)" style="fill: none; stroke: #cccccc; stroke-linecap: round"/>
     </g>
     <g id="text_12">
      <!-- $\mathdefault{0.6}$ -->
      <g style="fill: #262626" transform="translate(53.788805 73.427218) scale(0.22 -0.22)">
       <use xlink:href="#CMR17-30" transform="scale(0.996264)"/>
       <use xlink:href="#CMMI12-3a" transform="translate(45.690477 0) scale(0.996264)"/>
       <use xlink:href="#CMR17-36" transform="translate(72.787654 0) scale(0.996264)"/>
      </g>
     </g>
    </g>
    <g id="text_13">
     <!-- Structural Similarity Index Measure (SSIM) -->
     <g style="fill: #262626" transform="translate(43.831226 476.142373) rotate(-90) scale(0.24 -0.24)">
      <defs>
       <path id="CMSS17-72" d="M 954 1363 
C 954 1965 1395 2368 1958 2368 
L 1958 2789 
C 1549 2789 1165 2585 934 2253 
L 934 2758 
L 480 2758 
L 480 0 
L 954 0 
L 954 1363 
z
" transform="scale(0.015625)"/>
       <path id="CMSS17-75" d="M 2618 2739 
L 2131 2739 
L 2131 972 
C 2131 498 1786 306 1421 306 
C 998 306 960 447 960 709 
L 960 2739 
L 474 2739 
L 474 678 
C 474 179 646 -64 1088 -64 
C 1306 -64 1798 -13 2144 306 
L 2144 0 
L 2618 0 
L 2618 2739 
z
" transform="scale(0.015625)"/>
       <path id="CMSS17-63" d="M 2464 2541 
C 2464 2585 2170 2714 2093 2739 
C 1882 2816 1613 2816 1542 2816 
C 710 2816 211 2093 211 1363 
C 211 595 768 -64 1517 -64 
C 1946 -64 2253 76 2502 242 
L 2464 664 
C 2189 453 1869 337 1523 337 
C 1024 337 698 774 698 1369 
C 698 1831 909 2414 1549 2414 
C 1901 2414 2099 2343 2394 2145 
L 2464 2541 
z
" transform="scale(0.015625)"/>
       <path id="CMSS17-61" d="M 2406 1791 
C 2406 2392 1978 2808 1402 2808 
C 1120 2808 813 2757 461 2553 
L 499 2135 
C 659 2248 934 2432 1395 2432 
C 1722 2432 1920 2180 1920 1782 
L 1920 1536 
C 896 1536 256 1238 256 726 
C 256 461 416 -64 947 -64 
C 1043 -64 1562 -64 1933 217 
L 1933 -19 
L 2406 -19 
L 2406 1791 
z
M 1920 816 
C 1920 701 1920 548 1728 434 
C 1562 325 1350 325 1261 325 
C 941 325 723 511 723 744 
C 723 1211 1722 1211 1920 1211 
L 1920 816 
z
" transform="scale(0.015625)"/>
       <path id="CMSS17-6c" d="M 947 4416 
L 474 4416 
L 474 0 
L 947 0 
L 947 4416 
z
" transform="scale(0.015625)"/>
       <path id="CMSS17-69" d="M 979 4183 
L 442 4183 
L 442 3648 
L 979 3648 
L 979 4183 
z
M 947 2739 
L 474 2739 
L 474 0 
L 947 0 
L 947 2739 
z
" transform="scale(0.015625)"/>
       <path id="CMSS17-6d" d="M 4288 1877 
C 4288 2308 4179 2816 3462 2816 
C 2982 2816 2694 2516 2566 2331 
C 2451 2670 2182 2816 1798 2816 
C 1363 2816 1088 2568 941 2389 
L 941 2758 
L 474 2758 
L 474 0 
L 960 0 
L 960 1559 
C 960 1939 1101 2428 1555 2428 
C 2138 2428 2138 2016 2138 1829 
L 2138 0 
L 2624 0 
L 2624 1559 
C 2624 1939 2765 2428 3219 2428 
C 3802 2428 3802 2016 3802 1829 
L 3802 0 
L 4288 0 
L 4288 1877 
z
" transform="scale(0.015625)"/>
       <path id="CMSS17-79" d="M 2675 2752 
L 2176 2752 
C 1632 1294 1446 702 1434 383 
L 1427 383 
C 1408 696 1126 1460 902 2007 
L 602 2752 
L 83 2752 
L 1216 13 
C 1146 -178 1043 -465 1011 -529 
C 870 -885 774 -885 672 -885 
C 646 -885 442 -885 211 -809 
L 250 -1229 
C 410 -1261 570 -1280 685 -1280 
C 845 -1280 1165 -1280 1459 -497 
L 2675 2752 
z
" transform="scale(0.015625)"/>
       <path id="CMSS17-49" d="M 1094 4416 
L 557 4416 
L 557 0 
L 1094 0 
L 1094 4416 
z
" transform="scale(0.015625)"/>
       <path id="CMSS17-6e" d="M 2618 1877 
C 2618 2283 2522 2816 1798 2816 
C 1389 2816 1120 2606 941 2389 
L 941 2758 
L 474 2758 
L 474 0 
L 960 0 
L 960 1559 
C 960 1964 1114 2428 1549 2428 
C 2112 2428 2131 2048 2131 1829 
L 2131 0 
L 2618 0 
L 2618 1877 
z
" transform="scale(0.015625)"/>
       <path id="CMSS17-64" d="M 2611 4416 
L 2138 4416 
L 2138 2438 
C 1939 2603 1613 2756 1254 2756 
C 672 2756 211 2131 211 1347 
C 211 562 666 -64 1235 -64 
C 1677 -64 1971 172 2125 306 
L 2125 -13 
L 2611 -13 
L 2611 4416 
z
M 2125 836 
C 2125 747 2125 653 1926 482 
C 1798 375 1645 325 1498 325 
C 1152 325 698 576 698 1340 
C 698 2134 1210 2368 1562 2368 
C 1798 2368 1990 2254 2125 2065 
L 2125 836 
z
" transform="scale(0.015625)"/>
       <path id="CMSS17-78" d="M 1587 1414 
L 2656 2739 
L 2099 2739 
L 1363 1777 
L 602 2739 
L 32 2739 
L 1139 1414 
L 0 0 
L 563 0 
L 1363 1121 
L 2195 0 
L 2758 0 
L 1587 1414 
z
" transform="scale(0.015625)"/>
       <path id="CMSS17-4d" d="M 3194 2371 
L 2886 1473 
C 2835 1307 2662 791 2624 587 
L 2618 587 
C 2598 715 2560 849 2458 1174 
C 2400 1365 2336 1562 2272 1741 
L 1325 4416 
L 576 4416 
L 576 0 
L 1075 0 
L 1075 3900 
L 1082 3900 
C 1082 3894 1139 3613 1530 2499 
L 2374 96 
L 2848 96 
L 3610 2231 
C 3661 2378 3821 2843 3891 3066 
C 3955 3257 4115 3728 4154 3913 
L 4160 3913 
L 4160 0 
L 4666 0 
L 4666 4416 
L 3923 4416 
L 3194 2371 
z
" transform="scale(0.015625)"/>
       <path id="CMSS17-73" d="M 2061 2627 
C 1683 2807 1389 2807 1197 2807 
C 742 2807 198 2648 198 2003 
C 198 1359 902 1218 1094 1179 
C 1389 1122 1715 1058 1715 740 
C 1715 337 1254 337 1171 337 
C 915 337 563 407 243 638 
L 166 210 
C 531 0 883 -64 1178 -64 
C 1965 -64 2163 416 2163 781 
C 2163 1094 1984 1305 1862 1401 
C 1651 1568 1574 1587 1050 1696 
C 960 1709 646 1779 646 2066 
C 646 2432 1050 2432 1139 2432 
C 1555 2432 1811 2303 1984 2208 
L 2061 2627 
z
" transform="scale(0.015625)"/>
       <path id="CMSS17-28" d="M 1613 4768 
C 1267 4417 474 3601 474 1588 
C 474 -433 1267 -1243 1613 -1600 
L 2003 -1600 
C 1216 -784 960 357 960 1581 
C 960 2798 1203 3946 2003 4768 
L 1613 4768 
z
" transform="scale(0.015625)"/>
       <path id="CMSS17-29" d="M 723 -1600 
C 1069 -1249 1862 -433 1862 1581 
C 1862 3601 1069 4411 723 4768 
L 333 4768 
C 1120 3952 1376 2811 1376 1588 
C 1376 370 1133 -778 333 -1600 
L 723 -1600 
z
" transform="scale(0.015625)"/>
      </defs>
      <use xlink:href="#CMSS17-53" transform="scale(0.996264)"/>
      <use xlink:href="#CMSS17-74" transform="translate(52.048516 0) scale(0.996264)"/>
      <use xlink:href="#CMSS17-72" transform="translate(85.880083 0) scale(0.996264)"/>
      <use xlink:href="#CMSS17-75" transform="translate(117.789855 0) scale(0.996264)"/>
      <use xlink:href="#CMSS17-63" transform="translate(165.994799 0) scale(0.996264)"/>
      <use xlink:href="#CMSS17-74" transform="translate(207.633621 0) scale(0.996264)"/>
      <use xlink:href="#CMSS17-75" transform="translate(241.465187 0) scale(0.996264)"/>
      <use xlink:href="#CMSS17-72" transform="translate(289.67013 0) scale(0.996264)"/>
      <use xlink:href="#CMSS17-61" transform="translate(321.579903 0) scale(0.996264)"/>
      <use xlink:href="#CMSS17-6c" transform="translate(366.501824 0) scale(0.996264)"/>
      <use xlink:href="#CMSS17-53" transform="translate(419.911659 0) scale(0.996264)"/>
      <use xlink:href="#CMSS17-69" transform="translate(471.960176 0) scale(0.996264)"/>
      <use xlink:href="#CMSS17-6d" transform="translate(494.140899 0) scale(0.996264)"/>
      <use xlink:href="#CMSS17-69" transform="translate(568.370153 0) scale(0.996264)"/>
      <use xlink:href="#CMSS17-6c" transform="translate(590.550876 0) scale(0.996264)"/>
      <use xlink:href="#CMSS17-61" transform="translate(612.731599 0) scale(0.996264)"/>
      <use xlink:href="#CMSS17-72" transform="translate(655.051066 0) scale(0.996264)"/>
      <use xlink:href="#CMSS17-69" transform="translate(686.960838 0) scale(0.996264)"/>
      <use xlink:href="#CMSS17-74" transform="translate(709.141561 0) scale(0.996264)"/>
      <use xlink:href="#CMSS17-79" transform="translate(740.370674 0) scale(0.996264)"/>
      <use xlink:href="#CMSS17-49" transform="translate(814.599929 0) scale(0.996264)"/>
      <use xlink:href="#CMSS17-6e" transform="translate(840.383854 0) scale(0.996264)"/>
      <use xlink:href="#CMSS17-64" transform="translate(888.588797 0) scale(0.996264)"/>
      <use xlink:href="#CMSS17-65" transform="translate(936.79374 0) scale(0.996264)"/>
      <use xlink:href="#CMSS17-78" transform="translate(978.432562 0) scale(0.996264)"/>
      <use xlink:href="#CMSS17-4d" transform="translate(1052.661817 0) scale(0.996264)"/>
      <use xlink:href="#CMSS17-65" transform="translate(1134.337847 0) scale(0.996264)"/>
      <use xlink:href="#CMSS17-61" transform="translate(1175.976669 0) scale(0.996264)"/>
      <use xlink:href="#CMSS17-73" transform="translate(1220.89859 0) scale(0.996264)"/>
      <use xlink:href="#CMSS17-75" transform="translate(1256.812132 0) scale(0.996264)"/>
      <use xlink:href="#CMSS17-72" transform="translate(1305.017075 0) scale(0.996264)"/>
      <use xlink:href="#CMSS17-65" transform="translate(1336.926847 0) scale(0.996264)"/>
      <use xlink:href="#CMSS17-28" transform="translate(1409.794782 0) scale(0.996264)"/>
      <use xlink:href="#CMSS17-53" transform="translate(1446.228696 0) scale(0.996264)"/>
      <use xlink:href="#CMSS17-53" transform="translate(1498.277212 0) scale(0.996264)"/>
      <use xlink:href="#CMSS17-49" transform="translate(1550.325729 0) scale(0.996264)"/>
      <use xlink:href="#CMSS17-4d" transform="translate(1576.109654 0) scale(0.996264)"/>
      <use xlink:href="#CMSS17-29" transform="translate(1657.785684 0) scale(0.996264)"/>
     </g>
    </g>
   </g>
   <g id="PolyCollection_1">
    <defs>
     <path id="m58f41aa805" d="M 116.84154 -374.833777 
L 116.84154 -343.164563 
L 122.394579 -380.777845 
L 127.947619 -395.589293 
L 133.500658 -407.185098 
L 139.053698 -413.811272 
L 144.606737 -412.154729 
L 150.159777 -416.344809 
L 155.712816 -417.124359 
L 161.265856 -418.488572 
L 166.818895 -408.744198 
L 172.371935 -424.237752 
L 177.924975 -421.119553 
L 183.478014 -422.776096 
L 189.031054 -417.026916 
L 194.584093 -425.21219 
L 200.137133 -424.724971 
L 205.690172 -424.627527 
L 211.243212 -434.371901 
L 216.796251 -434.566788 
L 222.349291 -434.07957 
L 227.90233 -433.982126 
L 233.45537 -429.304827 
L 239.00841 -436.223332 
L 244.561449 -435.248895 
L 250.114489 -432.228139 
L 255.667528 -429.597158 
L 261.220568 -425.894296 
L 266.773607 -425.407077 
L 272.326647 -418.488572 
L 277.879686 -402.118024 
L 283.432726 -406.405548 
L 288.985765 -403.57968 
L 294.538805 -418.586015 
L 300.091844 -423.165871 
L 305.644884 -424.237752 
L 311.197924 -425.796852 
L 316.750963 -427.745727 
L 322.304003 -424.530083 
L 327.857042 -397.927943 
L 333.410082 -395.589293 
L 338.963121 -399.876818 
L 344.516161 -424.627527 
L 350.0692 -415.370372 
L 355.62224 -415.662703 
L 361.175279 -417.319247 
L 366.728319 -416.247366 
L 372.281359 -415.56526 
L 377.834398 -417.026916 
L 383.387438 -434.956563 
L 388.940477 -433.202576 
L 394.493517 -138.825046 
L 400.046556 -143.210014 
L 405.599596 -144.184451 
L 411.152635 -146.133326 
L 416.705675 -146.23077 
L 422.258714 -147.107763 
L 427.811754 -147.692426 
L 433.364793 -145.061445 
L 438.917833 -146.035882 
L 444.470873 -146.523101 
L 450.023912 -150.615738 
L 455.576952 -156.364918 
L 461.129991 -156.949581 
L 466.683031 -157.241912 
L 472.23607 -158.898456 
L 477.78911 -163.088536 
L 483.342149 -163.380868 
L 488.895189 -163.283424 
L 494.448228 -163.283424 
L 500.001268 -163.283424 
L 505.554308 -163.380868 
L 511.107347 -163.478311 
L 516.660387 -152.954388 
L 522.213426 -147.887313 
L 527.766466 -147.497538 
L 533.319505 -147.01032 
L 538.872545 -144.281895 
L 544.425584 -144.281895 
L 549.978624 -148.471976 
L 555.531663 -151.492732 
L 561.084703 -159.678006 
L 566.637743 -158.801012 
L 572.190782 -170.104485 
L 577.743822 -169.422379 
L 583.296861 -167.08373 
L 588.849901 -165.52463 
L 594.40294 -164.939967 
L 599.95598 -168.155611 
L 605.509019 -168.642829 
L 611.062059 -164.355305 
L 616.615098 -184.428715 
L 622.168138 -186.085258 
L 627.721177 -186.767365 
L 633.274217 -187.352027 
L 638.827257 -186.962252 
L 644.380296 -189.00857 
L 649.933336 -190.860001 
L 655.486375 -187.644358 
L 661.039415 -191.249776 
L 666.592454 -190.665114 
L 666.592454 -254.295874 
L 666.592454 -254.295874 
L 661.039415 -252.541887 
L 655.486375 -268.620104 
L 649.933336 -270.86131 
L 644.380296 -278.364478 
L 638.827257 -273.394847 
L 633.274217 -287.231858 
L 627.721177 -310.910686 
L 622.168138 -320.752503 
L 616.615098 -330.301989 
L 611.062059 -330.399433 
L 605.509019 -324.260478 
L 599.95598 -315.295654 
L 594.40294 -292.981038 
L 588.849901 -271.153641 
L 583.296861 -278.754252 
L 577.743822 -275.636053 
L 572.190782 -280.50824 
L 566.637743 -298.437887 
L 561.084703 -306.818049 
L 555.531663 -299.899543 
L 549.978624 -293.565701 
L 544.425584 -290.739832 
L 538.872545 -283.821327 
L 533.319505 -279.144027 
L 527.766466 -270.08176 
L 522.213426 -263.942804 
L 516.660387 -241.14097 
L 511.107347 -237.632995 
L 505.554308 -234.807127 
L 500.001268 -233.248027 
L 494.448228 -242.310295 
L 488.895189 -241.725632 
L 483.342149 -237.438108 
L 477.78911 -233.150583 
L 472.23607 -231.688927 
L 466.683031 -231.006821 
L 461.129991 -231.396596 
L 455.576952 -214.636273 
L 450.023912 -199.629938 
L 444.470873 -206.256112 
L 438.917833 -206.743331 
L 433.364793 -204.599568 
L 427.811754 -206.548443 
L 422.258714 -195.342413 
L 416.705675 -190.275339 
L 411.152635 -175.95111 
L 405.599596 -173.125241 
L 400.046556 -165.816961 
L 394.493517 -160.360112 
L 388.940477 -479.683239 
L 383.387438 -499.26943 
L 377.834398 -500.925973 
L 372.281359 -497.417999 
L 366.728319 -482.801438 
L 361.175279 -481.729557 
L 355.62224 -480.073014 
L 350.0692 -478.221583 
L 344.516161 -481.339782 
L 338.963121 -472.66729 
L 333.410082 -473.641727 
L 327.857042 -467.98999 
L 322.304003 -477.63692 
L 316.750963 -480.073014 
L 311.197924 -469.54909 
L 305.644884 -478.319026 
L 300.091844 -474.421277 
L 294.538805 -475.103383 
L 288.985765 -474.128946 
L 283.432726 -475.103383 
L 277.879686 -468.477209 
L 272.326647 -463.605022 
L 266.773607 -459.025166 
L 261.220568 -455.712079 
L 255.667528 -464.287128 
L 250.114489 -466.333447 
L 244.561449 -469.938865 
L 239.00841 -473.057065 
L 233.45537 -475.785489 
L 227.90233 -476.272708 
L 222.349291 -484.847757 
L 216.796251 -483.970763 
L 211.243212 -483.678432 
L 205.690172 -484.165651 
L 200.137133 -484.360538 
L 194.584093 -484.360538 
L 189.031054 -474.421277 
L 183.478014 -476.662483 
L 177.924975 -473.057065 
L 172.371935 -471.303077 
L 166.818895 -448.208912 
L 161.265856 -455.322304 
L 155.712816 -454.640198 
L 150.159777 -435.638669 
L 144.606737 -434.956563 
L 139.053698 -434.956563 
L 133.500658 -429.012495 
L 127.947619 -412.154729 
L 122.394579 -405.625998 
L 116.84154 -374.833777 
z
" style="stroke: #ffffff; stroke-opacity: 0.2"/>
    </defs>
    <g clip-path="url(#p13903546fb)">
     <use xlink:href="#m58f41aa805" x="0" y="576" style="fill: #4c72b0; fill-opacity: 0.2; stroke: #ffffff; stroke-opacity: 0.2"/>
    </g>
   </g>
   <g id="PolyCollection_2">
    <defs>
     <path id="mb0949840b5" d="M 116.84154 -373.664453 
L 116.84154 -324.942584 
L 122.394579 -350.667731 
L 127.947619 -350.570287 
L 133.500658 -370.936028 
L 139.053698 -366.063841 
L 144.606737 -372.884903 
L 150.159777 -372.202797 
L 155.712816 -372.495128 
L 161.265856 -371.910465 
L 166.818895 -372.592571 
L 172.371935 -379.218746 
L 177.924975 -378.731527 
L 183.478014 -378.634083 
L 189.031054 -382.72672 
L 194.584093 -382.72672 
L 200.137133 -386.916801 
L 205.690172 -393.835306 
L 211.243212 -393.737862 
L 216.796251 -390.717107 
L 222.349291 -392.860869 
L 227.90233 -389.937557 
L 233.45537 -390.81455 
L 239.00841 -388.281013 
L 244.561449 -374.444002 
L 250.114489 -375.515884 
L 255.667528 -374.931221 
L 261.220568 -374.541446 
L 266.773607 -374.346559 
L 272.326647 -373.177234 
L 277.879686 -372.495128 
L 283.432726 -363.822635 
L 288.985765 -355.832249 
L 294.538805 -364.894516 
L 300.091844 -365.576622 
L 305.644884 -365.576622 
L 311.197924 -395.296962 
L 316.750963 -386.429582 
L 322.304003 -386.332138 
L 327.857042 -398.707493 
L 333.410082 -402.215468 
L 338.963121 -399.584487 
L 344.516161 -407.574873 
L 350.0692 -416.344809 
L 355.62224 -413.031722 
L 361.175279 -418.391128 
L 366.728319 -413.129166 
L 372.281359 -405.528555 
L 377.834398 -407.477429 
L 383.387438 -401.728249 
L 388.940477 -408.646754 
L 394.493517 -131.516765 
L 400.046556 -142.625352 
L 405.599596 -148.374532 
L 411.152635 -151.005513 
L 416.705675 -151.882507 
L 422.258714 -155.390481 
L 427.811754 -154.610931 
L 433.364793 -154.026269 
L 438.917833 -159.580562 
L 444.470873 -165.914405 
L 450.023912 -168.447942 
L 455.576952 -174.39201 
L 461.129991 -180.530965 
L 466.683031 -179.264197 
L 472.23607 -181.115628 
L 477.78911 -176.828103 
L 483.342149 -173.61246 
L 488.895189 -180.530965 
L 494.448228 -186.767365 
L 500.001268 -189.78812 
L 505.554308 -189.106014 
L 511.107347 -186.962252 
L 516.660387 -187.254583 
L 522.213426 -190.860001 
L 527.766466 -180.336078 
L 533.319505 -178.192316 
L 538.872545 -174.879229 
L 544.425584 -175.853666 
L 549.978624 -164.939967 
L 555.531663 -159.970337 
L 561.084703 -161.139662 
L 566.637743 -164.939967 
L 572.190782 -164.452749 
L 577.743822 -162.698761 
L 583.296861 -167.668392 
L 588.849901 -167.278617 
L 594.40294 -163.478311 
L 599.95598 -167.278617 
L 605.509019 -173.222685 
L 611.062059 -168.642829 
L 616.615098 -163.478311 
L 622.168138 -154.610931 
L 627.721177 -153.149275 
L 633.274217 -153.149275 
L 638.827257 -154.026269 
L 644.380296 -150.420851 
L 649.933336 -152.369725 
L 655.486375 -165.52463 
L 661.039415 -165.427186 
L 666.592454 -164.452749 
L 666.592454 -231.104265 
L 666.592454 -231.104265 
L 661.039415 -236.853445 
L 655.486375 -236.658558 
L 649.933336 -242.115407 
L 644.380296 -262.676036 
L 638.827257 -272.42041 
L 633.274217 -279.144027 
L 627.721177 -286.159977 
L 622.168138 -294.442694 
L 616.615098 -282.846889 
L 611.062059 -273.199959 
L 605.509019 -268.425216 
L 599.95598 -276.318159 
L 594.40294 -270.763866 
L 588.849901 -277.292596 
L 583.296861 -274.174397 
L 577.743822 -292.493819 
L 572.190782 -293.663144 
L 566.637743 -291.032163 
L 561.084703 -302.043306 
L 555.531663 -300.386762 
L 549.978624 -305.55128 
L 544.425584 -308.766924 
L 538.872545 -307.597599 
L 533.319505 -299.899543 
L 527.766466 -275.538609 
L 522.213426 -275.83094 
L 516.660387 -276.123272 
L 511.107347 -252.541887 
L 505.554308 -260.337386 
L 500.001268 -258.193624 
L 494.448228 -230.519603 
L 488.895189 -213.954167 
L 483.342149 -217.851917 
L 477.78911 -217.462142 
L 472.23607 -217.657029 
L 466.683031 -217.462142 
L 461.129991 -218.826354 
L 455.576952 -218.826354 
L 450.023912 -210.446193 
L 444.470873 -197.291288 
L 438.917833 -181.310515 
L 433.364793 -178.387203 
L 427.811754 -184.428715 
L 422.258714 -192.808876 
L 416.705675 -177.412766 
L 411.152635 -176.340885 
L 405.599596 -172.735466 
L 400.046556 -162.211543 
L 394.493517 -149.738744 
L 388.940477 -483.288657 
L 383.387438 -483.093769 
L 377.834398 -482.996326 
L 372.281359 -480.560232 
L 366.728319 -458.635391 
L 361.175279 -448.501243 
L 355.62224 -455.517192 
L 350.0692 -455.906967 
L 344.516161 -456.881404 
L 338.963121 -448.988461 
L 333.410082 -449.47568 
L 327.857042 -448.208912 
L 322.304003 -446.844699 
L 316.750963 -442.849506 
L 311.197924 -444.993268 
L 305.644884 -438.756869 
L 300.091844 -437.879875 
L 294.538805 -428.915052 
L 288.985765 -433.689795 
L 283.432726 -434.566788 
L 277.879686 -435.346338 
L 272.326647 -437.295213 
L 266.773607 -444.213718 
L 261.220568 -431.74092 
L 255.667528 -432.033251 
L 250.114489 -430.669039 
L 244.561449 -436.028444 
L 239.00841 -457.076292 
L 233.45537 -454.640198 
L 227.90233 -493.422806 
L 222.349291 -496.15123 
L 216.796251 -484.945201 
L 211.243212 -479.293464 
L 205.690172 -475.200827 
L 200.137133 -484.847757 
L 194.584093 -483.483544 
L 189.031054 -484.847757 
L 183.478014 -499.366874 
L 177.924975 -505.895604 
L 172.371935 -505.310942 
L 166.818895 -482.411663 
L 161.265856 -453.470873 
L 155.712816 -435.736113 
L 150.159777 -435.443782 
L 144.606737 -436.905438 
L 139.053698 -436.613107 
L 133.500658 -420.437446 
L 127.947619 -421.216996 
L 122.394579 -372.884903 
L 116.84154 -373.664453 
z
" style="stroke: #ffffff; stroke-opacity: 0.2"/>
    </defs>
    <g clip-path="url(#p13903546fb)">
     <use xlink:href="#mb0949840b5" x="0" y="576" style="fill: #dd8452; fill-opacity: 0.2; stroke: #ffffff; stroke-opacity: 0.2"/>
    </g>
   </g>
   <g id="PolyCollection_3">
    <defs>
     <path id="mccc3564ca8" d="M 116.84154 -373.469565 
L 116.84154 -332.348308 
L 122.394579 -335.27162 
L 127.947619 -351.739612 
L 133.500658 -344.821106 
L 139.053698 -353.493599 
L 144.606737 -348.621412 
L 150.159777 -340.631026 
L 155.712816 -340.046363 
L 161.265856 -342.969675 
L 166.818895 -347.841862 
L 172.371935 -333.127858 
L 177.924975 -331.958533 
L 183.478014 -330.009658 
L 189.031054 -315.97776 
L 194.584093 -324.06559 
L 200.137133 -322.409047 
L 205.690172 -312.469786 
L 211.243212 -309.44903 
L 216.796251 -305.258949 
L 222.349291 -308.864367 
L 227.90233 -319.87551 
L 233.45537 -326.306796 
L 239.00841 -335.758839 
L 244.561449 -327.671009 
L 250.114489 -334.881845 
L 255.667528 -323.383484 
L 261.220568 -326.306796 
L 266.773607 -315.295654 
L 272.326647 -330.301989 
L 277.879686 -342.092682 
L 283.432726 -329.035221 
L 288.985765 -331.568758 
L 294.538805 -337.415382 
L 300.091844 -336.343501 
L 305.644884 -338.779595 
L 311.197924 -352.811493 
L 316.750963 -351.44728 
L 322.304003 -343.456894 
L 327.857042 -340.338694 
L 333.410082 -351.544724 
L 338.963121 -347.646975 
L 344.516161 -352.811493 
L 350.0692 -361.87376 
L 355.62224 -350.862618 
L 361.175279 -343.067119 
L 366.728319 -346.867425 
L 372.281359 -330.107102 
L 377.834398 -333.127858 
L 383.387438 -346.672537 
L 388.940477 -318.901072 
L 394.493517 -103.160638 
L 400.046556 -107.155831 
L 405.599596 -106.668612 
L 411.152635 -100.432213 
L 416.705675 -104.232519 
L 422.258714 -104.135075 
L 427.811754 -101.504094 
L 433.364793 -103.940188 
L 438.917833 -106.473725 
L 444.470873 -106.278838 
L 450.023912 -104.817181 
L 455.576952 -104.914625 
L 461.129991 -105.596731 
L 466.683031 -101.016876 
L 472.23607 -102.575976 
L 477.78911 -121.187729 
L 483.342149 -130.542328 
L 488.895189 -137.265946 
L 494.448228 -136.096621 
L 500.001268 -135.511959 
L 505.554308 -136.58384 
L 511.107347 -136.876171 
L 516.660387 -135.02474 
L 522.213426 -149.348969 
L 527.766466 -147.107763 
L 533.319505 -143.989564 
L 538.872545 -125.767585 
L 544.425584 -126.449691 
L 549.978624 -134.050303 
L 555.531663 -138.825046 
L 561.084703 -140.773921 
L 566.637743 -136.973615 
L 572.190782 -137.850608 
L 577.743822 -138.532715 
L 583.296861 -136.486396 
L 588.849901 -140.384146 
L 594.40294 -137.071059 
L 599.95598 -135.706846 
L 605.509019 -134.537521 
L 611.062059 -133.075865 
L 616.615098 -131.321878 
L 622.168138 -139.994371 
L 627.721177 -135.317071 
L 633.274217 -132.588647 
L 638.827257 -131.029547 
L 644.380296 -133.075865 
L 649.933336 -129.373003 
L 655.486375 -134.634965 
L 661.039415 -116.997649 
L 666.592454 -117.679755 
L 666.592454 -212.395067 
L 666.592454 -212.395067 
L 661.039415 -214.051611 
L 655.486375 -209.179424 
L 649.933336 -213.077174 
L 644.380296 -206.743331 
L 638.827257 -205.281675 
L 633.274217 -195.24497 
L 627.721177 -214.733717 
L 622.168138 -218.241692 
L 616.615098 -219.800791 
L 611.062059 -214.441386 
L 605.509019 -220.190566 
L 599.95598 -238.02277 
L 594.40294 -237.145777 
L 588.849901 -237.925327 
L 583.296861 -228.37584 
L 577.743822 -228.668172 
L 572.190782 -222.724104 
L 566.637743 -211.225743 
L 561.084703 -220.28801 
L 555.531663 -204.502125 
L 549.978624 -202.748137 
L 544.425584 -195.24497 
L 538.872545 -186.37759 
L 533.319505 -193.198651 
L 527.766466 -176.048553 
L 522.213426 -173.904791 
L 516.660387 -172.540579 
L 511.107347 -162.503874 
L 505.554308 -163.673199 
L 500.001268 -161.042218 
L 494.448228 -160.749887 
L 488.895189 -157.826575 
L 483.342149 -157.4368 
L 477.78911 -164.452749 
L 472.23607 -168.350498 
L 466.683031 -169.227492 
L 461.129991 -171.176367 
L 455.576952 -176.925547 
L 450.023912 -174.197122 
L 444.470873 -176.048553 
L 438.917833 -172.540579 
L 433.364793 -173.807347 
L 427.811754 -180.043747 
L 422.258714 -151.2004 
L 416.705675 -154.416044 
L 411.152635 -143.307458 
L 405.599596 -137.655721 
L 400.046556 -129.27556 
L 394.493517 -130.834659 
L 388.940477 -400.46148 
L 383.387438 -387.014245 
L 377.834398 -390.327332 
L 372.281359 -394.614856 
L 366.728319 -399.584487 
L 361.175279 -399.876818 
L 355.62224 -407.867204 
L 350.0692 -413.908716 
L 344.516161 -411.959841 
L 338.963121 -414.688266 
L 333.410082 -415.272928 
L 327.857042 -405.528555 
L 322.304003 -428.427833 
L 316.750963 -425.894296 
L 311.197924 -419.560453 
L 305.644884 -416.539697 
L 300.091844 -423.945421 
L 294.538805 -414.590822 
L 288.985765 -420.340003 
L 283.432726 -423.165871 
L 277.879686 -424.237752 
L 272.326647 -422.581209 
L 266.773607 -389.352894 
L 261.220568 -381.362508 
L 255.667528 -401.435918 
L 250.114489 -386.819357 
L 244.561449 -391.204325 
L 239.00841 -382.142058 
L 233.45537 -381.070177 
L 227.90233 -381.265064 
L 222.349291 -374.736334 
L 216.796251 -369.084597 
L 211.243212 -366.063841 
L 205.690172 -376.003102 
L 200.137133 -369.571816 
L 194.584093 -372.105353 
L 189.031054 -372.690015 
L 183.478014 -368.402491 
L 177.924975 -377.951977 
L 172.371935 -376.880096 
L 166.818895 -368.402491 
L 161.265856 -360.022329 
L 155.712816 -362.555867 
L 150.159777 -363.627748 
L 144.606737 -373.85934 
L 139.053698 -368.207603 
L 133.500658 -370.351365 
L 127.947619 -368.207603 
L 122.394579 -367.915272 
L 116.84154 -373.469565 
z
" style="stroke: #ffffff; stroke-opacity: 0.2"/>
    </defs>
    <g clip-path="url(#p13903546fb)">
     <use xlink:href="#mccc3564ca8" x="0" y="576" style="fill: #55a868; fill-opacity: 0.2; stroke: #ffffff; stroke-opacity: 0.2"/>
    </g>
   </g>
   <g id="line2d_12">
    <path d="M 116.84154 222.116626 
L 122.394579 179.923488 
L 127.947619 171.153552 
L 133.500658 161.21429 
L 139.053698 147.767055 
L 144.606737 147.182392 
L 150.159777 149.910817 
L 155.712816 141.14088 
L 161.265856 140.945993 
L 166.818895 141.043437 
L 172.371935 134.222375 
L 177.924975 131.883725 
L 183.478014 131.883725 
L 189.031054 129.934851 
L 194.584093 135.489144 
L 200.137133 129.642519 
L 205.690172 118.533933 
L 211.243212 118.631377 
L 216.796251 118.241602 
L 222.349291 118.339046 
L 227.90233 118.339046 
L 233.45537 120.970027 
L 239.00841 121.067471 
L 244.561449 122.334239 
L 250.114489 121.652133 
L 255.667528 134.222375 
L 261.220568 134.417263 
L 266.773607 128.473195 
L 272.326647 119.898146 
L 277.879686 121.262358 
L 283.432726 120.872583 
L 288.985765 118.339046 
L 294.538805 114.441296 
L 300.091844 119.021152 
L 305.644884 116.779946 
L 311.197924 117.267165 
L 316.750963 120.385364 
L 322.304003 118.923708 
L 327.857042 119.118596 
L 333.410082 120.482808 
L 338.963121 119.313483 
L 344.516161 129.057857 
L 350.0692 130.324626 
L 355.62224 128.278307 
L 361.175279 137.243131 
L 366.728319 138.315012 
L 372.281359 135.976362 
L 377.834398 134.61215 
L 383.387438 126.914095 
L 388.940477 124.18567 
L 394.493517 423.922606 
L 400.046556 416.321994 
L 405.599596 416.614326 
L 411.152635 411.157476 
L 416.705675 413.788457 
L 422.258714 416.516882 
L 427.811754 401.705434 
L 433.364793 402.095209 
L 438.917833 405.992958 
L 444.470873 406.869952 
L 450.023912 411.742139 
L 455.576952 410.377926 
L 461.129991 406.675064 
L 466.683031 400.04889 
L 472.23607 395.85881 
L 477.78911 386.601655 
L 483.342149 385.334886 
L 488.895189 382.801349 
L 494.448228 386.99143 
L 500.001268 387.381204 
L 505.554308 387.576092 
L 511.107347 389.037748 
L 516.660387 388.160754 
L 522.213426 392.058504 
L 527.766466 379.001043 
L 533.319505 349.475591 
L 538.872545 352.788678 
L 544.425584 351.716797 
L 549.978624 341.192873 
L 555.531663 336.710461 
L 561.084703 321.801569 
L 566.637743 323.750444 
L 572.190782 320.24247 
L 577.743822 313.518852 
L 583.296861 316.149833 
L 588.849901 327.160975 
L 594.40294 332.52038 
L 599.95598 330.766393 
L 605.509019 333.29993 
L 611.062059 336.710461 
L 616.615098 331.351056 
L 622.168138 340.023548 
L 627.721177 344.993179 
L 633.274217 344.116185 
L 638.827257 343.336635 
L 644.380296 333.787149 
L 649.933336 329.499625 
L 655.486375 328.135412 
L 661.039415 324.43255 
L 666.592454 339.438886 
" clip-path="url(#p13903546fb)" style="fill: none; stroke: #4c72b0; stroke-width: 1.5; stroke-linecap: round"/>
   </g>
   <g id="line2d_13">
    <path d="M 116.84154 227.670919 
L 122.394579 218.803539 
L 127.947619 196.391479 
L 133.500658 196.878698 
L 139.053698 200.289229 
L 144.606737 196.391479 
L 150.159777 195.61193 
L 155.712816 194.442605 
L 161.265856 194.540048 
L 166.818895 195.709373 
L 172.371935 192.201399 
L 177.924975 190.447411 
L 183.478014 177.584838 
L 189.031054 181.190256 
L 194.584093 166.573696 
L 200.137133 165.989033 
L 205.690172 165.306927 
L 211.243212 163.260609 
L 216.796251 160.337297 
L 222.349291 161.701509 
L 227.90233 161.604065 
L 233.45537 162.091284 
L 239.00841 164.040159 
L 244.561449 166.086477 
L 250.114489 163.358053 
L 255.667528 163.260609 
L 261.220568 159.265416 
L 266.773607 164.040159 
L 272.326647 160.824515 
L 277.879686 166.67114 
L 283.432726 166.183921 
L 288.985765 168.912346 
L 294.538805 152.34691 
L 300.091844 148.15683 
L 305.644884 145.136074 
L 311.197924 148.644048 
L 316.750963 147.767055 
L 322.304003 149.521042 
L 327.857042 152.541798 
L 333.410082 149.521042 
L 338.963121 148.936379 
L 344.516161 152.639241 
L 350.0692 150.495479 
L 355.62224 151.762248 
L 361.175279 146.792617 
L 366.728319 140.848549 
L 372.281359 138.607343 
L 377.834398 138.412456 
L 383.387438 153.613679 
L 388.940477 162.77339 
L 394.493517 437.662173 
L 400.046556 424.604712 
L 405.599596 414.470563 
L 411.152635 410.085595 
L 416.705675 409.598377 
L 422.258714 411.644695 
L 427.811754 411.449808 
L 433.364793 410.767701 
L 438.917833 403.264534 
L 444.470873 393.617604 
L 450.023912 393.715047 
L 455.576952 393.617604 
L 461.129991 393.422716 
L 466.683031 393.227829 
L 472.23607 390.791735 
L 477.78911 386.21188 
L 483.342149 379.683149 
L 488.895189 368.184788 
L 494.448228 358.440415 
L 500.001268 361.948389 
L 505.554308 363.410045 
L 511.107347 361.656058 
L 516.660387 353.470784 
L 522.213426 362.045833 
L 527.766466 362.825383 
L 533.319505 360.194402 
L 538.872545 352.106572 
L 544.425584 346.357391 
L 549.978624 344.700848 
L 555.531663 345.772729 
L 561.084703 345.772729 
L 566.637743 348.208822 
L 572.190782 348.40371 
L 577.743822 334.176924 
L 583.296861 328.622631 
L 588.849901 325.017213 
L 594.40294 328.232856 
L 599.95598 326.186537 
L 605.509019 331.643387 
L 611.062059 342.459642 
L 616.615098 348.890928 
L 622.168138 357.563421 
L 627.721177 364.287039 
L 633.274217 375.395625 
L 638.827257 376.077731 
L 644.380296 375.882843 
L 649.933336 379.683149 
L 655.486375 379.390818 
L 661.039415 379.195931 
L 666.592454 378.903599 
" clip-path="url(#p13903546fb)" style="fill: none; stroke: #dd8452; stroke-width: 1.5; stroke-linecap: round"/>
   </g>
   <g id="line2d_14">
    <path d="M 116.84154 215.977671 
L 122.394579 218.803539 
L 127.947619 218.803539 
L 133.500658 213.541577 
L 139.053698 215.295564 
L 144.606737 223.285951 
L 150.159777 221.044745 
L 155.712816 217.731658 
L 161.265856 227.476032 
L 166.818895 222.603845 
L 172.371935 218.218877 
L 177.924975 213.054359 
L 183.478014 218.998427 
L 189.031054 217.926545 
L 194.584093 224.942494 
L 200.137133 230.204456 
L 205.690172 211.300371 
L 211.243212 222.896176 
L 216.796251 229.814681 
L 222.349291 222.019182 
L 227.90233 216.464889 
L 233.45537 233.614987 
L 239.00841 230.496788 
L 244.561449 220.947301 
L 250.114489 226.599038 
L 255.667528 220.752414 
L 261.220568 222.99362 
L 266.773607 221.43452 
L 272.326647 217.244439 
L 277.879686 219.972864 
L 283.432726 215.685339 
L 288.985765 223.77317 
L 294.538805 228.060694 
L 300.091844 230.3019 
L 305.644884 230.204456 
L 311.197924 207.597509 
L 316.750963 204.576753 
L 322.304003 200.679004 
L 327.857042 202.530435 
L 333.410082 194.345161 
L 338.963121 195.222155 
L 344.516161 196.001705 
L 350.0692 199.217348 
L 355.62224 196.294036 
L 361.175279 209.838715 
L 366.728319 213.736465 
L 372.281359 216.464889 
L 377.834398 208.279615 
L 383.387438 212.079921 
L 388.940477 199.509679 
L 394.493517 460.853782 
L 400.046556 454.032721 
L 405.599596 447.601434 
L 411.152635 439.41616 
L 416.705675 442.53436 
L 422.258714 439.903379 
L 427.811754 438.539167 
L 433.364793 437.272398 
L 438.917833 440.000823 
L 444.470873 440.390598 
L 450.023912 432.595099 
L 455.576952 432.010436 
L 461.129991 426.651031 
L 466.683031 432.497655 
L 472.23607 436.980067 
L 477.78911 433.66698 
L 483.342149 435.810742 
L 488.895189 435.713298 
L 494.448228 424.897043 
L 500.001268 422.363506 
L 505.554308 420.706963 
L 511.107347 426.553587 
L 516.660387 429.866674 
L 522.213426 422.948169 
L 527.766466 409.890708 
L 533.319505 413.008907 
L 538.872545 413.496126 
L 544.425584 413.496126 
L 549.978624 414.860338 
L 555.531663 421.778844 
L 561.084703 424.702156 
L 566.637743 425.579149 
L 572.190782 422.168619 
L 577.743822 420.219744 
L 583.296861 410.572814 
L 588.849901 412.131914 
L 594.40294 403.654309 
L 599.95598 400.438665 
L 605.509019 397.807684 
L 611.062059 393.032941 
L 616.615098 395.07926 
L 622.168138 402.777315 
L 627.721177 401.120771 
L 633.274217 400.633553 
L 638.827257 398.294903 
L 644.380296 402.874759 
L 649.933336 385.724661 
L 655.486375 377.539387 
L 661.039415 388.355642 
L 666.592454 392.838054 
" clip-path="url(#p13903546fb)" style="fill: none; stroke: #55a868; stroke-width: 1.5; stroke-linecap: round"/>
   </g>
   <g id="patch_3">
    <path d="M 89.353994 495.840956 
L 89.353994 49.831226 
" style="fill: none; stroke: #cccccc; stroke-width: 1.25; stroke-linejoin: miter; stroke-linecap: square"/>
   </g>
   <g id="patch_4">
    <path d="M 694.08 495.840956 
L 694.08 49.831226 
" style="fill: none; stroke: #cccccc; stroke-width: 1.25; stroke-linejoin: miter; stroke-linecap: square"/>
   </g>
   <g id="patch_5">
    <path d="M 89.353994 495.840956 
L 694.08 495.840956 
" style="fill: none; stroke: #cccccc; stroke-width: 1.25; stroke-linejoin: miter; stroke-linecap: square"/>
   </g>
   <g id="patch_6">
    <path d="M 89.353994 49.831226 
L 694.08 49.831226 
" style="fill: none; stroke: #cccccc; stroke-width: 1.25; stroke-linejoin: miter; stroke-linecap: square"/>
   </g>
   <g id="text_14">
    <!-- Structural Similarity Index Measure (SSIM) over Step (Median) -->
    <g style="fill: #262626" transform="translate(93.310896 43.831226) scale(0.24 -0.24)">
     <defs>
      <path id="CMSS17-6f" d="M 2829 1356 
C 2829 2176 2221 2816 1504 2816 
C 768 2816 173 2157 173 1356 
C 173 544 787 -64 1498 -64 
C 2227 -64 2829 563 2829 1356 
z
M 1504 337 
C 1050 337 659 709 659 1408 
C 659 2151 1114 2427 1498 2427 
C 1914 2427 2342 2126 2342 1408 
C 2342 683 1926 337 1504 337 
z
" transform="scale(0.015625)"/>
      <path id="CMSS17-76" d="M 2675 2752 
L 2176 2752 
L 1747 1556 
C 1613 1165 1421 627 1389 352 
L 1382 352 
C 1370 468 1318 634 1286 749 
C 1248 890 1197 1056 1158 1172 
L 595 2752 
L 83 2752 
L 1094 0 
L 1664 0 
L 2675 2752 
z
" transform="scale(0.015625)"/>
     </defs>
     <use xlink:href="#CMSS17-53" transform="scale(0.996264)"/>
     <use xlink:href="#CMSS17-74" transform="translate(52.048516 0) scale(0.996264)"/>
     <use xlink:href="#CMSS17-72" transform="translate(85.880083 0) scale(0.996264)"/>
     <use xlink:href="#CMSS17-75" transform="translate(117.789855 0) scale(0.996264)"/>
     <use xlink:href="#CMSS17-63" transform="translate(165.994799 0) scale(0.996264)"/>
     <use xlink:href="#CMSS17-74" transform="translate(207.633621 0) scale(0.996264)"/>
     <use xlink:href="#CMSS17-75" transform="translate(241.465187 0) scale(0.996264)"/>
     <use xlink:href="#CMSS17-72" transform="translate(289.67013 0) scale(0.996264)"/>
     <use xlink:href="#CMSS17-61" transform="translate(321.579903 0) scale(0.996264)"/>
     <use xlink:href="#CMSS17-6c" transform="translate(366.501824 0) scale(0.996264)"/>
     <use xlink:href="#CMSS17-53" transform="translate(419.911659 0) scale(0.996264)"/>
     <use xlink:href="#CMSS17-69" transform="translate(471.960176 0) scale(0.996264)"/>
     <use xlink:href="#CMSS17-6d" transform="translate(494.140899 0) scale(0.996264)"/>
     <use xlink:href="#CMSS17-69" transform="translate(568.370153 0) scale(0.996264)"/>
     <use xlink:href="#CMSS17-6c" transform="translate(590.550876 0) scale(0.996264)"/>
     <use xlink:href="#CMSS17-61" transform="translate(612.731599 0) scale(0.996264)"/>
     <use xlink:href="#CMSS17-72" transform="translate(655.051066 0) scale(0.996264)"/>
     <use xlink:href="#CMSS17-69" transform="translate(686.960838 0) scale(0.996264)"/>
     <use xlink:href="#CMSS17-74" transform="translate(709.141561 0) scale(0.996264)"/>
     <use xlink:href="#CMSS17-79" transform="translate(740.370674 0) scale(0.996264)"/>
     <use xlink:href="#CMSS17-49" transform="translate(814.599929 0) scale(0.996264)"/>
     <use xlink:href="#CMSS17-6e" transform="translate(840.383854 0) scale(0.996264)"/>
     <use xlink:href="#CMSS17-64" transform="translate(888.588797 0) scale(0.996264)"/>
     <use xlink:href="#CMSS17-65" transform="translate(936.79374 0) scale(0.996264)"/>
     <use xlink:href="#CMSS17-78" transform="translate(978.432562 0) scale(0.996264)"/>
     <use xlink:href="#CMSS17-4d" transform="translate(1052.661817 0) scale(0.996264)"/>
     <use xlink:href="#CMSS17-65" transform="translate(1134.337847 0) scale(0.996264)"/>
     <use xlink:href="#CMSS17-61" transform="translate(1175.976669 0) scale(0.996264)"/>
     <use xlink:href="#CMSS17-73" transform="translate(1220.89859 0) scale(0.996264)"/>
     <use xlink:href="#CMSS17-75" transform="translate(1256.812132 0) scale(0.996264)"/>
     <use xlink:href="#CMSS17-72" transform="translate(1305.017075 0) scale(0.996264)"/>
     <use xlink:href="#CMSS17-65" transform="translate(1336.926847 0) scale(0.996264)"/>
     <use xlink:href="#CMSS17-28" transform="translate(1409.794782 0) scale(0.996264)"/>
     <use xlink:href="#CMSS17-53" transform="translate(1446.228696 0) scale(0.996264)"/>
     <use xlink:href="#CMSS17-53" transform="translate(1498.277212 0) scale(0.996264)"/>
     <use xlink:href="#CMSS17-49" transform="translate(1550.325729 0) scale(0.996264)"/>
     <use xlink:href="#CMSS17-4d" transform="translate(1576.109654 0) scale(0.996264)"/>
     <use xlink:href="#CMSS17-29" transform="translate(1657.785684 0) scale(0.996264)"/>
     <use xlink:href="#CMSS17-6f" transform="translate(1725.448711 0) scale(0.996264)"/>
     <use xlink:href="#CMSS17-76" transform="translate(1772.292335 0) scale(0.996264)"/>
     <use xlink:href="#CMSS17-65" transform="translate(1815.292476 0) scale(0.996264)"/>
     <use xlink:href="#CMSS17-72" transform="translate(1856.931298 0) scale(0.996264)"/>
     <use xlink:href="#CMSS17-53" transform="translate(1920.070184 0) scale(0.996264)"/>
     <use xlink:href="#CMSS17-74" transform="translate(1972.1187 0) scale(0.996264)"/>
     <use xlink:href="#CMSS17-65" transform="translate(2005.950266 0) scale(0.996264)"/>
     <use xlink:href="#CMSS17-70" transform="translate(2047.589089 0) scale(0.996264)"/>
     <use xlink:href="#CMSS17-28" transform="translate(2127.023144 0) scale(0.996264)"/>
     <use xlink:href="#CMSS17-4d" transform="translate(2163.457059 0) scale(0.996264)"/>
     <use xlink:href="#CMSS17-65" transform="translate(2245.133089 0) scale(0.996264)"/>
     <use xlink:href="#CMSS17-64" transform="translate(2286.771911 0) scale(0.996264)"/>
     <use xlink:href="#CMSS17-69" transform="translate(2334.976854 0) scale(0.996264)"/>
     <use xlink:href="#CMSS17-61" transform="translate(2357.157577 0) scale(0.996264)"/>
     <use xlink:href="#CMSS17-6e" transform="translate(2402.079497 0) scale(0.996264)"/>
     <use xlink:href="#CMSS17-29" transform="translate(2450.284441 0) scale(0.996264)"/>
    </g>
   </g>
   <g id="legend_1">
    <g id="patch_7">
     <path d="M 471.488525 191.675953 
L 678.68 191.675953 
Q 683.08 191.675953 683.08 187.275953 
L 683.08 65.231226 
Q 683.08 60.831226 678.68 60.831226 
L 471.488525 60.831226 
Q 467.088525 60.831226 467.088525 65.231226 
L 467.088525 187.275953 
Q 467.088525 191.675953 471.488525 191.675953 
z
" style="fill: #ffffff; opacity: 0.8; stroke: #cccccc; stroke-linejoin: miter"/>
    </g>
    <g id="text_15">
     <!-- Noise Type -->
     <g style="fill: #262626" transform="translate(522.845177 86.235632) scale(0.24 -0.24)">
      <defs>
       <path id="CMSS17-4e" d="M 1466 4180 
L 1350 4416 
L 563 4416 
L 563 0 
L 1062 0 
L 1062 3926 
L 1069 3932 
C 1114 3817 1139 3760 1402 3194 
L 2771 236 
L 2886 0 
L 3674 0 
L 3674 4416 
L 3174 4416 
L 3174 490 
L 3168 483 
C 3123 598 3098 655 2835 1221 
L 1466 4180 
z
" transform="scale(0.015625)"/>
       <path id="CMSS17-54" d="M 2317 3968 
L 2848 3968 
C 2925 3968 3002 3968 3078 3968 
L 3878 3968 
L 3878 4376 
L 218 4376 
L 218 3968 
L 1018 3968 
C 1094 3968 1171 3968 1248 3968 
L 1779 3968 
L 1779 -32 
L 2317 -32 
L 2317 3968 
z
" transform="scale(0.015625)"/>
      </defs>
      <use xlink:href="#CMSS17-4e" transform="scale(0.996264)"/>
      <use xlink:href="#CMSS17-6f" transform="translate(66.061519 0) scale(0.996264)"/>
      <use xlink:href="#CMSS17-69" transform="translate(112.905143 0) scale(0.996264)"/>
      <use xlink:href="#CMSS17-73" transform="translate(135.085866 0) scale(0.996264)"/>
      <use xlink:href="#CMSS17-65" transform="translate(170.999408 0) scale(0.996264)"/>
      <use xlink:href="#CMSS17-54" transform="translate(243.867343 0) scale(0.996264)"/>
      <use xlink:href="#CMSS17-79" transform="translate(299.879541 0) scale(0.996264)"/>
      <use xlink:href="#CMSS17-70" transform="translate(342.879683 0) scale(0.996264)"/>
      <use xlink:href="#CMSS17-65" transform="translate(393.687065 0) scale(0.996264)"/>
     </g>
    </g>
    <g id="line2d_15">
     <path d="M 475.888525 109.586389 
L 497.888525 109.586389 
L 519.888525 109.586389 
" style="fill: none; stroke: #4c72b0; stroke-width: 1.5; stroke-linecap: round"/>
    </g>
    <g id="text_16">
     <!-- None -->
     <g style="fill: #262626" transform="translate(537.488525 117.286389) scale(0.22 -0.22)">
      <use xlink:href="#CMSS17-4e" transform="scale(0.996264)"/>
      <use xlink:href="#CMSS17-6f" transform="translate(66.061519 0) scale(0.996264)"/>
      <use xlink:href="#CMSS17-6e" transform="translate(112.905143 0) scale(0.996264)"/>
      <use xlink:href="#CMSS17-65" transform="translate(161.110086 0) scale(0.996264)"/>
     </g>
    </g>
    <g id="line2d_16">
     <path d="M 475.888525 140.249577 
L 497.888525 140.249577 
L 519.888525 140.249577 
" style="fill: none; stroke: #dd8452; stroke-width: 1.5; stroke-linecap: round"/>
    </g>
    <g id="text_17">
     <!-- Gaussian -->
     <g style="fill: #262626" transform="translate(537.488525 147.949577) scale(0.22 -0.22)">
      <defs>
       <path id="CMSS17-47" d="M 3610 1856 
L 2336 1856 
L 2336 1461 
L 3123 1461 
L 3123 471 
C 2874 401 2618 350 2362 350 
C 1466 350 934 1301 934 2200 
C 934 3095 1491 4032 2362 4032 
C 2854 4032 3130 3881 3469 3627 
L 3552 4134 
C 3130 4351 2867 4440 2387 4440 
C 1146 4440 397 3324 397 2182 
C 397 1090 1152 -64 2349 -64 
C 2797 -64 3213 51 3610 248 
L 3610 1856 
z
" transform="scale(0.015625)"/>
      </defs>
      <use xlink:href="#CMSS17-47" transform="scale(0.996264)"/>
      <use xlink:href="#CMSS17-61" transform="translate(62.458226 0) scale(0.996264)"/>
      <use xlink:href="#CMSS17-75" transform="translate(107.380146 0) scale(0.996264)"/>
      <use xlink:href="#CMSS17-73" transform="translate(155.585089 0) scale(0.996264)"/>
      <use xlink:href="#CMSS17-73" transform="translate(191.498631 0) scale(0.996264)"/>
      <use xlink:href="#CMSS17-69" transform="translate(227.412173 0) scale(0.996264)"/>
      <use xlink:href="#CMSS17-61" transform="translate(249.592896 0) scale(0.996264)"/>
      <use xlink:href="#CMSS17-6e" transform="translate(294.514817 0) scale(0.996264)"/>
     </g>
    </g>
    <g id="line2d_17">
     <path d="M 475.888525 170.912765 
L 497.888525 170.912765 
L 519.888525 170.912765 
" style="fill: none; stroke: #55a868; stroke-width: 1.5; stroke-linecap: round"/>
    </g>
    <g id="text_18">
     <!-- Salt-and-pepper -->
     <g style="fill: #262626" transform="translate(537.488525 178.612765) scale(0.22 -0.22)">
      <defs>
       <path id="CMSS17-2d" d="M 1664 1216 
L 1664 1585 
L 64 1585 
L 64 1216 
L 1664 1216 
z
" transform="scale(0.015625)"/>
      </defs>
      <use xlink:href="#CMSS17-53" transform="scale(0.996264)"/>
      <use xlink:href="#CMSS17-61" transform="translate(52.048516 0) scale(0.996264)"/>
      <use xlink:href="#CMSS17-6c" transform="translate(96.970437 0) scale(0.996264)"/>
      <use xlink:href="#CMSS17-74" transform="translate(119.15116 0) scale(0.996264)"/>
      <use xlink:href="#CMSS17-2d" transform="translate(152.982727 0) scale(0.996264)"/>
      <use xlink:href="#CMSS17-61" transform="translate(184.211839 0) scale(0.996264)"/>
      <use xlink:href="#CMSS17-6e" transform="translate(229.13376 0) scale(0.996264)"/>
      <use xlink:href="#CMSS17-64" transform="translate(277.338703 0) scale(0.996264)"/>
      <use xlink:href="#CMSS17-2d" transform="translate(325.543646 0) scale(0.996264)"/>
      <use xlink:href="#CMSS17-70" transform="translate(356.772759 0) scale(0.996264)"/>
      <use xlink:href="#CMSS17-65" transform="translate(407.580141 0) scale(0.996264)"/>
      <use xlink:href="#CMSS17-70" transform="translate(449.218963 0) scale(0.996264)"/>
      <use xlink:href="#CMSS17-70" transform="translate(497.423906 0) scale(0.996264)"/>
      <use xlink:href="#CMSS17-65" transform="translate(548.231288 0) scale(0.996264)"/>
      <use xlink:href="#CMSS17-72" transform="translate(589.87011 0) scale(0.996264)"/>
     </g>
    </g>
   </g>
  </g>
 </g>
 <defs>
  <clipPath id="p13903546fb">
   <rect x="89.353994" y="49.831226" width="604.726006" height="446.00973"/>
  </clipPath>
 </defs>
</svg>
