<?xml version="1.0" encoding="utf-8" standalone="no"?>
<!DOCTYPE svg PUBLIC "-//W3C//DTD SVG 1.1//EN"
  "http://www.w3.org/Graphics/SVG/1.1/DTD/svg11.dtd">
<svg xmlns:xlink="http://www.w3.org/1999/xlink" width="1008pt" height="504pt" viewBox="0 0 1008 504" xmlns="http://www.w3.org/2000/svg" version="1.1">
 <metadata>
  <rdf:RDF xmlns:dc="http://purl.org/dc/elements/1.1/" xmlns:cc="http://creativecommons.org/ns#" xmlns:rdf="http://www.w3.org/1999/02/22-rdf-syntax-ns#">
   <cc:Work>
    <dc:type rdf:resource="http://purl.org/dc/dcmitype/StillImage"/>
    <dc:date>2025-04-24T11:36:09.073560</dc:date>
    <dc:format>image/svg+xml</dc:format>
    <dc:creator>
     <cc:Agent>
      <dc:title>Matplotlib v3.9.2, https://matplotlib.org/</dc:title>
     </cc:Agent>
    </dc:creator>
   </cc:Work>
  </rdf:RDF>
 </metadata>
 <defs>
  <style type="text/css">*{stroke-linejoin: round; stroke-linecap: butt}</style>
 </defs>
 <g id="figure_1">
  <g id="patch_1">
   <path d="M 0 504 
L 1008 504 
L 1008 0 
L 0 0 
z
" style="fill: #ffffff"/>
  </g>
  <g id="axes_1">
   <g id="patch_2">
    <path d="M 62.57879 457.707244 
L 995.04 457.707244 
L 995.04 29.719639 
L 62.57879 29.719639 
z
" style="fill: #ffffff"/>
   </g>
   <g id="patch_3">
    <path d="M 104.963391 457.707244 
L 116.075458 457.707244 
L 116.075458 406.031722 
L 104.963391 406.031722 
z
" clip-path="url(#pbff9552399)" style="fill: #1f77b4"/>
   </g>
   <g id="patch_4">
    <path d="M 136.712155 457.707244 
L 147.824223 457.707244 
L 147.824223 354.190573 
L 136.712155 354.190573 
z
" clip-path="url(#pbff9552399)" style="fill: #1f77b4"/>
   </g>
   <g id="patch_5">
    <path d="M 168.46092 457.707244 
L 179.572987 457.707244 
L 179.572987 351.706173 
L 168.46092 351.706173 
z
" clip-path="url(#pbff9552399)" style="fill: #1f77b4"/>
   </g>
   <g id="patch_6">
    <path d="M 200.209684 457.707244 
L 211.321751 457.707244 
L 211.321751 368.434467 
L 200.209684 368.434467 
z
" clip-path="url(#pbff9552399)" style="fill: #1f77b4"/>
   </g>
   <g id="patch_7">
    <path d="M 231.958448 457.707244 
L 243.070516 457.707244 
L 243.070516 275.352277 
L 231.958448 275.352277 
z
" clip-path="url(#pbff9552399)" style="fill: #1f77b4"/>
   </g>
   <g id="patch_8">
    <path d="M 263.707213 457.707244 
L 274.81928 457.707244 
L 274.81928 231.958088 
L 263.707213 231.958088 
z
" clip-path="url(#pbff9552399)" style="fill: #1f77b4"/>
   </g>
   <g id="patch_9">
    <path d="M 295.455977 457.707244 
L 306.568045 457.707244 
L 306.568045 252.992676 
L 295.455977 252.992676 
z
" clip-path="url(#pbff9552399)" style="fill: #1f77b4"/>
   </g>
   <g id="patch_10">
    <path d="M 327.204741 457.707244 
L 338.316809 457.707244 
L 338.316809 253.489556 
L 327.204741 253.489556 
z
" clip-path="url(#pbff9552399)" style="fill: #1f77b4"/>
   </g>
   <g id="patch_11">
    <path d="M 358.953506 457.707244 
L 370.065573 457.707244 
L 370.065573 340.940439 
L 358.953506 340.940439 
z
" clip-path="url(#pbff9552399)" style="fill: #1f77b4"/>
   </g>
   <g id="patch_12">
    <path d="M 390.70227 457.707244 
L 401.814338 457.707244 
L 401.814338 165.376166 
L 390.70227 165.376166 
z
" clip-path="url(#pbff9552399)" style="fill: #1f77b4"/>
   </g>
   <g id="patch_13">
    <path d="M 422.451035 457.707244 
L 433.563102 457.707244 
L 433.563102 426.238176 
L 422.451035 426.238176 
z
" clip-path="url(#pbff9552399)" style="fill: #1f77b4"/>
   </g>
   <g id="patch_14">
    <path d="M 454.199799 457.707244 
L 465.311866 457.707244 
L 465.311866 444.622737 
L 454.199799 444.622737 
z
" clip-path="url(#pbff9552399)" style="fill: #1f77b4"/>
   </g>
   <g id="patch_15">
    <path d="M 485.948563 457.707244 
L 497.060631 457.707244 
L 497.060631 380.193961 
L 485.948563 380.193961 
z
" clip-path="url(#pbff9552399)" style="fill: #1f77b4"/>
   </g>
   <g id="patch_16">
    <path d="M 517.697328 457.707244 
L 528.809395 457.707244 
L 528.809395 376.053294 
L 517.697328 376.053294 
z
" clip-path="url(#pbff9552399)" style="fill: #1f77b4"/>
   </g>
   <g id="patch_17">
    <path d="M 549.446092 457.707244 
L 560.55816 457.707244 
L 560.55816 347.565506 
L 549.446092 347.565506 
z
" clip-path="url(#pbff9552399)" style="fill: #1f77b4"/>
   </g>
   <g id="patch_18">
    <path d="M 581.194856 457.707244 
L 592.306924 457.707244 
L 592.306924 278.996064 
L 581.194856 278.996064 
z
" clip-path="url(#pbff9552399)" style="fill: #1f77b4"/>
   </g>
   <g id="patch_19">
    <path d="M 612.943621 457.707244 
L 624.055688 457.707244 
L 624.055688 330.671586 
L 612.943621 330.671586 
z
" clip-path="url(#pbff9552399)" style="fill: #1f77b4"/>
   </g>
   <g id="patch_20">
    <path d="M 644.692385 457.707244 
L 655.804453 457.707244 
L 655.804453 289.761797 
L 644.692385 289.761797 
z
" clip-path="url(#pbff9552399)" style="fill: #1f77b4"/>
   </g>
   <g id="patch_21">
    <path d="M 676.44115 457.707244 
L 687.553217 457.707244 
L 687.553217 335.640386 
L 676.44115 335.640386 
z
" clip-path="url(#pbff9552399)" style="fill: #1f77b4"/>
   </g>
   <g id="patch_22">
    <path d="M 708.189914 457.707244 
L 719.301981 457.707244 
L 719.301981 319.905852 
L 708.189914 319.905852 
z
" clip-path="url(#pbff9552399)" style="fill: #1f77b4"/>
   </g>
   <g id="patch_23">
    <path d="M 739.938678 457.707244 
L 751.050746 457.707244 
L 751.050746 325.205905 
L 739.938678 325.205905 
z
" clip-path="url(#pbff9552399)" style="fill: #1f77b4"/>
   </g>
   <g id="patch_24">
    <path d="M 771.687443 457.707244 
L 782.79951 457.707244 
L 782.79951 370.753241 
L 771.687443 370.753241 
z
" clip-path="url(#pbff9552399)" style="fill: #1f77b4"/>
   </g>
   <g id="patch_25">
    <path d="M 803.436207 457.707244 
L 814.548275 457.707244 
L 814.548275 345.743613 
L 803.436207 345.743613 
z
" clip-path="url(#pbff9552399)" style="fill: #1f77b4"/>
   </g>
   <g id="patch_26">
    <path d="M 835.184971 457.707244 
L 846.297039 457.707244 
L 846.297039 392.781588 
L 835.184971 392.781588 
z
" clip-path="url(#pbff9552399)" style="fill: #1f77b4"/>
   </g>
   <g id="patch_27">
    <path d="M 866.933736 457.707244 
L 878.045803 457.707244 
L 878.045803 408.847375 
L 866.933736 408.847375 
z
" clip-path="url(#pbff9552399)" style="fill: #1f77b4"/>
   </g>
   <g id="patch_28">
    <path d="M 898.6825 457.707244 
L 909.794568 457.707244 
L 909.794568 389.965935 
L 898.6825 389.965935 
z
" clip-path="url(#pbff9552399)" style="fill: #1f77b4"/>
   </g>
   <g id="patch_29">
    <path d="M 930.431265 457.707244 
L 941.543332 457.707244 
L 941.543332 381.850228 
L 930.431265 381.850228 
z
" clip-path="url(#pbff9552399)" style="fill: #1f77b4"/>
   </g>
   <g id="patch_30">
    <path d="M 116.075458 457.707244 
L 127.187526 457.707244 
L 127.187526 426.072549 
L 116.075458 426.072549 
z
" clip-path="url(#pbff9552399)" style="fill: #ff7f0e"/>
   </g>
   <g id="patch_31">
    <path d="M 147.824223 457.707244 
L 158.93629 457.707244 
L 158.93629 364.956307 
L 147.824223 364.956307 
z
" clip-path="url(#pbff9552399)" style="fill: #ff7f0e"/>
   </g>
   <g id="patch_32">
    <path d="M 179.572987 457.707244 
L 190.685055 457.707244 
L 190.685055 362.30628 
L 179.572987 362.30628 
z
" clip-path="url(#pbff9552399)" style="fill: #ff7f0e"/>
   </g>
   <g id="patch_33">
    <path d="M 211.321751 457.707244 
L 222.433819 457.707244 
L 222.433819 397.087882 
L 211.321751 397.087882 
z
" clip-path="url(#pbff9552399)" style="fill: #ff7f0e"/>
   </g>
   <g id="patch_34">
    <path d="M 243.070516 457.707244 
L 254.182583 457.707244 
L 254.182583 286.118011 
L 243.070516 286.118011 
z
" clip-path="url(#pbff9552399)" style="fill: #ff7f0e"/>
   </g>
   <g id="patch_35">
    <path d="M 274.81928 457.707244 
L 285.931348 457.707244 
L 285.931348 238.914409 
L 274.81928 238.914409 
z
" clip-path="url(#pbff9552399)" style="fill: #ff7f0e"/>
   </g>
   <g id="patch_36">
    <path d="M 306.568045 457.707244 
L 317.680112 457.707244 
L 317.680112 262.26777 
L 306.568045 262.26777 
z
" clip-path="url(#pbff9552399)" style="fill: #ff7f0e"/>
   </g>
   <g id="patch_37">
    <path d="M 338.316809 457.707244 
L 349.428876 457.707244 
L 349.428876 305.661958 
L 338.316809 305.661958 
z
" clip-path="url(#pbff9552399)" style="fill: #ff7f0e"/>
   </g>
   <g id="patch_38">
    <path d="M 370.065573 457.707244 
L 381.177641 457.707244 
L 381.177641 356.34372 
L 370.065573 356.34372 
z
" clip-path="url(#pbff9552399)" style="fill: #ff7f0e"/>
   </g>
   <g id="patch_39">
    <path d="M 401.814338 457.707244 
L 412.926405 457.707244 
L 412.926405 275.352277 
L 401.814338 275.352277 
z
" clip-path="url(#pbff9552399)" style="fill: #ff7f0e"/>
   </g>
   <g id="patch_40">
    <path d="M 433.563102 457.707244 
L 444.67517 457.707244 
L 444.67517 440.48207 
L 433.563102 440.48207 
z
" clip-path="url(#pbff9552399)" style="fill: #ff7f0e"/>
   </g>
   <g id="patch_41">
    <path d="M 465.311866 457.707244 
L 476.423934 457.707244 
L 476.423934 434.51951 
L 465.311866 434.51951 
z
" clip-path="url(#pbff9552399)" style="fill: #ff7f0e"/>
   </g>
   <g id="patch_42">
    <path d="M 497.060631 457.707244 
L 508.172698 457.707244 
L 508.172698 390.628441 
L 497.060631 390.628441 
z
" clip-path="url(#pbff9552399)" style="fill: #ff7f0e"/>
   </g>
   <g id="patch_43">
    <path d="M 528.809395 457.707244 
L 539.921463 457.707244 
L 539.921463 350.546786 
L 528.809395 350.546786 
z
" clip-path="url(#pbff9552399)" style="fill: #ff7f0e"/>
   </g>
   <g id="patch_44">
    <path d="M 560.55816 457.707244 
L 571.670227 457.707244 
L 571.670227 350.87804 
L 560.55816 350.87804 
z
" clip-path="url(#pbff9552399)" style="fill: #ff7f0e"/>
   </g>
   <g id="patch_45">
    <path d="M 592.306924 457.707244 
L 603.418991 457.707244 
L 603.418991 303.840065 
L 592.306924 303.840065 
z
" clip-path="url(#pbff9552399)" style="fill: #ff7f0e"/>
   </g>
   <g id="patch_46">
    <path d="M 624.055688 457.707244 
L 635.167756 457.707244 
L 635.167756 361.975027 
L 624.055688 361.975027 
z
" clip-path="url(#pbff9552399)" style="fill: #ff7f0e"/>
   </g>
   <g id="patch_47">
    <path d="M 655.804453 457.707244 
L 666.91652 457.707244 
L 666.91652 349.3874 
L 655.804453 349.3874 
z
" clip-path="url(#pbff9552399)" style="fill: #ff7f0e"/>
   </g>
   <g id="patch_48">
    <path d="M 687.553217 457.707244 
L 698.665285 457.707244 
L 698.665285 366.446947 
L 687.553217 366.446947 
z
" clip-path="url(#pbff9552399)" style="fill: #ff7f0e"/>
   </g>
   <g id="patch_49">
    <path d="M 719.301981 457.707244 
L 730.414049 457.707244 
L 730.414049 341.437319 
L 719.301981 341.437319 
z
" clip-path="url(#pbff9552399)" style="fill: #ff7f0e"/>
   </g>
   <g id="patch_50">
    <path d="M 751.050746 457.707244 
L 762.162813 457.707244 
L 762.162813 336.799773 
L 751.050746 336.799773 
z
" clip-path="url(#pbff9552399)" style="fill: #ff7f0e"/>
   </g>
   <g id="patch_51">
    <path d="M 782.79951 457.707244 
L 793.911578 457.707244 
L 793.911578 376.218921 
L 782.79951 376.218921 
z
" clip-path="url(#pbff9552399)" style="fill: #ff7f0e"/>
   </g>
   <g id="patch_52">
    <path d="M 814.548275 457.707244 
L 825.660342 457.707244 
L 825.660342 351.540546 
L 814.548275 351.540546 
z
" clip-path="url(#pbff9552399)" style="fill: #ff7f0e"/>
   </g>
   <g id="patch_53">
    <path d="M 846.297039 457.707244 
L 857.409106 457.707244 
L 857.409106 414.313056 
L 846.297039 414.313056 
z
" clip-path="url(#pbff9552399)" style="fill: #ff7f0e"/>
   </g>
   <g id="patch_54">
    <path d="M 878.045803 457.707244 
L 889.157871 457.707244 
L 889.157871 391.622201 
L 878.045803 391.622201 
z
" clip-path="url(#pbff9552399)" style="fill: #ff7f0e"/>
   </g>
   <g id="patch_55">
    <path d="M 909.794568 457.707244 
L 920.906635 457.707244 
L 920.906635 392.781588 
L 909.794568 392.781588 
z
" clip-path="url(#pbff9552399)" style="fill: #ff7f0e"/>
   </g>
   <g id="patch_56">
    <path d="M 941.543332 457.707244 
L 952.6554 457.707244 
L 952.6554 380.028334 
L 941.543332 380.028334 
z
" clip-path="url(#pbff9552399)" style="fill: #ff7f0e"/>
   </g>
   <g id="matplotlib.axis_1">
    <g id="xtick_1">
     <g id="line2d_1">
      <defs>
       <path id="m4255704a51" d="M 0 0 
L 0 3.5 
" style="stroke: #000000; stroke-width: 0.8"/>
      </defs>
      <g>
       <use xlink:href="#m4255704a51" x="116.075458" y="457.707244" style="stroke: #000000; stroke-width: 0.8"/>
      </g>
     </g>
     <g id="text_1">
      <!-- 1 -->
      <g transform="translate(119.06425 470.560234) rotate(-90) scale(0.12 -0.12)">
       <defs>
        <path id="CMR17-31" d="M 1702 4058 
C 1702 4192 1696 4192 1606 4192 
C 1357 3916 979 3827 621 3827 
C 602 3827 570 3827 563 3808 
C 557 3795 557 3782 557 3648 
C 755 3648 1088 3686 1344 3839 
L 1344 461 
C 1344 236 1331 160 781 160 
L 589 160 
L 589 0 
C 896 0 1216 0 1523 0 
C 1830 0 2150 0 2458 0 
L 2458 160 
L 2266 160 
C 1715 160 1702 230 1702 458 
L 1702 4058 
z
" transform="scale(0.015625)"/>
       </defs>
       <use xlink:href="#CMR17-31" transform="scale(0.996264)"/>
      </g>
     </g>
    </g>
    <g id="xtick_2">
     <g id="line2d_2">
      <g>
       <use xlink:href="#m4255704a51" x="147.824223" y="457.707244" style="stroke: #000000; stroke-width: 0.8"/>
      </g>
     </g>
     <g id="text_2">
      <!-- 2 -->
      <g transform="translate(150.813015 470.560234) rotate(-90) scale(0.12 -0.12)">
       <defs>
        <path id="CMR17-32" d="M 2669 989 
L 2554 989 
C 2490 536 2438 459 2413 420 
C 2381 369 1920 369 1830 369 
L 602 369 
C 832 619 1280 1072 1824 1597 
C 2214 1967 2669 2402 2669 3035 
C 2669 3790 2067 4224 1395 4224 
C 691 4224 262 3604 262 3030 
C 262 2780 448 2748 525 2748 
C 589 2748 781 2787 781 3010 
C 781 3207 614 3264 525 3264 
C 486 3264 448 3258 422 3245 
C 544 3790 915 4058 1306 4058 
C 1862 4058 2227 3617 2227 3035 
C 2227 2479 1901 2000 1536 1584 
L 262 146 
L 262 0 
L 2515 0 
L 2669 989 
z
" transform="scale(0.015625)"/>
       </defs>
       <use xlink:href="#CMR17-32" transform="scale(0.996264)"/>
      </g>
     </g>
    </g>
    <g id="xtick_3">
     <g id="line2d_3">
      <g>
       <use xlink:href="#m4255704a51" x="179.572987" y="457.707244" style="stroke: #000000; stroke-width: 0.8"/>
      </g>
     </g>
     <g id="text_3">
      <!-- 3 -->
      <g transform="translate(182.561779 470.560234) rotate(-90) scale(0.12 -0.12)">
       <defs>
        <path id="CMR17-33" d="M 1414 2157 
C 1984 2157 2234 1662 2234 1090 
C 2234 320 1824 25 1453 25 
C 1114 25 563 194 390 693 
C 422 680 454 680 486 680 
C 640 680 755 782 755 948 
C 755 1133 614 1216 486 1216 
C 378 1216 211 1165 211 926 
C 211 335 787 -128 1466 -128 
C 2176 -128 2720 430 2720 1085 
C 2720 1707 2208 2157 1600 2227 
C 2086 2328 2554 2756 2554 3329 
C 2554 3820 2048 4179 1472 4179 
C 890 4179 378 3829 378 3329 
C 378 3110 544 3072 627 3072 
C 762 3072 877 3155 877 3321 
C 877 3486 762 3569 627 3569 
C 602 3569 570 3569 544 3557 
C 730 3959 1235 4032 1459 4032 
C 1683 4032 2106 3925 2106 3320 
C 2106 3143 2080 2828 1862 2550 
C 1670 2304 1453 2304 1242 2284 
C 1210 2284 1062 2269 1037 2269 
C 992 2263 966 2257 966 2208 
C 966 2163 973 2157 1101 2157 
L 1414 2157 
z
" transform="scale(0.015625)"/>
       </defs>
       <use xlink:href="#CMR17-33" transform="scale(0.996264)"/>
      </g>
     </g>
    </g>
    <g id="xtick_4">
     <g id="line2d_4">
      <g>
       <use xlink:href="#m4255704a51" x="211.321751" y="457.707244" style="stroke: #000000; stroke-width: 0.8"/>
      </g>
     </g>
     <g id="text_4">
      <!-- 4 -->
      <g transform="translate(214.310543 470.560234) rotate(-90) scale(0.12 -0.12)">
       <defs>
        <path id="CMR17-34" d="M 2150 4122 
C 2150 4256 2144 4256 2029 4256 
L 128 1254 
L 128 1088 
L 1779 1088 
L 1779 457 
C 1779 224 1766 160 1318 160 
L 1197 160 
L 1197 0 
C 1402 0 1747 0 1965 0 
C 2182 0 2528 0 2733 0 
L 2733 160 
L 2611 160 
C 2163 160 2150 224 2150 457 
L 2150 1088 
L 2803 1088 
L 2803 1254 
L 2150 1254 
L 2150 4122 
z
M 1798 3703 
L 1798 1254 
L 256 1254 
L 1798 3703 
z
" transform="scale(0.015625)"/>
       </defs>
       <use xlink:href="#CMR17-34" transform="scale(0.996264)"/>
      </g>
     </g>
    </g>
    <g id="xtick_5">
     <g id="line2d_5">
      <g>
       <use xlink:href="#m4255704a51" x="243.070516" y="457.707244" style="stroke: #000000; stroke-width: 0.8"/>
      </g>
     </g>
     <g id="text_5">
      <!-- 5 -->
      <g transform="translate(246.059308 470.560234) rotate(-90) scale(0.12 -0.12)">
       <defs>
        <path id="CMR17-35" d="M 730 3692 
C 794 3666 1056 3584 1325 3584 
C 1920 3584 2246 3911 2432 4100 
C 2432 4157 2432 4192 2394 4192 
C 2387 4192 2374 4192 2323 4163 
C 2099 4058 1837 3973 1517 3973 
C 1325 3973 1037 3999 723 4139 
C 653 4171 640 4171 634 4171 
C 602 4171 595 4164 595 4037 
L 595 2203 
C 595 2089 595 2057 659 2057 
C 691 2057 704 2070 736 2114 
C 941 2401 1222 2522 1542 2522 
C 1766 2522 2246 2382 2246 1289 
C 2246 1085 2246 715 2054 421 
C 1894 159 1645 25 1370 25 
C 947 25 518 320 403 814 
C 429 807 480 795 506 795 
C 589 795 749 840 749 1038 
C 749 1210 627 1280 506 1280 
C 358 1280 262 1190 262 1011 
C 262 454 704 -128 1382 -128 
C 2042 -128 2669 440 2669 1264 
C 2669 2030 2170 2624 1549 2624 
C 1222 2624 947 2503 730 2274 
L 730 3692 
z
" transform="scale(0.015625)"/>
       </defs>
       <use xlink:href="#CMR17-35" transform="scale(0.996264)"/>
      </g>
     </g>
    </g>
    <g id="xtick_6">
     <g id="line2d_6">
      <g>
       <use xlink:href="#m4255704a51" x="274.81928" y="457.707244" style="stroke: #000000; stroke-width: 0.8"/>
      </g>
     </g>
     <g id="text_6">
      <!-- 6 -->
      <g transform="translate(277.808072 470.560234) rotate(-90) scale(0.12 -0.12)">
       <defs>
        <path id="CMR17-36" d="M 678 2176 
C 678 3690 1395 4032 1811 4032 
C 1946 4032 2272 4009 2400 3776 
C 2298 3776 2106 3776 2106 3553 
C 2106 3381 2246 3323 2336 3323 
C 2394 3323 2566 3348 2566 3560 
C 2566 3954 2246 4179 1805 4179 
C 1043 4179 243 3390 243 1984 
C 243 253 966 -128 1478 -128 
C 2099 -128 2688 427 2688 1283 
C 2688 2081 2170 2662 1517 2662 
C 1126 2662 838 2407 678 1960 
L 678 2176 
z
M 1478 25 
C 691 25 691 1200 691 1436 
C 691 1896 909 2560 1504 2560 
C 1613 2560 1926 2560 2138 2120 
C 2253 1870 2253 1609 2253 1289 
C 2253 944 2253 690 2118 434 
C 1978 171 1773 25 1478 25 
z
" transform="scale(0.015625)"/>
       </defs>
       <use xlink:href="#CMR17-36" transform="scale(0.996264)"/>
      </g>
     </g>
    </g>
    <g id="xtick_7">
     <g id="line2d_7">
      <g>
       <use xlink:href="#m4255704a51" x="306.568045" y="457.707244" style="stroke: #000000; stroke-width: 0.8"/>
      </g>
     </g>
     <g id="text_7">
      <!-- 7 -->
      <g transform="translate(309.556837 470.560234) rotate(-90) scale(0.12 -0.12)">
       <defs>
        <path id="CMR17-37" d="M 2886 3941 
L 2886 4081 
L 1382 4081 
C 634 4081 621 4165 595 4288 
L 480 4288 
L 294 3094 
L 410 3094 
C 429 3215 474 3540 550 3661 
C 589 3712 1062 3712 1171 3712 
L 2579 3712 
L 1869 2661 
C 1395 1954 1069 999 1069 165 
C 1069 89 1069 -128 1299 -128 
C 1530 -128 1530 89 1530 171 
L 1530 465 
C 1530 1508 1709 2196 2003 2636 
L 2886 3941 
z
" transform="scale(0.015625)"/>
       </defs>
       <use xlink:href="#CMR17-37" transform="scale(0.996264)"/>
      </g>
     </g>
    </g>
    <g id="xtick_8">
     <g id="line2d_8">
      <g>
       <use xlink:href="#m4255704a51" x="338.316809" y="457.707244" style="stroke: #000000; stroke-width: 0.8"/>
      </g>
     </g>
     <g id="text_8">
      <!-- 8 -->
      <g transform="translate(341.305601 470.560234) rotate(-90) scale(0.12 -0.12)">
       <defs>
        <path id="CMR17-38" d="M 1741 2264 
C 2144 2467 2554 2773 2554 3263 
C 2554 3841 1990 4179 1472 4179 
C 890 4179 378 3759 378 3180 
C 378 3021 416 2747 666 2505 
C 730 2442 998 2251 1171 2130 
C 883 1983 211 1634 211 934 
C 211 279 838 -128 1459 -128 
C 2144 -128 2720 362 2720 1010 
C 2720 1590 2330 1857 2074 2029 
L 1741 2264 
z
M 902 2822 
C 851 2854 595 3051 595 3351 
C 595 3739 998 4032 1459 4032 
C 1965 4032 2336 3676 2336 3262 
C 2336 2669 1670 2331 1638 2331 
C 1632 2331 1626 2331 1574 2370 
L 902 2822 
z
M 2080 1519 
C 2176 1449 2483 1240 2483 851 
C 2483 381 2010 25 1472 25 
C 890 25 448 438 448 940 
C 448 1443 838 1862 1280 2060 
L 2080 1519 
z
" transform="scale(0.015625)"/>
       </defs>
       <use xlink:href="#CMR17-38" transform="scale(0.996264)"/>
      </g>
     </g>
    </g>
    <g id="xtick_9">
     <g id="line2d_9">
      <g>
       <use xlink:href="#m4255704a51" x="370.065573" y="457.707244" style="stroke: #000000; stroke-width: 0.8"/>
      </g>
     </g>
     <g id="text_9">
      <!-- 11 -->
      <g transform="translate(373.054365 476.413224) rotate(-90) scale(0.12 -0.12)">
       <use xlink:href="#CMR17-31" transform="scale(0.996264)"/>
       <use xlink:href="#CMR17-31" transform="translate(45.690477 0) scale(0.996264)"/>
      </g>
     </g>
    </g>
    <g id="xtick_10">
     <g id="line2d_10">
      <g>
       <use xlink:href="#m4255704a51" x="401.814338" y="457.707244" style="stroke: #000000; stroke-width: 0.8"/>
      </g>
     </g>
     <g id="text_10">
      <!-- 13 -->
      <g transform="translate(404.80313 476.413224) rotate(-90) scale(0.12 -0.12)">
       <use xlink:href="#CMR17-31" transform="scale(0.996264)"/>
       <use xlink:href="#CMR17-33" transform="translate(45.690477 0) scale(0.996264)"/>
      </g>
     </g>
    </g>
    <g id="xtick_11">
     <g id="line2d_11">
      <g>
       <use xlink:href="#m4255704a51" x="433.563102" y="457.707244" style="stroke: #000000; stroke-width: 0.8"/>
      </g>
     </g>
     <g id="text_11">
      <!-- 16 -->
      <g transform="translate(436.551894 476.413224) rotate(-90) scale(0.12 -0.12)">
       <use xlink:href="#CMR17-31" transform="scale(0.996264)"/>
       <use xlink:href="#CMR17-36" transform="translate(45.690477 0) scale(0.996264)"/>
      </g>
     </g>
    </g>
    <g id="xtick_12">
     <g id="line2d_12">
      <g>
       <use xlink:href="#m4255704a51" x="465.311866" y="457.707244" style="stroke: #000000; stroke-width: 0.8"/>
      </g>
     </g>
     <g id="text_12">
      <!-- 17 -->
      <g transform="translate(468.300658 476.413224) rotate(-90) scale(0.12 -0.12)">
       <use xlink:href="#CMR17-31" transform="scale(0.996264)"/>
       <use xlink:href="#CMR17-37" transform="translate(45.690477 0) scale(0.996264)"/>
      </g>
     </g>
    </g>
    <g id="xtick_13">
     <g id="line2d_13">
      <g>
       <use xlink:href="#m4255704a51" x="497.060631" y="457.707244" style="stroke: #000000; stroke-width: 0.8"/>
      </g>
     </g>
     <g id="text_13">
      <!-- 18 -->
      <g transform="translate(500.049423 476.413224) rotate(-90) scale(0.12 -0.12)">
       <use xlink:href="#CMR17-31" transform="scale(0.996264)"/>
       <use xlink:href="#CMR17-38" transform="translate(45.690477 0) scale(0.996264)"/>
      </g>
     </g>
    </g>
    <g id="xtick_14">
     <g id="line2d_14">
      <g>
       <use xlink:href="#m4255704a51" x="528.809395" y="457.707244" style="stroke: #000000; stroke-width: 0.8"/>
      </g>
     </g>
     <g id="text_14">
      <!-- 20 -->
      <g transform="translate(531.798187 476.413224) rotate(-90) scale(0.12 -0.12)">
       <defs>
        <path id="CMR17-30" d="M 2688 2025 
C 2688 2416 2682 3080 2413 3591 
C 2176 4039 1798 4198 1466 4198 
C 1158 4198 768 4058 525 3597 
C 269 3118 243 2524 243 2025 
C 243 1661 250 1106 448 619 
C 723 -39 1216 -128 1466 -128 
C 1760 -128 2208 -7 2470 600 
C 2662 1042 2688 1559 2688 2025 
z
M 1466 -26 
C 1056 -26 813 325 723 812 
C 653 1188 653 1738 653 2096 
C 653 2588 653 2997 736 3387 
C 858 3929 1216 4096 1466 4096 
C 1728 4096 2067 3923 2189 3400 
C 2272 3036 2278 2607 2278 2096 
C 2278 1680 2278 1169 2202 792 
C 2067 95 1690 -26 1466 -26 
z
" transform="scale(0.015625)"/>
       </defs>
       <use xlink:href="#CMR17-32" transform="scale(0.996264)"/>
       <use xlink:href="#CMR17-30" transform="translate(45.690477 0) scale(0.996264)"/>
      </g>
     </g>
    </g>
    <g id="xtick_15">
     <g id="line2d_15">
      <g>
       <use xlink:href="#m4255704a51" x="560.55816" y="457.707244" style="stroke: #000000; stroke-width: 0.8"/>
      </g>
     </g>
     <g id="text_15">
      <!-- 21 -->
      <g transform="translate(563.546952 476.413224) rotate(-90) scale(0.12 -0.12)">
       <use xlink:href="#CMR17-32" transform="scale(0.996264)"/>
       <use xlink:href="#CMR17-31" transform="translate(45.690477 0) scale(0.996264)"/>
      </g>
     </g>
    </g>
    <g id="xtick_16">
     <g id="line2d_16">
      <g>
       <use xlink:href="#m4255704a51" x="592.306924" y="457.707244" style="stroke: #000000; stroke-width: 0.8"/>
      </g>
     </g>
     <g id="text_16">
      <!-- 22 -->
      <g transform="translate(595.295716 476.413224) rotate(-90) scale(0.12 -0.12)">
       <use xlink:href="#CMR17-32" transform="scale(0.996264)"/>
       <use xlink:href="#CMR17-32" transform="translate(45.690477 0) scale(0.996264)"/>
      </g>
     </g>
    </g>
    <g id="xtick_17">
     <g id="line2d_17">
      <g>
       <use xlink:href="#m4255704a51" x="624.055688" y="457.707244" style="stroke: #000000; stroke-width: 0.8"/>
      </g>
     </g>
     <g id="text_17">
      <!-- 23 -->
      <g transform="translate(627.04448 476.413224) rotate(-90) scale(0.12 -0.12)">
       <use xlink:href="#CMR17-32" transform="scale(0.996264)"/>
       <use xlink:href="#CMR17-33" transform="translate(45.690477 0) scale(0.996264)"/>
      </g>
     </g>
    </g>
    <g id="xtick_18">
     <g id="line2d_18">
      <g>
       <use xlink:href="#m4255704a51" x="655.804453" y="457.707244" style="stroke: #000000; stroke-width: 0.8"/>
      </g>
     </g>
     <g id="text_18">
      <!-- 24 -->
      <g transform="translate(658.793245 476.413224) rotate(-90) scale(0.12 -0.12)">
       <use xlink:href="#CMR17-32" transform="scale(0.996264)"/>
       <use xlink:href="#CMR17-34" transform="translate(45.690477 0) scale(0.996264)"/>
      </g>
     </g>
    </g>
    <g id="xtick_19">
     <g id="line2d_19">
      <g>
       <use xlink:href="#m4255704a51" x="687.553217" y="457.707244" style="stroke: #000000; stroke-width: 0.8"/>
      </g>
     </g>
     <g id="text_19">
      <!-- 25 -->
      <g transform="translate(690.542009 476.413224) rotate(-90) scale(0.12 -0.12)">
       <use xlink:href="#CMR17-32" transform="scale(0.996264)"/>
       <use xlink:href="#CMR17-35" transform="translate(45.690477 0) scale(0.996264)"/>
      </g>
     </g>
    </g>
    <g id="xtick_20">
     <g id="line2d_20">
      <g>
       <use xlink:href="#m4255704a51" x="719.301981" y="457.707244" style="stroke: #000000; stroke-width: 0.8"/>
      </g>
     </g>
     <g id="text_20">
      <!-- 26 -->
      <g transform="translate(722.290773 476.413224) rotate(-90) scale(0.12 -0.12)">
       <use xlink:href="#CMR17-32" transform="scale(0.996264)"/>
       <use xlink:href="#CMR17-36" transform="translate(45.690477 0) scale(0.996264)"/>
      </g>
     </g>
    </g>
    <g id="xtick_21">
     <g id="line2d_21">
      <g>
       <use xlink:href="#m4255704a51" x="751.050746" y="457.707244" style="stroke: #000000; stroke-width: 0.8"/>
      </g>
     </g>
     <g id="text_21">
      <!-- 27 -->
      <g transform="translate(754.039538 476.413224) rotate(-90) scale(0.12 -0.12)">
       <use xlink:href="#CMR17-32" transform="scale(0.996264)"/>
       <use xlink:href="#CMR17-37" transform="translate(45.690477 0) scale(0.996264)"/>
      </g>
     </g>
    </g>
    <g id="xtick_22">
     <g id="line2d_22">
      <g>
       <use xlink:href="#m4255704a51" x="782.79951" y="457.707244" style="stroke: #000000; stroke-width: 0.8"/>
      </g>
     </g>
     <g id="text_22">
      <!-- 28 -->
      <g transform="translate(785.788302 476.413224) rotate(-90) scale(0.12 -0.12)">
       <use xlink:href="#CMR17-32" transform="scale(0.996264)"/>
       <use xlink:href="#CMR17-38" transform="translate(45.690477 0) scale(0.996264)"/>
      </g>
     </g>
    </g>
    <g id="xtick_23">
     <g id="line2d_23">
      <g>
       <use xlink:href="#m4255704a51" x="814.548275" y="457.707244" style="stroke: #000000; stroke-width: 0.8"/>
      </g>
     </g>
     <g id="text_23">
      <!-- 29 -->
      <g transform="translate(817.537067 476.413224) rotate(-90) scale(0.12 -0.12)">
       <defs>
        <path id="CMR17-39" d="M 2253 1864 
C 2253 464 1670 31 1190 31 
C 1043 31 685 31 538 294 
C 704 268 826 357 826 518 
C 826 692 685 749 595 749 
C 538 749 365 723 365 506 
C 365 71 742 -128 1203 -128 
C 1939 -128 2688 674 2688 2073 
C 2688 3817 1971 4179 1485 4179 
C 851 4179 243 3628 243 2778 
C 243 1991 762 1408 1414 1408 
C 1952 1408 2189 1903 2253 2112 
L 2253 1864 
z
M 1427 1510 
C 1254 1510 1011 1542 813 1922 
C 678 2169 678 2461 678 2771 
C 678 3146 678 3405 858 3684 
C 947 3817 1114 4032 1485 4032 
C 2240 4032 2240 2885 2240 2632 
C 2240 2182 2035 1510 1427 1510 
z
" transform="scale(0.015625)"/>
       </defs>
       <use xlink:href="#CMR17-32" transform="scale(0.996264)"/>
       <use xlink:href="#CMR17-39" transform="translate(45.690477 0) scale(0.996264)"/>
      </g>
     </g>
    </g>
    <g id="xtick_24">
     <g id="line2d_24">
      <g>
       <use xlink:href="#m4255704a51" x="846.297039" y="457.707244" style="stroke: #000000; stroke-width: 0.8"/>
      </g>
     </g>
     <g id="text_24">
      <!-- 30 -->
      <g transform="translate(849.285831 476.413224) rotate(-90) scale(0.12 -0.12)">
       <use xlink:href="#CMR17-33" transform="scale(0.996264)"/>
       <use xlink:href="#CMR17-30" transform="translate(45.690477 0) scale(0.996264)"/>
      </g>
     </g>
    </g>
    <g id="xtick_25">
     <g id="line2d_25">
      <g>
       <use xlink:href="#m4255704a51" x="878.045803" y="457.707244" style="stroke: #000000; stroke-width: 0.8"/>
      </g>
     </g>
     <g id="text_25">
      <!-- 32 -->
      <g transform="translate(881.034595 476.413224) rotate(-90) scale(0.12 -0.12)">
       <use xlink:href="#CMR17-33" transform="scale(0.996264)"/>
       <use xlink:href="#CMR17-32" transform="translate(45.690477 0) scale(0.996264)"/>
      </g>
     </g>
    </g>
    <g id="xtick_26">
     <g id="line2d_26">
      <g>
       <use xlink:href="#m4255704a51" x="909.794568" y="457.707244" style="stroke: #000000; stroke-width: 0.8"/>
      </g>
     </g>
     <g id="text_26">
      <!-- 33 -->
      <g transform="translate(912.78336 476.413224) rotate(-90) scale(0.12 -0.12)">
       <use xlink:href="#CMR17-33" transform="scale(0.996264)"/>
       <use xlink:href="#CMR17-33" transform="translate(45.690477 0) scale(0.996264)"/>
      </g>
     </g>
    </g>
    <g id="xtick_27">
     <g id="line2d_27">
      <g>
       <use xlink:href="#m4255704a51" x="941.543332" y="457.707244" style="stroke: #000000; stroke-width: 0.8"/>
      </g>
     </g>
     <g id="text_27">
      <!-- 34 -->
      <g transform="translate(944.532124 476.413224) rotate(-90) scale(0.12 -0.12)">
       <use xlink:href="#CMR17-33" transform="scale(0.996264)"/>
       <use xlink:href="#CMR17-34" transform="translate(45.690477 0) scale(0.996264)"/>
      </g>
     </g>
    </g>
    <g id="text_28">
     <!-- Folder -->
     <g transform="translate(512.795997 488.715404) scale(0.12 -0.12)">
      <defs>
       <path id="CMR17-46" d="M 3482 4325 
L 326 4325 
L 326 4160 
C 768 4160 838 4160 838 3874 
L 838 446 
C 838 160 768 160 326 160 
L 326 0 
C 512 0 870 0 1069 0 
C 1331 0 1638 0 1901 0 
L 1901 160 
L 1760 160 
C 1274 160 1261 223 1261 452 
L 1261 2075 
L 1837 2075 
C 2432 2075 2490 1865 2490 1332 
L 2605 1332 
L 2605 2987 
L 2490 2987 
C 2490 2450 2432 2240 1837 2240 
L 1261 2240 
L 1261 3911 
C 1261 4128 1274 4160 1530 4160 
L 2355 4160 
C 3322 4160 3430 3765 3520 2916 
L 3635 2916 
L 3482 4325 
z
" transform="scale(0.015625)"/>
       <path id="CMR17-6f" d="M 2758 1356 
C 2758 2176 2163 2816 1466 2816 
C 768 2816 173 2176 173 1356 
C 173 551 768 -64 1466 -64 
C 2163 -64 2758 551 2758 1356 
z
M 1466 51 
C 1165 51 909 230 762 480 
C 602 767 582 1126 582 1408 
C 582 1677 595 2010 762 2298 
C 890 2509 1139 2714 1466 2714 
C 1754 2714 1997 2554 2150 2330 
C 2349 2029 2349 1607 2349 1408 
C 2349 1158 2336 775 2163 467 
C 1984 173 1709 51 1466 51 
z
" transform="scale(0.015625)"/>
       <path id="CMR17-6c" d="M 979 4396 
L 218 4326 
L 218 4160 
C 595 4160 653 4122 653 3817 
L 653 426 
C 653 184 627 153 218 153 
L 218 -13 
C 371 0 653 0 813 0 
C 979 0 1261 0 1414 -13 
L 1414 153 
C 1005 153 979 178 979 426 
L 979 4396 
z
" transform="scale(0.015625)"/>
       <path id="CMR17-64" d="M 1869 4326 
L 1869 4160 
C 2246 4160 2304 4122 2304 3820 
L 2304 2345 
C 2278 2377 2016 2790 1498 2790 
C 845 2790 211 2208 211 1364 
C 211 525 806 -64 1434 -64 
C 1978 -64 2259 337 2291 380 
L 2291 -63 
L 3066 -63 
L 3066 128 
C 2688 128 2630 166 2630 473 
L 2630 4396 
L 1869 4326 
z
M 2291 755 
C 2291 563 2176 390 2029 262 
C 1811 70 1594 38 1472 38 
C 1286 38 621 134 621 1356 
C 621 2612 1363 2688 1530 2688 
C 1824 2688 2061 2522 2208 2291 
C 2291 2157 2291 2138 2291 2023 
L 2291 755 
z
" transform="scale(0.015625)"/>
       <path id="CMR17-65" d="M 2438 1472 
C 2464 1498 2464 1511 2464 1576 
C 2464 2238 2118 2816 1389 2816 
C 710 2816 173 2169 173 1383 
C 173 551 781 -64 1459 -64 
C 2176 -64 2458 607 2458 740 
C 2458 784 2419 784 2406 784 
C 2362 784 2355 771 2330 696 
C 2189 265 1837 51 1504 51 
C 1229 51 954 203 781 480 
C 582 803 582 1176 582 1472 
L 2438 1472 
z
M 589 1568 
C 634 2505 1126 2714 1382 2714 
C 1818 2714 2112 2297 2118 1568 
L 589 1568 
z
" transform="scale(0.015625)"/>
       <path id="CMR17-72" d="M 960 1497 
C 960 2112 1222 2688 1702 2688 
C 1747 2688 1792 2682 1837 2662 
C 1837 2662 1696 2617 1696 2452 
C 1696 2298 1818 2234 1914 2234 
C 1990 2234 2131 2279 2131 2458 
C 2131 2663 1926 2790 1709 2790 
C 1222 2790 1011 2317 947 2093 
L 941 2093 
L 941 2790 
L 198 2720 
L 198 2554 
C 576 2554 634 2515 634 2208 
L 634 428 
C 634 184 608 153 198 153 
L 198 -13 
C 352 0 646 0 813 0 
C 998 0 1325 0 1498 -13 
L 1498 153 
C 1037 153 960 153 960 440 
L 960 1497 
z
" transform="scale(0.015625)"/>
      </defs>
      <use xlink:href="#CMR17-46" transform="scale(0.996264)"/>
      <use xlink:href="#CMR17-6f" transform="translate(52.176591 0) scale(0.996264)"/>
      <use xlink:href="#CMR17-6c" transform="translate(97.867068 0) scale(0.996264)"/>
      <use xlink:href="#CMR17-64" transform="translate(122.738127 0) scale(0.996264)"/>
      <use xlink:href="#CMR17-65" transform="translate(173.633497 0) scale(0.996264)"/>
      <use xlink:href="#CMR17-72" transform="translate(214.119157 0) scale(0.996264)"/>
     </g>
    </g>
   </g>
   <g id="matplotlib.axis_2">
    <g id="ytick_1">
     <g id="line2d_28">
      <defs>
       <path id="m83a3546aca" d="M 0 0 
L -3.5 0 
" style="stroke: #000000; stroke-width: 0.8"/>
      </defs>
      <g>
       <use xlink:href="#m83a3546aca" x="62.57879" y="457.707244" style="stroke: #000000; stroke-width: 0.8"/>
      </g>
     </g>
     <g id="text_29">
      <!-- $\mathdefault{0.000}$ -->
      <g transform="translate(28.915168 461.858334) scale(0.12 -0.12)">
       <defs>
        <path id="CMMI12-3a" d="M 1178 307 
C 1178 492 1024 619 870 619 
C 685 619 557 466 557 313 
C 557 128 710 0 864 0 
C 1050 0 1178 153 1178 307 
z
" transform="scale(0.015625)"/>
       </defs>
       <use xlink:href="#CMR17-30" transform="scale(0.996264)"/>
       <use xlink:href="#CMMI12-3a" transform="translate(45.690477 0) scale(0.996264)"/>
       <use xlink:href="#CMR17-30" transform="translate(72.787654 0) scale(0.996264)"/>
       <use xlink:href="#CMR17-30" transform="translate(118.478131 0) scale(0.996264)"/>
       <use xlink:href="#CMR17-30" transform="translate(164.168608 0) scale(0.996264)"/>
      </g>
     </g>
    </g>
    <g id="ytick_2">
     <g id="line2d_29">
      <g>
       <use xlink:href="#m83a3546aca" x="62.57879" y="374.893907" style="stroke: #000000; stroke-width: 0.8"/>
      </g>
     </g>
     <g id="text_30">
      <!-- $\mathdefault{0.005}$ -->
      <g transform="translate(28.915168 379.044997) scale(0.12 -0.12)">
       <use xlink:href="#CMR17-30" transform="scale(0.996264)"/>
       <use xlink:href="#CMMI12-3a" transform="translate(45.690477 0) scale(0.996264)"/>
       <use xlink:href="#CMR17-30" transform="translate(72.787654 0) scale(0.996264)"/>
       <use xlink:href="#CMR17-30" transform="translate(118.478131 0) scale(0.996264)"/>
       <use xlink:href="#CMR17-35" transform="translate(164.168608 0) scale(0.996264)"/>
      </g>
     </g>
    </g>
    <g id="ytick_3">
     <g id="line2d_30">
      <g>
       <use xlink:href="#m83a3546aca" x="62.57879" y="292.080571" style="stroke: #000000; stroke-width: 0.8"/>
      </g>
     </g>
     <g id="text_31">
      <!-- $\mathdefault{0.010}$ -->
      <g transform="translate(28.915168 296.231661) scale(0.12 -0.12)">
       <use xlink:href="#CMR17-30" transform="scale(0.996264)"/>
       <use xlink:href="#CMMI12-3a" transform="translate(45.690477 0) scale(0.996264)"/>
       <use xlink:href="#CMR17-30" transform="translate(72.787654 0) scale(0.996264)"/>
       <use xlink:href="#CMR17-31" transform="translate(118.478131 0) scale(0.996264)"/>
       <use xlink:href="#CMR17-30" transform="translate(164.168608 0) scale(0.996264)"/>
      </g>
     </g>
    </g>
    <g id="ytick_4">
     <g id="line2d_31">
      <g>
       <use xlink:href="#m83a3546aca" x="62.57879" y="209.267234" style="stroke: #000000; stroke-width: 0.8"/>
      </g>
     </g>
     <g id="text_32">
      <!-- $\mathdefault{0.015}$ -->
      <g transform="translate(28.915168 213.418324) scale(0.12 -0.12)">
       <use xlink:href="#CMR17-30" transform="scale(0.996264)"/>
       <use xlink:href="#CMMI12-3a" transform="translate(45.690477 0) scale(0.996264)"/>
       <use xlink:href="#CMR17-30" transform="translate(72.787654 0) scale(0.996264)"/>
       <use xlink:href="#CMR17-31" transform="translate(118.478131 0) scale(0.996264)"/>
       <use xlink:href="#CMR17-35" transform="translate(164.168608 0) scale(0.996264)"/>
      </g>
     </g>
    </g>
    <g id="ytick_5">
     <g id="line2d_32">
      <g>
       <use xlink:href="#m83a3546aca" x="62.57879" y="126.453898" style="stroke: #000000; stroke-width: 0.8"/>
      </g>
     </g>
     <g id="text_33">
      <!-- $\mathdefault{0.020}$ -->
      <g transform="translate(28.915168 130.604988) scale(0.12 -0.12)">
       <use xlink:href="#CMR17-30" transform="scale(0.996264)"/>
       <use xlink:href="#CMMI12-3a" transform="translate(45.690477 0) scale(0.996264)"/>
       <use xlink:href="#CMR17-30" transform="translate(72.787654 0) scale(0.996264)"/>
       <use xlink:href="#CMR17-32" transform="translate(118.478131 0) scale(0.996264)"/>
       <use xlink:href="#CMR17-30" transform="translate(164.168608 0) scale(0.996264)"/>
      </g>
     </g>
    </g>
    <g id="ytick_6">
     <g id="line2d_33">
      <g>
       <use xlink:href="#m83a3546aca" x="62.57879" y="43.640561" style="stroke: #000000; stroke-width: 0.8"/>
      </g>
     </g>
     <g id="text_34">
      <!-- $\mathdefault{0.025}$ -->
      <g transform="translate(28.915168 47.791651) scale(0.12 -0.12)">
       <use xlink:href="#CMR17-30" transform="scale(0.996264)"/>
       <use xlink:href="#CMMI12-3a" transform="translate(45.690477 0) scale(0.996264)"/>
       <use xlink:href="#CMR17-30" transform="translate(72.787654 0) scale(0.996264)"/>
       <use xlink:href="#CMR17-32" transform="translate(118.478131 0) scale(0.996264)"/>
       <use xlink:href="#CMR17-35" transform="translate(164.168608 0) scale(0.996264)"/>
      </g>
     </g>
    </g>
    <g id="text_35">
     <!-- Mean Squared Error (MSE) -->
     <g transform="translate(21.926376 315.243772) rotate(-90) scale(0.12 -0.12)">
      <defs>
       <path id="CMR17-4d" d="M 1338 4224 
C 1299 4320 1293 4320 1158 4320 
L 339 4320 
L 339 4160 
C 781 4160 851 4160 851 3875 
L 851 610 
C 851 451 851 153 339 153 
L 339 -13 
C 486 0 755 0 915 0 
C 1075 0 1344 0 1491 -13 
L 1491 153 
C 979 153 979 451 979 610 
L 979 4135 
L 986 4135 
L 2490 89 
C 2515 25 2528 -13 2579 -13 
C 2630 -13 2643 25 2669 89 
L 4186 4166 
L 4192 4166 
L 4192 438 
C 4192 153 4122 153 3680 153 
L 3680 -13 
C 3853 0 4198 0 4384 0 
C 4570 0 4922 0 5094 -13 
L 5094 153 
C 4653 153 4582 153 4582 438 
L 4582 3875 
C 4582 4160 4653 4160 5094 4160 
L 5094 4320 
L 4282 4320 
C 4147 4320 4141 4314 4102 4218 
L 2720 502 
L 1338 4224 
z
" transform="scale(0.015625)"/>
       <path id="CMR17-61" d="M 2304 1653 
C 2304 2072 2304 2294 2035 2543 
C 1798 2752 1523 2816 1306 2816 
C 800 2816 435 2407 435 1971 
C 435 1728 627 1728 666 1728 
C 749 1728 896 1778 896 1954 
C 896 2112 774 2181 666 2181 
C 640 2181 608 2174 589 2168 
C 723 2592 1069 2714 1293 2714 
C 1613 2714 1965 2429 1965 1885 
L 1965 1600 
C 1587 1600 1133 1549 774 1357 
C 371 1133 256 813 256 570 
C 256 77 832 -64 1171 -64 
C 1523 -64 1850 139 1990 511 
C 2003 233 2182 -18 2464 -18 
C 2598 -18 2938 70 2938 567 
L 2938 920 
L 2822 920 
L 2822 562 
C 2822 178 2650 128 2566 128 
C 2304 128 2304 458 2304 738 
L 2304 1653 
z
M 1965 870 
C 1965 317 1568 38 1216 38 
C 896 38 646 275 646 570 
C 646 761 730 1100 1101 1305 
C 1408 1478 1760 1504 1965 1504 
L 1965 870 
z
" transform="scale(0.015625)"/>
       <path id="CMR17-6e" d="M 2656 1933 
C 2656 2259 2592 2790 1837 2790 
C 1331 2790 1069 2400 973 2144 
L 966 2144 
L 966 2790 
L 211 2720 
L 211 2554 
C 589 2554 646 2515 646 2208 
L 646 428 
C 646 184 621 153 211 153 
L 211 -13 
C 365 0 646 0 813 0 
C 979 0 1267 0 1421 -13 
L 1421 153 
C 1011 153 986 178 986 428 
L 986 1658 
C 986 2247 1344 2688 1792 2688 
C 2266 2688 2317 2266 2317 1958 
L 2317 428 
C 2317 184 2291 153 1882 153 
L 1882 -13 
C 2035 0 2317 0 2483 0 
C 2650 0 2938 0 3091 -13 
L 3091 153 
C 2682 153 2656 178 2656 428 
L 2656 1933 
z
" transform="scale(0.015625)"/>
       <path id="CMR17-53" d="M 2803 4290 
C 2803 4404 2797 4411 2758 4411 
C 2720 4411 2707 4385 2682 4328 
L 2490 3907 
C 2246 4257 1875 4416 1472 4416 
C 819 4416 294 3901 294 3253 
C 294 3056 339 2776 557 2510 
C 794 2218 1018 2167 1530 2033 
C 1722 1982 2042 1899 2106 1874 
C 2470 1722 2662 1341 2662 985 
C 2662 527 2336 38 1779 38 
C 1094 38 454 419 410 1311 
C 403 1413 397 1419 352 1419 
C 301 1419 294 1413 294 1285 
L 294 -1 
C 294 -115 301 -122 339 -122 
C 384 -122 397 -90 486 108 
C 493 127 493 140 614 381 
C 934 -39 1472 -128 1779 -128 
C 2477 -128 2970 451 2970 1124 
C 2970 1454 2848 1708 2778 1823 
C 2509 2230 2221 2306 1914 2382 
C 1869 2402 1856 2402 1498 2490 
C 1152 2579 1005 2624 845 2796 
C 666 2992 602 3196 602 3399 
C 602 3812 934 4263 1478 4263 
C 2157 4263 2579 3786 2675 2993 
C 2694 2878 2701 2872 2746 2872 
C 2803 2872 2803 2891 2803 2999 
L 2803 4290 
z
" transform="scale(0.015625)"/>
       <path id="CMR17-71" d="M 2630 2802 
L 2528 2802 
L 2336 2172 
C 2189 2509 1920 2802 1491 2802 
C 838 2802 211 2223 211 1383 
C 211 548 800 -38 1440 -38 
C 1933 -38 2208 338 2291 478 
L 2291 -789 
C 2291 -1031 2266 -1063 1856 -1063 
L 1856 -1228 
C 2010 -1216 2291 -1216 2458 -1216 
C 2624 -1216 2912 -1216 3066 -1228 
L 3066 -1063 
C 2656 -1063 2630 -1037 2630 -789 
L 2630 2802 
z
M 2304 886 
C 2304 612 2074 357 2054 338 
C 1856 115 1626 64 1472 64 
C 992 64 621 669 621 1375 
C 621 2121 1043 2688 1536 2688 
C 2048 2688 2304 2108 2304 1777 
L 2304 886 
z
" transform="scale(0.015625)"/>
       <path id="CMR17-75" d="M 1882 2693 
L 1882 2528 
C 2259 2528 2317 2489 2317 2186 
L 2317 1032 
C 2317 500 2029 38 1555 38 
C 1030 38 986 348 986 678 
L 986 2763 
L 211 2693 
L 211 2528 
C 467 2528 640 2528 646 2274 
L 646 1058 
C 646 633 646 361 813 183 
C 896 101 1056 -64 1517 -64 
C 2061 -64 2272 377 2323 506 
L 2330 506 
L 2330 -63 
L 3091 -63 
L 3091 128 
C 2714 128 2656 166 2656 473 
L 2656 2763 
L 1882 2693 
z
" transform="scale(0.015625)"/>
       <path id="CMR17-45" d="M 3885 1615 
L 3770 1615 
C 3629 676 3546 166 2419 166 
L 1530 166 
C 1274 166 1261 197 1261 414 
L 1261 2176 
L 1862 2176 
C 2464 2176 2522 1960 2522 1430 
L 2637 1430 
L 2637 3081 
L 2522 3081 
C 2522 2557 2464 2342 1862 2342 
L 1261 2342 
L 1261 3913 
C 1261 4128 1274 4160 1530 4160 
L 2406 4160 
C 3398 4160 3514 3769 3603 2929 
L 3718 2929 
L 3565 4325 
L 326 4325 
L 326 4160 
C 768 4160 838 4160 838 3874 
L 838 451 
C 838 166 768 166 326 166 
L 326 0 
L 3654 0 
L 3885 1615 
z
" transform="scale(0.015625)"/>
       <path id="CMR17-28" d="M 1958 -1561 
C 1958 -1555 1958 -1542 1939 -1523 
C 1645 -1224 858 -407 858 1581 
C 858 3569 1632 4379 1946 4697 
C 1946 4704 1958 4717 1958 4736 
C 1958 4755 1939 4768 1914 4768 
C 1843 4768 1299 4296 986 3594 
C 666 2887 576 2199 576 1588 
C 576 1128 621 351 1005 -471 
C 1312 -1135 1837 -1600 1914 -1600 
C 1946 -1600 1958 -1587 1958 -1561 
z
" transform="scale(0.015625)"/>
       <path id="CMR17-29" d="M 1683 1581 
C 1683 2040 1638 2817 1254 3639 
C 947 4303 422 4768 346 4768 
C 326 4768 301 4761 301 4729 
C 301 4717 307 4710 314 4697 
C 621 4378 1402 3568 1402 1584 
C 1402 -407 627 -1217 314 -1537 
C 307 -1549 301 -1556 301 -1568 
C 301 -1600 326 -1600 346 -1600 
C 416 -1600 960 -1128 1274 -426 
C 1594 281 1683 969 1683 1581 
z
" transform="scale(0.015625)"/>
      </defs>
      <use xlink:href="#CMR17-4d" transform="scale(0.996264)"/>
      <use xlink:href="#CMR17-65" transform="translate(84.686941 0) scale(0.996264)"/>
      <use xlink:href="#CMR17-61" transform="translate(125.172601 0) scale(0.996264)"/>
      <use xlink:href="#CMR17-6e" transform="translate(170.863078 0) scale(0.996264)"/>
      <use xlink:href="#CMR17-53" transform="translate(251.834414 0) scale(0.996264)"/>
      <use xlink:href="#CMR17-71" transform="translate(302.729784 0) scale(0.996264)"/>
      <use xlink:href="#CMR17-75" transform="translate(351.0227 0) scale(0.996264)"/>
      <use xlink:href="#CMR17-61" transform="translate(401.91807 0) scale(0.996264)"/>
      <use xlink:href="#CMR17-72" transform="translate(447.608547 0) scale(0.996264)"/>
      <use xlink:href="#CMR17-65" transform="translate(482.889315 0) scale(0.996264)"/>
      <use xlink:href="#CMR17-64" transform="translate(523.374975 0) scale(0.996264)"/>
      <use xlink:href="#CMR17-45" transform="translate(604.346311 0) scale(0.996264)"/>
      <use xlink:href="#CMR17-72" transform="translate(666.932612 0) scale(0.996264)"/>
      <use xlink:href="#CMR17-72" transform="translate(702.21338 0) scale(0.996264)"/>
      <use xlink:href="#CMR17-6f" transform="translate(737.494147 0) scale(0.996264)"/>
      <use xlink:href="#CMR17-72" transform="translate(783.184624 0) scale(0.996264)"/>
      <use xlink:href="#CMR17-28" transform="translate(848.541359 0) scale(0.996264)"/>
      <use xlink:href="#CMR17-4d" transform="translate(883.822126 0) scale(0.996264)"/>
      <use xlink:href="#CMR17-53" transform="translate(968.509067 0) scale(0.996264)"/>
      <use xlink:href="#CMR17-45" transform="translate(1019.404437 0) scale(0.996264)"/>
      <use xlink:href="#CMR17-29" transform="translate(1081.990737 0) scale(0.996264)"/>
     </g>
    </g>
   </g>
   <g id="LineCollection_1">
    <path d="M 110.519425 432.03511 
L 110.519425 386.819028 
" clip-path="url(#pbff9552399)" style="fill: none; stroke: #000000; stroke-width: 1.5"/>
    <path d="M 142.268189 383.175241 
L 142.268189 335.806012 
" clip-path="url(#pbff9552399)" style="fill: none; stroke: #000000; stroke-width: 1.5"/>
    <path d="M 174.016953 361.478147 
L 174.016953 343.921719 
" clip-path="url(#pbff9552399)" style="fill: none; stroke: #000000; stroke-width: 1.5"/>
    <path d="M 205.765718 393.112841 
L 205.765718 321.230865 
" clip-path="url(#pbff9552399)" style="fill: none; stroke: #000000; stroke-width: 1.5"/>
    <path d="M 237.514482 310.796385 
L 237.514482 221.523608 
" clip-path="url(#pbff9552399)" style="fill: none; stroke: #000000; stroke-width: 1.5"/>
    <path d="M 269.263246 273.861637 
L 269.263246 199.329634 
" clip-path="url(#pbff9552399)" style="fill: none; stroke: #000000; stroke-width: 1.5"/>
    <path d="M 301.012011 264.586543 
L 301.012011 211.917261 
" clip-path="url(#pbff9552399)" style="fill: none; stroke: #000000; stroke-width: 1.5"/>
    <path d="M 332.760775 287.608651 
L 332.760775 230.301822 
" clip-path="url(#pbff9552399)" style="fill: none; stroke: #000000; stroke-width: 1.5"/>
    <path d="M 364.50954 352.534306 
L 364.50954 287.111771 
" clip-path="url(#pbff9552399)" style="fill: none; stroke: #000000; stroke-width: 1.5"/>
    <path d="M 396.258304 264.25529 
L 396.258304 135.894618 
" clip-path="url(#pbff9552399)" style="fill: none; stroke: #000000; stroke-width: 1.5"/>
    <path d="M 428.007068 438.328923 
L 428.007068 414.478682 
" clip-path="url(#pbff9552399)" style="fill: none; stroke: #000000; stroke-width: 1.5"/>
    <path d="M 459.755833 448.763404 
L 459.755833 437.50079 
" clip-path="url(#pbff9552399)" style="fill: none; stroke: #000000; stroke-width: 1.5"/>
    <path d="M 491.504597 406.197349 
L 491.504597 344.252973 
" clip-path="url(#pbff9552399)" style="fill: none; stroke: #000000; stroke-width: 1.5"/>
    <path d="M 523.253361 389.303428 
L 523.253361 357.83436 
" clip-path="url(#pbff9552399)" style="fill: none; stroke: #000000; stroke-width: 1.5"/>
    <path d="M 555.002126 368.26884 
L 555.002126 303.674438 
" clip-path="url(#pbff9552399)" style="fill: none; stroke: #000000; stroke-width: 1.5"/>
    <path d="M 586.75089 311.955772 
L 586.75089 262.433396 
" clip-path="url(#pbff9552399)" style="fill: none; stroke: #000000; stroke-width: 1.5"/>
    <path d="M 618.499655 403.878575 
L 618.499655 323.218385 
" clip-path="url(#pbff9552399)" style="fill: none; stroke: #000000; stroke-width: 1.5"/>
    <path d="M 650.248419 374.728281 
L 650.248419 277.008544 
" clip-path="url(#pbff9552399)" style="fill: none; stroke: #000000; stroke-width: 1.5"/>
    <path d="M 681.997183 343.921719 
L 681.997183 310.299505 
" clip-path="url(#pbff9552399)" style="fill: none; stroke: #000000; stroke-width: 1.5"/>
    <path d="M 713.745948 351.540546 
L 713.745948 278.66481 
" clip-path="url(#pbff9552399)" style="fill: none; stroke: #000000; stroke-width: 1.5"/>
    <path d="M 745.494712 326.034039 
L 745.494712 254.483316 
" clip-path="url(#pbff9552399)" style="fill: none; stroke: #000000; stroke-width: 1.5"/>
    <path d="M 777.243476 395.928495 
L 777.243476 363.465667 
" clip-path="url(#pbff9552399)" style="fill: none; stroke: #000000; stroke-width: 1.5"/>
    <path d="M 808.992241 381.353348 
L 808.992241 270.549103 
" clip-path="url(#pbff9552399)" style="fill: none; stroke: #000000; stroke-width: 1.5"/>
    <path d="M 840.741005 404.375455 
L 840.741005 361.31252 
" clip-path="url(#pbff9552399)" style="fill: none; stroke: #000000; stroke-width: 1.5"/>
    <path d="M 872.48977 420.938122 
L 872.48977 393.444095 
" clip-path="url(#pbff9552399)" style="fill: none; stroke: #000000; stroke-width: 1.5"/>
    <path d="M 904.238534 434.02263 
L 904.238534 367.109454 
" clip-path="url(#pbff9552399)" style="fill: none; stroke: #000000; stroke-width: 1.5"/>
    <path d="M 935.987298 399.737908 
L 935.987298 368.600094 
" clip-path="url(#pbff9552399)" style="fill: none; stroke: #000000; stroke-width: 1.5"/>
   </g>
   <g id="line2d_34">
    <defs>
     <path id="m1d7cd4a1c0" d="M 5 0 
L -5 -0 
" style="stroke: #000000"/>
    </defs>
    <g clip-path="url(#pbff9552399)">
     <use xlink:href="#m1d7cd4a1c0" x="110.519425" y="432.03511" style="stroke: #000000"/>
     <use xlink:href="#m1d7cd4a1c0" x="142.268189" y="383.175241" style="stroke: #000000"/>
     <use xlink:href="#m1d7cd4a1c0" x="174.016953" y="361.478147" style="stroke: #000000"/>
     <use xlink:href="#m1d7cd4a1c0" x="205.765718" y="393.112841" style="stroke: #000000"/>
     <use xlink:href="#m1d7cd4a1c0" x="237.514482" y="310.796385" style="stroke: #000000"/>
     <use xlink:href="#m1d7cd4a1c0" x="269.263246" y="273.861637" style="stroke: #000000"/>
     <use xlink:href="#m1d7cd4a1c0" x="301.012011" y="264.586543" style="stroke: #000000"/>
     <use xlink:href="#m1d7cd4a1c0" x="332.760775" y="287.608651" style="stroke: #000000"/>
     <use xlink:href="#m1d7cd4a1c0" x="364.50954" y="352.534306" style="stroke: #000000"/>
     <use xlink:href="#m1d7cd4a1c0" x="396.258304" y="264.25529" style="stroke: #000000"/>
     <use xlink:href="#m1d7cd4a1c0" x="428.007068" y="438.328923" style="stroke: #000000"/>
     <use xlink:href="#m1d7cd4a1c0" x="459.755833" y="448.763404" style="stroke: #000000"/>
     <use xlink:href="#m1d7cd4a1c0" x="491.504597" y="406.197349" style="stroke: #000000"/>
     <use xlink:href="#m1d7cd4a1c0" x="523.253361" y="389.303428" style="stroke: #000000"/>
     <use xlink:href="#m1d7cd4a1c0" x="555.002126" y="368.26884" style="stroke: #000000"/>
     <use xlink:href="#m1d7cd4a1c0" x="586.75089" y="311.955772" style="stroke: #000000"/>
     <use xlink:href="#m1d7cd4a1c0" x="618.499655" y="403.878575" style="stroke: #000000"/>
     <use xlink:href="#m1d7cd4a1c0" x="650.248419" y="374.728281" style="stroke: #000000"/>
     <use xlink:href="#m1d7cd4a1c0" x="681.997183" y="343.921719" style="stroke: #000000"/>
     <use xlink:href="#m1d7cd4a1c0" x="713.745948" y="351.540546" style="stroke: #000000"/>
     <use xlink:href="#m1d7cd4a1c0" x="745.494712" y="326.034039" style="stroke: #000000"/>
     <use xlink:href="#m1d7cd4a1c0" x="777.243476" y="395.928495" style="stroke: #000000"/>
     <use xlink:href="#m1d7cd4a1c0" x="808.992241" y="381.353348" style="stroke: #000000"/>
     <use xlink:href="#m1d7cd4a1c0" x="840.741005" y="404.375455" style="stroke: #000000"/>
     <use xlink:href="#m1d7cd4a1c0" x="872.48977" y="420.938122" style="stroke: #000000"/>
     <use xlink:href="#m1d7cd4a1c0" x="904.238534" y="434.02263" style="stroke: #000000"/>
     <use xlink:href="#m1d7cd4a1c0" x="935.987298" y="399.737908" style="stroke: #000000"/>
    </g>
   </g>
   <g id="line2d_35">
    <g clip-path="url(#pbff9552399)">
     <use xlink:href="#m1d7cd4a1c0" x="110.519425" y="386.819028" style="stroke: #000000"/>
     <use xlink:href="#m1d7cd4a1c0" x="142.268189" y="335.806012" style="stroke: #000000"/>
     <use xlink:href="#m1d7cd4a1c0" x="174.016953" y="343.921719" style="stroke: #000000"/>
     <use xlink:href="#m1d7cd4a1c0" x="205.765718" y="321.230865" style="stroke: #000000"/>
     <use xlink:href="#m1d7cd4a1c0" x="237.514482" y="221.523608" style="stroke: #000000"/>
     <use xlink:href="#m1d7cd4a1c0" x="269.263246" y="199.329634" style="stroke: #000000"/>
     <use xlink:href="#m1d7cd4a1c0" x="301.012011" y="211.917261" style="stroke: #000000"/>
     <use xlink:href="#m1d7cd4a1c0" x="332.760775" y="230.301822" style="stroke: #000000"/>
     <use xlink:href="#m1d7cd4a1c0" x="364.50954" y="287.111771" style="stroke: #000000"/>
     <use xlink:href="#m1d7cd4a1c0" x="396.258304" y="135.894618" style="stroke: #000000"/>
     <use xlink:href="#m1d7cd4a1c0" x="428.007068" y="414.478682" style="stroke: #000000"/>
     <use xlink:href="#m1d7cd4a1c0" x="459.755833" y="437.50079" style="stroke: #000000"/>
     <use xlink:href="#m1d7cd4a1c0" x="491.504597" y="344.252973" style="stroke: #000000"/>
     <use xlink:href="#m1d7cd4a1c0" x="523.253361" y="357.83436" style="stroke: #000000"/>
     <use xlink:href="#m1d7cd4a1c0" x="555.002126" y="303.674438" style="stroke: #000000"/>
     <use xlink:href="#m1d7cd4a1c0" x="586.75089" y="262.433396" style="stroke: #000000"/>
     <use xlink:href="#m1d7cd4a1c0" x="618.499655" y="323.218385" style="stroke: #000000"/>
     <use xlink:href="#m1d7cd4a1c0" x="650.248419" y="277.008544" style="stroke: #000000"/>
     <use xlink:href="#m1d7cd4a1c0" x="681.997183" y="310.299505" style="stroke: #000000"/>
     <use xlink:href="#m1d7cd4a1c0" x="713.745948" y="278.66481" style="stroke: #000000"/>
     <use xlink:href="#m1d7cd4a1c0" x="745.494712" y="254.483316" style="stroke: #000000"/>
     <use xlink:href="#m1d7cd4a1c0" x="777.243476" y="363.465667" style="stroke: #000000"/>
     <use xlink:href="#m1d7cd4a1c0" x="808.992241" y="270.549103" style="stroke: #000000"/>
     <use xlink:href="#m1d7cd4a1c0" x="840.741005" y="361.31252" style="stroke: #000000"/>
     <use xlink:href="#m1d7cd4a1c0" x="872.48977" y="393.444095" style="stroke: #000000"/>
     <use xlink:href="#m1d7cd4a1c0" x="904.238534" y="367.109454" style="stroke: #000000"/>
     <use xlink:href="#m1d7cd4a1c0" x="935.987298" y="368.600094" style="stroke: #000000"/>
    </g>
   </g>
   <g id="LineCollection_2">
    <path d="M 121.631492 437.832043 
L 121.631492 418.122469 
" clip-path="url(#pbff9552399)" style="fill: none; stroke: #000000; stroke-width: 1.5"/>
    <path d="M 153.380256 399.903535 
L 153.380256 313.115158 
" clip-path="url(#pbff9552399)" style="fill: none; stroke: #000000; stroke-width: 1.5"/>
    <path d="M 185.129021 377.709561 
L 185.129021 334.812252 
" clip-path="url(#pbff9552399)" style="fill: none; stroke: #000000; stroke-width: 1.5"/>
    <path d="M 216.877785 418.784976 
L 216.877785 352.36868 
" clip-path="url(#pbff9552399)" style="fill: none; stroke: #000000; stroke-width: 1.5"/>
    <path d="M 248.62655 349.718653 
L 248.62655 257.464596 
" clip-path="url(#pbff9552399)" style="fill: none; stroke: #000000; stroke-width: 1.5"/>
    <path d="M 280.375314 287.111771 
L 280.375314 50.100001 
" clip-path="url(#pbff9552399)" style="fill: none; stroke: #000000; stroke-width: 1.5"/>
    <path d="M 312.124078 281.977344 
L 312.124078 189.226407 
" clip-path="url(#pbff9552399)" style="fill: none; stroke: #000000; stroke-width: 1.5"/>
    <path d="M 343.872843 334.315372 
L 343.872843 232.620595 
" clip-path="url(#pbff9552399)" style="fill: none; stroke: #000000; stroke-width: 1.5"/>
    <path d="M 375.621607 368.600094 
L 375.621607 326.199665 
" clip-path="url(#pbff9552399)" style="fill: none; stroke: #000000; stroke-width: 1.5"/>
    <path d="M 407.370371 326.862172 
L 407.370371 227.651795 
" clip-path="url(#pbff9552399)" style="fill: none; stroke: #000000; stroke-width: 1.5"/>
    <path d="M 439.119136 447.604017 
L 439.119136 420.441242 
" clip-path="url(#pbff9552399)" style="fill: none; stroke: #000000; stroke-width: 1.5"/>
    <path d="M 470.8679 441.47583 
L 470.8679 431.206976 
" clip-path="url(#pbff9552399)" style="fill: none; stroke: #000000; stroke-width: 1.5"/>
    <path d="M 502.616665 413.319296 
L 502.616665 361.8094 
" clip-path="url(#pbff9552399)" style="fill: none; stroke: #000000; stroke-width: 1.5"/>
    <path d="M 534.365429 417.956842 
L 534.365429 324.543399 
" clip-path="url(#pbff9552399)" style="fill: none; stroke: #000000; stroke-width: 1.5"/>
    <path d="M 566.114193 359.987507 
L 566.114193 320.237105 
" clip-path="url(#pbff9552399)" style="fill: none; stroke: #000000; stroke-width: 1.5"/>
    <path d="M 597.862958 339.284173 
L 597.862958 266.24281 
" clip-path="url(#pbff9552399)" style="fill: none; stroke: #000000; stroke-width: 1.5"/>
    <path d="M 629.611722 408.019242 
L 629.611722 279.492944 
" clip-path="url(#pbff9552399)" style="fill: none; stroke: #000000; stroke-width: 1.5"/>
    <path d="M 661.360486 375.556414 
L 661.360486 330.340332 
" clip-path="url(#pbff9552399)" style="fill: none; stroke: #000000; stroke-width: 1.5"/>
    <path d="M 693.109251 390.628441 
L 693.109251 354.687453 
" clip-path="url(#pbff9552399)" style="fill: none; stroke: #000000; stroke-width: 1.5"/>
    <path d="M 724.858015 387.150281 
L 724.858015 300.693158 
" clip-path="url(#pbff9552399)" style="fill: none; stroke: #000000; stroke-width: 1.5"/>
    <path d="M 756.60678 370.090734 
L 756.60678 312.949532 
" clip-path="url(#pbff9552399)" style="fill: none; stroke: #000000; stroke-width: 1.5"/>
    <path d="M 788.355544 385.494014 
L 788.355544 362.968787 
" clip-path="url(#pbff9552399)" style="fill: none; stroke: #000000; stroke-width: 1.5"/>
    <path d="M 820.104308 354.85308 
L 820.104308 323.715265 
" clip-path="url(#pbff9552399)" style="fill: none; stroke: #000000; stroke-width: 1.5"/>
    <path d="M 851.853073 423.588149 
L 851.853073 360.31876 
" clip-path="url(#pbff9552399)" style="fill: none; stroke: #000000; stroke-width: 1.5"/>
    <path d="M 883.601837 418.784976 
L 883.601837 379.365828 
" clip-path="url(#pbff9552399)" style="fill: none; stroke: #000000; stroke-width: 1.5"/>
    <path d="M 915.350601 406.694229 
L 915.350601 374.728281 
" clip-path="url(#pbff9552399)" style="fill: none; stroke: #000000; stroke-width: 1.5"/>
    <path d="M 947.099366 423.256896 
L 947.099366 356.8406 
" clip-path="url(#pbff9552399)" style="fill: none; stroke: #000000; stroke-width: 1.5"/>
   </g>
   <g id="line2d_36">
    <g clip-path="url(#pbff9552399)">
     <use xlink:href="#m1d7cd4a1c0" x="121.631492" y="437.832043" style="stroke: #000000"/>
     <use xlink:href="#m1d7cd4a1c0" x="153.380256" y="399.903535" style="stroke: #000000"/>
     <use xlink:href="#m1d7cd4a1c0" x="185.129021" y="377.709561" style="stroke: #000000"/>
     <use xlink:href="#m1d7cd4a1c0" x="216.877785" y="418.784976" style="stroke: #000000"/>
     <use xlink:href="#m1d7cd4a1c0" x="248.62655" y="349.718653" style="stroke: #000000"/>
     <use xlink:href="#m1d7cd4a1c0" x="280.375314" y="287.111771" style="stroke: #000000"/>
     <use xlink:href="#m1d7cd4a1c0" x="312.124078" y="281.977344" style="stroke: #000000"/>
     <use xlink:href="#m1d7cd4a1c0" x="343.872843" y="334.315372" style="stroke: #000000"/>
     <use xlink:href="#m1d7cd4a1c0" x="375.621607" y="368.600094" style="stroke: #000000"/>
     <use xlink:href="#m1d7cd4a1c0" x="407.370371" y="326.862172" style="stroke: #000000"/>
     <use xlink:href="#m1d7cd4a1c0" x="439.119136" y="447.604017" style="stroke: #000000"/>
     <use xlink:href="#m1d7cd4a1c0" x="470.8679" y="441.47583" style="stroke: #000000"/>
     <use xlink:href="#m1d7cd4a1c0" x="502.616665" y="413.319296" style="stroke: #000000"/>
     <use xlink:href="#m1d7cd4a1c0" x="534.365429" y="417.956842" style="stroke: #000000"/>
     <use xlink:href="#m1d7cd4a1c0" x="566.114193" y="359.987507" style="stroke: #000000"/>
     <use xlink:href="#m1d7cd4a1c0" x="597.862958" y="339.284173" style="stroke: #000000"/>
     <use xlink:href="#m1d7cd4a1c0" x="629.611722" y="408.019242" style="stroke: #000000"/>
     <use xlink:href="#m1d7cd4a1c0" x="661.360486" y="375.556414" style="stroke: #000000"/>
     <use xlink:href="#m1d7cd4a1c0" x="693.109251" y="390.628441" style="stroke: #000000"/>
     <use xlink:href="#m1d7cd4a1c0" x="724.858015" y="387.150281" style="stroke: #000000"/>
     <use xlink:href="#m1d7cd4a1c0" x="756.60678" y="370.090734" style="stroke: #000000"/>
     <use xlink:href="#m1d7cd4a1c0" x="788.355544" y="385.494014" style="stroke: #000000"/>
     <use xlink:href="#m1d7cd4a1c0" x="820.104308" y="354.85308" style="stroke: #000000"/>
     <use xlink:href="#m1d7cd4a1c0" x="851.853073" y="423.588149" style="stroke: #000000"/>
     <use xlink:href="#m1d7cd4a1c0" x="883.601837" y="418.784976" style="stroke: #000000"/>
     <use xlink:href="#m1d7cd4a1c0" x="915.350601" y="406.694229" style="stroke: #000000"/>
     <use xlink:href="#m1d7cd4a1c0" x="947.099366" y="423.256896" style="stroke: #000000"/>
    </g>
   </g>
   <g id="line2d_37">
    <g clip-path="url(#pbff9552399)">
     <use xlink:href="#m1d7cd4a1c0" x="121.631492" y="418.122469" style="stroke: #000000"/>
     <use xlink:href="#m1d7cd4a1c0" x="153.380256" y="313.115158" style="stroke: #000000"/>
     <use xlink:href="#m1d7cd4a1c0" x="185.129021" y="334.812252" style="stroke: #000000"/>
     <use xlink:href="#m1d7cd4a1c0" x="216.877785" y="352.36868" style="stroke: #000000"/>
     <use xlink:href="#m1d7cd4a1c0" x="248.62655" y="257.464596" style="stroke: #000000"/>
     <use xlink:href="#m1d7cd4a1c0" x="280.375314" y="50.100001" style="stroke: #000000"/>
     <use xlink:href="#m1d7cd4a1c0" x="312.124078" y="189.226407" style="stroke: #000000"/>
     <use xlink:href="#m1d7cd4a1c0" x="343.872843" y="232.620595" style="stroke: #000000"/>
     <use xlink:href="#m1d7cd4a1c0" x="375.621607" y="326.199665" style="stroke: #000000"/>
     <use xlink:href="#m1d7cd4a1c0" x="407.370371" y="227.651795" style="stroke: #000000"/>
     <use xlink:href="#m1d7cd4a1c0" x="439.119136" y="420.441242" style="stroke: #000000"/>
     <use xlink:href="#m1d7cd4a1c0" x="470.8679" y="431.206976" style="stroke: #000000"/>
     <use xlink:href="#m1d7cd4a1c0" x="502.616665" y="361.8094" style="stroke: #000000"/>
     <use xlink:href="#m1d7cd4a1c0" x="534.365429" y="324.543399" style="stroke: #000000"/>
     <use xlink:href="#m1d7cd4a1c0" x="566.114193" y="320.237105" style="stroke: #000000"/>
     <use xlink:href="#m1d7cd4a1c0" x="597.862958" y="266.24281" style="stroke: #000000"/>
     <use xlink:href="#m1d7cd4a1c0" x="629.611722" y="279.492944" style="stroke: #000000"/>
     <use xlink:href="#m1d7cd4a1c0" x="661.360486" y="330.340332" style="stroke: #000000"/>
     <use xlink:href="#m1d7cd4a1c0" x="693.109251" y="354.687453" style="stroke: #000000"/>
     <use xlink:href="#m1d7cd4a1c0" x="724.858015" y="300.693158" style="stroke: #000000"/>
     <use xlink:href="#m1d7cd4a1c0" x="756.60678" y="312.949532" style="stroke: #000000"/>
     <use xlink:href="#m1d7cd4a1c0" x="788.355544" y="362.968787" style="stroke: #000000"/>
     <use xlink:href="#m1d7cd4a1c0" x="820.104308" y="323.715265" style="stroke: #000000"/>
     <use xlink:href="#m1d7cd4a1c0" x="851.853073" y="360.31876" style="stroke: #000000"/>
     <use xlink:href="#m1d7cd4a1c0" x="883.601837" y="379.365828" style="stroke: #000000"/>
     <use xlink:href="#m1d7cd4a1c0" x="915.350601" y="374.728281" style="stroke: #000000"/>
     <use xlink:href="#m1d7cd4a1c0" x="947.099366" y="356.8406" style="stroke: #000000"/>
    </g>
   </g>
   <g id="patch_57">
    <path d="M 62.57879 457.707244 
L 62.57879 29.719639 
" style="fill: none; stroke: #000000; stroke-width: 0.8; stroke-linejoin: miter; stroke-linecap: square"/>
   </g>
   <g id="patch_58">
    <path d="M 995.04 457.707244 
L 995.04 29.719639 
" style="fill: none; stroke: #000000; stroke-width: 0.8; stroke-linejoin: miter; stroke-linecap: square"/>
   </g>
   <g id="patch_59">
    <path d="M 62.57879 457.707244 
L 995.04 457.707244 
" style="fill: none; stroke: #000000; stroke-width: 0.8; stroke-linejoin: miter; stroke-linecap: square"/>
   </g>
   <g id="patch_60">
    <path d="M 62.57879 29.719639 
L 995.04 29.719639 
" style="fill: none; stroke: #000000; stroke-width: 0.8; stroke-linejoin: miter; stroke-linecap: square"/>
   </g>
   <g id="text_36">
    <!-- Mean Squared Error (MSE) by Folder (Median with Min-Max Range) -->
    <g transform="translate(312.851909 23.719639) scale(0.144 -0.144)">
     <defs>
      <path id="CMR17-62" d="M 960 4396 
L 198 4326 
L 198 4160 
C 576 4160 634 4122 634 3817 
L 634 -13 
L 749 -13 
L 934 441 
C 1120 141 1395 -64 1766 -64 
C 2406 -64 3053 500 3053 1370 
C 3053 2188 2477 2790 1830 2790 
C 1434 2790 1152 2579 960 2330 
L 960 4396 
z
M 973 2004 
C 973 2118 973 2138 1062 2272 
C 1312 2657 1670 2688 1792 2688 
C 1984 2688 2643 2585 2643 1376 
C 2643 108 1888 38 1734 38 
C 1536 38 1248 114 1043 486 
C 973 608 973 621 973 735 
L 973 2004 
z
" transform="scale(0.015625)"/>
      <path id="CMR17-79" d="M 2496 2197 
C 2656 2586 2944 2586 3034 2586 
L 3034 2752 
C 2912 2752 2752 2752 2630 2752 
C 2496 2752 2285 2752 2157 2758 
L 2157 2592 
C 2400 2573 2406 2394 2406 2343 
C 2406 2280 2394 2248 2362 2171 
L 1664 449 
L 902 2306 
C 870 2382 870 2426 870 2433 
C 870 2573 1018 2586 1171 2586 
L 1171 2758 
C 1018 2752 742 2752 582 2752 
C 410 2752 205 2752 64 2758 
L 64 2586 
C 410 2586 448 2554 531 2350 
L 1485 15 
C 1197 -738 1030 -1178 627 -1178 
C 557 -1178 397 -1159 282 -1044 
C 429 -1031 493 -942 493 -833 
C 493 -725 416 -629 288 -629 
C 147 -629 77 -725 77 -840 
C 77 -1095 339 -1280 627 -1280 
C 998 -1280 1229 -922 1357 -604 
L 2496 2197 
z
" transform="scale(0.015625)"/>
      <path id="CMR17-69" d="M 992 3909 
C 992 4049 877 4170 730 4170 
C 589 4170 467 4056 467 3909 
C 467 3769 582 3648 730 3648 
C 870 3648 992 3763 992 3909 
z
M 243 2706 
L 243 2541 
C 602 2541 653 2502 653 2197 
L 653 427 
C 653 184 627 153 218 153 
L 218 -13 
C 371 0 646 0 806 0 
C 960 0 1222 0 1370 -13 
L 1370 153 
C 992 153 979 191 979 420 
L 979 2776 
L 243 2706 
z
" transform="scale(0.015625)"/>
      <path id="CMR17-77" d="M 3725 2183 
C 3853 2560 4109 2560 4205 2560 
L 4205 2732 
C 4077 2732 3949 2732 3821 2732 
C 3699 2732 3424 2732 3315 2738 
L 3315 2560 
C 3514 2560 3622 2445 3622 2286 
C 3622 2241 3610 2184 3597 2140 
L 2995 407 
L 2342 2275 
C 2330 2319 2310 2370 2310 2395 
C 2310 2560 2528 2560 2630 2560 
L 2630 2738 
C 2483 2732 2214 2732 2061 2732 
C 1901 2732 1734 2732 1587 2738 
L 1587 2560 
C 1939 2560 1939 2547 2074 2149 
L 1485 451 
L 851 2281 
C 819 2363 819 2376 819 2395 
C 819 2560 1037 2560 1139 2560 
L 1139 2738 
C 986 2732 717 2732 557 2732 
C 416 2732 198 2732 64 2738 
L 64 2560 
C 346 2560 416 2541 486 2331 
L 1274 49 
C 1299 -33 1318 -52 1370 -52 
C 1414 -52 1440 -39 1472 56 
L 2131 1980 
L 2797 56 
C 2829 -39 2854 -52 2899 -52 
C 2950 -52 2970 -33 2995 50 
L 3725 2183 
z
" transform="scale(0.015625)"/>
      <path id="CMR17-74" d="M 966 2560 
L 1862 2560 
L 1862 2725 
L 966 2725 
L 966 3904 
L 851 3904 
C 838 3245 614 2668 70 2668 
L 70 2560 
L 627 2560 
L 627 771 
C 627 650 627 -64 1370 -64 
C 1747 -64 1965 306 1965 777 
L 1965 1140 
L 1850 1140 
L 1850 783 
C 1850 344 1677 51 1408 51 
C 1222 51 966 178 966 758 
L 966 2560 
z
" transform="scale(0.015625)"/>
      <path id="CMR17-68" d="M 2656 1933 
C 2656 2259 2592 2790 1837 2790 
C 1312 2790 1056 2368 979 2157 
L 973 2157 
L 973 4396 
L 211 4326 
L 211 4160 
C 589 4160 646 4122 646 3817 
L 646 426 
C 646 184 621 153 211 153 
L 211 -13 
C 365 0 646 0 813 0 
C 979 0 1267 0 1421 -13 
L 1421 153 
C 1011 153 986 178 986 428 
L 986 1658 
C 986 2247 1344 2688 1792 2688 
C 2266 2688 2317 2266 2317 1958 
L 2317 428 
C 2317 184 2291 153 1882 153 
L 1882 -13 
C 2035 0 2317 0 2483 0 
C 2650 0 2938 0 3091 -13 
L 3091 153 
C 2682 153 2656 178 2656 428 
L 2656 1933 
z
" transform="scale(0.015625)"/>
      <path id="CMR17-2d" d="M 1632 1216 
L 1632 1496 
L 26 1496 
L 26 1216 
L 1632 1216 
z
" transform="scale(0.015625)"/>
      <path id="CMR17-78" d="M 1664 1477 
C 1856 1726 2074 2006 2253 2216 
C 2464 2458 2707 2560 2989 2560 
L 2989 2726 
C 2880 2726 2656 2726 2541 2726 
C 2368 2726 2170 2726 2022 2732 
L 2022 2566 
C 2112 2553 2163 2489 2163 2400 
C 2163 2285 2099 2215 2067 2171 
L 1594 1573 
L 1030 2306 
C 973 2376 973 2388 973 2420 
C 973 2497 1037 2560 1146 2560 
L 1146 2732 
C 992 2726 717 2726 557 2726 
C 384 2726 179 2726 38 2732 
L 38 2560 
C 384 2560 461 2534 614 2343 
L 1350 1395 
C 1363 1382 1395 1344 1395 1325 
C 1395 1299 838 619 768 530 
C 480 185 179 160 6 160 
L 6 0 
C 115 0 339 0 454 0 
C 582 0 864 0 979 -6 
L 979 160 
C 941 166 838 179 838 325 
C 838 440 890 510 947 586 
L 1478 1236 
L 2035 512 
C 2086 442 2163 346 2163 301 
C 2163 211 2086 160 1984 160 
L 1984 -6 
C 2138 0 2413 0 2573 0 
C 2746 0 2950 0 3091 -6 
L 3091 160 
C 2771 160 2675 172 2522 370 
L 1664 1477 
z
" transform="scale(0.015625)"/>
      <path id="CMR17-52" d="M 2509 2146 
C 3117 2268 3629 2676 3629 3186 
C 3629 3785 2950 4326 2054 4326 
L 333 4326 
L 333 4160 
C 774 4160 845 4160 845 3873 
L 845 415 
C 845 128 774 128 333 128 
L 333 -26 
C 518 -26 851 -26 1050 -26 
C 1248 -26 1581 -26 1766 -26 
L 1766 128 
C 1325 128 1254 128 1254 417 
L 1254 2112 
L 2003 2112 
C 2368 2112 2573 1964 2662 1881 
C 2918 1632 2918 1459 2918 1024 
C 2918 595 2918 377 3110 160 
C 3354 -102 3680 -128 3821 -128 
C 4294 -128 4365 396 4365 503 
C 4365 540 4365 585 4307 585 
C 4256 585 4250 547 4250 522 
C 4218 112 4032 -26 3834 -26 
C 3482 -26 3443 375 3405 764 
C 3386 898 3373 993 3360 1133 
C 3322 1452 3270 1917 2509 2146 
z
M 1984 2214 
L 1254 2214 
L 1254 3913 
C 1254 4129 1267 4160 1523 4160 
L 1990 4160 
C 2522 4160 3142 3977 3142 3190 
C 3142 2372 2464 2214 1984 2214 
z
" transform="scale(0.015625)"/>
      <path id="CMR17-67" d="M 710 1164 
C 832 1068 1043 960 1299 960 
C 1805 960 2240 1357 2240 1888 
C 2240 2054 2189 2310 1997 2509 
C 2176 2692 2438 2752 2586 2752 
C 2611 2752 2650 2752 2682 2734 
C 2656 2728 2598 2703 2598 2605 
C 2598 2527 2656 2471 2739 2471 
C 2835 2471 2886 2533 2886 2614 
C 2886 2731 2790 2854 2586 2854 
C 2330 2854 2106 2738 1926 2580 
C 1734 2753 1504 2816 1299 2816 
C 794 2816 358 2419 358 1888 
C 358 1522 570 1292 634 1228 
C 442 1004 442 743 442 711 
C 442 545 506 302 723 168 
C 390 85 128 -169 128 -486 
C 128 -943 736 -1280 1466 -1280 
C 2170 -1280 2803 -956 2803 -479 
C 2803 384 1856 384 1363 384 
C 1216 384 954 384 922 391 
C 723 423 589 602 589 826 
C 589 883 589 1024 710 1164 
z
M 1299 1068 
C 736 1068 736 1760 736 1889 
C 736 2016 736 2708 1299 2708 
C 1862 2708 1862 2016 1862 1889 
C 1862 1760 1862 1068 1299 1068 
z
M 1466 -1171 
C 826 -1171 384 -835 384 -486 
C 384 -289 493 -105 634 -4 
C 794 104 858 104 1293 104 
C 1818 104 2547 104 2547 -486 
C 2547 -835 2106 -1171 1466 -1171 
z
" transform="scale(0.015625)"/>
     </defs>
     <use xlink:href="#CMR17-4d" transform="scale(0.996264)"/>
     <use xlink:href="#CMR17-65" transform="translate(84.686941 0) scale(0.996264)"/>
     <use xlink:href="#CMR17-61" transform="translate(125.172601 0) scale(0.996264)"/>
     <use xlink:href="#CMR17-6e" transform="translate(170.863078 0) scale(0.996264)"/>
     <use xlink:href="#CMR17-53" transform="translate(251.834414 0) scale(0.996264)"/>
     <use xlink:href="#CMR17-71" transform="translate(302.729784 0) scale(0.996264)"/>
     <use xlink:href="#CMR17-75" transform="translate(351.0227 0) scale(0.996264)"/>
     <use xlink:href="#CMR17-61" transform="translate(401.91807 0) scale(0.996264)"/>
     <use xlink:href="#CMR17-72" transform="translate(447.608547 0) scale(0.996264)"/>
     <use xlink:href="#CMR17-65" transform="translate(482.889315 0) scale(0.996264)"/>
     <use xlink:href="#CMR17-64" transform="translate(523.374975 0) scale(0.996264)"/>
     <use xlink:href="#CMR17-45" transform="translate(604.346311 0) scale(0.996264)"/>
     <use xlink:href="#CMR17-72" transform="translate(666.932612 0) scale(0.996264)"/>
     <use xlink:href="#CMR17-72" transform="translate(702.21338 0) scale(0.996264)"/>
     <use xlink:href="#CMR17-6f" transform="translate(737.494147 0) scale(0.996264)"/>
     <use xlink:href="#CMR17-72" transform="translate(783.184624 0) scale(0.996264)"/>
     <use xlink:href="#CMR17-28" transform="translate(848.541359 0) scale(0.996264)"/>
     <use xlink:href="#CMR17-4d" transform="translate(883.822126 0) scale(0.996264)"/>
     <use xlink:href="#CMR17-53" transform="translate(968.509067 0) scale(0.996264)"/>
     <use xlink:href="#CMR17-45" transform="translate(1019.404437 0) scale(0.996264)"/>
     <use xlink:href="#CMR17-29" transform="translate(1081.990737 0) scale(0.996264)"/>
     <use xlink:href="#CMR17-62" transform="translate(1147.347471 0) scale(0.996264)"/>
     <use xlink:href="#CMR17-79" transform="translate(1195.640387 0) scale(0.996264)"/>
     <use xlink:href="#CMR17-46" transform="translate(1274.009269 0) scale(0.996264)"/>
     <use xlink:href="#CMR17-6f" transform="translate(1326.185861 0) scale(0.996264)"/>
     <use xlink:href="#CMR17-6c" transform="translate(1371.876338 0) scale(0.996264)"/>
     <use xlink:href="#CMR17-64" transform="translate(1396.747396 0) scale(0.996264)"/>
     <use xlink:href="#CMR17-65" transform="translate(1447.642766 0) scale(0.996264)"/>
     <use xlink:href="#CMR17-72" transform="translate(1488.128426 0) scale(0.996264)"/>
     <use xlink:href="#CMR17-28" transform="translate(1553.485161 0) scale(0.996264)"/>
     <use xlink:href="#CMR17-4d" transform="translate(1588.765928 0) scale(0.996264)"/>
     <use xlink:href="#CMR17-65" transform="translate(1673.452869 0) scale(0.996264)"/>
     <use xlink:href="#CMR17-64" transform="translate(1713.938529 0) scale(0.996264)"/>
     <use xlink:href="#CMR17-69" transform="translate(1764.833899 0) scale(0.996264)"/>
     <use xlink:href="#CMR17-61" transform="translate(1789.704958 0) scale(0.996264)"/>
     <use xlink:href="#CMR17-6e" transform="translate(1835.395435 0) scale(0.996264)"/>
     <use xlink:href="#CMR17-77" transform="translate(1916.366771 0) scale(0.996264)"/>
     <use xlink:href="#CMR17-69" transform="translate(1982.876652 0) scale(0.996264)"/>
     <use xlink:href="#CMR17-74" transform="translate(2007.74771 0) scale(0.996264)"/>
     <use xlink:href="#CMR17-68" transform="translate(2043.028478 0) scale(0.996264)"/>
     <use xlink:href="#CMR17-4d" transform="translate(2123.999814 0) scale(0.996264)"/>
     <use xlink:href="#CMR17-69" transform="translate(2208.686755 0) scale(0.996264)"/>
     <use xlink:href="#CMR17-6e" transform="translate(2233.557813 0) scale(0.996264)"/>
     <use xlink:href="#CMR17-2d" transform="translate(2284.453183 0) scale(0.996264)"/>
     <use xlink:href="#CMR17-4d" transform="translate(2314.529149 0) scale(0.996264)"/>
     <use xlink:href="#CMR17-61" transform="translate(2399.21609 0) scale(0.996264)"/>
     <use xlink:href="#CMR17-78" transform="translate(2444.906567 0) scale(0.996264)"/>
     <use xlink:href="#CMR17-52" transform="translate(2523.275449 0) scale(0.996264)"/>
     <use xlink:href="#CMR17-61" transform="translate(2591.066551 0) scale(0.996264)"/>
     <use xlink:href="#CMR17-6e" transform="translate(2636.757028 0) scale(0.996264)"/>
     <use xlink:href="#CMR17-67" transform="translate(2687.652398 0) scale(0.996264)"/>
     <use xlink:href="#CMR17-65" transform="translate(2733.342875 0) scale(0.996264)"/>
     <use xlink:href="#CMR17-29" transform="translate(2773.828535 0) scale(0.996264)"/>
    </g>
   </g>
   <g id="legend_1">
    <g id="patch_61">
     <path d="M 892.259406 89.395606 
L 986.64 89.395606 
Q 989.04 89.395606 989.04 86.995606 
L 989.04 38.119639 
Q 989.04 35.719639 986.64 35.719639 
L 892.259406 35.719639 
Q 889.859406 35.719639 889.859406 38.119639 
L 889.859406 86.995606 
Q 889.859406 89.395606 892.259406 89.395606 
z
" style="fill: #ffffff; opacity: 0.8; stroke: #cccccc; stroke-linejoin: miter"/>
    </g>
    <g id="text_37">
     <!-- Epochs -->
     <g transform="translate(920.965043 48.821819) scale(0.12 -0.12)">
      <defs>
       <path id="CMR17-70" d="M 1408 -1063 
C 998 -1063 973 -1037 973 -789 
L 973 402 
C 1158 134 1427 -38 1766 -38 
C 2406 -38 3053 523 3053 1388 
C 3053 2191 2496 2802 1837 2802 
C 1453 2802 1139 2592 960 2338 
L 960 2802 
L 198 2732 
L 198 2567 
C 576 2567 634 2528 634 2223 
L 634 -789 
C 634 -1031 608 -1063 198 -1063 
L 198 -1228 
C 352 -1216 634 -1216 800 -1216 
C 966 -1216 1254 -1216 1408 -1228 
L 1408 -1063 
z
M 973 2012 
C 973 2102 973 2235 1222 2471 
C 1254 2497 1472 2688 1792 2688 
C 2259 2688 2643 2108 2643 1382 
C 2643 656 2234 64 1728 64 
C 1498 64 1248 172 1056 472 
C 973 612 973 650 973 752 
L 973 2012 
z
" transform="scale(0.015625)"/>
       <path id="CMR17-63" d="M 2234 2240 
C 2112 2240 1933 2240 1933 2017 
C 1933 1838 2080 1787 2163 1787 
C 2208 1787 2394 1807 2394 2024 
C 2394 2467 1958 2803 1466 2803 
C 787 2803 211 2178 211 1363 
C 211 516 813 -64 1466 -64 
C 2259 -64 2458 677 2458 748 
C 2458 774 2451 793 2406 793 
C 2362 793 2355 787 2330 703 
C 2163 180 1798 51 1523 51 
C 1114 51 621 427 621 1369 
C 621 2338 1094 2688 1472 2688 
C 1722 2688 2093 2573 2234 2240 
z
" transform="scale(0.015625)"/>
       <path id="CMR17-73" d="M 1978 2697 
C 1978 2813 1971 2819 1933 2819 
C 1907 2819 1901 2813 1824 2717 
C 1805 2691 1747 2626 1728 2601 
C 1523 2819 1235 2819 1126 2819 
C 416 2819 160 2447 160 2076 
C 160 1498 813 1365 998 1325 
C 1402 1243 1542 1217 1677 1101 
C 1760 1025 1901 884 1901 654 
C 1901 384 1747 38 1158 38 
C 602 38 403 460 288 1021 
C 269 1110 269 1117 218 1117 
C 166 1117 160 1110 160 983 
L 160 63 
C 160 -51 166 -58 205 -58 
C 237 -58 243 -51 275 0 
C 314 57 410 211 448 276 
C 576 103 800 -64 1158 -64 
C 1792 -64 2131 283 2131 784 
C 2131 1112 1958 1285 1875 1362 
C 1683 1561 1459 1606 1190 1657 
C 838 1735 390 1825 390 2217 
C 390 2383 480 2737 1126 2737 
C 1811 2737 1850 2094 1862 1888 
C 1869 1856 1901 1849 1920 1849 
C 1978 1849 1978 1869 1978 1978 
L 1978 2697 
z
" transform="scale(0.015625)"/>
      </defs>
      <use xlink:href="#CMR17-45" transform="scale(0.996264)"/>
      <use xlink:href="#CMR17-70" transform="translate(62.586301 0) scale(0.996264)"/>
      <use xlink:href="#CMR17-6f" transform="translate(116.084109 0) scale(0.996264)"/>
      <use xlink:href="#CMR17-63" transform="translate(164.377025 0) scale(0.996264)"/>
      <use xlink:href="#CMR17-68" transform="translate(202.260231 0) scale(0.996264)"/>
      <use xlink:href="#CMR17-73" transform="translate(253.155601 0) scale(0.996264)"/>
     </g>
    </g>
    <g id="patch_62">
     <path d="M 894.659406 65.546415 
L 918.659406 65.546415 
L 918.659406 57.146415 
L 894.659406 57.146415 
z
" style="fill: #1f77b4"/>
    </g>
    <g id="text_38">
     <!-- 150_epochs -->
     <g transform="translate(928.259406 65.546415) scale(0.12 -0.12)">
      <use xlink:href="#CMR17-31" transform="scale(0.996264)"/>
      <use xlink:href="#CMR17-35" transform="translate(45.690477 0) scale(0.996264)"/>
      <use xlink:href="#CMR17-30" transform="translate(91.380954 0) scale(0.996264)"/>
      <use xlink:href="#CMR17-65" transform="translate(169.968651 0) scale(0.996264)"/>
      <use xlink:href="#CMR17-70" transform="translate(210.454311 0) scale(0.996264)"/>
      <use xlink:href="#CMR17-6f" transform="translate(263.95212 0) scale(0.996264)"/>
      <use xlink:href="#CMR17-63" transform="translate(312.245036 0) scale(0.996264)"/>
      <use xlink:href="#CMR17-68" transform="translate(350.128242 0) scale(0.996264)"/>
      <use xlink:href="#CMR17-73" transform="translate(401.023612 0) scale(0.996264)"/>
      <path d="M 142.554061 0 
L 169.968651 0 
L 169.968651 0.3985 
L 142.554061 0.3985 
L 142.554061 0 
z
"/>
     </g>
    </g>
    <g id="patch_63">
     <path d="M 894.659406 82.27101 
L 918.659406 82.27101 
L 918.659406 73.87101 
L 894.659406 73.87101 
z
" style="fill: #ff7f0e"/>
    </g>
    <g id="text_39">
     <!-- 200_epochs -->
     <g transform="translate(928.259406 82.27101) scale(0.12 -0.12)">
      <use xlink:href="#CMR17-32" transform="scale(0.996264)"/>
      <use xlink:href="#CMR17-30" transform="translate(45.690477 0) scale(0.996264)"/>
      <use xlink:href="#CMR17-30" transform="translate(91.380954 0) scale(0.996264)"/>
      <use xlink:href="#CMR17-65" transform="translate(169.968651 0) scale(0.996264)"/>
      <use xlink:href="#CMR17-70" transform="translate(210.454311 0) scale(0.996264)"/>
      <use xlink:href="#CMR17-6f" transform="translate(263.95212 0) scale(0.996264)"/>
      <use xlink:href="#CMR17-63" transform="translate(312.245036 0) scale(0.996264)"/>
      <use xlink:href="#CMR17-68" transform="translate(350.128242 0) scale(0.996264)"/>
      <use xlink:href="#CMR17-73" transform="translate(401.023612 0) scale(0.996264)"/>
      <path d="M 142.554061 0 
L 169.968651 0 
L 169.968651 0.3985 
L 142.554061 0.3985 
L 142.554061 0 
z
"/>
     </g>
    </g>
   </g>
  </g>
 </g>
 <defs>
  <clipPath id="pbff9552399">
   <rect x="62.57879" y="29.719639" width="932.46121" height="427.987605"/>
  </clipPath>
 </defs>
</svg>
