<?xml version="1.0" encoding="utf-8" standalone="no"?>
<!DOCTYPE svg PUBLIC "-//W3C//DTD SVG 1.1//EN"
  "http://www.w3.org/Graphics/SVG/1.1/DTD/svg11.dtd">
<svg xmlns:xlink="http://www.w3.org/1999/xlink" width="1008pt" height="504pt" viewBox="0 0 1008 504" xmlns="http://www.w3.org/2000/svg" version="1.1">
 <metadata>
  <rdf:RDF xmlns:dc="http://purl.org/dc/elements/1.1/" xmlns:cc="http://creativecommons.org/ns#" xmlns:rdf="http://www.w3.org/1999/02/22-rdf-syntax-ns#">
   <cc:Work>
    <dc:type rdf:resource="http://purl.org/dc/dcmitype/StillImage"/>
    <dc:date>2025-04-24T13:44:26.236286</dc:date>
    <dc:format>image/svg+xml</dc:format>
    <dc:creator>
     <cc:Agent>
      <dc:title>Matplotlib v3.9.2, https://matplotlib.org/</dc:title>
     </cc:Agent>
    </dc:creator>
   </cc:Work>
  </rdf:RDF>
 </metadata>
 <defs>
  <style type="text/css">*{stroke-linejoin: round; stroke-linecap: butt}</style>
 </defs>
 <g id="figure_1">
  <g id="patch_1">
   <path d="M 0 504 
L 1008 504 
L 1008 0 
L 0 0 
z
" style="fill: #ffffff"/>
  </g>
  <g id="axes_1">
   <g id="patch_2">
    <path d="M 70.514288 450.621389 
L 995.04 450.621389 
L 995.04 38.817867 
L 70.514288 38.817867 
z
" style="fill: #ffffff"/>
   </g>
   <g id="patch_3">
    <path d="M 112.538184 450.621389 
L 123.555685 450.621389 
L 123.555685 400.899945 
L 112.538184 400.899945 
z
" clip-path="url(#pcb3c8c9ea2)" style="fill: #1f77b4"/>
   </g>
   <g id="patch_4">
    <path d="M 144.016758 450.621389 
L 155.034259 450.621389 
L 155.034259 351.019136 
L 144.016758 351.019136 
z
" clip-path="url(#pcb3c8c9ea2)" style="fill: #1f77b4"/>
   </g>
   <g id="patch_5">
    <path d="M 175.495332 450.621389 
L 186.512832 450.621389 
L 186.512832 348.628682 
L 175.495332 348.628682 
z
" clip-path="url(#pcb3c8c9ea2)" style="fill: #1f77b4"/>
   </g>
   <g id="patch_6">
    <path d="M 206.973905 450.621389 
L 217.991406 450.621389 
L 217.991406 364.724406 
L 206.973905 364.724406 
z
" clip-path="url(#pcb3c8c9ea2)" style="fill: #1f77b4"/>
   </g>
   <g id="patch_7">
    <path d="M 238.452479 450.621389 
L 249.46998 450.621389 
L 249.46998 275.162061 
L 238.452479 275.162061 
z
" clip-path="url(#pcb3c8c9ea2)" style="fill: #1f77b4"/>
   </g>
   <g id="patch_8">
    <path d="M 269.931053 450.621389 
L 280.948554 450.621389 
L 280.948554 233.408796 
L 269.931053 233.408796 
z
" clip-path="url(#pcb3c8c9ea2)" style="fill: #1f77b4"/>
   </g>
   <g id="patch_9">
    <path d="M 301.409627 450.621389 
L 312.427128 450.621389 
L 312.427128 253.647974 
L 301.409627 253.647974 
z
" clip-path="url(#pcb3c8c9ea2)" style="fill: #1f77b4"/>
   </g>
   <g id="patch_10">
    <path d="M 332.8882 450.621389 
L 343.905701 450.621389 
L 343.905701 254.126065 
L 332.8882 254.126065 
z
" clip-path="url(#pcb3c8c9ea2)" style="fill: #1f77b4"/>
   </g>
   <g id="patch_11">
    <path d="M 364.366774 450.621389 
L 375.384275 450.621389 
L 375.384275 338.270048 
L 364.366774 338.270048 
z
" clip-path="url(#pcb3c8c9ea2)" style="fill: #1f77b4"/>
   </g>
   <g id="patch_12">
    <path d="M 395.845348 450.621389 
L 406.862849 450.621389 
L 406.862849 169.344627 
L 395.845348 169.344627 
z
" clip-path="url(#pcb3c8c9ea2)" style="fill: #1f77b4"/>
   </g>
   <g id="patch_13">
    <path d="M 427.323922 450.621389 
L 438.341423 450.621389 
L 438.341423 420.342304 
L 427.323922 420.342304 
z
" clip-path="url(#pcb3c8c9ea2)" style="fill: #1f77b4"/>
   </g>
   <g id="patch_14">
    <path d="M 458.802496 450.621389 
L 469.819996 450.621389 
L 469.819996 438.031664 
L 458.802496 438.031664 
z
" clip-path="url(#pcb3c8c9ea2)" style="fill: #1f77b4"/>
   </g>
   <g id="patch_15">
    <path d="M 490.281069 450.621389 
L 501.29857 450.621389 
L 501.29857 376.039222 
L 490.281069 376.039222 
z
" clip-path="url(#pcb3c8c9ea2)" style="fill: #1f77b4"/>
   </g>
   <g id="patch_16">
    <path d="M 521.759643 450.621389 
L 532.777144 450.621389 
L 532.777144 372.055132 
L 521.759643 372.055132 
z
" clip-path="url(#pcb3c8c9ea2)" style="fill: #1f77b4"/>
   </g>
   <g id="patch_17">
    <path d="M 553.238217 450.621389 
L 564.255718 450.621389 
L 564.255718 344.644592 
L 553.238217 344.644592 
z
" clip-path="url(#pcb3c8c9ea2)" style="fill: #1f77b4"/>
   </g>
   <g id="patch_18">
    <path d="M 584.716791 450.621389 
L 595.734292 450.621389 
L 595.734292 278.66806 
L 584.716791 278.66806 
z
" clip-path="url(#pcb3c8c9ea2)" style="fill: #1f77b4"/>
   </g>
   <g id="patch_19">
    <path d="M 616.195365 450.621389 
L 627.212865 450.621389 
L 627.212865 328.389504 
L 616.195365 328.389504 
z
" clip-path="url(#pcb3c8c9ea2)" style="fill: #1f77b4"/>
   </g>
   <g id="patch_20">
    <path d="M 647.673938 450.621389 
L 658.691439 450.621389 
L 658.691439 289.026694 
L 647.673938 289.026694 
z
" clip-path="url(#pcb3c8c9ea2)" style="fill: #1f77b4"/>
   </g>
   <g id="patch_21">
    <path d="M 679.152512 450.621389 
L 690.170013 450.621389 
L 690.170013 333.170413 
L 679.152512 333.170413 
z
" clip-path="url(#pcb3c8c9ea2)" style="fill: #1f77b4"/>
   </g>
   <g id="patch_22">
    <path d="M 710.631086 450.621389 
L 721.648587 450.621389 
L 721.648587 318.03087 
L 710.631086 318.03087 
z
" clip-path="url(#pcb3c8c9ea2)" style="fill: #1f77b4"/>
   </g>
   <g id="patch_23">
    <path d="M 742.10966 450.621389 
L 753.12716 450.621389 
L 753.12716 323.130506 
L 742.10966 323.130506 
z
" clip-path="url(#pcb3c8c9ea2)" style="fill: #1f77b4"/>
   </g>
   <g id="patch_24">
    <path d="M 773.588233 450.621389 
L 784.605734 450.621389 
L 784.605734 366.955497 
L 773.588233 366.955497 
z
" clip-path="url(#pcb3c8c9ea2)" style="fill: #1f77b4"/>
   </g>
   <g id="patch_25">
    <path d="M 805.066807 450.621389 
L 816.084308 450.621389 
L 816.084308 342.891593 
L 805.066807 342.891593 
z
" clip-path="url(#pcb3c8c9ea2)" style="fill: #1f77b4"/>
   </g>
   <g id="patch_26">
    <path d="M 836.545381 450.621389 
L 847.562882 450.621389 
L 847.562882 388.150856 
L 836.545381 388.150856 
z
" clip-path="url(#pcb3c8c9ea2)" style="fill: #1f77b4"/>
   </g>
   <g id="patch_27">
    <path d="M 868.023955 450.621389 
L 879.041456 450.621389 
L 879.041456 403.609126 
L 868.023955 403.609126 
z
" clip-path="url(#pcb3c8c9ea2)" style="fill: #1f77b4"/>
   </g>
   <g id="patch_28">
    <path d="M 899.502529 450.621389 
L 910.520029 450.621389 
L 910.520029 385.441675 
L 899.502529 385.441675 
z
" clip-path="url(#pcb3c8c9ea2)" style="fill: #1f77b4"/>
   </g>
   <g id="patch_29">
    <path d="M 930.981102 450.621389 
L 941.998603 450.621389 
L 941.998603 377.632858 
L 930.981102 377.632858 
z
" clip-path="url(#pcb3c8c9ea2)" style="fill: #1f77b4"/>
   </g>
   <g id="patch_30">
    <path d="M 123.555685 450.621389 
L 134.573186 450.621389 
L 134.573186 420.182941 
L 123.555685 420.182941 
z
" clip-path="url(#pcb3c8c9ea2)" style="fill: #ff7f0e"/>
   </g>
   <g id="patch_31">
    <path d="M 155.034259 450.621389 
L 166.051759 450.621389 
L 166.051759 361.377771 
L 155.034259 361.377771 
z
" clip-path="url(#pcb3c8c9ea2)" style="fill: #ff7f0e"/>
   </g>
   <g id="patch_32">
    <path d="M 186.512832 450.621389 
L 197.530333 450.621389 
L 197.530333 358.827953 
L 186.512832 358.827953 
z
" clip-path="url(#pcb3c8c9ea2)" style="fill: #ff7f0e"/>
   </g>
   <g id="patch_33">
    <path d="M 217.991406 450.621389 
L 229.008907 450.621389 
L 229.008907 392.29431 
L 217.991406 392.29431 
z
" clip-path="url(#pcb3c8c9ea2)" style="fill: #ff7f0e"/>
   </g>
   <g id="patch_34">
    <path d="M 249.46998 450.621389 
L 260.487481 450.621389 
L 260.487481 285.520695 
L 249.46998 285.520695 
z
" clip-path="url(#pcb3c8c9ea2)" style="fill: #ff7f0e"/>
   </g>
   <g id="patch_35">
    <path d="M 280.948554 450.621389 
L 291.966055 450.621389 
L 291.966055 240.102068 
L 280.948554 240.102068 
z
" clip-path="url(#pcb3c8c9ea2)" style="fill: #ff7f0e"/>
   </g>
   <g id="patch_36">
    <path d="M 312.427128 450.621389 
L 323.444628 450.621389 
L 323.444628 262.572336 
L 312.427128 262.572336 
z
" clip-path="url(#pcb3c8c9ea2)" style="fill: #ff7f0e"/>
   </g>
   <g id="patch_37">
    <path d="M 343.905701 450.621389 
L 354.923202 450.621389 
L 354.923202 304.3256 
L 343.905701 304.3256 
z
" clip-path="url(#pcb3c8c9ea2)" style="fill: #ff7f0e"/>
   </g>
   <g id="patch_38">
    <path d="M 375.384275 450.621389 
L 386.401776 450.621389 
L 386.401776 353.090863 
L 375.384275 353.090863 
z
" clip-path="url(#pcb3c8c9ea2)" style="fill: #ff7f0e"/>
   </g>
   <g id="patch_39">
    <path d="M 406.862849 450.621389 
L 417.88035 450.621389 
L 417.88035 275.162061 
L 406.862849 275.162061 
z
" clip-path="url(#pcb3c8c9ea2)" style="fill: #ff7f0e"/>
   </g>
   <g id="patch_40">
    <path d="M 438.341423 450.621389 
L 449.358923 450.621389 
L 449.358923 434.047574 
L 438.341423 434.047574 
z
" clip-path="url(#pcb3c8c9ea2)" style="fill: #ff7f0e"/>
   </g>
   <g id="patch_41">
    <path d="M 469.819996 450.621389 
L 480.837497 450.621389 
L 480.837497 428.310485 
L 469.819996 428.310485 
z
" clip-path="url(#pcb3c8c9ea2)" style="fill: #ff7f0e"/>
   </g>
   <g id="patch_42">
    <path d="M 501.29857 450.621389 
L 512.316071 450.621389 
L 512.316071 386.079129 
L 501.29857 386.079129 
z
" clip-path="url(#pcb3c8c9ea2)" style="fill: #ff7f0e"/>
   </g>
   <g id="patch_43">
    <path d="M 532.777144 450.621389 
L 543.794645 450.621389 
L 543.794645 347.513137 
L 532.777144 347.513137 
z
" clip-path="url(#pcb3c8c9ea2)" style="fill: #ff7f0e"/>
   </g>
   <g id="patch_44">
    <path d="M 564.255718 450.621389 
L 575.273219 450.621389 
L 575.273219 347.831864 
L 564.255718 347.831864 
z
" clip-path="url(#pcb3c8c9ea2)" style="fill: #ff7f0e"/>
   </g>
   <g id="patch_45">
    <path d="M 595.734292 450.621389 
L 606.751792 450.621389 
L 606.751792 302.572601 
L 595.734292 302.572601 
z
" clip-path="url(#pcb3c8c9ea2)" style="fill: #ff7f0e"/>
   </g>
   <g id="patch_46">
    <path d="M 627.212865 450.621389 
L 638.230366 450.621389 
L 638.230366 358.509226 
L 627.212865 358.509226 
z
" clip-path="url(#pcb3c8c9ea2)" style="fill: #ff7f0e"/>
   </g>
   <g id="patch_47">
    <path d="M 658.691439 450.621389 
L 669.70894 450.621389 
L 669.70894 346.397592 
L 658.691439 346.397592 
z
" clip-path="url(#pcb3c8c9ea2)" style="fill: #ff7f0e"/>
   </g>
   <g id="patch_48">
    <path d="M 690.170013 450.621389 
L 701.187514 450.621389 
L 701.187514 362.812043 
L 690.170013 362.812043 
z
" clip-path="url(#pcb3c8c9ea2)" style="fill: #ff7f0e"/>
   </g>
   <g id="patch_49">
    <path d="M 721.648587 450.621389 
L 732.666088 450.621389 
L 732.666088 338.748139 
L 721.648587 338.748139 
z
" clip-path="url(#pcb3c8c9ea2)" style="fill: #ff7f0e"/>
   </g>
   <g id="patch_50">
    <path d="M 753.12716 450.621389 
L 764.144661 450.621389 
L 764.144661 334.285958 
L 753.12716 334.285958 
z
" clip-path="url(#pcb3c8c9ea2)" style="fill: #ff7f0e"/>
   </g>
   <g id="patch_51">
    <path d="M 784.605734 450.621389 
L 795.623235 450.621389 
L 795.623235 372.214496 
L 784.605734 372.214496 
z
" clip-path="url(#pcb3c8c9ea2)" style="fill: #ff7f0e"/>
   </g>
   <g id="patch_52">
    <path d="M 816.084308 450.621389 
L 827.101809 450.621389 
L 827.101809 348.469319 
L 816.084308 348.469319 
z
" clip-path="url(#pcb3c8c9ea2)" style="fill: #ff7f0e"/>
   </g>
   <g id="patch_53">
    <path d="M 847.562882 450.621389 
L 858.580383 450.621389 
L 858.580383 408.868125 
L 847.562882 408.868125 
z
" clip-path="url(#pcb3c8c9ea2)" style="fill: #ff7f0e"/>
   </g>
   <g id="patch_54">
    <path d="M 879.041456 450.621389 
L 890.058956 450.621389 
L 890.058956 387.035311 
L 879.041456 387.035311 
z
" clip-path="url(#pcb3c8c9ea2)" style="fill: #ff7f0e"/>
   </g>
   <g id="patch_55">
    <path d="M 910.520029 450.621389 
L 921.53753 450.621389 
L 921.53753 388.150856 
L 910.520029 388.150856 
z
" clip-path="url(#pcb3c8c9ea2)" style="fill: #ff7f0e"/>
   </g>
   <g id="patch_56">
    <path d="M 941.998603 450.621389 
L 953.016104 450.621389 
L 953.016104 375.879859 
L 941.998603 375.879859 
z
" clip-path="url(#pcb3c8c9ea2)" style="fill: #ff7f0e"/>
   </g>
   <g id="matplotlib.axis_1">
    <g id="xtick_1">
     <g id="line2d_1">
      <defs>
       <path id="mb9a072f4cf" d="M 0 0 
L 0 3.5 
" style="stroke: #000000; stroke-width: 0.8"/>
      </defs>
      <g>
       <use xlink:href="#mb9a072f4cf" x="123.555685" y="450.621389" style="stroke: #000000; stroke-width: 0.8"/>
      </g>
     </g>
     <g id="text_1">
      <!-- 1 -->
      <g transform="translate(126.544477 463.474379) rotate(-90) scale(0.12 -0.12)">
       <defs>
        <path id="CMR17-31" d="M 1702 4058 
C 1702 4192 1696 4192 1606 4192 
C 1357 3916 979 3827 621 3827 
C 602 3827 570 3827 563 3808 
C 557 3795 557 3782 557 3648 
C 755 3648 1088 3686 1344 3839 
L 1344 461 
C 1344 236 1331 160 781 160 
L 589 160 
L 589 0 
C 896 0 1216 0 1523 0 
C 1830 0 2150 0 2458 0 
L 2458 160 
L 2266 160 
C 1715 160 1702 230 1702 458 
L 1702 4058 
z
" transform="scale(0.015625)"/>
       </defs>
       <use xlink:href="#CMR17-31" transform="scale(0.996264)"/>
      </g>
     </g>
    </g>
    <g id="xtick_2">
     <g id="line2d_2">
      <g>
       <use xlink:href="#mb9a072f4cf" x="155.034259" y="450.621389" style="stroke: #000000; stroke-width: 0.8"/>
      </g>
     </g>
     <g id="text_2">
      <!-- 2 -->
      <g transform="translate(158.023051 463.474379) rotate(-90) scale(0.12 -0.12)">
       <defs>
        <path id="CMR17-32" d="M 2669 989 
L 2554 989 
C 2490 536 2438 459 2413 420 
C 2381 369 1920 369 1830 369 
L 602 369 
C 832 619 1280 1072 1824 1597 
C 2214 1967 2669 2402 2669 3035 
C 2669 3790 2067 4224 1395 4224 
C 691 4224 262 3604 262 3030 
C 262 2780 448 2748 525 2748 
C 589 2748 781 2787 781 3010 
C 781 3207 614 3264 525 3264 
C 486 3264 448 3258 422 3245 
C 544 3790 915 4058 1306 4058 
C 1862 4058 2227 3617 2227 3035 
C 2227 2479 1901 2000 1536 1584 
L 262 146 
L 262 0 
L 2515 0 
L 2669 989 
z
" transform="scale(0.015625)"/>
       </defs>
       <use xlink:href="#CMR17-32" transform="scale(0.996264)"/>
      </g>
     </g>
    </g>
    <g id="xtick_3">
     <g id="line2d_3">
      <g>
       <use xlink:href="#mb9a072f4cf" x="186.512832" y="450.621389" style="stroke: #000000; stroke-width: 0.8"/>
      </g>
     </g>
     <g id="text_3">
      <!-- 3 -->
      <g transform="translate(189.501624 463.474379) rotate(-90) scale(0.12 -0.12)">
       <defs>
        <path id="CMR17-33" d="M 1414 2157 
C 1984 2157 2234 1662 2234 1090 
C 2234 320 1824 25 1453 25 
C 1114 25 563 194 390 693 
C 422 680 454 680 486 680 
C 640 680 755 782 755 948 
C 755 1133 614 1216 486 1216 
C 378 1216 211 1165 211 926 
C 211 335 787 -128 1466 -128 
C 2176 -128 2720 430 2720 1085 
C 2720 1707 2208 2157 1600 2227 
C 2086 2328 2554 2756 2554 3329 
C 2554 3820 2048 4179 1472 4179 
C 890 4179 378 3829 378 3329 
C 378 3110 544 3072 627 3072 
C 762 3072 877 3155 877 3321 
C 877 3486 762 3569 627 3569 
C 602 3569 570 3569 544 3557 
C 730 3959 1235 4032 1459 4032 
C 1683 4032 2106 3925 2106 3320 
C 2106 3143 2080 2828 1862 2550 
C 1670 2304 1453 2304 1242 2284 
C 1210 2284 1062 2269 1037 2269 
C 992 2263 966 2257 966 2208 
C 966 2163 973 2157 1101 2157 
L 1414 2157 
z
" transform="scale(0.015625)"/>
       </defs>
       <use xlink:href="#CMR17-33" transform="scale(0.996264)"/>
      </g>
     </g>
    </g>
    <g id="xtick_4">
     <g id="line2d_4">
      <g>
       <use xlink:href="#mb9a072f4cf" x="217.991406" y="450.621389" style="stroke: #000000; stroke-width: 0.8"/>
      </g>
     </g>
     <g id="text_4">
      <!-- 4 -->
      <g transform="translate(220.980198 463.474379) rotate(-90) scale(0.12 -0.12)">
       <defs>
        <path id="CMR17-34" d="M 2150 4122 
C 2150 4256 2144 4256 2029 4256 
L 128 1254 
L 128 1088 
L 1779 1088 
L 1779 457 
C 1779 224 1766 160 1318 160 
L 1197 160 
L 1197 0 
C 1402 0 1747 0 1965 0 
C 2182 0 2528 0 2733 0 
L 2733 160 
L 2611 160 
C 2163 160 2150 224 2150 457 
L 2150 1088 
L 2803 1088 
L 2803 1254 
L 2150 1254 
L 2150 4122 
z
M 1798 3703 
L 1798 1254 
L 256 1254 
L 1798 3703 
z
" transform="scale(0.015625)"/>
       </defs>
       <use xlink:href="#CMR17-34" transform="scale(0.996264)"/>
      </g>
     </g>
    </g>
    <g id="xtick_5">
     <g id="line2d_5">
      <g>
       <use xlink:href="#mb9a072f4cf" x="249.46998" y="450.621389" style="stroke: #000000; stroke-width: 0.8"/>
      </g>
     </g>
     <g id="text_5">
      <!-- 5 -->
      <g transform="translate(252.458772 463.474379) rotate(-90) scale(0.12 -0.12)">
       <defs>
        <path id="CMR17-35" d="M 730 3692 
C 794 3666 1056 3584 1325 3584 
C 1920 3584 2246 3911 2432 4100 
C 2432 4157 2432 4192 2394 4192 
C 2387 4192 2374 4192 2323 4163 
C 2099 4058 1837 3973 1517 3973 
C 1325 3973 1037 3999 723 4139 
C 653 4171 640 4171 634 4171 
C 602 4171 595 4164 595 4037 
L 595 2203 
C 595 2089 595 2057 659 2057 
C 691 2057 704 2070 736 2114 
C 941 2401 1222 2522 1542 2522 
C 1766 2522 2246 2382 2246 1289 
C 2246 1085 2246 715 2054 421 
C 1894 159 1645 25 1370 25 
C 947 25 518 320 403 814 
C 429 807 480 795 506 795 
C 589 795 749 840 749 1038 
C 749 1210 627 1280 506 1280 
C 358 1280 262 1190 262 1011 
C 262 454 704 -128 1382 -128 
C 2042 -128 2669 440 2669 1264 
C 2669 2030 2170 2624 1549 2624 
C 1222 2624 947 2503 730 2274 
L 730 3692 
z
" transform="scale(0.015625)"/>
       </defs>
       <use xlink:href="#CMR17-35" transform="scale(0.996264)"/>
      </g>
     </g>
    </g>
    <g id="xtick_6">
     <g id="line2d_6">
      <g>
       <use xlink:href="#mb9a072f4cf" x="280.948554" y="450.621389" style="stroke: #000000; stroke-width: 0.8"/>
      </g>
     </g>
     <g id="text_6">
      <!-- 6 -->
      <g transform="translate(283.937346 463.474379) rotate(-90) scale(0.12 -0.12)">
       <defs>
        <path id="CMR17-36" d="M 678 2176 
C 678 3690 1395 4032 1811 4032 
C 1946 4032 2272 4009 2400 3776 
C 2298 3776 2106 3776 2106 3553 
C 2106 3381 2246 3323 2336 3323 
C 2394 3323 2566 3348 2566 3560 
C 2566 3954 2246 4179 1805 4179 
C 1043 4179 243 3390 243 1984 
C 243 253 966 -128 1478 -128 
C 2099 -128 2688 427 2688 1283 
C 2688 2081 2170 2662 1517 2662 
C 1126 2662 838 2407 678 1960 
L 678 2176 
z
M 1478 25 
C 691 25 691 1200 691 1436 
C 691 1896 909 2560 1504 2560 
C 1613 2560 1926 2560 2138 2120 
C 2253 1870 2253 1609 2253 1289 
C 2253 944 2253 690 2118 434 
C 1978 171 1773 25 1478 25 
z
" transform="scale(0.015625)"/>
       </defs>
       <use xlink:href="#CMR17-36" transform="scale(0.996264)"/>
      </g>
     </g>
    </g>
    <g id="xtick_7">
     <g id="line2d_7">
      <g>
       <use xlink:href="#mb9a072f4cf" x="312.427128" y="450.621389" style="stroke: #000000; stroke-width: 0.8"/>
      </g>
     </g>
     <g id="text_7">
      <!-- 7 -->
      <g transform="translate(315.41592 463.474379) rotate(-90) scale(0.12 -0.12)">
       <defs>
        <path id="CMR17-37" d="M 2886 3941 
L 2886 4081 
L 1382 4081 
C 634 4081 621 4165 595 4288 
L 480 4288 
L 294 3094 
L 410 3094 
C 429 3215 474 3540 550 3661 
C 589 3712 1062 3712 1171 3712 
L 2579 3712 
L 1869 2661 
C 1395 1954 1069 999 1069 165 
C 1069 89 1069 -128 1299 -128 
C 1530 -128 1530 89 1530 171 
L 1530 465 
C 1530 1508 1709 2196 2003 2636 
L 2886 3941 
z
" transform="scale(0.015625)"/>
       </defs>
       <use xlink:href="#CMR17-37" transform="scale(0.996264)"/>
      </g>
     </g>
    </g>
    <g id="xtick_8">
     <g id="line2d_8">
      <g>
       <use xlink:href="#mb9a072f4cf" x="343.905701" y="450.621389" style="stroke: #000000; stroke-width: 0.8"/>
      </g>
     </g>
     <g id="text_8">
      <!-- 8 -->
      <g transform="translate(346.894493 463.474379) rotate(-90) scale(0.12 -0.12)">
       <defs>
        <path id="CMR17-38" d="M 1741 2264 
C 2144 2467 2554 2773 2554 3263 
C 2554 3841 1990 4179 1472 4179 
C 890 4179 378 3759 378 3180 
C 378 3021 416 2747 666 2505 
C 730 2442 998 2251 1171 2130 
C 883 1983 211 1634 211 934 
C 211 279 838 -128 1459 -128 
C 2144 -128 2720 362 2720 1010 
C 2720 1590 2330 1857 2074 2029 
L 1741 2264 
z
M 902 2822 
C 851 2854 595 3051 595 3351 
C 595 3739 998 4032 1459 4032 
C 1965 4032 2336 3676 2336 3262 
C 2336 2669 1670 2331 1638 2331 
C 1632 2331 1626 2331 1574 2370 
L 902 2822 
z
M 2080 1519 
C 2176 1449 2483 1240 2483 851 
C 2483 381 2010 25 1472 25 
C 890 25 448 438 448 940 
C 448 1443 838 1862 1280 2060 
L 2080 1519 
z
" transform="scale(0.015625)"/>
       </defs>
       <use xlink:href="#CMR17-38" transform="scale(0.996264)"/>
      </g>
     </g>
    </g>
    <g id="xtick_9">
     <g id="line2d_9">
      <g>
       <use xlink:href="#mb9a072f4cf" x="375.384275" y="450.621389" style="stroke: #000000; stroke-width: 0.8"/>
      </g>
     </g>
     <g id="text_9">
      <!-- 11 -->
      <g transform="translate(378.373067 469.32737) rotate(-90) scale(0.12 -0.12)">
       <use xlink:href="#CMR17-31" transform="scale(0.996264)"/>
       <use xlink:href="#CMR17-31" transform="translate(45.690477 0) scale(0.996264)"/>
      </g>
     </g>
    </g>
    <g id="xtick_10">
     <g id="line2d_10">
      <g>
       <use xlink:href="#mb9a072f4cf" x="406.862849" y="450.621389" style="stroke: #000000; stroke-width: 0.8"/>
      </g>
     </g>
     <g id="text_10">
      <!-- 13 -->
      <g transform="translate(409.851641 469.32737) rotate(-90) scale(0.12 -0.12)">
       <use xlink:href="#CMR17-31" transform="scale(0.996264)"/>
       <use xlink:href="#CMR17-33" transform="translate(45.690477 0) scale(0.996264)"/>
      </g>
     </g>
    </g>
    <g id="xtick_11">
     <g id="line2d_11">
      <g>
       <use xlink:href="#mb9a072f4cf" x="438.341423" y="450.621389" style="stroke: #000000; stroke-width: 0.8"/>
      </g>
     </g>
     <g id="text_11">
      <!-- 16 -->
      <g transform="translate(441.330215 469.32737) rotate(-90) scale(0.12 -0.12)">
       <use xlink:href="#CMR17-31" transform="scale(0.996264)"/>
       <use xlink:href="#CMR17-36" transform="translate(45.690477 0) scale(0.996264)"/>
      </g>
     </g>
    </g>
    <g id="xtick_12">
     <g id="line2d_12">
      <g>
       <use xlink:href="#mb9a072f4cf" x="469.819996" y="450.621389" style="stroke: #000000; stroke-width: 0.8"/>
      </g>
     </g>
     <g id="text_12">
      <!-- 17 -->
      <g transform="translate(472.808788 469.32737) rotate(-90) scale(0.12 -0.12)">
       <use xlink:href="#CMR17-31" transform="scale(0.996264)"/>
       <use xlink:href="#CMR17-37" transform="translate(45.690477 0) scale(0.996264)"/>
      </g>
     </g>
    </g>
    <g id="xtick_13">
     <g id="line2d_13">
      <g>
       <use xlink:href="#mb9a072f4cf" x="501.29857" y="450.621389" style="stroke: #000000; stroke-width: 0.8"/>
      </g>
     </g>
     <g id="text_13">
      <!-- 18 -->
      <g transform="translate(504.287362 469.32737) rotate(-90) scale(0.12 -0.12)">
       <use xlink:href="#CMR17-31" transform="scale(0.996264)"/>
       <use xlink:href="#CMR17-38" transform="translate(45.690477 0) scale(0.996264)"/>
      </g>
     </g>
    </g>
    <g id="xtick_14">
     <g id="line2d_14">
      <g>
       <use xlink:href="#mb9a072f4cf" x="532.777144" y="450.621389" style="stroke: #000000; stroke-width: 0.8"/>
      </g>
     </g>
     <g id="text_14">
      <!-- 20 -->
      <g transform="translate(535.765936 469.32737) rotate(-90) scale(0.12 -0.12)">
       <defs>
        <path id="CMR17-30" d="M 2688 2025 
C 2688 2416 2682 3080 2413 3591 
C 2176 4039 1798 4198 1466 4198 
C 1158 4198 768 4058 525 3597 
C 269 3118 243 2524 243 2025 
C 243 1661 250 1106 448 619 
C 723 -39 1216 -128 1466 -128 
C 1760 -128 2208 -7 2470 600 
C 2662 1042 2688 1559 2688 2025 
z
M 1466 -26 
C 1056 -26 813 325 723 812 
C 653 1188 653 1738 653 2096 
C 653 2588 653 2997 736 3387 
C 858 3929 1216 4096 1466 4096 
C 1728 4096 2067 3923 2189 3400 
C 2272 3036 2278 2607 2278 2096 
C 2278 1680 2278 1169 2202 792 
C 2067 95 1690 -26 1466 -26 
z
" transform="scale(0.015625)"/>
       </defs>
       <use xlink:href="#CMR17-32" transform="scale(0.996264)"/>
       <use xlink:href="#CMR17-30" transform="translate(45.690477 0) scale(0.996264)"/>
      </g>
     </g>
    </g>
    <g id="xtick_15">
     <g id="line2d_15">
      <g>
       <use xlink:href="#mb9a072f4cf" x="564.255718" y="450.621389" style="stroke: #000000; stroke-width: 0.8"/>
      </g>
     </g>
     <g id="text_15">
      <!-- 21 -->
      <g transform="translate(567.24451 469.32737) rotate(-90) scale(0.12 -0.12)">
       <use xlink:href="#CMR17-32" transform="scale(0.996264)"/>
       <use xlink:href="#CMR17-31" transform="translate(45.690477 0) scale(0.996264)"/>
      </g>
     </g>
    </g>
    <g id="xtick_16">
     <g id="line2d_16">
      <g>
       <use xlink:href="#mb9a072f4cf" x="595.734292" y="450.621389" style="stroke: #000000; stroke-width: 0.8"/>
      </g>
     </g>
     <g id="text_16">
      <!-- 22 -->
      <g transform="translate(598.723084 469.32737) rotate(-90) scale(0.12 -0.12)">
       <use xlink:href="#CMR17-32" transform="scale(0.996264)"/>
       <use xlink:href="#CMR17-32" transform="translate(45.690477 0) scale(0.996264)"/>
      </g>
     </g>
    </g>
    <g id="xtick_17">
     <g id="line2d_17">
      <g>
       <use xlink:href="#mb9a072f4cf" x="627.212865" y="450.621389" style="stroke: #000000; stroke-width: 0.8"/>
      </g>
     </g>
     <g id="text_17">
      <!-- 23 -->
      <g transform="translate(630.201657 469.32737) rotate(-90) scale(0.12 -0.12)">
       <use xlink:href="#CMR17-32" transform="scale(0.996264)"/>
       <use xlink:href="#CMR17-33" transform="translate(45.690477 0) scale(0.996264)"/>
      </g>
     </g>
    </g>
    <g id="xtick_18">
     <g id="line2d_18">
      <g>
       <use xlink:href="#mb9a072f4cf" x="658.691439" y="450.621389" style="stroke: #000000; stroke-width: 0.8"/>
      </g>
     </g>
     <g id="text_18">
      <!-- 24 -->
      <g transform="translate(661.680231 469.32737) rotate(-90) scale(0.12 -0.12)">
       <use xlink:href="#CMR17-32" transform="scale(0.996264)"/>
       <use xlink:href="#CMR17-34" transform="translate(45.690477 0) scale(0.996264)"/>
      </g>
     </g>
    </g>
    <g id="xtick_19">
     <g id="line2d_19">
      <g>
       <use xlink:href="#mb9a072f4cf" x="690.170013" y="450.621389" style="stroke: #000000; stroke-width: 0.8"/>
      </g>
     </g>
     <g id="text_19">
      <!-- 25 -->
      <g transform="translate(693.158805 469.32737) rotate(-90) scale(0.12 -0.12)">
       <use xlink:href="#CMR17-32" transform="scale(0.996264)"/>
       <use xlink:href="#CMR17-35" transform="translate(45.690477 0) scale(0.996264)"/>
      </g>
     </g>
    </g>
    <g id="xtick_20">
     <g id="line2d_20">
      <g>
       <use xlink:href="#mb9a072f4cf" x="721.648587" y="450.621389" style="stroke: #000000; stroke-width: 0.8"/>
      </g>
     </g>
     <g id="text_20">
      <!-- 26 -->
      <g transform="translate(724.637379 469.32737) rotate(-90) scale(0.12 -0.12)">
       <use xlink:href="#CMR17-32" transform="scale(0.996264)"/>
       <use xlink:href="#CMR17-36" transform="translate(45.690477 0) scale(0.996264)"/>
      </g>
     </g>
    </g>
    <g id="xtick_21">
     <g id="line2d_21">
      <g>
       <use xlink:href="#mb9a072f4cf" x="753.12716" y="450.621389" style="stroke: #000000; stroke-width: 0.8"/>
      </g>
     </g>
     <g id="text_21">
      <!-- 27 -->
      <g transform="translate(756.115953 469.32737) rotate(-90) scale(0.12 -0.12)">
       <use xlink:href="#CMR17-32" transform="scale(0.996264)"/>
       <use xlink:href="#CMR17-37" transform="translate(45.690477 0) scale(0.996264)"/>
      </g>
     </g>
    </g>
    <g id="xtick_22">
     <g id="line2d_22">
      <g>
       <use xlink:href="#mb9a072f4cf" x="784.605734" y="450.621389" style="stroke: #000000; stroke-width: 0.8"/>
      </g>
     </g>
     <g id="text_22">
      <!-- 28 -->
      <g transform="translate(787.594526 469.32737) rotate(-90) scale(0.12 -0.12)">
       <use xlink:href="#CMR17-32" transform="scale(0.996264)"/>
       <use xlink:href="#CMR17-38" transform="translate(45.690477 0) scale(0.996264)"/>
      </g>
     </g>
    </g>
    <g id="xtick_23">
     <g id="line2d_23">
      <g>
       <use xlink:href="#mb9a072f4cf" x="816.084308" y="450.621389" style="stroke: #000000; stroke-width: 0.8"/>
      </g>
     </g>
     <g id="text_23">
      <!-- 29 -->
      <g transform="translate(819.0731 469.32737) rotate(-90) scale(0.12 -0.12)">
       <defs>
        <path id="CMR17-39" d="M 2253 1864 
C 2253 464 1670 31 1190 31 
C 1043 31 685 31 538 294 
C 704 268 826 357 826 518 
C 826 692 685 749 595 749 
C 538 749 365 723 365 506 
C 365 71 742 -128 1203 -128 
C 1939 -128 2688 674 2688 2073 
C 2688 3817 1971 4179 1485 4179 
C 851 4179 243 3628 243 2778 
C 243 1991 762 1408 1414 1408 
C 1952 1408 2189 1903 2253 2112 
L 2253 1864 
z
M 1427 1510 
C 1254 1510 1011 1542 813 1922 
C 678 2169 678 2461 678 2771 
C 678 3146 678 3405 858 3684 
C 947 3817 1114 4032 1485 4032 
C 2240 4032 2240 2885 2240 2632 
C 2240 2182 2035 1510 1427 1510 
z
" transform="scale(0.015625)"/>
       </defs>
       <use xlink:href="#CMR17-32" transform="scale(0.996264)"/>
       <use xlink:href="#CMR17-39" transform="translate(45.690477 0) scale(0.996264)"/>
      </g>
     </g>
    </g>
    <g id="xtick_24">
     <g id="line2d_24">
      <g>
       <use xlink:href="#mb9a072f4cf" x="847.562882" y="450.621389" style="stroke: #000000; stroke-width: 0.8"/>
      </g>
     </g>
     <g id="text_24">
      <!-- 30 -->
      <g transform="translate(850.551674 469.32737) rotate(-90) scale(0.12 -0.12)">
       <use xlink:href="#CMR17-33" transform="scale(0.996264)"/>
       <use xlink:href="#CMR17-30" transform="translate(45.690477 0) scale(0.996264)"/>
      </g>
     </g>
    </g>
    <g id="xtick_25">
     <g id="line2d_25">
      <g>
       <use xlink:href="#mb9a072f4cf" x="879.041456" y="450.621389" style="stroke: #000000; stroke-width: 0.8"/>
      </g>
     </g>
     <g id="text_25">
      <!-- 32 -->
      <g transform="translate(882.030248 469.32737) rotate(-90) scale(0.12 -0.12)">
       <use xlink:href="#CMR17-33" transform="scale(0.996264)"/>
       <use xlink:href="#CMR17-32" transform="translate(45.690477 0) scale(0.996264)"/>
      </g>
     </g>
    </g>
    <g id="xtick_26">
     <g id="line2d_26">
      <g>
       <use xlink:href="#mb9a072f4cf" x="910.520029" y="450.621389" style="stroke: #000000; stroke-width: 0.8"/>
      </g>
     </g>
     <g id="text_26">
      <!-- 33 -->
      <g transform="translate(913.508821 469.32737) rotate(-90) scale(0.12 -0.12)">
       <use xlink:href="#CMR17-33" transform="scale(0.996264)"/>
       <use xlink:href="#CMR17-33" transform="translate(45.690477 0) scale(0.996264)"/>
      </g>
     </g>
    </g>
    <g id="xtick_27">
     <g id="line2d_27">
      <g>
       <use xlink:href="#mb9a072f4cf" x="941.998603" y="450.621389" style="stroke: #000000; stroke-width: 0.8"/>
      </g>
     </g>
     <g id="text_27">
      <!-- 34 -->
      <g transform="translate(944.987395 469.32737) rotate(-90) scale(0.12 -0.12)">
       <use xlink:href="#CMR17-33" transform="scale(0.996264)"/>
       <use xlink:href="#CMR17-34" transform="translate(45.690477 0) scale(0.996264)"/>
      </g>
     </g>
    </g>
    <g id="text_28">
     <!-- Folder -->
     <g transform="translate(507.837168 487.164366) scale(0.2 -0.2)">
      <defs>
       <path id="CMR17-46" d="M 3482 4325 
L 326 4325 
L 326 4160 
C 768 4160 838 4160 838 3874 
L 838 446 
C 838 160 768 160 326 160 
L 326 0 
C 512 0 870 0 1069 0 
C 1331 0 1638 0 1901 0 
L 1901 160 
L 1760 160 
C 1274 160 1261 223 1261 452 
L 1261 2075 
L 1837 2075 
C 2432 2075 2490 1865 2490 1332 
L 2605 1332 
L 2605 2987 
L 2490 2987 
C 2490 2450 2432 2240 1837 2240 
L 1261 2240 
L 1261 3911 
C 1261 4128 1274 4160 1530 4160 
L 2355 4160 
C 3322 4160 3430 3765 3520 2916 
L 3635 2916 
L 3482 4325 
z
" transform="scale(0.015625)"/>
       <path id="CMR17-6f" d="M 2758 1356 
C 2758 2176 2163 2816 1466 2816 
C 768 2816 173 2176 173 1356 
C 173 551 768 -64 1466 -64 
C 2163 -64 2758 551 2758 1356 
z
M 1466 51 
C 1165 51 909 230 762 480 
C 602 767 582 1126 582 1408 
C 582 1677 595 2010 762 2298 
C 890 2509 1139 2714 1466 2714 
C 1754 2714 1997 2554 2150 2330 
C 2349 2029 2349 1607 2349 1408 
C 2349 1158 2336 775 2163 467 
C 1984 173 1709 51 1466 51 
z
" transform="scale(0.015625)"/>
       <path id="CMR17-6c" d="M 979 4396 
L 218 4326 
L 218 4160 
C 595 4160 653 4122 653 3817 
L 653 426 
C 653 184 627 153 218 153 
L 218 -13 
C 371 0 653 0 813 0 
C 979 0 1261 0 1414 -13 
L 1414 153 
C 1005 153 979 178 979 426 
L 979 4396 
z
" transform="scale(0.015625)"/>
       <path id="CMR17-64" d="M 1869 4326 
L 1869 4160 
C 2246 4160 2304 4122 2304 3820 
L 2304 2345 
C 2278 2377 2016 2790 1498 2790 
C 845 2790 211 2208 211 1364 
C 211 525 806 -64 1434 -64 
C 1978 -64 2259 337 2291 380 
L 2291 -63 
L 3066 -63 
L 3066 128 
C 2688 128 2630 166 2630 473 
L 2630 4396 
L 1869 4326 
z
M 2291 755 
C 2291 563 2176 390 2029 262 
C 1811 70 1594 38 1472 38 
C 1286 38 621 134 621 1356 
C 621 2612 1363 2688 1530 2688 
C 1824 2688 2061 2522 2208 2291 
C 2291 2157 2291 2138 2291 2023 
L 2291 755 
z
" transform="scale(0.015625)"/>
       <path id="CMR17-65" d="M 2438 1472 
C 2464 1498 2464 1511 2464 1576 
C 2464 2238 2118 2816 1389 2816 
C 710 2816 173 2169 173 1383 
C 173 551 781 -64 1459 -64 
C 2176 -64 2458 607 2458 740 
C 2458 784 2419 784 2406 784 
C 2362 784 2355 771 2330 696 
C 2189 265 1837 51 1504 51 
C 1229 51 954 203 781 480 
C 582 803 582 1176 582 1472 
L 2438 1472 
z
M 589 1568 
C 634 2505 1126 2714 1382 2714 
C 1818 2714 2112 2297 2118 1568 
L 589 1568 
z
" transform="scale(0.015625)"/>
       <path id="CMR17-72" d="M 960 1497 
C 960 2112 1222 2688 1702 2688 
C 1747 2688 1792 2682 1837 2662 
C 1837 2662 1696 2617 1696 2452 
C 1696 2298 1818 2234 1914 2234 
C 1990 2234 2131 2279 2131 2458 
C 2131 2663 1926 2790 1709 2790 
C 1222 2790 1011 2317 947 2093 
L 941 2093 
L 941 2790 
L 198 2720 
L 198 2554 
C 576 2554 634 2515 634 2208 
L 634 428 
C 634 184 608 153 198 153 
L 198 -13 
C 352 0 646 0 813 0 
C 998 0 1325 0 1498 -13 
L 1498 153 
C 1037 153 960 153 960 440 
L 960 1497 
z
" transform="scale(0.015625)"/>
      </defs>
      <use xlink:href="#CMR17-46" transform="scale(0.996264)"/>
      <use xlink:href="#CMR17-6f" transform="translate(52.176591 0) scale(0.996264)"/>
      <use xlink:href="#CMR17-6c" transform="translate(97.867068 0) scale(0.996264)"/>
      <use xlink:href="#CMR17-64" transform="translate(122.738127 0) scale(0.996264)"/>
      <use xlink:href="#CMR17-65" transform="translate(173.633497 0) scale(0.996264)"/>
      <use xlink:href="#CMR17-72" transform="translate(214.119157 0) scale(0.996264)"/>
     </g>
    </g>
   </g>
   <g id="matplotlib.axis_2">
    <g id="ytick_1">
     <g id="line2d_28">
      <defs>
       <path id="m3b448e362f" d="M 0 0 
L -3.5 0 
" style="stroke: #000000; stroke-width: 0.8"/>
      </defs>
      <g>
       <use xlink:href="#m3b448e362f" x="70.514288" y="450.621389" style="stroke: #000000; stroke-width: 0.8"/>
      </g>
     </g>
     <g id="text_29">
      <!-- $\mathdefault{0.000}$ -->
      <g transform="translate(36.850666 454.772479) scale(0.12 -0.12)">
       <defs>
        <path id="CMMI12-3a" d="M 1178 307 
C 1178 492 1024 619 870 619 
C 685 619 557 466 557 313 
C 557 128 710 0 864 0 
C 1050 0 1178 153 1178 307 
z
" transform="scale(0.015625)"/>
       </defs>
       <use xlink:href="#CMR17-30" transform="scale(0.996264)"/>
       <use xlink:href="#CMMI12-3a" transform="translate(45.690477 0) scale(0.996264)"/>
       <use xlink:href="#CMR17-30" transform="translate(72.787654 0) scale(0.996264)"/>
       <use xlink:href="#CMR17-30" transform="translate(118.478131 0) scale(0.996264)"/>
       <use xlink:href="#CMR17-30" transform="translate(164.168608 0) scale(0.996264)"/>
      </g>
     </g>
    </g>
    <g id="ytick_2">
     <g id="line2d_29">
      <g>
       <use xlink:href="#m3b448e362f" x="70.514288" y="370.939587" style="stroke: #000000; stroke-width: 0.8"/>
      </g>
     </g>
     <g id="text_30">
      <!-- $\mathdefault{0.005}$ -->
      <g transform="translate(36.850666 375.090677) scale(0.12 -0.12)">
       <use xlink:href="#CMR17-30" transform="scale(0.996264)"/>
       <use xlink:href="#CMMI12-3a" transform="translate(45.690477 0) scale(0.996264)"/>
       <use xlink:href="#CMR17-30" transform="translate(72.787654 0) scale(0.996264)"/>
       <use xlink:href="#CMR17-30" transform="translate(118.478131 0) scale(0.996264)"/>
       <use xlink:href="#CMR17-35" transform="translate(164.168608 0) scale(0.996264)"/>
      </g>
     </g>
    </g>
    <g id="ytick_3">
     <g id="line2d_30">
      <g>
       <use xlink:href="#m3b448e362f" x="70.514288" y="291.257785" style="stroke: #000000; stroke-width: 0.8"/>
      </g>
     </g>
     <g id="text_31">
      <!-- $\mathdefault{0.010}$ -->
      <g transform="translate(36.850666 295.408875) scale(0.12 -0.12)">
       <use xlink:href="#CMR17-30" transform="scale(0.996264)"/>
       <use xlink:href="#CMMI12-3a" transform="translate(45.690477 0) scale(0.996264)"/>
       <use xlink:href="#CMR17-30" transform="translate(72.787654 0) scale(0.996264)"/>
       <use xlink:href="#CMR17-31" transform="translate(118.478131 0) scale(0.996264)"/>
       <use xlink:href="#CMR17-30" transform="translate(164.168608 0) scale(0.996264)"/>
      </g>
     </g>
    </g>
    <g id="ytick_4">
     <g id="line2d_31">
      <g>
       <use xlink:href="#m3b448e362f" x="70.514288" y="211.575982" style="stroke: #000000; stroke-width: 0.8"/>
      </g>
     </g>
     <g id="text_32">
      <!-- $\mathdefault{0.015}$ -->
      <g transform="translate(36.850666 215.727072) scale(0.12 -0.12)">
       <use xlink:href="#CMR17-30" transform="scale(0.996264)"/>
       <use xlink:href="#CMMI12-3a" transform="translate(45.690477 0) scale(0.996264)"/>
       <use xlink:href="#CMR17-30" transform="translate(72.787654 0) scale(0.996264)"/>
       <use xlink:href="#CMR17-31" transform="translate(118.478131 0) scale(0.996264)"/>
       <use xlink:href="#CMR17-35" transform="translate(164.168608 0) scale(0.996264)"/>
      </g>
     </g>
    </g>
    <g id="ytick_5">
     <g id="line2d_32">
      <g>
       <use xlink:href="#m3b448e362f" x="70.514288" y="131.89418" style="stroke: #000000; stroke-width: 0.8"/>
      </g>
     </g>
     <g id="text_33">
      <!-- $\mathdefault{0.020}$ -->
      <g transform="translate(36.850666 136.04527) scale(0.12 -0.12)">
       <use xlink:href="#CMR17-30" transform="scale(0.996264)"/>
       <use xlink:href="#CMMI12-3a" transform="translate(45.690477 0) scale(0.996264)"/>
       <use xlink:href="#CMR17-30" transform="translate(72.787654 0) scale(0.996264)"/>
       <use xlink:href="#CMR17-32" transform="translate(118.478131 0) scale(0.996264)"/>
       <use xlink:href="#CMR17-30" transform="translate(164.168608 0) scale(0.996264)"/>
      </g>
     </g>
    </g>
    <g id="ytick_6">
     <g id="line2d_33">
      <g>
       <use xlink:href="#m3b448e362f" x="70.514288" y="52.212378" style="stroke: #000000; stroke-width: 0.8"/>
      </g>
     </g>
     <g id="text_34">
      <!-- $\mathdefault{0.025}$ -->
      <g transform="translate(36.850666 56.363468) scale(0.12 -0.12)">
       <use xlink:href="#CMR17-30" transform="scale(0.996264)"/>
       <use xlink:href="#CMMI12-3a" transform="translate(45.690477 0) scale(0.996264)"/>
       <use xlink:href="#CMR17-30" transform="translate(72.787654 0) scale(0.996264)"/>
       <use xlink:href="#CMR17-32" transform="translate(118.478131 0) scale(0.996264)"/>
       <use xlink:href="#CMR17-35" transform="translate(164.168608 0) scale(0.996264)"/>
      </g>
     </g>
    </g>
    <g id="text_35">
     <!-- Mean Squared Error (MSE) -->
     <g transform="translate(27.886022 356.446731) rotate(-90) scale(0.2 -0.2)">
      <defs>
       <path id="CMR17-4d" d="M 1338 4224 
C 1299 4320 1293 4320 1158 4320 
L 339 4320 
L 339 4160 
C 781 4160 851 4160 851 3875 
L 851 610 
C 851 451 851 153 339 153 
L 339 -13 
C 486 0 755 0 915 0 
C 1075 0 1344 0 1491 -13 
L 1491 153 
C 979 153 979 451 979 610 
L 979 4135 
L 986 4135 
L 2490 89 
C 2515 25 2528 -13 2579 -13 
C 2630 -13 2643 25 2669 89 
L 4186 4166 
L 4192 4166 
L 4192 438 
C 4192 153 4122 153 3680 153 
L 3680 -13 
C 3853 0 4198 0 4384 0 
C 4570 0 4922 0 5094 -13 
L 5094 153 
C 4653 153 4582 153 4582 438 
L 4582 3875 
C 4582 4160 4653 4160 5094 4160 
L 5094 4320 
L 4282 4320 
C 4147 4320 4141 4314 4102 4218 
L 2720 502 
L 1338 4224 
z
" transform="scale(0.015625)"/>
       <path id="CMR17-61" d="M 2304 1653 
C 2304 2072 2304 2294 2035 2543 
C 1798 2752 1523 2816 1306 2816 
C 800 2816 435 2407 435 1971 
C 435 1728 627 1728 666 1728 
C 749 1728 896 1778 896 1954 
C 896 2112 774 2181 666 2181 
C 640 2181 608 2174 589 2168 
C 723 2592 1069 2714 1293 2714 
C 1613 2714 1965 2429 1965 1885 
L 1965 1600 
C 1587 1600 1133 1549 774 1357 
C 371 1133 256 813 256 570 
C 256 77 832 -64 1171 -64 
C 1523 -64 1850 139 1990 511 
C 2003 233 2182 -18 2464 -18 
C 2598 -18 2938 70 2938 567 
L 2938 920 
L 2822 920 
L 2822 562 
C 2822 178 2650 128 2566 128 
C 2304 128 2304 458 2304 738 
L 2304 1653 
z
M 1965 870 
C 1965 317 1568 38 1216 38 
C 896 38 646 275 646 570 
C 646 761 730 1100 1101 1305 
C 1408 1478 1760 1504 1965 1504 
L 1965 870 
z
" transform="scale(0.015625)"/>
       <path id="CMR17-6e" d="M 2656 1933 
C 2656 2259 2592 2790 1837 2790 
C 1331 2790 1069 2400 973 2144 
L 966 2144 
L 966 2790 
L 211 2720 
L 211 2554 
C 589 2554 646 2515 646 2208 
L 646 428 
C 646 184 621 153 211 153 
L 211 -13 
C 365 0 646 0 813 0 
C 979 0 1267 0 1421 -13 
L 1421 153 
C 1011 153 986 178 986 428 
L 986 1658 
C 986 2247 1344 2688 1792 2688 
C 2266 2688 2317 2266 2317 1958 
L 2317 428 
C 2317 184 2291 153 1882 153 
L 1882 -13 
C 2035 0 2317 0 2483 0 
C 2650 0 2938 0 3091 -13 
L 3091 153 
C 2682 153 2656 178 2656 428 
L 2656 1933 
z
" transform="scale(0.015625)"/>
       <path id="CMR17-53" d="M 2803 4290 
C 2803 4404 2797 4411 2758 4411 
C 2720 4411 2707 4385 2682 4328 
L 2490 3907 
C 2246 4257 1875 4416 1472 4416 
C 819 4416 294 3901 294 3253 
C 294 3056 339 2776 557 2510 
C 794 2218 1018 2167 1530 2033 
C 1722 1982 2042 1899 2106 1874 
C 2470 1722 2662 1341 2662 985 
C 2662 527 2336 38 1779 38 
C 1094 38 454 419 410 1311 
C 403 1413 397 1419 352 1419 
C 301 1419 294 1413 294 1285 
L 294 -1 
C 294 -115 301 -122 339 -122 
C 384 -122 397 -90 486 108 
C 493 127 493 140 614 381 
C 934 -39 1472 -128 1779 -128 
C 2477 -128 2970 451 2970 1124 
C 2970 1454 2848 1708 2778 1823 
C 2509 2230 2221 2306 1914 2382 
C 1869 2402 1856 2402 1498 2490 
C 1152 2579 1005 2624 845 2796 
C 666 2992 602 3196 602 3399 
C 602 3812 934 4263 1478 4263 
C 2157 4263 2579 3786 2675 2993 
C 2694 2878 2701 2872 2746 2872 
C 2803 2872 2803 2891 2803 2999 
L 2803 4290 
z
" transform="scale(0.015625)"/>
       <path id="CMR17-71" d="M 2630 2802 
L 2528 2802 
L 2336 2172 
C 2189 2509 1920 2802 1491 2802 
C 838 2802 211 2223 211 1383 
C 211 548 800 -38 1440 -38 
C 1933 -38 2208 338 2291 478 
L 2291 -789 
C 2291 -1031 2266 -1063 1856 -1063 
L 1856 -1228 
C 2010 -1216 2291 -1216 2458 -1216 
C 2624 -1216 2912 -1216 3066 -1228 
L 3066 -1063 
C 2656 -1063 2630 -1037 2630 -789 
L 2630 2802 
z
M 2304 886 
C 2304 612 2074 357 2054 338 
C 1856 115 1626 64 1472 64 
C 992 64 621 669 621 1375 
C 621 2121 1043 2688 1536 2688 
C 2048 2688 2304 2108 2304 1777 
L 2304 886 
z
" transform="scale(0.015625)"/>
       <path id="CMR17-75" d="M 1882 2693 
L 1882 2528 
C 2259 2528 2317 2489 2317 2186 
L 2317 1032 
C 2317 500 2029 38 1555 38 
C 1030 38 986 348 986 678 
L 986 2763 
L 211 2693 
L 211 2528 
C 467 2528 640 2528 646 2274 
L 646 1058 
C 646 633 646 361 813 183 
C 896 101 1056 -64 1517 -64 
C 2061 -64 2272 377 2323 506 
L 2330 506 
L 2330 -63 
L 3091 -63 
L 3091 128 
C 2714 128 2656 166 2656 473 
L 2656 2763 
L 1882 2693 
z
" transform="scale(0.015625)"/>
       <path id="CMR17-45" d="M 3885 1615 
L 3770 1615 
C 3629 676 3546 166 2419 166 
L 1530 166 
C 1274 166 1261 197 1261 414 
L 1261 2176 
L 1862 2176 
C 2464 2176 2522 1960 2522 1430 
L 2637 1430 
L 2637 3081 
L 2522 3081 
C 2522 2557 2464 2342 1862 2342 
L 1261 2342 
L 1261 3913 
C 1261 4128 1274 4160 1530 4160 
L 2406 4160 
C 3398 4160 3514 3769 3603 2929 
L 3718 2929 
L 3565 4325 
L 326 4325 
L 326 4160 
C 768 4160 838 4160 838 3874 
L 838 451 
C 838 166 768 166 326 166 
L 326 0 
L 3654 0 
L 3885 1615 
z
" transform="scale(0.015625)"/>
       <path id="CMR17-28" d="M 1958 -1561 
C 1958 -1555 1958 -1542 1939 -1523 
C 1645 -1224 858 -407 858 1581 
C 858 3569 1632 4379 1946 4697 
C 1946 4704 1958 4717 1958 4736 
C 1958 4755 1939 4768 1914 4768 
C 1843 4768 1299 4296 986 3594 
C 666 2887 576 2199 576 1588 
C 576 1128 621 351 1005 -471 
C 1312 -1135 1837 -1600 1914 -1600 
C 1946 -1600 1958 -1587 1958 -1561 
z
" transform="scale(0.015625)"/>
       <path id="CMR17-29" d="M 1683 1581 
C 1683 2040 1638 2817 1254 3639 
C 947 4303 422 4768 346 4768 
C 326 4768 301 4761 301 4729 
C 301 4717 307 4710 314 4697 
C 621 4378 1402 3568 1402 1584 
C 1402 -407 627 -1217 314 -1537 
C 307 -1549 301 -1556 301 -1568 
C 301 -1600 326 -1600 346 -1600 
C 416 -1600 960 -1128 1274 -426 
C 1594 281 1683 969 1683 1581 
z
" transform="scale(0.015625)"/>
      </defs>
      <use xlink:href="#CMR17-4d" transform="scale(0.996264)"/>
      <use xlink:href="#CMR17-65" transform="translate(84.686941 0) scale(0.996264)"/>
      <use xlink:href="#CMR17-61" transform="translate(125.172601 0) scale(0.996264)"/>
      <use xlink:href="#CMR17-6e" transform="translate(170.863078 0) scale(0.996264)"/>
      <use xlink:href="#CMR17-53" transform="translate(251.834414 0) scale(0.996264)"/>
      <use xlink:href="#CMR17-71" transform="translate(302.729784 0) scale(0.996264)"/>
      <use xlink:href="#CMR17-75" transform="translate(351.0227 0) scale(0.996264)"/>
      <use xlink:href="#CMR17-61" transform="translate(401.91807 0) scale(0.996264)"/>
      <use xlink:href="#CMR17-72" transform="translate(447.608547 0) scale(0.996264)"/>
      <use xlink:href="#CMR17-65" transform="translate(482.889315 0) scale(0.996264)"/>
      <use xlink:href="#CMR17-64" transform="translate(523.374975 0) scale(0.996264)"/>
      <use xlink:href="#CMR17-45" transform="translate(604.346311 0) scale(0.996264)"/>
      <use xlink:href="#CMR17-72" transform="translate(666.932612 0) scale(0.996264)"/>
      <use xlink:href="#CMR17-72" transform="translate(702.21338 0) scale(0.996264)"/>
      <use xlink:href="#CMR17-6f" transform="translate(737.494147 0) scale(0.996264)"/>
      <use xlink:href="#CMR17-72" transform="translate(783.184624 0) scale(0.996264)"/>
      <use xlink:href="#CMR17-28" transform="translate(848.541359 0) scale(0.996264)"/>
      <use xlink:href="#CMR17-4d" transform="translate(883.822126 0) scale(0.996264)"/>
      <use xlink:href="#CMR17-53" transform="translate(968.509067 0) scale(0.996264)"/>
      <use xlink:href="#CMR17-45" transform="translate(1019.404437 0) scale(0.996264)"/>
      <use xlink:href="#CMR17-29" transform="translate(1081.990737 0) scale(0.996264)"/>
     </g>
    </g>
   </g>
   <g id="LineCollection_1">
    <path d="M 118.046934 425.92003 
L 118.046934 382.413766 
" clip-path="url(#pcb3c8c9ea2)" style="fill: none; stroke: #000000; stroke-width: 2"/>
    <path d="M 149.525508 378.907767 
L 149.525508 333.329776 
" clip-path="url(#pcb3c8c9ea2)" style="fill: none; stroke: #000000; stroke-width: 2"/>
    <path d="M 181.004082 358.031135 
L 181.004082 341.138593 
" clip-path="url(#pcb3c8c9ea2)" style="fill: none; stroke: #000000; stroke-width: 2"/>
    <path d="M 212.482656 388.469583 
L 212.482656 319.305779 
" clip-path="url(#pcb3c8c9ea2)" style="fill: none; stroke: #000000; stroke-width: 2"/>
    <path d="M 243.96123 309.265872 
L 243.96123 223.368889 
" clip-path="url(#pcb3c8c9ea2)" style="fill: none; stroke: #000000; stroke-width: 2"/>
    <path d="M 275.439803 273.727788 
L 275.439803 202.014166 
" clip-path="url(#pcb3c8c9ea2)" style="fill: none; stroke: #000000; stroke-width: 2"/>
    <path d="M 306.918377 264.803426 
L 306.918377 214.1258 
" clip-path="url(#pcb3c8c9ea2)" style="fill: none; stroke: #000000; stroke-width: 2"/>
    <path d="M 338.396951 286.954967 
L 338.396951 231.81516 
" clip-path="url(#pcb3c8c9ea2)" style="fill: none; stroke: #000000; stroke-width: 2"/>
    <path d="M 369.875525 349.4255 
L 369.875525 286.476877 
" clip-path="url(#pcb3c8c9ea2)" style="fill: none; stroke: #000000; stroke-width: 2"/>
    <path d="M 401.354098 264.484699 
L 401.354098 140.977906 
" clip-path="url(#pcb3c8c9ea2)" style="fill: none; stroke: #000000; stroke-width: 2"/>
    <path d="M 432.832672 431.975847 
L 432.832672 409.027488 
" clip-path="url(#pcb3c8c9ea2)" style="fill: none; stroke: #000000; stroke-width: 2"/>
    <path d="M 464.311246 442.015754 
L 464.311246 431.179029 
" clip-path="url(#pcb3c8c9ea2)" style="fill: none; stroke: #000000; stroke-width: 2"/>
    <path d="M 495.78982 401.059308 
L 495.78982 341.45732 
" clip-path="url(#pcb3c8c9ea2)" style="fill: none; stroke: #000000; stroke-width: 2"/>
    <path d="M 527.268394 384.80422 
L 527.268394 354.525136 
" clip-path="url(#pcb3c8c9ea2)" style="fill: none; stroke: #000000; stroke-width: 2"/>
    <path d="M 558.746967 364.565043 
L 558.746967 302.413237 
" clip-path="url(#pcb3c8c9ea2)" style="fill: none; stroke: #000000; stroke-width: 2"/>
    <path d="M 590.225541 310.381417 
L 590.225541 262.731699 
" clip-path="url(#pcb3c8c9ea2)" style="fill: none; stroke: #000000; stroke-width: 2"/>
    <path d="M 621.704115 398.828218 
L 621.704115 321.218142 
" clip-path="url(#pcb3c8c9ea2)" style="fill: none; stroke: #000000; stroke-width: 2"/>
    <path d="M 653.182689 370.780223 
L 653.182689 276.755697 
" clip-path="url(#pcb3c8c9ea2)" style="fill: none; stroke: #000000; stroke-width: 2"/>
    <path d="M 684.661263 341.138593 
L 684.661263 308.787781 
" clip-path="url(#pcb3c8c9ea2)" style="fill: none; stroke: #000000; stroke-width: 2"/>
    <path d="M 716.139836 348.469319 
L 716.139836 278.349333 
" clip-path="url(#pcb3c8c9ea2)" style="fill: none; stroke: #000000; stroke-width: 2"/>
    <path d="M 747.61841 323.927324 
L 747.61841 255.082246 
" clip-path="url(#pcb3c8c9ea2)" style="fill: none; stroke: #000000; stroke-width: 2"/>
    <path d="M 779.096984 391.178765 
L 779.096984 359.943498 
" clip-path="url(#pcb3c8c9ea2)" style="fill: none; stroke: #000000; stroke-width: 2"/>
    <path d="M 810.575558 377.154767 
L 810.575558 270.540516 
" clip-path="url(#pcb3c8c9ea2)" style="fill: none; stroke: #000000; stroke-width: 2"/>
    <path d="M 842.054131 399.306308 
L 842.054131 357.871771 
" clip-path="url(#pcb3c8c9ea2)" style="fill: none; stroke: #000000; stroke-width: 2"/>
    <path d="M 873.532705 415.242669 
L 873.532705 388.788311 
" clip-path="url(#pcb3c8c9ea2)" style="fill: none; stroke: #000000; stroke-width: 2"/>
    <path d="M 905.011279 427.832394 
L 905.011279 363.449497 
" clip-path="url(#pcb3c8c9ea2)" style="fill: none; stroke: #000000; stroke-width: 2"/>
    <path d="M 936.489853 394.844128 
L 936.489853 364.88377 
" clip-path="url(#pcb3c8c9ea2)" style="fill: none; stroke: #000000; stroke-width: 2"/>
   </g>
   <g id="line2d_34">
    <defs>
     <path id="m337d967d92" d="M 5 0 
L -5 -0 
" style="stroke: #000000"/>
    </defs>
    <g clip-path="url(#pcb3c8c9ea2)">
     <use xlink:href="#m337d967d92" x="118.046934" y="425.92003" style="stroke: #000000"/>
     <use xlink:href="#m337d967d92" x="149.525508" y="378.907767" style="stroke: #000000"/>
     <use xlink:href="#m337d967d92" x="181.004082" y="358.031135" style="stroke: #000000"/>
     <use xlink:href="#m337d967d92" x="212.482656" y="388.469583" style="stroke: #000000"/>
     <use xlink:href="#m337d967d92" x="243.96123" y="309.265872" style="stroke: #000000"/>
     <use xlink:href="#m337d967d92" x="275.439803" y="273.727788" style="stroke: #000000"/>
     <use xlink:href="#m337d967d92" x="306.918377" y="264.803426" style="stroke: #000000"/>
     <use xlink:href="#m337d967d92" x="338.396951" y="286.954967" style="stroke: #000000"/>
     <use xlink:href="#m337d967d92" x="369.875525" y="349.4255" style="stroke: #000000"/>
     <use xlink:href="#m337d967d92" x="401.354098" y="264.484699" style="stroke: #000000"/>
     <use xlink:href="#m337d967d92" x="432.832672" y="431.975847" style="stroke: #000000"/>
     <use xlink:href="#m337d967d92" x="464.311246" y="442.015754" style="stroke: #000000"/>
     <use xlink:href="#m337d967d92" x="495.78982" y="401.059308" style="stroke: #000000"/>
     <use xlink:href="#m337d967d92" x="527.268394" y="384.80422" style="stroke: #000000"/>
     <use xlink:href="#m337d967d92" x="558.746967" y="364.565043" style="stroke: #000000"/>
     <use xlink:href="#m337d967d92" x="590.225541" y="310.381417" style="stroke: #000000"/>
     <use xlink:href="#m337d967d92" x="621.704115" y="398.828218" style="stroke: #000000"/>
     <use xlink:href="#m337d967d92" x="653.182689" y="370.780223" style="stroke: #000000"/>
     <use xlink:href="#m337d967d92" x="684.661263" y="341.138593" style="stroke: #000000"/>
     <use xlink:href="#m337d967d92" x="716.139836" y="348.469319" style="stroke: #000000"/>
     <use xlink:href="#m337d967d92" x="747.61841" y="323.927324" style="stroke: #000000"/>
     <use xlink:href="#m337d967d92" x="779.096984" y="391.178765" style="stroke: #000000"/>
     <use xlink:href="#m337d967d92" x="810.575558" y="377.154767" style="stroke: #000000"/>
     <use xlink:href="#m337d967d92" x="842.054131" y="399.306308" style="stroke: #000000"/>
     <use xlink:href="#m337d967d92" x="873.532705" y="415.242669" style="stroke: #000000"/>
     <use xlink:href="#m337d967d92" x="905.011279" y="427.832394" style="stroke: #000000"/>
     <use xlink:href="#m337d967d92" x="936.489853" y="394.844128" style="stroke: #000000"/>
    </g>
   </g>
   <g id="line2d_35">
    <g clip-path="url(#pcb3c8c9ea2)">
     <use xlink:href="#m337d967d92" x="118.046934" y="382.413766" style="stroke: #000000"/>
     <use xlink:href="#m337d967d92" x="149.525508" y="333.329776" style="stroke: #000000"/>
     <use xlink:href="#m337d967d92" x="181.004082" y="341.138593" style="stroke: #000000"/>
     <use xlink:href="#m337d967d92" x="212.482656" y="319.305779" style="stroke: #000000"/>
     <use xlink:href="#m337d967d92" x="243.96123" y="223.368889" style="stroke: #000000"/>
     <use xlink:href="#m337d967d92" x="275.439803" y="202.014166" style="stroke: #000000"/>
     <use xlink:href="#m337d967d92" x="306.918377" y="214.1258" style="stroke: #000000"/>
     <use xlink:href="#m337d967d92" x="338.396951" y="231.81516" style="stroke: #000000"/>
     <use xlink:href="#m337d967d92" x="369.875525" y="286.476877" style="stroke: #000000"/>
     <use xlink:href="#m337d967d92" x="401.354098" y="140.977906" style="stroke: #000000"/>
     <use xlink:href="#m337d967d92" x="432.832672" y="409.027488" style="stroke: #000000"/>
     <use xlink:href="#m337d967d92" x="464.311246" y="431.179029" style="stroke: #000000"/>
     <use xlink:href="#m337d967d92" x="495.78982" y="341.45732" style="stroke: #000000"/>
     <use xlink:href="#m337d967d92" x="527.268394" y="354.525136" style="stroke: #000000"/>
     <use xlink:href="#m337d967d92" x="558.746967" y="302.413237" style="stroke: #000000"/>
     <use xlink:href="#m337d967d92" x="590.225541" y="262.731699" style="stroke: #000000"/>
     <use xlink:href="#m337d967d92" x="621.704115" y="321.218142" style="stroke: #000000"/>
     <use xlink:href="#m337d967d92" x="653.182689" y="276.755697" style="stroke: #000000"/>
     <use xlink:href="#m337d967d92" x="684.661263" y="308.787781" style="stroke: #000000"/>
     <use xlink:href="#m337d967d92" x="716.139836" y="278.349333" style="stroke: #000000"/>
     <use xlink:href="#m337d967d92" x="747.61841" y="255.082246" style="stroke: #000000"/>
     <use xlink:href="#m337d967d92" x="779.096984" y="359.943498" style="stroke: #000000"/>
     <use xlink:href="#m337d967d92" x="810.575558" y="270.540516" style="stroke: #000000"/>
     <use xlink:href="#m337d967d92" x="842.054131" y="357.871771" style="stroke: #000000"/>
     <use xlink:href="#m337d967d92" x="873.532705" y="388.788311" style="stroke: #000000"/>
     <use xlink:href="#m337d967d92" x="905.011279" y="363.449497" style="stroke: #000000"/>
     <use xlink:href="#m337d967d92" x="936.489853" y="364.88377" style="stroke: #000000"/>
    </g>
   </g>
   <g id="LineCollection_2">
    <path d="M 129.064435 431.497757 
L 129.064435 412.533488 
" clip-path="url(#pcb3c8c9ea2)" style="fill: none; stroke: #000000; stroke-width: 2"/>
    <path d="M 160.543009 395.003491 
L 160.543009 311.496962 
" clip-path="url(#pcb3c8c9ea2)" style="fill: none; stroke: #000000; stroke-width: 2"/>
    <path d="M 192.021583 373.648768 
L 192.021583 332.373595 
" clip-path="url(#pcb3c8c9ea2)" style="fill: none; stroke: #000000; stroke-width: 2"/>
    <path d="M 223.500157 413.170942 
L 223.500157 349.266137 
" clip-path="url(#pcb3c8c9ea2)" style="fill: none; stroke: #000000; stroke-width: 2"/>
    <path d="M 254.97873 346.716319 
L 254.97873 257.950791 
" clip-path="url(#pcb3c8c9ea2)" style="fill: none; stroke: #000000; stroke-width: 2"/>
    <path d="M 286.457304 286.476877 
L 286.457304 58.427559 
" clip-path="url(#pcb3c8c9ea2)" style="fill: none; stroke: #000000; stroke-width: 2"/>
    <path d="M 317.935878 281.536605 
L 317.935878 192.292986 
" clip-path="url(#pcb3c8c9ea2)" style="fill: none; stroke: #000000; stroke-width: 2"/>
    <path d="M 349.414452 331.895504 
L 349.414452 234.046251 
" clip-path="url(#pcb3c8c9ea2)" style="fill: none; stroke: #000000; stroke-width: 2"/>
    <path d="M 380.893025 364.88377 
L 380.893025 324.086687 
" clip-path="url(#pcb3c8c9ea2)" style="fill: none; stroke: #000000; stroke-width: 2"/>
    <path d="M 412.371599 324.724142 
L 412.371599 229.265343 
" clip-path="url(#pcb3c8c9ea2)" style="fill: none; stroke: #000000; stroke-width: 2"/>
    <path d="M 443.850173 440.900209 
L 443.850173 414.764578 
" clip-path="url(#pcb3c8c9ea2)" style="fill: none; stroke: #000000; stroke-width: 2"/>
    <path d="M 475.328747 435.003756 
L 475.328747 425.123212 
" clip-path="url(#pcb3c8c9ea2)" style="fill: none; stroke: #000000; stroke-width: 2"/>
    <path d="M 506.807321 407.911943 
L 506.807321 358.349862 
" clip-path="url(#pcb3c8c9ea2)" style="fill: none; stroke: #000000; stroke-width: 2"/>
    <path d="M 538.285894 412.374124 
L 538.285894 322.493051 
" clip-path="url(#pcb3c8c9ea2)" style="fill: none; stroke: #000000; stroke-width: 2"/>
    <path d="M 569.764468 356.596862 
L 569.764468 318.349597 
" clip-path="url(#pcb3c8c9ea2)" style="fill: none; stroke: #000000; stroke-width: 2"/>
    <path d="M 601.243042 336.676412 
L 601.243042 266.397062 
" clip-path="url(#pcb3c8c9ea2)" style="fill: none; stroke: #000000; stroke-width: 2"/>
    <path d="M 632.721616 402.812308 
L 632.721616 279.146151 
" clip-path="url(#pcb3c8c9ea2)" style="fill: none; stroke: #000000; stroke-width: 2"/>
    <path d="M 664.20019 371.577041 
L 664.20019 328.070777 
" clip-path="url(#pcb3c8c9ea2)" style="fill: none; stroke: #000000; stroke-width: 2"/>
    <path d="M 695.678763 386.079129 
L 695.678763 351.497227 
" clip-path="url(#pcb3c8c9ea2)" style="fill: none; stroke: #000000; stroke-width: 2"/>
    <path d="M 727.157337 382.732494 
L 727.157337 299.544692 
" clip-path="url(#pcb3c8c9ea2)" style="fill: none; stroke: #000000; stroke-width: 2"/>
    <path d="M 758.635911 366.318042 
L 758.635911 311.337599 
" clip-path="url(#pcb3c8c9ea2)" style="fill: none; stroke: #000000; stroke-width: 2"/>
    <path d="M 790.114485 381.138858 
L 790.114485 359.465407 
" clip-path="url(#pcb3c8c9ea2)" style="fill: none; stroke: #000000; stroke-width: 2"/>
    <path d="M 821.593058 351.656591 
L 821.593058 321.696233 
" clip-path="url(#pcb3c8c9ea2)" style="fill: none; stroke: #000000; stroke-width: 2"/>
    <path d="M 853.071632 417.792487 
L 853.071632 356.91559 
" clip-path="url(#pcb3c8c9ea2)" style="fill: none; stroke: #000000; stroke-width: 2"/>
    <path d="M 884.550206 413.170942 
L 884.550206 375.242404 
" clip-path="url(#pcb3c8c9ea2)" style="fill: none; stroke: #000000; stroke-width: 2"/>
    <path d="M 916.02878 401.537399 
L 916.02878 370.780223 
" clip-path="url(#pcb3c8c9ea2)" style="fill: none; stroke: #000000; stroke-width: 2"/>
    <path d="M 947.507354 417.473759 
L 947.507354 353.568954 
" clip-path="url(#pcb3c8c9ea2)" style="fill: none; stroke: #000000; stroke-width: 2"/>
   </g>
   <g id="line2d_36">
    <g clip-path="url(#pcb3c8c9ea2)">
     <use xlink:href="#m337d967d92" x="129.064435" y="431.497757" style="stroke: #000000"/>
     <use xlink:href="#m337d967d92" x="160.543009" y="395.003491" style="stroke: #000000"/>
     <use xlink:href="#m337d967d92" x="192.021583" y="373.648768" style="stroke: #000000"/>
     <use xlink:href="#m337d967d92" x="223.500157" y="413.170942" style="stroke: #000000"/>
     <use xlink:href="#m337d967d92" x="254.97873" y="346.716319" style="stroke: #000000"/>
     <use xlink:href="#m337d967d92" x="286.457304" y="286.476877" style="stroke: #000000"/>
     <use xlink:href="#m337d967d92" x="317.935878" y="281.536605" style="stroke: #000000"/>
     <use xlink:href="#m337d967d92" x="349.414452" y="331.895504" style="stroke: #000000"/>
     <use xlink:href="#m337d967d92" x="380.893025" y="364.88377" style="stroke: #000000"/>
     <use xlink:href="#m337d967d92" x="412.371599" y="324.724142" style="stroke: #000000"/>
     <use xlink:href="#m337d967d92" x="443.850173" y="440.900209" style="stroke: #000000"/>
     <use xlink:href="#m337d967d92" x="475.328747" y="435.003756" style="stroke: #000000"/>
     <use xlink:href="#m337d967d92" x="506.807321" y="407.911943" style="stroke: #000000"/>
     <use xlink:href="#m337d967d92" x="538.285894" y="412.374124" style="stroke: #000000"/>
     <use xlink:href="#m337d967d92" x="569.764468" y="356.596862" style="stroke: #000000"/>
     <use xlink:href="#m337d967d92" x="601.243042" y="336.676412" style="stroke: #000000"/>
     <use xlink:href="#m337d967d92" x="632.721616" y="402.812308" style="stroke: #000000"/>
     <use xlink:href="#m337d967d92" x="664.20019" y="371.577041" style="stroke: #000000"/>
     <use xlink:href="#m337d967d92" x="695.678763" y="386.079129" style="stroke: #000000"/>
     <use xlink:href="#m337d967d92" x="727.157337" y="382.732494" style="stroke: #000000"/>
     <use xlink:href="#m337d967d92" x="758.635911" y="366.318042" style="stroke: #000000"/>
     <use xlink:href="#m337d967d92" x="790.114485" y="381.138858" style="stroke: #000000"/>
     <use xlink:href="#m337d967d92" x="821.593058" y="351.656591" style="stroke: #000000"/>
     <use xlink:href="#m337d967d92" x="853.071632" y="417.792487" style="stroke: #000000"/>
     <use xlink:href="#m337d967d92" x="884.550206" y="413.170942" style="stroke: #000000"/>
     <use xlink:href="#m337d967d92" x="916.02878" y="401.537399" style="stroke: #000000"/>
     <use xlink:href="#m337d967d92" x="947.507354" y="417.473759" style="stroke: #000000"/>
    </g>
   </g>
   <g id="line2d_37">
    <g clip-path="url(#pcb3c8c9ea2)">
     <use xlink:href="#m337d967d92" x="129.064435" y="412.533488" style="stroke: #000000"/>
     <use xlink:href="#m337d967d92" x="160.543009" y="311.496962" style="stroke: #000000"/>
     <use xlink:href="#m337d967d92" x="192.021583" y="332.373595" style="stroke: #000000"/>
     <use xlink:href="#m337d967d92" x="223.500157" y="349.266137" style="stroke: #000000"/>
     <use xlink:href="#m337d967d92" x="254.97873" y="257.950791" style="stroke: #000000"/>
     <use xlink:href="#m337d967d92" x="286.457304" y="58.427559" style="stroke: #000000"/>
     <use xlink:href="#m337d967d92" x="317.935878" y="192.292986" style="stroke: #000000"/>
     <use xlink:href="#m337d967d92" x="349.414452" y="234.046251" style="stroke: #000000"/>
     <use xlink:href="#m337d967d92" x="380.893025" y="324.086687" style="stroke: #000000"/>
     <use xlink:href="#m337d967d92" x="412.371599" y="229.265343" style="stroke: #000000"/>
     <use xlink:href="#m337d967d92" x="443.850173" y="414.764578" style="stroke: #000000"/>
     <use xlink:href="#m337d967d92" x="475.328747" y="425.123212" style="stroke: #000000"/>
     <use xlink:href="#m337d967d92" x="506.807321" y="358.349862" style="stroke: #000000"/>
     <use xlink:href="#m337d967d92" x="538.285894" y="322.493051" style="stroke: #000000"/>
     <use xlink:href="#m337d967d92" x="569.764468" y="318.349597" style="stroke: #000000"/>
     <use xlink:href="#m337d967d92" x="601.243042" y="266.397062" style="stroke: #000000"/>
     <use xlink:href="#m337d967d92" x="632.721616" y="279.146151" style="stroke: #000000"/>
     <use xlink:href="#m337d967d92" x="664.20019" y="328.070777" style="stroke: #000000"/>
     <use xlink:href="#m337d967d92" x="695.678763" y="351.497227" style="stroke: #000000"/>
     <use xlink:href="#m337d967d92" x="727.157337" y="299.544692" style="stroke: #000000"/>
     <use xlink:href="#m337d967d92" x="758.635911" y="311.337599" style="stroke: #000000"/>
     <use xlink:href="#m337d967d92" x="790.114485" y="359.465407" style="stroke: #000000"/>
     <use xlink:href="#m337d967d92" x="821.593058" y="321.696233" style="stroke: #000000"/>
     <use xlink:href="#m337d967d92" x="853.071632" y="356.91559" style="stroke: #000000"/>
     <use xlink:href="#m337d967d92" x="884.550206" y="375.242404" style="stroke: #000000"/>
     <use xlink:href="#m337d967d92" x="916.02878" y="370.780223" style="stroke: #000000"/>
     <use xlink:href="#m337d967d92" x="947.507354" y="353.568954" style="stroke: #000000"/>
    </g>
   </g>
   <g id="patch_57">
    <path d="M 70.514288 450.621389 
L 70.514288 38.817867 
" style="fill: none; stroke: #000000; stroke-width: 0.8; stroke-linejoin: miter; stroke-linecap: square"/>
   </g>
   <g id="patch_58">
    <path d="M 995.04 450.621389 
L 995.04 38.817867 
" style="fill: none; stroke: #000000; stroke-width: 0.8; stroke-linejoin: miter; stroke-linecap: square"/>
   </g>
   <g id="patch_59">
    <path d="M 70.514288 450.621389 
L 995.04 450.621389 
" style="fill: none; stroke: #000000; stroke-width: 0.8; stroke-linejoin: miter; stroke-linecap: square"/>
   </g>
   <g id="patch_60">
    <path d="M 70.514288 38.817867 
L 995.04 38.817867 
" style="fill: none; stroke: #000000; stroke-width: 0.8; stroke-linejoin: miter; stroke-linecap: square"/>
   </g>
   <g id="text_36">
    <!-- Mean Squared Error (MSE) by Folder (Median with Min-Max Range) -->
    <g transform="translate(167.593079 32.363829) scale(0.26 -0.26)">
     <defs>
      <path id="CMR17-62" d="M 960 4396 
L 198 4326 
L 198 4160 
C 576 4160 634 4122 634 3817 
L 634 -13 
L 749 -13 
L 934 441 
C 1120 141 1395 -64 1766 -64 
C 2406 -64 3053 500 3053 1370 
C 3053 2188 2477 2790 1830 2790 
C 1434 2790 1152 2579 960 2330 
L 960 4396 
z
M 973 2004 
C 973 2118 973 2138 1062 2272 
C 1312 2657 1670 2688 1792 2688 
C 1984 2688 2643 2585 2643 1376 
C 2643 108 1888 38 1734 38 
C 1536 38 1248 114 1043 486 
C 973 608 973 621 973 735 
L 973 2004 
z
" transform="scale(0.015625)"/>
      <path id="CMR17-79" d="M 2496 2197 
C 2656 2586 2944 2586 3034 2586 
L 3034 2752 
C 2912 2752 2752 2752 2630 2752 
C 2496 2752 2285 2752 2157 2758 
L 2157 2592 
C 2400 2573 2406 2394 2406 2343 
C 2406 2280 2394 2248 2362 2171 
L 1664 449 
L 902 2306 
C 870 2382 870 2426 870 2433 
C 870 2573 1018 2586 1171 2586 
L 1171 2758 
C 1018 2752 742 2752 582 2752 
C 410 2752 205 2752 64 2758 
L 64 2586 
C 410 2586 448 2554 531 2350 
L 1485 15 
C 1197 -738 1030 -1178 627 -1178 
C 557 -1178 397 -1159 282 -1044 
C 429 -1031 493 -942 493 -833 
C 493 -725 416 -629 288 -629 
C 147 -629 77 -725 77 -840 
C 77 -1095 339 -1280 627 -1280 
C 998 -1280 1229 -922 1357 -604 
L 2496 2197 
z
" transform="scale(0.015625)"/>
      <path id="CMR17-69" d="M 992 3909 
C 992 4049 877 4170 730 4170 
C 589 4170 467 4056 467 3909 
C 467 3769 582 3648 730 3648 
C 870 3648 992 3763 992 3909 
z
M 243 2706 
L 243 2541 
C 602 2541 653 2502 653 2197 
L 653 427 
C 653 184 627 153 218 153 
L 218 -13 
C 371 0 646 0 806 0 
C 960 0 1222 0 1370 -13 
L 1370 153 
C 992 153 979 191 979 420 
L 979 2776 
L 243 2706 
z
" transform="scale(0.015625)"/>
      <path id="CMR17-77" d="M 3725 2183 
C 3853 2560 4109 2560 4205 2560 
L 4205 2732 
C 4077 2732 3949 2732 3821 2732 
C 3699 2732 3424 2732 3315 2738 
L 3315 2560 
C 3514 2560 3622 2445 3622 2286 
C 3622 2241 3610 2184 3597 2140 
L 2995 407 
L 2342 2275 
C 2330 2319 2310 2370 2310 2395 
C 2310 2560 2528 2560 2630 2560 
L 2630 2738 
C 2483 2732 2214 2732 2061 2732 
C 1901 2732 1734 2732 1587 2738 
L 1587 2560 
C 1939 2560 1939 2547 2074 2149 
L 1485 451 
L 851 2281 
C 819 2363 819 2376 819 2395 
C 819 2560 1037 2560 1139 2560 
L 1139 2738 
C 986 2732 717 2732 557 2732 
C 416 2732 198 2732 64 2738 
L 64 2560 
C 346 2560 416 2541 486 2331 
L 1274 49 
C 1299 -33 1318 -52 1370 -52 
C 1414 -52 1440 -39 1472 56 
L 2131 1980 
L 2797 56 
C 2829 -39 2854 -52 2899 -52 
C 2950 -52 2970 -33 2995 50 
L 3725 2183 
z
" transform="scale(0.015625)"/>
      <path id="CMR17-74" d="M 966 2560 
L 1862 2560 
L 1862 2725 
L 966 2725 
L 966 3904 
L 851 3904 
C 838 3245 614 2668 70 2668 
L 70 2560 
L 627 2560 
L 627 771 
C 627 650 627 -64 1370 -64 
C 1747 -64 1965 306 1965 777 
L 1965 1140 
L 1850 1140 
L 1850 783 
C 1850 344 1677 51 1408 51 
C 1222 51 966 178 966 758 
L 966 2560 
z
" transform="scale(0.015625)"/>
      <path id="CMR17-68" d="M 2656 1933 
C 2656 2259 2592 2790 1837 2790 
C 1312 2790 1056 2368 979 2157 
L 973 2157 
L 973 4396 
L 211 4326 
L 211 4160 
C 589 4160 646 4122 646 3817 
L 646 426 
C 646 184 621 153 211 153 
L 211 -13 
C 365 0 646 0 813 0 
C 979 0 1267 0 1421 -13 
L 1421 153 
C 1011 153 986 178 986 428 
L 986 1658 
C 986 2247 1344 2688 1792 2688 
C 2266 2688 2317 2266 2317 1958 
L 2317 428 
C 2317 184 2291 153 1882 153 
L 1882 -13 
C 2035 0 2317 0 2483 0 
C 2650 0 2938 0 3091 -13 
L 3091 153 
C 2682 153 2656 178 2656 428 
L 2656 1933 
z
" transform="scale(0.015625)"/>
      <path id="CMR17-2d" d="M 1632 1216 
L 1632 1496 
L 26 1496 
L 26 1216 
L 1632 1216 
z
" transform="scale(0.015625)"/>
      <path id="CMR17-78" d="M 1664 1477 
C 1856 1726 2074 2006 2253 2216 
C 2464 2458 2707 2560 2989 2560 
L 2989 2726 
C 2880 2726 2656 2726 2541 2726 
C 2368 2726 2170 2726 2022 2732 
L 2022 2566 
C 2112 2553 2163 2489 2163 2400 
C 2163 2285 2099 2215 2067 2171 
L 1594 1573 
L 1030 2306 
C 973 2376 973 2388 973 2420 
C 973 2497 1037 2560 1146 2560 
L 1146 2732 
C 992 2726 717 2726 557 2726 
C 384 2726 179 2726 38 2732 
L 38 2560 
C 384 2560 461 2534 614 2343 
L 1350 1395 
C 1363 1382 1395 1344 1395 1325 
C 1395 1299 838 619 768 530 
C 480 185 179 160 6 160 
L 6 0 
C 115 0 339 0 454 0 
C 582 0 864 0 979 -6 
L 979 160 
C 941 166 838 179 838 325 
C 838 440 890 510 947 586 
L 1478 1236 
L 2035 512 
C 2086 442 2163 346 2163 301 
C 2163 211 2086 160 1984 160 
L 1984 -6 
C 2138 0 2413 0 2573 0 
C 2746 0 2950 0 3091 -6 
L 3091 160 
C 2771 160 2675 172 2522 370 
L 1664 1477 
z
" transform="scale(0.015625)"/>
      <path id="CMR17-52" d="M 2509 2146 
C 3117 2268 3629 2676 3629 3186 
C 3629 3785 2950 4326 2054 4326 
L 333 4326 
L 333 4160 
C 774 4160 845 4160 845 3873 
L 845 415 
C 845 128 774 128 333 128 
L 333 -26 
C 518 -26 851 -26 1050 -26 
C 1248 -26 1581 -26 1766 -26 
L 1766 128 
C 1325 128 1254 128 1254 417 
L 1254 2112 
L 2003 2112 
C 2368 2112 2573 1964 2662 1881 
C 2918 1632 2918 1459 2918 1024 
C 2918 595 2918 377 3110 160 
C 3354 -102 3680 -128 3821 -128 
C 4294 -128 4365 396 4365 503 
C 4365 540 4365 585 4307 585 
C 4256 585 4250 547 4250 522 
C 4218 112 4032 -26 3834 -26 
C 3482 -26 3443 375 3405 764 
C 3386 898 3373 993 3360 1133 
C 3322 1452 3270 1917 2509 2146 
z
M 1984 2214 
L 1254 2214 
L 1254 3913 
C 1254 4129 1267 4160 1523 4160 
L 1990 4160 
C 2522 4160 3142 3977 3142 3190 
C 3142 2372 2464 2214 1984 2214 
z
" transform="scale(0.015625)"/>
      <path id="CMR17-67" d="M 710 1164 
C 832 1068 1043 960 1299 960 
C 1805 960 2240 1357 2240 1888 
C 2240 2054 2189 2310 1997 2509 
C 2176 2692 2438 2752 2586 2752 
C 2611 2752 2650 2752 2682 2734 
C 2656 2728 2598 2703 2598 2605 
C 2598 2527 2656 2471 2739 2471 
C 2835 2471 2886 2533 2886 2614 
C 2886 2731 2790 2854 2586 2854 
C 2330 2854 2106 2738 1926 2580 
C 1734 2753 1504 2816 1299 2816 
C 794 2816 358 2419 358 1888 
C 358 1522 570 1292 634 1228 
C 442 1004 442 743 442 711 
C 442 545 506 302 723 168 
C 390 85 128 -169 128 -486 
C 128 -943 736 -1280 1466 -1280 
C 2170 -1280 2803 -956 2803 -479 
C 2803 384 1856 384 1363 384 
C 1216 384 954 384 922 391 
C 723 423 589 602 589 826 
C 589 883 589 1024 710 1164 
z
M 1299 1068 
C 736 1068 736 1760 736 1889 
C 736 2016 736 2708 1299 2708 
C 1862 2708 1862 2016 1862 1889 
C 1862 1760 1862 1068 1299 1068 
z
M 1466 -1171 
C 826 -1171 384 -835 384 -486 
C 384 -289 493 -105 634 -4 
C 794 104 858 104 1293 104 
C 1818 104 2547 104 2547 -486 
C 2547 -835 2106 -1171 1466 -1171 
z
" transform="scale(0.015625)"/>
     </defs>
     <use xlink:href="#CMR17-4d" transform="scale(0.996264)"/>
     <use xlink:href="#CMR17-65" transform="translate(84.686941 0) scale(0.996264)"/>
     <use xlink:href="#CMR17-61" transform="translate(125.172601 0) scale(0.996264)"/>
     <use xlink:href="#CMR17-6e" transform="translate(170.863078 0) scale(0.996264)"/>
     <use xlink:href="#CMR17-53" transform="translate(251.834414 0) scale(0.996264)"/>
     <use xlink:href="#CMR17-71" transform="translate(302.729784 0) scale(0.996264)"/>
     <use xlink:href="#CMR17-75" transform="translate(351.0227 0) scale(0.996264)"/>
     <use xlink:href="#CMR17-61" transform="translate(401.91807 0) scale(0.996264)"/>
     <use xlink:href="#CMR17-72" transform="translate(447.608547 0) scale(0.996264)"/>
     <use xlink:href="#CMR17-65" transform="translate(482.889315 0) scale(0.996264)"/>
     <use xlink:href="#CMR17-64" transform="translate(523.374975 0) scale(0.996264)"/>
     <use xlink:href="#CMR17-45" transform="translate(604.346311 0) scale(0.996264)"/>
     <use xlink:href="#CMR17-72" transform="translate(666.932612 0) scale(0.996264)"/>
     <use xlink:href="#CMR17-72" transform="translate(702.21338 0) scale(0.996264)"/>
     <use xlink:href="#CMR17-6f" transform="translate(737.494147 0) scale(0.996264)"/>
     <use xlink:href="#CMR17-72" transform="translate(783.184624 0) scale(0.996264)"/>
     <use xlink:href="#CMR17-28" transform="translate(848.541359 0) scale(0.996264)"/>
     <use xlink:href="#CMR17-4d" transform="translate(883.822126 0) scale(0.996264)"/>
     <use xlink:href="#CMR17-53" transform="translate(968.509067 0) scale(0.996264)"/>
     <use xlink:href="#CMR17-45" transform="translate(1019.404437 0) scale(0.996264)"/>
     <use xlink:href="#CMR17-29" transform="translate(1081.990737 0) scale(0.996264)"/>
     <use xlink:href="#CMR17-62" transform="translate(1147.347471 0) scale(0.996264)"/>
     <use xlink:href="#CMR17-79" transform="translate(1195.640387 0) scale(0.996264)"/>
     <use xlink:href="#CMR17-46" transform="translate(1274.009269 0) scale(0.996264)"/>
     <use xlink:href="#CMR17-6f" transform="translate(1326.185861 0) scale(0.996264)"/>
     <use xlink:href="#CMR17-6c" transform="translate(1371.876338 0) scale(0.996264)"/>
     <use xlink:href="#CMR17-64" transform="translate(1396.747396 0) scale(0.996264)"/>
     <use xlink:href="#CMR17-65" transform="translate(1447.642766 0) scale(0.996264)"/>
     <use xlink:href="#CMR17-72" transform="translate(1488.128426 0) scale(0.996264)"/>
     <use xlink:href="#CMR17-28" transform="translate(1553.485161 0) scale(0.996264)"/>
     <use xlink:href="#CMR17-4d" transform="translate(1588.765928 0) scale(0.996264)"/>
     <use xlink:href="#CMR17-65" transform="translate(1673.452869 0) scale(0.996264)"/>
     <use xlink:href="#CMR17-64" transform="translate(1713.938529 0) scale(0.996264)"/>
     <use xlink:href="#CMR17-69" transform="translate(1764.833899 0) scale(0.996264)"/>
     <use xlink:href="#CMR17-61" transform="translate(1789.704958 0) scale(0.996264)"/>
     <use xlink:href="#CMR17-6e" transform="translate(1835.395435 0) scale(0.996264)"/>
     <use xlink:href="#CMR17-77" transform="translate(1916.366771 0) scale(0.996264)"/>
     <use xlink:href="#CMR17-69" transform="translate(1982.876652 0) scale(0.996264)"/>
     <use xlink:href="#CMR17-74" transform="translate(2007.74771 0) scale(0.996264)"/>
     <use xlink:href="#CMR17-68" transform="translate(2043.028478 0) scale(0.996264)"/>
     <use xlink:href="#CMR17-4d" transform="translate(2123.999814 0) scale(0.996264)"/>
     <use xlink:href="#CMR17-69" transform="translate(2208.686755 0) scale(0.996264)"/>
     <use xlink:href="#CMR17-6e" transform="translate(2233.557813 0) scale(0.996264)"/>
     <use xlink:href="#CMR17-2d" transform="translate(2284.453183 0) scale(0.996264)"/>
     <use xlink:href="#CMR17-4d" transform="translate(2314.529149 0) scale(0.996264)"/>
     <use xlink:href="#CMR17-61" transform="translate(2399.21609 0) scale(0.996264)"/>
     <use xlink:href="#CMR17-78" transform="translate(2444.906567 0) scale(0.996264)"/>
     <use xlink:href="#CMR17-52" transform="translate(2523.275449 0) scale(0.996264)"/>
     <use xlink:href="#CMR17-61" transform="translate(2591.066551 0) scale(0.996264)"/>
     <use xlink:href="#CMR17-6e" transform="translate(2636.757028 0) scale(0.996264)"/>
     <use xlink:href="#CMR17-67" transform="translate(2687.652398 0) scale(0.996264)"/>
     <use xlink:href="#CMR17-65" transform="translate(2733.342875 0) scale(0.996264)"/>
     <use xlink:href="#CMR17-29" transform="translate(2773.828535 0) scale(0.996264)"/>
    </g>
   </g>
   <g id="legend_1">
    <g id="patch_61">
     <path d="M 919.954534 106.668699 
L 985.24 106.668699 
Q 988.04 106.668699 988.04 103.868699 
L 988.04 48.617867 
Q 988.04 45.817867 985.24 45.817867 
L 919.954534 45.817867 
Q 917.154534 45.817867 917.154534 48.617867 
L 917.154534 103.868699 
Q 917.154534 106.668699 919.954534 106.668699 
z
" style="fill: #ffffff; opacity: 0.8; stroke: #cccccc; stroke-linejoin: miter"/>
    </g>
    <g id="text_37">
     <!-- Epochs -->
     <g transform="translate(934.112607 59.720047) scale(0.12 -0.12)">
      <defs>
       <path id="CMR17-70" d="M 1408 -1063 
C 998 -1063 973 -1037 973 -789 
L 973 402 
C 1158 134 1427 -38 1766 -38 
C 2406 -38 3053 523 3053 1388 
C 3053 2191 2496 2802 1837 2802 
C 1453 2802 1139 2592 960 2338 
L 960 2802 
L 198 2732 
L 198 2567 
C 576 2567 634 2528 634 2223 
L 634 -789 
C 634 -1031 608 -1063 198 -1063 
L 198 -1228 
C 352 -1216 634 -1216 800 -1216 
C 966 -1216 1254 -1216 1408 -1228 
L 1408 -1063 
z
M 973 2012 
C 973 2102 973 2235 1222 2471 
C 1254 2497 1472 2688 1792 2688 
C 2259 2688 2643 2108 2643 1382 
C 2643 656 2234 64 1728 64 
C 1498 64 1248 172 1056 472 
C 973 612 973 650 973 752 
L 973 2012 
z
" transform="scale(0.015625)"/>
       <path id="CMR17-63" d="M 2234 2240 
C 2112 2240 1933 2240 1933 2017 
C 1933 1838 2080 1787 2163 1787 
C 2208 1787 2394 1807 2394 2024 
C 2394 2467 1958 2803 1466 2803 
C 787 2803 211 2178 211 1363 
C 211 516 813 -64 1466 -64 
C 2259 -64 2458 677 2458 748 
C 2458 774 2451 793 2406 793 
C 2362 793 2355 787 2330 703 
C 2163 180 1798 51 1523 51 
C 1114 51 621 427 621 1369 
C 621 2338 1094 2688 1472 2688 
C 1722 2688 2093 2573 2234 2240 
z
" transform="scale(0.015625)"/>
       <path id="CMR17-73" d="M 1978 2697 
C 1978 2813 1971 2819 1933 2819 
C 1907 2819 1901 2813 1824 2717 
C 1805 2691 1747 2626 1728 2601 
C 1523 2819 1235 2819 1126 2819 
C 416 2819 160 2447 160 2076 
C 160 1498 813 1365 998 1325 
C 1402 1243 1542 1217 1677 1101 
C 1760 1025 1901 884 1901 654 
C 1901 384 1747 38 1158 38 
C 602 38 403 460 288 1021 
C 269 1110 269 1117 218 1117 
C 166 1117 160 1110 160 983 
L 160 63 
C 160 -51 166 -58 205 -58 
C 237 -58 243 -51 275 0 
C 314 57 410 211 448 276 
C 576 103 800 -64 1158 -64 
C 1792 -64 2131 283 2131 784 
C 2131 1112 1958 1285 1875 1362 
C 1683 1561 1459 1606 1190 1657 
C 838 1735 390 1825 390 2217 
C 390 2383 480 2737 1126 2737 
C 1811 2737 1850 2094 1862 1888 
C 1869 1856 1901 1849 1920 1849 
C 1978 1849 1978 1869 1978 1978 
L 1978 2697 
z
" transform="scale(0.015625)"/>
      </defs>
      <use xlink:href="#CMR17-45" transform="scale(0.996264)"/>
      <use xlink:href="#CMR17-70" transform="translate(62.586301 0) scale(0.996264)"/>
      <use xlink:href="#CMR17-6f" transform="translate(116.084109 0) scale(0.996264)"/>
      <use xlink:href="#CMR17-63" transform="translate(164.377025 0) scale(0.996264)"/>
      <use xlink:href="#CMR17-68" transform="translate(202.260231 0) scale(0.996264)"/>
      <use xlink:href="#CMR17-73" transform="translate(253.155601 0) scale(0.996264)"/>
     </g>
    </g>
    <g id="patch_62">
     <path d="M 922.754534 78.844643 
L 950.754534 78.844643 
L 950.754534 69.044643 
L 922.754534 69.044643 
z
" style="fill: #1f77b4"/>
    </g>
    <g id="text_38">
     <!-- 150 -->
     <g transform="translate(961.954534 78.844643) scale(0.14 -0.14)">
      <use xlink:href="#CMR17-31" transform="scale(0.996264)"/>
      <use xlink:href="#CMR17-35" transform="translate(45.690477 0) scale(0.996264)"/>
      <use xlink:href="#CMR17-30" transform="translate(91.380954 0) scale(0.996264)"/>
     </g>
    </g>
    <g id="patch_63">
     <path d="M 922.754534 98.356671 
L 950.754534 98.356671 
L 950.754534 88.556671 
L 922.754534 88.556671 
z
" style="fill: #ff7f0e"/>
    </g>
    <g id="text_39">
     <!-- 200 -->
     <g transform="translate(961.954534 98.356671) scale(0.14 -0.14)">
      <use xlink:href="#CMR17-32" transform="scale(0.996264)"/>
      <use xlink:href="#CMR17-30" transform="translate(45.690477 0) scale(0.996264)"/>
      <use xlink:href="#CMR17-30" transform="translate(91.380954 0) scale(0.996264)"/>
     </g>
    </g>
   </g>
  </g>
 </g>
 <defs>
  <clipPath id="pcb3c8c9ea2">
   <rect x="70.514288" y="38.817867" width="924.525712" height="411.803522"/>
  </clipPath>
 </defs>
</svg>
