<?xml version="1.0" encoding="utf-8" standalone="no"?>
<!DOCTYPE svg PUBLIC "-//W3C//DTD SVG 1.1//EN"
  "http://www.w3.org/Graphics/SVG/1.1/DTD/svg11.dtd">
<svg xmlns:xlink="http://www.w3.org/1999/xlink" width="720pt" height="576pt" viewBox="0 0 720 576" xmlns="http://www.w3.org/2000/svg" version="1.1">
 <metadata>
  <rdf:RDF xmlns:dc="http://purl.org/dc/elements/1.1/" xmlns:cc="http://creativecommons.org/ns#" xmlns:rdf="http://www.w3.org/1999/02/22-rdf-syntax-ns#">
   <cc:Work>
    <dc:type rdf:resource="http://purl.org/dc/dcmitype/StillImage"/>
    <dc:date>2025-04-25T21:13:49.675942</dc:date>
    <dc:format>image/svg+xml</dc:format>
    <dc:creator>
     <cc:Agent>
      <dc:title>Matplotlib v3.9.2, https://matplotlib.org/</dc:title>
     </cc:Agent>
    </dc:creator>
   </cc:Work>
  </rdf:RDF>
 </metadata>
 <defs>
  <style type="text/css">*{stroke-linejoin: round; stroke-linecap: butt}</style>
 </defs>
 <g id="figure_1">
  <g id="patch_1">
   <path d="M 0 576 
L 720 576 
L 720 0 
L 0 0 
z
" style="fill: #ffffff"/>
  </g>
  <g id="axes_1">
   <g id="patch_2">
    <path d="M 76.24014 513.338305 
L 702.72 513.338305 
L 702.72 17.28 
L 76.24014 17.28 
z
" style="fill: #ffffff"/>
   </g>
   <g id="matplotlib.axis_1">
    <g id="xtick_1">
     <g id="line2d_1">
      <path d="M 104.716497 513.338305 
L 104.716497 17.28 
" clip-path="url(#pbd8701ace6)" style="fill: none; stroke: #cccccc; stroke-linecap: round"/>
     </g>
     <g id="text_1">
      <!-- $\mathdefault{0}$ -->
      <g style="fill: #262626" transform="translate(100.814503 533.907893) scale(0.16 -0.16)">
       <defs>
        <path id="CMR17-30" d="M 2688 2025 
C 2688 2416 2682 3080 2413 3591 
C 2176 4039 1798 4198 1466 4198 
C 1158 4198 768 4058 525 3597 
C 269 3118 243 2524 243 2025 
C 243 1661 250 1106 448 619 
C 723 -39 1216 -128 1466 -128 
C 1760 -128 2208 -7 2470 600 
C 2662 1042 2688 1559 2688 2025 
z
M 1466 -26 
C 1056 -26 813 325 723 812 
C 653 1188 653 1738 653 2096 
C 653 2588 653 2997 736 3387 
C 858 3929 1216 4096 1466 4096 
C 1728 4096 2067 3923 2189 3400 
C 2272 3036 2278 2607 2278 2096 
C 2278 1680 2278 1169 2202 792 
C 2067 95 1690 -26 1466 -26 
z
" transform="scale(0.015625)"/>
       </defs>
       <use xlink:href="#CMR17-30" transform="scale(0.996264)"/>
      </g>
     </g>
    </g>
    <g id="xtick_2">
     <g id="line2d_2">
      <path d="M 219.772486 513.338305 
L 219.772486 17.28 
" clip-path="url(#pbd8701ace6)" style="fill: none; stroke: #cccccc; stroke-linecap: round"/>
     </g>
     <g id="text_2">
      <!-- $\mathdefault{200}$ -->
      <g style="fill: #262626" transform="translate(208.066506 533.907893) scale(0.16 -0.16)">
       <defs>
        <path id="CMR17-32" d="M 2669 989 
L 2554 989 
C 2490 536 2438 459 2413 420 
C 2381 369 1920 369 1830 369 
L 602 369 
C 832 619 1280 1072 1824 1597 
C 2214 1967 2669 2402 2669 3035 
C 2669 3790 2067 4224 1395 4224 
C 691 4224 262 3604 262 3030 
C 262 2780 448 2748 525 2748 
C 589 2748 781 2787 781 3010 
C 781 3207 614 3264 525 3264 
C 486 3264 448 3258 422 3245 
C 544 3790 915 4058 1306 4058 
C 1862 4058 2227 3617 2227 3035 
C 2227 2479 1901 2000 1536 1584 
L 262 146 
L 262 0 
L 2515 0 
L 2669 989 
z
" transform="scale(0.015625)"/>
       </defs>
       <use xlink:href="#CMR17-32" transform="scale(0.996264)"/>
       <use xlink:href="#CMR17-30" transform="translate(45.690477 0) scale(0.996264)"/>
       <use xlink:href="#CMR17-30" transform="translate(91.380954 0) scale(0.996264)"/>
      </g>
     </g>
    </g>
    <g id="xtick_3">
     <g id="line2d_3">
      <path d="M 334.828475 513.338305 
L 334.828475 17.28 
" clip-path="url(#pbd8701ace6)" style="fill: none; stroke: #cccccc; stroke-linecap: round"/>
     </g>
     <g id="text_3">
      <!-- $\mathdefault{400}$ -->
      <g style="fill: #262626" transform="translate(323.122495 533.907893) scale(0.16 -0.16)">
       <defs>
        <path id="CMR17-34" d="M 2150 4122 
C 2150 4256 2144 4256 2029 4256 
L 128 1254 
L 128 1088 
L 1779 1088 
L 1779 457 
C 1779 224 1766 160 1318 160 
L 1197 160 
L 1197 0 
C 1402 0 1747 0 1965 0 
C 2182 0 2528 0 2733 0 
L 2733 160 
L 2611 160 
C 2163 160 2150 224 2150 457 
L 2150 1088 
L 2803 1088 
L 2803 1254 
L 2150 1254 
L 2150 4122 
z
M 1798 3703 
L 1798 1254 
L 256 1254 
L 1798 3703 
z
" transform="scale(0.015625)"/>
       </defs>
       <use xlink:href="#CMR17-34" transform="scale(0.996264)"/>
       <use xlink:href="#CMR17-30" transform="translate(45.690477 0) scale(0.996264)"/>
       <use xlink:href="#CMR17-30" transform="translate(91.380954 0) scale(0.996264)"/>
      </g>
     </g>
    </g>
    <g id="xtick_4">
     <g id="line2d_4">
      <path d="M 449.884464 513.338305 
L 449.884464 17.28 
" clip-path="url(#pbd8701ace6)" style="fill: none; stroke: #cccccc; stroke-linecap: round"/>
     </g>
     <g id="text_4">
      <!-- $\mathdefault{600}$ -->
      <g style="fill: #262626" transform="translate(438.178484 533.907893) scale(0.16 -0.16)">
       <defs>
        <path id="CMR17-36" d="M 678 2176 
C 678 3690 1395 4032 1811 4032 
C 1946 4032 2272 4009 2400 3776 
C 2298 3776 2106 3776 2106 3553 
C 2106 3381 2246 3323 2336 3323 
C 2394 3323 2566 3348 2566 3560 
C 2566 3954 2246 4179 1805 4179 
C 1043 4179 243 3390 243 1984 
C 243 253 966 -128 1478 -128 
C 2099 -128 2688 427 2688 1283 
C 2688 2081 2170 2662 1517 2662 
C 1126 2662 838 2407 678 1960 
L 678 2176 
z
M 1478 25 
C 691 25 691 1200 691 1436 
C 691 1896 909 2560 1504 2560 
C 1613 2560 1926 2560 2138 2120 
C 2253 1870 2253 1609 2253 1289 
C 2253 944 2253 690 2118 434 
C 1978 171 1773 25 1478 25 
z
" transform="scale(0.015625)"/>
       </defs>
       <use xlink:href="#CMR17-36" transform="scale(0.996264)"/>
       <use xlink:href="#CMR17-30" transform="translate(45.690477 0) scale(0.996264)"/>
       <use xlink:href="#CMR17-30" transform="translate(91.380954 0) scale(0.996264)"/>
      </g>
     </g>
    </g>
    <g id="xtick_5">
     <g id="line2d_5">
      <path d="M 564.940453 513.338305 
L 564.940453 17.28 
" clip-path="url(#pbd8701ace6)" style="fill: none; stroke: #cccccc; stroke-linecap: round"/>
     </g>
     <g id="text_5">
      <!-- $\mathdefault{800}$ -->
      <g style="fill: #262626" transform="translate(553.234473 533.907893) scale(0.16 -0.16)">
       <defs>
        <path id="CMR17-38" d="M 1741 2264 
C 2144 2467 2554 2773 2554 3263 
C 2554 3841 1990 4179 1472 4179 
C 890 4179 378 3759 378 3180 
C 378 3021 416 2747 666 2505 
C 730 2442 998 2251 1171 2130 
C 883 1983 211 1634 211 934 
C 211 279 838 -128 1459 -128 
C 2144 -128 2720 362 2720 1010 
C 2720 1590 2330 1857 2074 2029 
L 1741 2264 
z
M 902 2822 
C 851 2854 595 3051 595 3351 
C 595 3739 998 4032 1459 4032 
C 1965 4032 2336 3676 2336 3262 
C 2336 2669 1670 2331 1638 2331 
C 1632 2331 1626 2331 1574 2370 
L 902 2822 
z
M 2080 1519 
C 2176 1449 2483 1240 2483 851 
C 2483 381 2010 25 1472 25 
C 890 25 448 438 448 940 
C 448 1443 838 1862 1280 2060 
L 2080 1519 
z
" transform="scale(0.015625)"/>
       </defs>
       <use xlink:href="#CMR17-38" transform="scale(0.996264)"/>
       <use xlink:href="#CMR17-30" transform="translate(45.690477 0) scale(0.996264)"/>
       <use xlink:href="#CMR17-30" transform="translate(91.380954 0) scale(0.996264)"/>
      </g>
     </g>
    </g>
    <g id="xtick_6">
     <g id="line2d_6">
      <path d="M 679.996442 513.338305 
L 679.996442 17.28 
" clip-path="url(#pbd8701ace6)" style="fill: none; stroke: #cccccc; stroke-linecap: round"/>
     </g>
     <g id="text_6">
      <!-- $\mathdefault{1000}$ -->
      <g style="fill: #262626" transform="translate(664.388468 533.907893) scale(0.16 -0.16)">
       <defs>
        <path id="CMR17-31" d="M 1702 4058 
C 1702 4192 1696 4192 1606 4192 
C 1357 3916 979 3827 621 3827 
C 602 3827 570 3827 563 3808 
C 557 3795 557 3782 557 3648 
C 755 3648 1088 3686 1344 3839 
L 1344 461 
C 1344 236 1331 160 781 160 
L 589 160 
L 589 0 
C 896 0 1216 0 1523 0 
C 1830 0 2150 0 2458 0 
L 2458 160 
L 2266 160 
C 1715 160 1702 230 1702 458 
L 1702 4058 
z
" transform="scale(0.015625)"/>
       </defs>
       <use xlink:href="#CMR17-31" transform="scale(0.996264)"/>
       <use xlink:href="#CMR17-30" transform="translate(45.690477 0) scale(0.996264)"/>
       <use xlink:href="#CMR17-30" transform="translate(91.380954 0) scale(0.996264)"/>
       <use xlink:href="#CMR17-30" transform="translate(137.071431 0) scale(0.996264)"/>
      </g>
     </g>
    </g>
    <g id="text_7">
     <!-- Step -->
     <g style="fill: #262626" transform="translate(371.724365 554.844366) scale(0.2 -0.2)">
      <defs>
       <path id="CMR17-53" d="M 2803 4290 
C 2803 4404 2797 4411 2758 4411 
C 2720 4411 2707 4385 2682 4328 
L 2490 3907 
C 2246 4257 1875 4416 1472 4416 
C 819 4416 294 3901 294 3253 
C 294 3056 339 2776 557 2510 
C 794 2218 1018 2167 1530 2033 
C 1722 1982 2042 1899 2106 1874 
C 2470 1722 2662 1341 2662 985 
C 2662 527 2336 38 1779 38 
C 1094 38 454 419 410 1311 
C 403 1413 397 1419 352 1419 
C 301 1419 294 1413 294 1285 
L 294 -1 
C 294 -115 301 -122 339 -122 
C 384 -122 397 -90 486 108 
C 493 127 493 140 614 381 
C 934 -39 1472 -128 1779 -128 
C 2477 -128 2970 451 2970 1124 
C 2970 1454 2848 1708 2778 1823 
C 2509 2230 2221 2306 1914 2382 
C 1869 2402 1856 2402 1498 2490 
C 1152 2579 1005 2624 845 2796 
C 666 2992 602 3196 602 3399 
C 602 3812 934 4263 1478 4263 
C 2157 4263 2579 3786 2675 2993 
C 2694 2878 2701 2872 2746 2872 
C 2803 2872 2803 2891 2803 2999 
L 2803 4290 
z
" transform="scale(0.015625)"/>
       <path id="CMR17-74" d="M 966 2560 
L 1862 2560 
L 1862 2725 
L 966 2725 
L 966 3904 
L 851 3904 
C 838 3245 614 2668 70 2668 
L 70 2560 
L 627 2560 
L 627 771 
C 627 650 627 -64 1370 -64 
C 1747 -64 1965 306 1965 777 
L 1965 1140 
L 1850 1140 
L 1850 783 
C 1850 344 1677 51 1408 51 
C 1222 51 966 178 966 758 
L 966 2560 
z
" transform="scale(0.015625)"/>
       <path id="CMR17-65" d="M 2438 1472 
C 2464 1498 2464 1511 2464 1576 
C 2464 2238 2118 2816 1389 2816 
C 710 2816 173 2169 173 1383 
C 173 551 781 -64 1459 -64 
C 2176 -64 2458 607 2458 740 
C 2458 784 2419 784 2406 784 
C 2362 784 2355 771 2330 696 
C 2189 265 1837 51 1504 51 
C 1229 51 954 203 781 480 
C 582 803 582 1176 582 1472 
L 2438 1472 
z
M 589 1568 
C 634 2505 1126 2714 1382 2714 
C 1818 2714 2112 2297 2118 1568 
L 589 1568 
z
" transform="scale(0.015625)"/>
       <path id="CMR17-70" d="M 1408 -1063 
C 998 -1063 973 -1037 973 -789 
L 973 402 
C 1158 134 1427 -38 1766 -38 
C 2406 -38 3053 523 3053 1388 
C 3053 2191 2496 2802 1837 2802 
C 1453 2802 1139 2592 960 2338 
L 960 2802 
L 198 2732 
L 198 2567 
C 576 2567 634 2528 634 2223 
L 634 -789 
C 634 -1031 608 -1063 198 -1063 
L 198 -1228 
C 352 -1216 634 -1216 800 -1216 
C 966 -1216 1254 -1216 1408 -1228 
L 1408 -1063 
z
M 973 2012 
C 973 2102 973 2235 1222 2471 
C 1254 2497 1472 2688 1792 2688 
C 2259 2688 2643 2108 2643 1382 
C 2643 656 2234 64 1728 64 
C 1498 64 1248 172 1056 472 
C 973 612 973 650 973 752 
L 973 2012 
z
" transform="scale(0.015625)"/>
      </defs>
      <use xlink:href="#CMR17-53" transform="scale(0.996264)"/>
      <use xlink:href="#CMR17-74" transform="translate(50.89537 0) scale(0.996264)"/>
      <use xlink:href="#CMR17-65" transform="translate(86.176138 0) scale(0.996264)"/>
      <use xlink:href="#CMR17-70" transform="translate(126.661798 0) scale(0.996264)"/>
     </g>
    </g>
   </g>
   <g id="matplotlib.axis_2">
    <g id="ytick_1">
     <g id="line2d_7">
      <path d="M 76.24014 474.351728 
L 702.72 474.351728 
" clip-path="url(#pbd8701ace6)" style="fill: none; stroke: #cccccc; stroke-linecap: round"/>
     </g>
     <g id="text_8">
      <!-- $\mathdefault{0.05}$ -->
      <g style="fill: #262626" transform="translate(38.99263 479.886522) scale(0.16 -0.16)">
       <defs>
        <path id="CMMI12-3a" d="M 1178 307 
C 1178 492 1024 619 870 619 
C 685 619 557 466 557 313 
C 557 128 710 0 864 0 
C 1050 0 1178 153 1178 307 
z
" transform="scale(0.015625)"/>
        <path id="CMR17-35" d="M 730 3692 
C 794 3666 1056 3584 1325 3584 
C 1920 3584 2246 3911 2432 4100 
C 2432 4157 2432 4192 2394 4192 
C 2387 4192 2374 4192 2323 4163 
C 2099 4058 1837 3973 1517 3973 
C 1325 3973 1037 3999 723 4139 
C 653 4171 640 4171 634 4171 
C 602 4171 595 4164 595 4037 
L 595 2203 
C 595 2089 595 2057 659 2057 
C 691 2057 704 2070 736 2114 
C 941 2401 1222 2522 1542 2522 
C 1766 2522 2246 2382 2246 1289 
C 2246 1085 2246 715 2054 421 
C 1894 159 1645 25 1370 25 
C 947 25 518 320 403 814 
C 429 807 480 795 506 795 
C 589 795 749 840 749 1038 
C 749 1210 627 1280 506 1280 
C 358 1280 262 1190 262 1011 
C 262 454 704 -128 1382 -128 
C 2042 -128 2669 440 2669 1264 
C 2669 2030 2170 2624 1549 2624 
C 1222 2624 947 2503 730 2274 
L 730 3692 
z
" transform="scale(0.015625)"/>
       </defs>
       <use xlink:href="#CMR17-30" transform="scale(0.996264)"/>
       <use xlink:href="#CMMI12-3a" transform="translate(45.690477 0) scale(0.996264)"/>
       <use xlink:href="#CMR17-30" transform="translate(72.787654 0) scale(0.996264)"/>
       <use xlink:href="#CMR17-35" transform="translate(118.478131 0) scale(0.996264)"/>
      </g>
     </g>
    </g>
    <g id="ytick_2">
     <g id="line2d_8">
      <path d="M 76.24014 405.858092 
L 702.72 405.858092 
" clip-path="url(#pbd8701ace6)" style="fill: none; stroke: #cccccc; stroke-linecap: round"/>
     </g>
     <g id="text_9">
      <!-- $\mathdefault{0.10}$ -->
      <g style="fill: #262626" transform="translate(38.99263 411.392887) scale(0.16 -0.16)">
       <use xlink:href="#CMR17-30" transform="scale(0.996264)"/>
       <use xlink:href="#CMMI12-3a" transform="translate(45.690477 0) scale(0.996264)"/>
       <use xlink:href="#CMR17-31" transform="translate(72.787654 0) scale(0.996264)"/>
       <use xlink:href="#CMR17-30" transform="translate(118.478131 0) scale(0.996264)"/>
      </g>
     </g>
    </g>
    <g id="ytick_3">
     <g id="line2d_9">
      <path d="M 76.24014 337.364457 
L 702.72 337.364457 
" clip-path="url(#pbd8701ace6)" style="fill: none; stroke: #cccccc; stroke-linecap: round"/>
     </g>
     <g id="text_10">
      <!-- $\mathdefault{0.15}$ -->
      <g style="fill: #262626" transform="translate(38.99263 342.899251) scale(0.16 -0.16)">
       <use xlink:href="#CMR17-30" transform="scale(0.996264)"/>
       <use xlink:href="#CMMI12-3a" transform="translate(45.690477 0) scale(0.996264)"/>
       <use xlink:href="#CMR17-31" transform="translate(72.787654 0) scale(0.996264)"/>
       <use xlink:href="#CMR17-35" transform="translate(118.478131 0) scale(0.996264)"/>
      </g>
     </g>
    </g>
    <g id="ytick_4">
     <g id="line2d_10">
      <path d="M 76.24014 268.870822 
L 702.72 268.870822 
" clip-path="url(#pbd8701ace6)" style="fill: none; stroke: #cccccc; stroke-linecap: round"/>
     </g>
     <g id="text_11">
      <!-- $\mathdefault{0.20}$ -->
      <g style="fill: #262626" transform="translate(38.99263 274.405616) scale(0.16 -0.16)">
       <use xlink:href="#CMR17-30" transform="scale(0.996264)"/>
       <use xlink:href="#CMMI12-3a" transform="translate(45.690477 0) scale(0.996264)"/>
       <use xlink:href="#CMR17-32" transform="translate(72.787654 0) scale(0.996264)"/>
       <use xlink:href="#CMR17-30" transform="translate(118.478131 0) scale(0.996264)"/>
      </g>
     </g>
    </g>
    <g id="ytick_5">
     <g id="line2d_11">
      <path d="M 76.24014 200.377186 
L 702.72 200.377186 
" clip-path="url(#pbd8701ace6)" style="fill: none; stroke: #cccccc; stroke-linecap: round"/>
     </g>
     <g id="text_12">
      <!-- $\mathdefault{0.25}$ -->
      <g style="fill: #262626" transform="translate(38.99263 205.91198) scale(0.16 -0.16)">
       <use xlink:href="#CMR17-30" transform="scale(0.996264)"/>
       <use xlink:href="#CMMI12-3a" transform="translate(45.690477 0) scale(0.996264)"/>
       <use xlink:href="#CMR17-32" transform="translate(72.787654 0) scale(0.996264)"/>
       <use xlink:href="#CMR17-35" transform="translate(118.478131 0) scale(0.996264)"/>
      </g>
     </g>
    </g>
    <g id="ytick_6">
     <g id="line2d_12">
      <path d="M 76.24014 131.883551 
L 702.72 131.883551 
" clip-path="url(#pbd8701ace6)" style="fill: none; stroke: #cccccc; stroke-linecap: round"/>
     </g>
     <g id="text_13">
      <!-- $\mathdefault{0.30}$ -->
      <g style="fill: #262626" transform="translate(38.99263 137.418345) scale(0.16 -0.16)">
       <defs>
        <path id="CMR17-33" d="M 1414 2157 
C 1984 2157 2234 1662 2234 1090 
C 2234 320 1824 25 1453 25 
C 1114 25 563 194 390 693 
C 422 680 454 680 486 680 
C 640 680 755 782 755 948 
C 755 1133 614 1216 486 1216 
C 378 1216 211 1165 211 926 
C 211 335 787 -128 1466 -128 
C 2176 -128 2720 430 2720 1085 
C 2720 1707 2208 2157 1600 2227 
C 2086 2328 2554 2756 2554 3329 
C 2554 3820 2048 4179 1472 4179 
C 890 4179 378 3829 378 3329 
C 378 3110 544 3072 627 3072 
C 762 3072 877 3155 877 3321 
C 877 3486 762 3569 627 3569 
C 602 3569 570 3569 544 3557 
C 730 3959 1235 4032 1459 4032 
C 1683 4032 2106 3925 2106 3320 
C 2106 3143 2080 2828 1862 2550 
C 1670 2304 1453 2304 1242 2284 
C 1210 2284 1062 2269 1037 2269 
C 992 2263 966 2257 966 2208 
C 966 2163 973 2157 1101 2157 
L 1414 2157 
z
" transform="scale(0.015625)"/>
       </defs>
       <use xlink:href="#CMR17-30" transform="scale(0.996264)"/>
       <use xlink:href="#CMMI12-3a" transform="translate(45.690477 0) scale(0.996264)"/>
       <use xlink:href="#CMR17-33" transform="translate(72.787654 0) scale(0.996264)"/>
       <use xlink:href="#CMR17-30" transform="translate(118.478131 0) scale(0.996264)"/>
      </g>
     </g>
    </g>
    <g id="ytick_7">
     <g id="line2d_13">
      <path d="M 76.24014 63.389915 
L 702.72 63.389915 
" clip-path="url(#pbd8701ace6)" style="fill: none; stroke: #cccccc; stroke-linecap: round"/>
     </g>
     <g id="text_14">
      <!-- $\mathdefault{0.35}$ -->
      <g style="fill: #262626" transform="translate(38.99263 68.92471) scale(0.16 -0.16)">
       <use xlink:href="#CMR17-30" transform="scale(0.996264)"/>
       <use xlink:href="#CMMI12-3a" transform="translate(45.690477 0) scale(0.996264)"/>
       <use xlink:href="#CMR17-33" transform="translate(72.787654 0) scale(0.996264)"/>
       <use xlink:href="#CMR17-35" transform="translate(118.478131 0) scale(0.996264)"/>
      </g>
     </g>
    </g>
    <g id="text_15">
     <!-- MSE -->
     <g style="fill: #262626" transform="translate(31.116997 285.126006) rotate(-90) scale(0.2 -0.2)">
      <defs>
       <path id="CMR17-4d" d="M 1338 4224 
C 1299 4320 1293 4320 1158 4320 
L 339 4320 
L 339 4160 
C 781 4160 851 4160 851 3875 
L 851 610 
C 851 451 851 153 339 153 
L 339 -13 
C 486 0 755 0 915 0 
C 1075 0 1344 0 1491 -13 
L 1491 153 
C 979 153 979 451 979 610 
L 979 4135 
L 986 4135 
L 2490 89 
C 2515 25 2528 -13 2579 -13 
C 2630 -13 2643 25 2669 89 
L 4186 4166 
L 4192 4166 
L 4192 438 
C 4192 153 4122 153 3680 153 
L 3680 -13 
C 3853 0 4198 0 4384 0 
C 4570 0 4922 0 5094 -13 
L 5094 153 
C 4653 153 4582 153 4582 438 
L 4582 3875 
C 4582 4160 4653 4160 5094 4160 
L 5094 4320 
L 4282 4320 
C 4147 4320 4141 4314 4102 4218 
L 2720 502 
L 1338 4224 
z
" transform="scale(0.015625)"/>
       <path id="CMR17-45" d="M 3885 1615 
L 3770 1615 
C 3629 676 3546 166 2419 166 
L 1530 166 
C 1274 166 1261 197 1261 414 
L 1261 2176 
L 1862 2176 
C 2464 2176 2522 1960 2522 1430 
L 2637 1430 
L 2637 3081 
L 2522 3081 
C 2522 2557 2464 2342 1862 2342 
L 1261 2342 
L 1261 3913 
C 1261 4128 1274 4160 1530 4160 
L 2406 4160 
C 3398 4160 3514 3769 3603 2929 
L 3718 2929 
L 3565 4325 
L 326 4325 
L 326 4160 
C 768 4160 838 4160 838 3874 
L 838 451 
C 838 166 768 166 326 166 
L 326 0 
L 3654 0 
L 3885 1615 
z
" transform="scale(0.015625)"/>
      </defs>
      <use xlink:href="#CMR17-4d" transform="scale(0.996264)"/>
      <use xlink:href="#CMR17-53" transform="translate(84.686941 0) scale(0.996264)"/>
      <use xlink:href="#CMR17-45" transform="translate(135.58231 0) scale(0.996264)"/>
     </g>
    </g>
   </g>
   <g id="PolyCollection_1">
    <defs>
     <path id="m2bfbc90e41" d="M 104.716497 -226.306689 
L 104.716497 -176.03236 
L 110.469296 -144.799262 
L 116.222096 -136.854001 
L 121.974895 -136.306052 
L 127.727695 -135.210153 
L 133.480494 -132.88137 
L 139.233294 -131.511497 
L 144.986093 -130.963548 
L 150.738893 -131.922459 
L 156.491692 -116.031936 
L 162.244492 -119.31963 
L 167.997291 -125.484057 
L 173.75009 -118.497706 
L 179.50289 -120.689503 
L 185.255689 -115.894948 
L 191.008489 -115.483986 
L 196.761288 -115.346999 
L 202.514088 -114.662063 
L 208.266887 -116.168923 
L 214.019687 -115.620974 
L 219.772486 -115.073025 
L 225.525285 -110.27847 
L 231.278085 -101.785259 
L 237.030884 -94.798909 
L 242.783684 -91.374227 
L 248.536483 -96.990705 
L 254.289283 -98.086603 
L 260.042082 -102.607183 
L 265.794882 -116.579885 
L 271.547681 -116.579885 
L 277.300481 -116.716872 
L 283.05328 -114.662063 
L 288.806079 -114.79905 
L 294.558879 -114.525076 
L 300.311678 -113.840139 
L 306.064478 -93.292049 
L 311.817277 -89.18243 
L 317.570077 -89.045443 
L 323.322876 -99.593463 
L 329.075676 -88.634481 
L 334.828475 -89.18243 
L 340.581275 -92.607112 
L 346.334074 -94.25096 
L 352.086873 -93.976985 
L 357.839673 -90.826278 
L 363.592472 -92.333138 
L 369.345272 -88.086532 
L 375.098071 -86.031723 
L 380.850871 -86.031723 
L 386.60367 -85.2098 
L 392.35647 -453.979533 
L 398.109269 -415.212135 
L 403.862068 -387.403719 
L 409.614868 -376.30775 
L 415.367667 -369.732361 
L 421.120467 -355.75966 
L 426.873266 -330.006053 
L 432.626066 -279.183775 
L 438.378865 -239.594454 
L 444.131665 -240.416377 
L 449.884464 -247.128754 
L 455.637264 -218.498414 
L 461.390063 -214.936745 
L 467.142862 -213.566872 
L 472.895662 -212.197 
L 478.648461 -219.7313 
L 484.401261 -214.936745 
L 490.15406 -212.607962 
L 495.90686 -217.950465 
L 501.659659 -217.402516 
L 507.412459 -198.909234 
L 513.165258 -197.1284 
L 518.918058 -176.443322 
L 524.670857 -169.867933 
L 530.423656 -186.169418 
L 536.176456 -207.128471 
L 541.929255 -197.539362 
L 547.682055 -217.676491 
L 553.434854 -218.22444 
L 559.187654 -215.21072 
L 564.940453 -203.977763 
L 570.693253 -199.868145 
L 576.446052 -203.977763 
L 582.198851 -201.375005 
L 587.951651 -196.306476 
L 593.70445 -197.676349 
L 599.45725 -204.936674 
L 605.210049 -193.840705 
L 610.962849 -186.58038 
L 616.715648 -183.155698 
L 622.468448 -177.813195 
L 628.221247 -176.580309 
L 633.974047 -176.717297 
L 639.726846 -176.443322 
L 645.479645 -181.785826 
L 651.232445 -187.539291 
L 656.985244 -186.169418 
L 662.738044 -187.265316 
L 668.490843 -210.827127 
L 674.243643 -210.827127 
L 674.243643 -496.856548 
L 674.243643 -496.856548 
L 668.490843 -496.719561 
L 662.738044 -493.842829 
L 656.985244 -493.705841 
L 651.232445 -501.103154 
L 645.479645 -500.966167 
L 639.726846 -500.829179 
L 633.974047 -500.829179 
L 628.221247 -491.925007 
L 622.468448 -489.048274 
L 616.715648 -482.472885 
L 610.962849 -482.74686 
L 605.210049 -486.71949 
L 599.45725 -488.637312 
L 593.70445 -489.185261 
L 587.951651 -489.459236 
L 582.198851 -497.952447 
L 576.446052 -493.294879 
L 570.693253 -494.938727 
L 564.940453 -493.979816 
L 559.187654 -495.349689 
L 553.434854 -500.829179 
L 547.682055 -500.692192 
L 541.929255 -505.486747 
L 536.176456 -503.705912 
L 530.423656 -506.034696 
L 524.670857 -507.267581 
L 518.918058 -508.089505 
L 513.165258 -515.212843 
L 507.412459 -516.171754 
L 501.659659 -514.253932 
L 495.90686 -512.747072 
L 490.15406 -512.199123 
L 484.401261 -522.473168 
L 478.648461 -511.788161 
L 472.895662 -513.432008 
L 467.142862 -513.432008 
L 461.390063 -513.568996 
L 455.637264 -513.295021 
L 449.884464 -516.719703 
L 444.131665 -530.281443 
L 438.378865 -530.281443 
L 432.626066 -525.760863 
L 426.873266 -526.034837 
L 421.120467 -523.021117 
L 415.367667 -517.404639 
L 409.614868 -518.36355 
L 403.862068 -518.36355 
L 398.109269 -523.980028 
L 392.35647 -534.391061 
L 386.60367 -185.484482 
L 380.850871 -187.950253 
L 375.098071 -186.306406 
L 369.345272 -186.306406 
L 363.592472 -186.717367 
L 357.839673 -186.58038 
L 352.086873 -195.210578 
L 346.334074 -195.62154 
L 340.581275 -196.854425 
L 334.828475 -196.443464 
L 329.075676 -196.443464 
L 323.322876 -196.443464 
L 317.570077 -196.443464 
L 311.817277 -196.443464 
L 306.064478 -196.580451 
L 300.311678 -192.333845 
L 294.558879 -185.758456 
L 288.806079 -185.895444 
L 283.05328 -186.032431 
L 277.300481 -191.237947 
L 271.547681 -193.566731 
L 265.794882 -193.566731 
L 260.042082 -193.566731 
L 254.289283 -186.443393 
L 248.536483 -188.224227 
L 242.783684 -193.977693 
L 237.030884 -193.429744 
L 231.278085 -190.416024 
L 225.525285 -190.826985 
L 219.772486 -187.402304 
L 214.019687 -187.402304 
L 208.266887 -187.402304 
L 202.514088 -187.402304 
L 196.761288 -187.402304 
L 191.008489 -187.402304 
L 185.255689 -187.402304 
L 179.50289 -187.402304 
L 173.75009 -187.402304 
L 167.997291 -187.402304 
L 162.244492 -187.402304 
L 156.491692 -187.402304 
L 150.738893 -195.758527 
L 144.986093 -188.361215 
L 139.233294 -203.429814 
L 133.480494 -189.320125 
L 127.727695 -192.881795 
L 121.974895 -201.101031 
L 116.222096 -200.005133 
L 110.469296 -190.279036 
L 104.716497 -226.306689 
z
" style="stroke: #ffffff; stroke-opacity: 0.2"/>
    </defs>
    <g clip-path="url(#pbd8701ace6)">
     <use xlink:href="#m2bfbc90e41" x="0" y="576" style="fill: #4c72b0; fill-opacity: 0.2; stroke: #ffffff; stroke-opacity: 0.2"/>
    </g>
   </g>
   <g id="PolyCollection_2">
    <defs>
     <path id="me4b47f37e9" d="M 104.716497 -207.539432 
L 104.716497 -178.635118 
L 110.469296 -156.44318 
L 116.222096 -138.771823 
L 121.974895 -133.018357 
L 127.727695 -117.538796 
L 133.480494 -116.716872 
L 139.233294 -116.853859 
L 144.986093 -116.442897 
L 150.738893 -115.894948 
L 156.491692 -115.483986 
L 162.244492 -115.483986 
L 167.997291 -114.251101 
L 173.75009 -114.251101 
L 179.50289 -107.26475 
L 185.255689 -107.538725 
L 191.008489 -108.497636 
L 196.761288 -108.223661 
L 202.514088 -108.223661 
L 208.266887 -109.593534 
L 214.019687 -109.319559 
L 219.772486 -110.552445 
L 225.525285 -109.456547 
L 231.278085 -105.75789 
L 237.030884 -105.75789 
L 242.783684 -106.579814 
L 248.536483 -108.360648 
L 254.289283 -97.401667 
L 260.042082 -98.908527 
L 265.794882 -96.990705 
L 271.547681 -98.771539 
L 277.300481 -101.374298 
L 283.05328 -97.401667 
L 288.806079 -93.70301 
L 294.558879 -89.73038 
L 300.311678 -89.73038 
L 306.064478 -93.292049 
L 311.817277 -99.456476 
L 317.570077 -94.25096 
L 323.322876 -97.538654 
L 329.075676 -108.086674 
L 334.828475 -103.703081 
L 340.581275 -101.23731 
L 346.334074 -109.319559 
L 352.086873 -109.182572 
L 357.839673 -106.442827 
L 363.592472 -106.168852 
L 369.345272 -103.977056 
L 375.098071 -100.004425 
L 380.850871 -100.141412 
L 386.60367 -100.963336 
L 392.35647 -447.815106 
L 398.109269 -438.225997 
L 403.862068 -361.376138 
L 409.614868 -350.554143 
L 415.367667 -348.088372 
L 421.120467 -338.636251 
L 426.873266 -320.964893 
L 432.626066 -314.389504 
L 438.378865 -295.896222 
L 444.131665 -283.293393 
L 449.884464 -270.279603 
L 455.637264 -273.43031 
L 461.390063 -288.087948 
L 467.142862 -232.471116 
L 472.895662 -228.087523 
L 478.648461 -221.786109 
L 484.401261 -217.950465 
L 490.15406 -213.566872 
L 495.90686 -213.292898 
L 501.659659 -199.183209 
L 507.412459 -200.690069 
L 513.165258 -201.922954 
L 518.918058 -228.087523 
L 524.670857 -228.087523 
L 530.423656 -228.909447 
L 536.176456 -241.375288 
L 541.929255 -241.923237 
L 547.682055 -241.512276 
L 553.434854 -241.101314 
L 559.187654 -232.608103 
L 564.940453 -266.306972 
L 570.693253 -275.211144 
L 576.446052 -291.51263 
L 582.198851 -283.841342 
L 587.951651 -299.320904 
L 593.70445 -264.526137 
L 599.45725 -271.101526 
L 605.210049 -243.704072 
L 610.962849 -246.854779 
L 616.715648 -225.073803 
L 622.468448 -202.470903 
L 628.221247 -212.881936 
L 633.974047 -214.525783 
L 639.726846 -211.101102 
L 645.479645 -210.964114 
L 651.232445 -223.840918 
L 656.985244 -215.758669 
L 662.738044 -217.128541 
L 668.490843 -218.772389 
L 674.243643 -207.539432 
L 674.243643 -479.870127 
L 674.243643 -479.870127 
L 668.490843 -480.007114 
L 662.738044 -480.144101 
L 656.985244 -482.061923 
L 651.232445 -484.116732 
L 645.479645 -483.979745 
L 639.726846 -489.048274 
L 633.974047 -489.459236 
L 628.221247 -507.541556 
L 622.468448 -496.445587 
L 616.715648 -496.445587 
L 610.962849 -497.952447 
L 605.210049 -510.418288 
L 599.45725 -516.034766 
L 593.70445 -512.473097 
L 587.951651 -512.473097 
L 582.198851 -512.33611 
L 576.446052 -512.33611 
L 570.693253 -512.33611 
L 564.940453 -512.33611 
L 559.187654 -511.240212 
L 553.434854 -513.158034 
L 547.682055 -516.034766 
L 541.929255 -512.747072 
L 536.176456 -513.158034 
L 530.423656 -512.199123 
L 524.670857 -510.144314 
L 518.918058 -506.171683 
L 513.165258 -506.30867 
L 507.412459 -506.171683 
L 501.659659 -505.897708 
L 495.90686 -505.897708 
L 490.15406 -505.897708 
L 484.401261 -505.897708 
L 478.648461 -505.897708 
L 472.895662 -512.610085 
L 467.142862 -510.555276 
L 461.390063 -516.034766 
L 455.637264 -515.623805 
L 449.884464 -515.212843 
L 444.131665 -515.075856 
L 438.378865 -516.85669 
L 432.626066 -516.85669 
L 426.873266 -516.85669 
L 421.120467 -516.445728 
L 415.367667 -517.267652 
L 409.614868 -516.993677 
L 403.862068 -516.582715 
L 398.109269 -520.007397 
L 392.35647 -517.952588 
L 386.60367 -181.511851 
L 380.850871 -180.415953 
L 375.098071 -179.731017 
L 369.345272 -179.183067 
L 363.592472 -177.53922 
L 357.839673 -179.183067 
L 352.086873 -178.635118 
L 346.334074 -178.087169 
L 340.581275 -177.53922 
L 334.828475 -179.594029 
L 329.075676 -179.183067 
L 323.322876 -179.457042 
L 317.570077 -181.785826 
L 311.817277 -184.799546 
L 306.064478 -184.525571 
L 300.311678 -187.128329 
L 294.558879 -193.977693 
L 288.806079 -192.881795 
L 283.05328 -192.881795 
L 277.300481 -186.169418 
L 271.547681 -184.799546 
L 265.794882 -184.799546 
L 260.042082 -184.799546 
L 254.289283 -185.484482 
L 248.536483 -187.676278 
L 242.783684 -185.621469 
L 237.030884 -186.169418 
L 231.278085 -185.07352 
L 225.525285 -184.799546 
L 219.772486 -184.799546 
L 214.019687 -186.306406 
L 208.266887 -185.484482 
L 202.514088 -186.717367 
L 196.761288 -185.895444 
L 191.008489 -186.717367 
L 185.255689 -184.662558 
L 179.50289 -189.868075 
L 173.75009 -184.936533 
L 167.997291 -187.265316 
L 162.244492 -195.073591 
L 156.491692 -187.676278 
L 150.738893 -187.676278 
L 144.986093 -191.10096 
L 139.233294 -192.333845 
L 133.480494 -188.361215 
L 127.727695 -188.361215 
L 121.974895 -188.361215 
L 116.222096 -192.60782 
L 110.469296 -200.005133 
L 104.716497 -207.539432 
z
" style="stroke: #ffffff; stroke-opacity: 0.2"/>
    </defs>
    <g clip-path="url(#pbd8701ace6)">
     <use xlink:href="#me4b47f37e9" x="0" y="576" style="fill: #dd8452; fill-opacity: 0.2; stroke: #ffffff; stroke-opacity: 0.2"/>
    </g>
   </g>
   <g id="PolyCollection_3">
    <defs>
     <path id="mba307e3fe7" d="M 104.716497 -203.15584 
L 104.716497 -164.662417 
L 110.469296 -152.881511 
L 116.222096 -152.333562 
L 121.974895 -152.47055 
L 127.727695 -151.100677 
L 133.480494 -138.223873 
L 139.233294 -136.306052 
L 144.986093 -135.484128 
L 150.738893 -133.155344 
L 156.491692 -132.744383 
L 162.244492 -132.744383 
L 167.997291 -120.552516 
L 173.75009 -116.579885 
L 179.50289 -114.79905 
L 185.255689 -115.483986 
L 191.008489 -114.251101 
L 196.761288 -114.251101 
L 202.514088 -112.470267 
L 208.266887 -113.018216 
L 214.019687 -114.114114 
L 219.772486 -117.264821 
L 225.525285 -120.552516 
L 231.278085 -115.073025 
L 237.030884 -111.78533 
L 242.783684 -111.648343 
L 248.536483 -115.620974 
L 254.289283 -117.538796 
L 260.042082 -117.949757 
L 265.794882 -121.785401 
L 271.547681 -122.059375 
L 277.300481 -125.34707 
L 283.05328 -114.388088 
L 288.806079 -113.977127 
L 294.558879 -113.840139 
L 300.311678 -113.155203 
L 306.064478 -118.223732 
L 311.817277 -120.141554 
L 317.570077 -102.059234 
L 323.322876 -99.319489 
L 329.075676 -98.22359 
L 334.828475 -99.73045 
L 340.581275 -94.25096 
L 346.334074 -92.470125 
L 352.086873 -90.004354 
L 357.839673 -96.579743 
L 363.592472 -100.141412 
L 369.345272 -105.346928 
L 375.098071 -108.086674 
L 380.850871 -107.675712 
L 386.60367 -106.031865 
L 392.35647 -464.527553 
L 398.109269 -418.225855 
L 403.862068 -407.814822 
L 409.614868 -385.759872 
L 415.367667 -374.526916 
L 421.120467 -356.307609 
L 426.873266 -357.540494 
L 432.626066 -344.115742 
L 438.378865 -343.156831 
L 444.131665 -342.608882 
L 449.884464 -338.910225 
L 455.637264 -321.238867 
L 461.390063 -313.56758 
L 467.142862 -314.937453 
L 472.895662 -314.937453 
L 478.648461 -307.677127 
L 484.401261 -302.197637 
L 490.15406 -282.060508 
L 495.90686 -283.567368 
L 501.659659 -277.813902 
L 507.412459 -269.183704 
L 513.165258 -272.060437 
L 518.918058 -273.978259 
L 524.670857 -269.731653 
L 530.423656 -270.142615 
L 536.176456 -272.197424 
L 541.929255 -272.197424 
L 547.682055 -253.704143 
L 553.434854 -257.265812 
L 559.187654 -256.443888 
L 564.940453 -254.937028 
L 570.693253 -225.21079 
L 576.446052 -219.594312 
L 582.198851 -222.882007 
L 587.951651 -227.813549 
L 593.70445 -240.142403 
L 599.45725 -253.978117 
L 605.210049 -251.923308 
L 610.962849 -259.320621 
L 616.715648 -236.169772 
L 622.468448 -223.840918 
L 628.221247 -237.813619 
L 633.974047 -230.142332 
L 639.726846 -249.183563 
L 645.479645 -254.252092 
L 651.232445 -272.745373 
L 656.985244 -273.43031 
L 662.738044 -272.197424 
L 668.490843 -263.019277 
L 674.243643 -271.375501 
L 674.243643 -515.34983 
L 674.243643 -515.34983 
L 668.490843 -518.226563 
L 662.738044 -518.226563 
L 656.985244 -514.253932 
L 651.232445 -510.418288 
L 645.479645 -510.418288 
L 639.726846 -504.253861 
L 633.974047 -495.76065 
L 628.221247 -497.541485 
L 622.468448 -496.993536 
L 616.715648 -496.993536 
L 610.962849 -495.212701 
L 605.210049 -494.801739 
L 599.45725 -494.801739 
L 593.70445 -494.801739 
L 587.951651 -495.212701 
L 582.198851 -494.116803 
L 576.446052 -490.418147 
L 570.693253 -490.418147 
L 564.940453 -490.281159 
L 559.187654 -491.651032 
L 553.434854 -491.514045 
L 547.682055 -478.911216 
L 541.929255 -479.185191 
L 536.176456 -481.787949 
L 530.423656 -511.240212 
L 524.670857 -496.445587 
L 518.918058 -494.390778 
L 513.165258 -494.527765 
L 507.412459 -494.25379 
L 501.659659 -494.390778 
L 495.90686 -494.390778 
L 490.15406 -494.390778 
L 484.401261 -500.28123 
L 478.648461 -510.281301 
L 472.895662 -510.281301 
L 467.142862 -511.651174 
L 461.390063 -510.692263 
L 455.637264 -512.610085 
L 449.884464 -513.705983 
L 444.131665 -515.623805 
L 438.378865 -524.938939 
L 432.626066 -533.158175 
L 426.873266 -528.363621 
L 421.120467 -527.815672 
L 415.367667 -527.130735 
L 409.614868 -528.637595 
L 403.862068 -534.665035 
L 398.109269 -534.93901 
L 392.35647 -536.171895 
L 386.60367 -185.347495 
L 380.850871 -184.936533 
L 375.098071 -185.347495 
L 369.345272 -184.388584 
L 363.592472 -186.032431 
L 357.839673 -186.032431 
L 352.086873 -185.210507 
L 346.334074 -184.662558 
L 340.581275 -184.662558 
L 334.828475 -184.799546 
L 329.075676 -185.347495 
L 323.322876 -184.936533 
L 317.570077 -183.56666 
L 311.817277 -191.511922 
L 306.064478 -199.457184 
L 300.311678 -183.155698 
L 294.558879 -183.292686 
L 288.806079 -182.333775 
L 283.05328 -183.56666 
L 277.300481 -183.56666 
L 271.547681 -183.56666 
L 265.794882 -183.56666 
L 260.042082 -183.56666 
L 254.289283 -184.525571 
L 248.536483 -183.56666 
L 242.783684 -183.292686 
L 237.030884 -184.799546 
L 231.278085 -187.676278 
L 225.525285 -187.813265 
L 219.772486 -191.922884 
L 214.019687 -184.662558 
L 208.266887 -182.333775 
L 202.514088 -182.333775 
L 196.761288 -191.374935 
L 191.008489 -184.251596 
L 185.255689 -184.936533 
L 179.50289 -185.621469 
L 173.75009 -185.895444 
L 167.997291 -186.58038 
L 162.244492 -189.457113 
L 156.491692 -192.059871 
L 150.738893 -187.676278 
L 144.986093 -187.950253 
L 139.233294 -189.457113 
L 133.480494 -191.237947 
L 127.727695 -193.703718 
L 121.974895 -197.265387 
L 116.222096 -194.388654 
L 110.469296 -194.936604 
L 104.716497 -203.15584 
z
" style="stroke: #ffffff; stroke-opacity: 0.2"/>
    </defs>
    <g clip-path="url(#pbd8701ace6)">
     <use xlink:href="#mba307e3fe7" x="0" y="576" style="fill: #55a868; fill-opacity: 0.2; stroke: #ffffff; stroke-opacity: 0.2"/>
    </g>
   </g>
   <g id="line2d_14">
    <path d="M 104.716497 380.104486 
L 110.469296 389.830582 
L 116.222096 392.090872 
L 121.974895 392.912795 
L 127.727695 393.18677 
L 133.480494 393.597732 
L 139.233294 393.323757 
L 144.986093 398.666261 
L 150.738893 399.693665 
L 156.491692 401.269019 
L 162.244492 401.816968 
L 167.997291 402.98136 
L 173.75009 403.323828 
L 179.50289 407.227965 
L 185.255689 408.118382 
L 191.008489 412.844443 
L 196.761288 415.721176 
L 202.514088 416.200631 
L 208.266887 416.269125 
L 214.019687 414.008835 
L 219.772486 414.28281 
L 225.525285 413.803354 
L 231.278085 414.488291 
L 237.030884 416.132138 
L 242.783684 417.091049 
L 248.536483 418.186947 
L 254.289283 416.063644 
L 260.042082 416.611593 
L 265.794882 423.940412 
L 271.547681 421.474641 
L 277.300481 418.04996 
L 283.05328 424.077399 
L 288.806079 421.474641 
L 294.558879 420.995186 
L 300.311678 426.200702 
L 306.064478 424.762336 
L 311.817277 424.899323 
L 317.570077 427.228107 
L 323.322876 425.78974 
L 329.075676 421.337654 
L 334.828475 420.652718 
L 340.581275 422.159578 
L 346.334074 414.899252 
L 352.086873 421.26916 
L 357.839673 419.967781 
L 363.592472 418.118453 
L 369.345272 422.159578 
L 375.098071 424.899323 
L 380.850871 429.214422 
L 386.60367 424.693842 
L 392.35647 83.321563 
L 398.109269 94.280545 
L 403.862068 101.746351 
L 409.614868 98.184682 
L 415.367667 117.568381 
L 421.120467 126.678034 
L 426.873266 135.308233 
L 432.626066 138.595927 
L 438.378865 155.78783 
L 444.131665 153.73302 
L 449.884464 153.253565 
L 455.637264 151.746705 
L 461.390063 154.143982 
L 467.142862 177.363325 
L 472.895662 172.294796 
L 478.648461 201.815553 
L 484.401261 206.610107 
L 490.15406 224.349959 
L 495.90686 215.171811 
L 501.659659 222.50063 
L 507.412459 224.418452 
L 513.165258 228.185602 
L 518.918058 231.404803 
L 524.670857 241.199393 
L 530.423656 243.870645 
L 536.176456 243.459683 
L 541.929255 244.487087 
L 547.682055 252.63783 
L 553.434854 256.336486 
L 559.187654 265.857102 
L 564.940453 268.322873 
L 570.693253 263.665305 
L 576.446052 261.815977 
L 582.198851 254.14469 
L 587.951651 260.583092 
L 593.70445 256.884435 
L 599.45725 248.528212 
L 605.210049 250.172059 
L 610.962849 250.514527 
L 616.715648 247.911769 
L 622.468448 241.33638 
L 628.221247 238.733622 
L 633.974047 240.719937 
L 639.726846 238.185673 
L 645.479645 236.884294 
L 651.232445 234.760991 
L 656.985244 255.857031 
L 662.738044 246.336416 
L 668.490843 251.610425 
L 674.243643 252.911805 
" clip-path="url(#pbd8701ace6)" style="fill: none; stroke: #4c72b0; stroke-width: 2; stroke-linecap: round"/>
   </g>
   <g id="line2d_15">
    <path d="M 104.716497 386.268913 
L 110.469296 390.584012 
L 116.222096 392.981289 
L 121.974895 394.145681 
L 127.727695 394.488149 
L 133.480494 397.433375 
L 139.233294 396.268983 
L 144.986093 397.638856 
L 150.738893 397.638856 
L 156.491692 398.940235 
L 162.244492 399.96764 
L 167.997291 400.310108 
L 173.75009 402.022449 
L 179.50289 401.885462 
L 185.255689 402.296423 
L 191.008489 402.638892 
L 196.761288 401.816968 
L 202.514088 405.378637 
L 208.266887 406.611522 
L 214.019687 407.296459 
L 219.772486 407.022484 
L 225.525285 406.269054 
L 231.278085 410.036204 
L 237.030884 414.899252 
L 242.783684 413.803354 
L 248.536483 413.323899 
L 254.289283 413.734861 
L 260.042082 418.04996 
L 265.794882 421.611629 
L 271.547681 424.419868 
L 277.300481 423.186982 
L 283.05328 424.145893 
L 288.806079 422.159578 
L 294.558879 425.78974 
L 300.311678 423.118489 
L 306.064478 423.940412 
L 311.817277 423.803425 
L 317.570077 417.091049 
L 323.322876 425.104804 
L 329.075676 429.214422 
L 334.828475 438.392569 
L 340.581275 438.872025 
L 346.334074 438.529557 
L 352.086873 438.803531 
L 357.839673 434.351445 
L 363.592472 435.447343 
L 369.345272 439.693948 
L 375.098071 439.419974 
L 380.850871 439.419974 
L 386.60367 437.913114 
L 392.35647 81.061273 
L 398.109269 83.595538 
L 403.862068 87.362688 
L 409.614868 82.979095 
L 415.367667 83.869512 
L 421.120467 90.376408 
L 426.873266 94.143558 
L 432.626066 100.992921 
L 438.378865 102.362794 
L 444.131665 103.390198 
L 449.884464 111.951903 
L 455.637264 109.623119 
L 461.390063 126.061592 
L 467.142862 137.294548 
L 472.895662 132.910955 
L 478.648461 138.527433 
L 484.401261 145.99324 
L 490.15406 169.486557 
L 495.90686 182.36336 
L 501.659659 190.240128 
L 507.412459 207.432031 
L 513.165258 207.706005 
L 518.918058 196.815517 
L 524.670857 196.541543 
L 530.423656 195.719619 
L 536.176456 195.514138 
L 541.929255 194.212759 
L 547.682055 194.623721 
L 553.434854 196.336062 
L 559.187654 190.377115 
L 564.940453 180.445538 
L 570.693253 178.048261 
L 576.446052 174.212617 
L 582.198851 179.623615 
L 587.951651 181.678424 
L 593.70445 184.760637 
L 599.45725 186.13051 
L 605.210049 184.760637 
L 610.962849 190.240128 
L 616.715648 194.144265 
L 622.468448 195.103176 
L 628.221247 211.473155 
L 633.974047 211.541649 
L 639.726846 202.295008 
L 645.479645 196.473049 
L 651.232445 184.555156 
L 656.985244 199.555263 
L 662.738044 197.774428 
L 668.490843 194.486734 
L 674.243643 197.500454 
" clip-path="url(#pbd8701ace6)" style="fill: none; stroke: #dd8452; stroke-width: 2; stroke-linecap: round"/>
   </g>
   <g id="line2d_16">
    <path d="M 104.716497 383.666155 
L 110.469296 388.66619 
L 116.222096 390.994974 
L 121.974895 391.748404 
L 127.727695 392.638821 
L 133.480494 394.69363 
L 139.233294 393.9402 
L 144.986093 395.44706 
L 150.738893 396.474464 
L 156.491692 397.844337 
L 162.244492 398.597767 
L 167.997291 399.625172 
L 173.75009 399.282703 
L 179.50289 397.570363 
L 185.255689 397.501869 
L 191.008489 399.693665 
L 196.761288 400.104627 
L 202.514088 401.953955 
L 208.266887 400.447095 
L 214.019687 401.063538 
L 219.772486 401.542993 
L 225.525285 402.090942 
L 231.278085 404.625207 
L 237.030884 404.899182 
L 242.783684 402.090942 
L 248.536483 402.707385 
L 254.289283 402.912866 
L 260.042082 404.693701 
L 265.794882 406.611522 
L 271.547681 404.762194 
L 277.300481 406.406042 
L 283.05328 406.269054 
L 288.806079 406.063573 
L 294.558879 405.173156 
L 300.311678 406.74851 
L 306.064478 407.570433 
L 311.817277 408.049889 
L 317.570077 408.118382 
L 323.322876 407.981395 
L 329.075676 406.885497 
L 334.828475 404.351232 
L 340.581275 402.090942 
L 346.334074 403.186841 
L 352.086873 405.24165 
L 357.839673 405.652612 
L 363.592472 405.378637 
L 369.345272 405.310143 
L 375.098071 405.24165 
L 380.850871 404.214245 
L 386.60367 406.269054 
L 392.35647 67.978989 
L 398.109269 75.513289 
L 403.862068 88.52708 
L 409.614868 84.622942 
L 415.367667 86.061309 
L 421.120467 85.170891 
L 426.873266 89.075029 
L 432.626066 90.23942 
L 438.378865 103.664173 
L 444.131665 109.143664 
L 449.884464 114.760142 
L 455.637264 133.116436 
L 461.390063 162.705687 
L 467.142862 166.472837 
L 472.895662 172.911238 
L 478.648461 179.760602 
L 484.401261 180.651019 
L 490.15406 181.60993 
L 495.90686 180.308551 
L 501.659659 178.870185 
L 507.412459 173.870149 
L 513.165258 181.267462 
L 518.918058 178.664704 
L 524.670857 184.555156 
L 530.423656 181.678424 
L 536.176456 183.048296 
L 541.929255 185.651055 
L 547.682055 186.472978 
L 553.434854 187.842851 
L 559.187654 200.925135 
L 564.940453 192.363431 
L 570.693253 198.459364 
L 576.446052 193.116861 
L 582.198851 212.089598 
L 587.951651 210.308763 
L 593.70445 209.555333 
L 599.45725 190.034647 
L 605.210049 189.555192 
L 610.962849 190.925065 
L 616.715648 189.692179 
L 622.468448 206.47312 
L 628.221247 209.692321 
L 633.974047 207.021069 
L 639.726846 211.74713 
L 645.479645 197.842922 
L 651.232445 216.473191 
L 656.985244 224.555439 
L 662.738044 220.24034 
L 668.490843 220.651302 
L 674.243643 222.706111 
" clip-path="url(#pbd8701ace6)" style="fill: none; stroke: #55a868; stroke-width: 2; stroke-linecap: round"/>
   </g>
   <g id="patch_3">
    <path d="M 76.24014 513.338305 
L 76.24014 17.28 
" style="fill: none; stroke: #cccccc; stroke-width: 1.25; stroke-linejoin: miter; stroke-linecap: square"/>
   </g>
   <g id="patch_4">
    <path d="M 702.72 513.338305 
L 702.72 17.28 
" style="fill: none; stroke: #cccccc; stroke-width: 1.25; stroke-linejoin: miter; stroke-linecap: square"/>
   </g>
   <g id="patch_5">
    <path d="M 76.24014 513.338305 
L 702.72 513.338305 
" style="fill: none; stroke: #cccccc; stroke-width: 1.25; stroke-linejoin: miter; stroke-linecap: square"/>
   </g>
   <g id="patch_6">
    <path d="M 76.24014 17.28 
L 702.72 17.28 
" style="fill: none; stroke: #cccccc; stroke-width: 1.25; stroke-linejoin: miter; stroke-linecap: square"/>
   </g>
   <g id="legend_1">
    <g id="patch_7">
     <path d="M 90.24014 148.162063 
L 177.490536 148.162063 
Q 181.490536 148.162063 181.490536 144.162063 
L 181.490536 31.28 
Q 181.490536 27.28 177.490536 27.28 
L 90.24014 27.28 
Q 86.24014 27.28 86.24014 31.28 
L 86.24014 144.162063 
Q 86.24014 148.162063 90.24014 148.162063 
z
" style="fill: #ffffff; opacity: 0.8; stroke: #cccccc; stroke-linejoin: miter"/>
    </g>
    <g id="text_16">
     <!-- $\theta_{\mathrm{min}}$ -->
     <g style="fill: #262626" transform="translate(114.753254 51.884405) scale(0.24 -0.24)">
      <defs>
       <path id="CMMI12-12" d="M 2835 3200 
C 2835 3850 2630 4480 2106 4480 
C 1210 4480 256 2615 256 1216 
C 256 923 320 -64 992 -64 
C 1862 -64 2835 1756 2835 3200 
z
M 896 2304 
C 992 2679 1126 3214 1382 3665 
C 1594 4047 1818 4352 2099 4352 
C 2310 4352 2451 4174 2451 3564 
C 2451 3334 2432 3017 2246 2304 
L 896 2304 
z
M 2202 2113 
C 2042 1490 1907 1088 1677 687 
C 1491 363 1267 64 998 64 
C 800 64 640 217 640 846 
C 640 1260 742 1693 845 2113 
L 2202 2113 
z
" transform="scale(0.015625)"/>
       <path id="CMR17-6d" d="M 4326 1933 
C 4326 2252 4269 2790 3507 2790 
C 3072 2790 2771 2496 2656 2151 
L 2650 2151 
C 2573 2676 2195 2790 1837 2790 
C 1331 2790 1069 2400 973 2144 
L 966 2144 
L 966 2790 
L 211 2720 
L 211 2554 
C 589 2554 646 2515 646 2208 
L 646 428 
C 646 184 621 153 211 153 
L 211 -13 
C 365 0 646 0 813 0 
C 979 0 1267 0 1421 -13 
L 1421 153 
C 1011 153 986 178 986 428 
L 986 1658 
C 986 2247 1344 2688 1792 2688 
C 2266 2688 2317 2266 2317 1958 
L 2317 428 
C 2317 184 2291 153 1882 153 
L 1882 -13 
C 2035 0 2317 0 2483 0 
C 2650 0 2938 0 3091 -13 
L 3091 153 
C 2682 153 2656 178 2656 428 
L 2656 1658 
C 2656 2247 3014 2688 3462 2688 
C 3936 2688 3987 2266 3987 1958 
L 3987 428 
C 3987 184 3962 153 3552 153 
L 3552 -13 
C 3706 0 3987 0 4154 0 
C 4320 0 4608 0 4762 -13 
L 4762 153 
C 4352 153 4326 178 4326 428 
L 4326 1933 
z
" transform="scale(0.015625)"/>
       <path id="CMR17-69" d="M 992 3909 
C 992 4049 877 4170 730 4170 
C 589 4170 467 4056 467 3909 
C 467 3769 582 3648 730 3648 
C 870 3648 992 3763 992 3909 
z
M 243 2706 
L 243 2541 
C 602 2541 653 2502 653 2197 
L 653 427 
C 653 184 627 153 218 153 
L 218 -13 
C 371 0 646 0 806 0 
C 960 0 1222 0 1370 -13 
L 1370 153 
C 992 153 979 191 979 420 
L 979 2776 
L 243 2706 
z
" transform="scale(0.015625)"/>
       <path id="CMR17-6e" d="M 2656 1933 
C 2656 2259 2592 2790 1837 2790 
C 1331 2790 1069 2400 973 2144 
L 966 2144 
L 966 2790 
L 211 2720 
L 211 2554 
C 589 2554 646 2515 646 2208 
L 646 428 
C 646 184 621 153 211 153 
L 211 -13 
C 365 0 646 0 813 0 
C 979 0 1267 0 1421 -13 
L 1421 153 
C 1011 153 986 178 986 428 
L 986 1658 
C 986 2247 1344 2688 1792 2688 
C 2266 2688 2317 2266 2317 1958 
L 2317 428 
C 2317 184 2291 153 1882 153 
L 1882 -13 
C 2035 0 2317 0 2483 0 
C 2650 0 2938 0 3091 -13 
L 3091 153 
C 2682 153 2656 178 2656 428 
L 2656 1933 
z
" transform="scale(0.015625)"/>
      </defs>
      <use xlink:href="#CMMI12-12" transform="scale(0.996264)"/>
      <use xlink:href="#CMR17-6d" transform="translate(45.45979 -14.943915) scale(0.697382)"/>
      <use xlink:href="#CMR17-69" transform="translate(99.303257 -14.943915) scale(0.697382)"/>
      <use xlink:href="#CMR17-6e" transform="translate(116.712916 -14.943915) scale(0.697382)"/>
     </g>
    </g>
    <g id="line2d_17">
     <path d="M 94.24014 73.535163 
L 114.24014 73.535163 
L 134.24014 73.535163 
" style="fill: none; stroke: #4c72b0; stroke-width: 2; stroke-linecap: round"/>
    </g>
    <g id="text_17">
     <!-- 0.1 -->
     <g style="fill: #262626" transform="translate(150.24014 80.535163) scale(0.2 -0.2)">
      <defs>
       <path id="CMR17-2e" d="M 1062 261 
C 1062 420 934 522 800 522 
C 672 522 538 420 538 261 
C 538 102 666 0 800 0 
C 928 0 1062 102 1062 261 
z
" transform="scale(0.015625)"/>
      </defs>
      <use xlink:href="#CMR17-30" transform="scale(0.996264)"/>
      <use xlink:href="#CMR17-2e" transform="translate(45.690477 0) scale(0.996264)"/>
      <use xlink:href="#CMR17-31" transform="translate(70.561536 0) scale(0.996264)"/>
     </g>
    </g>
    <g id="line2d_18">
     <path d="M 94.24014 101.410796 
L 114.24014 101.410796 
L 134.24014 101.410796 
" style="fill: none; stroke: #dd8452; stroke-width: 2; stroke-linecap: round"/>
    </g>
    <g id="text_18">
     <!-- 0.2 -->
     <g style="fill: #262626" transform="translate(150.24014 108.410796) scale(0.2 -0.2)">
      <use xlink:href="#CMR17-30" transform="scale(0.996264)"/>
      <use xlink:href="#CMR17-2e" transform="translate(45.690477 0) scale(0.996264)"/>
      <use xlink:href="#CMR17-32" transform="translate(70.561536 0) scale(0.996264)"/>
     </g>
    </g>
    <g id="line2d_19">
     <path d="M 94.24014 129.28643 
L 114.24014 129.28643 
L 134.24014 129.28643 
" style="fill: none; stroke: #55a868; stroke-width: 2; stroke-linecap: round"/>
    </g>
    <g id="text_19">
     <!-- 0.3 -->
     <g style="fill: #262626" transform="translate(150.24014 136.28643) scale(0.2 -0.2)">
      <use xlink:href="#CMR17-30" transform="scale(0.996264)"/>
      <use xlink:href="#CMR17-2e" transform="translate(45.690477 0) scale(0.996264)"/>
      <use xlink:href="#CMR17-33" transform="translate(70.561536 0) scale(0.996264)"/>
     </g>
    </g>
   </g>
  </g>
 </g>
 <defs>
  <clipPath id="pbd8701ace6">
   <rect x="76.24014" y="17.28" width="626.47986" height="496.058305"/>
  </clipPath>
 </defs>
</svg>
