<?xml version="1.0" encoding="utf-8" standalone="no"?>
<!DOCTYPE svg PUBLIC "-//W3C//DTD SVG 1.1//EN"
  "http://www.w3.org/Graphics/SVG/1.1/DTD/svg11.dtd">
<svg xmlns:xlink="http://www.w3.org/1999/xlink" width="720pt" height="576pt" viewBox="0 0 720 576" xmlns="http://www.w3.org/2000/svg" version="1.1">
 <metadata>
  <rdf:RDF xmlns:dc="http://purl.org/dc/elements/1.1/" xmlns:cc="http://creativecommons.org/ns#" xmlns:rdf="http://www.w3.org/1999/02/22-rdf-syntax-ns#">
   <cc:Work>
    <dc:type rdf:resource="http://purl.org/dc/dcmitype/StillImage"/>
    <dc:date>2025-04-24T18:57:45.574837</dc:date>
    <dc:format>image/svg+xml</dc:format>
    <dc:creator>
     <cc:Agent>
      <dc:title>Matplotlib v3.9.2, https://matplotlib.org/</dc:title>
     </cc:Agent>
    </dc:creator>
   </cc:Work>
  </rdf:RDF>
 </metadata>
 <defs>
  <style type="text/css">*{stroke-linejoin: round; stroke-linecap: butt}</style>
 </defs>
 <g id="figure_1">
  <g id="patch_1">
   <path d="M 0 576 
L 720 576 
L 720 0 
L 0 0 
z
" style="fill: #ffffff"/>
  </g>
  <g id="axes_1">
   <g id="patch_2">
    <path d="M 99.405899 495.840956 
L 694.08 495.840956 
L 694.08 49.831226 
L 99.405899 49.831226 
z
" style="fill: #ffffff"/>
   </g>
   <g id="matplotlib.axis_1">
    <g id="xtick_1">
     <g id="line2d_1">
      <path d="M 126.43654 495.840956 
L 126.43654 49.831226 
" clip-path="url(#p13627557d6)" style="fill: none; stroke: #cccccc; stroke-linecap: round"/>
     </g>
     <g id="text_1">
      <!-- $\mathdefault{0}$ -->
      <g style="fill: #262626" transform="translate(121.410587 520.56165) scale(0.22 -0.22)">
       <defs>
        <path id="CMR17-30" d="M 2688 2025 
C 2688 2416 2682 3080 2413 3591 
C 2176 4039 1798 4198 1466 4198 
C 1158 4198 768 4058 525 3597 
C 269 3118 243 2524 243 2025 
C 243 1661 250 1106 448 619 
C 723 -39 1216 -128 1466 -128 
C 1760 -128 2208 -7 2470 600 
C 2662 1042 2688 1559 2688 2025 
z
M 1466 -26 
C 1056 -26 813 325 723 812 
C 653 1188 653 1738 653 2096 
C 653 2588 653 2997 736 3387 
C 858 3929 1216 4096 1466 4096 
C 1728 4096 2067 3923 2189 3400 
C 2272 3036 2278 2607 2278 2096 
C 2278 1680 2278 1169 2202 792 
C 2067 95 1690 -26 1466 -26 
z
" transform="scale(0.015625)"/>
       </defs>
       <use xlink:href="#CMR17-30" transform="scale(0.996264)"/>
      </g>
     </g>
    </g>
    <g id="xtick_2">
     <g id="line2d_2">
      <path d="M 235.651251 495.840956 
L 235.651251 49.831226 
" clip-path="url(#p13627557d6)" style="fill: none; stroke: #cccccc; stroke-linecap: round"/>
     </g>
     <g id="text_2">
      <!-- $\mathdefault{200}$ -->
      <g style="fill: #262626" transform="translate(220.573393 520.56165) scale(0.22 -0.22)">
       <defs>
        <path id="CMR17-32" d="M 2669 989 
L 2554 989 
C 2490 536 2438 459 2413 420 
C 2381 369 1920 369 1830 369 
L 602 369 
C 832 619 1280 1072 1824 1597 
C 2214 1967 2669 2402 2669 3035 
C 2669 3790 2067 4224 1395 4224 
C 691 4224 262 3604 262 3030 
C 262 2780 448 2748 525 2748 
C 589 2748 781 2787 781 3010 
C 781 3207 614 3264 525 3264 
C 486 3264 448 3258 422 3245 
C 544 3790 915 4058 1306 4058 
C 1862 4058 2227 3617 2227 3035 
C 2227 2479 1901 2000 1536 1584 
L 262 146 
L 262 0 
L 2515 0 
L 2669 989 
z
" transform="scale(0.015625)"/>
       </defs>
       <use xlink:href="#CMR17-32" transform="scale(0.996264)"/>
       <use xlink:href="#CMR17-30" transform="translate(45.690477 0) scale(0.996264)"/>
       <use xlink:href="#CMR17-30" transform="translate(91.380954 0) scale(0.996264)"/>
      </g>
     </g>
    </g>
    <g id="xtick_3">
     <g id="line2d_3">
      <path d="M 344.865962 495.840956 
L 344.865962 49.831226 
" clip-path="url(#p13627557d6)" style="fill: none; stroke: #cccccc; stroke-linecap: round"/>
     </g>
     <g id="text_3">
      <!-- $\mathdefault{400}$ -->
      <g style="fill: #262626" transform="translate(329.788104 520.56165) scale(0.22 -0.22)">
       <defs>
        <path id="CMR17-34" d="M 2150 4122 
C 2150 4256 2144 4256 2029 4256 
L 128 1254 
L 128 1088 
L 1779 1088 
L 1779 457 
C 1779 224 1766 160 1318 160 
L 1197 160 
L 1197 0 
C 1402 0 1747 0 1965 0 
C 2182 0 2528 0 2733 0 
L 2733 160 
L 2611 160 
C 2163 160 2150 224 2150 457 
L 2150 1088 
L 2803 1088 
L 2803 1254 
L 2150 1254 
L 2150 4122 
z
M 1798 3703 
L 1798 1254 
L 256 1254 
L 1798 3703 
z
" transform="scale(0.015625)"/>
       </defs>
       <use xlink:href="#CMR17-34" transform="scale(0.996264)"/>
       <use xlink:href="#CMR17-30" transform="translate(45.690477 0) scale(0.996264)"/>
       <use xlink:href="#CMR17-30" transform="translate(91.380954 0) scale(0.996264)"/>
      </g>
     </g>
    </g>
    <g id="xtick_4">
     <g id="line2d_4">
      <path d="M 454.080673 495.840956 
L 454.080673 49.831226 
" clip-path="url(#p13627557d6)" style="fill: none; stroke: #cccccc; stroke-linecap: round"/>
     </g>
     <g id="text_4">
      <!-- $\mathdefault{600}$ -->
      <g style="fill: #262626" transform="translate(439.002815 520.56165) scale(0.22 -0.22)">
       <defs>
        <path id="CMR17-36" d="M 678 2176 
C 678 3690 1395 4032 1811 4032 
C 1946 4032 2272 4009 2400 3776 
C 2298 3776 2106 3776 2106 3553 
C 2106 3381 2246 3323 2336 3323 
C 2394 3323 2566 3348 2566 3560 
C 2566 3954 2246 4179 1805 4179 
C 1043 4179 243 3390 243 1984 
C 243 253 966 -128 1478 -128 
C 2099 -128 2688 427 2688 1283 
C 2688 2081 2170 2662 1517 2662 
C 1126 2662 838 2407 678 1960 
L 678 2176 
z
M 1478 25 
C 691 25 691 1200 691 1436 
C 691 1896 909 2560 1504 2560 
C 1613 2560 1926 2560 2138 2120 
C 2253 1870 2253 1609 2253 1289 
C 2253 944 2253 690 2118 434 
C 1978 171 1773 25 1478 25 
z
" transform="scale(0.015625)"/>
       </defs>
       <use xlink:href="#CMR17-36" transform="scale(0.996264)"/>
       <use xlink:href="#CMR17-30" transform="translate(45.690477 0) scale(0.996264)"/>
       <use xlink:href="#CMR17-30" transform="translate(91.380954 0) scale(0.996264)"/>
      </g>
     </g>
    </g>
    <g id="xtick_5">
     <g id="line2d_5">
      <path d="M 563.295384 495.840956 
L 563.295384 49.831226 
" clip-path="url(#p13627557d6)" style="fill: none; stroke: #cccccc; stroke-linecap: round"/>
     </g>
     <g id="text_5">
      <!-- $\mathdefault{800}$ -->
      <g style="fill: #262626" transform="translate(548.217526 520.56165) scale(0.22 -0.22)">
       <defs>
        <path id="CMR17-38" d="M 1741 2264 
C 2144 2467 2554 2773 2554 3263 
C 2554 3841 1990 4179 1472 4179 
C 890 4179 378 3759 378 3180 
C 378 3021 416 2747 666 2505 
C 730 2442 998 2251 1171 2130 
C 883 1983 211 1634 211 934 
C 211 279 838 -128 1459 -128 
C 2144 -128 2720 362 2720 1010 
C 2720 1590 2330 1857 2074 2029 
L 1741 2264 
z
M 902 2822 
C 851 2854 595 3051 595 3351 
C 595 3739 998 4032 1459 4032 
C 1965 4032 2336 3676 2336 3262 
C 2336 2669 1670 2331 1638 2331 
C 1632 2331 1626 2331 1574 2370 
L 902 2822 
z
M 2080 1519 
C 2176 1449 2483 1240 2483 851 
C 2483 381 2010 25 1472 25 
C 890 25 448 438 448 940 
C 448 1443 838 1862 1280 2060 
L 2080 1519 
z
" transform="scale(0.015625)"/>
       </defs>
       <use xlink:href="#CMR17-38" transform="scale(0.996264)"/>
       <use xlink:href="#CMR17-30" transform="translate(45.690477 0) scale(0.996264)"/>
       <use xlink:href="#CMR17-30" transform="translate(91.380954 0) scale(0.996264)"/>
      </g>
     </g>
    </g>
    <g id="xtick_6">
     <g id="line2d_6">
      <path d="M 672.510095 495.840956 
L 672.510095 49.831226 
" clip-path="url(#p13627557d6)" style="fill: none; stroke: #cccccc; stroke-linecap: round"/>
     </g>
     <g id="text_6">
      <!-- $\mathdefault{1000}$ -->
      <g style="fill: #262626" transform="translate(652.406285 520.56165) scale(0.22 -0.22)">
       <defs>
        <path id="CMR17-31" d="M 1702 4058 
C 1702 4192 1696 4192 1606 4192 
C 1357 3916 979 3827 621 3827 
C 602 3827 570 3827 563 3808 
C 557 3795 557 3782 557 3648 
C 755 3648 1088 3686 1344 3839 
L 1344 461 
C 1344 236 1331 160 781 160 
L 589 160 
L 589 0 
C 896 0 1216 0 1523 0 
C 1830 0 2150 0 2458 0 
L 2458 160 
L 2266 160 
C 1715 160 1702 230 1702 458 
L 1702 4058 
z
" transform="scale(0.015625)"/>
       </defs>
       <use xlink:href="#CMR17-31" transform="scale(0.996264)"/>
       <use xlink:href="#CMR17-30" transform="translate(45.690477 0) scale(0.996264)"/>
       <use xlink:href="#CMR17-30" transform="translate(91.380954 0) scale(0.996264)"/>
       <use xlink:href="#CMR17-30" transform="translate(137.071431 0) scale(0.996264)"/>
      </g>
     </g>
    </g>
    <g id="text_7">
     <!-- Step -->
     <g style="fill: #262626" transform="translate(375.656093 545.429243) scale(0.24 -0.24)">
      <defs>
       <path id="CMSS17-53" d="M 2797 4169 
C 2515 4334 2208 4480 1690 4480 
C 864 4480 333 3879 333 3266 
C 333 3025 403 2753 653 2475 
C 902 2196 1184 2121 1542 2033 
C 1690 1994 1939 1924 1984 1906 
C 2342 1767 2515 1444 2515 1140 
C 2515 742 2202 318 1645 318 
C 1453 318 890 318 358 819 
L 269 318 
C 794 -64 1363 -128 1651 -128 
C 2438 -128 3002 488 3002 1186 
C 3002 1440 2925 1763 2656 2061 
C 2394 2347 2163 2410 1638 2549 
C 1338 2626 1146 2677 986 2873 
C 877 3013 819 3146 819 3317 
C 819 3673 1126 4060 1690 4060 
C 1971 4060 2336 4002 2707 3660 
L 2797 4169 
z
" transform="scale(0.015625)"/>
       <path id="CMSS17-74" d="M 1069 2368 
L 1901 2368 
L 1901 2737 
L 1069 2737 
L 1069 3520 
L 614 3520 
L 614 2737 
L 109 2737 
L 109 2368 
L 602 2368 
L 602 749 
C 602 384 685 -64 1107 -64 
C 1427 -64 1722 25 2003 172 
L 1901 548 
C 1747 414 1562 337 1363 337 
C 1082 337 1069 696 1069 856 
L 1069 2368 
z
" transform="scale(0.015625)"/>
       <path id="CMSS17-65" d="M 2502 1377 
C 2502 1590 2490 2003 2285 2345 
C 2061 2713 1696 2816 1421 2816 
C 755 2816 192 2188 192 1375 
C 192 582 774 -64 1510 -64 
C 1798 -64 2150 19 2470 248 
C 2470 274 2458 414 2451 420 
C 2451 433 2432 630 2432 656 
C 2125 407 1773 325 1517 325 
C 1107 325 666 667 646 1377 
L 2502 1377 
z
M 698 1728 
C 781 2084 1062 2421 1421 2421 
C 1517 2421 1965 2421 2080 1728 
L 698 1728 
z
" transform="scale(0.015625)"/>
       <path id="CMSS17-70" d="M 966 333 
C 1178 129 1466 -5 1773 -5 
C 2368 -5 2880 603 2880 1412 
C 2880 2159 2496 2816 1946 2816 
C 1626 2816 1242 2702 954 2472 
L 954 2765 
L 480 2765 
L 480 -1216 
L 966 -1216 
L 966 333 
z
M 966 2100 
C 1018 2176 1235 2415 1587 2415 
C 2035 2415 2394 1960 2394 1412 
C 2394 787 1958 384 1530 384 
C 1402 384 1267 415 1139 523 
C 966 674 966 768 966 857 
L 966 2100 
z
" transform="scale(0.015625)"/>
      </defs>
      <use xlink:href="#CMSS17-53" transform="scale(0.996264)"/>
      <use xlink:href="#CMSS17-74" transform="translate(52.048516 0) scale(0.996264)"/>
      <use xlink:href="#CMSS17-65" transform="translate(85.880083 0) scale(0.996264)"/>
      <use xlink:href="#CMSS17-70" transform="translate(127.518905 0) scale(0.996264)"/>
     </g>
    </g>
   </g>
   <g id="matplotlib.axis_2">
    <g id="ytick_1">
     <g id="line2d_7">
      <path d="M 99.405899 460.165569 
L 694.08 460.165569 
" clip-path="url(#p13627557d6)" style="fill: none; stroke: #cccccc; stroke-linecap: round"/>
     </g>
     <g id="text_8">
      <!-- $\mathdefault{0.05}$ -->
      <g style="fill: #262626" transform="translate(53.788805 467.775915) scale(0.22 -0.22)">
       <defs>
        <path id="CMMI12-3a" d="M 1178 307 
C 1178 492 1024 619 870 619 
C 685 619 557 466 557 313 
C 557 128 710 0 864 0 
C 1050 0 1178 153 1178 307 
z
" transform="scale(0.015625)"/>
        <path id="CMR17-35" d="M 730 3692 
C 794 3666 1056 3584 1325 3584 
C 1920 3584 2246 3911 2432 4100 
C 2432 4157 2432 4192 2394 4192 
C 2387 4192 2374 4192 2323 4163 
C 2099 4058 1837 3973 1517 3973 
C 1325 3973 1037 3999 723 4139 
C 653 4171 640 4171 634 4171 
C 602 4171 595 4164 595 4037 
L 595 2203 
C 595 2089 595 2057 659 2057 
C 691 2057 704 2070 736 2114 
C 941 2401 1222 2522 1542 2522 
C 1766 2522 2246 2382 2246 1289 
C 2246 1085 2246 715 2054 421 
C 1894 159 1645 25 1370 25 
C 947 25 518 320 403 814 
C 429 807 480 795 506 795 
C 589 795 749 840 749 1038 
C 749 1210 627 1280 506 1280 
C 358 1280 262 1190 262 1011 
C 262 454 704 -128 1382 -128 
C 2042 -128 2669 440 2669 1264 
C 2669 2030 2170 2624 1549 2624 
C 1222 2624 947 2503 730 2274 
L 730 3692 
z
" transform="scale(0.015625)"/>
       </defs>
       <use xlink:href="#CMR17-30" transform="scale(0.996264)"/>
       <use xlink:href="#CMMI12-3a" transform="translate(45.690477 0) scale(0.996264)"/>
       <use xlink:href="#CMR17-30" transform="translate(72.787654 0) scale(0.996264)"/>
       <use xlink:href="#CMR17-35" transform="translate(118.478131 0) scale(0.996264)"/>
      </g>
     </g>
    </g>
    <g id="ytick_2">
     <g id="line2d_8">
      <path d="M 99.405899 395.98966 
L 694.08 395.98966 
" clip-path="url(#p13627557d6)" style="fill: none; stroke: #cccccc; stroke-linecap: round"/>
     </g>
     <g id="text_9">
      <!-- $\mathdefault{0.10}$ -->
      <g style="fill: #262626" transform="translate(53.788805 403.600007) scale(0.22 -0.22)">
       <use xlink:href="#CMR17-30" transform="scale(0.996264)"/>
       <use xlink:href="#CMMI12-3a" transform="translate(45.690477 0) scale(0.996264)"/>
       <use xlink:href="#CMR17-31" transform="translate(72.787654 0) scale(0.996264)"/>
       <use xlink:href="#CMR17-30" transform="translate(118.478131 0) scale(0.996264)"/>
      </g>
     </g>
    </g>
    <g id="ytick_3">
     <g id="line2d_9">
      <path d="M 99.405899 331.813751 
L 694.08 331.813751 
" clip-path="url(#p13627557d6)" style="fill: none; stroke: #cccccc; stroke-linecap: round"/>
     </g>
     <g id="text_10">
      <!-- $\mathdefault{0.15}$ -->
      <g style="fill: #262626" transform="translate(53.788805 339.424098) scale(0.22 -0.22)">
       <use xlink:href="#CMR17-30" transform="scale(0.996264)"/>
       <use xlink:href="#CMMI12-3a" transform="translate(45.690477 0) scale(0.996264)"/>
       <use xlink:href="#CMR17-31" transform="translate(72.787654 0) scale(0.996264)"/>
       <use xlink:href="#CMR17-35" transform="translate(118.478131 0) scale(0.996264)"/>
      </g>
     </g>
    </g>
    <g id="ytick_4">
     <g id="line2d_10">
      <path d="M 99.405899 267.637843 
L 694.08 267.637843 
" clip-path="url(#p13627557d6)" style="fill: none; stroke: #cccccc; stroke-linecap: round"/>
     </g>
     <g id="text_11">
      <!-- $\mathdefault{0.20}$ -->
      <g style="fill: #262626" transform="translate(53.788805 275.248189) scale(0.22 -0.22)">
       <use xlink:href="#CMR17-30" transform="scale(0.996264)"/>
       <use xlink:href="#CMMI12-3a" transform="translate(45.690477 0) scale(0.996264)"/>
       <use xlink:href="#CMR17-32" transform="translate(72.787654 0) scale(0.996264)"/>
       <use xlink:href="#CMR17-30" transform="translate(118.478131 0) scale(0.996264)"/>
      </g>
     </g>
    </g>
    <g id="ytick_5">
     <g id="line2d_11">
      <path d="M 99.405899 203.461934 
L 694.08 203.461934 
" clip-path="url(#p13627557d6)" style="fill: none; stroke: #cccccc; stroke-linecap: round"/>
     </g>
     <g id="text_12">
      <!-- $\mathdefault{0.25}$ -->
      <g style="fill: #262626" transform="translate(53.788805 211.072281) scale(0.22 -0.22)">
       <use xlink:href="#CMR17-30" transform="scale(0.996264)"/>
       <use xlink:href="#CMMI12-3a" transform="translate(45.690477 0) scale(0.996264)"/>
       <use xlink:href="#CMR17-32" transform="translate(72.787654 0) scale(0.996264)"/>
       <use xlink:href="#CMR17-35" transform="translate(118.478131 0) scale(0.996264)"/>
      </g>
     </g>
    </g>
    <g id="ytick_6">
     <g id="line2d_12">
      <path d="M 99.405899 139.286025 
L 694.08 139.286025 
" clip-path="url(#p13627557d6)" style="fill: none; stroke: #cccccc; stroke-linecap: round"/>
     </g>
     <g id="text_13">
      <!-- $\mathdefault{0.30}$ -->
      <g style="fill: #262626" transform="translate(53.788805 146.896372) scale(0.22 -0.22)">
       <defs>
        <path id="CMR17-33" d="M 1414 2157 
C 1984 2157 2234 1662 2234 1090 
C 2234 320 1824 25 1453 25 
C 1114 25 563 194 390 693 
C 422 680 454 680 486 680 
C 640 680 755 782 755 948 
C 755 1133 614 1216 486 1216 
C 378 1216 211 1165 211 926 
C 211 335 787 -128 1466 -128 
C 2176 -128 2720 430 2720 1085 
C 2720 1707 2208 2157 1600 2227 
C 2086 2328 2554 2756 2554 3329 
C 2554 3820 2048 4179 1472 4179 
C 890 4179 378 3829 378 3329 
C 378 3110 544 3072 627 3072 
C 762 3072 877 3155 877 3321 
C 877 3486 762 3569 627 3569 
C 602 3569 570 3569 544 3557 
C 730 3959 1235 4032 1459 4032 
C 1683 4032 2106 3925 2106 3320 
C 2106 3143 2080 2828 1862 2550 
C 1670 2304 1453 2304 1242 2284 
C 1210 2284 1062 2269 1037 2269 
C 992 2263 966 2257 966 2208 
C 966 2163 973 2157 1101 2157 
L 1414 2157 
z
" transform="scale(0.015625)"/>
       </defs>
       <use xlink:href="#CMR17-30" transform="scale(0.996264)"/>
       <use xlink:href="#CMMI12-3a" transform="translate(45.690477 0) scale(0.996264)"/>
       <use xlink:href="#CMR17-33" transform="translate(72.787654 0) scale(0.996264)"/>
       <use xlink:href="#CMR17-30" transform="translate(118.478131 0) scale(0.996264)"/>
      </g>
     </g>
    </g>
    <g id="ytick_7">
     <g id="line2d_13">
      <path d="M 99.405899 75.110117 
L 694.08 75.110117 
" clip-path="url(#p13627557d6)" style="fill: none; stroke: #cccccc; stroke-linecap: round"/>
     </g>
     <g id="text_14">
      <!-- $\mathdefault{0.35}$ -->
      <g style="fill: #262626" transform="translate(53.788805 82.720464) scale(0.22 -0.22)">
       <use xlink:href="#CMR17-30" transform="scale(0.996264)"/>
       <use xlink:href="#CMMI12-3a" transform="translate(45.690477 0) scale(0.996264)"/>
       <use xlink:href="#CMR17-33" transform="translate(72.787654 0) scale(0.996264)"/>
       <use xlink:href="#CMR17-35" transform="translate(118.478131 0) scale(0.996264)"/>
      </g>
     </g>
    </g>
    <g id="text_15">
     <!-- Mean Squared Error (MSE) -->
     <g style="fill: #262626" transform="translate(43.831226 402.556914) rotate(-90) scale(0.24 -0.24)">
      <defs>
       <path id="CMSS17-4d" d="M 3194 2371 
L 2886 1473 
C 2835 1307 2662 791 2624 587 
L 2618 587 
C 2598 715 2560 849 2458 1174 
C 2400 1365 2336 1562 2272 1741 
L 1325 4416 
L 576 4416 
L 576 0 
L 1075 0 
L 1075 3900 
L 1082 3900 
C 1082 3894 1139 3613 1530 2499 
L 2374 96 
L 2848 96 
L 3610 2231 
C 3661 2378 3821 2843 3891 3066 
C 3955 3257 4115 3728 4154 3913 
L 4160 3913 
L 4160 0 
L 4666 0 
L 4666 4416 
L 3923 4416 
L 3194 2371 
z
" transform="scale(0.015625)"/>
       <path id="CMSS17-61" d="M 2406 1791 
C 2406 2392 1978 2808 1402 2808 
C 1120 2808 813 2757 461 2553 
L 499 2135 
C 659 2248 934 2432 1395 2432 
C 1722 2432 1920 2180 1920 1782 
L 1920 1536 
C 896 1536 256 1238 256 726 
C 256 461 416 -64 947 -64 
C 1043 -64 1562 -64 1933 217 
L 1933 -19 
L 2406 -19 
L 2406 1791 
z
M 1920 816 
C 1920 701 1920 548 1728 434 
C 1562 325 1350 325 1261 325 
C 941 325 723 511 723 744 
C 723 1211 1722 1211 1920 1211 
L 1920 816 
z
" transform="scale(0.015625)"/>
       <path id="CMSS17-6e" d="M 2618 1877 
C 2618 2283 2522 2816 1798 2816 
C 1389 2816 1120 2606 941 2389 
L 941 2758 
L 474 2758 
L 474 0 
L 960 0 
L 960 1559 
C 960 1964 1114 2428 1549 2428 
C 2112 2428 2131 2048 2131 1829 
L 2131 0 
L 2618 0 
L 2618 1877 
z
" transform="scale(0.015625)"/>
       <path id="CMSS17-71" d="M 2611 2816 
L 2138 2816 
L 2138 2428 
C 2112 2460 1818 2816 1318 2816 
C 736 2816 211 2228 211 1399 
C 211 633 653 -5 1229 -5 
C 1498 -5 1837 91 2125 365 
L 2125 -1216 
L 2611 -1216 
L 2611 2816 
z
M 2138 914 
C 2138 832 2138 718 1939 554 
C 1888 510 1747 384 1504 384 
C 1050 384 698 850 698 1399 
C 698 2011 1126 2415 1562 2415 
C 1926 2415 2138 2061 2138 1797 
L 2138 914 
z
" transform="scale(0.015625)"/>
       <path id="CMSS17-75" d="M 2618 2739 
L 2131 2739 
L 2131 972 
C 2131 498 1786 306 1421 306 
C 998 306 960 447 960 709 
L 960 2739 
L 474 2739 
L 474 678 
C 474 179 646 -64 1088 -64 
C 1306 -64 1798 -13 2144 306 
L 2144 0 
L 2618 0 
L 2618 2739 
z
" transform="scale(0.015625)"/>
       <path id="CMSS17-72" d="M 954 1363 
C 954 1965 1395 2368 1958 2368 
L 1958 2789 
C 1549 2789 1165 2585 934 2253 
L 934 2758 
L 480 2758 
L 480 0 
L 954 0 
L 954 1363 
z
" transform="scale(0.015625)"/>
       <path id="CMSS17-64" d="M 2611 4416 
L 2138 4416 
L 2138 2438 
C 1939 2603 1613 2756 1254 2756 
C 672 2756 211 2131 211 1347 
C 211 562 666 -64 1235 -64 
C 1677 -64 1971 172 2125 306 
L 2125 -13 
L 2611 -13 
L 2611 4416 
z
M 2125 836 
C 2125 747 2125 653 1926 482 
C 1798 375 1645 325 1498 325 
C 1152 325 698 576 698 1340 
C 698 2134 1210 2368 1562 2368 
C 1798 2368 1990 2254 2125 2065 
L 2125 836 
z
" transform="scale(0.015625)"/>
       <path id="CMSS17-45" d="M 1958 433 
C 1446 433 1216 433 1101 433 
L 1101 2107 
L 3085 2107 
L 3085 2496 
L 1101 2496 
L 1101 4009 
L 1926 4009 
C 2003 4009 2080 4009 2157 4009 
L 3251 4009 
L 3251 4416 
L 563 4416 
L 563 0 
L 3334 0 
L 3334 433 
L 1958 433 
z
" transform="scale(0.015625)"/>
       <path id="CMSS17-6f" d="M 2829 1356 
C 2829 2176 2221 2816 1504 2816 
C 768 2816 173 2157 173 1356 
C 173 544 787 -64 1498 -64 
C 2227 -64 2829 563 2829 1356 
z
M 1504 337 
C 1050 337 659 709 659 1408 
C 659 2151 1114 2427 1498 2427 
C 1914 2427 2342 2126 2342 1408 
C 2342 683 1926 337 1504 337 
z
" transform="scale(0.015625)"/>
       <path id="CMSS17-28" d="M 1613 4768 
C 1267 4417 474 3601 474 1588 
C 474 -433 1267 -1243 1613 -1600 
L 2003 -1600 
C 1216 -784 960 357 960 1581 
C 960 2798 1203 3946 2003 4768 
L 1613 4768 
z
" transform="scale(0.015625)"/>
       <path id="CMSS17-29" d="M 723 -1600 
C 1069 -1249 1862 -433 1862 1581 
C 1862 3601 1069 4411 723 4768 
L 333 4768 
C 1120 3952 1376 2811 1376 1588 
C 1376 370 1133 -778 333 -1600 
L 723 -1600 
z
" transform="scale(0.015625)"/>
      </defs>
      <use xlink:href="#CMSS17-4d" transform="scale(0.996264)"/>
      <use xlink:href="#CMSS17-65" transform="translate(81.67603 0) scale(0.996264)"/>
      <use xlink:href="#CMSS17-61" transform="translate(123.314852 0) scale(0.996264)"/>
      <use xlink:href="#CMSS17-6e" transform="translate(168.236773 0) scale(0.996264)"/>
      <use xlink:href="#CMSS17-53" transform="translate(247.670829 0) scale(0.996264)"/>
      <use xlink:href="#CMSS17-71" transform="translate(299.719345 0) scale(0.996264)"/>
      <use xlink:href="#CMSS17-75" transform="translate(347.924288 0) scale(0.996264)"/>
      <use xlink:href="#CMSS17-61" transform="translate(396.129231 0) scale(0.996264)"/>
      <use xlink:href="#CMSS17-72" transform="translate(438.448698 0) scale(0.996264)"/>
      <use xlink:href="#CMSS17-65" transform="translate(470.35847 0) scale(0.996264)"/>
      <use xlink:href="#CMSS17-64" transform="translate(511.997292 0) scale(0.996264)"/>
      <use xlink:href="#CMSS17-45" transform="translate(591.431348 0) scale(0.996264)"/>
      <use xlink:href="#CMSS17-72" transform="translate(647.323361 0) scale(0.996264)"/>
      <use xlink:href="#CMSS17-72" transform="translate(679.233134 0) scale(0.996264)"/>
      <use xlink:href="#CMSS17-6f" transform="translate(711.142906 0) scale(0.996264)"/>
      <use xlink:href="#CMSS17-72" transform="translate(755.384076 0) scale(0.996264)"/>
      <use xlink:href="#CMSS17-28" transform="translate(818.522961 0) scale(0.996264)"/>
      <use xlink:href="#CMSS17-4d" transform="translate(854.956876 0) scale(0.996264)"/>
      <use xlink:href="#CMSS17-53" transform="translate(936.632906 0) scale(0.996264)"/>
      <use xlink:href="#CMSS17-45" transform="translate(988.681422 0) scale(0.996264)"/>
      <use xlink:href="#CMSS17-29" transform="translate(1044.573435 0) scale(0.996264)"/>
     </g>
    </g>
   </g>
   <g id="PolyCollection_1">
    <defs>
     <path id="m5c549b28e3" d="M 126.43654 -210.173017 
L 126.43654 -197.979594 
L 131.897275 -194.770799 
L 137.358011 -192.203763 
L 142.818746 -191.562004 
L 148.279482 -191.562004 
L 153.740218 -189.89343 
L 159.200953 -189.251671 
L 164.661689 -171.154065 
L 170.122424 -173.592749 
L 175.58316 -170.769009 
L 181.043895 -172.565935 
L 186.504631 -169.485491 
L 191.965366 -169.228787 
L 197.426102 -162.811196 
L 202.886837 -153.18481 
L 208.347573 -151.644588 
L 213.808309 -150.489422 
L 219.269044 -150.489422 
L 224.72978 -150.232718 
L 230.190515 -150.104367 
L 235.651251 -149.462607 
L 241.111986 -145.740405 
L 246.572722 -145.612053 
L 252.033457 -132.00676 
L 257.494193 -131.365001 
L 262.954928 -131.878409 
L 268.415664 -130.723242 
L 273.8764 -136.24237 
L 279.337135 -135.985667 
L 284.797871 -135.343908 
L 290.258606 -134.573797 
L 295.719342 -128.027854 
L 301.180077 -128.156206 
L 306.640813 -127.899502 
L 312.101548 -127.257743 
L 317.562284 -127.257743 
L 323.02302 -136.370722 
L 328.483755 -135.087204 
L 333.944491 -137.782592 
L 339.405226 -147.794034 
L 344.865962 -136.755778 
L 350.326697 -126.487632 
L 355.787433 -120.968504 
L 361.248168 -108.64673 
L 366.708904 -105.694638 
L 372.169639 -107.106508 
L 377.630375 -103.127601 
L 383.091111 -101.202324 
L 388.551846 -101.202324 
L 394.012582 -100.432213 
L 399.473317 -459.175543 
L 404.934053 -409.631741 
L 410.394788 -387.170173 
L 415.855524 -373.179825 
L 421.316259 -369.585974 
L 426.776995 -369.585974 
L 432.23773 -370.997844 
L 437.698466 -367.532345 
L 443.159202 -365.350364 
L 448.619937 -340.835167 
L 454.080673 -342.503741 
L 459.541408 -346.996054 
L 465.002144 -339.936704 
L 470.462879 -296.297086 
L 475.923615 -281.151572 
L 481.38435 -253.170876 
L 486.845086 -266.391113 
L 492.305822 -245.983174 
L 497.766557 -244.828008 
L 503.227293 -243.801193 
L 508.688028 -245.469767 
L 514.148764 -236.48514 
L 519.609499 -257.02143 
L 525.070235 -230.324252 
L 530.53097 -221.596329 
L 535.991706 -220.441162 
L 541.452441 -219.5427 
L 546.913177 -224.548421 
L 552.373913 -225.061828 
L 557.834648 -222.238088 
L 563.295384 -226.858753 
L 568.756119 -232.506233 
L 574.216855 -227.372161 
L 579.67759 -209.274554 
L 585.138326 -204.525537 
L 590.599061 -205.809055 
L 596.059797 -212.611702 
L 601.520532 -202.215204 
L 606.981268 -195.412558 
L 612.442004 -192.203763 
L 617.902739 -187.198042 
L 623.363475 -186.042875 
L 628.82421 -186.171227 
L 634.284946 -185.914524 
L 639.745681 -190.920244 
L 645.206417 -196.311021 
L 650.667152 -195.027503 
L 656.127888 -196.054317 
L 661.588623 -231.479419 
L 667.049359 -241.105805 
L 667.049359 -335.187687 
L 667.049359 -335.187687 
L 661.588623 -334.545928 
L 656.127888 -334.545928 
L 650.667152 -335.059335 
L 645.206417 -352.258479 
L 639.745681 -341.605278 
L 634.284946 -339.166593 
L 628.82421 -335.059335 
L 623.363475 -338.011427 
L 617.902739 -349.434739 
L 612.442004 -344.300666 
L 606.981268 -343.658907 
L 601.520532 -343.658907 
L 596.059797 -343.1455 
L 590.599061 -342.888796 
L 585.138326 -343.402203 
L 579.67759 -346.354295 
L 574.216855 -348.921332 
L 568.756119 -348.921332 
L 563.295384 -348.921332 
L 557.834648 -362.269921 
L 552.373913 -362.013217 
L 546.913177 -362.013217 
L 541.452441 -366.50553 
L 535.991706 -370.74114 
L 530.53097 -398.336781 
L 525.070235 -437.355734 
L 519.609499 -429.654625 
L 514.148764 -429.141217 
L 508.688028 -427.986051 
L 503.227293 -427.986051 
L 497.766557 -454.169822 
L 492.305822 -457.121913 
L 486.845086 -452.757952 
L 481.38435 -451.731137 
L 475.923615 -471.625669 
L 470.462879 -471.882372 
L 465.002144 -483.434036 
L 459.541408 -487.541294 
L 454.080673 -488.311405 
L 448.619937 -488.69646 
L 443.159202 -489.33822 
L 437.698466 -489.209868 
L 432.23773 -488.953164 
L 426.776995 -489.209868 
L 421.316259 -491.263497 
L 415.855524 -494.215589 
L 410.394788 -494.9857 
L 404.934053 -498.194495 
L 399.473317 -501.018235 
L 394.012582 -194.385744 
L 388.551846 -196.696076 
L 383.091111 -195.155854 
L 377.630375 -195.155854 
L 372.169639 -195.54091 
L 366.708904 -195.412558 
L 361.248168 -194.642447 
L 355.787433 -194.899151 
L 350.326697 -194.642447 
L 344.865962 -193.102225 
L 339.405226 -192.332114 
L 333.944491 -186.556283 
L 328.483755 -193.102225 
L 323.02302 -193.102225 
L 317.562284 -194.642447 
L 312.101548 -200.803334 
L 306.640813 -190.021782 
L 301.180077 -191.176948 
L 295.719342 -192.71717 
L 290.258606 -193.102225 
L 284.797871 -193.102225 
L 279.337135 -193.487281 
L 273.8764 -194.770799 
L 268.415664 -194.770799 
L 262.954928 -194.770799 
L 257.494193 -194.770799 
L 252.033457 -194.770799 
L 246.572722 -196.182669 
L 241.111986 -196.182669 
L 235.651251 -196.182669 
L 230.190515 -196.182669 
L 224.72978 -196.182669 
L 219.269044 -196.182669 
L 213.808309 -196.182669 
L 208.347573 -196.182669 
L 202.886837 -196.182669 
L 197.426102 -196.182669 
L 191.965366 -196.182669 
L 186.504631 -196.182669 
L 181.043895 -196.182669 
L 175.58316 -196.182669 
L 170.122424 -197.722891 
L 164.661689 -197.081132 
L 159.200953 -211.199832 
L 153.740218 -197.979594 
L 148.279482 -198.107946 
L 142.818746 -198.107946 
L 137.358011 -198.36465 
L 131.897275 -198.621354 
L 126.43654 -210.173017 
z
" style="stroke: #ffffff; stroke-opacity: 0.2"/>
    </defs>
    <g clip-path="url(#p13627557d6)">
     <use xlink:href="#m5c549b28e3" x="0" y="576" style="fill: #4c72b0; fill-opacity: 0.2; stroke: #ffffff; stroke-opacity: 0.2"/>
    </g>
   </g>
   <g id="PolyCollection_2">
    <defs>
     <path id="m4775d24e8d" d="M 126.43654 -208.632795 
L 126.43654 -195.027503 
L 131.897275 -194.770799 
L 137.358011 -194.514095 
L 142.818746 -189.380023 
L 148.279482 -182.962432 
L 153.740218 -176.159785 
L 159.200953 -174.876267 
L 164.661689 -173.977805 
L 170.122424 -167.945269 
L 175.58316 -167.945269 
L 181.043895 -166.790103 
L 186.504631 -158.190531 
L 191.965366 -158.575587 
L 197.426102 -158.83229 
L 202.886837 -157.933827 
L 208.347573 -156.907013 
L 213.808309 -155.110087 
L 219.269044 -155.238439 
L 224.72978 -154.725032 
L 230.190515 -152.029644 
L 235.651251 -138.937758 
L 241.111986 -137.65424 
L 246.572722 -139.836221 
L 252.033457 -140.092925 
L 257.494193 -129.054669 
L 262.954928 -131.621705 
L 268.415664 -131.750057 
L 273.8764 -134.573797 
L 279.337135 -135.857315 
L 284.797871 -128.541261 
L 290.258606 -129.054669 
L 295.719342 -127.001039 
L 301.180077 -124.434003 
L 306.640813 -125.332466 
L 312.101548 -128.156206 
L 317.562284 -129.439724 
L 323.02302 -131.750057 
L 328.483755 -128.027854 
L 333.944491 -134.573797 
L 339.405226 -134.317093 
L 344.865962 -133.290279 
L 350.326697 -132.520168 
L 355.787433 -126.487632 
L 361.248168 -125.332466 
L 366.708904 -127.77115 
L 372.169639 -120.070041 
L 377.630375 -118.016412 
L 383.091111 -114.29421 
L 388.551846 -114.422561 
L 394.012582 -115.192672 
L 399.473317 -443.259917 
L 404.934053 -442.233103 
L 410.394788 -418.231313 
L 415.855524 -436.200567 
L 421.316259 -401.032169 
L 426.776995 -395.513041 
L 432.23773 -388.710395 
L 437.698466 -372.538066 
L 443.159202 -375.875213 
L 448.619937 -356.879144 
L 454.080673 -353.670349 
L 459.541408 -364.965309 
L 465.002144 -362.783328 
L 470.462879 -353.670349 
L 475.923615 -351.103312 
L 481.38435 -325.432949 
L 486.845086 -327.101523 
L 492.305822 -330.823725 
L 497.766557 -320.170524 
L 503.227293 -311.442601 
L 508.688028 -308.618861 
L 514.148764 -324.79119 
L 519.609499 -324.534486 
L 525.070235 -325.561301 
L 530.53097 -319.14371 
L 535.991706 -313.111174 
L 541.452441 -312.341064 
L 546.913177 -309.774027 
L 552.373913 -339.551649 
L 557.834648 -350.20485 
L 563.295384 -330.053614 
L 568.756119 -325.818004 
L 574.216855 -319.272062 
L 579.67759 -312.341064 
L 585.138326 -310.929194 
L 590.599061 -310.800842 
L 596.059797 -310.929194 
L 601.520532 -310.800842 
L 606.981268 -306.180176 
L 612.442004 -308.362157 
L 617.902739 -300.275993 
L 623.363475 -300.404345 
L 628.82421 -316.961729 
L 634.284946 -321.710746 
L 639.745681 -327.743282 
L 645.206417 -328.128337 
L 650.667152 -329.283503 
L 656.127888 -330.567022 
L 661.588623 -330.952077 
L 667.049359 -332.235595 
L 667.049359 -432.735068 
L 667.049359 -432.735068 
L 661.588623 -433.120124 
L 656.127888 -431.45155 
L 650.667152 -431.45155 
L 645.206417 -440.307825 
L 639.745681 -460.715764 
L 634.284946 -460.202357 
L 628.82421 -456.223451 
L 623.363475 -449.80586 
L 617.902739 -437.227382 
L 612.442004 -437.484085 
L 606.981268 -442.74651 
L 601.520532 -455.710043 
L 596.059797 -455.710043 
L 590.599061 -455.966747 
L 585.138326 -442.874862 
L 579.67759 -442.489806 
L 574.216855 -438.5109 
L 568.756119 -436.328919 
L 563.295384 -438.5109 
L 557.834648 -453.656414 
L 552.373913 -457.250265 
L 546.913177 -465.721485 
L 541.452441 -462.384338 
L 535.991706 -462.51269 
L 530.53097 -463.92456 
L 525.070235 -464.052912 
L 519.609499 -454.683229 
L 514.148764 -455.838395 
L 508.688028 -444.415084 
L 503.227293 -446.083657 
L 497.766557 -447.623879 
L 492.305822 -447.495527 
L 486.845086 -451.602785 
L 481.38435 -451.474433 
L 475.923615 -447.238824 
L 470.462879 -487.541294 
L 465.002144 -462.897745 
L 459.541408 -463.92456 
L 454.080673 -471.754021 
L 448.619937 -475.347872 
L 443.159202 -484.332499 
L 437.698466 -490.493386 
L 432.23773 -490.236682 
L 426.776995 -494.728996 
L 421.316259 -494.472292 
L 415.855524 -497.424384 
L 410.394788 -499.99142 
L 404.934053 -504.740438 
L 399.473317 -505.895604 
L 394.012582 -186.812986 
L 388.551846 -186.684635 
L 383.091111 -178.470118 
L 377.630375 -175.389675 
L 372.169639 -158.062179 
L 366.708904 -157.42042 
L 361.248168 -156.265254 
L 355.787433 -157.933827 
L 350.326697 -157.677124 
L 344.865962 -156.265254 
L 339.405226 -160.115808 
L 333.944491 -156.136902 
L 328.483755 -190.920244 
L 323.02302 -193.743984 
L 317.562284 -193.487281 
L 312.101548 -193.743984 
L 306.640813 -194.642447 
L 301.180077 -195.284206 
L 295.719342 -195.155854 
L 290.258606 -195.027503 
L 284.797871 -193.743984 
L 279.337135 -193.743984 
L 273.8764 -193.743984 
L 268.415664 -193.743984 
L 262.954928 -193.872336 
L 257.494193 -193.743984 
L 252.033457 -193.743984 
L 246.572722 -193.743984 
L 241.111986 -193.743984 
L 235.651251 -193.743984 
L 230.190515 -193.743984 
L 224.72978 -193.743984 
L 219.269044 -194.000688 
L 213.808309 -193.743984 
L 208.347573 -193.615633 
L 202.886837 -193.615633 
L 197.426102 -193.872336 
L 191.965366 -193.872336 
L 186.504631 -193.743984 
L 181.043895 -203.370371 
L 175.58316 -193.102225 
L 170.122424 -193.230577 
L 164.661689 -199.648168 
L 159.200953 -200.803334 
L 153.740218 -194.12904 
L 148.279482 -194.899151 
L 142.818746 -195.027503 
L 137.358011 -201.060038 
L 131.897275 -207.991036 
L 126.43654 -208.632795 
z
" style="stroke: #ffffff; stroke-opacity: 0.2"/>
    </defs>
    <g clip-path="url(#p13627557d6)">
     <use xlink:href="#m4775d24e8d" x="0" y="576" style="fill: #dd8452; fill-opacity: 0.2; stroke: #ffffff; stroke-opacity: 0.2"/>
    </g>
   </g>
   <g id="PolyCollection_3">
    <defs>
     <path id="m921c81c060" d="M 126.43654 -210.943128 
L 126.43654 -197.209484 
L 131.897275 -177.828359 
L 137.358011 -171.282416 
L 142.818746 -163.581307 
L 148.279482 -162.169437 
L 153.740218 -150.104367 
L 159.200953 -148.307441 
L 164.661689 -147.53733 
L 170.122424 -145.355349 
L 175.58316 -144.970294 
L 181.043895 -144.970294 
L 186.504631 -133.546982 
L 191.965366 -129.824779 
L 197.426102 -128.156206 
L 202.886837 -128.797965 
L 208.347573 -127.642799 
L 213.808309 -127.642799 
L 219.269044 -125.974225 
L 224.72978 -126.487632 
L 230.190515 -131.878409 
L 235.651251 -130.466539 
L 241.111986 -133.546982 
L 246.572722 -141.761498 
L 252.033457 -151.644588 
L 257.494193 -159.730753 
L 262.954928 -162.939548 
L 268.415664 -168.201973 
L 273.8764 -156.650309 
L 279.337135 -147.665682 
L 284.797871 -147.280627 
L 290.258606 -144.456887 
L 295.719342 -134.573797 
L 301.180077 -149.976015 
L 306.640813 -134.445445 
L 312.101548 -135.728963 
L 317.562284 -132.520168 
L 323.02302 -137.012481 
L 328.483755 -132.648519 
L 333.944491 -128.027854 
L 339.405226 -125.460818 
L 344.865962 -125.845873 
L 350.326697 -127.129391 
L 355.787433 -126.102577 
L 361.248168 -130.081483 
L 366.708904 -130.081483 
L 372.169639 -124.305651 
L 377.630375 -129.054669 
L 383.091111 -133.033575 
L 388.551846 -144.328535 
L 394.012582 -136.370722 
L 399.473317 -467.390059 
L 404.934053 -465.33643 
L 410.394788 -461.870931 
L 415.855524 -460.972468 
L 421.316259 -460.972468 
L 426.776995 -452.886303 
L 432.23773 -417.717906 
L 437.698466 -410.915259 
L 443.159202 -389.352154 
L 448.619937 -373.949936 
L 454.080673 -372.281362 
L 459.541408 -321.582394 
L 465.002144 -314.394693 
L 470.462879 -315.678211 
L 475.923615 -315.678211 
L 481.38435 -316.31997 
L 486.845086 -308.490509 
L 492.305822 -284.873775 
L 497.766557 -289.237736 
L 503.227293 -287.312459 
L 508.688028 -287.184107 
L 514.148764 -298.222364 
L 519.609499 -304.383251 
L 525.070235 -356.622441 
L 530.53097 -369.842678 
L 535.991706 -329.155152 
L 541.452441 -328.256689 
L 546.913177 -328.385041 
L 552.373913 -311.699305 
L 557.834648 -307.335343 
L 563.295384 -307.592046 
L 568.756119 -311.956008 
L 574.216855 -311.827656 
L 579.67759 -312.854471 
L 585.138326 -307.335343 
L 590.599061 -298.607419 
L 596.059797 -298.735771 
L 601.520532 -273.707167 
L 606.981268 -266.006058 
L 612.442004 -273.578815 
L 617.902739 -271.396834 
L 623.363475 -271.268482 
L 628.82421 -266.776168 
L 634.284946 -278.19948 
L 639.745681 -278.071128 
L 645.206417 -276.145851 
L 650.667152 -276.78761 
L 656.127888 -279.739702 
L 661.588623 -288.339274 
L 667.049359 -289.366088 
L 667.049359 -410.658556 
L 667.049359 -410.658556 
L 661.588623 -414.380758 
L 656.127888 -411.171963 
L 650.667152 -414.894166 
L 645.206417 -447.752231 
L 639.745681 -448.265638 
L 634.284946 -463.282801 
L 628.82421 -463.282801 
L 623.363475 -465.721485 
L 617.902739 -477.786556 
L 612.442004 -466.234892 
L 606.981268 -465.721485 
L 601.520532 -465.464782 
L 596.059797 -463.92456 
L 590.599061 -465.079726 
L 585.138326 -464.951374 
L 579.67759 -464.181263 
L 574.216855 -463.026097 
L 568.756119 -463.026097 
L 563.295384 -463.026097 
L 557.834648 -430.553087 
L 552.373913 -431.45155 
L 546.913177 -444.800139 
L 541.452441 -454.04147 
L 535.991706 -447.752231 
L 530.53097 -448.779045 
L 525.070235 -447.495527 
L 519.609499 -447.495527 
L 514.148764 -447.623879 
L 508.688028 -450.704323 
L 503.227293 -479.711833 
L 497.766557 -472.39578 
L 492.305822 -482.022166 
L 486.845086 -486.001072 
L 481.38435 -486.001072 
L 475.923615 -486.001072 
L 470.462879 -488.568109 
L 465.002144 -490.878441 
L 459.541408 -491.5202 
L 454.080673 -488.311405 
L 448.619937 -486.386128 
L 443.159202 -484.717554 
L 437.698466 -483.947443 
L 432.23773 -485.10261 
L 426.776995 -488.311405 
L 421.316259 -490.236682 
L 415.855524 -492.547015 
L 410.394788 -491.5202 
L 404.934053 -501.274939 
L 399.473317 -501.916698 
L 394.012582 -183.732543 
L 388.551846 -183.732543 
L 383.091111 -183.732543 
L 377.630375 -182.705728 
L 372.169639 -189.636726 
L 366.708904 -185.144413 
L 361.248168 -185.786172 
L 355.787433 -187.198042 
L 350.326697 -187.198042 
L 344.865962 -187.198042 
L 339.405226 -187.454745 
L 333.944491 -188.609912 
L 328.483755 -187.198042 
L 323.02302 -187.198042 
L 317.562284 -187.198042 
L 312.101548 -187.326394 
L 306.640813 -188.609912 
L 301.180077 -189.765078 
L 295.719342 -189.765078 
L 290.258606 -189.636726 
L 284.797871 -189.636726 
L 279.337135 -189.251671 
L 273.8764 -192.075411 
L 268.415664 -193.487281 
L 262.954928 -187.583097 
L 257.494193 -189.508374 
L 252.033457 -187.839801 
L 246.572722 -187.583097 
L 241.111986 -189.89343 
L 235.651251 -189.508374 
L 230.190515 -190.535189 
L 224.72978 -190.535189 
L 219.269044 -191.433652 
L 213.808309 -192.203763 
L 208.347573 -192.203763 
L 202.886837 -192.203763 
L 197.426102 -192.203763 
L 191.965366 -194.385744 
L 186.504631 -192.203763 
L 181.043895 -192.203763 
L 175.58316 -192.973874 
L 170.122424 -192.973874 
L 164.661689 -192.845522 
L 159.200953 -192.845522 
L 153.740218 -196.439373 
L 148.279482 -197.594539 
L 142.818746 -197.081132 
L 137.358011 -196.054317 
L 131.897275 -201.573445 
L 126.43654 -210.943128 
z
" style="stroke: #ffffff; stroke-opacity: 0.2"/>
    </defs>
    <g clip-path="url(#p13627557d6)">
     <use xlink:href="#m921c81c060" x="0" y="576" style="fill: #55a868; fill-opacity: 0.2; stroke: #ffffff; stroke-opacity: 0.2"/>
    </g>
   </g>
   <g id="line2d_14">
    <path d="M 126.43654 374.939962 
L 131.897275 378.918868 
L 137.358011 380.202386 
L 142.818746 381.999312 
L 148.279482 382.127664 
L 153.740218 381.485905 
L 159.200953 378.405461 
L 164.661689 386.876681 
L 170.122424 385.978218 
L 175.58316 387.646792 
L 181.043895 389.828773 
L 186.504631 390.085476 
L 191.965366 390.085476 
L 197.426102 390.470532 
L 202.886837 392.267457 
L 208.347573 395.98966 
L 213.808309 403.177362 
L 219.269044 402.920658 
L 224.72978 402.792306 
L 230.190515 398.428345 
L 235.651251 389.187014 
L 241.111986 395.732956 
L 246.572722 395.861308 
L 252.033457 395.476253 
L 257.494193 395.219549 
L 262.954928 394.064383 
L 268.415664 392.780865 
L 273.8764 391.497346 
L 279.337135 391.240643 
L 284.797871 391.240643 
L 290.258606 392.139105 
L 295.719342 393.679327 
L 301.180077 395.861308 
L 306.640813 398.428345 
L 312.101548 399.711863 
L 317.562284 399.840215 
L 323.02302 391.625698 
L 328.483755 389.828773 
L 333.944491 393.422624 
L 339.405226 390.983939 
L 344.865962 407.156268 
L 350.326697 402.792306 
L 355.787433 395.732956 
L 361.248168 411.135174 
L 366.708904 414.600673 
L 372.169639 412.675396 
L 377.630375 411.648582 
L 383.091111 416.012543 
L 388.551846 428.334318 
L 394.012582 430.131243 
L 399.473317 94.876297 
L 404.934053 118.364679 
L 410.394788 119.904901 
L 415.855524 119.904901 
L 421.316259 120.161605 
L 426.776995 112.588848 
L 432.23773 122.086882 
L 437.698466 129.402936 
L 443.159202 132.483379 
L 448.619937 136.847341 
L 454.080673 143.393284 
L 459.541408 145.575265 
L 465.002144 145.575265 
L 470.462879 150.837689 
L 475.923615 153.789781 
L 481.38435 150.837689 
L 486.845086 151.094393 
L 492.305822 148.912412 
L 497.766557 167.908481 
L 503.227293 182.66894 
L 508.688028 183.567402 
L 514.148764 186.519494 
L 519.609499 226.693613 
L 525.070235 227.078668 
L 530.53097 227.720428 
L 535.991706 209.622821 
L 541.452441 225.153391 
L 546.913177 235.934944 
L 552.373913 236.063296 
L 557.834648 257.241346 
L 563.295384 307.298554 
L 568.756119 311.790868 
L 574.216855 331.6854 
L 579.67759 332.840566 
L 585.138326 307.68361 
L 590.599061 329.246715 
L 596.059797 327.834845 
L 601.520532 326.551327 
L 606.981268 309.608887 
L 612.442004 303.191296 
L 617.902739 287.404023 
L 623.363475 277.520933 
L 628.82421 261.0919 
L 634.284946 263.273881 
L 639.745681 277.777636 
L 645.206417 282.398302 
L 650.667152 282.526654 
L 656.127888 280.601376 
L 661.588623 281.628191 
L 667.049359 281.243135 
" clip-path="url(#p13627557d6)" style="fill: none; stroke: #4c72b0; stroke-width: 1.5; stroke-linecap: round"/>
   </g>
   <g id="line2d_15">
    <path d="M 126.43654 377.63535 
L 131.897275 380.074035 
L 137.358011 380.330738 
L 142.818746 382.127664 
L 148.279482 382.127664 
L 153.740218 382.127664 
L 159.200953 382.256016 
L 164.661689 382.897775 
L 170.122424 383.154478 
L 175.58316 384.181293 
L 181.043895 384.566348 
L 186.504631 385.208107 
L 191.965366 384.951404 
L 197.426102 385.208107 
L 202.886837 392.652513 
L 208.347573 393.294272 
L 213.808309 391.75405 
L 219.269044 397.273178 
L 224.72978 397.529882 
L 230.190515 398.299993 
L 235.651251 397.144826 
L 241.111986 396.374715 
L 246.572722 400.353622 
L 252.033457 418.066173 
L 257.494193 417.552765 
L 262.954928 416.525951 
L 268.415664 416.397599 
L 273.8764 408.311434 
L 279.337135 411.263526 
L 284.797871 415.242433 
L 290.258606 416.397599 
L 295.719342 418.194524 
L 301.180077 413.958914 
L 306.640813 418.066173 
L 312.101548 421.40332 
L 317.562284 423.071893 
L 323.02302 428.077614 
L 328.483755 430.002892 
L 333.944491 430.131243 
L 339.405226 430.131243 
L 344.865962 439.372574 
L 350.326697 439.885981 
L 355.787433 439.500926 
L 361.248168 439.372574 
L 366.708904 437.318945 
L 372.169639 438.602463 
L 377.630375 437.447297 
L 383.091111 438.730815 
L 388.551846 437.832352 
L 394.012582 437.704001 
L 399.473317 95.518056 
L 404.934053 103.219165 
L 410.394788 111.562033 
L 415.855524 118.621383 
L 421.316259 125.167326 
L 426.776995 136.718989 
L 432.23773 167.908481 
L 437.698466 189.599938 
L 443.159202 190.883456 
L 448.619937 204.232045 
L 454.080673 206.02897 
L 459.541408 203.975341 
L 465.002144 205.515563 
L 470.462879 205.387211 
L 475.923615 205.25886 
L 481.38435 210.521284 
L 486.845086 201.665009 
L 492.305822 196.402584 
L 497.766557 199.868083 
L 503.227293 199.354676 
L 508.688028 208.85271 
L 514.148764 208.339303 
L 519.609499 188.188068 
L 525.070235 175.994645 
L 530.53097 174.19772 
L 535.991706 173.941016 
L 541.452441 174.839479 
L 546.913177 168.806943 
L 552.373913 169.833758 
L 557.834648 168.421888 
L 563.295384 167.523425 
L 568.756119 167.651777 
L 574.216855 167.908481 
L 579.67759 170.603869 
L 585.138326 143.906691 
L 590.599061 134.151953 
L 596.059797 140.184488 
L 601.520532 161.619242 
L 606.981268 158.410446 
L 612.442004 159.180557 
L 617.902739 161.362538 
L 623.363475 151.351096 
L 628.82421 156.870224 
L 634.284946 155.073299 
L 639.745681 166.624963 
L 645.206417 176.379701 
L 650.667152 175.60959 
L 656.127888 176.379701 
L 661.588623 173.941016 
L 667.049359 164.442982 
" clip-path="url(#p13627557d6)" style="fill: none; stroke: #dd8452; stroke-width: 1.5; stroke-linecap: round"/>
   </g>
   <g id="line2d_16">
    <path d="M 126.43654 375.068314 
L 131.897275 386.234922 
L 137.358011 386.619977 
L 142.818746 388.160199 
L 148.279482 388.160199 
L 153.740218 388.160199 
L 159.200953 390.085476 
L 164.661689 390.085476 
L 170.122424 389.443717 
L 175.58316 389.572069 
L 181.043895 389.572069 
L 186.504631 389.700421 
L 191.965366 390.085476 
L 197.426102 389.315365 
L 202.886837 388.545255 
L 208.347573 387.261736 
L 213.808309 388.801958 
L 219.269044 388.93031 
L 224.72978 389.828773 
L 230.190515 389.828773 
L 235.651251 389.572069 
L 241.111986 389.572069 
L 246.572722 396.118012 
L 252.033457 393.294272 
L 257.494193 389.058662 
L 262.954928 389.315365 
L 268.415664 388.288551 
L 273.8764 392.909216 
L 279.337135 400.353622 
L 284.797871 405.744398 
L 290.258606 405.744398 
L 295.719342 405.744398 
L 301.180077 404.717584 
L 306.640813 406.129454 
L 312.101548 405.102639 
L 317.562284 406.514509 
L 323.02302 406.514509 
L 328.483755 406.129454 
L 333.944491 406.257805 
L 339.405226 403.177362 
L 344.865962 401.252085 
L 350.326697 398.8134 
L 355.787433 399.583511 
L 361.248168 399.198455 
L 366.708904 397.273178 
L 372.169639 396.631419 
L 377.630375 396.631419 
L 383.091111 396.759771 
L 388.551846 397.273178 
L 394.012582 396.759771 
L 399.473317 90.89739 
L 404.934053 95.903111 
L 410.394788 102.19235 
L 415.855524 92.437612 
L 421.316259 95.261352 
L 426.776995 93.336075 
L 432.23773 94.876297 
L 437.698466 95.004649 
L 443.159202 95.004649 
L 448.619937 90.89739 
L 454.080673 102.063998 
L 459.541408 147.885597 
L 465.002144 177.919922 
L 470.462879 173.299257 
L 475.923615 189.086531 
L 481.38435 189.856641 
L 486.845086 189.214882 
L 492.305822 191.525215 
L 497.766557 198.841269 
L 503.227293 204.232045 
L 508.688028 203.461934 
L 514.148764 199.61138 
L 519.609499 199.483028 
L 525.070235 199.483028 
L 530.53097 200.124787 
L 535.991706 198.456213 
L 541.452441 192.937085 
L 546.913177 182.412236 
L 552.373913 162.389353 
L 557.834648 177.149812 
L 563.295384 184.850921 
L 568.756119 207.697544 
L 574.216855 233.624611 
L 579.67759 232.8545 
L 585.138326 232.084389 
L 590.599061 231.827686 
L 596.059797 233.496259 
L 601.520532 235.67824 
L 606.981268 235.934944 
L 612.442004 234.908129 
L 617.902739 234.009667 
L 623.363475 241.967479 
L 628.82421 242.480887 
L 634.284946 243.764405 
L 639.745681 251.593866 
L 645.206417 255.572772 
L 650.667152 234.26637 
L 656.127888 228.105483 
L 661.588623 227.20702 
L 667.049359 229.517353 
" clip-path="url(#p13627557d6)" style="fill: none; stroke: #55a868; stroke-width: 1.5; stroke-linecap: round"/>
   </g>
   <g id="patch_3">
    <path d="M 99.405899 495.840956 
L 99.405899 49.831226 
" style="fill: none; stroke: #cccccc; stroke-width: 1.25; stroke-linejoin: miter; stroke-linecap: square"/>
   </g>
   <g id="patch_4">
    <path d="M 694.08 495.840956 
L 694.08 49.831226 
" style="fill: none; stroke: #cccccc; stroke-width: 1.25; stroke-linejoin: miter; stroke-linecap: square"/>
   </g>
   <g id="patch_5">
    <path d="M 99.405899 495.840956 
L 694.08 495.840956 
" style="fill: none; stroke: #cccccc; stroke-width: 1.25; stroke-linejoin: miter; stroke-linecap: square"/>
   </g>
   <g id="patch_6">
    <path d="M 99.405899 49.831226 
L 694.08 49.831226 
" style="fill: none; stroke: #cccccc; stroke-width: 1.25; stroke-linejoin: miter; stroke-linecap: square"/>
   </g>
   <g id="text_16">
    <!-- Mean Squared Error (MSE) vs Step -->
    <g style="fill: #262626" transform="translate(228.970652 43.831226) scale(0.24 -0.24)">
     <defs>
      <path id="CMSS17-76" d="M 2675 2752 
L 2176 2752 
L 1747 1556 
C 1613 1165 1421 627 1389 352 
L 1382 352 
C 1370 468 1318 634 1286 749 
C 1248 890 1197 1056 1158 1172 
L 595 2752 
L 83 2752 
L 1094 0 
L 1664 0 
L 2675 2752 
z
" transform="scale(0.015625)"/>
      <path id="CMSS17-73" d="M 2061 2627 
C 1683 2807 1389 2807 1197 2807 
C 742 2807 198 2648 198 2003 
C 198 1359 902 1218 1094 1179 
C 1389 1122 1715 1058 1715 740 
C 1715 337 1254 337 1171 337 
C 915 337 563 407 243 638 
L 166 210 
C 531 0 883 -64 1178 -64 
C 1965 -64 2163 416 2163 781 
C 2163 1094 1984 1305 1862 1401 
C 1651 1568 1574 1587 1050 1696 
C 960 1709 646 1779 646 2066 
C 646 2432 1050 2432 1139 2432 
C 1555 2432 1811 2303 1984 2208 
L 2061 2627 
z
" transform="scale(0.015625)"/>
     </defs>
     <use xlink:href="#CMSS17-4d" transform="scale(0.996264)"/>
     <use xlink:href="#CMSS17-65" transform="translate(81.67603 0) scale(0.996264)"/>
     <use xlink:href="#CMSS17-61" transform="translate(123.314852 0) scale(0.996264)"/>
     <use xlink:href="#CMSS17-6e" transform="translate(168.236773 0) scale(0.996264)"/>
     <use xlink:href="#CMSS17-53" transform="translate(247.670829 0) scale(0.996264)"/>
     <use xlink:href="#CMSS17-71" transform="translate(299.719345 0) scale(0.996264)"/>
     <use xlink:href="#CMSS17-75" transform="translate(347.924288 0) scale(0.996264)"/>
     <use xlink:href="#CMSS17-61" transform="translate(396.129231 0) scale(0.996264)"/>
     <use xlink:href="#CMSS17-72" transform="translate(438.448698 0) scale(0.996264)"/>
     <use xlink:href="#CMSS17-65" transform="translate(470.35847 0) scale(0.996264)"/>
     <use xlink:href="#CMSS17-64" transform="translate(511.997292 0) scale(0.996264)"/>
     <use xlink:href="#CMSS17-45" transform="translate(591.431348 0) scale(0.996264)"/>
     <use xlink:href="#CMSS17-72" transform="translate(647.323361 0) scale(0.996264)"/>
     <use xlink:href="#CMSS17-72" transform="translate(679.233134 0) scale(0.996264)"/>
     <use xlink:href="#CMSS17-6f" transform="translate(711.142906 0) scale(0.996264)"/>
     <use xlink:href="#CMSS17-72" transform="translate(755.384076 0) scale(0.996264)"/>
     <use xlink:href="#CMSS17-28" transform="translate(818.522961 0) scale(0.996264)"/>
     <use xlink:href="#CMSS17-4d" transform="translate(854.956876 0) scale(0.996264)"/>
     <use xlink:href="#CMSS17-53" transform="translate(936.632906 0) scale(0.996264)"/>
     <use xlink:href="#CMSS17-45" transform="translate(988.681422 0) scale(0.996264)"/>
     <use xlink:href="#CMSS17-29" transform="translate(1044.573435 0) scale(0.996264)"/>
     <use xlink:href="#CMSS17-76" transform="translate(1112.236462 0) scale(0.996264)"/>
     <use xlink:href="#CMSS17-73" transform="translate(1155.236604 0) scale(0.996264)"/>
     <use xlink:href="#CMSS17-53" transform="translate(1222.379258 0) scale(0.996264)"/>
     <use xlink:href="#CMSS17-74" transform="translate(1274.427775 0) scale(0.996264)"/>
     <use xlink:href="#CMSS17-65" transform="translate(1308.259341 0) scale(0.996264)"/>
     <use xlink:href="#CMSS17-70" transform="translate(1349.898163 0) scale(0.996264)"/>
    </g>
   </g>
   <g id="legend_1">
    <g id="patch_7">
     <path d="M 114.805899 191.675953 
L 319.090483 191.675953 
Q 323.490483 191.675953 323.490483 187.275953 
L 323.490483 65.231226 
Q 323.490483 60.831226 319.090483 60.831226 
L 114.805899 60.831226 
Q 110.405899 60.831226 110.405899 65.231226 
L 110.405899 187.275953 
Q 110.405899 191.675953 114.805899 191.675953 
z
" style="fill: #ffffff; opacity: 0.8; stroke: #cccccc; stroke-linejoin: miter"/>
    </g>
    <g id="text_17">
     <!-- Confidence threshold -->
     <g style="fill: #262626" transform="translate(119.205899 86.235632) scale(0.24 -0.24)">
      <defs>
       <path id="CMSS17-43" d="M 3501 714 
C 3072 427 2874 344 2355 344 
C 1459 344 934 1303 934 2179 
C 934 3112 1472 4032 2381 4032 
C 2790 4032 3059 3918 3386 3715 
L 3475 4217 
C 3168 4370 2778 4440 2387 4440 
C 1158 4440 397 3316 397 2179 
C 397 927 1299 -64 2323 -64 
C 2874 -64 3066 -19 3539 280 
L 3501 714 
z
" transform="scale(0.015625)"/>
       <path id="CMSS17-c" d="M 2752 4416 
L 2240 4416 
L 2240 3906 
L 2752 3906 
L 2752 4416 
z
M 2733 2737 
L 2259 2737 
L 2259 0 
L 2733 0 
L 2733 2737 
z
M 1075 2368 
L 1773 2368 
L 1773 2737 
L 1062 2737 
L 1062 3578 
C 1062 3919 1216 4092 1421 4092 
C 1542 4092 1664 4056 1773 3992 
L 1773 4410 
C 1722 4428 1574 4480 1421 4480 
C 941 4480 602 3993 602 3372 
L 602 2737 
L 160 2737 
L 160 2368 
L 602 2368 
L 602 0 
L 1075 0 
L 1075 2368 
z
" transform="scale(0.015625)"/>
       <path id="CMSS17-63" d="M 2464 2541 
C 2464 2585 2170 2714 2093 2739 
C 1882 2816 1613 2816 1542 2816 
C 710 2816 211 2093 211 1363 
C 211 595 768 -64 1517 -64 
C 1946 -64 2253 76 2502 242 
L 2464 664 
C 2189 453 1869 337 1523 337 
C 1024 337 698 774 698 1369 
C 698 1831 909 2414 1549 2414 
C 1901 2414 2099 2343 2394 2145 
L 2464 2541 
z
" transform="scale(0.015625)"/>
       <path id="CMSS17-68" d="M 2618 1891 
C 2618 2292 2522 2820 1798 2820 
C 1395 2820 1133 2623 947 2407 
L 947 4448 
L 474 4448 
L 474 32 
L 960 32 
L 960 1573 
C 960 1973 1114 2432 1549 2432 
C 2112 2432 2131 2056 2131 1839 
L 2131 32 
L 2618 32 
L 2618 1891 
z
" transform="scale(0.015625)"/>
       <path id="CMSS17-6c" d="M 947 4416 
L 474 4416 
L 474 0 
L 947 0 
L 947 4416 
z
" transform="scale(0.015625)"/>
      </defs>
      <use xlink:href="#CMSS17-43" transform="scale(0.996264)"/>
      <use xlink:href="#CMSS17-6f" transform="translate(59.855772 0) scale(0.996264)"/>
      <use xlink:href="#CMSS17-6e" transform="translate(106.699395 0) scale(0.996264)"/>
      <use xlink:href="#CMSS17-c" transform="translate(154.904338 0) scale(0.996264)"/>
      <use xlink:href="#CMSS17-64" transform="translate(205.031075 0) scale(0.996264)"/>
      <use xlink:href="#CMSS17-65" transform="translate(253.236019 0) scale(0.996264)"/>
      <use xlink:href="#CMSS17-6e" transform="translate(294.874841 0) scale(0.996264)"/>
      <use xlink:href="#CMSS17-63" transform="translate(343.079784 0) scale(0.996264)"/>
      <use xlink:href="#CMSS17-65" transform="translate(384.718606 0) scale(0.996264)"/>
      <use xlink:href="#CMSS17-74" transform="translate(457.586541 0) scale(0.996264)"/>
      <use xlink:href="#CMSS17-68" transform="translate(491.418107 0) scale(0.996264)"/>
      <use xlink:href="#CMSS17-72" transform="translate(539.623051 0) scale(0.996264)"/>
      <use xlink:href="#CMSS17-65" transform="translate(571.532823 0) scale(0.996264)"/>
      <use xlink:href="#CMSS17-73" transform="translate(613.171645 0) scale(0.996264)"/>
      <use xlink:href="#CMSS17-68" transform="translate(649.085187 0) scale(0.996264)"/>
      <use xlink:href="#CMSS17-6f" transform="translate(697.29013 0) scale(0.996264)"/>
      <use xlink:href="#CMSS17-6c" transform="translate(744.133754 0) scale(0.996264)"/>
      <use xlink:href="#CMSS17-64" transform="translate(766.314477 0) scale(0.996264)"/>
     </g>
    </g>
    <g id="line2d_17">
     <path d="M 172.979936 109.586389 
L 194.979936 109.586389 
L 216.979936 109.586389 
" style="fill: none; stroke: #4c72b0; stroke-width: 1.5; stroke-linecap: round"/>
    </g>
    <g id="text_18">
     <!-- 0.1 -->
     <g style="fill: #262626" transform="translate(234.579936 117.286389) scale(0.22 -0.22)">
      <defs>
       <path id="CMSS17-30" d="M 2758 2044 
C 2758 2405 2752 3077 2490 3596 
C 2227 4096 1805 4229 1504 4229 
C 1069 4229 698 3975 506 3570 
C 301 3146 243 2709 243 2044 
C 243 1589 262 1031 493 543 
C 755 5 1197 -128 1498 -128 
C 1894 -128 2278 81 2496 518 
C 2720 974 2758 1474 2758 2044 
z
M 1498 261 
C 1011 261 864 811 819 995 
C 742 1310 730 1614 730 2114 
C 730 2506 730 2948 851 3297 
C 998 3701 1254 3840 1498 3840 
C 1971 3840 2125 3372 2176 3208 
C 2272 2873 2272 2481 2272 2114 
C 2272 1526 2272 261 1498 261 
z
" transform="scale(0.015625)"/>
       <path id="CMSS17-2e" d="M 1088 510 
L 576 510 
L 576 0 
L 1088 0 
L 1088 510 
z
" transform="scale(0.015625)"/>
       <path id="CMSS17-31" d="M 1818 4288 
L 1696 4288 
C 1350 3940 947 3890 538 3890 
L 538 3520 
C 723 3520 1024 3520 1325 3667 
L 1325 369 
L 570 369 
L 570 0 
L 2573 0 
L 2573 369 
L 1818 369 
L 1818 4288 
z
" transform="scale(0.015625)"/>
      </defs>
      <use xlink:href="#CMSS17-30" transform="scale(0.996264)"/>
      <use xlink:href="#CMSS17-2e" transform="translate(46.843624 0) scale(0.996264)"/>
      <use xlink:href="#CMSS17-31" transform="translate(72.867828 0) scale(0.996264)"/>
     </g>
    </g>
    <g id="line2d_18">
     <path d="M 172.979936 140.249577 
L 194.979936 140.249577 
L 216.979936 140.249577 
" style="fill: none; stroke: #dd8452; stroke-width: 1.5; stroke-linecap: round"/>
    </g>
    <g id="text_19">
     <!-- 0.2 -->
     <g style="fill: #262626" transform="translate(234.579936 147.949577) scale(0.22 -0.22)">
      <defs>
       <path id="CMSS17-32" d="M 1651 1357 
C 1830 1541 2099 1764 2285 1987 
C 2464 2204 2701 2511 2701 2957 
C 2701 3657 2227 4288 1421 4288 
C 787 4288 422 3893 250 3274 
L 499 2929 
C 640 3510 838 3880 1338 3880 
C 1888 3880 2195 3433 2195 2942 
C 2195 2355 1747 1901 1408 1563 
C 1030 1187 659 804 301 408 
L 301 0 
L 2701 0 
L 2701 433 
L 1613 433 
C 1536 433 1459 433 1382 433 
L 742 433 
L 742 439 
L 1651 1357 
z
" transform="scale(0.015625)"/>
      </defs>
      <use xlink:href="#CMSS17-30" transform="scale(0.996264)"/>
      <use xlink:href="#CMSS17-2e" transform="translate(46.843624 0) scale(0.996264)"/>
      <use xlink:href="#CMSS17-32" transform="translate(72.867828 0) scale(0.996264)"/>
     </g>
    </g>
    <g id="line2d_19">
     <path d="M 172.979936 170.912765 
L 194.979936 170.912765 
L 216.979936 170.912765 
" style="fill: none; stroke: #55a868; stroke-width: 1.5; stroke-linecap: round"/>
    </g>
    <g id="text_20">
     <!-- 0.3 -->
     <g style="fill: #262626" transform="translate(234.579936 178.612765) scale(0.22 -0.22)">
      <defs>
       <path id="CMSS17-33" d="M 1005 2025 
L 1440 2025 
C 2042 2025 2214 1507 2214 1146 
C 2214 653 1933 267 1472 267 
C 1114 267 608 444 320 912 
C 275 691 275 678 250 526 
C 550 88 1037 -128 1485 -128 
C 2214 -128 2752 473 2752 1138 
C 2752 1638 2400 2057 1920 2215 
C 2304 2424 2586 2816 2586 3273 
C 2586 3805 2093 4229 1491 4229 
C 941 4229 512 3892 333 3530 
C 378 3468 493 3284 550 3189 
C 691 3562 1056 3840 1485 3840 
C 1843 3840 2080 3607 2080 3271 
C 2080 2923 1856 2543 1478 2455 
C 1453 2455 1056 2417 1005 2411 
L 1005 2025 
z
" transform="scale(0.015625)"/>
      </defs>
      <use xlink:href="#CMSS17-30" transform="scale(0.996264)"/>
      <use xlink:href="#CMSS17-2e" transform="translate(46.843624 0) scale(0.996264)"/>
      <use xlink:href="#CMSS17-33" transform="translate(72.867828 0) scale(0.996264)"/>
     </g>
    </g>
   </g>
  </g>
 </g>
 <defs>
  <clipPath id="p13627557d6">
   <rect x="99.405899" y="49.831226" width="594.674101" height="446.00973"/>
  </clipPath>
 </defs>
</svg>
