<?xml version="1.0" encoding="utf-8" standalone="no"?>
<!DOCTYPE svg PUBLIC "-//W3C//DTD SVG 1.1//EN"
  "http://www.w3.org/Graphics/SVG/1.1/DTD/svg11.dtd">
<svg xmlns:xlink="http://www.w3.org/1999/xlink" width="720pt" height="576pt" viewBox="0 0 720 576" xmlns="http://www.w3.org/2000/svg" version="1.1">
 <metadata>
  <rdf:RDF xmlns:dc="http://purl.org/dc/elements/1.1/" xmlns:cc="http://creativecommons.org/ns#" xmlns:rdf="http://www.w3.org/1999/02/22-rdf-syntax-ns#">
   <cc:Work>
    <dc:type rdf:resource="http://purl.org/dc/dcmitype/StillImage"/>
    <dc:date>2025-04-25T21:13:57.948961</dc:date>
    <dc:format>image/svg+xml</dc:format>
    <dc:creator>
     <cc:Agent>
      <dc:title>Matplotlib v3.9.2, https://matplotlib.org/</dc:title>
     </cc:Agent>
    </dc:creator>
   </cc:Work>
  </rdf:RDF>
 </metadata>
 <defs>
  <style type="text/css">*{stroke-linejoin: round; stroke-linecap: butt}</style>
 </defs>
 <g id="figure_1">
  <g id="patch_1">
   <path d="M 0 576 
L 720 576 
L 720 0 
L 0 0 
z
" style="fill: #ffffff"/>
  </g>
  <g id="axes_1">
   <g id="patch_2">
    <path d="M 66.27864 513.338305 
L 702.72 513.338305 
L 702.72 17.28 
L 66.27864 17.28 
z
" style="fill: #ffffff"/>
   </g>
   <g id="matplotlib.axis_1">
    <g id="xtick_1">
     <g id="line2d_1">
      <path d="M 95.207792 513.338305 
L 95.207792 17.28 
" clip-path="url(#p9873a07857)" style="fill: none; stroke: #cccccc; stroke-linecap: round"/>
     </g>
     <g id="text_1">
      <!-- $\mathdefault{0}$ -->
      <g style="fill: #262626" transform="translate(91.305799 533.907893) scale(0.16 -0.16)">
       <defs>
        <path id="CMR17-30" d="M 2688 2025 
C 2688 2416 2682 3080 2413 3591 
C 2176 4039 1798 4198 1466 4198 
C 1158 4198 768 4058 525 3597 
C 269 3118 243 2524 243 2025 
C 243 1661 250 1106 448 619 
C 723 -39 1216 -128 1466 -128 
C 1760 -128 2208 -7 2470 600 
C 2662 1042 2688 1559 2688 2025 
z
M 1466 -26 
C 1056 -26 813 325 723 812 
C 653 1188 653 1738 653 2096 
C 653 2588 653 2997 736 3387 
C 858 3929 1216 4096 1466 4096 
C 1728 4096 2067 3923 2189 3400 
C 2272 3036 2278 2607 2278 2096 
C 2278 1680 2278 1169 2202 792 
C 2067 95 1690 -26 1466 -26 
z
" transform="scale(0.015625)"/>
       </defs>
       <use xlink:href="#CMR17-30" transform="scale(0.996264)"/>
      </g>
     </g>
    </g>
    <g id="xtick_2">
     <g id="line2d_2">
      <path d="M 212.093258 513.338305 
L 212.093258 17.28 
" clip-path="url(#p9873a07857)" style="fill: none; stroke: #cccccc; stroke-linecap: round"/>
     </g>
     <g id="text_2">
      <!-- $\mathdefault{200}$ -->
      <g style="fill: #262626" transform="translate(200.387278 533.907893) scale(0.16 -0.16)">
       <defs>
        <path id="CMR17-32" d="M 2669 989 
L 2554 989 
C 2490 536 2438 459 2413 420 
C 2381 369 1920 369 1830 369 
L 602 369 
C 832 619 1280 1072 1824 1597 
C 2214 1967 2669 2402 2669 3035 
C 2669 3790 2067 4224 1395 4224 
C 691 4224 262 3604 262 3030 
C 262 2780 448 2748 525 2748 
C 589 2748 781 2787 781 3010 
C 781 3207 614 3264 525 3264 
C 486 3264 448 3258 422 3245 
C 544 3790 915 4058 1306 4058 
C 1862 4058 2227 3617 2227 3035 
C 2227 2479 1901 2000 1536 1584 
L 262 146 
L 262 0 
L 2515 0 
L 2669 989 
z
" transform="scale(0.015625)"/>
       </defs>
       <use xlink:href="#CMR17-32" transform="scale(0.996264)"/>
       <use xlink:href="#CMR17-30" transform="translate(45.690477 0) scale(0.996264)"/>
       <use xlink:href="#CMR17-30" transform="translate(91.380954 0) scale(0.996264)"/>
      </g>
     </g>
    </g>
    <g id="xtick_3">
     <g id="line2d_3">
      <path d="M 328.978724 513.338305 
L 328.978724 17.28 
" clip-path="url(#p9873a07857)" style="fill: none; stroke: #cccccc; stroke-linecap: round"/>
     </g>
     <g id="text_3">
      <!-- $\mathdefault{400}$ -->
      <g style="fill: #262626" transform="translate(317.272743 533.907893) scale(0.16 -0.16)">
       <defs>
        <path id="CMR17-34" d="M 2150 4122 
C 2150 4256 2144 4256 2029 4256 
L 128 1254 
L 128 1088 
L 1779 1088 
L 1779 457 
C 1779 224 1766 160 1318 160 
L 1197 160 
L 1197 0 
C 1402 0 1747 0 1965 0 
C 2182 0 2528 0 2733 0 
L 2733 160 
L 2611 160 
C 2163 160 2150 224 2150 457 
L 2150 1088 
L 2803 1088 
L 2803 1254 
L 2150 1254 
L 2150 4122 
z
M 1798 3703 
L 1798 1254 
L 256 1254 
L 1798 3703 
z
" transform="scale(0.015625)"/>
       </defs>
       <use xlink:href="#CMR17-34" transform="scale(0.996264)"/>
       <use xlink:href="#CMR17-30" transform="translate(45.690477 0) scale(0.996264)"/>
       <use xlink:href="#CMR17-30" transform="translate(91.380954 0) scale(0.996264)"/>
      </g>
     </g>
    </g>
    <g id="xtick_4">
     <g id="line2d_4">
      <path d="M 445.864189 513.338305 
L 445.864189 17.28 
" clip-path="url(#p9873a07857)" style="fill: none; stroke: #cccccc; stroke-linecap: round"/>
     </g>
     <g id="text_4">
      <!-- $\mathdefault{600}$ -->
      <g style="fill: #262626" transform="translate(434.158209 533.907893) scale(0.16 -0.16)">
       <defs>
        <path id="CMR17-36" d="M 678 2176 
C 678 3690 1395 4032 1811 4032 
C 1946 4032 2272 4009 2400 3776 
C 2298 3776 2106 3776 2106 3553 
C 2106 3381 2246 3323 2336 3323 
C 2394 3323 2566 3348 2566 3560 
C 2566 3954 2246 4179 1805 4179 
C 1043 4179 243 3390 243 1984 
C 243 253 966 -128 1478 -128 
C 2099 -128 2688 427 2688 1283 
C 2688 2081 2170 2662 1517 2662 
C 1126 2662 838 2407 678 1960 
L 678 2176 
z
M 1478 25 
C 691 25 691 1200 691 1436 
C 691 1896 909 2560 1504 2560 
C 1613 2560 1926 2560 2138 2120 
C 2253 1870 2253 1609 2253 1289 
C 2253 944 2253 690 2118 434 
C 1978 171 1773 25 1478 25 
z
" transform="scale(0.015625)"/>
       </defs>
       <use xlink:href="#CMR17-36" transform="scale(0.996264)"/>
       <use xlink:href="#CMR17-30" transform="translate(45.690477 0) scale(0.996264)"/>
       <use xlink:href="#CMR17-30" transform="translate(91.380954 0) scale(0.996264)"/>
      </g>
     </g>
    </g>
    <g id="xtick_5">
     <g id="line2d_5">
      <path d="M 562.749655 513.338305 
L 562.749655 17.28 
" clip-path="url(#p9873a07857)" style="fill: none; stroke: #cccccc; stroke-linecap: round"/>
     </g>
     <g id="text_5">
      <!-- $\mathdefault{800}$ -->
      <g style="fill: #262626" transform="translate(551.043674 533.907893) scale(0.16 -0.16)">
       <defs>
        <path id="CMR17-38" d="M 1741 2264 
C 2144 2467 2554 2773 2554 3263 
C 2554 3841 1990 4179 1472 4179 
C 890 4179 378 3759 378 3180 
C 378 3021 416 2747 666 2505 
C 730 2442 998 2251 1171 2130 
C 883 1983 211 1634 211 934 
C 211 279 838 -128 1459 -128 
C 2144 -128 2720 362 2720 1010 
C 2720 1590 2330 1857 2074 2029 
L 1741 2264 
z
M 902 2822 
C 851 2854 595 3051 595 3351 
C 595 3739 998 4032 1459 4032 
C 1965 4032 2336 3676 2336 3262 
C 2336 2669 1670 2331 1638 2331 
C 1632 2331 1626 2331 1574 2370 
L 902 2822 
z
M 2080 1519 
C 2176 1449 2483 1240 2483 851 
C 2483 381 2010 25 1472 25 
C 890 25 448 438 448 940 
C 448 1443 838 1862 1280 2060 
L 2080 1519 
z
" transform="scale(0.015625)"/>
       </defs>
       <use xlink:href="#CMR17-38" transform="scale(0.996264)"/>
       <use xlink:href="#CMR17-30" transform="translate(45.690477 0) scale(0.996264)"/>
       <use xlink:href="#CMR17-30" transform="translate(91.380954 0) scale(0.996264)"/>
      </g>
     </g>
    </g>
    <g id="xtick_6">
     <g id="line2d_6">
      <path d="M 679.635121 513.338305 
L 679.635121 17.28 
" clip-path="url(#p9873a07857)" style="fill: none; stroke: #cccccc; stroke-linecap: round"/>
     </g>
     <g id="text_6">
      <!-- $\mathdefault{1000}$ -->
      <g style="fill: #262626" transform="translate(664.027147 533.907893) scale(0.16 -0.16)">
       <defs>
        <path id="CMR17-31" d="M 1702 4058 
C 1702 4192 1696 4192 1606 4192 
C 1357 3916 979 3827 621 3827 
C 602 3827 570 3827 563 3808 
C 557 3795 557 3782 557 3648 
C 755 3648 1088 3686 1344 3839 
L 1344 461 
C 1344 236 1331 160 781 160 
L 589 160 
L 589 0 
C 896 0 1216 0 1523 0 
C 1830 0 2150 0 2458 0 
L 2458 160 
L 2266 160 
C 1715 160 1702 230 1702 458 
L 1702 4058 
z
" transform="scale(0.015625)"/>
       </defs>
       <use xlink:href="#CMR17-31" transform="scale(0.996264)"/>
       <use xlink:href="#CMR17-30" transform="translate(45.690477 0) scale(0.996264)"/>
       <use xlink:href="#CMR17-30" transform="translate(91.380954 0) scale(0.996264)"/>
       <use xlink:href="#CMR17-30" transform="translate(137.071431 0) scale(0.996264)"/>
      </g>
     </g>
    </g>
    <g id="text_7">
     <!-- Step -->
     <g style="fill: #262626" transform="translate(366.743615 554.844366) scale(0.2 -0.2)">
      <defs>
       <path id="CMR17-53" d="M 2803 4290 
C 2803 4404 2797 4411 2758 4411 
C 2720 4411 2707 4385 2682 4328 
L 2490 3907 
C 2246 4257 1875 4416 1472 4416 
C 819 4416 294 3901 294 3253 
C 294 3056 339 2776 557 2510 
C 794 2218 1018 2167 1530 2033 
C 1722 1982 2042 1899 2106 1874 
C 2470 1722 2662 1341 2662 985 
C 2662 527 2336 38 1779 38 
C 1094 38 454 419 410 1311 
C 403 1413 397 1419 352 1419 
C 301 1419 294 1413 294 1285 
L 294 -1 
C 294 -115 301 -122 339 -122 
C 384 -122 397 -90 486 108 
C 493 127 493 140 614 381 
C 934 -39 1472 -128 1779 -128 
C 2477 -128 2970 451 2970 1124 
C 2970 1454 2848 1708 2778 1823 
C 2509 2230 2221 2306 1914 2382 
C 1869 2402 1856 2402 1498 2490 
C 1152 2579 1005 2624 845 2796 
C 666 2992 602 3196 602 3399 
C 602 3812 934 4263 1478 4263 
C 2157 4263 2579 3786 2675 2993 
C 2694 2878 2701 2872 2746 2872 
C 2803 2872 2803 2891 2803 2999 
L 2803 4290 
z
" transform="scale(0.015625)"/>
       <path id="CMR17-74" d="M 966 2560 
L 1862 2560 
L 1862 2725 
L 966 2725 
L 966 3904 
L 851 3904 
C 838 3245 614 2668 70 2668 
L 70 2560 
L 627 2560 
L 627 771 
C 627 650 627 -64 1370 -64 
C 1747 -64 1965 306 1965 777 
L 1965 1140 
L 1850 1140 
L 1850 783 
C 1850 344 1677 51 1408 51 
C 1222 51 966 178 966 758 
L 966 2560 
z
" transform="scale(0.015625)"/>
       <path id="CMR17-65" d="M 2438 1472 
C 2464 1498 2464 1511 2464 1576 
C 2464 2238 2118 2816 1389 2816 
C 710 2816 173 2169 173 1383 
C 173 551 781 -64 1459 -64 
C 2176 -64 2458 607 2458 740 
C 2458 784 2419 784 2406 784 
C 2362 784 2355 771 2330 696 
C 2189 265 1837 51 1504 51 
C 1229 51 954 203 781 480 
C 582 803 582 1176 582 1472 
L 2438 1472 
z
M 589 1568 
C 634 2505 1126 2714 1382 2714 
C 1818 2714 2112 2297 2118 1568 
L 589 1568 
z
" transform="scale(0.015625)"/>
       <path id="CMR17-70" d="M 1408 -1063 
C 998 -1063 973 -1037 973 -789 
L 973 402 
C 1158 134 1427 -38 1766 -38 
C 2406 -38 3053 523 3053 1388 
C 3053 2191 2496 2802 1837 2802 
C 1453 2802 1139 2592 960 2338 
L 960 2802 
L 198 2732 
L 198 2567 
C 576 2567 634 2528 634 2223 
L 634 -789 
C 634 -1031 608 -1063 198 -1063 
L 198 -1228 
C 352 -1216 634 -1216 800 -1216 
C 966 -1216 1254 -1216 1408 -1228 
L 1408 -1063 
z
M 973 2012 
C 973 2102 973 2235 1222 2471 
C 1254 2497 1472 2688 1792 2688 
C 2259 2688 2643 2108 2643 1382 
C 2643 656 2234 64 1728 64 
C 1498 64 1248 172 1056 472 
C 973 612 973 650 973 752 
L 973 2012 
z
" transform="scale(0.015625)"/>
      </defs>
      <use xlink:href="#CMR17-53" transform="scale(0.996264)"/>
      <use xlink:href="#CMR17-74" transform="translate(50.89537 0) scale(0.996264)"/>
      <use xlink:href="#CMR17-65" transform="translate(86.176138 0) scale(0.996264)"/>
      <use xlink:href="#CMR17-70" transform="translate(126.661798 0) scale(0.996264)"/>
     </g>
    </g>
   </g>
   <g id="matplotlib.axis_2">
    <g id="ytick_1">
     <g id="line2d_7">
      <path d="M 66.27864 498.980394 
L 702.72 498.980394 
" clip-path="url(#p9873a07857)" style="fill: none; stroke: #cccccc; stroke-linecap: round"/>
     </g>
     <g id="text_8">
      <!-- $\mathdefault{0}$ -->
      <g style="fill: #262626" transform="translate(48.974653 504.515188) scale(0.16 -0.16)">
       <use xlink:href="#CMR17-30" transform="scale(0.996264)"/>
      </g>
     </g>
    </g>
    <g id="ytick_2">
     <g id="line2d_8">
      <path d="M 66.27864 415.406989 
L 702.72 415.406989 
" clip-path="url(#p9873a07857)" style="fill: none; stroke: #cccccc; stroke-linecap: round"/>
     </g>
     <g id="text_9">
      <!-- $\mathdefault{5}$ -->
      <g style="fill: #262626" transform="translate(48.974653 420.941783) scale(0.16 -0.16)">
       <defs>
        <path id="CMR17-35" d="M 730 3692 
C 794 3666 1056 3584 1325 3584 
C 1920 3584 2246 3911 2432 4100 
C 2432 4157 2432 4192 2394 4192 
C 2387 4192 2374 4192 2323 4163 
C 2099 4058 1837 3973 1517 3973 
C 1325 3973 1037 3999 723 4139 
C 653 4171 640 4171 634 4171 
C 602 4171 595 4164 595 4037 
L 595 2203 
C 595 2089 595 2057 659 2057 
C 691 2057 704 2070 736 2114 
C 941 2401 1222 2522 1542 2522 
C 1766 2522 2246 2382 2246 1289 
C 2246 1085 2246 715 2054 421 
C 1894 159 1645 25 1370 25 
C 947 25 518 320 403 814 
C 429 807 480 795 506 795 
C 589 795 749 840 749 1038 
C 749 1210 627 1280 506 1280 
C 358 1280 262 1190 262 1011 
C 262 454 704 -128 1382 -128 
C 2042 -128 2669 440 2669 1264 
C 2669 2030 2170 2624 1549 2624 
C 1222 2624 947 2503 730 2274 
L 730 3692 
z
" transform="scale(0.015625)"/>
       </defs>
       <use xlink:href="#CMR17-35" transform="scale(0.996264)"/>
      </g>
     </g>
    </g>
    <g id="ytick_3">
     <g id="line2d_9">
      <path d="M 66.27864 331.833583 
L 702.72 331.833583 
" clip-path="url(#p9873a07857)" style="fill: none; stroke: #cccccc; stroke-linecap: round"/>
     </g>
     <g id="text_10">
      <!-- $\mathdefault{10}$ -->
      <g style="fill: #262626" transform="translate(41.170666 337.368377) scale(0.16 -0.16)">
       <use xlink:href="#CMR17-31" transform="scale(0.996264)"/>
       <use xlink:href="#CMR17-30" transform="translate(45.690477 0) scale(0.996264)"/>
      </g>
     </g>
    </g>
    <g id="ytick_4">
     <g id="line2d_10">
      <path d="M 66.27864 248.260178 
L 702.72 248.260178 
" clip-path="url(#p9873a07857)" style="fill: none; stroke: #cccccc; stroke-linecap: round"/>
     </g>
     <g id="text_11">
      <!-- $\mathdefault{15}$ -->
      <g style="fill: #262626" transform="translate(41.170666 253.794972) scale(0.16 -0.16)">
       <use xlink:href="#CMR17-31" transform="scale(0.996264)"/>
       <use xlink:href="#CMR17-35" transform="translate(45.690477 0) scale(0.996264)"/>
      </g>
     </g>
    </g>
    <g id="ytick_5">
     <g id="line2d_11">
      <path d="M 66.27864 164.686772 
L 702.72 164.686772 
" clip-path="url(#p9873a07857)" style="fill: none; stroke: #cccccc; stroke-linecap: round"/>
     </g>
     <g id="text_12">
      <!-- $\mathdefault{20}$ -->
      <g style="fill: #262626" transform="translate(41.170666 170.221567) scale(0.16 -0.16)">
       <use xlink:href="#CMR17-32" transform="scale(0.996264)"/>
       <use xlink:href="#CMR17-30" transform="translate(45.690477 0) scale(0.996264)"/>
      </g>
     </g>
    </g>
    <g id="ytick_6">
     <g id="line2d_12">
      <path d="M 66.27864 81.113367 
L 702.72 81.113367 
" clip-path="url(#p9873a07857)" style="fill: none; stroke: #cccccc; stroke-linecap: round"/>
     </g>
     <g id="text_13">
      <!-- $\mathdefault{25}$ -->
      <g style="fill: #262626" transform="translate(41.170666 86.648161) scale(0.16 -0.16)">
       <use xlink:href="#CMR17-32" transform="scale(0.996264)"/>
       <use xlink:href="#CMR17-35" transform="translate(45.690477 0) scale(0.996264)"/>
      </g>
     </g>
    </g>
    <g id="text_14">
     <!-- Percentage Explored (\%) -->
     <g style="fill: #262626" transform="translate(32.206022 365.188382) rotate(-90) scale(0.2 -0.2)">
      <defs>
       <path id="CMR17-50" d="M 1267 2042 
L 2291 2042 
C 3117 2042 3718 2578 3718 3184 
C 3718 3791 3130 4352 2291 4352 
L 333 4352 
L 333 4186 
C 774 4186 845 4186 845 3899 
L 845 446 
C 845 160 774 160 333 160 
L 333 0 
C 518 0 858 0 1056 0 
C 1254 0 1594 0 1779 0 
L 1779 160 
C 1338 160 1267 160 1267 446 
L 1267 2042 
z
M 1254 2176 
L 1254 3938 
C 1254 4155 1267 4186 1523 4186 
L 2170 4186 
C 2995 4186 3232 3714 3232 3184 
C 3232 2604 2950 2176 2170 2176 
L 1254 2176 
z
" transform="scale(0.015625)"/>
       <path id="CMR17-72" d="M 960 1497 
C 960 2112 1222 2688 1702 2688 
C 1747 2688 1792 2682 1837 2662 
C 1837 2662 1696 2617 1696 2452 
C 1696 2298 1818 2234 1914 2234 
C 1990 2234 2131 2279 2131 2458 
C 2131 2663 1926 2790 1709 2790 
C 1222 2790 1011 2317 947 2093 
L 941 2093 
L 941 2790 
L 198 2720 
L 198 2554 
C 576 2554 634 2515 634 2208 
L 634 428 
C 634 184 608 153 198 153 
L 198 -13 
C 352 0 646 0 813 0 
C 998 0 1325 0 1498 -13 
L 1498 153 
C 1037 153 960 153 960 440 
L 960 1497 
z
" transform="scale(0.015625)"/>
       <path id="CMR17-63" d="M 2234 2240 
C 2112 2240 1933 2240 1933 2017 
C 1933 1838 2080 1787 2163 1787 
C 2208 1787 2394 1807 2394 2024 
C 2394 2467 1958 2803 1466 2803 
C 787 2803 211 2178 211 1363 
C 211 516 813 -64 1466 -64 
C 2259 -64 2458 677 2458 748 
C 2458 774 2451 793 2406 793 
C 2362 793 2355 787 2330 703 
C 2163 180 1798 51 1523 51 
C 1114 51 621 427 621 1369 
C 621 2338 1094 2688 1472 2688 
C 1722 2688 2093 2573 2234 2240 
z
" transform="scale(0.015625)"/>
       <path id="CMR17-6e" d="M 2656 1933 
C 2656 2259 2592 2790 1837 2790 
C 1331 2790 1069 2400 973 2144 
L 966 2144 
L 966 2790 
L 211 2720 
L 211 2554 
C 589 2554 646 2515 646 2208 
L 646 428 
C 646 184 621 153 211 153 
L 211 -13 
C 365 0 646 0 813 0 
C 979 0 1267 0 1421 -13 
L 1421 153 
C 1011 153 986 178 986 428 
L 986 1658 
C 986 2247 1344 2688 1792 2688 
C 2266 2688 2317 2266 2317 1958 
L 2317 428 
C 2317 184 2291 153 1882 153 
L 1882 -13 
C 2035 0 2317 0 2483 0 
C 2650 0 2938 0 3091 -13 
L 3091 153 
C 2682 153 2656 178 2656 428 
L 2656 1933 
z
" transform="scale(0.015625)"/>
       <path id="CMR17-61" d="M 2304 1653 
C 2304 2072 2304 2294 2035 2543 
C 1798 2752 1523 2816 1306 2816 
C 800 2816 435 2407 435 1971 
C 435 1728 627 1728 666 1728 
C 749 1728 896 1778 896 1954 
C 896 2112 774 2181 666 2181 
C 640 2181 608 2174 589 2168 
C 723 2592 1069 2714 1293 2714 
C 1613 2714 1965 2429 1965 1885 
L 1965 1600 
C 1587 1600 1133 1549 774 1357 
C 371 1133 256 813 256 570 
C 256 77 832 -64 1171 -64 
C 1523 -64 1850 139 1990 511 
C 2003 233 2182 -18 2464 -18 
C 2598 -18 2938 70 2938 567 
L 2938 920 
L 2822 920 
L 2822 562 
C 2822 178 2650 128 2566 128 
C 2304 128 2304 458 2304 738 
L 2304 1653 
z
M 1965 870 
C 1965 317 1568 38 1216 38 
C 896 38 646 275 646 570 
C 646 761 730 1100 1101 1305 
C 1408 1478 1760 1504 1965 1504 
L 1965 870 
z
" transform="scale(0.015625)"/>
       <path id="CMR17-67" d="M 710 1164 
C 832 1068 1043 960 1299 960 
C 1805 960 2240 1357 2240 1888 
C 2240 2054 2189 2310 1997 2509 
C 2176 2692 2438 2752 2586 2752 
C 2611 2752 2650 2752 2682 2734 
C 2656 2728 2598 2703 2598 2605 
C 2598 2527 2656 2471 2739 2471 
C 2835 2471 2886 2533 2886 2614 
C 2886 2731 2790 2854 2586 2854 
C 2330 2854 2106 2738 1926 2580 
C 1734 2753 1504 2816 1299 2816 
C 794 2816 358 2419 358 1888 
C 358 1522 570 1292 634 1228 
C 442 1004 442 743 442 711 
C 442 545 506 302 723 168 
C 390 85 128 -169 128 -486 
C 128 -943 736 -1280 1466 -1280 
C 2170 -1280 2803 -956 2803 -479 
C 2803 384 1856 384 1363 384 
C 1216 384 954 384 922 391 
C 723 423 589 602 589 826 
C 589 883 589 1024 710 1164 
z
M 1299 1068 
C 736 1068 736 1760 736 1889 
C 736 2016 736 2708 1299 2708 
C 1862 2708 1862 2016 1862 1889 
C 1862 1760 1862 1068 1299 1068 
z
M 1466 -1171 
C 826 -1171 384 -835 384 -486 
C 384 -289 493 -105 634 -4 
C 794 104 858 104 1293 104 
C 1818 104 2547 104 2547 -486 
C 2547 -835 2106 -1171 1466 -1171 
z
" transform="scale(0.015625)"/>
       <path id="CMR17-45" d="M 3885 1615 
L 3770 1615 
C 3629 676 3546 166 2419 166 
L 1530 166 
C 1274 166 1261 197 1261 414 
L 1261 2176 
L 1862 2176 
C 2464 2176 2522 1960 2522 1430 
L 2637 1430 
L 2637 3081 
L 2522 3081 
C 2522 2557 2464 2342 1862 2342 
L 1261 2342 
L 1261 3913 
C 1261 4128 1274 4160 1530 4160 
L 2406 4160 
C 3398 4160 3514 3769 3603 2929 
L 3718 2929 
L 3565 4325 
L 326 4325 
L 326 4160 
C 768 4160 838 4160 838 3874 
L 838 451 
C 838 166 768 166 326 166 
L 326 0 
L 3654 0 
L 3885 1615 
z
" transform="scale(0.015625)"/>
       <path id="CMR17-78" d="M 1664 1477 
C 1856 1726 2074 2006 2253 2216 
C 2464 2458 2707 2560 2989 2560 
L 2989 2726 
C 2880 2726 2656 2726 2541 2726 
C 2368 2726 2170 2726 2022 2732 
L 2022 2566 
C 2112 2553 2163 2489 2163 2400 
C 2163 2285 2099 2215 2067 2171 
L 1594 1573 
L 1030 2306 
C 973 2376 973 2388 973 2420 
C 973 2497 1037 2560 1146 2560 
L 1146 2732 
C 992 2726 717 2726 557 2726 
C 384 2726 179 2726 38 2732 
L 38 2560 
C 384 2560 461 2534 614 2343 
L 1350 1395 
C 1363 1382 1395 1344 1395 1325 
C 1395 1299 838 619 768 530 
C 480 185 179 160 6 160 
L 6 0 
C 115 0 339 0 454 0 
C 582 0 864 0 979 -6 
L 979 160 
C 941 166 838 179 838 325 
C 838 440 890 510 947 586 
L 1478 1236 
L 2035 512 
C 2086 442 2163 346 2163 301 
C 2163 211 2086 160 1984 160 
L 1984 -6 
C 2138 0 2413 0 2573 0 
C 2746 0 2950 0 3091 -6 
L 3091 160 
C 2771 160 2675 172 2522 370 
L 1664 1477 
z
" transform="scale(0.015625)"/>
       <path id="CMR17-6c" d="M 979 4396 
L 218 4326 
L 218 4160 
C 595 4160 653 4122 653 3817 
L 653 426 
C 653 184 627 153 218 153 
L 218 -13 
C 371 0 653 0 813 0 
C 979 0 1261 0 1414 -13 
L 1414 153 
C 1005 153 979 178 979 426 
L 979 4396 
z
" transform="scale(0.015625)"/>
       <path id="CMR17-6f" d="M 2758 1356 
C 2758 2176 2163 2816 1466 2816 
C 768 2816 173 2176 173 1356 
C 173 551 768 -64 1466 -64 
C 2163 -64 2758 551 2758 1356 
z
M 1466 51 
C 1165 51 909 230 762 480 
C 602 767 582 1126 582 1408 
C 582 1677 595 2010 762 2298 
C 890 2509 1139 2714 1466 2714 
C 1754 2714 1997 2554 2150 2330 
C 2349 2029 2349 1607 2349 1408 
C 2349 1158 2336 775 2163 467 
C 1984 173 1709 51 1466 51 
z
" transform="scale(0.015625)"/>
       <path id="CMR17-64" d="M 1869 4326 
L 1869 4160 
C 2246 4160 2304 4122 2304 3820 
L 2304 2345 
C 2278 2377 2016 2790 1498 2790 
C 845 2790 211 2208 211 1364 
C 211 525 806 -64 1434 -64 
C 1978 -64 2259 337 2291 380 
L 2291 -63 
L 3066 -63 
L 3066 128 
C 2688 128 2630 166 2630 473 
L 2630 4396 
L 1869 4326 
z
M 2291 755 
C 2291 563 2176 390 2029 262 
C 1811 70 1594 38 1472 38 
C 1286 38 621 134 621 1356 
C 621 2612 1363 2688 1530 2688 
C 1824 2688 2061 2522 2208 2291 
C 2291 2157 2291 2138 2291 2023 
L 2291 755 
z
" transform="scale(0.015625)"/>
       <path id="CMR17-28" d="M 1958 -1561 
C 1958 -1555 1958 -1542 1939 -1523 
C 1645 -1224 858 -407 858 1581 
C 858 3569 1632 4379 1946 4697 
C 1946 4704 1958 4717 1958 4736 
C 1958 4755 1939 4768 1914 4768 
C 1843 4768 1299 4296 986 3594 
C 666 2887 576 2199 576 1588 
C 576 1128 621 351 1005 -471 
C 1312 -1135 1837 -1600 1914 -1600 
C 1946 -1600 1958 -1587 1958 -1561 
z
" transform="scale(0.015625)"/>
       <path id="CMR17-25" d="M 4640 959 
C 4640 1698 4275 2240 3846 2240 
C 3411 2240 2970 1736 2970 959 
C 2970 183 3405 -320 3846 -320 
C 4275 -320 4640 215 4640 959 
z
M 3853 -218 
C 3686 -218 3270 -66 3270 959 
C 3270 1991 3686 2138 3853 2138 
C 4205 2138 4525 1634 4525 959 
C 4525 285 4205 -218 3853 -218 
z
M 4083 4577 
C 4128 4647 4134 4653 4134 4685 
C 4134 4761 4077 4800 4026 4800 
C 3962 4800 3936 4756 3891 4706 
C 3520 4190 3008 4134 2746 4134 
C 2106 4134 1715 4494 1594 4607 
C 1510 4682 1389 4800 1171 4800 
C 736 4800 294 4296 294 3519 
C 294 2743 730 2240 1171 2240 
C 1600 2240 1965 2778 1965 3527 
C 1965 3969 1830 4270 1811 4308 
C 2202 4064 2586 4032 2752 4032 
C 3162 4032 3456 4183 3616 4289 
L 3622 4283 
L 858 -84 
C 800 -174 800 -187 800 -206 
C 800 -276 858 -320 915 -320 
C 973 -320 992 -289 1037 -218 
L 4083 4577 
z
M 1178 2342 
C 1011 2342 595 2494 595 3519 
C 595 4551 1011 4698 1178 4698 
C 1530 4698 1850 4194 1850 3519 
C 1850 2845 1530 2342 1178 2342 
z
" transform="scale(0.015625)"/>
       <path id="CMR17-29" d="M 1683 1581 
C 1683 2040 1638 2817 1254 3639 
C 947 4303 422 4768 346 4768 
C 326 4768 301 4761 301 4729 
C 301 4717 307 4710 314 4697 
C 621 4378 1402 3568 1402 1584 
C 1402 -407 627 -1217 314 -1537 
C 307 -1549 301 -1556 301 -1568 
C 301 -1600 326 -1600 346 -1600 
C 416 -1600 960 -1128 1274 -426 
C 1594 281 1683 969 1683 1581 
z
" transform="scale(0.015625)"/>
      </defs>
      <use xlink:href="#CMR17-50" transform="scale(0.996264)"/>
      <use xlink:href="#CMR17-65" transform="translate(59.983847 0) scale(0.996264)"/>
      <use xlink:href="#CMR17-72" transform="translate(100.469507 0) scale(0.996264)"/>
      <use xlink:href="#CMR17-63" transform="translate(135.750275 0) scale(0.996264)"/>
      <use xlink:href="#CMR17-65" transform="translate(176.235935 0) scale(0.996264)"/>
      <use xlink:href="#CMR17-6e" transform="translate(216.721596 0) scale(0.996264)"/>
      <use xlink:href="#CMR17-74" transform="translate(265.014512 0) scale(0.996264)"/>
      <use xlink:href="#CMR17-61" transform="translate(300.295279 0) scale(0.996264)"/>
      <use xlink:href="#CMR17-67" transform="translate(345.985757 0) scale(0.996264)"/>
      <use xlink:href="#CMR17-65" transform="translate(391.676234 0) scale(0.996264)"/>
      <use xlink:href="#CMR17-45" transform="translate(462.23786 0) scale(0.996264)"/>
      <use xlink:href="#CMR17-78" transform="translate(524.824161 0) scale(0.996264)"/>
      <use xlink:href="#CMR17-70" transform="translate(573.117077 0) scale(0.996264)"/>
      <use xlink:href="#CMR17-6c" transform="translate(624.012447 0) scale(0.996264)"/>
      <use xlink:href="#CMR17-6f" transform="translate(648.883505 0) scale(0.996264)"/>
      <use xlink:href="#CMR17-72" transform="translate(694.573982 0) scale(0.996264)"/>
      <use xlink:href="#CMR17-65" transform="translate(729.85475 0) scale(0.996264)"/>
      <use xlink:href="#CMR17-64" transform="translate(770.34041 0) scale(0.996264)"/>
      <use xlink:href="#CMR17-28" transform="translate(851.311747 0) scale(0.996264)"/>
      <use xlink:href="#CMR17-25" transform="translate(886.592514 0) scale(0.996264)"/>
      <use xlink:href="#CMR17-29" transform="translate(963.512104 0) scale(0.996264)"/>
     </g>
    </g>
   </g>
   <g id="PolyCollection_1">
    <defs>
     <path id="meca74cf9e4" d="M 95.207792 -90.558498 
L 95.207792 -85.2098 
L 101.052066 -99.918719 
L 106.896339 -109.27894 
L 112.740612 -122.650685 
L 118.584886 -123.486419 
L 124.429159 -126.160768 
L 130.273432 -129.503705 
L 136.117705 -136.691017 
L 141.961979 -136.691017 
L 147.806252 -143.042596 
L 153.650525 -152.904258 
L 159.494799 -172.627582 
L 165.339072 -172.627582 
L 171.183345 -172.627582 
L 177.027618 -172.627582 
L 182.871892 -172.627582 
L 188.716165 -172.627582 
L 194.560438 -172.627582 
L 200.404712 -172.627582 
L 206.248985 -172.627582 
L 212.093258 -173.129022 
L 217.937531 -165.774562 
L 223.781805 -169.786086 
L 229.626078 -197.36531 
L 235.470351 -201.711127 
L 241.314624 -201.711127 
L 247.158898 -201.711127 
L 253.003171 -201.711127 
L 258.847444 -223.774506 
L 264.691718 -209.065586 
L 270.535991 -205.889797 
L 276.380264 -204.385476 
L 282.224537 -204.552623 
L 288.068811 -208.731293 
L 293.913084 -216.420046 
L 299.757357 -216.587193 
L 305.601631 -218.760101 
L 311.445904 -218.760101 
L 317.290177 -211.739935 
L 323.13445 -198.033897 
L 328.978724 -195.526695 
L 334.822997 -200.206805 
L 340.66727 -191.682318 
L 346.511544 -184.327858 
L 352.355817 -177.474839 
L 358.20009 -171.624701 
L 364.044363 -177.809133 
L 369.888637 -177.809133 
L 375.73291 -177.809133 
L 381.577183 -184.996446 
L 387.421457 -192.685199 
L 393.26573 -202.881154 
L 399.110003 -220.765863 
L 404.954276 -222.103038 
L 410.79855 -224.777387 
L 416.642823 -215.082872 
L 422.487096 -209.567027 
L 428.331369 -206.391237 
L 434.175643 -190.01085 
L 440.019916 -195.860988 
L 445.864189 -198.702484 
L 451.708463 -198.201044 
L 457.552736 -197.532457 
L 463.397009 -197.86675 
L 469.241282 -197.86675 
L 475.085556 -194.356667 
L 480.929829 -192.350905 
L 486.774102 -196.028135 
L 492.618376 -200.708246 
L 498.462649 -187.837941 
L 504.306922 -183.826418 
L 510.151195 -174.967637 
L 515.995469 -196.863869 
L 521.839742 -205.22121 
L 527.684015 -215.082872 
L 533.528289 -202.212567 
L 539.372562 -201.376833 
L 545.216835 -211.907082 
L 551.061108 -226.114561 
L 556.905382 -230.126085 
L 562.749655 -220.43157 
L 568.593928 -236.14337 
L 574.438201 -241.993508 
L 580.282475 -249.849408 
L 586.126748 -253.693785 
L 591.971021 -257.203868 
L 597.815295 -226.783148 
L 603.659568 -217.088633 
L 609.503841 -212.909963 
L 615.348114 -211.238495 
L 621.192388 -211.238495 
L 627.036661 -210.235614 
L 632.880934 -206.224091 
L 638.725208 -210.737055 
L 644.569481 -208.396999 
L 650.413754 -214.915725 
L 656.258027 -213.411404 
L 662.102301 -211.739935 
L 667.946574 -211.739935 
L 673.790847 -199.371071 
L 673.790847 -418.50054 
L 673.790847 -418.50054 
L 667.946574 -391.757051 
L 662.102301 -405.797383 
L 656.258027 -415.826191 
L 650.413754 -427.860762 
L 644.569481 -430.702258 
L 638.725208 -458.950069 
L 632.880934 -451.261315 
L 627.036661 -459.785803 
L 621.192388 -476.667631 
L 615.348114 -463.128739 
L 609.503841 -439.226745 
L 603.659568 -414.823311 
L 597.815295 -415.491898 
L 591.971021 -404.293061 
L 586.126748 -405.96453 
L 580.282475 -397.941483 
L 574.438201 -388.414114 
L 568.593928 -403.123034 
L 562.749655 -398.275776 
L 556.905382 -392.258491 
L 551.061108 -405.797383 
L 545.216835 -399.612951 
L 539.372562 -422.010623 
L 533.528289 -424.183532 
L 527.684015 -417.163366 
L 521.839742 -420.339155 
L 515.995469 -415.491898 
L 510.151195 -421.67633 
L 504.306922 -418.667687 
L 498.462649 -422.010623 
L 492.618376 -433.20946 
L 486.774102 -441.5668 
L 480.929829 -451.762756 
L 475.085556 -471.151786 
L 469.241282 -481.180594 
L 463.397009 -497.059541 
L 457.552736 -500.736771 
L 451.708463 -517.451452 
L 445.864189 -504.246854 
L 440.019916 -494.552339 
L 434.175643 -502.073946 
L 428.331369 -485.192118 
L 422.487096 -450.258434 
L 416.642823 -433.7109 
L 410.79855 -431.537992 
L 404.954276 -424.684972 
L 399.110003 -456.77716 
L 393.26573 -466.973116 
L 387.421457 -490.373669 
L 381.577183 -501.572505 
L 375.73291 -496.725248 
L 369.888637 -492.880871 
L 364.044363 -459.117215 
L 358.20009 -474.996162 
L 352.355817 -467.641703 
L 346.511544 -484.523531 
L 340.66727 -489.537935 
L 334.822997 -500.235331 
L 328.978724 -521.462976 
L 323.13445 -536.171895 
L 317.290177 -524.805912 
L 311.445904 -526.811674 
L 305.601631 -525.307353 
L 299.757357 -506.419763 
L 293.913084 -484.356384 
L 288.068811 -466.805969 
L 282.224537 -443.906856 
L 276.380264 -423.514945 
L 270.535991 -428.696496 
L 264.691718 -424.183532 
L 258.847444 -422.344917 
L 253.003171 -419.336274 
L 247.158898 -425.019266 
L 241.314624 -417.49766 
L 235.470351 -409.641759 
L 229.626078 -419.503421 
L 223.781805 -426.022147 
L 217.937531 -419.837715 
L 212.093258 -400.114391 
L 206.248985 -392.592785 
L 200.404712 -386.5755 
L 194.560438 -360.834891 
L 188.716165 -358.160542 
L 182.871892 -360.166303 
L 177.027618 -357.157661 
L 171.183345 -355.820486 
L 165.339072 -341.780154 
L 159.494799 -335.428575 
L 153.650525 -332.754226 
L 147.806252 -325.73406 
L 141.961979 -316.206692 
L 136.117705 -308.183645 
L 130.273432 -301.330626 
L 124.429159 -275.590017 
L 118.584886 -257.203868 
L 112.740612 -234.639049 
L 106.896339 -195.359548 
L 101.052066 -170.287526 
L 95.207792 -90.558498 
z
" style="stroke: #ffffff; stroke-opacity: 0.2"/>
    </defs>
    <g clip-path="url(#p9873a07857)">
     <use xlink:href="#meca74cf9e4" x="0" y="576" style="fill: #4c72b0; fill-opacity: 0.2; stroke: #ffffff; stroke-opacity: 0.2"/>
    </g>
   </g>
   <g id="PolyCollection_2">
    <defs>
     <path id="mcba62f5492" d="M 95.207792 -90.558498 
L 95.207792 -87.884149 
L 101.052066 -102.425921 
L 106.896339 -113.959051 
L 112.740612 -129.837998 
L 118.584886 -134.852402 
L 124.429159 -151.399937 
L 130.273432 -157.918662 
L 136.117705 -159.422984 
L 141.961979 -162.933067 
L 147.806252 -178.644867 
L 153.650525 -185.163593 
L 159.494799 -195.359548 
L 165.339072 -200.206805 
L 171.183345 -205.388357 
L 177.027618 -208.062706 
L 182.871892 -214.748578 
L 188.716165 -215.751459 
L 194.560438 -212.241376 
L 200.404712 -207.226972 
L 206.248985 -207.895559 
L 212.093258 -203.048301 
L 217.937531 -203.048301 
L 223.781805 -186.667914 
L 229.626078 -184.996446 
L 235.470351 -183.993565 
L 241.314624 -184.829299 
L 247.158898 -182.990684 
L 253.003171 -189.342263 
L 258.847444 -189.50941 
L 264.691718 -191.013731 
L 270.535991 -196.028135 
L 276.380264 -182.65639 
L 282.224537 -168.616058 
L 288.068811 -170.454673 
L 293.913084 -182.322097 
L 299.757357 -204.385476 
L 305.601631 -207.226972 
L 311.445904 -223.273065 
L 317.290177 -229.457497 
L 323.13445 -212.074229 
L 328.978724 -198.368191 
L 334.822997 -198.869631 
L 340.66727 -199.538218 
L 346.511544 -209.39988 
L 352.355817 -208.89844 
L 358.20009 -202.881154 
L 364.044363 -199.538218 
L 369.888637 -192.518052 
L 375.73291 -202.212567 
L 381.577183 -214.748578 
L 387.421457 -208.396999 
L 393.26573 -208.062706 
L 399.110003 -215.751459 
L 404.954276 -215.417165 
L 410.79855 -214.915725 
L 416.642823 -210.402761 
L 422.487096 -200.206805 
L 428.331369 -187.002207 
L 434.175643 -191.849465 
L 440.019916 -192.016612 
L 445.864189 -196.028135 
L 451.708463 -182.489244 
L 457.552736 -162.097333 
L 463.397009 -181.987803 
L 469.241282 -188.506529 
L 475.085556 -187.002207 
L 480.929829 -185.999327 
L 486.774102 -188.673676 
L 492.618376 -189.007969 
L 498.462649 -197.198163 
L 504.306922 -180.149188 
L 510.151195 -168.616058 
L 515.995469 -188.673676 
L 521.839742 -186.500767 
L 527.684015 -190.01085 
L 533.528289 -196.195282 
L 539.372562 -194.523814 
L 545.216835 -186.835061 
L 551.061108 -176.471958 
L 556.905382 -176.639105 
L 562.749655 -170.62182 
L 568.593928 -168.448911 
L 574.438201 -168.448911 
L 580.282475 -171.457554 
L 586.126748 -185.665033 
L 591.971021 -194.18952 
L 597.815295 -172.961875 
L 603.659568 -165.607416 
L 609.503841 -196.529576 
L 615.348114 -196.362429 
L 621.192388 -195.860988 
L 627.036661 -192.852346 
L 632.880934 -190.51229 
L 638.725208 -178.143426 
L 644.569481 -178.143426 
L 650.413754 -193.520933 
L 656.258027 -206.391237 
L 662.102301 -206.056944 
L 667.946574 -205.889797 
L 673.790847 -210.235614 
L 673.790847 -427.359321 
L 673.790847 -427.359321 
L 667.946574 -428.362202 
L 662.102301 -419.837715 
L 656.258027 -421.67633 
L 650.413754 -413.151842 
L 644.569481 -397.774336 
L 638.725208 -408.137438 
L 632.880934 -408.471732 
L 627.036661 -404.293061 
L 621.192388 -402.955887 
L 615.348114 -401.785859 
L 609.503841 -415.826191 
L 603.659568 -411.313228 
L 597.815295 -396.270015 
L 591.971021 -405.96453 
L 586.126748 -390.921317 
L 580.282475 -389.416995 
L 574.438201 -398.442923 
L 568.593928 -390.921317 
L 562.749655 -401.284419 
L 556.905382 -430.869404 
L 551.061108 -442.402534 
L 545.216835 -434.880928 
L 539.372562 -432.540873 
L 533.528289 -434.546634 
L 527.684015 -437.38813 
L 521.839742 -432.373726 
L 515.995469 -431.036551 
L 510.151195 -449.589847 
L 504.306922 -449.255554 
L 498.462649 -443.071122 
L 492.618376 -441.901094 
L 486.774102 -430.869404 
L 480.929829 -410.477493 
L 475.085556 -401.451566 
L 469.241282 -385.405472 
L 463.397009 -382.563976 
L 457.552736 -389.416995 
L 451.708463 -384.402591 
L 445.864189 -396.771455 
L 440.019916 -392.425638 
L 434.175643 -399.947244 
L 428.331369 -411.981815 
L 422.487096 -410.477493 
L 416.642823 -405.630236 
L 410.79855 -409.641759 
L 404.954276 -402.454447 
L 399.110003 -404.460208 
L 393.26573 -388.581261 
L 387.421457 -403.958768 
L 381.577183 -410.811787 
L 375.73291 -414.990457 
L 369.888637 -422.679211 
L 364.044363 -437.220983 
L 358.20009 -420.673449 
L 352.355817 -402.955887 
L 346.511544 -417.831953 
L 340.66727 -417.831953 
L 334.822997 -413.82043 
L 328.978724 -405.128796 
L 323.13445 -389.416995 
L 317.290177 -390.085583 
L 311.445904 -387.244087 
L 305.601631 -394.765693 
L 299.757357 -412.483255 
L 293.913084 -422.17777 
L 288.068811 -424.852119 
L 282.224537 -434.546634 
L 276.380264 -430.03367 
L 270.535991 -416.494779 
L 264.691718 -385.739765 
L 258.847444 -358.661982 
L 253.003171 -354.650459 
L 247.158898 -352.644697 
L 241.314624 -378.051012 
L 235.470351 -376.379544 
L 229.626078 -379.889627 
L 223.781805 -383.734004 
L 217.937531 -402.955887 
L 212.093258 -408.137438 
L 206.248985 -391.25561 
L 200.404712 -399.612951 
L 194.560438 -398.108629 
L 188.716165 -377.215278 
L 182.871892 -365.180708 
L 177.027618 -364.512121 
L 171.183345 -354.650459 
L 165.339072 -337.100044 
L 159.494799 -313.69949 
L 153.650525 -294.477607 
L 147.806252 -293.976166 
L 141.961979 -284.281651 
L 136.117705 -263.88974 
L 130.273432 -244.333564 
L 124.429159 -216.252899 
L 118.584886 -207.059825 
L 112.740612 -192.518052 
L 106.896339 -168.950352 
L 101.052066 -143.37689 
L 95.207792 -90.558498 
z
" style="stroke: #ffffff; stroke-opacity: 0.2"/>
    </defs>
    <g clip-path="url(#p9873a07857)">
     <use xlink:href="#mcba62f5492" x="0" y="576" style="fill: #dd8452; fill-opacity: 0.2; stroke: #ffffff; stroke-opacity: 0.2"/>
    </g>
   </g>
   <g id="PolyCollection_3">
    <defs>
     <path id="m3ad77d0cd4" d="M 95.207792 -90.558498 
L 95.207792 -85.2098 
L 101.052066 -105.936004 
L 106.896339 -114.627638 
L 112.740612 -120.31063 
L 118.584886 -120.644924 
L 124.429159 -129.169411 
L 130.273432 -133.849522 
L 136.117705 -133.849522 
L 141.961979 -136.691017 
L 147.806252 -142.039715 
L 153.650525 -152.235671 
L 159.494799 -152.737111 
L 165.339072 -152.737111 
L 171.183345 -156.080047 
L 177.027618 -156.080047 
L 182.871892 -163.601654 
L 188.716165 -163.601654 
L 194.560438 -169.451792 
L 200.404712 -184.160712 
L 206.248985 -186.33362 
L 212.093258 -200.541099 
L 217.937531 -206.391237 
L 223.781805 -214.915725 
L 229.626078 -212.241376 
L 235.470351 -226.950295 
L 241.314624 -225.780268 
L 247.158898 -207.059825 
L 253.003171 -197.86675 
L 258.847444 -192.685199 
L 264.691718 -183.993565 
L 270.535991 -184.662152 
L 276.380264 -191.849465 
L 282.224537 -192.852346 
L 288.068811 -190.51229 
L 293.913084 -200.708246 
L 299.757357 -214.247138 
L 305.601631 -202.212567 
L 311.445904 -195.192401 
L 317.290177 -191.849465 
L 323.13445 -199.203925 
L 328.978724 -202.212567 
L 334.822997 -202.04542 
L 340.66727 -201.711127 
L 346.511544 -214.247138 
L 352.355817 -207.059825 
L 358.20009 -201.209686 
L 364.044363 -204.552623 
L 369.888637 -188.840822 
L 375.73291 -174.29905 
L 381.577183 -176.639105 
L 387.421457 -201.878274 
L 393.26573 -196.195282 
L 399.110003 -195.526695 
L 404.954276 -199.203925 
L 410.79855 -208.396999 
L 416.642823 -208.396999 
L 422.487096 -208.396999 
L 428.331369 -208.396999 
L 434.175643 -208.396999 
L 440.019916 -208.396999 
L 445.864189 -206.558384 
L 451.708463 -189.50941 
L 457.552736 -171.958994 
L 463.397009 -162.097333 
L 469.241282 -165.440269 
L 475.085556 -173.296169 
L 480.929829 -177.97628 
L 486.774102 -186.835061 
L 492.618376 -186.500767 
L 498.462649 -176.471958 
L 504.306922 -186.667914 
L 510.151195 -183.157831 
L 515.995469 -187.837941 
L 521.839742 -191.180878 
L 527.684015 -210.904201 
L 533.528289 -216.75434 
L 539.372562 -218.927248 
L 545.216835 -213.07711 
L 551.061108 -190.679437 
L 556.905382 -191.180878 
L 562.749655 -198.033897 
L 568.593928 -199.371071 
L 574.438201 -199.538218 
L 580.282475 -197.031016 
L 586.126748 -192.183759 
L 591.971021 -185.163593 
L 597.815295 -185.163593 
L 603.659568 -185.163593 
L 609.503841 -184.495005 
L 615.348114 -174.466197 
L 621.192388 -176.471958 
L 627.036661 -192.518052 
L 632.880934 -184.662152 
L 638.725208 -177.641986 
L 644.569481 -170.287526 
L 650.413754 -170.287526 
L 656.258027 -160.425865 
L 662.102301 -152.569964 
L 667.946574 -152.569964 
L 673.790847 -174.80049 
L 673.790847 -369.693672 
L 673.790847 -369.693672 
L 667.946574 -379.388187 
L 662.102301 -366.183589 
L 656.258027 -353.981871 
L 650.413754 -348.29888 
L 644.569481 -354.984752 
L 638.725208 -379.72248 
L 632.880934 -371.030846 
L 627.036661 -367.353616 
L 621.192388 -380.056774 
L 615.348114 -398.442923 
L 609.503841 -390.252729 
L 603.659568 -382.731123 
L 597.815295 -399.612951 
L 591.971021 -410.477493 
L 586.126748 -432.039432 
L 580.282475 -422.344917 
L 574.438201 -436.719543 
L 568.593928 -424.684972 
L 562.749655 -411.146081 
L 556.905382 -401.284419 
L 551.061108 -402.621593 
L 545.216835 -386.909793 
L 539.372562 -364.01068 
L 533.528289 -369.526525 
L 527.684015 -365.347855 
L 521.839742 -344.62165 
L 515.995469 -345.958825 
L 510.151195 -352.47755 
L 504.306922 -351.808963 
L 498.462649 -350.973229 
L 492.618376 -355.987633 
L 486.774102 -368.022204 
L 480.929829 -367.019323 
L 475.085556 -380.892508 
L 469.241282 -372.535167 
L 463.397009 -357.491954 
L 457.552736 -354.149018 
L 451.708463 -355.486193 
L 445.864189 -373.705195 
L 440.019916 -366.517882 
L 434.175643 -360.834891 
L 428.331369 -367.353616 
L 422.487096 -363.843533 
L 416.642823 -355.65334 
L 410.79855 -376.379544 
L 404.954276 -366.852176 
L 399.110003 -375.710957 
L 393.26573 -376.880985 
L 387.421457 -379.22104 
L 381.577183 -396.437161 
L 375.73291 -387.745527 
L 369.888637 -379.22104 
L 364.044363 -384.904031 
L 358.20009 -372.535167 
L 352.355817 -374.373782 
L 346.511544 -389.584142 
L 340.66727 -384.235444 
L 334.822997 -391.589904 
L 328.978724 -398.275776 
L 323.13445 -396.771455 
L 317.290177 -376.212397 
L 311.445904 -363.342093 
L 305.601631 -344.62165 
L 299.757357 -345.290237 
L 293.913084 -341.947301 
L 288.068811 -366.852176 
L 282.224537 -359.83201 
L 276.380264 -358.829129 
L 270.535991 -356.321927 
L 264.691718 -357.324808 
L 258.847444 -346.627412 
L 253.003171 -355.151899 
L 247.158898 -360.166303 
L 241.314624 -368.523644 
L 235.470351 -372.869461 
L 229.626078 -380.391068 
L 223.781805 -368.690791 
L 217.937531 -354.817605 
L 212.093258 -350.471788 
L 206.248985 -360.33345 
L 200.404712 -361.837772 
L 194.560438 -343.618769 
L 188.716165 -347.295999 
L 182.871892 -347.964586 
L 177.027618 -347.463146 
L 171.183345 -347.295999 
L 165.339072 -348.131733 
L 159.494799 -333.422814 
L 153.650525 -302.667801 
L 147.806252 -290.298937 
L 141.961979 -279.768687 
L 136.117705 -261.716832 
L 130.273432 -241.993508 
L 124.429159 -221.768744 
L 118.584886 -201.878274 
L 112.740612 -183.492124 
L 106.896339 -175.636224 
L 101.052066 -142.875449 
L 95.207792 -90.558498 
z
" style="stroke: #ffffff; stroke-opacity: 0.2"/>
    </defs>
    <g clip-path="url(#p9873a07857)">
     <use xlink:href="#m3ad77d0cd4" x="0" y="576" style="fill: #55a868; fill-opacity: 0.2; stroke: #ffffff; stroke-opacity: 0.2"/>
    </g>
   </g>
   <g id="line2d_13">
    <path d="M 95.207792 485.441502 
L 101.052066 450.173525 
L 106.896339 428.110146 
L 112.740612 412.398346 
L 118.584886 398.190867 
L 124.429159 388.579926 
L 130.273432 376.127488 
L 136.117705 368.104441 
L 141.961979 352.058347 
L 147.806252 346.208209 
L 153.650525 337.015134 
L 159.494799 329.075661 
L 165.339072 309.519484 
L 171.183345 307.179429 
L 177.027618 306.009401 
L 182.871892 304.7558 
L 188.716165 293.22267 
L 194.560438 286.202504 
L 200.404712 282.943141 
L 206.248985 266.47918 
L 212.093258 267.899928 
L 217.937531 265.810593 
L 223.781805 258.539707 
L 229.626078 264.222698 
L 235.470351 262.718377 
L 241.314624 259.375441 
L 247.158898 262.216937 
L 253.003171 262.969097 
L 258.847444 254.361036 
L 264.691718 246.672283 
L 270.535991 253.107435 
L 276.380264 248.176604 
L 282.224537 245.251535 
L 288.068811 232.548378 
L 293.913084 235.724167 
L 299.757357 239.819264 
L 305.601631 254.110316 
L 311.445904 256.450372 
L 317.290177 251.185247 
L 323.13445 253.692449 
L 328.978724 241.574305 
L 334.822997 254.611757 
L 340.66727 257.620399 
L 346.511544 251.185247 
L 352.355817 256.116078 
L 358.20009 262.969097 
L 364.044363 273.58292 
L 369.888637 273.165053 
L 375.73291 267.816355 
L 381.577183 254.44461 
L 387.421457 260.127601 
L 393.26573 261.214056 
L 399.110003 259.626161 
L 404.954276 263.052671 
L 410.79855 255.029624 
L 416.642823 255.531064 
L 422.487096 266.312033 
L 428.331369 261.381203 
L 434.175643 263.219817 
L 440.019916 265.392726 
L 445.864189 266.813474 
L 451.708463 271.242864 
L 457.552736 271.410011 
L 463.397009 280.937379 
L 469.241282 269.571396 
L 475.085556 269.738543 
L 480.929829 270.992144 
L 486.774102 264.807712 
L 492.618376 268.819236 
L 498.462649 271.827878 
L 504.306922 256.533945 
L 510.151195 255.531064 
L 515.995469 254.69533 
L 521.839742 253.859596 
L 527.684015 251.0181 
L 533.528289 240.404278 
L 539.372562 243.329347 
L 545.216835 247.758737 
L 551.061108 248.594471 
L 556.905382 239.986411 
L 562.749655 237.897076 
L 568.593928 240.654998 
L 574.438201 255.029624 
L 580.282475 260.211175 
L 586.126748 258.874 
L 591.971021 259.375441 
L 597.815295 259.124721 
L 603.659568 256.450372 
L 609.503841 260.712615 
L 615.348114 258.539707 
L 621.192388 265.225579 
L 627.036661 268.484942 
L 632.880934 269.571396 
L 638.725208 271.995025 
L 644.569481 273.165053 
L 650.413754 275.254388 
L 656.258027 261.464776 
L 662.102301 274.000787 
L 667.946574 270.239983 
L 673.790847 263.386964 
" clip-path="url(#p9873a07857)" style="fill: none; stroke: #4c72b0; stroke-width: 2; stroke-linecap: round"/>
   </g>
   <g id="line2d_14">
    <path d="M 95.207792 485.441502 
L 101.052066 453.934329 
L 106.896339 433.793138 
L 112.740612 410.977598 
L 118.584886 390.585687 
L 124.429159 381.643333 
L 130.273432 368.773028 
L 136.117705 362.087156 
L 141.961979 353.061228 
L 147.806252 344.369594 
L 153.650525 326.568459 
L 159.494799 311.525246 
L 165.339072 316.456077 
L 171.183345 320.300453 
L 177.027618 317.291811 
L 182.871892 313.447434 
L 188.716165 297.40134 
L 194.560438 281.104526 
L 200.404712 277.093003 
L 206.248985 269.571396 
L 212.093258 267.482061 
L 217.937531 268.902809 
L 223.781805 277.594443 
L 229.626078 277.176576 
L 235.470351 279.098764 
L 241.314624 287.456105 
L 247.158898 286.453224 
L 253.003171 283.026715 
L 258.847444 287.288958 
L 264.691718 282.023834 
L 270.535991 282.19098 
L 276.380264 271.159291 
L 282.224537 272.412892 
L 288.068811 271.827878 
L 293.913084 268.401369 
L 299.757357 267.649208 
L 305.601631 268.819236 
L 311.445904 270.072837 
L 317.290177 267.064194 
L 323.13445 261.381203 
L 328.978724 259.291867 
L 334.822997 258.957574 
L 340.66727 272.162172 
L 346.511544 282.107407 
L 352.355817 279.182338 
L 358.20009 274.167934 
L 364.044363 282.608847 
L 369.888637 273.165053 
L 375.73291 273.917213 
L 381.577183 274.08436 
L 387.421457 281.104526 
L 393.26573 283.193861 
L 399.110003 284.531036 
L 404.954276 285.283196 
L 410.79855 300.326409 
L 416.642823 305.925828 
L 422.487096 298.404221 
L 428.331369 297.819207 
L 434.175643 295.813446 
L 440.019916 300.994997 
L 445.864189 300.744276 
L 451.708463 296.8999 
L 457.552736 280.185219 
L 463.397009 284.029595 
L 469.241282 284.948903 
L 475.085556 281.355246 
L 480.929829 277.928737 
L 486.774102 284.698183 
L 492.618376 295.228432 
L 498.462649 290.297601 
L 504.306922 281.522393 
L 510.151195 285.283196 
L 515.995469 291.969069 
L 521.839742 293.640537 
L 527.684015 293.139097 
L 533.528289 293.556964 
L 539.372562 295.729872 
L 545.216835 303.084332 
L 551.061108 299.490675 
L 556.905382 298.320648 
L 562.749655 308.850897 
L 568.593928 285.11605 
L 574.438201 282.608847 
L 580.282475 280.435939 
L 586.126748 284.447462 
L 591.971021 271.242864 
L 597.815295 261.214056 
L 603.659568 252.856715 
L 609.503841 256.784665 
L 615.348114 269.069956 
L 621.192388 277.928737 
L 627.036661 273.081479 
L 632.880934 283.026715 
L 638.725208 288.876853 
L 644.569481 281.522393 
L 650.413754 276.006548 
L 656.258027 277.009429 
L 662.102301 273.415773 
L 667.946574 273.081479 
L 673.790847 267.231341 
" clip-path="url(#p9873a07857)" style="fill: none; stroke: #dd8452; stroke-width: 2; stroke-linecap: round"/>
   </g>
   <g id="line2d_15">
    <path d="M 95.207792 485.441502 
L 101.052066 456.608678 
L 106.896339 439.058262 
L 112.740612 414.905548 
L 118.584886 405.37818 
L 124.429159 393.59433 
L 130.273432 387.744191 
L 136.117705 378.216823 
L 141.961979 371.196657 
L 147.806252 369.358042 
L 153.650525 361.585716 
L 159.494799 354.481976 
L 165.339072 349.718292 
L 171.183345 340.525217 
L 177.027618 328.156353 
L 182.871892 322.891229 
L 188.716165 309.268764 
L 194.560438 301.412864 
L 200.404712 300.326409 
L 206.248985 293.72411 
L 212.093258 292.470509 
L 217.937531 294.392698 
L 223.781805 294.977711 
L 229.626078 300.660703 
L 235.470351 303.920066 
L 241.314624 304.588653 
L 247.158898 309.686631 
L 253.003171 317.041091 
L 258.847444 321.637628 
L 264.691718 320.71832 
L 270.535991 314.116021 
L 276.380264 302.499318 
L 282.224537 308.516603 
L 288.068811 298.738515 
L 293.913084 286.620371 
L 299.757357 284.280316 
L 305.601631 282.19098 
L 311.445904 282.023834 
L 317.290177 276.173695 
L 323.13445 283.695302 
L 328.978724 289.879734 
L 334.822997 291.467628 
L 340.66727 288.458986 
L 346.511544 288.375412 
L 352.355817 279.265911 
L 358.20009 275.672255 
L 364.044363 263.219817 
L 369.888637 269.65497 
L 375.73291 272.914332 
L 381.577183 269.069956 
L 387.421457 279.516631 
L 393.26573 271.995025 
L 399.110003 262.133363 
L 404.954276 270.40713 
L 410.79855 274.752947 
L 416.642823 288.458986 
L 422.487096 293.72411 
L 428.331369 293.72411 
L 434.175643 296.983473 
L 440.019916 298.654941 
L 445.864189 310.940232 
L 451.708463 309.101617 
L 457.552736 295.312005 
L 463.397009 297.40134 
L 469.241282 291.216908 
L 475.085556 295.312005 
L 480.929829 295.813446 
L 486.774102 289.79616 
L 492.618376 296.147739 
L 498.462649 305.925828 
L 504.306922 307.848016 
L 510.151195 305.00652 
L 515.995469 301.914304 
L 521.839742 290.966188 
L 527.684015 300.409983 
L 533.528289 302.917185 
L 539.372562 302.582891 
L 545.216835 295.897019 
L 551.061108 298.069927 
L 556.905382 303.167905 
L 562.749655 306.928708 
L 568.593928 306.427268 
L 574.438201 300.075689 
L 580.282475 305.00652 
L 586.126748 309.853778 
L 591.971021 300.744276 
L 597.815295 286.202504 
L 603.659568 288.626133 
L 609.503841 294.225551 
L 615.348114 292.219789 
L 621.192388 298.989235 
L 627.036661 295.061285 
L 632.880934 290.464748 
L 638.725208 290.966188 
L 644.569481 290.214027 
L 650.413754 284.113169 
L 656.258027 284.781756 
L 662.102301 285.951784 
L 667.946574 300.326409 
L 673.790847 300.075689 
" clip-path="url(#p9873a07857)" style="fill: none; stroke: #55a868; stroke-width: 2; stroke-linecap: round"/>
   </g>
   <g id="patch_3">
    <path d="M 66.27864 513.338305 
L 66.27864 17.28 
" style="fill: none; stroke: #cccccc; stroke-width: 1.25; stroke-linejoin: miter; stroke-linecap: square"/>
   </g>
   <g id="patch_4">
    <path d="M 702.72 513.338305 
L 702.72 17.28 
" style="fill: none; stroke: #cccccc; stroke-width: 1.25; stroke-linejoin: miter; stroke-linecap: square"/>
   </g>
   <g id="patch_5">
    <path d="M 66.27864 513.338305 
L 702.72 513.338305 
" style="fill: none; stroke: #cccccc; stroke-width: 1.25; stroke-linejoin: miter; stroke-linecap: square"/>
   </g>
   <g id="patch_6">
    <path d="M 66.27864 17.28 
L 702.72 17.28 
" style="fill: none; stroke: #cccccc; stroke-width: 1.25; stroke-linejoin: miter; stroke-linecap: square"/>
   </g>
   <g id="legend_1">
    <g id="patch_7">
     <path d="M 80.27864 148.162063 
L 167.529036 148.162063 
Q 171.529036 148.162063 171.529036 144.162063 
L 171.529036 31.28 
Q 171.529036 27.28 167.529036 27.28 
L 80.27864 27.28 
Q 76.27864 27.28 76.27864 31.28 
L 76.27864 144.162063 
Q 76.27864 148.162063 80.27864 148.162063 
z
" style="fill: #ffffff; opacity: 0.8; stroke: #cccccc; stroke-linejoin: miter"/>
    </g>
    <g id="text_15">
     <!-- $\theta_{\mathrm{min}}$ -->
     <g style="fill: #262626" transform="translate(104.791754 51.884405) scale(0.24 -0.24)">
      <defs>
       <path id="CMMI12-12" d="M 2835 3200 
C 2835 3850 2630 4480 2106 4480 
C 1210 4480 256 2615 256 1216 
C 256 923 320 -64 992 -64 
C 1862 -64 2835 1756 2835 3200 
z
M 896 2304 
C 992 2679 1126 3214 1382 3665 
C 1594 4047 1818 4352 2099 4352 
C 2310 4352 2451 4174 2451 3564 
C 2451 3334 2432 3017 2246 2304 
L 896 2304 
z
M 2202 2113 
C 2042 1490 1907 1088 1677 687 
C 1491 363 1267 64 998 64 
C 800 64 640 217 640 846 
C 640 1260 742 1693 845 2113 
L 2202 2113 
z
" transform="scale(0.015625)"/>
       <path id="CMR17-6d" d="M 4326 1933 
C 4326 2252 4269 2790 3507 2790 
C 3072 2790 2771 2496 2656 2151 
L 2650 2151 
C 2573 2676 2195 2790 1837 2790 
C 1331 2790 1069 2400 973 2144 
L 966 2144 
L 966 2790 
L 211 2720 
L 211 2554 
C 589 2554 646 2515 646 2208 
L 646 428 
C 646 184 621 153 211 153 
L 211 -13 
C 365 0 646 0 813 0 
C 979 0 1267 0 1421 -13 
L 1421 153 
C 1011 153 986 178 986 428 
L 986 1658 
C 986 2247 1344 2688 1792 2688 
C 2266 2688 2317 2266 2317 1958 
L 2317 428 
C 2317 184 2291 153 1882 153 
L 1882 -13 
C 2035 0 2317 0 2483 0 
C 2650 0 2938 0 3091 -13 
L 3091 153 
C 2682 153 2656 178 2656 428 
L 2656 1658 
C 2656 2247 3014 2688 3462 2688 
C 3936 2688 3987 2266 3987 1958 
L 3987 428 
C 3987 184 3962 153 3552 153 
L 3552 -13 
C 3706 0 3987 0 4154 0 
C 4320 0 4608 0 4762 -13 
L 4762 153 
C 4352 153 4326 178 4326 428 
L 4326 1933 
z
" transform="scale(0.015625)"/>
       <path id="CMR17-69" d="M 992 3909 
C 992 4049 877 4170 730 4170 
C 589 4170 467 4056 467 3909 
C 467 3769 582 3648 730 3648 
C 870 3648 992 3763 992 3909 
z
M 243 2706 
L 243 2541 
C 602 2541 653 2502 653 2197 
L 653 427 
C 653 184 627 153 218 153 
L 218 -13 
C 371 0 646 0 806 0 
C 960 0 1222 0 1370 -13 
L 1370 153 
C 992 153 979 191 979 420 
L 979 2776 
L 243 2706 
z
" transform="scale(0.015625)"/>
      </defs>
      <use xlink:href="#CMMI12-12" transform="scale(0.996264)"/>
      <use xlink:href="#CMR17-6d" transform="translate(45.45979 -14.943915) scale(0.697382)"/>
      <use xlink:href="#CMR17-69" transform="translate(99.303257 -14.943915) scale(0.697382)"/>
      <use xlink:href="#CMR17-6e" transform="translate(116.712916 -14.943915) scale(0.697382)"/>
     </g>
    </g>
    <g id="line2d_16">
     <path d="M 84.27864 73.535163 
L 104.27864 73.535163 
L 124.27864 73.535163 
" style="fill: none; stroke: #4c72b0; stroke-width: 2; stroke-linecap: round"/>
    </g>
    <g id="text_16">
     <!-- 0.1 -->
     <g style="fill: #262626" transform="translate(140.27864 80.535163) scale(0.2 -0.2)">
      <defs>
       <path id="CMR17-2e" d="M 1062 261 
C 1062 420 934 522 800 522 
C 672 522 538 420 538 261 
C 538 102 666 0 800 0 
C 928 0 1062 102 1062 261 
z
" transform="scale(0.015625)"/>
      </defs>
      <use xlink:href="#CMR17-30" transform="scale(0.996264)"/>
      <use xlink:href="#CMR17-2e" transform="translate(45.690477 0) scale(0.996264)"/>
      <use xlink:href="#CMR17-31" transform="translate(70.561536 0) scale(0.996264)"/>
     </g>
    </g>
    <g id="line2d_17">
     <path d="M 84.27864 101.410796 
L 104.27864 101.410796 
L 124.27864 101.410796 
" style="fill: none; stroke: #dd8452; stroke-width: 2; stroke-linecap: round"/>
    </g>
    <g id="text_17">
     <!-- 0.2 -->
     <g style="fill: #262626" transform="translate(140.27864 108.410796) scale(0.2 -0.2)">
      <use xlink:href="#CMR17-30" transform="scale(0.996264)"/>
      <use xlink:href="#CMR17-2e" transform="translate(45.690477 0) scale(0.996264)"/>
      <use xlink:href="#CMR17-32" transform="translate(70.561536 0) scale(0.996264)"/>
     </g>
    </g>
    <g id="line2d_18">
     <path d="M 84.27864 129.28643 
L 104.27864 129.28643 
L 124.27864 129.28643 
" style="fill: none; stroke: #55a868; stroke-width: 2; stroke-linecap: round"/>
    </g>
    <g id="text_18">
     <!-- 0.3 -->
     <g style="fill: #262626" transform="translate(140.27864 136.28643) scale(0.2 -0.2)">
      <defs>
       <path id="CMR17-33" d="M 1414 2157 
C 1984 2157 2234 1662 2234 1090 
C 2234 320 1824 25 1453 25 
C 1114 25 563 194 390 693 
C 422 680 454 680 486 680 
C 640 680 755 782 755 948 
C 755 1133 614 1216 486 1216 
C 378 1216 211 1165 211 926 
C 211 335 787 -128 1466 -128 
C 2176 -128 2720 430 2720 1085 
C 2720 1707 2208 2157 1600 2227 
C 2086 2328 2554 2756 2554 3329 
C 2554 3820 2048 4179 1472 4179 
C 890 4179 378 3829 378 3329 
C 378 3110 544 3072 627 3072 
C 762 3072 877 3155 877 3321 
C 877 3486 762 3569 627 3569 
C 602 3569 570 3569 544 3557 
C 730 3959 1235 4032 1459 4032 
C 1683 4032 2106 3925 2106 3320 
C 2106 3143 2080 2828 1862 2550 
C 1670 2304 1453 2304 1242 2284 
C 1210 2284 1062 2269 1037 2269 
C 992 2263 966 2257 966 2208 
C 966 2163 973 2157 1101 2157 
L 1414 2157 
z
" transform="scale(0.015625)"/>
      </defs>
      <use xlink:href="#CMR17-30" transform="scale(0.996264)"/>
      <use xlink:href="#CMR17-2e" transform="translate(45.690477 0) scale(0.996264)"/>
      <use xlink:href="#CMR17-33" transform="translate(70.561536 0) scale(0.996264)"/>
     </g>
    </g>
   </g>
  </g>
 </g>
 <defs>
  <clipPath id="p9873a07857">
   <rect x="66.27864" y="17.28" width="636.44136" height="496.058305"/>
  </clipPath>
 </defs>
</svg>
