<?xml version="1.0" encoding="utf-8" standalone="no"?>
<!DOCTYPE svg PUBLIC "-//W3C//DTD SVG 1.1//EN"
  "http://www.w3.org/Graphics/SVG/1.1/DTD/svg11.dtd">
<svg xmlns:xlink="http://www.w3.org/1999/xlink" width="720pt" height="576pt" viewBox="0 0 720 576" xmlns="http://www.w3.org/2000/svg" version="1.1">
 <metadata>
  <rdf:RDF xmlns:dc="http://purl.org/dc/elements/1.1/" xmlns:cc="http://creativecommons.org/ns#" xmlns:rdf="http://www.w3.org/1999/02/22-rdf-syntax-ns#">
   <cc:Work>
    <dc:type rdf:resource="http://purl.org/dc/dcmitype/StillImage"/>
    <dc:date>2025-04-25T21:13:54.403862</dc:date>
    <dc:format>image/svg+xml</dc:format>
    <dc:creator>
     <cc:Agent>
      <dc:title>Matplotlib v3.9.2, https://matplotlib.org/</dc:title>
     </cc:Agent>
    </dc:creator>
   </cc:Work>
  </rdf:RDF>
 </metadata>
 <defs>
  <style type="text/css">*{stroke-linejoin: round; stroke-linecap: butt}</style>
 </defs>
 <g id="figure_1">
  <g id="patch_1">
   <path d="M 0 576 
L 720 576 
L 720 0 
L 0 0 
z
" style="fill: #ffffff"/>
  </g>
  <g id="axes_1">
   <g id="patch_2">
    <path d="M 66.27864 513.338305 
L 702.72 513.338305 
L 702.72 17.28 
L 66.27864 17.28 
z
" style="fill: #ffffff"/>
   </g>
   <g id="matplotlib.axis_1">
    <g id="xtick_1">
     <g id="line2d_1">
      <path d="M 95.207792 513.338305 
L 95.207792 17.28 
" clip-path="url(#p701b78cd64)" style="fill: none; stroke: #cccccc; stroke-linecap: round"/>
     </g>
     <g id="text_1">
      <!-- $\mathdefault{0}$ -->
      <g style="fill: #262626" transform="translate(91.305799 533.907893) scale(0.16 -0.16)">
       <defs>
        <path id="CMR17-30" d="M 2688 2025 
C 2688 2416 2682 3080 2413 3591 
C 2176 4039 1798 4198 1466 4198 
C 1158 4198 768 4058 525 3597 
C 269 3118 243 2524 243 2025 
C 243 1661 250 1106 448 619 
C 723 -39 1216 -128 1466 -128 
C 1760 -128 2208 -7 2470 600 
C 2662 1042 2688 1559 2688 2025 
z
M 1466 -26 
C 1056 -26 813 325 723 812 
C 653 1188 653 1738 653 2096 
C 653 2588 653 2997 736 3387 
C 858 3929 1216 4096 1466 4096 
C 1728 4096 2067 3923 2189 3400 
C 2272 3036 2278 2607 2278 2096 
C 2278 1680 2278 1169 2202 792 
C 2067 95 1690 -26 1466 -26 
z
" transform="scale(0.015625)"/>
       </defs>
       <use xlink:href="#CMR17-30" transform="scale(0.996264)"/>
      </g>
     </g>
    </g>
    <g id="xtick_2">
     <g id="line2d_2">
      <path d="M 212.093258 513.338305 
L 212.093258 17.28 
" clip-path="url(#p701b78cd64)" style="fill: none; stroke: #cccccc; stroke-linecap: round"/>
     </g>
     <g id="text_2">
      <!-- $\mathdefault{200}$ -->
      <g style="fill: #262626" transform="translate(200.387278 533.907893) scale(0.16 -0.16)">
       <defs>
        <path id="CMR17-32" d="M 2669 989 
L 2554 989 
C 2490 536 2438 459 2413 420 
C 2381 369 1920 369 1830 369 
L 602 369 
C 832 619 1280 1072 1824 1597 
C 2214 1967 2669 2402 2669 3035 
C 2669 3790 2067 4224 1395 4224 
C 691 4224 262 3604 262 3030 
C 262 2780 448 2748 525 2748 
C 589 2748 781 2787 781 3010 
C 781 3207 614 3264 525 3264 
C 486 3264 448 3258 422 3245 
C 544 3790 915 4058 1306 4058 
C 1862 4058 2227 3617 2227 3035 
C 2227 2479 1901 2000 1536 1584 
L 262 146 
L 262 0 
L 2515 0 
L 2669 989 
z
" transform="scale(0.015625)"/>
       </defs>
       <use xlink:href="#CMR17-32" transform="scale(0.996264)"/>
       <use xlink:href="#CMR17-30" transform="translate(45.690477 0) scale(0.996264)"/>
       <use xlink:href="#CMR17-30" transform="translate(91.380954 0) scale(0.996264)"/>
      </g>
     </g>
    </g>
    <g id="xtick_3">
     <g id="line2d_3">
      <path d="M 328.978724 513.338305 
L 328.978724 17.28 
" clip-path="url(#p701b78cd64)" style="fill: none; stroke: #cccccc; stroke-linecap: round"/>
     </g>
     <g id="text_3">
      <!-- $\mathdefault{400}$ -->
      <g style="fill: #262626" transform="translate(317.272743 533.907893) scale(0.16 -0.16)">
       <defs>
        <path id="CMR17-34" d="M 2150 4122 
C 2150 4256 2144 4256 2029 4256 
L 128 1254 
L 128 1088 
L 1779 1088 
L 1779 457 
C 1779 224 1766 160 1318 160 
L 1197 160 
L 1197 0 
C 1402 0 1747 0 1965 0 
C 2182 0 2528 0 2733 0 
L 2733 160 
L 2611 160 
C 2163 160 2150 224 2150 457 
L 2150 1088 
L 2803 1088 
L 2803 1254 
L 2150 1254 
L 2150 4122 
z
M 1798 3703 
L 1798 1254 
L 256 1254 
L 1798 3703 
z
" transform="scale(0.015625)"/>
       </defs>
       <use xlink:href="#CMR17-34" transform="scale(0.996264)"/>
       <use xlink:href="#CMR17-30" transform="translate(45.690477 0) scale(0.996264)"/>
       <use xlink:href="#CMR17-30" transform="translate(91.380954 0) scale(0.996264)"/>
      </g>
     </g>
    </g>
    <g id="xtick_4">
     <g id="line2d_4">
      <path d="M 445.864189 513.338305 
L 445.864189 17.28 
" clip-path="url(#p701b78cd64)" style="fill: none; stroke: #cccccc; stroke-linecap: round"/>
     </g>
     <g id="text_4">
      <!-- $\mathdefault{600}$ -->
      <g style="fill: #262626" transform="translate(434.158209 533.907893) scale(0.16 -0.16)">
       <defs>
        <path id="CMR17-36" d="M 678 2176 
C 678 3690 1395 4032 1811 4032 
C 1946 4032 2272 4009 2400 3776 
C 2298 3776 2106 3776 2106 3553 
C 2106 3381 2246 3323 2336 3323 
C 2394 3323 2566 3348 2566 3560 
C 2566 3954 2246 4179 1805 4179 
C 1043 4179 243 3390 243 1984 
C 243 253 966 -128 1478 -128 
C 2099 -128 2688 427 2688 1283 
C 2688 2081 2170 2662 1517 2662 
C 1126 2662 838 2407 678 1960 
L 678 2176 
z
M 1478 25 
C 691 25 691 1200 691 1436 
C 691 1896 909 2560 1504 2560 
C 1613 2560 1926 2560 2138 2120 
C 2253 1870 2253 1609 2253 1289 
C 2253 944 2253 690 2118 434 
C 1978 171 1773 25 1478 25 
z
" transform="scale(0.015625)"/>
       </defs>
       <use xlink:href="#CMR17-36" transform="scale(0.996264)"/>
       <use xlink:href="#CMR17-30" transform="translate(45.690477 0) scale(0.996264)"/>
       <use xlink:href="#CMR17-30" transform="translate(91.380954 0) scale(0.996264)"/>
      </g>
     </g>
    </g>
    <g id="xtick_5">
     <g id="line2d_5">
      <path d="M 562.749655 513.338305 
L 562.749655 17.28 
" clip-path="url(#p701b78cd64)" style="fill: none; stroke: #cccccc; stroke-linecap: round"/>
     </g>
     <g id="text_5">
      <!-- $\mathdefault{800}$ -->
      <g style="fill: #262626" transform="translate(551.043674 533.907893) scale(0.16 -0.16)">
       <defs>
        <path id="CMR17-38" d="M 1741 2264 
C 2144 2467 2554 2773 2554 3263 
C 2554 3841 1990 4179 1472 4179 
C 890 4179 378 3759 378 3180 
C 378 3021 416 2747 666 2505 
C 730 2442 998 2251 1171 2130 
C 883 1983 211 1634 211 934 
C 211 279 838 -128 1459 -128 
C 2144 -128 2720 362 2720 1010 
C 2720 1590 2330 1857 2074 2029 
L 1741 2264 
z
M 902 2822 
C 851 2854 595 3051 595 3351 
C 595 3739 998 4032 1459 4032 
C 1965 4032 2336 3676 2336 3262 
C 2336 2669 1670 2331 1638 2331 
C 1632 2331 1626 2331 1574 2370 
L 902 2822 
z
M 2080 1519 
C 2176 1449 2483 1240 2483 851 
C 2483 381 2010 25 1472 25 
C 890 25 448 438 448 940 
C 448 1443 838 1862 1280 2060 
L 2080 1519 
z
" transform="scale(0.015625)"/>
       </defs>
       <use xlink:href="#CMR17-38" transform="scale(0.996264)"/>
       <use xlink:href="#CMR17-30" transform="translate(45.690477 0) scale(0.996264)"/>
       <use xlink:href="#CMR17-30" transform="translate(91.380954 0) scale(0.996264)"/>
      </g>
     </g>
    </g>
    <g id="xtick_6">
     <g id="line2d_6">
      <path d="M 679.635121 513.338305 
L 679.635121 17.28 
" clip-path="url(#p701b78cd64)" style="fill: none; stroke: #cccccc; stroke-linecap: round"/>
     </g>
     <g id="text_6">
      <!-- $\mathdefault{1000}$ -->
      <g style="fill: #262626" transform="translate(664.027147 533.907893) scale(0.16 -0.16)">
       <defs>
        <path id="CMR17-31" d="M 1702 4058 
C 1702 4192 1696 4192 1606 4192 
C 1357 3916 979 3827 621 3827 
C 602 3827 570 3827 563 3808 
C 557 3795 557 3782 557 3648 
C 755 3648 1088 3686 1344 3839 
L 1344 461 
C 1344 236 1331 160 781 160 
L 589 160 
L 589 0 
C 896 0 1216 0 1523 0 
C 1830 0 2150 0 2458 0 
L 2458 160 
L 2266 160 
C 1715 160 1702 230 1702 458 
L 1702 4058 
z
" transform="scale(0.015625)"/>
       </defs>
       <use xlink:href="#CMR17-31" transform="scale(0.996264)"/>
       <use xlink:href="#CMR17-30" transform="translate(45.690477 0) scale(0.996264)"/>
       <use xlink:href="#CMR17-30" transform="translate(91.380954 0) scale(0.996264)"/>
       <use xlink:href="#CMR17-30" transform="translate(137.071431 0) scale(0.996264)"/>
      </g>
     </g>
    </g>
    <g id="text_7">
     <!-- Step -->
     <g style="fill: #262626" transform="translate(366.743615 554.844366) scale(0.2 -0.2)">
      <defs>
       <path id="CMR17-53" d="M 2803 4290 
C 2803 4404 2797 4411 2758 4411 
C 2720 4411 2707 4385 2682 4328 
L 2490 3907 
C 2246 4257 1875 4416 1472 4416 
C 819 4416 294 3901 294 3253 
C 294 3056 339 2776 557 2510 
C 794 2218 1018 2167 1530 2033 
C 1722 1982 2042 1899 2106 1874 
C 2470 1722 2662 1341 2662 985 
C 2662 527 2336 38 1779 38 
C 1094 38 454 419 410 1311 
C 403 1413 397 1419 352 1419 
C 301 1419 294 1413 294 1285 
L 294 -1 
C 294 -115 301 -122 339 -122 
C 384 -122 397 -90 486 108 
C 493 127 493 140 614 381 
C 934 -39 1472 -128 1779 -128 
C 2477 -128 2970 451 2970 1124 
C 2970 1454 2848 1708 2778 1823 
C 2509 2230 2221 2306 1914 2382 
C 1869 2402 1856 2402 1498 2490 
C 1152 2579 1005 2624 845 2796 
C 666 2992 602 3196 602 3399 
C 602 3812 934 4263 1478 4263 
C 2157 4263 2579 3786 2675 2993 
C 2694 2878 2701 2872 2746 2872 
C 2803 2872 2803 2891 2803 2999 
L 2803 4290 
z
" transform="scale(0.015625)"/>
       <path id="CMR17-74" d="M 966 2560 
L 1862 2560 
L 1862 2725 
L 966 2725 
L 966 3904 
L 851 3904 
C 838 3245 614 2668 70 2668 
L 70 2560 
L 627 2560 
L 627 771 
C 627 650 627 -64 1370 -64 
C 1747 -64 1965 306 1965 777 
L 1965 1140 
L 1850 1140 
L 1850 783 
C 1850 344 1677 51 1408 51 
C 1222 51 966 178 966 758 
L 966 2560 
z
" transform="scale(0.015625)"/>
       <path id="CMR17-65" d="M 2438 1472 
C 2464 1498 2464 1511 2464 1576 
C 2464 2238 2118 2816 1389 2816 
C 710 2816 173 2169 173 1383 
C 173 551 781 -64 1459 -64 
C 2176 -64 2458 607 2458 740 
C 2458 784 2419 784 2406 784 
C 2362 784 2355 771 2330 696 
C 2189 265 1837 51 1504 51 
C 1229 51 954 203 781 480 
C 582 803 582 1176 582 1472 
L 2438 1472 
z
M 589 1568 
C 634 2505 1126 2714 1382 2714 
C 1818 2714 2112 2297 2118 1568 
L 589 1568 
z
" transform="scale(0.015625)"/>
       <path id="CMR17-70" d="M 1408 -1063 
C 998 -1063 973 -1037 973 -789 
L 973 402 
C 1158 134 1427 -38 1766 -38 
C 2406 -38 3053 523 3053 1388 
C 3053 2191 2496 2802 1837 2802 
C 1453 2802 1139 2592 960 2338 
L 960 2802 
L 198 2732 
L 198 2567 
C 576 2567 634 2528 634 2223 
L 634 -789 
C 634 -1031 608 -1063 198 -1063 
L 198 -1228 
C 352 -1216 634 -1216 800 -1216 
C 966 -1216 1254 -1216 1408 -1228 
L 1408 -1063 
z
M 973 2012 
C 973 2102 973 2235 1222 2471 
C 1254 2497 1472 2688 1792 2688 
C 2259 2688 2643 2108 2643 1382 
C 2643 656 2234 64 1728 64 
C 1498 64 1248 172 1056 472 
C 973 612 973 650 973 752 
L 973 2012 
z
" transform="scale(0.015625)"/>
      </defs>
      <use xlink:href="#CMR17-53" transform="scale(0.996264)"/>
      <use xlink:href="#CMR17-74" transform="translate(50.89537 0) scale(0.996264)"/>
      <use xlink:href="#CMR17-65" transform="translate(86.176138 0) scale(0.996264)"/>
      <use xlink:href="#CMR17-70" transform="translate(126.661798 0) scale(0.996264)"/>
     </g>
    </g>
   </g>
   <g id="matplotlib.axis_2">
    <g id="ytick_1">
     <g id="line2d_7">
      <path d="M 66.27864 504.700506 
L 702.72 504.700506 
" clip-path="url(#p701b78cd64)" style="fill: none; stroke: #cccccc; stroke-linecap: round"/>
     </g>
     <g id="text_8">
      <!-- $\mathdefault{10}$ -->
      <g style="fill: #262626" transform="translate(41.170666 510.2353) scale(0.16 -0.16)">
       <use xlink:href="#CMR17-31" transform="scale(0.996264)"/>
       <use xlink:href="#CMR17-30" transform="translate(45.690477 0) scale(0.996264)"/>
      </g>
     </g>
    </g>
    <g id="ytick_2">
     <g id="line2d_8">
      <path d="M 66.27864 412.852995 
L 702.72 412.852995 
" clip-path="url(#p701b78cd64)" style="fill: none; stroke: #cccccc; stroke-linecap: round"/>
     </g>
     <g id="text_9">
      <!-- $\mathdefault{12}$ -->
      <g style="fill: #262626" transform="translate(41.170666 418.387789) scale(0.16 -0.16)">
       <use xlink:href="#CMR17-31" transform="scale(0.996264)"/>
       <use xlink:href="#CMR17-32" transform="translate(45.690477 0) scale(0.996264)"/>
      </g>
     </g>
    </g>
    <g id="ytick_3">
     <g id="line2d_9">
      <path d="M 66.27864 321.005483 
L 702.72 321.005483 
" clip-path="url(#p701b78cd64)" style="fill: none; stroke: #cccccc; stroke-linecap: round"/>
     </g>
     <g id="text_10">
      <!-- $\mathdefault{14}$ -->
      <g style="fill: #262626" transform="translate(41.170666 326.540278) scale(0.16 -0.16)">
       <use xlink:href="#CMR17-31" transform="scale(0.996264)"/>
       <use xlink:href="#CMR17-34" transform="translate(45.690477 0) scale(0.996264)"/>
      </g>
     </g>
    </g>
    <g id="ytick_4">
     <g id="line2d_10">
      <path d="M 66.27864 229.157972 
L 702.72 229.157972 
" clip-path="url(#p701b78cd64)" style="fill: none; stroke: #cccccc; stroke-linecap: round"/>
     </g>
     <g id="text_11">
      <!-- $\mathdefault{16}$ -->
      <g style="fill: #262626" transform="translate(41.170666 234.692766) scale(0.16 -0.16)">
       <use xlink:href="#CMR17-31" transform="scale(0.996264)"/>
       <use xlink:href="#CMR17-36" transform="translate(45.690477 0) scale(0.996264)"/>
      </g>
     </g>
    </g>
    <g id="ytick_5">
     <g id="line2d_11">
      <path d="M 66.27864 137.310461 
L 702.72 137.310461 
" clip-path="url(#p701b78cd64)" style="fill: none; stroke: #cccccc; stroke-linecap: round"/>
     </g>
     <g id="text_12">
      <!-- $\mathdefault{18}$ -->
      <g style="fill: #262626" transform="translate(41.170666 142.845255) scale(0.16 -0.16)">
       <use xlink:href="#CMR17-31" transform="scale(0.996264)"/>
       <use xlink:href="#CMR17-38" transform="translate(45.690477 0) scale(0.996264)"/>
      </g>
     </g>
    </g>
    <g id="ytick_6">
     <g id="line2d_12">
      <path d="M 66.27864 45.46295 
L 702.72 45.46295 
" clip-path="url(#p701b78cd64)" style="fill: none; stroke: #cccccc; stroke-linecap: round"/>
     </g>
     <g id="text_13">
      <!-- $\mathdefault{20}$ -->
      <g style="fill: #262626" transform="translate(41.170666 50.997744) scale(0.16 -0.16)">
       <use xlink:href="#CMR17-32" transform="scale(0.996264)"/>
       <use xlink:href="#CMR17-30" transform="translate(45.690477 0) scale(0.996264)"/>
      </g>
     </g>
    </g>
    <g id="text_14">
     <!-- PSNR (dB) -->
     <g style="fill: #262626" transform="translate(32.206022 312.015816) rotate(-90) scale(0.2 -0.2)">
      <defs>
       <path id="CMR17-50" d="M 1267 2042 
L 2291 2042 
C 3117 2042 3718 2578 3718 3184 
C 3718 3791 3130 4352 2291 4352 
L 333 4352 
L 333 4186 
C 774 4186 845 4186 845 3899 
L 845 446 
C 845 160 774 160 333 160 
L 333 0 
C 518 0 858 0 1056 0 
C 1254 0 1594 0 1779 0 
L 1779 160 
C 1338 160 1267 160 1267 446 
L 1267 2042 
z
M 1254 2176 
L 1254 3938 
C 1254 4155 1267 4186 1523 4186 
L 2170 4186 
C 2995 4186 3232 3714 3232 3184 
C 3232 2604 2950 2176 2170 2176 
L 1254 2176 
z
" transform="scale(0.015625)"/>
       <path id="CMR17-4e" d="M 1312 4250 
C 1267 4320 1261 4320 1139 4320 
L 326 4320 
L 326 4160 
L 448 4160 
C 704 4160 819 4129 838 4122 
L 838 610 
C 838 451 838 153 326 153 
L 326 -13 
C 474 0 742 0 902 0 
C 1062 0 1331 0 1478 -13 
L 1478 153 
C 966 153 966 451 966 610 
L 966 4033 
C 1011 3995 1011 3982 1056 3919 
L 3430 76 
C 3475 0 3494 0 3526 0 
C 3590 0 3590 19 3590 139 
L 3590 3705 
C 3590 3863 3590 4160 4102 4160 
L 4102 4326 
C 3955 4320 3686 4320 3526 4320 
C 3366 4320 3098 4320 2950 4326 
L 2950 4160 
C 3462 4160 3462 3862 3462 3703 
L 3462 763 
L 1312 4250 
z
" transform="scale(0.015625)"/>
       <path id="CMR17-52" d="M 2509 2146 
C 3117 2268 3629 2676 3629 3186 
C 3629 3785 2950 4326 2054 4326 
L 333 4326 
L 333 4160 
C 774 4160 845 4160 845 3873 
L 845 415 
C 845 128 774 128 333 128 
L 333 -26 
C 518 -26 851 -26 1050 -26 
C 1248 -26 1581 -26 1766 -26 
L 1766 128 
C 1325 128 1254 128 1254 417 
L 1254 2112 
L 2003 2112 
C 2368 2112 2573 1964 2662 1881 
C 2918 1632 2918 1459 2918 1024 
C 2918 595 2918 377 3110 160 
C 3354 -102 3680 -128 3821 -128 
C 4294 -128 4365 396 4365 503 
C 4365 540 4365 585 4307 585 
C 4256 585 4250 547 4250 522 
C 4218 112 4032 -26 3834 -26 
C 3482 -26 3443 375 3405 764 
C 3386 898 3373 993 3360 1133 
C 3322 1452 3270 1917 2509 2146 
z
M 1984 2214 
L 1254 2214 
L 1254 3913 
C 1254 4129 1267 4160 1523 4160 
L 1990 4160 
C 2522 4160 3142 3977 3142 3190 
C 3142 2372 2464 2214 1984 2214 
z
" transform="scale(0.015625)"/>
       <path id="CMR17-28" d="M 1958 -1561 
C 1958 -1555 1958 -1542 1939 -1523 
C 1645 -1224 858 -407 858 1581 
C 858 3569 1632 4379 1946 4697 
C 1946 4704 1958 4717 1958 4736 
C 1958 4755 1939 4768 1914 4768 
C 1843 4768 1299 4296 986 3594 
C 666 2887 576 2199 576 1588 
C 576 1128 621 351 1005 -471 
C 1312 -1135 1837 -1600 1914 -1600 
C 1946 -1600 1958 -1587 1958 -1561 
z
" transform="scale(0.015625)"/>
       <path id="CMR17-64" d="M 1869 4326 
L 1869 4160 
C 2246 4160 2304 4122 2304 3820 
L 2304 2345 
C 2278 2377 2016 2790 1498 2790 
C 845 2790 211 2208 211 1364 
C 211 525 806 -64 1434 -64 
C 1978 -64 2259 337 2291 380 
L 2291 -63 
L 3066 -63 
L 3066 128 
C 2688 128 2630 166 2630 473 
L 2630 4396 
L 1869 4326 
z
M 2291 755 
C 2291 563 2176 390 2029 262 
C 1811 70 1594 38 1472 38 
C 1286 38 621 134 621 1356 
C 621 2612 1363 2688 1530 2688 
C 1824 2688 2061 2522 2208 2291 
C 2291 2157 2291 2138 2291 2023 
L 2291 755 
z
" transform="scale(0.015625)"/>
       <path id="CMR17-42" d="M 333 4352 
L 333 4186 
C 774 4186 845 4186 845 3900 
L 845 452 
C 845 166 774 166 333 166 
L 333 0 
L 2534 0 
C 3354 0 3885 583 3885 1164 
C 3885 1741 3360 2233 2675 2233 
C 3290 2356 3718 2771 3718 3264 
C 3718 3802 3194 4352 2368 4352 
L 333 4352 
z
M 1248 2304 
L 1248 3937 
C 1248 4155 1261 4186 1517 4186 
L 2336 4186 
C 2970 4186 3251 3674 3251 3277 
C 3251 2791 2861 2304 2170 2304 
L 1248 2304 
z
M 1517 166 
C 1261 166 1248 197 1248 413 
L 1248 2202 
L 2432 2202 
C 3091 2202 3411 1625 3411 1162 
C 3411 699 3046 166 2349 166 
L 1517 166 
z
" transform="scale(0.015625)"/>
       <path id="CMR17-29" d="M 1683 1581 
C 1683 2040 1638 2817 1254 3639 
C 947 4303 422 4768 346 4768 
C 326 4768 301 4761 301 4729 
C 301 4717 307 4710 314 4697 
C 621 4378 1402 3568 1402 1584 
C 1402 -407 627 -1217 314 -1537 
C 307 -1549 301 -1556 301 -1568 
C 301 -1600 326 -1600 346 -1600 
C 416 -1600 960 -1128 1274 -426 
C 1594 281 1683 969 1683 1581 
z
" transform="scale(0.015625)"/>
      </defs>
      <use xlink:href="#CMR17-50" transform="scale(0.996264)"/>
      <use xlink:href="#CMR17-53" transform="translate(62.586301 0) scale(0.996264)"/>
      <use xlink:href="#CMR17-4e" transform="translate(113.48167 0) scale(0.996264)"/>
      <use xlink:href="#CMR17-52" transform="translate(182.5541 0) scale(0.996264)"/>
      <use xlink:href="#CMR17-28" transform="translate(280.421168 0) scale(0.996264)"/>
      <use xlink:href="#CMR17-64" transform="translate(315.701936 0) scale(0.996264)"/>
      <use xlink:href="#CMR17-42" transform="translate(366.597306 0) scale(0.996264)"/>
      <use xlink:href="#CMR17-29" transform="translate(431.78606 0) scale(0.996264)"/>
     </g>
    </g>
   </g>
   <g id="PolyCollection_1">
    <defs>
     <path id="m15354c6c25" d="M 95.207792 -334.745711 
L 95.207792 -274.479966 
L 101.052066 -315.770015 
L 106.896339 -303.802284 
L 112.740612 -302.452126 
L 118.584886 -312.458912 
L 124.429159 -316.863 
L 130.273432 -299.655369 
L 136.117705 -318.153458 
L 141.961979 -308.853897 
L 147.806252 -319.411769 
L 153.650525 -319.411769 
L 159.494799 -319.411769 
L 165.339072 -319.411769 
L 171.183345 -319.411769 
L 177.027618 -319.411769 
L 182.871892 -319.411769 
L 188.716165 -319.411769 
L 194.560438 -319.411769 
L 200.404712 -319.411769 
L 206.248985 -319.411769 
L 212.093258 -319.407176 
L 217.937531 -315.058197 
L 223.781805 -315.494472 
L 229.626078 -311.678208 
L 235.470351 -311.154677 
L 241.314624 -318.369299 
L 247.158898 -320.564455 
L 253.003171 -311.60473 
L 258.847444 -311.60473 
L 264.691718 -311.572584 
L 270.535991 -314.548443 
L 276.380264 -321.248719 
L 282.224537 -321.363528 
L 288.068811 -321.533446 
L 293.913084 -313.069698 
L 299.757357 -307.871129 
L 305.601631 -308.077786 
L 311.445904 -308.077786 
L 317.290177 -308.077786 
L 323.13445 -308.073193 
L 328.978724 -307.958384 
L 334.822997 -307.517516 
L 340.66727 -309.037592 
L 346.511544 -309.611639 
L 352.355817 -320.481792 
L 358.20009 -320.298097 
L 364.044363 -320.789481 
L 369.888637 -320.789481 
L 375.73291 -318.672396 
L 381.577183 -321.864097 
L 387.421457 -85.917025 
L 393.26573 -90.096087 
L 399.110003 -92.424422 
L 404.954276 -92.438199 
L 410.79855 -92.828551 
L 416.642823 -90.486439 
L 422.487096 -89.274052 
L 428.331369 -89.421008 
L 434.175643 -87.574873 
L 440.019916 -87.593243 
L 445.864189 -93.085724 
L 451.708463 -94.495583 
L 457.552736 -94.380774 
L 463.397009 -94.445067 
L 469.241282 -94.449659 
L 475.085556 -95.143108 
L 480.929829 -90.734427 
L 486.774102 -94.99156 
L 492.618376 -94.743571 
L 498.462649 -94.114416 
L 504.306922 -93.296973 
L 510.151195 -93.705694 
L 515.995469 -96.690739 
L 521.839742 -97.035167 
L 527.684015 -97.54492 
L 533.528289 -98.541466 
L 539.372562 -97.769947 
L 545.216835 -99.786 
L 551.061108 -99.763038 
L 556.905382 -102.123519 
L 562.749655 -102.711343 
L 568.593928 -102.265882 
L 574.438201 -103.009847 
L 580.282475 -100.970833 
L 586.126748 -104.65851 
L 591.971021 -104.768727 
L 597.815295 -105.04427 
L 603.659568 -105.838751 
L 609.503841 -107.611408 
L 615.348114 -107.717032 
L 621.192388 -104.837613 
L 627.036661 -103.593079 
L 632.880934 -99.776815 
L 638.725208 -99.730891 
L 644.569481 -99.703337 
L 650.413754 -99.620674 
L 656.258027 -102.798598 
L 662.102301 -102.775636 
L 667.946574 -101.540287 
L 673.790847 -101.462217 
L 673.790847 -292.753028 
L 673.790847 -292.753028 
L 667.946574 -292.753028 
L 662.102301 -321.234942 
L 656.258027 -322.640209 
L 650.413754 -320.743558 
L 644.569481 -328.412825 
L 638.725208 -335.700925 
L 632.880934 -335.365681 
L 627.036661 -335.429975 
L 621.192388 -333.795089 
L 615.348114 -326.465657 
L 609.503841 -322.107493 
L 603.659568 -312.858449 
L 597.815295 -299.508413 
L 591.971021 -308.10534 
L 586.126748 -309.758595 
L 580.282475 -303.715029 
L 574.438201 -300.583029 
L 568.593928 -305.464724 
L 562.749655 -300.684061 
L 556.905382 -287.921849 
L 551.061108 -284.688817 
L 545.216835 -285.239902 
L 539.372562 -308.27985 
L 533.528289 -297.056084 
L 527.684015 -322.529992 
L 521.839742 -345.018855 
L 515.995469 -335.590708 
L 510.151195 -308.803381 
L 504.306922 -306.700073 
L 498.462649 -285.547591 
L 492.618376 -284.996506 
L 486.774102 -290.805861 
L 480.929829 -288.179022 
L 475.085556 -283.0126 
L 469.241282 -291.30643 
L 463.397009 -289.745022 
L 457.552736 -288.156061 
L 451.708463 -284.303057 
L 445.864189 -255.651226 
L 440.019916 -262.025444 
L 434.175643 -262.911772 
L 428.331369 -227.871947 
L 422.487096 -190.370608 
L 416.642823 -173.815094 
L 410.79855 -165.351346 
L 404.954276 -161.461603 
L 399.110003 -155.170049 
L 393.26573 -140.102465 
L 387.421457 -120.782341 
L 381.577183 -536.171895 
L 375.73291 -533.012341 
L 369.888637 -533.044487 
L 364.044363 -525.49003 
L 358.20009 -510.45 
L 352.355817 -515.41895 
L 346.511544 -505.223876 
L 340.66727 -504.328363 
L 334.822997 -509.678481 
L 328.978724 -521.425777 
L 323.13445 -523.4602 
L 317.290177 -487.221764 
L 311.445904 -522.027378 
L 305.601631 -521.191566 
L 299.757357 -507.308815 
L 293.913084 -448.494261 
L 288.068811 -446.983369 
L 282.224537 -446.271551 
L 276.380264 -446.473616 
L 270.535991 -441.619475 
L 264.691718 -442.05575 
L 258.847444 -441.885833 
L 253.003171 -478.376849 
L 247.158898 -491.809547 
L 241.314624 -495.240052 
L 235.470351 -513.829988 
L 229.626078 -502.202093 
L 223.781805 -481.100127 
L 217.937531 -457.789229 
L 212.093258 -445.66995 
L 206.248985 -444.306014 
L 200.404712 -442.82727 
L 194.560438 -446.59761 
L 188.716165 -444.797399 
L 182.871892 -444.627481 
L 177.027618 -443.644712 
L 171.183345 -432.393392 
L 165.339072 -437.399082 
L 159.494799 -421.628864 
L 153.650525 -435.497838 
L 147.806252 -443.185475 
L 141.961979 -408.412007 
L 136.117705 -410.244365 
L 130.273432 -409.059532 
L 124.429159 -406.510764 
L 118.584886 -401.665807 
L 112.740612 -399.649754 
L 106.896339 -398.717502 
L 101.052066 -383.985161 
L 95.207792 -334.745711 
z
" style="stroke: #ffffff; stroke-opacity: 0.2"/>
    </defs>
    <g clip-path="url(#p701b78cd64)">
     <use xlink:href="#m15354c6c25" x="0" y="576" style="fill: #4c72b0; fill-opacity: 0.2; stroke: #ffffff; stroke-opacity: 0.2"/>
    </g>
   </g>
   <g id="PolyCollection_2">
    <defs>
     <path id="m11f37c7345" d="M 95.207792 -331.140696 
L 95.207792 -294.980331 
L 101.052066 -303.687475 
L 106.896339 -312.748232 
L 112.740612 -318.15805 
L 118.584886 -318.171827 
L 124.429159 -318.15805 
L 130.273432 -313.065106 
L 136.117705 -314.681622 
L 141.961979 -319.058156 
L 147.806252 -319.035194 
L 153.650525 -309.799927 
L 159.494799 -319.590871 
L 165.339072 -322.663171 
L 171.183345 -316.233845 
L 177.027618 -322.920344 
L 182.871892 -320.334836 
L 188.716165 -321.38649 
L 194.560438 -320.353206 
L 200.404712 -321.841135 
L 206.248985 -320.812443 
L 212.093258 -322.837681 
L 217.937531 -322.837681 
L 223.781805 -322.479476 
L 229.626078 -321.069616 
L 235.470351 -321.65744 
L 241.314624 -318.984678 
L 247.158898 -321.919206 
L 253.003171 -322.791757 
L 258.847444 -322.805534 
L 264.691718 -322.75961 
L 270.535991 -321.060431 
L 276.380264 -312.371657 
L 282.224537 -312.403804 
L 288.068811 -311.012314 
L 293.913084 -319.747012 
L 299.757357 -323.076484 
L 305.601631 -322.732056 
L 311.445904 -326.823863 
L 317.290177 -330.006379 
L 323.13445 -330.387546 
L 328.978724 -329.712467 
L 334.822997 -332.550555 
L 340.66727 -331.737705 
L 346.511544 -331.103957 
L 352.355817 -330.277329 
L 358.20009 -332.633218 
L 364.044363 -330.323253 
L 369.888637 -329.547141 
L 375.73291 -328.573558 
L 381.577183 -327.117775 
L 387.421457 -92.598932 
L 393.26573 -91.758527 
L 399.110003 -93.159202 
L 404.954276 -92.980099 
L 410.79855 -92.888252 
L 416.642823 -93.191348 
L 422.487096 -93.044392 
L 428.331369 -93.003061 
L 434.175643 -93.02143 
L 440.019916 -93.779172 
L 445.864189 -93.719472 
L 451.708463 -93.558738 
L 457.552736 -93.356674 
L 463.397009 -95.662046 
L 469.241282 -94.803272 
L 475.085556 -97.581659 
L 480.929829 -97.586252 
L 486.774102 -97.586252 
L 492.618376 -97.577067 
L 498.462649 -97.577067 
L 504.306922 -97.480627 
L 510.151195 -97.434703 
L 515.995469 -97.503589 
L 521.839742 -95.836557 
L 527.684015 -94.959413 
L 533.528289 -94.550692 
L 539.372562 -94.720609 
L 545.216835 -93.393413 
L 551.061108 -94.578246 
L 556.905382 -95.354357 
L 562.749655 -94.931859 
L 568.593928 -94.931859 
L 574.438201 -94.931859 
L 580.282475 -94.885935 
L 586.126748 -94.849196 
L 591.971021 -94.849196 
L 597.815295 -93.384228 
L 603.659568 -95.675824 
L 609.503841 -100.998387 
L 615.348114 -101.632135 
L 621.192388 -101.60458 
L 627.036661 -96.920357 
L 632.880934 -104.644733 
L 638.725208 -104.869759 
L 644.569481 -107.0741 
L 650.413754 -107.032768 
L 656.258027 -107.937466 
L 662.102301 -108.750317 
L 667.946574 -108.846757 
L 673.790847 -108.878903 
L 673.790847 -296.472853 
L 673.790847 -296.472853 
L 667.946574 -283.995368 
L 662.102301 -285.823134 
L 656.258027 -287.393726 
L 650.413754 -278.645251 
L 644.569481 -292.638219 
L 638.725208 -292.500448 
L 632.880934 -288.720923 
L 627.036661 -290.511949 
L 621.192388 -302.438349 
L 615.348114 -277.345608 
L 609.503841 -255.922176 
L 603.659568 -258.948552 
L 597.815295 -234.56763 
L 591.971021 -240.119812 
L 586.126748 -212.156837 
L 580.282475 -224.101606 
L 574.438201 -218.067225 
L 568.593928 -231.109571 
L 562.749655 -238.576774 
L 556.905382 -269.722265 
L 551.061108 -261.359549 
L 545.216835 -260.97379 
L 539.372562 -260.6064 
L 533.528289 -261.088599 
L 527.684015 -273.497198 
L 521.839742 -274.231978 
L 515.995469 -274.337602 
L 510.151195 -302.998618 
L 504.306922 -304.514102 
L 498.462649 -306.309721 
L 492.618376 -290.02975 
L 486.774102 -289.708283 
L 480.929829 -284.927621 
L 475.085556 -280.78989 
L 469.241282 -274.282494 
L 463.397009 -269.873813 
L 457.552736 -220.749172 
L 451.708463 -232.524023 
L 445.864189 -235.210563 
L 440.019916 -224.560844 
L 434.175643 -214.723975 
L 428.331369 -201.144321 
L 422.487096 -196.611646 
L 416.642823 -184.726578 
L 410.79855 -178.600349 
L 404.954276 -177.071088 
L 399.110003 -170.334073 
L 393.26573 -128.396499 
L 387.421457 -123.77657 
L 381.577183 -483.171289 
L 375.73291 -485.729242 
L 369.888637 -486.165518 
L 364.044363 -474.698356 
L 358.20009 -468.517018 
L 352.355817 -467.717945 
L 346.511544 -460.668649 
L 340.66727 -459.970607 
L 334.822997 -482.491617 
L 328.978724 -475.373435 
L 323.13445 -463.290895 
L 317.290177 -493.715383 
L 311.445904 -504.011489 
L 305.601631 -487.896843 
L 299.757357 -507.460363 
L 293.913084 -519.561273 
L 288.068811 -519.487795 
L 282.224537 -505.73363 
L 276.380264 -493.981741 
L 270.535991 -481.922163 
L 264.691718 -489.866972 
L 258.847444 -495.428339 
L 253.003171 -489.462843 
L 247.158898 -494.206767 
L 241.314624 -462.666332 
L 235.470351 -467.465364 
L 229.626078 -469.554895 
L 223.781805 -469.825845 
L 217.937531 -459.87876 
L 212.093258 -456.815645 
L 206.248985 -460.002754 
L 200.404712 -459.373599 
L 194.560438 -463.111792 
L 188.716165 -462.992391 
L 182.871892 -462.377012 
L 177.027618 -464.76964 
L 171.183345 -465.752408 
L 165.339072 -447.543639 
L 159.494799 -447.5069 
L 153.650525 -444.673404 
L 147.806252 -444.457563 
L 141.961979 -443.681451 
L 136.117705 -442.257815 
L 130.273432 -441.196976 
L 124.429159 -441.605698 
L 118.584886 -439.566683 
L 112.740612 -406.019379 
L 106.896339 -395.034417 
L 101.052066 -364.040474 
L 95.207792 -331.140696 
z
" style="stroke: #ffffff; stroke-opacity: 0.2"/>
    </defs>
    <g clip-path="url(#p701b78cd64)">
     <use xlink:href="#m11f37c7345" x="0" y="576" style="fill: #dd8452; fill-opacity: 0.2; stroke: #ffffff; stroke-opacity: 0.2"/>
    </g>
   </g>
   <g id="PolyCollection_3">
    <defs>
     <path id="m31bccb07df" d="M 95.207792 -351.250708 
L 95.207792 -299.999797 
L 101.052066 -309.914736 
L 106.896339 -310.497968 
L 112.740612 -307.030724 
L 118.584886 -311.448589 
L 124.429159 -314.575997 
L 130.273432 -316.702267 
L 136.117705 -318.644842 
L 141.961979 -319.026009 
L 147.806252 -313.483012 
L 153.650525 -316.743598 
L 159.494799 -320.399129 
L 165.339072 -321.377305 
L 171.183345 -321.648256 
L 177.027618 -322.621839 
L 182.871892 -323.425505 
L 188.716165 -314.277493 
L 194.560438 -326.135006 
L 200.404712 -326.08449 
L 206.248985 -322.911159 
L 212.093258 -313.565675 
L 217.937531 -318.938754 
L 223.781805 -319.044379 
L 229.626078 -322.745833 
L 235.470351 -324.867511 
L 241.314624 -324.42205 
L 247.158898 -323.136185 
L 253.003171 -324.408273 
L 258.847444 -324.408273 
L 264.691718 -324.334795 
L 270.535991 -324.376127 
L 276.380264 -324.376127 
L 282.224537 -325.997235 
L 288.068811 -324.858326 
L 293.913084 -324.940989 
L 299.757357 -304.344184 
L 305.601631 -314.158091 
L 311.445904 -324.417458 
L 317.290177 -322.653986 
L 323.13445 -321.992684 
L 328.978724 -322.736649 
L 334.822997 -322.915751 
L 340.66727 -322.897382 
L 346.511544 -322.254449 
L 352.355817 -321.184426 
L 358.20009 -321.143094 
L 364.044363 -323.273956 
L 369.888637 -322.061569 
L 375.73291 -322.594285 
L 381.577183 -322.011053 
L 387.421457 -85.2098 
L 393.26573 -85.737923 
L 399.110003 -85.825178 
L 404.954276 -88.208621 
L 410.79855 -88.819407 
L 416.642823 -88.543864 
L 422.487096 -88.346392 
L 428.331369 -86.40841 
L 434.175643 -89.710328 
L 440.019916 -93.540369 
L 445.864189 -94.353219 
L 451.708463 -94.807865 
L 457.552736 -95.606938 
L 463.397009 -95.211994 
L 469.241282 -95.744709 
L 475.085556 -95.767671 
L 480.929829 -99.969695 
L 486.774102 -102.500094 
L 492.618376 -102.500094 
L 498.462649 -102.500094 
L 504.306922 -102.582756 
L 510.151195 -102.45417 
L 515.995469 -102.523056 
L 521.839742 -101.609173 
L 527.684015 -95.335988 
L 533.528289 -108.029314 
L 539.372562 -109.223331 
L 545.216835 -109.333548 
L 551.061108 -103.753812 
L 556.905382 -103.703296 
L 562.749655 -104.295712 
L 568.593928 -104.249789 
L 574.438201 -104.222234 
L 580.282475 -102.610311 
L 586.126748 -102.160258 
L 591.971021 -102.316399 
L 597.815295 -102.316399 
L 603.659568 -102.316399 
L 609.503841 -102.146481 
L 615.348114 -101.370369 
L 621.192388 -101.370369 
L 627.036661 -101.163712 
L 632.880934 -101.907677 
L 638.725208 -98.29807 
L 644.569481 -95.685008 
L 650.413754 -95.685008 
L 656.258027 -94.128193 
L 662.102301 -92.447384 
L 667.946574 -92.447384 
L 673.790847 -93.645994 
L 673.790847 -234.347196 
L 673.790847 -234.347196 
L 667.946574 -241.3919 
L 662.102301 -233.63997 
L 656.258027 -232.569947 
L 650.413754 -233.148586 
L 644.569481 -249.194346 
L 638.725208 -253.84183 
L 632.880934 -272.252664 
L 627.036661 -264.555843 
L 621.192388 -278.640658 
L 615.348114 -266.245837 
L 609.503841 -244.707595 
L 603.659568 -251.279285 
L 597.815295 -249.456112 
L 591.971021 -262.291801 
L 586.126748 -274.553444 
L 580.282475 -279.632611 
L 574.438201 -283.141186 
L 568.593928 -277.258353 
L 562.749655 -248.560598 
L 556.905382 -247.155332 
L 551.061108 -246.411367 
L 545.216835 -249.653584 
L 539.372562 -233.589454 
L 533.528289 -233.612416 
L 527.684015 -235.385073 
L 521.839742 -235.68817 
L 515.995469 -232.07397 
L 510.151195 -233.690486 
L 504.306922 -236.119853 
L 498.462649 -228.928193 
L 492.618376 -224.345002 
L 486.774102 -225.566574 
L 480.929829 -210.053529 
L 475.085556 -206.007646 
L 469.241282 -200.809077 
L 463.397009 -200.836632 
L 457.552736 -201.736737 
L 451.708463 -196.400397 
L 445.864189 -184.469405 
L 440.019916 -182.141071 
L 434.175643 -181.764496 
L 428.331369 -181.13534 
L 422.487096 -172.703739 
L 416.642823 -173.489035 
L 410.79855 -162.527035 
L 404.954276 -156.111486 
L 399.110003 -143.973837 
L 393.26573 -138.495133 
L 387.421457 -115.877684 
L 381.577183 -469.008403 
L 375.73291 -464.484913 
L 369.888637 -463.55266 
L 364.044363 -470.813206 
L 358.20009 -485.926714 
L 352.355817 -496.443254 
L 346.511544 -518.422364 
L 340.66727 -510.013724 
L 334.822997 -504.204369 
L 328.978724 -486.836005 
L 323.13445 -491.708515 
L 317.290177 -488.204532 
L 311.445904 -480.278092 
L 305.601631 -433.50934 
L 299.757357 -438.019052 
L 293.913084 -450.179663 
L 288.068811 -448.613663 
L 282.224537 -448.287604 
L 276.380264 -447.286466 
L 270.535991 -422.170764 
L 264.691718 -429.33487 
L 258.847444 -429.849216 
L 253.003171 -438.735463 
L 247.158898 -439.663123 
L 241.314624 -444.136097 
L 235.470351 -453.96378 
L 229.626078 -453.669868 
L 223.781805 -445.541363 
L 217.937531 -432.609234 
L 212.093258 -440.310648 
L 206.248985 -447.832959 
L 200.404712 -450.547053 
L 194.560438 -451.924766 
L 188.716165 -447.60334 
L 182.871892 -447.617117 
L 177.027618 -444.705551 
L 171.183345 -446.349622 
L 165.339072 -441.908794 
L 159.494799 -432.691897 
L 153.650525 -406.556687 
L 147.806252 -406.519948 
L 141.961979 -405.867831 
L 136.117705 -401.211162 
L 130.273432 -399.668124 
L 124.429159 -395.916153 
L 118.584886 -372.940498 
L 112.740612 -370.515724 
L 106.896339 -370.786674 
L 101.052066 -369.932492 
L 95.207792 -351.250708 
z
" style="stroke: #ffffff; stroke-opacity: 0.2"/>
    </defs>
    <g clip-path="url(#p701b78cd64)">
     <use xlink:href="#m31bccb07df" x="0" y="576" style="fill: #55a868; fill-opacity: 0.2; stroke: #ffffff; stroke-opacity: 0.2"/>
    </g>
   </g>
   <g id="line2d_13">
    <path d="M 95.207792 267.306836 
L 101.052066 255.052082 
L 106.896339 252.028002 
L 112.740612 250.90287 
L 118.584886 250.567627 
L 124.429159 250.096909 
L 130.273432 250.43904 
L 136.117705 243.183087 
L 141.961979 241.759451 
L 147.806252 239.543629 
L 153.650525 238.797368 
L 159.494799 237.043081 
L 165.339072 236.622879 
L 171.183345 230.682641 
L 177.027618 229.304928 
L 182.871892 222.147711 
L 188.716165 218.005388 
L 194.560438 217.158095 
L 200.404712 217.082321 
L 206.248985 220.469198 
L 212.093258 219.952555 
L 217.937531 220.590896 
L 223.781805 219.660939 
L 229.626078 217.233869 
L 235.470351 215.693127 
L 241.314624 214.030687 
L 247.158898 217.484153 
L 253.003171 216.579455 
L 258.847444 204.673722 
L 264.691718 208.689754 
L 270.535991 214.221271 
L 276.380264 204.421141 
L 282.224537 208.708124 
L 288.068811 209.429127 
L 293.913084 200.818423 
L 299.757357 203.231716 
L 305.601631 202.956173 
L 311.445904 199.080208 
L 317.290177 201.562387 
L 323.13445 208.969889 
L 328.978724 210.202942 
L 334.822997 207.661062 
L 340.66727 219.162667 
L 346.511544 209.12603 
L 352.355817 211.259188 
L 358.20009 214.202901 
L 364.044363 207.573807 
L 369.888637 203.126091 
L 375.73291 195.344311 
L 381.577183 203.397041 
L 387.421457 472.719203 
L 393.26573 467.874246 
L 399.110003 464.572328 
L 404.954276 466.165883 
L 410.79855 457.25897 
L 416.642823 452.960507 
L 422.487096 448.795222 
L 428.331369 447.148855 
L 434.175643 438.434823 
L 440.019916 439.491069 
L 445.864189 439.74365 
L 451.708463 440.52665 
L 457.552736 439.282116 
L 463.397009 426.875813 
L 469.241282 429.725382 
L 475.085556 413.250235 
L 480.929829 410.419036 
L 486.774102 399.636138 
L 492.618376 405.215874 
L 498.462649 400.807194 
L 504.306922 399.569548 
L 510.151195 397.209067 
L 515.995469 395.160868 
L 521.839742 388.754504 
L 527.684015 386.974958 
L 533.528289 387.255093 
L 539.372562 386.529498 
L 545.216835 381.07146 
L 551.061108 378.490545 
L 556.905382 371.714494 
L 562.749655 369.921172 
L 568.593928 373.273606 
L 574.438201 374.603099 
L 580.282475 380.068026 
L 586.126748 375.496316 
L 591.971021 378.107081 
L 597.815295 383.859032 
L 603.659568 382.687976 
L 609.503841 382.449172 
L 615.348114 384.210348 
L 621.192388 388.710876 
L 627.036661 390.442202 
L 632.880934 389.115005 
L 638.725208 390.736114 
L 644.569481 391.604073 
L 650.413754 392.972601 
L 656.258027 378.846454 
L 662.102301 385.369923 
L 667.946574 381.785574 
L 673.790847 380.885468 
" clip-path="url(#p701b78cd64)" style="fill: none; stroke: #4c72b0; stroke-width: 2; stroke-linecap: round"/>
   </g>
   <g id="line2d_14">
    <path d="M 95.207792 259.614607 
L 101.052066 254.021093 
L 106.896339 250.817911 
L 112.740612 249.224357 
L 118.584886 248.772008 
L 124.429159 244.843231 
L 130.273432 246.425304 
L 136.117705 244.579169 
L 141.961979 244.581465 
L 147.806252 242.813401 
L 153.650525 241.33236 
L 159.494799 240.829495 
L 165.339072 238.494272 
L 171.183345 238.620562 
L 177.027618 238.048811 
L 182.871892 237.580389 
L 188.716165 238.72389 
L 194.560438 233.520729 
L 200.404712 231.789403 
L 206.248985 230.765304 
L 212.093258 231.206172 
L 217.937531 232.338192 
L 223.781805 226.774529 
L 229.626078 219.344066 
L 235.470351 220.983544 
L 241.314624 221.807875 
L 247.158898 220.965174 
L 253.003171 214.237344 
L 258.847444 208.579537 
L 264.691718 203.879241 
L 270.535991 205.785077 
L 276.380264 204.170857 
L 282.224537 207.507218 
L 288.068811 201.369508 
L 293.913084 205.516423 
L 299.757357 203.918276 
L 305.601631 204.276481 
L 311.445904 215.718385 
L 317.290177 202.519898 
L 323.13445 195.686443 
L 328.978724 178.866867 
L 334.822997 177.764697 
L 340.66727 178.425999 
L 346.511544 178.001205 
L 352.355817 186.384586 
L 358.20009 184.228466 
L 364.044363 176.23314 
L 369.888637 176.869184 
L 375.73291 176.935773 
L 381.577183 179.778454 
L 387.421457 473.727229 
L 393.26573 472.641132 
L 399.110003 470.978692 
L 404.954276 472.879936 
L 410.79855 472.498768 
L 416.642823 469.667569 
L 422.487096 467.989056 
L 428.331369 464.925941 
L 434.175643 464.260047 
L 440.019916 463.805402 
L 445.864189 459.860551 
L 451.708463 460.978794 
L 457.552736 453.24753 
L 463.397009 447.681571 
L 469.241282 449.888207 
L 475.085556 447.201668 
L 480.929829 443.493324 
L 486.774102 430.930881 
L 492.618376 424.196162 
L 498.462649 419.863256 
L 504.306922 409.939132 
L 510.151195 409.746253 
L 515.995469 416.05388 
L 521.839742 416.219206 
L 527.684015 416.703702 
L 533.528289 416.852954 
L 539.372562 417.603807 
L 545.216835 417.355819 
L 551.061108 416.336312 
L 556.905382 419.815036 
L 562.749655 425.37181 
L 568.593928 426.696711 
L 574.438201 428.717356 
L 580.282475 425.817271 
L 586.126748 424.705916 
L 591.971021 422.956221 
L 597.815295 422.203071 
L 603.659568 422.976887 
L 609.503841 419.918364 
L 615.348114 417.695655 
L 621.192388 417.100942 
L 627.036661 407.50747 
L 632.880934 407.514358 
L 638.725208 412.937954 
L 644.569481 416.334015 
L 650.413754 423.082511 
L 656.258027 414.462622 
L 662.102301 415.440798 
L 667.946574 417.30071 
L 673.790847 415.675009 
" clip-path="url(#p701b78cd64)" style="fill: none; stroke: #dd8452; stroke-width: 2; stroke-linecap: round"/>
   </g>
   <g id="line2d_15">
    <path d="M 95.207792 262.875194 
L 101.052066 256.475718 
L 106.896339 253.502155 
L 112.740612 252.432131 
L 118.584886 251.279445 
L 124.429159 248.537797 
L 130.273432 249.621598 
L 136.117705 247.557325 
L 141.961979 246.170427 
L 147.806252 244.24163 
L 153.650525 243.268046 
L 159.494799 241.865075 
L 165.339072 242.351867 
L 171.183345 244.599835 
L 177.027618 244.728421 
L 182.871892 241.610198 
L 188.716165 241.219847 
L 194.560438 238.537899 
L 200.404712 240.650392 
L 206.248985 239.761767 
L 212.093258 239.033876 
L 217.937531 238.27843 
L 223.781805 234.758374 
L 229.626078 234.377207 
L 235.470351 238.397832 
L 241.314624 237.483949 
L 247.158898 237.077524 
L 253.003171 234.599937 
L 258.847444 231.872066 
L 264.691718 234.514978 
L 270.535991 232.019022 
L 276.380264 232.354266 
L 282.224537 232.659658 
L 288.068811 234.005225 
L 293.913084 231.594227 
L 299.757357 230.393321 
L 305.601631 229.640172 
L 311.445904 229.594248 
L 317.290177 229.878975 
L 323.13445 231.463345 
L 328.978724 235.077544 
L 334.822997 238.266949 
L 340.66727 236.737688 
L 346.511544 233.807752 
L 352.355817 233.160227 
L 358.20009 233.663093 
L 364.044363 233.720497 
L 369.888637 233.800864 
L 375.73291 235.247462 
L 381.577183 232.296861 
L 387.421457 479.2863 
L 393.26573 476.092302 
L 399.110003 470.452865 
L 404.954276 472.152044 
L 410.79855 471.522889 
L 416.642823 471.929314 
L 422.487096 470.216358 
L 428.331369 469.695123 
L 434.175643 463.695185 
L 440.019916 461.199228 
L 445.864189 458.613721 
L 451.708463 449.833099 
L 457.552736 434.889509 
L 463.397009 432.956119 
L 469.241282 429.511837 
L 475.085556 425.732312 
L 480.929829 425.277667 
L 486.774102 424.715101 
L 492.618376 425.426919 
L 498.462649 426.255843 
L 504.306922 428.953863 
L 510.151195 424.8965 
L 515.995469 426.343098 
L 521.839742 422.988368 
L 527.684015 424.646215 
L 533.528289 423.835661 
L 539.372562 422.478614 
L 545.216835 422.058411 
L 551.061108 421.263931 
L 556.905382 413.80132 
L 562.749655 418.59576 
L 568.593928 415.174441 
L 574.438201 418.074526 
L 580.282475 407.158449 
L 586.126748 408.214695 
L 591.971021 408.637194 
L 597.815295 419.663488 
L 603.659568 419.936734 
L 609.503841 419.302986 
L 615.348114 420.154872 
L 621.192388 409.867951 
L 627.036661 407.810566 
L 632.880934 409.502857 
L 638.725208 406.75432 
L 644.569481 415.424725 
L 650.413754 404.45354 
L 656.258027 399.489182 
L 662.102301 402.159648 
L 667.946574 401.900179 
L 673.790847 400.632683 
" clip-path="url(#p701b78cd64)" style="fill: none; stroke: #55a868; stroke-width: 2; stroke-linecap: round"/>
   </g>
   <g id="patch_3">
    <path d="M 66.27864 513.338305 
L 66.27864 17.28 
" style="fill: none; stroke: #cccccc; stroke-width: 1.25; stroke-linejoin: miter; stroke-linecap: square"/>
   </g>
   <g id="patch_4">
    <path d="M 702.72 513.338305 
L 702.72 17.28 
" style="fill: none; stroke: #cccccc; stroke-width: 1.25; stroke-linejoin: miter; stroke-linecap: square"/>
   </g>
   <g id="patch_5">
    <path d="M 66.27864 513.338305 
L 702.72 513.338305 
" style="fill: none; stroke: #cccccc; stroke-width: 1.25; stroke-linejoin: miter; stroke-linecap: square"/>
   </g>
   <g id="patch_6">
    <path d="M 66.27864 17.28 
L 702.72 17.28 
" style="fill: none; stroke: #cccccc; stroke-width: 1.25; stroke-linejoin: miter; stroke-linecap: square"/>
   </g>
   <g id="legend_1">
    <g id="patch_7">
     <path d="M 601.469604 148.162063 
L 688.72 148.162063 
Q 692.72 148.162063 692.72 144.162063 
L 692.72 31.28 
Q 692.72 27.28 688.72 27.28 
L 601.469604 27.28 
Q 597.469604 27.28 597.469604 31.28 
L 597.469604 144.162063 
Q 597.469604 148.162063 601.469604 148.162063 
z
" style="fill: #ffffff; opacity: 0.8; stroke: #cccccc; stroke-linejoin: miter"/>
    </g>
    <g id="text_15">
     <!-- $\theta_{\mathrm{min}}$ -->
     <g style="fill: #262626" transform="translate(625.982718 51.884405) scale(0.24 -0.24)">
      <defs>
       <path id="CMMI12-12" d="M 2835 3200 
C 2835 3850 2630 4480 2106 4480 
C 1210 4480 256 2615 256 1216 
C 256 923 320 -64 992 -64 
C 1862 -64 2835 1756 2835 3200 
z
M 896 2304 
C 992 2679 1126 3214 1382 3665 
C 1594 4047 1818 4352 2099 4352 
C 2310 4352 2451 4174 2451 3564 
C 2451 3334 2432 3017 2246 2304 
L 896 2304 
z
M 2202 2113 
C 2042 1490 1907 1088 1677 687 
C 1491 363 1267 64 998 64 
C 800 64 640 217 640 846 
C 640 1260 742 1693 845 2113 
L 2202 2113 
z
" transform="scale(0.015625)"/>
       <path id="CMR17-6d" d="M 4326 1933 
C 4326 2252 4269 2790 3507 2790 
C 3072 2790 2771 2496 2656 2151 
L 2650 2151 
C 2573 2676 2195 2790 1837 2790 
C 1331 2790 1069 2400 973 2144 
L 966 2144 
L 966 2790 
L 211 2720 
L 211 2554 
C 589 2554 646 2515 646 2208 
L 646 428 
C 646 184 621 153 211 153 
L 211 -13 
C 365 0 646 0 813 0 
C 979 0 1267 0 1421 -13 
L 1421 153 
C 1011 153 986 178 986 428 
L 986 1658 
C 986 2247 1344 2688 1792 2688 
C 2266 2688 2317 2266 2317 1958 
L 2317 428 
C 2317 184 2291 153 1882 153 
L 1882 -13 
C 2035 0 2317 0 2483 0 
C 2650 0 2938 0 3091 -13 
L 3091 153 
C 2682 153 2656 178 2656 428 
L 2656 1658 
C 2656 2247 3014 2688 3462 2688 
C 3936 2688 3987 2266 3987 1958 
L 3987 428 
C 3987 184 3962 153 3552 153 
L 3552 -13 
C 3706 0 3987 0 4154 0 
C 4320 0 4608 0 4762 -13 
L 4762 153 
C 4352 153 4326 178 4326 428 
L 4326 1933 
z
" transform="scale(0.015625)"/>
       <path id="CMR17-69" d="M 992 3909 
C 992 4049 877 4170 730 4170 
C 589 4170 467 4056 467 3909 
C 467 3769 582 3648 730 3648 
C 870 3648 992 3763 992 3909 
z
M 243 2706 
L 243 2541 
C 602 2541 653 2502 653 2197 
L 653 427 
C 653 184 627 153 218 153 
L 218 -13 
C 371 0 646 0 806 0 
C 960 0 1222 0 1370 -13 
L 1370 153 
C 992 153 979 191 979 420 
L 979 2776 
L 243 2706 
z
" transform="scale(0.015625)"/>
       <path id="CMR17-6e" d="M 2656 1933 
C 2656 2259 2592 2790 1837 2790 
C 1331 2790 1069 2400 973 2144 
L 966 2144 
L 966 2790 
L 211 2720 
L 211 2554 
C 589 2554 646 2515 646 2208 
L 646 428 
C 646 184 621 153 211 153 
L 211 -13 
C 365 0 646 0 813 0 
C 979 0 1267 0 1421 -13 
L 1421 153 
C 1011 153 986 178 986 428 
L 986 1658 
C 986 2247 1344 2688 1792 2688 
C 2266 2688 2317 2266 2317 1958 
L 2317 428 
C 2317 184 2291 153 1882 153 
L 1882 -13 
C 2035 0 2317 0 2483 0 
C 2650 0 2938 0 3091 -13 
L 3091 153 
C 2682 153 2656 178 2656 428 
L 2656 1933 
z
" transform="scale(0.015625)"/>
      </defs>
      <use xlink:href="#CMMI12-12" transform="scale(0.996264)"/>
      <use xlink:href="#CMR17-6d" transform="translate(45.45979 -14.943915) scale(0.697382)"/>
      <use xlink:href="#CMR17-69" transform="translate(99.303257 -14.943915) scale(0.697382)"/>
      <use xlink:href="#CMR17-6e" transform="translate(116.712916 -14.943915) scale(0.697382)"/>
     </g>
    </g>
    <g id="line2d_16">
     <path d="M 605.469604 73.535163 
L 625.469604 73.535163 
L 645.469604 73.535163 
" style="fill: none; stroke: #4c72b0; stroke-width: 2; stroke-linecap: round"/>
    </g>
    <g id="text_16">
     <!-- 0.1 -->
     <g style="fill: #262626" transform="translate(661.469604 80.535163) scale(0.2 -0.2)">
      <defs>
       <path id="CMR17-2e" d="M 1062 261 
C 1062 420 934 522 800 522 
C 672 522 538 420 538 261 
C 538 102 666 0 800 0 
C 928 0 1062 102 1062 261 
z
" transform="scale(0.015625)"/>
      </defs>
      <use xlink:href="#CMR17-30" transform="scale(0.996264)"/>
      <use xlink:href="#CMR17-2e" transform="translate(45.690477 0) scale(0.996264)"/>
      <use xlink:href="#CMR17-31" transform="translate(70.561536 0) scale(0.996264)"/>
     </g>
    </g>
    <g id="line2d_17">
     <path d="M 605.469604 101.410796 
L 625.469604 101.410796 
L 645.469604 101.410796 
" style="fill: none; stroke: #dd8452; stroke-width: 2; stroke-linecap: round"/>
    </g>
    <g id="text_17">
     <!-- 0.2 -->
     <g style="fill: #262626" transform="translate(661.469604 108.410796) scale(0.2 -0.2)">
      <use xlink:href="#CMR17-30" transform="scale(0.996264)"/>
      <use xlink:href="#CMR17-2e" transform="translate(45.690477 0) scale(0.996264)"/>
      <use xlink:href="#CMR17-32" transform="translate(70.561536 0) scale(0.996264)"/>
     </g>
    </g>
    <g id="line2d_18">
     <path d="M 605.469604 129.28643 
L 625.469604 129.28643 
L 645.469604 129.28643 
" style="fill: none; stroke: #55a868; stroke-width: 2; stroke-linecap: round"/>
    </g>
    <g id="text_18">
     <!-- 0.3 -->
     <g style="fill: #262626" transform="translate(661.469604 136.28643) scale(0.2 -0.2)">
      <defs>
       <path id="CMR17-33" d="M 1414 2157 
C 1984 2157 2234 1662 2234 1090 
C 2234 320 1824 25 1453 25 
C 1114 25 563 194 390 693 
C 422 680 454 680 486 680 
C 640 680 755 782 755 948 
C 755 1133 614 1216 486 1216 
C 378 1216 211 1165 211 926 
C 211 335 787 -128 1466 -128 
C 2176 -128 2720 430 2720 1085 
C 2720 1707 2208 2157 1600 2227 
C 2086 2328 2554 2756 2554 3329 
C 2554 3820 2048 4179 1472 4179 
C 890 4179 378 3829 378 3329 
C 378 3110 544 3072 627 3072 
C 762 3072 877 3155 877 3321 
C 877 3486 762 3569 627 3569 
C 602 3569 570 3569 544 3557 
C 730 3959 1235 4032 1459 4032 
C 1683 4032 2106 3925 2106 3320 
C 2106 3143 2080 2828 1862 2550 
C 1670 2304 1453 2304 1242 2284 
C 1210 2284 1062 2269 1037 2269 
C 992 2263 966 2257 966 2208 
C 966 2163 973 2157 1101 2157 
L 1414 2157 
z
" transform="scale(0.015625)"/>
      </defs>
      <use xlink:href="#CMR17-30" transform="scale(0.996264)"/>
      <use xlink:href="#CMR17-2e" transform="translate(45.690477 0) scale(0.996264)"/>
      <use xlink:href="#CMR17-33" transform="translate(70.561536 0) scale(0.996264)"/>
     </g>
    </g>
   </g>
  </g>
 </g>
 <defs>
  <clipPath id="p701b78cd64">
   <rect x="66.27864" y="17.28" width="636.44136" height="496.058305"/>
  </clipPath>
 </defs>
</svg>
