<?xml version="1.0" encoding="utf-8" standalone="no"?>
<!DOCTYPE svg PUBLIC "-//W3C//DTD SVG 1.1//EN"
  "http://www.w3.org/Graphics/SVG/1.1/DTD/svg11.dtd">
<svg xmlns:xlink="http://www.w3.org/1999/xlink" width="720pt" height="576pt" viewBox="0 0 720 576" xmlns="http://www.w3.org/2000/svg" version="1.1">
 <metadata>
  <rdf:RDF xmlns:dc="http://purl.org/dc/elements/1.1/" xmlns:cc="http://creativecommons.org/ns#" xmlns:rdf="http://www.w3.org/1999/02/22-rdf-syntax-ns#">
   <cc:Work>
    <dc:type rdf:resource="http://purl.org/dc/dcmitype/StillImage"/>
    <dc:date>2025-04-25T21:13:56.181328</dc:date>
    <dc:format>image/svg+xml</dc:format>
    <dc:creator>
     <cc:Agent>
      <dc:title>Matplotlib v3.9.2, https://matplotlib.org/</dc:title>
     </cc:Agent>
    </dc:creator>
   </cc:Work>
  </rdf:RDF>
 </metadata>
 <defs>
  <style type="text/css">*{stroke-linejoin: round; stroke-linecap: butt}</style>
 </defs>
 <g id="figure_1">
  <g id="patch_1">
   <path d="M 0 576 
L 720 576 
L 720 0 
L 0 0 
z
" style="fill: #ffffff"/>
  </g>
  <g id="axes_1">
   <g id="patch_2">
    <path d="M 68.436153 513.338305 
L 702.72 513.338305 
L 702.72 17.28 
L 68.436153 17.28 
z
" style="fill: #ffffff"/>
   </g>
   <g id="matplotlib.axis_1">
    <g id="xtick_1">
     <g id="line2d_1">
      <path d="M 97.267237 513.338305 
L 97.267237 17.28 
" clip-path="url(#pc7b7887de2)" style="fill: none; stroke: #cccccc; stroke-linecap: round"/>
     </g>
     <g id="text_1">
      <!-- $\mathdefault{0}$ -->
      <g style="fill: #262626" transform="translate(93.365243 533.907893) scale(0.16 -0.16)">
       <defs>
        <path id="CMR17-30" d="M 2688 2025 
C 2688 2416 2682 3080 2413 3591 
C 2176 4039 1798 4198 1466 4198 
C 1158 4198 768 4058 525 3597 
C 269 3118 243 2524 243 2025 
C 243 1661 250 1106 448 619 
C 723 -39 1216 -128 1466 -128 
C 1760 -128 2208 -7 2470 600 
C 2662 1042 2688 1559 2688 2025 
z
M 1466 -26 
C 1056 -26 813 325 723 812 
C 653 1188 653 1738 653 2096 
C 653 2588 653 2997 736 3387 
C 858 3929 1216 4096 1466 4096 
C 1728 4096 2067 3923 2189 3400 
C 2272 3036 2278 2607 2278 2096 
C 2278 1680 2278 1169 2202 792 
C 2067 95 1690 -26 1466 -26 
z
" transform="scale(0.015625)"/>
       </defs>
       <use xlink:href="#CMR17-30" transform="scale(0.996264)"/>
      </g>
     </g>
    </g>
    <g id="xtick_2">
     <g id="line2d_2">
      <path d="M 213.756465 513.338305 
L 213.756465 17.28 
" clip-path="url(#pc7b7887de2)" style="fill: none; stroke: #cccccc; stroke-linecap: round"/>
     </g>
     <g id="text_2">
      <!-- $\mathdefault{200}$ -->
      <g style="fill: #262626" transform="translate(202.050484 533.907893) scale(0.16 -0.16)">
       <defs>
        <path id="CMR17-32" d="M 2669 989 
L 2554 989 
C 2490 536 2438 459 2413 420 
C 2381 369 1920 369 1830 369 
L 602 369 
C 832 619 1280 1072 1824 1597 
C 2214 1967 2669 2402 2669 3035 
C 2669 3790 2067 4224 1395 4224 
C 691 4224 262 3604 262 3030 
C 262 2780 448 2748 525 2748 
C 589 2748 781 2787 781 3010 
C 781 3207 614 3264 525 3264 
C 486 3264 448 3258 422 3245 
C 544 3790 915 4058 1306 4058 
C 1862 4058 2227 3617 2227 3035 
C 2227 2479 1901 2000 1536 1584 
L 262 146 
L 262 0 
L 2515 0 
L 2669 989 
z
" transform="scale(0.015625)"/>
       </defs>
       <use xlink:href="#CMR17-32" transform="scale(0.996264)"/>
       <use xlink:href="#CMR17-30" transform="translate(45.690477 0) scale(0.996264)"/>
       <use xlink:href="#CMR17-30" transform="translate(91.380954 0) scale(0.996264)"/>
      </g>
     </g>
    </g>
    <g id="xtick_3">
     <g id="line2d_3">
      <path d="M 330.245693 513.338305 
L 330.245693 17.28 
" clip-path="url(#pc7b7887de2)" style="fill: none; stroke: #cccccc; stroke-linecap: round"/>
     </g>
     <g id="text_3">
      <!-- $\mathdefault{400}$ -->
      <g style="fill: #262626" transform="translate(318.539712 533.907893) scale(0.16 -0.16)">
       <defs>
        <path id="CMR17-34" d="M 2150 4122 
C 2150 4256 2144 4256 2029 4256 
L 128 1254 
L 128 1088 
L 1779 1088 
L 1779 457 
C 1779 224 1766 160 1318 160 
L 1197 160 
L 1197 0 
C 1402 0 1747 0 1965 0 
C 2182 0 2528 0 2733 0 
L 2733 160 
L 2611 160 
C 2163 160 2150 224 2150 457 
L 2150 1088 
L 2803 1088 
L 2803 1254 
L 2150 1254 
L 2150 4122 
z
M 1798 3703 
L 1798 1254 
L 256 1254 
L 1798 3703 
z
" transform="scale(0.015625)"/>
       </defs>
       <use xlink:href="#CMR17-34" transform="scale(0.996264)"/>
       <use xlink:href="#CMR17-30" transform="translate(45.690477 0) scale(0.996264)"/>
       <use xlink:href="#CMR17-30" transform="translate(91.380954 0) scale(0.996264)"/>
      </g>
     </g>
    </g>
    <g id="xtick_4">
     <g id="line2d_4">
      <path d="M 446.734921 513.338305 
L 446.734921 17.28 
" clip-path="url(#pc7b7887de2)" style="fill: none; stroke: #cccccc; stroke-linecap: round"/>
     </g>
     <g id="text_4">
      <!-- $\mathdefault{600}$ -->
      <g style="fill: #262626" transform="translate(435.028941 533.907893) scale(0.16 -0.16)">
       <defs>
        <path id="CMR17-36" d="M 678 2176 
C 678 3690 1395 4032 1811 4032 
C 1946 4032 2272 4009 2400 3776 
C 2298 3776 2106 3776 2106 3553 
C 2106 3381 2246 3323 2336 3323 
C 2394 3323 2566 3348 2566 3560 
C 2566 3954 2246 4179 1805 4179 
C 1043 4179 243 3390 243 1984 
C 243 253 966 -128 1478 -128 
C 2099 -128 2688 427 2688 1283 
C 2688 2081 2170 2662 1517 2662 
C 1126 2662 838 2407 678 1960 
L 678 2176 
z
M 1478 25 
C 691 25 691 1200 691 1436 
C 691 1896 909 2560 1504 2560 
C 1613 2560 1926 2560 2138 2120 
C 2253 1870 2253 1609 2253 1289 
C 2253 944 2253 690 2118 434 
C 1978 171 1773 25 1478 25 
z
" transform="scale(0.015625)"/>
       </defs>
       <use xlink:href="#CMR17-36" transform="scale(0.996264)"/>
       <use xlink:href="#CMR17-30" transform="translate(45.690477 0) scale(0.996264)"/>
       <use xlink:href="#CMR17-30" transform="translate(91.380954 0) scale(0.996264)"/>
      </g>
     </g>
    </g>
    <g id="xtick_5">
     <g id="line2d_5">
      <path d="M 563.224149 513.338305 
L 563.224149 17.28 
" clip-path="url(#pc7b7887de2)" style="fill: none; stroke: #cccccc; stroke-linecap: round"/>
     </g>
     <g id="text_5">
      <!-- $\mathdefault{800}$ -->
      <g style="fill: #262626" transform="translate(551.518169 533.907893) scale(0.16 -0.16)">
       <defs>
        <path id="CMR17-38" d="M 1741 2264 
C 2144 2467 2554 2773 2554 3263 
C 2554 3841 1990 4179 1472 4179 
C 890 4179 378 3759 378 3180 
C 378 3021 416 2747 666 2505 
C 730 2442 998 2251 1171 2130 
C 883 1983 211 1634 211 934 
C 211 279 838 -128 1459 -128 
C 2144 -128 2720 362 2720 1010 
C 2720 1590 2330 1857 2074 2029 
L 1741 2264 
z
M 902 2822 
C 851 2854 595 3051 595 3351 
C 595 3739 998 4032 1459 4032 
C 1965 4032 2336 3676 2336 3262 
C 2336 2669 1670 2331 1638 2331 
C 1632 2331 1626 2331 1574 2370 
L 902 2822 
z
M 2080 1519 
C 2176 1449 2483 1240 2483 851 
C 2483 381 2010 25 1472 25 
C 890 25 448 438 448 940 
C 448 1443 838 1862 1280 2060 
L 2080 1519 
z
" transform="scale(0.015625)"/>
       </defs>
       <use xlink:href="#CMR17-38" transform="scale(0.996264)"/>
       <use xlink:href="#CMR17-30" transform="translate(45.690477 0) scale(0.996264)"/>
       <use xlink:href="#CMR17-30" transform="translate(91.380954 0) scale(0.996264)"/>
      </g>
     </g>
    </g>
    <g id="xtick_6">
     <g id="line2d_6">
      <path d="M 679.713377 513.338305 
L 679.713377 17.28 
" clip-path="url(#pc7b7887de2)" style="fill: none; stroke: #cccccc; stroke-linecap: round"/>
     </g>
     <g id="text_6">
      <!-- $\mathdefault{1000}$ -->
      <g style="fill: #262626" transform="translate(664.105403 533.907893) scale(0.16 -0.16)">
       <defs>
        <path id="CMR17-31" d="M 1702 4058 
C 1702 4192 1696 4192 1606 4192 
C 1357 3916 979 3827 621 3827 
C 602 3827 570 3827 563 3808 
C 557 3795 557 3782 557 3648 
C 755 3648 1088 3686 1344 3839 
L 1344 461 
C 1344 236 1331 160 781 160 
L 589 160 
L 589 0 
C 896 0 1216 0 1523 0 
C 1830 0 2150 0 2458 0 
L 2458 160 
L 2266 160 
C 1715 160 1702 230 1702 458 
L 1702 4058 
z
" transform="scale(0.015625)"/>
       </defs>
       <use xlink:href="#CMR17-31" transform="scale(0.996264)"/>
       <use xlink:href="#CMR17-30" transform="translate(45.690477 0) scale(0.996264)"/>
       <use xlink:href="#CMR17-30" transform="translate(91.380954 0) scale(0.996264)"/>
       <use xlink:href="#CMR17-30" transform="translate(137.071431 0) scale(0.996264)"/>
      </g>
     </g>
    </g>
    <g id="text_7">
     <!-- Step -->
     <g style="fill: #262626" transform="translate(367.822372 554.844366) scale(0.2 -0.2)">
      <defs>
       <path id="CMR17-53" d="M 2803 4290 
C 2803 4404 2797 4411 2758 4411 
C 2720 4411 2707 4385 2682 4328 
L 2490 3907 
C 2246 4257 1875 4416 1472 4416 
C 819 4416 294 3901 294 3253 
C 294 3056 339 2776 557 2510 
C 794 2218 1018 2167 1530 2033 
C 1722 1982 2042 1899 2106 1874 
C 2470 1722 2662 1341 2662 985 
C 2662 527 2336 38 1779 38 
C 1094 38 454 419 410 1311 
C 403 1413 397 1419 352 1419 
C 301 1419 294 1413 294 1285 
L 294 -1 
C 294 -115 301 -122 339 -122 
C 384 -122 397 -90 486 108 
C 493 127 493 140 614 381 
C 934 -39 1472 -128 1779 -128 
C 2477 -128 2970 451 2970 1124 
C 2970 1454 2848 1708 2778 1823 
C 2509 2230 2221 2306 1914 2382 
C 1869 2402 1856 2402 1498 2490 
C 1152 2579 1005 2624 845 2796 
C 666 2992 602 3196 602 3399 
C 602 3812 934 4263 1478 4263 
C 2157 4263 2579 3786 2675 2993 
C 2694 2878 2701 2872 2746 2872 
C 2803 2872 2803 2891 2803 2999 
L 2803 4290 
z
" transform="scale(0.015625)"/>
       <path id="CMR17-74" d="M 966 2560 
L 1862 2560 
L 1862 2725 
L 966 2725 
L 966 3904 
L 851 3904 
C 838 3245 614 2668 70 2668 
L 70 2560 
L 627 2560 
L 627 771 
C 627 650 627 -64 1370 -64 
C 1747 -64 1965 306 1965 777 
L 1965 1140 
L 1850 1140 
L 1850 783 
C 1850 344 1677 51 1408 51 
C 1222 51 966 178 966 758 
L 966 2560 
z
" transform="scale(0.015625)"/>
       <path id="CMR17-65" d="M 2438 1472 
C 2464 1498 2464 1511 2464 1576 
C 2464 2238 2118 2816 1389 2816 
C 710 2816 173 2169 173 1383 
C 173 551 781 -64 1459 -64 
C 2176 -64 2458 607 2458 740 
C 2458 784 2419 784 2406 784 
C 2362 784 2355 771 2330 696 
C 2189 265 1837 51 1504 51 
C 1229 51 954 203 781 480 
C 582 803 582 1176 582 1472 
L 2438 1472 
z
M 589 1568 
C 634 2505 1126 2714 1382 2714 
C 1818 2714 2112 2297 2118 1568 
L 589 1568 
z
" transform="scale(0.015625)"/>
       <path id="CMR17-70" d="M 1408 -1063 
C 998 -1063 973 -1037 973 -789 
L 973 402 
C 1158 134 1427 -38 1766 -38 
C 2406 -38 3053 523 3053 1388 
C 3053 2191 2496 2802 1837 2802 
C 1453 2802 1139 2592 960 2338 
L 960 2802 
L 198 2732 
L 198 2567 
C 576 2567 634 2528 634 2223 
L 634 -789 
C 634 -1031 608 -1063 198 -1063 
L 198 -1228 
C 352 -1216 634 -1216 800 -1216 
C 966 -1216 1254 -1216 1408 -1228 
L 1408 -1063 
z
M 973 2012 
C 973 2102 973 2235 1222 2471 
C 1254 2497 1472 2688 1792 2688 
C 2259 2688 2643 2108 2643 1382 
C 2643 656 2234 64 1728 64 
C 1498 64 1248 172 1056 472 
C 973 612 973 650 973 752 
L 973 2012 
z
" transform="scale(0.015625)"/>
      </defs>
      <use xlink:href="#CMR17-53" transform="scale(0.996264)"/>
      <use xlink:href="#CMR17-74" transform="translate(50.89537 0) scale(0.996264)"/>
      <use xlink:href="#CMR17-65" transform="translate(86.176138 0) scale(0.996264)"/>
      <use xlink:href="#CMR17-70" transform="translate(126.661798 0) scale(0.996264)"/>
     </g>
    </g>
   </g>
   <g id="matplotlib.axis_2">
    <g id="ytick_1">
     <g id="line2d_7">
      <path d="M 68.436153 480.04495 
L 702.72 480.04495 
" clip-path="url(#pc7b7887de2)" style="fill: none; stroke: #cccccc; stroke-linecap: round"/>
     </g>
     <g id="text_8">
      <!-- $\mathdefault{0.2}$ -->
      <g style="fill: #262626" transform="translate(38.99263 485.579744) scale(0.16 -0.16)">
       <defs>
        <path id="CMMI12-3a" d="M 1178 307 
C 1178 492 1024 619 870 619 
C 685 619 557 466 557 313 
C 557 128 710 0 864 0 
C 1050 0 1178 153 1178 307 
z
" transform="scale(0.015625)"/>
       </defs>
       <use xlink:href="#CMR17-30" transform="scale(0.996264)"/>
       <use xlink:href="#CMMI12-3a" transform="translate(45.690477 0) scale(0.996264)"/>
       <use xlink:href="#CMR17-32" transform="translate(72.787654 0) scale(0.996264)"/>
      </g>
     </g>
    </g>
    <g id="ytick_2">
     <g id="line2d_8">
      <path d="M 68.436153 395.436677 
L 702.72 395.436677 
" clip-path="url(#pc7b7887de2)" style="fill: none; stroke: #cccccc; stroke-linecap: round"/>
     </g>
     <g id="text_9">
      <!-- $\mathdefault{0.3}$ -->
      <g style="fill: #262626" transform="translate(38.99263 400.971471) scale(0.16 -0.16)">
       <defs>
        <path id="CMR17-33" d="M 1414 2157 
C 1984 2157 2234 1662 2234 1090 
C 2234 320 1824 25 1453 25 
C 1114 25 563 194 390 693 
C 422 680 454 680 486 680 
C 640 680 755 782 755 948 
C 755 1133 614 1216 486 1216 
C 378 1216 211 1165 211 926 
C 211 335 787 -128 1466 -128 
C 2176 -128 2720 430 2720 1085 
C 2720 1707 2208 2157 1600 2227 
C 2086 2328 2554 2756 2554 3329 
C 2554 3820 2048 4179 1472 4179 
C 890 4179 378 3829 378 3329 
C 378 3110 544 3072 627 3072 
C 762 3072 877 3155 877 3321 
C 877 3486 762 3569 627 3569 
C 602 3569 570 3569 544 3557 
C 730 3959 1235 4032 1459 4032 
C 1683 4032 2106 3925 2106 3320 
C 2106 3143 2080 2828 1862 2550 
C 1670 2304 1453 2304 1242 2284 
C 1210 2284 1062 2269 1037 2269 
C 992 2263 966 2257 966 2208 
C 966 2163 973 2157 1101 2157 
L 1414 2157 
z
" transform="scale(0.015625)"/>
       </defs>
       <use xlink:href="#CMR17-30" transform="scale(0.996264)"/>
       <use xlink:href="#CMMI12-3a" transform="translate(45.690477 0) scale(0.996264)"/>
       <use xlink:href="#CMR17-33" transform="translate(72.787654 0) scale(0.996264)"/>
      </g>
     </g>
    </g>
    <g id="ytick_3">
     <g id="line2d_9">
      <path d="M 68.436153 310.828403 
L 702.72 310.828403 
" clip-path="url(#pc7b7887de2)" style="fill: none; stroke: #cccccc; stroke-linecap: round"/>
     </g>
     <g id="text_10">
      <!-- $\mathdefault{0.4}$ -->
      <g style="fill: #262626" transform="translate(38.99263 316.363198) scale(0.16 -0.16)">
       <use xlink:href="#CMR17-30" transform="scale(0.996264)"/>
       <use xlink:href="#CMMI12-3a" transform="translate(45.690477 0) scale(0.996264)"/>
       <use xlink:href="#CMR17-34" transform="translate(72.787654 0) scale(0.996264)"/>
      </g>
     </g>
    </g>
    <g id="ytick_4">
     <g id="line2d_10">
      <path d="M 68.436153 226.22013 
L 702.72 226.22013 
" clip-path="url(#pc7b7887de2)" style="fill: none; stroke: #cccccc; stroke-linecap: round"/>
     </g>
     <g id="text_11">
      <!-- $\mathdefault{0.5}$ -->
      <g style="fill: #262626" transform="translate(38.99263 231.754925) scale(0.16 -0.16)">
       <defs>
        <path id="CMR17-35" d="M 730 3692 
C 794 3666 1056 3584 1325 3584 
C 1920 3584 2246 3911 2432 4100 
C 2432 4157 2432 4192 2394 4192 
C 2387 4192 2374 4192 2323 4163 
C 2099 4058 1837 3973 1517 3973 
C 1325 3973 1037 3999 723 4139 
C 653 4171 640 4171 634 4171 
C 602 4171 595 4164 595 4037 
L 595 2203 
C 595 2089 595 2057 659 2057 
C 691 2057 704 2070 736 2114 
C 941 2401 1222 2522 1542 2522 
C 1766 2522 2246 2382 2246 1289 
C 2246 1085 2246 715 2054 421 
C 1894 159 1645 25 1370 25 
C 947 25 518 320 403 814 
C 429 807 480 795 506 795 
C 589 795 749 840 749 1038 
C 749 1210 627 1280 506 1280 
C 358 1280 262 1190 262 1011 
C 262 454 704 -128 1382 -128 
C 2042 -128 2669 440 2669 1264 
C 2669 2030 2170 2624 1549 2624 
C 1222 2624 947 2503 730 2274 
L 730 3692 
z
" transform="scale(0.015625)"/>
       </defs>
       <use xlink:href="#CMR17-30" transform="scale(0.996264)"/>
       <use xlink:href="#CMMI12-3a" transform="translate(45.690477 0) scale(0.996264)"/>
       <use xlink:href="#CMR17-35" transform="translate(72.787654 0) scale(0.996264)"/>
      </g>
     </g>
    </g>
    <g id="ytick_5">
     <g id="line2d_11">
      <path d="M 68.436153 141.611857 
L 702.72 141.611857 
" clip-path="url(#pc7b7887de2)" style="fill: none; stroke: #cccccc; stroke-linecap: round"/>
     </g>
     <g id="text_12">
      <!-- $\mathdefault{0.6}$ -->
      <g style="fill: #262626" transform="translate(38.99263 147.146651) scale(0.16 -0.16)">
       <use xlink:href="#CMR17-30" transform="scale(0.996264)"/>
       <use xlink:href="#CMMI12-3a" transform="translate(45.690477 0) scale(0.996264)"/>
       <use xlink:href="#CMR17-36" transform="translate(72.787654 0) scale(0.996264)"/>
      </g>
     </g>
    </g>
    <g id="ytick_6">
     <g id="line2d_12">
      <path d="M 68.436153 57.003584 
L 702.72 57.003584 
" clip-path="url(#pc7b7887de2)" style="fill: none; stroke: #cccccc; stroke-linecap: round"/>
     </g>
     <g id="text_13">
      <!-- $\mathdefault{0.7}$ -->
      <g style="fill: #262626" transform="translate(38.99263 62.538378) scale(0.16 -0.16)">
       <defs>
        <path id="CMR17-37" d="M 2886 3941 
L 2886 4081 
L 1382 4081 
C 634 4081 621 4165 595 4288 
L 480 4288 
L 294 3094 
L 410 3094 
C 429 3215 474 3540 550 3661 
C 589 3712 1062 3712 1171 3712 
L 2579 3712 
L 1869 2661 
C 1395 1954 1069 999 1069 165 
C 1069 89 1069 -128 1299 -128 
C 1530 -128 1530 89 1530 171 
L 1530 465 
C 1530 1508 1709 2196 2003 2636 
L 2886 3941 
z
" transform="scale(0.015625)"/>
       </defs>
       <use xlink:href="#CMR17-30" transform="scale(0.996264)"/>
       <use xlink:href="#CMMI12-3a" transform="translate(45.690477 0) scale(0.996264)"/>
       <use xlink:href="#CMR17-37" transform="translate(72.787654 0) scale(0.996264)"/>
      </g>
     </g>
    </g>
    <g id="text_14">
     <!-- SSIM -->
     <g style="fill: #262626" transform="translate(31.116997 287.220751) rotate(-90) scale(0.2 -0.2)">
      <defs>
       <path id="CMR17-49" d="M 1261 3905 
C 1261 4192 1338 4192 1798 4192 
L 1798 4352 
C 1594 4352 1267 4352 1050 4352 
C 832 4352 506 4352 301 4352 
L 301 4192 
C 762 4192 838 4192 838 3905 
L 838 447 
C 838 160 762 160 301 160 
L 301 0 
C 506 0 832 0 1050 0 
C 1267 0 1594 0 1798 0 
L 1798 160 
C 1338 160 1261 160 1261 447 
L 1261 3905 
z
" transform="scale(0.015625)"/>
       <path id="CMR17-4d" d="M 1338 4224 
C 1299 4320 1293 4320 1158 4320 
L 339 4320 
L 339 4160 
C 781 4160 851 4160 851 3875 
L 851 610 
C 851 451 851 153 339 153 
L 339 -13 
C 486 0 755 0 915 0 
C 1075 0 1344 0 1491 -13 
L 1491 153 
C 979 153 979 451 979 610 
L 979 4135 
L 986 4135 
L 2490 89 
C 2515 25 2528 -13 2579 -13 
C 2630 -13 2643 25 2669 89 
L 4186 4166 
L 4192 4166 
L 4192 438 
C 4192 153 4122 153 3680 153 
L 3680 -13 
C 3853 0 4198 0 4384 0 
C 4570 0 4922 0 5094 -13 
L 5094 153 
C 4653 153 4582 153 4582 438 
L 4582 3875 
C 4582 4160 4653 4160 5094 4160 
L 5094 4320 
L 4282 4320 
C 4147 4320 4141 4314 4102 4218 
L 2720 502 
L 1338 4224 
z
" transform="scale(0.015625)"/>
      </defs>
      <use xlink:href="#CMR17-53" transform="scale(0.996264)"/>
      <use xlink:href="#CMR17-53" transform="translate(50.89537 0) scale(0.996264)"/>
      <use xlink:href="#CMR17-49" transform="translate(101.79074 0) scale(0.996264)"/>
      <use xlink:href="#CMR17-4d" transform="translate(134.429149 0) scale(0.996264)"/>
     </g>
    </g>
   </g>
   <g id="PolyCollection_1">
    <defs>
     <path id="m84672ce6ec" d="M 97.267237 -318.813242 
L 97.267237 -270.755743 
L 103.091698 -294.192234 
L 108.916159 -290.46947 
L 114.740621 -290.46947 
L 120.565082 -303.414536 
L 126.389544 -313.652137 
L 132.214005 -315.090478 
L 138.038467 -322.705222 
L 143.862928 -316.528818 
L 149.687389 -323.128264 
L 155.511851 -324.481996 
L 161.336312 -332.350565 
L 167.160774 -332.773607 
L 172.985235 -335.904113 
L 178.809696 -335.904113 
L 184.634158 -335.904113 
L 190.458619 -335.904113 
L 196.283081 -335.904113 
L 202.107542 -335.904113 
L 207.932003 -335.904113 
L 213.756465 -335.904113 
L 219.580926 -331.081441 
L 225.405388 -331.927524 
L 231.229849 -330.996833 
L 237.05431 -330.15075 
L 242.878772 -333.450473 
L 248.703233 -340.557568 
L 254.527695 -343.688074 
L 260.352156 -343.688074 
L 266.176617 -336.919412 
L 272.001079 -336.157938 
L 277.82554 -335.311855 
L 283.650002 -335.396463 
L 289.474463 -336.834804 
L 295.298925 -338.01932 
L 301.123386 -338.696186 
L 306.947847 -338.611578 
L 312.772309 -338.611578 
L 318.59677 -334.55038 
L 324.421232 -327.866327 
L 330.245693 -324.735821 
L 336.070154 -335.142638 
L 341.894616 -340.642176 
L 347.719077 -341.065217 
L 353.543539 -336.750196 
L 359.368 -332.858215 
L 365.192461 -338.442361 
L 371.016923 -338.442361 
L 376.841384 -328.543193 
L 382.665846 -342.588166 
L 388.490307 -101.200763 
L 394.314768 -102.131454 
L 400.13923 -112.876705 
L 405.963691 -113.892004 
L 411.788153 -114.230437 
L 417.612614 -115.330345 
L 423.437076 -113.892004 
L 429.261537 -113.215138 
L 435.085998 -112.876705 
L 440.91046 -113.722788 
L 446.734921 -117.953201 
L 452.559383 -124.214214 
L 458.383844 -123.621956 
L 464.208305 -123.791172 
L 470.032767 -123.791172 
L 475.857228 -124.38343 
L 481.68169 -121.591357 
L 487.506151 -125.567946 
L 493.330612 -124.468038 
L 499.155074 -119.222325 
L 504.979535 -119.560759 
L 510.803997 -116.684077 
L 516.628458 -124.552647 
L 522.452919 -127.767761 
L 528.277381 -132.167391 
L 534.101842 -134.705639 
L 539.926304 -139.189878 
L 545.750765 -137.666929 
L 551.575226 -153.573284 
L 557.399688 -159.66508 
L 563.224149 -162.795586 
L 569.048611 -161.949503 
L 574.873072 -163.726277 
L 580.697534 -160.849596 
L 586.521995 -169.310423 
L 592.346456 -171.087197 
L 598.170918 -167.702866 
L 603.995379 -167.872082 
L 609.819841 -164.826185 
L 615.644302 -154.7578 
L 621.468763 -149.596695 
L 627.293225 -142.489601 
L 633.117686 -139.951352 
L 638.942148 -139.443703 
L 644.766609 -139.10527 
L 650.59107 -136.14398 
L 656.415532 -148.158355 
L 662.239993 -155.688491 
L 668.064455 -156.534574 
L 673.888916 -137.582321 
L 673.888916 -270.501918 
L 673.888916 -270.501918 
L 668.064455 -266.525329 
L 662.239993 -265.933071 
L 656.415532 -276.76293 
L 650.59107 -271.517217 
L 644.766609 -280.485694 
L 638.942148 -300.199422 
L 633.117686 -297.999606 
L 627.293225 -302.822278 
L 621.468763 -304.68366 
L 615.644302 -294.615276 
L 609.819841 -283.785417 
L 603.995379 -281.247168 
L 598.170918 -283.362375 
L 592.346456 -278.455095 
L 586.521995 -281.077952 
L 580.697534 -290.723295 
L 574.873072 -271.686434 
L 569.048611 -264.410122 
L 563.224149 -265.340813 
L 557.399688 -260.941183 
L 551.575226 -262.887173 
L 545.750765 -265.340813 
L 539.926304 -275.155373 
L 534.101842 -273.547816 
L 528.277381 -269.063577 
L 522.452919 -286.06984 
L 516.628458 -277.439796 
L 510.803997 -256.456944 
L 504.979535 -253.664871 
L 499.155074 -245.119436 
L 493.330612 -247.826901 
L 487.506151 -251.634273 
L 481.68169 -255.272429 
L 475.857228 -259.672059 
L 470.032767 -272.109475 
L 464.208305 -280.485694 
L 458.383844 -283.362375 
L 452.559383 -282.600901 
L 446.734921 -252.818789 
L 440.91046 -251.29584 
L 435.085998 -251.803489 
L 429.261537 -239.53529 
L 423.437076 -214.491241 
L 417.612614 -202.223041 
L 411.788153 -182.67853 
L 405.963691 -165.587659 
L 400.13923 -156.111532 
L 394.314768 -151.373469 
L 388.490307 -135.805547 
L 382.665846 -517.896508 
L 376.841384 -524.918995 
L 371.016923 -524.495954 
L 365.192461 -511.043238 
L 359.368 -497.928956 
L 353.543539 -504.866834 
L 347.719077 -504.697618 
L 341.894616 -506.05135 
L 336.070154 -508.674206 
L 330.245693 -528.980192 
L 324.421232 -536.171895 
L 318.59677 -526.864985 
L 312.772309 -532.533739 
L 306.947847 -528.895584 
L 301.123386 -525.934294 
L 295.298925 -491.921768 
L 289.474463 -477.792187 
L 283.650002 -479.822785 
L 277.82554 -483.0379 
L 272.001079 -480.668868 
L 266.176617 -483.714766 
L 260.352156 -483.207116 
L 254.527695 -478.046012 
L 248.703233 -473.138732 
L 242.878772 -477.284537 
L 237.05431 -483.545549 
L 231.229849 -474.661681 
L 225.405388 -470.685092 
L 219.580926 -455.878644 
L 213.756465 -464.085647 
L 207.932003 -462.478089 
L 202.107542 -456.301685 
L 196.283081 -455.11717 
L 190.458619 -450.971364 
L 184.634158 -442.087496 
L 178.809696 -448.263899 
L 172.985235 -449.786848 
L 167.160774 -447.75625 
L 161.336312 -433.965101 
L 155.511851 -429.988512 
L 149.687389 -430.242337 
L 143.862928 -419.412478 
L 138.038467 -411.205476 
L 132.214005 -404.775247 
L 126.389544 -395.129904 
L 120.565082 -396.399028 
L 114.740621 -390.391841 
L 108.916159 -377.023734 
L 103.091698 -352.318118 
L 97.267237 -318.813242 
z
" style="stroke: #ffffff; stroke-opacity: 0.2"/>
    </defs>
    <g clip-path="url(#pc7b7887de2)">
     <use xlink:href="#m84672ce6ec" x="0" y="576" style="fill: #4c72b0; fill-opacity: 0.2; stroke: #ffffff; stroke-opacity: 0.2"/>
    </g>
   </g>
   <g id="PolyCollection_2">
    <defs>
     <path id="m09e03a2e90" d="M 97.267237 -325.581903 
L 97.267237 -262.971781 
L 103.091698 -262.210307 
L 108.916159 -295.799791 
L 114.740621 -316.782643 
L 120.565082 -324.735821 
L 126.389544 -329.050843 
L 132.214005 -327.189461 
L 138.038467 -329.050843 
L 143.862928 -330.996833 
L 149.687389 -337.173237 
L 155.511851 -337.765495 
L 161.336312 -347.495446 
L 167.160774 -345.126415 
L 172.985235 -343.349641 
L 178.809696 -349.526045 
L 184.634158 -348.679962 
L 190.458619 -349.526045 
L 196.283081 -349.526045 
L 202.107542 -352.487334 
L 207.932003 -352.487334 
L 213.756465 -352.064293 
L 219.580926 -352.064293 
L 225.405388 -343.603466 
L 231.229849 -336.242546 
L 237.05431 -337.765495 
L 242.878772 -341.065217 
L 248.703233 -339.711485 
L 254.527695 -346.733972 
L 260.352156 -347.072405 
L 266.176617 -347.580055 
L 272.001079 -345.803281 
L 277.82554 -340.726784 
L 283.650002 -340.642176 
L 289.474463 -343.772682 
L 295.298925 -336.073329 
L 301.123386 -352.148901 
L 306.947847 -356.548531 
L 312.772309 -358.325305 
L 318.59677 -361.709636 
L 324.421232 -354.771758 
L 330.245693 -346.649363 
L 336.070154 -346.480147 
L 341.894616 -346.057106 
L 347.719077 -353.248809 
L 353.543539 -353.079592 
L 359.368 -339.203835 
L 365.192461 -337.257845 
L 371.016923 -350.118303 
L 376.841384 -354.433325 
L 382.665846 -343.941899 
L 388.490307 -97.054958 
L 394.314768 -104.923527 
L 400.13923 -106.108043 
L 405.963691 -116.768686 
L 411.788153 -116.430252 
L 417.612614 -112.792097 
L 423.437076 -110.507673 
L 429.261537 -110.084632 
L 435.085998 -106.531084 
L 440.91046 -105.346569 
L 446.734921 -105.092744 
L 452.559383 -105.515785 
L 458.383844 -102.469887 
L 464.208305 -109.153941 
L 470.032767 -113.638179 
L 475.857228 -117.614768 
L 481.68169 -117.614768 
L 487.506151 -119.053109 
L 493.330612 -117.953201 
L 499.155074 -124.298822 
L 504.979535 -121.845182 
L 510.803997 -114.484262 
L 516.628458 -126.83707 
L 522.452919 -125.060296 
L 528.277381 -124.806471 
L 534.101842 -124.89108 
L 539.926304 -124.298822 
L 545.750765 -119.47615 
L 551.575226 -119.729975 
L 557.399688 -125.821771 
L 563.224149 -123.368131 
L 569.048611 -123.368131 
L 574.873072 -123.368131 
L 580.697534 -123.368131 
L 586.521995 -123.198914 
L 592.346456 -122.775873 
L 598.170918 -116.430252 
L 603.995379 -113.553571 
L 609.819841 -124.214214 
L 615.644302 -136.059372 
L 621.468763 -137.243888 
L 627.293225 -134.790248 
L 633.117686 -132.928866 
L 638.942148 -130.475226 
L 644.766609 -129.629143 
L 650.59107 -137.751537 
L 656.415532 -141.220476 
L 662.239993 -141.135868 
L 668.064455 -140.374394 
L 673.888916 -140.374394 
L 673.888916 -274.393898 
L 673.888916 -274.393898 
L 668.064455 -274.986156 
L 662.239993 -267.879061 
L 656.415532 -268.978969 
L 650.59107 -267.625236 
L 644.766609 -251.549665 
L 638.942148 -258.995193 
L 633.117686 -249.011416 
L 627.293225 -246.38856 
L 621.468763 -245.119436 
L 615.644302 -236.489392 
L 609.819841 -241.396672 
L 603.995379 -243.173446 
L 598.170918 -240.550589 
L 592.346456 -246.642385 
L 586.521995 -240.212156 
L 580.697534 -243.173446 
L 574.873072 -245.542477 
L 569.048611 -241.565888 
L 563.224149 -252.903397 
L 557.399688 -267.879061 
L 551.575226 -267.371412 
L 545.750765 -262.54874 
L 539.926304 -260.179708 
L 534.101842 -260.941183 
L 528.277381 -263.902472 
L 522.452919 -259.756667 
L 516.628458 -256.541553 
L 510.803997 -285.392974 
L 504.979535 -284.377675 
L 499.155074 -278.455095 
L 493.330612 -270.501918 
L 487.506151 -268.725144 
L 481.68169 -256.118511 
L 475.857228 -247.065426 
L 470.032767 -232.597411 
L 464.208305 -224.051976 
L 458.383844 -219.229304 
L 452.559383 -207.384146 
L 446.734921 -209.753178 
L 440.91046 -203.915207 
L 435.085998 -204.338248 
L 429.261537 -187.839635 
L 423.437076 -184.201479 
L 417.612614 -173.625445 
L 411.788153 -158.818997 
L 405.963691 -152.981026 
L 400.13923 -146.720014 
L 394.314768 -138.766837 
L 388.490307 -129.713751 
L 382.665846 -474.830897 
L 376.841384 -477.961403 
L 371.016923 -487.606746 
L 365.192461 -499.451905 
L 359.368 -502.074761 
L 353.543539 -471.27735 
L 347.719077 -443.441228 
L 341.894616 -443.695053 
L 336.070154 -448.094683 
L 330.245693 -447.671642 
L 324.421232 -449.871457 
L 318.59677 -450.971364 
L 312.772309 -475.846197 
L 306.947847 -476.692279 
L 301.123386 -487.014489 
L 295.298925 -488.368221 
L 289.474463 -488.029788 
L 283.650002 -481.599559 
L 277.82554 -476.607671 
L 272.001079 -467.131544 
L 266.176617 -469.500576 
L 260.352156 -473.477165 
L 254.527695 -464.170255 
L 248.703233 -468.485277 
L 242.878772 -464.085647 
L 237.05431 -471.446566 
L 231.229849 -446.064084 
L 225.405388 -446.740951 
L 219.580926 -452.409705 
L 213.756465 -452.66353 
L 207.932003 -454.947953 
L 202.107542 -457.740026 
L 196.283081 -456.132469 
L 190.458619 -454.186479 
L 184.634158 -454.60952 
L 178.809696 -456.301685 
L 172.985235 -457.147768 
L 167.160774 -448.348508 
L 161.336312 -408.751836 
L 155.511851 -403.759948 
L 149.687389 -402.236999 
L 143.862928 -402.067782 
L 138.038467 -392.591656 
L 132.214005 -389.207325 
L 126.389544 -385.569169 
L 120.565082 -384.892303 
L 114.740621 -371.778021 
L 108.916159 -373.893227 
L 103.091698 -355.194799 
L 97.267237 -325.581903 
z
" style="stroke: #ffffff; stroke-opacity: 0.2"/>
    </defs>
    <g clip-path="url(#pc7b7887de2)">
     <use xlink:href="#m09e03a2e90" x="0" y="576" style="fill: #dd8452; fill-opacity: 0.2; stroke: #ffffff; stroke-opacity: 0.2"/>
    </g>
   </g>
   <g id="PolyCollection_3">
    <defs>
     <path id="ma46a328679" d="M 97.267237 -325.412687 
L 97.267237 -278.201271 
L 103.091698 -294.107626 
L 108.916159 -295.122925 
L 114.740621 -296.053616 
L 120.565082 -295.969008 
L 126.389544 -297.576565 
L 132.214005 -294.615276 
L 138.038467 -299.522555 
L 143.862928 -301.468546 
L 149.687389 -304.345227 
L 155.511851 -304.006794 
L 161.336312 -324.566604 
L 167.160774 -326.427986 
L 172.985235 -331.673699 
L 178.809696 -331.673699 
L 184.634158 -333.873514 
L 190.458619 -333.873514 
L 196.283081 -338.442361 
L 202.107542 -342.926599 
L 207.932003 -335.227247 
L 213.756465 -326.597203 
L 219.580926 -334.634989 
L 225.405388 -341.065217 
L 231.229849 -348.510746 
L 237.05431 -348.595354 
L 242.878772 -344.111115 
L 248.703233 -338.273144 
L 254.527695 -329.727709 
L 260.352156 -347.157013 
L 266.176617 -345.126415 
L 272.001079 -341.572867 
L 277.82554 -344.87259 
L 283.650002 -344.87259 
L 289.474463 -344.36494 
L 295.298925 -346.987797 
L 301.123386 -317.713334 
L 306.947847 -332.435174 
L 312.772309 -346.81858 
L 318.59677 -335.650288 
L 324.421232 -336.411762 
L 330.245693 -333.788906 
L 336.070154 -334.888814 
L 341.894616 -334.211947 
L 347.719077 -328.966234 
L 353.543539 -332.435174 
L 359.368 -331.927524 
L 365.192461 -339.626877 
L 371.016923 -337.765495 
L 376.841384 -339.119227 
L 382.665846 -338.442361 
L 388.490307 -85.2098 
L 394.314768 -100.608505 
L 400.13923 -112.369055 
L 405.963691 -113.553571 
L 411.788153 -115.161128 
L 417.612614 -114.315046 
L 423.437076 -114.653479 
L 429.261537 -113.045921 
L 435.085998 -114.56887 
L 440.91046 -113.892004 
L 446.734921 -114.738087 
L 452.559383 -113.13053 
L 458.383844 -111.353756 
L 464.208305 -107.038734 
L 470.032767 -109.746199 
L 475.857228 -113.553571 
L 481.68169 -114.822695 
L 487.506151 -117.783985 
L 493.330612 -119.645367 
L 499.155074 -128.78306 
L 504.979535 -131.321308 
L 510.803997 -128.952277 
L 516.628458 -130.475226 
L 522.452919 -129.79836 
L 528.277381 -133.013474 
L 534.101842 -138.59762 
L 539.926304 -150.104345 
L 545.750765 -146.720014 
L 551.575226 -130.221401 
L 557.399688 -129.882968 
L 563.224149 -132.421216 
L 569.048611 -132.251999 
L 574.873072 -132.505824 
L 580.697534 -132.421216 
L 586.521995 -129.882968 
L 592.346456 -128.444627 
L 598.170918 -128.444627 
L 603.995379 -128.444627 
L 609.819841 -128.275411 
L 615.644302 -120.068408 
L 621.468763 -120.237625 
L 627.293225 -123.621956 
L 633.117686 -118.03781 
L 638.942148 -113.13053 
L 644.766609 -112.11523 
L 650.59107 -112.11523 
L 656.415532 -112.876705 
L 662.239993 -110.000024 
L 668.064455 -110.000024 
L 673.888916 -118.460851 
L 673.888916 -251.803489 
L 673.888916 -251.803489 
L 668.064455 -245.965519 
L 662.239993 -234.966443 
L 656.415532 -235.051051 
L 650.59107 -228.620823 
L 644.766609 -232.089762 
L 638.942148 -233.274278 
L 633.117686 -237.08165 
L 627.293225 -240.042939 
L 621.468763 -240.97363 
L 615.644302 -242.242755 
L 609.819841 -239.704506 
L 603.995379 -240.042939 
L 598.170918 -243.088837 
L 592.346456 -240.635197 
L 586.521995 -258.572151 
L 580.697534 -254.087913 
L 574.873072 -263.310215 
L 569.048611 -257.810677 
L 563.224149 -247.573076 
L 557.399688 -239.789115 
L 551.575226 -237.420083 
L 545.750765 -221.513728 
L 539.926304 -213.645158 
L 534.101842 -209.753178 
L 528.277381 -206.876496 
L 522.452919 -209.753178 
L 516.628458 -212.206818 
L 510.803997 -214.745066 
L 504.979535 -221.006078 
L 499.155074 -224.221192 
L 493.330612 -233.866535 
L 487.506151 -229.72073 
L 481.68169 -225.3211 
L 475.857228 -224.728842 
L 470.032767 -218.890871 
L 464.208305 -223.628934 
L 458.383844 -223.37511 
L 452.559383 -232.597411 
L 446.734921 -218.890871 
L 440.91046 -205.015114 
L 435.085998 -193.00074 
L 429.261537 -194.692905 
L 423.437076 -180.055674 
L 417.612614 -177.855859 
L 411.788153 -163.472452 
L 405.963691 -163.895494 
L 400.13923 -155.603883 
L 394.314768 -146.889231 
L 388.490307 -135.382506 
L 382.665846 -472.208041 
L 376.841384 -468.569885 
L 371.016923 -462.055048 
L 365.192461 -471.531175 
L 359.368 -441.495238 
L 353.543539 -458.839934 
L 347.719077 -481.684167 
L 341.894616 -477.115321 
L 336.070154 -479.061311 
L 330.245693 -471.954216 
L 324.421232 -464.762513 
L 318.59677 -459.601408 
L 312.772309 -444.202702 
L 306.947847 -436.926391 
L 301.123386 -439.041598 
L 295.298925 -433.372843 
L 289.474463 -433.795885 
L 283.650002 -428.550172 
L 277.82554 -430.919203 
L 272.001079 -433.54206 
L 266.176617 -430.919203 
L 260.352156 -429.734688 
L 254.527695 -441.918279 
L 248.703233 -445.133393 
L 242.878772 -460.870532 
L 237.05431 -461.46279 
L 231.229849 -463.662605 
L 225.405388 -455.286386 
L 219.580926 -435.657267 
L 213.756465 -413.066858 
L 207.932003 -422.373768 
L 202.107542 -424.065933 
L 196.283081 -430.411554 
L 190.458619 -430.496162 
L 184.634158 -430.58077 
L 178.809696 -428.973213 
L 172.985235 -430.157729 
L 167.160774 -428.803997 
L 161.336312 -424.488975 
L 155.511851 -415.943539 
L 149.687389 -413.236074 
L 143.862928 -409.344094 
L 138.038467 -398.852668 
L 132.214005 -390.476449 
L 126.389544 -383.792395 
L 120.565082 -380.492673 
L 114.740621 -379.985023 
L 108.916159 -379.731198 
L 103.091698 -358.240697 
L 97.267237 -325.412687 
z
" style="stroke: #ffffff; stroke-opacity: 0.2"/>
    </defs>
    <g clip-path="url(#pc7b7887de2)">
     <use xlink:href="#ma46a328679" x="0" y="576" style="fill: #55a868; fill-opacity: 0.2; stroke: #ffffff; stroke-opacity: 0.2"/>
    </g>
   </g>
   <g id="line2d_13">
    <path d="M 97.267237 282.780761 
L 103.091698 255.198464 
L 108.916159 244.876255 
L 114.740621 230.958194 
L 120.565082 225.754785 
L 126.389544 225.754785 
L 132.214005 220.509072 
L 138.038467 216.7017 
L 143.862928 214.121147 
L 149.687389 210.525296 
L 155.511851 215.136447 
L 161.336312 207.944743 
L 167.160774 200.456911 
L 172.985235 199.145483 
L 178.809696 204.264284 
L 184.634158 193.561337 
L 190.458619 194.40742 
L 196.283081 188.315624 
L 202.107542 191.44613 
L 207.932003 187.977191 
L 213.756465 189.330923 
L 219.580926 181.377746 
L 225.405388 178.035719 
L 231.229849 176.681987 
L 237.05431 178.162631 
L 242.878772 179.981709 
L 248.703233 180.362446 
L 254.527695 178.543369 
L 260.352156 180.997008 
L 266.176617 181.166225 
L 272.001079 179.008714 
L 277.82554 171.647794 
L 283.650002 175.328254 
L 289.474463 167.671205 
L 295.298925 168.94033 
L 301.123386 169.321067 
L 306.947847 171.267057 
L 312.772309 167.417381 
L 318.59677 166.317473 
L 324.421232 169.574892 
L 330.245693 160.098765 
L 336.070154 166.359777 
L 341.894616 170.632495 
L 347.719077 166.740514 
L 353.543539 174.989821 
L 359.368 175.666687 
L 365.192461 178.797193 
L 371.016923 177.274244 
L 376.841384 177.570373 
L 382.665846 171.690098 
L 388.490307 457.496845 
L 394.314768 448.739889 
L 400.13923 445.101733 
L 405.963691 440.659799 
L 411.788153 434.314178 
L 417.612614 428.010862 
L 423.437076 427.799341 
L 429.261537 424.372706 
L 435.085998 421.792154 
L 440.91046 418.407823 
L 446.734921 414.473538 
L 452.559383 412.442939 
L 458.383844 411.089207 
L 464.208305 400.640085 
L 470.032767 399.244049 
L 475.857228 393.490686 
L 481.68169 389.387185 
L 487.506151 384.310689 
L 493.330612 381.687832 
L 499.155074 384.056864 
L 504.979535 376.695944 
L 510.803997 373.438526 
L 516.628458 372.338618 
L 522.452919 365.104611 
L 528.277381 364.554657 
L 534.101842 361.381847 
L 539.926304 361.889496 
L 545.750765 363.116316 
L 551.575226 364.470049 
L 557.399688 359.858898 
L 563.224149 353.597886 
L 569.048611 357.151433 
L 574.873072 364.808482 
L 580.697534 366.712168 
L 586.521995 367.642859 
L 592.346456 377.584331 
L 598.170918 376.865161 
L 603.995379 377.668939 
L 609.819841 377.711243 
L 615.644302 375.807557 
L 621.468763 377.415114 
L 627.293225 376.019078 
L 633.117686 375.722949 
L 638.942148 378.303501 
L 644.766609 371.661752 
L 650.59107 369.335024 
L 656.415532 367.896684 
L 662.239993 373.903871 
L 668.064455 372.46553 
L 673.888916 371.957881 
" clip-path="url(#pc7b7887de2)" style="fill: none; stroke: #4c72b0; stroke-width: 2; stroke-linecap: round"/>
   </g>
   <g id="line2d_14">
    <path d="M 97.267237 266.91671 
L 103.091698 242.422615 
L 108.916159 236.415427 
L 114.740621 229.18142 
L 120.565082 220.889809 
L 126.389544 216.955524 
L 132.214005 217.716999 
L 138.038467 211.79442 
L 143.862928 211.371378 
L 149.687389 206.633315 
L 155.511851 199.018571 
L 161.336312 196.776451 
L 167.160774 193.730554 
L 172.985235 193.095991 
L 178.809696 190.72696 
L 184.634158 193.942074 
L 190.458619 189.753965 
L 196.283081 181.716179 
L 202.107542 177.358853 
L 207.932003 177.062724 
L 213.756465 176.681987 
L 219.580926 179.939405 
L 225.405388 179.051018 
L 231.229849 176.216641 
L 237.05431 181.293137 
L 242.878772 178.881802 
L 248.703233 169.405675 
L 254.527695 169.067242 
L 260.352156 174.524476 
L 266.176617 169.363371 
L 272.001079 169.236458 
L 277.82554 170.590191 
L 283.650002 169.6595 
L 289.474463 170.970928 
L 295.298925 174.862909 
L 301.123386 171.393969 
L 306.947847 168.348072 
L 312.772309 172.32466 
L 318.59677 169.6595 
L 324.421232 170.547887 
L 330.245693 176.681987 
L 336.070154 171.478578 
L 341.894616 170.082541 
L 347.719077 174.143738 
L 353.543539 168.390376 
L 359.368 171.943923 
L 365.192461 168.644201 
L 371.016923 171.140145 
L 376.841384 173.001527 
L 382.665846 170.040237 
L 388.490307 460.754263 
L 394.314768 454.027906 
L 400.13923 450.093621 
L 405.963691 446.878507 
L 411.788153 441.844314 
L 417.612614 440.025237 
L 423.437076 433.806528 
L 429.261537 431.606713 
L 435.085998 426.403305 
L 440.91046 424.499618 
L 446.734921 421.157592 
L 452.559383 417.350219 
L 458.383844 412.273723 
L 464.208305 407.74718 
L 470.032767 403.093725 
L 475.857228 398.101837 
L 481.68169 394.209857 
L 487.506151 390.910134 
L 493.330612 388.456494 
L 499.155074 388.075757 
L 504.979535 385.029859 
L 510.803997 388.752623 
L 516.628458 390.783222 
L 522.452919 392.729212 
L 528.277381 393.406078 
L 534.101842 394.971331 
L 539.926304 398.101837 
L 545.750765 403.728287 
L 551.575226 399.836307 
L 557.399688 392.729212 
L 563.224149 388.41419 
L 569.048611 387.779628 
L 574.873072 390.064051 
L 580.697534 391.037046 
L 586.521995 391.544696 
L 592.346456 387.060458 
L 598.170918 382.703131 
L 603.995379 381.857049 
L 609.819841 383.422302 
L 615.644302 385.96055 
L 621.468763 389.217969 
L 627.293225 384.691426 
L 633.117686 383.337694 
L 638.942148 383.50691 
L 644.766609 386.045158 
L 650.59107 385.791333 
L 656.415532 382.068569 
L 662.239993 384.395297 
L 668.064455 383.168477 
L 673.888916 378.557326 
" clip-path="url(#pc7b7887de2)" style="fill: none; stroke: #dd8452; stroke-width: 2; stroke-linecap: round"/>
   </g>
   <g id="line2d_15">
    <path d="M 97.267237 270.512561 
L 103.091698 256.256067 
L 108.916159 245.933858 
L 114.740621 241.745749 
L 120.565082 232.904184 
L 126.389544 226.347043 
L 132.214005 230.492848 
L 138.038467 220.59368 
L 143.862928 213.528889 
L 149.687389 219.662989 
L 155.511851 208.748522 
L 161.336312 207.098661 
L 167.160774 201.937556 
L 172.985235 203.629721 
L 178.809696 199.399308 
L 184.634158 202.783639 
L 190.458619 194.280507 
L 196.283081 187.934887 
L 202.107542 191.361522 
L 207.932003 193.688249 
L 213.756465 191.699955 
L 219.580926 194.068987 
L 225.405388 190.684656 
L 231.229849 189.880877 
L 237.05431 190.346223 
L 242.878772 190.21931 
L 248.703233 192.757558 
L 254.527695 194.957373 
L 260.352156 198.2994 
L 266.176617 200.414607 
L 272.001079 197.664838 
L 277.82554 199.399308 
L 283.650002 199.568524 
L 289.474463 187.723366 
L 295.298925 184.635164 
L 301.123386 180.489359 
L 306.947847 183.831386 
L 312.772309 181.673875 
L 318.59677 181.335442 
L 324.421232 180.743184 
L 330.245693 191.996084 
L 336.070154 188.950186 
L 341.894616 190.896176 
L 347.719077 186.623459 
L 353.543539 177.316549 
L 359.368 181.377746 
L 365.192461 175.201342 
L 371.016923 178.501064 
L 376.841384 176.766595 
L 382.665846 177.147332 
L 388.490307 462.488733 
L 394.314768 453.393344 
L 400.13923 446.328553 
L 405.963691 439.982932 
L 411.788153 440.109845 
L 417.612614 437.444684 
L 423.437076 436.387081 
L 429.261537 433.045054 
L 435.085998 427.418604 
L 440.91046 426.14948 
L 446.734921 422.595932 
L 452.559383 415.954183 
L 458.383844 408.974 
L 464.208305 409.312433 
L 470.032767 407.704876 
L 475.857228 407.408747 
L 481.68169 404.870499 
L 487.506151 403.685983 
L 493.330612 402.247643 
L 499.155074 403.220638 
L 504.979535 407.197227 
L 510.803997 398.313358 
L 516.628458 395.182852 
L 522.452919 392.30617 
L 528.277381 401.443864 
L 534.101842 397.636492 
L 539.926304 394.336769 
L 545.750765 390.36018 
L 551.575226 399.709394 
L 557.399688 395.859718 
L 563.224149 395.394372 
L 569.048611 394.971331 
L 574.873072 394.590594 
L 580.697534 398.694095 
L 586.521995 396.790409 
L 592.346456 391.671608 
L 598.170918 394.125248 
L 603.995379 395.26746 
L 609.819841 395.436677 
L 615.644302 389.514097 
L 621.468763 393.194557 
L 627.293225 395.902022 
L 633.117686 392.179258 
L 638.942148 391.883129 
L 644.766609 390.656309 
L 650.59107 383.337694 
L 656.415532 383.337694 
L 662.239993 387.821932 
L 668.064455 391.840825 
L 673.888916 393.617599 
" clip-path="url(#pc7b7887de2)" style="fill: none; stroke: #55a868; stroke-width: 2; stroke-linecap: round"/>
   </g>
   <g id="patch_3">
    <path d="M 68.436153 513.338305 
L 68.436153 17.28 
" style="fill: none; stroke: #cccccc; stroke-width: 1.25; stroke-linejoin: miter; stroke-linecap: square"/>
   </g>
   <g id="patch_4">
    <path d="M 702.72 513.338305 
L 702.72 17.28 
" style="fill: none; stroke: #cccccc; stroke-width: 1.25; stroke-linejoin: miter; stroke-linecap: square"/>
   </g>
   <g id="patch_5">
    <path d="M 68.436153 513.338305 
L 702.72 513.338305 
" style="fill: none; stroke: #cccccc; stroke-width: 1.25; stroke-linejoin: miter; stroke-linecap: square"/>
   </g>
   <g id="patch_6">
    <path d="M 68.436153 17.28 
L 702.72 17.28 
" style="fill: none; stroke: #cccccc; stroke-width: 1.25; stroke-linejoin: miter; stroke-linecap: square"/>
   </g>
   <g id="legend_1">
    <g id="patch_7">
     <path d="M 601.469604 148.162063 
L 688.72 148.162063 
Q 692.72 148.162063 692.72 144.162063 
L 692.72 31.28 
Q 692.72 27.28 688.72 27.28 
L 601.469604 27.28 
Q 597.469604 27.28 597.469604 31.28 
L 597.469604 144.162063 
Q 597.469604 148.162063 601.469604 148.162063 
z
" style="fill: #ffffff; opacity: 0.8; stroke: #cccccc; stroke-linejoin: miter"/>
    </g>
    <g id="text_15">
     <!-- $\theta_{\mathrm{min}}$ -->
     <g style="fill: #262626" transform="translate(625.982718 51.884405) scale(0.24 -0.24)">
      <defs>
       <path id="CMMI12-12" d="M 2835 3200 
C 2835 3850 2630 4480 2106 4480 
C 1210 4480 256 2615 256 1216 
C 256 923 320 -64 992 -64 
C 1862 -64 2835 1756 2835 3200 
z
M 896 2304 
C 992 2679 1126 3214 1382 3665 
C 1594 4047 1818 4352 2099 4352 
C 2310 4352 2451 4174 2451 3564 
C 2451 3334 2432 3017 2246 2304 
L 896 2304 
z
M 2202 2113 
C 2042 1490 1907 1088 1677 687 
C 1491 363 1267 64 998 64 
C 800 64 640 217 640 846 
C 640 1260 742 1693 845 2113 
L 2202 2113 
z
" transform="scale(0.015625)"/>
       <path id="CMR17-6d" d="M 4326 1933 
C 4326 2252 4269 2790 3507 2790 
C 3072 2790 2771 2496 2656 2151 
L 2650 2151 
C 2573 2676 2195 2790 1837 2790 
C 1331 2790 1069 2400 973 2144 
L 966 2144 
L 966 2790 
L 211 2720 
L 211 2554 
C 589 2554 646 2515 646 2208 
L 646 428 
C 646 184 621 153 211 153 
L 211 -13 
C 365 0 646 0 813 0 
C 979 0 1267 0 1421 -13 
L 1421 153 
C 1011 153 986 178 986 428 
L 986 1658 
C 986 2247 1344 2688 1792 2688 
C 2266 2688 2317 2266 2317 1958 
L 2317 428 
C 2317 184 2291 153 1882 153 
L 1882 -13 
C 2035 0 2317 0 2483 0 
C 2650 0 2938 0 3091 -13 
L 3091 153 
C 2682 153 2656 178 2656 428 
L 2656 1658 
C 2656 2247 3014 2688 3462 2688 
C 3936 2688 3987 2266 3987 1958 
L 3987 428 
C 3987 184 3962 153 3552 153 
L 3552 -13 
C 3706 0 3987 0 4154 0 
C 4320 0 4608 0 4762 -13 
L 4762 153 
C 4352 153 4326 178 4326 428 
L 4326 1933 
z
" transform="scale(0.015625)"/>
       <path id="CMR17-69" d="M 992 3909 
C 992 4049 877 4170 730 4170 
C 589 4170 467 4056 467 3909 
C 467 3769 582 3648 730 3648 
C 870 3648 992 3763 992 3909 
z
M 243 2706 
L 243 2541 
C 602 2541 653 2502 653 2197 
L 653 427 
C 653 184 627 153 218 153 
L 218 -13 
C 371 0 646 0 806 0 
C 960 0 1222 0 1370 -13 
L 1370 153 
C 992 153 979 191 979 420 
L 979 2776 
L 243 2706 
z
" transform="scale(0.015625)"/>
       <path id="CMR17-6e" d="M 2656 1933 
C 2656 2259 2592 2790 1837 2790 
C 1331 2790 1069 2400 973 2144 
L 966 2144 
L 966 2790 
L 211 2720 
L 211 2554 
C 589 2554 646 2515 646 2208 
L 646 428 
C 646 184 621 153 211 153 
L 211 -13 
C 365 0 646 0 813 0 
C 979 0 1267 0 1421 -13 
L 1421 153 
C 1011 153 986 178 986 428 
L 986 1658 
C 986 2247 1344 2688 1792 2688 
C 2266 2688 2317 2266 2317 1958 
L 2317 428 
C 2317 184 2291 153 1882 153 
L 1882 -13 
C 2035 0 2317 0 2483 0 
C 2650 0 2938 0 3091 -13 
L 3091 153 
C 2682 153 2656 178 2656 428 
L 2656 1933 
z
" transform="scale(0.015625)"/>
      </defs>
      <use xlink:href="#CMMI12-12" transform="scale(0.996264)"/>
      <use xlink:href="#CMR17-6d" transform="translate(45.45979 -14.943915) scale(0.697382)"/>
      <use xlink:href="#CMR17-69" transform="translate(99.303257 -14.943915) scale(0.697382)"/>
      <use xlink:href="#CMR17-6e" transform="translate(116.712916 -14.943915) scale(0.697382)"/>
     </g>
    </g>
    <g id="line2d_16">
     <path d="M 605.469604 73.535163 
L 625.469604 73.535163 
L 645.469604 73.535163 
" style="fill: none; stroke: #4c72b0; stroke-width: 2; stroke-linecap: round"/>
    </g>
    <g id="text_16">
     <!-- 0.1 -->
     <g style="fill: #262626" transform="translate(661.469604 80.535163) scale(0.2 -0.2)">
      <defs>
       <path id="CMR17-2e" d="M 1062 261 
C 1062 420 934 522 800 522 
C 672 522 538 420 538 261 
C 538 102 666 0 800 0 
C 928 0 1062 102 1062 261 
z
" transform="scale(0.015625)"/>
      </defs>
      <use xlink:href="#CMR17-30" transform="scale(0.996264)"/>
      <use xlink:href="#CMR17-2e" transform="translate(45.690477 0) scale(0.996264)"/>
      <use xlink:href="#CMR17-31" transform="translate(70.561536 0) scale(0.996264)"/>
     </g>
    </g>
    <g id="line2d_17">
     <path d="M 605.469604 101.410796 
L 625.469604 101.410796 
L 645.469604 101.410796 
" style="fill: none; stroke: #dd8452; stroke-width: 2; stroke-linecap: round"/>
    </g>
    <g id="text_17">
     <!-- 0.2 -->
     <g style="fill: #262626" transform="translate(661.469604 108.410796) scale(0.2 -0.2)">
      <use xlink:href="#CMR17-30" transform="scale(0.996264)"/>
      <use xlink:href="#CMR17-2e" transform="translate(45.690477 0) scale(0.996264)"/>
      <use xlink:href="#CMR17-32" transform="translate(70.561536 0) scale(0.996264)"/>
     </g>
    </g>
    <g id="line2d_18">
     <path d="M 605.469604 129.28643 
L 625.469604 129.28643 
L 645.469604 129.28643 
" style="fill: none; stroke: #55a868; stroke-width: 2; stroke-linecap: round"/>
    </g>
    <g id="text_18">
     <!-- 0.3 -->
     <g style="fill: #262626" transform="translate(661.469604 136.28643) scale(0.2 -0.2)">
      <use xlink:href="#CMR17-30" transform="scale(0.996264)"/>
      <use xlink:href="#CMR17-2e" transform="translate(45.690477 0) scale(0.996264)"/>
      <use xlink:href="#CMR17-33" transform="translate(70.561536 0) scale(0.996264)"/>
     </g>
    </g>
   </g>
  </g>
 </g>
 <defs>
  <clipPath id="pc7b7887de2">
   <rect x="68.436153" y="17.28" width="634.283847" height="496.058305"/>
  </clipPath>
 </defs>
</svg>
