<?xml version="1.0" encoding="utf-8" standalone="no"?>
<!DOCTYPE svg PUBLIC "-//W3C//DTD SVG 1.1//EN"
  "http://www.w3.org/Graphics/SVG/1.1/DTD/svg11.dtd">
<svg xmlns:xlink="http://www.w3.org/1999/xlink" width="720pt" height="576pt" viewBox="0 0 720 576" xmlns="http://www.w3.org/2000/svg" version="1.1">
 <metadata>
  <rdf:RDF xmlns:dc="http://purl.org/dc/elements/1.1/" xmlns:cc="http://creativecommons.org/ns#" xmlns:rdf="http://www.w3.org/1999/02/22-rdf-syntax-ns#">
   <cc:Work>
    <dc:type rdf:resource="http://purl.org/dc/dcmitype/StillImage"/>
    <dc:date>2025-04-24T19:33:22.535551</dc:date>
    <dc:format>image/svg+xml</dc:format>
    <dc:creator>
     <cc:Agent>
      <dc:title>Matplotlib v3.9.2, https://matplotlib.org/</dc:title>
     </cc:Agent>
    </dc:creator>
   </cc:Work>
  </rdf:RDF>
 </metadata>
 <defs>
  <style type="text/css">*{stroke-linejoin: round; stroke-linecap: butt}</style>
 </defs>
 <g id="figure_1">
  <g id="patch_1">
   <path d="M 0 576 
L 720 576 
L 720 0 
L 0 0 
z
" style="fill: #ffffff"/>
  </g>
  <g id="axes_1">
   <g id="patch_2">
    <path d="M 83.392615 495.840956 
L 694.08 495.840956 
L 694.08 49.831226 
L 83.392615 49.831226 
z
" style="fill: #ffffff"/>
   </g>
   <g id="matplotlib.axis_1">
    <g id="xtick_1">
     <g id="line2d_1">
      <path d="M 111.151132 495.840956 
L 111.151132 49.831226 
" clip-path="url(#p82f66ff6a8)" style="fill: none; stroke: #cccccc; stroke-linecap: round"/>
     </g>
     <g id="text_1">
      <!-- $\mathdefault{0}$ -->
      <g style="fill: #262626" transform="translate(106.12518 520.56165) scale(0.22 -0.22)">
       <defs>
        <path id="CMR17-30" d="M 2688 2025 
C 2688 2416 2682 3080 2413 3591 
C 2176 4039 1798 4198 1466 4198 
C 1158 4198 768 4058 525 3597 
C 269 3118 243 2524 243 2025 
C 243 1661 250 1106 448 619 
C 723 -39 1216 -128 1466 -128 
C 1760 -128 2208 -7 2470 600 
C 2662 1042 2688 1559 2688 2025 
z
M 1466 -26 
C 1056 -26 813 325 723 812 
C 653 1188 653 1738 653 2096 
C 653 2588 653 2997 736 3387 
C 858 3929 1216 4096 1466 4096 
C 1728 4096 2067 3923 2189 3400 
C 2272 3036 2278 2607 2278 2096 
C 2278 1680 2278 1169 2202 792 
C 2067 95 1690 -26 1466 -26 
z
" transform="scale(0.015625)"/>
       </defs>
       <use xlink:href="#CMR17-30" transform="scale(0.996264)"/>
      </g>
     </g>
    </g>
    <g id="xtick_2">
     <g id="line2d_2">
      <path d="M 223.306759 495.840956 
L 223.306759 49.831226 
" clip-path="url(#p82f66ff6a8)" style="fill: none; stroke: #cccccc; stroke-linecap: round"/>
     </g>
     <g id="text_2">
      <!-- $\mathdefault{200}$ -->
      <g style="fill: #262626" transform="translate(208.228901 520.56165) scale(0.22 -0.22)">
       <defs>
        <path id="CMR17-32" d="M 2669 989 
L 2554 989 
C 2490 536 2438 459 2413 420 
C 2381 369 1920 369 1830 369 
L 602 369 
C 832 619 1280 1072 1824 1597 
C 2214 1967 2669 2402 2669 3035 
C 2669 3790 2067 4224 1395 4224 
C 691 4224 262 3604 262 3030 
C 262 2780 448 2748 525 2748 
C 589 2748 781 2787 781 3010 
C 781 3207 614 3264 525 3264 
C 486 3264 448 3258 422 3245 
C 544 3790 915 4058 1306 4058 
C 1862 4058 2227 3617 2227 3035 
C 2227 2479 1901 2000 1536 1584 
L 262 146 
L 262 0 
L 2515 0 
L 2669 989 
z
" transform="scale(0.015625)"/>
       </defs>
       <use xlink:href="#CMR17-32" transform="scale(0.996264)"/>
       <use xlink:href="#CMR17-30" transform="translate(45.690477 0) scale(0.996264)"/>
       <use xlink:href="#CMR17-30" transform="translate(91.380954 0) scale(0.996264)"/>
      </g>
     </g>
    </g>
    <g id="xtick_3">
     <g id="line2d_3">
      <path d="M 335.462385 495.840956 
L 335.462385 49.831226 
" clip-path="url(#p82f66ff6a8)" style="fill: none; stroke: #cccccc; stroke-linecap: round"/>
     </g>
     <g id="text_3">
      <!-- $\mathdefault{400}$ -->
      <g style="fill: #262626" transform="translate(320.384528 520.56165) scale(0.22 -0.22)">
       <defs>
        <path id="CMR17-34" d="M 2150 4122 
C 2150 4256 2144 4256 2029 4256 
L 128 1254 
L 128 1088 
L 1779 1088 
L 1779 457 
C 1779 224 1766 160 1318 160 
L 1197 160 
L 1197 0 
C 1402 0 1747 0 1965 0 
C 2182 0 2528 0 2733 0 
L 2733 160 
L 2611 160 
C 2163 160 2150 224 2150 457 
L 2150 1088 
L 2803 1088 
L 2803 1254 
L 2150 1254 
L 2150 4122 
z
M 1798 3703 
L 1798 1254 
L 256 1254 
L 1798 3703 
z
" transform="scale(0.015625)"/>
       </defs>
       <use xlink:href="#CMR17-34" transform="scale(0.996264)"/>
       <use xlink:href="#CMR17-30" transform="translate(45.690477 0) scale(0.996264)"/>
       <use xlink:href="#CMR17-30" transform="translate(91.380954 0) scale(0.996264)"/>
      </g>
     </g>
    </g>
    <g id="xtick_4">
     <g id="line2d_4">
      <path d="M 447.618011 495.840956 
L 447.618011 49.831226 
" clip-path="url(#p82f66ff6a8)" style="fill: none; stroke: #cccccc; stroke-linecap: round"/>
     </g>
     <g id="text_4">
      <!-- $\mathdefault{600}$ -->
      <g style="fill: #262626" transform="translate(432.540154 520.56165) scale(0.22 -0.22)">
       <defs>
        <path id="CMR17-36" d="M 678 2176 
C 678 3690 1395 4032 1811 4032 
C 1946 4032 2272 4009 2400 3776 
C 2298 3776 2106 3776 2106 3553 
C 2106 3381 2246 3323 2336 3323 
C 2394 3323 2566 3348 2566 3560 
C 2566 3954 2246 4179 1805 4179 
C 1043 4179 243 3390 243 1984 
C 243 253 966 -128 1478 -128 
C 2099 -128 2688 427 2688 1283 
C 2688 2081 2170 2662 1517 2662 
C 1126 2662 838 2407 678 1960 
L 678 2176 
z
M 1478 25 
C 691 25 691 1200 691 1436 
C 691 1896 909 2560 1504 2560 
C 1613 2560 1926 2560 2138 2120 
C 2253 1870 2253 1609 2253 1289 
C 2253 944 2253 690 2118 434 
C 1978 171 1773 25 1478 25 
z
" transform="scale(0.015625)"/>
       </defs>
       <use xlink:href="#CMR17-36" transform="scale(0.996264)"/>
       <use xlink:href="#CMR17-30" transform="translate(45.690477 0) scale(0.996264)"/>
       <use xlink:href="#CMR17-30" transform="translate(91.380954 0) scale(0.996264)"/>
      </g>
     </g>
    </g>
    <g id="xtick_5">
     <g id="line2d_5">
      <path d="M 559.773638 495.840956 
L 559.773638 49.831226 
" clip-path="url(#p82f66ff6a8)" style="fill: none; stroke: #cccccc; stroke-linecap: round"/>
     </g>
     <g id="text_5">
      <!-- $\mathdefault{800}$ -->
      <g style="fill: #262626" transform="translate(544.69578 520.56165) scale(0.22 -0.22)">
       <defs>
        <path id="CMR17-38" d="M 1741 2264 
C 2144 2467 2554 2773 2554 3263 
C 2554 3841 1990 4179 1472 4179 
C 890 4179 378 3759 378 3180 
C 378 3021 416 2747 666 2505 
C 730 2442 998 2251 1171 2130 
C 883 1983 211 1634 211 934 
C 211 279 838 -128 1459 -128 
C 2144 -128 2720 362 2720 1010 
C 2720 1590 2330 1857 2074 2029 
L 1741 2264 
z
M 902 2822 
C 851 2854 595 3051 595 3351 
C 595 3739 998 4032 1459 4032 
C 1965 4032 2336 3676 2336 3262 
C 2336 2669 1670 2331 1638 2331 
C 1632 2331 1626 2331 1574 2370 
L 902 2822 
z
M 2080 1519 
C 2176 1449 2483 1240 2483 851 
C 2483 381 2010 25 1472 25 
C 890 25 448 438 448 940 
C 448 1443 838 1862 1280 2060 
L 2080 1519 
z
" transform="scale(0.015625)"/>
       </defs>
       <use xlink:href="#CMR17-38" transform="scale(0.996264)"/>
       <use xlink:href="#CMR17-30" transform="translate(45.690477 0) scale(0.996264)"/>
       <use xlink:href="#CMR17-30" transform="translate(91.380954 0) scale(0.996264)"/>
      </g>
     </g>
    </g>
    <g id="xtick_6">
     <g id="line2d_6">
      <path d="M 671.929264 495.840956 
L 671.929264 49.831226 
" clip-path="url(#p82f66ff6a8)" style="fill: none; stroke: #cccccc; stroke-linecap: round"/>
     </g>
     <g id="text_6">
      <!-- $\mathdefault{1000}$ -->
      <g style="fill: #262626" transform="translate(651.825454 520.56165) scale(0.22 -0.22)">
       <defs>
        <path id="CMR17-31" d="M 1702 4058 
C 1702 4192 1696 4192 1606 4192 
C 1357 3916 979 3827 621 3827 
C 602 3827 570 3827 563 3808 
C 557 3795 557 3782 557 3648 
C 755 3648 1088 3686 1344 3839 
L 1344 461 
C 1344 236 1331 160 781 160 
L 589 160 
L 589 0 
C 896 0 1216 0 1523 0 
C 1830 0 2150 0 2458 0 
L 2458 160 
L 2266 160 
C 1715 160 1702 230 1702 458 
L 1702 4058 
z
" transform="scale(0.015625)"/>
       </defs>
       <use xlink:href="#CMR17-31" transform="scale(0.996264)"/>
       <use xlink:href="#CMR17-30" transform="translate(45.690477 0) scale(0.996264)"/>
       <use xlink:href="#CMR17-30" transform="translate(91.380954 0) scale(0.996264)"/>
       <use xlink:href="#CMR17-30" transform="translate(137.071431 0) scale(0.996264)"/>
      </g>
     </g>
    </g>
    <g id="text_7">
     <!-- Step -->
     <g style="fill: #262626" transform="translate(367.649451 545.429243) scale(0.24 -0.24)">
      <defs>
       <path id="CMSS17-53" d="M 2797 4169 
C 2515 4334 2208 4480 1690 4480 
C 864 4480 333 3879 333 3266 
C 333 3025 403 2753 653 2475 
C 902 2196 1184 2121 1542 2033 
C 1690 1994 1939 1924 1984 1906 
C 2342 1767 2515 1444 2515 1140 
C 2515 742 2202 318 1645 318 
C 1453 318 890 318 358 819 
L 269 318 
C 794 -64 1363 -128 1651 -128 
C 2438 -128 3002 488 3002 1186 
C 3002 1440 2925 1763 2656 2061 
C 2394 2347 2163 2410 1638 2549 
C 1338 2626 1146 2677 986 2873 
C 877 3013 819 3146 819 3317 
C 819 3673 1126 4060 1690 4060 
C 1971 4060 2336 4002 2707 3660 
L 2797 4169 
z
" transform="scale(0.015625)"/>
       <path id="CMSS17-74" d="M 1069 2368 
L 1901 2368 
L 1901 2737 
L 1069 2737 
L 1069 3520 
L 614 3520 
L 614 2737 
L 109 2737 
L 109 2368 
L 602 2368 
L 602 749 
C 602 384 685 -64 1107 -64 
C 1427 -64 1722 25 2003 172 
L 1901 548 
C 1747 414 1562 337 1363 337 
C 1082 337 1069 696 1069 856 
L 1069 2368 
z
" transform="scale(0.015625)"/>
       <path id="CMSS17-65" d="M 2502 1377 
C 2502 1590 2490 2003 2285 2345 
C 2061 2713 1696 2816 1421 2816 
C 755 2816 192 2188 192 1375 
C 192 582 774 -64 1510 -64 
C 1798 -64 2150 19 2470 248 
C 2470 274 2458 414 2451 420 
C 2451 433 2432 630 2432 656 
C 2125 407 1773 325 1517 325 
C 1107 325 666 667 646 1377 
L 2502 1377 
z
M 698 1728 
C 781 2084 1062 2421 1421 2421 
C 1517 2421 1965 2421 2080 1728 
L 698 1728 
z
" transform="scale(0.015625)"/>
       <path id="CMSS17-70" d="M 966 333 
C 1178 129 1466 -5 1773 -5 
C 2368 -5 2880 603 2880 1412 
C 2880 2159 2496 2816 1946 2816 
C 1626 2816 1242 2702 954 2472 
L 954 2765 
L 480 2765 
L 480 -1216 
L 966 -1216 
L 966 333 
z
M 966 2100 
C 1018 2176 1235 2415 1587 2415 
C 2035 2415 2394 1960 2394 1412 
C 2394 787 1958 384 1530 384 
C 1402 384 1267 415 1139 523 
C 966 674 966 768 966 857 
L 966 2100 
z
" transform="scale(0.015625)"/>
      </defs>
      <use xlink:href="#CMSS17-53" transform="scale(0.996264)"/>
      <use xlink:href="#CMSS17-74" transform="translate(52.048516 0) scale(0.996264)"/>
      <use xlink:href="#CMSS17-65" transform="translate(85.880083 0) scale(0.996264)"/>
      <use xlink:href="#CMSS17-70" transform="translate(127.518905 0) scale(0.996264)"/>
     </g>
    </g>
   </g>
   <g id="matplotlib.axis_2">
    <g id="ytick_1">
     <g id="line2d_7">
      <path d="M 83.392615 488.801406 
L 694.08 488.801406 
" clip-path="url(#p82f66ff6a8)" style="fill: none; stroke: #cccccc; stroke-linecap: round"/>
     </g>
     <g id="text_8">
      <!-- $\mathdefault{0}$ -->
      <g style="fill: #262626" transform="translate(63.84071 496.411753) scale(0.22 -0.22)">
       <use xlink:href="#CMR17-30" transform="scale(0.996264)"/>
      </g>
     </g>
    </g>
    <g id="ytick_2">
     <g id="line2d_8">
      <path d="M 83.392615 396.901272 
L 694.08 396.901272 
" clip-path="url(#p82f66ff6a8)" style="fill: none; stroke: #cccccc; stroke-linecap: round"/>
     </g>
     <g id="text_9">
      <!-- $\mathdefault{5}$ -->
      <g style="fill: #262626" transform="translate(63.84071 404.511619) scale(0.22 -0.22)">
       <defs>
        <path id="CMR17-35" d="M 730 3692 
C 794 3666 1056 3584 1325 3584 
C 1920 3584 2246 3911 2432 4100 
C 2432 4157 2432 4192 2394 4192 
C 2387 4192 2374 4192 2323 4163 
C 2099 4058 1837 3973 1517 3973 
C 1325 3973 1037 3999 723 4139 
C 653 4171 640 4171 634 4171 
C 602 4171 595 4164 595 4037 
L 595 2203 
C 595 2089 595 2057 659 2057 
C 691 2057 704 2070 736 2114 
C 941 2401 1222 2522 1542 2522 
C 1766 2522 2246 2382 2246 1289 
C 2246 1085 2246 715 2054 421 
C 1894 159 1645 25 1370 25 
C 947 25 518 320 403 814 
C 429 807 480 795 506 795 
C 589 795 749 840 749 1038 
C 749 1210 627 1280 506 1280 
C 358 1280 262 1190 262 1011 
C 262 454 704 -128 1382 -128 
C 2042 -128 2669 440 2669 1264 
C 2669 2030 2170 2624 1549 2624 
C 1222 2624 947 2503 730 2274 
L 730 3692 
z
" transform="scale(0.015625)"/>
       </defs>
       <use xlink:href="#CMR17-35" transform="scale(0.996264)"/>
      </g>
     </g>
    </g>
    <g id="ytick_3">
     <g id="line2d_9">
      <path d="M 83.392615 305.001138 
L 694.08 305.001138 
" clip-path="url(#p82f66ff6a8)" style="fill: none; stroke: #cccccc; stroke-linecap: round"/>
     </g>
     <g id="text_10">
      <!-- $\mathdefault{10}$ -->
      <g style="fill: #262626" transform="translate(53.788805 312.611485) scale(0.22 -0.22)">
       <use xlink:href="#CMR17-31" transform="scale(0.996264)"/>
       <use xlink:href="#CMR17-30" transform="translate(45.690477 0) scale(0.996264)"/>
      </g>
     </g>
    </g>
    <g id="ytick_4">
     <g id="line2d_10">
      <path d="M 83.392615 213.101004 
L 694.08 213.101004 
" clip-path="url(#p82f66ff6a8)" style="fill: none; stroke: #cccccc; stroke-linecap: round"/>
     </g>
     <g id="text_11">
      <!-- $\mathdefault{15}$ -->
      <g style="fill: #262626" transform="translate(53.788805 220.711351) scale(0.22 -0.22)">
       <use xlink:href="#CMR17-31" transform="scale(0.996264)"/>
       <use xlink:href="#CMR17-35" transform="translate(45.690477 0) scale(0.996264)"/>
      </g>
     </g>
    </g>
    <g id="ytick_5">
     <g id="line2d_11">
      <path d="M 83.392615 121.20087 
L 694.08 121.20087 
" clip-path="url(#p82f66ff6a8)" style="fill: none; stroke: #cccccc; stroke-linecap: round"/>
     </g>
     <g id="text_12">
      <!-- $\mathdefault{20}$ -->
      <g style="fill: #262626" transform="translate(53.788805 128.811217) scale(0.22 -0.22)">
       <use xlink:href="#CMR17-32" transform="scale(0.996264)"/>
       <use xlink:href="#CMR17-30" transform="translate(45.690477 0) scale(0.996264)"/>
      </g>
     </g>
    </g>
    <g id="text_13">
     <!-- Percentage Explored (\%) -->
     <g style="fill: #262626" transform="translate(43.831226 390.204645) rotate(-90) scale(0.24 -0.24)">
      <defs>
       <path id="CMSS17-50" d="M 2106 1856 
C 2874 1856 3501 2453 3501 3158 
C 3501 3850 2899 4453 2067 4453 
L 570 4453 
L 570 0 
L 1107 0 
L 1107 1856 
L 2106 1856 
z
M 1926 4096 
C 2669 4096 2995 3627 2995 3157 
C 2995 2720 2694 2226 1926 2226 
L 1094 2226 
L 1094 4096 
L 1926 4096 
z
" transform="scale(0.015625)"/>
       <path id="CMSS17-72" d="M 954 1363 
C 954 1965 1395 2368 1958 2368 
L 1958 2789 
C 1549 2789 1165 2585 934 2253 
L 934 2758 
L 480 2758 
L 480 0 
L 954 0 
L 954 1363 
z
" transform="scale(0.015625)"/>
       <path id="CMSS17-63" d="M 2464 2541 
C 2464 2585 2170 2714 2093 2739 
C 1882 2816 1613 2816 1542 2816 
C 710 2816 211 2093 211 1363 
C 211 595 768 -64 1517 -64 
C 1946 -64 2253 76 2502 242 
L 2464 664 
C 2189 453 1869 337 1523 337 
C 1024 337 698 774 698 1369 
C 698 1831 909 2414 1549 2414 
C 1901 2414 2099 2343 2394 2145 
L 2464 2541 
z
" transform="scale(0.015625)"/>
       <path id="CMSS17-6e" d="M 2618 1877 
C 2618 2283 2522 2816 1798 2816 
C 1389 2816 1120 2606 941 2389 
L 941 2758 
L 474 2758 
L 474 0 
L 960 0 
L 960 1559 
C 960 1964 1114 2428 1549 2428 
C 2112 2428 2131 2048 2131 1829 
L 2131 0 
L 2618 0 
L 2618 1877 
z
" transform="scale(0.015625)"/>
       <path id="CMSS17-61" d="M 2406 1791 
C 2406 2392 1978 2808 1402 2808 
C 1120 2808 813 2757 461 2553 
L 499 2135 
C 659 2248 934 2432 1395 2432 
C 1722 2432 1920 2180 1920 1782 
L 1920 1536 
C 896 1536 256 1238 256 726 
C 256 461 416 -64 947 -64 
C 1043 -64 1562 -64 1933 217 
L 1933 -19 
L 2406 -19 
L 2406 1791 
z
M 1920 816 
C 1920 701 1920 548 1728 434 
C 1562 325 1350 325 1261 325 
C 941 325 723 511 723 744 
C 723 1211 1722 1211 1920 1211 
L 1920 816 
z
" transform="scale(0.015625)"/>
       <path id="CMSS17-67" d="M 2848 2808 
C 2483 2808 2170 2738 1914 2617 
C 1702 2777 1485 2808 1338 2808 
C 781 2808 358 2349 358 1814 
C 358 1468 550 1207 563 1195 
C 448 1035 384 863 384 672 
C 384 448 474 289 544 200 
C 211 -3 166 -314 166 -435 
C 166 -898 749 -1280 1498 -1280 
C 2253 -1280 2835 -898 2835 -428 
C 2835 448 1856 448 1587 448 
L 1069 448 
C 973 448 717 448 717 791 
C 717 921 774 1004 781 1010 
C 877 940 1075 832 1338 832 
C 1869 832 2310 1278 2310 1827 
C 2310 2132 2170 2355 2112 2432 
L 2131 2432 
C 2150 2432 2419 2432 2515 2432 
C 2720 2432 2739 2429 2918 2419 
L 2848 2808 
z
M 1338 1182 
C 1120 1182 813 1315 813 1823 
C 813 2375 1165 2464 1331 2464 
C 1549 2464 1856 2331 1856 1823 
C 1856 1271 1504 1182 1338 1182 
z
M 1581 -10 
C 1734 -10 2381 -10 2381 -442 
C 2381 -714 1984 -929 1504 -929 
C 1018 -929 621 -720 621 -435 
C 621 -403 621 -10 1062 -10 
L 1581 -10 
z
" transform="scale(0.015625)"/>
       <path id="CMSS17-45" d="M 1958 433 
C 1446 433 1216 433 1101 433 
L 1101 2107 
L 3085 2107 
L 3085 2496 
L 1101 2496 
L 1101 4009 
L 1926 4009 
C 2003 4009 2080 4009 2157 4009 
L 3251 4009 
L 3251 4416 
L 563 4416 
L 563 0 
L 3334 0 
L 3334 433 
L 1958 433 
z
" transform="scale(0.015625)"/>
       <path id="CMSS17-78" d="M 1587 1414 
L 2656 2739 
L 2099 2739 
L 1363 1777 
L 602 2739 
L 32 2739 
L 1139 1414 
L 0 0 
L 563 0 
L 1363 1121 
L 2195 0 
L 2758 0 
L 1587 1414 
z
" transform="scale(0.015625)"/>
       <path id="CMSS17-6c" d="M 947 4416 
L 474 4416 
L 474 0 
L 947 0 
L 947 4416 
z
" transform="scale(0.015625)"/>
       <path id="CMSS17-6f" d="M 2829 1356 
C 2829 2176 2221 2816 1504 2816 
C 768 2816 173 2157 173 1356 
C 173 544 787 -64 1498 -64 
C 2227 -64 2829 563 2829 1356 
z
M 1504 337 
C 1050 337 659 709 659 1408 
C 659 2151 1114 2427 1498 2427 
C 1914 2427 2342 2126 2342 1408 
C 2342 683 1926 337 1504 337 
z
" transform="scale(0.015625)"/>
       <path id="CMSS17-64" d="M 2611 4416 
L 2138 4416 
L 2138 2438 
C 1939 2603 1613 2756 1254 2756 
C 672 2756 211 2131 211 1347 
C 211 562 666 -64 1235 -64 
C 1677 -64 1971 172 2125 306 
L 2125 -13 
L 2611 -13 
L 2611 4416 
z
M 2125 836 
C 2125 747 2125 653 1926 482 
C 1798 375 1645 325 1498 325 
C 1152 325 698 576 698 1340 
C 698 2134 1210 2368 1562 2368 
C 1798 2368 1990 2254 2125 2065 
L 2125 836 
z
" transform="scale(0.015625)"/>
       <path id="CMSS17-28" d="M 1613 4768 
C 1267 4417 474 3601 474 1588 
C 474 -433 1267 -1243 1613 -1600 
L 2003 -1600 
C 1216 -784 960 357 960 1581 
C 960 2798 1203 3946 2003 4768 
L 1613 4768 
z
" transform="scale(0.015625)"/>
       <path id="CMSS17-25" d="M 3923 4583 
C 3962 4647 3962 4679 3962 4685 
C 3962 4755 3904 4800 3853 4800 
C 3782 4800 3750 4749 3718 4685 
L 1101 -104 
C 1088 -129 1062 -167 1062 -206 
C 1062 -276 1120 -320 1178 -320 
C 1235 -320 1248 -295 1299 -206 
L 3923 4583 
z
M 4678 959 
C 4678 1698 4282 2240 3846 2240 
C 3418 2240 3008 1711 3008 959 
C 3008 208 3418 -320 3846 -320 
C 4288 -320 4678 221 4678 959 
z
M 3846 68 
C 3712 68 3494 189 3494 959 
C 3494 1724 3712 1851 3846 1851 
C 4083 1851 4211 1386 4211 959 
C 4211 533 4083 68 3846 68 
z
M 2003 3519 
C 2003 4258 1606 4800 1171 4800 
C 742 4800 333 4271 333 3519 
C 333 2768 742 2240 1171 2240 
C 1613 2240 2003 2781 2003 3519 
z
M 1171 2628 
C 1037 2628 819 2749 819 3519 
C 819 4284 1037 4411 1171 4411 
C 1408 4411 1536 3946 1536 3519 
C 1536 3093 1408 2628 1171 2628 
z
" transform="scale(0.015625)"/>
       <path id="CMSS17-29" d="M 723 -1600 
C 1069 -1249 1862 -433 1862 1581 
C 1862 3601 1069 4411 723 4768 
L 333 4768 
C 1120 3952 1376 2811 1376 1588 
C 1376 370 1133 -778 333 -1600 
L 723 -1600 
z
" transform="scale(0.015625)"/>
      </defs>
      <use xlink:href="#CMSS17-50" transform="scale(0.996264)"/>
      <use xlink:href="#CMSS17-65" transform="translate(57.133132 0) scale(0.996264)"/>
      <use xlink:href="#CMSS17-72" transform="translate(98.771954 0) scale(0.996264)"/>
      <use xlink:href="#CMSS17-63" transform="translate(130.681727 0) scale(0.996264)"/>
      <use xlink:href="#CMSS17-65" transform="translate(172.320549 0) scale(0.996264)"/>
      <use xlink:href="#CMSS17-6e" transform="translate(213.959371 0) scale(0.996264)"/>
      <use xlink:href="#CMSS17-74" transform="translate(262.164314 0) scale(0.996264)"/>
      <use xlink:href="#CMSS17-61" transform="translate(295.995881 0) scale(0.996264)"/>
      <use xlink:href="#CMSS17-67" transform="translate(340.917802 0) scale(0.996264)"/>
      <use xlink:href="#CMSS17-65" transform="translate(387.761425 0) scale(0.996264)"/>
      <use xlink:href="#CMSS17-45" transform="translate(460.62936 0) scale(0.996264)"/>
      <use xlink:href="#CMSS17-78" transform="translate(516.521373 0) scale(0.996264)"/>
      <use xlink:href="#CMSS17-70" transform="translate(559.521515 0) scale(0.996264)"/>
      <use xlink:href="#CMSS17-6c" transform="translate(607.726458 0) scale(0.996264)"/>
      <use xlink:href="#CMSS17-6f" transform="translate(629.907181 0) scale(0.996264)"/>
      <use xlink:href="#CMSS17-72" transform="translate(674.148351 0) scale(0.996264)"/>
      <use xlink:href="#CMSS17-65" transform="translate(706.058123 0) scale(0.996264)"/>
      <use xlink:href="#CMSS17-64" transform="translate(747.696945 0) scale(0.996264)"/>
      <use xlink:href="#CMSS17-28" transform="translate(827.131001 0) scale(0.996264)"/>
      <use xlink:href="#CMSS17-25" transform="translate(863.564915 0) scale(0.996264)"/>
      <use xlink:href="#CMSS17-29" transform="translate(941.637652 0) scale(0.996264)"/>
     </g>
    </g>
   </g>
   <g id="PolyCollection_1">
    <defs>
     <path id="med8f03b8f0" d="M 111.151132 -102.086416 
L 111.151132 -102.086416 
L 116.758914 -128.921255 
L 122.366695 -157.226496 
L 127.974476 -164.394706 
L 133.582258 -168.254512 
L 139.190039 -178.731127 
L 144.79782 -195.640752 
L 150.405602 -193.618949 
L 156.013383 -191.045745 
L 161.621164 -191.413346 
L 167.228946 -193.802749 
L 172.836727 -214.57218 
L 178.444508 -229.643802 
L 184.052289 -249.678031 
L 189.660071 -241.958419 
L 195.267852 -246.553426 
L 200.875633 -246.553426 
L 206.483415 -243.980222 
L 212.091196 -239.017615 
L 217.698977 -234.238808 
L 223.306759 -233.319807 
L 228.91454 -230.195202 
L 234.522321 -220.086188 
L 240.130103 -211.447575 
L 245.737884 -204.279365 
L 251.345665 -205.382166 
L 256.953447 -206.668768 
L 262.561228 -211.079975 
L 268.169009 -211.447575 
L 273.776791 -210.528574 
L 279.384572 -216.042582 
L 284.992353 -223.762193 
L 290.600134 -206.301168 
L 296.207916 -204.095564 
L 301.815697 -198.581556 
L 307.423478 -194.721751 
L 313.03126 -194.53795 
L 318.639041 -185.347937 
L 324.246822 -187.18594 
L 329.854604 -189.023942 
L 335.462385 -188.104941 
L 341.070166 -186.634539 
L 346.677948 -186.083138 
L 352.285729 -180.56913 
L 357.89351 -182.774733 
L 363.501292 -189.023942 
L 369.109073 -188.288741 
L 374.716854 -186.266938 
L 380.324635 -184.061335 
L 385.932417 -182.774733 
L 391.540198 -179.098728 
L 397.147979 -173.58472 
L 402.755761 -170.827716 
L 408.363542 -189.391543 
L 413.971323 -217.145383 
L 419.579105 -230.011402 
L 425.186886 -238.650015 
L 430.794667 -238.650015 
L 436.402449 -237.731013 
L 442.01023 -241.223218 
L 447.618011 -246.185826 
L 453.225793 -246.369626 
L 458.833574 -246.369626 
L 464.441355 -246.369626 
L 470.049137 -246.369626 
L 475.656918 -246.369626 
L 481.264699 -256.662441 
L 486.87248 -260.154646 
L 492.480262 -275.226268 
L 498.088043 -277.431871 
L 503.695824 -289.011288 
L 509.303606 -292.687293 
L 514.911387 -297.2823 
L 520.519168 -297.2823 
L 526.12695 -296.9147 
L 531.734731 -292.687293 
L 537.342512 -286.621885 
L 542.950294 -279.453674 
L 548.558075 -279.453674 
L 554.165856 -276.51287 
L 559.773638 -260.522247 
L 565.381419 -259.603245 
L 570.9892 -259.970846 
L 576.596981 -257.949043 
L 582.204763 -252.986436 
L 587.812544 -240.304217 
L 593.420325 -237.179613 
L 599.028107 -242.32602 
L 604.635888 -241.774619 
L 610.243669 -232.768406 
L 615.851451 -229.460001 
L 621.459232 -240.304217 
L 627.067013 -261.808848 
L 632.674795 -263.830651 
L 638.282576 -261.441248 
L 643.890357 -269.71226 
L 649.498139 -267.322856 
L 655.10592 -261.441248 
L 660.713701 -257.397642 
L 666.321482 -257.765243 
L 666.321482 -367.126402 
L 666.321482 -367.126402 
L 660.713701 -374.478413 
L 655.10592 -371.721409 
L 649.498139 -395.983044 
L 643.890357 -385.138828 
L 638.282576 -393.40984 
L 632.674795 -380.360021 
L 627.067013 -378.889619 
L 621.459232 -381.830423 
L 615.851451 -379.992421 
L 610.243669 -389.550035 
L 604.635888 -397.821047 
L 599.028107 -385.138828 
L 593.420325 -393.59364 
L 587.812544 -412.892669 
L 582.204763 -402.783654 
L 576.596981 -421.163681 
L 570.9892 -444.322514 
L 565.381419 -449.468922 
L 559.773638 -466.746147 
L 554.165856 -452.225926 
L 548.558075 -433.845899 
L 542.950294 -435.683902 
L 537.342512 -433.845899 
L 531.734731 -408.665262 
L 526.12695 -404.437856 
L 520.519168 -421.531281 
L 514.911387 -420.61228 
L 509.303606 -421.715081 
L 503.695824 -426.677689 
L 498.088043 -437.889505 
L 492.480262 -429.986093 
L 486.87248 -423.736884 
L 481.264699 -424.655886 
L 475.656918 -411.238466 
L 470.049137 -400.578051 
L 464.441355 -393.961241 
L 458.833574 -382.014224 
L 453.225793 -394.696442 
L 447.618011 -401.680852 
L 442.01023 -387.528232 
L 436.402449 -379.80862 
L 430.794667 -385.138828 
L 425.186886 -398.004847 
L 419.579105 -394.512642 
L 413.971323 -395.799244 
L 408.363542 -372.45661 
L 402.755761 -367.677803 
L 397.147979 -376.867816 
L 391.540198 -356.649787 
L 385.932417 -338.08596 
L 380.324635 -353.341382 
L 374.716854 -351.87098 
L 369.109073 -357.752588 
L 363.501292 -356.098386 
L 357.89351 -370.802407 
L 352.285729 -363.082796 
L 346.677948 -349.665376 
L 341.070166 -360.693392 
L 335.462385 -369.515805 
L 329.854604 -384.403627 
L 324.246822 -383.300825 
L 318.639041 -358.120189 
L 313.03126 -358.303989 
L 307.423478 -356.282186 
L 301.815697 -361.244793 
L 296.207916 -376.132615 
L 290.600134 -388.998634 
L 284.992353 -405.173057 
L 279.384572 -411.973667 
L 273.776791 -400.945651 
L 268.169009 -376.500215 
L 262.561228 -368.413004 
L 256.953447 -376.867816 
L 251.345665 -389.550035 
L 245.737884 -418.222876 
L 240.130103 -421.715081 
L 234.522321 -403.702655 
L 228.91454 -392.307039 
L 223.306759 -393.59364 
L 217.698977 -397.085845 
L 212.091196 -392.674639 
L 206.483415 -391.204237 
L 200.875633 -405.724458 
L 195.267852 -383.484626 
L 189.660071 -376.500215 
L 184.052289 -358.487789 
L 178.444508 -362.715195 
L 172.836727 -335.880356 
L 167.228946 -313.824324 
L 161.621164 -306.104713 
L 156.013383 -297.4661 
L 150.405602 -295.260497 
L 144.79782 -283.31348 
L 139.190039 -278.902273 
L 133.582258 -253.170236 
L 127.974476 -240.671818 
L 122.366695 -228.173399 
L 116.758914 -168.989713 
L 111.151132 -102.086416 
z
" style="stroke: #ffffff; stroke-opacity: 0.2"/>
    </defs>
    <g clip-path="url(#p82f66ff6a8)">
     <use xlink:href="#med8f03b8f0" x="0" y="576" style="fill: #4c72b0; fill-opacity: 0.2; stroke: #ffffff; stroke-opacity: 0.2"/>
    </g>
   </g>
   <g id="PolyCollection_2">
    <defs>
     <path id="m08c82b1dfa" d="M 111.151132 -102.086416 
L 111.151132 -102.086416 
L 116.758914 -121.936845 
L 122.366695 -138.662669 
L 127.974476 -152.080089 
L 133.582258 -162.924304 
L 139.190039 -174.319921 
L 144.79782 -184.612736 
L 150.405602 -197.111154 
L 156.013383 -204.279365 
L 161.621164 -212.734177 
L 167.228946 -246.002025 
L 172.836727 -250.964633 
L 178.444508 -258.868044 
L 184.052289 -258.500444 
L 189.660071 -262.544049 
L 195.267852 -271.366462 
L 200.875633 -275.410068 
L 206.483415 -277.064271 
L 212.091196 -284.048681 
L 217.698977 -298.568902 
L 223.306759 -299.855504 
L 228.91454 -277.615671 
L 234.522321 -278.350873 
L 240.130103 -258.868044 
L 245.737884 -253.721637 
L 251.345665 -249.12663 
L 256.953447 -265.301053 
L 262.561228 -262.91165 
L 268.169009 -266.036255 
L 273.776791 -265.484854 
L 279.384572 -255.74344 
L 284.992353 -241.958419 
L 290.600134 -240.488017 
L 296.207916 -237.914814 
L 301.815697 -238.098614 
L 307.423478 -245.083024 
L 313.03126 -257.581442 
L 318.639041 -254.089237 
L 324.246822 -250.780832 
L 329.854604 -250.964633 
L 335.462385 -244.715424 
L 341.070166 -222.475591 
L 346.677948 -222.475591 
L 352.285729 -222.475591 
L 357.89351 -225.416395 
L 363.501292 -219.534787 
L 369.109073 -215.307381 
L 374.716854 -218.615785 
L 380.324635 -212.734177 
L 385.932417 -220.821389 
L 391.540198 -228.541 
L 397.147979 -240.488017 
L 402.755761 -240.855618 
L 408.363542 -240.304217 
L 413.971323 -237.547213 
L 419.579105 -236.995812 
L 425.186886 -239.385216 
L 430.794667 -242.32602 
L 436.402449 -245.818225 
L 442.01023 -248.759029 
L 447.618011 -250.045631 
L 453.225793 -259.419445 
L 458.833574 -273.020665 
L 464.441355 -276.88047 
L 470.049137 -285.702883 
L 475.656918 -287.357086 
L 481.264699 -283.68108 
L 486.87248 -273.020665 
L 492.480262 -267.690457 
L 498.088043 -277.983272 
L 503.695824 -288.459887 
L 509.303606 -296.547099 
L 514.911387 -299.304103 
L 520.519168 -293.973895 
L 526.12695 -293.238694 
L 531.734731 -293.054894 
L 537.342512 -289.746489 
L 542.950294 -292.319693 
L 548.558075 -292.687293 
L 554.165856 -293.422494 
L 559.773638 -283.864881 
L 565.381419 -289.195088 
L 570.9892 -282.578279 
L 576.596981 -265.484854 
L 582.204763 -259.235645 
L 587.812544 -240.304217 
L 593.420325 -238.282414 
L 599.028107 -241.223218 
L 604.635888 -252.986436 
L 610.243669 -248.391429 
L 615.851451 -240.671818 
L 621.459232 -243.612622 
L 627.067013 -244.531623 
L 632.674795 -253.170236 
L 638.282576 -262.91165 
L 643.890357 -247.840028 
L 649.498139 -231.298004 
L 655.10592 -225.967796 
L 660.713701 -218.064385 
L 666.321482 -222.291791 
L 666.321482 -500.013995 
L 666.321482 -500.013995 
L 660.713701 -456.453332 
L 655.10592 -436.786703 
L 649.498139 -437.705705 
L 643.890357 -427.41289 
L 638.282576 -431.640296 
L 632.674795 -443.771114 
L 627.067013 -460.864538 
L 621.459232 -436.051502 
L 615.851451 -430.537494 
L 610.243669 -445.425316 
L 604.635888 -431.272695 
L 599.028107 -409.216663 
L 593.420325 -390.652836 
L 587.812544 -371.170008 
L 582.204763 -373.375611 
L 576.596981 -357.201187 
L 570.9892 -366.207401 
L 565.381419 -366.758801 
L 559.773638 -380.911422 
L 554.165856 -389.366234 
L 548.558075 -409.400463 
L 542.950294 -404.621656 
L 537.342512 -372.45661 
L 531.734731 -357.752588 
L 526.12695 -363.634197 
L 520.519168 -373.00801 
L 514.911387 -363.817997 
L 509.303606 -352.23858 
L 503.695824 -357.017387 
L 498.088043 -386.60923 
L 492.480262 -390.285236 
L 486.87248 -391.939438 
L 481.264699 -401.680852 
L 475.656918 -409.400463 
L 470.049137 -416.752474 
L 464.441355 -426.677689 
L 458.833574 -448.18232 
L 453.225793 -438.624706 
L 447.618011 -436.602903 
L 442.01023 -454.063928 
L 436.402449 -436.970504 
L 430.794667 -411.789867 
L 425.186886 -379.62482 
L 419.579105 -361.428594 
L 413.971323 -368.596804 
L 408.363542 -375.948815 
L 402.755761 -373.559411 
L 397.147979 -373.191811 
L 391.540198 -367.310202 
L 385.932417 -367.126402 
L 380.324635 -398.004847 
L 374.716854 -435.500101 
L 369.109073 -424.655886 
L 363.501292 -411.973667 
L 357.89351 -397.269646 
L 352.285729 -406.82726 
L 346.677948 -418.590477 
L 341.070166 -415.465872 
L 335.462385 -412.157467 
L 329.854604 -412.157467 
L 324.246822 -416.752474 
L 318.639041 -412.525068 
L 313.03126 -401.864652 
L 307.423478 -393.777441 
L 301.815697 -387.344431 
L 296.207916 -377.786817 
L 290.600134 -352.05478 
L 284.992353 -363.082796 
L 279.384572 -377.235417 
L 273.776791 -410.135665 
L 268.169009 -419.325678 
L 262.561228 -444.690115 
L 256.953447 -462.518741 
L 251.345665 -471.524954 
L 245.737884 -466.378546 
L 240.130103 -464.172943 
L 234.522321 -440.646509 
L 228.91454 -415.098272 
L 223.306759 -403.702655 
L 217.698977 -403.151254 
L 212.091196 -394.880242 
L 206.483415 -382.749425 
L 200.875633 -366.942602 
L 195.267852 -335.328956 
L 189.660071 -331.101549 
L 184.052289 -331.101549 
L 178.444508 -332.571952 
L 172.836727 -314.008124 
L 167.228946 -301.877307 
L 161.621164 -286.070484 
L 156.013383 -285.151482 
L 150.405602 -281.291677 
L 144.79782 -256.478641 
L 139.190039 -247.288627 
L 133.582258 -206.301168 
L 127.974476 -196.927354 
L 122.366695 -192.148547 
L 116.758914 -152.81529 
L 111.151132 -102.086416 
z
" style="stroke: #ffffff; stroke-opacity: 0.2"/>
    </defs>
    <g clip-path="url(#p82f66ff6a8)">
     <use xlink:href="#m08c82b1dfa" x="0" y="576" style="fill: #dd8452; fill-opacity: 0.2; stroke: #ffffff; stroke-opacity: 0.2"/>
    </g>
   </g>
   <g id="PolyCollection_3">
    <defs>
     <path id="m07db3c44f2" d="M 111.151132 -102.086416 
L 111.151132 -100.432213 
L 116.758914 -124.326248 
L 122.366695 -142.890075 
L 127.974476 -153.550491 
L 133.582258 -164.946107 
L 139.190039 -164.946107 
L 144.79782 -173.95232 
L 150.405602 -178.914928 
L 156.013383 -186.266938 
L 161.621164 -191.413346 
L 167.228946 -212.734177 
L 172.836727 -235.893011 
L 178.444508 -241.039418 
L 184.052289 -256.29484 
L 189.660071 -257.213842 
L 195.267852 -257.765243 
L 200.875633 -249.678031 
L 206.483415 -250.413232 
L 212.091196 -248.391429 
L 217.698977 -248.391429 
L 223.306759 -247.656228 
L 228.91454 -236.076811 
L 234.522321 -220.086188 
L 240.130103 -216.042582 
L 245.737884 -215.858781 
L 251.345665 -209.241972 
L 256.953447 -203.544164 
L 262.561228 -193.802749 
L 268.169009 -187.002139 
L 273.776791 -185.531737 
L 279.384572 -194.17035 
L 284.992353 -191.597146 
L 290.600134 -202.441362 
L 296.207916 -202.441362 
L 301.815697 -202.073761 
L 307.423478 -202.073761 
L 313.03126 -207.403969 
L 318.639041 -207.403969 
L 324.246822 -236.995812 
L 329.854604 -257.397642 
L 335.462385 -281.291677 
L 341.070166 -283.68108 
L 346.677948 -286.621885 
L 352.285729 -288.643688 
L 357.89351 -291.768292 
L 363.501292 -300.406905 
L 369.109073 -304.634311 
L 374.716854 -286.438084 
L 380.324635 -283.68108 
L 385.932417 -283.68108 
L 391.540198 -300.590705 
L 397.147979 -304.818111 
L 402.755761 -299.855504 
L 408.363542 -299.855504 
L 413.971323 -292.135893 
L 419.579105 -287.540886 
L 425.186886 -264.933453 
L 430.794667 -260.522247 
L 436.402449 -260.522247 
L 442.01023 -252.986436 
L 447.618011 -248.391429 
L 453.225793 -249.678031 
L 458.833574 -248.391429 
L 464.441355 -253.721637 
L 470.049137 -261.808848 
L 475.656918 -256.478641 
L 481.264699 -253.170236 
L 486.87248 -236.260611 
L 492.480262 -225.967796 
L 498.088043 -240.488017 
L 503.695824 -260.706047 
L 509.303606 -275.961469 
L 514.911387 -296.730899 
L 520.519168 -311.986322 
L 526.12695 -314.008124 
L 531.734731 -306.839914 
L 537.342512 -306.839914 
L 542.950294 -259.603245 
L 548.558075 -257.030041 
L 554.165856 -252.618835 
L 559.773638 -270.631261 
L 565.381419 -290.48169 
L 570.9892 -293.238694 
L 576.596981 -310.515919 
L 582.204763 -330.917749 
L 587.812544 -337.350758 
L 593.420325 -341.026764 
L 599.028107 -340.107762 
L 604.635888 -345.805571 
L 610.243669 -357.752588 
L 615.851451 -359.958191 
L 621.459232 -339.923962 
L 627.067013 -327.425544 
L 632.674795 -356.465986 
L 638.282576 -354.444183 
L 643.890357 -340.475363 
L 649.498139 -320.257334 
L 655.10592 -304.634311 
L 660.713701 -293.790095 
L 666.321482 -282.945879 
L 666.321482 -384.036026 
L 666.321482 -384.036026 
L 660.713701 -390.652836 
L 655.10592 -394.145041 
L 649.498139 -398.740048 
L 643.890357 -411.606067 
L 638.282576 -441.19791 
L 632.674795 -468.58415 
L 627.067013 -473.546757 
L 621.459232 -473.914357 
L 615.851451 -453.328727 
L 610.243669 -450.755524 
L 604.635888 -445.792916 
L 599.028107 -465.827146 
L 593.420325 -490.640182 
L 587.812544 -500.565396 
L 582.204763 -505.895604 
L 576.596981 -480.163567 
L 570.9892 -468.216549 
L 565.381419 -462.15114 
L 559.773638 -425.942488 
L 554.165856 -420.428479 
L 548.558075 -421.163681 
L 542.950294 -437.338104 
L 537.342512 -433.478299 
L 531.734731 -414.17927 
L 526.12695 -423.553084 
L 520.519168 -420.060879 
L 514.911387 -410.687065 
L 509.303606 -399.84285 
L 503.695824 -387.528232 
L 498.088043 -383.852226 
L 492.480262 -405.356858 
L 486.87248 -419.325678 
L 481.264699 -437.154304 
L 475.656918 -435.316301 
L 470.049137 -437.521904 
L 464.441355 -440.830309 
L 458.833574 -428.515691 
L 453.225793 -414.17927 
L 447.618011 -382.749425 
L 442.01023 -359.22299 
L 436.402449 -355.914586 
L 430.794667 -368.596804 
L 425.186886 -395.431643 
L 419.579105 -413.81167 
L 413.971323 -423.369284 
L 408.363542 -438.992307 
L 402.755761 -460.129337 
L 397.147979 -452.409726 
L 391.540198 -467.113748 
L 385.932417 -466.378546 
L 380.324635 -466.929947 
L 374.716854 -470.238352 
L 369.109073 -470.789753 
L 363.501292 -448.733721 
L 357.89351 -428.148091 
L 352.285729 -425.942488 
L 346.677948 -423.185484 
L 341.070166 -395.983044 
L 335.462385 -401.680852 
L 329.854604 -436.051502 
L 324.246822 -449.652722 
L 318.639041 -469.503151 
L 313.03126 -470.973553 
L 307.423478 -470.789753 
L 301.815697 -461.415939 
L 296.207916 -433.478299 
L 290.600134 -435.867702 
L 284.992353 -428.148091 
L 279.384572 -422.266482 
L 273.776791 -420.79608 
L 268.169009 -443.403513 
L 262.561228 -426.861489 
L 256.953447 -416.752474 
L 251.345665 -425.023486 
L 245.737884 -416.936274 
L 240.130103 -422.817883 
L 234.522321 -423.553084 
L 228.91454 -443.219713 
L 223.306759 -446.528118 
L 217.698977 -445.976717 
L 212.091196 -448.917521 
L 206.483415 -451.306924 
L 200.875633 -443.587313 
L 195.267852 -423.736884 
L 189.660071 -399.107648 
L 184.052289 -379.44102 
L 178.444508 -373.743211 
L 172.836727 -348.378775 
L 167.228946 -319.154532 
L 161.621164 -281.475477 
L 156.013383 -267.506657 
L 150.405602 -265.117253 
L 144.79782 -249.12663 
L 139.190039 -235.34161 
L 133.582258 -202.073761 
L 127.974476 -191.045745 
L 122.366695 -162.924304 
L 116.758914 -137.376067 
L 111.151132 -102.086416 
z
" style="stroke: #ffffff; stroke-opacity: 0.2"/>
    </defs>
    <g clip-path="url(#p82f66ff6a8)">
     <use xlink:href="#m07db3c44f2" x="0" y="576" style="fill: #55a868; fill-opacity: 0.2; stroke: #ffffff; stroke-opacity: 0.2"/>
    </g>
   </g>
   <g id="line2d_12">
    <path d="M 111.151132 473.913584 
L 116.758914 430.647001 
L 122.366695 398.812795 
L 127.974476 381.60909 
L 133.582258 365.214106 
L 139.190039 350.363044 
L 144.79782 344.701996 
L 150.405602 337.791106 
L 156.013383 336.210424 
L 161.621164 325.476488 
L 167.228946 316.837875 
L 172.836727 303.788056 
L 178.444508 292.980601 
L 184.052289 287.760673 
L 189.660071 279.232341 
L 195.267852 272.358211 
L 200.875633 267.285323 
L 206.483415 270.336408 
L 212.091196 266.991243 
L 217.698977 267.542644 
L 223.306759 270.556968 
L 228.91454 284.783109 
L 234.522321 281.143863 
L 240.130103 280.408662 
L 245.737884 280.114582 
L 251.345665 284.231708 
L 256.953447 281.290904 
L 262.561228 274.012413 
L 268.169009 274.122693 
L 273.776791 269.233606 
L 279.384572 269.086566 
L 284.992353 274.343254 
L 290.600134 277.541378 
L 296.207916 278.5339 
L 301.815697 274.085933 
L 307.423478 266.476602 
L 313.03126 268.718965 
L 318.639041 273.461012 
L 324.246822 273.718333 
L 329.854604 287.172512 
L 335.462385 289.745716 
L 341.070166 287.209272 
L 346.677948 290.848518 
L 352.285729 287.319552 
L 357.89351 284.341988 
L 363.501292 292.870321 
L 369.109073 299.854731 
L 374.716854 306.728861 
L 380.324635 304.890858 
L 385.932417 298.641649 
L 391.540198 289.414875 
L 397.147979 288.385594 
L 402.755761 296.987447 
L 408.363542 289.267835 
L 413.971323 274.637334 
L 419.579105 266.256042 
L 425.186886 268.130804 
L 430.794667 275.519575 
L 436.402449 276.365056 
L 442.01023 264.89592 
L 447.618011 255.080985 
L 453.225793 256.036747 
L 458.833574 260.117113 
L 464.441355 257.91151 
L 470.049137 251.55202 
L 475.656918 243.758889 
L 481.264699 234.385075 
L 486.87248 231.260471 
L 492.480262 222.291018 
L 498.088043 214.387606 
L 503.695824 210.932161 
L 509.303606 217.843051 
L 514.911387 226.518424 
L 520.519168 221.114696 
L 526.12695 223.6879 
L 531.734731 224.533381 
L 537.342512 223.062979 
L 542.950294 231.701591 
L 548.558075 236.627439 
L 554.165856 237.767 
L 559.773638 234.458595 
L 565.381419 242.913408 
L 570.9892 231.591311 
L 576.596981 234.127755 
L 582.204763 245.486611 
L 587.812544 258.38939 
L 593.420325 259.565712 
L 599.028107 261.844835 
L 604.635888 267.947004 
L 610.243669 268.498405 
L 615.851451 267.873484 
L 621.459232 262.874117 
L 627.067013 260.558233 
L 632.674795 259.051071 
L 638.282576 255.338306 
L 643.890357 262.249196 
L 649.498139 273.093412 
L 655.10592 277.137018 
L 660.713701 276.842937 
L 666.321482 281.658504 
" clip-path="url(#p82f66ff6a8)" style="fill: none; stroke: #4c72b0; stroke-width: 1.5; stroke-linecap: round"/>
   </g>
   <g id="line2d_13">
    <path d="M 111.151132 473.913584 
L 116.758914 436.308049 
L 122.366695 414.288777 
L 127.974476 398.298154 
L 133.582258 388.81406 
L 139.190039 372.566117 
L 144.79782 362.089501 
L 150.405602 348.267721 
L 156.013383 344.849036 
L 161.621164 335.548743 
L 167.228946 313.713271 
L 172.836727 306.655341 
L 178.444508 291.583719 
L 184.052289 279.673461 
L 189.660071 277.467858 
L 195.267852 270.336408 
L 200.875633 261.477235 
L 206.483415 255.595626 
L 212.091196 249.309657 
L 217.698977 236.627439 
L 223.306759 234.311555 
L 228.91454 233.171994 
L 234.522321 230.70907 
L 240.130103 229.091628 
L 245.737884 230.52527 
L 251.345665 232.914673 
L 256.953447 235.855477 
L 262.561228 251.51526 
L 268.169009 259.859792 
L 273.776791 262.212436 
L 279.384572 267.983764 
L 284.992353 268.130804 
L 290.600134 262.543276 
L 296.207916 258.09531 
L 301.815697 260.558233 
L 307.423478 256.367587 
L 313.03126 250.706539 
L 318.639041 246.221813 
L 324.246822 251.699061 
L 329.854604 256.698428 
L 335.462385 263.351998 
L 341.070166 269.968807 
L 346.677948 269.086566 
L 352.285729 267.836724 
L 357.89351 270.667248 
L 363.501292 273.534532 
L 369.109073 275.262255 
L 374.716854 270.520208 
L 380.324635 276.806177 
L 385.932417 281.511464 
L 391.540198 270.336408 
L 397.147979 262.322716 
L 402.755761 259.712752 
L 408.363542 262.065396 
L 413.971323 267.175043 
L 419.579105 272.394971 
L 425.186886 269.785007 
L 430.794667 258.46291 
L 436.402449 251.6623 
L 442.01023 246.883494 
L 447.618011 248.758256 
L 453.225793 242.803128 
L 458.833574 239.274162 
L 464.441355 246.626173 
L 470.049137 246.258573 
L 475.656918 249.419937 
L 481.264699 256.735188 
L 486.87248 259.381912 
L 492.480262 261.440475 
L 498.088043 258.16883 
L 503.695824 255.375066 
L 509.303606 251.18442 
L 514.911387 244.56761 
L 520.519168 245.743932 
L 526.12695 248.684736 
L 531.734731 251.809341 
L 537.342512 252.581302 
L 542.950294 248.427416 
L 548.558075 251.772581 
L 554.165856 255.963227 
L 559.773638 259.014311 
L 565.381419 255.963227 
L 570.9892 257.286589 
L 576.596981 263.903398 
L 582.204763 257.029268 
L 587.812544 260.594994 
L 593.420325 263.756358 
L 599.028107 259.933313 
L 604.635888 258.977551 
L 610.243669 258.16883 
L 615.851451 262.506516 
L 621.459232 265.447321 
L 627.067013 262.616796 
L 632.674795 266.439842 
L 638.282576 264.307759 
L 643.890357 266.733922 
L 649.498139 266.182522 
L 655.10592 265.33704 
L 660.713701 257.580669 
L 666.321482 244.12649 
" clip-path="url(#p82f66ff6a8)" style="fill: none; stroke: #dd8452; stroke-width: 1.5; stroke-linecap: round"/>
   </g>
   <g id="line2d_14">
    <path d="M 111.151132 474.244425 
L 116.758914 446.159744 
L 122.366695 424.213992 
L 127.974476 404.400323 
L 133.582258 391.460784 
L 139.190039 375.837761 
L 144.79782 360.325019 
L 150.405602 347.017879 
L 156.013383 340.033469 
L 161.621164 325.623528 
L 167.228946 309.596145 
L 172.836727 295.517044 
L 178.444508 280.371902 
L 184.052289 274.968174 
L 189.660071 268.057284 
L 195.267852 254.382544 
L 200.875633 246.332093 
L 206.483415 239.678523 
L 212.091196 233.613114 
L 217.698977 231.701591 
L 223.306759 224.900982 
L 228.91454 228.356427 
L 234.522321 235.083516 
L 240.130103 239.274162 
L 245.737884 242.472287 
L 251.345665 234.605636 
L 256.953447 238.318401 
L 262.561228 239.678523 
L 268.169009 242.178207 
L 273.776791 248.317136 
L 279.384572 242.141447 
L 284.992353 243.905929 
L 290.600134 239.347683 
L 296.207916 235.487877 
L 301.815697 231.00315 
L 307.423478 228.576987 
L 313.03126 225.305342 
L 318.639041 217.732771 
L 324.246822 210.601321 
L 329.854604 208.432478 
L 335.462385 219.092893 
L 341.070166 230.194429 
L 346.677948 228.797547 
L 352.285729 229.018108 
L 357.89351 232.547073 
L 363.501292 230.63555 
L 369.109073 228.576987 
L 374.716854 228.282906 
L 380.324635 231.738351 
L 385.932417 235.634917 
L 391.540198 234.826196 
L 397.147979 237.80376 
L 402.755761 238.465441 
L 408.363542 242.435527 
L 413.971323 250.522739 
L 419.579105 259.492192 
L 425.186886 263.278477 
L 430.794667 270.152607 
L 436.402449 264.74888 
L 442.01023 269.086566 
L 447.618011 269.858527 
L 453.225793 262.690317 
L 458.833574 258.49967 
L 464.441355 261.146394 
L 470.049137 265.484081 
L 475.656918 265.410561 
L 481.264699 263.241717 
L 486.87248 262.837357 
L 492.480262 258.609951 
L 498.088043 251.6623 
L 503.695824 241.443006 
L 509.303606 228.466707 
L 514.911387 216.262369 
L 520.519168 209.130919 
L 526.12695 207.954597 
L 531.734731 213.395085 
L 537.342512 204.609432 
L 542.950294 204.131551 
L 548.558075 201.889188 
L 554.165856 201.668628 
L 559.773638 202.477349 
L 565.381419 191.008212 
L 570.9892 181.597638 
L 576.596981 172.628185 
L 582.204763 169.09922 
L 587.812544 169.577101 
L 593.420325 165.717295 
L 599.028107 171.856224 
L 604.635888 177.701073 
L 610.243669 171.341583 
L 615.851451 170.863703 
L 621.459232 180.127236 
L 627.067013 187.148407 
L 632.674795 182.95776 
L 638.282576 188.949649 
L 643.890357 205.344633 
L 649.498139 220.747095 
L 655.10592 222.291018 
L 660.713701 233.502834 
L 666.321482 243.905929 
" clip-path="url(#p82f66ff6a8)" style="fill: none; stroke: #55a868; stroke-width: 1.5; stroke-linecap: round"/>
   </g>
   <g id="patch_3">
    <path d="M 83.392615 495.840956 
L 83.392615 49.831226 
" style="fill: none; stroke: #cccccc; stroke-width: 1.25; stroke-linejoin: miter; stroke-linecap: square"/>
   </g>
   <g id="patch_4">
    <path d="M 694.08 495.840956 
L 694.08 49.831226 
" style="fill: none; stroke: #cccccc; stroke-width: 1.25; stroke-linejoin: miter; stroke-linecap: square"/>
   </g>
   <g id="patch_5">
    <path d="M 83.392615 495.840956 
L 694.08 495.840956 
" style="fill: none; stroke: #cccccc; stroke-width: 1.25; stroke-linejoin: miter; stroke-linecap: square"/>
   </g>
   <g id="patch_6">
    <path d="M 83.392615 49.831226 
L 694.08 49.831226 
" style="fill: none; stroke: #cccccc; stroke-width: 1.25; stroke-linejoin: miter; stroke-linecap: square"/>
   </g>
   <g id="text_14">
    <!-- Percentage Explored (\%) over Step (Mean) -->
    <g style="fill: #262626" transform="translate(184.714212 43.831226) scale(0.24 -0.24)">
     <defs>
      <path id="CMSS17-76" d="M 2675 2752 
L 2176 2752 
L 1747 1556 
C 1613 1165 1421 627 1389 352 
L 1382 352 
C 1370 468 1318 634 1286 749 
C 1248 890 1197 1056 1158 1172 
L 595 2752 
L 83 2752 
L 1094 0 
L 1664 0 
L 2675 2752 
z
" transform="scale(0.015625)"/>
      <path id="CMSS17-4d" d="M 3194 2371 
L 2886 1473 
C 2835 1307 2662 791 2624 587 
L 2618 587 
C 2598 715 2560 849 2458 1174 
C 2400 1365 2336 1562 2272 1741 
L 1325 4416 
L 576 4416 
L 576 0 
L 1075 0 
L 1075 3900 
L 1082 3900 
C 1082 3894 1139 3613 1530 2499 
L 2374 96 
L 2848 96 
L 3610 2231 
C 3661 2378 3821 2843 3891 3066 
C 3955 3257 4115 3728 4154 3913 
L 4160 3913 
L 4160 0 
L 4666 0 
L 4666 4416 
L 3923 4416 
L 3194 2371 
z
" transform="scale(0.015625)"/>
     </defs>
     <use xlink:href="#CMSS17-50" transform="scale(0.996264)"/>
     <use xlink:href="#CMSS17-65" transform="translate(57.133132 0) scale(0.996264)"/>
     <use xlink:href="#CMSS17-72" transform="translate(98.771954 0) scale(0.996264)"/>
     <use xlink:href="#CMSS17-63" transform="translate(130.681727 0) scale(0.996264)"/>
     <use xlink:href="#CMSS17-65" transform="translate(172.320549 0) scale(0.996264)"/>
     <use xlink:href="#CMSS17-6e" transform="translate(213.959371 0) scale(0.996264)"/>
     <use xlink:href="#CMSS17-74" transform="translate(262.164314 0) scale(0.996264)"/>
     <use xlink:href="#CMSS17-61" transform="translate(295.995881 0) scale(0.996264)"/>
     <use xlink:href="#CMSS17-67" transform="translate(340.917802 0) scale(0.996264)"/>
     <use xlink:href="#CMSS17-65" transform="translate(387.761425 0) scale(0.996264)"/>
     <use xlink:href="#CMSS17-45" transform="translate(460.62936 0) scale(0.996264)"/>
     <use xlink:href="#CMSS17-78" transform="translate(516.521373 0) scale(0.996264)"/>
     <use xlink:href="#CMSS17-70" transform="translate(559.521515 0) scale(0.996264)"/>
     <use xlink:href="#CMSS17-6c" transform="translate(607.726458 0) scale(0.996264)"/>
     <use xlink:href="#CMSS17-6f" transform="translate(629.907181 0) scale(0.996264)"/>
     <use xlink:href="#CMSS17-72" transform="translate(674.148351 0) scale(0.996264)"/>
     <use xlink:href="#CMSS17-65" transform="translate(706.058123 0) scale(0.996264)"/>
     <use xlink:href="#CMSS17-64" transform="translate(747.696945 0) scale(0.996264)"/>
     <use xlink:href="#CMSS17-28" transform="translate(827.131001 0) scale(0.996264)"/>
     <use xlink:href="#CMSS17-25" transform="translate(863.564915 0) scale(0.996264)"/>
     <use xlink:href="#CMSS17-29" transform="translate(941.637652 0) scale(0.996264)"/>
     <use xlink:href="#CMSS17-6f" transform="translate(1009.300678 0) scale(0.996264)"/>
     <use xlink:href="#CMSS17-76" transform="translate(1056.144302 0) scale(0.996264)"/>
     <use xlink:href="#CMSS17-65" transform="translate(1099.144444 0) scale(0.996264)"/>
     <use xlink:href="#CMSS17-72" transform="translate(1140.783266 0) scale(0.996264)"/>
     <use xlink:href="#CMSS17-53" transform="translate(1203.922151 0) scale(0.996264)"/>
     <use xlink:href="#CMSS17-74" transform="translate(1255.970667 0) scale(0.996264)"/>
     <use xlink:href="#CMSS17-65" transform="translate(1289.802234 0) scale(0.996264)"/>
     <use xlink:href="#CMSS17-70" transform="translate(1331.441056 0) scale(0.996264)"/>
     <use xlink:href="#CMSS17-28" transform="translate(1410.875112 0) scale(0.996264)"/>
     <use xlink:href="#CMSS17-4d" transform="translate(1447.309026 0) scale(0.996264)"/>
     <use xlink:href="#CMSS17-65" transform="translate(1528.985056 0) scale(0.996264)"/>
     <use xlink:href="#CMSS17-61" transform="translate(1570.623878 0) scale(0.996264)"/>
     <use xlink:href="#CMSS17-6e" transform="translate(1615.545799 0) scale(0.996264)"/>
     <use xlink:href="#CMSS17-29" transform="translate(1663.750742 0) scale(0.996264)"/>
    </g>
   </g>
   <g id="legend_1">
    <g id="patch_7">
     <path d="M 424.76792 484.840956 
L 678.68 484.840956 
Q 683.08 484.840956 683.08 480.440956 
L 683.08 358.39623 
Q 683.08 353.99623 678.68 353.99623 
L 424.76792 353.99623 
Q 420.36792 353.99623 420.36792 358.39623 
L 420.36792 480.440956 
Q 420.36792 484.840956 424.76792 484.840956 
z
" style="fill: #ffffff; opacity: 0.8; stroke: #cccccc; stroke-linejoin: miter"/>
    </g>
    <g id="text_15">
     <!-- Reception Confidence $\theta_{\mathrm{init}}$ -->
     <g style="fill: #262626" transform="translate(429.16792 379.400635) scale(0.24 -0.24)">
      <defs>
       <path id="CMSS17-52" d="M 2522 2109 
L 2534 2115 
C 3533 2459 3539 3147 3539 3268 
C 3539 3873 2925 4453 2003 4453 
L 570 4453 
L 570 32 
L 1094 32 
L 1094 2048 
L 2035 2048 
L 3168 32 
L 3706 32 
L 2522 2109 
z
M 1094 2437 
L 1094 4096 
L 1933 4096 
C 2746 4096 3034 3637 3034 3267 
C 3034 2922 2778 2437 1933 2437 
L 1094 2437 
z
" transform="scale(0.015625)"/>
       <path id="CMSS17-69" d="M 979 4183 
L 442 4183 
L 442 3648 
L 979 3648 
L 979 4183 
z
M 947 2739 
L 474 2739 
L 474 0 
L 947 0 
L 947 2739 
z
" transform="scale(0.015625)"/>
       <path id="CMSS17-43" d="M 3501 714 
C 3072 427 2874 344 2355 344 
C 1459 344 934 1303 934 2179 
C 934 3112 1472 4032 2381 4032 
C 2790 4032 3059 3918 3386 3715 
L 3475 4217 
C 3168 4370 2778 4440 2387 4440 
C 1158 4440 397 3316 397 2179 
C 397 927 1299 -64 2323 -64 
C 2874 -64 3066 -19 3539 280 
L 3501 714 
z
" transform="scale(0.015625)"/>
       <path id="CMSS17-c" d="M 2752 4416 
L 2240 4416 
L 2240 3906 
L 2752 3906 
L 2752 4416 
z
M 2733 2737 
L 2259 2737 
L 2259 0 
L 2733 0 
L 2733 2737 
z
M 1075 2368 
L 1773 2368 
L 1773 2737 
L 1062 2737 
L 1062 3578 
C 1062 3919 1216 4092 1421 4092 
C 1542 4092 1664 4056 1773 3992 
L 1773 4410 
C 1722 4428 1574 4480 1421 4480 
C 941 4480 602 3993 602 3372 
L 602 2737 
L 160 2737 
L 160 2368 
L 602 2368 
L 602 0 
L 1075 0 
L 1075 2368 
z
" transform="scale(0.015625)"/>
       <path id="CMMI12-12" d="M 2835 3200 
C 2835 3850 2630 4480 2106 4480 
C 1210 4480 256 2615 256 1216 
C 256 923 320 -64 992 -64 
C 1862 -64 2835 1756 2835 3200 
z
M 896 2304 
C 992 2679 1126 3214 1382 3665 
C 1594 4047 1818 4352 2099 4352 
C 2310 4352 2451 4174 2451 3564 
C 2451 3334 2432 3017 2246 2304 
L 896 2304 
z
M 2202 2113 
C 2042 1490 1907 1088 1677 687 
C 1491 363 1267 64 998 64 
C 800 64 640 217 640 846 
C 640 1260 742 1693 845 2113 
L 2202 2113 
z
" transform="scale(0.015625)"/>
       <path id="CMR17-69" d="M 992 3909 
C 992 4049 877 4170 730 4170 
C 589 4170 467 4056 467 3909 
C 467 3769 582 3648 730 3648 
C 870 3648 992 3763 992 3909 
z
M 243 2706 
L 243 2541 
C 602 2541 653 2502 653 2197 
L 653 427 
C 653 184 627 153 218 153 
L 218 -13 
C 371 0 646 0 806 0 
C 960 0 1222 0 1370 -13 
L 1370 153 
C 992 153 979 191 979 420 
L 979 2776 
L 243 2706 
z
" transform="scale(0.015625)"/>
       <path id="CMR17-6e" d="M 2656 1933 
C 2656 2259 2592 2790 1837 2790 
C 1331 2790 1069 2400 973 2144 
L 966 2144 
L 966 2790 
L 211 2720 
L 211 2554 
C 589 2554 646 2515 646 2208 
L 646 428 
C 646 184 621 153 211 153 
L 211 -13 
C 365 0 646 0 813 0 
C 979 0 1267 0 1421 -13 
L 1421 153 
C 1011 153 986 178 986 428 
L 986 1658 
C 986 2247 1344 2688 1792 2688 
C 2266 2688 2317 2266 2317 1958 
L 2317 428 
C 2317 184 2291 153 1882 153 
L 1882 -13 
C 2035 0 2317 0 2483 0 
C 2650 0 2938 0 3091 -13 
L 3091 153 
C 2682 153 2656 178 2656 428 
L 2656 1933 
z
" transform="scale(0.015625)"/>
       <path id="CMR17-74" d="M 966 2560 
L 1862 2560 
L 1862 2725 
L 966 2725 
L 966 3904 
L 851 3904 
C 838 3245 614 2668 70 2668 
L 70 2560 
L 627 2560 
L 627 771 
C 627 650 627 -64 1370 -64 
C 1747 -64 1965 306 1965 777 
L 1965 1140 
L 1850 1140 
L 1850 783 
C 1850 344 1677 51 1408 51 
C 1222 51 966 178 966 758 
L 966 2560 
z
" transform="scale(0.015625)"/>
      </defs>
      <use xlink:href="#CMSS17-52" transform="scale(0.996264)"/>
      <use xlink:href="#CMSS17-65" transform="translate(60.416155 0) scale(0.996264)"/>
      <use xlink:href="#CMSS17-63" transform="translate(102.054977 0) scale(0.996264)"/>
      <use xlink:href="#CMSS17-65" transform="translate(143.693799 0) scale(0.996264)"/>
      <use xlink:href="#CMSS17-70" transform="translate(185.332621 0) scale(0.996264)"/>
      <use xlink:href="#CMSS17-74" transform="translate(233.537564 0) scale(0.996264)"/>
      <use xlink:href="#CMSS17-69" transform="translate(267.369131 0) scale(0.996264)"/>
      <use xlink:href="#CMSS17-6f" transform="translate(289.549854 0) scale(0.996264)"/>
      <use xlink:href="#CMSS17-6e" transform="translate(336.393477 0) scale(0.996264)"/>
      <use xlink:href="#CMSS17-43" transform="translate(415.827533 0) scale(0.996264)"/>
      <use xlink:href="#CMSS17-6f" transform="translate(475.683305 0) scale(0.996264)"/>
      <use xlink:href="#CMSS17-6e" transform="translate(522.526928 0) scale(0.996264)"/>
      <use xlink:href="#CMSS17-c" transform="translate(570.731872 0) scale(0.996264)"/>
      <use xlink:href="#CMSS17-64" transform="translate(620.858609 0) scale(0.996264)"/>
      <use xlink:href="#CMSS17-65" transform="translate(669.063552 0) scale(0.996264)"/>
      <use xlink:href="#CMSS17-6e" transform="translate(710.702374 0) scale(0.996264)"/>
      <use xlink:href="#CMSS17-63" transform="translate(758.907317 0) scale(0.996264)"/>
      <use xlink:href="#CMSS17-65" transform="translate(800.546139 0) scale(0.996264)"/>
      <use xlink:href="#CMMI12-12" transform="translate(873.414074 0) scale(0.996264)"/>
      <use xlink:href="#CMR17-69" transform="translate(918.873864 -14.943915) scale(0.697382)"/>
      <use xlink:href="#CMR17-6e" transform="translate(936.283523 -14.943915) scale(0.697382)"/>
      <use xlink:href="#CMR17-69" transform="translate(971.910131 -14.943915) scale(0.697382)"/>
      <use xlink:href="#CMR17-74" transform="translate(989.31979 -14.943915) scale(0.697382)"/>
     </g>
    </g>
    <g id="line2d_15">
     <path d="M 507.755705 402.751393 
L 529.755705 402.751393 
L 551.755705 402.751393 
" style="fill: none; stroke: #4c72b0; stroke-width: 1.5; stroke-linecap: round"/>
    </g>
    <g id="text_16">
     <!-- 0.4 -->
     <g style="fill: #262626" transform="translate(569.355705 410.451393) scale(0.22 -0.22)">
      <defs>
       <path id="CMSS17-30" d="M 2758 2044 
C 2758 2405 2752 3077 2490 3596 
C 2227 4096 1805 4229 1504 4229 
C 1069 4229 698 3975 506 3570 
C 301 3146 243 2709 243 2044 
C 243 1589 262 1031 493 543 
C 755 5 1197 -128 1498 -128 
C 1894 -128 2278 81 2496 518 
C 2720 974 2758 1474 2758 2044 
z
M 1498 261 
C 1011 261 864 811 819 995 
C 742 1310 730 1614 730 2114 
C 730 2506 730 2948 851 3297 
C 998 3701 1254 3840 1498 3840 
C 1971 3840 2125 3372 2176 3208 
C 2272 2873 2272 2481 2272 2114 
C 2272 1526 2272 261 1498 261 
z
" transform="scale(0.015625)"/>
       <path id="CMSS17-2e" d="M 1088 510 
L 576 510 
L 576 0 
L 1088 0 
L 1088 510 
z
" transform="scale(0.015625)"/>
       <path id="CMSS17-34" d="M 2253 1088 
L 2835 1088 
L 2835 1477 
L 2253 1477 
L 2253 4192 
L 1690 4192 
L 166 1477 
L 166 1088 
L 1747 1088 
L 1747 0 
L 2253 0 
L 2253 1088 
z
M 659 1477 
C 1030 2127 1766 3439 1766 3885 
L 1766 1477 
L 659 1477 
z
" transform="scale(0.015625)"/>
      </defs>
      <use xlink:href="#CMSS17-30" transform="scale(0.996264)"/>
      <use xlink:href="#CMSS17-2e" transform="translate(46.843624 0) scale(0.996264)"/>
      <use xlink:href="#CMSS17-34" transform="translate(72.867828 0) scale(0.996264)"/>
     </g>
    </g>
    <g id="line2d_16">
     <path d="M 507.755705 433.414581 
L 529.755705 433.414581 
L 551.755705 433.414581 
" style="fill: none; stroke: #dd8452; stroke-width: 1.5; stroke-linecap: round"/>
    </g>
    <g id="text_17">
     <!-- 0.6 -->
     <g style="fill: #262626" transform="translate(569.355705 441.114581) scale(0.22 -0.22)">
      <defs>
       <path id="CMSS17-36" d="M 2496 4101 
C 2227 4210 2035 4229 1856 4229 
C 1024 4229 250 3368 250 2006 
C 250 265 986 -128 1510 -128 
C 1798 -128 2086 -39 2362 280 
C 2643 617 2752 898 2752 1389 
C 2752 2179 2362 2880 1779 2880 
C 1357 2880 992 2657 768 2376 
C 832 3258 1254 3840 1862 3840 
C 2029 3840 2246 3816 2496 3710 
L 2496 4101 
z
M 774 1369 
C 774 1420 774 1452 781 1548 
C 781 2045 1069 2491 1536 2491 
C 1837 2491 1990 2332 2106 2135 
C 2240 1886 2246 1650 2246 1388 
C 2246 1140 2246 891 2099 637 
C 1978 439 1818 267 1510 267 
C 902 267 800 1114 774 1369 
z
" transform="scale(0.015625)"/>
      </defs>
      <use xlink:href="#CMSS17-30" transform="scale(0.996264)"/>
      <use xlink:href="#CMSS17-2e" transform="translate(46.843624 0) scale(0.996264)"/>
      <use xlink:href="#CMSS17-36" transform="translate(72.867828 0) scale(0.996264)"/>
     </g>
    </g>
    <g id="line2d_17">
     <path d="M 507.755705 464.077768 
L 529.755705 464.077768 
L 551.755705 464.077768 
" style="fill: none; stroke: #55a868; stroke-width: 1.5; stroke-linecap: round"/>
    </g>
    <g id="text_18">
     <!-- 0.8 -->
     <g style="fill: #262626" transform="translate(569.355705 471.777768) scale(0.22 -0.22)">
      <defs>
       <path id="CMSS17-38" d="M 1933 2222 
C 2419 2380 2669 2760 2669 3134 
C 2669 3722 2157 4229 1504 4229 
C 826 4229 333 3708 333 3144 
C 333 2780 576 2403 1069 2241 
C 442 1997 250 1512 250 1149 
C 250 446 819 -128 1498 -128 
C 2202 -128 2752 455 2752 1138 
C 2752 1557 2502 2000 1933 2222 
z
M 1504 2432 
C 1075 2432 787 2712 787 3136 
C 787 3566 1075 3840 1504 3840 
C 1901 3840 2214 3591 2214 3136 
C 2214 2687 1907 2432 1504 2432 
z
M 1504 267 
C 1139 267 749 517 749 1156 
C 749 1813 1184 2043 1498 2043 
C 1843 2043 2253 1800 2253 1156 
C 2253 491 1830 267 1504 267 
z
" transform="scale(0.015625)"/>
      </defs>
      <use xlink:href="#CMSS17-30" transform="scale(0.996264)"/>
      <use xlink:href="#CMSS17-2e" transform="translate(46.843624 0) scale(0.996264)"/>
      <use xlink:href="#CMSS17-38" transform="translate(72.867828 0) scale(0.996264)"/>
     </g>
    </g>
   </g>
  </g>
 </g>
 <defs>
  <clipPath id="p82f66ff6a8">
   <rect x="83.392615" y="49.831226" width="610.687385" height="446.00973"/>
  </clipPath>
 </defs>
</svg>
