<?xml version="1.0" encoding="utf-8" standalone="no"?>
<!DOCTYPE svg PUBLIC "-//W3C//DTD SVG 1.1//EN"
  "http://www.w3.org/Graphics/SVG/1.1/DTD/svg11.dtd">
<svg xmlns:xlink="http://www.w3.org/1999/xlink" width="720pt" height="576pt" viewBox="0 0 720 576" xmlns="http://www.w3.org/2000/svg" version="1.1">
 <metadata>
  <rdf:RDF xmlns:dc="http://purl.org/dc/elements/1.1/" xmlns:cc="http://creativecommons.org/ns#" xmlns:rdf="http://www.w3.org/1999/02/22-rdf-syntax-ns#">
   <cc:Work>
    <dc:type rdf:resource="http://purl.org/dc/dcmitype/StillImage"/>
    <dc:date>2025-04-24T19:33:20.267217</dc:date>
    <dc:format>image/svg+xml</dc:format>
    <dc:creator>
     <cc:Agent>
      <dc:title>Matplotlib v3.9.2, https://matplotlib.org/</dc:title>
     </cc:Agent>
    </dc:creator>
   </cc:Work>
  </rdf:RDF>
 </metadata>
 <defs>
  <style type="text/css">*{stroke-linejoin: round; stroke-linecap: butt}</style>
 </defs>
 <g id="figure_1">
  <g id="patch_1">
   <path d="M 0 576 
L 720 576 
L 720 0 
L 0 0 
z
" style="fill: #ffffff"/>
  </g>
  <g id="axes_1">
   <g id="patch_2">
    <path d="M 83.392615 495.840956 
L 694.08 495.840956 
L 694.08 49.831226 
L 83.392615 49.831226 
z
" style="fill: #ffffff"/>
   </g>
   <g id="matplotlib.axis_1">
    <g id="xtick_1">
     <g id="line2d_1">
      <path d="M 111.151132 495.840956 
L 111.151132 49.831226 
" clip-path="url(#p5ef4626677)" style="fill: none; stroke: #cccccc; stroke-linecap: round"/>
     </g>
     <g id="text_1">
      <!-- $\mathdefault{0}$ -->
      <g style="fill: #262626" transform="translate(106.12518 520.56165) scale(0.22 -0.22)">
       <defs>
        <path id="CMR17-30" d="M 2688 2025 
C 2688 2416 2682 3080 2413 3591 
C 2176 4039 1798 4198 1466 4198 
C 1158 4198 768 4058 525 3597 
C 269 3118 243 2524 243 2025 
C 243 1661 250 1106 448 619 
C 723 -39 1216 -128 1466 -128 
C 1760 -128 2208 -7 2470 600 
C 2662 1042 2688 1559 2688 2025 
z
M 1466 -26 
C 1056 -26 813 325 723 812 
C 653 1188 653 1738 653 2096 
C 653 2588 653 2997 736 3387 
C 858 3929 1216 4096 1466 4096 
C 1728 4096 2067 3923 2189 3400 
C 2272 3036 2278 2607 2278 2096 
C 2278 1680 2278 1169 2202 792 
C 2067 95 1690 -26 1466 -26 
z
" transform="scale(0.015625)"/>
       </defs>
       <use xlink:href="#CMR17-30" transform="scale(0.996264)"/>
      </g>
     </g>
    </g>
    <g id="xtick_2">
     <g id="line2d_2">
      <path d="M 223.306759 495.840956 
L 223.306759 49.831226 
" clip-path="url(#p5ef4626677)" style="fill: none; stroke: #cccccc; stroke-linecap: round"/>
     </g>
     <g id="text_2">
      <!-- $\mathdefault{200}$ -->
      <g style="fill: #262626" transform="translate(208.228901 520.56165) scale(0.22 -0.22)">
       <defs>
        <path id="CMR17-32" d="M 2669 989 
L 2554 989 
C 2490 536 2438 459 2413 420 
C 2381 369 1920 369 1830 369 
L 602 369 
C 832 619 1280 1072 1824 1597 
C 2214 1967 2669 2402 2669 3035 
C 2669 3790 2067 4224 1395 4224 
C 691 4224 262 3604 262 3030 
C 262 2780 448 2748 525 2748 
C 589 2748 781 2787 781 3010 
C 781 3207 614 3264 525 3264 
C 486 3264 448 3258 422 3245 
C 544 3790 915 4058 1306 4058 
C 1862 4058 2227 3617 2227 3035 
C 2227 2479 1901 2000 1536 1584 
L 262 146 
L 262 0 
L 2515 0 
L 2669 989 
z
" transform="scale(0.015625)"/>
       </defs>
       <use xlink:href="#CMR17-32" transform="scale(0.996264)"/>
       <use xlink:href="#CMR17-30" transform="translate(45.690477 0) scale(0.996264)"/>
       <use xlink:href="#CMR17-30" transform="translate(91.380954 0) scale(0.996264)"/>
      </g>
     </g>
    </g>
    <g id="xtick_3">
     <g id="line2d_3">
      <path d="M 335.462385 495.840956 
L 335.462385 49.831226 
" clip-path="url(#p5ef4626677)" style="fill: none; stroke: #cccccc; stroke-linecap: round"/>
     </g>
     <g id="text_3">
      <!-- $\mathdefault{400}$ -->
      <g style="fill: #262626" transform="translate(320.384528 520.56165) scale(0.22 -0.22)">
       <defs>
        <path id="CMR17-34" d="M 2150 4122 
C 2150 4256 2144 4256 2029 4256 
L 128 1254 
L 128 1088 
L 1779 1088 
L 1779 457 
C 1779 224 1766 160 1318 160 
L 1197 160 
L 1197 0 
C 1402 0 1747 0 1965 0 
C 2182 0 2528 0 2733 0 
L 2733 160 
L 2611 160 
C 2163 160 2150 224 2150 457 
L 2150 1088 
L 2803 1088 
L 2803 1254 
L 2150 1254 
L 2150 4122 
z
M 1798 3703 
L 1798 1254 
L 256 1254 
L 1798 3703 
z
" transform="scale(0.015625)"/>
       </defs>
       <use xlink:href="#CMR17-34" transform="scale(0.996264)"/>
       <use xlink:href="#CMR17-30" transform="translate(45.690477 0) scale(0.996264)"/>
       <use xlink:href="#CMR17-30" transform="translate(91.380954 0) scale(0.996264)"/>
      </g>
     </g>
    </g>
    <g id="xtick_4">
     <g id="line2d_4">
      <path d="M 447.618011 495.840956 
L 447.618011 49.831226 
" clip-path="url(#p5ef4626677)" style="fill: none; stroke: #cccccc; stroke-linecap: round"/>
     </g>
     <g id="text_4">
      <!-- $\mathdefault{600}$ -->
      <g style="fill: #262626" transform="translate(432.540154 520.56165) scale(0.22 -0.22)">
       <defs>
        <path id="CMR17-36" d="M 678 2176 
C 678 3690 1395 4032 1811 4032 
C 1946 4032 2272 4009 2400 3776 
C 2298 3776 2106 3776 2106 3553 
C 2106 3381 2246 3323 2336 3323 
C 2394 3323 2566 3348 2566 3560 
C 2566 3954 2246 4179 1805 4179 
C 1043 4179 243 3390 243 1984 
C 243 253 966 -128 1478 -128 
C 2099 -128 2688 427 2688 1283 
C 2688 2081 2170 2662 1517 2662 
C 1126 2662 838 2407 678 1960 
L 678 2176 
z
M 1478 25 
C 691 25 691 1200 691 1436 
C 691 1896 909 2560 1504 2560 
C 1613 2560 1926 2560 2138 2120 
C 2253 1870 2253 1609 2253 1289 
C 2253 944 2253 690 2118 434 
C 1978 171 1773 25 1478 25 
z
" transform="scale(0.015625)"/>
       </defs>
       <use xlink:href="#CMR17-36" transform="scale(0.996264)"/>
       <use xlink:href="#CMR17-30" transform="translate(45.690477 0) scale(0.996264)"/>
       <use xlink:href="#CMR17-30" transform="translate(91.380954 0) scale(0.996264)"/>
      </g>
     </g>
    </g>
    <g id="xtick_5">
     <g id="line2d_5">
      <path d="M 559.773638 495.840956 
L 559.773638 49.831226 
" clip-path="url(#p5ef4626677)" style="fill: none; stroke: #cccccc; stroke-linecap: round"/>
     </g>
     <g id="text_5">
      <!-- $\mathdefault{800}$ -->
      <g style="fill: #262626" transform="translate(544.69578 520.56165) scale(0.22 -0.22)">
       <defs>
        <path id="CMR17-38" d="M 1741 2264 
C 2144 2467 2554 2773 2554 3263 
C 2554 3841 1990 4179 1472 4179 
C 890 4179 378 3759 378 3180 
C 378 3021 416 2747 666 2505 
C 730 2442 998 2251 1171 2130 
C 883 1983 211 1634 211 934 
C 211 279 838 -128 1459 -128 
C 2144 -128 2720 362 2720 1010 
C 2720 1590 2330 1857 2074 2029 
L 1741 2264 
z
M 902 2822 
C 851 2854 595 3051 595 3351 
C 595 3739 998 4032 1459 4032 
C 1965 4032 2336 3676 2336 3262 
C 2336 2669 1670 2331 1638 2331 
C 1632 2331 1626 2331 1574 2370 
L 902 2822 
z
M 2080 1519 
C 2176 1449 2483 1240 2483 851 
C 2483 381 2010 25 1472 25 
C 890 25 448 438 448 940 
C 448 1443 838 1862 1280 2060 
L 2080 1519 
z
" transform="scale(0.015625)"/>
       </defs>
       <use xlink:href="#CMR17-38" transform="scale(0.996264)"/>
       <use xlink:href="#CMR17-30" transform="translate(45.690477 0) scale(0.996264)"/>
       <use xlink:href="#CMR17-30" transform="translate(91.380954 0) scale(0.996264)"/>
      </g>
     </g>
    </g>
    <g id="xtick_6">
     <g id="line2d_6">
      <path d="M 671.929264 495.840956 
L 671.929264 49.831226 
" clip-path="url(#p5ef4626677)" style="fill: none; stroke: #cccccc; stroke-linecap: round"/>
     </g>
     <g id="text_6">
      <!-- $\mathdefault{1000}$ -->
      <g style="fill: #262626" transform="translate(651.825454 520.56165) scale(0.22 -0.22)">
       <defs>
        <path id="CMR17-31" d="M 1702 4058 
C 1702 4192 1696 4192 1606 4192 
C 1357 3916 979 3827 621 3827 
C 602 3827 570 3827 563 3808 
C 557 3795 557 3782 557 3648 
C 755 3648 1088 3686 1344 3839 
L 1344 461 
C 1344 236 1331 160 781 160 
L 589 160 
L 589 0 
C 896 0 1216 0 1523 0 
C 1830 0 2150 0 2458 0 
L 2458 160 
L 2266 160 
C 1715 160 1702 230 1702 458 
L 1702 4058 
z
" transform="scale(0.015625)"/>
       </defs>
       <use xlink:href="#CMR17-31" transform="scale(0.996264)"/>
       <use xlink:href="#CMR17-30" transform="translate(45.690477 0) scale(0.996264)"/>
       <use xlink:href="#CMR17-30" transform="translate(91.380954 0) scale(0.996264)"/>
       <use xlink:href="#CMR17-30" transform="translate(137.071431 0) scale(0.996264)"/>
      </g>
     </g>
    </g>
    <g id="text_7">
     <!-- Step -->
     <g style="fill: #262626" transform="translate(367.649451 545.429243) scale(0.24 -0.24)">
      <defs>
       <path id="CMSS17-53" d="M 2797 4169 
C 2515 4334 2208 4480 1690 4480 
C 864 4480 333 3879 333 3266 
C 333 3025 403 2753 653 2475 
C 902 2196 1184 2121 1542 2033 
C 1690 1994 1939 1924 1984 1906 
C 2342 1767 2515 1444 2515 1140 
C 2515 742 2202 318 1645 318 
C 1453 318 890 318 358 819 
L 269 318 
C 794 -64 1363 -128 1651 -128 
C 2438 -128 3002 488 3002 1186 
C 3002 1440 2925 1763 2656 2061 
C 2394 2347 2163 2410 1638 2549 
C 1338 2626 1146 2677 986 2873 
C 877 3013 819 3146 819 3317 
C 819 3673 1126 4060 1690 4060 
C 1971 4060 2336 4002 2707 3660 
L 2797 4169 
z
" transform="scale(0.015625)"/>
       <path id="CMSS17-74" d="M 1069 2368 
L 1901 2368 
L 1901 2737 
L 1069 2737 
L 1069 3520 
L 614 3520 
L 614 2737 
L 109 2737 
L 109 2368 
L 602 2368 
L 602 749 
C 602 384 685 -64 1107 -64 
C 1427 -64 1722 25 2003 172 
L 1901 548 
C 1747 414 1562 337 1363 337 
C 1082 337 1069 696 1069 856 
L 1069 2368 
z
" transform="scale(0.015625)"/>
       <path id="CMSS17-65" d="M 2502 1377 
C 2502 1590 2490 2003 2285 2345 
C 2061 2713 1696 2816 1421 2816 
C 755 2816 192 2188 192 1375 
C 192 582 774 -64 1510 -64 
C 1798 -64 2150 19 2470 248 
C 2470 274 2458 414 2451 420 
C 2451 433 2432 630 2432 656 
C 2125 407 1773 325 1517 325 
C 1107 325 666 667 646 1377 
L 2502 1377 
z
M 698 1728 
C 781 2084 1062 2421 1421 2421 
C 1517 2421 1965 2421 2080 1728 
L 698 1728 
z
" transform="scale(0.015625)"/>
       <path id="CMSS17-70" d="M 966 333 
C 1178 129 1466 -5 1773 -5 
C 2368 -5 2880 603 2880 1412 
C 2880 2159 2496 2816 1946 2816 
C 1626 2816 1242 2702 954 2472 
L 954 2765 
L 480 2765 
L 480 -1216 
L 966 -1216 
L 966 333 
z
M 966 2100 
C 1018 2176 1235 2415 1587 2415 
C 2035 2415 2394 1960 2394 1412 
C 2394 787 1958 384 1530 384 
C 1402 384 1267 415 1139 523 
C 966 674 966 768 966 857 
L 966 2100 
z
" transform="scale(0.015625)"/>
      </defs>
      <use xlink:href="#CMSS17-53" transform="scale(0.996264)"/>
      <use xlink:href="#CMSS17-74" transform="translate(52.048516 0) scale(0.996264)"/>
      <use xlink:href="#CMSS17-65" transform="translate(85.880083 0) scale(0.996264)"/>
      <use xlink:href="#CMSS17-70" transform="translate(127.518905 0) scale(0.996264)"/>
     </g>
    </g>
   </g>
   <g id="matplotlib.axis_2">
    <g id="ytick_1">
     <g id="line2d_7">
      <path d="M 83.392615 489.701148 
L 694.08 489.701148 
" clip-path="url(#p5ef4626677)" style="fill: none; stroke: #cccccc; stroke-linecap: round"/>
     </g>
     <g id="text_8">
      <!-- $\mathdefault{10}$ -->
      <g style="fill: #262626" transform="translate(53.788805 497.311495) scale(0.22 -0.22)">
       <use xlink:href="#CMR17-31" transform="scale(0.996264)"/>
       <use xlink:href="#CMR17-30" transform="translate(45.690477 0) scale(0.996264)"/>
      </g>
     </g>
    </g>
    <g id="ytick_2">
     <g id="line2d_8">
      <path d="M 83.392615 404.018448 
L 694.08 404.018448 
" clip-path="url(#p5ef4626677)" style="fill: none; stroke: #cccccc; stroke-linecap: round"/>
     </g>
     <g id="text_9">
      <!-- $\mathdefault{12}$ -->
      <g style="fill: #262626" transform="translate(53.788805 411.628794) scale(0.22 -0.22)">
       <use xlink:href="#CMR17-31" transform="scale(0.996264)"/>
       <use xlink:href="#CMR17-32" transform="translate(45.690477 0) scale(0.996264)"/>
      </g>
     </g>
    </g>
    <g id="ytick_3">
     <g id="line2d_9">
      <path d="M 83.392615 318.335747 
L 694.08 318.335747 
" clip-path="url(#p5ef4626677)" style="fill: none; stroke: #cccccc; stroke-linecap: round"/>
     </g>
     <g id="text_10">
      <!-- $\mathdefault{14}$ -->
      <g style="fill: #262626" transform="translate(53.788805 325.946094) scale(0.22 -0.22)">
       <use xlink:href="#CMR17-31" transform="scale(0.996264)"/>
       <use xlink:href="#CMR17-34" transform="translate(45.690477 0) scale(0.996264)"/>
      </g>
     </g>
    </g>
    <g id="ytick_4">
     <g id="line2d_10">
      <path d="M 83.392615 232.653047 
L 694.08 232.653047 
" clip-path="url(#p5ef4626677)" style="fill: none; stroke: #cccccc; stroke-linecap: round"/>
     </g>
     <g id="text_11">
      <!-- $\mathdefault{16}$ -->
      <g style="fill: #262626" transform="translate(53.788805 240.263394) scale(0.22 -0.22)">
       <use xlink:href="#CMR17-31" transform="scale(0.996264)"/>
       <use xlink:href="#CMR17-36" transform="translate(45.690477 0) scale(0.996264)"/>
      </g>
     </g>
    </g>
    <g id="ytick_5">
     <g id="line2d_11">
      <path d="M 83.392615 146.970347 
L 694.08 146.970347 
" clip-path="url(#p5ef4626677)" style="fill: none; stroke: #cccccc; stroke-linecap: round"/>
     </g>
     <g id="text_12">
      <!-- $\mathdefault{18}$ -->
      <g style="fill: #262626" transform="translate(53.788805 154.580693) scale(0.22 -0.22)">
       <use xlink:href="#CMR17-31" transform="scale(0.996264)"/>
       <use xlink:href="#CMR17-38" transform="translate(45.690477 0) scale(0.996264)"/>
      </g>
     </g>
    </g>
    <g id="ytick_6">
     <g id="line2d_12">
      <path d="M 83.392615 61.287646 
L 694.08 61.287646 
" clip-path="url(#p5ef4626677)" style="fill: none; stroke: #cccccc; stroke-linecap: round"/>
     </g>
     <g id="text_13">
      <!-- $\mathdefault{20}$ -->
      <g style="fill: #262626" transform="translate(53.788805 68.897993) scale(0.22 -0.22)">
       <use xlink:href="#CMR17-32" transform="scale(0.996264)"/>
       <use xlink:href="#CMR17-30" transform="translate(45.690477 0) scale(0.996264)"/>
      </g>
     </g>
    </g>
    <g id="text_14">
     <!-- Peak Signal-to-Noise Ratio (PSNR), dB -->
     <g style="fill: #262626" transform="translate(43.831226 460.306706) rotate(-90) scale(0.24 -0.24)">
      <defs>
       <path id="CMSS17-50" d="M 2106 1856 
C 2874 1856 3501 2453 3501 3158 
C 3501 3850 2899 4453 2067 4453 
L 570 4453 
L 570 0 
L 1107 0 
L 1107 1856 
L 2106 1856 
z
M 1926 4096 
C 2669 4096 2995 3627 2995 3157 
C 2995 2720 2694 2226 1926 2226 
L 1094 2226 
L 1094 4096 
L 1926 4096 
z
" transform="scale(0.015625)"/>
       <path id="CMSS17-61" d="M 2406 1791 
C 2406 2392 1978 2808 1402 2808 
C 1120 2808 813 2757 461 2553 
L 499 2135 
C 659 2248 934 2432 1395 2432 
C 1722 2432 1920 2180 1920 1782 
L 1920 1536 
C 896 1536 256 1238 256 726 
C 256 461 416 -64 947 -64 
C 1043 -64 1562 -64 1933 217 
L 1933 -19 
L 2406 -19 
L 2406 1791 
z
M 1920 816 
C 1920 701 1920 548 1728 434 
C 1562 325 1350 325 1261 325 
C 941 325 723 511 723 744 
C 723 1211 1722 1211 1920 1211 
L 1920 816 
z
" transform="scale(0.015625)"/>
       <path id="CMSS17-6b" d="M 1696 1688 
L 2688 2739 
L 2074 2739 
L 954 1554 
L 954 4416 
L 480 4416 
L 480 0 
L 947 0 
L 947 892 
L 1376 1344 
L 2278 0 
L 2822 0 
L 1696 1688 
z
" transform="scale(0.015625)"/>
       <path id="CMSS17-69" d="M 979 4183 
L 442 4183 
L 442 3648 
L 979 3648 
L 979 4183 
z
M 947 2739 
L 474 2739 
L 474 0 
L 947 0 
L 947 2739 
z
" transform="scale(0.015625)"/>
       <path id="CMSS17-67" d="M 2848 2808 
C 2483 2808 2170 2738 1914 2617 
C 1702 2777 1485 2808 1338 2808 
C 781 2808 358 2349 358 1814 
C 358 1468 550 1207 563 1195 
C 448 1035 384 863 384 672 
C 384 448 474 289 544 200 
C 211 -3 166 -314 166 -435 
C 166 -898 749 -1280 1498 -1280 
C 2253 -1280 2835 -898 2835 -428 
C 2835 448 1856 448 1587 448 
L 1069 448 
C 973 448 717 448 717 791 
C 717 921 774 1004 781 1010 
C 877 940 1075 832 1338 832 
C 1869 832 2310 1278 2310 1827 
C 2310 2132 2170 2355 2112 2432 
L 2131 2432 
C 2150 2432 2419 2432 2515 2432 
C 2720 2432 2739 2429 2918 2419 
L 2848 2808 
z
M 1338 1182 
C 1120 1182 813 1315 813 1823 
C 813 2375 1165 2464 1331 2464 
C 1549 2464 1856 2331 1856 1823 
C 1856 1271 1504 1182 1338 1182 
z
M 1581 -10 
C 1734 -10 2381 -10 2381 -442 
C 2381 -714 1984 -929 1504 -929 
C 1018 -929 621 -720 621 -435 
C 621 -403 621 -10 1062 -10 
L 1581 -10 
z
" transform="scale(0.015625)"/>
       <path id="CMSS17-6e" d="M 2618 1877 
C 2618 2283 2522 2816 1798 2816 
C 1389 2816 1120 2606 941 2389 
L 941 2758 
L 474 2758 
L 474 0 
L 960 0 
L 960 1559 
C 960 1964 1114 2428 1549 2428 
C 2112 2428 2131 2048 2131 1829 
L 2131 0 
L 2618 0 
L 2618 1877 
z
" transform="scale(0.015625)"/>
       <path id="CMSS17-6c" d="M 947 4416 
L 474 4416 
L 474 0 
L 947 0 
L 947 4416 
z
" transform="scale(0.015625)"/>
       <path id="CMSS17-2d" d="M 1664 1216 
L 1664 1585 
L 64 1585 
L 64 1216 
L 1664 1216 
z
" transform="scale(0.015625)"/>
       <path id="CMSS17-6f" d="M 2829 1356 
C 2829 2176 2221 2816 1504 2816 
C 768 2816 173 2157 173 1356 
C 173 544 787 -64 1498 -64 
C 2227 -64 2829 563 2829 1356 
z
M 1504 337 
C 1050 337 659 709 659 1408 
C 659 2151 1114 2427 1498 2427 
C 1914 2427 2342 2126 2342 1408 
C 2342 683 1926 337 1504 337 
z
" transform="scale(0.015625)"/>
       <path id="CMSS17-4e" d="M 1466 4180 
L 1350 4416 
L 563 4416 
L 563 0 
L 1062 0 
L 1062 3926 
L 1069 3932 
C 1114 3817 1139 3760 1402 3194 
L 2771 236 
L 2886 0 
L 3674 0 
L 3674 4416 
L 3174 4416 
L 3174 490 
L 3168 483 
C 3123 598 3098 655 2835 1221 
L 1466 4180 
z
" transform="scale(0.015625)"/>
       <path id="CMSS17-73" d="M 2061 2627 
C 1683 2807 1389 2807 1197 2807 
C 742 2807 198 2648 198 2003 
C 198 1359 902 1218 1094 1179 
C 1389 1122 1715 1058 1715 740 
C 1715 337 1254 337 1171 337 
C 915 337 563 407 243 638 
L 166 210 
C 531 0 883 -64 1178 -64 
C 1965 -64 2163 416 2163 781 
C 2163 1094 1984 1305 1862 1401 
C 1651 1568 1574 1587 1050 1696 
C 960 1709 646 1779 646 2066 
C 646 2432 1050 2432 1139 2432 
C 1555 2432 1811 2303 1984 2208 
L 2061 2627 
z
" transform="scale(0.015625)"/>
       <path id="CMSS17-52" d="M 2522 2109 
L 2534 2115 
C 3533 2459 3539 3147 3539 3268 
C 3539 3873 2925 4453 2003 4453 
L 570 4453 
L 570 32 
L 1094 32 
L 1094 2048 
L 2035 2048 
L 3168 32 
L 3706 32 
L 2522 2109 
z
M 1094 2437 
L 1094 4096 
L 1933 4096 
C 2746 4096 3034 3637 3034 3267 
C 3034 2922 2778 2437 1933 2437 
L 1094 2437 
z
" transform="scale(0.015625)"/>
       <path id="CMSS17-28" d="M 1613 4768 
C 1267 4417 474 3601 474 1588 
C 474 -433 1267 -1243 1613 -1600 
L 2003 -1600 
C 1216 -784 960 357 960 1581 
C 960 2798 1203 3946 2003 4768 
L 1613 4768 
z
" transform="scale(0.015625)"/>
       <path id="CMSS17-29" d="M 723 -1600 
C 1069 -1249 1862 -433 1862 1581 
C 1862 3601 1069 4411 723 4768 
L 333 4768 
C 1120 3952 1376 2811 1376 1588 
C 1376 370 1133 -778 333 -1600 
L 723 -1600 
z
" transform="scale(0.015625)"/>
       <path id="CMSS17-2c" d="M 1088 6 
L 1088 510 
L 576 510 
L 576 0 
L 736 0 
L 570 -800 
L 826 -800 
L 1088 6 
z
" transform="scale(0.015625)"/>
       <path id="CMSS17-64" d="M 2611 4416 
L 2138 4416 
L 2138 2438 
C 1939 2603 1613 2756 1254 2756 
C 672 2756 211 2131 211 1347 
C 211 562 666 -64 1235 -64 
C 1677 -64 1971 172 2125 306 
L 2125 -13 
L 2611 -13 
L 2611 4416 
z
M 2125 836 
C 2125 747 2125 653 1926 482 
C 1798 375 1645 325 1498 325 
C 1152 325 698 576 698 1340 
C 698 2134 1210 2368 1562 2368 
C 1798 2368 1990 2254 2125 2065 
L 2125 836 
z
" transform="scale(0.015625)"/>
       <path id="CMSS17-42" d="M 570 4416 
L 570 0 
L 2163 0 
C 3034 0 3667 574 3667 1200 
C 3667 1685 3251 2176 2502 2317 
C 3334 2558 3501 3040 3501 3313 
C 3501 3883 2874 4416 1997 4416 
L 570 4416 
z
M 1088 2496 
L 1088 4059 
L 1824 4059 
C 2483 4059 3002 3724 3002 3306 
C 3002 2926 2592 2496 1766 2496 
L 1088 2496 
z
M 1088 357 
L 1088 2107 
L 1939 2107 
C 2630 2107 3162 1679 3162 1206 
C 3162 772 2694 357 1984 357 
L 1088 357 
z
" transform="scale(0.015625)"/>
      </defs>
      <use xlink:href="#CMSS17-50" transform="scale(0.996264)"/>
      <use xlink:href="#CMSS17-65" transform="translate(57.133132 0) scale(0.996264)"/>
      <use xlink:href="#CMSS17-61" transform="translate(98.771954 0) scale(0.996264)"/>
      <use xlink:href="#CMSS17-6b" transform="translate(143.693875 0) scale(0.996264)"/>
      <use xlink:href="#CMSS17-53" transform="translate(220.525477 0) scale(0.996264)"/>
      <use xlink:href="#CMSS17-69" transform="translate(272.573993 0) scale(0.996264)"/>
      <use xlink:href="#CMSS17-67" transform="translate(294.754716 0) scale(0.996264)"/>
      <use xlink:href="#CMSS17-6e" transform="translate(341.59834 0) scale(0.996264)"/>
      <use xlink:href="#CMSS17-61" transform="translate(389.803283 0) scale(0.996264)"/>
      <use xlink:href="#CMSS17-6c" transform="translate(434.725203 0) scale(0.996264)"/>
      <use xlink:href="#CMSS17-2d" transform="translate(456.905927 0) scale(0.996264)"/>
      <use xlink:href="#CMSS17-74" transform="translate(488.135039 0) scale(0.996264)"/>
      <use xlink:href="#CMSS17-6f" transform="translate(521.966606 0) scale(0.996264)"/>
      <use xlink:href="#CMSS17-2d" transform="translate(568.810229 0) scale(0.996264)"/>
      <use xlink:href="#CMSS17-4e" transform="translate(600.039342 0) scale(0.996264)"/>
      <use xlink:href="#CMSS17-6f" transform="translate(666.100861 0) scale(0.996264)"/>
      <use xlink:href="#CMSS17-69" transform="translate(712.944485 0) scale(0.996264)"/>
      <use xlink:href="#CMSS17-73" transform="translate(735.125208 0) scale(0.996264)"/>
      <use xlink:href="#CMSS17-65" transform="translate(771.03875 0) scale(0.996264)"/>
      <use xlink:href="#CMSS17-52" transform="translate(843.906685 0) scale(0.996264)"/>
      <use xlink:href="#CMSS17-61" transform="translate(904.32284 0) scale(0.996264)"/>
      <use xlink:href="#CMSS17-74" transform="translate(949.24476 0) scale(0.996264)"/>
      <use xlink:href="#CMSS17-69" transform="translate(983.076327 0) scale(0.996264)"/>
      <use xlink:href="#CMSS17-6f" transform="translate(1005.25705 0) scale(0.996264)"/>
      <use xlink:href="#CMSS17-28" transform="translate(1083.329786 0) scale(0.996264)"/>
      <use xlink:href="#CMSS17-50" transform="translate(1119.7637 0) scale(0.996264)"/>
      <use xlink:href="#CMSS17-53" transform="translate(1179.499287 0) scale(0.996264)"/>
      <use xlink:href="#CMSS17-4e" transform="translate(1231.547803 0) scale(0.996264)"/>
      <use xlink:href="#CMSS17-52" transform="translate(1297.609322 0) scale(0.996264)"/>
      <use xlink:href="#CMSS17-29" transform="translate(1358.025477 0) scale(0.996264)"/>
      <use xlink:href="#CMSS17-2c" transform="translate(1394.459391 0) scale(0.996264)"/>
      <use xlink:href="#CMSS17-64" transform="translate(1451.712709 0) scale(0.996264)"/>
      <use xlink:href="#CMSS17-42" transform="translate(1499.917652 0) scale(0.996264)"/>
     </g>
    </g>
   </g>
   <g id="PolyCollection_1">
    <defs>
     <path id="mec93e14fcf" d="M 111.151132 -316.798168 
L 111.151132 -297.999384 
L 116.758914 -314.566134 
L 122.366695 -315.534349 
L 127.974476 -316.729622 
L 133.582258 -298.971883 
L 139.190039 -323.571386 
L 144.79782 -324.162596 
L 150.405602 -323.562818 
L 156.013383 -321.49358 
L 161.621164 -317.03808 
L 167.228946 -321.270805 
L 172.836727 -323.819866 
L 178.444508 -317.886339 
L 184.052289 -327.328572 
L 189.660071 -327.568484 
L 195.267852 -327.598473 
L 200.875633 -327.598473 
L 206.483415 -327.58562 
L 212.091196 -327.002978 
L 217.698977 -326.62169 
L 223.306759 -326.600269 
L 228.91454 -326.00049 
L 234.522321 -325.640623 
L 240.130103 -324.706682 
L 245.737884 -324.595294 
L 251.345665 -324.582442 
L 256.953447 -325.079401 
L 262.561228 -325.083685 
L 268.169009 -324.346814 
L 273.776791 -324.265416 
L 279.384572 -324.650988 
L 284.992353 -324.188301 
L 290.600134 -322.483216 
L 296.207916 -322.975891 
L 301.815697 -322.50892 
L 307.423478 -322.333271 
L 313.03126 -322.911629 
L 318.639041 -321.789186 
L 324.246822 -321.746344 
L 329.854604 -321.772049 
L 335.462385 -303.722988 
L 341.070166 -313.640761 
L 346.677948 -317.80494 
L 352.285729 -318.884542 
L 357.89351 -318.588937 
L 363.501292 -318.241922 
L 369.109073 -321.780617 
L 374.716854 -321.600684 
L 380.324635 -321.103724 
L 385.932417 -320.645322 
L 391.540198 -105.286138 
L 397.147979 -105.440367 
L 402.755761 -109.643104 
L 408.363542 -100.432213 
L 413.971323 -116.664801 
L 419.579105 -117.800097 
L 425.186886 -115.730859 
L 430.794667 -112.937603 
L 436.402449 -112.971877 
L 442.01023 -112.877626 
L 447.618011 -113.104685 
L 453.225793 -112.423507 
L 458.833574 -111.613806 
L 464.441355 -113.511678 
L 470.049137 -113.455984 
L 475.656918 -114.389925 
L 481.264699 -123.369472 
L 486.87248 -123.67793 
L 492.480262 -126.068477 
L 498.088043 -128.30908 
L 503.695824 -139.126521 
L 509.303606 -130.926686 
L 514.911387 -131.136609 
L 520.519168 -141.06295 
L 526.12695 -141.114359 
L 531.734731 -138.796642 
L 537.342512 -136.25615 
L 542.950294 -124.406233 
L 548.558075 -121.972844 
L 554.165856 -122.131357 
L 559.773638 -133.158721 
L 565.381419 -133.163005 
L 570.9892 -133.171573 
L 576.596981 -133.163005 
L 582.204763 -133.141584 
L 587.812544 -133.145868 
L 593.420325 -133.150152 
L 599.028107 -133.163005 
L 604.635888 -132.417565 
L 610.243669 -130.219804 
L 615.851451 -130.061291 
L 621.459232 -130.254077 
L 627.067013 -132.897388 
L 632.674795 -133.115879 
L 638.282576 -133.115879 
L 643.890357 -133.090175 
L 649.498139 -133.08589 
L 655.10592 -132.079119 
L 660.713701 -133.330086 
L 666.321482 -133.445758 
L 666.321482 -203.911211 
L 666.321482 -203.911211 
L 660.713701 -203.32 
L 655.10592 -209.604826 
L 649.498139 -285.622518 
L 643.890357 -280.203087 
L 638.282576 -285.284071 
L 632.674795 -283.274812 
L 627.067013 -282.550793 
L 621.459232 -283.381915 
L 615.851451 -281.518316 
L 610.243669 -264.925862 
L 604.635888 -266.472434 
L 599.028107 -266.98653 
L 593.420325 -262.398222 
L 587.812544 -266.296785 
L 582.204763 -268.49883 
L 576.596981 -258.709582 
L 570.9892 -237.948663 
L 565.381419 -236.085065 
L 559.773638 -262.154026 
L 554.165856 -264.827326 
L 548.558075 -269.094325 
L 542.950294 -258.298305 
L 537.342512 -270.002562 
L 531.734731 -273.018593 
L 526.12695 -268.721605 
L 520.519168 -250.629703 
L 514.911387 -255.569311 
L 509.303606 -261.687055 
L 503.695824 -252.793191 
L 498.088043 -237.71732 
L 492.480262 -217.401952 
L 486.87248 -199.986943 
L 481.264699 -190.634676 
L 475.656918 -190.326218 
L 470.049137 -191.045953 
L 464.441355 -186.963172 
L 458.833574 -184.307009 
L 453.225793 -187.627213 
L 447.618011 -184.808253 
L 442.01023 -181.145317 
L 436.402449 -179.350265 
L 430.794667 -171.715936 
L 425.186886 -168.62279 
L 419.579105 -167.496063 
L 413.971323 -167.975886 
L 408.363542 -155.52619 
L 402.755761 -147.095012 
L 397.147979 -145.758362 
L 391.540198 -124.787521 
L 385.932417 -443.51003 
L 380.324635 -436.368377 
L 374.716854 -433.099582 
L 369.109073 -434.539051 
L 363.501292 -423.52454 
L 357.89351 -423.216082 
L 352.285729 -423.32747 
L 346.677948 -429.659421 
L 341.070166 -425.285319 
L 335.462385 -429.458067 
L 329.854604 -444.362573 
L 324.246822 -471.035597 
L 318.639041 -472.18803 
L 313.03126 -449.409284 
L 307.423478 -452.866581 
L 301.815697 -422.744827 
L 296.207916 -408.954197 
L 290.600134 -365.101791 
L 284.992353 -369.385926 
L 279.384572 -377.491509 
L 273.776791 -388.561714 
L 268.169009 -392.580233 
L 262.561228 -401.285595 
L 256.953447 -404.67863 
L 251.345665 -393.861189 
L 245.737884 -395.476308 
L 240.130103 -402.013898 
L 234.522321 -394.413843 
L 228.91454 -393.835484 
L 223.306759 -395.926142 
L 217.698977 -398.899332 
L 212.091196 -399.511963 
L 206.483415 -396.264589 
L 200.875633 -391.093638 
L 195.267852 -386.642422 
L 189.660071 -383.55356 
L 184.052289 -382.726722 
L 178.444508 -382.246899 
L 172.836727 -387.113676 
L 167.228946 -366.472714 
L 161.621164 -366.309917 
L 156.013383 -361.695903 
L 150.405602 -359.883714 
L 144.79782 -350.377219 
L 139.190039 -350.642835 
L 133.582258 -343.256986 
L 127.974476 -335.854001 
L 122.366695 -339.69687 
L 116.758914 -336.415223 
L 111.151132 -316.798168 
z
" style="stroke: #ffffff; stroke-opacity: 0.2"/>
    </defs>
    <g clip-path="url(#p5ef4626677)">
     <use xlink:href="#mec93e14fcf" x="0" y="576" style="fill: #4c72b0; fill-opacity: 0.2; stroke: #ffffff; stroke-opacity: 0.2"/>
    </g>
   </g>
   <g id="PolyCollection_2">
    <defs>
     <path id="m8ec129f1c1" d="M 111.151132 -321.02661 
L 111.151132 -305.22672 
L 116.758914 -309.091009 
L 122.366695 -309.960689 
L 127.974476 -312.432635 
L 133.582258 -313.597919 
L 139.190039 -317.860634 
L 144.79782 -317.882055 
L 150.405602 -317.886339 
L 156.013383 -318.040568 
L 161.621164 -324.66384 
L 167.228946 -322.307566 
L 172.836727 -322.526057 
L 178.444508 -320.443967 
L 184.052289 -331.535593 
L 189.660071 -331.655549 
L 195.267852 -330.995792 
L 200.875633 -331.000076 
L 206.483415 -331.008644 
L 212.091196 -331.017212 
L 217.698977 -330.995792 
L 223.306759 -330.901541 
L 228.91454 -330.837279 
L 234.522321 -329.299274 
L 240.130103 -326.600269 
L 245.737884 -330.121828 
L 251.345665 -329.076499 
L 256.953447 -332.508091 
L 262.561228 -331.488467 
L 268.169009 -329.54347 
L 273.776791 -330.130397 
L 279.384572 -329.787666 
L 284.992353 -328.712348 
L 290.600134 -328.823735 
L 296.207916 -328.828019 
L 301.815697 -328.613813 
L 307.423478 -328.266798 
L 313.03126 -328.15541 
L 318.639041 -330.36174 
L 324.246822 -332.002564 
L 329.854604 -331.878324 
L 335.462385 -331.218567 
L 341.070166 -330.61022 
L 346.677948 -330.597367 
L 352.285729 -329.834791 
L 357.89351 -329.650573 
L 363.501292 -329.342116 
L 369.109073 -329.320695 
L 374.716854 -329.157898 
L 380.324635 -330.083271 
L 385.932417 -328.780894 
L 391.540198 -103.628178 
L 397.147979 -107.475331 
L 402.755761 -107.273977 
L 408.363542 -107.213999 
L 413.971323 -105.855928 
L 419.579105 -104.866293 
L 425.186886 -104.412175 
L 430.794667 -104.63495 
L 436.402449 -105.200456 
L 442.01023 -105.838792 
L 447.618011 -104.754906 
L 453.225793 -108.109383 
L 458.833574 -118.875415 
L 464.441355 -119.338101 
L 470.049137 -119.578013 
L 475.656918 -119.719389 
L 481.264699 -120.040699 
L 486.87248 -120.104961 
L 492.480262 -120.002142 
L 498.088043 -119.976437 
L 503.695824 -119.029643 
L 509.303606 -120.970357 
L 514.911387 -122.966764 
L 520.519168 -126.068477 
L 526.12695 -126.02992 
L 531.734731 -125.982795 
L 537.342512 -126.004215 
L 542.950294 -124.663281 
L 548.558075 -121.047471 
L 554.165856 -121.818615 
L 559.773638 -118.901119 
L 565.381419 -123.964967 
L 570.9892 -125.520108 
L 576.596981 -120.653331 
L 582.204763 -120.700456 
L 587.812544 -120.75615 
L 593.420325 -120.036415 
L 599.028107 -119.852197 
L 604.635888 -120.216349 
L 610.243669 -119.967869 
L 615.851451 -119.925028 
L 621.459232 -119.076769 
L 627.067013 -118.262783 
L 632.674795 -116.651948 
L 638.282576 -116.729063 
L 643.890357 -114.93401 
L 649.498139 -113.584508 
L 655.10592 -113.15181 
L 660.713701 -110.735558 
L 666.321482 -110.152916 
L 666.321482 -254.369753 
L 666.321482 -254.369753 
L 660.713701 -235.742334 
L 655.10592 -225.987358 
L 649.498139 -216.673649 
L 643.890357 -207.762648 
L 638.282576 -196.165494 
L 632.674795 -197.356484 
L 627.067013 -205.526329 
L 621.459232 -205.783378 
L 615.851451 -195.76707 
L 610.243669 -199.459994 
L 604.635888 -200.633847 
L 599.028107 -201.773427 
L 593.420325 -196.945207 
L 587.812544 -191.157341 
L 582.204763 -200.376799 
L 576.596981 -196.850956 
L 570.9892 -198.453223 
L 565.381419 -200.423925 
L 559.773638 -203.547059 
L 554.165856 -203.264306 
L 548.558075 -208.302449 
L 542.950294 -208.135368 
L 537.342512 -207.694102 
L 531.734731 -203.054384 
L 526.12695 -184.161348 
L 520.519168 -183.989983 
L 514.911387 -175.13896 
L 509.303606 -171.514582 
L 503.695824 -177.559496 
L 498.088043 -183.308805 
L 492.480262 -182.280613 
L 486.87248 -189.863532 
L 481.264699 -180.138545 
L 475.656918 -175.220358 
L 470.049137 -169.458197 
L 464.441355 -152.047472 
L 458.833574 -149.601231 
L 453.225793 -130.558251 
L 447.618011 -132.040561 
L 442.01023 -156.922818 
L 436.402449 -165.135505 
L 430.794667 -164.518589 
L 425.186886 -152.771491 
L 419.579105 -146.718008 
L 413.971323 -144.280335 
L 408.363542 -140.167566 
L 402.755761 -137.262922 
L 397.147979 -136.500346 
L 391.540198 -133.420053 
L 385.932417 -390.673793 
L 380.324635 -425.743722 
L 374.716854 -455.282833 
L 369.109073 -434.127774 
L 363.501292 -433.322357 
L 357.89351 -423.837282 
L 352.285729 -428.785458 
L 346.677948 -420.658454 
L 341.070166 -433.365198 
L 335.462385 -431.467326 
L 329.854604 -435.841428 
L 324.246822 -433.686508 
L 318.639041 -442.554668 
L 313.03126 -447.909837 
L 307.423478 -447.674209 
L 301.815697 -447.181534 
L 296.207916 -446.453231 
L 290.600134 -380.661769 
L 284.992353 -373.691481 
L 279.384572 -377.975616 
L 273.776791 -420.024402 
L 268.169009 -444.623905 
L 262.561228 -459.399887 
L 256.953447 -467.873906 
L 251.345665 -477.573187 
L 245.737884 -480.936233 
L 240.130103 -475.461109 
L 234.522321 -469.973132 
L 228.91454 -458.894359 
L 223.306759 -456.002568 
L 217.698977 -456.041125 
L 212.091196 -454.061854 
L 206.483415 -448.925177 
L 200.875633 -423.948669 
L 195.267852 -429.025369 
L 189.660071 -423.905828 
L 184.052289 -422.282141 
L 178.444508 -409.596817 
L 172.836727 -419.497453 
L 167.228946 -404.567243 
L 161.621164 -371.630812 
L 156.013383 -341.444797 
L 150.405602 -341.599026 
L 144.79782 -340.943553 
L 139.190039 -343.218429 
L 133.582258 -347.678214 
L 127.974476 -346.962763 
L 122.366695 -332.76514 
L 116.758914 -326.257538 
L 111.151132 -321.02661 
z
" style="stroke: #ffffff; stroke-opacity: 0.2"/>
    </defs>
    <g clip-path="url(#p5ef4626677)">
     <use xlink:href="#m8ec129f1c1" x="0" y="576" style="fill: #dd8452; fill-opacity: 0.2; stroke: #ffffff; stroke-opacity: 0.2"/>
    </g>
   </g>
   <g id="PolyCollection_3">
    <defs>
     <path id="m33f6c05916" d="M 111.151132 -325.67918 
L 111.151132 -295.720224 
L 116.758914 -307.111739 
L 122.366695 -306.456266 
L 127.974476 -310.483353 
L 133.582258 -317.033796 
L 139.190039 -318.199081 
L 144.79782 -309.335205 
L 150.405602 -318.987361 
L 156.013383 -316.378323 
L 161.621164 -313.490816 
L 167.228946 -320.443967 
L 172.836727 -322.341839 
L 178.444508 -324.509611 
L 184.052289 -324.488191 
L 189.660071 -324.770944 
L 195.267852 -329.487776 
L 200.875633 -328.189683 
L 206.483415 -328.146842 
L 212.091196 -328.078296 
L 217.698977 -328.078296 
L 223.306759 -328.116853 
L 228.91454 -327.054388 
L 234.522321 -325.225062 
L 240.130103 -325.03656 
L 245.737884 -325.229346 
L 251.345665 -324.916604 
L 256.953447 -325.139379 
L 262.561228 -324.239711 
L 268.169009 -322.727411 
L 273.776791 -322.744548 
L 279.384572 -322.337555 
L 284.992353 -322.110496 
L 290.600134 -322.663149 
L 296.207916 -322.663149 
L 301.815697 -322.676002 
L 307.423478 -322.676002 
L 313.03126 -323.798445 
L 318.639041 -323.798445 
L 324.246822 -330.665913 
L 329.854604 -332.182497 
L 335.462385 -334.555908 
L 341.070166 -333.900435 
L 346.677948 -321.352204 
L 352.285729 -320.131225 
L 357.89351 -308.645459 
L 363.501292 -307.685813 
L 369.109073 -308.782552 
L 374.716854 -310.958892 
L 380.324635 -309.870722 
L 385.932417 -310.00353 
L 391.540198 -110.984038 
L 397.147979 -111.391031 
L 402.755761 -106.644209 
L 408.363542 -106.657061 
L 413.971323 -106.652777 
L 419.579105 -106.661346 
L 425.186886 -106.845563 
L 430.794667 -108.983347 
L 436.402449 -108.854823 
L 442.01023 -107.419638 
L 447.618011 -108.07511 
L 453.225793 -108.863391 
L 458.833574 -108.987631 
L 464.441355 -111.228234 
L 470.049137 -117.821517 
L 475.656918 -117.633015 
L 481.264699 -118.896835 
L 486.87248 -116.442026 
L 492.480262 -111.480998 
L 498.088043 -119.847913 
L 503.695824 -147.27923 
L 509.303606 -148.166046 
L 514.911387 -139.276466 
L 520.519168 -151.747583 
L 526.12695 -151.80756 
L 531.734731 -151.597638 
L 537.342512 -150.492331 
L 542.950294 -136.35897 
L 548.558075 -115.610904 
L 554.165856 -144.1818 
L 559.773638 -147.729064 
L 565.381419 -153.534067 
L 570.9892 -152.720081 
L 576.596981 -152.141723 
L 582.204763 -153.114222 
L 587.812544 -150.213862 
L 593.420325 -150.71939 
L 599.028107 -150.192442 
L 604.635888 -149.052862 
L 610.243669 -148.585891 
L 615.851451 -147.690507 
L 621.459232 -145.565576 
L 627.067013 -141.859799 
L 632.674795 -143.594874 
L 638.282576 -144.421712 
L 643.890357 -142.836582 
L 649.498139 -140.206123 
L 655.10592 -140.283237 
L 660.713701 -140.073315 
L 666.321482 -139.92337 
L 666.321482 -208.44811 
L 666.321482 -208.44811 
L 660.713701 -211.189956 
L 655.10592 -232.37072 
L 649.498139 -240.986115 
L 643.890357 -256.644629 
L 638.282576 -253.907066 
L 632.674795 -246.53407 
L 627.067013 -239.216767 
L 621.459232 -244.310604 
L 615.851451 -251.075253 
L 610.243669 -258.563921 
L 604.635888 -244.70046 
L 599.028107 -257.719946 
L 593.420325 -251.250903 
L 587.812544 -251.490814 
L 582.204763 -253.581472 
L 576.596981 -258.139792 
L 570.9892 -256.4904 
L 565.381419 -223.322626 
L 559.773638 -223.995236 
L 554.165856 -220.567928 
L 548.558075 -220.585064 
L 542.950294 -218.181664 
L 537.342512 -213.623345 
L 531.734731 -216.96497 
L 526.12695 -229.341836 
L 520.519168 -230.104412 
L 514.911387 -206.554522 
L 509.303606 -200.779508 
L 503.695824 -197.27937 
L 498.088043 -191.564333 
L 492.480262 -186.693272 
L 486.87248 -184.773979 
L 481.264699 -180.425582 
L 475.656918 -180.614084 
L 470.049137 -180.678346 
L 464.441355 -180.90969 
L 458.833574 -179.500209 
L 453.225793 -177.478098 
L 447.618011 -177.131083 
L 442.01023 -172.78697 
L 436.402449 -171.536002 
L 430.794667 -167.963034 
L 425.186886 -161.112702 
L 419.579105 -166.257948 
L 413.971323 -166.347915 
L 408.363542 -160.705709 
L 402.755761 -146.628041 
L 397.147979 -133.008776 
L 391.540198 -117.127487 
L 385.932417 -473.220506 
L 380.324635 -468.786426 
L 374.716854 -470.358704 
L 369.109073 -472.535045 
L 363.501292 -457.399196 
L 357.89351 -434.796099 
L 352.285729 -438.120588 
L 346.677948 -435.777166 
L 341.070166 -436.989576 
L 335.462385 -436.638277 
L 329.854604 -426.76763 
L 324.246822 -431.047481 
L 318.639041 -430.884684 
L 313.03126 -449.524955 
L 307.423478 -466.297344 
L 301.815697 -466.387311 
L 296.207916 -464.339494 
L 290.600134 -466.323049 
L 284.992353 -466.297344 
L 279.384572 -467.848201 
L 273.776791 -468.567936 
L 268.169009 -465.384823 
L 262.561228 -454.755884 
L 256.953447 -454.580235 
L 251.345665 -452.095436 
L 245.737884 -458.22175 
L 240.130103 -460.299555 
L 234.522321 -501.140214 
L 228.91454 -505.895604 
L 223.306759 -505.261552 
L 217.698977 -505.257268 
L 212.091196 -505.171585 
L 206.483415 -505.37294 
L 200.875633 -492.751878 
L 195.267852 -456.640904 
L 189.660071 -439.367271 
L 184.052289 -402.476585 
L 178.444508 -402.493721 
L 172.836727 -401.25989 
L 167.228946 -402.373765 
L 161.621164 -402.270946 
L 156.013383 -402.270946 
L 150.405602 -401.054252 
L 144.79782 -400.651543 
L 139.190039 -377.962764 
L 133.582258 -361.683051 
L 127.974476 -362.081476 
L 122.366695 -328.588108 
L 116.758914 -341.599026 
L 111.151132 -325.67918 
z
" style="stroke: #ffffff; stroke-opacity: 0.2"/>
    </defs>
    <g clip-path="url(#p5ef4626677)">
     <use xlink:href="#m33f6c05916" x="0" y="576" style="fill: #55a868; fill-opacity: 0.2; stroke: #ffffff; stroke-opacity: 0.2"/>
    </g>
   </g>
   <g id="line2d_13">
    <path d="M 111.151132 268.584944 
L 116.758914 253.390831 
L 122.366695 250.373943 
L 127.974476 247.649233 
L 133.582258 249.344037 
L 139.190039 239.566784 
L 144.79782 239.758713 
L 150.405602 235.480576 
L 156.013383 232.277757 
L 161.621164 235.451444 
L 167.228946 229.00125 
L 172.836727 221.703655 
L 178.444508 223.126844 
L 184.052289 221.449177 
L 189.660071 221.988121 
L 195.267852 220.593207 
L 200.875633 220.11167 
L 206.483415 218.680769 
L 212.091196 211.139835 
L 217.698977 211.300061 
L 223.306759 210.878502 
L 228.91454 218.618221 
L 234.522321 217.0845 
L 240.130103 216.859155 
L 245.737884 210.282151 
L 251.345665 214.609127 
L 256.953447 207.027922 
L 262.561228 209.403903 
L 268.169009 213.251913 
L 273.776791 214.759072 
L 279.384572 218.327756 
L 284.992353 230.600946 
L 290.600134 229.516203 
L 296.207916 219.502466 
L 301.815697 216.200255 
L 307.423478 208.207772 
L 313.03126 209.855451 
L 318.639041 206.417861 
L 324.246822 205.366534 
L 329.854604 214.291244 
L 335.462385 218.972947 
L 341.070166 217.249011 
L 346.677948 216.5824 
L 352.285729 218.230078 
L 357.89351 218.051858 
L 363.501292 219.779221 
L 369.109073 220.527231 
L 374.716854 221.323223 
L 380.324635 220.029415 
L 385.932417 216.917419 
L 391.540198 460.613585 
L 397.147979 455.112756 
L 402.755761 451.941639 
L 408.363542 452.613391 
L 413.971323 445.530002 
L 419.579105 443.052916 
L 425.186886 443.061484 
L 430.794667 444.662037 
L 436.402449 443.157448 
L 442.01023 442.663916 
L 447.618011 438.506591 
L 453.225793 438.772208 
L 458.833574 436.726105 
L 464.441355 433.255956 
L 470.049137 432.413695 
L 475.656918 430.244209 
L 481.264699 427.944485 
L 486.87248 420.045397 
L 492.480262 413.795701 
L 498.088043 402.499293 
L 503.695824 391.276573 
L 509.303606 395.403909 
L 514.911387 399.746308 
L 520.519168 381.547303 
L 526.12695 378.520133 
L 531.734731 377.727568 
L 537.342512 386.855346 
L 542.950294 386.660846 
L 548.558075 385.966816 
L 554.165856 384.00811 
L 559.773638 378.844014 
L 565.381419 383.88644 
L 570.9892 380.960376 
L 576.596981 374.23 
L 582.204763 374.052637 
L 587.812544 376.438043 
L 593.420325 377.110652 
L 599.028107 377.627319 
L 604.635888 378.419027 
L 610.243669 379.41466 
L 615.851451 375.983068 
L 621.459232 374.925744 
L 627.067013 375.532377 
L 632.674795 376.907584 
L 638.282576 377.25974 
L 643.890357 382.448685 
L 649.498139 388.762643 
L 655.10592 404.115269 
L 660.713701 407.716513 
L 666.321482 409.956259 
" clip-path="url(#p5ef4626677)" style="fill: none; stroke: #4c72b0; stroke-width: 1.5; stroke-linecap: round"/>
   </g>
   <g id="line2d_14">
    <path d="M 111.151132 265.644314 
L 116.758914 259.284944 
L 122.366695 256.77187 
L 127.974476 250.343954 
L 133.582258 249.165817 
L 139.190039 247.268802 
L 144.79782 245.179001 
L 150.405602 243.974302 
L 156.013383 243.90747 
L 161.621164 236.671566 
L 167.228946 229.834943 
L 172.836727 226.905451 
L 178.444508 226.775214 
L 184.052289 219.82549 
L 189.660071 217.383533 
L 195.267852 217.421233 
L 200.875633 219.518746 
L 206.483415 213.763439 
L 212.091196 211.428585 
L 217.698977 204.09586 
L 223.306759 204.63309 
L 228.91454 203.348707 
L 234.522321 203.521786 
L 240.130103 203.11565 
L 245.737884 200.672836 
L 251.345665 201.555368 
L 256.953447 202.466175 
L 262.561228 206.721178 
L 268.169009 211.586241 
L 273.776791 216.531847 
L 279.384572 227.728862 
L 284.992353 226.545584 
L 290.600134 225.677618 
L 296.207916 208.945501 
L 301.815697 208.612195 
L 307.423478 208.434832 
L 313.03126 207.721952 
L 318.639041 207.150448 
L 324.246822 208.747574 
L 329.854604 208.415981 
L 335.462385 209.45874 
L 341.070166 208.918939 
L 346.677948 211.248652 
L 352.285729 206.405865 
L 357.89351 210.813383 
L 363.501292 211.82701 
L 369.109073 212.643566 
L 374.716854 207.901885 
L 380.324635 213.588646 
L 385.932417 222.359984 
L 391.540198 463.380279 
L 397.147979 461.293049 
L 402.755761 460.862922 
L 408.363542 460.223729 
L 413.971323 459.4106 
L 419.579105 458.816819 
L 425.186886 457.191418 
L 430.794667 453.945757 
L 436.402449 451.846531 
L 442.01023 453.374254 
L 447.618011 456.933513 
L 453.225793 454.644928 
L 458.833574 446.304574 
L 464.441355 445.105016 
L 470.049137 432.076105 
L 475.656918 426.612119 
L 481.264699 422.972318 
L 486.87248 418.215214 
L 492.480262 419.715518 
L 498.088043 418.631632 
L 503.695824 419.767785 
L 509.303606 419.180002 
L 514.911387 418.03271 
L 520.519168 415.850372 
L 526.12695 415.918061 
L 531.734731 412.806065 
L 537.342512 413.930223 
L 542.950294 417.665988 
L 548.558075 418.614496 
L 554.165856 419.446475 
L 559.773638 420.053108 
L 565.381419 420.244181 
L 570.9892 419.878316 
L 576.596981 415.830665 
L 582.204763 411.477127 
L 587.812544 415.806674 
L 593.420325 415.814385 
L 599.028107 409.602389 
L 604.635888 410.366679 
L 610.243669 411.699902 
L 615.851451 414.631964 
L 621.459232 415.525634 
L 627.067013 415.497359 
L 632.674795 413.843683 
L 638.282576 413.770853 
L 643.890357 409.306784 
L 649.498139 404.86585 
L 655.10592 402.60811 
L 660.713701 399.258774 
L 666.321482 387.668475 
" clip-path="url(#p5ef4626677)" style="fill: none; stroke: #dd8452; stroke-width: 1.5; stroke-linecap: round"/>
   </g>
   <g id="line2d_15">
    <path d="M 111.151132 265.362418 
L 116.758914 256.6125 
L 122.366695 256.993788 
L 127.974476 249.790444 
L 133.582258 247.292793 
L 139.190039 242.162113 
L 144.79782 239.257469 
L 150.405602 235.756474 
L 156.013383 236.472782 
L 161.621164 234.93392 
L 167.228946 228.132428 
L 172.836727 224.268995 
L 178.444508 220.229912 
L 184.052289 218.836711 
L 189.660071 210.527203 
L 195.267852 205.405091 
L 200.875633 195.752078 
L 206.483415 191.616174 
L 212.091196 189.65147 
L 217.698977 189.565787 
L 223.306759 188.850337 
L 228.91454 189.719159 
L 234.522321 193.256998 
L 240.130103 201.60592 
L 245.737884 202.321371 
L 251.345665 203.58262 
L 256.953447 201.410564 
L 262.561228 200.55031 
L 268.169009 198.835799 
L 273.776791 198.575323 
L 279.384572 199.026871 
L 284.992353 200.835633 
L 290.600134 199.112554 
L 296.207916 200.131321 
L 301.815697 199.795445 
L 307.423478 197.422891 
L 313.03126 199.89398 
L 318.639041 200.761089 
L 324.246822 203.364986 
L 329.854604 206.676623 
L 335.462385 205.394809 
L 341.070166 215.411974 
L 346.677948 204.032455 
L 352.285729 202.862029 
L 357.89351 207.470044 
L 363.501292 201.934085 
L 369.109073 199.265069 
L 374.716854 200.620569 
L 380.324635 201.094395 
L 385.932417 200.198154 
L 391.540198 461.405293 
L 397.147979 455.432352 
L 402.755761 451.204768 
L 408.363542 448.18788 
L 413.971323 446.589041 
L 419.579105 447.541832 
L 425.186886 448.64971 
L 430.794667 445.145287 
L 436.402449 443.788073 
L 442.01023 442.597084 
L 447.618011 441.465215 
L 453.225793 439.971766 
L 458.833574 438.277819 
L 464.441355 439.031826 
L 470.049137 431.398355 
L 475.656918 426.112589 
L 481.264699 428.462865 
L 486.87248 418.302611 
L 492.480262 415.267729 
L 498.088043 409.646944 
L 503.695824 398.248575 
L 509.303606 395.080885 
L 514.911387 392.352748 
L 520.519168 382.109381 
L 526.12695 381.37508 
L 531.734731 383.681659 
L 537.342512 384.923201 
L 542.950294 389.078812 
L 548.558075 391.911482 
L 554.165856 386.739674 
L 559.773638 385.53926 
L 565.381419 383.45717 
L 570.9892 377.662449 
L 576.596981 375.981354 
L 582.204763 375.108248 
L 587.812544 376.033621 
L 593.420325 374.075771 
L 599.028107 371.492438 
L 604.635888 371.23796 
L 610.243669 366.541691 
L 615.851451 370.102664 
L 621.459232 372.673145 
L 627.067013 375.247054 
L 632.674795 371.999679 
L 638.282576 374.648132 
L 643.890357 379.075357 
L 649.498139 383.943848 
L 655.10592 388.638403 
L 660.713701 397.958967 
L 666.321482 402.227679 
" clip-path="url(#p5ef4626677)" style="fill: none; stroke: #55a868; stroke-width: 1.5; stroke-linecap: round"/>
   </g>
   <g id="patch_3">
    <path d="M 83.392615 495.840956 
L 83.392615 49.831226 
" style="fill: none; stroke: #cccccc; stroke-width: 1.25; stroke-linejoin: miter; stroke-linecap: square"/>
   </g>
   <g id="patch_4">
    <path d="M 694.08 495.840956 
L 694.08 49.831226 
" style="fill: none; stroke: #cccccc; stroke-width: 1.25; stroke-linejoin: miter; stroke-linecap: square"/>
   </g>
   <g id="patch_5">
    <path d="M 83.392615 495.840956 
L 694.08 495.840956 
" style="fill: none; stroke: #cccccc; stroke-width: 1.25; stroke-linejoin: miter; stroke-linecap: square"/>
   </g>
   <g id="patch_6">
    <path d="M 83.392615 49.831226 
L 694.08 49.831226 
" style="fill: none; stroke: #cccccc; stroke-width: 1.25; stroke-linejoin: miter; stroke-linecap: square"/>
   </g>
   <g id="text_15">
    <!-- Peak Signal-to-Noise Ratio (PSNR), dB over Step (Mean) -->
    <g style="fill: #262626" transform="translate(114.612151 43.831226) scale(0.24 -0.24)">
     <defs>
      <path id="CMSS17-76" d="M 2675 2752 
L 2176 2752 
L 1747 1556 
C 1613 1165 1421 627 1389 352 
L 1382 352 
C 1370 468 1318 634 1286 749 
C 1248 890 1197 1056 1158 1172 
L 595 2752 
L 83 2752 
L 1094 0 
L 1664 0 
L 2675 2752 
z
" transform="scale(0.015625)"/>
      <path id="CMSS17-72" d="M 954 1363 
C 954 1965 1395 2368 1958 2368 
L 1958 2789 
C 1549 2789 1165 2585 934 2253 
L 934 2758 
L 480 2758 
L 480 0 
L 954 0 
L 954 1363 
z
" transform="scale(0.015625)"/>
      <path id="CMSS17-4d" d="M 3194 2371 
L 2886 1473 
C 2835 1307 2662 791 2624 587 
L 2618 587 
C 2598 715 2560 849 2458 1174 
C 2400 1365 2336 1562 2272 1741 
L 1325 4416 
L 576 4416 
L 576 0 
L 1075 0 
L 1075 3900 
L 1082 3900 
C 1082 3894 1139 3613 1530 2499 
L 2374 96 
L 2848 96 
L 3610 2231 
C 3661 2378 3821 2843 3891 3066 
C 3955 3257 4115 3728 4154 3913 
L 4160 3913 
L 4160 0 
L 4666 0 
L 4666 4416 
L 3923 4416 
L 3194 2371 
z
" transform="scale(0.015625)"/>
     </defs>
     <use xlink:href="#CMSS17-50" transform="scale(0.996264)"/>
     <use xlink:href="#CMSS17-65" transform="translate(57.133132 0) scale(0.996264)"/>
     <use xlink:href="#CMSS17-61" transform="translate(98.771954 0) scale(0.996264)"/>
     <use xlink:href="#CMSS17-6b" transform="translate(143.693875 0) scale(0.996264)"/>
     <use xlink:href="#CMSS17-53" transform="translate(220.525477 0) scale(0.996264)"/>
     <use xlink:href="#CMSS17-69" transform="translate(272.573993 0) scale(0.996264)"/>
     <use xlink:href="#CMSS17-67" transform="translate(294.754716 0) scale(0.996264)"/>
     <use xlink:href="#CMSS17-6e" transform="translate(341.59834 0) scale(0.996264)"/>
     <use xlink:href="#CMSS17-61" transform="translate(389.803283 0) scale(0.996264)"/>
     <use xlink:href="#CMSS17-6c" transform="translate(434.725203 0) scale(0.996264)"/>
     <use xlink:href="#CMSS17-2d" transform="translate(456.905927 0) scale(0.996264)"/>
     <use xlink:href="#CMSS17-74" transform="translate(488.135039 0) scale(0.996264)"/>
     <use xlink:href="#CMSS17-6f" transform="translate(521.966606 0) scale(0.996264)"/>
     <use xlink:href="#CMSS17-2d" transform="translate(568.810229 0) scale(0.996264)"/>
     <use xlink:href="#CMSS17-4e" transform="translate(600.039342 0) scale(0.996264)"/>
     <use xlink:href="#CMSS17-6f" transform="translate(666.100861 0) scale(0.996264)"/>
     <use xlink:href="#CMSS17-69" transform="translate(712.944485 0) scale(0.996264)"/>
     <use xlink:href="#CMSS17-73" transform="translate(735.125208 0) scale(0.996264)"/>
     <use xlink:href="#CMSS17-65" transform="translate(771.03875 0) scale(0.996264)"/>
     <use xlink:href="#CMSS17-52" transform="translate(843.906685 0) scale(0.996264)"/>
     <use xlink:href="#CMSS17-61" transform="translate(904.32284 0) scale(0.996264)"/>
     <use xlink:href="#CMSS17-74" transform="translate(949.24476 0) scale(0.996264)"/>
     <use xlink:href="#CMSS17-69" transform="translate(983.076327 0) scale(0.996264)"/>
     <use xlink:href="#CMSS17-6f" transform="translate(1005.25705 0) scale(0.996264)"/>
     <use xlink:href="#CMSS17-28" transform="translate(1083.329786 0) scale(0.996264)"/>
     <use xlink:href="#CMSS17-50" transform="translate(1119.7637 0) scale(0.996264)"/>
     <use xlink:href="#CMSS17-53" transform="translate(1179.499287 0) scale(0.996264)"/>
     <use xlink:href="#CMSS17-4e" transform="translate(1231.547803 0) scale(0.996264)"/>
     <use xlink:href="#CMSS17-52" transform="translate(1297.609322 0) scale(0.996264)"/>
     <use xlink:href="#CMSS17-29" transform="translate(1358.025477 0) scale(0.996264)"/>
     <use xlink:href="#CMSS17-2c" transform="translate(1394.459391 0) scale(0.996264)"/>
     <use xlink:href="#CMSS17-64" transform="translate(1451.712709 0) scale(0.996264)"/>
     <use xlink:href="#CMSS17-42" transform="translate(1499.917652 0) scale(0.996264)"/>
     <use xlink:href="#CMSS17-6f" transform="translate(1593.484805 0) scale(0.996264)"/>
     <use xlink:href="#CMSS17-76" transform="translate(1640.328428 0) scale(0.996264)"/>
     <use xlink:href="#CMSS17-65" transform="translate(1683.32857 0) scale(0.996264)"/>
     <use xlink:href="#CMSS17-72" transform="translate(1724.967392 0) scale(0.996264)"/>
     <use xlink:href="#CMSS17-53" transform="translate(1788.106277 0) scale(0.996264)"/>
     <use xlink:href="#CMSS17-74" transform="translate(1840.154794 0) scale(0.996264)"/>
     <use xlink:href="#CMSS17-65" transform="translate(1873.98636 0) scale(0.996264)"/>
     <use xlink:href="#CMSS17-70" transform="translate(1915.625182 0) scale(0.996264)"/>
     <use xlink:href="#CMSS17-28" transform="translate(1995.059238 0) scale(0.996264)"/>
     <use xlink:href="#CMSS17-4d" transform="translate(2031.493153 0) scale(0.996264)"/>
     <use xlink:href="#CMSS17-65" transform="translate(2113.169182 0) scale(0.996264)"/>
     <use xlink:href="#CMSS17-61" transform="translate(2154.808005 0) scale(0.996264)"/>
     <use xlink:href="#CMSS17-6e" transform="translate(2199.729925 0) scale(0.996264)"/>
     <use xlink:href="#CMSS17-29" transform="translate(2247.934868 0) scale(0.996264)"/>
    </g>
   </g>
   <g id="legend_1">
    <g id="patch_7">
     <path d="M 424.76792 191.675953 
L 678.68 191.675953 
Q 683.08 191.675953 683.08 187.275953 
L 683.08 65.231226 
Q 683.08 60.831226 678.68 60.831226 
L 424.76792 60.831226 
Q 420.36792 60.831226 420.36792 65.231226 
L 420.36792 187.275953 
Q 420.36792 191.675953 424.76792 191.675953 
z
" style="fill: #ffffff; opacity: 0.8; stroke: #cccccc; stroke-linejoin: miter"/>
    </g>
    <g id="text_16">
     <!-- Reception Confidence $\theta_{\mathrm{init}}$ -->
     <g style="fill: #262626" transform="translate(429.16792 86.235632) scale(0.24 -0.24)">
      <defs>
       <path id="CMSS17-63" d="M 2464 2541 
C 2464 2585 2170 2714 2093 2739 
C 1882 2816 1613 2816 1542 2816 
C 710 2816 211 2093 211 1363 
C 211 595 768 -64 1517 -64 
C 1946 -64 2253 76 2502 242 
L 2464 664 
C 2189 453 1869 337 1523 337 
C 1024 337 698 774 698 1369 
C 698 1831 909 2414 1549 2414 
C 1901 2414 2099 2343 2394 2145 
L 2464 2541 
z
" transform="scale(0.015625)"/>
       <path id="CMSS17-43" d="M 3501 714 
C 3072 427 2874 344 2355 344 
C 1459 344 934 1303 934 2179 
C 934 3112 1472 4032 2381 4032 
C 2790 4032 3059 3918 3386 3715 
L 3475 4217 
C 3168 4370 2778 4440 2387 4440 
C 1158 4440 397 3316 397 2179 
C 397 927 1299 -64 2323 -64 
C 2874 -64 3066 -19 3539 280 
L 3501 714 
z
" transform="scale(0.015625)"/>
       <path id="CMSS17-c" d="M 2752 4416 
L 2240 4416 
L 2240 3906 
L 2752 3906 
L 2752 4416 
z
M 2733 2737 
L 2259 2737 
L 2259 0 
L 2733 0 
L 2733 2737 
z
M 1075 2368 
L 1773 2368 
L 1773 2737 
L 1062 2737 
L 1062 3578 
C 1062 3919 1216 4092 1421 4092 
C 1542 4092 1664 4056 1773 3992 
L 1773 4410 
C 1722 4428 1574 4480 1421 4480 
C 941 4480 602 3993 602 3372 
L 602 2737 
L 160 2737 
L 160 2368 
L 602 2368 
L 602 0 
L 1075 0 
L 1075 2368 
z
" transform="scale(0.015625)"/>
       <path id="CMMI12-12" d="M 2835 3200 
C 2835 3850 2630 4480 2106 4480 
C 1210 4480 256 2615 256 1216 
C 256 923 320 -64 992 -64 
C 1862 -64 2835 1756 2835 3200 
z
M 896 2304 
C 992 2679 1126 3214 1382 3665 
C 1594 4047 1818 4352 2099 4352 
C 2310 4352 2451 4174 2451 3564 
C 2451 3334 2432 3017 2246 2304 
L 896 2304 
z
M 2202 2113 
C 2042 1490 1907 1088 1677 687 
C 1491 363 1267 64 998 64 
C 800 64 640 217 640 846 
C 640 1260 742 1693 845 2113 
L 2202 2113 
z
" transform="scale(0.015625)"/>
       <path id="CMR17-69" d="M 992 3909 
C 992 4049 877 4170 730 4170 
C 589 4170 467 4056 467 3909 
C 467 3769 582 3648 730 3648 
C 870 3648 992 3763 992 3909 
z
M 243 2706 
L 243 2541 
C 602 2541 653 2502 653 2197 
L 653 427 
C 653 184 627 153 218 153 
L 218 -13 
C 371 0 646 0 806 0 
C 960 0 1222 0 1370 -13 
L 1370 153 
C 992 153 979 191 979 420 
L 979 2776 
L 243 2706 
z
" transform="scale(0.015625)"/>
       <path id="CMR17-6e" d="M 2656 1933 
C 2656 2259 2592 2790 1837 2790 
C 1331 2790 1069 2400 973 2144 
L 966 2144 
L 966 2790 
L 211 2720 
L 211 2554 
C 589 2554 646 2515 646 2208 
L 646 428 
C 646 184 621 153 211 153 
L 211 -13 
C 365 0 646 0 813 0 
C 979 0 1267 0 1421 -13 
L 1421 153 
C 1011 153 986 178 986 428 
L 986 1658 
C 986 2247 1344 2688 1792 2688 
C 2266 2688 2317 2266 2317 1958 
L 2317 428 
C 2317 184 2291 153 1882 153 
L 1882 -13 
C 2035 0 2317 0 2483 0 
C 2650 0 2938 0 3091 -13 
L 3091 153 
C 2682 153 2656 178 2656 428 
L 2656 1933 
z
" transform="scale(0.015625)"/>
       <path id="CMR17-74" d="M 966 2560 
L 1862 2560 
L 1862 2725 
L 966 2725 
L 966 3904 
L 851 3904 
C 838 3245 614 2668 70 2668 
L 70 2560 
L 627 2560 
L 627 771 
C 627 650 627 -64 1370 -64 
C 1747 -64 1965 306 1965 777 
L 1965 1140 
L 1850 1140 
L 1850 783 
C 1850 344 1677 51 1408 51 
C 1222 51 966 178 966 758 
L 966 2560 
z
" transform="scale(0.015625)"/>
      </defs>
      <use xlink:href="#CMSS17-52" transform="scale(0.996264)"/>
      <use xlink:href="#CMSS17-65" transform="translate(60.416155 0) scale(0.996264)"/>
      <use xlink:href="#CMSS17-63" transform="translate(102.054977 0) scale(0.996264)"/>
      <use xlink:href="#CMSS17-65" transform="translate(143.693799 0) scale(0.996264)"/>
      <use xlink:href="#CMSS17-70" transform="translate(185.332621 0) scale(0.996264)"/>
      <use xlink:href="#CMSS17-74" transform="translate(233.537564 0) scale(0.996264)"/>
      <use xlink:href="#CMSS17-69" transform="translate(267.369131 0) scale(0.996264)"/>
      <use xlink:href="#CMSS17-6f" transform="translate(289.549854 0) scale(0.996264)"/>
      <use xlink:href="#CMSS17-6e" transform="translate(336.393477 0) scale(0.996264)"/>
      <use xlink:href="#CMSS17-43" transform="translate(415.827533 0) scale(0.996264)"/>
      <use xlink:href="#CMSS17-6f" transform="translate(475.683305 0) scale(0.996264)"/>
      <use xlink:href="#CMSS17-6e" transform="translate(522.526928 0) scale(0.996264)"/>
      <use xlink:href="#CMSS17-c" transform="translate(570.731872 0) scale(0.996264)"/>
      <use xlink:href="#CMSS17-64" transform="translate(620.858609 0) scale(0.996264)"/>
      <use xlink:href="#CMSS17-65" transform="translate(669.063552 0) scale(0.996264)"/>
      <use xlink:href="#CMSS17-6e" transform="translate(710.702374 0) scale(0.996264)"/>
      <use xlink:href="#CMSS17-63" transform="translate(758.907317 0) scale(0.996264)"/>
      <use xlink:href="#CMSS17-65" transform="translate(800.546139 0) scale(0.996264)"/>
      <use xlink:href="#CMMI12-12" transform="translate(873.414074 0) scale(0.996264)"/>
      <use xlink:href="#CMR17-69" transform="translate(918.873864 -14.943915) scale(0.697382)"/>
      <use xlink:href="#CMR17-6e" transform="translate(936.283523 -14.943915) scale(0.697382)"/>
      <use xlink:href="#CMR17-69" transform="translate(971.910131 -14.943915) scale(0.697382)"/>
      <use xlink:href="#CMR17-74" transform="translate(989.31979 -14.943915) scale(0.697382)"/>
     </g>
    </g>
    <g id="line2d_16">
     <path d="M 507.755705 109.586389 
L 529.755705 109.586389 
L 551.755705 109.586389 
" style="fill: none; stroke: #4c72b0; stroke-width: 1.5; stroke-linecap: round"/>
    </g>
    <g id="text_17">
     <!-- 0.4 -->
     <g style="fill: #262626" transform="translate(569.355705 117.286389) scale(0.22 -0.22)">
      <defs>
       <path id="CMSS17-30" d="M 2758 2044 
C 2758 2405 2752 3077 2490 3596 
C 2227 4096 1805 4229 1504 4229 
C 1069 4229 698 3975 506 3570 
C 301 3146 243 2709 243 2044 
C 243 1589 262 1031 493 543 
C 755 5 1197 -128 1498 -128 
C 1894 -128 2278 81 2496 518 
C 2720 974 2758 1474 2758 2044 
z
M 1498 261 
C 1011 261 864 811 819 995 
C 742 1310 730 1614 730 2114 
C 730 2506 730 2948 851 3297 
C 998 3701 1254 3840 1498 3840 
C 1971 3840 2125 3372 2176 3208 
C 2272 2873 2272 2481 2272 2114 
C 2272 1526 2272 261 1498 261 
z
" transform="scale(0.015625)"/>
       <path id="CMSS17-2e" d="M 1088 510 
L 576 510 
L 576 0 
L 1088 0 
L 1088 510 
z
" transform="scale(0.015625)"/>
       <path id="CMSS17-34" d="M 2253 1088 
L 2835 1088 
L 2835 1477 
L 2253 1477 
L 2253 4192 
L 1690 4192 
L 166 1477 
L 166 1088 
L 1747 1088 
L 1747 0 
L 2253 0 
L 2253 1088 
z
M 659 1477 
C 1030 2127 1766 3439 1766 3885 
L 1766 1477 
L 659 1477 
z
" transform="scale(0.015625)"/>
      </defs>
      <use xlink:href="#CMSS17-30" transform="scale(0.996264)"/>
      <use xlink:href="#CMSS17-2e" transform="translate(46.843624 0) scale(0.996264)"/>
      <use xlink:href="#CMSS17-34" transform="translate(72.867828 0) scale(0.996264)"/>
     </g>
    </g>
    <g id="line2d_17">
     <path d="M 507.755705 140.249577 
L 529.755705 140.249577 
L 551.755705 140.249577 
" style="fill: none; stroke: #dd8452; stroke-width: 1.5; stroke-linecap: round"/>
    </g>
    <g id="text_18">
     <!-- 0.6 -->
     <g style="fill: #262626" transform="translate(569.355705 147.949577) scale(0.22 -0.22)">
      <defs>
       <path id="CMSS17-36" d="M 2496 4101 
C 2227 4210 2035 4229 1856 4229 
C 1024 4229 250 3368 250 2006 
C 250 265 986 -128 1510 -128 
C 1798 -128 2086 -39 2362 280 
C 2643 617 2752 898 2752 1389 
C 2752 2179 2362 2880 1779 2880 
C 1357 2880 992 2657 768 2376 
C 832 3258 1254 3840 1862 3840 
C 2029 3840 2246 3816 2496 3710 
L 2496 4101 
z
M 774 1369 
C 774 1420 774 1452 781 1548 
C 781 2045 1069 2491 1536 2491 
C 1837 2491 1990 2332 2106 2135 
C 2240 1886 2246 1650 2246 1388 
C 2246 1140 2246 891 2099 637 
C 1978 439 1818 267 1510 267 
C 902 267 800 1114 774 1369 
z
" transform="scale(0.015625)"/>
      </defs>
      <use xlink:href="#CMSS17-30" transform="scale(0.996264)"/>
      <use xlink:href="#CMSS17-2e" transform="translate(46.843624 0) scale(0.996264)"/>
      <use xlink:href="#CMSS17-36" transform="translate(72.867828 0) scale(0.996264)"/>
     </g>
    </g>
    <g id="line2d_18">
     <path d="M 507.755705 170.912765 
L 529.755705 170.912765 
L 551.755705 170.912765 
" style="fill: none; stroke: #55a868; stroke-width: 1.5; stroke-linecap: round"/>
    </g>
    <g id="text_19">
     <!-- 0.8 -->
     <g style="fill: #262626" transform="translate(569.355705 178.612765) scale(0.22 -0.22)">
      <defs>
       <path id="CMSS17-38" d="M 1933 2222 
C 2419 2380 2669 2760 2669 3134 
C 2669 3722 2157 4229 1504 4229 
C 826 4229 333 3708 333 3144 
C 333 2780 576 2403 1069 2241 
C 442 1997 250 1512 250 1149 
C 250 446 819 -128 1498 -128 
C 2202 -128 2752 455 2752 1138 
C 2752 1557 2502 2000 1933 2222 
z
M 1504 2432 
C 1075 2432 787 2712 787 3136 
C 787 3566 1075 3840 1504 3840 
C 1901 3840 2214 3591 2214 3136 
C 2214 2687 1907 2432 1504 2432 
z
M 1504 267 
C 1139 267 749 517 749 1156 
C 749 1813 1184 2043 1498 2043 
C 1843 2043 2253 1800 2253 1156 
C 2253 491 1830 267 1504 267 
z
" transform="scale(0.015625)"/>
      </defs>
      <use xlink:href="#CMSS17-30" transform="scale(0.996264)"/>
      <use xlink:href="#CMSS17-2e" transform="translate(46.843624 0) scale(0.996264)"/>
      <use xlink:href="#CMSS17-38" transform="translate(72.867828 0) scale(0.996264)"/>
     </g>
    </g>
   </g>
  </g>
 </g>
 <defs>
  <clipPath id="p5ef4626677">
   <rect x="83.392615" y="49.831226" width="610.687385" height="446.00973"/>
  </clipPath>
 </defs>
</svg>
